<svg width="27" height="26" viewBox="0 0 27 26" fill="none" xmlns="http://www.w3.org/2000/svg">
<path fill-rule="evenodd" clip-rule="evenodd" d="M0.5 4.3596C0.5 3.86645 0.88802 3.46667 1.36667 3.46667H4.46421C5.57347 3.46667 6.56057 4.19176 6.92218 5.2722L7.5133 7.03839H16.9667C17.4453 7.03839 17.8333 7.43817 17.8333 7.93132C17.8333 8.42447 17.4453 8.82425 16.9667 8.82425H8.111L9.08226 11.7263H21.3C21.7786 11.7263 22.1667 12.126 22.1667 12.6192C22.1667 13.1124 21.7786 13.5121 21.3 13.5121H9.67996L10.4498 15.8123C10.5703 16.1725 10.8994 16.4141 11.2691 16.4141H22.1667C23.6026 16.4141 24.7667 15.2148 24.7667 13.7354V12.6192C24.7667 12.126 25.1547 11.7263 25.6333 11.7263C26.112 11.7263 26.5 12.126 26.5 12.6192V13.7354C26.5 16.2011 24.5599 18.2 22.1667 18.2H11.2691C10.1599 18.2 9.17276 17.4749 8.81115 16.3945L5.28353 5.85438C5.163 5.49423 4.83396 5.25253 4.46421 5.25253H1.36667C0.88802 5.25253 0.5 4.85276 0.5 4.3596Z" fill="black"/>
<path d="M13.5 21.6667C13.5 22.624 12.724 23.4 11.7667 23.4C10.8094 23.4 10.0333 22.624 10.0333 21.6667C10.0333 20.7094 10.8094 19.9333 11.7667 19.9333C12.724 19.9333 13.5 20.7094 13.5 21.6667Z" fill="black"/>
<path d="M23.9 21.6667C23.9 22.624 23.124 23.4 22.1667 23.4C21.2094 23.4 20.4333 22.624 20.4333 21.6667C20.4333 20.7094 21.2094 19.9333 22.1667 19.9333C23.124 19.9333 23.9 20.7094 23.9 21.6667Z" fill="black"/>
</svg>
