<svg width="240" height="235" viewBox="0 0 240 235" fill="none" xmlns="http://www.w3.org/2000/svg">
<g filter="url(#filter0_d_157_2795)">
<mask id="mask0_157_2795" style="mask-type:alpha" maskUnits="userSpaceOnUse" x="30" y="7" width="180" height="168">
<path d="M148.464 163.225L198.21 113.541C213.93 97.8402 213.93 72.3844 198.21 56.6837L173.337 31.8418L163 21.5178L91.5359 7L77 21.5178L41.7902 56.6837C26.0699 72.3843 26.0699 97.8402 41.7902 113.541L91.5359 163.224C107.256 178.925 132.744 178.925 148.464 163.225Z" fill="white"/>
</mask>
<g mask="url(#mask0_157_2795)">
<path d="M148.464 163.225L198.21 113.541C213.93 97.8402 213.93 72.3844 198.21 56.6837L173.337 31.8418L163 21.5178L91.5359 7L77 21.5178L41.7902 56.6837C26.0699 72.3843 26.0699 97.8402 41.7902 113.541L91.5359 163.224C107.256 178.925 132.744 178.925 148.464 163.225Z" fill="white"/>
<path d="M32 9C31.441 9 30.9878 8.5468 30.9878 7.98776V5.92434H28.9652C28.4321 5.92434 28 5.49218 28 4.9591C28 4.42602 28.4322 3.99387 28.9652 3.99387H30.9878V2.01225C30.9878 1.4532 31.441 1 32 1C32.559 1 33.0122 1.4532 33.0122 2.01224V3.99387H35.0348C35.5679 3.99387 36 4.42602 36 4.9591C36 5.49218 35.5679 5.92434 35.0348 5.92434H33.0122V7.98776C33.0122 8.5468 32.559 9 32 9Z" fill="#EEEEEE"/>
<path d="M48 9C47.441 9 46.9878 8.5468 46.9878 7.98776V5.92434H44.9652C44.4321 5.92434 44 5.49218 44 4.9591C44 4.42602 44.4321 3.99387 44.9652 3.99387H46.9878V2.01225C46.9878 1.4532 47.441 1 48 1C48.559 1 49.0122 1.4532 49.0122 2.01224V3.99387H51.0348C51.5679 3.99387 52 4.42602 52 4.9591C52 5.49218 51.5679 5.92434 51.0348 5.92434H49.0122V7.98776C49.0122 8.5468 48.559 9 48 9Z" fill="#EEEEEE"/>
<path d="M64 9C63.441 9 62.9878 8.5468 62.9878 7.98776V5.92434H60.9652C60.4321 5.92434 60 5.49218 60 4.9591C60 4.42602 60.4321 3.99387 60.9652 3.99387H62.9878V2.01225C62.9878 1.4532 63.441 1 64 1C64.559 1 65.0122 1.4532 65.0122 2.01224V3.99387H67.0348C67.5679 3.99387 68 4.42602 68 4.9591C68 5.49218 67.5679 5.92434 67.0348 5.92434H65.0122V7.98776C65.0122 8.5468 64.559 9 64 9Z" fill="#EEEEEE"/>
<path d="M80 9C79.441 9 78.9878 8.5468 78.9878 7.98776V5.92434H76.9652C76.4321 5.92434 76 5.49218 76 4.9591C76 4.42602 76.4321 3.99387 76.9652 3.99387H78.9878V2.01225C78.9878 1.4532 79.441 1 80 1C80.559 1 81.0122 1.4532 81.0122 2.01224V3.99387H83.0348C83.5679 3.99387 84 4.42602 84 4.9591C84 5.49218 83.5679 5.92434 83.0348 5.92434H81.0122V7.98776C81.0122 8.5468 80.559 9 80 9Z" fill="#EEEEEE"/>
<path d="M96 9C95.441 9 94.9878 8.5468 94.9878 7.98776V5.92434H92.9652C92.4322 5.92434 92 5.49218 92 4.9591C92 4.42602 92.4322 3.99387 92.9652 3.99387H94.9878V2.01225C94.9878 1.4532 95.441 1 96 1C96.559 1 97.0122 1.4532 97.0122 2.01224V3.99387H99.0348C99.5678 3.99387 100 4.42602 100 4.9591C100 5.49218 99.5678 5.92434 99.0348 5.92434H97.0122V7.98776C97.0122 8.5468 96.559 9 96 9Z" fill="#EEEEEE"/>
<path d="M112 9C111.441 9 110.988 8.5468 110.988 7.98776V5.92434H108.965C108.432 5.92434 108 5.49218 108 4.9591C108 4.42602 108.432 3.99387 108.965 3.99387H110.988V2.01225C110.988 1.4532 111.441 1 112 1C112.559 1 113.012 1.4532 113.012 2.01224V3.99387H115.035C115.568 3.99387 116 4.42602 116 4.9591C116 5.49218 115.568 5.92434 115.035 5.92434H113.012V7.98776C113.012 8.5468 112.559 9 112 9Z" fill="#EEEEEE"/>
<path d="M128 9C127.441 9 126.988 8.5468 126.988 7.98776V5.92434H124.965C124.432 5.92434 124 5.49218 124 4.9591C124 4.42602 124.432 3.99387 124.965 3.99387H126.988V2.01225C126.988 1.4532 127.441 1 128 1C128.559 1 129.012 1.4532 129.012 2.01224V3.99387H131.035C131.568 3.99387 132 4.42602 132 4.9591C132 5.49218 131.568 5.92434 131.035 5.92434H129.012V7.98776C129.012 8.5468 128.559 9 128 9Z" fill="#EEEEEE"/>
<path d="M144 9C143.441 9 142.988 8.5468 142.988 7.98776V5.92434H140.965C140.432 5.92434 140 5.49218 140 4.9591C140 4.42602 140.432 3.99387 140.965 3.99387H142.988V2.01225C142.988 1.4532 143.441 1 144 1C144.559 1 145.012 1.4532 145.012 2.01224V3.99387H147.035C147.568 3.99387 148 4.42602 148 4.9591C148 5.49218 147.568 5.92434 147.035 5.92434H145.012V7.98776C145.012 8.5468 144.559 9 144 9Z" fill="#EEEEEE"/>
<path d="M160 9C159.441 9 158.988 8.5468 158.988 7.98776V5.92434H156.965C156.432 5.92434 156 5.49218 156 4.9591C156 4.42602 156.432 3.99387 156.965 3.99387H158.988V2.01225C158.988 1.4532 159.441 1 160 1C160.559 1 161.012 1.4532 161.012 2.01224V3.99387H163.035C163.568 3.99387 164 4.42602 164 4.9591C164 5.49218 163.568 5.92434 163.035 5.92434H161.012V7.98776C161.012 8.5468 160.559 9 160 9Z" fill="#EEEEEE"/>
<path d="M176 9C175.441 9 174.988 8.5468 174.988 7.98776V5.92434H172.965C172.432 5.92434 172 5.49218 172 4.9591C172 4.42602 172.432 3.99387 172.965 3.99387H174.988V2.01225C174.988 1.4532 175.441 1 176 1C176.559 1 177.012 1.4532 177.012 2.01224V3.99387H179.035C179.568 3.99387 180 4.42602 180 4.9591C180 5.49218 179.568 5.92434 179.035 5.92434H177.012V7.98776C177.012 8.5468 176.559 9 176 9Z" fill="#EEEEEE"/>
<path d="M192 9C191.441 9 190.988 8.5468 190.988 7.98776V5.92434H188.965C188.432 5.92434 188 5.49218 188 4.9591C188 4.42602 188.432 3.99387 188.965 3.99387H190.988V2.01225C190.988 1.4532 191.441 1 192 1C192.559 1 193.012 1.4532 193.012 2.01224V3.99387H195.035C195.568 3.99387 196 4.42602 196 4.9591C196 5.49218 195.568 5.92434 195.035 5.92434H193.012V7.98776C193.012 8.5468 192.559 9 192 9Z" fill="#EEEEEE"/>
<path d="M208 9C207.441 9 206.988 8.5468 206.988 7.98776V5.92434H204.965C204.432 5.92434 204 5.49218 204 4.9591C204 4.42602 204.432 3.99387 204.965 3.99387H206.988V2.01225C206.988 1.4532 207.441 1 208 1C208.559 1 209.012 1.4532 209.012 2.01224V3.99387H211.035C211.568 3.99387 212 4.42602 212 4.9591C212 5.49218 211.568 5.92434 211.035 5.92434H209.012V7.98776C209.012 8.5468 208.559 9 208 9Z" fill="#EEEEEE"/>
<path d="M224 9C223.441 9 222.988 8.5468 222.988 7.98776V5.92434H220.965C220.432 5.92434 220 5.49218 220 4.9591C220 4.42602 220.432 3.99387 220.965 3.99387H222.988V2.01225C222.988 1.4532 223.441 1 224 1C224.559 1 225.012 1.4532 225.012 2.01224V3.99387H227.035C227.568 3.99387 228 4.42602 228 4.9591C228 5.49218 227.568 5.92434 227.035 5.92434H225.012V7.98776C225.012 8.5468 224.559 9 224 9Z" fill="#EEEEEE"/>
<path d="M32 25C31.441 25 30.9878 24.5468 30.9878 23.9878V21.9243H28.9652C28.4321 21.9243 28 21.4922 28 20.9591C28 20.426 28.4322 19.9939 28.9652 19.9939H30.9878V18.0122C30.9878 17.4532 31.441 17 32 17C32.559 17 33.0122 17.4532 33.0122 18.0122V19.9939H35.0348C35.5679 19.9939 36 20.426 36 20.9591C36 21.4922 35.5679 21.9243 35.0348 21.9243H33.0122V23.9878C33.0122 24.5468 32.559 25 32 25Z" fill="#EEEEEE"/>
<path d="M48 25C47.441 25 46.9878 24.5468 46.9878 23.9878V21.9243H44.9652C44.4321 21.9243 44 21.4922 44 20.9591C44 20.426 44.4321 19.9939 44.9652 19.9939H46.9878V18.0122C46.9878 17.4532 47.441 17 48 17C48.559 17 49.0122 17.4532 49.0122 18.0122V19.9939H51.0348C51.5679 19.9939 52 20.426 52 20.9591C52 21.4922 51.5679 21.9243 51.0348 21.9243H49.0122V23.9878C49.0122 24.5468 48.559 25 48 25Z" fill="#EEEEEE"/>
<path d="M64 25C63.441 25 62.9878 24.5468 62.9878 23.9878V21.9243H60.9652C60.4321 21.9243 60 21.4922 60 20.9591C60 20.426 60.4321 19.9939 60.9652 19.9939H62.9878V18.0122C62.9878 17.4532 63.441 17 64 17C64.559 17 65.0122 17.4532 65.0122 18.0122V19.9939H67.0348C67.5679 19.9939 68 20.426 68 20.9591C68 21.4922 67.5679 21.9243 67.0348 21.9243H65.0122V23.9878C65.0122 24.5468 64.559 25 64 25Z" fill="#EEEEEE"/>
<path d="M80 25C79.441 25 78.9878 24.5468 78.9878 23.9878V21.9243H76.9652C76.4321 21.9243 76 21.4922 76 20.9591C76 20.426 76.4321 19.9939 76.9652 19.9939H78.9878V18.0122C78.9878 17.4532 79.441 17 80 17C80.559 17 81.0122 17.4532 81.0122 18.0122V19.9939H83.0348C83.5679 19.9939 84 20.426 84 20.9591C84 21.4922 83.5679 21.9243 83.0348 21.9243H81.0122V23.9878C81.0122 24.5468 80.559 25 80 25Z" fill="#EEEEEE"/>
<path d="M96 25C95.441 25 94.9878 24.5468 94.9878 23.9878V21.9243H92.9652C92.4322 21.9243 92 21.4922 92 20.9591C92 20.426 92.4322 19.9939 92.9652 19.9939H94.9878V18.0122C94.9878 17.4532 95.441 17 96 17C96.559 17 97.0122 17.4532 97.0122 18.0122V19.9939H99.0348C99.5678 19.9939 100 20.426 100 20.9591C100 21.4922 99.5678 21.9243 99.0348 21.9243H97.0122V23.9878C97.0122 24.5468 96.559 25 96 25Z" fill="#EEEEEE"/>
<path d="M112 25C111.441 25 110.988 24.5468 110.988 23.9878V21.9243H108.965C108.432 21.9243 108 21.4922 108 20.9591C108 20.426 108.432 19.9939 108.965 19.9939H110.988V18.0122C110.988 17.4532 111.441 17 112 17C112.559 17 113.012 17.4532 113.012 18.0122V19.9939H115.035C115.568 19.9939 116 20.426 116 20.9591C116 21.4922 115.568 21.9243 115.035 21.9243H113.012V23.9878C113.012 24.5468 112.559 25 112 25Z" fill="#EEEEEE"/>
<path d="M128 25C127.441 25 126.988 24.5468 126.988 23.9878V21.9243H124.965C124.432 21.9243 124 21.4922 124 20.9591C124 20.426 124.432 19.9939 124.965 19.9939H126.988V18.0122C126.988 17.4532 127.441 17 128 17C128.559 17 129.012 17.4532 129.012 18.0122V19.9939H131.035C131.568 19.9939 132 20.426 132 20.9591C132 21.4922 131.568 21.9243 131.035 21.9243H129.012V23.9878C129.012 24.5468 128.559 25 128 25Z" fill="#EEEEEE"/>
<path d="M144 25C143.441 25 142.988 24.5468 142.988 23.9878V21.9243H140.965C140.432 21.9243 140 21.4922 140 20.9591C140 20.426 140.432 19.9939 140.965 19.9939H142.988V18.0122C142.988 17.4532 143.441 17 144 17C144.559 17 145.012 17.4532 145.012 18.0122V19.9939H147.035C147.568 19.9939 148 20.426 148 20.9591C148 21.4922 147.568 21.9243 147.035 21.9243H145.012V23.9878C145.012 24.5468 144.559 25 144 25Z" fill="#EEEEEE"/>
<path d="M160 25C159.441 25 158.988 24.5468 158.988 23.9878V21.9243H156.965C156.432 21.9243 156 21.4922 156 20.9591C156 20.426 156.432 19.9939 156.965 19.9939H158.988V18.0122C158.988 17.4532 159.441 17 160 17C160.559 17 161.012 17.4532 161.012 18.0122V19.9939H163.035C163.568 19.9939 164 20.426 164 20.9591C164 21.4922 163.568 21.9243 163.035 21.9243H161.012V23.9878C161.012 24.5468 160.559 25 160 25Z" fill="#EEEEEE"/>
<path d="M176 25C175.441 25 174.988 24.5468 174.988 23.9878V21.9243H172.965C172.432 21.9243 172 21.4922 172 20.9591C172 20.426 172.432 19.9939 172.965 19.9939H174.988V18.0122C174.988 17.4532 175.441 17 176 17C176.559 17 177.012 17.4532 177.012 18.0122V19.9939H179.035C179.568 19.9939 180 20.426 180 20.9591C180 21.4922 179.568 21.9243 179.035 21.9243H177.012V23.9878C177.012 24.5468 176.559 25 176 25Z" fill="#EEEEEE"/>
<path d="M192 25C191.441 25 190.988 24.5468 190.988 23.9878V21.9243H188.965C188.432 21.9243 188 21.4922 188 20.9591C188 20.426 188.432 19.9939 188.965 19.9939H190.988V18.0122C190.988 17.4532 191.441 17 192 17C192.559 17 193.012 17.4532 193.012 18.0122V19.9939H195.035C195.568 19.9939 196 20.426 196 20.9591C196 21.4922 195.568 21.9243 195.035 21.9243H193.012V23.9878C193.012 24.5468 192.559 25 192 25Z" fill="#EEEEEE"/>
<path d="M208 25C207.441 25 206.988 24.5468 206.988 23.9878V21.9243H204.965C204.432 21.9243 204 21.4922 204 20.9591C204 20.426 204.432 19.9939 204.965 19.9939H206.988V18.0122C206.988 17.4532 207.441 17 208 17C208.559 17 209.012 17.4532 209.012 18.0122V19.9939H211.035C211.568 19.9939 212 20.426 212 20.9591C212 21.4922 211.568 21.9243 211.035 21.9243H209.012V23.9878C209.012 24.5468 208.559 25 208 25Z" fill="#EEEEEE"/>
<path d="M224 25C223.441 25 222.988 24.5468 222.988 23.9878V21.9243H220.965C220.432 21.9243 220 21.4922 220 20.9591C220 20.426 220.432 19.9939 220.965 19.9939H222.988V18.0122C222.988 17.4532 223.441 17 224 17C224.559 17 225.012 17.4532 225.012 18.0122V19.9939H227.035C227.568 19.9939 228 20.426 228 20.9591C228 21.4922 227.568 21.9243 227.035 21.9243H225.012V23.9878C225.012 24.5468 224.559 25 224 25Z" fill="#EEEEEE"/>
<path d="M32 41C31.441 41 30.9878 40.5468 30.9878 39.9878V37.9243H28.9652C28.4321 37.9243 28 37.4922 28 36.9591C28 36.426 28.4322 35.9939 28.9652 35.9939H30.9878V34.0122C30.9878 33.4532 31.441 33 32 33C32.559 33 33.0122 33.4532 33.0122 34.0122V35.9939H35.0348C35.5679 35.9939 36 36.426 36 36.9591C36 37.4922 35.5679 37.9243 35.0348 37.9243H33.0122V39.9878C33.0122 40.5468 32.559 41 32 41Z" fill="#EEEEEE"/>
<path d="M48 41C47.441 41 46.9878 40.5468 46.9878 39.9878V37.9243H44.9652C44.4321 37.9243 44 37.4922 44 36.9591C44 36.426 44.4321 35.9939 44.9652 35.9939H46.9878V34.0122C46.9878 33.4532 47.441 33 48 33C48.559 33 49.0122 33.4532 49.0122 34.0122V35.9939H51.0348C51.5679 35.9939 52 36.426 52 36.9591C52 37.4922 51.5679 37.9243 51.0348 37.9243H49.0122V39.9878C49.0122 40.5468 48.559 41 48 41Z" fill="#EEEEEE"/>
<path d="M64 41C63.441 41 62.9878 40.5468 62.9878 39.9878V37.9243H60.9652C60.4321 37.9243 60 37.4922 60 36.9591C60 36.426 60.4321 35.9939 60.9652 35.9939H62.9878V34.0122C62.9878 33.4532 63.441 33 64 33C64.559 33 65.0122 33.4532 65.0122 34.0122V35.9939H67.0348C67.5679 35.9939 68 36.426 68 36.9591C68 37.4922 67.5679 37.9243 67.0348 37.9243H65.0122V39.9878C65.0122 40.5468 64.559 41 64 41Z" fill="#EEEEEE"/>
<path d="M80 41C79.441 41 78.9878 40.5468 78.9878 39.9878V37.9243H76.9652C76.4321 37.9243 76 37.4922 76 36.9591C76 36.426 76.4321 35.9939 76.9652 35.9939H78.9878V34.0122C78.9878 33.4532 79.441 33 80 33C80.559 33 81.0122 33.4532 81.0122 34.0122V35.9939H83.0348C83.5679 35.9939 84 36.426 84 36.9591C84 37.4922 83.5679 37.9243 83.0348 37.9243H81.0122V39.9878C81.0122 40.5468 80.559 41 80 41Z" fill="#EEEEEE"/>
<path d="M96 41C95.441 41 94.9878 40.5468 94.9878 39.9878V37.9243H92.9652C92.4322 37.9243 92 37.4922 92 36.9591C92 36.426 92.4322 35.9939 92.9652 35.9939H94.9878V34.0122C94.9878 33.4532 95.441 33 96 33C96.559 33 97.0122 33.4532 97.0122 34.0122V35.9939H99.0348C99.5678 35.9939 100 36.426 100 36.9591C100 37.4922 99.5678 37.9243 99.0348 37.9243H97.0122V39.9878C97.0122 40.5468 96.559 41 96 41Z" fill="#EEEEEE"/>
<path d="M112 41C111.441 41 110.988 40.5468 110.988 39.9878V37.9243H108.965C108.432 37.9243 108 37.4922 108 36.9591C108 36.426 108.432 35.9939 108.965 35.9939H110.988V34.0122C110.988 33.4532 111.441 33 112 33C112.559 33 113.012 33.4532 113.012 34.0122V35.9939H115.035C115.568 35.9939 116 36.426 116 36.9591C116 37.4922 115.568 37.9243 115.035 37.9243H113.012V39.9878C113.012 40.5468 112.559 41 112 41Z" fill="#EEEEEE"/>
<path d="M128 41C127.441 41 126.988 40.5468 126.988 39.9878V37.9243H124.965C124.432 37.9243 124 37.4922 124 36.9591C124 36.426 124.432 35.9939 124.965 35.9939H126.988V34.0122C126.988 33.4532 127.441 33 128 33C128.559 33 129.012 33.4532 129.012 34.0122V35.9939H131.035C131.568 35.9939 132 36.426 132 36.9591C132 37.4922 131.568 37.9243 131.035 37.9243H129.012V39.9878C129.012 40.5468 128.559 41 128 41Z" fill="#EEEEEE"/>
<path d="M144 41C143.441 41 142.988 40.5468 142.988 39.9878V37.9243H140.965C140.432 37.9243 140 37.4922 140 36.9591C140 36.426 140.432 35.9939 140.965 35.9939H142.988V34.0122C142.988 33.4532 143.441 33 144 33C144.559 33 145.012 33.4532 145.012 34.0122V35.9939H147.035C147.568 35.9939 148 36.426 148 36.9591C148 37.4922 147.568 37.9243 147.035 37.9243H145.012V39.9878C145.012 40.5468 144.559 41 144 41Z" fill="#EEEEEE"/>
<path d="M160 41C159.441 41 158.988 40.5468 158.988 39.9878V37.9243H156.965C156.432 37.9243 156 37.4922 156 36.9591C156 36.426 156.432 35.9939 156.965 35.9939H158.988V34.0122C158.988 33.4532 159.441 33 160 33C160.559 33 161.012 33.4532 161.012 34.0122V35.9939H163.035C163.568 35.9939 164 36.426 164 36.9591C164 37.4922 163.568 37.9243 163.035 37.9243H161.012V39.9878C161.012 40.5468 160.559 41 160 41Z" fill="#EEEEEE"/>
<path d="M176 41C175.441 41 174.988 40.5468 174.988 39.9878V37.9243H172.965C172.432 37.9243 172 37.4922 172 36.9591C172 36.426 172.432 35.9939 172.965 35.9939H174.988V34.0122C174.988 33.4532 175.441 33 176 33C176.559 33 177.012 33.4532 177.012 34.0122V35.9939H179.035C179.568 35.9939 180 36.426 180 36.9591C180 37.4922 179.568 37.9243 179.035 37.9243H177.012V39.9878C177.012 40.5468 176.559 41 176 41Z" fill="#EEEEEE"/>
<path d="M192 41C191.441 41 190.988 40.5468 190.988 39.9878V37.9243H188.965C188.432 37.9243 188 37.4922 188 36.9591C188 36.426 188.432 35.9939 188.965 35.9939H190.988V34.0122C190.988 33.4532 191.441 33 192 33C192.559 33 193.012 33.4532 193.012 34.0122V35.9939H195.035C195.568 35.9939 196 36.426 196 36.9591C196 37.4922 195.568 37.9243 195.035 37.9243H193.012V39.9878C193.012 40.5468 192.559 41 192 41Z" fill="#EEEEEE"/>
<path d="M208 41C207.441 41 206.988 40.5468 206.988 39.9878V37.9243H204.965C204.432 37.9243 204 37.4922 204 36.9591C204 36.426 204.432 35.9939 204.965 35.9939H206.988V34.0122C206.988 33.4532 207.441 33 208 33C208.559 33 209.012 33.4532 209.012 34.0122V35.9939H211.035C211.568 35.9939 212 36.426 212 36.9591C212 37.4922 211.568 37.9243 211.035 37.9243H209.012V39.9878C209.012 40.5468 208.559 41 208 41Z" fill="#EEEEEE"/>
<path d="M224 41C223.441 41 222.988 40.5468 222.988 39.9878V37.9243H220.965C220.432 37.9243 220 37.4922 220 36.9591C220 36.426 220.432 35.9939 220.965 35.9939H222.988V34.0122C222.988 33.4532 223.441 33 224 33C224.559 33 225.012 33.4532 225.012 34.0122V35.9939H227.035C227.568 35.9939 228 36.426 228 36.9591C228 37.4922 227.568 37.9243 227.035 37.9243H225.012V39.9878C225.012 40.5468 224.559 41 224 41Z" fill="#EEEEEE"/>
<path d="M32 57C31.441 57 30.9878 56.5468 30.9878 55.9878V53.9243H28.9652C28.4321 53.9243 28 53.4922 28 52.9591C28 52.426 28.4322 51.9939 28.9652 51.9939H30.9878V50.0122C30.9878 49.4532 31.441 49 32 49C32.559 49 33.0122 49.4532 33.0122 50.0122V51.9939H35.0348C35.5679 51.9939 36 52.426 36 52.9591C36 53.4922 35.5679 53.9243 35.0348 53.9243H33.0122V55.9878C33.0122 56.5468 32.559 57 32 57Z" fill="#EEEEEE"/>
<path d="M48 57C47.441 57 46.9878 56.5468 46.9878 55.9878V53.9243H44.9652C44.4321 53.9243 44 53.4922 44 52.9591C44 52.426 44.4321 51.9939 44.9652 51.9939H46.9878V50.0122C46.9878 49.4532 47.441 49 48 49C48.559 49 49.0122 49.4532 49.0122 50.0122V51.9939H51.0348C51.5679 51.9939 52 52.426 52 52.9591C52 53.4922 51.5679 53.9243 51.0348 53.9243H49.0122V55.9878C49.0122 56.5468 48.559 57 48 57Z" fill="#EEEEEE"/>
<path d="M64 57C63.441 57 62.9878 56.5468 62.9878 55.9878V53.9243H60.9652C60.4321 53.9243 60 53.4922 60 52.9591C60 52.426 60.4321 51.9939 60.9652 51.9939H62.9878V50.0122C62.9878 49.4532 63.441 49 64 49C64.559 49 65.0122 49.4532 65.0122 50.0122V51.9939H67.0348C67.5679 51.9939 68 52.426 68 52.9591C68 53.4922 67.5679 53.9243 67.0348 53.9243H65.0122V55.9878C65.0122 56.5468 64.559 57 64 57Z" fill="#EEEEEE"/>
<path d="M80 57C79.441 57 78.9878 56.5468 78.9878 55.9878V53.9243H76.9652C76.4321 53.9243 76 53.4922 76 52.9591C76 52.426 76.4321 51.9939 76.9652 51.9939H78.9878V50.0122C78.9878 49.4532 79.441 49 80 49C80.559 49 81.0122 49.4532 81.0122 50.0122V51.9939H83.0348C83.5679 51.9939 84 52.426 84 52.9591C84 53.4922 83.5679 53.9243 83.0348 53.9243H81.0122V55.9878C81.0122 56.5468 80.559 57 80 57Z" fill="#EEEEEE"/>
<path d="M96 57C95.441 57 94.9878 56.5468 94.9878 55.9878V53.9243H92.9652C92.4322 53.9243 92 53.4922 92 52.9591C92 52.426 92.4322 51.9939 92.9652 51.9939H94.9878V50.0122C94.9878 49.4532 95.441 49 96 49C96.559 49 97.0122 49.4532 97.0122 50.0122V51.9939H99.0348C99.5678 51.9939 100 52.426 100 52.9591C100 53.4922 99.5678 53.9243 99.0348 53.9243H97.0122V55.9878C97.0122 56.5468 96.559 57 96 57Z" fill="#EEEEEE"/>
<path d="M112 57C111.441 57 110.988 56.5468 110.988 55.9878V53.9243H108.965C108.432 53.9243 108 53.4922 108 52.9591C108 52.426 108.432 51.9939 108.965 51.9939H110.988V50.0122C110.988 49.4532 111.441 49 112 49C112.559 49 113.012 49.4532 113.012 50.0122V51.9939H115.035C115.568 51.9939 116 52.426 116 52.9591C116 53.4922 115.568 53.9243 115.035 53.9243H113.012V55.9878C113.012 56.5468 112.559 57 112 57Z" fill="#EEEEEE"/>
<path d="M128 57C127.441 57 126.988 56.5468 126.988 55.9878V53.9243H124.965C124.432 53.9243 124 53.4922 124 52.9591C124 52.426 124.432 51.9939 124.965 51.9939H126.988V50.0122C126.988 49.4532 127.441 49 128 49C128.559 49 129.012 49.4532 129.012 50.0122V51.9939H131.035C131.568 51.9939 132 52.426 132 52.9591C132 53.4922 131.568 53.9243 131.035 53.9243H129.012V55.9878C129.012 56.5468 128.559 57 128 57Z" fill="#EEEEEE"/>
<path d="M144 57C143.441 57 142.988 56.5468 142.988 55.9878V53.9243H140.965C140.432 53.9243 140 53.4922 140 52.9591C140 52.426 140.432 51.9939 140.965 51.9939H142.988V50.0122C142.988 49.4532 143.441 49 144 49C144.559 49 145.012 49.4532 145.012 50.0122V51.9939H147.035C147.568 51.9939 148 52.426 148 52.9591C148 53.4922 147.568 53.9243 147.035 53.9243H145.012V55.9878C145.012 56.5468 144.559 57 144 57Z" fill="#EEEEEE"/>
<path d="M160 57C159.441 57 158.988 56.5468 158.988 55.9878V53.9243H156.965C156.432 53.9243 156 53.4922 156 52.9591C156 52.426 156.432 51.9939 156.965 51.9939H158.988V50.0122C158.988 49.4532 159.441 49 160 49C160.559 49 161.012 49.4532 161.012 50.0122V51.9939H163.035C163.568 51.9939 164 52.426 164 52.9591C164 53.4922 163.568 53.9243 163.035 53.9243H161.012V55.9878C161.012 56.5468 160.559 57 160 57Z" fill="#EEEEEE"/>
<path d="M176 57C175.441 57 174.988 56.5468 174.988 55.9878V53.9243H172.965C172.432 53.9243 172 53.4922 172 52.9591C172 52.426 172.432 51.9939 172.965 51.9939H174.988V50.0122C174.988 49.4532 175.441 49 176 49C176.559 49 177.012 49.4532 177.012 50.0122V51.9939H179.035C179.568 51.9939 180 52.426 180 52.9591C180 53.4922 179.568 53.9243 179.035 53.9243H177.012V55.9878C177.012 56.5468 176.559 57 176 57Z" fill="#EEEEEE"/>
<path d="M192 57C191.441 57 190.988 56.5468 190.988 55.9878V53.9243H188.965C188.432 53.9243 188 53.4922 188 52.9591C188 52.426 188.432 51.9939 188.965 51.9939H190.988V50.0122C190.988 49.4532 191.441 49 192 49C192.559 49 193.012 49.4532 193.012 50.0122V51.9939H195.035C195.568 51.9939 196 52.426 196 52.9591C196 53.4922 195.568 53.9243 195.035 53.9243H193.012V55.9878C193.012 56.5468 192.559 57 192 57Z" fill="#EEEEEE"/>
<path d="M208 57C207.441 57 206.988 56.5468 206.988 55.9878V53.9243H204.965C204.432 53.9243 204 53.4922 204 52.9591C204 52.426 204.432 51.9939 204.965 51.9939H206.988V50.0122C206.988 49.4532 207.441 49 208 49C208.559 49 209.012 49.4532 209.012 50.0122V51.9939H211.035C211.568 51.9939 212 52.426 212 52.9591C212 53.4922 211.568 53.9243 211.035 53.9243H209.012V55.9878C209.012 56.5468 208.559 57 208 57Z" fill="#EEEEEE"/>
<path d="M224 57C223.441 57 222.988 56.5468 222.988 55.9878V53.9243H220.965C220.432 53.9243 220 53.4922 220 52.9591C220 52.426 220.432 51.9939 220.965 51.9939H222.988V50.0122C222.988 49.4532 223.441 49 224 49C224.559 49 225.012 49.4532 225.012 50.0122V51.9939H227.035C227.568 51.9939 228 52.426 228 52.9591C228 53.4922 227.568 53.9243 227.035 53.9243H225.012V55.9878C225.012 56.5468 224.559 57 224 57Z" fill="#EEEEEE"/>
<path d="M32 73C31.441 73 30.9878 72.5468 30.9878 71.9878V69.9243H28.9652C28.4321 69.9243 28 69.4922 28 68.9591C28 68.426 28.4322 67.9939 28.9652 67.9939H30.9878V66.0122C30.9878 65.4532 31.441 65 32 65C32.559 65 33.0122 65.4532 33.0122 66.0122V67.9939H35.0348C35.5679 67.9939 36 68.426 36 68.9591C36 69.4922 35.5679 69.9243 35.0348 69.9243H33.0122V71.9878C33.0122 72.5468 32.559 73 32 73Z" fill="#EEEEEE"/>
<path d="M48 73C47.441 73 46.9878 72.5468 46.9878 71.9878V69.9243H44.9652C44.4321 69.9243 44 69.4922 44 68.9591C44 68.426 44.4321 67.9939 44.9652 67.9939H46.9878V66.0122C46.9878 65.4532 47.441 65 48 65C48.559 65 49.0122 65.4532 49.0122 66.0122V67.9939H51.0348C51.5679 67.9939 52 68.426 52 68.9591C52 69.4922 51.5679 69.9243 51.0348 69.9243H49.0122V71.9878C49.0122 72.5468 48.559 73 48 73Z" fill="#EEEEEE"/>
<path d="M64 73C63.441 73 62.9878 72.5468 62.9878 71.9878V69.9243H60.9652C60.4321 69.9243 60 69.4922 60 68.9591C60 68.426 60.4321 67.9939 60.9652 67.9939H62.9878V66.0122C62.9878 65.4532 63.441 65 64 65C64.559 65 65.0122 65.4532 65.0122 66.0122V67.9939H67.0348C67.5679 67.9939 68 68.426 68 68.9591C68 69.4922 67.5679 69.9243 67.0348 69.9243H65.0122V71.9878C65.0122 72.5468 64.559 73 64 73Z" fill="#EEEEEE"/>
<path d="M80 73C79.441 73 78.9878 72.5468 78.9878 71.9878V69.9243H76.9652C76.4321 69.9243 76 69.4922 76 68.9591C76 68.426 76.4321 67.9939 76.9652 67.9939H78.9878V66.0122C78.9878 65.4532 79.441 65 80 65C80.559 65 81.0122 65.4532 81.0122 66.0122V67.9939H83.0348C83.5679 67.9939 84 68.426 84 68.9591C84 69.4922 83.5679 69.9243 83.0348 69.9243H81.0122V71.9878C81.0122 72.5468 80.559 73 80 73Z" fill="#EEEEEE"/>
<path d="M96 73C95.441 73 94.9878 72.5468 94.9878 71.9878V69.9243H92.9652C92.4322 69.9243 92 69.4922 92 68.9591C92 68.426 92.4322 67.9939 92.9652 67.9939H94.9878V66.0122C94.9878 65.4532 95.441 65 96 65C96.559 65 97.0122 65.4532 97.0122 66.0122V67.9939H99.0348C99.5678 67.9939 100 68.426 100 68.9591C100 69.4922 99.5678 69.9243 99.0348 69.9243H97.0122V71.9878C97.0122 72.5468 96.559 73 96 73Z" fill="#EEEEEE"/>
<path d="M112 73C111.441 73 110.988 72.5468 110.988 71.9878V69.9243H108.965C108.432 69.9243 108 69.4922 108 68.9591C108 68.426 108.432 67.9939 108.965 67.9939H110.988V66.0122C110.988 65.4532 111.441 65 112 65C112.559 65 113.012 65.4532 113.012 66.0122V67.9939H115.035C115.568 67.9939 116 68.426 116 68.9591C116 69.4922 115.568 69.9243 115.035 69.9243H113.012V71.9878C113.012 72.5468 112.559 73 112 73Z" fill="#EEEEEE"/>
<path d="M128 73C127.441 73 126.988 72.5468 126.988 71.9878V69.9243H124.965C124.432 69.9243 124 69.4922 124 68.9591C124 68.426 124.432 67.9939 124.965 67.9939H126.988V66.0122C126.988 65.4532 127.441 65 128 65C128.559 65 129.012 65.4532 129.012 66.0122V67.9939H131.035C131.568 67.9939 132 68.426 132 68.9591C132 69.4922 131.568 69.9243 131.035 69.9243H129.012V71.9878C129.012 72.5468 128.559 73 128 73Z" fill="#EEEEEE"/>
<path d="M144 73C143.441 73 142.988 72.5468 142.988 71.9878V69.9243H140.965C140.432 69.9243 140 69.4922 140 68.9591C140 68.426 140.432 67.9939 140.965 67.9939H142.988V66.0122C142.988 65.4532 143.441 65 144 65C144.559 65 145.012 65.4532 145.012 66.0122V67.9939H147.035C147.568 67.9939 148 68.426 148 68.9591C148 69.4922 147.568 69.9243 147.035 69.9243H145.012V71.9878C145.012 72.5468 144.559 73 144 73Z" fill="#EEEEEE"/>
<path d="M160 73C159.441 73 158.988 72.5468 158.988 71.9878V69.9243H156.965C156.432 69.9243 156 69.4922 156 68.9591C156 68.426 156.432 67.9939 156.965 67.9939H158.988V66.0122C158.988 65.4532 159.441 65 160 65C160.559 65 161.012 65.4532 161.012 66.0122V67.9939H163.035C163.568 67.9939 164 68.426 164 68.9591C164 69.4922 163.568 69.9243 163.035 69.9243H161.012V71.9878C161.012 72.5468 160.559 73 160 73Z" fill="#EEEEEE"/>
<path d="M176 73C175.441 73 174.988 72.5468 174.988 71.9878V69.9243H172.965C172.432 69.9243 172 69.4922 172 68.9591C172 68.426 172.432 67.9939 172.965 67.9939H174.988V66.0122C174.988 65.4532 175.441 65 176 65C176.559 65 177.012 65.4532 177.012 66.0122V67.9939H179.035C179.568 67.9939 180 68.426 180 68.9591C180 69.4922 179.568 69.9243 179.035 69.9243H177.012V71.9878C177.012 72.5468 176.559 73 176 73Z" fill="#EEEEEE"/>
<path d="M192 73C191.441 73 190.988 72.5468 190.988 71.9878V69.9243H188.965C188.432 69.9243 188 69.4922 188 68.9591C188 68.426 188.432 67.9939 188.965 67.9939H190.988V66.0122C190.988 65.4532 191.441 65 192 65C192.559 65 193.012 65.4532 193.012 66.0122V67.9939H195.035C195.568 67.9939 196 68.426 196 68.9591C196 69.4922 195.568 69.9243 195.035 69.9243H193.012V71.9878C193.012 72.5468 192.559 73 192 73Z" fill="#EEEEEE"/>
<path d="M208 73C207.441 73 206.988 72.5468 206.988 71.9878V69.9243H204.965C204.432 69.9243 204 69.4922 204 68.9591C204 68.426 204.432 67.9939 204.965 67.9939H206.988V66.0122C206.988 65.4532 207.441 65 208 65C208.559 65 209.012 65.4532 209.012 66.0122V67.9939H211.035C211.568 67.9939 212 68.426 212 68.9591C212 69.4922 211.568 69.9243 211.035 69.9243H209.012V71.9878C209.012 72.5468 208.559 73 208 73Z" fill="#EEEEEE"/>
<path d="M224 73C223.441 73 222.988 72.5468 222.988 71.9878V69.9243H220.965C220.432 69.9243 220 69.4922 220 68.9591C220 68.426 220.432 67.9939 220.965 67.9939H222.988V66.0122C222.988 65.4532 223.441 65 224 65C224.559 65 225.012 65.4532 225.012 66.0122V67.9939H227.035C227.568 67.9939 228 68.426 228 68.9591C228 69.4922 227.568 69.9243 227.035 69.9243H225.012V71.9878C225.012 72.5468 224.559 73 224 73Z" fill="#EEEEEE"/>
<path d="M32 89C31.441 89 30.9878 88.5468 30.9878 87.9878V85.9243H28.9652C28.4321 85.9243 28 85.4922 28 84.9591C28 84.426 28.4322 83.9939 28.9652 83.9939H30.9878V82.0122C30.9878 81.4532 31.441 81 32 81C32.559 81 33.0122 81.4532 33.0122 82.0122V83.9939H35.0348C35.5679 83.9939 36 84.426 36 84.9591C36 85.4922 35.5679 85.9243 35.0348 85.9243H33.0122V87.9878C33.0122 88.5468 32.559 89 32 89Z" fill="#EEEEEE"/>
<path d="M48 89C47.441 89 46.9878 88.5468 46.9878 87.9878V85.9243H44.9652C44.4321 85.9243 44 85.4922 44 84.9591C44 84.426 44.4321 83.9939 44.9652 83.9939H46.9878V82.0122C46.9878 81.4532 47.441 81 48 81C48.559 81 49.0122 81.4532 49.0122 82.0122V83.9939H51.0348C51.5679 83.9939 52 84.426 52 84.9591C52 85.4922 51.5679 85.9243 51.0348 85.9243H49.0122V87.9878C49.0122 88.5468 48.559 89 48 89Z" fill="#EEEEEE"/>
<path d="M64 89C63.441 89 62.9878 88.5468 62.9878 87.9878V85.9243H60.9652C60.4321 85.9243 60 85.4922 60 84.9591C60 84.426 60.4321 83.9939 60.9652 83.9939H62.9878V82.0122C62.9878 81.4532 63.441 81 64 81C64.559 81 65.0122 81.4532 65.0122 82.0122V83.9939H67.0348C67.5679 83.9939 68 84.426 68 84.9591C68 85.4922 67.5679 85.9243 67.0348 85.9243H65.0122V87.9878C65.0122 88.5468 64.559 89 64 89Z" fill="#EEEEEE"/>
<path d="M80 89C79.441 89 78.9878 88.5468 78.9878 87.9878V85.9243H76.9652C76.4321 85.9243 76 85.4922 76 84.9591C76 84.426 76.4321 83.9939 76.9652 83.9939H78.9878V82.0122C78.9878 81.4532 79.441 81 80 81C80.559 81 81.0122 81.4532 81.0122 82.0122V83.9939H83.0348C83.5679 83.9939 84 84.426 84 84.9591C84 85.4922 83.5679 85.9243 83.0348 85.9243H81.0122V87.9878C81.0122 88.5468 80.559 89 80 89Z" fill="#EEEEEE"/>
<path d="M96 89C95.441 89 94.9878 88.5468 94.9878 87.9878V85.9243H92.9652C92.4322 85.9243 92 85.4922 92 84.9591C92 84.426 92.4322 83.9939 92.9652 83.9939H94.9878V82.0122C94.9878 81.4532 95.441 81 96 81C96.559 81 97.0122 81.4532 97.0122 82.0122V83.9939H99.0348C99.5678 83.9939 100 84.426 100 84.9591C100 85.4922 99.5678 85.9243 99.0348 85.9243H97.0122V87.9878C97.0122 88.5468 96.559 89 96 89Z" fill="#EEEEEE"/>
<path d="M112 89C111.441 89 110.988 88.5468 110.988 87.9878V85.9243H108.965C108.432 85.9243 108 85.4922 108 84.9591C108 84.426 108.432 83.9939 108.965 83.9939H110.988V82.0122C110.988 81.4532 111.441 81 112 81C112.559 81 113.012 81.4532 113.012 82.0122V83.9939H115.035C115.568 83.9939 116 84.426 116 84.9591C116 85.4922 115.568 85.9243 115.035 85.9243H113.012V87.9878C113.012 88.5468 112.559 89 112 89Z" fill="#EEEEEE"/>
<path d="M128 89C127.441 89 126.988 88.5468 126.988 87.9878V85.9243H124.965C124.432 85.9243 124 85.4922 124 84.9591C124 84.426 124.432 83.9939 124.965 83.9939H126.988V82.0122C126.988 81.4532 127.441 81 128 81C128.559 81 129.012 81.4532 129.012 82.0122V83.9939H131.035C131.568 83.9939 132 84.426 132 84.9591C132 85.4922 131.568 85.9243 131.035 85.9243H129.012V87.9878C129.012 88.5468 128.559 89 128 89Z" fill="#EEEEEE"/>
<path d="M144 89C143.441 89 142.988 88.5468 142.988 87.9878V85.9243H140.965C140.432 85.9243 140 85.4922 140 84.9591C140 84.426 140.432 83.9939 140.965 83.9939H142.988V82.0122C142.988 81.4532 143.441 81 144 81C144.559 81 145.012 81.4532 145.012 82.0122V83.9939H147.035C147.568 83.9939 148 84.426 148 84.9591C148 85.4922 147.568 85.9243 147.035 85.9243H145.012V87.9878C145.012 88.5468 144.559 89 144 89Z" fill="#EEEEEE"/>
<path d="M160 89C159.441 89 158.988 88.5468 158.988 87.9878V85.9243H156.965C156.432 85.9243 156 85.4922 156 84.9591C156 84.426 156.432 83.9939 156.965 83.9939H158.988V82.0122C158.988 81.4532 159.441 81 160 81C160.559 81 161.012 81.4532 161.012 82.0122V83.9939H163.035C163.568 83.9939 164 84.426 164 84.9591C164 85.4922 163.568 85.9243 163.035 85.9243H161.012V87.9878C161.012 88.5468 160.559 89 160 89Z" fill="#EEEEEE"/>
<path d="M176 89C175.441 89 174.988 88.5468 174.988 87.9878V85.9243H172.965C172.432 85.9243 172 85.4922 172 84.9591C172 84.426 172.432 83.9939 172.965 83.9939H174.988V82.0122C174.988 81.4532 175.441 81 176 81C176.559 81 177.012 81.4532 177.012 82.0122V83.9939H179.035C179.568 83.9939 180 84.426 180 84.9591C180 85.4922 179.568 85.9243 179.035 85.9243H177.012V87.9878C177.012 88.5468 176.559 89 176 89Z" fill="#EEEEEE"/>
<path d="M192 89C191.441 89 190.988 88.5468 190.988 87.9878V85.9243H188.965C188.432 85.9243 188 85.4922 188 84.9591C188 84.426 188.432 83.9939 188.965 83.9939H190.988V82.0122C190.988 81.4532 191.441 81 192 81C192.559 81 193.012 81.4532 193.012 82.0122V83.9939H195.035C195.568 83.9939 196 84.426 196 84.9591C196 85.4922 195.568 85.9243 195.035 85.9243H193.012V87.9878C193.012 88.5468 192.559 89 192 89Z" fill="#EEEEEE"/>
<path d="M208 89C207.441 89 206.988 88.5468 206.988 87.9878V85.9243H204.965C204.432 85.9243 204 85.4922 204 84.9591C204 84.426 204.432 83.9939 204.965 83.9939H206.988V82.0122C206.988 81.4532 207.441 81 208 81C208.559 81 209.012 81.4532 209.012 82.0122V83.9939H211.035C211.568 83.9939 212 84.426 212 84.9591C212 85.4922 211.568 85.9243 211.035 85.9243H209.012V87.9878C209.012 88.5468 208.559 89 208 89Z" fill="#EEEEEE"/>
<path d="M224 89C223.441 89 222.988 88.5468 222.988 87.9878V85.9243H220.965C220.432 85.9243 220 85.4922 220 84.9591C220 84.426 220.432 83.9939 220.965 83.9939H222.988V82.0122C222.988 81.4532 223.441 81 224 81C224.559 81 225.012 81.4532 225.012 82.0122V83.9939H227.035C227.568 83.9939 228 84.426 228 84.9591C228 85.4922 227.568 85.9243 227.035 85.9243H225.012V87.9878C225.012 88.5468 224.559 89 224 89Z" fill="#EEEEEE"/>
<path d="M32 105C31.441 105 30.9878 104.547 30.9878 103.988V101.924H28.9652C28.4321 101.924 28 101.492 28 100.959C28 100.426 28.4322 99.9939 28.9652 99.9939H30.9878V98.0122C30.9878 97.4532 31.441 97 32 97C32.559 97 33.0122 97.4532 33.0122 98.0122V99.9939H35.0348C35.5679 99.9939 36 100.426 36 100.959C36 101.492 35.5679 101.924 35.0348 101.924H33.0122V103.988C33.0122 104.547 32.559 105 32 105Z" fill="#EEEEEE"/>
<path d="M48 105C47.441 105 46.9878 104.547 46.9878 103.988V101.924H44.9652C44.4321 101.924 44 101.492 44 100.959C44 100.426 44.4321 99.9939 44.9652 99.9939H46.9878V98.0122C46.9878 97.4532 47.441 97 48 97C48.559 97 49.0122 97.4532 49.0122 98.0122V99.9939H51.0348C51.5679 99.9939 52 100.426 52 100.959C52 101.492 51.5679 101.924 51.0348 101.924H49.0122V103.988C49.0122 104.547 48.559 105 48 105Z" fill="#EEEEEE"/>
<path d="M64 105C63.441 105 62.9878 104.547 62.9878 103.988V101.924H60.9652C60.4321 101.924 60 101.492 60 100.959C60 100.426 60.4321 99.9939 60.9652 99.9939H62.9878V98.0122C62.9878 97.4532 63.441 97 64 97C64.559 97 65.0122 97.4532 65.0122 98.0122V99.9939H67.0348C67.5679 99.9939 68 100.426 68 100.959C68 101.492 67.5679 101.924 67.0348 101.924H65.0122V103.988C65.0122 104.547 64.559 105 64 105Z" fill="#EEEEEE"/>
<path d="M80 105C79.441 105 78.9878 104.547 78.9878 103.988V101.924H76.9652C76.4321 101.924 76 101.492 76 100.959C76 100.426 76.4321 99.9939 76.9652 99.9939H78.9878V98.0122C78.9878 97.4532 79.441 97 80 97C80.559 97 81.0122 97.4532 81.0122 98.0122V99.9939H83.0348C83.5679 99.9939 84 100.426 84 100.959C84 101.492 83.5679 101.924 83.0348 101.924H81.0122V103.988C81.0122 104.547 80.559 105 80 105Z" fill="#EEEEEE"/>
<path d="M96 105C95.441 105 94.9878 104.547 94.9878 103.988V101.924H92.9652C92.4322 101.924 92 101.492 92 100.959C92 100.426 92.4322 99.9939 92.9652 99.9939H94.9878V98.0122C94.9878 97.4532 95.441 97 96 97C96.559 97 97.0122 97.4532 97.0122 98.0122V99.9939H99.0348C99.5678 99.9939 100 100.426 100 100.959C100 101.492 99.5678 101.924 99.0348 101.924H97.0122V103.988C97.0122 104.547 96.559 105 96 105Z" fill="#EEEEEE"/>
<path d="M112 105C111.441 105 110.988 104.547 110.988 103.988V101.924H108.965C108.432 101.924 108 101.492 108 100.959C108 100.426 108.432 99.9939 108.965 99.9939H110.988V98.0122C110.988 97.4532 111.441 97 112 97C112.559 97 113.012 97.4532 113.012 98.0122V99.9939H115.035C115.568 99.9939 116 100.426 116 100.959C116 101.492 115.568 101.924 115.035 101.924H113.012V103.988C113.012 104.547 112.559 105 112 105Z" fill="#EEEEEE"/>
<path d="M128 105C127.441 105 126.988 104.547 126.988 103.988V101.924H124.965C124.432 101.924 124 101.492 124 100.959C124 100.426 124.432 99.9939 124.965 99.9939H126.988V98.0122C126.988 97.4532 127.441 97 128 97C128.559 97 129.012 97.4532 129.012 98.0122V99.9939H131.035C131.568 99.9939 132 100.426 132 100.959C132 101.492 131.568 101.924 131.035 101.924H129.012V103.988C129.012 104.547 128.559 105 128 105Z" fill="#EEEEEE"/>
<path d="M144 105C143.441 105 142.988 104.547 142.988 103.988V101.924H140.965C140.432 101.924 140 101.492 140 100.959C140 100.426 140.432 99.9939 140.965 99.9939H142.988V98.0122C142.988 97.4532 143.441 97 144 97C144.559 97 145.012 97.4532 145.012 98.0122V99.9939H147.035C147.568 99.9939 148 100.426 148 100.959C148 101.492 147.568 101.924 147.035 101.924H145.012V103.988C145.012 104.547 144.559 105 144 105Z" fill="#EEEEEE"/>
<path d="M160 105C159.441 105 158.988 104.547 158.988 103.988V101.924H156.965C156.432 101.924 156 101.492 156 100.959C156 100.426 156.432 99.9939 156.965 99.9939H158.988V98.0122C158.988 97.4532 159.441 97 160 97C160.559 97 161.012 97.4532 161.012 98.0122V99.9939H163.035C163.568 99.9939 164 100.426 164 100.959C164 101.492 163.568 101.924 163.035 101.924H161.012V103.988C161.012 104.547 160.559 105 160 105Z" fill="#EEEEEE"/>
<path d="M176 105C175.441 105 174.988 104.547 174.988 103.988V101.924H172.965C172.432 101.924 172 101.492 172 100.959C172 100.426 172.432 99.9939 172.965 99.9939H174.988V98.0122C174.988 97.4532 175.441 97 176 97C176.559 97 177.012 97.4532 177.012 98.0122V99.9939H179.035C179.568 99.9939 180 100.426 180 100.959C180 101.492 179.568 101.924 179.035 101.924H177.012V103.988C177.012 104.547 176.559 105 176 105Z" fill="#EEEEEE"/>
<path d="M192 105C191.441 105 190.988 104.547 190.988 103.988V101.924H188.965C188.432 101.924 188 101.492 188 100.959C188 100.426 188.432 99.9939 188.965 99.9939H190.988V98.0122C190.988 97.4532 191.441 97 192 97C192.559 97 193.012 97.4532 193.012 98.0122V99.9939H195.035C195.568 99.9939 196 100.426 196 100.959C196 101.492 195.568 101.924 195.035 101.924H193.012V103.988C193.012 104.547 192.559 105 192 105Z" fill="#EEEEEE"/>
<path d="M208 105C207.441 105 206.988 104.547 206.988 103.988V101.924H204.965C204.432 101.924 204 101.492 204 100.959C204 100.426 204.432 99.9939 204.965 99.9939H206.988V98.0122C206.988 97.4532 207.441 97 208 97C208.559 97 209.012 97.4532 209.012 98.0122V99.9939H211.035C211.568 99.9939 212 100.426 212 100.959C212 101.492 211.568 101.924 211.035 101.924H209.012V103.988C209.012 104.547 208.559 105 208 105Z" fill="#EEEEEE"/>
<path d="M224 105C223.441 105 222.988 104.547 222.988 103.988V101.924H220.965C220.432 101.924 220 101.492 220 100.959C220 100.426 220.432 99.9939 220.965 99.9939H222.988V98.0122C222.988 97.4532 223.441 97 224 97C224.559 97 225.012 97.4532 225.012 98.0122V99.9939H227.035C227.568 99.9939 228 100.426 228 100.959C228 101.492 227.568 101.924 227.035 101.924H225.012V103.988C225.012 104.547 224.559 105 224 105Z" fill="#EEEEEE"/>
<path d="M32 121C31.441 121 30.9878 120.547 30.9878 119.988V117.924H28.9652C28.4321 117.924 28 117.492 28 116.959C28 116.426 28.4322 115.994 28.9652 115.994H30.9878V114.012C30.9878 113.453 31.441 113 32 113C32.559 113 33.0122 113.453 33.0122 114.012V115.994H35.0348C35.5679 115.994 36 116.426 36 116.959C36 117.492 35.5679 117.924 35.0348 117.924H33.0122V119.988C33.0122 120.547 32.559 121 32 121Z" fill="#EEEEEE"/>
<path d="M48 121C47.441 121 46.9878 120.547 46.9878 119.988V117.924H44.9652C44.4321 117.924 44 117.492 44 116.959C44 116.426 44.4321 115.994 44.9652 115.994H46.9878V114.012C46.9878 113.453 47.441 113 48 113C48.559 113 49.0122 113.453 49.0122 114.012V115.994H51.0348C51.5679 115.994 52 116.426 52 116.959C52 117.492 51.5679 117.924 51.0348 117.924H49.0122V119.988C49.0122 120.547 48.559 121 48 121Z" fill="#EEEEEE"/>
<path d="M64 121C63.441 121 62.9878 120.547 62.9878 119.988V117.924H60.9652C60.4321 117.924 60 117.492 60 116.959C60 116.426 60.4321 115.994 60.9652 115.994H62.9878V114.012C62.9878 113.453 63.441 113 64 113C64.559 113 65.0122 113.453 65.0122 114.012V115.994H67.0348C67.5679 115.994 68 116.426 68 116.959C68 117.492 67.5679 117.924 67.0348 117.924H65.0122V119.988C65.0122 120.547 64.559 121 64 121Z" fill="#EEEEEE"/>
<path d="M80 121C79.441 121 78.9878 120.547 78.9878 119.988V117.924H76.9652C76.4321 117.924 76 117.492 76 116.959C76 116.426 76.4321 115.994 76.9652 115.994H78.9878V114.012C78.9878 113.453 79.441 113 80 113C80.559 113 81.0122 113.453 81.0122 114.012V115.994H83.0348C83.5679 115.994 84 116.426 84 116.959C84 117.492 83.5679 117.924 83.0348 117.924H81.0122V119.988C81.0122 120.547 80.559 121 80 121Z" fill="#EEEEEE"/>
<path d="M96 121C95.441 121 94.9878 120.547 94.9878 119.988V117.924H92.9652C92.4322 117.924 92 117.492 92 116.959C92 116.426 92.4322 115.994 92.9652 115.994H94.9878V114.012C94.9878 113.453 95.441 113 96 113C96.559 113 97.0122 113.453 97.0122 114.012V115.994H99.0348C99.5678 115.994 100 116.426 100 116.959C100 117.492 99.5678 117.924 99.0348 117.924H97.0122V119.988C97.0122 120.547 96.559 121 96 121Z" fill="#EEEEEE"/>
<path d="M112 121C111.441 121 110.988 120.547 110.988 119.988V117.924H108.965C108.432 117.924 108 117.492 108 116.959C108 116.426 108.432 115.994 108.965 115.994H110.988V114.012C110.988 113.453 111.441 113 112 113C112.559 113 113.012 113.453 113.012 114.012V115.994H115.035C115.568 115.994 116 116.426 116 116.959C116 117.492 115.568 117.924 115.035 117.924H113.012V119.988C113.012 120.547 112.559 121 112 121Z" fill="#EEEEEE"/>
<path d="M128 121C127.441 121 126.988 120.547 126.988 119.988V117.924H124.965C124.432 117.924 124 117.492 124 116.959C124 116.426 124.432 115.994 124.965 115.994H126.988V114.012C126.988 113.453 127.441 113 128 113C128.559 113 129.012 113.453 129.012 114.012V115.994H131.035C131.568 115.994 132 116.426 132 116.959C132 117.492 131.568 117.924 131.035 117.924H129.012V119.988C129.012 120.547 128.559 121 128 121Z" fill="#EEEEEE"/>
<path d="M144 121C143.441 121 142.988 120.547 142.988 119.988V117.924H140.965C140.432 117.924 140 117.492 140 116.959C140 116.426 140.432 115.994 140.965 115.994H142.988V114.012C142.988 113.453 143.441 113 144 113C144.559 113 145.012 113.453 145.012 114.012V115.994H147.035C147.568 115.994 148 116.426 148 116.959C148 117.492 147.568 117.924 147.035 117.924H145.012V119.988C145.012 120.547 144.559 121 144 121Z" fill="#EEEEEE"/>
<path d="M160 121C159.441 121 158.988 120.547 158.988 119.988V117.924H156.965C156.432 117.924 156 117.492 156 116.959C156 116.426 156.432 115.994 156.965 115.994H158.988V114.012C158.988 113.453 159.441 113 160 113C160.559 113 161.012 113.453 161.012 114.012V115.994H163.035C163.568 115.994 164 116.426 164 116.959C164 117.492 163.568 117.924 163.035 117.924H161.012V119.988C161.012 120.547 160.559 121 160 121Z" fill="#EEEEEE"/>
<path d="M176 121C175.441 121 174.988 120.547 174.988 119.988V117.924H172.965C172.432 117.924 172 117.492 172 116.959C172 116.426 172.432 115.994 172.965 115.994H174.988V114.012C174.988 113.453 175.441 113 176 113C176.559 113 177.012 113.453 177.012 114.012V115.994H179.035C179.568 115.994 180 116.426 180 116.959C180 117.492 179.568 117.924 179.035 117.924H177.012V119.988C177.012 120.547 176.559 121 176 121Z" fill="#EEEEEE"/>
<path d="M192 121C191.441 121 190.988 120.547 190.988 119.988V117.924H188.965C188.432 117.924 188 117.492 188 116.959C188 116.426 188.432 115.994 188.965 115.994H190.988V114.012C190.988 113.453 191.441 113 192 113C192.559 113 193.012 113.453 193.012 114.012V115.994H195.035C195.568 115.994 196 116.426 196 116.959C196 117.492 195.568 117.924 195.035 117.924H193.012V119.988C193.012 120.547 192.559 121 192 121Z" fill="#EEEEEE"/>
<path d="M208 121C207.441 121 206.988 120.547 206.988 119.988V117.924H204.965C204.432 117.924 204 117.492 204 116.959C204 116.426 204.432 115.994 204.965 115.994H206.988V114.012C206.988 113.453 207.441 113 208 113C208.559 113 209.012 113.453 209.012 114.012V115.994H211.035C211.568 115.994 212 116.426 212 116.959C212 117.492 211.568 117.924 211.035 117.924H209.012V119.988C209.012 120.547 208.559 121 208 121Z" fill="#EEEEEE"/>
<path d="M224 121C223.441 121 222.988 120.547 222.988 119.988V117.924H220.965C220.432 117.924 220 117.492 220 116.959C220 116.426 220.432 115.994 220.965 115.994H222.988V114.012C222.988 113.453 223.441 113 224 113C224.559 113 225.012 113.453 225.012 114.012V115.994H227.035C227.568 115.994 228 116.426 228 116.959C228 117.492 227.568 117.924 227.035 117.924H225.012V119.988C225.012 120.547 224.559 121 224 121Z" fill="#EEEEEE"/>
<path d="M32 137C31.441 137 30.9878 136.547 30.9878 135.988V133.924H28.9652C28.4321 133.924 28 133.492 28 132.959C28 132.426 28.4322 131.994 28.9652 131.994H30.9878V130.012C30.9878 129.453 31.441 129 32 129C32.559 129 33.0122 129.453 33.0122 130.012V131.994H35.0348C35.5679 131.994 36 132.426 36 132.959C36 133.492 35.5679 133.924 35.0348 133.924H33.0122V135.988C33.0122 136.547 32.559 137 32 137Z" fill="#EEEEEE"/>
<path d="M48 137C47.441 137 46.9878 136.547 46.9878 135.988V133.924H44.9652C44.4321 133.924 44 133.492 44 132.959C44 132.426 44.4321 131.994 44.9652 131.994H46.9878V130.012C46.9878 129.453 47.441 129 48 129C48.559 129 49.0122 129.453 49.0122 130.012V131.994H51.0348C51.5679 131.994 52 132.426 52 132.959C52 133.492 51.5679 133.924 51.0348 133.924H49.0122V135.988C49.0122 136.547 48.559 137 48 137Z" fill="#EEEEEE"/>
<path d="M64 137C63.441 137 62.9878 136.547 62.9878 135.988V133.924H60.9652C60.4321 133.924 60 133.492 60 132.959C60 132.426 60.4321 131.994 60.9652 131.994H62.9878V130.012C62.9878 129.453 63.441 129 64 129C64.559 129 65.0122 129.453 65.0122 130.012V131.994H67.0348C67.5679 131.994 68 132.426 68 132.959C68 133.492 67.5679 133.924 67.0348 133.924H65.0122V135.988C65.0122 136.547 64.559 137 64 137Z" fill="#EEEEEE"/>
<path d="M80 137C79.441 137 78.9878 136.547 78.9878 135.988V133.924H76.9652C76.4321 133.924 76 133.492 76 132.959C76 132.426 76.4321 131.994 76.9652 131.994H78.9878V130.012C78.9878 129.453 79.441 129 80 129C80.559 129 81.0122 129.453 81.0122 130.012V131.994H83.0348C83.5679 131.994 84 132.426 84 132.959C84 133.492 83.5679 133.924 83.0348 133.924H81.0122V135.988C81.0122 136.547 80.559 137 80 137Z" fill="#EEEEEE"/>
<path d="M96 137C95.441 137 94.9878 136.547 94.9878 135.988V133.924H92.9652C92.4322 133.924 92 133.492 92 132.959C92 132.426 92.4322 131.994 92.9652 131.994H94.9878V130.012C94.9878 129.453 95.441 129 96 129C96.559 129 97.0122 129.453 97.0122 130.012V131.994H99.0348C99.5678 131.994 100 132.426 100 132.959C100 133.492 99.5678 133.924 99.0348 133.924H97.0122V135.988C97.0122 136.547 96.559 137 96 137Z" fill="#EEEEEE"/>
<path d="M112 137C111.441 137 110.988 136.547 110.988 135.988V133.924H108.965C108.432 133.924 108 133.492 108 132.959C108 132.426 108.432 131.994 108.965 131.994H110.988V130.012C110.988 129.453 111.441 129 112 129C112.559 129 113.012 129.453 113.012 130.012V131.994H115.035C115.568 131.994 116 132.426 116 132.959C116 133.492 115.568 133.924 115.035 133.924H113.012V135.988C113.012 136.547 112.559 137 112 137Z" fill="#EEEEEE"/>
<path d="M128 137C127.441 137 126.988 136.547 126.988 135.988V133.924H124.965C124.432 133.924 124 133.492 124 132.959C124 132.426 124.432 131.994 124.965 131.994H126.988V130.012C126.988 129.453 127.441 129 128 129C128.559 129 129.012 129.453 129.012 130.012V131.994H131.035C131.568 131.994 132 132.426 132 132.959C132 133.492 131.568 133.924 131.035 133.924H129.012V135.988C129.012 136.547 128.559 137 128 137Z" fill="#EEEEEE"/>
<path d="M144 137C143.441 137 142.988 136.547 142.988 135.988V133.924H140.965C140.432 133.924 140 133.492 140 132.959C140 132.426 140.432 131.994 140.965 131.994H142.988V130.012C142.988 129.453 143.441 129 144 129C144.559 129 145.012 129.453 145.012 130.012V131.994H147.035C147.568 131.994 148 132.426 148 132.959C148 133.492 147.568 133.924 147.035 133.924H145.012V135.988C145.012 136.547 144.559 137 144 137Z" fill="#EEEEEE"/>
<path d="M160 137C159.441 137 158.988 136.547 158.988 135.988V133.924H156.965C156.432 133.924 156 133.492 156 132.959C156 132.426 156.432 131.994 156.965 131.994H158.988V130.012C158.988 129.453 159.441 129 160 129C160.559 129 161.012 129.453 161.012 130.012V131.994H163.035C163.568 131.994 164 132.426 164 132.959C164 133.492 163.568 133.924 163.035 133.924H161.012V135.988C161.012 136.547 160.559 137 160 137Z" fill="#EEEEEE"/>
<path d="M176 137C175.441 137 174.988 136.547 174.988 135.988V133.924H172.965C172.432 133.924 172 133.492 172 132.959C172 132.426 172.432 131.994 172.965 131.994H174.988V130.012C174.988 129.453 175.441 129 176 129C176.559 129 177.012 129.453 177.012 130.012V131.994H179.035C179.568 131.994 180 132.426 180 132.959C180 133.492 179.568 133.924 179.035 133.924H177.012V135.988C177.012 136.547 176.559 137 176 137Z" fill="#EEEEEE"/>
<path d="M192 137C191.441 137 190.988 136.547 190.988 135.988V133.924H188.965C188.432 133.924 188 133.492 188 132.959C188 132.426 188.432 131.994 188.965 131.994H190.988V130.012C190.988 129.453 191.441 129 192 129C192.559 129 193.012 129.453 193.012 130.012V131.994H195.035C195.568 131.994 196 132.426 196 132.959C196 133.492 195.568 133.924 195.035 133.924H193.012V135.988C193.012 136.547 192.559 137 192 137Z" fill="#EEEEEE"/>
<path d="M208 137C207.441 137 206.988 136.547 206.988 135.988V133.924H204.965C204.432 133.924 204 133.492 204 132.959C204 132.426 204.432 131.994 204.965 131.994H206.988V130.012C206.988 129.453 207.441 129 208 129C208.559 129 209.012 129.453 209.012 130.012V131.994H211.035C211.568 131.994 212 132.426 212 132.959C212 133.492 211.568 133.924 211.035 133.924H209.012V135.988C209.012 136.547 208.559 137 208 137Z" fill="#EEEEEE"/>
<path d="M224 137C223.441 137 222.988 136.547 222.988 135.988V133.924H220.965C220.432 133.924 220 133.492 220 132.959C220 132.426 220.432 131.994 220.965 131.994H222.988V130.012C222.988 129.453 223.441 129 224 129C224.559 129 225.012 129.453 225.012 130.012V131.994H227.035C227.568 131.994 228 132.426 228 132.959C228 133.492 227.568 133.924 227.035 133.924H225.012V135.988C225.012 136.547 224.559 137 224 137Z" fill="#EEEEEE"/>
<path d="M32 153C31.441 153 30.9878 152.547 30.9878 151.988V149.924H28.9652C28.4321 149.924 28 149.492 28 148.959C28 148.426 28.4322 147.994 28.9652 147.994H30.9878V146.012C30.9878 145.453 31.441 145 32 145C32.559 145 33.0122 145.453 33.0122 146.012V147.994H35.0348C35.5679 147.994 36 148.426 36 148.959C36 149.492 35.5679 149.924 35.0348 149.924H33.0122V151.988C33.0122 152.547 32.559 153 32 153Z" fill="#EEEEEE"/>
<path d="M48 153C47.441 153 46.9878 152.547 46.9878 151.988V149.924H44.9652C44.4321 149.924 44 149.492 44 148.959C44 148.426 44.4321 147.994 44.9652 147.994H46.9878V146.012C46.9878 145.453 47.441 145 48 145C48.559 145 49.0122 145.453 49.0122 146.012V147.994H51.0348C51.5679 147.994 52 148.426 52 148.959C52 149.492 51.5679 149.924 51.0348 149.924H49.0122V151.988C49.0122 152.547 48.559 153 48 153Z" fill="#EEEEEE"/>
<path d="M64 153C63.441 153 62.9878 152.547 62.9878 151.988V149.924H60.9652C60.4321 149.924 60 149.492 60 148.959C60 148.426 60.4321 147.994 60.9652 147.994H62.9878V146.012C62.9878 145.453 63.441 145 64 145C64.559 145 65.0122 145.453 65.0122 146.012V147.994H67.0348C67.5679 147.994 68 148.426 68 148.959C68 149.492 67.5679 149.924 67.0348 149.924H65.0122V151.988C65.0122 152.547 64.559 153 64 153Z" fill="#EEEEEE"/>
<path d="M80 153C79.441 153 78.9878 152.547 78.9878 151.988V149.924H76.9652C76.4321 149.924 76 149.492 76 148.959C76 148.426 76.4321 147.994 76.9652 147.994H78.9878V146.012C78.9878 145.453 79.441 145 80 145C80.559 145 81.0122 145.453 81.0122 146.012V147.994H83.0348C83.5679 147.994 84 148.426 84 148.959C84 149.492 83.5679 149.924 83.0348 149.924H81.0122V151.988C81.0122 152.547 80.559 153 80 153Z" fill="#EEEEEE"/>
<path d="M96 153C95.441 153 94.9878 152.547 94.9878 151.988V149.924H92.9652C92.4322 149.924 92 149.492 92 148.959C92 148.426 92.4322 147.994 92.9652 147.994H94.9878V146.012C94.9878 145.453 95.441 145 96 145C96.559 145 97.0122 145.453 97.0122 146.012V147.994H99.0348C99.5678 147.994 100 148.426 100 148.959C100 149.492 99.5678 149.924 99.0348 149.924H97.0122V151.988C97.0122 152.547 96.559 153 96 153Z" fill="#EEEEEE"/>
<path d="M112 153C111.441 153 110.988 152.547 110.988 151.988V149.924H108.965C108.432 149.924 108 149.492 108 148.959C108 148.426 108.432 147.994 108.965 147.994H110.988V146.012C110.988 145.453 111.441 145 112 145C112.559 145 113.012 145.453 113.012 146.012V147.994H115.035C115.568 147.994 116 148.426 116 148.959C116 149.492 115.568 149.924 115.035 149.924H113.012V151.988C113.012 152.547 112.559 153 112 153Z" fill="#EEEEEE"/>
<path d="M128 153C127.441 153 126.988 152.547 126.988 151.988V149.924H124.965C124.432 149.924 124 149.492 124 148.959C124 148.426 124.432 147.994 124.965 147.994H126.988V146.012C126.988 145.453 127.441 145 128 145C128.559 145 129.012 145.453 129.012 146.012V147.994H131.035C131.568 147.994 132 148.426 132 148.959C132 149.492 131.568 149.924 131.035 149.924H129.012V151.988C129.012 152.547 128.559 153 128 153Z" fill="#EEEEEE"/>
<path d="M144 153C143.441 153 142.988 152.547 142.988 151.988V149.924H140.965C140.432 149.924 140 149.492 140 148.959C140 148.426 140.432 147.994 140.965 147.994H142.988V146.012C142.988 145.453 143.441 145 144 145C144.559 145 145.012 145.453 145.012 146.012V147.994H147.035C147.568 147.994 148 148.426 148 148.959C148 149.492 147.568 149.924 147.035 149.924H145.012V151.988C145.012 152.547 144.559 153 144 153Z" fill="#EEEEEE"/>
<path d="M160 153C159.441 153 158.988 152.547 158.988 151.988V149.924H156.965C156.432 149.924 156 149.492 156 148.959C156 148.426 156.432 147.994 156.965 147.994H158.988V146.012C158.988 145.453 159.441 145 160 145C160.559 145 161.012 145.453 161.012 146.012V147.994H163.035C163.568 147.994 164 148.426 164 148.959C164 149.492 163.568 149.924 163.035 149.924H161.012V151.988C161.012 152.547 160.559 153 160 153Z" fill="#EEEEEE"/>
<path d="M176 153C175.441 153 174.988 152.547 174.988 151.988V149.924H172.965C172.432 149.924 172 149.492 172 148.959C172 148.426 172.432 147.994 172.965 147.994H174.988V146.012C174.988 145.453 175.441 145 176 145C176.559 145 177.012 145.453 177.012 146.012V147.994H179.035C179.568 147.994 180 148.426 180 148.959C180 149.492 179.568 149.924 179.035 149.924H177.012V151.988C177.012 152.547 176.559 153 176 153Z" fill="#EEEEEE"/>
<path d="M192 153C191.441 153 190.988 152.547 190.988 151.988V149.924H188.965C188.432 149.924 188 149.492 188 148.959C188 148.426 188.432 147.994 188.965 147.994H190.988V146.012C190.988 145.453 191.441 145 192 145C192.559 145 193.012 145.453 193.012 146.012V147.994H195.035C195.568 147.994 196 148.426 196 148.959C196 149.492 195.568 149.924 195.035 149.924H193.012V151.988C193.012 152.547 192.559 153 192 153Z" fill="#EEEEEE"/>
<path d="M208 153C207.441 153 206.988 152.547 206.988 151.988V149.924H204.965C204.432 149.924 204 149.492 204 148.959C204 148.426 204.432 147.994 204.965 147.994H206.988V146.012C206.988 145.453 207.441 145 208 145C208.559 145 209.012 145.453 209.012 146.012V147.994H211.035C211.568 147.994 212 148.426 212 148.959C212 149.492 211.568 149.924 211.035 149.924H209.012V151.988C209.012 152.547 208.559 153 208 153Z" fill="#EEEEEE"/>
<path d="M224 153C223.441 153 222.988 152.547 222.988 151.988V149.924H220.965C220.432 149.924 220 149.492 220 148.959C220 148.426 220.432 147.994 220.965 147.994H222.988V146.012C222.988 145.453 223.441 145 224 145C224.559 145 225.012 145.453 225.012 146.012V147.994H227.035C227.568 147.994 228 148.426 228 148.959C228 149.492 227.568 149.924 227.035 149.924H225.012V151.988C225.012 152.547 224.559 153 224 153Z" fill="#EEEEEE"/>
<path d="M32 169C31.441 169 30.9878 168.547 30.9878 167.988V165.924H28.9652C28.4321 165.924 28 165.492 28 164.959C28 164.426 28.4322 163.994 28.9652 163.994H30.9878V162.012C30.9878 161.453 31.441 161 32 161C32.559 161 33.0122 161.453 33.0122 162.012V163.994H35.0348C35.5679 163.994 36 164.426 36 164.959C36 165.492 35.5679 165.924 35.0348 165.924H33.0122V167.988C33.0122 168.547 32.559 169 32 169Z" fill="#EEEEEE"/>
<path d="M48 169C47.441 169 46.9878 168.547 46.9878 167.988V165.924H44.9652C44.4321 165.924 44 165.492 44 164.959C44 164.426 44.4321 163.994 44.9652 163.994H46.9878V162.012C46.9878 161.453 47.441 161 48 161C48.559 161 49.0122 161.453 49.0122 162.012V163.994H51.0348C51.5679 163.994 52 164.426 52 164.959C52 165.492 51.5679 165.924 51.0348 165.924H49.0122V167.988C49.0122 168.547 48.559 169 48 169Z" fill="#EEEEEE"/>
<path d="M64 169C63.441 169 62.9878 168.547 62.9878 167.988V165.924H60.9652C60.4321 165.924 60 165.492 60 164.959C60 164.426 60.4321 163.994 60.9652 163.994H62.9878V162.012C62.9878 161.453 63.441 161 64 161C64.559 161 65.0122 161.453 65.0122 162.012V163.994H67.0348C67.5679 163.994 68 164.426 68 164.959C68 165.492 67.5679 165.924 67.0348 165.924H65.0122V167.988C65.0122 168.547 64.559 169 64 169Z" fill="#EEEEEE"/>
<path d="M80 169C79.441 169 78.9878 168.547 78.9878 167.988V165.924H76.9652C76.4321 165.924 76 165.492 76 164.959C76 164.426 76.4321 163.994 76.9652 163.994H78.9878V162.012C78.9878 161.453 79.441 161 80 161C80.559 161 81.0122 161.453 81.0122 162.012V163.994H83.0348C83.5679 163.994 84 164.426 84 164.959C84 165.492 83.5679 165.924 83.0348 165.924H81.0122V167.988C81.0122 168.547 80.559 169 80 169Z" fill="#EEEEEE"/>
<path d="M96 169C95.441 169 94.9878 168.547 94.9878 167.988V165.924H92.9652C92.4322 165.924 92 165.492 92 164.959C92 164.426 92.4322 163.994 92.9652 163.994H94.9878V162.012C94.9878 161.453 95.441 161 96 161C96.559 161 97.0122 161.453 97.0122 162.012V163.994H99.0348C99.5678 163.994 100 164.426 100 164.959C100 165.492 99.5678 165.924 99.0348 165.924H97.0122V167.988C97.0122 168.547 96.559 169 96 169Z" fill="#EEEEEE"/>
<path d="M112 169C111.441 169 110.988 168.547 110.988 167.988V165.924H108.965C108.432 165.924 108 165.492 108 164.959C108 164.426 108.432 163.994 108.965 163.994H110.988V162.012C110.988 161.453 111.441 161 112 161C112.559 161 113.012 161.453 113.012 162.012V163.994H115.035C115.568 163.994 116 164.426 116 164.959C116 165.492 115.568 165.924 115.035 165.924H113.012V167.988C113.012 168.547 112.559 169 112 169Z" fill="#EEEEEE"/>
<path d="M128 169C127.441 169 126.988 168.547 126.988 167.988V165.924H124.965C124.432 165.924 124 165.492 124 164.959C124 164.426 124.432 163.994 124.965 163.994H126.988V162.012C126.988 161.453 127.441 161 128 161C128.559 161 129.012 161.453 129.012 162.012V163.994H131.035C131.568 163.994 132 164.426 132 164.959C132 165.492 131.568 165.924 131.035 165.924H129.012V167.988C129.012 168.547 128.559 169 128 169Z" fill="#EEEEEE"/>
<path d="M144 169C143.441 169 142.988 168.547 142.988 167.988V165.924H140.965C140.432 165.924 140 165.492 140 164.959C140 164.426 140.432 163.994 140.965 163.994H142.988V162.012C142.988 161.453 143.441 161 144 161C144.559 161 145.012 161.453 145.012 162.012V163.994H147.035C147.568 163.994 148 164.426 148 164.959C148 165.492 147.568 165.924 147.035 165.924H145.012V167.988C145.012 168.547 144.559 169 144 169Z" fill="#EEEEEE"/>
<path d="M160 169C159.441 169 158.988 168.547 158.988 167.988V165.924H156.965C156.432 165.924 156 165.492 156 164.959C156 164.426 156.432 163.994 156.965 163.994H158.988V162.012C158.988 161.453 159.441 161 160 161C160.559 161 161.012 161.453 161.012 162.012V163.994H163.035C163.568 163.994 164 164.426 164 164.959C164 165.492 163.568 165.924 163.035 165.924H161.012V167.988C161.012 168.547 160.559 169 160 169Z" fill="#EEEEEE"/>
<path d="M176 169C175.441 169 174.988 168.547 174.988 167.988V165.924H172.965C172.432 165.924 172 165.492 172 164.959C172 164.426 172.432 163.994 172.965 163.994H174.988V162.012C174.988 161.453 175.441 161 176 161C176.559 161 177.012 161.453 177.012 162.012V163.994H179.035C179.568 163.994 180 164.426 180 164.959C180 165.492 179.568 165.924 179.035 165.924H177.012V167.988C177.012 168.547 176.559 169 176 169Z" fill="#EEEEEE"/>
<path d="M192 169C191.441 169 190.988 168.547 190.988 167.988V165.924H188.965C188.432 165.924 188 165.492 188 164.959C188 164.426 188.432 163.994 188.965 163.994H190.988V162.012C190.988 161.453 191.441 161 192 161C192.559 161 193.012 161.453 193.012 162.012V163.994H195.035C195.568 163.994 196 164.426 196 164.959C196 165.492 195.568 165.924 195.035 165.924H193.012V167.988C193.012 168.547 192.559 169 192 169Z" fill="#EEEEEE"/>
<path d="M208 169C207.441 169 206.988 168.547 206.988 167.988V165.924H204.965C204.432 165.924 204 165.492 204 164.959C204 164.426 204.432 163.994 204.965 163.994H206.988V162.012C206.988 161.453 207.441 161 208 161C208.559 161 209.012 161.453 209.012 162.012V163.994H211.035C211.568 163.994 212 164.426 212 164.959C212 165.492 211.568 165.924 211.035 165.924H209.012V167.988C209.012 168.547 208.559 169 208 169Z" fill="#EEEEEE"/>
<path d="M224 169C223.441 169 222.988 168.547 222.988 167.988V165.924H220.965C220.432 165.924 220 165.492 220 164.959C220 164.426 220.432 163.994 220.965 163.994H222.988V162.012C222.988 161.453 223.441 161 224 161C224.559 161 225.012 161.453 225.012 162.012V163.994H227.035C227.568 163.994 228 164.426 228 164.959C228 165.492 227.568 165.924 227.035 165.924H225.012V167.988C225.012 168.547 224.559 169 224 169Z" fill="#EEEEEE"/>
</g>
<rect x="75" y="46" width="90" height="90" rx="45" fill="white"/>
<g clip-path="url(#clip0_157_2795)">
<path fill-rule="evenodd" clip-rule="evenodd" d="M132.752 61.1474C134.574 60.6007 136.495 61.6209 137.08 63.4453L140.626 74.5098H143.81C145.743 74.5098 147.31 76.0904 147.31 78.0402V86.8435C148.853 87.2123 150 88.6104 150 90.2788V99.3569C150 101.025 148.853 102.423 147.31 102.792V112.47C147.31 114.419 145.743 116 143.81 116H121C120.172 116 119.5 115.323 119.5 114.487C119.5 113.651 120.172 112.974 121 112.974H143.81C144.086 112.974 144.31 112.748 144.31 112.47V102.887H135.728C134.043 102.887 132.423 102.227 131.211 101.045L129.659 99.5318C127.016 96.9546 127.016 92.681 129.659 90.1038L131.211 88.5908C132.423 87.409 134.043 86.7484 135.728 86.7484H144.31V78.0402C144.31 77.7616 144.086 77.5358 143.81 77.5358H98.5C98.2239 77.5358 98 77.7616 98 78.0402V90.2788C98 91.1144 97.3284 91.7918 96.5 91.7918C95.6716 91.7918 95 91.1144 95 90.2788V78.0402C95 76.0904 96.567 74.5098 98.5 74.5098H99.0571C98.754 72.7619 99.7932 71.0355 101.508 70.5211L132.752 61.1474ZM102.144 74.5098H137.473L134.225 64.3761C134.142 64.1155 133.867 63.9697 133.607 64.0478L102.363 73.4215C102.105 73.4989 101.954 73.7684 102.021 74.0312L102.144 74.5098ZM135.728 89.7744C134.821 89.7744 133.949 90.1301 133.296 90.7665L131.744 92.2795C130.321 93.6672 130.321 95.9684 131.744 97.3561L133.296 98.8691C133.949 99.5055 134.821 99.8612 135.728 99.8612H146.5C146.776 99.8612 147 99.6354 147 99.3569V90.2788C147 90.0002 146.776 89.7744 146.5 89.7744H135.728Z" fill="black"/>
<path fill-rule="evenodd" clip-rule="evenodd" d="M97.8 96V102.8H108.2V96C108.2 95.4477 108.648 95 109.2 95H110.169C110.434 95 110.689 95.1053 110.876 95.2929L115.707 100.124C115.895 100.311 116 100.566 116 100.831V120C116 120.552 115.552 121 115 121H91C90.4477 121 90 120.552 90 120V96C90 95.4477 90.4477 95 91 95H96.8C97.3523 95 97.8 95.4477 97.8 96ZM103 96V99.2C103 99.7523 103.448 100.2 104 100.2H104.6C105.152 100.2 105.6 99.7523 105.6 99.2V96C105.6 95.4477 105.152 95 104.6 95H104C103.448 95 103 95.4477 103 96ZM103 117C105.761 117 108 114.761 108 112C108 109.239 105.761 107 103 107C100.239 107 98 109.239 98 112C98 114.761 100.239 117 103 117Z" fill="#A400CD"/>
</g>
<g filter="url(#filter1_d_157_2795)">
<path d="M106.072 21.536C121.792 37.2562 147.28 37.2562 163 21.536L91.5359 7.00004L106.072 21.536Z" fill="url(#paint0_linear_157_2795)"/>
</g>
</g>
<defs>
<filter id="filter0_d_157_2795" x="0" y="7" width="240" height="228" filterUnits="userSpaceOnUse" color-interpolation-filters="sRGB">
<feFlood flood-opacity="0" result="BackgroundImageFix"/>
<feColorMatrix in="SourceAlpha" type="matrix" values="0 0 0 0 0 0 0 0 0 0 0 0 0 0 0 0 0 0 127 0" result="hardAlpha"/>
<feOffset dy="30"/>
<feGaussianBlur stdDeviation="15"/>
<feColorMatrix type="matrix" values="0 0 0 0 0 0 0 0 0 0 0 0 0 0 0 0 0 0 0.3 0"/>
<feBlend mode="normal" in2="BackgroundImageFix" result="effect1_dropShadow_157_2795"/>
<feBlend mode="normal" in="SourceGraphic" in2="effect1_dropShadow_157_2795" result="shape"/>
</filter>
<filter id="filter1_d_157_2795" x="85.5359" y="0" width="89.4641" height="44.3262" filterUnits="userSpaceOnUse" color-interpolation-filters="sRGB">
<feFlood flood-opacity="0" result="BackgroundImageFix"/>
<feColorMatrix in="SourceAlpha" type="matrix" values="0 0 0 0 0 0 0 0 0 0 0 0 0 0 0 0 0 0 127 0" result="hardAlpha"/>
<feOffset dx="3" dy="2"/>
<feGaussianBlur stdDeviation="4.5"/>
<feComposite in2="hardAlpha" operator="out"/>
<feColorMatrix type="matrix" values="0 0 0 0 0 0 0 0 0 0 0 0 0 0 0 0 0 0 0.3 0"/>
<feBlend mode="normal" in2="BackgroundImageFix" result="effect1_dropShadow_157_2795"/>
<feBlend mode="normal" in="SourceGraphic" in2="effect1_dropShadow_157_2795" result="shape"/>
</filter>
<linearGradient id="paint0_linear_157_2795" x1="163" y1="7.00004" x2="89.1887" y2="20.0615" gradientUnits="userSpaceOnUse">
<stop stop-color="#A400CD"/>
<stop offset="1" stop-color="#D33883"/>
</linearGradient>
<clipPath id="clip0_157_2795">
<rect width="60" height="60" fill="white" transform="translate(90 61)"/>
</clipPath>
</defs>
</svg>
