<svg width="26" height="26" viewBox="0 0 26 26" fill="none" xmlns="http://www.w3.org/2000/svg">
<path fill-rule="evenodd" clip-rule="evenodd" d="M4.11095 12.4078L4.02299 13.1745H0.857732C0.38402 13.1745 0 12.7868 0 12.3085Lnan nanLnan nanL0 12.3085C0 11.8302 0.384019 11.4425 0.857732 11.4425H2.51984C2.56827 11.2072 2.63278 10.9256 2.71746 10.6093C2.96757 9.675 3.3984 8.4199 4.12309 7.15659C5.58554 4.60721 8.2732 2 13 2C17.7268 2 20.4145 4.60721 21.8769 7.15659C22.6016 8.4199 23.0324 9.675 23.2825 10.6093C23.3672 10.9256 23.4317 11.2072 23.4802 11.4425H25.1423C25.616 11.4425 26 11.8302 26 12.3085Lnan nanLnan nanL26 12.3085C26 12.7868 25.616 13.1745 25.1423 13.1745H21.977L21.8891 12.4085L21.889 12.4071L21.8871 12.3926C21.8854 12.379 21.8824 12.3569 21.878 12.3269C21.8693 12.2668 21.855 12.1751 21.8336 12.0563C21.7907 11.8184 21.7196 11.4733 21.6081 11.0569C21.3842 10.2207 21.0026 9.11519 20.3731 8.01788C19.1272 5.84601 16.9399 3.73196 13 3.73196C9.06014 3.73196 6.87279 5.84601 5.62691 8.01788C4.99744 9.11519 4.61576 10.2207 4.39192 11.0569C4.28045 11.4733 4.2093 11.8184 4.16641 12.0563C4.14499 12.1751 4.13068 12.2668 4.12195 12.3269C4.11759 12.3569 4.11463 12.379 4.11287 12.3926L4.11111 12.4064L4.11095 12.4078ZM13 8.97779C11.0597 8.97779 9.53333 10.4943 9.53333 12.3085C9.53333 14.1227 11.0597 15.6392 13 15.6392C14.9403 15.6392 16.4667 14.1227 16.4667 12.3085C16.4667 10.4943 14.9403 8.97779 13 8.97779ZM7.8 12.3085C7.8 9.48715 10.1538 7.24584 13 7.24584C15.8462 7.24584 18.2 9.48715 18.2 12.3085C18.2 15.1298 15.8462 17.3711 13 17.3711C10.1538 17.3711 7.8 15.1298 7.8 12.3085ZM9.90556 20.6357C11.1159 21.1128 12.3073 21.268 13 21.268C13.6927 21.268 14.8841 21.1128 16.0944 20.6357C17.049 20.2594 17.9727 19.7004 18.6825 18.8998C18.9987 18.5431 19.5233 18.414 19.9265 18.6658Lnan nanLnan nanL19.9265 18.6658C20.335 18.921 20.4627 19.4678 20.1565 19.8415C19.1937 21.0165 17.9319 21.7732 16.7306 22.2468C15.3048 22.8089 13.8961 23 13 23C12.1039 23 10.6952 22.8089 9.26944 22.2468C8.06806 21.7732 6.80632 21.0165 5.8435 19.8415C5.53728 19.4678 5.66496 18.921 6.07351 18.6658Lnan nanLnan nanL6.07351 18.6658C6.47672 18.414 7.00127 18.5431 7.31747 18.8998C8.02726 19.7004 8.95103 20.2594 9.90556 20.6357Z" fill="white"/>
</svg>
