<svg width="26" height="21" viewBox="0 0 26 21" fill="none" xmlns="http://www.w3.org/2000/svg">
<path fill-rule="evenodd" clip-rule="evenodd" d="M4.11095 10.4078L4.02299 11.1745H0.857732C0.38402 11.1745 0 10.7868 0 10.3085C0 9.83022 0.384019 9.4425 0.857732 9.4425H2.51984C2.56827 9.20723 2.63278 8.92564 2.71746 8.60932C2.96757 7.675 3.3984 6.4199 4.12309 5.15659C5.58554 2.60721 8.2732 0 13 0C17.7268 0 20.4145 2.60721 21.8769 5.15659C22.6016 6.4199 23.0324 7.675 23.2825 8.60932C23.3672 8.92564 23.4317 9.20723 23.4802 9.4425H25.1423C25.616 9.4425 26 9.83022 26 10.3085C26 10.7868 25.616 11.1745 25.1423 11.1745H21.977L21.8891 10.4085L21.889 10.4071L21.8871 10.3926C21.8854 10.379 21.8824 10.3569 21.878 10.3269C21.8693 10.2668 21.855 10.1751 21.8336 10.0563C21.7907 9.8184 21.7196 9.47326 21.6081 9.05687C21.3842 8.22071 21.0026 7.11519 20.3731 6.01788C19.1272 3.846 16.9399 1.73196 13 1.73196C9.06014 1.73196 6.87279 3.846 5.62691 6.01788C4.99744 7.11519 4.61576 8.22071 4.39192 9.05687C4.28045 9.47326 4.2093 9.8184 4.16641 10.0563C4.14499 10.1751 4.13068 10.2668 4.12195 10.3269C4.11759 10.3569 4.11463 10.379 4.11287 10.3926L4.11111 10.4064L4.11095 10.4078ZM9.90556 18.6357C11.1159 19.1128 12.3073 19.268 13 19.268C13.6927 19.268 14.8841 19.1128 16.0944 18.6357C17.049 18.2594 17.9727 17.7004 18.6825 16.8998C18.9987 16.5431 19.5233 16.414 19.9265 16.6658C20.335 16.921 20.4627 17.4678 20.1565 17.8415C19.1937 19.0165 17.9319 19.7732 16.7306 20.2468C15.3048 20.8089 13.8961 21 13 21C12.1039 21 10.6952 20.8089 9.26944 20.2468C8.06806 19.7732 6.80632 19.0165 5.8435 17.8415C5.53728 17.4678 5.66496 16.921 6.07351 16.6658C6.47672 16.414 7.00127 16.5431 7.31747 16.8998C8.02726 17.7004 8.95103 18.2594 9.90556 18.6357Z" fill="white"/>
<path d="M8.66667 12.3277C9.14531 12.3277 9.52182 11.9327 9.64967 11.4714C10.0408 10.0604 11.3753 8.99702 13 8.99702C14.6247 8.99702 15.9592 10.0604 16.3503 11.4714C16.4782 11.9327 16.8547 12.3277 17.3333 12.3277C17.812 12.3277 18.208 11.9365 18.1252 11.465C17.7032 9.06288 15.5491 7.26507 13 7.26507C10.4509 7.26507 8.29678 9.06288 7.87483 11.465C7.79202 11.9365 8.18802 12.3277 8.66667 12.3277Z" fill="white"/>
</svg>
