<svg width="298" height="44" viewBox="0 0 298 44" fill="none" xmlns="http://www.w3.org/2000/svg">
<path d="M4.90314 43.5422L4.13267 44.1797L4.67189 44.8314L5.40401 44.4077L4.90314 43.5422ZM2.06047 40.1064L1.50876 39.2724L0.580526 39.8864L1.28999 40.7439L2.06047 40.1064ZM3.98064 38.389L3.21207 37.7492L3.20683 37.7555L3.20169 37.7619L3.98064 38.389ZM5.2186 36.1896L6.16115 36.5238L6.1639 36.5158L5.2186 36.1896ZM5.78119 33.2268L4.78522 33.1371L4.78449 33.1452L4.78389 33.1533L5.78119 33.2268ZM5.30377 23.1823L5.2285 22.1851L4.23134 22.2604L4.30661 23.2575L5.30377 23.1823ZM20.6042 22.0273L21.6014 21.952L21.5261 20.9549L20.529 21.0302L20.6042 22.0273ZM22.0901 41.7113L22.1654 42.7085L23.1625 42.6332L23.0873 41.636L22.0901 41.7113ZM16.9806 42.097L15.9835 42.1723L16.0587 43.1694L17.0559 43.0942L16.9806 42.097ZM15.8067 26.5452L16.8039 26.47L16.7286 25.4728L15.7314 25.5481L15.8067 26.5452ZM10.3343 26.9583L10.259 25.9612L9.26184 26.0364L9.33711 27.0336L10.3343 26.9583ZM10.4497 34.8119L9.46141 34.6591L9.45959 34.672L10.4497 34.8119ZM9.41146 38.5407L8.49943 38.1303L8.494 38.1428L9.41146 38.5407ZM7.55189 41.4328L6.81703 40.7546L7.55189 41.4328ZM5.67362 42.9047L2.83094 39.4689L1.28999 40.7439L4.13267 44.1797L5.67362 42.9047ZM2.61218 40.9404C3.4544 40.3833 4.17413 39.7433 4.75959 39.0161L3.20169 37.7619C2.76026 38.3103 2.19987 38.8152 1.50876 39.2724L2.61218 40.9404ZM4.74922 39.0288C5.36095 38.2939 5.8306 37.456 6.16112 36.5237L4.27609 35.8554C4.02012 36.5774 3.66446 37.2058 3.21207 37.7492L4.74922 39.0288ZM6.1639 36.5158C6.49021 35.5702 6.69052 34.4942 6.77849 33.3003L4.78389 33.1533C4.70542 34.2184 4.53067 35.1176 4.2733 35.8634L6.1639 36.5158ZM6.77716 33.3165C6.88519 32.1168 6.87783 30.7496 6.7625 29.2216L4.76817 29.3721C4.87764 30.8224 4.88085 32.0751 4.78522 33.1371L6.77716 33.3165ZM6.7625 29.2216L6.30093 23.107L4.30661 23.2575L4.76817 29.3721L6.7625 29.2216ZM5.37904 24.1794L20.6795 23.0245L20.529 21.0302L5.2285 22.1851L5.37904 24.1794ZM19.6071 22.1026L21.0929 41.7866L23.0873 41.636L21.6014 21.952L19.6071 22.1026ZM22.0148 40.7142L16.9054 41.0998L17.0559 43.0942L22.1654 42.7085L22.0148 40.7142ZM17.9778 42.0217L16.8039 26.47L14.8095 26.6205L15.9835 42.1723L17.9778 42.0217ZM15.7314 25.5481L10.259 25.9612L10.4095 27.9555L15.882 27.5424L15.7314 25.5481ZM9.33711 27.0336L9.58159 30.2724L11.5759 30.1218L11.3314 26.8831L9.33711 27.0336ZM9.58159 30.2724C9.70488 31.9057 9.66152 33.3659 9.4615 34.6591L11.438 34.9648C11.6657 33.4926 11.7083 31.8762 11.5759 30.1218L9.58159 30.2724ZM9.45959 34.672C9.27558 35.9737 8.95242 37.1237 8.49951 38.1304L10.3234 38.9509C10.8644 37.7486 11.2334 36.4127 11.4399 34.9519L9.45959 34.672ZM8.494 38.1428C8.05718 39.1503 7.49699 40.0179 6.81703 40.7546L8.28675 42.111C9.12957 41.1978 9.8091 40.1373 10.3289 38.9385L8.494 38.1428ZM6.81703 40.7546C6.12605 41.5033 5.3227 42.144 4.40228 42.6767L5.40401 44.4077C6.49245 43.7778 7.45493 43.0123 8.28675 42.111L6.81703 40.7546ZM28.4889 41.2283L27.5703 40.8331L26.9179 42.3497L28.5642 42.2255L28.4889 41.2283ZM31.5227 34.1759L32.5161 34.0616L32.0872 30.3331L30.6041 33.7808L31.5227 34.1759ZM31.686 35.5957L30.8815 36.1895L33.1079 39.2059L32.6795 35.4814L31.686 35.5957ZM21.6144 21.9511L21.5391 20.9539L19.7359 21.09L20.8098 22.5449L21.6144 21.9511ZM27.0589 21.5401L27.8705 20.9558L27.5428 20.5007L26.9836 20.5429L27.0589 21.5401ZM33.8659 30.9945L33.9411 31.9917L35.7194 31.8575L34.6774 30.4102L33.8659 30.9945ZM32.9166 31.0662L31.9966 30.6742L31.3519 32.1872L32.9918 32.0634L32.9166 31.0662ZM37.3058 20.7666L37.2305 19.7694L36.6242 19.8152L36.3858 20.3746L37.3058 20.7666ZM42.6107 20.3662L43.529 20.7619L44.1828 19.2446L42.5354 19.369L42.6107 20.3662ZM33.7938 40.8279L33.8691 41.825L34.4727 41.7795L34.7122 41.2236L33.7938 40.8279ZM29.4075 41.6235L32.4413 34.5711L30.6041 33.7808L27.5703 40.8331L29.4075 41.6235ZM30.5292 34.2902L30.6926 35.71L32.6795 35.4814L32.5161 34.0616L30.5292 34.2902ZM32.4906 35.0018L22.419 21.3572L20.8098 22.5449L30.8815 36.1895L32.4906 35.0018ZM21.6897 22.9482L27.1342 22.5372L26.9836 20.5429L21.5391 20.9539L21.6897 22.9482ZM26.2474 22.1244L33.0543 31.5788L34.6774 30.4102L27.8705 20.9558L26.2474 22.1244ZM33.7906 29.9974L32.8413 30.069L32.9918 32.0634L33.9411 31.9917L33.7906 29.9974ZM33.8365 31.4582L38.2257 21.1586L36.3858 20.3746L31.9966 30.6742L33.8365 31.4582ZM37.381 21.7638L42.6859 21.3633L42.5354 19.369L37.2305 19.7694L37.381 21.7638ZM41.6923 19.9704L32.8755 40.4321L34.7122 41.2236L43.529 20.7619L41.6923 19.9704ZM33.7186 39.8307L28.4136 40.2311L28.5642 42.2255L33.8691 41.825L33.7186 39.8307ZM57.0578 39.0718L56.0606 39.147L56.1359 40.1442L57.133 40.0689L57.0578 39.0718ZM56.533 32.1196L57.5301 32.0443L57.4215 30.6054L56.1124 31.2123L56.533 32.1196ZM54.8335 32.669L54.6036 31.6958L54.5996 31.6968L54.8335 32.669ZM46.314 31.4027L45.682 32.1777L45.6873 32.1819L46.314 31.4027ZM43.2589 20.3172L43.1837 19.3201L42.1865 19.3953L42.2618 20.3925L43.2589 20.3172ZM48.3684 19.9315L49.3656 19.8563L49.2903 18.8591L48.2931 18.9344L48.3684 19.9315ZM49.9547 27.9268L49.282 28.6667L49.2923 28.6761L49.3028 28.6851L49.9547 27.9268ZM54.6549 28.4425L54.4218 27.47L54.4167 27.4713L54.6549 28.4425ZM56.2147 27.9036L56.6429 28.8072L57.2636 28.5131L57.2119 27.8283L56.2147 27.9036ZM55.5719 19.3878L55.4966 18.3906L54.4995 18.4659L54.5748 19.463L55.5719 19.3878ZM60.6814 19.0021L61.6785 18.9268L61.6033 17.9297L60.6061 18.0049L60.6814 19.0021ZM62.1672 38.6861L62.2425 39.6833L63.2397 39.608L63.1644 38.6108L62.1672 38.6861ZM58.0549 38.9965L57.5301 32.0443L55.5358 32.1948L56.0606 39.147L58.0549 38.9965ZM56.1124 31.2123C55.7617 31.3749 55.266 31.5394 54.6036 31.6958L55.0634 33.6423C55.7988 33.4686 56.4361 33.2667 56.9536 33.0268L56.1124 31.2123ZM54.5996 31.6968C53.9722 31.8477 53.3314 31.9481 52.6768 31.9975L52.8274 33.9918C53.5874 33.9344 54.3343 33.8177 55.0674 33.6413L54.5996 31.6968ZM52.6768 31.9975C50.1225 32.1903 48.2568 31.682 46.9408 30.6235L45.6873 32.1819C47.5202 33.6562 49.9466 34.2092 52.8274 33.9918L52.6768 31.9975ZM46.946 30.6277C45.6582 29.5776 44.8273 27.8085 44.6228 25.1001L42.6285 25.2507C42.8568 28.2753 43.8182 30.6578 45.6821 32.1777L46.946 30.6277ZM44.6228 25.1001L44.2561 20.242L42.2618 20.3925L42.6285 25.2507L44.6228 25.1001ZM43.3342 21.3144L48.4437 20.9287L48.2931 18.9344L43.1837 19.3201L43.3342 21.3144ZM47.3712 20.0068L47.7253 24.6975L49.7196 24.5469L49.3656 19.8563L47.3712 20.0068ZM47.7253 24.6975C47.8508 26.36 48.299 27.773 49.282 28.6667L50.6274 27.1869C50.2036 26.8016 49.8302 26.0115 49.7196 24.5469L47.7253 24.6975ZM49.3028 28.6851C50.2981 29.5406 51.6413 29.8132 53.1492 29.6994L52.9987 27.7051C51.7889 27.7964 51.0527 27.552 50.6066 27.1685L49.3028 28.6851ZM53.1492 29.6994C53.7131 29.6568 54.2948 29.5604 54.8931 29.4137L54.4167 27.4713C53.9122 27.595 53.4399 27.6718 52.9987 27.7051L53.1492 29.6994ZM54.888 29.4149C55.5169 29.2642 56.1032 29.063 56.6429 28.8072L55.7865 26.9999C55.3864 27.1895 54.9329 27.3475 54.4218 27.47L54.888 29.4149ZM57.2119 27.8283L56.5691 19.3125L54.5748 19.463L55.2176 27.9788L57.2119 27.8283ZM55.6472 20.3849L60.7567 19.9993L60.6061 18.0049L55.4966 18.3906L55.6472 20.3849ZM59.6842 19.0774L61.1701 38.7614L63.1644 38.6108L61.6785 18.9268L59.6842 19.0774ZM62.092 37.6889L56.9825 38.0746L57.133 40.0689L62.2425 39.6833L62.092 37.6889ZM65.8061 38.4114L64.8089 38.4867L64.8842 39.4838L65.8813 39.4086L65.8061 38.4114ZM64.3202 18.7274L64.2449 17.7302L63.2478 17.8055L63.3231 18.8027L64.3202 18.7274ZM69.3738 18.3459L70.371 18.2707L70.2957 17.2735L69.2986 17.3488L69.3738 18.3459ZM70.5478 33.8977L69.5506 33.973L69.6259 34.9701L70.623 34.8949L70.5478 33.8977ZM76.7741 33.4277L76.8493 34.4249L77.8465 34.3496L77.7712 33.3524L76.7741 33.4277ZM75.6001 17.8759L75.5249 16.8788L74.5277 16.9541L74.603 17.9512L75.6001 17.8759ZM80.5979 17.4987L81.5951 17.4234L81.5198 16.4263L80.5226 16.5015L80.5979 17.4987ZM81.7718 33.0504L80.7747 33.1257L80.8499 34.1229L81.8471 34.0476L81.7718 33.0504ZM88.026 32.5783L88.1013 33.5755L89.0985 33.5002L89.0232 32.5031L88.026 32.5783ZM86.8521 17.0266L86.7768 16.0294L85.7797 16.1047L85.855 17.1019L86.8521 17.0266ZM91.8499 16.6493L92.8471 16.5741L92.7718 15.5769L91.7746 15.6522L91.8499 16.6493ZM93.3357 36.3333L93.411 37.3305L94.4082 37.2552L94.3329 36.2581L93.3357 36.3333ZM66.8032 38.3361L65.3174 18.6521L63.3231 18.8027L64.8089 38.4867L66.8032 38.3361ZM64.3955 19.7246L69.4491 19.3431L69.2986 17.3488L64.2449 17.7302L64.3955 19.7246ZM68.3767 18.4212L69.5506 33.973L71.5449 33.8224L70.371 18.2707L68.3767 18.4212ZM70.623 34.8949L76.8493 34.4249L76.6988 32.4305L70.4725 32.9005L70.623 34.8949ZM77.7712 33.3524L76.5973 17.8007L74.603 17.9512L75.7769 33.503L77.7712 33.3524ZM75.6754 18.8731L80.6732 18.4959L80.5226 16.5015L75.5249 16.8788L75.6754 18.8731ZM79.6007 17.574L80.7747 33.1257L82.769 32.9752L81.5951 17.4234L79.6007 17.574ZM81.8471 34.0476L88.1013 33.5755L87.9508 31.5812L81.6966 32.0533L81.8471 34.0476ZM89.0232 32.5031L87.8493 16.9513L85.855 17.1019L87.0289 32.6536L89.0232 32.5031ZM86.9274 18.0238L91.9252 17.6465L91.7746 15.6522L86.7768 16.0294L86.9274 18.0238ZM90.8527 16.7246L92.3386 36.4086L94.3329 36.2581L92.8471 16.5741L90.8527 16.7246ZM93.2605 35.3362L65.7308 37.4142L65.8813 39.4086L93.411 37.3305L93.2605 35.3362ZM96.9713 36.0589L95.9741 36.1342L96.0494 37.1313L97.0466 37.0561L96.9713 36.0589ZM95.4855 16.3749L95.4102 15.3777L94.413 15.453L94.4883 16.4502L95.4855 16.3749ZM100.26 16.0145L101.257 15.9392L101.182 14.9421L100.185 15.0173L100.26 16.0145ZM101.202 28.495L101.277 29.4922L102.274 29.4169L102.199 28.4197L101.202 28.495ZM100.476 28.5498L99.6484 27.9886L98.486 29.7029L100.551 29.547L100.476 28.5498ZM109.446 15.3211L109.37 14.3239L108.889 14.3603L108.618 14.7599L109.446 15.3211ZM113.215 15.0366L114.212 14.9613L114.137 13.9641L113.14 14.0394L113.215 15.0366ZM114.701 34.7206L114.776 35.7177L115.773 35.6425L115.698 34.6453L114.701 34.7206ZM109.926 35.081L108.929 35.1563L109.005 36.1534L110.002 36.0781L109.926 35.081ZM108.984 22.6005L108.909 21.6033L107.912 21.6786L107.987 22.6758L108.984 22.6005ZM109.71 22.5457L110.538 23.1069L111.7 21.3926L109.635 21.5485L109.71 22.5457ZM100.741 35.7744L100.816 36.7715L101.297 36.7352L101.568 36.3356L100.741 35.7744ZM97.9685 35.9836L96.4826 16.2996L94.4883 16.4502L95.9741 36.1342L97.9685 35.9836ZM95.5607 17.3721L100.335 17.0117L100.185 15.0173L95.4102 15.3777L95.5607 17.3721ZM99.2627 16.0898L100.205 28.5703L102.199 28.4197L101.257 15.9392L99.2627 16.0898ZM101.127 27.4978L100.401 27.5526L100.551 29.547L101.277 29.4922L101.127 27.4978ZM101.304 29.111L110.273 15.8823L108.618 14.7599L99.6484 27.9886L101.304 29.111ZM109.521 16.3183L113.29 16.0337L113.14 14.0394L109.37 14.3239L109.521 16.3183ZM112.218 15.1119L113.704 34.7959L115.698 34.6453L114.212 14.9613L112.218 15.1119ZM114.626 33.7234L109.851 34.0838L110.002 36.0781L114.776 35.7177L114.626 33.7234ZM110.924 35.0057L109.982 22.5252L107.987 22.6758L108.929 35.1563L110.924 35.0057ZM109.06 23.5977L109.786 23.5429L109.635 21.5485L108.909 21.6033L109.06 23.5977ZM108.883 21.9845L99.9129 35.2132L101.568 36.3356L110.538 23.1069L108.883 21.9845ZM100.665 34.7772L96.896 35.0617L97.0466 37.0561L100.816 36.7715L100.665 34.7772ZM118.321 34.4473L117.324 34.5226L117.399 35.5198L118.396 35.4445L118.321 34.4473ZM116.835 14.7633L116.76 13.7662L115.762 13.8414L115.838 14.8386L116.835 14.7633ZM130.963 13.6969L131.96 13.6216L131.885 12.6245L130.887 12.6997L130.963 13.6969ZM131.26 17.6337L131.335 18.6309L132.332 18.5556L132.257 17.5584L131.26 17.6337ZM122.074 18.3271L121.999 17.3299L121.002 17.4052L121.077 18.4024L122.074 18.3271ZM122.359 22.0964L121.361 22.1716L121.437 23.1688L122.434 23.0935L122.359 22.0964ZM130.874 21.4536L131.871 21.3783L131.796 20.3811L130.799 20.4564L130.874 21.4536ZM131.174 25.4183L131.249 26.4154L132.246 26.3402L132.171 25.343L131.174 25.4183ZM122.658 26.0611L122.583 25.0639L121.585 25.1392L121.661 26.1364L122.658 26.0611ZM122.963 30.1096L121.966 30.1848L122.041 31.182L123.039 31.1067L122.963 30.1096ZM132.149 29.4162L133.146 29.3409L133.071 28.3437L132.074 28.419L132.149 29.4162ZM132.449 33.3809L132.524 34.3781L133.521 34.3028L133.446 33.3056L132.449 33.3809ZM119.318 34.3721L117.832 14.6881L115.838 14.8386L117.324 34.5226L119.318 34.3721ZM116.91 15.7605L131.038 14.6941L130.887 12.6997L116.76 13.7662L116.91 15.7605ZM129.966 13.7722L130.263 17.709L132.257 17.5584L131.96 13.6216L129.966 13.7722ZM131.185 16.6365L121.999 17.3299L122.149 19.3243L131.335 18.6309L131.185 16.6365ZM121.077 18.4024L121.361 22.1716L123.356 22.0211L123.071 18.2518L121.077 18.4024ZM122.434 23.0935L130.95 22.4507L130.799 20.4564L122.283 21.0992L122.434 23.0935ZM129.877 21.5288L130.176 25.4936L132.171 25.343L131.871 21.3783L129.877 21.5288ZM131.098 24.4211L122.583 25.0639L122.733 27.0583L131.249 26.4154L131.098 24.4211ZM121.661 26.1364L121.966 30.1848L123.961 30.0343L123.655 25.9858L121.661 26.1364ZM123.039 31.1067L132.225 30.4133L132.074 28.419L122.888 29.1124L123.039 31.1067ZM131.152 29.4915L131.451 33.4562L133.446 33.3056L133.146 29.3409L131.152 29.4915ZM132.373 32.3837L118.245 33.4502L118.396 35.4445L132.524 34.3781L132.373 32.3837ZM143.215 32.5682L142.218 32.6435L142.293 33.6406L143.29 33.5654L143.215 32.5682ZM141.729 12.8842L141.654 11.887L140.656 11.9623L140.732 12.9595L141.729 12.8842ZM146.838 12.4985L147.836 12.4233L147.76 11.4261L146.763 11.5014L146.838 12.4985ZM147.435 20.4L146.438 20.4753L146.513 21.4725L147.51 21.3972L147.435 20.4ZM150.004 20.2061L150.606 21.0042L153.323 18.9527L149.928 19.209L150.004 20.2061ZM149.26 20.7677L148.373 20.3054L149.862 21.5658L149.26 20.7677ZM153.846 11.9695L153.771 10.9724L153.217 11.0142L152.96 11.5072L153.846 11.9695ZM159.431 11.548L160.304 12.0343L161.208 10.411L159.355 10.5508L159.431 11.548ZM153.917 21.4551L153.432 22.3297L154.305 22.8139L154.79 21.9415L153.917 21.4551ZM151.777 20.2688L151.876 19.2737L151.292 21.1434L151.777 20.2688ZM155.263 21.4377L154.695 22.2605L154.704 22.2671L154.714 22.2735L155.263 21.4377ZM157.776 24.2245L156.915 24.7328L156.918 24.7378L157.776 24.2245ZM161.922 31.1561L161.997 32.1533L163.61 32.0315L162.78 30.6429L161.922 31.1561ZM156.365 31.5755L155.493 32.064L155.804 32.6207L156.441 32.5727L156.365 31.5755ZM153.379 26.2412L154.252 25.7527L154.247 25.7445L154.243 25.7363L153.379 26.2412ZM151.889 24.725L151.413 25.6045L151.431 25.6143L151.45 25.6234L151.889 24.725ZM147.747 24.5323L147.671 23.5351L146.674 23.6104L146.75 24.6076L147.747 24.5323ZM148.324 32.1825L148.399 33.1797L149.397 33.1044L149.321 32.1073L148.324 32.1825ZM144.212 32.4929L142.726 12.8089L140.732 12.9595L142.218 32.6435L144.212 32.4929ZM141.804 13.8814L146.914 13.4957L146.763 11.5014L141.654 11.887L141.804 13.8814ZM145.841 12.5738L146.438 20.4753L148.432 20.3248L147.836 12.4233L145.841 12.5738ZM147.51 21.3972L150.079 21.2033L149.928 19.209L147.36 19.4029L147.51 21.3972ZM149.401 19.4081L148.657 19.9696L149.862 21.5658L150.606 21.0042L149.401 19.4081ZM150.146 21.23L154.733 12.4318L152.96 11.5072L148.373 20.3054L150.146 21.23ZM153.922 12.9667L159.506 12.5452L159.355 10.5508L153.771 10.9724L153.922 12.9667ZM158.557 11.0617L153.043 20.9688L154.79 21.9415L160.304 12.0343L158.557 11.0617ZM154.402 20.5806L152.262 19.3943L151.292 21.1434L153.432 22.3297L154.402 20.5806ZM151.679 21.264C152.946 21.3893 153.936 21.7363 154.695 22.2605L155.832 20.615C154.734 19.8566 153.4 19.4244 151.876 19.2737L151.679 21.264ZM154.714 22.2735C155.502 22.7914 156.242 23.5934 156.915 24.7328L158.637 23.7162C157.85 22.3825 156.915 21.3266 155.812 20.602L154.714 22.2735ZM156.918 24.7378L161.063 31.6694L162.78 30.6429L158.634 23.7112L156.918 24.7378ZM161.846 30.159L156.29 30.5784L156.441 32.5727L161.997 32.1533L161.846 30.159ZM157.238 31.0871L154.252 25.7527L152.507 26.7296L155.493 32.064L157.238 31.0871ZM154.243 25.7363C153.748 24.8903 153.122 24.2148 152.328 23.8267L151.45 25.6234C151.783 25.7866 152.151 26.1219 152.516 26.746L154.243 25.7363ZM152.365 23.8455C151.594 23.4283 150.672 23.3086 149.682 23.3834L149.832 25.3777C150.591 25.3204 151.091 25.4304 151.413 25.6045L152.365 23.8455ZM149.682 23.3834L147.671 23.5351L147.822 25.5295L149.832 25.3777L149.682 23.3834ZM146.75 24.6076L147.327 32.2578L149.321 32.1073L148.744 24.457L146.75 24.6076ZM148.249 31.1854L143.139 31.5711L143.29 33.5654L148.399 33.1797L148.249 31.1854ZM160.854 31.2367L159.919 30.8822L159.361 32.3523L160.929 32.2339L160.854 31.2367ZM168.582 10.8572L168.506 9.86008L167.872 9.90795L167.646 10.5027L168.582 10.8572ZM172.77 10.5411L173.64 10.0482L173.327 9.49619L172.694 9.54394L172.77 10.5411ZM183.525 29.5254L183.6 30.5225L185.172 30.4039L184.395 29.0325L183.525 29.5254ZM178.36 29.9153L177.477 30.3844L177.783 30.9617L178.435 30.9125L178.36 29.9153ZM175.578 24.6778L176.098 23.8241L172.983 21.9242L174.695 25.147L175.578 24.6778ZM177.667 25.9522L177.743 26.9493L180.84 26.7155L178.188 25.0984L177.667 25.9522ZM166.108 26.8247L165.46 26.0631L163.122 28.053L166.184 27.8219L166.108 26.8247ZM167.955 25.2532L168.9 25.5804L170.1 22.1156L167.307 24.4916L167.955 25.2532ZM166.019 30.8468L166.094 31.844L166.749 31.7946L166.964 31.174L166.019 30.8468ZM171.048 16.0062L170.973 15.009L170.31 15.0591L170.099 15.69L171.048 16.0062ZM168.369 24.0426L167.551 24.6176L168.691 26.2396L169.318 24.3588L168.369 24.0426ZM167.489 22.7894L167.413 21.7922L165.659 21.9247L166.67 23.3644L167.489 22.7894ZM175.669 22.1718L176.585 22.5737L177.254 21.0494L175.594 21.1747L175.669 22.1718ZM175.07 23.5368L174.181 23.9945L175.142 25.8613L175.986 23.9386L175.07 23.5368ZM171.188 15.9957L172.077 15.5379L171.773 14.9486L171.112 14.9985L171.188 15.9957ZM161.789 31.5913L169.517 11.2118L167.646 10.5027L159.919 30.8822L161.789 31.5913ZM168.657 11.8544L172.845 11.5383L172.694 9.54394L168.506 9.86008L168.657 11.8544ZM171.9 11.034L182.655 30.0183L184.395 29.0325L173.64 10.0482L171.9 11.034ZM183.45 28.5282L178.284 28.9181L178.435 30.9125L183.6 30.5225L183.45 28.5282ZM179.243 29.4462L176.461 24.2087L174.695 25.147L177.477 30.3844L179.243 29.4462ZM175.057 25.5316L177.147 26.8059L178.188 25.0984L176.098 23.8241L175.057 25.5316ZM177.592 24.955L166.033 25.8275L166.184 27.8219L177.743 26.9493L177.592 24.955ZM166.756 27.5863L168.603 26.0148L167.307 24.4916L165.46 26.0631L166.756 27.5863ZM167.01 24.9261L165.074 30.5197L166.964 31.174L168.9 25.5804L167.01 24.9261ZM165.944 29.8497L160.778 30.2396L160.929 32.2339L166.094 31.844L165.944 29.8497ZM170.099 15.69L167.421 23.7264L169.318 24.3588L171.997 16.3224L170.099 15.69ZM169.188 23.4676L168.307 22.2143L166.67 23.3644L167.551 24.6176L169.188 23.4676ZM167.564 23.7865L175.745 23.169L175.594 21.1747L167.413 21.7922L167.564 23.7865ZM174.754 21.77L174.155 23.135L175.986 23.9386L176.585 22.5737L174.754 21.77ZM175.959 23.079L172.077 15.5379L170.299 16.4534L174.181 23.9945L175.959 23.079ZM171.112 14.9985L170.973 15.009L171.123 17.0034L171.263 16.9928L171.112 14.9985ZM195.652 28.61L194.655 28.6853L194.73 29.6824L195.727 29.6072L195.652 28.61ZM195.127 21.6578L196.124 21.5825L196.016 20.1436L194.706 20.7505L195.127 21.6578ZM193.428 22.2073L193.198 21.234L193.194 21.235L193.428 22.2073ZM184.908 20.9409L184.276 21.716L184.281 21.7201L184.908 20.9409ZM181.853 9.85545L181.778 8.85828L180.781 8.93355L180.856 9.93072L181.853 9.85545ZM186.962 9.46976L187.96 9.39449L187.884 8.39732L186.887 8.4726L186.962 9.46976ZM188.549 17.465L187.876 18.205L187.886 18.2143L187.897 18.2234L188.549 17.465ZM193.249 17.9807L193.016 17.0082L193.011 17.0095L193.249 17.9807ZM194.809 17.4418L195.237 18.3455L195.858 18.0514L195.806 17.3665L194.809 17.4418ZM194.166 8.926L194.091 7.92884L193.093 8.00411L193.169 9.00127L194.166 8.926ZM199.275 8.54031L200.273 8.46504L200.197 7.46788L199.2 7.54315L199.275 8.54031ZM200.761 28.2243L200.836 29.2215L201.834 29.1462L201.758 28.149L200.761 28.2243ZM196.649 28.5347L196.124 21.5825L194.13 21.7331L194.655 28.6853L196.649 28.5347ZM194.706 20.7505C194.356 20.9131 193.86 21.0776 193.198 21.234L193.657 23.1805C194.393 23.0068 195.03 22.8049 195.548 22.565L194.706 20.7505ZM193.194 21.235C192.566 21.386 191.925 21.4863 191.271 21.5357L191.421 23.53C192.181 23.4726 192.928 23.3559 193.661 23.1795L193.194 21.235ZM191.271 21.5357C188.716 21.7285 186.851 21.2203 185.535 20.1617L184.281 21.7201C186.114 23.1944 188.541 23.7475 191.421 23.53L191.271 21.5357ZM185.54 20.1659C184.252 19.1158 183.421 17.3468 183.217 14.6384L181.222 14.7889C181.451 17.8135 182.412 20.196 184.276 21.7159L185.54 20.1659ZM183.217 14.6384L182.85 9.78018L180.856 9.93072L181.222 14.7889L183.217 14.6384ZM181.928 10.8526L187.038 10.4669L186.887 8.4726L181.778 8.85828L181.928 10.8526ZM185.965 9.54503L186.319 14.2357L188.314 14.0851L187.96 9.39449L185.965 9.54503ZM186.319 14.2357C186.445 15.8982 186.893 17.3112 187.876 18.205L189.221 16.7251C188.798 16.3398 188.424 15.5497 188.314 14.0851L186.319 14.2357ZM187.897 18.2234C188.892 19.0789 190.235 19.3514 191.743 19.2376L191.593 17.2433C190.383 17.3346 189.647 17.0902 189.201 16.7067L187.897 18.2234ZM191.743 19.2376C192.307 19.1951 192.889 19.0987 193.487 18.9519L193.011 17.0095C192.506 17.1332 192.034 17.21 191.593 17.2433L191.743 19.2376ZM193.482 18.9532C194.111 18.8024 194.697 18.6012 195.237 18.3455L194.381 16.5381C193.98 16.7277 193.527 16.8858 193.016 17.0083L193.482 18.9532ZM195.806 17.3665L195.163 8.85073L193.169 9.00127L193.812 17.517L195.806 17.3665ZM194.241 9.92316L199.351 9.53748L199.2 7.54315L194.091 7.92884L194.241 9.92316ZM198.278 8.61558L199.764 28.2996L201.758 28.149L200.273 8.46504L198.278 8.61558ZM200.686 27.2272L195.576 27.6128L195.727 29.6072L200.836 29.2215L200.686 27.2272ZM204.4 27.9496L203.403 28.0249L203.478 29.0221L204.475 28.9468L204.4 27.9496ZM202.914 8.26564L202.839 7.26847L201.842 7.34374L201.917 8.34091L202.914 8.26564ZM217.042 7.1992L218.039 7.12393L217.964 6.12676L216.967 6.20203L217.042 7.1992ZM217.339 11.136L217.414 12.1332L218.412 12.0579L218.336 11.0607L217.339 11.136ZM208.153 11.8294L208.078 10.8322L207.081 10.9075L207.156 11.9047L208.153 11.8294ZM208.438 15.5987L207.441 15.6739L207.516 16.6711L208.513 16.5958L208.438 15.5987ZM216.954 14.9559L217.951 14.8806L217.876 13.8834L216.878 13.9587L216.954 14.9559ZM217.253 18.9206L217.328 19.9177L218.325 19.8425L218.25 18.8453L217.253 18.9206ZM208.737 19.5634L208.662 18.5662L207.665 18.6415L207.74 19.6387L208.737 19.5634ZM209.043 23.6119L208.046 23.6871L208.121 24.6843L209.118 24.609L209.043 23.6119ZM218.229 22.9185L219.226 22.8432L219.15 21.846L218.153 21.9213L218.229 22.9185ZM218.528 26.8832L218.603 27.8804L219.6 27.8051L219.525 26.8079L218.528 26.8832ZM205.397 27.8744L203.911 8.19036L201.917 8.34091L203.403 28.0249L205.397 27.8744ZM202.989 9.2628L217.117 8.19636L216.967 6.20203L202.839 7.26847L202.989 9.2628ZM216.045 7.27447L216.342 11.2113L218.336 11.0607L218.039 7.12393L216.045 7.27447ZM217.264 10.1388L208.078 10.8322L208.229 12.8266L217.414 12.1332L217.264 10.1388ZM207.156 11.9047L207.441 15.6739L209.435 15.5234L209.15 11.7541L207.156 11.9047ZM208.513 16.5958L217.029 15.953L216.878 13.9587L208.363 14.6015L208.513 16.5958ZM215.956 15.0311L216.256 18.9958L218.25 18.8453L217.951 14.8806L215.956 15.0311ZM217.178 17.9234L208.662 18.5662L208.812 20.5606L217.328 19.9177L217.178 17.9234ZM207.74 19.6387L208.046 23.6871L210.04 23.5366L209.734 19.4881L207.74 19.6387ZM209.118 24.609L218.304 23.9156L218.153 21.9213L208.967 22.6147L209.118 24.609ZM217.231 22.9937L217.531 26.9585L219.525 26.8079L219.226 22.8432L217.231 22.9937ZM218.453 25.886L204.325 26.9525L204.475 28.9468L218.603 27.8804L218.453 25.886ZM225.534 25.3996L225.125 26.3121L225.129 26.3142L225.534 25.3996ZM221.664 22.1256L220.826 22.6714L220.832 22.6791L221.664 22.1256ZM220.857 11.432L219.951 11.0098L219.949 11.0136L220.857 11.432ZM224.191 7.61424L223.654 6.7708L223.65 6.7735L224.191 7.61424ZM233.408 6.21651L233.164 7.1863L233.172 7.18814L233.179 7.18987L233.408 6.21651ZM236.344 7.53927L237.303 7.82254L237.5 7.15739L236.946 6.7403L236.344 7.53927ZM235.114 11.7037L234.594 12.5578L235.705 13.2342L236.073 11.9869L235.114 11.7037ZM232.644 10.5985L232.37 11.5602L232.385 11.5645L232.4 11.5683L232.644 10.5985ZM226.416 12.1637L225.633 11.542L225.632 11.5426L226.416 12.1637ZM227.053 20.5957L226.364 21.3209L226.371 21.3277L226.378 21.3343L227.053 20.5957ZM233.445 21.2083L233.839 22.1274L233.846 22.1244L233.853 22.1214L233.445 21.2083ZM235.719 19.7169L236.625 19.2928L236.073 18.1151L235.077 18.9505L235.719 19.7169ZM237.56 23.6494L238.275 24.3491L238.76 23.8535L238.466 23.2254L237.56 23.6494ZM234.858 25.4259L235.231 26.3538L235.238 26.351L235.245 26.348L234.858 25.4259ZM231.11 25.2395C229.1 25.3912 227.386 25.1256 225.938 24.4851L225.129 26.3142C226.935 27.1129 228.989 27.4053 231.26 27.2338L231.11 25.2395ZM225.943 24.4872C224.506 23.8431 223.364 22.8758 222.497 21.5721L220.832 22.6791C221.908 24.2988 223.345 25.5142 225.125 26.3121L225.943 24.4872ZM222.502 21.5799C221.656 20.2807 221.145 18.6938 221.001 16.7844L219.006 16.935C219.171 19.1206 219.767 21.0444 220.826 22.6713L222.502 21.5799ZM221.001 16.7844C220.856 14.8746 221.125 13.2405 221.765 11.8505L219.949 11.0136C219.142 12.7654 218.841 14.7497 219.006 16.935L221.001 16.7844ZM221.764 11.8542C222.425 10.4352 223.409 9.30743 224.733 8.45498L223.65 6.7735C222.01 7.82953 220.772 9.24693 219.951 11.0098L221.764 11.8542ZM224.729 8.45768C226.064 7.6071 227.718 7.0873 229.728 6.93557L229.577 4.94124C227.306 5.11268 225.319 5.7101 223.654 6.77081L224.729 8.45768ZM229.728 6.93557C230.996 6.83987 232.138 6.92824 233.164 7.1863L233.652 5.24671C232.388 4.92883 231.027 4.83181 229.577 4.94124L229.728 6.93557ZM233.179 7.18987C234.208 7.43232 235.055 7.82084 235.743 8.33825L236.946 6.7403C236.005 6.03273 234.895 5.53941 233.638 5.24315L233.179 7.18987ZM235.385 7.256L234.155 11.4204L236.073 11.9869L237.303 7.82254L235.385 7.256ZM235.634 10.8496C234.676 10.2659 233.758 9.84761 232.888 9.62868L232.4 11.5683C233.018 11.7237 233.747 12.0422 234.594 12.5578L235.634 10.8496ZM232.918 9.63677C232.057 9.39124 231.116 9.31786 230.11 9.39378L230.261 11.3881C231.079 11.3263 231.777 11.3913 232.37 11.5602L232.918 9.63677ZM230.11 9.39378C228.23 9.53568 226.685 10.2165 225.633 11.542L227.199 12.7853C227.823 12.0001 228.79 11.4991 230.261 11.3881L230.11 9.39378ZM225.632 11.5426C224.604 12.84 224.246 14.5505 224.395 16.5282L226.389 16.3777C226.263 14.7071 226.587 13.5581 227.2 12.7847L225.632 11.5426ZM224.395 16.5282C224.545 18.5228 225.157 20.1748 226.364 21.3209L227.741 19.8705C227.012 19.1784 226.517 18.0685 226.389 16.3777L224.395 16.5282ZM226.378 21.3343C227.617 22.4649 229.244 22.8932 231.118 22.7518L230.968 20.7575C229.491 20.8689 228.458 20.5247 227.727 19.8571L226.378 21.3343ZM231.118 22.7518C232.117 22.6764 233.029 22.4745 233.839 22.1274L233.051 20.2892C232.482 20.5328 231.793 20.6951 230.968 20.7575L231.118 22.7518ZM233.853 22.1214C234.668 21.7572 235.505 21.2015 236.361 20.4832L235.077 18.9505C234.314 19.59 233.634 20.0286 233.037 20.2952L233.853 22.1214ZM234.813 20.1409L236.655 24.0735L238.466 23.2254L236.625 19.2928L234.813 20.1409ZM236.846 22.9498C236.24 23.5683 235.457 24.0905 234.472 24.5037L235.245 26.348C236.437 25.848 237.455 25.186 238.275 24.3491L236.846 22.9498ZM234.485 24.4979C233.504 24.8922 232.382 25.1434 231.11 25.2395L231.26 27.2338C232.705 27.1247 234.032 26.8355 235.231 26.3538L234.485 24.4979ZM244.614 24.9141L243.617 24.9894L243.692 25.9865L244.689 25.9113L244.614 24.9141ZM243.442 9.39025L244.439 9.31498L244.364 8.31782L243.367 8.39309L243.442 9.39025ZM237.467 9.84127L236.47 9.91655L236.545 10.9137L237.542 10.8384L237.467 9.84127ZM237.153 5.68111L237.078 4.68395L236.081 4.75922L236.156 5.75638L237.153 5.68111ZM254.268 4.38916L255.266 4.31389L255.19 3.31673L254.193 3.392L254.268 4.38916ZM254.582 8.54932L254.658 9.54649L255.655 9.47122L255.58 8.47405L254.582 8.54932ZM248.607 9.00035L248.532 8.00318L247.535 8.07846L247.61 9.07562L248.607 9.00035ZM249.779 24.5242L249.855 25.5213L250.852 25.4461L250.776 24.4489L249.779 24.5242ZM245.611 24.8388L244.439 9.31498L242.445 9.46552L243.617 24.9894L245.611 24.8388ZM243.367 8.39309L237.392 8.84411L237.542 10.8384L243.517 10.3874L243.367 8.39309ZM238.464 9.766L238.15 5.60584L236.156 5.75638L236.47 9.91655L238.464 9.766ZM237.228 6.67827L254.344 5.38632L254.193 3.392L237.078 4.68395L237.228 6.67827ZM253.271 4.46443L253.585 8.6246L255.58 8.47405L255.266 4.31389L253.271 4.46443ZM254.507 7.55216L248.532 8.00318L248.683 9.99751L254.658 9.54649L254.507 7.55216ZM247.61 9.07562L248.782 24.5995L250.776 24.4489L249.605 8.92508L247.61 9.07562ZM249.704 23.527L244.539 23.9169L244.689 25.9113L249.855 25.5213L249.704 23.527ZM257.924 23.9094L256.926 23.9847L257.002 24.9818L257.999 24.9066L257.924 23.9094ZM256.438 4.22541L256.362 3.22825L255.365 3.30352L255.441 4.30068L256.438 4.22541ZM271.143 4.49125L270.591 5.3246L270.597 5.32876L271.143 4.49125ZM272.401 11.1074L271.589 10.5231L271.582 10.5342L272.401 11.1074ZM269.763 12.9912L268.766 13.0665L268.863 14.3486L270.082 13.9392L269.763 12.9912ZM269.73 12.5445L269.826 11.5492L268.643 11.4349L268.732 12.6198L269.73 12.5445ZM273.063 13.9215L272.367 14.6403L272.376 14.6484L272.384 14.6564L273.063 13.9215ZM272.861 21.2936L273.533 22.0339L273.54 22.0277L272.861 21.2936ZM262.581 19.7671L261.584 19.8424L261.659 20.8395L262.656 20.7643L262.581 19.7671ZM268.935 18.754L268.286 17.9933L268.278 17.9994L268.271 18.0056L268.935 18.754ZM268.686 15.4593L268.164 16.3126L268.172 16.3174L268.18 16.322L268.686 15.4593ZM262.254 15.4394L262.179 14.4422L261.182 14.5175L261.257 15.5147L262.254 15.4394ZM261.97 11.6701L260.973 11.7454L261.048 12.7426L262.045 12.6673L261.97 11.6701ZM267.739 10.7292L267.096 9.96393L267.088 9.9702L267.081 9.97661L267.739 10.7292ZM267.51 7.68584L266.972 8.52873L266.991 8.5412L267.011 8.55274L267.51 7.68584ZM261.664 7.62164L261.589 6.62448L260.592 6.69975L260.667 7.69692L261.664 7.62164ZM258.921 23.8341L257.435 4.15014L255.441 4.30068L256.926 23.9847L258.921 23.8341ZM256.513 5.22257L266.062 4.50178L265.911 2.50745L256.362 3.22825L256.513 5.22257ZM266.062 4.50178C268.138 4.34503 269.605 4.67048 270.591 5.32458L271.696 3.65793C270.199 2.66491 268.228 2.33261 265.911 2.50745L266.062 4.50178ZM270.597 5.32876C271.584 5.97264 272.118 6.87664 272.214 8.14507L274.208 7.99453C274.068 6.13586 273.223 4.65416 271.69 3.65374L270.597 5.32876ZM272.214 8.14507C272.284 9.08417 272.068 9.85887 271.589 10.5232L273.213 11.6915C273.988 10.6139 274.311 9.36354 274.208 7.99453L272.214 8.14507ZM271.582 10.5342C271.113 11.204 270.423 11.7149 269.445 12.0433L270.082 13.9392C271.404 13.4949 272.472 12.7499 273.22 11.6805L271.582 10.5342ZM270.76 12.916L270.727 12.4692L268.732 12.6198L268.766 13.0665L270.76 12.916ZM269.633 13.5399C270.883 13.6606 271.761 14.0539 272.367 14.6403L273.758 13.2028C272.749 12.2263 271.405 11.7016 269.826 11.5492L269.633 13.5399ZM272.384 14.6564C272.991 15.2158 273.368 16.0035 273.453 17.1213L275.447 16.9707C275.332 15.4453 274.785 14.15 273.741 13.1867L272.384 14.6564ZM273.453 17.1213C273.562 18.573 273.13 19.6824 272.182 20.5596L273.54 22.0277C274.972 20.7035 275.599 18.9811 275.447 16.9707L273.453 17.1213ZM272.189 20.5534C271.214 21.439 269.76 22.0131 267.704 22.1683L267.855 24.1626C270.192 23.9861 272.126 23.3124 273.533 22.0339L272.189 20.5534ZM267.704 22.1683L257.848 22.9122L257.999 24.9066L267.855 24.1626L267.704 22.1683ZM262.656 20.7643L266.9 20.4439L266.75 18.4496L262.506 18.7699L262.656 20.7643ZM266.9 20.4439C267.955 20.3643 268.919 20.1039 269.598 19.5023L268.271 18.0056C268.073 18.1816 267.63 18.3831 266.75 18.4496L266.9 20.4439ZM269.584 19.5147C270.343 18.867 270.607 17.9533 270.533 16.9766L268.539 17.1271C268.578 17.6395 268.441 17.8605 268.286 17.9933L269.584 19.5147ZM270.533 16.9766C270.459 15.9941 270.066 15.1092 269.192 14.5966L268.18 16.322C268.324 16.4065 268.498 16.5833 268.539 17.1271L270.533 16.9766ZM269.208 14.6061C268.452 14.1444 267.47 14.0428 266.423 14.1219L266.573 16.1162C267.462 16.0492 267.939 16.1744 268.164 16.3126L269.208 14.6061ZM266.423 14.1219L262.179 14.4422L262.33 16.4366L266.573 16.1162L266.423 14.1219ZM261.257 15.5147L261.584 19.8424L263.578 19.6918L263.251 15.3641L261.257 15.5147ZM262.045 12.6673L265.703 12.3912L265.552 10.3969L261.895 10.673L262.045 12.6673ZM265.703 12.3912C266.758 12.3115 267.73 12.0664 268.398 11.4817L267.081 9.97661C266.906 10.1295 266.47 10.3276 265.552 10.3969L265.703 12.3912ZM268.383 11.4944C269.12 10.8742 269.389 10.002 269.319 9.06559L267.324 9.21613C267.358 9.65714 267.238 9.84381 267.096 9.96393L268.383 11.4944ZM269.319 9.06559C269.248 8.13077 268.85 7.30328 268.008 6.81893L267.011 8.55274C267.147 8.63101 267.291 8.77353 267.324 9.21613L269.319 9.06559ZM268.048 6.84294C267.299 6.36525 266.302 6.26871 265.247 6.34839L265.397 8.34271C266.315 8.27346 266.776 8.40377 266.972 8.52873L268.048 6.84294ZM265.247 6.34839L261.589 6.62448L261.739 8.61881L265.397 8.34271L265.247 6.34839ZM260.667 7.69692L260.973 11.7454L262.967 11.5949L262.661 7.54637L260.667 7.69692ZM274.799 22.6356L273.864 22.281L273.306 23.7511L274.874 23.6327L274.799 22.6356ZM282.527 2.25607L282.452 1.25891L281.817 1.30678L281.592 1.9015L282.527 2.25607ZM286.715 1.93993L287.585 1.447L287.272 0.895016L286.64 0.942769L286.715 1.93993ZM297.47 20.9242L297.546 21.9214L299.117 21.8027L298.34 20.4313L297.47 20.9242ZM292.305 21.3141L291.422 21.7832L291.729 22.3605L292.38 22.3113L292.305 21.3141ZM289.523 16.0767L290.044 15.2229L286.928 13.3231L288.64 16.5458L289.523 16.0767ZM291.613 17.351L291.688 18.3481L294.786 18.1143L292.133 16.4972L291.613 17.351ZM280.054 18.2235L279.406 17.4619L277.067 19.4518L280.129 19.2207L280.054 18.2235ZM281.901 16.652L282.846 16.9792L284.045 13.5145L281.253 15.8904L281.901 16.652ZM279.964 22.2457L280.04 23.2428L280.694 23.1934L280.909 22.5728L279.964 22.2457ZM284.993 7.40502L284.918 6.40785L284.255 6.45791L284.045 7.0888L284.993 7.40502ZM282.315 15.4414L281.497 16.0165L282.637 17.6384L283.263 15.7577L282.315 15.4414ZM281.434 14.1882L281.359 13.191L279.604 13.3235L280.616 14.7632L281.434 14.1882ZM289.615 13.5707L290.53 13.9725L291.199 12.4482L289.539 12.5735L289.615 13.5707ZM289.016 14.9356L288.127 15.3934L289.088 17.2601L289.931 15.3374L289.016 14.9356ZM285.133 7.39448L286.022 6.93673L285.719 6.34742L285.058 6.39731L285.133 7.39448ZM275.734 22.9901L283.462 2.61063L281.592 1.9015L273.864 22.281L275.734 22.9901ZM282.602 3.25323L286.79 2.93709L286.64 0.942769L282.452 1.25891L282.602 3.25323ZM285.845 2.43287L296.6 21.4171L298.34 20.4313L287.585 1.447L285.845 2.43287ZM297.395 19.9271L292.23 20.317L292.38 22.3113L297.546 21.9214L297.395 19.9271ZM293.188 20.845L290.406 15.6076L288.64 16.5458L291.422 21.7832L293.188 20.845ZM289.002 16.9305L291.092 18.2048L292.133 16.4972L290.044 15.2229L289.002 16.9305ZM291.538 16.3538L279.978 17.2264L280.129 19.2207L291.688 18.3481L291.538 16.3538ZM280.702 18.9851L282.549 17.4137L281.253 15.8904L279.406 17.4619L280.702 18.9851ZM280.956 16.3249L279.019 21.9185L280.909 22.5728L282.846 16.9792L280.956 16.3249ZM279.889 21.2485L274.724 21.6384L274.874 23.6327L280.04 23.2428L279.889 21.2485ZM284.045 7.0888L281.366 15.1252L283.263 15.7577L285.942 7.72123L284.045 7.0888ZM283.133 14.8664L282.252 13.6132L280.616 14.7632L281.497 16.0165L283.133 14.8664ZM281.509 15.1854L289.69 14.5678L289.539 12.5735L281.359 13.191L281.509 15.1854ZM288.699 13.1688L288.1 14.5338L289.931 15.3374L290.53 13.9725L288.699 13.1688ZM289.905 14.4779L286.022 6.93673L284.244 7.85223L288.127 15.3934L289.905 14.4779ZM285.058 6.39731L284.918 6.40785L285.069 8.40218L285.208 8.39164L285.058 6.39731Z" fill="white"/>
</svg>
