<svg xmlns="http://www.w3.org/2000/svg" xmlns:xlink="http://www.w3.org/1999/xlink" width="0" height="0" style="position:absolute">
	
		<symbol id="icon_tg" viewBox="0 0 32 24">
			<path d="M2.156 10.317c9.847-3.903 22.59-8.661 24.349-9.32 4.614-1.723 6.03-1.393 5.324 2.424-.508 2.744-1.97 11.828-3.136 17.482-.692 3.354-2.244 3.75-4.684 2.3-1.174-.698-7.098-4.227-8.384-5.056-1.173-.755-2.792-1.664-.762-3.454a2607.6 2607.6 0 0 1 9.147-7.882c.483-.416-.124-1.1-.682-.766a4488.123 4488.123 0 0 0-12.745 7.632c-1.325.81-2.599 1.183-4.884.591-1.727-.447-3.413-.98-4.07-1.183-2.528-.782-1.928-1.795.527-2.768z" fill="#0F86D7"></path>
		</symbol>
	
		<symbol id="icon_vib" viewBox="0 0 37 40">
			<path d="M18.403 7.176c-.641 0-.641.999 0 1.007 4.972.038 9.068 3.504 9.113 9.862 0 .671.982.663.974-.008h-.002c-.053-6.85-4.525-10.823-10.085-10.861z" fill="#7360F2"></path><path d="M24.943 16.992c-.015.663.966.694.974.023.082-3.777-2.247-6.889-6.624-7.217-.641-.046-.708.961-.068 1.008 3.795.288 5.795 2.878 5.718 6.186zM23.895 21.289c-.823-.476-1.66-.18-2.006.288l-.724.937c-.368.476-1.056.413-1.056.413-5.018-1.327-6.36-6.578-6.36-6.578s-.061-.71.398-1.092l.906-.749c.453-.36.74-1.225.278-2.076-1.232-2.226-2.06-2.993-2.48-3.583-.443-.554-1.11-.679-1.802-.304h-.015c-1.44.842-3.017 2.419-2.512 4.042.86 1.711 2.442 7.167 7.483 11.289 2.37 1.95 6.118 3.947 7.71 4.408l.015.024c1.568.522 3.093-1.116 3.907-2.6v-.01c.362-.718.242-1.398-.286-1.842-.936-.912-2.347-1.92-3.456-2.567z" fill="#7360F2"></path><path d="M19.977 13.514c1.6.093 2.376.93 2.459 2.646.03.67 1.004.624.974-.047-.107-2.24-1.275-3.49-3.38-3.606-.64-.038-.7.969-.053 1.007z" fill="#7360F2"></path><path d="M36.603 23.151c1.192-10.034-.572-16.368-3.756-19.233l.002-.002c-5.137-4.893-22.488-5.617-28.635.22C1.454 6.99.482 11.18.375 16.369.27 21.559.142 31.279 9.2 33.916h.009L9.2 37.943s-.061 1.632.981 1.96c1.192.386 1.731-.372 5.439-4.8 6.2.538 10.961-.694 11.502-.874 1.252-.42 8.336-1.357 9.481-11.078zM16.231 32.27s-3.924 4.892-5.144 6.163c-.4.413-.838.374-.831-.445 0-.538.03-6.686.03-6.686-7.68-2.2-7.227-10.478-7.144-14.808.083-4.332.876-7.88 3.213-10.269C11.748 1.17 26.96 2.3 30.835 5.942c4.738 4.2 3.051 16.067 3.061 16.472-.974 8.114-6.714 8.628-7.77 8.98-.45.15-4.638 1.227-9.895.876z" fill="#7360F2"></path>
		</symbol>
	
		<symbol id="icon_vk" viewBox="0 0 36 18">
			<path fill-rule="evenodd" clip-rule="evenodd" d="M17.613 17.925h2.152s.65-.063.982-.376c.305-.288.296-.829.296-.829S21 14.19 22.34 13.817c1.32-.367 3.017 2.446 4.815 3.527 1.36.819 2.393.64 2.393.64l4.808-.06s2.515-.135 1.322-1.868c-.098-.142-.694-1.282-3.574-3.625-3.015-2.453-2.611-2.056 1.02-6.298 2.212-2.583 3.096-4.16 2.82-4.836-.264-.643-1.89-.473-1.89-.473l-5.413.03s-.402-.048-.7.107c-.29.153-.477.51-.477.51s-.857 1.999-2 3.699c-2.41 3.587-3.374 3.777-3.768 3.554-.916-.52-.688-2.086-.688-3.199 0-3.476.602-4.926-1.17-5.3-.59-.125-1.022-.208-2.527-.22-1.932-.018-3.566.004-4.492.402-.616.264-1.09.853-.802.887.358.042 1.168.191 1.598.704.555.661.535 2.147.535 2.147s.319 4.092-.744 4.6c-.73.35-1.73-.363-3.88-3.617-1.1-1.667-1.932-3.51-1.932-3.51s-.16-.344-.446-.528C6.802.866 6.317.795 6.317.795l-5.144.03S.401.844.118 1.138c-.253.262-.02.803-.02.803S4.124 10.2 8.683 14.36c4.181 3.815 8.93 3.565 8.93 3.565z" fill="#2787F5"></path>
		</symbol>
	
		<symbol id="icon_wats" viewBox="0 0 38 38">
			<path fill-rule="evenodd" clip-rule="evenodd" d="M32.464 5.522C28.89 1.963 24.14.002 19.08 0 8.65 0 .162 8.447.159 18.829a18.727 18.727 0 0 0 2.525 9.414L0 38l10.03-2.618a18.972 18.972 0 0 0 9.042 2.291h.008c10.428 0 18.916-8.447 18.92-18.83.002-5.03-1.964-9.762-5.536-13.32zM19.08 34.493h-.007a15.764 15.764 0 0 1-8.004-2.181l-.574-.34-5.952 1.554 1.589-5.775-.375-.592a15.557 15.557 0 0 1-2.404-8.33C3.357 10.202 10.412 3.18 19.086 3.18c4.2.002 8.149 1.632 11.118 4.59a15.52 15.52 0 0 1 4.602 11.073c-.004 8.63-7.058 15.65-15.726 15.65zm8.626-11.721c-.473-.236-2.797-1.374-3.231-1.531-.433-.157-.748-.235-1.063.236-.316.47-1.222 1.53-1.497 1.844-.276.314-.552.354-1.025.118-.473-.235-1.996-.733-3.802-2.335-1.405-1.248-2.354-2.789-2.63-3.26-.275-.47-.002-.7.208-.96.511-.632 1.024-1.295 1.181-1.61.158-.313.08-.588-.04-.823-.117-.236-1.063-2.552-1.456-3.494-.384-.917-.774-.793-1.064-.808-.276-.013-.591-.016-.906-.016-.315 0-.828.118-1.261.589-.433.47-1.654 1.609-1.654 3.925s1.694 4.553 1.93 4.867c.236.314 3.334 5.066 8.076 7.104a27.16 27.16 0 0 0 2.695.991c1.133.358 2.163.308 2.978.187.908-.135 2.797-1.139 3.19-2.237.395-1.1.395-2.041.276-2.238-.117-.196-.433-.314-.905-.55z" fill="#25D366"></path>
		</symbol>
	
</svg>
