<?xml version="1.0" encoding="utf-8"?><svg xmlns="http://www.w3.org/2000/svg" xmlns:xlink="http://www.w3.org/1999/xlink"><symbol fill="none" viewBox="0 0 16 16" id="arrow" xmlns="http://www.w3.org/2000/svg"><path d="M15.217 1.782a1 1 0 00-1-1h-9a1 1 0 100 2h8v8a1 1 0 102 0v-9zM1.49 15.926L14.925 2.49 13.51 1.075.075 14.51l1.415 1.415z" fill="#fff"/></symbol><symbol fill="none" viewBox="0 0 36 36" id="book" xmlns="http://www.w3.org/2000/svg"><path d="M4.793 6.293L5.5 7l-.707-.707zm0 18.914l-.707.707.707-.707zm11.355.521l.383-.924-.383.924zm1.624 1.624l-.924.383.924-.383zM13.5 26.5h-7v-2h7v2zm-10-3V8h2v15.5h-2zM6.5 5H12v2H6.5V5zM19 12v18h-2V12h2zm-7-7c1.386 0 2.526-.002 3.425.119.928.125 1.747.396 2.403 1.053l-1.414 1.414c-.222-.223-.55-.39-1.255-.485C14.424 7.002 13.443 7 12 7V5zm5 7c0-1.443-.002-2.424-.1-3.159-.096-.706-.263-1.033-.486-1.255l1.414-1.414c.657.656.928 1.475 1.053 2.403.121.899.119 2.04.119 3.425h-2zM3.5 8c0-.443-.002-.876.046-1.23.051-.384.177-.821.54-1.184L5.5 7c.07-.07.05-.125.028.036-.026.19-.028.464-.028.964h-2zm3-1c-.5 0-.774.002-.964.028-.161.021-.106.042-.036-.028L4.086 5.586c.363-.363.8-.489 1.183-.54C5.624 4.998 6.057 5 6.5 5v2zm0 19.5c-.443 0-.876.002-1.23-.046-.384-.051-.821-.177-1.184-.54L5.5 24.5c-.07-.07-.125-.05.036-.028.19.026.464.028.964.028v2zm-1-3c0 .5.002.774.028.964.021.162.042.106-.028.036l-1.414 1.414c-.363-.363-.489-.8-.54-1.184-.048-.354-.046-.787-.046-1.23h2zm8 1c.685 0 1.25 0 1.71.03.469.033.903.101 1.32.274l-.765 1.848c-.133-.055-.324-.1-.692-.126-.376-.026-.86-.026-1.573-.026v-2zM17 30c0-.713 0-1.197-.026-1.573-.025-.368-.07-.559-.126-.692l1.848-.766c.173.418.241.852.273 1.322C19 28.75 19 29.315 19 30h-2zm-.47-5.195a4 4 0 012.165 2.164l-1.847.766a2 2 0 00-1.083-1.083l.766-1.848z" fill="#fff"/><path d="M31.207 6.293L30.5 7l.707-.707zm0 18.914l.707.707-.707-.707zm-11.355.521l-.383-.924.383.924zm-1.624 1.624l.924.383-.924-.383zM22.5 26.5h7v-2h-7v2zm10-3V8h-2v15.5h2zM29.5 5H24v2h5.5V5zM17 12v18h2V12h-2zm7-7c-1.386 0-2.526-.002-3.425.119-.928.125-1.747.396-2.403 1.053l1.414 1.414c.222-.223.55-.39 1.255-.485C21.576 7.002 22.557 7 24 7V5zm-5 7c0-1.443.002-2.424.1-3.159.096-.706.263-1.033.486-1.255l-1.414-1.414c-.657.656-.928 1.475-1.053 2.403C16.998 9.474 17 10.615 17 12h2zm13.5-4c0-.443.002-.876-.045-1.23-.052-.384-.178-.821-.54-1.184L30.5 7c-.07-.07-.05-.125-.028.036.026.19.028.464.028.964h2zm-3-1c.5 0 .774.002.964.028.161.021.106.042.036-.028l1.414-1.414c-.363-.363-.8-.489-1.184-.54C30.377 4.998 29.944 5 29.5 5v2zm0 19.5c.443 0 .876.002 1.23-.046.384-.051.821-.177 1.184-.54L30.5 24.5c.07-.07.125-.05-.036-.028-.19.026-.464.028-.964.028v2zm1-3c0 .5-.002.774-.028.964-.021.162-.042.106.028.036l1.414 1.414c.363-.363.489-.8.54-1.184.048-.354.046-.787.046-1.23h-2zm-8 1c-.685 0-1.25 0-1.71.03-.469.033-.903.101-1.32.274l.765 1.848c.133-.055.324-.1.692-.126.376-.026.86-.026 1.573-.026v-2zM19 30c0-.713 0-1.197.026-1.573.025-.368.07-.559.126-.692l-1.848-.766c-.173.418-.241.852-.273 1.322C17 28.75 17 29.315 17 30h2zm.47-5.195a4 4 0 00-2.165 2.164l1.847.766a2 2 0 011.083-1.083l-.766-1.848z" fill="#fff"/></symbol><symbol fill="none" viewBox="0 0 36 36" id="carousel" xmlns="http://www.w3.org/2000/svg"><path d="M18 27a9 9 0 100-18 9 9 0 000 18z" stroke="#fff" stroke-width="2" stroke-linecap="round" stroke-linejoin="round"/><path d="M7.5 15a3 3 0 100-6 3 3 0 000 6zM18 9a3 3 0 100-6 3 3 0 000 6zm10.5 6a3 3 0 100-6 3 3 0 000 6zm-21 12a3 3 0 100-6 3 3 0 000 6zm21 0a3 3 0 100-6 3 3 0 000 6zM12 33l6-15 6 15" stroke="#fff" stroke-width="2" stroke-linecap="round" stroke-linejoin="round"/></symbol><symbol fill="none" viewBox="0 0 94 44" id="logo" xmlns="http://www.w3.org/2000/svg"><path d="M47.796 3.8h6.854L59.894 36h-5.06l-.92-6.394v.092h-5.75L47.244 36h-4.692l5.244-32.2zm5.52 21.528L51.062 9.412h-.092l-2.208 15.916h4.554zM60.969 3.8h7.728c2.515 0 4.4.675 5.658 2.024 1.257 1.35 1.886 3.327 1.886 5.934v16.284c0 2.607-.629 4.585-1.886 5.934C73.098 35.326 71.212 36 68.697 36h-7.728V3.8zm7.636 27.6c.828 0 1.457-.245 1.886-.736.46-.49.69-1.288.69-2.392V11.528c0-1.104-.23-1.901-.69-2.392-.43-.49-1.058-.736-1.886-.736h-2.576v23h2.576zm16.25 5.06c-2.454 0-4.31-.69-5.567-2.07-1.257-1.41-1.886-3.42-1.886-6.026v-1.84h4.784v2.208c0 2.085.874 3.128 2.622 3.128.86 0 1.503-.245 1.932-.736.46-.521.69-1.35.69-2.484 0-1.35-.306-2.53-.92-3.542-.613-1.043-1.748-2.285-3.404-3.726-2.085-1.84-3.542-3.496-4.37-4.968-.828-1.503-1.242-3.19-1.242-5.06 0-2.545.644-4.508 1.932-5.888 1.288-1.41 3.16-2.116 5.612-2.116 2.423 0 4.248.705 5.474 2.116 1.258 1.38 1.886 3.373 1.886 5.98v1.334h-4.784v-1.656c0-1.104-.214-1.901-.644-2.392-.429-.521-1.058-.782-1.886-.782-1.686 0-2.53 1.027-2.53 3.082 0 1.165.307 2.254.92 3.266.644 1.012 1.794 2.239 3.45 3.68 2.116 1.84 3.573 3.511 4.37 5.014.798 1.503 1.196 3.266 1.196 5.29 0 2.637-.659 4.661-1.978 6.072-1.288 1.41-3.174 2.116-5.658 2.116z" fill="#334155"/><path d="M21.896 3.849l-4.757 25.536C16.597 32.3 17.622 35 20.504 35c2.2 0 5.234-1.606 5.65-3.829l4.791-25.53C31.493 2.716 27.813 0 24.918 0c-2.21 0-2.606 1.615-3.022 3.849zm-16.998 9L.139 38.386C-.403 41.299.623 44 3.505 44c2.2 0 5.232-1.606 5.65-3.829l4.79-25.53C14.495 11.716 10.813 9 7.919 9c-2.21 0-2.605 1.615-3.021 3.849z" fill="#48B798"/></symbol><symbol fill="none" viewBox="0 0 190 95" id="logo-white" xmlns="http://www.w3.org/2000/svg"><path d="M95.812 22.957h9.238l7.068 43.4h-6.82l-1.24-8.618v.124h-7.75l-1.24 8.494h-6.324l7.068-43.4zm7.44 29.016l-3.038-21.452h-.124l-2.976 21.452h6.138zm10.315-29.016h10.416c3.389 0 5.931.91 7.626 2.728 1.694 1.82 2.542 4.485 2.542 7.998v21.948c0 3.514-.848 6.18-2.542 7.998-1.695 1.82-4.237 2.728-7.626 2.728h-10.416v-43.4zm10.292 37.2c1.116 0 1.963-.33 2.542-.992.62-.66.93-1.736.93-3.224V33.373c0-1.488-.31-2.562-.93-3.224-.579-.66-1.426-.992-2.542-.992h-3.472v31h3.472zm21.901 6.82c-3.306 0-5.807-.93-7.502-2.79-1.694-1.9-2.542-4.608-2.542-8.122v-2.48h6.448v2.976c0 2.811 1.178 4.216 3.534 4.216 1.158 0 2.026-.33 2.604-.992.62-.702.93-1.818.93-3.348 0-1.818-.413-3.41-1.24-4.774-.826-1.405-2.356-3.079-4.588-5.022-2.81-2.48-4.774-4.712-5.89-6.696-1.116-2.025-1.674-4.298-1.674-6.82 0-3.43.868-6.076 2.604-7.936 1.736-1.9 4.258-2.852 7.564-2.852 3.266 0 5.725.951 7.378 2.852 1.695 1.86 2.542 4.547 2.542 8.06v1.798h-6.448v-2.232c0-1.488-.289-2.562-.868-3.224-.578-.702-1.426-1.054-2.542-1.054-2.273 0-3.41 1.385-3.41 4.154a8.35 8.35 0 001.24 4.402c.868 1.364 2.418 3.018 4.65 4.96 2.852 2.48 4.816 4.733 5.89 6.758 1.075 2.026 1.612 4.402 1.612 7.13 0 3.555-.888 6.283-2.666 8.184-1.736 1.902-4.278 2.852-7.626 2.852z" fill="#fff"/><path d="M60.716 22.866L54.26 57.523c-.735 3.954.656 7.62 4.567 7.62 2.986 0 7.103-2.18 7.667-5.196l6.503-34.648c.744-3.971-4.25-7.656-8.18-7.656-2.998 0-3.536 2.191-4.1 5.223zM37.647 35.081l-6.458 34.657c-.736 3.953.656 7.62 4.568 7.62 2.985 0 7.101-2.18 7.668-5.197l6.5-34.647c.746-3.971-4.25-7.657-8.177-7.657-3 0-3.537 2.192-4.101 5.224z" fill="#48B798"/></symbol><symbol fill="none" viewBox="0 0 36 36" id="search" xmlns="http://www.w3.org/2000/svg"><circle cx="16.5" cy="16.5" r="10.5" stroke="#fff" stroke-width="2"/><path d="M30 30l-4.5-4.5" stroke="#fff" stroke-width="2" stroke-linecap="round"/></symbol></svg>