<svg xmlns="http://www.w3.org/2000/svg" width="413.511" height="334.377" viewBox="0 0 387.666 313.478"><path d="M78.934 309.402c-1.956-1.957-1.93-5.372.054-6.933.859-.677 4.23-1.578 7.492-2.003 12.383-1.614 23.366-9.967 28.938-22.01 2.269-4.902 2.63-8.019 2.616-22.563-.018-18.766-.973-22.303-8.265-30.616-2.32-2.645-7.313-6.78-11.094-9.187-14.696-9.358-27.072-25.735-32.69-43.256l-2.935-9.157-6.875-2.148c-19.624-6.13-38.019-21.966-47.2-40.636C-2.54 97.48-2.986 72.45 7.7 49.215 17.857 27.127 39.176 9.575 62.535 4.07c10.298-2.427 28.265-2.418 38.64.02 22.383 5.26 43.023 21.631 53.503 42.438 4.12 8.181 7.747 19.401 7.747 23.968 0 1.667.752 2.898 1.771 2.898 1.184 0 4.22-7.356 9.159-22.188l7.388-22.187 24.143-13.438c13.278-7.39 25.432-13.437 27.007-13.437 3.288 0 5.247 4.207 3.14 6.745-.742.894-11.38 7.195-23.64 14.001l-22.29 12.377-6.046 17.5a9556.917 9556.917 0 01-6.598 19.064c-.396 1.123 1.333 1.568 6.145 1.582 3.683.01 7.383.455 8.222.989 5.186 3.295 14.03 47.889 14.076 70.98.059 29.101-13.836 55.476-37.408 71.005-15.494 10.208-18.819 17.207-18.819 39.617 0 18.39 2.352 25.782 10.88 34.189 6.16 6.073 16.274 10.7 23.389 10.7 4.85 0 7.526 2.565 6.395 6.127-1.097 3.458-4.078 4.108-11.996 2.618-14.03-2.641-27.192-12.3-33.434-24.535-6.131-12.02-7.004-40.483-1.661-54.21 1.472-3.78 2.676-7.015 2.676-7.187 0-.171-1.899-.312-4.22-.312-2.328 0-4.96-.889-5.866-1.98-2.955-3.561.223-5.929 10.826-8.066 13.42-2.704 18.076-4.95 26.342-12.708 13.252-12.437 21.506-29.46 23.357-48.168.911-9.217 1.225-8.903-15.988-15.986-15.633-6.432-21.973-5.956-43.2 3.24-15.128 6.554-15.983 6.768-26.875 6.734-10.485-.033-12.05-.393-23.028-5.3-6.478-2.897-12.525-5.266-13.437-5.266-1.239 0-1.655 2.46-1.641 9.687.043 22.82 10.123 44.963 26.284 57.737 6.104 4.825 12.048 7.532 22.135 10.08 4.17 1.054 5.312 1.916 5.312 4.008 0 1.466-.84 3.595-1.868 4.73-1.668 1.843-1.567 2.66.937 7.6 2.571 5.07 2.806 7.26 2.806 26.158 0 19.684-.15 20.939-3.282 27.5-5.033 10.544-11.253 16.842-21.473 21.745-9.88 4.74-20.649 6.726-23.111 4.264zm-17.759-163.51c0-6.715-.267-7.5-2.55-7.5-3.213 0-12.15-4.44-16.01-7.953-3.358-3.058-7.69-10.954-7.69-14.018 0-1.139-2.228-4.233-4.95-6.875-8.856-8.594-11.139-24.24-5.044-34.57 1.623-2.749 2.498-6.495 2.506-10.717.009-4.932.925-8.084 3.814-13.122 4.16-7.254 13.109-13.988 18.606-14.002 2.196-.005 3.824-1.117 5.211-3.557 4.921-8.652 24.27-12.493 33.991-6.748 3.262 1.928 6.8 2.821 11.25 2.84 3.572.015 8.74 1.055 11.491 2.312 6.865 3.135 15.254 12.536 16.337 18.307.549 2.928 2.428 6.06 5.13 8.55 2.344 2.16 5.028 6.179 5.963 8.929 1.657 4.871 1.864 5.01 8.073 5.378 4.114.244 6.372-.121 6.372-1.03 0-.774-1.406-5.595-3.124-10.713-5.227-15.572-13.665-27.2-26.256-36.185-26.08-18.61-58.89-18.625-84.937-.038-13.08 9.334-23.445 24.499-27.572 40.342-2.364 9.076-2.372 27.713-.017 36.564 5.666 21.29 22.077 40.26 41.876 48.407 3.798 1.562 7.046 2.854 7.218 2.87.171.017.312-3.345.312-7.47zm75.443-16.711c15.445-6.672 16.439-6.928 25.625-6.582 7.606.287 11.835 1.296 20.713 4.942 6.136 2.52 11.362 4.376 11.613 4.124.788-.787-3.36-24.62-6.335-36.397l-2.841-11.25-51.9-.326-51.9-.326-1.993 7.2c-1.095 3.961-2.904 11.983-4.02 17.827-1.114 5.844-2.293 11.897-2.618 13.452-.444 2.123.194 3.185 2.566 4.265 1.737.792 3.349 1.207 3.583.923.233-.283 1.645-7.107 3.136-15.165 3.52-19.02 4.295-20.975 8.311-20.975 1.824 0 3.537.89 3.992 2.075.438 1.14-.391 8.031-1.842 15.312-1.451 7.28-2.988 15.547-3.415 18.368l-.776 5.13 7.266 2.632c13.632 4.936 18.85 4.268 40.835-5.23zm17.37-10.366c-2.67-1.077-1.905-7.645.997-8.566 4.768-1.513 8.245 4.34 4.69 7.894-1.563 1.563-3.046 1.738-5.687.672zm4.165-13.317c-4.455-3.258.538-10.531 5.21-7.59 2.981 1.878 3.347 4.772.91 7.208-2.454 2.455-3.22 2.502-6.12.382zm4.33-12.661c-.825-.994-1.316-3.103-1.091-4.688.322-2.277 1.194-2.881 4.158-2.881 2.964 0 3.836.604 4.159 2.881.447 3.157-1.69 6.494-4.159 6.494-.863 0-2.243-.813-3.068-1.806zm-99.371 30.868c.461-3.265 1.565-9.875 2.453-14.687.887-4.813 1.405-8.966 1.152-9.23-.516-.539-16.964 9.206-20.85 12.352-2.33 1.887-2.37 2.28-.6 5.705 2.209 4.272 5.038 6.945 10.283 9.716 5.751 3.04 6.651 2.58 7.562-3.856zM56.43 93.96c7.067-4.316 11.501-7.743 10.625-8.212-.828-.443-8.463-2.389-16.968-4.324-15.059-3.426-15.509-3.456-17.188-1.16-2.228 3.047-2.21 12.046.034 17.417 2.27 5.432 5.509 7.35 8.867 5.25 1.375-.86 7.958-4.897 14.63-8.97zm5.73-32.441c-6.99-11.344-9.442-14.375-11.628-14.375-7.714 0-18.317 17.29-12.794 20.864 1.923 1.244 26.777 7.545 30.545 7.742 2.425.128 1.734-1.478-6.124-14.231zm42.362 3.04c11.648-7.272 14.153-9.366 14.153-11.833 0-6.939-16.429-17.323-20.541-12.984-1.696 1.79-9.683 33.652-8.435 33.652.368 0 7.039-3.976 14.823-8.835zm26.653 7.68c0-.634-1.46-2.89-3.246-5.011l-3.246-3.858-4.567 2.574c-2.511 1.416-5.972 3.659-7.69 4.984l-3.126 2.41 10.938.028c6.015.015 10.937-.491 10.937-1.126zM83.7 54.753c2.05-8.393 3.726-15.98 3.726-16.86 0-4.303-12.375-5.862-19.542-2.461-7.601 3.607-7.465 4.846 2.299 20.9 4.882 8.027 9.082 14.39 9.333 14.138.251-.25 2.134-7.324 4.184-15.717zm75.02 141.223c-1.77-3.308-1.904-2.993 3.787-8.917 6.818-7.096 11.81-16.132 14.407-26.075 2.513-9.627 4.196-11.926 7.873-10.76 7.367 2.339-1.29 28.15-13.92 41.504-6.661 7.044-10.022 8.22-12.147 4.248zm-78.106-33.73c-.44-.711-1.119-3.997-1.51-7.301-.801-6.76 1.296-9.863 5.719-8.459 2.735.868 4.348 6.467 3.643 12.648-.328 2.874-1.11 3.715-3.734 4.019-1.826.211-3.68-.197-4.118-.908zm159.452 149.718c-5.915-2.14-8.862-4.747-11.392-10.079-1.739-3.664-1.963-16.848-1.963-115.261 0-84.763.356-111.48 1.5-112.624 2.242-2.242 14.164-1.907 16.535.464 2.324 2.324 2.344 2.491.67 5.618-.898 1.68-2.622 2.418-5.644 2.418h-4.35l.332 34.512.332 34.512 5.236.254c4.46.216 5.338-.154 5.926-2.5.856-3.41 3.87-4.683 7.053-2.98 1.739.93 2.41 2.63 2.41 6.1 0 4.56.407 5.058 7.812 9.567 9.563 5.823 17.199 6.61 20.36 2.098 1.083-1.547 3.03-2.813 4.325-2.813 1.295 0 2.703-.562 3.128-1.25.425-.687.196-1.25-.507-1.25-2.394 0-4.067-4.793-2.618-7.5 2.348-4.388 8.75-2.376 8.75 2.75 0 2.779-.303 2.796 6.908-.394 8.782-3.884 14.311-2.682 29.68 6.455 13.93 8.281 17.918 8.912 24.632 3.9l3.155-2.356v-78.48L313.72 82.5c-44.538-.573-48.73-.808-49.993-2.812-1.006-1.595-1.006-2.78 0-4.375 1.228-1.95 4.183-2.225 27.085-2.526l25.707-.337 7.138-21.538c3.926-11.845 7.677-22.22 8.335-23.053C334.238 25.016 380.52 0 383.537 0c3.776 0 5.525 4.434 2.817 7.142-1.024 1.025-11.902 7.412-24.171 14.193l-22.31 12.33-6.486 19.417L326.9 72.5h21.002c16.27 0 21.323.386 22.425 1.714 1.046 1.26 1.335 31.473 1.091 114.063l-.332 112.348-2.911 4.081c-6.114 8.572-4.697 8.388-67.09 8.702-45.259.227-57.181-.055-61.02-1.444zm115.999-9.456c6.763-2.571 6.95-4.53 6.596-69.06-.285-51.83-.555-59.003-2.2-58.502-1.031.313-5.531.755-10 .981-8.01.406-8.3.306-20.551-7.133-7.971-4.839-13.787-7.544-16.22-7.544-2.4 0-8.08 2.593-15.456 7.055-18.486 11.185-23.338 11.168-42.032-.142-9.223-5.58-12.616-7.006-15.919-6.69l-4.197.402-.324 65.978c-.35 71.401-.302 71.963 6.327 74.632 3.872 1.56 109.878 1.58 113.976.023zm-12.199-10.176c-1.89-1.057-2.155-3.494-2.155-19.741 0-19.521.718-22.102 5.877-21.12 2.829.54 3.89 10.03 3.09 27.638-.59 12.993-2.075 15.874-6.812 13.223zm-49.642-147.94c-2.402-2.895-.542-8.142 2.886-8.142 5.35 0 7.493 4.43 3.886 8.036-2.464 2.464-4.784 2.5-6.772.105zm-45.549-10.106c-1.592-1.592-1.964-5.165-1.964-18.832 0-17.342.963-21.704 4.794-21.704 4.616 0 5.206 2.432 5.206 21.456 0 16.968-.195 18.56-2.418 19.75-3.127 1.674-3.294 1.654-5.618-.67zm50.177-2.562c-1.59-1.589-.943-6.375 1.089-8.06 2.85-2.367 6.145.098 6.145 4.597 0 2.939-.593 3.683-3.172 3.984-1.744.203-3.573-.031-4.062-.52zm4.128-13.576c-1.278-1.54-1.32-2.668-.19-5.145 1.662-3.651 5.93-3.75 8.162-.19 2.907 4.638-4.459 9.568-7.972 5.335zm5.038-12.454c-2.584-3.114-1.105-7.52 2.671-7.956 4.702-.544 7.163 3.93 4.053 7.366-2.588 2.859-4.688 3.043-6.724.59zm5.136-12.7c-3.344-2.341-3.374-3.564-.165-6.773 3.211-3.21 7.472-1.412 7.472 3.154 0 4.184-3.808 6.07-7.307 3.62z"/></svg>