<svg xmlns="http://www.w3.org/2000/svg" width="296" height="208" viewBox="0 0 277.5 195"><path d="M16.25 194.055c0-.52 17.983-18.921 39.962-40.892l39.962-39.948 11.737 11.51c13.588 13.325 19.955 16.775 30.961 16.775 10.322 0 16.729-3.525 30.724-16.904L181.41 113.3l39.92 39.904c21.955 21.948 39.919 40.33 39.919 40.85 0 .52-55.125.945-122.5.945s-122.5-.425-122.5-.945zM0 98.43C0 53.92.144 17.5.32 17.5c.176 0 18.457 18.144 40.625 40.32L81.25 98.14l-40.625 40.61L0 179.36V98.43zm236.555 40L196.25 98.11l40.625-40.61L277.5 16.89v80.93c0 44.511-.144 80.93-.32 80.93-.176 0-18.457-18.144-40.625-40.32zM111.542 98.437c-11.96-11.859-38.642-38.859-59.294-60L14.699 0h248.416l-59.99 60c-58.85 58.86-60.084 60-64.914 60-4.701 0-5.908-.975-26.669-21.563z"/></svg>