<svg xmlns="http://www.w3.org/2000/svg" width="334.181" height="243.535" viewBox="0 0 313.295 228.314"><path d="M148.384 226.92c-27.42-5.78-48.07-21.566-60.086-45.934-3.53-7.159-4.827-8.567-10.41-11.308-8.322-4.085-18.21-13.073-25.275-22.973-3.114-4.365-11.48-19.626-18.59-33.915C19.65 83.909 14.076 76.217 5.568 73.525c-6.948-2.199-7.263-4.905-1.682-14.429 6.026-10.282 6.881-10.836 15.129-9.805 10.218 1.277 22.126 7.941 34.993 19.586 11.458 10.368 21.628 17.737 26.407 19.135 2.322.679 3.237-.443 7.24-8.87 10.978-23.12 31.347-40.218 54.977-46.154l8.251-2.073v-5.523c0-9.634 6.921-19.47 16.523-23.481 16.655-6.958 35.977 5.997 35.977 24.12 0 6.13.023 6.164 4.688 7.032 12.453 2.317 30.31 13.012 40.58 24.304l6.607 7.266 9.375.596c12.556.798 22.002 5.312 31.965 15.275 27.116 27.116 20.206 73.2-13.504 90.064-4.877 2.44-10.91 4.763-13.405 5.162-3.92.627-4.997 1.602-7.916 7.17-10.237 19.52-28.338 34.524-50.265 41.664-8.979 2.924-12.297 3.298-32.5 3.662-15.688.283-24.96-.112-30.625-1.306zm62.472-12.282c18.619-6.705 33.3-19.587 42.528-37.317l4.956-9.524 6.118-.811c14.178-1.881 28.405-12.782 34.976-26.798 2.906-6.199 3.325-8.67 3.325-19.594 0-10.923-.42-13.395-3.325-19.594-4.655-9.93-12.337-17.777-22.119-22.593l-8.25-4.063-84.027-.346-84.027-.346-4.438 9.227C94.132 87.954 92.134 93 92.134 94.092c0 1.092-1.163 2.8-2.584 3.796-2.206 1.544-3.507 1.567-8.866.153-8.972-2.366-17.783-8.108-31.867-20.765-12.525-11.257-21.573-16.838-29.343-18.099-3.842-.623-4.507-.307-5.934 2.824-1.212 2.66-1.245 3.647-.135 4.017 3.3 1.1 10.714 8.776 15.285 15.826 2.675 4.125 9.294 16.66 14.71 27.854 5.416 11.195 12.442 24.257 15.613 29.028 7.163 10.773 17.64 20.25 26.253 23.746 6.161 2.5 6.774 3.158 9.981 10.704 6.997 16.462 21.882 31.693 38.033 38.917 12.673 5.669 19 6.554 44.48 6.22 22.218-.29 24.352-.527 33.096-3.675zm6.528-19.919c-2.57-2.57-1.728-4.238 5.954-11.794 4.1-4.032 9.324-10.706 11.61-14.83 4.509-8.138 8.456-10.26 10.83-5.825 2.113 3.948-5.765 18.265-14.784 26.868-7.395 7.053-10.758 8.433-13.61 5.581zm51.45-48.812c-.61-.86-1.07-12.25-1.025-25.313l.083-23.75 4.934-.354c6.83-.49 15.222 4.019 19.836 10.66 7.46 10.738 5.467 24.797-4.795 33.807-6.277 5.512-16.713 8.225-19.034 4.95zm16.28-16.028c3.195-5.41 2.633-13.99-1.216-18.564-5.503-6.54-6.178-5.31-5.751 10.49.365 13.519.518 14.26 2.667 12.918 1.253-.783 3.188-2.963 4.3-4.844zm-186.48 7.34c-1.569-1.569-2-10.884-.723-15.646.409-1.524 1.835-3.117 3.168-3.54 4.265-1.354 6.055 1.592 6.055 9.964 0 7.842-1.343 10.722-5 10.722-1.1 0-2.675-.675-3.5-1.5zm2.66-29.234c-1.08-2.815 1.342-11.676 5.578-20.408 3.618-7.458 7.19-9.434 10.295-5.693 1.397 1.683 1.41 2.722.072 5.998-.89 2.18-3.123 7.9-4.962 12.712-2.903 7.597-3.793 8.802-6.75 9.146-2.322.27-3.67-.288-4.232-1.755zm139.59-44.16c0-2.297-11.833-11.475-20.175-15.648-4.711-2.357-12.83-5.234-18.04-6.393-5.367-1.194-9.768-2.87-10.15-3.865-.37-.967-.1-4.022.603-6.79 1.743-6.867-.05-12.578-5.437-17.307-3.632-3.19-5.449-3.853-10.55-3.853-11.298 0-18.815 10.026-15.958 21.282 1.713 6.747.536 7.751-12.168 10.377-5.5 1.137-13.937 4.023-18.75 6.413-8.554 4.249-20.625 13.482-20.625 15.775 0 .69 26.4 1.153 65.625 1.153 38.853 0 65.625-.466 65.625-1.144z"/></svg>