<svg xmlns="http://www.w3.org/2000/svg" width="992.193" height="703.968" viewBox="0 0 930.181 659.97"><path d="M280.493 655.942c-2.022-2.215-11.06-17.145-20.083-33.178l-16.407-29.15-15.44-6.063C120.463 545.105 40.644 446.503 6.482 313.214c-8.228-32.106-8.485-39.483-1.56-44.93 4.798-3.774 7.506-4 48.032-4h42.947l-15.19-14.782c-39.654-38.589-60.447-87.914-64.625-153.298-1.466-22.953 1.877-60.408 5.953-66.682 1.467-2.258 4.964-4.682 7.772-5.387 5.408-1.357 5.16-1.481 29.306 14.727 17.745 11.912 26.97 15.372 60.474 22.678 91.112 19.87 141.966 38.208 166.439 60.02l11.082 9.878 12.049-12.446c23.46-24.234 52.207-37.659 84.553-39.484 16.221-.916 38.39 1.204 46.953 4.49 1.855.712 3.472-1.302 5.08-6.326 11.463-35.833 43.122-65.474 79.984-74.885 14.6-3.728 37.07-3.715 52.958.03 28.335 6.68 57.936 29.313 71.266 54.493l6.405 12.1 5.506-3.92c6.362-4.53 12.59-11.963 19.034-22.715 5.118-8.54 17.237-17.217 26.464-18.948 5.81-1.09 11.507.925 20.239 7.156 2.353 1.68 5.424.568 14.476-5.241 24.453-15.693 44.199-20.101 55.797-12.456 5.682 3.746 5.73 3.745 12.38-.365 5.905-3.65 10.26-4.224 37.725-4.975 65.444-1.79 71.39 4.041 70.257 68.906-.555 31.804-.941 35.094-4.721 40.2l-4.117 5.56 4.117 5.652c8.445 11.593 3.968 30.632-14.34 60.98l-4.219 6.993 4.4 5.95c4.159 5.627 4.33 7.087 3.125 26.786-.7 11.459-2.047 24.092-2.992 28.073l-1.718 7.238h11.118c13.57 0 21.289 4.904 21.289 13.525 0 14.236-13.048 62.563-25.466 94.326C863.508 477.528 789.457 555.5 698.56 589.201l-12.547 4.652-16.48 29.077c-9.064 15.992-18.101 30.868-20.083 33.058-3.591 3.968-4.219 3.982-184.442 3.982H284.17l-3.677-4.028zm354.94-30.233c2.464-3.98 7.26-12.232 10.657-18.336l6.178-11.099h-374.52l6.179 11.099c3.398 6.104 8.193 14.355 10.656 18.336l4.479 7.238h331.893l4.479-7.238zm54.25-63.211c59.232-22.295 108.696-62.606 146.847-119.673 14.379-21.508 38.036-66.348 36.406-69.004-1.422-2.316-815.194-1.8-815.194.518 0 3.384 19.13 40.265 29.393 56.67 30.689 49.05 71.654 89.183 116.836 114.464 6.646 3.718 20.109 10.098 29.918 14.178l17.835 7.417 212.572.127 212.572.127 12.815-4.824zM891.26 324.602c3.284-11.412 6.531-23.138 7.215-26.057l1.242-5.308H30.646l1.268 5.308c2.213 9.257 10.023 35.983 12.126 41.498l2.025 5.308h839.221l5.973-20.749zm-664.576-64.768c-15.94-11.763-28.222-25.552-35.023-39.316-10.503-21.255-24.896-31.188-57.502-39.68-8.589-2.238-17.136-5.358-18.994-6.934-4.642-3.94-4.375-14.782.483-19.64 4.829-4.83 9.096-4.831 27.926-.015 35.288 9.025 59.789 26.659 72.247 51.998 5.663 11.518 9.609 16.58 18.648 23.929 10.129 8.234 46.863 27.928 58.044 31.119 5.126 1.463 5.733-.04 8.539-21.123 6.587-49.5-15.488-92.502-58.17-113.314-15.964-7.784-66.247-23.478-100.212-31.277C81.08 81.439 76 79.996 60.584 72.259l-15.908-7.984-1.168 9.941c-1.7 14.458 2.04 49.31 7.506 69.98 13.424 50.746 43.636 89.786 88.76 114.691l9.65 5.327 41.5-.072 41.498-.072-5.739-4.236zm192.917-6.219c8.806-12.785 18.042-20.416 33.18-27.411 9.326-4.31 14.666-5.34 31.048-5.98l19.784-.772-.04-14.74c-.116-41.827-30.936-81.08-74.13-94.415-15.078-4.655-41.694-4.08-57.45 1.24-21.07 7.116-40.615 21.724-53.086 39.676l-3.915 5.635 4.404 10.839c5.8 14.274 10.501 39.632 10.501 56.645 0 11.276.422 13.133 2.413 10.613 1.327-1.68 6.087-5.32 10.578-8.09 14.533-8.962 27.543-5.273 27.543 7.81 0 7.553-3.407 11.421-15.827 17.97-11.302 5.96-18.252 4.244-23.256-5.743l-3.375-6.735-.004 6.032c-.001 3.317-.546 8.746-1.21 12.063l-1.206 6.032h86.7l7.347-10.669zm-76.235-63.16c-12.075-7.223-15.696-13.947-11.616-21.57 5.43-10.148 17.402-9.423 32.322 1.958 5.025 3.832 6.359 6.246 6.359 11.507 0 7.775-5.58 14.378-12.15 14.378-2.435 0-9.147-2.823-14.915-6.273zm95.846 2.272c-9.414-7.405-6.33-17.733 7.762-25.991 10.85-6.359 19.556-6.643 24.293-.793 7.319 9.038 3.583 17.137-12.276 26.612-8.733 5.218-13.313 5.258-19.779.172zm-46.767-27.085c-2.877-3.179-3.677-6.995-3.677-17.542 0-11.837.555-13.928 4.556-17.169 6.196-5.017 13.01-4.635 18.693 1.048 4.037 4.037 4.738 6.554 4.738 17.008 0 9.68-.83 13.161-3.935 16.494-5.19 5.57-15.407 5.652-20.375.162zm471.075 94.3c-2.53-8.48-10.643-20.55-17.782-26.454-9.692-8.016-22.941-11.668-42.333-11.668-17.87 0-23.777-3.14-23.777-12.642 0-16.762-19.058-30.867-49.604-36.711-8.161-1.562-16.329-4.188-18.15-5.835-1.82-1.648-4.756-7.418-6.523-12.822-7.651-23.391-25.01-42.24-42.184-45.805-30.694-6.372-55.713 14.383-65.071 53.98-3.51 14.85-6.796 17.73-22.366 19.604-7.15.86-16.963 3.533-21.805 5.94-7.162 3.557-9.506 6.095-12.568 13.601-3.44 8.434-3.549 10.344-1.257 22.197 3.309 17.114 3.17 21.152-.88 25.628-4.071 4.498-9.092 4.663-26.922.886-25.721-5.448-45.973-2.521-58.87 8.509l-6.755 5.777 209.071.079 209.072.078-1.296-4.343zm12.617-39.753c0-.897-1.826-3.283-4.058-5.303-11.242-10.174-11.434-21.778-.586-35.486 3.653-4.616 9.363-13.92 12.688-20.676l6.047-12.282-5.354-10.581c-6.079-12.015-5.763-18.552 1.38-28.566 4.08-5.72 4.359-8.047 4.359-36.407 0-22.274-.664-30.963-2.508-32.812-1.881-1.887-9.954-2.415-32.316-2.113-28.413.383-30.146.631-37.026 5.307-9.528 6.474-20.71 6.563-30.03.24l-6.874-4.666-11.831 5.596c-6.507 3.077-16.705 9.085-22.662 13.35-13.308 9.53-22.799 10.384-32.57 2.93-3.48-2.654-6.737-4.825-7.237-4.825-.501 0-3.09 3.691-5.755 8.203s-7.898 11.138-11.63 14.724l-6.784 6.52 9.826 7.384c12.979 9.752 25.29 24.899 32.923 40.509 6.167 12.612 6.256 12.69 16.823 14.936 14.189 3.015 36.434 13.87 45.841 22.37 4.193 3.787 9.622 10.653 12.064 15.256l4.44 8.37 15.63 2.267c18.295 2.653 36.098 10.666 45.737 20.586 6.51 6.7 9.463 8.313 9.463 5.17zm-318.972-63.528l13.984-3.362 3.141-9.65c8.41-25.836 26.024-48.387 44.572-57.063 5.53-2.587 10.09-5.93 10.133-7.43.138-4.75-11.554-21.09-21.468-30.004-25.617-23.031-59.634-27.762-91.707-12.753-21.266 9.951-41.043 34.267-44.326 54.5-1.03 6.344-.503 7.201 8.463 13.783 18.32 13.448 33.925 33.686 42.897 55.63l4.445 10.875 7.941-5.582c4.446-3.125 14.096-7.062 21.925-8.944z"/></svg>