<?xml version="1.0" encoding="utf-8"?><svg xmlns="http://www.w3.org/2000/svg" xmlns:xlink="http://www.w3.org/1999/xlink"><symbol fill="none" viewBox="0 0 25 25" id="add" xmlns="http://www.w3.org/2000/svg"><path d="M21.875 13.84h-8.036v8.035h-2.678v-8.036H3.125v-2.678h8.036V3.125h2.678v8.036h8.036v2.678z" fill="#fff"/></symbol><symbol fill="none" viewBox="0 0 20 14" id="burger" xmlns="http://www.w3.org/2000/svg"><path d="M0 13.333h14.444v-2.222H0v2.222zm0-5.555h11.111V5.556H0v2.222zM0 0v2.222h14.444V0H0zm20 10.656l-3.978-3.99L20 2.679 18.433 1.11l-5.555 5.556 5.555 5.555L20 10.656z" fill="#fff"/></symbol><symbol fill="none" viewBox="0 0 20 20" id="copy" xmlns="http://www.w3.org/2000/svg"><path d="M13.79 1H3.684C2.758 1 2 1.736 2 2.636v11.455h1.684V2.636H13.79V1zm2.526 3.273H7.053c-.927 0-1.685.736-1.685 1.636v11.455c0 .9.758 1.636 1.685 1.636h9.263c.926 0 1.684-.736 1.684-1.636V5.909c0-.9-.758-1.636-1.684-1.636zm0 13.09H7.053V5.91h9.263v11.455z" fill="#fff"/></symbol><symbol fill="none" viewBox="0 0 20 20" id="info" xmlns="http://www.w3.org/2000/svg"><path d="M10 1c-4.968 0-9 4.032-9 9s4.032 9 9 9 9-4.032 9-9-4.032-9-9-9zm.9 15.3H9.1v-1.8h1.8v1.8zm1.863-6.975l-.81.828c-.648.657-1.053 1.197-1.053 2.547H9.1v-.45c0-.99.405-1.89 1.053-2.547l1.116-1.134A1.76 1.76 0 0011.8 7.3c0-.99-.81-1.8-1.8-1.8s-1.8.81-1.8 1.8H6.4c0-1.989 1.611-3.6 3.6-3.6s3.6 1.611 3.6 3.6c0 .792-.324 1.512-.837 2.025z" fill="#297BC7"/></symbol><symbol fill="none" viewBox="0 0 22 22" id="notifications" xmlns="http://www.w3.org/2000/svg"><path d="M11.205 21a2.057 2.057 0 002.051-2.051H9.154A2.05 2.05 0 0011.205 21zm6.154-6.154V9.718c0-3.149-1.682-5.785-4.615-6.482v-.698c0-.85-.688-1.538-1.539-1.538s-1.538.687-1.538 1.538v.698C6.723 3.933 5.05 6.559 5.05 9.718v5.128L3 16.897v1.026h16.41v-1.026l-2.051-2.05z" fill="#fff"/></symbol><symbol fill="none" viewBox="0 0 22 22" id="refresh" xmlns="http://www.w3.org/2000/svg"><path d="M3 11c0-2.342 1.02-4.442 2.62-5.91L8 7.482v-6.03H2l2.2 2.211A10.006 10.006 0 001 11c0 5.216 3.95 9.497 9 10v-2.03c-3.94-.493-7-3.88-7-7.97zm18 0c0-5.216-3.95-9.497-9-10v2.03c3.94.493 7 3.88 7 7.97 0 2.342-1.02 4.442-2.62 5.91L14 14.518v6.03h6l-2.2-2.211C19.76 16.507 21 13.905 21 11z" fill="#fff"/></symbol></svg>