<?xml version="1.0" encoding="utf-8"?><svg xmlns="http://www.w3.org/2000/svg" xmlns:xlink="http://www.w3.org/1999/xlink"><symbol fill="none" viewBox="0 0 25 25" id="add" xmlns="http://www.w3.org/2000/svg"><path d="M21.875 13.84h-8.036v8.035h-2.678v-8.036H3.125v-2.678h8.036V3.125h2.678v8.036h8.036v2.678z" fill="#fff"/></symbol><symbol fill="none" viewBox="0 0 18 18" id="arrow-down" xmlns="http://www.w3.org/2000/svg"><path d="M9 2.6c3.528 0 6.4 2.872 6.4 6.4 0 3.528-2.872 6.4-6.4 6.4A6.408 6.408 0 012.6 9c0-3.528 2.872-6.4 6.4-6.4zM9 1C4.584 1 1 4.584 1 9s3.584 8 8 8 8-3.584 8-8-3.584-8-8-8zm.8 8V5.8H8.2V9H5.8L9 12.2 12.2 9H9.8z" fill="#6F6"/></symbol><symbol fill="none" viewBox="0 0 31 21" id="arrow-down-blue" xmlns="http://www.w3.org/2000/svg"><path d="M31 0L15.5 21 0 0h31z" fill="#297BC7"/></symbol><symbol fill="none" viewBox="0 0 22 15" id="arrow-select" xmlns="http://www.w3.org/2000/svg"><path d="M.333.167L11 14.833 21.666.167H.333z" fill="#fff"/></symbol><symbol fill="none" viewBox="0 0 18 18" id="arrow-sent" xmlns="http://www.w3.org/2000/svg"><path d="M9 15.4c3.528 0 6.4-2.872 6.4-6.4 0-3.528-2.872-6.4-6.4-6.4A6.408 6.408 0 002.6 9c0 3.528 2.872 6.4 6.4 6.4zM9 17c-4.416 0-8-3.584-8-8s3.584-8 8-8 8 3.584 8 8-3.584 8-8 8zm.8-8v3.2H8.2V9H5.8L9 5.8 12.2 9H9.8z" fill="#F33"/></symbol><symbol fill="none" viewBox="0 0 20 14" id="burger" xmlns="http://www.w3.org/2000/svg"><path d="M0 13.333h14.444v-2.222H0v2.222zm0-5.555h11.111V5.556H0v2.222zM0 0v2.222h14.444V0H0zm20 10.656l-3.978-3.99L20 2.679 18.433 1.11l-5.555 5.556 5.555 5.555L20 10.656z" fill="#fff"/></symbol><symbol fill="none" viewBox="0 0 38 38" id="buy" xmlns="http://www.w3.org/2000/svg"><path fill="#fff" d="M16.273 4h5.455v30h-5.455z"/><path fill="#fff" d="M34 16.273v5.455H4v-5.455z"/></symbol><symbol fill="none" viewBox="0 0 16 16" id="case" xmlns="http://www.w3.org/2000/svg"><path d="M13.6 3.8h-2.8V2.4c0-.777-.623-1.4-1.4-1.4H6.6c-.777 0-1.4.623-1.4 1.4v1.4H2.4a1.39 1.39 0 00-1.393 1.4L1 12.9c0 .777.623 1.4 1.4 1.4h11.2c.777 0 1.4-.623 1.4-1.4V5.2c0-.777-.623-1.4-1.4-1.4zm-4.2 0H6.6V2.4h2.8v1.4z" fill="#297BC7"/></symbol><symbol fill="none" viewBox="0 0 24 24" id="clock" xmlns="http://www.w3.org/2000/svg"><path d="M16.664 7.336A6.572 6.572 0 0012 5.4V12l-4.664 4.664c2.574 2.574 6.754 2.574 9.339 0a6.59 6.59 0 00-.011-9.328zM12 1C5.928 1 1 5.928 1 12s4.928 11 11 11 11-4.928 11-11S18.072 1 12 1zm0 19.8A8.798 8.798 0 013.2 12c0-4.862 3.938-8.8 8.8-8.8s8.8 3.938 8.8 8.8-3.938 8.8-8.8 8.8z" fill="#297BC7"/></symbol><symbol fill="none" viewBox="0 0 20 20" id="contacts" xmlns="http://www.w3.org/2000/svg"><path d="M0 2.222v15.556C0 19 .989 20 2.222 20h15.556C19 20 20 19 20 17.778V2.222C20 1 19 0 17.778 0H2.222C.99 0 0 1 0 2.222zm13.333 4.445A3.329 3.329 0 0110 10a3.329 3.329 0 01-3.333-3.333A3.329 3.329 0 0110 3.333a3.329 3.329 0 013.333 3.334zm-10 8.889c0-2.223 4.445-3.445 6.667-3.445 2.222 0 6.667 1.222 6.667 3.445v1.11H3.333v-1.11z" fill="#297BC7"/></symbol><symbol fill="none" viewBox="0 0 20 20" id="copy" xmlns="http://www.w3.org/2000/svg"><path d="M13.79 1H3.684C2.758 1 2 1.736 2 2.636v11.455h1.684V2.636H13.79V1zm2.526 3.273H7.053c-.927 0-1.685.736-1.685 1.636v11.455c0 .9.758 1.636 1.685 1.636h9.263c.926 0 1.684-.736 1.684-1.636V5.909c0-.9-.758-1.636-1.684-1.636zm0 13.09H7.053V5.91h9.263v11.455z" fill="#fff"/></symbol><symbol fill="none" viewBox="0 0 14 18" id="delete-red" xmlns="http://www.w3.org/2000/svg"><path d="M1 16c0 1.1.9 2 2 2h8c1.1 0 2-.9 2-2V4H1v12zM14 1h-3.5l-1-1h-5l-1 1H0v2h14V1z" fill="#F33"/></symbol><symbol fill="none" viewBox="0 0 16 16" id="dislike" xmlns="http://www.w3.org/2000/svg"><path d="M9.91 2H4.181c-.528 0-.98.318-1.171.776L1.089 7.263A1.26 1.26 0 001 7.727V9c0 .7.573 1.273 1.273 1.273h4.015l-.604 2.908-.02.204c0 .26.109.502.28.674l.675.668 4.194-4.193c.229-.23.369-.548.369-.898V3.273c0-.7-.573-1.273-1.273-1.273zm2.544 0v7.636H15V2h-2.546z" fill="#F33"/></symbol><symbol fill="none" viewBox="0 0 20 20" id="edit" xmlns="http://www.w3.org/2000/svg"><path d="M1 15.252v3.75h3.75l11.06-11.06-3.75-3.75L1 15.253zm17.71-10.21a.996.996 0 000-1.41l-2.34-2.34a.996.996 0 00-1.41 0l-1.83 1.83 3.75 3.75 1.83-1.83z" fill="#fff"/></symbol><symbol fill="none" viewBox="0 0 30 30" id="exchange" xmlns="http://www.w3.org/2000/svg"><path d="M1.25 12.5V7.524c0-2.796 1.682-4.27 4.873-4.27h16.994V.44c0-.175.122-.336.31-.407a.558.558 0 01.549.097l5.877 5.16a.403.403 0 010 .623l-5.877 5.167a.545.545 0 01-.549.097.443.443 0 01-.309-.41v-3.19H6.994c-.443 0-.802.318-.802.709V12.5H1.25zm27.5 5v4.977c0 2.795-1.682 4.269-4.873 4.269H6.883v2.814c0 .175-.122.336-.31.408a.558.558 0 01-.549-.098L.147 24.71a.403.403 0 010-.622l5.877-5.168a.545.545 0 01.549-.096.441.441 0 01.309.408v3.19h16.124c.443 0 .802-.317.802-.707V17.5h4.942z" fill="#fff"/></symbol><symbol fill="none" viewBox="0 0 20 20" id="filter" xmlns="http://www.w3.org/2000/svg"><path d="M1.24 2.811c2.284 2.914 6.503 8.314 6.503 8.314v6.75c0 .619.51 1.125 1.132 1.125h2.262a1.13 1.13 0 001.13-1.125v-6.75s4.209-5.4 6.494-8.314C19.337 2.07 18.806 1 17.867 1H2.133c-.939 0-1.47 1.069-.894 1.811z" fill="#fff"/></symbol><symbol fill="none" viewBox="0 0 20 20" id="history" xmlns="http://www.w3.org/2000/svg"><path d="M14.6 10.9h-4.5v4.5h4.5v-4.5zM13.7 1v1.8H6.5V1H4.7v1.8h-.9c-.999 0-1.791.81-1.791 1.8L2 17.2c0 .99.801 1.8 1.8 1.8h12.6c.99 0 1.8-.81 1.8-1.8V4.6c0-.99-.81-1.8-1.8-1.8h-.9V1h-1.8zm2.7 16.2H3.8V7.3h12.6v9.9z" fill="#fff"/></symbol><symbol fill="none" viewBox="0 0 18 18" id="icon-sent" xmlns="http://www.w3.org/2000/svg"><path d="M9 15.4c3.528 0 6.4-2.872 6.4-6.4 0-3.528-2.872-6.4-6.4-6.4A6.408 6.408 0 002.6 9c0 3.528 2.872 6.4 6.4 6.4zM9 17c-4.416 0-8-3.584-8-8s3.584-8 8-8 8 3.584 8 8-3.584 8-8 8zm.8-8v3.2H8.2V9H5.8L9 5.8 12.2 9H9.8z" fill="#F33"/></symbol><symbol fill="none" viewBox="0 0 20 20" id="info" xmlns="http://www.w3.org/2000/svg"><path d="M10 1c-4.968 0-9 4.032-9 9s4.032 9 9 9 9-4.032 9-9-4.032-9-9-9zm.9 15.3H9.1v-1.8h1.8v1.8zm1.863-6.975l-.81.828c-.648.657-1.053 1.197-1.053 2.547H9.1v-.45c0-.99.405-1.89 1.053-2.547l1.116-1.134A1.76 1.76 0 0011.8 7.3c0-.99-.81-1.8-1.8-1.8s-1.8.81-1.8 1.8H6.4c0-1.989 1.611-3.6 3.6-3.6s3.6 1.611 3.6 3.6c0 .792-.324 1.512-.837 2.025z" fill="#297BC7"/></symbol><symbol fill="none" viewBox="0 0 20 20" id="info-deal" xmlns="http://www.w3.org/2000/svg"><path d="M10 1c-4.968 0-9 4.032-9 9s4.032 9 9 9 9-4.032 9-9-4.032-9-9-9zm.9 15.3H9.1v-1.8h1.8v1.8zm1.863-6.975l-.81.828c-.648.657-1.053 1.197-1.053 2.547H9.1v-.45c0-.99.405-1.89 1.053-2.547l1.116-1.134A1.76 1.76 0 0011.8 7.3c0-.99-.81-1.8-1.8-1.8s-1.8.81-1.8 1.8H6.4c0-1.989 1.611-3.6 3.6-3.6s3.6 1.611 3.6 3.6c0 .792-.324 1.512-.837 2.025z" fill="#fff"/></symbol><symbol fill="none" viewBox="0 0 16 16" id="like" xmlns="http://www.w3.org/2000/svg"><path d="M1 14.727h2.545V7.091H1v7.636zm14-7c0-.7-.573-1.272-1.273-1.272H9.712l.604-2.909.02-.203a.958.958 0 00-.28-.675L9.38 2 5.194 6.194a1.242 1.242 0 00-.376.897v6.363c0 .7.573 1.273 1.273 1.273h5.727c.528 0 .98-.318 1.171-.776l1.922-4.486c.057-.147.089-.3.089-.465V7.727z" fill="#6F6"/></symbol><symbol fill="none" viewBox="0 0 20 20" id="logo-offer" xmlns="http://www.w3.org/2000/svg"><path d="M16.584 3.773c-.007 1.189-.01 2.484-.01 2.497v3.998a3.681 3.681 0 01-3.681 3.681h-.85a.984.984 0 00-.985.985v3.881H8.984v-3.881A.984.984 0 008 13.95h-.928a3.682 3.682 0 01-3.681-3.682V3.78l1.074.677c.626.395.999 1.072.999 1.813v3.998a1.605 1.605 0 001.608 1.608h1.365a.546.546 0 00.547-.547V6.28a3.78 3.78 0 00-.791-2.315l-.005-.006a.733.733 0 01.072-.96l1.761-1.761 1.761 1.761c.258.258.294.67.072.96l-.005.006a3.765 3.765 0 00-.791 2.315v5.05c0 .303.245.547.547.547h1.287a1.61 1.61 0 001.609-1.608V6.27c0-.736.377-1.42.999-1.813l1.084-.684z" fill="#FFD900"/><path d="M16.583 3.773c-.007 1.189-.01 2.484-.01 2.497v3.998a3.682 3.682 0 01-3.681 3.682h-.85a.985.985 0 00-.985.984v1.111H8.983v-1.11A.984.984 0 008 13.95h-.93a3.682 3.682 0 01-3.681-3.682V3.78l1.074.678a2.13 2.13 0 01.999 1.812v3.998c0 .888.72 1.608 1.608 1.608h1.365a.547.547 0 00.547-.547V6.28a3.782 3.782 0 00-.796-2.32.733.733 0 01.072-.96l1.761-1.762 1.761 1.761c.258.258.294.67.072.96l-.005.006a3.77 3.77 0 00-.791 2.315v5.05c0 .303.245.547.547.547h1.288c.888 0 1.607-.72 1.607-1.608V6.27c0-.736.378-1.42 1-1.812l1.084-.685z" fill="#FFD900"/><path d="M16.583 3.773c-.007 1.189-.01 2.484-.01 2.497v3.998a3.682 3.682 0 01-3.681 3.682h-.85a.984.984 0 00-.985.984v3.88H10.02V1.238l1.762 1.761c.257.258.293.67.071.96l-.004.006a3.773 3.773 0 00-.792 2.315v5.05c0 .303.245.547.547.547h1.288c.888 0 1.608-.72 1.608-1.608V6.27c0-.736.377-1.42.999-1.813l1.084-.684z" fill="#F93"/><path d="M16.583 3.773a795.36 795.36 0 00-.01 2.496v4c0 .968-.374 1.849-.985 2.506a3.67 3.67 0 01-2.696 1.175h-.85a.984.984 0 00-.985.984v1.111H10.02V1.237l1.761 1.761a.732.732 0 01.068.966 3.766 3.766 0 00-.792 2.315v5.05c0 .302.245.547.547.547h1.288c.888 0 1.608-.72 1.608-1.608V6.269c0-.735.377-1.419.999-1.812l.089-.055.995-.629z" fill="#F93"/><path d="M12.187 16.045a.843.843 0 01-.847.846H8.7a.846.846 0 110-1.692h2.641c.468 0 .847.379.847.846z" fill="#FFD900"/><path d="M12.188 16.045a.842.842 0 01-.847.846h-1.32V15.2h1.32c.468 0 .847.379.847.846zm-5.117-4.169H5.973c-.913 0-1.654-.74-1.654-1.654V4.366l.145.092a2.13 2.13 0 01.999 1.812v3.998c0 .888.72 1.608 1.608 1.608z" fill="#F93"/></symbol><symbol fill="none" viewBox="0 0 22 22" id="notifications" xmlns="http://www.w3.org/2000/svg"><path d="M11.205 21a2.057 2.057 0 002.051-2.051H9.154A2.05 2.05 0 0011.205 21zm6.154-6.154V9.718c0-3.149-1.682-5.785-4.615-6.482v-.698c0-.85-.688-1.538-1.539-1.538s-1.538.687-1.538 1.538v.698C6.723 3.933 5.05 6.559 5.05 9.718v5.128L3 16.897v1.026h16.41v-1.026l-2.051-2.05z" fill="#fff"/></symbol><symbol fill="none" viewBox="0 0 22 20" id="passport" xmlns="http://www.w3.org/2000/svg"><path fill-rule="evenodd" clip-rule="evenodd" d="M19.8 0H2.2C.99 0 0 .99 0 2.2v15.4c0 1.21.99 2.2 2.2 2.2h17.6c1.21 0 2.2-.99 2.2-2.2V2.2C22 .99 21.01 0 19.8 0zm-11 15.4H3.3v-2.2h5.5v2.2zm0-4.4H3.3V8.8h5.5V11zm0-4.4H3.3V4.4h5.5v2.2zm5.302 6.6L11 10.076l1.551-1.551 1.551 1.562L17.589 6.6l1.562 1.562-5.049 5.038z" fill="#297BC7"/></symbol><symbol fill="none" viewBox="0 0 25 30" id="payout" xmlns="http://www.w3.org/2000/svg"><path d="M0 30h24.546v-3.53H0V30zm24.546-17.647h-7.014V22.94H7.013V12.353H0L12.273 0l12.273 12.353z" fill="#fff"/></symbol><symbol fill="none" viewBox="0 0 20 20" id="readed" xmlns="http://www.w3.org/2000/svg"><path d="M14.618 6.092L13.527 5l-4.91 4.908L9.71 11l4.908-4.908zM17.901 5L9.71 13.191 6.474 9.963l-1.092 1.091 4.328 4.328L19 6.092 17.9 5zM1 11.054l4.328 4.328 1.091-1.092L2.1 9.963 1 11.054z" fill="#fff"/></symbol><symbol fill="none" viewBox="0 0 22 22" id="refresh" xmlns="http://www.w3.org/2000/svg"><path d="M3 11c0-2.342 1.02-4.442 2.62-5.91L8 7.482v-6.03H2l2.2 2.211A10.006 10.006 0 001 11c0 5.216 3.95 9.497 9 10v-2.03c-3.94-.493-7-3.88-7-7.97zm18 0c0-5.216-3.95-9.497-9-10v2.03c3.94.493 7 3.88 7 7.97 0 2.342-1.02 4.442-2.62 5.91L14 14.518v6.03h6l-2.2-2.211C19.76 16.507 21 13.905 21 11z" fill="#fff"/></symbol><symbol fill="none" viewBox="0 0 16 18" id="report" xmlns="http://www.w3.org/2000/svg"><path d="M9.953 2.118L9.529 0H0v18h2.118v-7.412h5.93l.423 2.118h7.411V2.118h-5.93z" fill="#F33"/></symbol><symbol fill="none" viewBox="0 0 30 6" id="sell" xmlns="http://www.w3.org/2000/svg"><path fill="#fff" d="M30 0v5.455H0V0z"/></symbol><symbol fill="none" viewBox="0 0 30 26" id="send" xmlns="http://www.w3.org/2000/svg"><path d="M.014 25.273L30 13 .014.727 0 10.273 21.429 13 0 15.727l.014 9.546z" fill="#fff"/></symbol><symbol fill="none" viewBox="0 0 18 12" id="sort" xmlns="http://www.w3.org/2000/svg"><path d="M0 12h6v-2H0v2zM0 0v2h18V0H0zm0 7h12V5H0v2z" fill="#fff"/></symbol><symbol fill="none" viewBox="0 0 22 22" id="verify" xmlns="http://www.w3.org/2000/svg"><path d="M22 11l-2.44-2.923.34-3.866-3.61-.859L14.4 0 11 1.53 7.6 0 5.71 3.342 2.1 4.19l.34 3.877L0 11l2.44 2.923-.34 3.876 3.61.86L7.6 22l3.4-1.54 3.4 1.53 1.89-3.342 3.61-.86-.34-3.865L22 11zM9.09 15.945l-3.8-3.992 1.48-1.55 2.32 2.44 5.85-6.149 1.48 1.55-7.33 7.7z" fill="#6F6"/></symbol></svg>