<?xml version="1.0" encoding="utf-8"?><svg xmlns="http://www.w3.org/2000/svg" xmlns:xlink="http://www.w3.org/1999/xlink"><symbol fill="none" viewBox="0 0 32 32" id="arrow-article" xmlns="http://www.w3.org/2000/svg"><circle cx="16" cy="16" r="15" stroke="#fff" stroke-width="2"/><path d="M14 11l5 5-5 5" stroke="#fff" stroke-width="2"/></symbol><symbol fill="none" viewBox="0 0 8 12" id="arrow-left" xmlns="http://www.w3.org/2000/svg"><path d="M7 11L2 6l5-5" stroke="#fff" stroke-width="2"/></symbol><symbol fill="none" viewBox="0 0 8 12" id="arrow-next-purple" xmlns="http://www.w3.org/2000/svg"><path d="M1 1l5 5-5 5" stroke="#7E4EF6" stroke-width="2"/></symbol><symbol fill="none" viewBox="0 0 8 12" id="arrow-right" xmlns="http://www.w3.org/2000/svg"><path d="M1 1l5 5-5 5" stroke="#fff" stroke-width="2"/></symbol><symbol fill="none" viewBox="0 0 16 16" id="clock" xmlns="http://www.w3.org/2000/svg"><path d="M7.992 0C3.576 0 0 3.584 0 8s3.576 8 7.992 8C12.416 16 16 12.416 16 8s-3.584-8-8.008-8zM8 14.4A6.398 6.398 0 011.6 8c0-3.536 2.864-6.4 6.4-6.4 3.536 0 6.4 2.864 6.4 6.4 0 3.536-2.864 6.4-6.4 6.4z" fill="#fff"/><path d="M8.4 4H7.2v4.8l4.2 2.52.6-.984L8.4 8.2V4z" fill="#fff"/></symbol><symbol fill="none" viewBox="0 0 16 15" id="comment" xmlns="http://www.w3.org/2000/svg"><path d="M0 2.856C0 2.1.306 1.372.85.836A2.923 2.923 0 012.9 0h10.2c.77 0 1.507.3 2.05.837.544.535.85 1.262.85 2.02v6.106c0 .757-.306 1.484-.85 2.02a2.923 2.923 0 01-2.05.836H8.959l-4.34 3.017c-.596.415-1.419-.005-1.419-.724V11.82h-.3c-.77 0-1.507-.3-2.05-.836A2.835 2.835 0 010 8.963V2.856z" fill="#019934"/></symbol><symbol fill="none" viewBox="0 0 17 16" id="education" xmlns="http://www.w3.org/2000/svg"><path d="M12.852 12.055l-4 2.492-4-2.492V9.42l-1.143-.703v4.077L8.852 16l5.142-3.205V8.718l-1.142.703v2.634z" fill="#019934"/><path d="M8.852 0l-8 4.596v1.097l8 4.924 6.857-4.22v3.496h1.143V4.596L8.852 0zm0 9.169L2.345 5.164l6.507-3.738 6.506 3.738-6.506 4.005z" fill="#019934"/></symbol><symbol fill="none" viewBox="0 0 20 20" id="fb-blue" xmlns="http://www.w3.org/2000/svg"><path d="M18.889 0H1.11A1.111 1.111 0 000 1.111V18.89A1.111 1.111 0 001.111 20h9.572v-7.733H8.086V9.239h2.597V7.017c0-2.584 1.578-3.991 3.89-3.991.776-.003 1.554.037 2.327.118v2.69h-1.594c-1.254 0-1.498.597-1.498 1.472v1.927h2.996l-.388 3.028h-2.61V20h5.083A1.111 1.111 0 0020 18.889V1.11A1.111 1.111 0 0018.889 0z" fill="#6948E7"/></symbol><symbol fill="none" viewBox="0 0 16 16" id="house" xmlns="http://www.w3.org/2000/svg"><path d="M8.829.168a.571.571 0 00-.81 0L1.164 7.025a.571.571 0 00-.167.404v8a.571.571 0 00.571.571H6.71a.571.571 0 00.571-.571v-4.572h2.286v4.572a.571.571 0 00.571.571h5.143a.571.571 0 00.571-.571v-8a.57.57 0 00-.167-.404l-1.547-1.547V1.715a.572.572 0 00-.571-.571h-1.143a.571.571 0 00-.572.571v1.478L8.83.168zm-6.69 14.69V7.665L8.424 1.38l6.286 6.286v7.191h-4v-4.57a.571.571 0 00-.572-.572H6.71a.571.571 0 00-.571.571v4.571h-4z" fill="#019934"/></symbol><symbol fill="none" viewBox="0 0 20 20" id="insta-blue" xmlns="http://www.w3.org/2000/svg"><path d="M9.997 6.665A3.342 3.342 0 006.663 10a3.342 3.342 0 003.334 3.335A3.342 3.342 0 0013.332 10a3.342 3.342 0 00-3.335-3.335zM20 10c0-1.38.012-2.75-.065-4.128-.078-1.6-.443-3.022-1.614-4.193C17.147.506 15.73.143 14.127.066 12.747-.012 11.378 0 10 0 8.619 0 7.25-.012 5.872.066 4.271.143 2.85.509 1.68 1.679.506 2.853.143 4.271.066 5.872-.012 7.253 0 8.622 0 10c0 1.378-.013 2.75.065 4.128.077 1.6.443 3.022 1.613 4.193 1.174 1.173 2.592 1.536 4.193 1.613C7.253 20.012 8.622 20 10 20c1.38 0 2.75.013 4.127-.065 1.602-.077 3.022-.443 4.193-1.613 1.174-1.174 1.536-2.592 1.614-4.193.08-1.379.065-2.747.065-4.128zM9.997 15.131A5.124 5.124 0 014.867 10a5.124 5.124 0 015.13-5.131A5.124 5.124 0 0115.128 10a5.124 5.124 0 01-5.13 5.131zm5.341-9.274A1.197 1.197 0 0114.14 4.66c0-.663.535-1.198 1.198-1.198a1.197 1.197 0 01.848 2.046 1.196 1.196 0 01-.848.35z" fill="#6948E7"/></symbol><symbol fill="none" viewBox="0 0 16 16" id="lang" xmlns="http://www.w3.org/2000/svg"><path d="M5.87 3.497l.04.084 4.448 11.601a.604.604 0 01-.335.777.584.584 0 01-.728-.266l-.034-.074-1.147-2.99h-5.67l-.075-.005-1.237 3.009a.585.585 0 01-1.072.03.603.603 0 01-.04-.418l.027-.076L4.819 3.567a.584.584 0 011.051-.07zM13.394 0a.6.6 0 01.595.52l.005.08v3.8h1.4a.6.6 0 01.595.518l.005.082a.6.6 0 01-.518.594l-.082.005h-1.4v5.8a.6.6 0 01-.52.596l-.08.005a.6.6 0 01-.595-.518l-.006-.082V.6a.6.6 0 01.6-.6h.001zm-7.95 5.398l-2.528 6.03h4.888l-2.36-6.031zM6.995.002h4.399a.6.6 0 01.595.518l.004.082v2.403a3.396 3.396 0 01-3.396 3.397.6.6 0 110-1.2 2.196 2.196 0 002.192-2.063l.004-.134V1.201H6.995A.6.6 0 016.913.006l.082-.005h4.399-4.399z" fill="#019934"/></symbol><symbol fill="none" viewBox="0 0 30 30" id="map-1" xmlns="http://www.w3.org/2000/svg"><circle cx="15" cy="15" r="15" fill="#F2994A"/><path d="M15 15a4.062 4.062 0 100-8.125A4.062 4.062 0 0015 15z" stroke="#fff" stroke-width="2"/><path d="M19.063 16.625h.286a2.438 2.438 0 012.418 2.135l.317 2.538a1.625 1.625 0 01-1.613 1.827H9.53a1.625 1.625 0 01-1.613-1.826l.317-2.539a2.437 2.437 0 012.42-2.135h.284" stroke="#fff" stroke-width="2" stroke-linecap="round" stroke-linejoin="round"/></symbol><symbol fill="none" viewBox="0 0 30 30" id="map-2" xmlns="http://www.w3.org/2000/svg"><circle cx="15" cy="15" r="15" fill="#019934"/><path d="M12.083 6c-.891 0-1.668.497-2.161 1.176-.494.68-.755 1.556-.755 2.505 0 .95.261 1.827.755 2.506.493.68 1.27 1.176 2.161 1.176.892 0 1.669-.497 2.162-1.176.493-.68.755-1.556.755-2.506 0-.949-.262-1.826-.755-2.505C13.752 6.496 12.975 6 12.083 6zM15 9.681c0 .95.262 1.827.755 2.506.493.68 1.27 1.176 2.162 1.176.891 0 1.668-.497 2.161-1.176.494-.68.755-1.556.755-2.506 0-.949-.261-1.826-.755-2.505C19.585 6.496 18.808 6 17.917 6c-.892 0-1.669.497-2.162 1.176-.493.68-.755 1.556-.755 2.505zm-2.917-2.045c.26 0 .547.128.809.486.258.358.441.927.441 1.56 0 .632-.183 1.202-.441 1.559-.262.358-.549.486-.809.486s-.546-.128-.808-.486c-.258-.358-.442-.927-.442-1.56 0-.632.184-1.202.442-1.559.262-.358.548-.486.808-.486zm5.834 0c.26 0 .546.128.808.486.258.358.442.927.442 1.56 0 .632-.184 1.202-.442 1.559-.262.358-.548.486-.808.486s-.547-.128-.809-.486c-.258-.358-.441-.927-.441-1.56 0-.632.183-1.202.441-1.559.262-.358.549-.486.809-.486zm-10 4.09c-.892 0-1.669.498-2.162 1.177-.493.68-.755 1.556-.755 2.505 0 .95.262 1.827.755 2.506.493.68 1.27 1.176 2.162 1.176.891 0 1.668-.498 2.161-1.177.494-.679.755-1.556.755-2.505 0-.949-.261-1.827-.755-2.506-.493-.679-1.27-1.175-2.161-1.175zm14.166 0c-.891 0-1.668.498-2.161 1.177-.494.68-.755 1.556-.755 2.505 0 .95.261 1.827.755 2.506.493.68 1.27 1.176 2.161 1.176.892 0 1.669-.498 2.162-1.177.493-.679.755-1.556.755-2.505 0-.949-.262-1.827-.755-2.506-.493-.679-1.27-1.175-2.162-1.175zM7.917 13.364c.26 0 .546.128.808.486.258.357.442.927.442 1.56 0 .632-.184 1.202-.442 1.559-.262.358-.548.485-.808.485s-.547-.127-.809-.485c-.258-.357-.441-.927-.441-1.56 0-.632.183-1.202.441-1.56.262-.357.549-.485.809-.485zm14.166 0c.26 0 .547.128.809.486.258.357.441.927.441 1.56 0 .632-.183 1.202-.441 1.559-.262.358-.549.485-.809.485s-.546-.127-.808-.485c-.258-.358-.442-.927-.442-1.56 0-.632.184-1.202.442-1.56.262-.357.548-.485.808-.485zM15 14.999c-1.11 0-1.886.708-2.267 1.33-.378.621-.611 1.138-.833 1.354-.127.129-.932.426-1.77.846-.42.21-.842.49-1.198.92-.358.43-.6 1.022-.6 1.688C8.332 22.707 9.65 24 11.25 24c.722 0 1.475-.23 2.213-.434.74-.209 1.538-.386 1.538-.386s.797.177 1.537.385c.738.204 1.491.433 2.213.433 1.6 0 2.917-1.292 2.917-2.863 0-.65-.245-1.244-.6-1.66-.355-.42-.781-.68-1.197-.897-.833-.433-1.652-.777-1.77-.895-.2-.194-.426-.728-.81-1.353C16.909 15.703 16.118 15 15 15zm0 1.636c.55 0 .61.131.858.537.25.405.437 1.093 1.042 1.688.688.67 1.556.818 2.188 1.149.317.165.559.34.704.51.144.17.208.325.208.614 0 .688-.55 1.227-1.25 1.227-.242 0-1.02-.18-1.745-.384-.725-.202-1.325-.434-2.005-.434-.68 0-1.28.232-2.005.434-.725.204-1.503.384-1.745.384-.7 0-1.25-.54-1.25-1.227 0-.33.07-.499.208-.666.139-.166.394-.33.704-.485.62-.31 1.483-.433 2.187-1.125.611-.603.794-1.313 1.042-1.714.243-.4.302-.51.858-.51l.001.002z" fill="#fff"/></symbol><symbol fill="none" viewBox="0 0 30 30" id="map-3" xmlns="http://www.w3.org/2000/svg"><circle cx="15" cy="15" r="15" fill="#8852FE"/><path d="M3.75 11.25L15 6.75l11.25 4.5L15 15.75l-11.25-4.5z" stroke="#fff" stroke-width="2" stroke-linejoin="round"/><path d="M9 13.5v7.063s2.517 2.687 6 2.687 6-2.687 6-2.687V13.5" stroke="#fff" stroke-width="2" stroke-linecap="round" stroke-linejoin="round"/></symbol><symbol fill="none" viewBox="0 0 16 16" id="poland-flag" xmlns="http://www.w3.org/2000/svg"><path d="M8 .5c4.15 0 7.5 3.35 7.5 7.5H.5C.5 3.85 3.85.5 8 .5z" fill="#F9F9F9"/><path d="M8 15.5A7.49 7.49 0 01.5 8h15c0 4.15-3.35 7.5-7.5 7.5z" fill="#ED4C5C"/></symbol><symbol fill="none" viewBox="0 0 12 8" id="question-arrow" xmlns="http://www.w3.org/2000/svg"><path d="M11 1.5l-5 5-5-5" stroke="#7E4EF6" stroke-width="2"/></symbol><symbol fill="none" viewBox="0 0 22 19" id="tg-blue" xmlns="http://www.w3.org/2000/svg"><path d="M21.937 1.73l-3.32 16.123c-.25 1.138-.903 1.421-1.831.885l-5.06-3.839-2.44 2.418c-.27.279-.496.511-1.017.511l.364-5.305 9.375-8.725c.408-.373-.088-.581-.633-.207l-11.59 7.516L.794 9.5C-.291 9.149-.31 8.38 1.02 7.845L20.538.1c.904-.349 1.694.207 1.4 1.63v-.002z" fill="#6948E7"/></symbol><symbol fill="none" viewBox="0 0 24 17" id="youtube-blue" xmlns="http://www.w3.org/2000/svg"><path d="M23.499 2.622a3.056 3.056 0 00-.771-1.336 2.997 2.997 0 00-1.32-.779C19.536 0 12.011 0 12.011 0S4.501-.012 2.61.507c-.498.141-.952.41-1.317.78-.366.37-.63.83-.77 1.335A32.034 32.034 0 000 8.512a32.467 32.467 0 00.523 5.861c.14.505.405.965.77 1.337.365.37.819.64 1.317.783 1.87.507 9.4.507 9.4.507s7.506 0 9.397-.507a3.01 3.01 0 001.32-.783 3.07 3.07 0 00.771-1.337c.344-1.932.512-3.897.5-5.861a32.278 32.278 0 00-.5-5.89zm-13.891 9.53V4.856l6.263 3.656-6.263 3.64z" fill="#6948E7"/></symbol></svg>