<?xml version="1.0" encoding="utf-8"?><svg xmlns="http://www.w3.org/2000/svg" xmlns:xlink="http://www.w3.org/1999/xlink"><symbol fill="none" viewBox="0 0 25 23" id="check" xmlns="http://www.w3.org/2000/svg"><path d="M24.208 4.925L13.912 21.177a2.582 2.582 0 01-3.562.8L1.96 16.66a2.581 2.581 0 012.762-4.36l6.21 3.934 8.915-14.072a2.581 2.581 0 014.36 2.762z" fill="#4CC539"/></symbol><symbol fill="none" viewBox="0 0 20 20" id="close" xmlns="http://www.w3.org/2000/svg"><path d="M11.832 10l7.788-7.788A1.294 1.294 0 1017.788.38L10 8.168 2.212.38A1.294 1.294 0 10.38 2.212L8.168 10 .38 17.788A1.294 1.294 0 001.296 20c.332 0 .664-.127.916-.38L10 11.832l7.788 7.788a1.292 1.292 0 001.832 0 1.294 1.294 0 000-1.832L11.832 10z" fill="#fff"/></symbol><symbol fill="none" viewBox="0 0 26 26" id="document-white" xmlns="http://www.w3.org/2000/svg"><path d="M14.27 3.25H9.75c-2.043 0-3.064 0-3.699.635-.634.634-.634 1.656-.634 3.698v10.834c0 2.042 0 3.064.634 3.698.635.635 1.656.635 3.7.635h6.5c2.042 0 3.063 0 3.698-.635.634-.634.634-1.656.634-3.698V9.564c0-.443 0-.664-.082-.863-.082-.2-.24-.356-.552-.669L15.8 3.885c-.313-.314-.47-.47-.668-.553-.2-.082-.42-.082-.864-.082z" stroke="#fff" stroke-width="2.167"/><path d="M9.75 14.083h6.5m-6.5 4.334h4.333" stroke="#fff" stroke-width="2.167" stroke-linecap="round"/><path d="M14.083 3.25v4.333c0 1.022 0 1.532.318 1.85.317.317.828.317 1.849.317h4.333" stroke="#fff" stroke-width="2.167"/></symbol><symbol fill="none" viewBox="0 0 12 27" id="dollar-white" xmlns="http://www.w3.org/2000/svg"><path d="M4.155 7.182c1.64-1.64 4.455-.464 4.455 1.846a1.695 1.695 0 103.39 0 6.01 6.01 0 00-4.305-5.755V2.14a1.695 1.695 0 10-3.39 0v1.13c-2.887.846-4.75 3.738-4.091 6.78a5.835 5.835 0 003.467 4.157l3.341 1.384c1.545.64 2.008 2.623.89 3.823-1.604 1.72-4.522.593-4.522-1.777a1.695 1.695 0 10-3.39 0 6 6 0 004.305 5.754v1.134a1.695 1.695 0 103.39 0v-1.137a5.947 5.947 0 002.525-1.486c2.947-2.914 1.892-7.873-1.9-9.444l-3.342-1.383c-1.563-.648-2.032-2.682-.823-3.893z" fill="#fff"/></symbol><symbol viewBox="0 0 30 30" id="hands" xmlns="http://www.w3.org/2000/svg"><path fill="#EE3E0E" d="M14.392 22.04c-.116.087-.237.168-.349.261-.258.219-.522.43-.763.667-.777.763-1.721.095-1.824-.647-.045-.317.038-.653.061-.969-.426.258-.945.412-1.449.059-.494-.35-.58-.865-.428-1.439-.166.092-.311.186-.466.256-.727.322-1.484-.16-1.538-.958-.06-.884.348-1.301 1.142-1.686.506-.245 1.301.277 1.419.898.048.25.008.517.008.776.164-.151.344-.325.531-.489.278-.244.558-.49.845-.724.266-.217.583-.304.922-.294.793.021 1.259.73.972 1.475-.044.112-.102.219-.118.359.111-.1.224-.197.334-.297.439-.4.962-.455 1.396-.148.476.336.679.953.455 1.461-.088.199-.236.373-.356.56-.054.082-.106.164-.16.243l-.634.636m.068-2.694c-.142.075-.295.135-.421.231-.182.141-.347.305-.514.464-.471.449-.955.886-1.404 1.357-.374.393-.357.916-.011 1.266.242.242.521.275.769.059a53.08 53.08 0 001.629-1.479c.224-.216.424-.464.59-.726.327-.52-.204-1.154-.638-1.172m-4.322.968c.124.252.206.506.357.709.201.27.479.271.726.045.339-.313.682-.623 1.003-.954.206-.21.403-.438.561-.688.253-.4.166-.892-.168-1.162-.208-.17-.43-.199-.604-.039-.522.479-1.043.957-1.538 1.465-.151.152-.216.391-.337.624m-2.059-1.16c0-.01-.004.049.001.104.043.495.495.763.941.556.345-.16.586-.422.726-.771.131-.331.029-.661-.259-.875-.364-.27-.483-.27-.853.005l-.18.13c-.263.195-.4.452-.376.851"/><path fill="#EE3E0E" d="M14.393 22.04l.632-.636c.473-.428.981-.353 1.325-.084.479.375.641.938.402 1.477-.294.667-.792 1.17-1.359 1.605-.27.205-.594.181-.899.074-.694-.24-.996-1.146-.588-1.756.155-.231.324-.452.487-.68m.472 2.085c.11-.044.252-.059.326-.137.36-.381.713-.771 1.045-1.174a.902.902 0 00.168-.455c.037-.342-.159-.575-.432-.745a.42.42 0 00-.564.073c-.395.429-.798.854-1.143 1.321-.305.419.068 1.066.6 1.117"/><path fill="#EE3E0E" d="M22.993 19.261c.177.423-.013.968-.425 1.277-.313.231-.68.325-1.049.297-.281-.021-.435.089-.564.298-.148.238-.285.483-.449.709-.326.453-.666.561-1.208.411-.418-.116-.446-.101-.579.313-.303.942-.883 1.271-1.859 1.052.078-.396.207-.521.59-.511.268.006.455-.107.607-.313a1.184 1.184 0 00-.033-1.467c-.486-.604-.979-1.2-1.474-1.797-.169-.205-.211-.436-.175-.7.232-.028.38.092.512.246.545.649 1.09 1.302 1.643 1.946.16.188.324.377.519.526.444.345.949.24 1.252-.233.291-.452.265-.935-.116-1.418-.373-.474-.77-.926-1.158-1.385-.183-.214-.383-.412-.553-.635a1.09 1.09 0 01-.174-.418c-.016-.076.047-.229.098-.24a.392.392 0 01.289.076c.102.079.162.205.25.305.604.707 1.205 1.42 1.826 2.115.165.188.381.34.596.473.352.219.648.166.931-.139.155-.17.289-.359.44-.533.075-.088.168-.164.263-.255"/><path fill="none" stroke="#EE3E0E" stroke-width=".25" stroke-miterlimit="10" d="M22.993 19.261c.177.423-.013.968-.425 1.277-.313.231-.68.325-1.049.297-.281-.021-.435.089-.564.298-.148.238-.285.483-.449.709-.326.453-.666.561-1.208.411-.418-.116-.446-.101-.579.313-.303.942-.883 1.271-1.859 1.052.078-.396.207-.521.59-.511.268.006.455-.107.607-.313a1.184 1.184 0 00-.033-1.467c-.486-.604-.979-1.2-1.474-1.797-.169-.205-.211-.436-.175-.7.232-.028.38.092.512.246.545.649 1.09 1.302 1.643 1.946.16.188.324.377.519.526.444.345.949.24 1.252-.233.291-.452.265-.935-.116-1.418-.373-.474-.77-.926-1.158-1.385-.183-.214-.383-.412-.553-.635a1.09 1.09 0 01-.174-.418c-.016-.076.047-.229.098-.24a.392.392 0 01.289.076c.102.079.162.205.25.305.604.707 1.205 1.42 1.826 2.115.165.188.381.34.596.473.352.219.648.166.931-.139.155-.17.289-.359.44-.533.075-.088.168-.164.263-.255z"/><path fill="#EE3E0E" d="M5.9 15.995c-.369.606-.824.462-1.301.212a5.371 5.371 0 00-.675-.303c-.566-.196-.913-.506-.609-1.387.341-.99.715-1.966 1.075-2.947.419-1.144.837-2.287 1.258-3.43.048-.132.098-.266.163-.388.176-.328.47-.472.828-.375.444.121.884.265 1.318.414.252.088.479.229.577.502.002.009.004.02.01.021.468.211.724.738 1.277.832.39.065.739-.021 1.07-.198.442-.237.859-.528 1.314-.735a4.88 4.88 0 011.192-.365c.461-.08.865.11 1.224.434a.53.53 0 01-.565.189c-.67-.154-1.272.024-1.849.346-.389.216-.76.467-1.158.66-.782.381-1.543.347-2.254-.193-.281-.216-.346-.195-.467.142l-1.832 5.139c-.068.193-.131.391-.209.58-.127.314-.049.572.182.811.441.456.876.919 1.311 1.38.202.215.181.285-.067.521-.197.188-.307.054-.418-.088-.372-.473-.739-.947-1.11-1.422-.081-.106-.166-.206-.285-.352m-2.136-.934c.062.066.128.183.226.229.316.158.646.291.969.435.311.139.398.112.568-.188.056-.101.091-.211.127-.32.291-.883.561-1.772.874-2.647.446-1.246.925-2.481 1.386-3.723.135-.363.114-.41-.254-.544-.294-.106-.598-.184-.895-.28-.395-.127-.412-.121-.554.268l-2.347 6.42c-.032.092-.053.187-.1.35"/><path fill="none" stroke="#EE3E0E" stroke-width=".25" stroke-miterlimit="10" d="M5.9 15.995c-.369.606-.824.462-1.301.212a5.371 5.371 0 00-.675-.303c-.566-.196-.913-.506-.609-1.387.341-.99.715-1.966 1.075-2.947.419-1.144.837-2.287 1.258-3.43.048-.132.098-.266.163-.388.176-.328.47-.472.828-.375.444.121.884.265 1.318.414.252.088.479.229.577.502.002.009.004.02.01.021.468.211.724.738 1.277.832.39.065.739-.021 1.07-.198.442-.237.859-.528 1.314-.735a4.88 4.88 0 011.192-.365c.461-.08.865.11 1.224.434a.53.53 0 01-.565.189c-.67-.154-1.272.024-1.849.346-.389.216-.76.467-1.158.66-.782.381-1.543.347-2.254-.193-.281-.216-.346-.195-.467.142l-1.832 5.139c-.068.193-.131.391-.209.58-.127.314-.049.572.182.811.441.456.876.919 1.311 1.38.202.215.181.285-.067.521-.197.188-.307.054-.418-.088-.372-.473-.739-.947-1.11-1.422-.081-.106-.166-.206-.285-.352zm-2.136-.934c.062.066.128.183.226.229.316.158.646.291.969.435.311.139.398.112.568-.188.056-.101.091-.211.127-.32.291-.883.561-1.772.874-2.647.446-1.246.925-2.481 1.386-3.723.135-.363.114-.41-.254-.544-.294-.106-.598-.184-.895-.28-.395-.127-.412-.121-.554.268l-2.347 6.42c-.032.092-.053.187-.1.35z"/><path fill="#EE3E0E" d="M27.713 14.65a2.523 2.523 0 00-.18-.457c-.764-1.543-1.528-3.082-2.29-4.625-.259-.523-.497-1.059-.761-1.58-.229-.457-.682-.67-1.082-.471-.514.256-1.008.557-1.5.854-.189.114-.277.31-.293.544a.495.495 0 01-.151.298c-.293.281-.647.302-.981.113a6.696 6.696 0 01-1.018-.69c-.688-.58-1.417-1.025-2.352-.935-.612-.095-1.129.129-1.626.425-1.77 1.053-3.37 2.336-4.964 3.629-.505.409-.609 1.196-.279 1.76a.962.962 0 00.657.479c.443.094.856-.002 1.24-.215.619-.343 1.227-.707 1.84-1.062.578-.332 1.157-.662 1.735-.996.192-.111.358-.087.506.082.065.073.138.141.202.217.563.668 1.113 1.347 1.688 2.004 1.387 1.591 2.783 3.17 4.178 4.752.222.252.425.248.672-.006.676-.698 1.355-1.393 2.018-2.104.184-.196.342-.344.631-.274.08.021.185-.011.263-.049.495-.236 1.002-.461 1.479-.732.355-.205.48-.552.368-.961m-3.078 1.525c-.478.501-.958.999-1.438 1.497l-.573.594c-.543-.608-1.082-1.199-1.604-1.802-1.32-1.526-2.635-3.058-3.953-4.587-.14-.162-.279-.324-.43-.477-.367-.369-.692-.435-1.164-.209-.326.158-.64.342-.953.522-.861.5-1.718 1.009-2.582 1.507-.14.082-.296.145-.453.188-.262.07-.545.105-.717-.16a.797.797 0 01-.018-.867.824.824 0 01.212-.236c1.437-1.131 2.84-2.309 4.411-3.256.113-.07.227-.137.333-.215.892-.654 2.368-.498 3.101.191.269.254.568.477.873.688.789.553 1.277.588 2.131.17.021.031.045.063.063.1.963 1.966 1.923 3.934 2.891 5.896.098.207-.011.33-.13.456m2.364-1.032c-.412.222-.834.424-1.255.627-.201.099-.327.035-.376-.192-.022-.11-.077-.216-.126-.319-.903-1.892-1.807-3.783-2.713-5.675a4.224 4.224 0 00-.256-.447c-.097-.149-.104-.268.072-.366.379-.213.752-.439 1.135-.646.268-.145.369-.104.506.178.578 1.191 1.148 2.385 1.731 3.574.445.908.905 1.811 1.356 2.715.044.087.07.182.121.313-.057.072-.108.191-.195.238"/><path fill="none" stroke="#EE3E0E" stroke-width=".25" stroke-miterlimit="10" d="M27.713 14.65a2.523 2.523 0 00-.18-.457c-.764-1.543-1.528-3.082-2.29-4.625-.259-.523-.497-1.059-.761-1.58-.229-.457-.682-.67-1.082-.471-.514.256-1.008.557-1.5.854-.189.114-.277.31-.293.544a.495.495 0 01-.151.298c-.293.281-.647.302-.981.113a6.696 6.696 0 01-1.018-.69c-.688-.58-1.417-1.025-2.352-.935-.612-.095-1.129.129-1.626.425-1.77 1.053-3.37 2.336-4.964 3.629-.505.409-.609 1.196-.279 1.76a.962.962 0 00.657.479c.443.094.856-.002 1.24-.215.619-.343 1.227-.707 1.84-1.062.578-.332 1.157-.662 1.735-.996.192-.111.358-.087.506.082.065.073.138.141.202.217.563.668 1.113 1.347 1.688 2.004 1.387 1.591 2.783 3.17 4.178 4.752.222.252.425.248.672-.006.676-.698 1.355-1.393 2.018-2.104.184-.196.342-.344.631-.274.08.021.185-.011.263-.049.495-.236 1.002-.461 1.479-.732.355-.205.48-.552.368-.961zm-3.078 1.525c-.478.501-.958.999-1.438 1.497l-.573.594c-.543-.608-1.082-1.199-1.604-1.802-1.32-1.526-2.635-3.058-3.953-4.587-.14-.162-.279-.324-.43-.477-.367-.369-.692-.435-1.164-.209-.326.158-.64.342-.953.522-.861.5-1.718 1.009-2.582 1.507-.14.082-.296.145-.453.188-.262.07-.545.105-.717-.16a.797.797 0 01-.018-.867.824.824 0 01.212-.236c1.437-1.131 2.84-2.309 4.411-3.256.113-.07.227-.137.333-.215.892-.654 2.368-.498 3.101.191.269.254.568.477.873.688.789.553 1.277.588 2.131.17.021.031.045.063.063.1.963 1.966 1.923 3.934 2.891 5.896.098.207-.011.33-.13.456zm2.364-1.032c-.412.222-.834.424-1.255.627-.201.099-.327.035-.376-.192-.022-.11-.077-.216-.126-.319-.903-1.892-1.807-3.783-2.713-5.675a4.224 4.224 0 00-.256-.447c-.097-.149-.104-.268.072-.366.379-.213.752-.439 1.135-.646.268-.145.369-.104.506.178.578 1.191 1.148 2.385 1.731 3.574.445.908.905 1.811 1.356 2.715.044.087.07.182.121.313-.057.072-.108.191-.195.238z"/><path fill="#FFF" d="M14.46 19.346c.434.021.965.652.638 1.172-.165.262-.366.51-.59.726-.53.507-1.078.996-1.629 1.479-.248.217-.526.185-.769-.059-.347-.35-.363-.873.011-1.266.449-.473.934-.908 1.403-1.357.168-.159.332-.323.515-.464.127-.097.279-.156.421-.231"/><path fill="none" stroke="#EE3E0E" stroke-width=".5" stroke-miterlimit="10" d="M14.46 19.346c.434.021.965.652.638 1.172-.165.262-.366.51-.59.726-.53.507-1.078.996-1.629 1.479-.248.217-.526.185-.769-.059-.347-.35-.363-.873.011-1.266.449-.473.934-.908 1.403-1.357.168-.159.332-.323.515-.464.127-.097.279-.156.421-.231z"/><path fill="#FFF" d="M10.138 20.313c.121-.23.186-.471.336-.625a40.906 40.906 0 011.538-1.463c.175-.16.397-.129.604.039.334.271.42.76.168 1.163a4.283 4.283 0 01-.561.688c-.321.329-.663.642-1.003.952-.246.229-.524.227-.726-.043-.15-.204-.232-.46-.356-.711"/><path fill="none" stroke="#EE3E0E" stroke-width=".5" stroke-miterlimit="10" d="M10.138 20.313c.121-.23.186-.471.336-.625a40.906 40.906 0 011.538-1.463c.175-.16.397-.129.604.039.334.271.42.76.168 1.163a4.283 4.283 0 01-.561.688c-.321.329-.663.642-1.003.952-.246.229-.524.227-.726-.043-.15-.204-.232-.46-.356-.711z"/><path fill="#FFF" d="M8.079 19.154c-.023-.399.113-.656.377-.853l.18-.13c.369-.273.488-.273.853-.005.288.214.39.544.259.875a1.39 1.39 0 01-.726.771c-.446.207-.898-.06-.941-.555-.006-.054-.002-.112-.002-.103"/><path fill="none" stroke="#EE3E0E" stroke-width=".5" stroke-miterlimit="10" d="M8.079 19.154c-.023-.399.113-.656.377-.853l.18-.13c.369-.273.488-.273.853-.005.288.214.39.544.259.875a1.39 1.39 0 01-.726.771c-.446.207-.898-.06-.941-.555-.006-.054-.002-.112-.002-.103z"/><path fill="#FFF" d="M14.865 24.125c-.531-.051-.904-.698-.6-1.115.345-.468.748-.894 1.143-1.322a.42.42 0 01.564-.072c.272.17.469.402.432.744a.902.902 0 01-.168.455c-.333.404-.686.795-1.045 1.174-.074.077-.216.092-.326.136"/><path fill="none" stroke="#EE3E0E" stroke-width=".5" stroke-miterlimit="10" d="M14.865 24.125c-.531-.051-.904-.698-.6-1.115.345-.468.748-.894 1.143-1.322a.42.42 0 01.564-.072c.272.17.469.402.432.744a.902.902 0 01-.168.455c-.333.404-.686.795-1.045 1.174-.074.077-.216.092-.326.136z"/></symbol><symbol viewBox="0 0 30 30" id="hello" xmlns="http://www.w3.org/2000/svg"><path fill="#EE3E0E" d="M27.787 15.39c-.441.08-.887.158-1.327.242-1.073.199-2.149.402-3.222.604-.014.002-.025 0-.059.003l-.238-1.255 4.606-.863.213 1.122c.005.023.017.046.025.07l.002.077zm-6.699-2.722l-.77-1.024c1.826-1.373 3.646-2.739 5.475-4.11l.771 1.024c-1.826 1.369-3.645 2.735-5.476 4.11M18.234 9.27l-1.185-.5c.646-1.522 1.283-3.034 1.929-4.562.395.166.78.33 1.182.498-.64 1.522-1.279 3.035-1.926 4.564M23.9 20.111c-.043-.385-.219-.709-.448-1.01L15.13 8.208c-.362-.473-.71-.961-1.098-1.412-.457-.531-1.044-.74-1.736-.531-.474.142-.789.48-1.037.894-2.739 4.567-5.477 9.135-8.22 13.699-.261.437-.439.892-.479 1.398-.06.781.092 1.512.56 2.155.226.313.452.626.694.926.733.901 1.694 1.278 2.836 1.151.392-.043.771-.191 1.156-.295.221-.061.439-.127.664-.191.135.258.256.51.396.75.099.17.2.346.339.482.713.699 1.581.924 2.536.699 1.79-.42 3.569-.877 5.354-1.32.482-.121.889-.37 1.16-.795.387-.604.374-1.231.07-1.862-.113-.235-.247-.461-.379-.703l.146-.046 4.223-1.225c.301-.088.604-.168.865-.353.531-.367.791-.865.72-1.518m-7.061 5.243c-.217.065-.438.114-.659.168-1.556.388-3.111.772-4.666 1.158a1.583 1.583 0 01-.912-.037c-.278-.095-.504-.252-.629-.531-.07-.154-.158-.305-.244-.473.418-.123.82-.24 1.224-.356 1.868-.542 3.735-1.082 5.604-1.63.105-.029.148-.008.196.088.12.236.252.468.379.699.022.043.046.084.065.127.16.363.024.673-.358.787m5.617-4.781c-.093.052-.194.09-.296.118-1.977.576-3.95 1.148-5.926 1.723L6.73 25.173c-.679.196-1.487-.075-1.912-.637l-.595-.793a2.347 2.347 0 01-.142-.209c-.18-.298-.252-.589-.252-.976a1.768 1.768 0 01.266-.965c2.748-4.576 5.494-9.154 8.241-13.732.048-.082.097-.163.157-.234.16-.189.341-.203.523-.036.064.06.123.132.178.202 2.734 3.58 5.47 7.16 8.203 10.74.348.452.694.905 1.039 1.36.06.078.114.162.153.25.087.189.043.33-.133.43"/></symbol><symbol fill="none" viewBox="0 0 29 29" id="house" xmlns="http://www.w3.org/2000/svg"><path d="M11.278 1.842h0l-.007.006-9.044 8.207a4.812 4.812 0 00-1.613 3.581v9.855c0 2.666 2.193 4.895 4.841 4.895h18.09c2.658 0 4.696-2.101 4.84-4.875v-9.875c0-1.346-.582-2.696-1.615-3.583l-9.04-8.205h0l-.008-.006c-1.9-1.637-4.544-1.637-6.444 0zM4.454 12.715l.024-.016.021-.02 9.023-8.187c.346-.226.67-.325.978-.325.328 0 .626.11.807.292l.007.006.007.007 9.005 8.172c.269.43.453.731.453 1.127v9.855c0 .763-.64 1.396-1.369 1.396H5.455c-.724 0-1.37-.656-1.37-1.396v-9.855c0-.54.135-.9.369-1.056z" fill="#FF4D35" stroke="#FF4D35" stroke-width=".771"/></symbol><symbol fill="none" viewBox="0 0 43 36" id="key" xmlns="http://www.w3.org/2000/svg"><path d="M27.801 13.25a1.988 1.988 0 100-3.975 1.988 1.988 0 000 3.976z" fill="#FF4D35"/><path d="M26.724 2.684l-.08.21.08-.21a5.22 5.22 0 00-5.538 1.174l.125.126-.125-.126-4.88 4.856a5.197 5.197 0 00-1.084 5.763c.236.53.49 1.048.76 1.552L5.392 26.618c-.274.275-.43.649-.43 1.038v5.467c0 .81.658 1.468 1.469 1.468h5.467c.81 0 1.468-.657 1.468-1.468v-2.011h2.01c.811 0 1.469-.657 1.469-1.468v-2.01h2.01a1.468 1.468 0 000-2.937h-3.478c-.811 0-1.468.657-1.468 1.468v2.01l-2.011.001c-.811 0-1.468.657-1.468 1.468v2.01H7.899v-3.39l10.952-10.951a1.468 1.468 0 00.217-1.8h0a19.87 19.87 0 01-1.163-2.229h0a2.248 2.248 0 01.473-2.49l4.88-4.855s0 0 0 0a2.28 2.28 0 012.418-.513c1.427.546 3.474 1.547 5.156 3.22l.159-.16-.16.16c1.693 1.684 2.728 3.762 3.298 5.216a2.242 2.242 0 01-.506 2.41l.16.159-.16-.16-4.938 4.915s0 0 0 0c-.654.65-1.63.842-2.488.485a15.892 15.892 0 01-2.205-1.125 1.468 1.468 0 00-1.536 2.502 18.77 18.77 0 002.613 1.333 5.205 5.205 0 005.688-1.114l4.937-4.915a5.176 5.176 0 001.168-5.563l-.21.082.21-.082c-.67-1.705-1.9-4.174-3.96-6.224-2.05-2.042-4.494-3.238-6.178-3.881z" fill="#FF4D35" stroke="#FF4D35" stroke-width=".451"/></symbol><symbol fill="none" viewBox="0 0 26 26" id="like-white" xmlns="http://www.w3.org/2000/svg"><path d="M20.852 7.713l-4.873.603.602-2.993a4.357 4.357 0 00-2.312-4.74 2.734 2.734 0 00-3.619 1.158L6.366 9.815a1.11 1.11 0 00-.797-.21l-4.436.55A1.117 1.117 0 00.162 11.4L1.81 24.708a1.117 1.117 0 001.246.972l4.436-.55a1.117 1.117 0 00.971-1.246l-.018-.146 1.735.87c.197.099.42.137.638.11l9.98-1.236a1.117 1.117 0 00.917-.736l3.052-8.616a4.764 4.764 0 00.235-2.162l-.14-1.129a3.6 3.6 0 00-4.01-3.126zM6.108 23.05l-2.218.275-1.373-11.09 2.218-.274L6.108 23.05zm16.677-10.807a2.52 2.52 0 01-.125 1.141l-2.82 7.966-8.963 1.11-2.76-1.386-.983-7.929 5.492-10.357a.48.48 0 01.642-.206 2.115 2.115 0 011.123 2.302l-.905 4.512a1.117 1.117 0 001.23 1.33l6.412-.794a1.362 1.362 0 011.518 1.183l.14 1.129z" fill="#fff"/><path d="M20.852 7.713l-4.873.603.602-2.993a4.357 4.357 0 00-2.312-4.74 2.734 2.734 0 00-3.619 1.158L6.366 9.815a1.11 1.11 0 00-.797-.21l-4.436.55A1.117 1.117 0 00.162 11.4L1.81 24.708a1.117 1.117 0 001.246.972l4.436-.55a1.117 1.117 0 00.971-1.246l-.018-.146 1.735.87c.197.099.42.137.638.11l9.98-1.236a1.117 1.117 0 00.917-.736l3.052-8.616a4.764 4.764 0 00.235-2.162l-.14-1.129a3.6 3.6 0 00-4.01-3.126zM6.108 23.05l-2.218.275-1.373-11.09 2.218-.274L6.108 23.05zm16.677-10.807a2.52 2.52 0 01-.125 1.141l-2.82 7.966-8.963 1.11-2.76-1.386-.983-7.929 5.492-10.357a.48.48 0 01.642-.206 2.115 2.115 0 011.123 2.302l-.905 4.512a1.117 1.117 0 001.23 1.33l6.412-.794a1.362 1.362 0 011.518 1.183l.14 1.129z" stroke="#fff"/></symbol><symbol fill="none" viewBox="0 0 16 19" id="phone" xmlns="http://www.w3.org/2000/svg"><path d="M14.66 12.449a9.356 9.356 0 01-2.887-.706c-.443-.195-.97-.117-1.295.165L8.51 13.154c-2.032-1.31-3.28-2.78-4.225-4.982l1.51-1.696c.37-.314.535-.805.426-1.287a9.353 9.353 0 01-.227-2.97A1.294 1.294 0 004.813.826L1.808.578A1.294 1.294 0 00.415 1.76c-.682 8.284 5.503 15.579 13.787 16.26a1.294 1.294 0 001.394-1.181l.246-2.996a1.294 1.294 0 00-1.181-1.394z" fill="#000"/></symbol><symbol fill="none" viewBox="0 0 26 29" id="pin" xmlns="http://www.w3.org/2000/svg"><path d="M13.63 27.023l-.729-1.406.73 1.406zm-1.26 0l.73-1.406-.73 1.406zm10.13-13.94c0 3.398-1.729 6.2-3.887 8.377-2.156 2.175-4.608 3.585-5.711 4.157l1.458 2.811c1.245-.645 4.019-2.234 6.502-4.738 2.482-2.503 4.805-6.062 4.805-10.607H22.5zm-9.5-9.5a9.5 9.5 0 019.5 9.5h3.167C25.667 6.088 19.996.417 13 .417v3.166zm-9.5 9.5a9.5 9.5 0 019.5-9.5V.417C6.005.417.334 6.087.334 13.083H3.5zm9.6 12.534c-1.104-.572-3.556-1.982-5.713-4.157C5.23 19.283 3.5 16.48 3.5 13.083H.334c0 4.545 2.323 8.104 4.805 10.607 2.483 2.504 5.257 4.093 6.502 4.738l1.458-2.81zm-.198 0a.22.22 0 01.098-.022.22.22 0 01.1.022l-1.459 2.811a2.937 2.937 0 002.719 0l-1.458-2.81zm3.265-12.2A3.167 3.167 0 0113 16.583v3.167a6.333 6.333 0 006.333-6.333h-3.166zM13 10.25a3.167 3.167 0 013.167 3.167h3.166A6.333 6.333 0 0013 7.083v3.167zm-3.167 3.167A3.167 3.167 0 0113 10.25V7.083a6.333 6.333 0 00-6.333 6.334h3.166zM13 16.583a3.167 3.167 0 01-3.167-3.166H6.667A6.333 6.333 0 0013 19.75v-3.167z" fill="#FF4D35"/></symbol></svg>