<svg xmlns="http://www.w3.org/2000/svg" viewBox="0 0 370.47 408.84"><defs><style>.cls-1{fill:#17110c}.cls-2{fill:#00c1a2}.cls-3{fill:#f7e3c6}</style></defs><g id="Слой_2" data-name="Слой 2"><g id="Layer_1" data-name="Layer 1"><path d="M150.62 189.1v-147L92.17 26.77 81.4 20.56c-2.47-1.43-6.78-1.25-9.64.4l-10 5.79H30.54l9.23 141.93a2.8 2.8 0 0 0 1.66 2.59l58.33 44c2.47 1.43 6.79 1.25 9.64-.4l38.87-22.44c1.65-.95 2.44-2.19 2.35-3.33z" class="cls-1"/><path d="M76.93 19.6a11.06 11.06 0 0 0-5.17 1.4l-10 5.79H30.54v147.37a2.78 2.78 0 0 0 1.66 2.58l67.56 38.53a8.68 8.68 0 0 0 4.47.95l.7-148.34z" class="cls-2"/><path d="M100.38 215.57a11 11 0 0 0 7.71-.09V66.13h-7.71z" class="cls-3"/><path d="M99.76 67.9L32.2 29.37c-2.47-1.42-2.16-3.92.69-5.56L71.76 1.36C74.62-.28 78.93-.46 81.4 1L149 39.49c2.47 1.42 2.16 3.92-.7 5.56L109.4 67.5c-2.85 1.64-7.17 1.82-9.64.4z" class="cls-2"/><path d="M148.27 42.32L109.4 64.76c-2.85 1.65-7.17 1.83-9.64.4L32.2 26.64a3.61 3.61 0 0 1-1.2-1.1c-.85 1.37-.47 2.85 1.23 3.83L99.76 67.9c2.47 1.42 6.79 1.24 9.64-.4l38.87-22.45c2.22-1.28 2.89-3.07 1.93-4.47a5.45 5.45 0 0 1-1.93 1.74z" class="cls-3"/><path d="M101.67 52.28l-45-26.07c-1.16-.67-1-1.83.32-2.61L75.2 13.1a5.06 5.06 0 0 1 4.52-.19L124.7 39c1.15.67 1 1.83-.33 2.6l-18.19 10.5a5 5 0 0 1-4.51.18z" class="cls-1"/><path d="M77.39 27.38l-2.61-1.51c-.16-.09-.14-.25 0-.36l2.51-1.45A.67.67 0 0 1 78 24l2.6 1.5c.16.09.14.25 0 .36L78 27.35a.68.68 0 0 1-.61.03zM86.1 32.39l-2.61-1.51c-.16-.09-.14-.25 0-.36l2.52-1.45a.68.68 0 0 1 .62 0l2.61 1.51c.16.09.14.25 0 .36l-2.52 1.45a.68.68 0 0 1-.62 0zM94.8 37.39l-2.6-1.5c-.16-.09-.14-.25 0-.36l2.52-1.45a.68.68 0 0 1 .62 0L98 35.55c.16.1.14.26 0 .36l-2.51 1.46a.7.7 0 0 1-.69.02zM103.51 42.4l-2.61-1.5c-.16-.1-.14-.26 0-.36l2.52-1.46a.68.68 0 0 1 .62 0l2.61 1.5c.16.09.14.26 0 .36l-2.51 1.46a.74.74 0 0 1-.63 0z" class="cls-2"/><path d="M56.69 26.21h.05c.09-.06.17-.13.27-.19L75.2 15.55a5.06 5.06 0 0 1 4.52-.19l44.92 26.05c1.07-.77 1.13-1.8.06-2.42l-45-26.08a5.06 5.06 0 0 0-4.52.19L57 23.6c-1.32.78-1.47 1.94-.31 2.61z" class="cls-3"/><path d="M117 97l25.58-14.65a6.26 6.26 0 0 0 2.6-5v-9.09c0-1.92-1.17-2.8-2.6-2L117 80.93a6.24 6.24 0 0 0-2.61 5v9.15c-.01 1.92 1.16 2.78 2.61 1.92z" class="cls-2"/><path d="M143.83 66a2.58 2.58 0 0 1 .66 1.91v9.14a6.24 6.24 0 0 1-2.61 5L116.3 96.68a1.88 1.88 0 0 1-1.3.32 1.55 1.55 0 0 0 2 0l25.58-14.65a6.26 6.26 0 0 0 2.6-5v-9.09c-.01-1.26-.55-2.11-1.35-2.26z" class="cls-3"/><path d="M124.68 87.09l2.32-1.35a1.38 1.38 0 0 0 .57-1.09v-2.5c0-.42-.26-.62-.57-.43l-2.35 1.35a1.38 1.38 0 0 0-.57 1.09v2.5c.03.42.29.61.6.43z" class="cls-1"/><path d="M132.53 82.56l2.34-1.35a1.35 1.35 0 0 0 .57-1.09v-2.5c0-.42-.25-.61-.57-.43l-2.34 1.35a1.35 1.35 0 0 0-.57 1.09v2.5c.04.42.25.61.57.43z" class="cls-3"/><path d="M117 163.12l25.58-14.65a6.26 6.26 0 0 0 2.6-5v-9.14c0-1.92-1.17-2.8-2.6-2L117 147a6.24 6.24 0 0 0-2.61 5v9.15c-.01 1.91 1.16 2.85 2.61 1.97z" class="cls-2"/><path d="M143.83 132.1a2.57 2.57 0 0 1 .66 1.9v9.15a6.24 6.24 0 0 1-2.61 5l-25.58 14.62a1.88 1.88 0 0 1-1.26.28 1.55 1.55 0 0 0 1.95.07l25.58-14.65a6.26 6.26 0 0 0 2.6-5v-9.14c0-1.33-.54-2.09-1.34-2.23z" class="cls-2"/><path d="M124.68 153.18l2.35-1.35a1.39 1.39 0 0 0 .57-1.09v-2.51c0-.41-.26-.61-.57-.42l-2.35 1.35a1.37 1.37 0 0 0-.57 1.08v2.51c0 .42.26.61.57.43z" class="cls-1"/><path d="M132.53 148.65l2.34-1.35a1.35 1.35 0 0 0 .57-1.09v-2.5c0-.42-.25-.61-.57-.43l-2.34 1.35a1.35 1.35 0 0 0-.57 1.09v2.5c.04.42.25.61.57.43z" class="cls-3"/><path d="M117 196.16l25.58-14.64a6.26 6.26 0 0 0 2.6-5v-9.15c0-1.92-1.17-2.8-2.6-2L117 180.07a6.24 6.24 0 0 0-2.61 5v9.15c-.01 1.89 1.16 2.78 2.61 1.94z" class="cls-2"/><path d="M143.83 165.15a2.55 2.55 0 0 1 .66 1.9v9.15a6.24 6.24 0 0 1-2.61 5l-25.58 14.62a1.86 1.86 0 0 1-1.26.27 1.55 1.55 0 0 0 1.95.07l25.58-14.64a6.26 6.26 0 0 0 2.6-5v-9.15c0-1.28-.54-2.09-1.34-2.22z" class="cls-2"/><path d="M124.68 186.22l2.35-1.35a1.37 1.37 0 0 0 .57-1.08v-2.51c0-.42-.26-.61-.57-.43l-2.35 1.35a1.39 1.39 0 0 0-.57 1.09v2.51c0 .41.26.61.57.42z" class="cls-1"/><path d="M132.53 181.7l2.34-1.36a1.35 1.35 0 0 0 .57-1.08v-2.51c0-.42-.25-.61-.57-.43l-2.34 1.36a1.33 1.33 0 0 0-.57 1.08v2.51c.04.41.25.61.57.43z" class="cls-3"/><path d="M117 130.07l25.58-14.64a6.26 6.26 0 0 0 2.6-5v-9.13c0-1.92-1.17-2.8-2.6-2L117 114a6.24 6.24 0 0 0-2.61 5v9.15c-.01 1.85 1.16 2.75 2.61 1.92z" class="cls-2"/><path d="M143.83 99.06a2.55 2.55 0 0 1 .66 1.9v9.15a6.24 6.24 0 0 1-2.61 5l-25.58 14.62a1.86 1.86 0 0 1-1.3.27 1.55 1.55 0 0 0 1.95.07l25.58-14.64a6.26 6.26 0 0 0 2.6-5v-9.13c.04-1.3-.5-2.11-1.3-2.24z" class="cls-3"/><path d="M124.68 120.14l2.35-1.36a1.37 1.37 0 0 0 .57-1.08v-2.51c0-.42-.26-.61-.57-.43l-2.35 1.35a1.39 1.39 0 0 0-.57 1.09v2.51c0 .41.26.61.57.43z" class="cls-1"/><path d="M132.53 115.61l2.34-1.36a1.33 1.33 0 0 0 .57-1.08v-2.51c0-.42-.25-.61-.57-.43l-2.34 1.36a1.33 1.33 0 0 0-.57 1.08v2.51c.04.42.25.61.57.43zM94.84 87.66l-59-34.06a5.71 5.71 0 0 1-2.4-4.6V37.78c0-1.76 1.07-2.57 2.4-1.81l59 34.03a5.71 5.71 0 0 1 2.39 4.57v11.29c0 1.76-1.07 2.57-2.39 1.8z" class="cls-3"/><path d="M93.15 83.72L37.53 51.61a2.92 2.92 0 0 1-1.21-2.32v-8.46c0-.89.54-1.3 1.21-.91L93.15 72a2.88 2.88 0 0 1 1.21 2.31v8.49c0 .9-.54 1.31-1.21.92z" class="cls-2"/><path d="M49.12 54l-8.3-4.79A2.81 2.81 0 0 1 39.64 47c0-.87.53-1.26 1.18-.89l8.3 4.79a2.84 2.84 0 0 1 1.18 2.25c0 .85-.53 1.25-1.18.85z" class="cls-2"/><ellipse cx="54.83" cy="55.75" class="cls-1" rx="1.11" ry="1.92" transform="rotate(-30 54.84 55.755)"/><path d="M61 59.31c0 .87-.61 1.22-1.36.78a3 3 0 0 1-1.36-2.35c0-.87.61-1.22 1.36-.79A3 3 0 0 1 61 59.31z" class="cls-1"/><path d="M65.79 62.08c0 .87-.61 1.22-1.36.78a3 3 0 0 1-1.36-2.35c0-.87.61-1.22 1.36-.79a3 3 0 0 1 1.36 2.36z" class="cls-2"/><path d="M70.59 64.85c0 .87-.61 1.22-1.36.78a3 3 0 0 1-1.36-2.35c0-.87.61-1.22 1.36-.79a3 3 0 0 1 1.36 2.36zM90.81 79L88 77.39a1.79 1.79 0 0 1-.75-1.39v-3c0-.55.34-.81.76-.57l2.8 1.57a1.85 1.85 0 0 1 .75 1.45v3c0 .55-.34.8-.75.55z" class="cls-1"/><path d="M94.84 107.5l-59-34.06a5.71 5.71 0 0 1-2.4-4.57V57.62c0-1.76 1.07-2.57 2.4-1.81l59 34.07a5.71 5.71 0 0 1 2.39 4.57v11.25c0 1.76-1.07 2.57-2.39 1.8z" class="cls-3"/><path d="M93.15 103.56L37.53 71.45a2.92 2.92 0 0 1-1.21-2.32v-8.46c0-.89.54-1.3 1.21-.91l55.62 32.11a2.88 2.88 0 0 1 1.21 2.31v8.46c0 .9-.54 1.36-1.21.92z" class="cls-2"/><path d="M49.12 73.86l-8.3-4.79a2.81 2.81 0 0 1-1.18-2.25c0-.87.53-1.26 1.18-.89l8.3 4.79A2.84 2.84 0 0 1 50.3 73c0 .84-.53 1.24-1.18.86z" class="cls-2"/><path d="M56.19 76.38c0 .86-.61 1.22-1.36.78a3 3 0 0 1-1.36-2.35c0-.87.61-1.22 1.36-.79a3 3 0 0 1 1.36 2.36z" class="cls-3"/><path d="M61 79.15c0 .87-.61 1.22-1.36.78a3 3 0 0 1-1.36-2.35c0-.87.61-1.22 1.36-.79A3 3 0 0 1 61 79.15z" class="cls-1"/><path d="M65.79 81.92c0 .87-.61 1.22-1.36.78a3 3 0 0 1-1.36-2.35c0-.87.61-1.22 1.36-.79a3 3 0 0 1 1.36 2.36z" class="cls-2"/><ellipse cx="69.23" cy="83.9" class="cls-1" rx="1.11" ry="1.92" transform="matrix(.87 -.5 .5 .87 -32.68 45.86)"/><path d="M90.81 98.85L88 97.23a1.79 1.79 0 0 1-.76-1.44v-3c0-.55.34-.81.76-.57l2.8 1.61a1.85 1.85 0 0 1 .75 1.45v3c.01.55-.33.81-.74.57z" class="cls-1"/><path d="M94.84 127.34l-59-34.06a5.71 5.71 0 0 1-2.4-4.57V77.46c0-1.76 1.07-2.57 2.4-1.81l59 34.07a5.71 5.71 0 0 1 2.39 4.57v11.25c0 1.76-1.07 2.57-2.39 1.8z" class="cls-3"/><path d="M93.15 123.4L37.53 91.29A2.92 2.92 0 0 1 36.32 89v-8.49c0-.89.54-1.3 1.21-.91l55.62 32.11a2.88 2.88 0 0 1 1.21 2.29v8.46c0 .92-.54 1.33-1.21.94z" class="cls-2"/><path d="M49.12 93.7l-8.3-4.79a2.81 2.81 0 0 1-1.18-2.25c0-.87.53-1.26 1.18-.89l8.3 4.79a2.84 2.84 0 0 1 1.18 2.25c0 .87-.53 1.27-1.18.89z" class="cls-2"/><path d="M56.19 96.22c0 .87-.61 1.22-1.36.78a3 3 0 0 1-1.36-2.35c0-.87.61-1.22 1.36-.79a3 3 0 0 1 1.36 2.36z" class="cls-3"/><path d="M61 99c0 .87-.61 1.22-1.36.78a3 3 0 0 1-1.36-2.35c0-.87.61-1.22 1.36-.79A3 3 0 0 1 61 99z" class="cls-1"/><path d="M65.79 101.76c0 .87-.61 1.22-1.36.78a3 3 0 0 1-1.36-2.35c0-.87.61-1.22 1.36-.79a3 3 0 0 1 1.36 2.36z" class="cls-2"/><path d="M70.59 104.53c0 .87-.61 1.22-1.36.79a3 3 0 0 1-1.36-2.32c0-.87.61-1.22 1.36-.79a3 3 0 0 1 1.36 2.32zM90.81 118.69L88 117.07a1.79 1.79 0 0 1-.76-1.44v-3c0-.55.34-.81.76-.57l2.8 1.61a1.85 1.85 0 0 1 .75 1.45v3c.01.55-.33.81-.74.57z" class="cls-1"/><path d="M94.84 147.18l-59-34.06a5.71 5.71 0 0 1-2.4-4.57V97.3c0-1.76 1.07-2.57 2.4-1.81l59 34.07a5.71 5.71 0 0 1 2.39 4.57v11.25c0 1.76-1.07 2.62-2.39 1.8z" class="cls-3"/><path d="M93.15 143.24l-55.62-32.11a2.92 2.92 0 0 1-1.21-2.32v-8.46c0-.89.54-1.3 1.21-.91l55.62 32.11a2.88 2.88 0 0 1 1.21 2.31v8.46c0 .9-.54 1.31-1.21.92z" class="cls-2"/><path d="M49.12 113.54l-8.3-4.79a2.81 2.81 0 0 1-1.18-2.25c0-.87.53-1.26 1.18-.89l8.3 4.79a2.84 2.84 0 0 1 1.18 2.25c0 .87-.53 1.27-1.18.89z" class="cls-2"/><path d="M56.19 116.06c0 .87-.61 1.22-1.36.78a3 3 0 0 1-1.36-2.35c0-.87.61-1.22 1.36-.79a3 3 0 0 1 1.36 2.36z" class="cls-1"/><ellipse cx="59.63" cy="118.04" class="cls-1" rx="1.11" ry="1.92" transform="rotate(-30 59.645 118.062)"/><path d="M65.79 121.6c0 .87-.61 1.22-1.36.78a3 3 0 0 1-1.36-2.38c0-.87.61-1.22 1.36-.79a3 3 0 0 1 1.36 2.39z" class="cls-2"/><path d="M70.59 124.37c0 .87-.61 1.22-1.36.79a3 3 0 0 1-1.36-2.36c0-.87.61-1.22 1.36-.79a3 3 0 0 1 1.36 2.36z" class="cls-1"/><path d="M90.81 138.53L88 136.91a1.79 1.79 0 0 1-.76-1.44v-3c0-.55.34-.81.76-.57l2.8 1.61a1.85 1.85 0 0 1 .75 1.45v3c.01.55-.33.81-.74.57z" class="cls-2"/><path d="M94.84 167l-59-34a5.71 5.71 0 0 1-2.4-4.57v-11.29c0-1.76 1.07-2.57 2.4-1.81l59 34.07a5.71 5.71 0 0 1 2.39 4.6v11.25c0 1.75-1.07 2.54-2.39 1.75z" class="cls-3"/><path d="M93.15 163.08L37.53 131a2.92 2.92 0 0 1-1.21-2.32v-8.46c0-.89.54-1.3 1.21-.91l55.62 32.11a2.88 2.88 0 0 1 1.21 2.31v8.46c0 .87-.54 1.28-1.21.89z" class="cls-2"/><path d="M49.12 133.38l-8.3-4.79a2.81 2.81 0 0 1-1.18-2.25c0-.87.53-1.26 1.18-.89l8.3 4.79a2.84 2.84 0 0 1 1.18 2.25c0 .87-.53 1.27-1.18.89z" class="cls-2"/><path d="M56.19 135.9c0 .87-.61 1.22-1.36.78a3 3 0 0 1-1.36-2.35c0-.87.61-1.22 1.36-.79a3 3 0 0 1 1.36 2.36z" class="cls-1"/><path d="M61 138.67c0 .87-.61 1.22-1.36.78a3 3 0 0 1-1.36-2.35c0-.87.61-1.22 1.36-.79a3 3 0 0 1 1.36 2.36z" class="cls-3"/><path d="M65.79 141.44c0 .87-.61 1.22-1.36.78a3 3 0 0 1-1.36-2.35c0-.87.61-1.22 1.36-.79a3 3 0 0 1 1.36 2.36z" class="cls-2"/><path d="M70.59 144.21c0 .87-.61 1.22-1.36.79a3 3 0 0 1-1.36-2.36c0-.87.61-1.22 1.36-.79a3 3 0 0 1 1.36 2.36z" class="cls-3"/><path d="M90.81 158.37L88 156.75a1.79 1.79 0 0 1-.76-1.44v-3c0-.55.34-.81.76-.57l2.8 1.61a1.85 1.85 0 0 1 .75 1.45v3c.01.55-.33.81-.74.57z" class="cls-2"/><path d="M94.84 186.86l-59-34.06a5.71 5.71 0 0 1-2.4-4.57V137c0-1.76 1.07-2.57 2.4-1.81l59 34.07a5.71 5.71 0 0 1 2.39 4.57v11.25c0 1.74-1.07 2.55-2.39 1.78z" class="cls-3"/><path d="M93.15 182.92l-55.62-32.11a2.92 2.92 0 0 1-1.21-2.32V140c0-.89.54-1.3 1.21-.91l55.62 32.11a2.88 2.88 0 0 1 1.21 2.31V182c0 .9-.54 1.31-1.21.92z" class="cls-2"/><path d="M49.12 153.22l-8.3-4.79a2.81 2.81 0 0 1-1.18-2.25c0-.87.53-1.26 1.18-.89l8.3 4.79a2.84 2.84 0 0 1 1.18 2.25c0 .87-.53 1.27-1.18.89z" class="cls-2"/><ellipse cx="54.83" cy="154.95" class="cls-1" rx="1.11" ry="1.92" transform="rotate(-30 54.84 154.954)"/><path d="M61 158.51c0 .87-.61 1.22-1.36.78a3 3 0 0 1-1.36-2.35c0-.87.61-1.22 1.36-.79a3 3 0 0 1 1.36 2.36z" class="cls-1"/><path d="M65.79 161.28c0 .87-.61 1.22-1.36.78a3 3 0 0 1-1.36-2.35c0-.87.61-1.22 1.36-.79a3 3 0 0 1 1.36 2.36z" class="cls-2"/><path d="M70.59 164.05c0 .87-.61 1.22-1.36.79a3 3 0 0 1-1.36-2.36c0-.87.61-1.22 1.36-.79a3 3 0 0 1 1.36 2.36zM90.81 178.21L88 176.59a1.79 1.79 0 0 1-.76-1.44v-3c0-.55.34-.81.76-.57l2.8 1.61a1.85 1.85 0 0 1 .75 1.45v3c.01.55-.33.81-.74.57z" class="cls-1"/><path d="M94.84 206.7l-59-34.06a5.71 5.71 0 0 1-2.4-4.57v-11.25c0-1.76 1.07-2.57 2.4-1.81l59 34.07a5.71 5.71 0 0 1 2.39 4.57v11.25c0 1.76-1.07 2.57-2.39 1.8z" class="cls-3"/><path d="M93.15 202.76l-55.62-32.11a2.92 2.92 0 0 1-1.21-2.32v-8.46c0-.89.54-1.3 1.21-.91l55.62 32.11a2.88 2.88 0 0 1 1.21 2.31v8.46c0 .9-.54 1.31-1.21.92z" class="cls-2"/><path d="M49.12 173.06l-8.3-4.79a2.81 2.81 0 0 1-1.18-2.27c0-.87.53-1.26 1.18-.89l8.3 4.79a2.84 2.84 0 0 1 1.18 2.25c0 .85-.53 1.29-1.18.91z" class="cls-2"/><path d="M57.71 176.65c0 1.64-1.15 2.3-2.57 1.49a5.69 5.69 0 0 1-2.57-4.46c0-1.63 1.15-2.3 2.57-1.48a5.68 5.68 0 0 1 2.57 4.45z" class="cls-3"/><path d="M67.65 182.47c0 .87-.61 1.22-1.36.78a3 3 0 0 1-1.36-2.35c0-.87.61-1.22 1.36-.79a3 3 0 0 1 1.36 2.36z" class="cls-1"/><path d="M72.45 185.24c0 .87-.61 1.22-1.36.78a3 3 0 0 1-1.36-2.35c0-.87.61-1.22 1.36-.79a3 3 0 0 1 1.36 2.36z" class="cls-2"/><path d="M77.25 188c0 .87-.61 1.22-1.36.78a3 3 0 0 1-1.36-2.35c0-.87.61-1.22 1.36-.79a3 3 0 0 1 1.36 2.36z" class="cls-1"/><path d="M90.81 198.05L88 196.43a1.79 1.79 0 0 1-.76-1.44v-3c0-.55.34-.81.76-.57l2.8 1.61a1.85 1.85 0 0 1 .75 1.45v3c.01.52-.33.81-.74.57z" class="cls-2"/><path d="M90.92 256.52a1.19 1.19 0 0 1-.58-.15l-67.08-38.12a2.61 2.61 0 0 1 0-4.5l28.78-17a3.38 3.38 0 0 0 1.64-2.89v-18.69a1.19 1.19 0 0 1 2.38 0v18.71a5.75 5.75 0 0 1-2.81 4.93l-28.78 17a.23.23 0 0 0-.11.2.21.21 0 0 0 .12.19l67.03 38.1a1.19 1.19 0 0 1 .45 1.62 1.18 1.18 0 0 1-1.04.6z" class="cls-3"/><path d="M70.58 238.83h6.37v13.75h-6.37z" class="cls-3" transform="rotate(119.83 73.767 245.703)"/><path d="M65.55 243.59a5 5 0 0 1 2.24-3.91c1.25-.72 2.26-.14 2.26 1.3a5 5 0 0 1-2.24 3.9c-1.24.73-2.25.12-2.26-1.29z" class="cls-3"/><path d="M81.84 242.51h10.33v21.57H81.84z" class="cls-3" transform="rotate(119.83 86.999 253.296)"/><path d="M79.35 245.23l-4-2.31a8.26 8.26 0 0 0-3.17 5.53l4 2.31a8.26 8.26 0 0 0 3.17-5.53z" class="cls-1"/><path d="M74 250.05a8.1 8.1 0 0 1 3.63-6.34c2-1.17 3.65-.23 3.66 2.1a8.06 8.06 0 0 1-3.63 6.33c-2.01 1.17-3.66.23-3.66-2.09z" class="cls-3"/><path d="M69.32 242.11a.64.64 0 0 1 0-1.22 2.33 2.33 0 0 1 2.12 0 .65.65 0 0 1 0 1.22 2.31 2.31 0 0 1-2.12 0z" class="cls-2"/><path d="M56.08 247.59h6.37v13.75h-6.37z" class="cls-3" transform="rotate(119.83 59.26 254.468)"/><path d="M51.05 252.36a5 5 0 0 1 2.24-3.91c1.24-.72 2.25-.15 2.26 1.29a5 5 0 0 1-2.25 3.91c-1.24.72-2.25.14-2.25-1.29z" class="cls-3"/><path d="M67.33 251.27h10.33v21.57H67.33z" class="cls-3" transform="rotate(119.83 72.495 262.056)"/><path d="M64.85 254l-4-2.32a8.28 8.28 0 0 0-3.17 5.53l4 2.32a8.26 8.26 0 0 0 3.17-5.53z" class="cls-1"/><path d="M59.5 258.81a8.06 8.06 0 0 1 3.63-6.33c2-1.17 3.65-.23 3.66 2.1a8.08 8.08 0 0 1-3.64 6.33c-2.01 1.17-3.65.23-3.65-2.1z" class="cls-3"/><path d="M54.81 250.88c-.58-.34-.59-.88 0-1.22a2.34 2.34 0 0 1 2.11 0c.59.34.59.88 0 1.22a2.31 2.31 0 0 1-2.11 0z" class="cls-2"/><path d="M295.44 149.76a.83.83 0 0 1-.27 0 1.18 1.18 0 0 1-.89-1.42L305.87 98a1.19 1.19 0 0 1 2.32.54l-11.59 50.3a1.19 1.19 0 0 1-1.16.92zM280 146.22a1.24 1.24 0 0 1-.27 0 1.2 1.2 0 0 1-.89-1.43l11.59-50.32a1.21 1.21 0 0 1 1.43-.9 1.19 1.19 0 0 1 .89 1.43l-11.59 50.32a1.2 1.2 0 0 1-1.16.9zM264.62 142.67h-.26a1.19 1.19 0 0 1-.89-1.43l11.59-50.32a1.19 1.19 0 1 1 2.31.53l-11.59 50.33a1.18 1.18 0 0 1-1.16.89z" class="cls-3"/><path d="M268.71 103.47h6.37v13.75h-6.37z" class="cls-3" transform="rotate(13.19 271.942 110.377)"/><path d="M272.23 118.82a5 5 0 0 1-4.39-1 1.38 1.38 0 0 1 .59-2.54 5 5 0 0 1 4.39 1 1.37 1.37 0 0 1-.59 2.54z" class="cls-3"/><path d="M270.22 84.71h10.33v21.57h-10.33z" class="cls-3" transform="rotate(13.19 275.395 95.515)"/><path d="M269.85 105.13l-1.06 4.53a8.25 8.25 0 0 0 6.2 1.46l1.06-4.53a8.24 8.24 0 0 0-6.2-1.46z" class="cls-1"/><path d="M276 108.88a8 8 0 0 1-7.1-1.67c-1.7-1.59-1.27-3.43 1-4.1a8.06 8.06 0 0 1 7.11 1.67c1.64 1.59 1.21 3.43-1.01 4.1z" class="cls-3"/><path d="M269.74 115.64c-.16.66-.68.82-1.17.35a2.31 2.31 0 0 1-.61-2c.15-.66.67-.81 1.16-.35a2.32 2.32 0 0 1 .62 2z" class="cls-2"/><path d="M283 111.98h6.37v13.75H283z" class="cls-3" transform="rotate(13.19 286.2 118.852)"/><path d="M286.51 127.33a4.93 4.93 0 0 1-4.38-1c-1.05-1-.79-2.11.59-2.53a5 5 0 0 1 4.39 1 1.37 1.37 0 0 1-.6 2.53z" class="cls-3"/><path d="M284.5 93.22h10.33v21.57H284.5z" class="cls-3" transform="rotate(13.19 289.702 104.028)"/><path d="M284.14 113.64l-1.07 4.53a8.23 8.23 0 0 0 6.21 1.45l1.06-4.53a8.21 8.21 0 0 0-6.2-1.45z" class="cls-1"/><path d="M290.28 117.39a8.09 8.09 0 0 1-7.11-1.67c-1.7-1.59-1.27-3.43 1-4.1a8.06 8.06 0 0 1 7.11 1.66c1.66 1.6 1.23 3.43-1 4.11z" class="cls-3"/><path d="M284 124.15a.65.65 0 0 1-1.17.35 2.35 2.35 0 0 1-.61-2c.16-.66.68-.82 1.17-.36a2.34 2.34 0 0 1 .61 2.01z" class="cls-2"/><path d="M297.45 120.42h6.37v13.75h-6.37z" class="cls-3" transform="rotate(13.19 300.675 127.302)"/><path d="M301 135.77a5 5 0 0 1-4.39-1c-1.05-1-.78-2.11.6-2.53a5 5 0 0 1 4.38 1 1.37 1.37 0 0 1-.59 2.53z" class="cls-3"/><path d="M298.95 101.66h10.33v21.57h-10.33z" class="cls-3" transform="rotate(13.19 304.177 112.478)"/><path d="M298.58 122.08l-1.06 4.53a8.21 8.21 0 0 0 6.2 1.45l1.07-4.53a8.27 8.27 0 0 0-6.21-1.45z" class="cls-1"/><path d="M304.73 125.83a8.06 8.06 0 0 1-7.11-1.67c-1.7-1.59-1.27-3.43 1-4.1a8.06 8.06 0 0 1 7.11 1.66c1.65 1.6 1.27 3.43-1 4.11z" class="cls-3"/><path d="M298.47 132.59c-.16.66-.68.81-1.17.35a2.31 2.31 0 0 1-.61-2c.15-.66.67-.82 1.17-.35a2.34 2.34 0 0 1 .61 2z" class="cls-2"/><path d="M343.52 166.73L205.49 87a5.54 5.54 0 0 0-4.68-.57l-.25.1h-.07l-5 1.91 4.51 2.22-.06.24-22.49 102.35c-1.13 5.12 1.12 11.1 5 13.36l134.71 77.77-.48 5.71 5.46-2.11a7.67 7.67 0 0 0 3.9-5.55l22.48-102.35c1.16-5.08-1.09-11.08-5-13.35z" class="cls-1"/><path d="M343.52 166.73L205.49 87a5.54 5.54 0 0 0-4.68-.57l-.25.1h-.07l-5 1.91 4.51 2.22-.06.24-14.82 67.46L252.65 211l95.23-38.75a10.62 10.62 0 0 0-4.36-5.52z" class="cls-1"/><path d="M338.32 182.46l10.5-4.48c.2-4.07-1.49-8.27-4.25-10.52l-16.64 7z" class="cls-1"/><path d="M311.92 289.55l-138-79.69c-3.9-2.26-6.16-8.24-5-13.36l22.41-102.35c1.13-5.12 5.21-7.44 9.11-5.19l138 79.7c3.9 2.25 6.16 8.23 5 13.35L321 284.36c-1.1 5.12-5.18 7.45-9.08 5.19z" class="cls-2"/><path d="M308.93 281.94L179.11 207c-3.58-2.06-5.64-7.53-4.61-12.22l20.57-93.65c1-4.69 4.77-6.82 8.34-4.75l129.82 74.91c3.57 2.06 5.64 7.54 4.61 12.22l-20.58 93.66c-1.03 4.7-4.76 6.83-8.33 4.77z" class="cls-3"/><path d="M308.93 281.94L179.11 207c-3.58-2.06-5.64-7.53-4.61-12.22l20.57-93.65c1-4.69 4.77-6.82 8.34-4.75l129.82 74.91c3.57 2.06 5.64 7.54 4.61 12.22l-20.58 93.66c-1.03 4.7-4.76 6.83-8.33 4.77z" class="cls-3"/><path d="M313.82 293L295 290.53l-121.8-70.32c-3.91-2.26-10.73-2-15.24.63l-86.35 49.81-11.41-1.51v6.48c-.07 1.5.78 2.93 2.62 4l138 79.69c3.91 2.26 10.73 2 15.24-.63l94-54.25c2.53-1.46 3.8-3.35 3.72-5.12z" class="cls-1"/><path d="M222.31 248.59l-8.66-5h-95.13l-46.91 27.06-11.41-1.51v6.48c-.07 1.5.78 2.93 2.62 4l138 79.69a14.23 14.23 0 0 0 7.86 1.48z" class="cls-1"/><path d="M65.27 269.81l-5.07-.67v6.48c-.07 1.5.78 2.93 2.62 4l2.44 1.4z" class="cls-3"/><path d="M202.26 360a17.72 17.72 0 0 0 13-.8v-14.48h-13z" class="cls-1"/><path d="M200.87 352.85l-138-79.7c-3.9-2.25-3.41-6.19 1.1-8.79l94-54.25c4.51-2.6 11.33-2.89 15.24-.63l138 79.69c3.91 2.26 3.42 6.19-1.09 8.8l-94 54.25c-4.52 2.6-11.34 2.88-15.25.63z" class="cls-2"/><path d="M310.1 295.6l-94 54.25c-4.51 2.6-11.33 2.89-15.24.63l-138-79.69a5.12 5.12 0 0 1-2.42-2.66c-.61 1.85.16 3.72 2.42 5l138 79.7c3.91 2.25 10.73 2 15.24-.63l94-54.25c3-1.75 4.23-4.1 3.52-6.14a7.34 7.34 0 0 1-3.52 3.79z" class="cls-3"/><path d="M121.54 246.77l-6.24-3.61c-.5-.29-.44-.79.14-1.13l7.37-4.25a2.16 2.16 0 0 1 2-.08l6.24 3.6c.5.29.44.8-.14 1.13l-7.37 4.26a2.19 2.19 0 0 1-2 .08zM131.19 252.34l-6.25-3.61c-.5-.29-.44-.79.14-1.13l7.37-4.25a2.2 2.2 0 0 1 2-.09l6.25 3.61c.5.29.44.8-.14 1.13l-7.38 4.26a2.17 2.17 0 0 1-1.99.08zM140.83 257.91l-6.24-3.61c-.5-.29-.44-.8.14-1.13l7.37-4.26a2.19 2.19 0 0 1 2-.08l6.24 3.61c.5.29.44.79-.14 1.13l-7.37 4.25a2.17 2.17 0 0 1-2 .09zM154.17 253.31l-6.24-3.61c-.5-.29-.44-.79.14-1.13l6.19-3.57a2.14 2.14 0 0 1 2-.08l6.25 3.6c.5.29.44.8-.14 1.13l-6.19 3.58a2.19 2.19 0 0 1-2.01.08zM163.82 258.88l-6.25-3.61c-.5-.29-.44-.8.14-1.13l6.19-3.57a2.16 2.16 0 0 1 2-.08l6.24 3.6c.5.29.44.8-.14 1.13l-6.19 3.57a2.14 2.14 0 0 1-1.99.09zM173.46 264.44l-6.24-3.6c-.5-.29-.44-.8.14-1.13l6.19-3.57a2.18 2.18 0 0 1 1.95-.09l6.25 3.61c.5.29.44.8-.14 1.13l-6.19 3.57a2.16 2.16 0 0 1-1.96.08zM183.11 270l-6.25-3.6c-.5-.29-.44-.8.14-1.13l6.19-3.58a2.19 2.19 0 0 1 2-.08l6.24 3.61c.5.29.44.79-.14 1.13l-6.19 3.57a2.14 2.14 0 0 1-1.99.08zM192.75 275.58l-6.24-3.6c-.5-.29-.44-.8.14-1.13l6.19-3.58a2.17 2.17 0 0 1 1.95-.08l6.21 3.61c.5.29.44.79-.14 1.13l-6.19 3.57a2.19 2.19 0 0 1-1.92.08zM202.4 281.15l-6.25-3.61c-.5-.29-.44-.79.14-1.13l6.19-3.57a2.19 2.19 0 0 1 2-.08l6.24 3.61c.5.29.44.79-.14 1.13l-6.19 3.57a2.17 2.17 0 0 1-1.99.08zM212 286.72l-6.24-3.61c-.5-.29-.44-.79.14-1.13l6.19-3.57a2.17 2.17 0 0 1 2-.08l6.25 3.61c.5.28.44.79-.14 1.12l-6.2 3.58a2.19 2.19 0 0 1-2 .08zM221.69 292.29l-6.25-3.61c-.5-.29-.44-.79.14-1.13l6.19-3.57a2.16 2.16 0 0 1 2-.08l6.24 3.6c.5.29.44.8-.14 1.13l-6.19 3.58a2.17 2.17 0 0 1-1.99.08zM231.33 297.86l-6.24-3.61c-.5-.29-.44-.8.14-1.13l6.19-3.57a2.14 2.14 0 0 1 2-.08l6.25 3.6c.5.29.44.8-.14 1.13l-6.19 3.57a2.17 2.17 0 0 1-2.01.09zM241 303.42l-6.25-3.6c-.5-.29-.44-.8.14-1.13l6.19-3.57a2.2 2.2 0 0 1 2-.09l6.24 3.61c.51.29.44.8-.14 1.13l-6.19 3.57a2.14 2.14 0 0 1-1.99.08zM168.38 250.67l-6.24-3.61c-.5-.28-.44-.79.14-1.12l6.19-3.58a2.17 2.17 0 0 1 1.95-.08l6.25 3.61c.5.29.44.79-.14 1.13l-6.19 3.57a2.19 2.19 0 0 1-1.96.08zM158.6 245l-6.25-3.61c-.5-.29-.44-.79.14-1.13l6.19-3.57a2.17 2.17 0 0 1 1.95-.08l6.25 3.61c.5.29.44.79-.14 1.13l-6.19 3.57a2.17 2.17 0 0 1-1.95.08zM148.79 239.36l-13.45-7.77c-.5-.29-.44-.79.14-1.13l6.19-3.57a2.17 2.17 0 0 1 2-.08l13.46 7.76c.5.29.43.8-.15 1.13l-6.18 3.58a2.19 2.19 0 0 1-2.01.08zM155.64 232.47l-10.91-6.3c-.5-.29-.44-.79.14-1.13l6.19-3.57a2.14 2.14 0 0 1 1.95-.08l10.92 6.3c.5.29.44.8-.14 1.13l-6.19 3.57a2.16 2.16 0 0 1-1.96.08zM178 256.24l-6.25-3.61c-.5-.29-.43-.79.14-1.13l6.19-3.57a2.19 2.19 0 0 1 2-.08l6.24 3.61c.51.29.44.79-.14 1.13l-6.18 3.57a2.19 2.19 0 0 1-2 .08zM187.67 261.81l-6.24-3.61c-.5-.29-.44-.79.14-1.13l6.19-3.57a2.17 2.17 0 0 1 2-.08L196 257c.5.29.44.8-.14 1.13l-6.19 3.58a2.19 2.19 0 0 1-2 .1zM197.32 267.38l-6.25-3.61c-.5-.29-.43-.79.14-1.13l6.19-3.57a2.16 2.16 0 0 1 2-.08l6.24 3.6c.51.29.44.8-.14 1.13l-6.18 3.58a2.19 2.19 0 0 1-2 .08zM207 273l-6.24-3.61c-.5-.29-.44-.8.14-1.13l6.19-3.57a2.14 2.14 0 0 1 1.95-.08l6.25 3.6c.5.29.44.8-.14 1.13l-6.19 3.57a2.2 2.2 0 0 1-1.96.09zM216.61 278.51l-6.25-3.6c-.5-.29-.43-.8.14-1.13l6.19-3.57a2.17 2.17 0 0 1 2-.09l6.24 3.61c.51.29.44.8-.14 1.13l-6.18 3.57a2.16 2.16 0 0 1-2 .08zM226.25 284.08l-6.24-3.6c-.5-.29-.44-.8.14-1.13l6.19-3.58a2.17 2.17 0 0 1 1.95-.08l6.25 3.61c.5.29.44.79-.14 1.13l-6.19 3.57a2.16 2.16 0 0 1-1.96.08zM235.9 289.65l-6.25-3.65c-.5-.28-.43-.79.14-1.12l6.19-3.58a2.19 2.19 0 0 1 2-.08l6.24 3.61c.51.29.44.79-.14 1.13l-6.18 3.57a2.19 2.19 0 0 1-2 .12zM245.54 295.22l-6.24-3.61c-.5-.29-.44-.79.14-1.13l6.19-3.57a2.17 2.17 0 0 1 2-.08l6.25 3.61c.5.29.44.79-.14 1.13l-6.19 3.57a2.19 2.19 0 0 1-2.01.08zM255.19 300.79l-6.25-3.61c-.5-.29-.43-.79.14-1.13l6.19-3.57a2.19 2.19 0 0 1 2-.08l6.25 3.6c.5.29.43.8-.15 1.13l-6.18 3.58a2.19 2.19 0 0 1-2 .08zM272.34 310.69l-13.63-7.87c-.5-.29-.44-.8.14-1.13l6.19-3.57A2.14 2.14 0 0 1 267 298l13.63 7.86c.5.29.44.8-.14 1.13l-6.19 3.58a2.17 2.17 0 0 1-1.96.12zM291.11 299.85l-11.5-6.64c-.5-.29-.44-.8.14-1.13l6.19-3.58a2.19 2.19 0 0 1 2-.08l11.5 6.64c.5.29.44.8-.14 1.13l-6.19 3.58a2.19 2.19 0 0 1-2 .08zM194.92 255.15l-6.25-3.61c-.5-.29-.43-.79.14-1.13l6.19-3.57a2.19 2.19 0 0 1 2-.08l6.25 3.61c.5.29.43.79-.15 1.13l-6.18 3.57a2.19 2.19 0 0 1-2 .08zM185 249.44l-6.24-3.6c-.5-.29-.44-.8.14-1.13l6.19-3.58a2.17 2.17 0 0 1 1.95-.08l6.25 3.61c.5.29.44.79-.14 1.13l-6.15 3.57a2.16 2.16 0 0 1-2 .08zM175.15 243.74l-6.25-3.61c-.5-.29-.43-.8.14-1.13l6.19-3.57a2.16 2.16 0 0 1 2-.08l6.25 3.6c.5.29.43.8-.15 1.13l-6.18 3.57a2.17 2.17 0 0 1-2 .09zM165.26 238l-6.26-3.58c-.5-.29-.44-.79.14-1.13l6.19-3.57a2.17 2.17 0 0 1 2-.08l6.25 3.6c.5.29.44.8-.14 1.13l-6.22 3.63a2.19 2.19 0 0 1-1.96 0zM204.56 260.72l-6.24-3.61c-.5-.29-.44-.79.14-1.13l6.19-3.57a2.17 2.17 0 0 1 1.95-.08l6.25 3.6c.5.29.44.8-.14 1.13l-6.19 3.58a2.19 2.19 0 0 1-1.96.08zM214.21 266.29l-6.21-3.61c-.5-.29-.43-.79.14-1.13l6.19-3.57a2.16 2.16 0 0 1 2-.08l6.25 3.6c.5.29.43.8-.15 1.13l-6.18 3.58a2.19 2.19 0 0 1-2.04.08zM223.86 271.86l-6.25-3.61c-.5-.29-.44-.8.14-1.13l6.19-3.57a2.14 2.14 0 0 1 1.95-.08l6.25 3.6c.5.29.44.8-.14 1.13l-6.19 3.57a2.14 2.14 0 0 1-1.95.09zM233.5 277.42l-6.25-3.6c-.5-.29-.43-.8.14-1.13l6.19-3.57a2.2 2.2 0 0 1 2-.09l6.25 3.61c.5.29.43.8-.15 1.13l-6.18 3.57a2.16 2.16 0 0 1-2 .08zM243.15 283l-6.25-3.6c-.5-.29-.44-.8.14-1.13l6.19-3.58a2.17 2.17 0 0 1 2-.08l6.25 3.61c.5.29.44.79-.14 1.13l-6.19 3.57a2.14 2.14 0 0 1-2 .08zM252.79 288.56l-6.25-3.6c-.5-.29-.43-.8.15-1.13l6.18-3.58a2.19 2.19 0 0 1 2-.08l6.25 3.61c.5.29.43.79-.14 1.13l-6.19 3.57a2.19 2.19 0 0 1-2 .08zM262.44 294.13l-6.25-3.61c-.5-.29-.44-.79.14-1.13l6.19-3.57a2.17 2.17 0 0 1 2-.08l6.25 3.61c.5.29.44.79-.14 1.13l-6.19 3.57a2.17 2.17 0 0 1-2 .08zM272.08 299.7l-6.25-3.61c-.5-.29-.43-.79.15-1.13l6.18-3.57a2.19 2.19 0 0 1 2-.08l6.25 3.6c.5.29.43.8-.14 1.13l-6.27 3.58a2.19 2.19 0 0 1-1.92.08zM281.73 305.27l-6.25-3.61c-.5-.29-.44-.79.14-1.13l6.19-3.57a2.16 2.16 0 0 1 2-.08l6.24 3.6c.5.29.44.8-.14 1.13l-6.19 3.58a2.17 2.17 0 0 1-1.99.08zM189.84 241.38l-6.24-3.61c-.51-.29-.44-.79.14-1.13l6.18-3.57a2.16 2.16 0 0 1 2-.08l6.25 3.6c.5.29.43.8-.14 1.13l-6.19 3.58a2.19 2.19 0 0 1-2 .08zM180.24 235.84l-6.24-3.61c-.5-.29-.44-.8.14-1.13l6.19-3.57a2.14 2.14 0 0 1 1.95-.08l6.25 3.6c.5.29.44.8-.14 1.13l-6.19 3.57a2.2 2.2 0 0 1-1.96.09zM170.65 230.29l-6.25-3.6c-.5-.29-.44-.8.14-1.13l6.19-3.57a2.16 2.16 0 0 1 2-.08l6.24 3.6c.5.29.44.8-.14 1.13l-6.19 3.57a2.14 2.14 0 0 1-1.99.08zM161.05 224.75l-6.25-3.6c-.5-.29-.43-.8.14-1.13l6.19-3.57a2.17 2.17 0 0 1 2-.09l6.25 3.61c.5.29.43.8-.15 1.13l-6.23 3.57a2.16 2.16 0 0 1-1.95.08zM170.92 219.06l-6.25-3.61c-.5-.29-.44-.8.14-1.13l2.05-1.18a2.16 2.16 0 0 1 2-.08l6.24 3.6c.5.29.44.8-.14 1.13l-2 1.18a2.14 2.14 0 0 1-2.04.09zM183.44 226.29l-6.24-3.61c-.5-.29-.44-.79.14-1.13l2-1.18a2.19 2.19 0 0 1 2-.08l6.25 3.61c.5.28.43.79-.15 1.12l-2 1.19a2.19 2.19 0 0 1-2 .08zM193 231.8l-6.25-3.6c-.5-.29-.43-.8.14-1.13l2.05-1.18a2.16 2.16 0 0 1 2-.08l6.24 3.6c.5.29.44.8-.14 1.13l-2 1.18a2.16 2.16 0 0 1-2.04.08zM202.56 237.32l-6.25-3.6c-.5-.29-.44-.8.14-1.13l2.05-1.18a2.18 2.18 0 0 1 1.95-.09l6.25 3.61c.5.29.44.8-.14 1.13l-2.05 1.18a2.14 2.14 0 0 1-1.95.08zM212.11 242.84l-6.24-3.61c-.5-.29-.44-.79.14-1.13l2-1.18a2.19 2.19 0 0 1 2-.08l6.25 3.61c.5.29.44.79-.14 1.13l-2.05 1.18a2.19 2.19 0 0 1-1.96.08zM265.47 273.65l-6.25-3.65c-.5-.29-.43-.8.14-1.13l2.05-1.18a2.16 2.16 0 0 1 2-.08l6.24 3.6c.5.29.44.8-.14 1.13l-2 1.18a2.2 2.2 0 0 1-2.04.13zM275 279.16l-6.25-3.6c-.5-.29-.44-.8.14-1.13l2.05-1.18a2.14 2.14 0 0 1 1.95-.08l6.25 3.6c.5.29.44.8-.14 1.13l-2 1.18a2.14 2.14 0 0 1-2 .08zM284.58 284.68l-6.24-3.61c-.5-.28-.44-.79.14-1.12l2-1.19a2.19 2.19 0 0 1 2-.08l6.25 3.61c.5.29.44.79-.14 1.13l-2 1.18a2.19 2.19 0 0 1-2.01.08zM294.14 290.2l-6.24-3.61c-.51-.29-.44-.79.14-1.13l2-1.18a2.19 2.19 0 0 1 2-.08l6.24 3.61c.51.29.44.79-.14 1.13l-2 1.18a2.19 2.19 0 0 1-2 .08zM199.49 246.94l-6.25-3.6c-.5-.29-.44-.8.14-1.13l6.19-3.57a2.16 2.16 0 0 1 2-.08l6.24 3.6c.5.29.44.8-.14 1.13l-6.19 3.57a2.14 2.14 0 0 1-1.99.08zM209.13 252.51l-6.24-3.6c-.51-.29-.44-.8.14-1.13l6.18-3.57a2.17 2.17 0 0 1 2-.09l6.25 3.61c.5.29.44.8-.14 1.13l-6.19 3.57a2.16 2.16 0 0 1-2 .08zM218.78 258.08l-6.25-3.6c-.5-.29-.44-.8.14-1.13l6.19-3.58a2.19 2.19 0 0 1 2-.08l6.24 3.61c.5.29.44.79-.14 1.13l-6.23 3.57a2.14 2.14 0 0 1-1.95.08zM228.42 263.65l-6.24-3.65c-.51-.28-.44-.79.14-1.12l6.18-3.58a2.19 2.19 0 0 1 2-.08l6.25 3.61c.5.29.44.79-.14 1.13l-6.19 3.57a2.19 2.19 0 0 1-2 .12zM238.07 269.22l-6.25-3.61c-.5-.29-.44-.79.14-1.13l6.19-3.57a2.19 2.19 0 0 1 2-.08l6.24 3.61c.5.29.44.79-.14 1.13l-6.25 3.57a2.17 2.17 0 0 1-1.93.08zM247.71 274.79l-6.24-3.61c-.51-.29-.44-.79.14-1.13l6.18-3.57a2.19 2.19 0 0 1 2-.08L256 270c.5.29.44.8-.14 1.13l-6.19 3.58a2.19 2.19 0 0 1-1.96.08zM257.36 280.36l-6.25-3.61c-.5-.29-.44-.79.14-1.13l6.19-3.57a2.16 2.16 0 0 1 2-.08l6.24 3.6c.5.29.44.8-.14 1.13l-6.19 3.58a2.17 2.17 0 0 1-1.99.08zM267 285.92l-6.24-3.6c-.51-.29-.44-.8.14-1.13l6.18-3.57a2.16 2.16 0 0 1 2-.08l6.25 3.6c.5.29.44.8-.14 1.13l-6.19 3.57a2.16 2.16 0 0 1-2 .08zM276.65 291.49l-6.25-3.6c-.5-.29-.44-.8.14-1.13l6.19-3.57a2.16 2.16 0 0 1 2-.09l6.24 3.61c.5.29.44.8-.14 1.13l-6.19 3.57a2.14 2.14 0 0 1-1.99.08zM144.34 247.63L126 237c-.5-.29-.44-.79.14-1.13l6.19-3.57a2.19 2.19 0 0 1 2-.08l18.39 10.62c.5.29.44.79-.14 1.13l-6.19 3.57a2.16 2.16 0 0 1-2.05.09zM262.84 316l-18.4-10.62c-.5-.29-.44-.79.14-1.13l6.19-3.57a2.19 2.19 0 0 1 2-.08l18.39 10.62c.5.29.44.8-.14 1.13l-6.23 3.65a2.14 2.14 0 0 1-1.95 0zM224.26 306.07l-6.24-3.6c-.5-.29-.44-.8.14-1.13l7.37-4.26a2.19 2.19 0 0 1 2-.08l6.24 3.61c.5.29.44.79-.14 1.13l-7.41 4.26a2.16 2.16 0 0 1-1.96.07zM154.22 265.64l-10-5.77c-.5-.29-.44-.8.14-1.13l7.37-4.26a2.19 2.19 0 0 1 2-.08l10 5.77c.5.29.44.79-.14 1.13l-7.37 4.25a2.2 2.2 0 0 1-2 .09zM215 300.71l-10-5.77c-.5-.29-.44-.79.14-1.13l7.37-4.25a2.16 2.16 0 0 1 2-.08l10 5.76c.5.29.44.8-.14 1.13l-7.37 4.26a2.19 2.19 0 0 1-2 .08zM168.14 273.67l-10-5.77c-.5-.29-.44-.79.14-1.13l7.37-4.25a2.16 2.16 0 0 1 2-.08l10 5.76c.5.29.43.8-.14 1.13l-7.38 4.26a2.17 2.17 0 0 1-1.99.08z" class="cls-1"/><path d="M167.68 262.48l43.43 25.07a.59.59 0 0 1 0 1.12l-7.52 4.33a2.1 2.1 0 0 1-2 0l-43.42-25.07zM251.22 316.17l7 4c.41.23.36.65-.12.92l-3 1.74a1.77 1.77 0 0 1-1.61.07l-6.95-4c-.42-.23-.36-.65.11-.92l3-1.74a1.75 1.75 0 0 1 1.57-.07zM241.5 310.56l6.95 4c.41.24.36.65-.11.93l-3 1.74a1.81 1.81 0 0 1-1.6.07l-7-4c-.41-.24-.36-.65.12-.93l3-1.74a1.8 1.8 0 0 1 1.64-.07zM231.85 305l7 4c.41.24.36.66-.12.93l-3 1.74a1.8 1.8 0 0 1-1.61.07l-6.95-4c-.42-.24-.36-.65.11-.92l3-1.75a1.78 1.78 0 0 1 1.57-.07zM246.82 307.48l7 4c.41.24.36.65-.12.92l-3 1.74a1.77 1.77 0 0 1-1.61.07l-6.95-4c-.41-.23-.36-.65.11-.92l3-1.74a1.75 1.75 0 0 1 1.57-.07z" class="cls-1"/><path d="M234 136.79l-9.23-5.33a2.64 2.64 0 0 1-1.12-2.73 1.28 1.28 0 0 1 2-.95l9.23 5.33a2.65 2.65 0 0 1 1.13 2.73 1.29 1.29 0 0 1-2.01.95zM256 149.48l-13.61-7.86a2.63 2.63 0 0 1-1.13-2.73 1.28 1.28 0 0 1 2-.94l13.61 7.85a2.65 2.65 0 0 1 1.12 2.74 1.28 1.28 0 0 1-1.99.94zM218 179.87l-9.23-5.33a2.63 2.63 0 0 1-1.12-2.73 1.28 1.28 0 0 1 2-.95l9.23 5.33a2.65 2.65 0 0 1 1.13 2.74 1.29 1.29 0 0 1-2.01.94zM237.55 191.18l-13.61-7.85a2.65 2.65 0 0 1-1.12-2.74 1.28 1.28 0 0 1 2-.94l13.61 7.86a2.64 2.64 0 0 1 1.13 2.73 1.28 1.28 0 0 1-2.01.94zM206.82 129.8l-5.77-3.33a2.65 2.65 0 0 1-1.13-2.74 1.29 1.29 0 0 1 2-.94l5.76 3.33a2.64 2.64 0 0 1 1.13 2.73 1.28 1.28 0 0 1-1.99.95zM224.59 148.78L207 138.61a2.63 2.63 0 0 1-1.13-2.73 1.28 1.28 0 0 1 2-.94l17.61 10.17a2.64 2.64 0 0 1 1.13 2.73 1.28 1.28 0 0 1-2.02.94zM209.18 157.35l-5.77-3.35a2.65 2.65 0 0 1-1.12-2.74 1.28 1.28 0 0 1 2-.94l5.77 3.33a2.63 2.63 0 0 1 1.12 2.73 1.28 1.28 0 0 1-2 .97zM240.52 210.35l-15.4-8.89a2.63 2.63 0 0 1-1.13-2.73 1.28 1.28 0 0 1 2-.94l15.4 8.89a2.63 2.63 0 0 1 1.12 2.73 1.28 1.28 0 0 1-1.99.94zM203.56 171.56l-3.7-2.14a2.64 2.64 0 0 1-1.13-2.73 1.28 1.28 0 0 1 2-.94l3.7 2.13a2.65 2.65 0 0 1 1.12 2.74 1.28 1.28 0 0 1-1.99.94zM200.9 187.48l-4.6-2.65a2.65 2.65 0 0 1-1.12-2.74 1.28 1.28 0 0 1 2-.94l4.6 2.65a2.65 2.65 0 0 1 1.12 2.74 1.28 1.28 0 0 1-2 .94zM218.78 197.8l-12.12-7a2.65 2.65 0 0 1-1.13-2.74 1.29 1.29 0 0 1 2-.94l12.12 7a2.63 2.63 0 0 1 1.12 2.73 1.28 1.28 0 0 1-1.99.95zM203.24 197.56l-8.72-5a2.65 2.65 0 0 1-1.12-2.74 1.28 1.28 0 0 1 2-.94l8.71 5a2.64 2.64 0 0 1 1.13 2.74 1.28 1.28 0 0 1-2 .94zM253.73 218l-5.59-3.23a2.64 2.64 0 0 1-1.13-2.73 1.29 1.29 0 0 1 2-.95l5.59 3.24a2.63 2.63 0 0 1 1.13 2.73 1.29 1.29 0 0 1-2 .94zM230.63 169.73l-15.4-8.89a2.65 2.65 0 0 1-1.13-2.74 1.29 1.29 0 0 1 2-.94l15.39 8.89a2.64 2.64 0 0 1 1.13 2.74 1.28 1.28 0 0 1-1.99.94zM232 161.81l-26.84-15.49a2.65 2.65 0 0 1-1.13-2.74 1.29 1.29 0 0 1 2-.94l26.84 15.5a2.63 2.63 0 0 1 1.13 2.73 1.29 1.29 0 0 1-2 .94zM217 170.61l-15.39-8.89a2.63 2.63 0 0 1-1.13-2.73 1.28 1.28 0 0 1 2-1l15.4 8.89a2.65 2.65 0 0 1 1.13 2.74 1.29 1.29 0 0 1-2.01.99zM242.31 176.47l-5.6-3.23a2.64 2.64 0 0 1-1.13-2.73 1.28 1.28 0 0 1 2-.94l5.59 3.23a2.61 2.61 0 0 1 1.13 2.73 1.28 1.28 0 0 1-1.99.94zM297.54 173.45l-33.14-19.13a2.65 2.65 0 0 1-1.12-2.74 1.28 1.28 0 0 1 2-.94l33.14 19.13a2.64 2.64 0 0 1 1.12 2.73 1.28 1.28 0 0 1-2 .95zM216.59 187.81l-18.51-10.69a2.63 2.63 0 0 1-1.13-2.73 1.29 1.29 0 0 1 2-.94l18.51 10.69a2.63 2.63 0 0 1 1.13 2.73 1.29 1.29 0 0 1-2 .94zM216.44 126.62l-13.61-7.86a2.63 2.63 0 0 1-1.13-2.76 1.29 1.29 0 0 1 2-.94l13.59 7.94a2.63 2.63 0 0 1 1.12 2.73 1.28 1.28 0 0 1-1.97.89zM200.81 204.89l-15.76-9.1a2.65 2.65 0 0 1-1.13-2.74 1.29 1.29 0 0 1 2-.94l15.76 9.1a2.64 2.64 0 0 1 1.13 2.73 1.29 1.29 0 0 1-2 .95zM307.48 238.11l-9.23-5.33a2.64 2.64 0 0 1-1.12-2.73 1.28 1.28 0 0 1 2-1l9.23 5.33a2.65 2.65 0 0 1 1.13 2.73 1.29 1.29 0 0 1-2.01 1zM314.11 207l-17.61-10.15a2.64 2.64 0 0 1-1.13-2.73 1.28 1.28 0 0 1 2-.94L315 203.35a2.63 2.63 0 0 1 1.13 2.73 1.29 1.29 0 0 1-2.02.92zM298.71 215.58l-5.77-3.32a2.65 2.65 0 0 1-1.13-2.74 1.29 1.29 0 0 1 2-.94l5.76 3.33a2.62 2.62 0 0 1 1.13 2.73 1.28 1.28 0 0 1-1.99.94zM293.09 229.8l-3.71-2.14a2.63 2.63 0 0 1-1.12-2.73 1.28 1.28 0 0 1 2-1l3.7 2.14a2.64 2.64 0 0 1 1.13 2.73 1.28 1.28 0 0 1-2 1zM320.15 228l-15.4-8.89a2.65 2.65 0 0 1-1.12-2.74 1.28 1.28 0 0 1 2-.94l15.4 8.89a2.65 2.65 0 0 1 1.13 2.73 1.29 1.29 0 0 1-2.01.95zM321.56 220.05l-26.84-15.5a2.63 2.63 0 0 1-1.13-2.73 1.28 1.28 0 0 1 2-.94l26.84 15.49a2.65 2.65 0 0 1 1.12 2.74 1.28 1.28 0 0 1-1.99.94zM306.56 228.85l-15.4-8.85a2.65 2.65 0 0 1-1.12-2.74 1.28 1.28 0 0 1 2-.94l15.4 8.89a2.65 2.65 0 0 1 1.13 2.74 1.29 1.29 0 0 1-2.01.9zM306.12 246.05l-18.51-10.69a2.64 2.64 0 0 1-1.13-2.73 1.28 1.28 0 0 1 2-.94L307 242.37a2.65 2.65 0 0 1 1.12 2.74 1.28 1.28 0 0 1-2 .94z" class="cls-2"/><path d="M347.55 135.16l14.55-5.79-3.28-21.4-7.06 6.26-4.21 20.93zM250.21 35.39l35.14-14-6.49 14-18.76 4.34z" class="cls-3"/><path d="M360.4 93.62a15.33 15.33 0 0 0-5.69-2c1.94-12.93-3.65-26.58-14.37-32.78a23.53 23.53 0 0 0-10-3.16c4.2-15.67-2.29-33.49-15.51-41.13a24.38 24.38 0 0 0-21-2l-.32.13-.51.2-11 4.33 4.37 3.79c-5.95 1.88-11.1 6.69-13.82 13.81-5 13.12.13 29.08 11.49 35.64l67.52 56.92c8.53 4.93 13.71 2.87 17.47-7s-.1-21.83-8.63-26.75z" class="cls-3"/><path d="M275.63 29l37.87-15.1a24.18 24.18 0 0 0-19.68-1.33l-.32.13-.51.2-11 4.33 4.38 3.77a21 21 0 0 0-10.74 8zM328.35 85.81l25-10a30.15 30.15 0 0 0-13.16-17 23.93 23.93 0 0 0-2.53-1.27l-34.44 13.75z" class="cls-3"/><path d="M289.66 18.8L300.4 25l18.6-7.41a29.25 29.25 0 0 0-4.24-3 26.65 26.65 0 0 0-7.29-2.89zM351.71 71.67l-18 7.17L339 86.3l15.45-6.14a34.88 34.88 0 0 0-2.74-8.49z" class="cls-2"/><path d="M348.37 98.35a15.56 15.56 0 0 0-5.7-2c1.94-12.93-3.79-26.67-14.51-32.86a22.67 22.67 0 0 0-9.91-3.07c4.21-15.64-2.25-33.42-15.51-41.1-14.23-8.22-30.85-1.55-37.13 14.88-.21.56-.4 1.12-.59 1.69-10.85-4.83-22.85.61-27.56 12.94-5 13.12.13 29.08 11.49 35.65L334.73 134c8.53 4.93 18.5.93 22.26-8.92s-.09-21.8-8.62-26.73z" class="cls-3"/><path d="M350.14 97.36a15.56 15.56 0 0 0-5.7-2c1.94-12.93-3.79-26.67-14.51-32.86a22.69 22.69 0 0 0-9.93-3.04c4.21-15.67-2.28-33.49-15.51-41.13a24.22 24.22 0 0 0-25.34.12 24.24 24.24 0 0 1 23.57.87C316 27 322.46 44.78 318.25 60.46a22.67 22.67 0 0 1 9.91 3.07c10.72 6.19 16.45 19.93 14.51 32.86a15.56 15.56 0 0 1 5.7 2c8.53 4.93 12.39 16.91 8.62 26.77a17.68 17.68 0 0 1-6.7 8.6 17.12 17.12 0 0 0 8.47-9.59c3.77-9.9-.09-21.88-8.62-26.81z" class="cls-1"/><path d="M265 35.89c.16-.5.34-1 .52-1.47a19.07 19.07 0 0 0-17 1.73 19.15 19.15 0 0 1 16.48-.26z" class="cls-3"/><path d="M255.33 38.45a11.29 11.29 0 0 0-4.53.92c-3.4 1.49-6.35 4.93-8.08 9.46C238.32 60.36 243 75 253 80.74l85.79 49.56c2.7 1.56 5.49 1.95 7.65 1.09s4.1-3.16 5.29-6.27c3.18-8.33-.22-18.87-7.42-23a11.11 11.11 0 0 0-4.08-1.44l-3.48-.47.44-3c1.79-11.93-3.72-24.52-13.09-29.93a18 18 0 0 0-7.89-2.51l-4.32-.28 1-3.62c3.85-14.38-2.38-31-14.18-37.8-5.49-3.17-11.27-3.81-16.28-1.81s-9.1 6.61-11.52 13c-.19.49-.36 1-.53 1.49L268 42.79l-6.73-3a14.71 14.71 0 0 0-5.94-1.34z" class="cls-2"/><path d="M297.36 93.58l2.96-1.19-2.3-1.76-.66 2.95zM295.89 61.56l2.87-1.16-.21 1.2-2.66-.04zM306.64 86.1l3-1.21-4.37-4.39 1.37 5.6z" class="cls-1"/><path d="M299.54 92.32l-11.45-6.61a1.86 1.86 0 0 1-.78-1.89l2.74-13 13.56 7.82-2.75 13a.86.86 0 0 1-1.32.68z" class="cls-1"/><path d="M298.73 60.42l-15.47 7.79c-.66.34-.44 1.57.35 2l12.63 7.29 12.63 7.29c.8.46 1.43-.28 1-1.21l-9.17-22c-.36-.95-1.31-1.5-1.97-1.16z" class="cls-1"/><path d="M296.54 93.53l-11.45-6.61a1.85 1.85 0 0 1-.78-1.89l2.74-13 13.56 7.83-2.75 13a.86.86 0 0 1-1.32.67z" class="cls-3"/><path d="M295.72 61.63l-15.47 7.8c-.65.33-.43 1.56.36 2l12.63 7.29L305.87 86c.8.46 1.43-.28 1-1.21l-9.17-22c-.36-.95-1.31-1.5-1.98-1.16z" class="cls-3"/><path d="M116.89 407.05l46.86-26.93c2.06-1.18 3.09-2.75 3.14-4.41v-8.07l-1.5 2.6a11.59 11.59 0 0 0-3-2.37L68.1 313.12c-5.35-3.11-13.44-3.46-18.09-.79L3.15 339.26a7.4 7.4 0 0 0-1.31.92L0 337.88v7.58c-.06 2.09 1.43 4.31 4.41 6l94.39 54.8c5.34 3.1 13.44 3.45 18.09.79z" class="cls-1"/><path d="M3.18 333.26l46.87-26.93c4.64-2.67 12.74-2.31 18.09.79l94.38 54.76c5.35 3.1 5.92 7.78 1.27 10.44l-46.86 26.93c-4.65 2.67-12.75 2.32-18.09-.79L4.46 343.71c-5.35-3.1-5.92-7.78-1.28-10.45z" class="cls-2"/><path d="M163.79 372.32l-46.86 26.93c-4.65 2.67-12.75 2.32-18.09-.79L4.46 343.71c-2.6-1.51-4-3.38-4.35-5.21-.38 2.24 1.1 4.7 4.35 6.59l94.38 54.76c5.34 3.1 13.44 3.45 18.09.78l46.86-26.93c2.4-1.37 3.39-3.28 3.08-5.23a5.67 5.67 0 0 1-3.08 3.85z" class="cls-3"/><path d="M6.14 334.35l45.77-26.3c3.61-2.08 9.91-1.8 14.07.61l93.86 54.46c4.16 2.41 4.6 6 1 8.12l-45.77 26.3c-3.61 2.07-9.9 1.79-14.06-.62L7.14 342.47c-4.14-2.41-4.61-6.05-1-8.12z" class="cls-3"/><path d="M79.88 343.91l-16.94-9.78c-.63-.36-.55-1 .17-1.42a2.76 2.76 0 0 1 2.45-.1l17 9.79c.63.36.55 1-.18 1.41a2.73 2.73 0 0 1-2.5.1zM63.82 340.6l-6-3.49c-.63-.36-.55-1 .17-1.42a2.76 2.76 0 0 1 2.45-.1l6.05 3.49c.63.36.55 1-.18 1.42a2.73 2.73 0 0 1-2.49.1z" class="cls-2"/><path d="M74 346.45l-6-3.48c-.63-.37-.55-1 .18-1.42a2.73 2.73 0 0 1 2.45-.1l6 3.49c.63.36.55 1-.18 1.41a2.7 2.7 0 0 1-2.45.1z" class="cls-1"/><path d="M94.47 358.3l-16.41-9.48c-.63-.36-.55-1 .18-1.41a2.73 2.73 0 0 1 2.45-.11l16.41 9.48c.63.36.55 1-.18 1.41a2.73 2.73 0 0 1-2.45.11zM73.79 352.31l-21.17-12.22c-.63-.36-.55-1 .17-1.42a2.73 2.73 0 0 1 2.45-.1l21.17 12.22c.63.37.55 1-.17 1.42a2.73 2.73 0 0 1-2.45.1z" class="cls-2"/><path d="M99.24 373l-51.78-29.9c-.63-.37-.55-1 .17-1.42a2.73 2.73 0 0 1 2.45-.1l51.79 29.9c.63.37.55 1-.17 1.42a2.75 2.75 0 0 1-2.46.1z" class="cls-1"/><path d="M114.36 363.82l-29.8-17.21c-.63-.36-.55-1 .17-1.41a2.7 2.7 0 0 1 2.45-.1L117 362.3c.63.36.55 1-.17 1.42a2.76 2.76 0 0 1-2.47.1zM77.85 391.91l-4.35-2.51a1.88 1.88 0 0 1-.79-1.5c0-.58.35-.85.79-.6l4.35 2.52a1.86 1.86 0 0 1 .79 1.5c0 .58-.35.84-.79.59zM84.71 395.88l-4.36-2.51a1.88 1.88 0 0 1-.78-1.5c0-.58.35-.85.78-.6l4.36 2.52a1.89 1.89 0 0 1 .79 1.5c0 .58-.36.84-.79.59z" class="cls-2"/></g></g></svg>