<svg xmlns="http://www.w3.org/2000/svg" viewBox="0 0 324.44 442.76"><defs><style>.cls-1{fill:#3d94ba}.cls-2{fill:#17110c}.cls-3{fill:#f7e3c6}</style></defs><g id="Слой_2" data-name="Слой 2"><g id="Layer_1" data-name="Layer 1"><path d="M.61 371.26v26.17c0 2 1.35 4.09 4.06 5.65 5.4 3.12 14.17 3.12 19.58 0 2.7-1.56 4.05-3.61 4.05-5.65v-26.17z" class="cls-1"/><path d="M14.45 406a20.6 20.6 0 0 1-10.09-2.41C1.55 402 0 399.79 0 397.43v-26.78h28.91v26.78c0 2.36-1.55 4.56-4.36 6.18a20.72 20.72 0 0 1-10.1 2.39zM1.22 371.87v25.56c0 1.9 1.33 3.72 3.75 5.12 5.23 3 13.74 3 19 0 2.42-1.4 3.75-3.22 3.75-5.12v-25.56z" class="cls-2"/><path d="M13.2 371.26v34.09a20.52 20.52 0 0 0 11.05-2.27c2.7-1.56 4.05-3.61 4.05-5.65v-26.17z" class="cls-2"/><path d="M14.5 406H12.59v-35.35h16.32v26.78c0 2.36-1.55 4.56-4.36 6.18A20.54 20.54 0 0 1 14.5 406zm-.69-1.24a19.44 19.44 0 0 0 10.13-2.21c2.42-1.4 3.75-3.22 3.75-5.12v-25.56H13.81z" class="cls-2"/><ellipse cx="14.46" cy="371.26" class="cls-1" rx="13.85" ry="7.99"/><path d="M14.45 379.85a20.7 20.7 0 0 1-10.09-2.4C1.55 375.82 0 373.63 0 371.26s1.55-4.55 4.36-6.18c5.57-3.21 14.62-3.21 20.19 0 2.81 1.63 4.36 3.82 4.36 6.18s-1.55 4.56-4.36 6.19a20.72 20.72 0 0 1-10.1 2.4zm0-16A19.42 19.42 0 0 0 5 366.14c-2.42 1.4-3.75 3.22-3.75 5.12S2.55 375 5 376.39c5.23 3 13.74 3 19 0 2.42-1.4 3.75-3.22 3.75-5.13s-1.33-3.72-3.75-5.12a19.4 19.4 0 0 0-9.54-2.27z" class="cls-2"/><path d="M7.99 378.5h1.22v26.17H7.99z" class="cls-2"/><path d="M24.5 378.67h1.22v20.97H24.5zM.61 358.72v7.11c0 2.05 1.35 4.1 4.06 5.66 5.4 3.12 14.17 3.12 19.58 0 2.7-1.56 4.05-3.61 4.05-5.66v-7.11z" class="cls-1"/><path d="M14.45 374.43A20.71 20.71 0 0 1 4.36 372C1.55 370.39 0 368.2 0 365.84v-7.73h28.91v7.73c0 2.36-1.55 4.55-4.36 6.18a20.72 20.72 0 0 1-10.1 2.41zm-13.23-15.1v6.51c0 1.9 1.33 3.72 3.75 5.12 5.23 3 13.74 3 19 0 2.42-1.4 3.75-3.22 3.75-5.12v-6.51z" class="cls-2"/><path d="M13.2 358.72v15a20.62 20.62 0 0 0 11.05-2.27c2.7-1.56 4.05-3.61 4.05-5.66v-7.11z" class="cls-2"/><path d="M14.5 374.4H12.59v-16.29h16.32v7.73c0 2.36-1.55 4.55-4.36 6.18a20.65 20.65 0 0 1-10.05 2.38zm-.69-1.23A19.44 19.44 0 0 0 23.94 371c2.42-1.4 3.75-3.22 3.75-5.12v-6.51H13.81z" class="cls-2"/><path d="M24.25 353.07c5.4 3.12 5.4 8.18 0 11.3s-14.18 3.13-19.58 0-5.41-8.18 0-11.3 14.17-3.07 19.58 0z" class="cls-1"/><path d="M14.45 367.31a20.6 20.6 0 0 1-10.09-2.41C1.55 363.28 0 361.08 0 358.72s1.55-4.55 4.36-6.18c5.57-3.21 14.62-3.21 20.19 0 2.81 1.63 4.36 3.82 4.36 6.18s-1.55 4.56-4.36 6.18a20.61 20.61 0 0 1-10.1 2.41zm0-16A19.42 19.42 0 0 0 5 353.6c-2.42 1.39-3.75 3.22-3.75 5.12s1.33 3.73 3.75 5.13c5.23 3 13.74 3 19 0 2.42-1.4 3.75-3.22 3.75-5.13s-1.33-3.73-3.75-5.12a19.4 19.4 0 0 0-9.54-2.27z" class="cls-2"/><path d="M7.99 365.96h1.22v7.12H7.99z" class="cls-2"/><path d="M24.5 366.13h1.22v1.92H24.5z" class="cls-1"/><path d="M137.5 434.3a.7.7 0 0 1 0 1.34 2.56 2.56 0 0 1-2.32 0 .71.71 0 0 1 0-1.34 2.56 2.56 0 0 1 2.32 0zM143.57 430.8a.7.7 0 0 1 0 1.34 2.56 2.56 0 0 1-2.32 0 .71.71 0 0 1 0-1.34 2.56 2.56 0 0 1 2.32 0zM149.64 427.29a.7.7 0 0 1 0 1.34 2.56 2.56 0 0 1-2.32 0 .71.71 0 0 1 0-1.34 2.56 2.56 0 0 1 2.32 0zM129.11 430.8a2.56 2.56 0 0 1 2.32 0 .71.71 0 0 1 0 1.34 2.56 2.56 0 0 1-2.32 0 .71.71 0 0 1 0-1.34zM137.5 427.29a.7.7 0 0 1 0 1.34 2.56 2.56 0 0 1-2.32 0 .71.71 0 0 1 0-1.34 2.56 2.56 0 0 1 2.32 0zM143.57 423.79a.7.7 0 0 1 0 1.34 2.56 2.56 0 0 1-2.32 0 .71.71 0 0 1 0-1.34 2.56 2.56 0 0 1 2.32 0zM123 427.3a2.53 2.53 0 0 1 2.32 0 .71.71 0 0 1 0 1.34 2.56 2.56 0 0 1-2.32 0 .71.71 0 0 1 0-1.34z" class="cls-2"/><ellipse cx="130.27" cy="424.46" class="cls-2" rx="1.64" ry=".95"/><ellipse cx="136.34" cy="420.95" class="cls-2" rx="1.64" ry=".95"/><path d="M117 423.79a2.56 2.56 0 0 1 2.32 0 .71.71 0 0 1 0 1.34 2.56 2.56 0 0 1-2.32 0 .71.71 0 0 1 0-1.34z" class="cls-2"/><ellipse cx="124.2" cy="420.95" class="cls-2" rx="1.64" ry=".95"/><path d="M131.43 416.78a.7.7 0 0 1 0 1.34 2.56 2.56 0 0 1-2.32 0 .71.71 0 0 1 0-1.34 2.56 2.56 0 0 1 2.32 0zM110.9 420.29a2.56 2.56 0 0 1 2.32 0 .71.71 0 0 1 0 1.34 2.53 2.53 0 0 1-2.32 0 .71.71 0 0 1 0-1.34zM119.29 416.78a.7.7 0 0 1 0 1.34 2.56 2.56 0 0 1-2.32 0 .71.71 0 0 1 0-1.34 2.56 2.56 0 0 1 2.32 0zM125.37 413.27a.71.71 0 0 1 0 1.34 2.58 2.58 0 0 1-2.33 0 .71.71 0 0 1 0-1.34 2.58 2.58 0 0 1 2.33 0zM104.77 416.75a2.53 2.53 0 0 1 2.32 0 .71.71 0 0 1 0 1.34 2.56 2.56 0 0 1-2.32 0c-.63-.37-.64-.97 0-1.34zM113.17 413.24a.71.71 0 0 1 0 1.34 2.56 2.56 0 0 1-2.32 0 .71.71 0 0 1 0-1.34 2.56 2.56 0 0 1 2.32 0zM119.24 409.73a.71.71 0 0 1 0 1.34 2.56 2.56 0 0 1-2.32 0 .71.71 0 0 1 0-1.34 2.56 2.56 0 0 1 2.32 0zM98.7 413.24a2.56 2.56 0 0 1 2.32 0 .71.71 0 0 1 0 1.34 2.56 2.56 0 0 1-2.32 0c-.63-.37-.64-.97 0-1.34zM107.1 409.73a.71.71 0 0 1 0 1.34 2.56 2.56 0 0 1-2.32 0 .71.71 0 0 1 0-1.34 2.56 2.56 0 0 1 2.32 0zM113.17 406.23a.71.71 0 0 1 0 1.34 2.56 2.56 0 0 1-2.32 0 .71.71 0 0 1 0-1.34 2.56 2.56 0 0 1 2.32 0zM92.63 409.74a2.56 2.56 0 0 1 2.32 0 .71.71 0 0 1 0 1.34 2.53 2.53 0 0 1-2.32 0c-.63-.37-.63-.97 0-1.34zM101 406.23a.71.71 0 0 1 0 1.34 2.56 2.56 0 0 1-2.32 0 .71.71 0 0 1 0-1.34 2.56 2.56 0 0 1 2.32 0zM107.1 402.72a.71.71 0 0 1 0 1.34 2.56 2.56 0 0 1-2.32 0 .71.71 0 0 1 0-1.34 2.56 2.56 0 0 1 2.32 0zM86.56 406.23a2.58 2.58 0 0 1 2.33 0 .71.71 0 0 1 0 1.34 2.56 2.56 0 0 1-2.32 0c-.64-.37-.65-.97-.01-1.34zM95 402.72a.71.71 0 0 1 0 1.34 2.56 2.56 0 0 1-2.32 0 .71.71 0 0 1 0-1.34 2.56 2.56 0 0 1 2.32 0zM101 399.22a.71.71 0 0 1 0 1.34 2.56 2.56 0 0 1-2.32 0 .71.71 0 0 1 0-1.34 2.56 2.56 0 0 1 2.32 0zM80.49 402.73a2.62 2.62 0 0 1 2.33 0 .71.71 0 0 1 0 1.35 2.56 2.56 0 0 1-2.32 0c-.64-.38-.65-.98-.01-1.35z" class="cls-2"/><ellipse cx="87.73" cy="399.89" class="cls-2" rx="1.64" ry=".95"/><path d="M95 395.71a.71.71 0 0 1 0 1.34 2.56 2.56 0 0 1-2.32 0 .71.71 0 0 1 0-1.34 2.56 2.56 0 0 1 2.32 0zM74.42 399.22a2.58 2.58 0 0 1 2.33 0 .71.71 0 0 1 0 1.34 2.56 2.56 0 0 1-2.32 0c-.64-.37-.65-.97-.01-1.34z" class="cls-2"/><ellipse cx="81.66" cy="396.38" class="cls-2" rx="1.64" ry=".95"/><path d="M88.89 392.21a.71.71 0 0 1 0 1.34 2.56 2.56 0 0 1-2.32 0 .71.71 0 0 1 0-1.34 2.56 2.56 0 0 1 2.32 0zM76.75 392.21a.71.71 0 0 1 0 1.34 2.56 2.56 0 0 1-2.32 0 .71.71 0 0 1 0-1.34 2.56 2.56 0 0 1 2.32 0zM82.82 388.7a.71.71 0 0 1 0 1.35 2.56 2.56 0 0 1-2.32 0 .71.71 0 0 1 0-1.35 2.56 2.56 0 0 1 2.32 0zM76.75 385.2a.71.71 0 0 1 0 1.34 2.56 2.56 0 0 1-2.32 0 .71.71 0 0 1 0-1.34 2.56 2.56 0 0 1 2.32 0zM174 441.14a.71.71 0 0 1 0 1.34 2.56 2.56 0 0 1-2.32 0 .71.71 0 0 1 0-1.34 2.56 2.56 0 0 1 2.32 0zM180.06 437.64a.71.71 0 0 1 0 1.34 2.56 2.56 0 0 1-2.32 0 .71.71 0 0 1 0-1.34 2.56 2.56 0 0 1 2.32 0zM186.13 434.13a.71.71 0 0 1 0 1.34 2.56 2.56 0 0 1-2.32 0 .71.71 0 0 1 0-1.34 2.56 2.56 0 0 1 2.32 0zM192.2 430.63a.71.71 0 0 1 0 1.34 2.56 2.56 0 0 1-2.32 0 .71.71 0 0 1 0-1.34 2.56 2.56 0 0 1 2.32 0zM198.27 427.12a.71.71 0 0 1 0 1.34 2.56 2.56 0 0 1-2.32 0 .71.71 0 0 1 0-1.34 2.56 2.56 0 0 1 2.32 0z" class="cls-2"/><ellipse cx="203.18" cy="424.29" class="cls-2" rx="1.64" ry=".95"/><path d="M222.55 413.11a.71.71 0 0 1 0 1.34 2.56 2.56 0 0 1-2.32 0 .71.71 0 0 1 0-1.34 2.56 2.56 0 0 1 2.32 0zM228.62 409.6a.71.71 0 0 1 0 1.34 2.56 2.56 0 0 1-2.32 0 .71.71 0 0 1 0-1.34 2.56 2.56 0 0 1 2.32 0z" class="cls-2"/><ellipse cx="233.53" cy="406.77" class="cls-2" rx="1.64" ry=".95"/><ellipse cx="239.6" cy="403.26" class="cls-2" rx="1.64" ry=".95"/><path d="M246.83 399.09a.71.71 0 0 1 0 1.34 2.56 2.56 0 0 1-2.32 0 .71.71 0 0 1 0-1.34 2.56 2.56 0 0 1 2.32 0zM252.9 395.58a.71.71 0 0 1 0 1.34 2.56 2.56 0 0 1-2.32 0 .71.71 0 0 1 0-1.34 2.56 2.56 0 0 1 2.32 0zM259 392.08a.71.71 0 0 1 0 1.34 2.56 2.56 0 0 1-2.32 0 .71.71 0 0 1 0-1.34 2.56 2.56 0 0 1 2.32 0zM210.41 420.11a.71.71 0 0 1 0 1.35 2.56 2.56 0 0 1-2.32 0 .71.71 0 0 1 0-1.35 2.56 2.56 0 0 1 2.32 0zM216.48 416.61a.71.71 0 0 1 0 1.34 2.56 2.56 0 0 1-2.32 0 .71.71 0 0 1 0-1.34 2.56 2.56 0 0 1 2.32 0zM161.85 441.14a.71.71 0 0 1 0 1.34 2.56 2.56 0 0 1-2.32 0 .71.71 0 0 1 0-1.34 2.56 2.56 0 0 1 2.32 0zM167.92 437.64a.71.71 0 0 1 0 1.34 2.56 2.56 0 0 1-2.32 0 .71.71 0 0 1 0-1.34 2.56 2.56 0 0 1 2.32 0zM174 434.13a.71.71 0 0 1 0 1.34 2.56 2.56 0 0 1-2.32 0 .71.71 0 0 1 0-1.34 2.56 2.56 0 0 1 2.32 0zM180.06 430.63a.71.71 0 0 1 0 1.34 2.56 2.56 0 0 1-2.32 0 .71.71 0 0 1 0-1.34 2.56 2.56 0 0 1 2.32 0zM186.13 427.12a.71.71 0 0 1 0 1.34 2.56 2.56 0 0 1-2.32 0 .71.71 0 0 1 0-1.34 2.56 2.56 0 0 1 2.32 0zM192.2 423.62a.71.71 0 0 1 0 1.34 2.56 2.56 0 0 1-2.32 0 .71.71 0 0 1 0-1.34 2.56 2.56 0 0 1 2.32 0zM198.27 420.11a.71.71 0 0 1 0 1.35 2.56 2.56 0 0 1-2.32 0 .71.71 0 0 1 0-1.35 2.56 2.56 0 0 1 2.32 0zM216.48 409.6a.71.71 0 0 1 0 1.34 2.56 2.56 0 0 1-2.32 0 .71.71 0 0 1 0-1.34 2.56 2.56 0 0 1 2.32 0zM222.55 406.1a.71.71 0 0 1 0 1.34 2.56 2.56 0 0 1-2.32 0 .71.71 0 0 1 0-1.34 2.56 2.56 0 0 1 2.32 0zM228.62 402.59a.71.71 0 0 1 0 1.34 2.56 2.56 0 0 1-2.32 0 .71.71 0 0 1 0-1.34 2.56 2.56 0 0 1 2.32 0zM234.69 399.09a.71.71 0 0 1 0 1.34 2.56 2.56 0 0 1-2.32 0 .71.71 0 0 1 0-1.34 2.56 2.56 0 0 1 2.32 0zM240.76 395.58a.71.71 0 0 1 0 1.34 2.56 2.56 0 0 1-2.32 0 .71.71 0 0 1 0-1.34 2.56 2.56 0 0 1 2.32 0zM246.83 392.08a.71.71 0 0 1 0 1.34 2.56 2.56 0 0 1-2.32 0 .71.71 0 0 1 0-1.34 2.56 2.56 0 0 1 2.32 0zM252.9 388.57a.71.71 0 0 1 0 1.34 2.5 2.5 0 0 1-2.32 0 .71.71 0 0 1 0-1.34 2.56 2.56 0 0 1 2.32 0zM204.34 416.61a.71.71 0 0 1 0 1.34 2.56 2.56 0 0 1-2.32 0 .71.71 0 0 1 0-1.34 2.56 2.56 0 0 1 2.32 0zM210.41 413.11a.71.71 0 0 1 0 1.34 2.56 2.56 0 0 1-2.32 0 .71.71 0 0 1 0-1.34 2.56 2.56 0 0 1 2.32 0zM147.38 441.15a2.56 2.56 0 0 1 2.32 0c.64.37.65 1 0 1.34a2.53 2.53 0 0 1-2.32 0 .71.71 0 0 1 0-1.34zM155.78 437.64a.71.71 0 0 1 0 1.34 2.56 2.56 0 0 1-2.32 0 .71.71 0 0 1 0-1.34 2.56 2.56 0 0 1 2.32 0zM161.85 434.13a.71.71 0 0 1 0 1.34 2.56 2.56 0 0 1-2.32 0 .71.71 0 0 1 0-1.34 2.56 2.56 0 0 1 2.32 0zM167.92 430.63a.71.71 0 0 1 0 1.34 2.56 2.56 0 0 1-2.32 0 .71.71 0 0 1 0-1.34 2.56 2.56 0 0 1 2.32 0zM174 427.12a.71.71 0 0 1 0 1.34 2.56 2.56 0 0 1-2.32 0 .71.71 0 0 1 0-1.34 2.56 2.56 0 0 1 2.32 0z" class="cls-2"/><ellipse cx="178.9" cy="424.29" class="cls-2" rx="1.64" ry=".95"/><ellipse cx="184.97" cy="420.79" class="cls-2" rx="1.64" ry=".95"/><path d="M192.2 416.61a.71.71 0 0 1 0 1.34 2.56 2.56 0 0 1-2.32 0 .71.71 0 0 1 0-1.34 2.56 2.56 0 0 1 2.32 0zM210.41 406.1a.71.71 0 0 1 0 1.34 2.56 2.56 0 0 1-2.32 0 .71.71 0 0 1 0-1.34 2.56 2.56 0 0 1 2.32 0zM216.48 402.59a.71.71 0 0 1 0 1.34 2.56 2.56 0 0 1-2.32 0 .71.71 0 0 1 0-1.34 2.56 2.56 0 0 1 2.32 0zM222.55 399.09a.71.71 0 0 1 0 1.34 2.56 2.56 0 0 1-2.32 0 .71.71 0 0 1 0-1.34 2.56 2.56 0 0 1 2.32 0zM228.62 395.58a.71.71 0 0 1 0 1.34 2.56 2.56 0 0 1-2.32 0 .71.71 0 0 1 0-1.34 2.56 2.56 0 0 1 2.32 0zM234.69 392.08a.71.71 0 0 1 0 1.34 2.56 2.56 0 0 1-2.32 0 .71.71 0 0 1 0-1.34 2.56 2.56 0 0 1 2.32 0z" class="cls-2"/><ellipse cx="239.6" cy="389.24" class="cls-2" rx="1.64" ry=".95"/><path d="M246.83 385.07a.71.71 0 0 1 0 1.34 2.56 2.56 0 0 1-2.32 0 .71.71 0 0 1 0-1.34 2.56 2.56 0 0 1 2.32 0zM198.27 413.11a.71.71 0 0 1 0 1.34 2.56 2.56 0 0 1-2.32 0 .71.71 0 0 1 0-1.34 2.56 2.56 0 0 1 2.32 0zM204.34 409.6a.71.71 0 0 1 0 1.34 2.56 2.56 0 0 1-2.32 0 .71.71 0 0 1 0-1.34 2.56 2.56 0 0 1 2.32 0zM141.31 437.64a2.56 2.56 0 0 1 2.32 0c.64.37.65 1 0 1.34a2.58 2.58 0 0 1-2.33 0 .71.71 0 0 1 .01-1.34zM149.71 434.13a.71.71 0 0 1 0 1.34 2.56 2.56 0 0 1-2.32 0 .71.71 0 0 1 0-1.34 2.56 2.56 0 0 1 2.32 0zM155.78 430.63a.71.71 0 0 1 0 1.34 2.56 2.56 0 0 1-2.32 0 .71.71 0 0 1 0-1.34 2.56 2.56 0 0 1 2.32 0zM256.69 385.1a2.56 2.56 0 0 1 2.32 0 .71.71 0 0 1 0 1.34 2.56 2.56 0 0 1-2.32 0 .71.71 0 0 1 0-1.34zM250.62 381.6a2.56 2.56 0 0 1 2.32 0 .71.71 0 0 1 0 1.34 2.56 2.56 0 0 1-2.32 0 .71.71 0 0 1 0-1.34zM244.55 378.1a2.53 2.53 0 0 1 2.32 0 .71.71 0 0 1 0 1.34 2.59 2.59 0 0 1-2.32 0 .71.71 0 0 1 0-1.34z" class="cls-2"/><path d="M242.11 379.48V212.15l-167.35-3.3v165.93c-.59 1.85.19 3.72 2.43 5.05l75.93 44.9c3.93 2.32 10.84 2.11 15.43-.48l69.77-39.31c2.73-1.54 4.02-3.58 3.79-5.46z" class="cls-1"/><path d="M160 427.3a14.74 14.74 0 0 1-7.38-1.76l-75.92-44.9c-2.49-1.47-3.56-3.7-2.89-6V207.88l169.25 3.34v168.2c.25 2.36-1.3 4.67-4.27 6.34L169 425.08a18.84 18.84 0 0 1-9 2.22zM75.71 209.81v165.27c-.49 1.48.23 2.88 2 3.93l75.92 44.9c3.67 2.17 10.17 1.95 14.49-.49l69.76-39.31c2.27-1.27 3.51-3 3.32-4.52V213.08z" class="cls-2"/><path d="M153.11 256.46l-75.92-44.9c-3.93-2.32-3.39-6.31 1.2-8.9l69.77-39.31c4.59-2.59 11.5-2.8 15.44-.48l75.92 44.9c3.93 2.33 3.39 6.31-1.2 8.9L168.55 256c-4.55 2.57-11.55 2.79-15.44.46z" class="cls-1"/><path d="M153.27 264.57l-75.12-44.42c-3.89-2.3-3.36-6.24 1.19-8.8l69-38.9c4.55-2.56 11.39-2.77 15.28-.47l75.11 44.42c3.89 2.3 3.36 6.24-1.18 8.81l-69 38.89c-4.55 2.56-11.39 2.77-15.28.47z" class="cls-3"/><path d="M160 259a14.71 14.71 0 0 1-7.38-1.76l-75.92-44.9a5.51 5.51 0 0 1-3.1-4.73c0-2.16 1.6-4.28 4.32-5.81l69.76-39.31c4.94-2.78 12.13-3 16.39-.47L240 207a5.52 5.52 0 0 1 3.1 4.72c0 2.17-1.6 4.29-4.32 5.82L169 256.81a18.77 18.77 0 0 1-9 2.19zm-6.41-3.4c3.66 2.17 10.16 1.95 14.48-.48l69.77-39.31c2.11-1.2 3.33-2.72 3.35-4.19a3.79 3.79 0 0 0-2.16-3.07l-75.93-44.9c-3.66-2.17-10.16-1.94-14.49.49l-69.75 39.35c-2.11 1.19-3.33 2.72-3.35 4.19a3.7 3.7 0 0 0 2.16 3.07z" class="cls-2"/><path d="M155.24 244.75l-46.51-27.5c-2.41-1.43-2.08-3.87.73-5.45l42.74-24.09c2.82-1.58 7.05-1.72 9.46-.29l46.52 27.51c2.4 1.42 2.07 3.86-.74 5.45l-42.74 24.08c-2.82 1.59-7.05 1.72-9.46.29z" class="cls-1"/><path d="M159.76 239.46a9.46 9.46 0 0 1-4.71-1.13l-46.51-27.51a3.74 3.74 0 0 1-2.08-3.21c0-1.46 1.05-2.88 2.83-3.88L152 179.64c3.12-1.76 7.69-1.88 10.4-.28l46.6 27.51a3.71 3.71 0 0 1 2.07 3.21c0 1.47-1 2.88-2.83 3.88l-42.74 24.09a11.91 11.91 0 0 1-5.74 1.41zM156 236.7c2.11 1.24 6 1.11 8.51-.3l42.74-24.09c1.16-.65 1.86-1.49 1.87-2.25a2 2 0 0 0-1.12-1.56L161.48 181c-2.11-1.24-6-1.1-8.51.31l-42.75 24.08c-1.16.66-1.85 1.49-1.86 2.25a2 2 0 0 0 1.15 1.56z" class="cls-2"/><path d="M200.71 218.28l-39.23-23.2c-2.11-1.25-6-1.11-8.51.3l-36.2 20.4-8.23-4.87a3.74 3.74 0 0 1-2.08-3.21c0-1.46 1.05-2.88 2.83-3.88L152 179.73c3.12-1.76 7.69-1.88 10.4-.28L209 207a3.71 3.71 0 0 1 2.07 3.21c0 1.46-1 2.88-2.83 3.88zm-43-26a9.41 9.41 0 0 1 4.71 1.12l38.29 22.65 6.54-3.69c1.16-.65 1.86-1.5 1.87-2.25a2 2 0 0 0-1.15-1.56l-46.51-27.51c-2.11-1.25-6-1.11-8.51.31l-42.75 24.08c-1.16.65-1.85 1.49-1.86 2.25a2 2 0 0 0 1.15 1.56l7.28 4.31L152 193.73a11.76 11.76 0 0 1 5.73-1.41z" class="cls-2"/><path d="M139.92 362.72c.07-3.12-1.8-6.78-4.17-8.19l-56.5-33.36a2.8 2.8 0 0 0-2.81-.26 2.27 2.27 0 0 0-.34.19l-14 8.36 61.62 45.32 14.22-8.49a2.14 2.14 0 0 0 .86-.5 4.13 4.13 0 0 0 1.12-3.07z" class="cls-1"/><path d="M138.77 365.79c.06-3.12-.35-5.51-2.72-6.91l-56.49-33.37a2.82 2.82 0 0 0-2.82-.26 2.33 2.33 0 0 0-.34.2l-14 8.35 58.58 39 14.66-4.9a10.54 10.54 0 0 0 2.3-1.58c.64-.63.79.89.83-.53z" class="cls-3"/><path d="M123.62 375.91l-62.2-45.74a.89.89 0 0 1 .07-1.48l14.13-8.4a2.7 2.7 0 0 1 .33-.2 3.79 3.79 0 0 1 3.79.26l56.49 33.37c2.68 1.58 4.71 5.55 4.64 9a5.05 5.05 0 0 1-1.47 3.76 3.34 3.34 0 0 1-1.12.66zm-59.85-46.37l60 44.1 13.91-8.26a1.2 1.2 0 0 0 .49-.3 3.22 3.22 0 0 0 .84-2.38c.06-2.76-1.64-6.13-3.71-7.35L78.77 322a2 2 0 0 0-1.89-.25l-.29.18z" class="cls-2"/><path d="M121.12 374.39L64.63 341c-2.37-1.4-4.24-5.07-4.17-8.19.07-3.12 2-4.51 4.42-3.11l56.49 33.36c2.38 1.41 4.25 5.07 4.18 8.19-.07 3.14-2.05 4.54-4.43 3.14z" class="cls-1"/><path d="M122.9 375.88a4.49 4.49 0 0 1-2.26-.68l-56.49-33.36c-2.68-1.58-4.72-5.55-4.64-9a4.67 4.67 0 0 1 2-4.19 3.77 3.77 0 0 1 3.82.28l56.49 33.37c2.67 1.58 4.71 5.54 4.63 9a4.67 4.67 0 0 1-2 4.19 3.15 3.15 0 0 1-1.55.39zm-1.29-2.31a2 2 0 0 0 1.93.25 2.93 2.93 0 0 0 1.06-2.57c.06-2.76-1.64-6.13-3.71-7.35L64.4 330.54a2 2 0 0 0-1.93-.26 3 3 0 0 0-1.06 2.57c-.06 2.77 1.63 6.13 3.71 7.35z" class="cls-2"/><path d="M124.01 365.88l14.55-8.52 1.36 5.36-1.16 3.07-14.16 8.99.87-4.81-1.46-4.09z" class="cls-2"/><path d="M139.92 337.73c.07-3.12-1.8-6.79-4.17-8.19l-56.5-33.37a2.8 2.8 0 0 0-2.81-.26 2.33 2.33 0 0 0-.34.2l-14 8.35 61.62 45.32 14.22-8.48a2.29 2.29 0 0 0 .86-.51 4.08 4.08 0 0 0 1.12-3.06z" class="cls-1"/><path d="M138.77 340.79c.06-3.12-.35-5.51-2.72-6.91l-56.49-33.36a2.85 2.85 0 0 0-2.82-.27 2.33 2.33 0 0 0-.34.2l-14 8.36 58.58 39 14.66-4.9a10.73 10.73 0 0 0 2.3-1.57c.64-.65.79.87.83-.55z" class="cls-3"/><path d="M123.62 350.92l-62.2-45.75a.89.89 0 0 1 .07-1.48l14.13-8.4a2.7 2.7 0 0 1 .33-.2 3.82 3.82 0 0 1 3.79.26l56.49 33.37c2.68 1.58 4.71 5.55 4.64 9a5 5 0 0 1-1.47 3.75 3.21 3.21 0 0 1-1.12.67zm-59.85-46.37l60 44.09 13.91-8.26a1.2 1.2 0 0 0 .49-.3 3.21 3.21 0 0 0 .84-2.37c.06-2.76-1.64-6.13-3.71-7.36L78.77 297a2 2 0 0 0-1.89-.24l-.29.17z" class="cls-2"/><path d="M121.12 349.39L64.63 316c-2.37-1.4-4.24-5.06-4.17-8.18.07-3.13 2-4.52 4.42-3.12l56.49 33.37c2.38 1.4 4.25 5.07 4.18 8.19-.07 3.14-2.05 4.53-4.43 3.13z" class="cls-1"/><path d="M122.9 350.88a4.4 4.4 0 0 1-2.26-.68l-56.49-33.36c-2.68-1.58-4.72-5.55-4.64-9a4.66 4.66 0 0 1 2-4.18 3.75 3.75 0 0 1 3.82.28l56.49 33.36c2.67 1.58 4.71 5.55 4.63 9a4.65 4.65 0 0 1-2 4.18 3.15 3.15 0 0 1-1.55.4zm-1.29-2.31a2 2 0 0 0 1.93.25 2.92 2.92 0 0 0 1.06-2.56c.06-2.77-1.64-6.14-3.71-7.36L64.4 305.54a2 2 0 0 0-1.93-.26 3 3 0 0 0-1.06 2.58c-.06 2.76 1.63 6.13 3.71 7.35z" class="cls-2"/><path d="M124.01 340.88l14.55-8.52 1.36 5.37-1.16 3.06-14.16 8.99.87-4.81-1.46-4.09z" class="cls-2"/><path d="M139.92 313.1c.07-3.12-1.8-6.79-4.17-8.19l-56.5-33.37a2.82 2.82 0 0 0-2.81-.26 2.33 2.33 0 0 0-.34.2l-14 8.36 61.62 45.31 14.22-8.48a2.16 2.16 0 0 0 .86-.51 4.08 4.08 0 0 0 1.12-3.06z" class="cls-1"/><path d="M138.77 316.16c.06-3.12-.35-5.5-2.72-6.91l-56.49-33.36a2.82 2.82 0 0 0-2.82-.26 2.27 2.27 0 0 0-.34.19l-14 8.36 58.58 39 14.66-4.9a10.73 10.73 0 0 0 2.3-1.57c.64-.65.79.87.83-.55z" class="cls-3"/><path d="M123.62 326.29l-62.2-45.75a.88.88 0 0 1 .07-1.47l14.13-8.41a2.7 2.7 0 0 1 .33-.2 3.8 3.8 0 0 1 3.79.27l56.49 33.36c2.68 1.59 4.71 5.55 4.64 9a5 5 0 0 1-1.47 3.75 3.21 3.21 0 0 1-1.12.67zm-59.85-46.37l60 44.1 13.91-8.27a1.2 1.2 0 0 0 .49-.3 3.19 3.19 0 0 0 .84-2.37c.06-2.76-1.64-6.13-3.71-7.36l-56.53-33.36a2 2 0 0 0-1.89-.24l-.29.17z" class="cls-2"/><path d="M121.12 324.76L64.63 291.4c-2.37-1.41-4.24-5.07-4.17-8.19.07-3.12 2-4.52 4.42-3.11l56.49 33.36c2.38 1.4 4.25 5.07 4.18 8.19-.07 3.12-2.05 4.51-4.43 3.11z" class="cls-1"/><path d="M122.9 326.26a4.49 4.49 0 0 1-2.26-.68l-56.49-33.37c-2.68-1.58-4.72-5.54-4.64-9a4.67 4.67 0 0 1 2-4.19 3.75 3.75 0 0 1 3.82.28l56.49 33.36c2.67 1.58 4.71 5.55 4.63 9a4.65 4.65 0 0 1-2 4.18 3.16 3.16 0 0 1-1.55.42zm-1.29-2.32a2 2 0 0 0 1.93.26 3 3 0 0 0 1.06-2.57c.06-2.77-1.64-6.13-3.71-7.36L64.4 280.91a2.07 2.07 0 0 0-1.93-.25 2.93 2.93 0 0 0-1.06 2.57c-.06 2.76 1.63 6.13 3.71 7.35z" class="cls-2"/><path d="M124.01 316.26l14.55-8.52 1.36 5.36-1.16 3.06-14.16 8.99.87-4.81-1.46-4.08z" class="cls-2"/><path d="M139.92 288.14c.07-3.12-1.8-6.79-4.17-8.19l-56.5-33.37a2.8 2.8 0 0 0-2.81-.26 2.33 2.33 0 0 0-.34.2l-14 8.35 61.62 45.32 14.22-8.48a2.16 2.16 0 0 0 .86-.51 4.08 4.08 0 0 0 1.12-3.06z" class="cls-1"/><path d="M138.77 291.2c.06-3.12-.35-5.51-2.72-6.91l-56.49-33.36a2.85 2.85 0 0 0-2.82-.27 3.79 3.79 0 0 0-.34.2l-14 8.36 58.58 39 14.66-4.9a10.73 10.73 0 0 0 2.3-1.57c.64-.65.79.87.83-.55z" class="cls-3"/><path d="M123.62 301.33l-62.2-45.75a.88.88 0 0 1 .07-1.47l14.13-8.41a2.7 2.7 0 0 1 .33-.2 3.8 3.8 0 0 1 3.79.27l56.49 33.36c2.68 1.59 4.71 5.55 4.64 9a5 5 0 0 1-1.47 3.75 3.21 3.21 0 0 1-1.12.67zM63.77 255l60 44.1 13.91-8.27a1.2 1.2 0 0 0 .49-.3 3.19 3.19 0 0 0 .84-2.37c.06-2.76-1.64-6.13-3.71-7.36l-56.53-33.4a2 2 0 0 0-1.89-.24l-.29.17z" class="cls-2"/><path d="M121.12 299.8l-56.49-33.36c-2.37-1.41-4.24-5.07-4.17-8.19.07-3.12 2-4.52 4.42-3.12l56.49 33.37c2.38 1.4 4.25 5.07 4.18 8.19-.07 3.12-2.05 4.51-4.43 3.11z" class="cls-1"/><path d="M122.9 301.3a4.49 4.49 0 0 1-2.26-.68l-56.49-33.37c-2.68-1.58-4.72-5.54-4.64-9a4.67 4.67 0 0 1 2-4.19 3.75 3.75 0 0 1 3.82.28l56.49 33.36c2.67 1.58 4.71 5.55 4.63 9a4.65 4.65 0 0 1-2 4.18 3.16 3.16 0 0 1-1.55.42zm-1.29-2.3a2 2 0 0 0 1.93.26 3 3 0 0 0 1.06-2.57c.06-2.77-1.64-6.13-3.71-7.36L64.4 256a2 2 0 0 0-1.93-.25 2.93 2.93 0 0 0-1.06 2.57c-.06 2.76 1.63 6.13 3.71 7.35z" class="cls-2"/><path d="M124.01 291.3l14.55-8.53 1.36 5.37-1.16 3.06-14.16 8.99.87-4.81-1.46-4.08zM160.42 257.14V425.4l4.27.94 73.63-41.4 3.83-3.79V214.52l-3.4 1.88-72.85 40.74h-5.48z" class="cls-2"/><path d="M176.25 290.05v-10.42l.47-.27L231.09 248v10.42l-.48.28zm1.89-9.32v6l51.05-29.47v-6zM213 284.68v-10.42l18.14-10.47v10.42zm1.9-9.33v6l14.34-8.28v-6zM176.25 305.87v-10.42l32.42-18.72v10.42zm1.89-9.33v6l28.64-16.53v-6zM191.51 312.32V301.9l39.58-22.9v10.42zm1.9-9.33v6l35.78-20.71v-6zM176.25 321.07v-10.41l11-6.28v10.41zm1.89-9.31v6l7.2-4.11v-6.05zM176.25 337v-10.44l.47-.28 54.37-31.38v10.41l-.48.28zm1.89-9.32v6l51.05-29.47v-6zM213 331.66v-10.42l18.14-10.47v10.42zm1.9-9.32v6l14.34-8.28v-6zM176.25 352.85v-10.42l32.42-18.72v10.42zm1.89-9.32v6L206.78 333v-6zM191.51 359.3v-10.42L231.09 326v10.4zm1.9-9.32v6l35.78-20.71v-6zM176.25 368.05v-10.41l11-6.28v10.41zm1.89-9.31v6l7.2-4.11v-6.05zM176.25 383.12V372.7l.47-.27L231.09 341v10.42l-.48.27zm1.89-9.32v6l51.05-29.48v-6z" class="cls-1"/><g id="_1" data-name="1"><path d="M242.27 107.57h-167a4.43 4.43 0 0 1-4.43-4.44 4.43 4.43 0 0 1 4.43-4.44h167a4.44 4.44 0 0 1 4.44 4.44 4.44 4.44 0 0 1-4.44 4.44z" class="cls-3"/><path d="M242.27 97.74h-167a5.39 5.39 0 0 0 0 10.77h167a5.39 5.39 0 1 0 0-10.77zm-167 1.9h167a3.48 3.48 0 0 1 3.44 3 4.4 4.4 0 0 1-3.43 1.64h-167a4.42 4.42 0 0 1-3.45-1.66 3.48 3.48 0 0 1 3.39-2.98z" class="cls-2"/><path d="M146.19 159h18.42a6.69 6.69 0 0 1 6.69 6.69v48.61a6.69 6.69 0 0 1-6.69 6.69h-18.42V159z" class="cls-2" transform="rotate(90.02 158.745 189.98)"/><path d="M154.17 195.81h6.71a2.44 2.44 0 0 1 2.44 2.44V216a2.44 2.44 0 0 1-2.44 2.44h-6.71v-22.63z" class="cls-2" transform="rotate(90.02 158.743 207.131)"/><path d="M162.24 211.69a4.62 4.62 0 0 1-4.62-4.63v-4.52h-7.92v4.52a4.63 4.63 0 0 0 4.63 4.63z" class="cls-3"/><path d="M146.49 201.59v5.47a5.58 5.58 0 0 0 5.58 5.58h13.36a5.58 5.58 0 0 0 5.57-5.58v-5.46zm5.58 9.15a3.68 3.68 0 0 1-3.68-3.68v-3.58H155v3.57a5.05 5.05 0 0 0 1.5 3.61.73.73 0 0 0 .09.08zm17-3.67a3.69 3.69 0 0 1-3.68 3.68h-7.19a4.29 4.29 0 0 1-1.05-.75 4.11 4.11 0 0 1-1.22-2.94v-3.57h13.14z" class="cls-2"/><path d="M162.08 202.52a12.7 12.7 0 0 1-12.69-12.7v-12.41H131.7v12.41a12.7 12.7 0 0 0 12.69 12.7z" class="cls-3"/><path d="M126.78 176.46v13.36a13.64 13.64 0 0 0 13.64 13.65h36.66a13.64 13.64 0 0 0 13.64-13.63v-13.36zm13.64 25.11a11.73 11.73 0 0 1-11.74-11.75v-11.47h16.45v11.46a13.15 13.15 0 0 0 7.3 11.76zm48.4-11.72a11.74 11.74 0 0 1-11.74 11.74H155a12.24 12.24 0 0 1-8.92-11.76v-11.47h42.75zM164.94 12.36h-11.42v-5.7A5.7 5.7 0 0 1 159.23 1a5.71 5.71 0 0 1 5.71 5.71z" class="cls-2"/><path d="M158.94 11.47a16.83 16.83 0 0 1 0-3.39A13.63 13.63 0 0 1 161 1a5.71 5.71 0 0 0-5.71 5.71v4.63c1.96.08 3.65.13 3.65.13z" class="cls-3"/><path d="M159.23 0a6.67 6.67 0 0 0-6.66 6.66v6.65h13.31V6.66A6.66 6.66 0 0 0 159.23 0zm-2.57 11c-.49 0-1.28-.05-2.19-.11V6.66a4.76 4.76 0 0 1 3.61-4.61 15.11 15.11 0 0 0-1.38 6c-.04 1.54-.05 2.42-.04 2.95zm7.33.44h-6.6l.24-.07a28.92 28.92 0 0 1 0-3.25 14 14 0 0 1 1.57-6.2 4.76 4.76 0 0 1 4.8 4.74z" class="cls-2"/><path d="M173.48 29.1H144v-6.29a14.73 14.73 0 0 1 14.75-14.73 14.74 14.74 0 0 1 14.73 14.73z" class="cls-2"/><path d="M146.16 22.81v6.29h8.09c0-1.29 0-2.75-.07-4.43-.18-12.67 6.7-16.59 6.7-16.59a14.73 14.73 0 0 0-14.72 14.73z" class="cls-3"/><path d="M158.75 7.14A15.69 15.69 0 0 0 145 15.35a15.1 15.1 0 0 0-2 7.46v6.76h.08V30h31.35v-7.19a15.69 15.69 0 0 0-15.68-15.67zM145 28.15v-5.34a13.8 13.8 0 0 1 11-13.5c-2.11 2.19-5.12 6.83-5 15.37 0 1.29 0 2.42.06 3.47zm27.56 0H152c0-1.06 0-2.19-.05-3.48-.17-9.64 3.91-14.11 5.67-15.58.36 0 .73-.06 1.11-.06a13.79 13.79 0 0 1 13.78 13.78z" class="cls-2"/><circle cx="159.27" cy="103.13" r="81.35" class="cls-3" transform="rotate(-45 159.264 103.12)"/><path d="M159.27 185.42a82.3 82.3 0 1 1 82.29-82.29 82.39 82.39 0 0 1-82.29 82.29zm0-162.69a80.4 80.4 0 1 0 80.39 80.4 80.49 80.49 0 0 0-80.39-80.4z" class="cls-2"/><path d="M159.27 29.69a73.44 73.44 0 1 0 73.43 73.44 73.52 73.52 0 0 0-73.43-73.44z" class="cls-2"/><circle cx="158.75" cy="103.13" r="69.01" class="cls-1"/><path d="M158.75 173.09a70 70 0 1 1 70-70 70 70 0 0 1-70 70zm0-138a68.07 68.07 0 1 0 68.06 68.07 68.14 68.14 0 0 0-68.06-68.1z" class="cls-2"/><path d="M147.58 101.69l47.29-22.27a1.18 1.18 0 0 1 1.24 2l-43.58 34.5z" class="cls-2"/><rect width="47.56" height="7.94" x="138.3" y="135.65" class="cls-3" rx="1.39"/><path d="M179.89 141.27h-42.28a3.35 3.35 0 0 1-3.35-3.35v-2.66a3.35 3.35 0 0 1 3.35-3.35h42.28a3.35 3.35 0 0 1 3.35 3.35v2.66a3.35 3.35 0 0 1-3.35 3.35zm-42.28-7.94a1.94 1.94 0 0 0-1.93 1.93v2.66a1.94 1.94 0 0 0 1.93 1.93h42.28a1.93 1.93 0 0 0 1.93-1.93v-2.66a1.93 1.93 0 0 0-1.93-1.93z" class="cls-2"/><path d="M111.5 143.32h11.24v1.89H111.5z" class="cls-2" transform="rotate(-45.06 117.126 144.271)"/><path d="M107.81 139.27h11.24v1.9h-11.24z" class="cls-2" transform="rotate(-39.66 113.424 140.208)"/><path d="M104.51 134.89h11.24v1.9h-11.24z" class="cls-2" transform="rotate(-34.26 110.136 135.837)"/><path d="M101.65 130.22h11.24v1.9h-11.24z" class="cls-2" transform="rotate(-28.86 107.256 131.168)"/><path d="M99.23 125.31h11.24v1.9H99.23z" class="cls-2" transform="rotate(-23.46 104.852 126.265)"/><path d="M97.29 120.18h11.24v1.9H97.29z" class="cls-2" transform="rotate(-18.06 102.934 121.16)"/><path d="M95.84 114.9h11.24v1.9H95.84z" class="cls-2" transform="rotate(-12.66 101.448 115.832)"/><path d="M94.89 109.5h11.24v1.9H94.89z" class="cls-2" transform="rotate(-7.26 100.533 110.436)"/><path d="M94.45 104.04h11.24v1.9H94.45z" class="cls-2" transform="rotate(-1.86 99.965 105.143)"/><path d="M99.21 93.89h1.9v11.24h-1.9z" class="cls-2" transform="rotate(-86.46 100.15 99.516)"/><path d="M99.8 88.45h1.9v11.24h-1.9z" class="cls-2" transform="rotate(-81.06 100.747 94.064)"/><path d="M100.91 83.08h1.9v11.24h-1.9z" class="cls-2" transform="rotate(-75.66 101.852 88.7)"/><path d="M102.51 77.84h1.9v11.24h-1.9z" class="cls-2" transform="rotate(-70.26 103.454 83.467)"/><path d="M104.6 72.78h1.9v11.24h-1.9z" class="cls-2" transform="rotate(-64.87 105.543 78.403)"/><path d="M107.16 67.94h1.9v11.24h-1.9z" class="cls-2" transform="rotate(-59.46 108.107 73.558)"/><path d="M110.16 63.35h1.9v11.24h-1.9z" class="cls-2" transform="rotate(-54.06 111.125 68.972)"/><path d="M113.58 59.07h1.9v11.24h-1.9z" class="cls-2" transform="rotate(-48.66 114.53 64.69)"/><path d="M117.39 55.14h1.9v11.24h-1.9z" class="cls-2" transform="rotate(-43.26 118.339 60.759)"/><path d="M121.56 51.57h1.9v11.24h-1.9z" class="cls-2" transform="rotate(-37.86 122.517 57.188)"/><path d="M126.04 48.42h1.9v11.24h-1.9z" class="cls-2" transform="rotate(-32.46 126.992 54.034)"/><path d="M130.79 45.7h1.9v11.24h-1.9z" class="cls-2" transform="rotate(-27.06 131.743 51.31)"/><path d="M135.78 43.44h1.9v11.24h-1.9z" class="cls-2" transform="rotate(-21.66 136.73 49.05)"/><path d="M140.96 41.66h1.9V52.9h-1.9z" class="cls-2" transform="rotate(-16.26 141.892 47.27)"/><path d="M146.29 40.37h1.9v11.24h-1.9z" class="cls-2" transform="rotate(-10.86 147.16 45.993)"/><path d="M151.71 39.6h1.9v11.24h-1.9z" class="cls-2" transform="rotate(-5.46 152.546 45.214)"/><path d="M157.19 39.33h1.9v11.24h-1.9z" class="cls-2"/><path d="M157.99 44.26h11.24v1.9h-11.24z" class="cls-2" transform="matrix(.09 -1 1 .09 103.36 203.89)"/><path d="M163.41 45.02h11.24v1.9h-11.24z" class="cls-2" transform="rotate(-79.25 169.031 45.97)"/><path d="M168.74 46.29h11.24v1.9h-11.24z" class="cls-2" transform="rotate(-73.86 174.362 47.244)"/><path d="M173.93 48.07h11.24v1.9h-11.24z" class="cls-2" transform="rotate(-68.45 179.55 49.015)"/><path d="M178.92 50.31h11.24v1.9h-11.24z" class="cls-2" transform="rotate(-63.06 184.524 51.267)"/><path d="M183.68 53.02h11.24v1.9h-11.24z" class="cls-2" transform="rotate(-57.66 189.29 53.973)"/><path d="M188.17 56.17h11.24v1.9h-11.24z" class="cls-2" transform="rotate(-52.26 193.77 57.117)"/><path d="M192.34 59.72h11.24v1.9h-11.24z" class="cls-2" transform="rotate(-46.86 197.969 60.671)"/><path d="M196.15 63.65h11.24v1.9h-11.24z" class="cls-2" transform="rotate(-41.46 201.772 64.598)"/><path d="M199.59 67.93h11.24v1.9h-11.24z" class="cls-2" transform="rotate(-36.06 205.192 68.88)"/><path d="M202.6 72.5h11.24v1.9H202.6z" class="cls-2" transform="rotate(-30.65 208.259 73.45)"/><path d="M205.17 77.34h11.24v1.9h-11.24z" class="cls-2" transform="rotate(-25.26 210.756 78.276)"/><path d="M207.27 82.4h11.24v1.9h-11.24z" class="cls-2" transform="rotate(-19.86 212.89 83.337)"/><path d="M208.89 87.63h11.24v1.9h-11.24z" class="cls-2" transform="rotate(-14.46 214.433 88.556)"/><path d="M210 93h11.24v1.9H210z" class="cls-2" transform="rotate(-9.06 215.587 93.921)"/><path d="M210.61 98.44h11.24v1.9h-11.24z" class="cls-2" transform="translate(-5.9 13.99)"/><path d="M215.37 99.25h1.9v11.24h-1.9z" class="cls-2" transform="rotate(-88.21 216.324 104.868)"/><path d="M214.95 104.71h1.9v11.24h-1.9z" class="cls-2" transform="rotate(-83 215.78 110.82)"/><path d="M214.01 110.11h1.9v11.24h-1.9z" class="cls-2" transform="rotate(-77.46 214.942 115.734)"/><path d="M212.57 115.4h1.9v11.24h-1.9z" class="cls-2" transform="rotate(-72.06 213.51 121.018)"/><path d="M210.64 120.52h1.9v11.24h-1.9z" class="cls-2" transform="rotate(-66.66 211.588 126.142)"/><path d="M208.23 125.45h1.9v11.24h-1.9z" class="cls-2" transform="rotate(-61.26 209.184 131.067)"/><path d="M205.38 130.12h1.9v11.24h-1.9z" class="cls-2" transform="rotate(-55.86 206.324 135.744)"/><path d="M202.09 134.51h1.9v11.24h-1.9z" class="cls-2" transform="rotate(-50.46 203.04 140.125)"/><path d="M198.41 138.56h1.9v11.24h-1.9z" class="cls-2" transform="rotate(-45.05 199.375 144.179)"/><path d="M159.16 103.12l37.41-23.51a1.12 1.12 0 0 0-1.29-.2l-38.53 18.16z" class="cls-3"/><path d="M197.35 79.68l-.45-.42a1.48 1.48 0 0 0-.3-.21 1.85 1.85 0 0 0-2-.28l-47.9 22.55 5.49 15.78L196.56 82a1.81 1.81 0 0 0 .56-2.15zm-3 .78l-35 22-2-4.57zm1.34.4l-42.8 33.88-4.41-12.68 8.08-3.8 2.41 5.56 36.89-23.19a.49.49 0 0 1-.19.23z" class="cls-2"/><circle cx="158.75" cy="103.13" r="15.66" class="cls-3" transform="rotate(-27.15 158.76 103.136)"/><path d="M158.75 119.73a16.61 16.61 0 1 1 16.61-16.6 16.63 16.63 0 0 1-16.61 16.6zm0-31.31a14.71 14.71 0 1 0 14.71 14.71 14.73 14.73 0 0 0-14.71-14.71z" class="cls-2"/><path d="M170.06 103.13a11.31 11.31 0 1 1-11.31-11.31 11.3 11.3 0 0 1 11.31 11.31z" class="cls-1"/><path d="M158.75 114.91a11.78 11.78 0 1 1 11.78-11.78 11.8 11.8 0 0 1-11.78 11.78zm0-22.62a10.84 10.84 0 1 0 10.83 10.84 10.85 10.85 0 0 0-10.83-10.84z" class="cls-2"/><path d="M163.51 153.06a3.63 3.63 0 1 1-3.62-3.62 3.63 3.63 0 0 1 3.62 3.62z" class="cls-3"/><path d="M158.75 147.53a4.34 4.34 0 1 0 4.33 4.34 4.35 4.35 0 0 0-4.33-4.34zm0 1.43a2.9 2.9 0 0 1 1.14.23l-3.33 4.58a2.86 2.86 0 0 1-.73-1.9 2.91 2.91 0 0 1 2.92-2.87zm0 5.82a2.89 2.89 0 0 1-1-.19l3.28-4.53a2.88 2.88 0 0 1 .65 1.81 2.91 2.91 0 0 1-2.93 2.91z" class="cls-2"/><path d="M166.67 103.13a7.92 7.92 0 1 1-7.92-7.92 7.92 7.92 0 0 1 7.92 7.92z" class="cls-3"/><path d="M158.75 112a8.87 8.87 0 1 1 8.86-8.86 8.87 8.87 0 0 1-8.86 8.86zm0-15.83a7 7 0 1 0 7 7 7 7 0 0 0-7-7.01z" class="cls-2"/></g><path d="M296.14 402.73v26.17c0 2 1.35 4.09 4.06 5.65 5.4 3.12 14.17 3.12 19.58 0 2.7-1.56 4.05-3.61 4.05-5.65v-26.17z" class="cls-1"/><path d="M310 437.49a20.72 20.72 0 0 1-10.1-2.41c-2.81-1.63-4.36-3.82-4.36-6.19v-26.77h28.91v26.77c0 2.37-1.55 4.56-4.36 6.19a20.71 20.71 0 0 1-10.09 2.41zm-13.24-34.15v25.55c0 1.91 1.33 3.73 3.75 5.13 5.23 3 13.74 3 19 0 2.42-1.4 3.75-3.22 3.75-5.13v-25.55z" class="cls-2"/><path d="M308.73 402.73v34.09a20.62 20.62 0 0 0 11-2.27c2.7-1.56 4.05-3.61 4.05-5.65v-26.17z" class="cls-2"/><path d="M310 437.46H308.09v-35.34h16.32v26.77c0 2.37-1.55 4.56-4.36 6.19a20.62 20.62 0 0 1-10.05 2.38zm-.69-1.23a19.64 19.64 0 0 0 10.16-2.23c2.42-1.4 3.75-3.22 3.75-5.13v-25.53h-13.88z" class="cls-2"/><path d="M319.78 397.08c5.4 3.12 5.4 8.18 0 11.3s-14.18 3.13-19.58 0-5.41-8.18 0-11.3 14.17-3.08 19.58 0z" class="cls-1"/><path d="M310 411.32a20.61 20.61 0 0 1-10.1-2.41c-2.81-1.62-4.36-3.82-4.36-6.18s1.55-4.56 4.36-6.18c5.57-3.21 14.63-3.21 20.19 0 2.81 1.62 4.36 3.82 4.36 6.18s-1.55 4.56-4.36 6.18a20.6 20.6 0 0 1-10.09 2.41zm0-16a19.42 19.42 0 0 0-9.49 2.27c-2.42 1.39-3.75 3.21-3.75 5.12s1.33 3.73 3.75 5.13c5.23 3 13.74 3 19 0 2.42-1.4 3.75-3.22 3.75-5.13s-1.33-3.73-3.75-5.12a19.38 19.38 0 0 0-9.51-2.25z" class="cls-2"/><path d="M303.52 409.97h1.22v26.17h-1.22z" class="cls-2"/><path d="M320.03 410.14h1.22v20.97h-1.22zM259.66 315.79v93.35c0 2.05 1.35 4.1 4.06 5.66 5.4 3.12 14.17 3.12 19.58 0 2.7-1.56 4.05-3.61 4.05-5.66v-93.35z" class="cls-1"/><path d="M273.51 417.74a20.61 20.61 0 0 1-10.1-2.42c-2.81-1.62-4.36-3.81-4.36-6.18v-94H288v94c0 2.37-1.55 4.56-4.36 6.18a20.6 20.6 0 0 1-10.13 2.42zM260.27 316.4v92.74c0 1.91 1.33 3.73 3.75 5.13 5.23 3 13.74 3 19 0 2.42-1.4 3.75-3.22 3.75-5.13V316.4z" class="cls-2"/><path d="M272.25 315.79v101.28a20.62 20.62 0 0 0 11.05-2.27c2.7-1.56 4.05-3.61 4.05-5.66v-93.35z" class="cls-2"/><path d="M273.55 417.71H271.64V315.18H288v94c0 2.37-1.55 4.56-4.36 6.18a20.54 20.54 0 0 1-10.09 2.35zm-.69-1.23a19.64 19.64 0 0 0 10.14-2.21c2.42-1.4 3.75-3.22 3.75-5.13V316.4h-13.89z" class="cls-2"/><path d="M283.3 310.14c5.4 3.12 5.4 8.18 0 11.3s-14.18 3.13-19.58 0-5.41-8.18 0-11.3 14.17-3.14 19.58 0z" class="cls-1"/><path d="M273.51 324.38a20.61 20.61 0 0 1-10.1-2.41c-2.81-1.62-4.36-3.81-4.36-6.18s1.55-4.55 4.36-6.18c5.57-3.21 14.63-3.21 20.19 0 2.81 1.63 4.36 3.82 4.36 6.18s-1.55 4.56-4.36 6.18a20.6 20.6 0 0 1-10.09 2.41zm0-16a19.42 19.42 0 0 0-9.49 2.27c-2.42 1.39-3.75 3.22-3.75 5.12s1.33 3.73 3.75 5.13c5.23 3 13.74 3 19 0 2.42-1.4 3.75-3.22 3.75-5.13s-1.33-3.73-3.75-5.12a19.38 19.38 0 0 0-9.51-2.25z" class="cls-2"/><path d="M267.04 323.03h1.22v93.35h-1.22z" class="cls-2"/><path d="M283.55 323.2h1.22v88.16h-1.22zM259.66 303.29v7.12c0 2 1.35 4.09 4.06 5.65 5.4 3.12 14.17 3.12 19.58 0 2.7-1.56 4.05-3.61 4.05-5.65v-7.12z" class="cls-1"/><path d="M273.51 319a20.72 20.72 0 0 1-10.1-2.41c-2.81-1.63-4.36-3.82-4.36-6.18v-7.73H288v7.73c0 2.36-1.55 4.55-4.36 6.18a20.71 20.71 0 0 1-10.13 2.41zm-13.24-15.1v6.51c0 1.9 1.33 3.72 3.75 5.12 5.23 3 13.74 3 19 0 2.42-1.4 3.75-3.22 3.75-5.12v-6.51z" class="cls-2"/><path d="M272.25 303.29v15a20.62 20.62 0 0 0 11.05-2.27c2.7-1.56 4.05-3.61 4.05-5.65v-7.12z" class="cls-2"/><path d="M273.55 319H271.64v-16.32H288v7.73c0 2.36-1.55 4.55-4.36 6.18a20.62 20.62 0 0 1-10.09 2.41zm-.69-1.23a19.74 19.74 0 0 0 10.14-2.24c2.42-1.4 3.75-3.22 3.75-5.12v-6.51h-13.89z" class="cls-2"/><path d="M283.3 297.64c5.4 3.12 5.4 8.18 0 11.3s-14.18 3.13-19.58 0-5.41-8.18 0-11.3 14.17-3.12 19.58 0z" class="cls-1"/><path d="M273.51 311.88a20.61 20.61 0 0 1-10.1-2.41c-2.81-1.62-4.36-3.81-4.36-6.18s1.55-4.55 4.36-6.18c5.57-3.21 14.63-3.21 20.19 0 2.81 1.63 4.36 3.82 4.36 6.18s-1.55 4.56-4.36 6.18a20.6 20.6 0 0 1-10.09 2.41zm0-16a19.42 19.42 0 0 0-9.49 2.27c-2.42 1.39-3.75 3.21-3.75 5.12s1.33 3.73 3.75 5.13c5.23 3 13.74 3 19 0 2.42-1.4 3.75-3.22 3.75-5.13s-1.33-3.73-3.75-5.12a19.38 19.38 0 0 0-9.51-2.25z" class="cls-2"/><path d="M267.04 310.53h1.22v7.12h-1.22z" class="cls-2"/><path d="M283.55 310.7h1.22v1.92h-1.22zM259.66 290.29v7.11c0 2.05 1.35 4.09 4.06 5.65 5.4 3.12 14.17 3.12 19.58 0 2.7-1.56 4.05-3.6 4.05-5.65v-7.11z" class="cls-1"/><path d="M273.51 306a20.61 20.61 0 0 1-10.1-2.41c-2.81-1.62-4.36-3.82-4.36-6.18v-7.72H288v7.72c0 2.36-1.55 4.56-4.36 6.18a20.6 20.6 0 0 1-10.13 2.41zm-13.24-15.1v6.5c0 1.91 1.33 3.73 3.75 5.12 5.23 3 13.74 3 19 0 2.42-1.39 3.75-3.21 3.75-5.12v-6.5z" class="cls-2"/><path d="M272.25 290.29v15a20.52 20.52 0 0 0 11.05-2.27c2.7-1.56 4.05-3.6 4.05-5.65v-7.11z" class="cls-2"/><path d="M273.55 306H271.64v-16.32H288v7.72c0 2.36-1.55 4.56-4.36 6.18a20.52 20.52 0 0 1-10.09 2.42zm-.69-1.23a19.74 19.74 0 0 0 10.14-2.25c2.42-1.39 3.75-3.21 3.75-5.12v-6.5h-13.89z" class="cls-2"/><path fill="#efdeca" d="M283.3 284.64c5.4 3.12 5.4 8.18 0 11.3s-14.18 3.12-19.58 0-5.41-8.18 0-11.3 14.17-3.13 19.58 0z"/><path d="M273.51 298.88a20.61 20.61 0 0 1-10.1-2.41c-2.81-1.62-4.36-3.82-4.36-6.18s1.55-4.56 4.36-6.18c5.57-3.22 14.63-3.22 20.19 0 2.81 1.62 4.36 3.82 4.36 6.18s-1.55 4.56-4.36 6.18a20.6 20.6 0 0 1-10.09 2.41zm0-16a19.41 19.41 0 0 0-9.49 2.26c-2.42 1.4-3.75 3.22-3.75 5.13s1.33 3.73 3.75 5.12c5.23 3 13.74 3 19 0 2.42-1.39 3.75-3.21 3.75-5.12s-1.33-3.73-3.75-5.13a19.37 19.37 0 0 0-9.51-2.24z" class="cls-2"/><path d="M267.04 297.52h1.22v7.12h-1.22z" class="cls-2"/><path d="M283.55 297.7h1.22v1.92h-1.22zM245.3 356.55v65.22c0 2 1.35 4.09 4 5.65 5.41 3.12 14.18 3.12 19.58 0 2.71-1.56 4.06-3.61 4.06-5.65v-65.22z" class="cls-1"/><path d="M259.14 430.36a20.6 20.6 0 0 1-10.09-2.36c-2.81-1.62-4.36-3.82-4.36-6.18v-65.88h28.91v65.83c0 2.36-1.55 4.56-4.36 6.18a20.64 20.64 0 0 1-10.1 2.41zm-13.23-73.2v64.61c0 1.91 1.33 3.73 3.75 5.12 5.23 3 13.74 3 19 0 2.42-1.39 3.75-3.21 3.75-5.12v-64.61z" class="cls-2"/><path d="M257.89 356.55v73.14a20.47 20.47 0 0 0 11-2.27c2.71-1.56 4.06-3.61 4.06-5.65v-65.22z" class="cls-2"/><path d="M259.19 430.34h-1.92v-74.4h16.33v65.83c0 2.36-1.55 4.56-4.36 6.18a20.54 20.54 0 0 1-10.05 2.39zm-.7-1.23a19.75 19.75 0 0 0 10.14-2.22c2.42-1.39 3.75-3.21 3.75-5.12v-64.61h-13.89z" class="cls-2"/><path d="M268.93 350.9c5.41 3.12 5.41 8.18 0 11.31s-14.17 3.12-19.58 0-5.4-8.19 0-11.31 14.18-3.12 19.58 0z" class="cls-1"/><path d="M259.14 365.14a20.6 20.6 0 0 1-10.09-2.41c-2.81-1.62-4.36-3.81-4.36-6.18s1.55-4.55 4.36-6.18c5.56-3.21 14.62-3.21 20.19 0 2.81 1.63 4.36 3.82 4.36 6.18s-1.55 4.56-4.36 6.18a20.64 20.64 0 0 1-10.1 2.41zm0-16a19.37 19.37 0 0 0-9.48 2.26c-2.42 1.4-3.75 3.22-3.75 5.12s1.33 3.73 3.75 5.13c5.23 3 13.74 3 19 0 2.42-1.4 3.75-3.22 3.75-5.13s-1.33-3.72-3.75-5.12a19.41 19.41 0 0 0-9.52-2.23z" class="cls-2"/><path d="M252.68 363.79h1.22v65.22h-1.22z" class="cls-2"/><path d="M269.19 363.96h1.22v60.02h-1.22z" class="cls-1"/></g></g></svg>