<svg xmlns="http://www.w3.org/2000/svg" viewBox="0 0 415.25 354.22"><defs><style>.cls-1{fill:#17110c}.cls-2{fill:#3d94ba}.cls-3{fill:#f7e3c6}</style></defs><g id="Слой_2" data-name="Слой 2"><g id="Layer_1" data-name="Layer 1"><path d="M176.65 158.84l-1.17-2 6.1-3.57 1.16 2zm12.18-7.15l-1.16-2 6.09-3.57 1.17 2zm12.17-7.15l-1.17-2L206 139l1.16 2zm12.18-7.15l-1.16-2 6.09-3.57 1.16 2zm12.19-7.15l-1.17-2 6.1-3.58 1.16 2zm12.18-7.15l-1.16-2 5-3 1.16 2z" class="cls-1"/><path d="M232.24 115.51l16.76 9.93a11.43 11.43 0 0 0 10.27.12l17-9.55a3.56 3.56 0 0 0 2.14-3l.08-7.67a.08.08 0 0 0-.11-.08l-7 3.56a.11.11 0 0 1-.08 0l-6.09-11.58c-2.81-1.66-17.64-3-20.48-1.37l-7.38 12.55h-.07l-6.92-3.7a.08.08 0 0 0-.11.08l-.1 7.73a3.59 3.59 0 0 0 2.09 2.98zm32.56-5.11a.08.08 0 0 1 0 .14l-3.71 1.89s0 1.67-.05 1.67l-15-1v-1.68l-2.23-1.19 7.82-4.39a6.24 6.24 0 0 1 5.6.06z" class="cls-2"/><path d="M276.66 116.73l-17 9.55a12.32 12.32 0 0 1-11.11-.13l-16.76-9.92a4.36 4.36 0 0 1-2.48-3.7l.09-7.74.05-.52.88-.49 6.68 3.57 7.11-12.09.19-.11c3.07-1.72 18.27-.42 21.31 1.39l.2.12 5.85 11.08 6.3-3.2.49-.21.83.56-.09 8.12a3.52 3.52 0 0 1-.83 2.3 6.07 6.07 0 0 1-1.71 1.42zm-4.9-7.16l-.49.21-.58-.37-6.09-11.54c-2.94-1.44-16.35-2.61-19.27-1.36L238 109l-.66.35-6.24-3.33-.08 6.5a2.8 2.8 0 0 0 1.67 2.24l16.76 9.93a10.61 10.61 0 0 0 9.45.11l17-9.55a2.78 2.78 0 0 0 1.71-2.27l.07-6.43zm-9.86 3.37v.33c0 1.17 0 1.19-.3 1.44l-.26.24-15.42-1.06c-.77-.07-.77-.58-.77-1.72v-.27l-3.15-1.68 9.13-5.14a7 7 0 0 1 6.43.08l7.64 4.53.47.32-.09 1zm-15.65-2.32c.55.2.55.51.55 1.55v.11l13.43.93c0-1.12 0-1.31.48-1.53l2.49-1.26-6.47-3.83a5.37 5.37 0 0 0-4.77 0l-6.49 3.65z" class="cls-1"/><path d="M249.41 92.37l-17 9.56c-2.83 1.6-2.86 4.24-.07 5.9l16.8 10a11.31 11.31 0 0 0 10.2.11l17-9.57c2.83-1.59 2.86-4.23.06-5.89l-16.79-10a11.25 11.25 0 0 0-10.2-.11zm2.27 5.73a6.1 6.1 0 0 1 5.52.07l9.3 5.5c1.51.9 1.49 2.32 0 3.19l-9.41 5.29a6.07 6.07 0 0 1-5.52-.06l-9.3-5.5c-1.51-.9-1.49-2.33 0-3.19z" class="cls-3"/><path d="M276.75 109.05l-17 9.57a12 12 0 0 1-11-.13l-16.8-9.95a3.92 3.92 0 0 1 .08-7.33l17-9.57a12 12 0 0 1 11 .13l16.8 10a4.35 4.35 0 0 1 2.48 3.69 3.54 3.54 0 0 1-.83 2.22 5.94 5.94 0 0 1-1.73 1.37zm-17.57-15.86a10.52 10.52 0 0 0-9.36-.1l-17 9.57a2.31 2.31 0 0 0-.05 4.45l16.79 10a10.54 10.54 0 0 0 9.37.11l17-9.58a2.31 2.31 0 0 0 .05-4.45l-16.8-10zm7.69 14.39l-9.42 5.3a6.88 6.88 0 0 1-6.35-.08l-9.29-5.5a2.75 2.75 0 0 1-1.54-2.33 2.78 2.78 0 0 1 1.59-2.3l9.42-5.29a6.91 6.91 0 0 1 6.35.07l9.29 5.51a2.74 2.74 0 0 1 1.53 2.33 2.26 2.26 0 0 1-.54 1.43 3.44 3.44 0 0 1-1.04.86zm-24.19-3.46c-.47.26-.74.59-.74.87s.26.61.72.88l9.29 5.51a5.3 5.3 0 0 0 4.69.05l9.41-5.3c.46-.26.74-.58.74-.86s-.26-.61-.72-.89l-9.29-5.5a5.26 5.26 0 0 0-4.69 0l-9.41 5.29-.41-.72z" class="cls-1"/><path d="M254.95 126.73l.07-7.67-1.66-.02-.08 7.67 1.67.02z" class="cls-1"/><path d="M250.58 100.48h7.66v1.66h-7.66z" class="cls-1" transform="rotate(-89.43 254.403 101.307)"/><path d="M275.36 116.86l.07-7.67-1.66-.02-.07 7.67 1.66.02zM236.16 117.06l.08-7.67-1.67-.01-.07 7.67 1.66.01zM267.62 106s-4 2.55-4.19 2.7-6.28-3.11-6.28-3.11l-2.51-.84v-7.27l3.66 1.46s8.68 4.82 8.7 4.93.62 2.13.62 2.13zM254.25 135.22a12.68 12.68 0 0 0 6.18-1.6l7.72-4.29-1-1.89-7.73 4.3a10.63 10.63 0 0 1-10.38-.07l-7.35-4.22-1.07 1.87 7.35 4.22a12.66 12.66 0 0 0 6.28 1.68zM106.42 334.93a15.4 15.4 0 0 1-5.79-1.95l-1.18-.67 1.13-2 1.2.69a13.33 13.33 0 0 0 4.93 1.66zm7.5-.91l-.83-2.14a12.6 12.6 0 0 0 1.74-.83l4.33-2.44 1.13 2-4.29 2.44a16.57 16.57 0 0 1-2.08.95zm-20.62-5.2l-6.14-3.49 1.14-2 6.14 3.49zm33.14-1.7l-1.13-2 6.14-3.48 1.14 2zM81 321.83l-6.14-3.49 1.14-2 6.14 3.5zm57.71-1.66l-1.13-2 6.15-3.48 1.13 2zM1.14 316.49L0 314.5l6.12-3.5 1.15 2zm67.61-1.64l-6.15-3.49 1.14-2 6.14 3.49zm82.25-1.64l-1.13-2 6.15-3.47 1.13 2zm-137.61-3.77l-1.15-2 6.12-3.53 1.15 2zm43.07-1.57l-6.14-3.49 1.14-2 6.14 3.49zm106.87-1.61l-1.13-2 6.15-3.48 1.13 2zm-137.7-3.88l-1.15-2 4-2.3a14.43 14.43 0 0 1 2.4-1.08l.78 2.16a12.86 12.86 0 0 0-2 .95zm18.55-1.5l-1.4-.8a13.26 13.26 0 0 0-4.72-1.63l.33-2.27a15.56 15.56 0 0 1 5.53 1.91l1.39.8zm131.45-1.58l-1.13-2 6.14-3.48 1.14 2zm12.29-7l-1.13-2 6.15-3.47 1.13 2zm12.3-7l-1.13-2 6.15-3.47 1.13 2zm12.3-6.95l-1.13-2 2-1.14a5.54 5.54 0 0 0 2.52-2.94l2.15.8a7.84 7.84 0 0 1-3.54 4.14zM215 266.8a6 6 0 0 0-1.54-1.32l-4-2.34 1.16-2 4 2.34a7.71 7.71 0 0 1 2.15 1.86zm-11.6-7.24l-6.06-3.56 1.17-2 6.08 3.58zm-12.17-7.17l-6.09-3.59 1.16-2 6.09 3.59zm-12.18-7.18l-6.05-3.58 1.16-2 6.09 3.59zM166.91 238l-6.09-3.58 1.17-2 6.09 3.59zm-12.17-7.17l-1.63-1 1.17-2 1.62.95zM280.48 291.26l-6.13-3.51 1.14-2 6.13 3.51zm-12.26-7l-6.13-3.51 1.14-2 6.13 3.51zm-12.27-7l-6.13-3.51 1.14-2 6.14 3.5zm-12.26-7l-6.13-3.51 1.14-2 6.13 3.52zm-12.26-7l-6.13-3.51 1.14-2 6.13 3.51zm-12.26-7l-6.17-3.6 1.14-2 6.13 3.51zm-12.26-7l-6.13-3.51 1.14-2 6.13 3.51z" class="cls-1"/><path d="M188.59 201.05l.09-14.3h-5c-3.54-5.18-8.9-10-16.15-14.23-28.26-16.31-74.07-16.31-102.33 0-7.26 4.19-12.62 9-16.15 14.23H44l.05 14.25v3.24l.15.62c.9 10 7.78 19.12 20.94 26.71 28.25 16.32 74.07 16.32 102.33 0 13.15-7.59 20.1-17.39 21-27.33.03.03.16-2.46.12-3.19z" class="cls-2"/><path d="M116.32 245.65c-18.87 0-37.73-4.14-52.09-12.44-13.27-7.66-20.82-17.34-21.85-28l-.17-.89s-.05-2.6 0-3.36l-.11-16H48a51.07 51.07 0 0 1 16.19-14c28.72-16.58 75.46-16.58 104.18 0a51.07 51.07 0 0 1 16.19 14h6l-.1 16.12c0 .83-.1 3.34-.1 3.34-1 11-8.79 21.26-21.94 28.85-14.36 8.24-33.23 12.38-52.1 12.38zM45.92 204l.14.69c.88 9.61 7.61 18.11 20 25.27 27.7 16 72.78 16 100.48 0 12.07-7 19.2-16.16 20.09-25.89s.12-2.29.09-3V201l.07-12.42h-4.16l-.55-.82c-3.5-5.14-8.73-9.74-15.54-13.67-27.7-16-72.78-16-100.48 0-6.81 3.93-12 8.53-15.53 13.67l-.56.82h-4.14l.08 12.4c-.03.7 0 2.45.01 3.02z" class="cls-1"/><path d="M183.64 186.75c-3.54-5.18-8.9-10-16.15-14.23-11.83-6.83-26.74-10.75-42.15-11.87v82.83c15.41-1.12 30.32-5 42.15-11.88 13.15-7.59 20.1-17.39 21-27.33 0 0 .13-2.49.09-3.22l.09-14.3z" class="cls-1"/><path d="M167.49 157.21c28.26 16.32 28.26 42.77 0 59.09s-74.08 16.31-102.33 0-28.26-42.77 0-59.09 74.07-16.31 102.33 0z" class="cls-3"/><path d="M116.32 230.34c-18.87 0-37.73-4.14-52.09-12.43S42.1 198.6 42.1 186.75s7.9-22.9 22.13-31.15c28.77-16.6 75.46-16.6 104.18 0 14.27 8.25 22.13 19.3 22.13 31.15s-7.86 22.92-22.13 31.16-33.22 12.43-52.09 12.43zm0-83.51c-18.19 0-36.39 4-50.24 12-13.08 7.54-20.26 17.46-20.26 27.92s7.2 20.39 20.26 27.94c27.7 16 72.78 16 100.48 0 13.07-7.55 20.26-17.47 20.26-27.94s-7.19-20.38-20.26-27.93c-13.85-7.99-32.05-11.99-50.24-11.99z" class="cls-1"/><path d="M57.49 212.11h2.65v15.35h-2.65zM109.76 228.53h2.65v15.35h-2.65z" class="cls-1"/><path d="M168.36 216.37h1.33v13.43h-1.33zM177.31 208.79h1.33v13.42h-1.33zM154 165c20.78 12 20.78 31.45 0 43.45s-54.47 12-75.25 0S57.92 177 78.7 165s54.47-12 75.3 0z" class="cls-2"/><path d="M116.32 219.29c-14 0-27.92-3.06-38.55-9.2s-16.52-14.43-16.52-23.34 5.87-17.17 16.52-23.33c21.25-12.27 55.85-12.27 77.11 0 10.64 6.16 16.51 14.44 16.51 23.33s-5.87 17.19-16.51 23.33-24.6 9.21-38.56 9.21zm0-61.41c-13.29 0-26.58 2.92-36.7 8.76C70.17 172.1 65 179.24 65 186.75s5.2 14.67 14.65 20.12c20.25 11.68 53.16 11.68 73.4 0 9.45-5.45 14.65-12.6 14.65-20.12s-5.2-14.65-14.65-20.11c-10.15-5.84-23.44-8.76-36.73-8.76z" class="cls-1"/><path d="M154 177.2c-20.78-12-54.47-12-75.25 0-7.7 4.45-12.52 9.91-14.52 15.64 2 5.73 6.82 11.2 14.52 15.64 20.78 12 54.47 12 75.25 0 7.69-4.44 12.52-9.91 14.51-15.64-2.04-5.73-6.87-11.19-14.51-15.64z" class="cls-2"/><path d="M116.32 219.29c-14 0-27.92-3.06-38.55-9.2-7.82-4.52-13.13-10.27-15.34-16.64l-.22-.61.22-.61c2.21-6.36 7.52-12.12 15.34-16.63 21.25-12.28 55.85-12.28 77.11 0 7.81 4.51 13.12 10.27 15.34 16.63l.21.61-.21.61c-2.22 6.37-7.53 12.12-15.34 16.63-10.64 6.15-24.6 9.21-38.56 9.21zm-50.16-26.45c2 5.28 6.69 10.12 13.46 14 20.25 11.68 53.17 11.68 73.4 0 6.77-3.91 11.42-8.75 13.47-14-2.05-5.27-6.7-10.11-13.47-14-20.24-11.68-53.15-11.68-73.4 0-6.77 3.89-11.41 8.73-13.46 14z" class="cls-1"/><path d="M126.79 156.8h2.65v12.17h-2.65zM138.34 160.28h2.65v12.17h-2.65zM106.3 156.8v11.4l-16.99 4.26-18.91 10.97-6.22 7.25-1.07-7.46 7.29-12 10.02-7.14 12.8-5 13.08-2.28zM77.16 246.85A95.73 95.73 0 0 1 54 235.63l1.48-2.2A92.65 92.65 0 0 0 78 244.33zM50.64 232.51c-9.77-8.1-13.37-15.25-13.52-15.55l2.37-1.18c0 .07 3.55 7 12.84 14.69zM182.46 158.88a79.79 79.79 0 0 0-15.28-9.72l1.17-2.38a81.39 81.39 0 0 1 15.78 10.05zM162.84 147.18c-25.53-10.77-51.31-7.2-51.56-7.16l-.39-2.63c.27 0 26.75-3.71 53 7.35zM132.62 202c-2.38 1.93-.41 4.66 0 5.13h-.06c-.82-.22-5.54-1.36-8.89 0h-.06c2.37-1.93.36-4.67 0-5.14h.06c.82.22 5.58 1.37 8.93 0 0-.08.05.01.02.01zM119.75 194.55c-2.37 1.93-.41 4.66 0 5.14 0 0 0 .05-.07 0-.82-.22-5.53-1.36-8.89 0h-.06c2.37-1.94.37-4.68 0-5.15 0 0 0-.05.06 0 .83.22 5.58 1.37 8.93 0 .01-.05.06-.02.03.01zM145.54 194.52c-2.38 1.93-.41 4.66 0 5.13h-.06c-.82-.21-5.54-1.36-8.89 0h-.06c2.37-1.94.36-4.68 0-5.16h.06c.83.21 5.58 1.37 8.93 0 0-.03.05 0 .02.03zM132.67 187.08c-2.38 1.94-.41 4.66 0 5.14 0 0 0 .05-.06 0-.82-.22-5.54-1.35-8.89 0h-.06c2.37-1.93.37-4.66 0-5.15 0 0 0-.05.06 0 .83.22 5.58 1.37 8.93 0 0-.07.06-.01.02.01z" class="cls-1"/><path d="M95.87 166.88h2.65v66.62h-2.65z" class="cls-1" transform="rotate(-60.02 97.206 200.2)"/><path d="M165.76 198.26l-50.6-28.9 1.31-2.3 50.6 28.89-1.31 2.31z" class="cls-1"/><path d="M109.48 185.64c-3.67-5.64-4.55-16.64-1.94-24.64s7.68-9.93 11.36-4.31 4.54 16.65 1.94 24.65-7.68 9.91-11.36 4.3z" class="cls-2"/><path d="M114.17 190.57c-1.56 0-4-.66-6.13-4-4-6.09-4.93-17.56-2.14-26.12 1.65-5.09 4.42-8.25 7.6-8.67 1.47-.2 4.3.06 6.84 3.94 4 6.09 4.92 17.57 2.14 26.13-1.65 5.09-4.42 8.25-7.6 8.67a5.14 5.14 0 0 1-.71.05zm0-35.39h-.27c-1.37.19-3.35 1.94-4.78 6.32-2.41 7.43-1.61 18 1.75 23.18.65 1 2 2.64 3.5 2.41s3.35-1.94 4.78-6.31c2.41-7.43 1.62-18-1.75-23.18-.56-.91-1.76-2.42-3.18-2.42z" class="cls-1"/><path d="M123.83 180.11c-5.32 3.08-14 3.08-19.28 0s-5.33-8.06 0-11.13 14-3.08 19.28 0 5.33 8.02 0 11.13z" class="cls-1"/><path d="M128.76 170.48c-8 4.64-21.1 4.64-29.15 0s-8-12.18 0-16.83 21.1-4.65 29.15 0 8.05 12.18 0 16.83z" class="cls-2"/><path d="M114.19 175.66A31.67 31.67 0 0 1 98.75 172c-4.44-2.58-6.9-6.09-6.9-9.92s2.46-7.33 6.9-9.9c8.52-4.92 22.36-4.92 30.87 0 4.45 2.57 6.9 6.09 6.9 9.9s-2.45 7.34-6.9 9.92a31.6 31.6 0 0 1-15.43 3.66zm0-23.79a28.08 28.08 0 0 0-13.71 3.28c-3.34 1.92-5.18 4.38-5.18 6.91s1.84 5 5.18 6.92c7.56 4.37 19.86 4.37 27.42 0 3.34-1.92 5.17-4.38 5.17-6.92s-1.83-5-5.17-6.91a28.08 28.08 0 0 0-13.71-3.28z" class="cls-1"/><path d="M128.76 163.91c-8 4.65-21.1 4.65-29.15 0s-8-12.18 0-16.83 21.1-4.65 29.15 0 8.05 12.19 0 16.83z" class="cls-2"/><path d="M114.19 169.09a31.67 31.67 0 0 1-15.44-3.68c-4.44-2.57-6.9-6.09-6.9-9.91s2.46-7.34 6.9-9.91c8.51-4.91 22.36-4.91 30.87 0 4.45 2.57 6.9 6.1 6.9 9.91s-2.45 7.34-6.9 9.91a31.6 31.6 0 0 1-15.43 3.68zm0-23.78a27.94 27.94 0 0 0-13.71 3.27c-3.34 1.92-5.18 4.39-5.18 6.92s1.84 5 5.18 6.92c7.56 4.37 19.86 4.37 27.42 0 3.34-1.92 5.17-4.38 5.17-6.92s-1.83-5-5.17-6.92a28 28 0 0 0-13.71-3.27z" class="cls-1"/><path d="M128.76 157.11c-8 4.65-21.1 4.65-29.15 0s-8-12.18 0-16.83 21.1-4.64 29.15 0 8.05 12.18 0 16.83z" class="cls-2"/><path d="M114.19 162.29a31.56 31.56 0 0 1-15.44-3.68c-4.44-2.57-6.9-6.09-6.9-9.91s2.46-7.34 6.9-9.91c8.51-4.91 22.36-4.91 30.87 0 4.45 2.57 6.9 6.09 6.9 9.91s-2.45 7.34-6.9 9.91a31.49 31.49 0 0 1-15.43 3.68zm0-23.78a27.94 27.94 0 0 0-13.71 3.27c-3.34 1.92-5.18 4.39-5.18 6.92s1.84 5 5.18 6.92c7.56 4.37 19.86 4.37 27.42 0 3.34-1.92 5.17-4.38 5.17-6.92s-1.83-5-5.17-6.92a28 28 0 0 0-13.71-3.27z" class="cls-1"/><path d="M128.76 150c-8 4.64-21.1 4.64-29.15 0s-8-12.18 0-16.83 21.1-4.64 29.15 0 8.05 12.16 0 16.83z" class="cls-2"/><path d="M114.19 155.15a31.56 31.56 0 0 1-15.44-3.68c-4.44-2.57-6.9-6.09-6.9-9.9s2.46-7.35 6.9-9.92c8.51-4.91 22.36-4.91 30.87 0 4.45 2.57 6.9 6.09 6.9 9.92s-2.45 7.33-6.9 9.9a31.49 31.49 0 0 1-15.43 3.68zm0-23.78a28.07 28.07 0 0 0-13.71 3.27c-3.34 1.93-5.18 4.39-5.18 6.93s1.84 5 5.18 6.92c7.56 4.35 19.86 4.35 27.42 0 3.34-1.94 5.17-4.39 5.17-6.92s-1.83-5-5.17-6.93a28.07 28.07 0 0 0-13.71-3.27z" class="cls-1"/><path d="M168.84 58.76a54.65 54.65 0 1 0-98.53 32.47S86 111 93.7 135.38c.47 2.62 2.44 5.16 5.91 7.17 8 4.65 21.1 4.65 29.15 0 3.48-2 5.36-4.56 5.83-7.18 7.72-24.41 23.48-44.14 23.48-44.14a54.38 54.38 0 0 0 10.77-32.47z" class="cls-3"/><path d="M114.19 147.73A31.56 31.56 0 0 1 98.75 144c-3.83-2.21-6.16-5.1-6.75-8.36-7.49-23.57-22.88-43.14-23-43.33a56.37 56.37 0 1 1 90.49 0c-.19.24-15.68 19.83-23.21 43.63-.36 2.09-1.86 5.4-6.62 8.15a31.5 31.5 0 0 1-15.47 3.64zm0-141.9a52.85 52.85 0 0 0-42.5 84.37c.13.16 15.92 20.23 23.65 44.66.45 2.4 2.25 4.53 5.14 6.19 7.56 4.37 19.86 4.38 27.42 0 2.86-1.65 4.59-3.72 5-6 7.78-24.64 23.66-44.7 23.82-44.9a52.43 52.43 0 0 0 10.39-31.4 53 53 0 0 0-52.92-52.92z" class="cls-1"/><path d="M128.76 142.55c-8 4.65-21.1 4.65-29.15 0s-8-12.18 0-16.83 21.1-4.65 29.15 0 8.05 12.18 0 16.83z" class="cls-2"/><path d="M114.19 147.73A31.56 31.56 0 0 1 98.75 144c-4.44-2.56-6.9-6.09-6.9-9.9s2.46-7.34 6.9-9.91c8.51-4.91 22.36-4.91 30.87 0 4.45 2.57 6.9 6.09 6.9 9.91s-2.45 7.34-6.9 9.9a31.5 31.5 0 0 1-15.43 3.73zm0-23.79a28.07 28.07 0 0 0-13.71 3.27c-3.34 1.93-5.18 4.39-5.18 6.93s1.84 5 5.18 6.91c7.56 4.37 19.86 4.37 27.42 0 3.34-1.92 5.17-4.37 5.17-6.91s-1.83-5-5.17-6.93a28.07 28.07 0 0 0-13.71-3.27z" class="cls-1"/><path d="M114 134.65a8.32 8.32 0 0 1-6.38-2.94 8.44 8.44 0 0 1-2.12-6.12 94.45 94.45 0 0 0-13.6-53.06 2.18 2.18 0 0 1 .24-2.59 2.14 2.14 0 0 1 2.52-.48l11.68 5.67a.71.71 0 0 0 .57 0 .72.72 0 0 0 .42-.39l5.7-13.59a2.29 2.29 0 0 1 2-1.34 2.13 2.13 0 0 1 2 1.33c1 2.54 3.86 9.55 5.28 13.08a.71.71 0 0 0 .88.41l13.81-4.3a2.14 2.14 0 0 1 2.44.85 2.12 2.12 0 0 1-.09 2.55c-4.37 5.45-18.51 25.27-16.89 52a8.46 8.46 0 0 1-1.13 4.83 8.33 8.33 0 0 1-6.53 4.1zM97 74.41a98 98 0 0 1 12 51.41 5 5 0 0 0 1.2 3.53 5 5 0 0 0 4.32 1.84 4.94 4.94 0 0 0 4.52-5.3c-1.46-24 9.27-42.7 15.2-51.07l-10 3.12a4.14 4.14 0 0 1-5.11-2.41L115 65.37l-4.49 10.72a4.18 4.18 0 0 1-5.68 2.14zM82.77 144a138.82 138.82 0 0 0-7.68-21.78l3.13-1.43a140 140 0 0 1 7.9 22.38zM71.32 114.85c-3.24-5.66-6.66-10-10.17-12.78l2.16-2.69c3.85 3.09 7.55 7.72 11 13.75zM176.27 41.88c-6.66-30.11-28.54-38.56-28.76-38.65l1.2-3.23c1 .36 23.84 9.11 30.93 41.13zM180.6 67.17l-3.31-1c2.17-7.44 0-17.47 0-17.57l3.37-.75c.07.48 2.34 11.03-.06 19.32zM322 226.43l-6.12-3.43 1.13-2 6.15 3.47zm-12.31-6.94l-6.12-3.49 1.13-2 6.15 3.47zm-12.31-7.74a7.5 7.5 0 0 1-1.39-4.38 7.66 7.66 0 0 1 .86-3.52l2 1.07a5.35 5.35 0 0 0 .37 5.5zm6.62-10.63l-1.14-2 6.14-3.49 1.14 2zm12.28-7l-1.14-2 6.14-3.49 1.14 2zM232.45 298.6l47.93 27.29c5.13 2.92 14.05 2.5 19.93-.94L409 261.33c5.88-3.44 7.36-12.3 2.23-15.21l-48.79-22.19c-5.13-2.92-14.05-2.5-19.93.94L232.4 283.74c-5.88 3.44-5.08 11.94.05 14.86z" class="cls-1"/><path d="M279.94 326.67L232 299.38a9.54 9.54 0 0 1-4.61-8.3A9.09 9.09 0 0 1 232 283l110.08-58.84c6.12-3.59 15.46-4 20.75-1l48.86 22.23a7.39 7.39 0 0 1 3.58 6.64 12 12 0 0 1-5.8 10.12l-108.71 63.57a24.15 24.15 0 0 1-11.71 3 18.55 18.55 0 0 1-9.11-2.05zm63-101l-110.09 58.84a7.33 7.33 0 0 0-3.67 6.57 7.85 7.85 0 0 0 3.71 6.74l47.93 27.3c4.88 2.77 13.42 2.35 19-.94l108.69-63.62a10.18 10.18 0 0 0 4.92-8.57 5.69 5.69 0 0 0-2.61-5.07L362 224.7a16.68 16.68 0 0 0-8.21-1.83 22.32 22.32 0 0 0-10.86 2.79z" class="cls-1"/><path d="M232.43 294.33l47.92 27.29c5.13 2.92 14 2.5 19.93-.94L409 257.06c5.87-3.44 6.48-8.6 1.36-11.52l-47.93-27.29c-5.13-2.92-14.05-2.5-19.93.94l-108.71 63.62c-5.88 3.44-6.49 8.6-1.36 11.52z" class="cls-3"/><path d="M279.91 322.4L232 295.1c-2.52-1.43-3.91-3.48-3.93-5.75 0-2.67 1.91-5.33 5.29-7.31L342 218.42c6.11-3.57 15.45-4 20.82-.95l47.93 27.3c2.52 1.43 3.91 3.47 3.93 5.74 0 2.68-1.91 5.34-5.29 7.31l-108.66 63.63a24 24 0 0 1-11.7 3 18.7 18.7 0 0 1-9.12-2.05zm63-102.44l-108.67 63.62c-2.81 1.64-4.42 3.74-4.4 5.76 0 1.61 1.08 3.11 3 4.21l47.93 27.3c4.88 2.77 13.42 2.35 19-.94l108.68-63.62c2.81-1.64 4.42-3.75 4.4-5.77 0-1.61-1.08-3.1-3-4.2L362 219a16.76 16.76 0 0 0-8.23-1.83 22.22 22.22 0 0 0-10.84 2.83z" class="cls-1"/><path d="M359.15 221.79l5.38 3.06a1.25 1.25 0 0 1 0 2.36 1.24 1.24 0 0 0 0 2.35l26.15 14.89a4.54 4.54 0 0 0 4.08 0 4.51 4.51 0 0 1 4.08 0l5.39 3.07c3.61 2.06 3.63 5.42 0 7.52L296.63 318a14.43 14.43 0 0 1-13 .08L238.5 292.4c-3.6-2.06-3.62-5.42 0-7.52l107.67-63a14.36 14.36 0 0 1 12.98-.09z" class="cls-3"/><path d="M296.61 317.56l107-62.61-4.8-2.73a4.48 4.48 0 0 0-4.08 0 4.52 4.52 0 0 1-4.07 0l-26.15-14.89a1.25 1.25 0 0 1 0-2.36 1.24 1.24 0 0 0 0-2.35l-5.39-3.07a14.39 14.39 0 0 0-13 .07l-107 62.62 44.53 25.35a14.36 14.36 0 0 0 12.96-.03z" class="cls-2"/><path d="M283.17 318.86l-45.11-25.69c-2-1.16-3.16-2.76-3.17-4.51s1.1-3.37 3.12-4.55l107.66-63a15.2 15.2 0 0 1 13.92-.08l5.39 3.07a2.12 2.12 0 0 1 0 3.9c-.29.16-.4.33-.4.41s.11.23.4.4l26.15 14.89a3.68 3.68 0 0 0 3.19 0 5.45 5.45 0 0 1 5 0l5.39 3.07c2 1.15 3.16 2.76 3.17 4.51s-1.1 3.37-3.12 4.55l-107.66 63a15.18 15.18 0 0 1-13.92.08zm112.07-73.66a5.45 5.45 0 0 1-5 0l-26.15-14.89a2.12 2.12 0 0 1 0-3.9c.29-.17.39-.34.39-.41s-.1-.24-.4-.4l-5.38-3.07a13.42 13.42 0 0 0-12.14.07l-107.66 63c-1.45.85-2.24 1.91-2.23 3s.81 2.14 2.26 3l45.12 25.69a13.43 13.43 0 0 0 12.13-.07l107.66-63c1.45-.85 2.24-1.91 2.24-3s-.82-2.15-2.27-3l-5.39-3.07a3.15 3.15 0 0 0-1.6-.36 3.34 3.34 0 0 0-1.58.41z" class="cls-1"/><path d="M390.53 238.75a.73.73 0 0 0 0 1.37 2.62 2.62 0 0 0 2.36 0 .72.72 0 0 0 0-1.36 2.65 2.65 0 0 0-2.36-.01zM373.08 230.17l13.9 7.91a2.43 2.43 0 0 0 2.19-.1c.65-.38.72-.95.15-1.27l-13.89-7.91a2.45 2.45 0 0 0-2.2.1c-.65.38-.71.95-.15 1.27z" class="cls-1"/><path d="M286.39 323.57h1.11v4.27h-1.11z" class="cls-2" transform="rotate(-.28 285.688 324.011)"/><path d="M296.5 326.65l1.12-.01-.03-4.27h-1.11l.02 4.28z" class="cls-2"/><path d="M276.43 319.68h1.11v4.27h-1.11z" class="cls-2" transform="rotate(-.28 275.467 319.894)"/><path d="M403.79 259.69h1.11v4.27h-1.11z" class="cls-2" transform="rotate(-.29 408.307 263.805)"/><path d="M234.01 295.37h1.11v4.27h-1.11z" class="cls-2" transform="rotate(-.28 232.555 295.233)"/><path d="M407.47 257.54h1.11v4.27h-1.11z" class="cls-2" transform="rotate(-.44 407.892 259.4)"/><path d="M292.95 323.18h1.11v4.27h-1.11z" class="cls-2" transform="translate(-1.58 1.43)"/><path d="M372.71 281.69a1.39 1.39 0 0 1-.63-1.27 2.92 2.92 0 0 1 1.25-2.37l4.19-2.45a1.18 1.18 0 0 1 1.2-.06 1.42 1.42 0 0 1 .63 1.28 2.9 2.9 0 0 1-1.25 2.37l-4.19 2.44a1.35 1.35 0 0 1-.67.21 1 1 0 0 1-.53-.15zm5.37-5.13L373.9 279a1.8 1.8 0 0 0-.7 1.4c0 .21.05.31 0 .31h.12l4.18-2.46a1.8 1.8 0 0 0 .7-1.4c0-.17 0-.27-.11-.27zM259.38 313.81l-4.22-2.4a2.92 2.92 0 0 1-1.28-2.36 1.41 1.41 0 0 1 .62-1.28 1.18 1.18 0 0 1 1.2 0l4.21 2.41a2.87 2.87 0 0 1 1.28 2.35 1.41 1.41 0 0 1-.61 1.28 1.08 1.08 0 0 1-.53.15 1.42 1.42 0 0 1-.67-.15zM255 309a1.84 1.84 0 0 0 .71 1.4l4.22 2.4.08.06a.49.49 0 0 0 .06-.32 1.81 1.81 0 0 0-.71-1.4l-4.29-2.45s-.07.15-.07.31zM364.89 286.4a1.4 1.4 0 0 1-.63-1.28 2.92 2.92 0 0 1 1.25-2.37l4.19-2.45a1.18 1.18 0 0 1 1.2-.06 1.44 1.44 0 0 1 .63 1.27 2.93 2.93 0 0 1-1.25 2.38l-4.19 2.45a1.31 1.31 0 0 1-.67.19 1.07 1.07 0 0 1-.53-.13zm5.37-5.14l-4.19 2.45a1.83 1.83 0 0 0-.69 1.41 1.4 1.4 0 0 0 0 .3h.11l4.19-2.46a1.79 1.79 0 0 0 .69-1.4c0-.17 0-.27-.11-.27zM382.27 276.35a1.4 1.4 0 0 1-.63-1.28 2.9 2.9 0 0 1 1.25-2.37l.87-.51a1.18 1.18 0 0 1 1.2-.06 1.42 1.42 0 0 1 .62 1.28 2.86 2.86 0 0 1-1.24 2.36l-.87.52a1.31 1.31 0 0 1-.67.19 1.07 1.07 0 0 1-.53-.13zm2.05-3.2l-.87.51a1.81 1.81 0 0 0-.69 1.41c0 .2.05.29 0 .3a.34.34 0 0 0 .12-.05l.86-.5a1.81 1.81 0 0 0 .7-1.41c0-.18 0-.27-.11-.27z" class="cls-2"/><path d="M289.46 335.33a33.64 33.64 0 0 0 17.08-4.66L334 314.45l-1-1.67L305.54 329a31.62 31.62 0 0 1-31.78.22l-4.5-2.58-1 1.69 4.5 2.58a33.56 33.56 0 0 0 16.7 4.42zM340.61 213.8a23.82 23.82 0 0 1 23.45-.21l3.49 1.95.95-1.69-3.5-1.95a25.7 25.7 0 0 0-25.37.22z" class="cls-1"/><path d="M176.22 334.52l16.78 9.93a11.43 11.43 0 0 0 10.27.12l17-9.55a3.56 3.56 0 0 0 2.14-3l.08-7.67a.07.07 0 0 0-.11-.07l-7 3.55a.11.11 0 0 1-.08 0l-6.09-11.58c-2.81-1.66-17.64-3-20.48-1.37l-7.38 12.55h-.07l-6.92-3.69a.07.07 0 0 0-.11.07l-.1 7.73a3.59 3.59 0 0 0 2.07 2.98zm32.56-5.11a.08.08 0 0 1 0 .14l-3.71 1.89s0 1.67-.05 1.67l-15-1v-1.67l-2.23-1.18 7.82-4.4a6.18 6.18 0 0 1 5.6.07z" class="cls-2"/><path d="M220.64 335.74l-17 9.55a12.32 12.32 0 0 1-11.11-.13l-16.76-9.92a4.36 4.36 0 0 1-2.48-3.7l.09-7.74v-.52l.88-.49 6.68 3.57 7.1-12.09.2-.11c3.07-1.72 18.26-.42 21.31 1.39l.2.12 5.85 11.09 6.29-3.21.5-.21.83.56-.02 8.1a3.58 3.58 0 0 1-.83 2.3 6.07 6.07 0 0 1-1.73 1.44zm-4.9-7.16l-.49.2-.59-.35-6.08-11.56c-2.94-1.43-16.35-2.6-19.27-1.35L182 328l-.66.35-6.24-3.33-.08 6.5a2.81 2.81 0 0 0 1.67 2.25l16.76 9.93a10.64 10.64 0 0 0 9.45.1l17-9.55a2.77 2.77 0 0 0 1.72-2.27l.07-6.43zm-9.86 3.42v.32c0 1.17 0 1.19-.29 1.44l-.26.24-15.42-1.06c-.77-.07-.77-.58-.77-1.72v-.27l-3.14-1.72 9.13-5.14a7 7 0 0 1 6.43.08l7.65 4.52.45.33-.08 1.05zm-15.65-2.34c.55.21.55.52.55 1.56v.11l13.42.93c0-1.12.05-1.31.49-1.52l2.49-1.27-6.47-3.83a5.34 5.34 0 0 0-4.77-.05l-6.49 3.65z" class="cls-1"/><path d="M193.39 311.38l-17 9.57c-2.83 1.59-2.86 4.23-.07 5.88l16.8 10a11.31 11.31 0 0 0 10.2.11l17-9.57c2.83-1.59 2.86-4.23.07-5.89l-16.8-9.95a11.25 11.25 0 0 0-10.2-.15zm2.27 5.73a6.1 6.1 0 0 1 5.52.06l9.29 5.51c1.52.9 1.5 2.32 0 3.19l-9.47 5.29a6.07 6.07 0 0 1-5.52-.06l-9.3-5.5c-1.51-.9-1.5-2.33 0-3.19z" class="cls-3"/><path d="M220.73 328.06l-17 9.57a12 12 0 0 1-11-.13l-16.8-9.95a3.92 3.92 0 0 1 .08-7.33l17-9.57a12 12 0 0 1 11 .12l16.8 10a4.38 4.38 0 0 1 2.49 3.69 3.56 3.56 0 0 1-.84 2.21 6 6 0 0 1-1.73 1.39zm-17.57-15.86a10.52 10.52 0 0 0-9.36-.1l-17 9.57c-1.1.62-1.72 1.4-1.72 2.2a2.78 2.78 0 0 0 1.67 2.25l16.8 9.95a10.48 10.48 0 0 0 9.36.1l17-9.56a2.83 2.83 0 0 0 1.72-2.21 2.8 2.8 0 0 0-1.67-2.24l-16.8-10zm7.69 14.39l-9.42 5.3a6.91 6.91 0 0 1-6.35-.07l-9.29-5.51a2.5 2.5 0 0 1 .05-4.63l9.41-5.29a6.93 6.93 0 0 1 6.36.07l9.29 5.54a2.76 2.76 0 0 1 1.53 2.33 2.26 2.26 0 0 1-.54 1.43 3.44 3.44 0 0 1-1.04.83zm-24.19-3.46c-.46.26-.74.59-.74.87s.26.61.72.88l9.29 5.5a5.23 5.23 0 0 0 4.69.06l9.41-5.3c.46-.25.74-.58.74-.86s-.26-.62-.72-.88l-9.29-5.51a5.26 5.26 0 0 0-4.69-.05l-9.41 5.29-.41-.72z" class="cls-1"/><path d="M194.3 341.07h7.67v1.66h-7.67z" class="cls-1" transform="rotate(-89.42 198.135 341.896)"/><path d="M199.18 324.16l.08-7.67-1.67-.01-.07 7.66 1.66.02z" class="cls-1"/><path d="M214.71 331.19h7.67v1.66h-7.67z" class="cls-1" transform="rotate(-89.43 218.536 332.018)"/><path d="M175.52 331.4h7.66v1.66h-7.66z" class="cls-1" transform="rotate(-89.43 179.34 332.223)"/><path d="M211.6 325s-4 2.55-4.19 2.7-6.28-3.12-6.28-3.12l-2.51-.83v-7.28l3.67 1.47s8.67 4.82 8.7 4.93.61 2.13.61 2.13zM198.23 354.22a12.67 12.67 0 0 0 6.18-1.59l7.72-4.29-1-1.89-7.73 4.3a10.6 10.6 0 0 1-10.38-.08l-7.35-4.21-1.07 1.87 7.34 4.22a12.81 12.81 0 0 0 6.29 1.67z" class="cls-1"/><path d="M304.18 126.05h9.06v2.3h-9.06z" class="cls-1" transform="rotate(-85.34 308.727 127.186)"/><path d="M299.08 122.49h2.3v10.43h-2.3z" class="cls-1" transform="rotate(-23.66 300.156 127.708)"/><path d="M292.11 129.18h2.29v8.69h-2.29z" class="cls-1" transform="rotate(-60.52 293.253 133.525)"/><path d="M303.84 143.68l11-6.08a15.15 15.15 0 0 1 2.06-1.16l11.9-6.64.56-.22c2.84-1.25 6-.6 10.06 1.82 8.73 5.22 15.69 17.69 15.54 27.87 0 .47 0 .93-.07 1.38a11.29 11.29 0 0 1 2.54 1.12c5.56 3.32 10 11.27 9.9 17.74-.05 3-1.06 5.14-2.68 6.27L351 193.4l-6.88-10.54 4.57-2.63-36.44-21.85a12.24 12.24 0 0 1-5.38-9.65 5.38 5.38 0 0 1 .36-1.95l-3.44-2.95a.09.09 0 0 1 .05-.15z" class="cls-3"/><path d="M342.59 182.48l4-2.27-34.82-20.88a13.25 13.25 0 0 1-5.92-10.62 7.26 7.26 0 0 1 .19-1.57l-2.89-2.48-.47-.45.17-1.22 11.4-6.32a16.09 16.09 0 0 1 2.13-1.19l12-6.7.53-.21c3.11-1.37 6.62-.77 11.07 1.88 9 5.39 16.23 18.32 16.08 28.83v.59a12.51 12.51 0 0 1 2 .95c5.85 3.5 10.53 11.89 10.43 18.71 0 3.24-1.16 5.78-3.24 7.21l-14.48 8.13zm-12.85-51.86l-12.47 6.85a14.33 14.33 0 0 0-1.92 1.09l-.51 8.39-6.26-.5-.29.73a4.68 4.68 0 0 0-.28 1.57 11.2 11.2 0 0 0 4.85 8.68l38.06 22.82-5.2 3 5.68 8.69 12.59-7c1.38-1 2.16-2.87 2.2-5.37.09-6.12-4.1-13.64-9.36-16.78a10.19 10.19 0 0 0-2.28-1l-.87-.25.08-.9c0-.43.06-.86.07-1.31.14-9.8-6.59-21.87-15-26.9-2.78-1.66-5-2.4-7-2.26a6.37 6.37 0 0 0-2.09.45z" class="cls-1"/><path fill="#e96244" d="M303.14 148.49l2 4.45a.08.08 0 0 1 0 .1c-.5.4-4.51 3.53-4.74 3.53s-4-3.51-4.59-4.09a.09.09 0 0 1 0-.14l7.23-3.89a.08.08 0 0 1 .1.04z"/><path d="M300.34 157.68c-.52 0-.66 0-5.33-4.39l-.45-.47.2-1.19 7.72-4.15.49-.24 1 .35 2.17 4.9.3.91-.68.53c-4.31 3.38-4.85 3.72-5.26 3.75zm2.24-7.74l-5 2.7c1.24 1.16 2.26 2.08 2.85 2.59.58-.42 1.66-1.24 3.37-2.57z" class="cls-1"/><path d="M299.64 152.8h.05v-1.11c.1-7.29 5-10.4 11.12-7.37 1.49-7.76 8-10.39 15.77-5.77 8.74 5.22 15.69 17.69 15.54 27.87 0 .47 0 .93-.07 1.38a10.91 10.91 0 0 1 2.54 1.12c5.56 3.32 10 11.26 9.9 17.74s-4.68 9-10.24 5.72l-44.77-26.85a12.24 12.24 0 0 1-5.38-9.65c.02-3.5 2.52-4.88 5.54-3.08z" class="cls-2"/><path d="M343.65 193.35l-44.76-26.84a13.28 13.28 0 0 1-5.89-10.62c0-2.11.83-3.71 2.24-4.5a4.28 4.28 0 0 1 3.37-.27c.18-3.71 1.58-6.54 4-8a8.34 8.34 0 0 1 7.48-.32 10.17 10.17 0 0 1 5.42-6.82c3.3-1.48 7.45-.89 11.69 1.64 9 5.39 16.24 18.32 16.08 28.83v.59a13 13 0 0 1 1.95.95c5.85 3.5 10.54 11.89 10.43 18.71-.05 3.54-1.34 6.2-3.63 7.48a6.36 6.36 0 0 1-2.61.76 9.75 9.75 0 0 1-5.77-1.59zM316.34 138c-2.3 1-3.85 3.3-4.47 6.55l-.27 1.45-1.31-.65c-2.54-1.25-4.89-1.37-6.6-.33s-2.88 3.52-2.93 6.73v1l.07 2.19-1.81-1.22a2.89 2.89 0 0 0-2.77-.42 2.93 2.93 0 0 0-1.1 2.61 11.17 11.17 0 0 0 4.84 8.68l44.76 26.84c2.34 1.4 4.5 1.68 6.07.81s2.46-2.87 2.5-5.58c.1-6.12-4.1-13.64-9.35-16.78a10 10 0 0 0-2.29-1l-.87-.26.08-.89c0-.43.06-.86.07-1.31.14-9.8-6.59-21.87-15-26.9a12.85 12.85 0 0 0-7.26-2.11 7.06 7.06 0 0 0-2.36.59z" class="cls-1"/><path d="M341.09 163.13h14.71v2.21h-14.71z" class="cls-1" transform="rotate(-29.21 348.445 164.236)"/><path d="M351.12 173.18h14.71v2.22h-14.71z" class="cls-1" transform="rotate(-29.22 358.492 174.28)"/><path d="M327.9 135.43h14.71v2.21H327.9z" class="cls-1" transform="rotate(-29.21 335.272 136.542)"/><path d="M353.86 182.12l.6 4.13-1.45 6.04 12.24-7.04 1.86-3.78-.39-6.45-12.86 7.1zM339.88 155.35l12.83-7.19 2.2 7.51-.05 4.98-12.8 6.61-2.18-11.91z" class="cls-1"/></g></g></svg>