<svg xmlns="http://www.w3.org/2000/svg" viewBox="0 0 431.84 425.7"><defs><style>.cls-1{fill:#ffebc6}.cls-2{fill:#17110c}.cls-3{fill:#05b4d1}.cls-4{fill:#f7e3c6}</style></defs><g id="Слой_2" data-name="Слой 2"><g id="Layer_1" data-name="Layer 1"><path d="M178.93 87.89l-29.15-17 8.73-24.14-14.27-8.31A4.54 4.54 0 0 0 145 36a5.16 5.16 0 0 0-2.88-4.36 12.84 12.84 0 0 0-11.74.17 5.55 5.55 0 0 0-3.13 4.66 5.19 5.19 0 0 0 2.87 4.36 11.53 11.53 0 0 0 5.62 1.33 12.93 12.93 0 0 0 5.26-1.1l12.81 7.46-8.73 24.14 33 19.22 41.95-4.8 72.53 43.11 2-3.3-73.64-43.78zm-46.88-50.42c-.57-.34-1-.74-1-1s.38-.84 1.22-1.32a8.72 8.72 0 0 1 4.22-1 7.58 7.58 0 0 1 3.68.84c.57.33.94.73.95 1s-.38.83-1.21 1.32a9.15 9.15 0 0 1-7.86.16z" class="cls-1"/><path d="M292.76 128.77l-.45-.27-72.38-43-42 4.8-33.51-19.55 8.73-24.13-12.15-7.1a13.43 13.43 0 0 1-5.2 1 12 12 0 0 1-5.87-1.4 5.66 5.66 0 0 1-3.13-4.82 6.06 6.06 0 0 1 3.38-5.11 13.4 13.4 0 0 1 12.24-.19 5.66 5.66 0 0 1 3.13 4.82 4.92 4.92 0 0 1-.58 2.32l14.19 8.26-8.72 24.15 28.61 16.64 42-4.8.14.09 74.11 44.05zm-72.6-44.38l.15.09 72.08 42.84 1.41-2.39-73-43.41-42 4.8-29.69-17.27 8.73-24.14-14.38-8.36.31-.47a4 4 0 0 0 .69-2.23 4.63 4.63 0 0 0-2.6-3.9 12.27 12.27 0 0 0-11.23.17 5.06 5.06 0 0 0-2.86 4.19 4.63 4.63 0 0 0 2.61 3.9 10.87 10.87 0 0 0 5.34 1.27 12.5 12.5 0 0 0 5-1l.25-.12 13.43 7.82-8.7 24.09 32.49 18.9zm-84.42-47.68a8.17 8.17 0 0 1-4-.9c-.37-.21-1.21-.77-1.21-1.49s.55-1.24 1.47-1.77a9.3 9.3 0 0 1 4.5-1.08 8.12 8.12 0 0 1 3.95.9c.36.21 1.21.78 1.21 1.49s-.55 1.24-1.48 1.77a9.32 9.32 0 0 1-4.44 1.08z" class="cls-2"/><path d="M267.48 64l-29-16.9-22.22 12.68-3 15.7-27.08 3L166.26 67l7.49-21.75-57.86-33.8a4.73 4.73 0 0 0 1.23-3.11A5.15 5.15 0 0 0 114.25 4a12.84 12.84 0 0 0-11.74.17 5.53 5.53 0 0 0-3.13 4.66 5.15 5.15 0 0 0 2.87 4.36 11.52 11.52 0 0 0 5.61 1.34 13.65 13.65 0 0 0 4.38-.74l56.85 33.17-7.49 21.73 23.7 13.8L216.46 79l3.24-16.75 18.73-10.73 24.4 14.2-7.76 22.78 55.55 31.87 1.91-3.34-52.8-30.31zM104.15 9.84c-.57-.33-1-.73-1-1s.38-.84 1.22-1.32a8.71 8.71 0 0 1 4.22-1 7.58 7.58 0 0 1 3.68.83c.57.34 1 .74 1 1s-.38.84-1.21 1.32a9 9 0 0 1-7.91.17z" class="cls-1"/><path d="M310.81 119l-56.39-32.38 7.75-22.8L238.42 50l-18.25 10.45-3.27 16.89-31.72 3.56L161 66.81l7.49-21.76-56.31-32.82a13.41 13.41 0 0 1-10.18-.72 5.65 5.65 0 0 1-3.13-4.82 6.07 6.07 0 0 1 3.38-5.11 13.37 13.37 0 0 1 12.29-.17 5.67 5.67 0 0 1 3.14 4.81 5.18 5.18 0 0 1-1 3l57.71 33.66-7.47 21.72 19.34 11.26 26.53-3 3-15.56 22.66-13 29.69 17.27-7.76 22.77 52.88 30.35zm-55.1-32.84l54.72 31.39 1.38-2.41-52.72-30.28 7.75-22.78-28.4-16.53L216.74 58l-3.07 15.84L186 76.93l-20.37-11.87 7.49-21.75-58-33.86.38-.45a4.2 4.2 0 0 0 1.1-2.76 4.64 4.64 0 0 0-2.6-3.93 12.25 12.25 0 0 0-11.22.17 5.05 5.05 0 0 0-2.86 4.19 4.64 4.64 0 0 0 2.61 3.9 12.36 12.36 0 0 0 9.55.56l.23-.08 57.43 33.51-7.49 21.76 23.17 13.48L216 76.37l3.21-16.6 19.2-11 25.05 14.57zM107.84 9.08a8.06 8.06 0 0 1-4-.9c-.37-.21-1.21-.78-1.21-1.49s.55-1.24 1.47-1.77a9.41 9.41 0 0 1 4.5-1.07 8.08 8.08 0 0 1 3.94.9c.37.2 1.22.78 1.22 1.49s-.55 1.24-1.48 1.77a9.26 9.26 0 0 1-4.44 1.07z" class="cls-2"/><path d="M173.21 97.74L134 75l9.4-26-22.64-13.25a4.74 4.74 0 0 0 1.24-3.17 5.15 5.15 0 0 0-2.87-4.36 12.86 12.86 0 0 0-11.75.17 5.53 5.53 0 0 0-3.12 4.66 5.15 5.15 0 0 0 2.87 4.36 11.53 11.53 0 0 0 5.62 1.34 13.62 13.62 0 0 0 4.28-.71l21.66 12.6-9.4 26 43.06 25 45.18-5.17 71.68 41.58 1.93-3.33-72.73-42.16zm-64.14-63.66c-.57-.33-.94-.73-.95-1s.38-.84 1.21-1.32a8.75 8.75 0 0 1 4.23-1 7.58 7.58 0 0 1 3.68.83c.57.34.94.74 1 1s-.38.84-1.21 1.32a9 9 0 0 1-7.96.17z" class="cls-1"/><path d="M289.43 136.72L217.45 95l-45.19 5.17-43.59-25.39 9.4-26L117 36.5a13.31 13.31 0 0 1-10.09-.75 5.66 5.66 0 0 1-3.14-4.82 6.08 6.08 0 0 1 3.39-5.11 13.37 13.37 0 0 1 12.29-.17 5.67 5.67 0 0 1 3.14 4.81 5 5 0 0 1-1 3l22.53 13.1-9.41 26 38.66 22.47 45.18-5.17.15.09 73.24 42.5zm-71.75-42.86l.14.09 71.23 41.32 1.39-2.41L218.27 91l-45.18 5.17-39.72-23.1 9.4-26-22.84-13.31.42-.48a4.13 4.13 0 0 0 1.14-2.82 4.65 4.65 0 0 0-2.6-3.9 12.27 12.27 0 0 0-11.23.18 5 5 0 0 0-2.86 4.18 4.64 4.64 0 0 0 2.61 3.9 12.35 12.35 0 0 0 9.46.6l.23-.08 22.26 12.95-9.4 26L172.49 99zM112.75 33.32a8 8 0 0 1-3.94-.9c-.37-.21-1.21-.78-1.21-1.49s.54-1.24 1.47-1.77a9.41 9.41 0 0 1 4.5-1.07 8.08 8.08 0 0 1 3.94.9c.37.2 1.22.78 1.22 1.49s-.55 1.24-1.48 1.77a9.18 9.18 0 0 1-4.5 1.07z" class="cls-2"/><path d="M283.92 62.2L239 36l-17.79 10.19-43.56-25.45a4.56 4.56 0 0 0 .82-2.58 5.15 5.15 0 0 0-2.87-4.36 12.8 12.8 0 0 0-11.75.17 5.52 5.52 0 0 0-3.12 4.65A5.15 5.15 0 0 0 163.6 23a11.42 11.42 0 0 0 5.62 1.34 12.9 12.9 0 0 0 5.16-1.05l46.82 27.34 17.74-10.17 40.24 23.42L271 86.05l59.59 34.32 1.92-3.33-56.78-32.7zm-118.4-42.55c-.57-.33-.93-.73-1-1s.38-.83 1.22-1.31a8.72 8.72 0 0 1 4.22-1 7.58 7.58 0 0 1 3.68.84c.57.33.94.73.95 1s-.38.83-1.21 1.31a9.05 9.05 0 0 1-7.86.16z" class="cls-1"/><path d="M330.73 119l-60.44-34.8 8.23-22.2-39.59-23-17.74 10.14-46.86-27.38a13.59 13.59 0 0 1-11-.42 5.67 5.67 0 0 1-3.14-4.82 6.07 6.07 0 0 1 3.39-5.11 13.4 13.4 0 0 1 12.29-.18 5.66 5.66 0 0 1 3.13 4.82 5.13 5.13 0 0 1-.62 2.39l42.83 25 17.73-10.16 45.62 26.54L276.33 82l56.84 32.73zM271.6 83.7l58.74 33.83 1.39-2.41L275 82.47l8.24-22.16-44.3-25.78-17.74 10.15-44.32-25.9.32-.46a4 4 0 0 0 .74-2.29 4.64 4.64 0 0 0-2.61-3.9 12.25 12.25 0 0 0-11.22.17 5 5 0 0 0-2.86 4.19 4.65 4.65 0 0 0 2.6 3.9 12.52 12.52 0 0 0 10.3.26l.25-.11 46.79 27.34 17.74-10.17 40.9 23.79zM169.21 18.9a8.17 8.17 0 0 1-4-.9c-.36-.21-1.21-.78-1.21-1.49s.55-1.24 1.47-1.77a9.3 9.3 0 0 1 4.5-1.08 8.15 8.15 0 0 1 3.95.9c.36.21 1.21.77 1.21 1.49 0 .57-.55 1.25-1.48 1.77a9.32 9.32 0 0 1-4.44 1.08z" class="cls-2"/><path d="M293.69 76.86L299 58.19l-60.76-35.32-19 11.28-13.87-8.07-.37-10.6-6.74-3.9a4.81 4.81 0 0 0 1.35-3.24A5.15 5.15 0 0 0 196.73 4a12.86 12.86 0 0 0-11.73.15 5.53 5.53 0 0 0-3.12 4.66 5.15 5.15 0 0 0 2.87 4.36 11.52 11.52 0 0 0 5.61 1.34 13.46 13.46 0 0 0 4.15-.67l6.72 3.9.38 10.61 17.66 10.26 19-11.28L294.43 60l-5.26 18.67L337.71 107l1.93-3.32zm-107-67c-.57-.33-.95-.73-.95-1s.38-.84 1.21-1.32a8.75 8.75 0 0 1 4.23-1 7.58 7.58 0 0 1 3.68.83c.57.34.94.74.95 1s-.38.84-1.21 1.32a9 9 0 0 1-7.96.15z" class="cls-1"/><path d="M337.9 105.57L288.55 76.8l5.27-18.66-55.55-32.32-19 11.28-18.18-10.57-.38-10.61-6.28-3.62a13.24 13.24 0 0 1-10-.79 5.69 5.69 0 0 1-3.15-4.82 6.08 6.08 0 0 1 3.39-5.11A13.35 13.35 0 0 1 197 1.41a5.68 5.68 0 0 1 3.15 4.81 5.12 5.12 0 0 1-1.08 3.09l6.45 3.69.37 10.61 13.35 7.75 19-11.28 61.34 35.72-5.26 18.67 46.07 26.86zm-48.1-29.26l47.73 27.82 1.4-2.4L293.07 75l5.26-18.67-60.07-35-19 11.28-14.39-8.36-.37-10.61-7.06-4.04.45-.49a4.29 4.29 0 0 0 1.21-2.87 4.63 4.63 0 0 0-2.61-3.9 12.22 12.22 0 0 0-11.22.17 5 5 0 0 0-2.86 4.18 4.61 4.61 0 0 0 2.61 3.9 12.17 12.17 0 0 0 9.33.63l.23-.07 7.2 4.17.37 10.6 17.14 10 19-11.28 56.81 33.02zM190.32 9.08a8 8 0 0 1-3.94-.9c-.37-.21-1.21-.78-1.21-1.49s.54-1.24 1.47-1.77a9.41 9.41 0 0 1 4.5-1.07 8.05 8.05 0 0 1 3.94.9c.37.2 1.22.78 1.22 1.49s-.55 1.24-1.48 1.77a9.35 9.35 0 0 1-4.5 1.07z" class="cls-2"/><path d="M287.94 299.44l41.87 24.36-12.54 34.67 20.51 11.93a6.53 6.53 0 0 0-1.14 3.61c0 2.47 1.52 4.75 4.13 6.26 4.63 2.67 12 2.55 16.88-.24 2.85-1.66 4.5-4.09 4.48-6.69s-1.51-4.75-4.12-6.26a16.54 16.54 0 0 0-8.07-1.92 18.59 18.59 0 0 0-7.53 1.56L324 356l12.54-34.69-47.44-27.6-60.26 6.9-104.2-61.93-2.83 4.74 105.79 62.89zm67.34 72.44c.82.47 1.36 1.05 1.36 1.48s-.54 1.2-1.74 1.89a12.5 12.5 0 0 1-6.06 1.43 10.94 10.94 0 0 1-5.29-1.2c-.83-.48-1.35-1.06-1.37-1.48s.54-1.2 1.74-1.89c3.13-1.79 8.43-1.91 11.36-.23z" class="cls-1"/><path d="M124.42 240.71l.66.4 104 61.8L289.3 296l48.22 28.05L325 358.73l17.51 10.19a19.59 19.59 0 0 1 7.48-1.46 17.23 17.23 0 0 1 8.43 2c2.86 1.64 4.5 4.17 4.5 6.92s-1.77 5.53-4.86 7.34c-5.05 2.93-12.8 3-17.65.25-2.86-1.65-4.5-4.18-4.5-6.92a7.13 7.13 0 0 1 .84-3.34l-20.4-11.86 12.54-34.69-41.1-23.91-60.29 6.9-.21-.13-106.47-63.26zm104.3 63.76l-.22-.13L125 242.8l-2 3.43 104.84 62.37 60.3-6.91 42.64 24.82-12.54 34.67 20.66 12-.45.68a5.7 5.7 0 0 0-1 3.2c0 2.19 1.36 4.22 3.75 5.6 4.42 2.55 11.5 2.44 16.12-.24 2.61-1.52 4.1-3.72 4.1-6s-1.36-4.24-3.74-5.6A15.6 15.6 0 0 0 350 369a17.82 17.82 0 0 0-7.21 1.49l-.36.16-19.29-11.22 12.53-34.67L289 297.6zM350 373a11.7 11.7 0 0 1 5.67 1.3c.52.3 1.74 1.1 1.74 2.14 0 .82-.79 1.77-2.12 2.54a13.38 13.38 0 0 1-6.46 1.55 11.57 11.57 0 0 1-5.67-1.3c-.52-.3-1.74-1.12-1.74-2.14 0-.82.79-1.77 2.12-2.54A13.44 13.44 0 0 1 350 373z" class="cls-2"/><path d="M160.73 333.8l41.73 24.27 31.86-18.25 4.37-22.55 38.91-4.37 28.55 16.61-10.77 31.24 83.12 48.49a6.86 6.86 0 0 0-1.78 4.47c0 2.47 1.52 4.75 4.13 6.27 4.63 2.66 12 2.54 16.87-.25 2.86-1.66 4.51-4.09 4.49-6.69s-1.51-4.75-4.12-6.26a16.53 16.53 0 0 0-8.06-1.92 19.76 19.76 0 0 0-6.29 1.05l-81.67-47.64L312.83 327l-34-19.82-44.77 5-4.65 24-26.9 15.42-35.05-20.39 11.14-32.74-79.83-45.68-2.77 4.8 75.86 43.53zm234.63 77.76c.82.48 1.36 1.05 1.36 1.48s-.54 1.2-1.74 1.89a12.5 12.5 0 0 1-6.06 1.43 10.86 10.86 0 0 1-5.3-1.2c-.82-.48-1.36-1.05-1.36-1.48s.54-1.2 1.74-1.89c3.13-1.79 8.43-1.92 11.36-.23z" class="cls-1"/><path d="M98.49 254.78l81 46.49L168.36 334l34.13 19.86 26.21-15 4.7-24.27 45.6-5.11 34.8 20.25L303 361l80.81 47.15c4.95-1.63 10.86-1.14 14.64 1 2.86 1.65 4.51 4.18 4.51 6.92s-1.78 5.54-4.87 7.35c-5 2.92-12.8 3-17.65.24-2.86-1.64-4.5-4.17-4.52-6.92a7.39 7.39 0 0 1 1.4-4.25l-82.9-48.36 10.76-31.24-27.78-16.17-38.1 4.28-4.3 22.35L202.42 362l-42.64-24.81 11.14-32.7-76-43.6zM177.64 302l-78.59-45.13-2 3.46 75.75 43.47-11.15 32.71 40.81 23.75 31.17-17.86 4.4-22.76 39.72-4.45 29.3 17.05-10.76 31.24 83.36 48.64-.59.69a6 6 0 0 0-1.58 4c0 2.19 1.36 4.22 3.75 5.6 4.42 2.55 11.5 2.44 16.12-.24 2.61-1.51 4.1-3.72 4.1-6s-1.36-4.22-3.74-5.6c-3.49-2-9.12-2.42-13.72-.81l-.33.12-82.51-48.13 10.76-31.26-33.29-19.37-44 4.93-4.61 23.84-27.58 15.81-36-20.93zm212.43 110.65a11.69 11.69 0 0 1 5.67 1.29c.52.3 1.74 1.12 1.74 2.14 0 .82-.79 1.79-2.12 2.55a13.38 13.38 0 0 1-6.46 1.54 11.59 11.59 0 0 1-5.67-1.3c-.53-.29-1.74-1.11-1.74-2.13 0-.82.79-1.79 2.12-2.55a13.32 13.32 0 0 1 6.46-1.54z" class="cls-2"/><path d="M296.15 285.29L352.44 318l-13.51 37.4 32.57 18.94a6.84 6.84 0 0 0-1.84 4.55c0 2.47 1.51 4.75 4.12 6.26 4.64 2.67 12.05 2.55 16.88-.24 2.86-1.66 4.5-4.09 4.48-6.69s-1.51-4.75-4.12-6.26A16.54 16.54 0 0 0 383 370a19.1 19.1 0 0 0-6.14 1l-31.18-18 13.51-37.37-61.85-36-64.91 7.37-103-59.74-2.77 4.79L231.2 292.7zm92.14 91.45c.82.48 1.35 1.05 1.37 1.48s-.55 1.2-1.75 1.89a12.48 12.48 0 0 1-6.06 1.43 10.85 10.85 0 0 1-5.29-1.2c-.82-.48-1.35-1-1.36-1.48s.54-1.2 1.74-1.89c3.12-1.81 8.43-1.92 11.35-.23z" class="cls-1"/><path d="M129.2 229.29l103.41 60 64.91-7.43 62.62 36.41-13.5 37.37 30.28 17.62c5-1.58 10.76-1.07 14.49 1.08 2.86 1.65 4.51 4.18 4.51 6.92s-1.78 5.54-4.87 7.35c-5 2.92-12.8 3-17.65.24-2.86-1.64-4.5-4.17-4.52-6.92a7.32 7.32 0 0 1 1.47-4.33L338 358.78l13.51-37.37L296 289.12l-64.9 7.43-.22-.13-105.2-61.05zm103.08 61.58l-.21-.14-102.31-59.35-2 3.47L231.43 295l64.91-7.43 57.05 33.18-13.51 37.37 32.82 19.08-.61.69a6 6 0 0 0-1.64 4c0 2.19 1.36 4.23 3.74 5.61 4.42 2.53 11.51 2.43 16.12-.25 2.62-1.51 4.11-3.71 4.11-6s-1.36-4.23-3.75-5.61c-3.45-2-9-2.41-13.59-.85l-.32.11-32-18.6 13.53-37.3-61.1-35.52zm150.72 87a11.67 11.67 0 0 1 5.67 1.29c.53.3 1.74 1.12 1.74 2.14 0 .82-.79 1.79-2.12 2.55a13.38 13.38 0 0 1-6.46 1.54 11.62 11.62 0 0 1-5.67-1.3c-.52-.29-1.74-1.11-1.74-2.13 0-.82.79-1.79 2.12-2.55a13.24 13.24 0 0 1 6.46-1.58z" class="cls-2"/><path d="M137.12 336.35l64.6 37.58 25.48-14.59 62.58 36.56a6.61 6.61 0 0 0-1.18 3.72c0 2.46 1.51 4.74 4.12 6.26 4.63 2.66 12 2.54 16.88-.25 2.86-1.66 4.5-4.09 4.48-6.69s-1.51-4.75-4.12-6.26a16.54 16.54 0 0 0-8.07-1.92 18.52 18.52 0 0 0-7.41 1.51L227.22 353l-25.49 14.61-57.81-33.64 11.84-31.84-85.6-49.3-2.76 4.78 81.55 47zm170.08 61.11c.82.48 1.34 1.05 1.36 1.48s-.54 1.2-1.74 1.89a12.5 12.5 0 0 1-6.06 1.43 10.86 10.86 0 0 1-5.3-1.2c-.82-.47-1.34-1.05-1.36-1.48s.54-1.2 1.74-1.89c3.16-1.8 8.45-1.9 11.36-.23z" class="cls-1"/><path d="M69.88 254.78l86.83 50-11.83 31.84 56.87 33.1 25.49-14.61 67.3 39.34c5-2.07 11.69-1.76 15.81.61 2.86 1.64 4.5 4.17 4.5 6.92s-1.77 5.53-4.86 7.34c-5 2.93-12.8 3-17.65.25-2.86-1.65-4.5-4.18-4.5-6.92a7.34 7.34 0 0 1 .89-3.44l-61.53-35.96-25.47 14.59-65.53-38.12 11.8-31.83-81.65-47zm84.94 50.68l-84.38-48.59-2 3.46 81.46 46.9-11.84 31.83 63.66 37 25.49-14.59 63.66 37.2-.46.68a5.68 5.68 0 0 0-1.05 3.28c0 2.19 1.36 4.22 3.74 5.61 4.42 2.53 11.49 2.43 16.12-.25 2.62-1.51 4.11-3.72 4.11-6s-1.36-4.22-3.74-5.6c-3.82-2.18-10.16-2.41-14.79-.38l-.36.17-67.21-39.28-25.49 14.61L143 337.35zm147.09 93.09a11.58 11.58 0 0 1 5.67 1.3c.52.29 1.74 1.11 1.74 2.13 0 .82-.79 1.78-2.12 2.55a13.44 13.44 0 0 1-6.46 1.54 11.71 11.71 0 0 1-5.67-1.29c-.53-.3-1.74-1.11-1.74-2.14 0-.82.79-1.79 2.12-2.55a13.44 13.44 0 0 1 6.46-1.54z" class="cls-2"/><path d="M123.09 315.28l-7.56 26.82 87.21 50.75L230 376.64l20 11.59.55 15.23 9.67 5.6a7 7 0 0 0-1.94 4.65c0 2.47 1.52 4.75 4.13 6.27 4.63 2.66 12 2.54 16.88-.25 2.85-1.66 4.5-4.09 4.48-6.69s-1.51-4.75-4.12-6.26a16.52 16.52 0 0 0-8.05-1.92 19.48 19.48 0 0 0-6 .95l-9.66-5.6-.55-15.21L230 370.23l-27.29 16.21L122 339.49l7.56-26.82L59.86 272l-2.78 4.77zm153.77 96.28c.82.48 1.37 1.05 1.37 1.48s-.55 1.2-1.75 1.89a12.48 12.48 0 0 1-6.06 1.43 10.85 10.85 0 0 1-5.29-1.2c-.82-.48-1.35-1.05-1.36-1.48s.54-1.2 1.74-1.89c3.12-1.79 8.43-1.92 11.35-.23z" class="cls-1"/><path d="M59.58 274l70.89 41.33-7.56 26.81 79.79 46.43L230 372.4l26.11 15.19.54 15.23 9 5.21c5-1.53 10.65-1 14.32 1.13 2.85 1.65 4.5 4.18 4.51 6.92s-1.77 5.54-4.86 7.35c-5 2.92-12.8 3-17.65.24-2.86-1.64-4.5-4.17-4.52-6.92a7.33 7.33 0 0 1 1.55-4.43l-9.25-5.32-.54-15.23L230 380.59l-27.29 16.2-88.12-51.25 7.56-26.82L56 280.13zm69.09 42l-68.55-40-2 3.45L124 318l-7.55 26.82L202.72 395 230 378.8l20.68 12 .54 15.23 10.12 5.87-.64.7a6.18 6.18 0 0 0-1.74 4.13c0 2.18 1.36 4.22 3.74 5.6 4.42 2.53 11.51 2.43 16.12-.25 2.62-1.51 4.11-3.71 4.11-6s-1.36-4.24-3.74-5.6c-3.39-2-8.78-2.42-13.41-.91l-.33.1-10.34-6-.54-15.23-24.57-14.3-27.29 16.21-81.6-47.48zm142.9 96.58a11.64 11.64 0 0 1 5.67 1.29c.53.3 1.74 1.12 1.74 2.14 0 .82-.79 1.79-2.12 2.55a13.38 13.38 0 0 1-6.46 1.54 11.5 11.5 0 0 1-5.66-1.3c-.53-.29-1.75-1.11-1.75-2.13 0-.82.79-1.79 2.12-2.55a13.44 13.44 0 0 1 6.46-1.47z" class="cls-2"/><g id="_4" data-name="4"><path d="M34.12 289c.56.33.56.85 0 1.17a2.25 2.25 0 0 1-2 0c-.56-.32-.56-.84 0-1.17a2.25 2.25 0 0 1 2 0zM28.84 285.94a.61.61 0 0 1 0 1.16 2.25 2.25 0 0 1-2 0 .61.61 0 0 1 0-1.16 2.18 2.18 0 0 1 2 0zM23.56 282.89a.61.61 0 0 1 0 1.16 2.18 2.18 0 0 1-2 0 .61.61 0 0 1 0-1.16 2.25 2.25 0 0 1 2 0zM55.44 300.69c.56.32.56.84 0 1.17a2.22 2.22 0 0 1-2 0c-.56-.33-.56-.85 0-1.17a2.22 2.22 0 0 1 2 0zM50.17 297.64a.62.62 0 0 1 0 1.17 2.25 2.25 0 0 1-2 0 .62.62 0 0 1 0-1.17 2.25 2.25 0 0 1 2 0zM44.89 294.59a.62.62 0 0 1 0 1.17 2.25 2.25 0 0 1-2 0c-.56-.32-.56-.84 0-1.17a2.25 2.25 0 0 1 2 0zM39.61 291.55a.61.61 0 0 1 0 1.16 2.25 2.25 0 0 1-2 0 .61.61 0 0 1 0-1.16 2.18 2.18 0 0 1 2 0zM39.44 286a.62.62 0 0 1 0 1.17 2.25 2.25 0 0 1-2 0 .62.62 0 0 1 0-1.17 2.25 2.25 0 0 1 2 0zM44.72 282.91c.56.33.56.85 0 1.17a2.25 2.25 0 0 1-2 0c-.56-.32-.56-.84 0-1.17a2.25 2.25 0 0 1 2 0zM50 279.87a.61.61 0 0 1 0 1.13 2.25 2.25 0 0 1-2 0 .61.61 0 0 1 0-1.16 2.18 2.18 0 0 1 2 .03zM55.28 276.82a.61.61 0 0 1 0 1.16 2.18 2.18 0 0 1-2 0 .61.61 0 0 1 0-1.16 2.25 2.25 0 0 1 2 0zM32.14 282.92a2.19 2.19 0 0 1 2 0c.56.32.57.84 0 1.16a2.21 2.21 0 0 1-2 0 .61.61 0 0 1 0-1.16zM39.44 279.87a.61.61 0 0 1 0 1.16 2.25 2.25 0 0 1-2 0 .61.61 0 0 1 0-1.16 2.18 2.18 0 0 1 2 0zM44.72 276.82a.61.61 0 0 1 0 1.16 2.18 2.18 0 0 1-2 0 .61.61 0 0 1 0-1.16 2.25 2.25 0 0 1 2 0zM50 273.77c.56.32.56.84 0 1.17a2.25 2.25 0 0 1-2 0c-.56-.33-.56-.85 0-1.17a2.25 2.25 0 0 1 2 0zM26.86 279.87a2.25 2.25 0 0 1 2 0 .61.61 0 0 1 0 1.16 2.21 2.21 0 0 1-2 0c-.56-.32-.56-.84 0-1.16zM34.16 276.82a.61.61 0 0 1 0 1.16 2.18 2.18 0 0 1-2 0 .61.61 0 0 1 0-1.16 2.25 2.25 0 0 1 2 0zM39.44 273.77c.56.32.56.84 0 1.17a2.25 2.25 0 0 1-2 0c-.56-.33-.56-.85 0-1.17a2.25 2.25 0 0 1 2 0zM44.72 270.72c.56.32.56.84 0 1.17a2.25 2.25 0 0 1-2 0c-.56-.33-.56-.85 0-1.17a2.25 2.25 0 0 1 2 0zM21.58 276.82a2.25 2.25 0 0 1 2 0 .62.62 0 0 1 0 1.17 2.25 2.25 0 0 1-2 0 .62.62 0 0 1 0-1.17zM28.88 273.77c.56.32.56.84 0 1.17a2.25 2.25 0 0 1-2 0 .62.62 0 0 1 0-1.17 2.25 2.25 0 0 1 2 0zM34.16 270.72c.56.32.56.84 0 1.17a2.25 2.25 0 0 1-2 0c-.56-.33-.56-.85 0-1.17a2.25 2.25 0 0 1 2 0zM39.44 267.67a.62.62 0 0 1 0 1.17 2.25 2.25 0 0 1-2 0 .62.62 0 0 1 0-1.17 2.25 2.25 0 0 1 2 0zM16.3 273.77a2.25 2.25 0 0 1 2 0 .62.62 0 0 1 0 1.17 2.25 2.25 0 0 1-2 0c-.56-.32-.56-.84 0-1.17zM23.6 270.72c.56.32.56.84 0 1.17a2.25 2.25 0 0 1-2 0 .62.62 0 0 1 0-1.17 2.25 2.25 0 0 1 2 0zM28.88 267.67a.62.62 0 0 1 0 1.17 2.25 2.25 0 0 1-2 0 .62.62 0 0 1 0-1.17 2.25 2.25 0 0 1 2 0zM34.16 264.62c.56.33.56.85 0 1.17a2.25 2.25 0 0 1-2 0c-.56-.32-.56-.84 0-1.17a2.25 2.25 0 0 1 2 0zM11 270.69a2.25 2.25 0 0 1 2 0c.56.32.56.84 0 1.17a2.25 2.25 0 0 1-2 0 .62.62 0 0 1 0-1.17zM18.28 267.64a.62.62 0 0 1 0 1.17 2.25 2.25 0 0 1-2 0c-.56-.33-.56-.85 0-1.17a2.25 2.25 0 0 1 2 0zM23.56 264.59a.62.62 0 0 1 0 1.17 2.25 2.25 0 0 1-2 0 .62.62 0 0 1 0-1.17 2.25 2.25 0 0 1 2 0zM28.84 261.54a.62.62 0 0 1 0 1.17 2.25 2.25 0 0 1-2 0c-.56-.32-.56-.84 0-1.17a2.25 2.25 0 0 1 2 0zM13 264.59a.62.62 0 0 1 0 1.17 2.25 2.25 0 0 1-2 0 .62.62 0 0 1 0-1.17 2.25 2.25 0 0 1 2 0zM18.28 261.54a.62.62 0 0 1 0 1.17 2.25 2.25 0 0 1-2 0c-.56-.32-.56-.84 0-1.17a2.25 2.25 0 0 1 2 0zM23.56 258.5a.61.61 0 0 1 0 1.16 2.25 2.25 0 0 1-2 0 .61.61 0 0 1 0-1.16 2.18 2.18 0 0 1 2 0zM7.72 261.54a.62.62 0 0 1 0 1.17 2.25 2.25 0 0 1-2 0c-.56-.32-.56-.84 0-1.17a2.25 2.25 0 0 1 2 0zM13 258.5a.61.61 0 0 1 0 1.16 2.25 2.25 0 0 1-2 0 .61.61 0 0 1 0-1.16 2.18 2.18 0 0 1 2 0zM18.28 255.45a.61.61 0 0 1 0 1.16 2.18 2.18 0 0 1-2 0 .61.61 0 0 1 0-1.16 2.25 2.25 0 0 1 2 0zM7.72 255.45a.61.61 0 0 1 0 1.16 2.18 2.18 0 0 1-2 0 .61.61 0 0 1 0-1.16 2.25 2.25 0 0 1 2 0z" class="cls-2"/><ellipse cx="11.99" cy="252.98" class="cls-2" rx="1.43" ry=".82"/><path d="M2.44 252.4c.56.32.56.84 0 1.17a2.25 2.25 0 0 1-2 0c-.56-.33-.56-.85 0-1.17a2.25 2.25 0 0 1 2 0zM7.72 249.35a.62.62 0 0 1 0 1.17 2.25 2.25 0 0 1-2 0c-.56-.33-.56-.85 0-1.17a2.25 2.25 0 0 1 2 0zM13 246.3a.62.62 0 0 1 0 1.17 2.25 2.25 0 0 1-2 0 .62.62 0 0 1 0-1.17 2.25 2.25 0 0 1 2 0zM2.44 246.3a.62.62 0 0 1 0 1.17 2.25 2.25 0 0 1-2 0 .62.62 0 0 1 0-1.17 2.25 2.25 0 0 1 2 0zM7.72 243.25c.56.33.56.85 0 1.17a2.25 2.25 0 0 1-2 0c-.56-.32-.56-.84 0-1.17a2.25 2.25 0 0 1 2 0zM2.44 240.21a.61.61 0 0 1 0 1.16 2.25 2.25 0 0 1-2 0 .61.61 0 0 1 0-1.16 2.18 2.18 0 0 1 2 0zM7.72 237.16a.61.61 0 0 1 0 1.16 2.18 2.18 0 0 1-2 0 .61.61 0 0 1 0-1.16 2.25 2.25 0 0 1 2 0zM2.44 234.11c.56.32.56.84 0 1.17a2.25 2.25 0 0 1-2 0c-.56-.33-.56-.85 0-1.17a2.25 2.25 0 0 1 2 0zM7.72 231.06a.62.62 0 0 1 0 1.17 2.25 2.25 0 0 1-2 0 .62.62 0 0 1 0-1.17 2.25 2.25 0 0 1 2 0zM182.29 300.78c.56.32.56.84 0 1.17a2.25 2.25 0 0 1-2 0 .62.62 0 0 1 0-1.17 2.25 2.25 0 0 1 2 0zM187.57 297.73a.62.62 0 0 1 0 1.17 2.25 2.25 0 0 1-2 0 .62.62 0 0 1 0-1.17 2.25 2.25 0 0 1 2 0zM192.85 294.68c.56.33.56.85 0 1.17a2.25 2.25 0 0 1-2 0 .62.62 0 0 1 0-1.17 2.25 2.25 0 0 1 2 0zM198.13 291.63c.56.33.56.85 0 1.17a2.25 2.25 0 0 1-2 0 .62.62 0 0 1 0-1.17 2.25 2.25 0 0 1 2 0zM203.41 288.59a.61.61 0 0 1 0 1.16 2.25 2.25 0 0 1-2 0 .61.61 0 0 1 0-1.16 2.18 2.18 0 0 1 2 0zM161.17 306.88a.61.61 0 0 1 0 1.16 2.25 2.25 0 0 1-2 0 .61.61 0 0 1 0-1.16 2.18 2.18 0 0 1 2 0zM166.45 303.83a.61.61 0 0 1 0 1.16 2.18 2.18 0 0 1-2 0 .61.61 0 0 1 0-1.16 2.25 2.25 0 0 1 2 0zM171.73 300.78c.56.32.56.84 0 1.17a2.25 2.25 0 0 1-2 0 .62.62 0 0 1 0-1.17 2.25 2.25 0 0 1 2 0zM177 297.73a.62.62 0 0 1 0 1.17 2.25 2.25 0 0 1-2 0 .62.62 0 0 1 0-1.17 2.25 2.25 0 0 1 2 0zM182.29 294.68c.56.33.56.85 0 1.17a2.25 2.25 0 0 1-2 0 .62.62 0 0 1 0-1.17 2.25 2.25 0 0 1 2 0zM187.57 291.63c.56.33.56.85 0 1.17a2.25 2.25 0 0 1-2 0 .62.62 0 0 1 0-1.17 2.25 2.25 0 0 1 2 0zM192.85 288.59a.61.61 0 0 1 0 1.16 2.25 2.25 0 0 1-2 0 .61.61 0 0 1 0-1.16 2.18 2.18 0 0 1 2 0zM198.13 285.54a.61.61 0 0 1 0 1.16 2.18 2.18 0 0 1-2 0 .61.61 0 0 1 0-1.16 2.25 2.25 0 0 1 2 0zM145.33 309.92c.56.33.56.85 0 1.17a2.22 2.22 0 0 1-2 0c-.56-.32-.56-.84 0-1.17a2.22 2.22 0 0 1 2 0zM150.61 306.88a.61.61 0 0 1 0 1.16 2.22 2.22 0 0 1-2 0 .61.61 0 0 1 0-1.16 2.16 2.16 0 0 1 2 0zM155.89 303.83a.61.61 0 0 1 0 1.16 2.18 2.18 0 0 1-2 0 .61.61 0 0 1 0-1.16 2.25 2.25 0 0 1 2 0zM161.17 300.78c.56.32.56.84 0 1.17a2.25 2.25 0 0 1-2 0 .62.62 0 0 1 0-1.17 2.25 2.25 0 0 1 2 0zM166.45 297.73a.62.62 0 0 1 0 1.17 2.25 2.25 0 0 1-2 0 .62.62 0 0 1 0-1.17 2.25 2.25 0 0 1 2 0zM171.73 294.68c.56.33.56.85 0 1.17a2.25 2.25 0 0 1-2 0 .62.62 0 0 1 0-1.17 2.25 2.25 0 0 1 2 0z" class="cls-2"/><ellipse cx="176" cy="292.22" class="cls-2" rx="1.43" ry=".82"/><path d="M182.29 288.59a.61.61 0 0 1 0 1.16 2.25 2.25 0 0 1-2 0 .61.61 0 0 1 0-1.16 2.18 2.18 0 0 1 2 0zM187.57 285.54a.61.61 0 0 1 0 1.16 2.18 2.18 0 0 1-2 0 .61.61 0 0 1 0-1.16 2.25 2.25 0 0 1 2 0z" class="cls-2"/><ellipse cx="191.84" cy="283.07" class="cls-2" rx="1.43" ry=".82"/><path d="M134.78 309.92a.62.62 0 0 1 0 1.17 2.25 2.25 0 0 1-2 0c-.56-.32-.56-.84 0-1.17a2.25 2.25 0 0 1 2 0z" class="cls-2"/><ellipse cx="139.05" cy="307.46" class="cls-2" rx="1.43" ry=".82"/><path d="M145.33 303.83a.61.61 0 0 1 0 1.16 2.16 2.16 0 0 1-2 0 .61.61 0 0 1 0-1.16 2.22 2.22 0 0 1 2 0zM150.61 300.78c.56.32.56.84 0 1.17a2.22 2.22 0 0 1-2 0c-.56-.33-.56-.85 0-1.17a2.22 2.22 0 0 1 2 0zM155.89 297.73a.62.62 0 0 1 0 1.17 2.25 2.25 0 0 1-2 0 .62.62 0 0 1 0-1.17 2.25 2.25 0 0 1 2 0zM161.17 294.68c.56.33.56.85 0 1.17a2.25 2.25 0 0 1-2 0 .62.62 0 0 1 0-1.17 2.25 2.25 0 0 1 2 0zM166.45 291.63c.56.33.56.85 0 1.17a2.25 2.25 0 0 1-2 0 .62.62 0 0 1 0-1.17 2.25 2.25 0 0 1 2 0zM171.73 288.59a.61.61 0 0 1 0 1.16 2.25 2.25 0 0 1-2 0 .61.61 0 0 1 0-1.16 2.18 2.18 0 0 1 2 0zM177 285.54a.61.61 0 0 1 0 1.16 2.18 2.18 0 0 1-2 0 .61.61 0 0 1 0-1.16 2.25 2.25 0 0 1 2 0zM182.29 282.49c.56.32.56.84 0 1.17a2.25 2.25 0 0 1-2 0 .62.62 0 0 1 0-1.17 2.25 2.25 0 0 1 2 0z" class="cls-2"/><ellipse cx="186.56" cy="280.02" class="cls-2" rx="1.43" ry=".82"/><path d="M124.17 309.89a.62.62 0 0 1 0 1.17 2.25 2.25 0 0 1-2 0 .62.62 0 0 1 0-1.17 2.25 2.25 0 0 1 2 0zM129.45 306.84c.56.33.56.85 0 1.17a2.25 2.25 0 0 1-2 0c-.56-.32-.56-.84 0-1.17a2.25 2.25 0 0 1 2 0zM134.73 303.8a.61.61 0 0 1 0 1.16 2.25 2.25 0 0 1-2 0 .61.61 0 0 1 0-1.16 2.18 2.18 0 0 1 2 0zM140 300.75a.61.61 0 0 1 0 1.16 2.18 2.18 0 0 1-2 0 .61.61 0 0 1 0-1.16 2.25 2.25 0 0 1 2 0zM145.29 297.7c.56.32.56.84 0 1.17a2.25 2.25 0 0 1-2 0c-.56-.33-.56-.85 0-1.17a2.25 2.25 0 0 1 2 0z" class="cls-2"/><ellipse cx="149.56" cy="295.23" class="cls-2" rx="1.43" ry=".82"/><path d="M155.85 291.6a.62.62 0 0 1 0 1.17 2.25 2.25 0 0 1-2 0 .62.62 0 0 1 0-1.17 2.25 2.25 0 0 1 2 0zM161.13 288.55c.56.33.56.85 0 1.17a2.25 2.25 0 0 1-2 0c-.56-.32-.56-.84 0-1.17a2.25 2.25 0 0 1 2 0zM166.41 285.51a.61.61 0 0 1 0 1.16 2.25 2.25 0 0 1-2 0 .61.61 0 0 1 0-1.16 2.18 2.18 0 0 1 2 0zM171.69 282.46a.61.61 0 0 1 0 1.16 2.18 2.18 0 0 1-2 0 .61.61 0 0 1 0-1.16 2.25 2.25 0 0 1 2 0z" class="cls-2"/><ellipse cx="175.96" cy="279.99" class="cls-2" rx="1.43" ry=".82"/><path d="M182.25 276.36a.62.62 0 0 1 0 1.17 2.25 2.25 0 0 1-2 0 .62.62 0 0 1 0-1.17 2.25 2.25 0 0 1 2 0z" class="cls-2"/><ellipse cx="112.6" cy="310.48" class="cls-2" rx="1.43" ry=".82"/><path d="M118.89 306.84c.56.33.56.85 0 1.17a2.25 2.25 0 0 1-2 0c-.56-.32-.56-.84 0-1.17a2.25 2.25 0 0 1 2 0zM124.17 303.8a.61.61 0 0 1 0 1.16 2.25 2.25 0 0 1-2 0 .61.61 0 0 1 0-1.16 2.18 2.18 0 0 1 2 0zM129.45 300.75a.61.61 0 0 1 0 1.16 2.18 2.18 0 0 1-2 0 .61.61 0 0 1 0-1.16 2.25 2.25 0 0 1 2 0zM134.73 297.7c.56.32.56.84 0 1.17a2.25 2.25 0 0 1-2 0c-.56-.33-.56-.85 0-1.17a2.25 2.25 0 0 1 2 0zM140 294.65c.56.32.56.84 0 1.17a2.25 2.25 0 0 1-2 0c-.56-.33-.56-.85 0-1.17a2.25 2.25 0 0 1 2 0zM145.29 291.6a.62.62 0 0 1 0 1.17 2.25 2.25 0 0 1-2 0 .62.62 0 0 1 0-1.17 2.25 2.25 0 0 1 2 0zM150.57 288.55c.56.33.56.85 0 1.17a2.25 2.25 0 0 1-2 0c-.56-.32-.56-.84 0-1.17a2.25 2.25 0 0 1 2 0zM155.85 285.51a.61.61 0 0 1 0 1.16 2.25 2.25 0 0 1-2 0 .61.61 0 0 1 0-1.16 2.18 2.18 0 0 1 2 0zM161.13 282.46a.61.61 0 0 1 0 1.16 2.18 2.18 0 0 1-2 0 .61.61 0 0 1 0-1.16 2.25 2.25 0 0 1 2 0zM166.41 279.41c.56.32.56.84 0 1.17a2.25 2.25 0 0 1-2 0c-.56-.33-.56-.85 0-1.17a2.25 2.25 0 0 1 2 0zM171.69 276.36a.62.62 0 0 1 0 1.17 2.25 2.25 0 0 1-2 0 .62.62 0 0 1 0-1.17 2.25 2.25 0 0 1 2 0zM177 273.31c.56.33.56.85 0 1.17a2.25 2.25 0 0 1-2 0c-.56-.32-.56-.84 0-1.17a2.25 2.25 0 0 1 2 0zM103.05 309.89a.62.62 0 0 1 0 1.17 2.25 2.25 0 0 1-2 0 .62.62 0 0 1 0-1.17 2.25 2.25 0 0 1 2 0zM108.33 306.84c.56.33.56.85 0 1.17a2.25 2.25 0 0 1-2 0c-.56-.32-.56-.84 0-1.17a2.25 2.25 0 0 1 2 0zM113.61 303.8a.61.61 0 0 1 0 1.16 2.25 2.25 0 0 1-2 0 .61.61 0 0 1 0-1.16 2.18 2.18 0 0 1 2 0z" class="cls-2"/><ellipse cx="117.88" cy="301.33" class="cls-2" rx="1.43" ry=".82"/><path d="M124.17 297.7c.56.32.56.84 0 1.17a2.25 2.25 0 0 1-2 0c-.56-.33-.56-.85 0-1.17a2.25 2.25 0 0 1 2 0zM129.45 294.65c.56.32.56.84 0 1.17a2.25 2.25 0 0 1-2 0c-.56-.33-.56-.85 0-1.17a2.25 2.25 0 0 1 2 0zM134.73 291.6a.62.62 0 0 1 0 1.17 2.25 2.25 0 0 1-2 0 .62.62 0 0 1 0-1.17 2.25 2.25 0 0 1 2 0zM140 288.55c.56.33.56.85 0 1.17a2.25 2.25 0 0 1-2 0c-.56-.32-.56-.84 0-1.17a2.25 2.25 0 0 1 2 0zM145.29 285.51a.61.61 0 0 1 0 1.16 2.25 2.25 0 0 1-2 0 .61.61 0 0 1 0-1.16 2.18 2.18 0 0 1 2 0zM150.57 282.46a.61.61 0 0 1 0 1.16 2.18 2.18 0 0 1-2 0 .61.61 0 0 1 0-1.16 2.25 2.25 0 0 1 2 0zM155.85 279.41c.56.32.56.84 0 1.17a2.25 2.25 0 0 1-2 0c-.56-.33-.56-.85 0-1.17a2.25 2.25 0 0 1 2 0zM92.49 309.89a.62.62 0 0 1 0 1.17 2.25 2.25 0 0 1-2 0 .62.62 0 0 1 0-1.17 2.25 2.25 0 0 1 2 0zM97.77 306.84c.56.33.56.85 0 1.17a2.25 2.25 0 0 1-2 0c-.56-.32-.56-.84 0-1.17a2.25 2.25 0 0 1 2 0zM103.05 303.8a.61.61 0 0 1 0 1.16 2.25 2.25 0 0 1-2 0 .61.61 0 0 1 0-1.16 2.18 2.18 0 0 1 2 0zM108.33 300.75a.61.61 0 0 1 0 1.16 2.18 2.18 0 0 1-2 0 .61.61 0 0 1 0-1.16 2.25 2.25 0 0 1 2 0zM113.61 297.7c.56.32.56.84 0 1.17a2.25 2.25 0 0 1-2 0c-.56-.33-.56-.85 0-1.17a2.25 2.25 0 0 1 2 0zM118.89 294.65c.56.32.56.84 0 1.17a2.25 2.25 0 0 1-2 0c-.56-.33-.56-.85 0-1.17a2.25 2.25 0 0 1 2 0zM124.17 291.6a.62.62 0 0 1 0 1.17 2.25 2.25 0 0 1-2 0 .62.62 0 0 1 0-1.17 2.25 2.25 0 0 1 2 0zM129.45 288.55c.56.33.56.85 0 1.17a2.25 2.25 0 0 1-2 0c-.56-.32-.56-.84 0-1.17a2.25 2.25 0 0 1 2 0zM134.73 285.51a.61.61 0 0 1 0 1.16 2.25 2.25 0 0 1-2 0 .61.61 0 0 1 0-1.16 2.18 2.18 0 0 1 2 0z" class="cls-2"/><ellipse cx="139" cy="283.04" class="cls-2" rx="1.43" ry=".82"/><path d="M87.21 306.84c.56.33.56.85 0 1.17a2.25 2.25 0 0 1-2 0c-.56-.32-.56-.84 0-1.17a2.25 2.25 0 0 1 2 0zM92.49 303.8a.61.61 0 0 1 0 1.16 2.25 2.25 0 0 1-2 0 .61.61 0 0 1 0-1.16 2.18 2.18 0 0 1 2 0zM97.77 300.75a.61.61 0 0 1 0 1.16 2.18 2.18 0 0 1-2 0 .61.61 0 0 1 0-1.16 2.25 2.25 0 0 1 2 0zM103.05 297.7c.56.32.56.84 0 1.17a2.25 2.25 0 0 1-2 0c-.56-.33-.56-.85 0-1.17a2.25 2.25 0 0 1 2 0zM108.33 294.65c.56.32.56.84 0 1.17a2.25 2.25 0 0 1-2 0c-.56-.33-.56-.85 0-1.17a2.25 2.25 0 0 1 2 0zM113.61 291.6a.62.62 0 0 1 0 1.17 2.25 2.25 0 0 1-2 0 .62.62 0 0 1 0-1.17 2.25 2.25 0 0 1 2 0zM118.89 288.55c.56.33.56.85 0 1.17a2.25 2.25 0 0 1-2 0c-.56-.32-.56-.84 0-1.17a2.25 2.25 0 0 1 2 0zM124.17 285.51a.61.61 0 0 1 0 1.16 2.25 2.25 0 0 1-2 0 .61.61 0 0 1 0-1.16 2.18 2.18 0 0 1 2 0zM74.63 306.85a2.21 2.21 0 0 1 2 0 .61.61 0 0 1 0 1.16 2.21 2.21 0 0 1-2 0 .61.61 0 0 1 0-1.16zM81.93 303.8a.61.61 0 0 1 0 1.16 2.25 2.25 0 0 1-2 0 .61.61 0 0 1 0-1.16 2.18 2.18 0 0 1 2 0zM87.21 300.75a.61.61 0 0 1 0 1.16 2.18 2.18 0 0 1-2 0 .61.61 0 0 1 0-1.16 2.25 2.25 0 0 1 2 0zM92.49 297.7c.56.32.56.84 0 1.17a2.25 2.25 0 0 1-2 0c-.56-.33-.56-.85 0-1.17a2.25 2.25 0 0 1 2 0zM97.77 294.65c.56.32.56.84 0 1.17a2.25 2.25 0 0 1-2 0 .62.62 0 0 1 0-1.17 2.25 2.25 0 0 1 2 0zM103.05 291.6a.62.62 0 0 1 0 1.17 2.25 2.25 0 0 1-2 0 .62.62 0 0 1 0-1.17 2.25 2.25 0 0 1 2 0zM108.33 288.55c.56.33.56.85 0 1.17a2.25 2.25 0 0 1-2 0c-.56-.32-.56-.84 0-1.17a2.25 2.25 0 0 1 2 0zM113.61 285.51a.61.61 0 0 1 0 1.16 2.25 2.25 0 0 1-2 0 .61.61 0 0 1 0-1.16 2.18 2.18 0 0 1 2 0zM69.35 303.8a2.25 2.25 0 0 1 2 0 .61.61 0 0 1 0 1.16 2.21 2.21 0 0 1-2 0c-.56-.32-.56-.84 0-1.16zM76.65 300.75a.61.61 0 0 1 0 1.16 2.18 2.18 0 0 1-2 0 .61.61 0 0 1 0-1.16 2.25 2.25 0 0 1 2 0zM81.93 297.7c.56.32.56.84 0 1.17a2.25 2.25 0 0 1-2 0c-.56-.33-.56-.85 0-1.17a2.25 2.25 0 0 1 2 0zM87.21 294.65a.62.62 0 0 1 0 1.17 2.25 2.25 0 0 1-2 0 .62.62 0 0 1 0-1.17 2.25 2.25 0 0 1 2 0zM92.49 291.6a.62.62 0 0 1 0 1.17 2.25 2.25 0 0 1-2 0c-.56-.32-.56-.84 0-1.17a2.25 2.25 0 0 1 2 0zM97.77 288.55c.56.33.56.85 0 1.17a2.25 2.25 0 0 1-2 0c-.56-.32-.56-.84 0-1.17a2.25 2.25 0 0 1 2 0zM103.05 285.51a.61.61 0 0 1 0 1.16 2.25 2.25 0 0 1-2 0 .61.61 0 0 1 0-1.16 2.18 2.18 0 0 1 2 0zM64.07 300.75a2.25 2.25 0 0 1 2 0 .62.62 0 0 1 0 1.17 2.25 2.25 0 0 1-2 0 .62.62 0 0 1 0-1.17zM71.37 297.7c.56.32.56.84 0 1.17a2.25 2.25 0 0 1-2 0 .62.62 0 0 1 0-1.17 2.25 2.25 0 0 1 2 0zM76.65 294.65a.62.62 0 0 1 0 1.17 2.25 2.25 0 0 1-2 0 .62.62 0 0 1 0-1.17 2.25 2.25 0 0 1 2 0zM81.93 291.6c.56.33.56.85 0 1.17a2.25 2.25 0 0 1-2 0c-.56-.32-.56-.84 0-1.17a2.25 2.25 0 0 1 2 0zM87.21 288.55c.56.33.56.85 0 1.17a2.25 2.25 0 0 1-2 0c-.56-.32-.56-.84 0-1.17a2.25 2.25 0 0 1 2 0zM92.49 285.51a.61.61 0 0 1 0 1.16 2.25 2.25 0 0 1-2 0 .61.61 0 0 1 0-1.16 2.18 2.18 0 0 1 2 0zM58.74 297.67a2.25 2.25 0 0 1 2 0c.56.32.56.84 0 1.17a2.25 2.25 0 0 1-2 0 .62.62 0 0 1 0-1.17zM66.05 294.62a.62.62 0 0 1 0 1.17 2.25 2.25 0 0 1-2 0c-.56-.33-.56-.85 0-1.17a2.25 2.25 0 0 1 2 0zM71.33 291.57a.62.62 0 0 1 0 1.17 2.25 2.25 0 0 1-2 0c-.56-.33-.56-.85 0-1.17a2.25 2.25 0 0 1 2 0zM76.61 288.52a.62.62 0 0 1 0 1.17 2.25 2.25 0 0 1-2 0 .62.62 0 0 1 0-1.17 2.25 2.25 0 0 1 2 0z" class="cls-2"/><ellipse cx="80.88" cy="286.06" class="cls-2" rx="1.43" ry=".82"/><path d="M87.17 282.43a.61.61 0 0 1 0 1.16 2.25 2.25 0 0 1-2 0 .61.61 0 0 1 0-1.16 2.18 2.18 0 0 1 2 0zM53.46 294.62a2.25 2.25 0 0 1 2 0c.56.32.56.84 0 1.17a2.22 2.22 0 0 1-2 0 .62.62 0 0 1 0-1.17z" class="cls-2"/><ellipse cx="59.76" cy="292.15" class="cls-2" rx="1.43" ry=".82"/><path d="M66.05 288.52a.62.62 0 0 1 0 1.17 2.25 2.25 0 0 1-2 0 .62.62 0 0 1 0-1.17 2.25 2.25 0 0 1 2 0zM71.33 285.47a.62.62 0 0 1 0 1.17 2.25 2.25 0 0 1-2 0c-.56-.32-.56-.84 0-1.17a2.25 2.25 0 0 1 2 0zM76.61 282.43a.61.61 0 0 1 0 1.16 2.25 2.25 0 0 1-2 0 .61.61 0 0 1 0-1.16 2.18 2.18 0 0 1 2 0zM48.18 291.57a2.25 2.25 0 0 1 2 0 .62.62 0 0 1 0 1.17 2.22 2.22 0 0 1-2 0 .62.62 0 0 1 0-1.17zM55.49 288.52a.62.62 0 0 1 0 1.17 2.25 2.25 0 0 1-2 0 .62.62 0 0 1 0-1.17 2.25 2.25 0 0 1 2 0z" class="cls-2"/><ellipse cx="59.76" cy="286.06" class="cls-2" rx="1.43" ry=".82"/><path d="M66.05 282.43a.61.61 0 0 1 0 1.16 2.25 2.25 0 0 1-2 0 .61.61 0 0 1 0-1.16 2.18 2.18 0 0 1 2 0zM71.33 279.38a.61.61 0 0 1 0 1.16 2.18 2.18 0 0 1-2 0 .61.61 0 0 1 0-1.16 2.25 2.25 0 0 1 2 0zM42.9 288.53a2.21 2.21 0 0 1 2 0c.56.33.56.85 0 1.17a2.22 2.22 0 0 1-2 0 .61.61 0 0 1 0-1.17zM50.21 285.47c.56.33.56.85 0 1.17a2.25 2.25 0 0 1-2 0c-.56-.32-.56-.84 0-1.17a2.25 2.25 0 0 1 2 0zM55.49 282.43a.61.61 0 0 1 0 1.16 2.25 2.25 0 0 1-2 0 .61.61 0 0 1 0-1.16 2.18 2.18 0 0 1 2 0zM60.77 279.38a.61.61 0 0 1 0 1.16 2.18 2.18 0 0 1-2 0 .61.61 0 0 1 0-1.16 2.25 2.25 0 0 1 2 0zM208.69 285.52a.62.62 0 0 1 0 1.17 2.25 2.25 0 0 1-2 0 .62.62 0 0 1 0-1.17 2.25 2.25 0 0 1 2 0zM214 282.47a.62.62 0 0 1 0 1.17 2.25 2.25 0 0 1-2 0 .62.62 0 0 1 0-1.17 2.25 2.25 0 0 1 2 0zM219.25 279.42c.56.33.56.85 0 1.17a2.25 2.25 0 0 1-2 0c-.56-.32-.56-.84 0-1.17a2.25 2.25 0 0 1 2 0zM203.41 282.47a.62.62 0 0 1 0 1.17 2.25 2.25 0 0 1-2 0 .62.62 0 0 1 0-1.17 2.25 2.25 0 0 1 2 0zM208.69 279.42c.56.33.56.85 0 1.17a2.25 2.25 0 0 1-2 0c-.56-.32-.56-.84 0-1.17a2.25 2.25 0 0 1 2 0zM214 276.38a.61.61 0 0 1 0 1.16 2.25 2.25 0 0 1-2 0 .61.61 0 0 1 0-1.16 2.18 2.18 0 0 1 2 0zM219.25 273.33a.61.61 0 0 1 0 1.16 2.18 2.18 0 0 1-2 0 .61.61 0 0 1 0-1.16 2.25 2.25 0 0 1 2 0zM224.53 270.28c.56.32.56.84 0 1.17a2.25 2.25 0 0 1-2 0c-.56-.33-.56-.85 0-1.17a2.25 2.25 0 0 1 2 0zM229.81 267.23a.62.62 0 0 1 0 1.17 2.25 2.25 0 0 1-2 0 .62.62 0 0 1 0-1.17 2.25 2.25 0 0 1 2 0zM198.13 279.42c.56.33.56.85 0 1.17a2.25 2.25 0 0 1-2 0c-.56-.32-.56-.84 0-1.17a2.25 2.25 0 0 1 2 0zM203.41 276.38a.61.61 0 0 1 0 1.16 2.25 2.25 0 0 1-2 0 .61.61 0 0 1 0-1.16 2.18 2.18 0 0 1 2 0zM208.69 273.33a.61.61 0 0 1 0 1.16 2.18 2.18 0 0 1-2 0 .61.61 0 0 1 0-1.16 2.25 2.25 0 0 1 2 0zM214 270.28c.56.32.56.84 0 1.17a2.25 2.25 0 0 1-2 0c-.56-.33-.56-.85 0-1.17a2.25 2.25 0 0 1 2 0zM219.25 267.23a.62.62 0 0 1 0 1.17 2.25 2.25 0 0 1-2 0 .62.62 0 0 1 0-1.17 2.25 2.25 0 0 1 2 0zM224.53 264.18a.62.62 0 0 1 0 1.17 2.25 2.25 0 0 1-2 0 .62.62 0 0 1 0-1.17 2.25 2.25 0 0 1 2 0z" class="cls-2"/><ellipse cx="228.8" cy="261.72" class="cls-2" rx="1.43" ry=".82"/><path d="M235.09 258.09a.61.61 0 0 1 0 1.16 2.25 2.25 0 0 1-2 0 .61.61 0 0 1 0-1.16 2.18 2.18 0 0 1 2 0z" class="cls-2"/><ellipse cx="191.84" cy="276.96" class="cls-2" rx="1.43" ry=".82"/><path d="M198.13 273.33a.61.61 0 0 1 0 1.16 2.18 2.18 0 0 1-2 0 .61.61 0 0 1 0-1.16 2.25 2.25 0 0 1 2 0zM203.41 270.28c.56.32.56.84 0 1.17a2.25 2.25 0 0 1-2 0c-.56-.33-.56-.85 0-1.17a2.25 2.25 0 0 1 2 0z" class="cls-2"/><ellipse cx="207.68" cy="267.81" class="cls-2" rx="1.43" ry=".82"/><path d="M214 264.18a.62.62 0 0 1 0 1.17 2.25 2.25 0 0 1-2 0 .62.62 0 0 1 0-1.17 2.25 2.25 0 0 1 2 0zM219.25 261.13c.56.33.56.85 0 1.17a2.25 2.25 0 0 1-2 0c-.56-.32-.56-.84 0-1.17a2.25 2.25 0 0 1 2 0zM224.53 258.09a.61.61 0 0 1 0 1.16 2.25 2.25 0 0 1-2 0 .61.61 0 0 1 0-1.16 2.18 2.18 0 0 1 2 0zM229.81 255a.61.61 0 0 1 0 1.16 2.18 2.18 0 0 1-2 0 .61.61 0 0 1 0-1.16 2.25 2.25 0 0 1 2 0zM235.09 252c.56.32.56.84 0 1.17a2.25 2.25 0 0 1-2 0c-.56-.33-.56-.85 0-1.17a2.25 2.25 0 0 1 2 0zM187.52 273.3a.61.61 0 0 1 0 1.16 2.25 2.25 0 0 1-2 0 .61.61 0 0 1 0-1.16 2.18 2.18 0 0 1 2 0zM192.8 270.25a.61.61 0 0 1 0 1.16 2.18 2.18 0 0 1-2 0 .61.61 0 0 1 0-1.16 2.25 2.25 0 0 1 2 0zM198.08 267.2c.56.32.56.84 0 1.17a2.25 2.25 0 0 1-2 0 .62.62 0 0 1 0-1.17 2.25 2.25 0 0 1 2 0zM203.36 264.15a.62.62 0 0 1 0 1.17 2.25 2.25 0 0 1-2 0 .62.62 0 0 1 0-1.17 2.25 2.25 0 0 1 2 0zM208.64 261.1a.62.62 0 0 1 0 1.17 2.25 2.25 0 0 1-2 0 .62.62 0 0 1 0-1.17 2.25 2.25 0 0 1 2 0zM213.92 258.05c.56.33.56.85 0 1.17a2.25 2.25 0 0 1-2 0 .62.62 0 0 1 0-1.17 2.25 2.25 0 0 1 2 0zM219.2 255a.61.61 0 0 1 0 1.16 2.25 2.25 0 0 1-2 0 .61.61 0 0 1 0-1.16 2.18 2.18 0 0 1 2 0zM224.48 252a.61.61 0 0 1 0 1.16 2.18 2.18 0 0 1-2 0 .61.61 0 0 1 0-1.16 2.25 2.25 0 0 1 2 0z" class="cls-2"/><ellipse cx="228.75" cy="249.49" class="cls-2" rx="1.43" ry=".82"/><path d="M235 245.86a.62.62 0 0 1 0 1.17 2.25 2.25 0 0 1-2 0 .62.62 0 0 1 0-1.17 2.25 2.25 0 0 1 2 0zM182.24 270.25a.61.61 0 0 1 0 1.16 2.18 2.18 0 0 1-2 0 .61.61 0 0 1 0-1.16 2.25 2.25 0 0 1 2 0zM187.52 267.2c.56.32.56.84 0 1.17a2.25 2.25 0 0 1-2 0 .62.62 0 0 1 0-1.17 2.25 2.25 0 0 1 2 0zM192.8 264.15a.62.62 0 0 1 0 1.17 2.25 2.25 0 0 1-2 0 .62.62 0 0 1 0-1.17 2.25 2.25 0 0 1 2 0zM198.08 261.1a.62.62 0 0 1 0 1.17 2.25 2.25 0 0 1-2 0 .62.62 0 0 1 0-1.17 2.25 2.25 0 0 1 2 0zM203.36 258.05c.56.33.56.85 0 1.17a2.25 2.25 0 0 1-2 0 .62.62 0 0 1 0-1.17 2.25 2.25 0 0 1 2 0zM208.64 255a.61.61 0 0 1 0 1.16 2.25 2.25 0 0 1-2 0 .61.61 0 0 1 0-1.16 2.18 2.18 0 0 1 2 0zM213.92 252a.61.61 0 0 1 0 1.16 2.18 2.18 0 0 1-2 0 .61.61 0 0 1 0-1.16 2.25 2.25 0 0 1 2 0z" class="cls-2"/><ellipse cx="218.19" cy="249.49" class="cls-2" rx="1.43" ry=".82"/><path d="M224.48 245.86a.62.62 0 0 1 0 1.17 2.25 2.25 0 0 1-2 0 .62.62 0 0 1 0-1.17 2.25 2.25 0 0 1 2 0zM229.76 242.81c.56.33.56.85 0 1.17a2.25 2.25 0 0 1-2 0 .62.62 0 0 1 0-1.17 2.25 2.25 0 0 1 2 0zM235 239.76c.56.33.56.85 0 1.17a2.25 2.25 0 0 1-2 0c-.56-.32-.56-.84 0-1.17a2.25 2.25 0 0 1 2 0zM213.92 245.86a.62.62 0 0 1 0 1.17 2.25 2.25 0 0 1-2 0 .62.62 0 0 1 0-1.17 2.25 2.25 0 0 1 2 0zM219.2 242.81c.56.33.56.85 0 1.17a2.25 2.25 0 0 1-2 0 .62.62 0 0 1 0-1.17 2.25 2.25 0 0 1 2 0zM224.48 239.76c.56.33.56.85 0 1.17a2.25 2.25 0 0 1-2 0 .62.62 0 0 1 0-1.17 2.25 2.25 0 0 1 2 0z" class="cls-2"/><ellipse cx="228.75" cy="237.3" class="cls-2" rx="1.43" ry=".82"/><ellipse cx="234.03" cy="234.25" class="cls-2" rx="1.43" ry=".82"/><ellipse cx="218.19" cy="237.3" class="cls-2" rx="1.43" ry=".82"/><path d="M224.48 233.67a.61.61 0 0 1 0 1.16 2.18 2.18 0 0 1-2 0 .61.61 0 0 1 0-1.16 2.25 2.25 0 0 1 2 0zM229.76 230.62c.56.32.56.84 0 1.17a2.25 2.25 0 0 1-2 0 .62.62 0 0 1 0-1.17 2.25 2.25 0 0 1 2 0zM235 227.57a.62.62 0 0 1 0 1.17 2.25 2.25 0 0 1-2 0 .62.62 0 0 1 0-1.17 2.25 2.25 0 0 1 2 0zM219.2 230.62c.56.32.56.84 0 1.17a2.25 2.25 0 0 1-2 0 .62.62 0 0 1 0-1.17 2.25 2.25 0 0 1 2 0zM224.48 227.57a.62.62 0 0 1 0 1.17 2.25 2.25 0 0 1-2 0 .62.62 0 0 1 0-1.17 2.25 2.25 0 0 1 2 0zM229.76 224.52c.56.33.56.85 0 1.17a2.25 2.25 0 0 1-2 0 .62.62 0 0 1 0-1.17 2.25 2.25 0 0 1 2 0zM224.48 221.48a.61.61 0 0 1 0 1.16 2.25 2.25 0 0 1-2 0 .61.61 0 0 1 0-1.16 2.18 2.18 0 0 1 2 0zM229.76 218.43a.61.61 0 0 1 0 1.16 2.25 2.25 0 0 1-2 0 .61.61 0 0 1 0-1.16 2.25 2.25 0 0 1 2 0zM224.48 215.38a.61.61 0 0 1 0 1.16 2.18 2.18 0 0 1-2 0 .61.61 0 0 1 0-1.16 2.25 2.25 0 0 1 2 0z" class="cls-2"/><path d="M180.16 175.26c-39.11-18.36-95.72-18.36-134.82 0H5.43l-1.07 48.57c0 16.77 12.31 32.5 32.71 44.28 20.87 12 48.27 18.07 75.68 18.07s54.81-6 75.67-18.07c20.4-11.78 32.33-27.51 32.34-44.28l-.7-48.57z" class="cls-2"/><path d="M181.4 166.59c-39.86-18.81-97.45-18.81-137.3 0l-40 7.17v41.43c0 16.05 10.61 32.1 31.82 44.34 42.42 24.5 111.19 24.49 153.61 0 21.21-12.24 31.82-28.29 31.82-44.34v-40.28z" class="cls-3"/><path d="M112.75 278.87c-28 0-56-6.16-77.31-18.47-20.84-12-32.32-28.08-32.32-45.21v-42.27l40.67-7.3c40-18.82 97.94-18.82 137.93 0l40.65 8.48v41.09c0 17.13-11.47 33.18-32.31 45.21-21.32 12.31-49.32 18.47-77.31 18.47zM5.13 174.6v40.59c0 16.38 11.12 31.82 31.31 43.47C78.52 283 147 283 189.05 258.66c20.19-11.65 31.31-27.09 31.31-43.47v-39.46L181 167.49c-39.52-18.65-96.9-18.65-136.43 0l-.25.09z" class="cls-2"/><ellipse cx="112.75" cy="173.76" class="cls-3" rx="108.62" ry="62.71"/><path d="M189.67 135.42c21.48 12.4 32.09 28.71 31.81 45 0 1.6-.76 1.89-1 3.49-.18 1.2-.12 4.88-.12 4.88-3.23 12.94-13.46 25.4-30.69 35.35-42.42 24.49-111.2 24.49-153.62 0C18.4 213.92 8.1 201.1 5.13 187.83a26.15 26.15 0 0 0 0-2.83c-.28-1.57-.78-2-.85-3.54-.78-16.61 9.81-33.36 31.77-46 42.42-24.53 111.2-24.53 153.62-.04z" class="cls-4"/><ellipse cx="112.75" cy="167.87" class="cls-3" rx="100.08" ry="57.78"/><path d="M190.06 128.54a128 128 0 0 0-28.31-11.78c-30.36-9.77-67.67-9.77-98 0a127.41 127.41 0 0 0-28.28 11.77c-20.84 12-32.32 28.09-32.32 45.22S14.6 206.94 35.44 219c21.31 12.3 49.31 18.46 77.31 18.46s56-6.16 77.31-18.46c20.84-12 32.31-28.09 32.31-45.22s-11.47-33.2-32.31-45.24zm-6.43 2c-39.09-22.56-102.45-22.56-141.54 0-16.24 9.38-25.71 21.19-28.45 33.4 1.63-13.68 11.66-26.44 28.69-36.27 2.32-1.34 4.73-2.59 7.21-3.77 18.79-7.85 41-11.78 63.21-11.78S157.16 116 176 123.85c2.48 1.18 4.89 2.43 7.21 3.77 16.23 9.37 26.11 21.38 28.42 34.32-3.32-11.51-12.63-22.57-28-31.45zm5.42 86.74c-42.07 24.29-110.53 24.29-152.61 0-20.19-11.71-31.31-27.14-31.31-43.52 0-14.7 9-28.64 25.43-39.77C18.49 143.81 12 155.53 12 167.87a35.46 35.46 0 0 0 1.47 9.95c2.44 12.56 12 24.75 28.66 34.39 39.08 22.56 102.45 22.56 141.54 0 17.67-10.21 27.33-23.28 29-36.63a34.48 34.48 0 0 0 .89-7.71c0-12.34-6.53-24.06-18.59-33.88 16.44 11.13 25.42 25.07 25.42 39.77-.03 16.38-11.15 31.81-31.34 43.47z" class="cls-2"/><path d="M136.16 198c-3 0-5.78-1.19-6.66-3.11L122.31 179a2.49 2.49 0 0 1 .32-2.62c1.15-1.51 3.79-2.28 6.39-1.89l27.43 4.15c2.61.4 4.56 1.66 5.11 3.31a3.09 3.09 0 0 1-.89 3.22 43.93 43.93 0 0 1-9.23 7 64.4 64.4 0 0 1-12 5.3 10.5 10.5 0 0 1-3.28.53zm-8.51-22a4.88 4.88 0 0 0-3.73 1.35.89.89 0 0 0-.14 1l7.22 15.82c.76 1.68 4.66 2.83 8 1.74a62.49 62.49 0 0 0 11.7-5.16 41.73 41.73 0 0 0 8.89-6.71 1.5 1.5 0 0 0 .51-1.59c-.29-.85-1.58-1.88-3.82-2.22l-27.43-4.15a7.42 7.42 0 0 0-1.2-.08z" class="cls-2"/><ellipse cx="112.75" cy="169.34" class="cls-3" rx="64.33" ry="37.14"/><path d="M158.08 148.6c-25.13-14.5-65.86-14.5-91 0-11.45 6.61-17.66 15.1-18.68 23.75 1 8.64 7.23 17.13 18.68 23.74 25.12 14.5 65.85 14.5 91 0 11.45-6.61 17.66-15.1 18.67-23.74-1.01-8.65-7.22-17.14-18.67-23.75z" class="cls-4"/><path d="M112.75 207.46c-16.66 0-33.31-3.66-46-11-12.47-7.21-19.34-16.84-19.34-27.14s6.87-19.93 19.34-27.13c25.37-14.64 66.63-14.64 92 0 12.47 7.2 19.34 16.84 19.34 27.13s-6.87 19.93-19.34 27.14c-12.69 7.34-29.35 11-46 11zm0-74.25c-16.3 0-32.59 3.58-45 10.74-11.82 6.83-18.34 15.85-18.34 25.39s6.52 18.56 18.34 25.39c24.81 14.32 65.17 14.32 90 0 11.83-6.83 18.34-15.84 18.34-25.39s-6.51-18.56-18.34-25.39c-12.42-7.16-28.75-10.74-45-10.74z" class="cls-2"/><path d="M112.74 208.87c-19.34 0-38.68-4.25-53.41-12.75C45 187.82 37 176.74 37 164.92s8-22.92 22.33-31.2c29.46-17 77.38-17 106.83 0 14.39 8.31 22.31 19.39 22.31 31.2s-7.92 22.9-22.31 31.2c-14.73 8.5-34.07 12.75-53.42 12.75zm0-86.67c-19.12 0-38.24 4.2-52.79 12.6-14 8.08-21.69 18.77-21.69 30.12S46 187 60 195c29.1 16.81 76.47 16.81 105.58 0 14-8.07 21.68-18.77 21.68-30.12s-7.7-22-21.68-30.12c-14.58-8.36-33.72-12.56-52.83-12.56z" class="cls-3"/><path d="M206.25 232.73V221.8a61.53 61.53 0 0 0 9.67-11.06c6.45-10.65 5.21-18.72 5.21-18.72-1.26 9.62-6.36 18.81-14.85 27V205.7l-12 9.49-18.53 10.74-19.35 5.27-17.9 3.49-17 1.58.08 13.13c-5.6.26-11.22.27-16.82 0v-13.1l-19.34-1.22-16.49-4.7v14q-5.51-1.4-10.78-3.14V228l-6.23-2.87v13.83a118.12 118.12 0 0 1-16.3-7.73c-18.14-10.48-29-24.48-31.21-39v2c.37 11 5.7 17.27 5.7 17.27l.37.65C16 219.88 24.1 226.93 34.57 233a119.73 119.73 0 0 0 17.31 8.16v11.52a119.33 119.33 0 0 1-16.3-7.74c-18.14-10.47-29-24.48-31.21-39v2c.37 11.44 5.7 17.27 5.7 17.27l.37.66c5.53 7.68 13.65 14.73 24.12 20.77a119.73 119.73 0 0 0 17.31 8.16v14.74l6.23 2.56V257q5.27 1.73 10.78 3.09v16l35.83 6.06v-17c2.66.11 5.31.19 8 .19 3 0 6-.09 9-.23l.08 14.52 38.43-3 38.39-18.33 7.7-7.49V235.5a61.19 61.19 0 0 0 9.67-11.06c6.3-10.49 5.21-18.72 5.21-18.72-1.35 9.63-6.45 18.82-14.94 27.01zM58.11 254.89v-11.57q5.27 1.73 10.78 3.09V258q-5.5-1.36-10.78-3.11zm46.61 8.25v-11.7c2.65.11 5.31.18 8 .18 3 0 5.92-.08 8.87-.22l.08 11.7c-5.67.26-11.32.27-16.95.04z" class="cls-2"/><path d="M51.88 255c2 .77 4.13 1.5 6.23 2.19v-2.13c-2.11-.7-4.18-1.46-6.23-2.25zM51.88 241.28c2 .78 4.13 1.5 6.23 2.2v-2.13c-2.11-.71-4.18-1.46-6.23-2.25zM68.89 260.28a180.24 180.24 0 0 0 35.83 5.06v-2a177.09 177.09 0 0 1-35.83-5.13zM68.89 246.58a179.51 179.51 0 0 0 35.83 5v-2a177.8 177.8 0 0 1-35.83-5.13zM121.64 263.29v2c25.23-1.18 49.9-7.31 69.16-18.43a87.87 87.87 0 0 0 15.43-11.17v-2.77a84.54 84.54 0 0 1-16.45 12.18c-18.96 10.97-43.27 17.02-68.14 18.19zM121.54 249.6v2c25.27-1.16 50-7.3 69.26-18.43A87.87 87.87 0 0 0 206.25 222v-2.77a84.54 84.54 0 0 1-16.45 12.18c-19.01 10.97-43.35 17.02-68.26 18.19z" class="cls-3"/><path d="M219.94 219.31c-1.92 14.61-12.73 28.24-31 38.77-42.08 24.29-110.54 24.29-152.61 0-17.95-10.35-28.72-24.21-30.89-38.56v2a36.2 36.2 0 0 0 4.78 15.57l2.17 3.46c5.47 7.6 12.56 13.29 22.91 19.27 21.32 12.31 49.31 18.47 77.31 18.46s56-6.15 77.31-18.46c11-6.35 19.37-13.83 24.85-22a47.42 47.42 0 0 0 5.17-18.51z" class="cls-3"/></g><g id="_3" data-name="3"><path d="M376.49 244.91c-39.1-18.37-95.71-18.37-134.82 0h-39.9l-1.08 48.57c0 16.77 12.31 32.5 32.72 44.27 20.86 12.05 48.27 18.07 75.67 18.07s54.81-6 75.68-18.07c20.4-11.77 32.33-27.5 32.33-44.27l-.69-48.57z" class="cls-2"/><path d="M377.73 236.23c-39.85-18.81-97.44-18.81-137.3 0l-40 7.18v41.42c0 16.05 10.61 32.1 31.81 44.35 42.42 24.49 111.2 24.49 153.62 0 21.21-12.25 31.81-28.3 31.81-44.34v-40.28z" class="cls-3"/><path d="M309.08 348.51c-28 0-56-6.15-77.31-18.46-20.84-12-32.32-28.09-32.32-45.21v-42.28l40.67-7.3c40-18.82 97.94-18.81 137.92 0l40.66 8.47v41.1c0 17.12-11.48 33.18-32.32 45.21-21.3 12.32-49.3 18.47-77.3 18.47zM201.47 244.25v40.59c0 16.37 11.12 31.81 31.31 43.47 42.07 24.29 110.53 24.29 152.61 0 20.19-11.66 31.31-27.1 31.31-43.47v-39.46l-39.4-8.24c-39.52-18.65-96.91-18.66-136.43 0l-.26.08z" class="cls-2"/><ellipse cx="309.08" cy="243.4" class="cls-3" rx="108.62" ry="62.71"/><ellipse cx="309.08" cy="237.51" class="cls-3" rx="100.08" ry="57.78"/><path d="M386.39 198.19a127.39 127.39 0 0 0-28.3-11.78c-30.36-9.77-67.67-9.77-98 0a128 128 0 0 0-28.29 11.78c-20.84 12-32.32 28.09-32.32 45.21s11.48 33.19 32.32 45.22c21.32 12.31 49.31 18.46 77.31 18.46s56-6.15 77.31-18.46c20.84-12 32.32-28.09 32.32-45.22s-11.51-33.18-32.35-45.21zm-6.39 1.95c-39.08-22.57-102.45-22.57-141.53 0-16.25 9.38-25.72 21.18-28.46 33.39 1.64-13.67 11.67-26.43 28.7-36.27 2.31-1.33 4.72-2.59 7.21-3.77 18.78-7.84 41-11.78 63.2-11.78s44.42 3.94 63.2 11.78q3.74 1.77 7.22 3.77c16.22 9.37 26.1 21.39 28.42 34.33-3.31-11.52-12.61-22.59-27.96-31.45zm5.43 86.74c-42.08 24.29-110.54 24.29-152.61 0-20.19-11.66-31.31-27.1-31.31-43.48 0-14.7 9-28.63 25.42-39.76-12.07 9.82-18.59 21.54-18.59 33.87a35.39 35.39 0 0 0 1.46 10c2.44 12.57 12 24.76 28.67 34.39 39.08 22.57 102.45 22.57 141.53 0 17.68-10.2 27.33-23.27 29-36.62a35.16 35.16 0 0 0 .89-7.72c0-12.33-6.53-24-18.6-33.87 16.44 11.13 25.43 25.06 25.43 39.76-.02 16.33-11.14 31.77-31.33 43.43z" class="cls-2"/><path d="M332.5 267.6c-3 0-5.79-1.19-6.66-3.12l-7.19-15.83A2.46 2.46 0 0 1 319 246c1.14-1.52 3.78-2.29 6.39-1.89l27.42 4.15c2.61.39 4.57 1.66 5.11 3.3a3.06 3.06 0 0 1-.89 3.23 43.42 43.42 0 0 1-9.23 7 64.11 64.11 0 0 1-12 5.3 10.39 10.39 0 0 1-3.3.51zm-8.52-22a4.86 4.86 0 0 0-3.73 1.36.87.87 0 0 0-.14 1l7.19 15.84c.77 1.67 4.67 2.83 8 1.74a62.79 62.79 0 0 0 11.7-5.17 42.24 42.24 0 0 0 8.89-6.71 1.52 1.52 0 0 0 .51-1.58c-.29-.86-1.58-1.88-3.83-2.22l-27.42-4.15a7.49 7.49 0 0 0-1.15-.07z" class="cls-2"/><ellipse cx="309.08" cy="238.99" class="cls-3" rx="64.33" ry="37.14"/><path d="M354.41 218.25c-25.12-14.51-65.85-14.51-91 0-11.41 6.61-17.64 15.09-18.65 23.75 1 8.65 7.23 17.13 18.68 23.74 25.12 14.51 65.85 14.51 91 0 11.45-6.61 17.67-15.09 18.68-23.74-1.04-8.66-7.26-17.14-18.71-23.75z" class="cls-4"/><path d="M309.08 277.1c-16.65 0-33.31-3.66-46-11-12.47-7.2-19.35-16.84-19.35-27.13s6.88-19.94 19.35-27.14c25.36-14.64 66.63-14.64 92 0 12.48 7.2 19.35 16.84 19.35 27.14s-6.87 19.93-19.35 27.13c-12.69 7.34-29.34 11-46 11zm0-74.24c-16.29 0-32.58 3.57-45 10.74-11.83 6.82-18.34 15.84-18.34 25.39s6.51 18.56 18.34 25.39c24.8 14.31 65.16 14.31 90 0 11.82-6.83 18.34-15.85 18.34-25.39s-6.52-18.57-18.34-25.39c-12.41-7.16-28.71-10.74-45-10.74z" class="cls-2"/><path d="M309.08 278.52c-19.34 0-38.69-4.25-53.41-12.75-14.39-8.31-22.31-19.39-22.31-31.2s7.92-22.9 22.31-31.2c29.45-17 77.38-17 106.83 0 14.38 8.3 22.3 19.38 22.3 31.2s-7.92 22.89-22.3 31.2c-14.73 8.5-34.08 12.75-53.42 12.75zm0-86.68c-19.12 0-38.23 4.21-52.79 12.61-14 8.07-21.68 18.77-21.68 30.12s7.7 22 21.68 30.12c29.11 16.8 76.47 16.8 105.58 0 14-8.08 21.69-18.77 21.69-30.12s-7.7-22-21.69-30.12c-14.55-8.4-33.67-12.61-52.79-12.61z" class="cls-3"/><path d="M296.56 249.94l-23.86 8.84c-3.38 1.25-3.79 4-.82 5.58a67.16 67.16 0 0 0 12.28 4.89 87.3 87.3 0 0 0 14.07 2.87c3.94.47 7.58-1.35 7.35-3.67L304 252.11c-.27-2.11-4.35-3.32-7.44-2.17z" class="cls-3"/><path d="M299.58 270.61a12.4 12.4 0 0 1-1.36-.08 88.07 88.07 0 0 1-14.22-2.89 68.72 68.72 0 0 1-12.42-4.95c-1.63-.86-2.52-2.13-2.43-3.51s1.32-2.8 3.34-3.55l23.86-8.84a8.31 8.31 0 0 1 6.84.53 3.18 3.18 0 0 1 1.63 2.32l1.64 16.36a3.21 3.21 0 0 1-1.07 2.65 8.44 8.44 0 0 1-5.81 1.96zm-.38-22.7a6.67 6.67 0 0 0-2.28.39l-23.86 8.84c-1.38.52-2.24 1.32-2.29 2.15s.53 1.43 1.57 2a66.26 66.26 0 0 0 12.13 4.83 84.76 84.76 0 0 0 13.94 2.83c2.28.28 4.7-.31 5.86-1.44a1.69 1.69 0 0 0 .59-1.34l-1.64-16.34a1.65 1.65 0 0 0-.88-1.11 6.13 6.13 0 0 0-3.14-.81z" class="cls-2"/><path d="M290.8 237.21l-21.94-10.37c-3.11-1.47-7.8-.84-9.45 1.28a23.56 23.56 0 0 0-4.26 8.25 19 19 0 0 0-.37 8.61c.44 2.31 4.56 3.75 8.31 2.91l26.41-5.95c3.42-.77 4.14-3.38 1.3-4.73z" class="cls-3"/><path d="M260.93 246.55a9.4 9.4 0 0 1-5-1.34 3.9 3.9 0 0 1-1.82-2.47 19.61 19.61 0 0 1 .38-9 24.31 24.31 0 0 1 4.4-8.53c1.89-2.42 7-3.16 10.43-1.51l21.94 10.37c1.54.72 2.35 1.87 2.21 3.13-.16 1.44-1.57 2.63-3.67 3.11l-26.42 5.94a10.86 10.86 0 0 1-2.45.3zm4.12-22.09c-2.05 0-4 .63-4.93 1.77a22.76 22.76 0 0 0-4.12 8 18.12 18.12 0 0 0-.35 8.24 2.42 2.42 0 0 0 1.12 1.42 8.61 8.61 0 0 0 6.22.85l26.41-6c1.59-.35 2.36-1.11 2.43-1.71s-.43-1.09-1.3-1.5l-21.94-10.37a8.46 8.46 0 0 0-3.54-.7z" class="cls-2"/><path d="M310 230.12l10.3-15.25c1.46-2.17-1-4.55-5-4.8a96.77 96.77 0 0 0-14.91.21 89 89 0 0 0-14.3 2.46c-3.66.95-4.75 3.66-2.21 5.46l18 12.66c2.24 1.65 6.76 1.23 8.12-.74z" class="cls-3"/><path d="M305.56 230.3a7.27 7.27 0 0 1-4.15-1.17l-18-12.66a3.44 3.44 0 0 1-1.68-3.41c.28-1.58 1.84-2.89 4.15-3.49a90.51 90.51 0 0 1 14.43-2.48 96.84 96.84 0 0 1 15-.21c2.8.17 5.06 1.32 5.88 3a3 3 0 0 1-.24 3.05l-10.31 15.25a5.25 5.25 0 0 1-3.53 2 9 9 0 0 1-1.55.12zm3.71-22q-4.39 0-8.78.39a88.26 88.26 0 0 0-14.16 2.44c-1.67.43-2.81 1.28-3 2.22a2 2 0 0 0 1 1.8l17.95 12.67a6.39 6.39 0 0 0 4.57.75 3.88 3.88 0 0 0 2.49-1.29L319.69 212a1.36 1.36 0 0 0 .14-1.44c-.46-.94-2.05-2-4.55-2.11-1.99-.09-4-.15-6.01-.15z" class="cls-2"/><path d="M327.59 238.45l28.31 1c4 .13 7.17-2 6.35-4.24a25.59 25.59 0 0 0-5-8.13 39.64 39.64 0 0 0-8.47-7.09c-2.7-1.71-7.5-1.48-9.67.48l-15.32 13.77c-1.94 1.76.14 4.09 3.8 4.21z" class="cls-3"/><path d="M356.34 237.82H356l-28.3-.94c-2.52-.08-4.6-1.18-5.16-2.73a2.64 2.64 0 0 1 .88-2.94l15.32-13.77c2.45-2.21 7.62-2.48 10.64-.56a40.38 40.38 0 0 1 8.64 7.24 26 26 0 0 1 5.11 8.38 2.94 2.94 0 0 1-.45 2.83c-1.17 1.53-3.61 2.49-6.34 2.49zm-12-20.62a7.16 7.16 0 0 0-4.62 1.43l-15.27 13.77c-.44.4-.59.79-.45 1.18.29.79 1.65 1.61 3.7 1.68l28.31.94c2.66.11 4.63-.89 5.32-1.83a1.37 1.37 0 0 0 .24-1.33 24.61 24.61 0 0 0-4.81-7.86 38.74 38.74 0 0 0-8.29-7 7.89 7.89 0 0 0-4.09-.98z" class="cls-2"/><path d="M319.3 250.7l7.19 15.84c1 2.24 5.46 3.32 8.95 2.17a63.58 63.58 0 0 0 11.85-5.23 42.6 42.6 0 0 0 9.06-6.84c2-2 .13-4.58-3.76-5.17l-27.43-4.15c-3.55-.54-6.79 1.33-5.86 3.38z" class="cls-3"/><path d="M332.5 267.6c-3 0-5.79-1.19-6.66-3.12l-7.19-15.83A2.46 2.46 0 0 1 319 246c1.14-1.52 3.78-2.29 6.39-1.89l27.42 4.15c2.61.39 4.57 1.66 5.11 3.3a3.06 3.06 0 0 1-.89 3.23 43.42 43.42 0 0 1-9.23 7 64.11 64.11 0 0 1-12 5.3 10.39 10.39 0 0 1-3.3.51zm-8.52-22a4.86 4.86 0 0 0-3.73 1.36.87.87 0 0 0-.14 1l7.19 15.84c.77 1.67 4.67 2.83 8 1.74a62.79 62.79 0 0 0 11.7-5.17 42.24 42.24 0 0 0 8.89-6.71 1.52 1.52 0 0 0 .51-1.58c-.29-.86-1.58-1.88-3.83-2.22l-27.42-4.15a7.49 7.49 0 0 0-1.15-.07z" class="cls-2"/><ellipse cx="308.92" cy="240.58" class="cls-3" rx="6.57" ry="3.79"/><path d="M317.44 235.13c-.81.92-2.75 1.28-4.34.82s-2.22-1.6-1.41-2.51a4.56 4.56 0 0 1 4.34-.82c1.59.47 2.22 1.59 1.41 2.51z" class="cls-2"/><path d="M314.63 234.8a5.77 5.77 0 0 1-1.65-.23 3 3 0 0 1-2.2-1.84 1.88 1.88 0 0 1 .46-1.81c1-1.12 3.21-1.57 5.07-1a3 3 0 0 1 2.2 1.84 1.9 1.9 0 0 1-.46 1.82 4.65 4.65 0 0 1-3.42 1.22zm0-3.73a3.38 3.38 0 0 0-2.37.78.52.52 0 0 0-.16.49c.08.26.45.64 1.25.88a3.93 3.93 0 0 0 3.61-.61c.23-.25.18-.43.16-.49-.07-.25-.44-.64-1.24-.87a4.5 4.5 0 0 0-1.22-.18zM320.7 243.65c-1.76-.16-3-1.11-2.68-2.13s1.93-1.71 3.69-1.55 3 1.12 2.69 2.13-1.93 1.71-3.7 1.55z" class="cls-2"/><path d="M321.31 242.33h-.59a4.1 4.1 0 0 1-3-1.46 1.82 1.82 0 0 1-.29-1.57c.37-1.37 2.31-2.25 4.44-2.06a4.08 4.08 0 0 1 3 1.45 1.89 1.89 0 0 1 .29 1.57c-.34 1.23-1.95 2.07-3.85 2.07zm-.46-1.43c1.6.14 2.8-.5 2.95-1a.45.45 0 0 0-.09-.4 2.76 2.76 0 0 0-2-.85c-1.6-.14-2.81.51-3 1a.4.4 0 0 0 .09.39 2.72 2.72 0 0 0 2 .85zM307.67 248.08c-.28-1 .92-2 2.69-2.14s3.41.54 3.69 1.55-.92 2-2.68 2.14-3.37-.53-3.7-1.55z" class="cls-2"/><path d="M310.91 248.31c-1.9 0-3.5-.85-3.84-2.1a1.82 1.82 0 0 1 .29-1.57 4.09 4.09 0 0 1 3-1.45c2.14-.19 4.06.69 4.44 2.07a1.86 1.86 0 0 1-.29 1.57 4.08 4.08 0 0 1-3 1.45q-.3.03-.6.03zm0-3.74h-.46a2.78 2.78 0 0 0-2 .84.45.45 0 0 0-.09.4c.14.53 1.35 1.18 2.95 1a2.74 2.74 0 0 0 2-.85.45.45 0 0 0 .09-.4c-.08-.41-1.07-.99-2.4-.99zM296.35 242.29c1.59-.47 3.54-.11 4.35.81s.18 2-1.41 2.51a4.6 4.6 0 0 1-4.35-.81c-.81-.92-.18-2.04 1.41-2.51z" class="cls-2"/><path d="M297.91 244.47a4.67 4.67 0 0 1-3.42-1.26 1.87 1.87 0 0 1-.45-1.81 3 3 0 0 1 2.19-1.84c1.86-.55 4.09-.09 5.08 1a1.9 1.9 0 0 1 .46 1.81 3 3 0 0 1-2.2 1.84 5.84 5.84 0 0 1-1.66.26zm-1.28-3.56c-.8.24-1.17.62-1.24.88 0 .06-.07.23.16.49a3.94 3.94 0 0 0 3.62.61c.8-.24 1.17-.62 1.24-.88 0-.06.07-.23-.16-.49a4 4 0 0 0-3.62-.61z" class="cls-2"/><ellipse cx="300.11" cy="235.6" class="cls-2" rx="3.23" ry="1.87"/><path d="M300.19 236.12a5.35 5.35 0 0 1-2.64-.64 2.08 2.08 0 0 1 0-3.85 5.76 5.76 0 0 1 5.28 0 2.08 2.08 0 0 1 0 3.85 5.35 5.35 0 0 1-2.64.64zm0-3.73a4 4 0 0 0-1.93.45c-.37.22-.6.49-.6.71s.23.5.6.71a4.3 4.3 0 0 0 3.86 0c.37-.21.6-.48.6-.71s-.23-.49-.6-.71a4 4 0 0 0-1.93-.45zM308.92 243.4a10.15 10.15 0 0 1-5-1.21 3.52 3.52 0 0 1 0-6.59 10.88 10.88 0 0 1 10 0 3.52 3.52 0 0 1 0 6.59 10.17 10.17 0 0 1-5 1.21zm0-7.6a8.83 8.83 0 0 0-4.29 1 2.16 2.16 0 0 0 0 4.15 9.55 9.55 0 0 0 8.59 0 2.16 2.16 0 0 0 0-4.15 8.84 8.84 0 0 0-4.3-1zM402.59 302.37v-10.92a62 62 0 0 0 9.67-11.07c6.45-10.65 5.21-18.72 5.21-18.72-1.27 9.62-6.37 18.82-14.85 27v-13.31l-12 9.49-18.52 10.74-19.5 6.31-17.76 2.45-17 1.58.08 13.12c-5.6.26-11.22.27-16.82 0V306l-19.33-1.23-16.5-4.7v14c-3.66-.92-7.26-2-10.77-3.13v-13.32l-6.23-2.87v13.84a117 117 0 0 1-16.3-7.74c-18.15-10.47-29-24.48-31.22-39v2c.37 11 5.7 17.27 5.7 17.27l.36.66c5.53 7.68 13.66 14.73 24.12 20.77a121 121 0 0 0 17.32 8.17v11.51a117 117 0 0 1-16.3-7.74c-18.15-10.47-29-24.47-31.22-39v2c.37 11.44 5.7 17.27 5.7 17.27l.36.66c5.53 7.69 13.66 14.73 24.12 20.78a119.85 119.85 0 0 0 17.32 8.16v14.73l6.23 2.56v-14.99c3.51 1.15 7.11 2.18 10.77 3.1v16l35.84 6.06v-17c2.65.11 5.31.18 8 .18 3 0 6-.08 9-.22l.08 14.52 38.43-3 38.39-18.32 7.7-7.5v-15.33a62 62 0 0 0 9.67-11.07c6.3-10.49 5.21-18.72 5.21-18.72-1.38 9.64-6.48 18.83-14.96 27.01zm-148.14 22.17V313c3.51 1.15 7.11 2.18 10.77 3.09v11.62c-3.66-.96-7.22-2-10.77-3.17zm46.61 8.24v-11.69c2.65.11 5.31.18 8 .18 3 0 5.91-.08 8.86-.22l.09 11.69c-5.66.26-11.32.26-16.95.04z" class="cls-2"/><path d="M248.22 324.63c2 .78 4.12 1.5 6.23 2.19v-2.12q-3.16-1.06-6.23-2.26zM248.22 310.93c2 .78 4.12 1.5 6.23 2.19V311q-3.16-1.06-6.23-2.26zM265.22 329.93a180.23 180.23 0 0 0 35.84 5.07v-2a177.29 177.29 0 0 1-35.84-5.13zM265.22 316.22a179.51 179.51 0 0 0 35.84 5.06v-2a177.19 177.19 0 0 1-35.84-5.13zM318 332.94v2c25.24-1.17 49.9-7.3 69.16-18.43a88.07 88.07 0 0 0 15.44-11.16v-2.78a84.44 84.44 0 0 1-16.45 12.18c-19 10.96-43.3 17.02-68.15 18.19zM317.88 319.24v2c25.27-1.17 50-7.3 69.26-18.44a88.07 88.07 0 0 0 15.44-11.16v-2.78a84.44 84.44 0 0 1-16.45 12.18c-19 10.96-43.35 17.04-68.25 18.2z" class="cls-3"/><path d="M416.28 289c-1.91 14.62-12.72 28.24-31 38.78-42.07 24.29-110.53 24.29-152.6 0-18-10.37-28.73-24.23-30.9-38.57v2a36.42 36.42 0 0 0 4.78 15.57l2.17 3.45c5.47 7.61 12.56 13.3 22.92 19.28C253 341.79 281 347.94 309 347.94s56-6.16 77.31-18.46c11-6.36 19.37-13.84 24.84-22a47.54 47.54 0 0 0 5.13-18.48z" class="cls-3"/><path d="M376.49 191c-39.1-18.36-95.71-18.36-134.82 0h-39.9l-1.07 48.57c0 16.77 12.3 32.5 32.71 44.28 20.86 12 48.27 18.07 75.67 18.07s54.81-6 75.68-18.07c20.4-11.78 32.33-27.51 32.33-44.28L416.4 191z" class="cls-2"/><path d="M377.73 182.33c-39.85-18.81-97.44-18.81-137.3 0l-40 7.17v41.43c0 16 10.61 32.1 31.82 44.34 42.41 24.5 111.19 24.5 153.61 0C407.1 263 417.7 247 417.7 230.93v-40.27z" class="cls-3"/><path d="M309.08 294.61c-28 0-56-6.16-77.31-18.46-20.84-12-32.32-28.09-32.32-45.22v-42.27l40.67-7.3c40-18.82 97.94-18.82 137.92 0l40.66 8.48v41.09c0 17.13-11.48 33.19-32.32 45.22-21.3 12.3-49.3 18.46-77.3 18.46zM201.47 190.34v40.59c0 16.38 11.12 31.82 31.31 43.47 42.07 24.29 110.53 24.29 152.61 0 20.19-11.65 31.31-27.09 31.31-43.47v-39.46l-39.4-8.23c-39.52-18.66-96.91-18.66-136.43 0l-.26.08z" class="cls-2"/><ellipse cx="309.08" cy="189.5" class="cls-3" rx="108.62" ry="62.71"/><ellipse cx="309.08" cy="183.61" class="cls-3" rx="100.08" ry="57.78"/><path d="M386.39 144.28a127.37 127.37 0 0 0-28.3-11.77c-30.36-9.78-67.67-9.78-98 0a127.49 127.49 0 0 0-28.29 11.77c-20.84 12-32.32 28.09-32.32 45.22s11.48 33.18 32.32 45.22c21.32 12.3 49.32 18.46 77.31 18.46s56-6.16 77.31-18.46c20.84-12 32.32-28.09 32.32-45.22s-11.51-33.18-32.35-45.22zm-6.39 1.95c-39.08-22.56-102.45-22.56-141.53 0-16.25 9.38-25.72 21.19-28.46 33.4 1.64-13.68 11.67-26.44 28.7-36.27 2.31-1.34 4.72-2.59 7.21-3.77 18.78-7.85 41-11.78 63.2-11.78s44.42 3.93 63.2 11.78c2.49 1.18 4.9 2.43 7.22 3.77 16.22 9.37 26.1 21.39 28.42 34.33-3.31-11.52-12.61-22.57-27.96-31.46zm5.39 86.77c-42.08 24.3-110.54 24.3-152.61 0-20.19-11.65-31.31-27.09-31.31-43.47 0-14.7 9-28.64 25.42-39.77-12.06 9.82-18.59 21.55-18.59 33.88a35.45 35.45 0 0 0 1.46 9.95c2.44 12.56 12 24.76 28.67 34.39 39.08 22.57 102.45 22.56 141.53 0 17.68-10.21 27.33-23.28 29-36.63a35.07 35.07 0 0 0 .89-7.71c0-12.33-6.53-24.06-18.6-33.88 16.44 11.13 25.43 25.07 25.43 39.77.02 16.35-11.1 31.79-31.29 43.47z" class="cls-2"/><path d="M332.5 213.69c-3 0-5.79-1.19-6.66-3.11l-7.19-15.84a2.47 2.47 0 0 1 .32-2.62c1.14-1.51 3.78-2.28 6.39-1.89l27.42 4.15c2.61.4 4.57 1.66 5.11 3.31a3 3 0 0 1-.89 3.22 43.78 43.78 0 0 1-9.23 7 64.75 64.75 0 0 1-12 5.29 10.39 10.39 0 0 1-3.27.49zm-8.5-21.95a4.9 4.9 0 0 0-3.73 1.35.89.89 0 0 0-.14 1l7.2 15.83c.76 1.68 4.66 2.83 8 1.74a62.78 62.78 0 0 0 11.7-5.16 42.24 42.24 0 0 0 8.89-6.71 1.53 1.53 0 0 0 .51-1.58c-.29-.86-1.58-1.88-3.83-2.22l-27.42-4.16a7.46 7.46 0 0 0-1.18-.09z" class="cls-2"/><ellipse cx="309.08" cy="185.08" class="cls-3" rx="64.33" ry="37.14"/><path d="M354.41 164.34c-25.12-14.5-65.85-14.5-91 0-11.45 6.61-17.67 15.1-18.68 23.75 1 8.64 7.23 17.13 18.68 23.74 25.12 14.5 65.85 14.5 91 0 11.45-6.61 17.67-15.1 18.68-23.74-1.01-8.65-7.23-17.09-18.68-23.75z" class="cls-4"/><path d="M309.08 223.2c-16.65 0-33.31-3.66-46-11-12.47-7.21-19.35-16.84-19.35-27.14s6.88-19.93 19.35-27.13c25.36-14.64 66.63-14.64 92 0 12.48 7.2 19.35 16.84 19.35 27.13s-6.87 19.93-19.35 27.14c-12.68 7.34-29.34 11-46 11zm0-74.25c-16.29 0-32.58 3.58-45 10.74-11.83 6.83-18.34 15.85-18.34 25.39s6.51 18.57 18.34 25.39c24.8 14.32 65.16 14.32 90 0 11.82-6.82 18.34-15.84 18.34-25.39s-6.52-18.56-18.34-25.39c-12.41-7.16-28.71-10.69-45-10.69z" class="cls-2"/><path d="M309.08 224.61c-19.34 0-38.69-4.25-53.41-12.75-14.39-8.3-22.31-19.38-22.31-31.2s7.92-22.89 22.31-31.2c29.45-17 77.38-17 106.83 0 14.38 8.31 22.31 19.39 22.31 31.2s-7.93 22.9-22.31 31.2c-14.73 8.5-34.08 12.75-53.42 12.75zm0-86.67c-19.12 0-38.23 4.2-52.79 12.61-14 8.07-21.68 18.76-21.68 30.11s7.7 22.05 21.68 30.12c29.11 16.81 76.47 16.81 105.58 0 14-8.07 21.69-18.77 21.69-30.12s-7.7-22-21.69-30.11c-14.55-8.41-33.67-12.61-52.79-12.61z" class="cls-3"/><path d="M296.56 196l-23.86 8.84c-3.38 1.26-3.79 4-.82 5.59a67.88 67.88 0 0 0 12.28 4.89 86.22 86.22 0 0 0 14.07 2.86c3.94.47 7.58-1.35 7.35-3.66L304 198.2c-.27-2.11-4.35-3.31-7.44-2.2z" class="cls-3"/><path d="M299.58 216.7a10.34 10.34 0 0 1-1.36-.08 87 87 0 0 1-14.22-2.89 68 68 0 0 1-12.42-4.95c-1.63-.85-2.52-2.13-2.43-3.5s1.32-2.8 3.34-3.55l23.86-8.84a8.31 8.31 0 0 1 6.84.52 3.18 3.18 0 0 1 1.63 2.32l1.63 16.35a3.22 3.22 0 0 1-1.07 2.65 8.44 8.44 0 0 1-5.8 1.97zm-.38-22.7a6.44 6.44 0 0 0-2.28.39l-23.86 8.84c-1.38.51-2.23 1.31-2.29 2.14s.53 1.43 1.57 2a67 67 0 0 0 12.13 4.83 85.81 85.81 0 0 0 13.94 2.8c2.28.28 4.7-.32 5.86-1.45a1.68 1.68 0 0 0 .59-1.33l-1.64-16.35a1.67 1.67 0 0 0-.88-1.11 6.24 6.24 0 0 0-3.14-.76z" class="cls-2"/><path d="M290.8 183.31l-21.94-10.37c-3.11-1.47-7.8-.84-9.45 1.28a23.48 23.48 0 0 0-4.26 8.25 19 19 0 0 0-.37 8.61c.44 2.31 4.56 3.74 8.31 2.9L289.5 188c3.42-.74 4.14-3.35 1.3-4.69z" class="cls-3"/><path d="M260.93 192.64a9.4 9.4 0 0 1-5-1.34 3.89 3.89 0 0 1-1.82-2.46 19.61 19.61 0 0 1 .38-9 24.27 24.27 0 0 1 4.4-8.54c1.89-2.42 7-3.15 10.43-1.51l21.94 10.37c1.54.73 2.35 1.87 2.21 3.13-.16 1.45-1.57 2.64-3.67 3.11l-26.42 5.95a10.85 10.85 0 0 1-2.45.29zm4.12-22.09c-2.05 0-4 .63-4.93 1.77a22.93 22.93 0 0 0-4.12 8 18.16 18.16 0 0 0-.35 8.25 2.45 2.45 0 0 0 1.12 1.42 8.61 8.61 0 0 0 6.22.84l26.41-5.94c1.59-.36 2.36-1.12 2.43-1.72s-.43-1.08-1.3-1.49l-21.93-10.4a8.39 8.39 0 0 0-3.55-.73z" class="cls-2"/><path d="M310 176.21L320.28 161c1.46-2.16-1-4.54-5-4.8a96.9 96.9 0 0 0-14.92.22 89 89 0 0 0-14.3 2.46c-3.66.95-4.75 3.66-2.21 5.45l18 12.67c2.27 1.6 6.79 1.19 8.15-.79z" class="cls-3"/><path d="M305.56 176.4a7.27 7.27 0 0 1-4.15-1.17l-18-12.67a3.43 3.43 0 0 1-1.68-3.41c.28-1.58 1.84-2.88 4.15-3.48a89.4 89.4 0 0 1 14.43-2.48 98.1 98.1 0 0 1 15-.22c2.8.18 5.06 1.33 5.88 3A2.93 2.93 0 0 1 321 159l-10.31 15.25a5.3 5.3 0 0 1-3.53 2 9 9 0 0 1-1.6.15zm3.71-22q-4.39 0-8.78.4a88.45 88.45 0 0 0-14.16 2.44c-1.67.43-2.81 1.28-3 2.21a2 2 0 0 0 1 1.81l17.95 12.66a6.29 6.29 0 0 0 4.57.75 3.79 3.79 0 0 0 2.49-1.29l10.3-15.25a1.35 1.35 0 0 0 .14-1.44c-.46-.93-2.05-1.94-4.55-2.1-1.94-.14-3.95-.2-5.96-.2z" class="cls-2"/><path d="M327.59 184.55l28.31.94c4 .14 7.17-2 6.35-4.24a25.44 25.44 0 0 0-5-8.12 39.64 39.64 0 0 0-8.47-7.09c-2.7-1.72-7.5-1.48-9.67.47l-15.32 13.78c-1.94 1.78.14 4.14 3.8 4.26z" class="cls-3"/><path d="M356.34 183.92H356l-28.3-.94c-2.52-.09-4.59-1.19-5.16-2.74a2.64 2.64 0 0 1 .88-2.93l15.32-13.78c2.45-2.2 7.62-2.47 10.64-.55a40.1 40.1 0 0 1 8.64 7.24 25.82 25.82 0 0 1 5.11 8.38 2.93 2.93 0 0 1-.45 2.82c-1.17 1.58-3.61 2.5-6.34 2.5zm-12-20.62a7.16 7.16 0 0 0-4.62 1.42l-15.27 13.78a1.07 1.07 0 0 0-.45 1.18c.29.78 1.65 1.61 3.7 1.68l28.31.94c2.66.11 4.63-.89 5.32-1.84a1.35 1.35 0 0 0 .24-1.32 24.79 24.79 0 0 0-4.8-7.87 38.73 38.73 0 0 0-8.3-6.94 7.89 7.89 0 0 0-4.09-1.03z" class="cls-2"/><path d="M319.3 196.8l7.19 15.83c1 2.25 5.46 3.33 8.95 2.18a63.58 63.58 0 0 0 11.85-5.23 42.63 42.63 0 0 0 9.06-6.85c2-2 .13-4.57-3.76-5.16l-27.43-4.15c-3.55-.54-6.79 1.33-5.86 3.38z" class="cls-3"/><path d="M332.5 213.69c-3 0-5.79-1.19-6.66-3.11l-7.19-15.84a2.47 2.47 0 0 1 .32-2.62c1.14-1.51 3.78-2.28 6.39-1.89l27.42 4.15c2.61.4 4.57 1.66 5.11 3.31a3 3 0 0 1-.89 3.22 43.78 43.78 0 0 1-9.23 7 64.75 64.75 0 0 1-12 5.29 10.39 10.39 0 0 1-3.27.49zm-8.5-21.95a4.9 4.9 0 0 0-3.73 1.35.89.89 0 0 0-.14 1l7.2 15.83c.76 1.68 4.66 2.83 8 1.74a62.78 62.78 0 0 0 11.7-5.16 42.24 42.24 0 0 0 8.89-6.71 1.53 1.53 0 0 0 .51-1.58c-.29-.86-1.58-1.88-3.83-2.22l-27.42-4.16a7.46 7.46 0 0 0-1.18-.09z" class="cls-2"/><path d="M313.57 184c2.56 1.48 2.56 3.88 0 5.36a10.27 10.27 0 0 1-9.29 0c-2.56-1.48-2.56-3.88 0-5.36a10.27 10.27 0 0 1 9.29 0z" class="cls-3"/><path d="M317.44 181.23a4.58 4.58 0 0 1-4.34.81c-1.59-.47-2.22-1.59-1.41-2.51s2.75-1.28 4.34-.81 2.22 1.59 1.41 2.51z" class="cls-2"/><path d="M314.63 180.9a6.14 6.14 0 0 1-1.65-.23 3 3 0 0 1-2.2-1.84 1.9 1.9 0 0 1 .46-1.82c1-1.12 3.21-1.57 5.07-1a3 3 0 0 1 2.2 1.84 1.88 1.88 0 0 1-.46 1.81 4.65 4.65 0 0 1-3.42 1.24zm0-3.73a3.38 3.38 0 0 0-2.37.78.52.52 0 0 0-.16.49c.08.25.45.64 1.25.87a3.9 3.9 0 0 0 3.61-.6.51.51 0 0 0 .17-.49c-.08-.26-.45-.64-1.25-.88a4.48 4.48 0 0 0-1.22-.17zM320.7 189.75c-1.76-.16-3-1.12-2.68-2.14s1.93-1.71 3.69-1.55 3 1.12 2.69 2.14-1.93 1.71-3.7 1.55z" class="cls-2"/><path d="M321.31 188.43h-.59a4.06 4.06 0 0 1-3-1.45 1.82 1.82 0 0 1-.29-1.57c.37-1.38 2.31-2.26 4.44-2.07a4.11 4.11 0 0 1 3 1.45 1.89 1.89 0 0 1 .29 1.57c-.34 1.22-1.95 2.07-3.85 2.07zm-.46-1.43c1.6.13 2.8-.51 2.95-1a.43.43 0 0 0-.09-.39 2.74 2.74 0 0 0-2-.85c-1.6-.14-2.8.5-3 1a.42.42 0 0 0 .09.4 2.72 2.72 0 0 0 2 .85zM307.67 194.17c-.28-1 .92-2 2.69-2.13s3.41.53 3.69 1.55-.92 2-2.68 2.13-3.37-.53-3.7-1.55z" class="cls-2"/><path d="M310.91 194.4c-1.9 0-3.5-.84-3.84-2.09a1.86 1.86 0 0 1 .29-1.57 4.06 4.06 0 0 1 3-1.45c2.14-.19 4.06.69 4.44 2.06a1.85 1.85 0 0 1-.29 1.57 4.1 4.1 0 0 1-3 1.46zm0-3.73h-.46a2.74 2.74 0 0 0-2 .85.45.45 0 0 0-.09.4c.14.53 1.35 1.18 2.95 1a2.74 2.74 0 0 0 2-.85.43.43 0 0 0 .09-.39c-.08-.43-1.07-1.01-2.4-1.01zM296.35 188.38c1.6-.46 3.54-.1 4.35.82s.18 2-1.41 2.51a4.58 4.58 0 0 1-4.35-.82c-.81-.89-.18-2.04 1.41-2.51z" class="cls-2"/><path d="M297.91 190.57a4.67 4.67 0 0 1-3.42-1.26 1.89 1.89 0 0 1-.45-1.82 3 3 0 0 1 2.19-1.83c1.86-.55 4.09-.1 5.08 1a1.92 1.92 0 0 1 .46 1.82 3 3 0 0 1-2.2 1.83 5.85 5.85 0 0 1-1.66.26zm-1.28-3.57c-.8.23-1.17.62-1.24.88 0 .05-.07.23.16.49a3.94 3.94 0 0 0 3.62.6c.8-.23 1.17-.62 1.24-.87 0-.06.07-.24-.16-.5a4 4 0 0 0-3.62-.6zM302.4 180.38a1.39 1.39 0 0 1 0 2.64 5 5 0 0 1-4.57 0c-1.27-.73-1.27-1.91 0-2.64a5 5 0 0 1 4.57 0z" class="cls-2"/><path d="M300.19 182.22a5.35 5.35 0 0 1-2.64-.64 2.08 2.08 0 0 1 0-3.86 5.79 5.79 0 0 1 5.28 0 2.08 2.08 0 0 1 0 3.86 5.35 5.35 0 0 1-2.64.64zm0-3.73a4 4 0 0 0-1.93.45c-.37.22-.6.48-.6.71s.23.49.6.71a4.36 4.36 0 0 0 3.86 0c.37-.22.6-.48.6-.71s-.23-.49-.6-.71a4 4 0 0 0-1.93-.45zM308.92 189.5a10.16 10.16 0 0 1-5-1.22 3.51 3.51 0 0 1 0-6.58 10.87 10.87 0 0 1 10 0 3.51 3.51 0 0 1 0 6.58 10.17 10.17 0 0 1-5 1.22zm0-7.61a8.84 8.84 0 0 0-4.29 1 2.15 2.15 0 0 0 0 4.14 9.49 9.49 0 0 0 8.59 0 2.15 2.15 0 0 0 0-4.14 8.85 8.85 0 0 0-4.3-1zM402.59 248.47v-10.93a62.33 62.33 0 0 0 9.67-11.06c6.45-10.65 5.21-18.72 5.21-18.72-1.27 9.62-6.37 18.81-14.85 27v-13.32l-12 9.49-18.52 10.74-19.5 6.33-17.76 2.44-17 1.58.08 13.13c-5.6.26-11.22.27-16.82 0V252l-19.33-1.22-16.49-4.7v13.95q-5.5-1.4-10.78-3.14v-13.17l-6.23-2.87v13.84a119.33 119.33 0 0 1-16.3-7.74c-18.14-10.48-29-24.48-31.22-39v2c.37 11 5.7 17.27 5.7 17.27l.36.65c5.53 7.69 13.66 14.74 24.12 20.78a120.35 120.35 0 0 0 17.32 8.16v11.52a118.16 118.16 0 0 1-16.3-7.74c-18.14-10.47-29-24.48-31.22-39v2c.37 11.44 5.7 17.27 5.7 17.27l.36.66c5.53 7.68 13.66 14.73 24.12 20.77a120.35 120.35 0 0 0 17.32 8.16v14.74l6.23 2.56v-14.99q5.26 1.73 10.78 3.09v16l35.83 6.07v-17.04c2.65.11 5.31.19 8 .19 3 0 6-.09 9-.23l.08 14.52 38.43-3L394.89 274l7.7-7.49v-15.27a62 62 0 0 0 9.67-11.06c6.3-10.49 5.21-18.72 5.21-18.72-1.3 9.63-6.4 18.82-14.88 27.01zm-148.14 22.16v-11.57q5.26 1.72 10.78 3.09v11.62q-5.5-1.39-10.78-3.14zm46.61 8.25v-11.7c2.65.11 5.31.18 8 .18 3 0 5.91-.08 8.86-.22l.09 11.7c-5.66.26-11.32.27-16.95.04z" class="cls-2"/><path d="M248.22 270.73c2 .78 4.12 1.5 6.23 2.19v-2.13c-2.11-.7-4.19-1.46-6.23-2.25zM248.22 257q3.06 1.17 6.23 2.2v-2.13c-2.11-.7-4.19-1.46-6.23-2.25zM265.23 276a180 180 0 0 0 35.83 5.06v-2a177.09 177.09 0 0 1-35.83-5.13zM265.23 262.32a180 180 0 0 0 35.83 5.06v-2a177.09 177.09 0 0 1-35.83-5.13zM318 279v2c25.24-1.18 49.91-7.31 69.17-18.43a87.87 87.87 0 0 0 15.43-11.17v-2.77a84.85 84.85 0 0 1-16.45 12.18c-19 11-43.3 17.05-68.15 18.19zM317.88 265.34v2c25.27-1.16 50-7.3 69.27-18.43a87.87 87.87 0 0 0 15.43-11.17V235a84.85 84.85 0 0 1-16.45 12.18c-19 10.94-43.34 16.99-68.25 18.16z" class="cls-3"/><path d="M416.28 235.05c-1.92 14.61-12.73 28.24-31 38.77-42.07 24.29-110.53 24.29-152.6 0-18-10.36-28.73-24.22-30.9-38.57v2a36.28 36.28 0 0 0 4.79 15.57l2.16 3.46c5.48 7.6 12.56 13.29 22.92 19.27C253 287.88 281 294 309 294s56-6.15 77.31-18.46c11-6.35 19.37-13.83 24.84-22a47.34 47.34 0 0 0 5.13-18.49z" class="cls-3"/><path d="M376.61 137.58c-39.1-18.37-95.71-18.37-134.82 0h-39.9l-1.07 48.57c0 16.77 12.3 32.5 32.71 44.28 20.86 12 48.27 18.07 75.67 18.07s54.81-6 75.68-18.07c20.4-11.78 32.33-27.51 32.33-44.28l-.69-48.57z" class="cls-2"/><path d="M377.85 128.9c-39.85-18.81-97.44-18.81-137.29 0l-40 7.18v41.43c0 16.05 10.61 32.1 31.82 44.34 42.42 24.49 111.19 24.49 153.61 0 21.21-12.24 31.81-28.29 31.81-44.34v-40.28z" class="cls-3"/><path d="M309.2 241.18c-28 0-56-6.15-77.31-18.46-20.84-12-32.32-28.09-32.32-45.21v-42.27l40.67-7.31c40-18.82 97.94-18.81 137.92 0l40.66 8.47v41.1c0 17.12-11.48 33.18-32.32 45.21-21.3 12.29-49.3 18.47-77.3 18.47zM201.59 136.92v40.59c0 16.38 11.12 31.81 31.31 43.47 42.07 24.29 110.53 24.29 152.61 0 20.19-11.66 31.31-27.09 31.31-43.47v-39.46l-39.4-8.24c-39.52-18.65-96.91-18.65-136.43 0l-.26.08z" class="cls-2"/><ellipse cx="309.2" cy="136.08" class="cls-3" rx="108.62" ry="62.71"/><path d="M386.12 97.73c21.49 12.41 32.09 28.72 31.81 45 0 1.6-.75 1.89-1 3.49-.18 1.19-.12 4.88-.12 4.88-3.23 12.93-13.46 25.39-30.7 35.34-42.42 24.49-111.19 24.49-153.61 0-17.65-10.18-27.95-23-30.92-36.27a26.15 26.15 0 0 0 0-2.83c-.28-1.57-.78-2-.86-3.54-.77-16.61 9.82-33.37 31.78-46 42.43-24.56 111.2-24.56 153.62-.07z" class="cls-4"/><ellipse cx="309.2" cy="130.19" class="cls-3" rx="100.08" ry="57.78"/><path d="M386.51 90.86a127.39 127.39 0 0 0-28.3-11.78c-30.36-9.77-67.67-9.77-98 0a127.49 127.49 0 0 0-28.29 11.77c-20.84 12-32.32 28.09-32.32 45.22s11.48 33.18 32.32 45.21c21.32 12.31 49.32 18.46 77.31 18.46s56-6.15 77.31-18.46c20.84-12 32.32-28.09 32.32-45.21s-11.51-33.18-32.35-45.21zm-6.43 2C341 70.3 277.63 70.3 238.55 92.86c-16.25 9.38-25.72 21.18-28.46 33.39 1.64-13.67 11.67-26.43 28.7-36.26 2.32-1.34 4.73-2.59 7.21-3.77 18.78-7.85 41-11.78 63.2-11.78s44.42 3.93 63.21 11.78c2.48 1.17 4.89 2.43 7.21 3.77 16.22 9.36 26.1 21.38 28.42 34.32-3.27-11.56-12.57-22.62-27.96-31.5zm5.43 86.74c-42.08 24.29-110.54 24.29-152.61 0-20.19-11.66-31.31-27.1-31.31-43.47 0-14.7 9-28.64 25.42-39.77-12.06 9.82-18.59 21.54-18.59 33.87a35.11 35.11 0 0 0 1.47 10c2.43 12.56 12 24.75 28.66 34.39 39.08 22.56 102.45 22.56 141.53 0 17.68-10.21 27.33-23.28 29-36.63a35.16 35.16 0 0 0 .89-7.72c0-12.33-6.53-24.05-18.6-33.87 16.44 11.13 25.43 25.07 25.43 39.77.02 16.28-11.1 31.72-31.29 43.38z" class="cls-2"/><path d="M332.62 160.27c-3 0-5.79-1.19-6.66-3.11l-7.19-15.84a2.48 2.48 0 0 1 .32-2.62c1.14-1.51 3.78-2.28 6.39-1.89l27.43 4.19c2.6.39 4.56 1.66 5.1 3.31a3.05 3.05 0 0 1-.89 3.22 43.42 43.42 0 0 1-9.23 7 64.11 64.11 0 0 1-12 5.3 10.39 10.39 0 0 1-3.27.44zm-8.52-22a4.85 4.85 0 0 0-3.72 1.36.88.88 0 0 0-.15 1l7.2 15.84c.76 1.68 4.66 2.83 8 1.74a62.78 62.78 0 0 0 11.7-5.16 42.58 42.58 0 0 0 8.89-6.71 1.54 1.54 0 0 0 .51-1.59c-.29-.86-1.58-1.88-3.82-2.22l-27.43-4.15a7.49 7.49 0 0 0-1.18-.07z" class="cls-2"/><ellipse cx="309.2" cy="131.66" class="cls-3" rx="64.33" ry="37.14"/><path d="M354.53 110.92c-25.12-14.5-65.85-14.5-91 0-11.45 6.61-17.67 15.09-18.68 23.74 1 8.65 7.23 17.14 18.68 23.75 25.12 14.5 65.85 14.5 91 0 11.45-6.62 17.67-15.1 18.68-23.75-1.01-8.66-7.21-17.13-18.68-23.74z" class="cls-4"/><path d="M309.2 169.77c-16.65 0-33.31-3.66-46-11-12.47-7.2-19.34-16.84-19.34-27.13s6.87-19.93 19.34-27.13c25.36-14.65 66.63-14.65 92 0 12.48 7.2 19.35 16.83 19.35 27.13s-6.87 19.93-19.35 27.13c-12.68 7.34-29.34 11-46 11zm0-74.24c-16.29 0-32.58 3.58-45 10.74-11.83 6.83-18.34 15.84-18.34 25.39s6.51 18.56 18.34 25.39c24.81 14.32 65.16 14.32 90 0 11.82-6.83 18.34-15.84 18.34-25.39s-6.54-18.56-18.35-25.39c-12.4-7.16-28.7-10.74-44.99-10.74z" class="cls-2"/><path d="M309.2 171.19c-19.34 0-38.69-4.25-53.41-12.75-14.39-8.31-22.31-19.39-22.31-31.2s7.92-22.89 22.31-31.2c29.45-17 77.38-17 106.83 0 14.38 8.31 22.31 19.39 22.31 31.2s-7.93 22.89-22.31 31.2c-14.73 8.5-34.08 12.75-53.42 12.75zm0-86.67c-19.12 0-38.23 4.2-52.79 12.6-14 8.08-21.68 18.77-21.68 30.12s7.7 22 21.68 30.12c29.11 16.81 76.47 16.8 105.58 0 14-8.07 21.69-18.77 21.69-30.12S376 105.2 362 97.12c-14.56-8.4-33.68-12.6-52.8-12.6z" class="cls-3"/><path d="M402.71 195.05v-10.93a62 62 0 0 0 9.67-11.07c6.45-10.64 5.21-18.71 5.21-18.71-1.27 9.63-6.37 18.82-14.85 27V168l-12 9.49-18.52 10.74-19.88 5.38L335 197l-17 1.58.08 13.13c-5.6.26-11.22.27-16.82 0v-13.09l-19.33-1.23-16.49-4.69v14q-5.5-1.4-10.78-3.14V190.3l-6.23-2.88v13.84a118.12 118.12 0 0 1-16.3-7.73c-18.14-10.48-29-24.48-31.22-39v2c.37 11 5.7 17.27 5.7 17.27l.36.66c5.53 7.69 13.66 14.73 24.12 20.78a120.35 120.35 0 0 0 17.32 8.16V215a118.12 118.12 0 0 1-16.3-7.73c-18.14-10.48-29-24.48-31.22-39v2c.37 11.45 5.7 17.27 5.7 17.27l.36.66c5.48 7.7 13.61 14.8 24.05 20.8a120.35 120.35 0 0 0 17.32 8.16v14.73l6.23 2.57v-15.12q5.26 1.72 10.78 3.09v16l35.83 6.06v-17c2.65.11 5.31.18 8 .18 3 0 6-.08 9-.22l.08 14.52 38.43-3.05L395 220.57l7.7-7.49v-15.26a62.33 62.33 0 0 0 9.67-11.06c6.3-10.49 5.21-18.72 5.21-18.72-1.29 9.63-6.39 18.82-14.87 27.01zm-148.14 22.16v-11.58c3.51 1.16 7.11 2.18 10.78 3.1v11.62q-5.5-1.35-10.78-3.14zm46.61 8.24v-11.69c2.65.11 5.31.18 8 .18 3 0 5.91-.08 8.86-.22l.09 11.69c-5.66.27-11.32.28-16.95.04z" class="cls-2"/><path d="M248.34 217.3c2 .78 4.12 1.5 6.23 2.2v-2.13q-3.16-1.06-6.23-2.25zM248.34 203.6c2 .78 4.12 1.5 6.23 2.2v-2.13q-3.16-1.06-6.23-2.26zM265.35 222.6a180.13 180.13 0 0 0 35.83 5.05v-2a178.51 178.51 0 0 1-35.83-5.13zM265.35 208.9a180 180 0 0 0 35.83 5v-2a177.09 177.09 0 0 1-35.83-5.13zM318.1 225.61v2c25.24-1.18 49.91-7.31 69.17-18.43A87.87 87.87 0 0 0 402.71 198v-2.78a84 84 0 0 1-16.45 12.18c-18.99 10.99-43.26 17.04-68.16 18.21zM318 211.91v2c25.27-1.17 50-7.3 69.27-18.44a87.84 87.84 0 0 0 15.43-11.16v-2.78a84.44 84.44 0 0 1-16.45 12.18c-19 10.99-43.34 17.04-68.25 18.2z" class="cls-3"/><path d="M416.4 181.63c-1.92 14.61-12.73 28.23-31 38.77-42.07 24.29-110.53 24.29-152.6 0-18-10.37-28.73-24.22-30.89-38.57v2a36.28 36.28 0 0 0 4.79 15.57l2.16 3.45c5.48 7.61 12.56 13.3 22.92 19.28 21.32 12.31 49.31 18.46 77.31 18.46s56-6.15 77.31-18.46c11-6.35 19.37-13.84 24.84-22a47.34 47.34 0 0 0 5.16-18.5z" class="cls-3"/><path d="M230.45 358.63c.56.32.56.84 0 1.17a2.22 2.22 0 0 1-2 0c-.56-.33-.56-.85 0-1.17a2.22 2.22 0 0 1 2 0z" class="cls-2"/><ellipse cx="224.17" cy="356.16" class="cls-2" rx="1.43" ry=".82"/><path d="M219.9 352.53a.62.62 0 0 1 0 1.17 2.25 2.25 0 0 1-2 0c-.56-.32-.56-.84 0-1.17a2.25 2.25 0 0 1 2 0zM251.78 370.34a.61.61 0 0 1 0 1.16 2.25 2.25 0 0 1-2 0 .61.61 0 0 1 0-1.16 2.18 2.18 0 0 1 2 0zM246.5 367.29a.61.61 0 0 1 0 1.16 2.25 2.25 0 0 1-2 0 .61.61 0 0 1 0-1.16 2.25 2.25 0 0 1 2 0zM241.22 364.24a.61.61 0 0 1 0 1.16 2.18 2.18 0 0 1-2 0 .61.61 0 0 1 0-1.16 2.25 2.25 0 0 1 2 0z" class="cls-2"/><ellipse cx="234.93" cy="361.77" class="cls-2" rx="1.43" ry=".82"/><path d="M235.78 355.61a.61.61 0 0 1 0 1.16 2.18 2.18 0 0 1-2 0 .61.61 0 0 1 0-1.16 2.25 2.25 0 0 1 2 0z" class="cls-2"/><ellipse cx="240.05" cy="353.14" class="cls-2" rx="1.43" ry=".82"/><ellipse cx="245.33" cy="350.09" class="cls-2" rx="1.43" ry=".82"/><path d="M251.62 346.46a.62.62 0 0 1 0 1.17 2.25 2.25 0 0 1-2 0 .62.62 0 0 1 0-1.17 2.25 2.25 0 0 1 2 0zM228.47 352.56a2.25 2.25 0 0 1 2 0c.56.32.56.84 0 1.17a2.22 2.22 0 0 1-2 0 .62.62 0 0 1 0-1.17zM235.78 349.51a.62.62 0 0 1 0 1.17 2.25 2.25 0 0 1-2 0c-.56-.33-.56-.85 0-1.17a2.25 2.25 0 0 1 2 0zM241.06 346.46a.62.62 0 0 1 0 1.17 2.25 2.25 0 0 1-2 0 .62.62 0 0 1 0-1.17 2.25 2.25 0 0 1 2 0zM246.34 343.41a.62.62 0 0 1 0 1.17 2.25 2.25 0 0 1-2 0c-.56-.32-.56-.84 0-1.17a2.25 2.25 0 0 1 2 0zM223.19 349.51a2.25 2.25 0 0 1 2 0 .62.62 0 0 1 0 1.17 2.22 2.22 0 0 1-2 0 .62.62 0 0 1 0-1.17zM230.5 346.46a.62.62 0 0 1 0 1.17 2.25 2.25 0 0 1-2 0 .62.62 0 0 1 0-1.17 2.25 2.25 0 0 1 2 0zM235.78 343.41c.56.33.56.85 0 1.17a2.25 2.25 0 0 1-2 0c-.56-.32-.56-.84 0-1.17a2.25 2.25 0 0 1 2 0zM241.06 340.37a.61.61 0 0 1 0 1.16 2.25 2.25 0 0 1-2 0 .61.61 0 0 1 0-1.16 2.18 2.18 0 0 1 2 0zM217.91 346.47a2.21 2.21 0 0 1 2 0c.56.33.56.85 0 1.17a2.25 2.25 0 0 1-2 0 .61.61 0 0 1 0-1.17zM225.22 343.41c.56.33.56.85 0 1.17a2.25 2.25 0 0 1-2 0c-.56-.32-.56-.84 0-1.17a2.25 2.25 0 0 1 2 0zM230.5 340.37a.61.61 0 0 1 0 1.16 2.25 2.25 0 0 1-2 0 .61.61 0 0 1 0-1.16 2.18 2.18 0 0 1 2 0zM235.78 337.32a.61.61 0 0 1 0 1.16 2.18 2.18 0 0 1-2 0 .61.61 0 0 1 0-1.16 2.25 2.25 0 0 1 2 0zM212.63 343.42a2.21 2.21 0 0 1 2 0 .61.61 0 0 1 0 1.16 2.21 2.21 0 0 1-2 0 .61.61 0 0 1 0-1.16zM219.94 340.37a.61.61 0 0 1 0 1.16 2.25 2.25 0 0 1-2 0 .61.61 0 0 1 0-1.16 2.18 2.18 0 0 1 2 0z" class="cls-2"/><ellipse cx="224.21" cy="337.9" class="cls-2" rx="1.43" ry=".82"/><path d="M230.5 334.27c.56.32.56.84 0 1.17a2.25 2.25 0 0 1-2 0c-.56-.33-.56-.85 0-1.17a2.25 2.25 0 0 1 2 0zM207.31 340.34a2.21 2.21 0 0 1 2 0 .61.61 0 0 1 0 1.16 2.21 2.21 0 0 1-2 0 .61.61 0 0 1 0-1.16z" class="cls-2"/><ellipse cx="213.6" cy="337.87" class="cls-2" rx="1.43" ry=".82"/><path d="M219.89 334.24a.61.61 0 0 1 0 1.16 2.18 2.18 0 0 1-2 0 .61.61 0 0 1 0-1.16 2.25 2.25 0 0 1 2 0zM225.17 331.19c.56.32.56.84 0 1.17a2.25 2.25 0 0 1-2 0 .62.62 0 0 1 0-1.17 2.25 2.25 0 0 1 2 0zM209.33 334.24a.61.61 0 0 1 0 1.16 2.18 2.18 0 0 1-2 0 .61.61 0 0 1 0-1.16 2.25 2.25 0 0 1 2 0zM214.61 331.19c.56.32.56.84 0 1.17a2.25 2.25 0 0 1-2 0 .62.62 0 0 1 0-1.17 2.25 2.25 0 0 1 2 0zM219.89 328.14c.56.32.56.84 0 1.17a2.25 2.25 0 0 1-2 0 .62.62 0 0 1 0-1.17 2.25 2.25 0 0 1 2 0zM204.05 331.19c.56.32.56.84 0 1.17a2.25 2.25 0 0 1-2 0 .62.62 0 0 1 0-1.17 2.25 2.25 0 0 1 2 0zM209.33 328.14c.56.32.56.84 0 1.17a2.25 2.25 0 0 1-2 0 .62.62 0 0 1 0-1.17 2.25 2.25 0 0 1 2 0zM214.61 325.09a.62.62 0 0 1 0 1.17 2.25 2.25 0 0 1-2 0 .62.62 0 0 1 0-1.17 2.25 2.25 0 0 1 2 0zM204.05 325.09a.62.62 0 0 1 0 1.17 2.25 2.25 0 0 1-2 0 .62.62 0 0 1 0-1.17 2.25 2.25 0 0 1 2 0zM209.33 322c.56.33.56.85 0 1.17a2.25 2.25 0 0 1-2 0 .62.62 0 0 1 0-1.17 2.25 2.25 0 0 1 2 0zM198.77 322c.56.33.56.85 0 1.17a2.25 2.25 0 0 1-2 0 .62.62 0 0 1 0-1.17 2.25 2.25 0 0 1 2 0zM204.05 319a.61.61 0 0 1 0 1.16 2.25 2.25 0 0 1-2 0 .61.61 0 0 1 0-1.16 2.18 2.18 0 0 1 2 0zM209.33 316a.61.61 0 0 1 0 1.16 2.18 2.18 0 0 1-2 0 .61.61 0 0 1 0-1.16 2.25 2.25 0 0 1 2 0zM198.77 316a.61.61 0 0 1 0 1.16 2.18 2.18 0 0 1-2 0 .61.61 0 0 1 0-1.16 2.25 2.25 0 0 1 2 0zM204.05 312.9c.56.32.56.84 0 1.17a2.25 2.25 0 0 1-2 0 .62.62 0 0 1 0-1.17 2.25 2.25 0 0 1 2 0zM198.77 309.85a.62.62 0 0 1 0 1.17 2.25 2.25 0 0 1-2 0 .62.62 0 0 1 0-1.17 2.25 2.25 0 0 1 2 0zM204.05 306.8c.56.33.56.85 0 1.17a2.25 2.25 0 0 1-2 0 .62.62 0 0 1 0-1.17 2.25 2.25 0 0 1 2 0zM198.77 303.75c.56.33.56.85 0 1.17a2.25 2.25 0 0 1-2 0 .62.62 0 0 1 0-1.17 2.25 2.25 0 0 1 2 0zM204.05 300.71a.61.61 0 0 1 0 1.16 2.25 2.25 0 0 1-2 0 .61.61 0 0 1 0-1.16 2.18 2.18 0 0 1 2 0zM378.63 370.42c.56.33.56.85 0 1.17a2.25 2.25 0 0 1-2 0c-.56-.32-.56-.84 0-1.17a2.25 2.25 0 0 1 2 0zM383.91 367.38a.61.61 0 0 1 0 1.16 2.25 2.25 0 0 1-2 0 .61.61 0 0 1 0-1.16 2.18 2.18 0 0 1 2 0zM389.19 364.33a.61.61 0 0 1 0 1.16 2.18 2.18 0 0 1-2 0 .61.61 0 0 1 0-1.16 2.25 2.25 0 0 1 2 0zM394.47 361.28c.56.32.56.84 0 1.17a2.25 2.25 0 0 1-2 0c-.56-.33-.56-.85 0-1.17a2.25 2.25 0 0 1 2 0zM399.75 358.23a.62.62 0 0 1 0 1.17 2.25 2.25 0 0 1-2 0 .62.62 0 0 1 0-1.17 2.25 2.25 0 0 1 2 0zM357.51 376.52a.62.62 0 0 1 0 1.17 2.25 2.25 0 0 1-2 0 .62.62 0 0 1 0-1.17 2.25 2.25 0 0 1 2 0zM362.79 373.47c.56.33.56.85 0 1.17a2.25 2.25 0 0 1-2 0c-.56-.32-.56-.84 0-1.17a2.25 2.25 0 0 1 2 0zM368.07 370.42c.56.33.56.85 0 1.17a2.25 2.25 0 0 1-2 0c-.56-.32-.56-.84 0-1.17a2.25 2.25 0 0 1 2 0zM373.35 367.38a.61.61 0 0 1 0 1.16 2.25 2.25 0 0 1-2 0 .61.61 0 0 1 0-1.16 2.18 2.18 0 0 1 2 0zM378.63 364.33a.61.61 0 0 1 0 1.16 2.18 2.18 0 0 1-2 0 .61.61 0 0 1 0-1.16 2.25 2.25 0 0 1 2 0zM383.91 361.28c.56.32.56.84 0 1.17a2.25 2.25 0 0 1-2 0c-.56-.33-.56-.85 0-1.17a2.25 2.25 0 0 1 2 0zM389.19 358.23a.62.62 0 0 1 0 1.17 2.25 2.25 0 0 1-2 0 .62.62 0 0 1 0-1.17 2.25 2.25 0 0 1 2 0zM394.47 355.18c.56.33.56.85 0 1.17a2.25 2.25 0 0 1-2 0c-.56-.32-.56-.84 0-1.17a2.25 2.25 0 0 1 2 0zM341.67 379.57c.56.32.56.84 0 1.17a2.25 2.25 0 0 1-2 0c-.56-.33-.56-.85 0-1.17a2.25 2.25 0 0 1 2 0zM347 376.52a.62.62 0 0 1 0 1.17 2.25 2.25 0 0 1-2 0 .62.62 0 0 1 0-1.17 2.25 2.25 0 0 1 2 0zM352.23 373.47c.56.33.56.85 0 1.17a2.25 2.25 0 0 1-2 0c-.56-.32-.56-.84 0-1.17a2.25 2.25 0 0 1 2 0zM357.51 370.42c.56.33.56.85 0 1.17a2.25 2.25 0 0 1-2 0c-.56-.32-.56-.84 0-1.17a2.25 2.25 0 0 1 2 0zM362.79 367.38a.61.61 0 0 1 0 1.16 2.25 2.25 0 0 1-2 0 .61.61 0 0 1 0-1.16 2.18 2.18 0 0 1 2 0zM368.07 364.33a.61.61 0 0 1 0 1.16 2.18 2.18 0 0 1-2 0 .61.61 0 0 1 0-1.16 2.25 2.25 0 0 1 2 0zM373.35 361.28c.56.32.56.84 0 1.17a2.25 2.25 0 0 1-2 0c-.56-.33-.56-.85 0-1.17a2.25 2.25 0 0 1 2 0zM378.63 358.23a.62.62 0 0 1 0 1.17 2.25 2.25 0 0 1-2 0 .62.62 0 0 1 0-1.17 2.25 2.25 0 0 1 2 0zM383.91 355.18c.56.33.56.85 0 1.17a2.25 2.25 0 0 1-2 0c-.56-.32-.56-.84 0-1.17a2.25 2.25 0 0 1 2 0zM389.19 352.14a.61.61 0 0 1 0 1.16 2.25 2.25 0 0 1-2 0 .61.61 0 0 1 0-1.16 2.18 2.18 0 0 1 2 0zM331.11 379.57c.56.32.56.84 0 1.17a2.25 2.25 0 0 1-2 0c-.56-.33-.56-.85 0-1.17a2.25 2.25 0 0 1 2 0zM336.39 376.52a.62.62 0 0 1 0 1.17 2.25 2.25 0 0 1-2 0 .62.62 0 0 1 0-1.17 2.25 2.25 0 0 1 2 0zM341.67 373.47c.56.33.56.85 0 1.17a2.25 2.25 0 0 1-2 0c-.56-.32-.56-.84 0-1.17a2.25 2.25 0 0 1 2 0zM347 370.42c.56.33.56.85 0 1.17a2.25 2.25 0 0 1-2 0c-.56-.32-.56-.84 0-1.17a2.25 2.25 0 0 1 2 0zM352.23 367.38a.61.61 0 0 1 0 1.16 2.25 2.25 0 0 1-2 0 .61.61 0 0 1 0-1.16 2.18 2.18 0 0 1 2 0zM357.51 364.33a.61.61 0 0 1 0 1.16 2.18 2.18 0 0 1-2 0 .61.61 0 0 1 0-1.16 2.25 2.25 0 0 1 2 0zM362.79 361.28c.56.32.56.84 0 1.17a2.25 2.25 0 0 1-2 0c-.56-.33-.56-.85 0-1.17a2.25 2.25 0 0 1 2 0zM368.07 358.23a.62.62 0 0 1 0 1.17 2.25 2.25 0 0 1-2 0 .62.62 0 0 1 0-1.17 2.25 2.25 0 0 1 2 0zM373.35 355.18c.56.33.56.85 0 1.17a2.25 2.25 0 0 1-2 0c-.56-.32-.56-.84 0-1.17a2.25 2.25 0 0 1 2 0zM378.63 352.14a.61.61 0 0 1 0 1.16 2.25 2.25 0 0 1-2 0 .61.61 0 0 1 0-1.16 2.18 2.18 0 0 1 2 0zM383.91 349.09a.61.61 0 0 1 0 1.16 2.25 2.25 0 0 1-2 0 .61.61 0 0 1 0-1.16 2.25 2.25 0 0 1 2 0zM320.51 379.54a.61.61 0 0 1 0 1.16 2.18 2.18 0 0 1-2 0 .61.61 0 0 1 0-1.16 2.25 2.25 0 0 1 2 0zM325.79 376.49a.62.62 0 0 1 0 1.17 2.25 2.25 0 0 1-2 0c-.56-.33-.56-.85 0-1.17a2.25 2.25 0 0 1 2 0zM331.07 373.44a.62.62 0 0 1 0 1.17 2.25 2.25 0 0 1-2 0 .62.62 0 0 1 0-1.17 2.25 2.25 0 0 1 2 0zM336.35 370.39a.62.62 0 0 1 0 1.17 2.25 2.25 0 0 1-2 0 .62.62 0 0 1 0-1.17 2.25 2.25 0 0 1 2 0zM341.62 367.34c.56.33.56.85 0 1.17a2.22 2.22 0 0 1-2 0c-.56-.32-.56-.84 0-1.17a2.22 2.22 0 0 1 2 0zM346.9 364.3a.61.61 0 0 1 0 1.16 2.22 2.22 0 0 1-2 0 .61.61 0 0 1 0-1.16 2.16 2.16 0 0 1 2 0zM352.18 361.25a.61.61 0 0 1 0 1.16 2.16 2.16 0 0 1-2 0 .61.61 0 0 1 0-1.16 2.22 2.22 0 0 1 2 0zM357.46 358.2c.56.32.56.84 0 1.17a2.25 2.25 0 0 1-2 0 .62.62 0 0 1 0-1.17 2.25 2.25 0 0 1 2 0zM362.74 355.15a.62.62 0 0 1 0 1.17 2.25 2.25 0 0 1-2 0 .62.62 0 0 1 0-1.17 2.25 2.25 0 0 1 2 0zM368 352.1c.56.33.56.85 0 1.17a2.25 2.25 0 0 1-2 0 .62.62 0 0 1 0-1.17 2.25 2.25 0 0 1 2 0zM373.3 349.05c.56.33.56.85 0 1.17a2.25 2.25 0 0 1-2 0 .62.62 0 0 1 0-1.17 2.25 2.25 0 0 1 2 0zM378.58 346a.61.61 0 0 1 0 1.16 2.25 2.25 0 0 1-2 0 .61.61 0 0 1 0-1.16 2.18 2.18 0 0 1 2 0zM310 379.54a.61.61 0 0 1 0 1.16 2.18 2.18 0 0 1-2 0 .61.61 0 0 1 0-1.16 2.25 2.25 0 0 1 2 0zM315.23 376.49a.62.62 0 0 1 0 1.17 2.25 2.25 0 0 1-2 0c-.56-.33-.56-.85 0-1.17a2.25 2.25 0 0 1 2 0zM320.51 373.44a.62.62 0 0 1 0 1.17 2.25 2.25 0 0 1-2 0 .62.62 0 0 1 0-1.17 2.25 2.25 0 0 1 2 0zM325.79 370.39a.62.62 0 0 1 0 1.17 2.25 2.25 0 0 1-2 0 .62.62 0 0 1 0-1.17 2.25 2.25 0 0 1 2 0zM331.07 367.34a.62.62 0 0 1 0 1.17 2.25 2.25 0 0 1-2 0c-.56-.32-.56-.84 0-1.17a2.25 2.25 0 0 1 2 0zM336.35 364.3a.61.61 0 0 1 0 1.16 2.25 2.25 0 0 1-2 0 .61.61 0 0 1 0-1.16 2.18 2.18 0 0 1 2 0zM341.62 361.25a.61.61 0 0 1 0 1.16 2.16 2.16 0 0 1-2 0 .61.61 0 0 1 0-1.16 2.22 2.22 0 0 1 2 0zM346.9 358.2c.56.32.56.84 0 1.17a2.22 2.22 0 0 1-2 0c-.56-.33-.56-.85 0-1.17a2.22 2.22 0 0 1 2 0zM352.18 355.15a.62.62 0 0 1 0 1.17 2.22 2.22 0 0 1-2 0 .62.62 0 0 1 0-1.17 2.22 2.22 0 0 1 2 0zM357.46 352.1c.56.33.56.85 0 1.17a2.25 2.25 0 0 1-2 0 .62.62 0 0 1 0-1.17 2.25 2.25 0 0 1 2 0zM362.74 349.05c.56.33.56.85 0 1.17a2.25 2.25 0 0 1-2 0 .62.62 0 0 1 0-1.17 2.25 2.25 0 0 1 2 0zM368 346a.61.61 0 0 1 0 1.16 2.25 2.25 0 0 1-2 0 .61.61 0 0 1 0-1.16 2.18 2.18 0 0 1 2 0z" class="cls-2"/><ellipse cx="372.29" cy="343.54" class="cls-2" rx="1.43" ry=".82"/><path d="M299.39 379.54a.61.61 0 0 1 0 1.16 2.18 2.18 0 0 1-2 0 .61.61 0 0 1 0-1.16 2.25 2.25 0 0 1 2 0zM304.67 376.49a.62.62 0 0 1 0 1.17 2.25 2.25 0 0 1-2 0c-.56-.33-.56-.85 0-1.17a2.25 2.25 0 0 1 2 0zM310 373.44a.62.62 0 0 1 0 1.17 2.25 2.25 0 0 1-2 0 .62.62 0 0 1 0-1.17 2.25 2.25 0 0 1 2 0zM315.23 370.39a.62.62 0 0 1 0 1.17 2.25 2.25 0 0 1-2 0 .62.62 0 0 1 0-1.17 2.25 2.25 0 0 1 2 0zM320.51 367.34a.62.62 0 0 1 0 1.17 2.25 2.25 0 0 1-2 0c-.56-.32-.56-.84 0-1.17a2.25 2.25 0 0 1 2 0zM325.79 364.3a.61.61 0 0 1 0 1.16 2.25 2.25 0 0 1-2 0 .61.61 0 0 1 0-1.16 2.18 2.18 0 0 1 2 0zM331.07 361.25a.61.61 0 0 1 0 1.16 2.18 2.18 0 0 1-2 0 .61.61 0 0 1 0-1.16 2.25 2.25 0 0 1 2 0zM336.35 358.2a.62.62 0 0 1 0 1.17 2.25 2.25 0 0 1-2 0c-.56-.33-.56-.85 0-1.17a2.25 2.25 0 0 1 2 0zM341.62 355.15a.62.62 0 0 1 0 1.17 2.22 2.22 0 0 1-2 0 .62.62 0 0 1 0-1.17 2.22 2.22 0 0 1 2 0zM346.9 352.1c.56.33.56.85 0 1.17a2.22 2.22 0 0 1-2 0c-.56-.32-.56-.84 0-1.17a2.22 2.22 0 0 1 2 0zM352.18 349.05c.56.33.56.85 0 1.17a2.22 2.22 0 0 1-2 0c-.56-.32-.56-.84 0-1.17a2.22 2.22 0 0 1 2 0z" class="cls-2"/><ellipse cx="287.82" cy="380.12" class="cls-2" rx="1.43" ry=".82"/><path d="M294.11 376.49a.62.62 0 0 1 0 1.17 2.25 2.25 0 0 1-2 0c-.56-.33-.56-.85 0-1.17a2.25 2.25 0 0 1 2 0zM299.39 373.44a.62.62 0 0 1 0 1.17 2.25 2.25 0 0 1-2 0 .62.62 0 0 1 0-1.17 2.25 2.25 0 0 1 2 0zM304.67 370.39a.62.62 0 0 1 0 1.17 2.25 2.25 0 0 1-2 0 .62.62 0 0 1 0-1.17 2.25 2.25 0 0 1 2 0zM310 367.34a.62.62 0 0 1 0 1.17 2.25 2.25 0 0 1-2 0c-.56-.32-.56-.84 0-1.17a2.25 2.25 0 0 1 2 0zM315.23 364.3a.61.61 0 0 1 0 1.16 2.25 2.25 0 0 1-2 0 .61.61 0 0 1 0-1.16 2.18 2.18 0 0 1 2 0zM320.51 361.25a.61.61 0 0 1 0 1.16 2.18 2.18 0 0 1-2 0 .61.61 0 0 1 0-1.16 2.25 2.25 0 0 1 2 0zM325.79 358.2a.62.62 0 0 1 0 1.17 2.25 2.25 0 0 1-2 0c-.56-.33-.56-.85 0-1.17a2.25 2.25 0 0 1 2 0zM331.07 355.15a.62.62 0 0 1 0 1.17 2.25 2.25 0 0 1-2 0 .62.62 0 0 1 0-1.17 2.25 2.25 0 0 1 2 0zM336.35 352.1a.62.62 0 0 1 0 1.17 2.25 2.25 0 0 1-2 0c-.56-.32-.56-.84 0-1.17a2.25 2.25 0 0 1 2 0zM283.55 376.49c.56.32.56.84 0 1.17a2.25 2.25 0 0 1-2 0c-.56-.33-.56-.85 0-1.17a2.25 2.25 0 0 1 2 0zM288.83 373.44a.62.62 0 0 1 0 1.17 2.25 2.25 0 0 1-2 0 .62.62 0 0 1 0-1.17 2.25 2.25 0 0 1 2 0zM294.11 370.39a.62.62 0 0 1 0 1.17 2.25 2.25 0 0 1-2 0 .62.62 0 0 1 0-1.17 2.25 2.25 0 0 1 2 0zM299.39 367.34a.62.62 0 0 1 0 1.17 2.25 2.25 0 0 1-2 0c-.56-.32-.56-.84 0-1.17a2.25 2.25 0 0 1 2 0zM304.67 364.3a.61.61 0 0 1 0 1.16 2.25 2.25 0 0 1-2 0 .61.61 0 0 1 0-1.16 2.18 2.18 0 0 1 2 0zM310 361.25a.61.61 0 0 1 0 1.16 2.18 2.18 0 0 1-2 0 .61.61 0 0 1 0-1.16 2.25 2.25 0 0 1 2 0zM315.23 358.2a.62.62 0 0 1 0 1.17 2.25 2.25 0 0 1-2 0c-.56-.33-.56-.85 0-1.17a2.25 2.25 0 0 1 2 0zM320.51 355.15a.62.62 0 0 1 0 1.17 2.25 2.25 0 0 1-2 0 .62.62 0 0 1 0-1.17 2.25 2.25 0 0 1 2 0zM271 376.49a2.25 2.25 0 0 1 2 0c.56.32.56.84 0 1.17a2.22 2.22 0 0 1-2 0 .62.62 0 0 1 0-1.17zM278.27 373.44a.62.62 0 0 1 0 1.17 2.25 2.25 0 0 1-2 0 .62.62 0 0 1 0-1.17 2.25 2.25 0 0 1 2 0zM283.55 370.39a.62.62 0 0 1 0 1.17 2.25 2.25 0 0 1-2 0 .62.62 0 0 1 0-1.17 2.25 2.25 0 0 1 2 0zM288.83 367.34a.62.62 0 0 1 0 1.17 2.25 2.25 0 0 1-2 0c-.56-.32-.56-.84 0-1.17a2.25 2.25 0 0 1 2 0zM294.11 364.3a.61.61 0 0 1 0 1.16 2.25 2.25 0 0 1-2 0 .61.61 0 0 1 0-1.16 2.18 2.18 0 0 1 2 0zM299.39 361.25a.61.61 0 0 1 0 1.16 2.18 2.18 0 0 1-2 0 .61.61 0 0 1 0-1.16 2.25 2.25 0 0 1 2 0zM304.67 358.2a.62.62 0 0 1 0 1.17 2.25 2.25 0 0 1-2 0c-.56-.33-.56-.85 0-1.17a2.25 2.25 0 0 1 2 0zM310 355.15a.62.62 0 0 1 0 1.17 2.25 2.25 0 0 1-2 0 .62.62 0 0 1 0-1.17 2.25 2.25 0 0 1 2 0zM265.68 373.45a2.21 2.21 0 0 1 2 0 .62.62 0 0 1 0 1.17 2.25 2.25 0 0 1-2 0 .61.61 0 0 1 0-1.17zM273 370.39a.62.62 0 0 1 0 1.17 2.25 2.25 0 0 1-2 0 .62.62 0 0 1 0-1.17 2.25 2.25 0 0 1 2 0zM278.27 367.34c.56.33.56.85 0 1.17a2.25 2.25 0 0 1-2 0c-.56-.32-.56-.84 0-1.17a2.25 2.25 0 0 1 2 0zM283.55 364.3a.61.61 0 0 1 0 1.16 2.25 2.25 0 0 1-2 0 .61.61 0 0 1 0-1.16 2.18 2.18 0 0 1 2 0zM288.83 361.25a.61.61 0 0 1 0 1.16 2.18 2.18 0 0 1-2 0 .61.61 0 0 1 0-1.16 2.25 2.25 0 0 1 2 0zM294.11 358.2a.62.62 0 0 1 0 1.17 2.25 2.25 0 0 1-2 0c-.56-.33-.56-.85 0-1.17a2.25 2.25 0 0 1 2 0zM299.39 355.15a.62.62 0 0 1 0 1.17 2.25 2.25 0 0 1-2 0 .62.62 0 0 1 0-1.17 2.25 2.25 0 0 1 2 0zM260.4 370.4a2.21 2.21 0 0 1 2 0c.56.33.56.85 0 1.17a2.25 2.25 0 0 1-2 0 .61.61 0 0 1 0-1.17zM267.71 367.34c.56.33.56.85 0 1.17a2.25 2.25 0 0 1-2 0c-.56-.32-.56-.84 0-1.17a2.25 2.25 0 0 1 2 0zM273 364.3a.61.61 0 0 1 0 1.16 2.25 2.25 0 0 1-2 0 .61.61 0 0 1 0-1.16 2.18 2.18 0 0 1 2 0zM278.27 361.25a.61.61 0 0 1 0 1.16 2.18 2.18 0 0 1-2 0 .61.61 0 0 1 0-1.16 2.25 2.25 0 0 1 2 0zM283.55 358.2c.56.32.56.84 0 1.17a2.25 2.25 0 0 1-2 0c-.56-.33-.56-.85 0-1.17a2.25 2.25 0 0 1 2 0zM288.83 355.15a.62.62 0 0 1 0 1.17 2.25 2.25 0 0 1-2 0 .62.62 0 0 1 0-1.17 2.25 2.25 0 0 1 2 0zM255.08 367.32a2.21 2.21 0 0 1 2 0c.55.33.56.85 0 1.17a2.25 2.25 0 0 1-2 0 .61.61 0 0 1 0-1.17zM262.38 364.26c.56.33.56.85 0 1.17a2.25 2.25 0 0 1-2 0 .62.62 0 0 1 0-1.17 2.25 2.25 0 0 1 2 0zM267.66 361.22a.61.61 0 0 1 0 1.16 2.25 2.25 0 0 1-2 0 .61.61 0 0 1 0-1.16 2.18 2.18 0 0 1 2 0z" class="cls-2"/><ellipse cx="271.93" cy="358.75" class="cls-2" rx="1.43" ry=".82"/><path d="M278.22 355.12c.56.32.56.84 0 1.17a2.25 2.25 0 0 1-2 0 .62.62 0 0 1 0-1.17 2.25 2.25 0 0 1 2 0zM283.5 352.07a.62.62 0 0 1 0 1.17 2.25 2.25 0 0 1-2 0 .62.62 0 0 1 0-1.17 2.25 2.25 0 0 1 2 0zM249.8 364.27a2.21 2.21 0 0 1 2 0 .61.61 0 0 1 0 1.16 2.21 2.21 0 0 1-2 0 .61.61 0 0 1 0-1.16zM257.1 361.22a.61.61 0 0 1 0 1.16 2.25 2.25 0 0 1-2 0 .61.61 0 0 1 0-1.16 2.18 2.18 0 0 1 2 0zM262.38 358.17a.61.61 0 0 1 0 1.16 2.18 2.18 0 0 1-2 0 .61.61 0 0 1 0-1.16 2.25 2.25 0 0 1 2 0zM267.66 355.12c.56.32.56.84 0 1.17a2.25 2.25 0 0 1-2 0 .62.62 0 0 1 0-1.17 2.25 2.25 0 0 1 2 0zM272.94 352.07a.62.62 0 0 1 0 1.17 2.25 2.25 0 0 1-2 0 .62.62 0 0 1 0-1.17 2.25 2.25 0 0 1 2 0zM244.52 361.22a2.25 2.25 0 0 1 2 0 .61.61 0 0 1 0 1.16 2.21 2.21 0 0 1-2 0c-.52-.32-.52-.84 0-1.16zM251.82 358.17a.61.61 0 0 1 0 1.16 2.18 2.18 0 0 1-2 0 .61.61 0 0 1 0-1.16 2.25 2.25 0 0 1 2 0zM257.1 355.12c.56.32.56.84 0 1.17a2.25 2.25 0 0 1-2 0 .62.62 0 0 1 0-1.17 2.25 2.25 0 0 1 2 0zM262.38 352.07a.62.62 0 0 1 0 1.17 2.25 2.25 0 0 1-2 0 .62.62 0 0 1 0-1.17 2.25 2.25 0 0 1 2 0zM267.66 349a.62.62 0 0 1 0 1.17 2.25 2.25 0 0 1-2 0 .62.62 0 0 1 0-1.17 2.25 2.25 0 0 1 2 0zM239.24 358.17a2.25 2.25 0 0 1 2 0c.56.32.56.84 0 1.17a2.25 2.25 0 0 1-2 0 .62.62 0 0 1 0-1.17zM246.54 355.12c.56.32.56.84 0 1.17a2.25 2.25 0 0 1-2 0 .62.62 0 0 1 0-1.17 2.25 2.25 0 0 1 2 0zM251.82 352.07a.62.62 0 0 1 0 1.17 2.25 2.25 0 0 1-2 0 .62.62 0 0 1 0-1.17 2.25 2.25 0 0 1 2 0zM257.1 349a.62.62 0 0 1 0 1.17 2.25 2.25 0 0 1-2 0 .62.62 0 0 1 0-1.17 2.25 2.25 0 0 1 2 0zM405 355.17a.61.61 0 0 1 0 1.16 2.25 2.25 0 0 1-2 0 .61.61 0 0 1 0-1.16 2.18 2.18 0 0 1 2 0zM410.3 352.12a.61.61 0 0 1 0 1.16 2.18 2.18 0 0 1-2 0 .61.61 0 0 1 0-1.16 2.25 2.25 0 0 1 2 0z" class="cls-2"/><ellipse cx="414.57" cy="349.65" class="cls-2" rx="1.43" ry=".82"/><path d="M399.74 352.12a.61.61 0 0 1 0 1.16 2.16 2.16 0 0 1-2 0 .61.61 0 0 1 0-1.16 2.22 2.22 0 0 1 2 0z" class="cls-2"/><ellipse cx="404.01" cy="349.65" class="cls-2" rx="1.43" ry=".82"/><path d="M410.3 346a.62.62 0 0 1 0 1.17 2.25 2.25 0 0 1-2 0 .62.62 0 0 1 0-1.17 2.25 2.25 0 0 1 2 0zM415.58 343c.56.33.56.85 0 1.17a2.25 2.25 0 0 1-2 0 .62.62 0 0 1 0-1.17 2.25 2.25 0 0 1 2 0zM420.86 339.92c.56.33.56.85 0 1.17a2.25 2.25 0 0 1-2 0 .62.62 0 0 1 0-1.17 2.25 2.25 0 0 1 2 0zM426.14 336.88a.61.61 0 0 1 0 1.16 2.25 2.25 0 0 1-2 0 .61.61 0 0 1 0-1.16 2.18 2.18 0 0 1 2 0zM394.46 349.07c.56.32.56.84 0 1.17a2.22 2.22 0 0 1-2 0c-.56-.33-.56-.85 0-1.17a2.22 2.22 0 0 1 2 0zM399.74 346a.62.62 0 0 1 0 1.17 2.22 2.22 0 0 1-2 0 .62.62 0 0 1 0-1.17 2.22 2.22 0 0 1 2 0z" class="cls-2"/><ellipse cx="404.01" cy="343.56" class="cls-2" rx="1.43" ry=".82"/><path d="M410.3 339.92c.56.33.56.85 0 1.17a2.25 2.25 0 0 1-2 0 .62.62 0 0 1 0-1.17 2.25 2.25 0 0 1 2 0zM415.58 336.88a.61.61 0 0 1 0 1.16 2.25 2.25 0 0 1-2 0 .61.61 0 0 1 0-1.16 2.18 2.18 0 0 1 2 0z" class="cls-2"/><ellipse cx="419.85" cy="334.41" class="cls-2" rx="1.43" ry=".82"/><path d="M426.14 330.78c.56.32.56.84 0 1.17a2.25 2.25 0 0 1-2 0 .62.62 0 0 1 0-1.17 2.25 2.25 0 0 1 2 0zM431.42 327.73a.62.62 0 0 1 0 1.17 2.25 2.25 0 0 1-2 0 .62.62 0 0 1 0-1.17 2.25 2.25 0 0 1 2 0zM389.19 346a.62.62 0 0 1 0 1.17 2.25 2.25 0 0 1-2 0 .62.62 0 0 1 0-1.17 2.25 2.25 0 0 1 2 0zM394.46 343c.56.33.56.85 0 1.17a2.22 2.22 0 0 1-2 0c-.56-.32-.56-.84 0-1.17a2.22 2.22 0 0 1 2 0zM399.74 339.92c.56.33.56.85 0 1.17a2.22 2.22 0 0 1-2 0c-.56-.32-.56-.84 0-1.17a2.22 2.22 0 0 1 2 0zM405 336.88a.61.61 0 0 1 0 1.16 2.22 2.22 0 0 1-2 0 .61.61 0 0 1 0-1.16 2.16 2.16 0 0 1 2 0zM410.3 333.83a.61.61 0 0 1 0 1.16 2.18 2.18 0 0 1-2 0 .61.61 0 0 1 0-1.16 2.25 2.25 0 0 1 2 0zM415.58 330.78c.56.32.56.84 0 1.17a2.25 2.25 0 0 1-2 0 .62.62 0 0 1 0-1.17 2.25 2.25 0 0 1 2 0zM420.86 327.73a.62.62 0 0 1 0 1.17 2.25 2.25 0 0 1-2 0 .62.62 0 0 1 0-1.17 2.25 2.25 0 0 1 2 0zM426.14 324.68c.56.33.56.85 0 1.17a2.25 2.25 0 0 1-2 0 .62.62 0 0 1 0-1.17 2.25 2.25 0 0 1 2 0z" class="cls-2"/><ellipse cx="430.41" cy="322.22" class="cls-2" rx="1.43" ry=".82"/><path d="M383.86 342.94c.56.32.56.84 0 1.17a2.25 2.25 0 0 1-2 0c-.56-.33-.56-.85 0-1.17a2.25 2.25 0 0 1 2 0zM389.14 339.89a.62.62 0 0 1 0 1.17 2.25 2.25 0 0 1-2 0 .62.62 0 0 1 0-1.17 2.25 2.25 0 0 1 2 0zM394.42 336.84c.56.33.56.85 0 1.17a2.25 2.25 0 0 1-2 0c-.56-.32-.56-.84 0-1.17a2.25 2.25 0 0 1 2 0zM399.7 333.8a.61.61 0 0 1 0 1.16 2.25 2.25 0 0 1-2 0 .61.61 0 0 1 0-1.16 2.18 2.18 0 0 1 2 0zM405 330.75a.61.61 0 0 1 0 1.16 2.18 2.18 0 0 1-2 0 .61.61 0 0 1 0-1.16 2.25 2.25 0 0 1 2 0zM410.26 327.7c.56.32.56.84 0 1.17a2.25 2.25 0 0 1-2 0c-.56-.33-.56-.85 0-1.17a2.25 2.25 0 0 1 2 0z" class="cls-2"/><ellipse cx="414.53" cy="325.23" class="cls-2" rx="1.43" ry=".82"/><ellipse cx="419.81" cy="322.19" class="cls-2" rx="1.43" ry=".82"/><path d="M426.1 318.55c.56.33.56.85 0 1.17a2.25 2.25 0 0 1-2 0c-.56-.32-.56-.84 0-1.17a2.25 2.25 0 0 1 2 0zM431.38 315.51a.61.61 0 0 1 0 1.16 2.25 2.25 0 0 1-2 0 .61.61 0 0 1 0-1.16 2.18 2.18 0 0 1 2 0zM378.58 339.89a.62.62 0 0 1 0 1.17 2.25 2.25 0 0 1-2 0 .62.62 0 0 1 0-1.17 2.25 2.25 0 0 1 2 0zM383.86 336.84c.56.33.56.85 0 1.17a2.25 2.25 0 0 1-2 0c-.56-.32-.56-.84 0-1.17a2.25 2.25 0 0 1 2 0zM389.14 333.8a.61.61 0 0 1 0 1.16 2.25 2.25 0 0 1-2 0 .61.61 0 0 1 0-1.16 2.18 2.18 0 0 1 2 0zM394.42 330.75a.61.61 0 0 1 0 1.16 2.18 2.18 0 0 1-2 0 .61.61 0 0 1 0-1.16 2.25 2.25 0 0 1 2 0zM399.7 327.7c.56.32.56.84 0 1.17a2.25 2.25 0 0 1-2 0c-.56-.33-.56-.85 0-1.17a2.25 2.25 0 0 1 2 0z" class="cls-2"/><ellipse cx="403.97" cy="325.23" class="cls-2" rx="1.43" ry=".82"/><ellipse cx="409.25" cy="322.19" class="cls-2" rx="1.43" ry=".82"/><path d="M415.54 318.55c.56.33.56.85 0 1.17a2.25 2.25 0 0 1-2 0c-.56-.32-.56-.84 0-1.17a2.25 2.25 0 0 1 2 0zM420.82 315.51a.61.61 0 0 1 0 1.16 2.25 2.25 0 0 1-2 0 .61.61 0 0 1 0-1.16 2.18 2.18 0 0 1 2 0zM426.1 312.46a.61.61 0 0 1 0 1.16 2.18 2.18 0 0 1-2 0 .61.61 0 0 1 0-1.16 2.25 2.25 0 0 1 2 0zM431.38 309.41c.56.32.56.84 0 1.17a2.25 2.25 0 0 1-2 0c-.56-.33-.56-.85 0-1.17a2.25 2.25 0 0 1 2 0zM410.26 315.51a.61.61 0 0 1 0 1.16 2.25 2.25 0 0 1-2 0 .61.61 0 0 1 0-1.16 2.18 2.18 0 0 1 2 0zM415.54 312.46a.61.61 0 0 1 0 1.16 2.18 2.18 0 0 1-2 0 .61.61 0 0 1 0-1.16 2.25 2.25 0 0 1 2 0zM420.82 309.41c.56.32.56.84 0 1.17a2.25 2.25 0 0 1-2 0c-.56-.33-.56-.85 0-1.17a2.25 2.25 0 0 1 2 0zM426.1 306.36a.62.62 0 0 1 0 1.17 2.25 2.25 0 0 1-2 0 .62.62 0 0 1 0-1.17 2.25 2.25 0 0 1 2 0zM431.38 303.31c.56.33.56.85 0 1.17a2.25 2.25 0 0 1-2 0c-.56-.32-.56-.84 0-1.17a2.25 2.25 0 0 1 2 0zM415.54 306.36a.62.62 0 0 1 0 1.17 2.25 2.25 0 0 1-2 0 .62.62 0 0 1 0-1.17 2.25 2.25 0 0 1 2 0zM420.82 303.31c.56.33.56.85 0 1.17a2.25 2.25 0 0 1-2 0c-.56-.32-.56-.84 0-1.17a2.25 2.25 0 0 1 2 0zM426.1 300.27a.61.61 0 0 1 0 1.16 2.25 2.25 0 0 1-2 0 .61.61 0 0 1 0-1.16 2.18 2.18 0 0 1 2 0z" class="cls-2"/><ellipse cx="430.37" cy="297.8" class="cls-2" rx="1.43" ry=".82"/><path d="M415.54 300.27a.61.61 0 0 1 0 1.16 2.25 2.25 0 0 1-2 0 .61.61 0 0 1 0-1.16 2.18 2.18 0 0 1 2 0zM420.82 297.22a.61.61 0 0 1 0 1.16 2.25 2.25 0 0 1-2 0 .61.61 0 0 1 0-1.16 2.25 2.25 0 0 1 2 0zM426.1 294.17a.61.61 0 0 1 0 1.16 2.18 2.18 0 0 1-2 0 .61.61 0 0 1 0-1.16 2.25 2.25 0 0 1 2 0zM420.82 291.12c.56.32.56.84 0 1.17a2.25 2.25 0 0 1-2 0c-.56-.33-.56-.85 0-1.17a2.25 2.25 0 0 1 2 0zM426.1 288.07a.62.62 0 0 1 0 1.17 2.25 2.25 0 0 1-2 0 .62.62 0 0 1 0-1.17 2.25 2.25 0 0 1 2 0zM420.82 285c.56.33.56.85 0 1.17a2.25 2.25 0 0 1-2 0c-.56-.32-.56-.84 0-1.17a2.25 2.25 0 0 1 2 0zM212.63 349.52a2.21 2.21 0 0 1 2 0 .61.61 0 0 1 0 1.16 2.25 2.25 0 0 1-2 0 .61.61 0 0 1 0-1.16z" class="cls-2"/></g></g></g></svg>