<svg xmlns="http://www.w3.org/2000/svg" viewBox="0 0 506.34 409.7"><defs><style>.cls-1{fill:#05b4d1}.cls-2{fill:#f7e3c6}.cls-3{fill:#17110c}</style></defs><g id="Слой_2" data-name="Слой 2"><g id="Layer_1" data-name="Layer 1"><g id="illustration"><path d="M499.37 52.79L424 9.3a4.07 4.07 0 0 0-3.93-.41 3 3 0 0 0-.42.26l-10.9 6.58a.93.93 0 0 0-.33 1.25l5.89 10.64v41.22c0 4.6 2.8 9.94 6.24 11.93L479.94 115l11.65 14.73 11.72-7.09c1.4-.72 2.3-2.52 2.3-5.12v-52.8c0-4.6-2.8-9.94-6.24-11.93z" class="cls-1"/><path d="M499.37 57.56L424 14.07a4.07 4.07 0 0 0-3.93-.41 3 3 0 0 0-.42.26l-10.9 6.58a.93.93 0 0 0-.33 1.25l5.89 10.64v41.22c0 4.6 2.8 9.94 6.24 11.93l59.36 34.27 5.52 2.21 10.62-2.2c1.41-.72 9.53 2.6 9.53 0V69.49c.03-4.6-2.77-9.94-6.21-11.93z" class="cls-2"/><path d="M491.41 130.73l-12-15.13-59.19-34.2c-3.65-2.1-6.61-7.74-6.61-12.56v-41l-5.8-10.47a1.68 1.68 0 0 1 .58-2.24l10.91-6.61a3.64 3.64 0 0 1 .47-.28 4.77 4.77 0 0 1 4.63.43l75.33 43.49c3.65 2.1 6.61 7.74 6.61 12.56v52.84c0 2.79-1 4.89-2.69 5.77zM421.56 9.28a2.44 2.44 0 0 0-1.13.27 1.55 1.55 0 0 0-.32.2l-10.95 6.6a.22.22 0 0 0-.07.28l6 10.8v41.41c0 4.36 2.64 9.42 5.88 11.29l59.48 34.34 11.33 14.34 11.17-6.76c1.25-.64 1.95-2.27 1.95-4.49V64.72c0-4.36-2.64-9.42-5.88-11.29l-75.35-43.5a4.31 4.31 0 0 0-2.11-.65z" class="cls-3"/><path d="M487.47 129.47L412.13 86c-3.44-2-6.24-7.33-6.24-11.93V21.21c0-4.59 2.8-6.71 6.24-4.72L487.47 60c3.44 2 6.24 7.33 6.24 11.93v52.83c0 4.59-2.8 6.7-6.24 4.71z" class="cls-1"/><path d="M490 131a5.8 5.8 0 0 1-2.85-.84l-75.33-43.5c-3.65-2.1-6.61-7.74-6.61-12.56V21.21c0-2.68.92-4.75 2.52-5.68a4.73 4.73 0 0 1 4.82.33l75.33 43.49c3.65 2.11 6.61 7.74 6.61 12.57v52.83c0 2.69-.92 4.76-2.52 5.69a4 4 0 0 1-1.97.56zM409.66 16.48a2.39 2.39 0 0 0-1.24.32c-1.14.66-1.8 2.27-1.8 4.41v52.84c0 4.36 2.64 9.42 5.88 11.29l75.33 43.5a3.32 3.32 0 0 0 3.36.33c1.13-.66 1.79-2.27 1.79-4.42V71.92c0-4.36-2.64-9.43-5.88-11.3l-75.33-43.49a4.26 4.26 0 0 0-2.11-.65z" class="cls-3"/><path d="M454.79 98.94l-5.18-3a5.62 5.62 0 0 1-2.34-4.47V56.89c0-1.72 1.05-2.51 2.34-1.76l5.18 3a5.62 5.62 0 0 1 2.34 4.47v34.57c0 1.72-1.05 2.51-2.34 1.77z" class="cls-2"/><path d="M453 94.52a2.64 2.64 0 0 1-1.29-.38l-5.19-3a6.35 6.35 0 0 1-2.7-5.11V51.46a2.78 2.78 0 0 1 1.18-2.52 2.22 2.22 0 0 1 2.27.12l5.18 3a6.32 6.32 0 0 1 2.71 5.1v34.58a2.76 2.76 0 0 1-1.18 2.52 1.83 1.83 0 0 1-.98.26zm-.56-1.65c.19.11.55.27.8.12s.44-.51.44-1.25V57.15a4.87 4.87 0 0 0-2-3.83l-5.19-3c-.19-.11-.54-.27-.79-.12s-.45.51-.45 1.25V86a4.9 4.9 0 0 0 2 3.84z" class="cls-3"/><path d="M469.45 107.4l-6.05-3.49a4.58 4.58 0 0 1-1.9-3.65V70.85c0-1.41.85-2.06 1.9-1.45l6.05 3.49a4.58 4.58 0 0 1 1.91 3.65V106c0 1.36-.86 2-1.91 1.4z" class="cls-2"/><path d="M467.46 102.93a2.25 2.25 0 0 1-1.13-.33l-6-3.49a5.27 5.27 0 0 1-2.33-4.28V65.41a2.38 2.38 0 0 1 1-2.17 1.92 1.92 0 0 1 2 .1l6.05 3.49a5.29 5.29 0 0 1 2.27 4.28v29.42a2.38 2.38 0 0 1-1 2.17 1.7 1.7 0 0 1-.86.23zm-7.56-38.46a.28.28 0 0 0-.13 0 1.13 1.13 0 0 0-.29.91v29.45a3.88 3.88 0 0 0 1.54 3l6.05 3.49c.1.06.36.19.51.1s.3-.39.3-.9V71.11a3.86 3.86 0 0 0-1.55-3l-6-3.5a1 1 0 0 0-.43-.14z" class="cls-3"/><path d="M483.75 115.66l-7.16-4.14a3.21 3.21 0 0 1-1.35-2.58V97.49c0-1 .6-1.45 1.35-1l7.16 4.13a3.26 3.26 0 0 1 1.35 2.58v11.46c0 .97-.61 1.43-1.35 1z" class="cls-2"/><path d="M481.54 111.12a1.85 1.85 0 0 1-.91-.26l-7.16-4.14a3.91 3.91 0 0 1-1.72-3.21V92.05a1.89 1.89 0 0 1 .84-1.72 1.56 1.56 0 0 1 1.61.07l7.17 4.13a4 4 0 0 1 1.71 3.22v11.45a1.9 1.9 0 0 1-.83 1.73 1.48 1.48 0 0 1-.71.19zM473.3 91.6a1.09 1.09 0 0 0-.08.45v11.46a2.51 2.51 0 0 0 1 1.94l7.17 4.14c.12.07.17.06.17.06a1.26 1.26 0 0 0 .08-.45V97.75a2.54 2.54 0 0 0-1-2l-7.16-4.13a.44.44 0 0 0-.18-.02z" class="cls-3"/><path d="M441.74 91.3l-6.56-3.79a4 4 0 0 1-1.65-3.15V64.05c0-1.21.74-1.77 1.65-1.24l6.56 3.79a3.93 3.93 0 0 1 1.65 3.15v20.3c0 1.22-.74 1.78-1.65 1.25z" class="cls-2"/><path d="M439.65 86.8a2 2 0 0 1-1-.3l-6.57-3.79a4.67 4.67 0 0 1-2-3.78V58.62a2.19 2.19 0 0 1 .93-2 1.81 1.81 0 0 1 1.82.09l6.56 3.79a4.69 4.69 0 0 1 2 3.79v20.3a2.17 2.17 0 0 1-.93 2 1.56 1.56 0 0 1-.81.21zm-7.87-28.89h-.06c-.09 0-.21.28-.21.7v20.32a3.23 3.23 0 0 0 1.29 2.51l6.56 3.79c.17.1.3.12.35.09s.2-.27.2-.7v-20.3a3.25 3.25 0 0 0-1.28-2.52l-6.57-3.8a.63.63 0 0 0-.28-.09z" class="cls-3"/><path d="M428.69 83.77l-7.52-4.35a2.78 2.78 0 0 1-1.17-2.23v-8.51c0-.85.52-1.25 1.17-.88l7.52 4.35a2.78 2.78 0 0 1 1.17 2.23v8.51c0 .86-.52 1.25-1.17.88z" class="cls-2"/><path d="M426.41 79.21a1.65 1.65 0 0 1-.83-.24l-7.53-4.35a3.49 3.49 0 0 1-1.53-2.86v-8.51a1.75 1.75 0 0 1 .77-1.58 1.46 1.46 0 0 1 1.49.07l7.53 4.34a3.5 3.5 0 0 1 1.53 2.92v8.5a1.74 1.74 0 0 1-.77 1.58 1.26 1.26 0 0 1-.66.13zM418 63s-.06.1-.06.28v8.51a2.08 2.08 0 0 0 .8 1.59l7.53 4.35h.05V69a2.09 2.09 0 0 0-.8-1.6l-7.47-4.4H418z" class="cls-3"/><ellipse cx="49.52" cy="390.94" class="cls-3" rx="1.44" ry=".83"/><path d="M55.88 387.27a.62.62 0 0 1 0 1.17 2.23 2.23 0 0 1-2 0 .61.61 0 0 1 0-1.17 2.23 2.23 0 0 1 2 0zM61.22 384.19a.62.62 0 0 1 0 1.17 2.25 2.25 0 0 1-2 0 .62.62 0 0 1 0-1.17 2.25 2.25 0 0 1 2 0zM45.2 387.27a.61.61 0 0 1 0 1.17 2.23 2.23 0 0 1-2 0 .62.62 0 0 1 0-1.17 2.23 2.23 0 0 1 2 0zM50.54 384.19a.61.61 0 0 1 0 1.17 2.23 2.23 0 0 1-2 0 .62.62 0 0 1 0-1.17 2.23 2.23 0 0 1 2 0z" class="cls-3"/><ellipse cx="54.86" cy="381.69" class="cls-3" rx="1.44" ry=".83"/><path d="M39.87 384.19a.62.62 0 0 1 0 1.17 2.23 2.23 0 0 1-2 0 .61.61 0 0 1 0-1.17 2.23 2.23 0 0 1 2 0z" class="cls-3"/><ellipse cx="44.18" cy="381.69" class="cls-3" rx="1.44" ry=".83"/><path d="M50.54 378c.57.33.57.86 0 1.18a2.23 2.23 0 0 1-2 0 .62.62 0 0 1 0-1.18 2.29 2.29 0 0 1 2 0zM34.53 381.1a.62.62 0 0 1 0 1.18 2.23 2.23 0 0 1-2 0 .62.62 0 0 1 0-1.18 2.29 2.29 0 0 1 2 0zM39.87 378a.62.62 0 0 1 0 1.18 2.23 2.23 0 0 1-2 0c-.57-.32-.57-.85 0-1.18a2.29 2.29 0 0 1 2 0z" class="cls-3"/><ellipse cx="44.18" cy="375.53" class="cls-3" rx="1.44" ry=".83"/><path d="M29.19 378c.57.33.57.86 0 1.18a2.23 2.23 0 0 1-2 0 .62.62 0 0 1 0-1.18 2.29 2.29 0 0 1 2 0z" class="cls-3"/><ellipse cx="33.51" cy="375.53" class="cls-3" rx="1.44" ry=".83"/><path d="M39.87 371.86a.62.62 0 0 1 0 1.18 2.29 2.29 0 0 1-2 0c-.57-.33-.57-.85 0-1.18a2.23 2.23 0 0 1 2 0zM23.81 374.91a.62.62 0 0 1 0 1.18 2.29 2.29 0 0 1-2 0 .62.62 0 0 1 0-1.18 2.23 2.23 0 0 1 2 0z" class="cls-3"/><ellipse cx="28.13" cy="372.42" class="cls-3" rx="1.44" ry=".83"/><path d="M34.49 368.75a.62.62 0 0 1 0 1.17 2.28 2.28 0 0 1-2.05 0 .62.62 0 0 1 0-1.18 2.25 2.25 0 0 1 2.05.01zM18.47 371.83c.57.32.57.85 0 1.18a2.29 2.29 0 0 1-2 0 .62.62 0 0 1 0-1.18 2.23 2.23 0 0 1 2 0zM23.81 368.75a.62.62 0 0 1 0 1.18 2.29 2.29 0 0 1-2 0 .62.62 0 0 1 0-1.18 2.23 2.23 0 0 1 2 0z" class="cls-3"/><ellipse cx="28.13" cy="366.25" class="cls-3" rx="1.44" ry=".83"/><path d="M13.14 368.75a.62.62 0 0 1 0 1.18 2.29 2.29 0 0 1-2 0c-.57-.33-.57-.86 0-1.18a2.23 2.23 0 0 1 2 0zM18.47 365.67a.61.61 0 0 1 0 1.17 2.23 2.23 0 0 1-2 0 .62.62 0 0 1 0-1.17 2.23 2.23 0 0 1 2 0zM23.81 362.58a.62.62 0 0 1 0 1.18 2.23 2.23 0 0 1-2 0 .62.62 0 0 1 0-1.18 2.29 2.29 0 0 1 2 0zM7.8 365.67a.62.62 0 0 1 0 1.17 2.23 2.23 0 0 1-2 0 .62.62 0 0 1 0-1.17 2.23 2.23 0 0 1 2 0z" class="cls-3"/><ellipse cx="12.12" cy="363.17" class="cls-3" rx="1.44" ry=".83"/><path d="M18.47 359.5c.57.33.57.86 0 1.18a2.23 2.23 0 0 1-2 0 .62.62 0 0 1 0-1.18 2.29 2.29 0 0 1 2 0z" class="cls-3"/><ellipse cx="1.44" cy="363.17" class="cls-3" rx="1.44" ry=".83"/><path d="M7.8 359.5a.62.62 0 0 1 0 1.18 2.23 2.23 0 0 1-2 0 .62.62 0 0 1 0-1.18 2.29 2.29 0 0 1 2 0zM13.14 356.42a.62.62 0 0 1 0 1.18 2.23 2.23 0 0 1-2 0c-.57-.33-.57-.85 0-1.18a2.29 2.29 0 0 1 2 0zM2.46 356.42c.57.33.57.85 0 1.18a2.23 2.23 0 0 1-2 0 .62.62 0 0 1 0-1.18 2.29 2.29 0 0 1 2 0zM7.8 353.34a.62.62 0 0 1 0 1.18 2.29 2.29 0 0 1-2 0 .62.62 0 0 1 0-1.18 2.29 2.29 0 0 1 2 0zM2.46 350.26c.57.32.57.85 0 1.18a2.29 2.29 0 0 1-2 0 .62.62 0 0 1 0-1.18 2.23 2.23 0 0 1 2 0z" class="cls-3"/><ellipse cx="76.41" cy="393.52" class="cls-3" rx="1.44" ry=".83"/><ellipse cx="65.74" cy="393.52" class="cls-3" rx="1.44" ry=".83"/><ellipse cx="71.08" cy="390.44" class="cls-3" rx="1.44" ry=".83"/><path d="M56.09 392.94a.62.62 0 0 1 0 1.17 2.23 2.23 0 0 1-2 0 .61.61 0 0 1 0-1.17 2.23 2.23 0 0 1 2 0zM61.42 389.85c.57.33.57.86 0 1.18a2.23 2.23 0 0 1-2 0 .62.62 0 0 1 0-1.18 2.29 2.29 0 0 1 2 0z" class="cls-3"/><ellipse cx="65.74" cy="387.36" class="cls-3" rx="1.44" ry=".83"/><path d="M80.74 389.9a2.23 2.23 0 0 1 2 0 .62.62 0 0 1 0 1.17 2.28 2.28 0 0 1-2.05 0 .62.62 0 0 1 .05-1.17zM88.13 386.81a.62.62 0 0 1 0 1.18 2.25 2.25 0 0 1-2 0 .62.62 0 0 1 0-1.18 2.31 2.31 0 0 1 2 0zM93.46 383.73c.57.33.57.85 0 1.18a2.23 2.23 0 0 1-2 0 .62.62 0 0 1 0-1.18 2.29 2.29 0 0 1 2 0zM98.8 380.65a.62.62 0 0 1 0 1.18 2.29 2.29 0 0 1-2 0c-.57-.33-.57-.85 0-1.18a2.29 2.29 0 0 1 2 0zM104.14 377.57a.62.62 0 0 1 0 1.18 2.31 2.31 0 0 1-2 0 .62.62 0 0 1 0-1.18 2.25 2.25 0 0 1 2 0z" class="cls-3"/><ellipse cx="108.45" cy="375.08" class="cls-3" rx="1.44" ry=".83"/><path d="M114.81 371.41a.62.62 0 0 1 0 1.18 2.29 2.29 0 0 1-2 0c-.57-.33-.57-.86 0-1.18a2.23 2.23 0 0 1 2 0zM120.15 368.33a.62.62 0 0 1 0 1.17 2.25 2.25 0 0 1-2.05 0 .62.62 0 0 1 0-1.17 2.25 2.25 0 0 1 2.05 0z" class="cls-3"/><ellipse cx="124.46" cy="365.83" class="cls-3" rx="1.44" ry=".83"/><path d="M130.82 362.16a.62.62 0 0 1 0 1.18 2.23 2.23 0 0 1-2 0c-.57-.32-.57-.85 0-1.18a2.29 2.29 0 0 1 2 0zM136.16 359.08a.62.62 0 0 1 0 1.18 2.23 2.23 0 0 1-2 0c-.57-.32-.57-.85 0-1.18a2.29 2.29 0 0 1 2 0zM75.4 386.82a2.26 2.26 0 0 1 2 0c.57.33.57.86 0 1.18a2.26 2.26 0 0 1-2 0c-.56-.33-.56-.86 0-1.18zM82.79 383.73a.62.62 0 0 1 0 1.18 2.23 2.23 0 0 1-2 0c-.57-.33-.57-.85 0-1.18a2.29 2.29 0 0 1 2 0zM88.13 380.65a.62.62 0 0 1 0 1.18 2.31 2.31 0 0 1-2 0 .62.62 0 0 1 0-1.18 2.31 2.31 0 0 1 2 0zM93.46 377.57c.57.32.57.85 0 1.18a2.29 2.29 0 0 1-2 0 .62.62 0 0 1 0-1.18 2.23 2.23 0 0 1 2 0z" class="cls-3"/><ellipse cx="97.78" cy="375.08" class="cls-3" rx="1.44" ry=".83"/><path d="M104.14 371.41a.62.62 0 0 1 0 1.18 2.31 2.31 0 0 1-2 0 .62.62 0 0 1 0-1.18 2.25 2.25 0 0 1 2 0zM109.47 368.33a.61.61 0 0 1 0 1.17 2.23 2.23 0 0 1-2 0 .62.62 0 0 1 0-1.17 2.23 2.23 0 0 1 2 0zM114.81 365.24a.62.62 0 0 1 0 1.18 2.23 2.23 0 0 1-2 0c-.57-.32-.57-.85 0-1.18a2.29 2.29 0 0 1 2 0z" class="cls-3"/><ellipse cx="119.13" cy="362.75" class="cls-3" rx="1.44" ry=".83"/><path d="M125.48 359.08c.57.33.57.86 0 1.18a2.23 2.23 0 0 1-2 0 .62.62 0 0 1 0-1.18 2.29 2.29 0 0 1 2 0zM130.82 356a.62.62 0 0 1 0 1.18 2.29 2.29 0 0 1-2 0 .62.62 0 0 1 0-1.18 2.29 2.29 0 0 1 2 0z" class="cls-3"/><ellipse cx="135.14" cy="353.51" class="cls-3" rx="1.44" ry=".83"/><path d="M70.07 383.74a2.26 2.26 0 0 1 2 0 .62.62 0 0 1 0 1.18 2.23 2.23 0 0 1-2 0 .62.62 0 0 1 0-1.18zM77.45 380.65a.62.62 0 0 1 0 1.18 2.29 2.29 0 0 1-2 0 .62.62 0 0 1 0-1.18 2.29 2.29 0 0 1 2 0zM82.79 377.57a.62.62 0 0 1 0 1.18 2.29 2.29 0 0 1-2 0c-.57-.33-.57-.86 0-1.18a2.23 2.23 0 0 1 2 0zM88.13 374.49a.62.62 0 0 1 0 1.18 2.31 2.31 0 0 1-2 0 .62.62 0 0 1 0-1.18 2.25 2.25 0 0 1 2 0zM93.46 371.41c.57.32.57.85 0 1.18a2.29 2.29 0 0 1-2 0 .62.62 0 0 1 0-1.18 2.23 2.23 0 0 1 2 0zM98.8 368.33a.62.62 0 0 1 0 1.17 2.23 2.23 0 0 1-2 0 .61.61 0 0 1 0-1.17 2.23 2.23 0 0 1 2 0z" class="cls-3"/><ellipse cx="103.12" cy="365.83" class="cls-3" rx="1.44" ry=".83"/><ellipse cx="108.45" cy="362.75" class="cls-3" rx="1.44" ry=".83"/><ellipse cx="113.79" cy="359.67" class="cls-3" rx="1.44" ry=".83"/><ellipse cx="119.13" cy="356.59" class="cls-3" rx="1.44" ry=".83"/><path d="M125.48 352.92c.57.32.57.85 0 1.18a2.29 2.29 0 0 1-2 0 .62.62 0 0 1 0-1.18 2.23 2.23 0 0 1 2 0zM130.82 349.84a.62.62 0 0 1 0 1.18 2.29 2.29 0 0 1-2 0 .62.62 0 0 1 0-1.18 2.23 2.23 0 0 1 2 0z" class="cls-3"/><path d="M126.61 344.62l-.26-13.62H2.91l.16 13.28c0 .38 0 0 .05.38.28 2.17 2 4.38 5.05 6.15l46.05 26.59c6.15 3.55 15.45 3.94 20.78.86l48.06-27.75c2.67-1.58 3.84-3.7 3.55-5.89z" class="cls-1"/><path d="M66 381a25 25 0 0 1-12.12-3L7.8 351.4c-3.15-1.81-5.06-4.17-5.4-6.65a1 1 0 0 1-.06-.58l-.17-13.95 125 1.47.2 12.88c.31 2.54-1.11 4.92-3.91 6.54l-48.1 27.75A19.2 19.2 0 0 1 66 381zM3.8 344.3a1.14 1.14 0 0 1 .05.23c.26 2 1.93 4 4.68 5.61l46.06 26.59c5.93 3.42 14.92 3.81 20 .86l48.06-27.75c2.32-1.34 3.45-3.15 3.19-5.12v-.08l-.25-12.95H3.65l.16 12.55z" class="cls-3"/><path d="M122.88 337.18l-48.07 27.75c-5.32 3.07-14.62 2.69-20.77-.86L8 337.48c-6.15-3.55-6.82-8.93-1.49-12l48.06-27.75c5.33-3.07 14.63-2.69 20.78.86l46.05 26.59c6.13 3.55 6.8 8.92 1.48 12z" class="cls-1"/><path d="M121.38 331.16l-46-26.59c-6.15-3.55-15.45-3.94-20.78-.86L6.49 331.46a7.87 7.87 0 0 0-2.8 2.54v5.42a11.21 11.21 0 0 0 4.29 4L54 370c6.15 3.55 15.45 3.94 20.77.86l48.07-27.75c5.36-3.03 4.69-8.4-1.46-11.95z" class="cls-2"/><path d="M65.79 367.72a24.87 24.87 0 0 1-12.12-3L7.62 338.11c-3.47-2-5.46-4.71-5.46-7.42 0-2.29 1.41-4.37 4-5.84l48.03-27.75c5.52-3.19 15.16-2.8 21.5.86l46.06 26.59c3.47 2 5.45 4.7 5.45 7.42 0 2.29-1.4 4.37-4 5.84l-48.02 27.75a19.13 19.13 0 0 1-9.39 2.16zm-2.22-71.34a17.55 17.55 0 0 0-8.65 2L6.86 326.11c-2.09 1.21-3.23 2.83-3.23 4.58 0 2.18 1.72 4.42 4.72 6.15l46.05 26.59c5.94 3.43 14.93 3.81 20.05.86l48.06-27.75c2.08-1.2 3.23-2.82 3.23-4.57 0-2.18-1.72-4.42-4.72-6.15L75 299.23a23.42 23.42 0 0 0-11.43-2.85z" class="cls-3"/><path d="M102.38 333.55c-6.25-1.8-16.39-3.78-22.73-.12l-3.2 1.85-3.87-1.71a4.93 4.93 0 0 0-2-3.94l-7.53-6.79c-.18-.18-.37-.34-.57-.51l-.14-.14a12.06 12.06 0 0 0-1.53-1.05c-5.85-3.38-15.34-3.38-21.19 0s-5.86 8.85 0 12.23a15.12 15.12 0 0 0 1.76.86l.24.09c.34.13.69.26 1 .38l11.72 4.3a18.49 18.49 0 0 0 6.83 1.12l3 2.23-3.17 1.87c-6.37 3.68-3 9.53.17 13.14 1.44 1.66 5.25 2 7.52.72l17.14-9.9.74-.43 17.08-9.86c2.23-1.31 1.6-3.51-1.27-4.34z" class="cls-1"/><path d="M65.35 354.68a6.4 6.4 0 0 1-4.77-1.76c-2.07-2.4-4.42-5.95-3.86-9.31a7.18 7.18 0 0 1 3.87-4.95l2.21-1.27-1.87-1.39a19 19 0 0 1-6.86-1.17l-11.64-4.31c-.36-.12-.72-.25-1.08-.4l-1.56-.72c-.18-.09-.35-.18-.51-.28-3.07-1.77-4.76-4.17-4.76-6.75s1.69-5 4.76-6.75c6-3.49 15.88-3.49 21.92 0a13.14 13.14 0 0 1 1.24.81l.55.47a7.23 7.23 0 0 1 .59.53l7.51 6.77a5.73 5.73 0 0 1 2.19 4l3.09 1.37 2.88-1.67c6.38-3.67 16.19-2 23.3.05 1.8.52 3 1.59 3.12 2.86a2.92 2.92 0 0 1-1.67 2.79l-35 20.19a7.38 7.38 0 0 1-3.65.89zm-3.94-20.18l4 3.05-4.12 2.38a5.76 5.76 0 0 0-3.16 3.92c-.47 2.8 1.65 5.95 3.52 8.11 1.2 1.39 4.65 1.68 6.59.56l35-20.19c.69-.4 1.06-.9 1-1.37-.08-.65-.89-1.29-2.07-1.63-5.6-1.61-15.92-3.79-22.17-.19l-3.52 2-4.67-2.06v-.5a4.21 4.21 0 0 0-1.7-3.36l-7.54-6.8c-.19-.18-.36-.34-.54-.49l-.16-.12a10.58 10.58 0 0 0-1.44-1c-5.64-3.26-14.82-3.26-20.46 0-2.59 1.5-4 3.44-4 5.48s1.43 4 4 5.48a13.23 13.23 0 0 0 1.68.82l.23.1c.34.14.67.26 1 .37l11.67 4.32a17.81 17.81 0 0 0 6.57 1.08zM66.35 367v13.3h4.28l53.86-31.1 1.98-2.65.67-12.36-7.17 4.87-47.39 26.87-6.23 1.07zM87.91 161.9a.62.62 0 0 1 0 1.18 2.31 2.31 0 0 1-2 0 .62.62 0 0 1 0-1.18 2.25 2.25 0 0 1 2 0zM93.24 158.82c.57.32.57.85 0 1.18a2.29 2.29 0 0 1-2 0 .62.62 0 0 1 0-1.18 2.23 2.23 0 0 1 2 0z" class="cls-3"/><ellipse cx="81.55" cy="159.41" class="cls-3" rx="1.44" ry=".83"/><path d="M87.91 155.74a.62.62 0 0 1 0 1.17 2.25 2.25 0 0 1-2 0 .62.62 0 0 1 0-1.17 2.25 2.25 0 0 1 2 0zM82.57 152.66a.62.62 0 0 1 0 1.17 2.23 2.23 0 0 1-2 0 .61.61 0 0 1 0-1.17 2.23 2.23 0 0 1 2 0zM136.19 183c.57.32.57.85 0 1.18a2.29 2.29 0 0 1-2 0 .62.62 0 0 1 0-1.18 2.23 2.23 0 0 1 2 0zM141.53 179.93a.62.62 0 0 1 0 1.17 2.23 2.23 0 0 1-2 0 .61.61 0 0 1 0-1.17 2.23 2.23 0 0 1 2 0zM157.54 170.68a.62.62 0 0 1 0 1.18 2.23 2.23 0 0 1-2 0 .62.62 0 0 1 0-1.18 2.29 2.29 0 0 1 2 0zM162.88 167.6a.62.62 0 0 1 0 1.18 2.29 2.29 0 0 1-2 0c-.57-.33-.57-.85 0-1.18a2.29 2.29 0 0 1 2 0zM168.21 164.52c.57.32.57.85 0 1.18a2.29 2.29 0 0 1-2 0 .62.62 0 0 1 0-1.18 2.23 2.23 0 0 1 2 0z" class="cls-3"/><ellipse cx="172.53" cy="162.03" class="cls-3" rx="1.44" ry=".83"/><path d="M146.87 176.84a.62.62 0 0 1 0 1.18 2.23 2.23 0 0 1-2 0c-.57-.32-.57-.85 0-1.18a2.29 2.29 0 0 1 2 0z" class="cls-3"/><ellipse cx="151.18" cy="174.35" class="cls-3" rx="1.44" ry=".83"/><path d="M125.52 183a.62.62 0 0 1 0 1.18 2.29 2.29 0 0 1-2 0c-.57-.33-.57-.86 0-1.18a2.23 2.23 0 0 1 2 0zM130.86 179.93a.62.62 0 0 1 0 1.17 2.25 2.25 0 0 1-2.05 0 .62.62 0 0 1 0-1.17 2.25 2.25 0 0 1 2.05 0zM136.19 176.84c.57.33.57.86 0 1.18a2.23 2.23 0 0 1-2 0 .62.62 0 0 1 0-1.18 2.29 2.29 0 0 1 2 0zM141.53 173.76a.62.62 0 0 1 0 1.18 2.23 2.23 0 0 1-2 0c-.57-.32-.57-.85 0-1.18a2.29 2.29 0 0 1 2 0z" class="cls-3"/><ellipse cx="156.52" cy="165.11" class="cls-3" rx="1.44" ry=".83"/><ellipse cx="161.86" cy="162.03" class="cls-3" rx="1.44" ry=".83"/><path d="M168.21 158.36c.57.32.57.85 0 1.18a2.29 2.29 0 0 1-2 0 .62.62 0 0 1 0-1.18 2.23 2.23 0 0 1 2 0z" class="cls-3"/><ellipse cx="172.53" cy="155.86" class="cls-3" rx="1.44" ry=".83"/><ellipse cx="145.85" cy="171.27" class="cls-3" rx="1.44" ry=".83"/><path d="M152.2 167.6c.57.33.57.85 0 1.18a2.29 2.29 0 0 1-2 0 .62.62 0 0 1 0-1.18 2.29 2.29 0 0 1 2 0zM120.18 179.93a.61.61 0 0 1 0 1.17 2.23 2.23 0 0 1-2 0 .62.62 0 0 1 0-1.17 2.23 2.23 0 0 1 2 0zM125.52 176.84a.62.62 0 0 1 0 1.18 2.23 2.23 0 0 1-2 0c-.57-.32-.57-.85 0-1.18a2.29 2.29 0 0 1 2 0z" class="cls-3"/><ellipse cx="129.84" cy="174.35" class="cls-3" rx="1.44" ry=".83"/><ellipse cx="135.17" cy="171.27" class="cls-3" rx="1.44" ry=".83"/><ellipse cx="140.51" cy="168.19" class="cls-3" rx="1.44" ry=".83"/><path d="M157.54 158.36a.62.62 0 0 1 0 1.18 2.29 2.29 0 0 1-2 0 .62.62 0 0 1 0-1.18 2.23 2.23 0 0 1 2 0zM162.88 155.28a.62.62 0 0 1 0 1.17 2.23 2.23 0 0 1-2 0 .61.61 0 0 1 0-1.17 2.23 2.23 0 0 1 2 0z" class="cls-3"/><ellipse cx="167.19" cy="152.78" class="cls-3" rx="1.44" ry=".83"/><path d="M146.87 164.52a.62.62 0 0 1 0 1.18 2.29 2.29 0 0 1-2 0c-.57-.33-.57-.86 0-1.18a2.23 2.23 0 0 1 2 0zM152.2 161.44c.57.32.57.85 0 1.18a2.29 2.29 0 0 1-2 0 .62.62 0 0 1 0-1.18 2.23 2.23 0 0 1 2 0zM114.85 176.84a.62.62 0 0 1 0 1.18 2.25 2.25 0 0 1-2 0 .62.62 0 0 1 0-1.18 2.31 2.31 0 0 1 2 0zM120.18 173.76c.57.33.57.86 0 1.18a2.23 2.23 0 0 1-2 0 .62.62 0 0 1 0-1.18 2.29 2.29 0 0 1 2 0zM109.46 173.73c.57.33.57.85 0 1.18a2.29 2.29 0 0 1-2 0 .62.62 0 0 1 0-1.18 2.29 2.29 0 0 1 2 0zM114.8 170.65a.62.62 0 0 1 0 1.18 2.29 2.29 0 0 1-2 0c-.57-.33-.57-.86 0-1.18a2.23 2.23 0 0 1 2 0zM104.13 170.65a.62.62 0 0 1 0 1.18 2.31 2.31 0 0 1-2 0 .62.62 0 0 1 0-1.18 2.25 2.25 0 0 1 2 0zM109.46 167.57c.57.32.57.85 0 1.18a2.29 2.29 0 0 1-2 0 .62.62 0 0 1 0-1.18 2.23 2.23 0 0 1 2 0zM98.79 167.57a.62.62 0 0 1 0 1.18 2.29 2.29 0 0 1-2 0c-.57-.33-.57-.86 0-1.18a2.23 2.23 0 0 1 2 0zM104.13 164.49a.62.62 0 0 1 0 1.18 2.31 2.31 0 0 1-2 0 .62.62 0 0 1 0-1.18 2.25 2.25 0 0 1 2 0zM93.45 164.49c.57.32.57.85 0 1.18a2.29 2.29 0 0 1-2 0 .62.62 0 0 1 0-1.18 2.23 2.23 0 0 1 2 0z" class="cls-3"/><ellipse cx="97.77" cy="162" class="cls-3" rx="1.44" ry=".83"/><path d="M166.74 145.38l-.18-10.29H81.65l.12 10v.27c.19 1.48 1.36 3 3.47 4.22L117 167.89c4.23 2.45 10.63 2.71 14.29.6l33.01-19.09c1.84-1.06 2.64-2.52 2.44-4.02z" class="cls-1"/><path d="M125 170.63a17.4 17.4 0 0 1-8.46-2.1L84.9 150.24c-2.21-1.28-3.56-3-3.82-4.71a.94.94 0 0 1 0-.49l-.13-10.68 86.47 1.43.09 9.54c.23 1.83-.8 3.55-2.8 4.7l-33.06 19.09a13.35 13.35 0 0 1-6.65 1.51zm-42.5-25.5v.15c.17 1.3 1.3 2.65 3.11 3.69l31.68 18.29c4 2.32 10.1 2.59 13.55.59l33.06-19.08c1.51-.87 2.25-2 2.09-3.3v-.08l-.17-9.57H82.39z" class="cls-3"/><path d="M164.17 139.37l-33.06 19.09c-3.66 2.11-10.06 1.85-14.29-.6l-31.68-18.29c-4.23-2.44-4.69-6.13-1-8.25l33.06-19.08c3.66-2.12 10.06-1.85 14.29.59l31.68 18.29c4.21 2.44 4.67 6.13 1 8.25z" class="cls-1"/><path d="M163.15 135.83l-31.68-18.29c-4.23-2.45-10.63-2.71-14.29-.6L84.12 136a5.71 5.71 0 0 0-1.73 1.48v4.35a8.06 8.06 0 0 0 2.74 2.42l31.68 18.29c4.23 2.44 10.63 2.71 14.29.6l33.06-19.09c3.68-2.05 3.22-5.78-1.01-8.22z" class="cls-2"/><path d="M124.91 160.6a17.36 17.36 0 0 1-8.45-2.1l-31.68-18.29c-2.46-1.42-3.87-3.35-3.87-5.3a5 5 0 0 1 2.84-4.22l33.06-19.09c3.86-2.23 10.6-2 15 .59l31.68 18.29c2.46 1.42 3.87 3.36 3.87 5.31a5 5 0 0 1-2.84 4.21l-33.06 19.09a13.35 13.35 0 0 1-6.55 1.51zm-1.53-49.07a11.91 11.91 0 0 0-5.84 1.34L84.48 132a3.56 3.56 0 0 0-2.1 2.95c0 1.41 1.14 2.88 3.13 4l31.68 18.29c4 2.32 10.1 2.59 13.56.59l33.06-19.09a3.56 3.56 0 0 0 2.1-2.94c0-1.42-1.14-2.89-3.13-4l-31.68-18.34a15.93 15.93 0 0 0-7.72-1.93z" class="cls-3"/><path d="M120.5 137.41l1.74-12.31-.14.07-22.76 13.13a4.51 4.51 0 0 0-.53.38z" class="cls-1"/><path d="M97.2 135.74l1.73-1.42a4.53 4.53 0 0 1 .64-.45l22.9-13.21 1.2-.53-.12 1.27-1.82 12.9zm24.69-13.07L102.32 134l18.12-1.07z" class="cls-3"/><path d="M125.19 140.06l-26.39 1.55a2.62 2.62 0 0 0 .32.23l18.34 10.59a6.8 6.8 0 0 0 6.13-.13l22.75-13.14c1.76-1 1.86-2.59.23-3.53L128.23 125a4.46 4.46 0 0 0-.86-.37z" class="cls-1"/><path d="M120.91 150a6.58 6.58 0 0 1-3.22-.77l-18.35-10.55a2.62 2.62 0 0 1-.32-.23l-1.54-1.2 1.87-.17 25.79-1.51 2.22-15.66.83.27a5.55 5.55 0 0 1 1 .42l18.34 10.59a2.68 2.68 0 0 1 1.53 2.29 3.05 3.05 0 0 1-1.76 2.52l-22.76 13.14a7.35 7.35 0 0 1-3.63.86zm-19.11-11.6l16.62 9.6a6.06 6.06 0 0 0 5.39-.13l22.76-13.14c.63-.37 1-.84 1-1.25s-.28-.72-.79-1l-18.24-10.53-2.12 15zM124.69 159.88v10.35l3.53-.32 4.4-1.97 33.42-19.37.7-3.19.42-8.31-37.6 22.09-4.18.72h-.69zM352 390.25a.62.62 0 0 1 0 1.18 2.23 2.23 0 0 1-2 0c-.57-.32-.57-.85 0-1.18a2.29 2.29 0 0 1 2 0zM357.32 387.17a.62.62 0 0 1 0 1.18 2.25 2.25 0 0 1-2.05 0 .62.62 0 0 1 0-1.18 2.31 2.31 0 0 1 2.05 0zM346.64 387.17c.57.33.57.85 0 1.18a2.23 2.23 0 0 1-2 0 .62.62 0 0 1 0-1.18 2.29 2.29 0 0 1 2 0zM352 384.09a.62.62 0 0 1 0 1.18 2.29 2.29 0 0 1-2 0c-.57-.33-.57-.85 0-1.18a2.23 2.23 0 0 1 2 0zM341.31 384.09a.62.62 0 0 1 0 1.18 2.31 2.31 0 0 1-2.05 0 .62.62 0 0 1 0-1.18 2.25 2.25 0 0 1 2.05 0zM346.64 381c.57.32.57.85 0 1.18a2.29 2.29 0 0 1-2 0 .62.62 0 0 1 0-1.18 2.23 2.23 0 0 1 2 0z" class="cls-3"/><ellipse cx="334.95" cy="381.6" class="cls-3" rx="1.44" ry=".83"/><ellipse cx="340.28" cy="378.52" class="cls-3" rx="1.44" ry=".83"/><path d="M336 374.85a.62.62 0 0 1 0 1.17 2.23 2.23 0 0 1-2 0 .61.61 0 0 1 0-1.17 2.23 2.23 0 0 1 2 0zM394.93 408.28a.62.62 0 0 1 0 1.18 2.29 2.29 0 0 1-2 0c-.57-.33-.57-.86 0-1.18a2.23 2.23 0 0 1 2 0zM400.27 405.2a.62.62 0 0 1 0 1.18 2.31 2.31 0 0 1-2 0 .62.62 0 0 1 0-1.18 2.25 2.25 0 0 1 2 0zM405.6 402.12c.57.32.57.85 0 1.18a2.29 2.29 0 0 1-2 0 .62.62 0 0 1 0-1.18 2.23 2.23 0 0 1 2 0zM421.61 392.87c.57.33.57.86 0 1.18a2.23 2.23 0 0 1-2 0 .62.62 0 0 1 0-1.18 2.29 2.29 0 0 1 2 0zM427 389.79a.62.62 0 0 1 0 1.18 2.23 2.23 0 0 1-2 0 .62.62 0 0 1 0-1.18 2.29 2.29 0 0 1 2 0zM432.29 386.71a.62.62 0 0 1 0 1.18 2.29 2.29 0 0 1-2 0c-.57-.33-.57-.85 0-1.18a2.23 2.23 0 0 1 2 0zM437.62 383.63c.57.32.57.85 0 1.18a2.29 2.29 0 0 1-2 0 .62.62 0 0 1 0-1.18 2.23 2.23 0 0 1 2 0zM410.94 399a.62.62 0 0 1 0 1.17 2.23 2.23 0 0 1-2 0 .61.61 0 0 1 0-1.17 2.23 2.23 0 0 1 2 0zM416.28 396a.62.62 0 0 1 0 1.18 2.23 2.23 0 0 1-2 0c-.57-.32-.57-.85 0-1.18a2.29 2.29 0 0 1 2 0zM384.26 408.28a.62.62 0 0 1 0 1.18 2.31 2.31 0 0 1-2.05 0 .62.62 0 0 1 0-1.18 2.25 2.25 0 0 1 2.05 0zM389.59 405.2c.57.32.57.85 0 1.18a2.29 2.29 0 0 1-2 0 .62.62 0 0 1 0-1.18 2.23 2.23 0 0 1 2 0zM394.93 402.12a.62.62 0 0 1 0 1.18 2.29 2.29 0 0 1-2 0c-.57-.33-.57-.86 0-1.18a2.23 2.23 0 0 1 2 0zM400.27 399a.62.62 0 0 1 0 1.17 2.25 2.25 0 0 1-2 0 .62.62 0 0 1 0-1.17 2.25 2.25 0 0 1 2 0zM405.6 396c.57.33.57.86 0 1.18a2.23 2.23 0 0 1-2 0 .62.62 0 0 1 0-1.18 2.29 2.29 0 0 1 2 0zM421.61 386.71c.57.33.57.85 0 1.18a2.29 2.29 0 0 1-2 0 .62.62 0 0 1 0-1.18 2.29 2.29 0 0 1 2 0z" class="cls-3"/><ellipse cx="425.93" cy="384.22" class="cls-3" rx="1.44" ry=".83"/><ellipse cx="431.27" cy="381.14" class="cls-3" rx="1.44" ry=".83"/><path d="M437.62 377.47c.57.32.57.85 0 1.18a2.29 2.29 0 0 1-2 0 .62.62 0 0 1 0-1.18 2.23 2.23 0 0 1 2 0zM410.94 392.87a.62.62 0 0 1 0 1.18 2.23 2.23 0 0 1-2 0c-.57-.32-.57-.85 0-1.18a2.29 2.29 0 0 1 2 0zM416.28 389.79a.62.62 0 0 1 0 1.18 2.23 2.23 0 0 1-2 0c-.57-.33-.57-.85 0-1.18a2.29 2.29 0 0 1 2 0zM378.92 405.2a.62.62 0 0 1 0 1.18 2.29 2.29 0 0 1-2 0c-.57-.33-.57-.86 0-1.18a2.23 2.23 0 0 1 2 0zM384.26 402.12a.62.62 0 0 1 0 1.18 2.31 2.31 0 0 1-2.05 0 .62.62 0 0 1 0-1.18 2.25 2.25 0 0 1 2.05 0zM389.59 399a.61.61 0 0 1 0 1.17 2.23 2.23 0 0 1-2 0 .62.62 0 0 1 0-1.17 2.23 2.23 0 0 1 2 0zM394.93 396a.62.62 0 0 1 0 1.18 2.23 2.23 0 0 1-2 0c-.57-.32-.57-.85 0-1.18a2.29 2.29 0 0 1 2 0z" class="cls-3"/><ellipse cx="399.25" cy="393.46" class="cls-3" rx="1.44" ry=".83"/><path d="M405.6 389.79c.57.33.57.85 0 1.18a2.23 2.23 0 0 1-2 0 .62.62 0 0 1 0-1.18 2.29 2.29 0 0 1 2 0zM421.61 380.55c.57.32.57.85 0 1.18a2.29 2.29 0 0 1-2 0 .62.62 0 0 1 0-1.18 2.23 2.23 0 0 1 2 0zM427 377.47a.62.62 0 0 1 0 1.18 2.29 2.29 0 0 1-2 0 .62.62 0 0 1 0-1.18 2.23 2.23 0 0 1 2 0zM432.29 374.39a.62.62 0 0 1 0 1.17 2.23 2.23 0 0 1-2 0 .61.61 0 0 1 0-1.17 2.23 2.23 0 0 1 2 0zM410.94 386.71a.62.62 0 0 1 0 1.18 2.29 2.29 0 0 1-2 0c-.57-.33-.57-.85 0-1.18a2.29 2.29 0 0 1 2 0z" class="cls-3"/><ellipse cx="415.26" cy="384.22" class="cls-3" rx="1.44" ry=".83"/><path d="M373.54 402.08a.62.62 0 0 1 0 1.18 2.25 2.25 0 0 1-2.05 0 .62.62 0 0 1 0-1.18 2.31 2.31 0 0 1 2.05 0zM378.87 399c.57.33.57.86 0 1.18a2.23 2.23 0 0 1-2 0 .62.62 0 0 1 0-1.18 2.29 2.29 0 0 1 2 0zM389.55 392.84a.62.62 0 0 1 0 1.18 2.31 2.31 0 0 1-2.05 0c-.56-.33 1.5-1.5 2.05-1.18zM394.88 389.76c.57.32.57.85 0 1.18a2.29 2.29 0 0 1-2 0c-.6-.33 1.44-1.51 2-1.18zM400.22 386.68a.62.62 0 0 1 0 1.18 2.29 2.29 0 0 1-2 0c-.61-.33 1.44-1.51 2-1.18zM405.56 383.6a.62.62 0 0 1 0 1.18 2.29 2.29 0 0 1-2 0c-.56-.33 1.44-1.51 2-1.18z" class="cls-3"/><ellipse cx="367.18" cy="399.59" class="cls-3" rx="1.44" ry=".83"/><path d="M373.54 395.92a.62.62 0 0 1 0 1.18 2.25 2.25 0 0 1-2.05 0 .62.62 0 0 1 0-1.18 2.31 2.31 0 0 1 2.05 0zM362.86 395.92c.57.33.57.85 0 1.18a2.23 2.23 0 0 1-2 0 .62.62 0 0 1 0-1.18 2.29 2.29 0 0 1 2 0zM368.2 392.84a.62.62 0 0 1 0 1.18 2.29 2.29 0 0 1-2 0c-.57-.33-.57-.85 0-1.18a2.29 2.29 0 0 1 2 0zM357.52 392.84c.57.33.57.85 0 1.18a2.29 2.29 0 0 1-2 0 .62.62 0 0 1 0-1.18 2.29 2.29 0 0 1 2 0zM362.86 389.76c.57.32.57.85 0 1.18a2.29 2.29 0 0 1-2 0 .62.62 0 0 1 0-1.18 2.23 2.23 0 0 1 2 0z" class="cls-3"/><path d="M430.52 367.84l-.2-11.59h-95.59l.12 11.29v.3c.22 1.67 1.54 3.39 3.91 4.76l35.66 20.59c4.77 2.75 12 3.05 16.09.66l37.22-21.48c2.12-1.2 3.01-2.84 2.79-4.53z" class="cls-1"/><path d="M383.57 396.18a19.45 19.45 0 0 1-9.47-2.36l-35.67-20.59c-2.31-1.33-3.78-3.05-4.19-4.87l-.11-.9-.13-11.94 97.15 1.48.11 10.75c.24 2-.89 3.92-3.12 5.21l-37.22 21.49a15.06 15.06 0 0 1-7.35 1.73zm-48-28.61v.17c.2 1.52 1.46 3 3.54 4.22l35.67 20.59c4.55 2.63 11.44 2.93 15.36.67l37.22-21.49c1.73-1 2.58-2.35 2.39-3.8v-.08L429.6 357h-94.13z" class="cls-3"/><path d="M427.63 361.07l-37.22 21.49c-4.12 2.38-11.33 2.08-16.09-.66l-35.66-20.6c-4.77-2.75-5.28-6.9-1.16-9.29l37.22-21.48c4.12-2.39 11.33-2.09 16.09.66l35.67 20.59c4.76 2.75 5.28 6.91 1.15 9.29z" class="cls-1"/><path d="M426.56 357.16l-35.67-20.59c-4.76-2.75-12-3.05-16.09-.67l-37.22 21.49a6.34 6.34 0 0 0-2.05 1.81v4.58a9 9 0 0 0 3.22 2.9l35.66 20.59c4.76 2.75 12 3.05 16.09.67l37.22-21.49c4.12-2.38 3.6-6.54-1.16-9.29z" class="cls-2"/><path d="M383.42 384.89a19.44 19.44 0 0 1-9.46-2.36l-35.67-20.59c-2.74-1.58-4.31-3.73-4.31-5.89 0-1.84 1.12-3.5 3.15-4.67l37.22-21.49c4.32-2.49 11.87-2.19 16.83.67l35.66 20.59c2.74 1.58 4.31 3.73 4.31 5.89 0 1.84-1.12 3.49-3.15 4.67l-37.22 21.49a15.07 15.07 0 0 1-7.36 1.69zm-1.71-55.25a13.47 13.47 0 0 0-6.62 1.52l-37.22 21.49a4.12 4.12 0 0 0-2.42 3.4c0 1.62 1.3 3.31 3.57 4.62l35.67 20.59c4.55 2.63 11.44 2.93 15.35.67l37.22-21.49a4.12 4.12 0 0 0 2.42-3.4c0-1.63-1.3-3.31-3.57-4.62l-35.67-20.59a17.87 17.87 0 0 0-8.73-2.19z" class="cls-3"/><path d="M383.36 360.73l-4.12-13.19a31.23 31.23 0 0 0-12.3 3.7c-9.07 5.24-9.07 13.73 0 19s23.77 5.23 32.84 0c8.78-5.07 9-13.18.82-18.44z" class="cls-1"/><path d="M401.82 346.47c-.26-.16-.5-.33-.77-.49-5.25-3-12.51-4.19-19.3-3.48l3.87 12.39z" class="cls-1"/><path d="M384.44 352.16l-4.39-14.09.89-.09c7.18-.74 14.57.59 19.74 3.58l.57.36 1.3.83zm-2.44-12.8l3.34 10.69 14.28-7.42c-4.7-2.58-11.19-3.78-17.62-3.27zM382.65 384.48v10.98h4.89l41.31-23.9 1.71-2.84v-9.48l-40.73 24.2-4.85 1.13-2.33-.09z" class="cls-3"/><path d="M382.62 371.06c-6.07 0-12.15-1.33-16.78-4s-7.17-6.27-7.17-10.12 2.55-7.45 7.17-10.12a32.05 32.05 0 0 1 12.59-3.8l.6-.06 4 12.93 16.84-8.75.35.23c4.15 2.66 6.39 6.13 6.31 9.79s-2.63 7.28-7.16 9.89-10.67 4.01-16.75 4.01zM378 344.55a30.13 30.13 0 0 0-11.42 3.54c-4.15 2.4-6.43 5.54-6.43 8.85s2.28 6.45 6.43 8.85c8.86 5.11 23.26 5.11 32.11 0 4.07-2.35 6.35-5.43 6.42-8.67.07-3-1.8-5.95-5.27-8.29L382.19 358zM492.41 66.11l12.03-6.9 1.17 9.84v50.77l-2.3 2.86-10.68 6.13 1.08-4.06-.31-55.59-.99-3.05zM252.86 228a.62.62 0 0 1 0 1.18 2.23 2.23 0 0 1-2 0c-.57-.32-.57-.85 0-1.18a2.29 2.29 0 0 1 2 0zM258.19 224.93c.57.33.57.86 0 1.18a2.23 2.23 0 0 1-2 0 .62.62 0 0 1 0-1.18 2.29 2.29 0 0 1 2 0zM263.53 221.85a.62.62 0 0 1 0 1.18 2.23 2.23 0 0 1-2 0 .62.62 0 0 1 0-1.18 2.29 2.29 0 0 1 2 0zM268.87 218.77a.62.62 0 0 1 0 1.18 2.29 2.29 0 0 1-2 0c-.57-.33-.57-.85 0-1.18a2.29 2.29 0 0 1 2 0zM247.52 224.93a.62.62 0 0 1 0 1.18 2.23 2.23 0 0 1-2 0 .62.62 0 0 1 0-1.18 2.29 2.29 0 0 1 2 0z" class="cls-3"/><ellipse cx="251.84" cy="222.44" class="cls-3" rx="1.44" ry=".83"/><path d="M258.19 218.77c.57.33.57.85 0 1.18a2.29 2.29 0 0 1-2 0 .62.62 0 0 1 0-1.18 2.29 2.29 0 0 1 2 0zM263.53 215.69a.62.62 0 0 1 0 1.18 2.29 2.29 0 0 1-2 0 .62.62 0 0 1 0-1.18 2.23 2.23 0 0 1 2 0z" class="cls-3"/><ellipse cx="241.16" cy="222.44" class="cls-3" rx="1.44" ry=".83"/><path d="M247.52 218.77a.62.62 0 0 1 0 1.18 2.29 2.29 0 0 1-2 0 .62.62 0 0 1 0-1.18 2.29 2.29 0 0 1 2 0zM252.86 215.69a.62.62 0 0 1 0 1.18 2.29 2.29 0 0 1-2 0c-.57-.33-.57-.86 0-1.18a2.23 2.23 0 0 1 2 0zM258.19 212.61c.57.32.57.85 0 1.18a2.29 2.29 0 0 1-2 0 .62.62 0 0 1 0-1.18 2.23 2.23 0 0 1 2 0zM234.81 218.77a2.29 2.29 0 0 1 2 0 .62.62 0 0 1 0 1.18 2.29 2.29 0 0 1-2 0c-.57-.33-.57-.85 0-1.18z" class="cls-3"/><ellipse cx="241.16" cy="216.28" class="cls-3" rx="1.44" ry=".83"/><path d="M247.52 212.61a.62.62 0 0 1 0 1.18 2.29 2.29 0 0 1-2 0 .62.62 0 0 1 0-1.18 2.23 2.23 0 0 1 2 0zM252.86 209.53a.62.62 0 0 1 0 1.18 2.29 2.29 0 0 1-2 0c-.57-.33-.57-.86 0-1.18a2.23 2.23 0 0 1 2 0zM234.81 212.61a2.23 2.23 0 0 1 2 0 .62.62 0 0 1 0 1.18 2.29 2.29 0 0 1-2 0c-.57-.33-.57-.86 0-1.18zM242.18 209.53c.57.32.57.85 0 1.18a2.29 2.29 0 0 1-2 0 .62.62 0 0 1 0-1.18 2.23 2.23 0 0 1 2 0z" class="cls-3"/><ellipse cx="235.78" cy="207" class="cls-3" rx="1.44" ry=".83"/><path d="M311.86 298.45c.57.33.57.86 0 1.18a2.23 2.23 0 0 1-2 0 .62.62 0 0 1 0-1.18 2.29 2.29 0 0 1 2 0zM317.2 295.37a.62.62 0 0 1 0 1.18 2.23 2.23 0 0 1-2 0 .62.62 0 0 1 0-1.18 2.29 2.29 0 0 1 2 0zM322.54 292.29a.62.62 0 0 1 0 1.18 2.23 2.23 0 0 1-2 0c-.57-.33-.57-.85 0-1.18a2.29 2.29 0 0 1 2 0zM327.87 289.21c.57.33.57.85 0 1.18a2.29 2.29 0 0 1-2 0 .62.62 0 0 1 0-1.18 2.29 2.29 0 0 1 2 0z" class="cls-3"/><ellipse cx="332.19" cy="286.72" class="cls-3" rx="1.44" ry=".83"/><path d="M338.55 283.05a.62.62 0 0 1 0 1.18 2.29 2.29 0 0 1-2 0c-.57-.33-.57-.86 0-1.18a2.23 2.23 0 0 1 2 0zM343.88 280c.57.32.57.85 0 1.18a2.29 2.29 0 0 1-2 0 .62.62 0 0 1 0-1.18 2.23 2.23 0 0 1 2 0zM349.22 276.89a.61.61 0 0 1 0 1.17 2.23 2.23 0 0 1-2 0 .62.62 0 0 1 0-1.17 2.23 2.23 0 0 1 2 0z" class="cls-3"/><ellipse cx="353.54" cy="274.39" class="cls-3" rx="1.44" ry=".83"/><ellipse cx="358.87" cy="271.31" class="cls-3" rx="1.44" ry=".83"/><path d="M365.23 267.64c.57.33.57.85 0 1.18a2.23 2.23 0 0 1-2 0 .62.62 0 0 1 0-1.18 2.29 2.29 0 0 1 2 0zM306.53 295.37a.62.62 0 0 1 0 1.18 2.23 2.23 0 0 1-2 0c-.57-.32-.57-.85 0-1.18a2.29 2.29 0 0 1 2 0zM311.86 292.29c.57.33.57.85 0 1.18a2.23 2.23 0 0 1-2 0 .62.62 0 0 1 0-1.18 2.29 2.29 0 0 1 2 0zM317.2 289.21a.62.62 0 0 1 0 1.18 2.29 2.29 0 0 1-2 0 .62.62 0 0 1 0-1.18 2.29 2.29 0 0 1 2 0z" class="cls-3"/><ellipse cx="321.52" cy="286.72" class="cls-3" rx="1.44" ry=".83"/><ellipse cx="326.85" cy="283.64" class="cls-3" rx="1.44" ry=".83"/><ellipse cx="332.19" cy="280.56" class="cls-3" rx="1.44" ry=".83"/><ellipse cx="337.53" cy="277.47" class="cls-3" rx="1.44" ry=".83"/><path d="M343.88 273.8c.57.33.57.86 0 1.18a2.23 2.23 0 0 1-2 0 .62.62 0 0 1 0-1.18 2.29 2.29 0 0 1 2 0zM349.22 270.72c.57.33.57.86 0 1.18a2.23 2.23 0 0 1-2 0 .62.62 0 0 1 0-1.18 2.29 2.29 0 0 1 2 0zM354.56 267.64a.62.62 0 0 1 0 1.18 2.23 2.23 0 0 1-2 0c-.57-.33-.57-.85 0-1.18a2.29 2.29 0 0 1 2 0zM359.9 264.56a.62.62 0 0 1 0 1.18 2.31 2.31 0 0 1-2 0 .62.62 0 0 1 0-1.18 2.31 2.31 0 0 1 2 0z" class="cls-3"/><ellipse cx="300.17" cy="292.88" class="cls-3" rx="1.44" ry=".83"/><ellipse cx="305.51" cy="289.8" class="cls-3" rx="1.44" ry=".83"/><path d="M311.86 286.13c.57.32.57.85 0 1.18a2.29 2.29 0 0 1-2 0 .62.62 0 0 1 0-1.18 2.23 2.23 0 0 1 2 0zM317.2 283.05a.62.62 0 0 1 0 1.18 2.29 2.29 0 0 1-2 0 .62.62 0 0 1 0-1.18 2.23 2.23 0 0 1 2 0zM322.54 280a.62.62 0 0 1 0 1.18 2.29 2.29 0 0 1-2 0c-.57-.33-.57-.86 0-1.18a2.23 2.23 0 0 1 2 0zM327.87 276.89a.61.61 0 0 1 0 1.17 2.23 2.23 0 0 1-2 0 .62.62 0 0 1 0-1.17 2.23 2.23 0 0 1 2 0zM333.21 273.8a.62.62 0 0 1 0 1.18 2.23 2.23 0 0 1-2 0 .62.62 0 0 1 0-1.18 2.29 2.29 0 0 1 2 0zM338.55 270.72a.62.62 0 0 1 0 1.18 2.23 2.23 0 0 1-2 0c-.57-.32-.57-.85 0-1.18a2.29 2.29 0 0 1 2 0zM343.88 267.64c.57.33.57.85 0 1.18a2.23 2.23 0 0 1-2 0 .62.62 0 0 1 0-1.18 2.29 2.29 0 0 1 2 0zM349.22 264.56c.57.33.57.85 0 1.18a2.29 2.29 0 0 1-2 0 .62.62 0 0 1 0-1.18 2.29 2.29 0 0 1 2 0zM354.56 261.48a.62.62 0 0 1 0 1.18 2.29 2.29 0 0 1-2 0c-.57-.33-.57-.86 0-1.18a2.23 2.23 0 0 1 2 0zM295.85 289.21c.57.33.57.85 0 1.18a2.29 2.29 0 0 1-2 0 .62.62 0 0 1 0-1.18 2.29 2.29 0 0 1 2 0zM301.19 286.13a.62.62 0 0 1 0 1.18 2.29 2.29 0 0 1-2 0 .62.62 0 0 1 0-1.18 2.23 2.23 0 0 1 2 0zM306.53 283.05a.62.62 0 0 1 0 1.18 2.29 2.29 0 0 1-2 0c-.57-.33-.57-.86 0-1.18a2.23 2.23 0 0 1 2 0zM311.86 280c.57.32.57.85 0 1.18a2.29 2.29 0 0 1-2 0 .62.62 0 0 1 0-1.18 2.23 2.23 0 0 1 2 0z" class="cls-3"/><ellipse cx="316.18" cy="277.47" class="cls-3" rx="1.44" ry=".83"/><path d="M322.54 273.8a.62.62 0 0 1 0 1.18 2.23 2.23 0 0 1-2 0c-.57-.32-.57-.85 0-1.18a2.29 2.29 0 0 1 2 0zM327.87 270.72c.57.33.57.86 0 1.18a2.23 2.23 0 0 1-2 0 .62.62 0 0 1 0-1.18 2.29 2.29 0 0 1 2 0z" class="cls-3"/><ellipse cx="332.19" cy="268.23" class="cls-3" rx="1.44" ry=".83"/><path d="M338.55 264.56a.62.62 0 0 1 0 1.18 2.29 2.29 0 0 1-2 0c-.57-.33-.57-.85 0-1.18a2.29 2.29 0 0 1 2 0zM343.88 261.48c.57.32.57.85 0 1.18a2.29 2.29 0 0 1-2 0 .62.62 0 0 1 0-1.18 2.23 2.23 0 0 1 2 0zM349.22 259.58a2.29 2.29 0 0 1-2 0 .62.62 0 0 1 0-1.18c.52-.33 2.57.85 2 1.18zM290.52 286.13a.62.62 0 0 1 0 1.18 2.29 2.29 0 0 1-2 0c-.57-.33-.57-.86 0-1.18a2.23 2.23 0 0 1 2 0zM295.85 283.05c.57.32.57.85 0 1.18a2.29 2.29 0 0 1-2 0 .62.62 0 0 1 0-1.18 2.23 2.23 0 0 1 2 0z" class="cls-3"/><ellipse cx="300.17" cy="280.56" class="cls-3" rx="1.44" ry=".83"/><path d="M306.53 276.89a.62.62 0 0 1 0 1.17 2.23 2.23 0 0 1-2 0 .61.61 0 0 1 0-1.17 2.23 2.23 0 0 1 2 0zM311.86 273.8c.57.33.57.86 0 1.18a2.23 2.23 0 0 1-2 0 .62.62 0 0 1 0-1.18 2.29 2.29 0 0 1 2 0zM317.2 270.72a.62.62 0 0 1 0 1.18 2.23 2.23 0 0 1-2 0 .62.62 0 0 1 0-1.18 2.29 2.29 0 0 1 2 0z" class="cls-3"/><ellipse cx="321.52" cy="268.23" class="cls-3" rx="1.44" ry=".83"/><path d="M327.87 264.56c.57.33.57.85 0 1.18a2.29 2.29 0 0 1-2 0 .62.62 0 0 1 0-1.18 2.29 2.29 0 0 1 2 0zM333.21 261.48c.57.32.57.85 0 1.18a2.29 2.29 0 0 1-2 0 .62.62 0 0 1 0-1.18 2.23 2.23 0 0 1 2 0zM338.55 258.4a.62.62 0 0 1 0 1.18 2.29 2.29 0 0 1-2 0c-.57-.33-.57-.86 0-1.18a2.23 2.23 0 0 1 2 0z" class="cls-3"/><ellipse cx="284.11" cy="283.6" class="cls-3" rx="1.44" ry=".83"/><path d="M290.47 279.93a.62.62 0 0 1 0 1.18 2.23 2.23 0 0 1-2 0 .62.62 0 0 1 0-1.18 2.29 2.29 0 0 1 2 0z" class="cls-3"/><ellipse cx="294.79" cy="277.44" class="cls-3" rx="1.44" ry=".83"/><path d="M301.14 273.77c.57.33.57.85 0 1.18a2.23 2.23 0 0 1-2 0 .62.62 0 0 1 0-1.18 2.29 2.29 0 0 1 2 0zM306.48 270.69a.62.62 0 0 1 0 1.18 2.29 2.29 0 0 1-2 0 .62.62 0 0 1 0-1.18 2.29 2.29 0 0 1 2 0zM311.82 267.61a.62.62 0 0 1 0 1.18 2.29 2.29 0 0 1-2 0c-.57-.33-.57-.86 0-1.18a2.23 2.23 0 0 1 2 0z" class="cls-3"/><ellipse cx="316.13" cy="265.12" class="cls-3" rx="1.44" ry=".83"/><ellipse cx="321.47" cy="262.04" class="cls-3" rx="1.44" ry=".83"/><ellipse cx="326.81" cy="258.95" class="cls-3" rx="1.44" ry=".83"/><ellipse cx="332.14" cy="255.87" class="cls-3" rx="1.44" ry=".83"/><path d="M279.8 279.93a.62.62 0 0 1 0 1.18 2.23 2.23 0 0 1-2 0c-.57-.32-.57-.85 0-1.18a2.29 2.29 0 0 1 2 0z" class="cls-3"/><ellipse cx="284.11" cy="277.44" class="cls-3" rx="1.44" ry=".83"/><path d="M290.47 273.77a.62.62 0 0 1 0 1.18 2.23 2.23 0 0 1-2 0 .62.62 0 0 1 0-1.18 2.29 2.29 0 0 1 2 0z" class="cls-3"/><ellipse cx="294.79" cy="271.28" class="cls-3" rx="1.44" ry=".83"/><path d="M301.14 267.61c.57.32.57.85 0 1.18a2.29 2.29 0 0 1-2 0 .62.62 0 0 1 0-1.18 2.23 2.23 0 0 1 2 0z" class="cls-3"/><ellipse cx="305.46" cy="265.12" class="cls-3" rx="1.44" ry=".83"/><path d="M311.82 261.45a.62.62 0 0 1 0 1.18 2.29 2.29 0 0 1-2 0c-.57-.33-.57-.86 0-1.18a2.23 2.23 0 0 1 2 0z" class="cls-3"/><ellipse cx="316.13" cy="258.95" class="cls-3" rx="1.44" ry=".83"/><path d="M322.49 255.28c.57.33.57.86 0 1.18a2.23 2.23 0 0 1-2 0 .62.62 0 0 1 0-1.18 2.29 2.29 0 0 1 2 0z" class="cls-3"/><ellipse cx="326.81" cy="252.79" class="cls-3" rx="1.44" ry=".83"/><path d="M274.46 276.85a.62.62 0 0 1 0 1.18 2.23 2.23 0 0 1-2 0c-.57-.32-.57-.85 0-1.18a2.29 2.29 0 0 1 2 0zM279.8 273.77a.62.62 0 0 1 0 1.18 2.23 2.23 0 0 1-2 0c-.57-.33-.57-.85 0-1.18a2.29 2.29 0 0 1 2 0z" class="cls-3"/><ellipse cx="284.11" cy="271.28" class="cls-3" rx="1.44" ry=".83"/><path d="M290.47 267.61a.62.62 0 0 1 0 1.18 2.29 2.29 0 0 1-2 0 .62.62 0 0 1 0-1.18 2.23 2.23 0 0 1 2 0z" class="cls-3"/><ellipse cx="294.79" cy="265.12" class="cls-3" rx="1.44" ry=".83"/><path d="M301.14 261.45c.57.32.57.85 0 1.18a2.29 2.29 0 0 1-2 0 .62.62 0 0 1 0-1.18 2.23 2.23 0 0 1 2 0zM306.48 258.37a.62.62 0 0 1 0 1.17 2.23 2.23 0 0 1-2 0 .62.62 0 0 1 0-1.17 2.23 2.23 0 0 1 2 0zM311.82 255.28a.62.62 0 0 1 0 1.18 2.23 2.23 0 0 1-2 0c-.57-.32-.57-.85 0-1.18a2.29 2.29 0 0 1 2 0zM317.15 252.2c.57.33.57.86 0 1.18a2.23 2.23 0 0 1-2 0 .62.62 0 0 1 0-1.18 2.29 2.29 0 0 1 2 0zM322.49 249.12c.57.33.57.86 0 1.18a2.23 2.23 0 0 1-2 0 .62.62 0 0 1 0-1.18 2.29 2.29 0 0 1 2 0zM274.46 270.69a.62.62 0 0 1 0 1.18 2.29 2.29 0 0 1-2 0c-.57-.33-.57-.85 0-1.18a2.29 2.29 0 0 1 2 0zM279.8 267.61a.62.62 0 0 1 0 1.18 2.29 2.29 0 0 1-2 0c-.57-.33-.57-.85 0-1.18a2.23 2.23 0 0 1 2 0zM293.77 258.37a2.23 2.23 0 0 1 2 0 .62.62 0 0 1 0 1.17 2.23 2.23 0 0 1-2 0 .61.61 0 0 1 0-1.17c.56-.37-.57.32 0 0zM301.14 255.28c.57.33.57.86 0 1.18a2.23 2.23 0 0 1-2 0 .62.62 0 0 1 0-1.18 2.29 2.29 0 0 1 2 0zM306.48 252.2a.62.62 0 0 1 0 1.18 2.23 2.23 0 0 1-2 0 .62.62 0 0 1 0-1.18 2.29 2.29 0 0 1 2 0zM311.82 249.12a.62.62 0 0 1 0 1.18 2.23 2.23 0 0 1-2 0c-.57-.32-.57-.85 0-1.18a2.29 2.29 0 0 1 2 0zM317.15 247.22a2.29 2.29 0 0 1-2 0 .62.62 0 0 1 0-1.18c.53-.32 2.57.85 2 1.18zM295.81 252.2a.62.62 0 0 1 0 1.18 2.23 2.23 0 0 1-2 0c-.57-.32-.57-.85 0-1.18a2.29 2.29 0 0 1 2 0zM301.14 249.12c.57.33.57.86 0 1.18a2.23 2.23 0 0 1-2 0 .62.62 0 0 1 0-1.18 2.29 2.29 0 0 1 2 0zM306.48 246a.62.62 0 0 1 0 1.18 2.29 2.29 0 0 1-2 0 .62.62 0 0 1 0-1.18 2.29 2.29 0 0 1 2 0zM311.82 244.14a2.29 2.29 0 0 1-2 0c-.57-.33-.57-.85 0-1.18a2.23 2.23 0 0 1 2 0 .62.62 0 0 1 0 1.18zM290.47 249.12a.62.62 0 0 1 0 1.18 2.23 2.23 0 0 1-2 0 .62.62 0 0 1 0-1.18 2.29 2.29 0 0 1 2 0zM295.81 246a.62.62 0 0 1 0 1.18 2.29 2.29 0 0 1-2 0c-.57-.33-.57-.85 0-1.18a2.29 2.29 0 0 1 2 0zM301.14 243c.57.33.57.85 0 1.18a2.29 2.29 0 0 1-2 0 .62.62 0 0 1 0-1.18 2.23 2.23 0 0 1 2 0zM306.48 239.88a.62.62 0 0 1 0 1.18 2.29 2.29 0 0 1-2 0 .62.62 0 0 1 0-1.18 2.23 2.23 0 0 1 2 0zM285.13 246c.57.33.57.85 0 1.18a2.29 2.29 0 0 1-2 0 .62.62 0 0 1 0-1.18 2.29 2.29 0 0 1 2 0z" class="cls-3"/><ellipse cx="289.45" cy="243.55" class="cls-3" rx="1.44" ry=".83"/><path d="M295.81 239.88a.62.62 0 0 1 0 1.18 2.29 2.29 0 0 1-2 0c-.57-.33-.57-.86 0-1.18a2.23 2.23 0 0 1 2 0z" class="cls-3"/><ellipse cx="300.12" cy="237.39" class="cls-3" rx="1.44" ry=".83"/><path d="M279.8 243a.62.62 0 0 1 0 1.18 2.29 2.29 0 0 1-2 0c-.57-.33-.57-.85 0-1.18a2.23 2.23 0 0 1 2 0zM285.13 239.88c.57.32.57.85 0 1.18a2.29 2.29 0 0 1-2 0 .62.62 0 0 1 0-1.18 2.23 2.23 0 0 1 2 0zM290.47 236.8a.62.62 0 0 1 0 1.18 2.29 2.29 0 0 1-2 0 .62.62 0 0 1 0-1.18 2.23 2.23 0 0 1 2 0zM295.81 233.72a.62.62 0 0 1 0 1.17 2.23 2.23 0 0 1-2 0 .61.61 0 0 1 0-1.17 2.23 2.23 0 0 1 2 0zM274.41 239.85a.61.61 0 0 1 0 1.17 2.23 2.23 0 0 1-2 0 .62.62 0 0 1 0-1.17 2.23 2.23 0 0 1 2 0zM279.75 236.76a.62.62 0 0 1 0 1.18 2.23 2.23 0 0 1-2 0 .62.62 0 0 1 0-1.18 2.29 2.29 0 0 1 2 0zM285.09 233.68a.62.62 0 0 1 0 1.18 2.23 2.23 0 0 1-2 0c-.57-.32-.57-.85 0-1.18a2.29 2.29 0 0 1 2 0zM290.42 230.6c.57.33.57.86 0 1.18a2.23 2.23 0 0 1-2 0 .62.62 0 0 1 0-1.18 2.29 2.29 0 0 1 2 0zM269.08 236.76a.62.62 0 0 1 0 1.18 2.23 2.23 0 0 1-2 0c-.57-.32-.57-.85 0-1.18a2.29 2.29 0 0 1 2 0z" class="cls-3"/><ellipse cx="273.39" cy="234.27" class="cls-3" rx="1.44" ry=".83"/><path d="M279.75 230.6a.62.62 0 0 1 0 1.18 2.23 2.23 0 0 1-2 0 .62.62 0 0 1 0-1.18 2.29 2.29 0 0 1 2 0z" class="cls-3"/><ellipse cx="284.07" cy="228.11" class="cls-3" rx="1.44" ry=".83"/><path d="M263.74 233.68a.62.62 0 0 1 0 1.18 2.23 2.23 0 0 1-2 0 .62.62 0 0 1 0-1.18 2.29 2.29 0 0 1 2 0zM269.08 230.6a.62.62 0 0 1 0 1.18 2.23 2.23 0 0 1-2 0c-.57-.32-.57-.85 0-1.18a2.29 2.29 0 0 1 2 0zM274.41 227.52c.57.33.57.85 0 1.18a2.23 2.23 0 0 1-2 0 .62.62 0 0 1 0-1.18 2.29 2.29 0 0 1 2 0zM279.75 224.44a.62.62 0 0 1 0 1.18 2.29 2.29 0 0 1-2 0 .62.62 0 0 1 0-1.18 2.23 2.23 0 0 1 2 0zM258.4 230.6c.57.33.57.86 0 1.18a2.23 2.23 0 0 1-2 0 .62.62 0 0 1 0-1.18 2.29 2.29 0 0 1 2 0zM263.74 227.52a.62.62 0 0 1 0 1.18 2.23 2.23 0 0 1-2 0 .62.62 0 0 1 0-1.18 2.29 2.29 0 0 1 2 0zM269.08 224.44a.62.62 0 0 1 0 1.18 2.29 2.29 0 0 1-2 0c-.57-.33-.57-.85 0-1.18a2.23 2.23 0 0 1 2 0zM274.41 221.36c.57.32.57.85 0 1.18a2.29 2.29 0 0 1-2 0 .62.62 0 0 1 0-1.18 2.23 2.23 0 0 1 2 0c.59.32-.56-.36 0 0zM445.43 326.1c.57.33.57.86 0 1.18a2.23 2.23 0 0 1-2 0 .62.62 0 0 1 0-1.18 2.29 2.29 0 0 1 2 0zM450.77 323c.57.33.57.85 0 1.18a2.23 2.23 0 0 1-2 0 .62.62 0 0 1 0-1.18 2.29 2.29 0 0 1 2 0zM456.11 319.94a.62.62 0 0 1 0 1.18 2.29 2.29 0 0 1-2 0c-.57-.33-.57-.85 0-1.18a2.23 2.23 0 0 1 2 0z" class="cls-3"/><ellipse cx="460.42" cy="317.45" class="cls-3" rx="1.44" ry=".83"/><ellipse cx="433.74" cy="326.69" class="cls-3" rx="1.44" ry=".83"/><path d="M440.1 323a.62.62 0 0 1 0 1.18 2.23 2.23 0 0 1-2 0c-.57-.33-.57-.85 0-1.18a2.29 2.29 0 0 1 2 0zM445.43 319.94c.57.33.57.85 0 1.18a2.29 2.29 0 0 1-2 0 .62.62 0 0 1 0-1.18 2.23 2.23 0 0 1 2 0zM450.77 316.86c.57.32.57.85 0 1.18a2.29 2.29 0 0 1-2 0 .62.62 0 0 1 0-1.18 2.23 2.23 0 0 1 2 0zM456.11 313.78a.62.62 0 0 1 0 1.18 2.29 2.29 0 0 1-2 0c-.57-.33-.57-.86 0-1.18a2.23 2.23 0 0 1 2 0zM461.45 310.7a.62.62 0 0 1 0 1.18 2.31 2.31 0 0 1-2.05 0 .62.62 0 0 1 0-1.18 2.25 2.25 0 0 1 2.05 0zM422.05 327.28c-.57-.32-.57-.85 0-1.18a2.29 2.29 0 0 1 2 0 .62.62 0 0 1 0 1.18 2.23 2.23 0 0 1-2 0c-.57-.28.56.33 0 0zM429.42 323c.57.33.57.85 0 1.18a2.23 2.23 0 0 1-2 0 .62.62 0 0 1 0-1.18 2.29 2.29 0 0 1 2 0zM434.76 319.94a.62.62 0 0 1 0 1.18 2.29 2.29 0 0 1-2 0 .62.62 0 0 1 0-1.18 2.29 2.29 0 0 1 2 0z" class="cls-3"/><ellipse cx="439.08" cy="317.45" class="cls-3" rx="1.44" ry=".83"/><ellipse cx="444.41" cy="314.37" class="cls-3" rx="1.44" ry=".83"/><path d="M450.77 310.7c.57.32.57.85 0 1.18a2.29 2.29 0 0 1-2 0 .62.62 0 0 1 0-1.18 2.23 2.23 0 0 1 2 0zM456.11 307.62a.62.62 0 0 1 0 1.17 2.23 2.23 0 0 1-2 0 .61.61 0 0 1 0-1.17 2.23 2.23 0 0 1 2 0z" class="cls-3"/><ellipse cx="417.73" cy="323.61" class="cls-3" rx="1.44" ry=".83"/><ellipse cx="423.07" cy="320.53" class="cls-3" rx="1.44" ry=".83"/><ellipse cx="428.4" cy="317.45" class="cls-3" rx="1.44" ry=".83"/><path d="M413.41 319.94c.57.33.57.85 0 1.18a2.29 2.29 0 0 1-2 0 .62.62 0 0 1 0-1.18 2.29 2.29 0 0 1 2 0zM418.75 316.86a.62.62 0 0 1 0 1.18 2.29 2.29 0 0 1-2 0 .62.62 0 0 1 0-1.18 2.23 2.23 0 0 1 2 0zM424.09 313.78a.62.62 0 0 1 0 1.18 2.29 2.29 0 0 1-2 0c-.57-.33-.57-.86 0-1.18a2.23 2.23 0 0 1 2 0zM408 316.83a.62.62 0 0 1 0 1.18 2.29 2.29 0 0 1-2 0 .62.62 0 0 1 0-1.18 2.23 2.23 0 0 1 2 0zM413.37 313.75a.62.62 0 0 1 0 1.17 2.23 2.23 0 0 1-2 0 .61.61 0 0 1 0-1.17 2.23 2.23 0 0 1 2 0zM418.7 310.66c.57.33.57.86 0 1.18a2.23 2.23 0 0 1-2 0 .62.62 0 0 1 0-1.18 2.29 2.29 0 0 1 2 0z" class="cls-3"/><ellipse cx="401.67" cy="314.33" class="cls-3" rx="1.44" ry=".83"/><path d="M408 310.66a.62.62 0 0 1 0 1.18 2.23 2.23 0 0 1-2 0 .62.62 0 0 1 0-1.18 2.29 2.29 0 0 1 2 0zM413.37 307.58a.62.62 0 0 1 0 1.18 2.23 2.23 0 0 1-2 0c-.57-.32-.57-.85 0-1.18a2.29 2.29 0 0 1 2 0zM397.36 310.66a.62.62 0 0 1 0 1.18 2.23 2.23 0 0 1-2 0c-.57-.32-.57-.85 0-1.18a2.29 2.29 0 0 1 2 0zM402.69 307.58c.57.33.57.86 0 1.18a2.23 2.23 0 0 1-2 0 .62.62 0 0 1 0-1.18 2.29 2.29 0 0 1 2 0z" class="cls-3"/><ellipse cx="407.01" cy="305.09" class="cls-3" rx="1.44" ry=".83"/><ellipse cx="391" cy="308.17" class="cls-3" rx="1.44" ry=".83"/><path d="M397.36 304.5a.62.62 0 0 1 0 1.18 2.23 2.23 0 0 1-2 0c-.57-.33-.57-.85 0-1.18a2.29 2.29 0 0 1 2 0zM402.69 301.42c.57.33.57.85 0 1.18a2.29 2.29 0 0 1-2 0 .62.62 0 0 1 0-1.18 2.29 2.29 0 0 1 2 0zM386.68 304.5c.57.33.57.85 0 1.18a2.23 2.23 0 0 1-2 0 .62.62 0 0 1 0-1.18 2.29 2.29 0 0 1 2 0zM392 301.42a.62.62 0 0 1 0 1.18 2.29 2.29 0 0 1-2 0 .62.62 0 0 1 0-1.18 2.29 2.29 0 0 1 2 0zM397.36 298.34a.62.62 0 0 1 0 1.18 2.29 2.29 0 0 1-2 0c-.57-.33-.57-.86 0-1.18a2.23 2.23 0 0 1 2 0zM400.65 295.26a2.23 2.23 0 0 1 2 0c.57.32.57.85 0 1.18s-2.56-.86-2-1.18zM381.35 301.42a.62.62 0 0 1 0 1.18 2.29 2.29 0 0 1-2 0c-.57-.33-.57-.85 0-1.18a2.29 2.29 0 0 1 2 0zM386.68 298.34c.57.32.57.85 0 1.18a2.29 2.29 0 0 1-2 0 .62.62 0 0 1 0-1.18 2.23 2.23 0 0 1 2 0z" class="cls-3"/><ellipse cx="391" cy="295.85" class="cls-3" rx="1.44" ry=".83"/><path d="M376 298.34a.62.62 0 0 1 0 1.18 2.29 2.29 0 0 1-2 0c-.57-.33-.57-.86 0-1.18a2.23 2.23 0 0 1 2 0z" class="cls-3"/><ellipse cx="380.33" cy="295.85" class="cls-3" rx="1.44" ry=".83"/><path d="M386.68 292.18c.57.32.57.85 0 1.18a2.29 2.29 0 0 1-2 0 .62.62 0 0 1 0-1.18 2.23 2.23 0 0 1 2 0zM370.67 295.26c.57.32.57.85 0 1.18a2.29 2.29 0 0 1-2 0 .62.62 0 0 1 0-1.18 2.23 2.23 0 0 1 2 0zM376 292.18a.62.62 0 0 1 0 1.18 2.29 2.29 0 0 1-2 0c-.57-.33-.57-.86 0-1.18a2.23 2.23 0 0 1 2 0z" class="cls-3"/><ellipse cx="380.33" cy="289.69" class="cls-3" rx="1.44" ry=".83"/><path d="M384.64 286a2.29 2.29 0 0 1 2 0c.57.33.57.86 0 1.18a2.23 2.23 0 0 1-2 0 .62.62 0 0 1 0-1.18zM365.29 292.14a.62.62 0 0 1 0 1.18 2.23 2.23 0 0 1-2 0c-.57-.32-.57-.85 0-1.18a2.29 2.29 0 0 1 2 0zM370.63 289.06a.62.62 0 0 1 0 1.18 2.23 2.23 0 0 1-2 0c-.57-.32-.57-.85 0-1.18a2.29 2.29 0 0 1 2 0zM376 286c.57.33.57.86 0 1.18a2.23 2.23 0 0 1-2 0 .62.62 0 0 1 0-1.18 2.29 2.29 0 0 1 2 0zM379.26 282.9a2.29 2.29 0 0 1 2 0 .62.62 0 0 1 0 1.18c-.52.32-2.56-.85-2-1.18zM360 289.06c.57.33.57.86 0 1.18a2.23 2.23 0 0 1-2 0 .62.62 0 0 1 0-1.18 2.29 2.29 0 0 1 2 0zM365.29 286a.62.62 0 0 1 0 1.18 2.23 2.23 0 0 1-2 0 .62.62 0 0 1 0-1.18 2.29 2.29 0 0 1 2 0zM370.63 282.9a.62.62 0 0 1 0 1.18 2.29 2.29 0 0 1-2 0c-.57-.33-.57-.85 0-1.18a2.29 2.29 0 0 1 2 0z" class="cls-3"/><ellipse cx="374.94" cy="280.41" class="cls-3" rx="1.44" ry=".83"/><path d="M325.89 302.57a.62.62 0 0 1 0-1.18 2.23 2.23 0 0 1 2 0c.57.32.57.85 0 1.18a2.29 2.29 0 0 1-2 0zM333.27 298.31a.62.62 0 0 1 0 1.18 2.29 2.29 0 0 1-2 0c-.57-.33-.57-.86 0-1.18a2.23 2.23 0 0 1 2 0zM338.61 295.23a.62.62 0 0 1 0 1.17 2.25 2.25 0 0 1-2.05 0 .62.62 0 0 1 0-1.17 2.25 2.25 0 0 1 2.05 0z" class="cls-3"/><ellipse cx="342.92" cy="292.73" class="cls-3" rx="1.44" ry=".83"/><path d="M349.28 289.06a.62.62 0 0 1 0 1.18 2.23 2.23 0 0 1-2 0c-.57-.32-.57-.85 0-1.18a2.29 2.29 0 0 1 2 0zM354.62 286a.62.62 0 0 1 0 1.18 2.23 2.23 0 0 1-2 0c-.57-.32-.57-.85 0-1.18a2.29 2.29 0 0 1 2 0z" class="cls-3"/><ellipse cx="358.93" cy="283.49" class="cls-3" rx="1.44" ry=".83"/><path d="M365.29 279.82a.62.62 0 0 1 0 1.18 2.29 2.29 0 0 1-2 0 .62.62 0 0 1 0-1.18 2.23 2.23 0 0 1 2 0zM370.63 276.74a.62.62 0 0 1 0 1.18 2.29 2.29 0 0 1-2 0c-.57-.33-.57-.86 0-1.18a2.23 2.23 0 0 1 2 0zM376 274.84a2.29 2.29 0 0 1-2 0 .62.62 0 0 1 0-1.18c.49-.33 2.53.85 2 1.18zM317.26 301.39a.62.62 0 0 1 0 1.18 2.29 2.29 0 0 1-2 0c-.57-.33-.57-.86 0-1.18a2.23 2.23 0 0 1 2 0zM322.6 298.31a.62.62 0 0 1 0 1.18 2.31 2.31 0 0 1-2.05 0 .62.62 0 0 1 0-1.18 2.25 2.25 0 0 1 2.05 0zM327.93 295.23a.61.61 0 0 1 0 1.17 2.23 2.23 0 0 1-2 0 .62.62 0 0 1 0-1.17 2.23 2.23 0 0 1 2 0zM333.27 292.14a.62.62 0 0 1 0 1.18 2.23 2.23 0 0 1-2 0c-.57-.32-.57-.85 0-1.18a2.29 2.29 0 0 1 2 0zM338.61 289.06a.62.62 0 0 1 0 1.18 2.25 2.25 0 0 1-2.05 0 .62.62 0 0 1 0-1.18 2.31 2.31 0 0 1 2.05 0zM343.94 286c.57.33.57.86 0 1.18a2.23 2.23 0 0 1-2 0 .62.62 0 0 1 0-1.18 2.29 2.29 0 0 1 2 0z" class="cls-3"/><ellipse cx="348.26" cy="283.49" class="cls-3" rx="1.44" ry=".83"/><path d="M354.62 279.82a.62.62 0 0 1 0 1.18 2.29 2.29 0 0 1-2 0c-.57-.33-.57-.85 0-1.18a2.23 2.23 0 0 1 2 0z" class="cls-3"/><ellipse cx="358.93" cy="277.33" class="cls-3" rx="1.44" ry=".83"/><path d="M365.29 273.66a.62.62 0 0 1 0 1.18 2.29 2.29 0 0 1-2 0 .62.62 0 0 1 0-1.18 2.23 2.23 0 0 1 2 0zM370.63 270.58a.62.62 0 0 1 0 1.17 2.23 2.23 0 0 1-2 0 .61.61 0 0 1 0-1.17 2.23 2.23 0 0 1 2 0z" class="cls-3"/><ellipse cx="225.12" cy="237.99" class="cls-3" rx="1.44" ry=".83"/><path d="M231.47 234.32c.57.33.57.86 0 1.18a2.23 2.23 0 0 1-2 0 .62.62 0 0 1 0-1.18 2.29 2.29 0 0 1 2 0zM236.81 231.24c.57.33.57.86 0 1.18a2.23 2.23 0 0 1-2 0 .62.62 0 0 1 0-1.18 2.29 2.29 0 0 1 2 0z" class="cls-3"/><ellipse cx="241.13" cy="228.75" class="cls-3" rx="1.44" ry=".83"/><ellipse cx="219.78" cy="234.91" class="cls-3" rx="1.44" ry=".83"/><ellipse cx="225.12" cy="231.83" class="cls-3" rx="1.44" ry=".83"/><ellipse cx="214.44" cy="231.83" class="cls-3" rx="1.44" ry=".83"/><ellipse cx="219.78" cy="228.75" class="cls-3" rx="1.44" ry=".83"/><ellipse cx="209.11" cy="228.75" class="cls-3" rx="1.44" ry=".83"/><path d="M215.46 225.08c.57.33.57.85 0 1.18a2.29 2.29 0 0 1-2 0 .62.62 0 0 1 0-1.18 2.23 2.23 0 0 1 2 0zM204.79 225.08a.62.62 0 0 1 0 1.18 2.29 2.29 0 0 1-2 0 .62.62 0 0 1 0-1.18 2.23 2.23 0 0 1 2 0zM210.13 222a.62.62 0 0 1 0 1.18 2.29 2.29 0 0 1-2 0c-.57-.33-.57-.86 0-1.18a2.23 2.23 0 0 1 2 0zM199.41 222a.62.62 0 0 1 0 1.17 2.23 2.23 0 0 1-2 0 .61.61 0 0 1 0-1.17 2.23 2.23 0 0 1 2 0zM204.74 218.89a.61.61 0 0 1 0 1.17 2.23 2.23 0 0 1-2 0 .62.62 0 0 1 0-1.17 2.23 2.23 0 0 1 2 0zM194.07 218.89a.62.62 0 0 1 0 1.17 2.23 2.23 0 0 1-2 0 .62.62 0 0 1 0-1.17 2.23 2.23 0 0 1 2 0z" class="cls-3"/><ellipse cx="198.39" cy="216.39" class="cls-3" rx="1.44" ry=".83"/><path d="M188.73 215.8c.57.33.57.86 0 1.18a2.23 2.23 0 0 1-2 0 .62.62 0 0 1 0-1.18 2.29 2.29 0 0 1 2 0zM194.07 212.72a.62.62 0 0 1 0 1.18 2.23 2.23 0 0 1-2 0 .62.62 0 0 1 0-1.18 2.29 2.29 0 0 1 2 0zM188.73 209.64c.57.33.57.85 0 1.18a2.23 2.23 0 0 1-2 0 .62.62 0 0 1 0-1.18 2.29 2.29 0 0 1 2 0z" class="cls-3"/><ellipse cx="236" cy="237.5" class="cls-3" rx="1.44" ry=".83"/><path d="M242.36 233.83a.62.62 0 0 1 0 1.18 2.29 2.29 0 0 1-2 0c-.57-.33-.57-.85 0-1.18a2.29 2.29 0 0 1 2 0z" class="cls-3"/><ellipse cx="246.67" cy="231.34" class="cls-3" rx="1.44" ry=".83"/><g id="_4" data-name="4"><path d="M439.58 116.69L238.49 2C236 .57 233.7.65 232.07 1.92l-9.86 5.9 7.3 10.39v155.9c0 6.53 4 14.13 9 17l187.76 107.04 9.66 13.76 9.31-5.58c2-1 3.33-3.59 3.33-7.29v-165.4c0-6.53-4.03-14.12-8.99-16.95z" class="cls-1"/><path d="M392 108.41L224.88 14.9l-2.67-6.12 7.42-4.44c1.63-1.27 3.91-1.35 6.43.09l201.09 114.68c2.76 1.57 5.22 4.62 6.87 8.14l.25 1-11.92 7.15zM445.59 134.29l-10.82 6.43.96 4.05 9.86-6.07v-4.41z" class="cls-2"/><path d="M231.48 1.16c2-1.55 4.73-1.55 7.48 0l201.09 114.7c5.22 3 9.47 11 9.47 17.78V299c0 3.95-1.4 6.91-3.79 8.1l-10.07 6-10.05-14.31L238 191.89c-5.22-3-9.47-10.95-9.47-17.78V18.51l-7.71-11zm-1 16.74v156.21c0 6.22 3.81 13.45 8.5 16.13l187.76 107.08 9.46 13.32 2-1.21.37-3 7.35-4.54a3.43 3.43 0 0 0 1.68-2.87V133.64c0-6.22-3.81-13.45-8.5-16.13L238 2.84c-2.08-1.19-4-1.25-5.47-.11l-9 5.38z" class="cls-3"/><g id="_18" data-name="18"><path d="M287.28 257.58l40.78-23.14c3.95-2.26 10.58-2 15.1.58L368 249.17l11.78 5.27v5.38h-.07a5.39 5.39 0 0 1-2.85 3.55l-50.24 28.54a13.6 13.6 0 0 1-6.64 1.54 17.47 17.47 0 0 1-8.46-2.12l-32.66-18.62c-2.37-1.35-3.77-3.15-3.93-5.19V262.71z" class="cls-3"/><path d="M376.36 258.4L326.12 287c-3.63 2.07-10 1.81-14.16-.58l-32.65-18.62c-4.19-2.39-4.65-6-1-8.08l50.24-28.54c3.63-2.07 10-1.81 14.16.58l32.65 18.62c4.17 2.34 4.64 5.95 1 8.02z" class="cls-1"/><path d="M283.8 263.85l13.65-8.08a14.41 14.41 0 0 1 14.49-.12l34.2 19.56L325.47 287c-3.63 2.07-10 1.81-14.16-.58l-26.49-14.44c-4.19-2.44-4.65-6.06-1.02-8.13z" class="cls-2"/><path d="M320 289.31a13.6 13.6 0 0 0 6.64-1.53l50.24-28.55a5.07 5.07 0 0 0 2.93-4.33c0-2-1.44-4-3.95-5.4l-32.65-18.62c-4.52-2.57-11.15-2.83-15.1-.58l-50.24 28.55a5.06 5.06 0 0 0-2.93 4.33c0 2 1.44 4 3.94 5.4l32.66 18.62a17.46 17.46 0 0 0 8.46 2.11zm55.94-31.73l-50.24 28.54c-3.36 1.92-9.29 1.66-13.22-.58l-32.65-18.62c-1.9-1.08-3-2.44-3-3.74a3.33 3.33 0 0 1 2-2.68L329 232c3.37-1.92 9.29-1.66 13.22.58l32.65 18.62c1.89 1.08 3 2.44 3 3.74a3.36 3.36 0 0 1-2 2.68z" class="cls-3"/></g><path d="M222.2 6.68c2-1.13 4.38-1 6.86.44L430.15 121.8c5.22 3 9.47 11 9.47 17.79V305c0 3.7-1.5 5.34-2.75 6.07a5.57 5.57 0 0 1-2.86.71 11.8 11.8 0 0 1-5.71-1.78L228.12 197.84c-5.22-3-9.47-11-9.47-17.79V14.66c0-3.76 1.35-6.66 3.55-7.98z" class="cls-3"/><path d="M219.61 160.83v20c0 6.08 4.32 13.48 9.65 16.52L429 311.31c5.33 3 9.65.57 9.65-5.51v-20.05z" class="cls-1"/><path d="M433.32 313.57a6 6 0 0 0 3-.79c2.1-1.22 3.27-3.7 3.27-7V285.2l-.48-.28-220.46-125.73v21.68c0 6.38 4.55 14.16 10.14 17.35l199.75 113.91a9.73 9.73 0 0 0 4.78 1.44zm4.39-27.27v19.5c0 2.57-.82 4.46-2.32 5.33s-3.62.65-5.91-.65L229.73 196.56c-5.06-2.88-9.17-9.92-9.17-15.69v-18.4z" class="cls-3"/><path d="M425.59 265.81l-192.91-110a7.48 7.48 0 0 1-3.17-6V23.48c0-2.3 1.42-3.36 3.17-2.36l192.91 110a7.45 7.45 0 0 1 3.17 6v126.32c0 2.31-1.42 3.37-3.17 2.37z" class="cls-1"/><path d="M426.85 267.14a2.6 2.6 0 0 0 1.31-.35 3.68 3.68 0 0 0 1.56-3.35V137.12a8.43 8.43 0 0 0-3.65-6.81l-192.92-110a3 3 0 0 0-3-.16 3.7 3.7 0 0 0-1.56 3.35v126.31a8.43 8.43 0 0 0 3.65 6.81l192.92 110a3.58 3.58 0 0 0 1.69.52zM231.42 21.69a1.8 1.8 0 0 1 .78.25L425.12 132a6.53 6.53 0 0 1 2.69 5.16v126.28a2 2 0 0 1-.61 1.71 1.24 1.24 0 0 1-1.13-.17L233.15 155a6.52 6.52 0 0 1-2.69-5.15V23.48a2 2 0 0 1 .61-1.7.73.73 0 0 1 .35-.09z" class="cls-3"/></g><path d="M451.85 270.75v-28l-39.62-23v28s.57 14.07-5.39 17.4l-6 3.33 39.62 23 6-3.34c5.96-3.32 5.39-17.39 5.39-17.39z" class="cls-1"/><path d="M456.85 279.36v-28l-39.61-23v28s.56 14.06-5.4 17.4l-6 3.33 39.62 22.95 6-3.33c5.96-3.28 5.39-17.35 5.39-17.35z" class="cls-2"/><path d="M440.49 292.7l-41.74-24.18 7.58-4.24c4.42-2.47 5-12.7 4.85-16.44V218l41.72 24.17v28.57c0 .86.46 14.77-5.93 18.34zM403 268.55l37.5 21.72 5.43-3c4.43-2.48 5-12.71 4.86-16.44v-27.46l-37.51-21.73v26.16c0 .56.51 14.72-5.94 18.32z" class="cls-3"/><path d="M433.15 261l2.68-10.75a16.68 16.68 0 0 0-2.68-1.94c-6.07-3.5-11-.66-11 6.34s4.92 15.53 11 19 11 .67 11-6.34a17.57 17.57 0 0 0-.27-2.94z" class="cls-1"/><path d="M436.35 259.63l10.71 3.37a25.5 25.5 0 0 0-8-14.16z" class="cls-1"/><path d="M446.21 260.52l-13.06-4.15 3.27-13.11 1.16 1a26.36 26.36 0 0 1 8.36 14.74zm-10.78-5.42l8.3 2.64a25.26 25.26 0 0 0-6.24-11z" class="cls-3"/><path d="M435.3 272.94a11 11 0 0 1-5.39-1.63c-6.32-3.65-11.46-12.56-11.46-19.85 0-3.75 1.31-6.57 3.69-7.94s5.48-1.1 8.72.77a18.16 18.16 0 0 1 2.83 2l.44.39-2.6 10.44 10.41 3.32.1.56a18.11 18.11 0 0 1 .28 3.1c0 3.74-1.31 6.56-3.69 7.94a6.53 6.53 0 0 1-3.33.9zm-9.81-28.38a4.8 4.8 0 0 0-2.4.6c-1.77 1-2.74 3.26-2.74 6.3 0 6.69 4.72 14.86 10.51 18.2 2.63 1.52 5.05 1.8 6.82.77s2.75-3.25 2.75-6.29a15.94 15.94 0 0 0-.17-2.21l-11-3.5 2.75-11a16.75 16.75 0 0 0-2.09-1.47 9.07 9.07 0 0 0-4.43-1.4z" class="cls-3"/><path d="M261.35 118.09l9.81-16.5 6.84 17.09 14.74-49.71 11.24 48.41 7-1.82 24.53 66.23-41.2.71-37.87-53.73 4.91-10.68z" class="cls-1"/><path d="M293.93 183.24l-.22-.31-38.11-54.08 5.12-11.13 10.56-17.78 6.61 16.51 14.93-50.35 11.71 50.38 6.91-1.8 25.11 67.83zm-36.65-54.54l37.4 53.06 39.78-.68-23.93-64.64-7.09 1.83-10.79-46.43-14.55 49.07-7.1-17.66-9 15.18z" class="cls-3"/><path d="M197.29 134.73l14.42-29.35 9.03 10.92 26.29-42.37L278 143.65l5.15-8.82 20.83 41.71 29.86-29 13.83 42.04 8.24-.94 12.82 45.07-171.44-98.98z" class="cls-1"/><path d="M205.61 138.64l14.42-28.21 9.03 10.92 26.29-42.37 30.97 69.72 5.15-8.82 20.84 41.71 29.85-29L356 194.63l8.24-.94 12.65 43.37-171.28-98.42z" class="cls-2"/><path d="M369.93 235.25L196.33 135l15.22-31 9.11 11 26.47-42.68L278.08 142l5.12-8.76 21 42 30-29.12 14 42.59 8.27-.95.17.6zM198.25 134.43l169.28 97.74-12.15-42.73-8.22.94-13.65-41.5-29.73 28.88-20.68-41.39-5.19 8.89-31-69.77-26.09 42.06-9-10.83z" class="cls-3"/><path d="M197.29 134.73l15.3-13.6 9.52 13.31 16.97-55.8 15.6 65.77 13.83-.53 9.49 19.56 29.65-28.29 13.56 35.36 10.57-7.6 15.01 44.54 21.94 26.26-171.44-98.98z" class="cls-1"/><path d="M371.94 236.41L196 134.85l16.67-14.8 9.13 12.76 17.33-57 16.08 67.82 13.71-.53 9.26 19.09 29.72-28.36 13.61 35.5 10.61-7.63 15.28 45.35zM198.54 134.6l167 96.41-19.44-23.33-14.7-43.6-10.54 7.57-13.5-35.21-29.58 28.22-9.72-20-14 .54L239 81.45l-16.61 54.63-9.91-13.86z" class="cls-3"/><path d="M236.27 185.63L195 161.79a2.23 2.23 0 0 0-2.16-.22l-.23.14-6 3.61a.49.49 0 0 0-.18.68l3.22 5.84v22.59a8.2 8.2 0 0 0 3.45 6.57l32.53 18.78 6.38 8.08 6.43-3.89a3 3 0 0 0 1.25-2.81v-29a8.19 8.19 0 0 0-3.42-6.53z" class="cls-1"/><path d="M236 188.13l-41.29-23.84a2.21 2.21 0 0 0-2.15-.22l-.23.14-6 3.6a.53.53 0 0 0-.18.69l3.23 5.83v22.59a8.19 8.19 0 0 0 3.42 6.54l32.53 18.78 3.41 2.86 6.87-1.35c.77-.39 3.79 1.3 3.79-.13v-29a8.19 8.19 0 0 0-3.4-6.49z" class="cls-2"/><path d="M231.83 228.78l-6.69-8.47-32.41-18.71a8.87 8.87 0 0 1-3.79-7.17V172l-3.14-5.66a1.25 1.25 0 0 1 .44-1.67l6-3.61a1.62 1.62 0 0 1 .28-.16 2.92 2.92 0 0 1 2.85.24L236.64 185a8.87 8.87 0 0 1 3.79 7.17v29a3.66 3.66 0 0 1-1.66 3.45zm-44.64-62.95l3.22 5.82v22.78a7.53 7.53 0 0 0 3.05 5.9l32.74 19 6 7.57 5.88-3.55a2.35 2.35 0 0 0 .9-2.18v-29a7.54 7.54 0 0 0-3.05-5.91l-41.29-23.83a1.61 1.61 0 0 0-1.46-.21l-.14.09z" class="cls-3"/><path d="M229.75 227.65l-41.29-23.83a8.19 8.19 0 0 1-3.42-6.54v-29c0-2.52 1.53-3.67 3.42-2.58l41.29 23.83a8.19 8.19 0 0 1 3.42 6.54v29c0 2.52-1.53 3.68-3.42 2.58z" class="cls-1"/><path d="M231.11 228.8a3.49 3.49 0 0 1-1.73-.51l-41.28-23.84c-2.13-1.22-3.79-4.37-3.79-7.17v-29a3.73 3.73 0 0 1 1.55-3.4 2.91 2.91 0 0 1 3 .18l41.29 23.84a8.89 8.89 0 0 1 3.79 7.17v29a3.75 3.75 0 0 1-1.55 3.4 2.46 2.46 0 0 1-1.28.33zm-1-1.78a1.52 1.52 0 0 0 1.5.18 2.4 2.4 0 0 0 .82-2.13v-29a7.5 7.5 0 0 0-3.06-5.9l-41.27-23.8a1.56 1.56 0 0 0-1.51-.18 2.42 2.42 0 0 0-.81 2.13v29c0 2.24 1.39 4.95 3.05 5.9L230.12 227z" class="cls-3"/><path d="M211.33 213.49l-3.28-1.89a3.54 3.54 0 0 1-1.48-2.83v-21.86c0-1.09.66-1.59 1.48-1.12l3.28 1.89a3.56 3.56 0 0 1 1.47 2.83v21.86c0 1.09-.66 1.63-1.47 1.12z" class="cls-2"/><path d="M210.22 210.92a1.83 1.83 0 0 1-.95-.28l-3.27-1.89a4.23 4.23 0 0 1-1.85-3.46v-21.86a2 2 0 0 1 .88-1.83 1.68 1.68 0 0 1 1.7.07l3.28 1.9a4.21 4.21 0 0 1 1.84 3.46v21.86a2 2 0 0 1-.87 1.83 1.5 1.5 0 0 1-.76.2zm-4.45-28.06s-.15.16-.15.57v21.86a2.82 2.82 0 0 0 1.11 2.19l3.28 1.89c.14.09.22.09.23.08s.15-.16.15-.56V187a2.86 2.86 0 0 0-1.11-2.2l-3.28-1.86a.64.64 0 0 0-.23-.08z" class="cls-3"/><path d="M220.59 218.84l-3.82-2.21a2.86 2.86 0 0 1-1.21-2.3v-14.21c0-.88.54-1.29 1.21-.91l3.82 2.21a2.88 2.88 0 0 1 1.21 2.3v14.21c0 .89-.54 1.29-1.21.91z" class="cls-2"/><path d="M219.38 216.24a1.73 1.73 0 0 1-.85-.25l-3.82-2.2a3.61 3.61 0 0 1-1.57-2.94v-14.21a1.77 1.77 0 0 1 .78-1.61 1.49 1.49 0 0 1 1.52.07l3.83 2.2a3.61 3.61 0 0 1 1.57 2.94v14.21a1.8 1.8 0 0 1-.78 1.61 1.36 1.36 0 0 1-.68.18zm-.11-1.52l.09.05a2 2 0 0 1 0-.32v-14.21a2.17 2.17 0 0 0-.84-1.67l-3.82-2.2c-.06-.06-.11 0-.11.27v14.21a2.2 2.2 0 0 0 .84 1.67z" class="cls-3"/><path d="M203.07 208.66l-4.14-2.4a2.48 2.48 0 0 1-1.05-2v-5.51c0-.77.47-1.12 1.05-.79l4.14 2.4a2.48 2.48 0 0 1 1.05 2v5.51c0 .77-.47 1.13-1.05.79z" class="cls-2"/><path d="M201.8 206a1.53 1.53 0 0 1-.78-.23l-4.14-2.39a3.19 3.19 0 0 1-1.41-2.63v-5.51a1.64 1.64 0 0 1 .72-1.48 1.4 1.4 0 0 1 1.42.06l4.15 2.39a3.24 3.24 0 0 1 1.41 2.63v5.51a1.64 1.64 0 0 1-.73 1.48 1.27 1.27 0 0 1-.64.17zm-4.87-10.88v5.63a1.81 1.81 0 0 0 .68 1.36l4.08 2.36a.41.41 0 0 0 0-.12v-5.51a1.82 1.82 0 0 0-.67-1.36zM232.44 192.87l6.52-3.94.73 3.24-.09 29.97-1.16 1.79-5.77 3.22.5-28.95-.73-5.33z" class="cls-3"/><path d="M383.18 158.45l-6.86-36.93c-4.84-1.45-9.33-1.27-13 .51l-.35.18-.51.27-6.18 3.27.71 2.31a20.74 20.74 0 0 0-1.29 2.63c-5.69 14.25 2 38.23 17.19 53.57 7.71 7.78 15.85 11.83 22.76 12.09l1.4 1.75 5.61-3a12.65 12.65 0 0 0 1.92-1 16.2 16.2 0 0 0 6.09-7.81 26 26 0 0 0 1.59-6.34z" class="cls-1"/><path d="M383.15 160.14l-6.86-36.93c-4.84-1.45-9.33-1.28-13 .51l-.35.19c-.17.09-.34.17-.51.27l-6.18 3.27.71 2.31a20.1 20.1 0 0 0-1.29 2.63c-5.69 14.25 2 38.23 17.2 53.57 7.7 7.78 15.84 11.83 22.75 12.08l-.37-3-2.81-3.79c.66-.29 4.73 1.44 5.34 1l-4.47-2.25 1 .19c2.59-1.69-1.4.87 0-2.66.78-1.95.13-2 .43-4.3z" class="cls-2"/><path d="M396.84 199l-1.58-2c-7.32-.39-15.44-4.74-22.91-12.29-15.35-15.45-23.13-39.83-17.35-54.3a20.31 20.31 0 0 1 1.18-2.45l-.8-2.58 6.72-3.56.42-.22 1.1-.58c3.72-1.58 8.16-1.66 12.89-.25l.43.13 6.9 37.1L413 179.54v.46a26.71 26.71 0 0 1-1.64 6.52 17 17 0 0 1-6.24 8.07l-.16.1a14.18 14.18 0 0 1-2 1.08zm-39.7-72.92l.63 2-.17.28a19.67 19.67 0 0 0-1.24 2.53c-5.58 14 2.06 37.66 17 52.78 7.33 7.4 15.23 11.61 22.26 11.87h.34l1.23 1.54 5.08-2.73a14.54 14.54 0 0 0 1.81-1l.07-.05A15.42 15.42 0 0 0 410 186a24.71 24.71 0 0 0 1.49-5.74l-29-21.34-6.83-36.77c-4.49-1.25-8.65-1.06-12.06.59l-.33.16-.48.26z" class="cls-3"/><path d="M376.45 162l-6.86-36.93c-9.15-2.74-17.09.26-20.64 9.15-5.69 14.25 2 38.24 17.19 53.58s32.11 16.22 37.8 2a25.92 25.92 0 0 0 1.59-6.35z" class="cls-1"/><path d="M389.62 200.66c-7.46 0-16.18-4.42-24-12.32-15.35-15.5-23.13-39.88-17.35-54.36 3.58-9 11.63-12.54 21.53-9.59l.43.13 6.88 37.09 29.2 21.51-.05.43a27 27 0 0 1-1.64 6.52c-2.25 5.63-6.25 9.18-11.57 10.26a17.5 17.5 0 0 1-3.43.33zm-26.27-75.8c-6.27 0-11.21 3.38-13.72 9.67-5.58 14 2.06 37.66 17 52.78 8.72 8.8 18.48 13.12 26.1 11.58 4.81-1 8.44-4.22 10.5-9.37a25.27 25.27 0 0 0 1.49-5.73l-29-21.35-6.72-36.77a21.05 21.05 0 0 0-5.65-.81z" class="cls-3"/><path d="M369.59 125.1l6.73-3.58 6.86 36.93-6.73 3.58-6.86-36.93z" class="cls-3"/><path d="M405.53 183.45l6.73-3.57-29.08-21.43-6.73 3.58 29.08 21.42z" class="cls-1"/><path d="M405.53 183.45l3.24-1.69-26.8-19.74-3.93 2.09 27.49 19.34z" class="cls-2"/><path d="M414.14 179.42L383.84 158l-7-37.62-8.09 4.29 6.86 36.93.15.81.6.45 29.09 21.43zm-43.73-53.93l5.37-2.85 6.58 35.41-5.36 2.86zm12.7 33.82l27.78 20.47-5.3 2.81-27.77-20.46z" class="cls-3"/><path d="M417.63 168.67a62.32 62.32 0 0 0-7.33-23.29 68.39 68.39 0 0 0-11.57-15.81c-5.71-5.76-11.65-9.48-17.16-11.13l-6.73 3.56 6.73 14.9 4.74 7.05 2.07 11.18a.18.18 0 0 0 .25.12h.06a.13.13 0 0 0 0 .23s-.06 0 0 .05l10.77 7.93 11.37 16.91 6.73-3.57a38.47 38.47 0 0 0 .07-8.13z" class="cls-1"/><path d="M417.73 171.63a62.1 62.1 0 0 0-7.32-23.3 68.89 68.89 0 0 0-11.57-15.81c-5.71-5.76-11.66-9.48-17.16-11.13L375 125l6.73 14.91 4.74 7.05 2.07 11.17a.18.18 0 0 0 .25.13h.06a.13.13 0 0 0 0 .23s-.06 0 0 0l10.77 7.94 11.37 13.36 6.62-3a15.2 15.2 0 0 0 .12-5.16z" class="cls-2"/><path d="M410.54 181.33L398.88 164l-11.2-8.25.09-.17a.86.86 0 0 1-.11-.28l-2-11-4.66-6.97-7.07-15.64 7.6-4 .29.09c5.82 1.74 11.86 5.65 17.47 11.31a68.56 68.56 0 0 1 11.69 16 63.25 63.25 0 0 1 7.42 23.58 39.14 39.14 0 0 1-.12 8.28l-.05.38zm-19.43-24.89l8.91 6.61 11 16.37 5.81-3.09a37.52 37.52 0 0 0 .07-7.59 61.74 61.74 0 0 0-7.25-23 68.44 68.44 0 0 0-11.44-15.64c-5.34-5.39-11.06-9.14-16.57-10.85l-5.85 3.11 6.45 14.28 4.79 7.22 2.05 11 3.05 1.67zm-2.35-1.18l.27-.34a.54.54 0 0 0 0-.11.54.54 0 0 0-.23-.22.53.53 0 0 0-.41 0l.57.23z" class="cls-3"/><path d="M381.9 158.85l21.67-9.9A68.89 68.89 0 0 0 392 133.14c-5.71-5.76-11.65-9.48-17.16-11.12l6.81 36.7a.18.18 0 0 0 .25.13z" class="cls-1"/><path d="M381.83 159.6a.94.94 0 0 1-.9-.75l-7-37.88 1.15.34c5.82 1.75 11.86 5.66 17.47 11.32a68.56 68.56 0 0 1 11.69 16l.37.69-22.37 10.22a1 1 0 0 1-.41.06zm-6.05-36.51l6.47 34.8 20.3-9.28a68.24 68.24 0 0 0-11.07-15c-5.06-5.06-10.48-8.69-15.7-10.52z" class="cls-3"/><path d="M410.78 180.37a37.74 37.74 0 0 0 .11-8.12l-28.95-13.2s-.06 0 0 0z" class="cls-1"/><path d="M411.35 181.7l-30.41-22.4.66-1.17.64.26 29.35 13.37v.43a38.54 38.54 0 0 1-.11 8.28zm-23.55-19.17L410.19 179a37.69 37.69 0 0 0 0-6.29z" class="cls-3"/><path d="M382 159.06l28.93 13.19a62.16 62.16 0 0 0-7.32-23.3L382 158.82a.13.13 0 0 0 0 .24z" class="cls-1"/><path d="M385.71 161.23l22.94 10.52c-1.29-7.57-2.32-10.74-5.85-17.94z" class="cls-2"/><path d="M411.73 173.44l-30.51-13.91-.07-1.06.5-.31L403.89 148l.32.61a63 63 0 0 1 7.41 23.58zm-28.27-14.5L410 171.05a62.57 62.57 0 0 0-6.8-21.14z" class="cls-3"/><path d="M407.78 158.45l6.74-3.53 2.61 9.9.55 10.63-.62 1.59-5.58 3.17-.85-10.3-2.85-11.46zM400.93 196l5.38-3.31 3.49-4.6 1.93-5.59.53-2.62-6.73 3.57-2.51 8.49-2.09 4.06zM105.19 268.76a.62.62 0 0 1 0 1.18 2.23 2.23 0 0 1-2 0c-.57-.32-.57-.85 0-1.18a2.29 2.29 0 0 1 2 0zM110.52 265.68c.57.33.57.86 0 1.18a2.23 2.23 0 0 1-2 0 .62.62 0 0 1 0-1.18 2.29 2.29 0 0 1 2 0zM115.86 262.6a.62.62 0 0 1 0 1.18 2.23 2.23 0 0 1-2 0 .62.62 0 0 1 0-1.18 2.29 2.29 0 0 1 2 0zM94.51 268.76c.57.33.57.86 0 1.18a2.23 2.23 0 0 1-2 0 .62.62 0 0 1 0-1.18 2.29 2.29 0 0 1 2 0zM99.85 265.68a.62.62 0 0 1 0 1.18 2.23 2.23 0 0 1-2 0 .62.62 0 0 1 0-1.18 2.29 2.29 0 0 1 2 0zM105.19 262.6a.62.62 0 0 1 0 1.18 2.23 2.23 0 0 1-2 0c-.57-.32-.57-.85 0-1.18a2.29 2.29 0 0 1 2 0z" class="cls-3"/><ellipse cx="109.5" cy="260.11" class="cls-3" rx="1.44" ry=".83"/><path d="M115.86 256.44a.62.62 0 0 1 0 1.18 2.29 2.29 0 0 1-2 0 .62.62 0 0 1 0-1.18 2.23 2.23 0 0 1 2 0z" class="cls-3"/><ellipse cx="88.16" cy="266.27" class="cls-3" rx="1.44" ry=".83"/><path d="M94.51 262.6c.57.33.57.86 0 1.18a2.23 2.23 0 0 1-2 0 .62.62 0 0 1 0-1.18 2.29 2.29 0 0 1 2 0zM83.84 262.6a.62.62 0 0 1 0 1.18 2.23 2.23 0 0 1-2 0 .62.62 0 0 1 0-1.18 2.29 2.29 0 0 1 2 0z" class="cls-3"/><ellipse cx="88.16" cy="260.11" class="cls-3" rx="1.44" ry=".83"/><ellipse cx="82.77" cy="257" class="cls-3" rx="1.44" ry=".83"/><path d="M111.79 253.38L111.7 235H85l.08 18.13a1 1 0 0 0 0 .24 2 2 0 0 0 1.09 1.33l10 5.74a5 5 0 0 0 4.49.19l10.38-6a1.28 1.28 0 0 0 .75-1.25z" class="cls-1"/><path d="M98.69 261.82a6 6 0 0 1-2.9-.73l-9.94-5.75a2.62 2.62 0 0 1-1.45-1.86 1.86 1.86 0 0 1 0-.41l-.08-17.73a1 1 0 0 1 1-1.06h26a1 1 0 0 1 1.05 1.05l.1 18a2 2 0 0 1-1.14 1.94l-10.38 6a4.66 4.66 0 0 1-2.26.55zm-12.91-26.08l.08 17.39v.16c0 .19.23.5.73.79l10 5.74a4.26 4.26 0 0 0 3.75.18l10.38-6c.2-.12.44-.3.41-.54v-.08l-.13-17.64z" class="cls-3"/><path d="M111 236.36l-10.38 6a5 5 0 0 1-4.49-.19l-10-5.74c-1.32-.77-1.47-1.93-.32-2.59l10.38-6a5 5 0 0 1 4.49.18l9.95 5.74c1.37.77 1.47 1.93.37 2.6z" class="cls-1"/><path d="M98.61 243.53a6 6 0 0 1-2.9-.73l-9.94-5.75A2.54 2.54 0 0 1 84.3 235a2 2 0 0 1 1.15-1.76l10.38-6a5.7 5.7 0 0 1 5.21.19l9.95 5.74a2.56 2.56 0 0 1 1.47 2.1 2 2 0 0 1-1.15 1.76l-10.38 6a4.66 4.66 0 0 1-2.32.5zm-.47-15.41a3.21 3.21 0 0 0-1.58.35l-10.38 6c-.15.09-.41.27-.41.49s.19.52.73.84l10 5.74a4.26 4.26 0 0 0 3.75.18l10.38-6c.15-.09.41-.27.41-.49s-.19-.52-.73-.83l-10-5.74a4.42 4.42 0 0 0-2.17-.54z" class="cls-3"/><path d="M94 233.94c-2.45 1.41-2.45 3.7 0 5.11a9.77 9.77 0 0 0 8.84 0c2.45-1.41 2.45-3.7 0-5.11l-4.42 2.56z" class="cls-2"/><path d="M94 232.7l4.43 2.55 4.42-2.55a9.79 9.79 0 0 0-8.85 0z" class="cls-2"/><path d="M98.46 234.44l-5.16-3 .55-.32a10.23 10.23 0 0 1 9.21 0l.55.32zm-3.66-3l3.66 2.11 3.65-2.11a9.73 9.73 0 0 0-7.31.04zM98.46 242.79v18.3l3.08-.73 10.18-6.49-.02-18.11-11.13 6.59-2.11.44z" class="cls-3"/><path d="M98.38 239.23a9.46 9.46 0 0 1-4.61-1.1 3.05 3.05 0 0 1 0-5.74l.19-.11 4.42 2.56 4.42-2.56.19.11a3.05 3.05 0 0 1 0 5.74 9.46 9.46 0 0 1-4.61 1.1zm-4.38-6.1a2.66 2.66 0 0 0-1.47 2.13 2.79 2.79 0 0 0 1.65 2.24 9.38 9.38 0 0 0 8.48 0 2.79 2.79 0 0 0 1.65-2.24 2.66 2.66 0 0 0-1.47-2.13l-4.42 2.55zM324.79 340.13c.57.33.57.86 0 1.18a2.23 2.23 0 0 1-2 0 .62.62 0 0 1 0-1.18 2.29 2.29 0 0 1 2 0zM330.13 337.05a.62.62 0 0 1 0 1.18 2.23 2.23 0 0 1-2 0c-.57-.32-.57-.85 0-1.18a2.29 2.29 0 0 1 2 0z" class="cls-3"/><ellipse cx="334.44" cy="334.56" class="cls-3" rx="1.44" ry=".83"/><path d="M314.12 340.13a.62.62 0 0 1 0 1.18 2.23 2.23 0 0 1-2 0c-.57-.32-.57-.85 0-1.18a2.29 2.29 0 0 1 2 0zM319.45 337.05c.57.33.57.86 0 1.18a2.23 2.23 0 0 1-2 0 .62.62 0 0 1 0-1.18 2.29 2.29 0 0 1 2 0z" class="cls-3"/><ellipse cx="323.77" cy="334.56" class="cls-3" rx="1.44" ry=".83"/><ellipse cx="329.11" cy="331.48" class="cls-3" rx="1.44" ry=".83"/><path d="M335.47 327.81a.62.62 0 0 1 0 1.18 2.31 2.31 0 0 1-2.05 0 .62.62 0 0 1 0-1.18 2.25 2.25 0 0 1 2.05 0zM308.78 337.05a.62.62 0 0 1 0 1.18 2.23 2.23 0 0 1-2 0 .62.62 0 0 1 0-1.18 2.29 2.29 0 0 1 2 0zM314.12 334a.62.62 0 0 1 0 1.18 2.29 2.29 0 0 1-2 0c-.57-.33-.57-.85 0-1.18a2.29 2.29 0 0 1 2 0zM303.44 334c.57.33.57.85 0 1.18a2.29 2.29 0 0 1-2 0 .62.62 0 0 1 0-1.18 2.29 2.29 0 0 1 2 0zM308.78 330.89a.62.62 0 0 1 0 1.18 2.29 2.29 0 0 1-2 0 .62.62 0 0 1 0-1.18 2.23 2.23 0 0 1 2 0z" class="cls-3"/><ellipse cx="302.38" cy="328.37" class="cls-3" rx="1.44" ry=".83"/><path d="M333.91 322.75l.09-44.7h-32.92l-.08 44.39a1.6 1.6 0 0 0 0 .31 2.48 2.48 0 0 0 1.34 1.64l12.29 7.09a6.18 6.18 0 0 0 5.54.23l12.82-7.4a1.61 1.61 0 0 0 .92-1.56z" class="cls-1"/><path d="M317.73 333a7.08 7.08 0 0 1-3.5-.88L302 325a3.14 3.14 0 0 1-1.71-2.18 1.85 1.85 0 0 1 0-.47l.1-45.06h33.37a1 1 0 0 1 1 1l-.09 44.36a2.31 2.31 0 0 1-1.31 2.24l-12.82 7.4a5.63 5.63 0 0 1-2.81.71zm-16-10.34a1.77 1.77 0 0 0 1 1.1l12.27 7.08a5.43 5.43 0 0 0 4.81.23l12.82-7.4c.3-.17.64-.45.59-.83v-.1l.1-44h-31.51l-.11 43.67z" class="cls-3"/><path d="M333.07 279.7l-12.82 7.41a6.18 6.18 0 0 1-5.54-.23l-12.28-7.1c-1.64-.94-1.82-2.38-.4-3.2l12.82-7.4a6.18 6.18 0 0 1 5.54.23l12.29 7.1c1.64.94 1.81 2.37.39 3.19z" class="cls-1"/><path d="M317.84 288.39a7.18 7.18 0 0 1-3.49-.88l-12.29-7.09a3 3 0 0 1-1.72-2.45 2.35 2.35 0 0 1 1.32-2l12.82-7.4a6.89 6.89 0 0 1 6.28.23l12.24 7.07a3 3 0 0 1 1.72 2.45 2.35 2.35 0 0 1-1.32 2l-12.82 7.4a5.63 5.63 0 0 1-2.74.67zm-.59-19a4.12 4.12 0 0 0-2 .46l-12.82 7.4c-.22.13-.6.39-.6.75s.38.83 1 1.18l12.29 7.09a5.43 5.43 0 0 0 4.81.23l12.82-7.4c.22-.13.59-.4.59-.75s-.38-.83-1-1.18L320 270.05a5.81 5.81 0 0 0-2.75-.69z" class="cls-3"/><path d="M316.07 278.57l.67-4.77h-.05l-8.82 5.09-.21.15z" class="cls-2"/><path d="M306.85 278.4l.87-.72.26-.18 9.45-5.4v.65l-.71 5.07zm9.72-5l-7.14 4.12 6.62-.39z" class="cls-3"/><path d="M317.89 279.6l-10.23.6a.54.54 0 0 0 .12.09l7.11 4.11a2.66 2.66 0 0 0 2.38 0l8.82-5.09c.68-.4.72-1 .09-1.38l-7.11-4.1a1.92 1.92 0 0 0-.33-.14z" class="cls-2"/><path d="M316.3 283.92a2.57 2.57 0 0 1-1.29-.31l-7.12-4.1-.15-.11-.75-.59.94-.08 9.94-.58.86-6.1.42.14a1.5 1.5 0 0 1 .4.17l7.11 4.1a1.12 1.12 0 0 1 .63 1 1.26 1.26 0 0 1-.72 1.05l-8.82 5.09a2.94 2.94 0 0 1-1.45.32zm-7.13-4.52l6.2 3.58a2.26 2.26 0 0 0 2-.05l8.83-5.09c.21-.13.35-.29.35-.42s-.1-.22-.27-.32l-7-4-.82 5.77zM317.86 287.65v44.61l2.28-.55 13.99-8.15-.42-44.41-14.87 8.51-.98-.01zM211.42 384.88a.62.62 0 0 1 0 1.18 2.23 2.23 0 0 1-2 0c-.57-.32-.57-.85 0-1.18a2.29 2.29 0 0 1 2 0zM216.76 381.8a.62.62 0 0 1 0 1.18 2.31 2.31 0 0 1-2 0 .62.62 0 0 1 0-1.18 2.31 2.31 0 0 1 2 0zM222.09 378.72c.57.32.57.85 0 1.18a2.29 2.29 0 0 1-2 0 .62.62 0 0 1 0-1.18 2.23 2.23 0 0 1 2 0zM200.74 384.88c.57.33.57.86 0 1.18a2.23 2.23 0 0 1-2 0 .62.62 0 0 1 0-1.18 2.29 2.29 0 0 1 2 0zM206.08 381.8c.57.33.57.85 0 1.18a2.29 2.29 0 0 1-2 0 .62.62 0 0 1 0-1.18 2.29 2.29 0 0 1 2 0zM211.42 378.72a.62.62 0 0 1 0 1.18 2.29 2.29 0 0 1-2 0c-.57-.33-.57-.86 0-1.18a2.23 2.23 0 0 1 2 0z" class="cls-3"/><ellipse cx="215.73" cy="376.23" class="cls-3" rx="1.44" ry=".83"/><path d="M222.09 372.56c.57.32.57.85 0 1.18a2.29 2.29 0 0 1-2 0 .62.62 0 0 1 0-1.18 2.23 2.23 0 0 1 2 0z" class="cls-3"/><ellipse cx="194.39" cy="382.39" class="cls-3" rx="1.44" ry=".83"/><path d="M200.74 378.72c.57.32.57.85 0 1.18a2.29 2.29 0 0 1-2 0 .62.62 0 0 1 0-1.18 2.23 2.23 0 0 1 2 0zM190.07 378.72a.62.62 0 0 1 0 1.18 2.29 2.29 0 0 1-2 0 .62.62 0 0 1 0-1.18 2.23 2.23 0 0 1 2 0zM195.41 375.64a.62.62 0 0 1 0 1.18 2.29 2.29 0 0 1-2 0c-.57-.33-.57-.86 0-1.18a2.23 2.23 0 0 1 2 0z" class="cls-3"/><ellipse cx="189" cy="373.11" class="cls-3" rx="1.44" ry=".83"/><path d="M227.34 375.46c.57.33.57.86 0 1.18a2.23 2.23 0 0 1-2 0 .62.62 0 0 1 0-1.18 2.29 2.29 0 0 1 2 0zM232.68 372.38a.62.62 0 0 1 0 1.18 2.23 2.23 0 0 1-2 0 .62.62 0 0 1 0-1.18 2.29 2.29 0 0 1 2 0z" class="cls-3"/><ellipse cx="237" cy="369.89" class="cls-3" rx="1.44" ry=".83"/><path d="M243.35 366.22c.57.33.57.85 0 1.18a2.29 2.29 0 0 1-2 0 .62.62 0 0 1 0-1.18 2.23 2.23 0 0 1 2 0zM248.69 363.14a.62.62 0 0 1 0 1.18 2.29 2.29 0 0 1-2 0 .62.62 0 0 1 0-1.18 2.23 2.23 0 0 1 2 0z" class="cls-3"/><ellipse cx="226.28" cy="369.86" class="cls-3" rx="1.44" ry=".83"/><ellipse cx="231.61" cy="366.78" class="cls-3" rx="1.44" ry=".83"/><path d="M238 363.11a.62.62 0 0 1 0 1.18 2.29 2.29 0 0 1-2 0 .62.62 0 0 1 0-1.18 2.23 2.23 0 0 1 2 0zM243.31 360a.62.62 0 0 1 0 1.17 2.23 2.23 0 0 1-2 0 .61.61 0 0 1 0-1.17 2.23 2.23 0 0 1 2 0zM248.64 356.94c.57.33.57.86 0 1.18a2.23 2.23 0 0 1-2 0 .62.62 0 0 1 0-1.18 2.29 2.29 0 0 1 2 0z" class="cls-3"/><path d="M247.55 351.32l-.14-85.5h-39.68l.13 85.13a1.15 1.15 0 0 0 0 .37 2.91 2.91 0 0 0 1.62 2l14.8 8.55a7.43 7.43 0 0 0 6.68.28l15.45-8.92a1.91 1.91 0 0 0 1.14-1.91z" class="cls-1"/><path d="M228.05 363.52a8.34 8.34 0 0 1-4.13-1l-14.81-8.54a3.62 3.62 0 0 1-2-2.52 2.43 2.43 0 0 1 0-.54l-.11-84.58a1.25 1.25 0 0 1 1.25-1.25h38.64a1.25 1.25 0 0 1 1.25 1.25l.14 84.93a2.63 2.63 0 0 1-1.5 2.56l-15.45 8.92a6.6 6.6 0 0 1-3.28.77zm-19.59-97l.13 84.4v.27a2.33 2.33 0 0 0 1.26 1.44l14.81 8.55a6.72 6.72 0 0 0 5.94.27l15.4-8.89c.4-.23.85-.61.78-1.15v-.09l-.14-84.77z" class="cls-3"/><path d="M246.29 267.82l-15.45 8.92a7.4 7.4 0 0 1-6.67-.28l-14.81-8.55c-2-1.14-2.19-2.86-.48-3.85l15.45-8.92a7.39 7.39 0 0 1 6.68.28l14.8 8.54c1.98 1.14 2.19 2.87.48 3.86z" class="cls-1"/><path d="M227.93 278.14a8.47 8.47 0 0 1-4.13-1l-14.8-8.59a3.45 3.45 0 0 1-2-2.82 2.67 2.67 0 0 1 1.52-2.3L224 254.5a8.13 8.13 0 0 1 7.42.28l14.8 8.55a3.45 3.45 0 0 1 2 2.81 2.68 2.68 0 0 1-1.52 2.31l-15.45 8.92a6.6 6.6 0 0 1-3.32.77zm-.71-22.93a5.18 5.18 0 0 0-2.52.56l-15.45 8.92a1.35 1.35 0 0 0-.79 1c0 .51.47 1.09 1.27 1.55l14.8 8.55a6.74 6.74 0 0 0 5.95.27l15.45-8.91a1.35 1.35 0 0 0 .79-1.05c0-.51-.48-1.08-1.27-1.54l-14.81-8.55a7 7 0 0 0-3.42-.8z" class="cls-3"/><path d="M226.08 266.65l.81-5.75h-.06l-10.63 6.14-.26.18z" class="cls-2"/><path d="M214.9 266.15l.89-.71a1.61 1.61 0 0 1 .3-.21l11.28-6.51v.71l-.85 6.05zm11.6-6.08l-9 5.2 8.35-.49z" class="cls-3"/><path d="M228.28 267.89l-12.34.73.15.1 8.57 4.95a3.16 3.16 0 0 0 2.87-.06l10.63-6.14c.82-.47.87-1.21.1-1.65l-8.57-4.95a2.09 2.09 0 0 0-.4-.17z" class="cls-2"/><path d="M226.08 272.83a3.08 3.08 0 0 1-1.52-.36l-8.57-5-.17-.12-.76-.59.94-.09 12-.7 1-7.32.41.13a2.07 2.07 0 0 1 .47.2l8.57 5a1.27 1.27 0 0 1 .73 1.09 1.46 1.46 0 0 1-.83 1.2l-10.63 6.14a3.52 3.52 0 0 1-1.64.42zm-8.85-5.44l7.69 4.44a2.82 2.82 0 0 0 2.5-.06l10.63-6.14c.29-.17.47-.38.47-.56s-.23-.38-.36-.46l-8.5-4.9-1 7zM227.87 277.4l-.22 85.37 3.31-.65 16.6-9.56-.15-85.22-13.29 7.27-4.66 2.64-1.59.15z" class="cls-3"/><path d="M221.11 366.25l-.11-47.86h-32.14L189 366a1 1 0 0 0 0 .3 2.35 2.35 0 0 0 1.31 1.6l12 6.92a6 6 0 0 0 5.4.22l12.51-7.22a1.55 1.55 0 0 0 .89-1.57z" class="cls-1"/><path d="M205.32 376.27a7 7 0 0 1-3.42-.87l-12-6.92a3.07 3.07 0 0 1-1.67-2.14 1.76 1.76 0 0 1 0-.46l-.11-47a1.23 1.23 0 0 1 1.23-1.23h31.15a1.23 1.23 0 0 1 1.23 1.23l.11 47.33a2.27 2.27 0 0 1-1.29 2.2L208 375.63a5.5 5.5 0 0 1-2.68.64zm-15.63-10.12a1.72 1.72 0 0 0 1 1.06l12 6.93a5.31 5.31 0 0 0 4.68.22l12.51-7.22c.28-.17.61-.44.56-.8v-.09l-.11-47.13H189.6l.1 46.83z" class="cls-3"/><path d="M220.09 320l-12.51 7.22a6 6 0 0 1-5.41-.23l-12-6.92c-1.6-.92-1.77-2.32-.38-3.12l12.51-7.22a6 6 0 0 1 5.4.22l12 6.92c1.6.94 1.78 2.34.39 3.13z" class="cls-1"/><path d="M205.23 328.5a7 7 0 0 1-3.42-.86l-12-6.92a2.92 2.92 0 0 1-1.69-2.4 2.3 2.3 0 0 1 1.3-2l12.51-7.23a6.72 6.72 0 0 1 6.14.23l12 6.92a2.93 2.93 0 0 1 1.69 2.4 2.3 2.3 0 0 1-1.3 2L208 327.86a5.52 5.52 0 0 1-2.77.64zm-.58-18.57a4.17 4.17 0 0 0-2 .44l-12.51 7.22c-.21.13-.57.39-.57.73s.37.79 1 1.13l12 6.92a5.26 5.26 0 0 0 4.67.22l12.51-7.22c.22-.12.57-.38.57-.72s-.36-.79-1-1.13l-12-6.92a5.6 5.6 0 0 0-2.67-.67z" class="cls-3"/><path d="M199.61 317.18c-2.94 1.7-2.94 4.46 0 6.16a11.78 11.78 0 0 0 10.66 0c2.95-1.7 2.95-4.46 0-6.16l-5.33 3.08z" class="cls-2"/><path d="M204.94 323.4a11.25 11.25 0 0 1-5.51-1.32 3.61 3.61 0 0 1 0-6.79l.18-.11 5.33 3.08 5.33-3.08.19.11a3.61 3.61 0 0 1 0 6.79 11.27 11.27 0 0 1-5.52 1.32zm-5.33-7.4a3.3 3.3 0 0 0-1.84 2.65 3.39 3.39 0 0 0 2 2.76 11.31 11.31 0 0 0 10.29 0 3.39 3.39 0 0 0 2-2.76 3.32 3.32 0 0 0-1.85-2.65l-5.33 3.08z" class="cls-3"/><path d="M199.61 315.1l5.33 3.08 5.33-3.08a11.78 11.78 0 0 0-10.66 0z" class="cls-2"/><path d="M205 317.61l-6.07-3.5.55-.32a12.18 12.18 0 0 1 11 0l.55.32zm-4.57-3.49l4.57 2.64 4.57-2.64a11.78 11.78 0 0 0-9.1 0zM205.04 327.77l-.05 47.76 4.62-1.65 11.51-7.17v-47.36L207 327.77h-1.96zM490.93 348.38a.62.62 0 0 1 0 1.18 2.29 2.29 0 0 1-2 0c-.57-.33-.57-.85 0-1.18a2.23 2.23 0 0 1 2 0zM496.26 345.3c.57.32.57.85 0 1.18a2.29 2.29 0 0 1-2 0 .62.62 0 0 1 0-1.18 2.23 2.23 0 0 1 2 0zM501.6 342.22c.57.32.57.85 0 1.18a2.29 2.29 0 0 1-2 0 .62.62 0 0 1 0-1.18 2.23 2.23 0 0 1 2 0zM480.25 348.38c.57.33.57.85 0 1.18a2.29 2.29 0 0 1-2 0 .62.62 0 0 1 0-1.18 2.23 2.23 0 0 1 2 0zM485.59 345.3a.62.62 0 0 1 0 1.18 2.29 2.29 0 0 1-2 0 .62.62 0 0 1 0-1.18 2.23 2.23 0 0 1 2 0zM490.93 342.22a.62.62 0 0 1 0 1.18 2.29 2.29 0 0 1-2 0c-.57-.33-.57-.86 0-1.18a2.23 2.23 0 0 1 2 0z" class="cls-3"/><ellipse cx="495.24" cy="339.73" class="cls-3" rx="1.44" ry=".83"/><path d="M501.6 336.05c.57.33.57.86 0 1.18a2.23 2.23 0 0 1-2 0 .62.62 0 0 1 0-1.18 2.29 2.29 0 0 1 2 0zM474.92 345.3a.62.62 0 0 1 0 1.18 2.29 2.29 0 0 1-2 0c-.57-.33-.57-.86 0-1.18a2.23 2.23 0 0 1 2 0z" class="cls-3"/><ellipse cx="479.23" cy="342.81" class="cls-3" rx="1.44" ry=".83"/><path d="M469.58 342.22a.62.62 0 0 1 0 1.18 2.29 2.29 0 0 1-2 0 .62.62 0 0 1 0-1.18 2.23 2.23 0 0 1 2 0zM474.92 339.14a.62.62 0 0 1 0 1.17 2.23 2.23 0 0 1-2 0 .61.61 0 0 1 0-1.17 2.23 2.23 0 0 1 2 0zM469.53 336c.57.33.57.86 0 1.18a2.23 2.23 0 0 1-2 0 .62.62 0 0 1 0-1.18 2.29 2.29 0 0 1 2 0z" class="cls-3"/><path d="M501.19 330.22l-.12-23.76h-34.48l.11 23.45a1.61 1.61 0 0 0 0 .31 2.54 2.54 0 0 0 1.41 1.72l12.89 7.43a6.48 6.48 0 0 0 5.8.24l13.42-7.75a1.67 1.67 0 0 0 .97-1.64z" class="cls-1"/><path d="M484.25 340.92a7.43 7.43 0 0 1-3.64-.92l-12.86-7.43a3.21 3.21 0 0 1-1.77-2.25 2.66 2.66 0 0 1 0-.49l-.12-22.83a1.22 1.22 0 0 1 1.22-1.22h33.51a1.22 1.22 0 0 1 1.22 1.21l.12 23.24a2.41 2.41 0 0 1-1.36 2.31l-13.43 7.75a5.91 5.91 0 0 1-2.89.63zm-16.92-33.72l.11 22.7v.23a1.92 1.92 0 0 0 1.05 1.17l12.86 7.43a5.73 5.73 0 0 0 5.07.24l13.43-7.75c.31-.18.68-.49.63-.9v-.09l-.12-23z" class="cls-3"/><path d="M500.1 308.2l-13.42 7.8a6.47 6.47 0 0 1-5.81-.24L468 308.28c-1.72-1-1.9-2.49-.42-3.35l13.42-7.75a6.48 6.48 0 0 1 5.8.24l12.86 7.43c1.74.99 1.93 2.49.44 3.35z" class="cls-1"/><path d="M484.15 317.27a7.54 7.54 0 0 1-3.64-.92l-12.87-7.43a3.1 3.1 0 0 1-1.78-2.53 2.42 2.42 0 0 1 1.37-2.09l13.42-7.75a7.15 7.15 0 0 1 6.54.24l12.86 7.43a3.07 3.07 0 0 1 1.79 2.53 2.45 2.45 0 0 1-1.37 2.09L487 316.59a5.91 5.91 0 0 1-2.85.68zm-.62-19.93a4.38 4.38 0 0 0-2.15.48L468 305.57c-.24.14-.64.43-.64.82s.4.88 1.06 1.26l12.86 7.43a5.73 5.73 0 0 0 5.07.24l13.42-7.75c.24-.14.64-.43.64-.82s-.39-.88-1.05-1.26l-12.87-7.43a6 6 0 0 0-2.96-.72z" class="cls-3"/><path d="M478.18 305.17c-3.16 1.83-3.16 4.79 0 6.61a12.67 12.67 0 0 0 11.44 0c3.16-1.82 3.16-4.78 0-6.61l-5.72 3.31z" class="cls-2"/><path d="M483.85 311.81a12.1 12.1 0 0 1-5.91-1.41c-1.64-.95-2.55-2.23-2.55-3.62s.91-2.67 2.55-3.62l.19-.1 5.72 3.3 5.72-3.3.18.1c1.65.95 2.55 2.24 2.55 3.62s-.9 2.67-2.55 3.62a12.08 12.08 0 0 1-5.9 1.41zm-5.72-7.9a3.56 3.56 0 0 0-2 2.87 3.67 3.67 0 0 0 2.19 3 12.26 12.26 0 0 0 11.07 0 3.67 3.67 0 0 0 2.19-3 3.57 3.57 0 0 0-2-2.87l-5.72 3.3z" class="cls-3"/><path d="M478.18 302.94l5.72 3.3 5.72-3.3a12.61 12.61 0 0 0-11.44 0z" class="cls-2"/><path d="M484 305.6l-6.46-3.73.55-.32a13.1 13.1 0 0 1 11.81 0l.55.32zm-5-3.71l5 2.86 5-2.86a12.49 12.49 0 0 0-10 0zM483.85 316.52v23.67l3.38-1.12 14.23-8.24-.57-23.36-15.37 9.06-1.67-.01zM165.94 326.5a.62.62 0 0 1 0 1.18 2.29 2.29 0 0 1-2 0c-.57-.33-.57-.86 0-1.18a2.23 2.23 0 0 1 2 0zM171.28 323.42a.62.62 0 0 1 0 1.18 2.29 2.29 0 0 1-2 0c-.57-.33-.57-.86 0-1.18a2.23 2.23 0 0 1 2 0zM176.61 320.34c.57.32.57.85 0 1.18a2.29 2.29 0 0 1-2 0 .62.62 0 0 1 0-1.18 2.23 2.23 0 0 1 2 0zM155.27 326.5a.62.62 0 0 1 0 1.18 2.31 2.31 0 0 1-2.05 0 .62.62 0 0 1 0-1.18 2.25 2.25 0 0 1 2.05 0zM160.6 323.42c.57.32.57.85 0 1.18a2.29 2.29 0 0 1-2 0 .62.62 0 0 1 0-1.18 2.23 2.23 0 0 1 2 0z" class="cls-3"/><ellipse cx="164.92" cy="320.93" class="cls-3" rx="1.44" ry=".83"/><path d="M171.28 317.26a.62.62 0 0 1 0 1.17 2.23 2.23 0 0 1-2 0 .61.61 0 0 1 0-1.17 2.23 2.23 0 0 1 2 0zM176.61 314.17c.57.33.57.86 0 1.18a2.23 2.23 0 0 1-2 0 .62.62 0 0 1 0-1.18 2.29 2.29 0 0 1 2 0zM149.93 323.42a.62.62 0 0 1 0 1.18 2.29 2.29 0 0 1-2 0c-.57-.33-.57-.86 0-1.18a2.23 2.23 0 0 1 2 0zM155.27 320.34a.62.62 0 0 1 0 1.18 2.31 2.31 0 0 1-2.05 0 .62.62 0 0 1 0-1.18 2.25 2.25 0 0 1 2.05 0zM160.6 317.26a.61.61 0 0 1 0 1.17 2.23 2.23 0 0 1-2 0 .62.62 0 0 1 0-1.17 2.23 2.23 0 0 1 2 0z" class="cls-3"/><ellipse cx="164.92" cy="314.76" class="cls-3" rx="1.44" ry=".83"/><path d="M171.28 311.09a.62.62 0 0 1 0 1.18 2.23 2.23 0 0 1-2 0c-.57-.32-.57-.85 0-1.18a2.29 2.29 0 0 1 2 0zM176.61 308c.57.33.57.86 0 1.18a2.23 2.23 0 0 1-2 0 .62.62 0 0 1 0-1.18 2.29 2.29 0 0 1 2 0z" class="cls-3"/><ellipse cx="143.57" cy="320.93" class="cls-3" rx="1.44" ry=".83"/><path d="M149.93 317.26a.62.62 0 0 1 0 1.17 2.23 2.23 0 0 1-2 0 .61.61 0 0 1 0-1.17 2.23 2.23 0 0 1 2 0zM155.27 314.17a.62.62 0 0 1 0 1.18 2.25 2.25 0 0 1-2.05 0 .62.62 0 0 1 0-1.18 2.31 2.31 0 0 1 2.05 0zM160.6 311.09c.57.33.57.86 0 1.18a2.23 2.23 0 0 1-2 0 .62.62 0 0 1 0-1.18 2.29 2.29 0 0 1 2 0zM165.94 308a.62.62 0 0 1 0 1.18 2.23 2.23 0 0 1-2 0c-.57-.32-.57-.85 0-1.18a2.29 2.29 0 0 1 2 0zM171.28 304.93a.62.62 0 0 1 0 1.18 2.29 2.29 0 0 1-2 0c-.57-.33-.57-.85 0-1.18a2.29 2.29 0 0 1 2 0zM139.26 317.26a.62.62 0 0 1 0 1.17 2.25 2.25 0 0 1-2 0 .62.62 0 0 1 0-1.17 2.25 2.25 0 0 1 2 0zM144.59 314.17c.57.33.57.86 0 1.18a2.23 2.23 0 0 1-2 0 .62.62 0 0 1 0-1.18 2.29 2.29 0 0 1 2 0z" class="cls-3"/><ellipse cx="148.91" cy="311.68" class="cls-3" rx="1.44" ry=".83"/><ellipse cx="154.25" cy="308.6" class="cls-3" rx="1.44" ry=".83"/><path d="M160.6 304.93c.57.33.57.85 0 1.18a2.29 2.29 0 0 1-2 0 .62.62 0 0 1 0-1.18 2.29 2.29 0 0 1 2 0zM165.94 301.85a.62.62 0 0 1 0 1.18 2.29 2.29 0 0 1-2 0c-.57-.33-.57-.86 0-1.18a2.23 2.23 0 0 1 2 0zM133.92 314.17a.62.62 0 0 1 0 1.18 2.23 2.23 0 0 1-2 0c-.57-.32-.57-.85 0-1.18a2.29 2.29 0 0 1 2 0zM139.26 311.09a.62.62 0 0 1 0 1.18 2.25 2.25 0 0 1-2 0 .62.62 0 0 1 0-1.18 2.31 2.31 0 0 1 2 0z" class="cls-3"/><ellipse cx="143.57" cy="308.6" class="cls-3" rx="1.44" ry=".83"/><path d="M149.93 304.93a.62.62 0 0 1 0 1.18 2.29 2.29 0 0 1-2 0c-.57-.33-.57-.85 0-1.18a2.29 2.29 0 0 1 2 0zM155.27 301.85a.62.62 0 0 1 0 1.18 2.29 2.29 0 0 1-2 0c-.57-.33-.57-.85 0-1.18a2.23 2.23 0 0 1 2 0zM160.6 298.77c.57.32.57.85 0 1.18a2.29 2.29 0 0 1-2 0 .62.62 0 0 1 0-1.18 2.23 2.23 0 0 1 2 0z" class="cls-3"/><ellipse cx="132.9" cy="308.6" class="cls-3" rx="1.44" ry=".83"/><path d="M139.26 304.93a.62.62 0 0 1 0 1.18 2.31 2.31 0 0 1-2 0 .62.62 0 0 1 0-1.18 2.31 2.31 0 0 1 2 0z" class="cls-3"/><ellipse cx="143.57" cy="302.44" class="cls-3" rx="1.44" ry=".83"/><ellipse cx="148.91" cy="299.36" class="cls-3" rx="1.44" ry=".83"/><path d="M155.27 295.69a.62.62 0 0 1 0 1.18 2.29 2.29 0 0 1-2 0c-.57-.33-.57-.86 0-1.18a2.23 2.23 0 0 1 2 0z" class="cls-3"/><g id="_7" data-name="7"><path d="M149.34 298.2l.6 2.43-3.32 3.41-3.1-1.66 1.63-3.87 1.58-1.28 2.61.97z" class="cls-1"/><path d="M146.76 305l-4.17-2.24 1.95-4.65 2.06-1.66 3.36 1.25.79 3.2zm-2.3-2.9l2 1.09 2.65-2.73-.41-1.66-1.85-.69-1.12.91z" class="cls-3"/><path d="M143.87 297.23c.53-.26 1.85.87 2.49 1.25s-.34 2.38-.38 2.78.75.38 1.41.12c.47-.17 1.24-.39 1.81-.55a.8.8 0 0 0 .57-1l-.13-.52a2 2 0 0 1 1.17 1.77c.15 1.43.76 2.19-.26 2.72a123.39 123.39 0 0 1-12.16 3.39 3.57 3.57 0 0 1-2.39-1.66c-.3-.54-.58-1 .13-1.5.87-.67 3.62-2.16 4.45-2.91s3.29-3.89 3.29-3.89z" class="cls-1"/><path d="M145.48 299.16c.52-.26 1.84.87 2.49 1.25s-.34 2.38-.38 2.78.75.38 1.41.13c.47-.18 1.24-.4 1.81-.56a.79.79 0 0 0 .56-.95l-.12-.53a2 2 0 0 1 1.17 1.77c.15 1.44.76 2.19-.26 2.72s-11.33 3.36-12.16 3.4a3.6 3.6 0 0 1-2.39-1.66c-.3-.55-.58-1 .13-1.51.87-.67 3.62-2.15 4.45-2.91s3.29-3.93 3.29-3.93z" class="cls-2"/><path d="M138.35 308a4.34 4.34 0 0 1-3-2.05 1.65 1.65 0 0 1 .33-2.43c.41-.31 1.15-.77 1.94-1.25a20.64 20.64 0 0 0 2.47-1.63c.64-.58 2.53-3 3.2-3.83l.25-.2c.79-.4 1.73.26 2.65.9a5.57 5.57 0 0 0 .54.36c1 .56.53 1.9.17 2.93l.23-.07c.49-.18 1.28-.42 1.88-.58l-.08-.61-.3-1.28 1.24.42a2.73 2.73 0 0 1 1.67 2.39 9.14 9.14 0 0 0 .17 1c.19.82.41 1.84-.82 2.48a117.62 117.62 0 0 1-12.46 3.45zm5.87-10c-.66.84-2.42 3.06-3.14 3.72a21.88 21.88 0 0 1-2.7 1.8c-.71.43-1.46.88-1.8 1.15a.78.78 0 0 0-.17.16l.19.33a3.24 3.24 0 0 0 1.76 1.36c.74-.06 10.88-2.81 11.85-3.31.24-.13.24-.13.07-.87a11 11 0 0 1-.2-1.12v-.06a1.6 1.6 0 0 1-.68.39c-.56.16-1.3.37-1.75.54s-1.39.47-2 0a1 1 0 0 1-.38-.86 3.89 3.89 0 0 1 .22-.78 6.65 6.65 0 0 0 .38-1.39l-.5-.33a8.9 8.9 0 0 0-1.15-.73z" class="cls-3"/><path d="M163.87 303.41l.05 2.83 2.49 5.82 1.61-.23.85-4.62-.46-3.8h-4.54z" class="cls-1"/><path d="M166 312.86l-2.77-6.6-.07-3.58h5.94l.56 4.56-1 5.25zm-1.31-6.77l2.22 5.16.52-.07.74-4-.37-3h-3.15z" class="cls-3"/><path d="M162.17 309.84c.22-2.63.25-3.8.75-4.11a8.26 8.26 0 0 1 4.25.5c.45.45.12 2.71 0 3.13s.35.48.64-.39.58-1.05.47-1.88a2.65 2.65 0 0 1 .36-1.47s.22 0 .49.55a7.7 7.7 0 0 1 .35 2.69 14.2 14.2 0 0 1-1.2 4.39c-.71 2-1.9 4.3-2.65 4.55-1 .32-3.76.55-4.65-.75a2.2 2.2 0 0 1-.16-2 26.72 26.72 0 0 0 1.35-5.21z" class="cls-1"/><path d="M164.57 310.52c.22-2.63.26-3.8.76-4.11a8.28 8.28 0 0 1 4.25.51c.45.44.12 2.7 0 3.12s.35.48.64-.39.58-1 .47-1.88a2.56 2.56 0 0 1 .36-1.47s.22 0 .49.55a7.72 7.72 0 0 1 .34 2.69 14.16 14.16 0 0 1-1.19 4.39c-.72 2-1.91 4.3-2.65 4.55-1 .33-3.77.55-4.65-.75a2.15 2.15 0 0 1-.16-2 26.43 26.43 0 0 0 1.34-5.21z" class="cls-2"/><path d="M163.79 318.78a4 4 0 0 1-3.37-1.32 2.92 2.92 0 0 1-.26-2.59c.06-.21.15-.49.25-.82a20.72 20.72 0 0 0 1-4.27l.07-.86c.19-2.37.27-3.35 1-3.81s4.47-.07 5.15.6l.09.11a4.37 4.37 0 0 1 .27-.58l.2-.32h.37c.29 0 .79.08 1.21 1a7.67 7.67 0 0 1 .42 3 12.12 12.12 0 0 1-1 4l-.25.67c-.27.75-1.7 4.53-3.11 5a7.26 7.26 0 0 1-2.04.19zm-.89-8.88a21.61 21.61 0 0 1-1.09 4.6c-.1.31-.18.57-.24.77-.26.9 0 1.22.06 1.37.59.87 2.94.75 3.81.46a11.3 11.3 0 0 0 2.19-4.1l.25-.68a10.63 10.63 0 0 0 .9-3.46v-.26c-.06.16-.14.34-.23.6-.45 1.35-1.27 1.2-1.43 1.16a.93.93 0 0 1-.63-1.14 8.67 8.67 0 0 0 .13-2.47 9.55 9.55 0 0 0-3.38-.36A25.5 25.5 0 0 0 163 309zM145.36 249.83s.94 20.25.59 23.09a10.35 10.35 0 0 0 .39 4.05 7.82 7.82 0 0 1 .3 3c-.46 4.49-1 16.15-1.23 17.13-.26 1.2.57 1.91 2 2.16s2.38.28 3-.5 1-7.42 2.56-11.46.26-8.54.37-10.16 2.92-7.93 3.53-10.6.73-12.14.73-12.14z" class="cls-3"/><path d="M148.75 300.16a7.7 7.7 0 0 1-1.52-.18 3.23 3.23 0 0 1-2.24-1.25 2.29 2.29 0 0 1-.3-1.79c.09-.41.28-3.55.47-6.58.24-3.79.51-8.09.75-10.46a7.07 7.07 0 0 0-.27-2.72 11.11 11.11 0 0 1-.41-4.35c.33-2.75-.59-22.76-.6-23v-1.11l13.7 5.13v.52c0 .39-.14 9.58-.75 12.3a49.82 49.82 0 0 1-1.84 5.42 32.94 32.94 0 0 0-1.67 5.06 12 12 0 0 0 .14 1.81c.26 2.2.65 5.53-.56 8.57a40 40 0 0 0-1.8 7.94c-.35 2.24-.51 3.25-.87 3.7a2.56 2.56 0 0 1-2.23.99zm-2.61-49.25c.2 4.32.85 19.58.54 22.1a9.39 9.39 0 0 0 .37 3.75 8.65 8.65 0 0 1 .32 3.29c-.24 2.34-.51 6.62-.74 10.4-.25 4-.4 6.31-.51 6.8a.83.83 0 0 0 .09.66 2 2 0 0 0 1.29.64c1.52.28 2 .12 2.27-.24a22.12 22.12 0 0 0 .58-3 41.72 41.72 0 0 1 1.87-8.25c1.08-2.69.71-5.8.47-7.86a13.66 13.66 0 0 1-.15-2.08 29.62 29.62 0 0 1 1.76-5.47 49.11 49.11 0 0 0 1.79-5.24c.5-2.21.67-9.48.71-11.48z" class="cls-3"/><path d="M154.4 253.62s1.84 15.54 3.93 21.34 1.58 8.64 2.78 10.1 1.9 15.71 2 17.55 1.12 2.53 3.1 2.53 2.84-.43 2.84-2.93 1.29-11 .6-15.08-1.55-6.29-1.72-8.27S169 266.2 169 257.5s-3.45-9.22-3.45-9.22z" class="cls-3"/><path d="M166.2 305.87c-2.48 0-3.73-1.06-3.83-3.23-.44-9.24-1.19-16.28-1.82-17.11a7.55 7.55 0 0 1-1.19-3.61 37.36 37.36 0 0 0-1.71-6.71c-2.1-5.81-3.91-20.86-4-21.5l-.06-.52 11.87-5.67h.22c.42.06 4.07.87 4.07 9.94 0 5.16-.45 11-.78 15.33-.23 2.91-.4 5.22-.34 6a21.2 21.2 0 0 0 .66 3.27c.31 1.29.71 2.9 1.06 4.94.48 2.85 0 7.79-.31 11.39-.15 1.63-.29 3.05-.29 3.81.02 3.06-1.34 3.67-3.55 3.67zm-11-51.81c.34 2.74 2 15.59 3.83 20.65a37.71 37.71 0 0 1 1.79 7 6.82 6.82 0 0 0 .87 2.93c1.14 1.38 1.79 10.54 2.15 18 0 1.15.46 1.82 2.37 1.82 1.57 0 2.11-.1 2.11-2.19 0-.83.13-2.21.29-3.95.33-3.52.78-8.34.32-11-.34-2-.71-3.51-1-4.84a24 24 0 0 1-.69-3.49 60.53 60.53 0 0 1 .34-6.22c.33-4.26.78-10.11.78-15.21 0-6.65-2.05-8.13-2.67-8.43z" class="cls-3"/><path d="M165 259.55c2.59 1.42 3.95 1.25 3.95 1.25 0-1.16.06-2.32.06-3.44a20.25 20.25 0 0 0-.61-5.37l-6.31 2.87s.36 3.27 2.91 4.69z" class="cls-1"/><path d="M168.84 261.54a9.08 9.08 0 0 1-4.16-1.34c-2.89-1.59-3.27-5.12-3.29-5.27v-.52l7.57-3.45.23.83a21.26 21.26 0 0 1 .63 5.57c0 1.13 0 2.29-.06 3.46v.64l-.63.07zm-3.45-2.63a9.54 9.54 0 0 0 2.88 1.11v-2.66a22.1 22.1 0 0 0-.38-4.34l-5 2.27a5.49 5.49 0 0 0 2.45 3.62z" class="cls-3"/><path d="M153.22 208.37s-3.56-1-4.71-.58-3.39 3.51-4 7 1.31 18.61 1.31 18.61-.74 13.32-.91 15.33c-.13 1.56 1 3.45 8 5.74s14.09.92 16.13 0 1.58-.8.78-5.51a155.45 155.45 0 0 1-1.65-16.76c-.12-3.79 2.62-15.75 2.62-15.75a37.23 37.23 0 0 0-5.52-4.24c-3.61-2.35-12.05-3.84-12.05-3.84z" class="cls-1"/><path d="M155.12 212.39s-3.56-1-4.71-.57-3.39 3.5-4 7 1.31 18.6 1.31 18.6-.53 11-.71 13c-.13 1.56 1.17 2.8 8.2 5.1s12.54-.49 14.58-1.41.82-.89.72-1.11c-1.92-4.37-.3-13-.42-16.78s2.62-15.75 2.62-15.75a37.81 37.81 0 0 0-5.51-4.25c-3.64-2.33-12.08-3.83-12.08-3.83z" class="cls-2"/><path d="M161.12 256.47a27.4 27.4 0 0 1-8.44-1.29c-6.19-2-8.74-4-8.52-6.5.17-2 .9-15.18.91-15.31-.08-.49-1.95-15.13-1.3-18.7s2.95-7 4.5-7.57c1.28-.44 4.41.36 5.11.55s8.68 1.59 12.29 3.95a37.72 37.72 0 0 1 5.64 4.35l.29.28-.09.4c0 .12-2.72 11.9-2.61 15.56a154.68 154.68 0 0 0 1.64 16.66c.14.83.27 1.51.38 2.07.52 2.73.56 3.27-1.58 4.23a22.72 22.72 0 0 1-8.22 1.32zm-11.86-48a1.74 1.74 0 0 0-.51 0c-.75.27-2.93 3.05-3.54 6.45s1.3 18.23 1.32 18.38c0 .68-.74 13.49-.91 15.49-.05.61-.21 2.46 7.51 5 6.93 2.26 13.87.81 15.61 0 1.14-.51 1.14-.51.74-2.61-.11-.57-.24-1.26-.39-2.11a161.15 161.15 0 0 1-1.66-16.85c-.1-3.49 2.07-13.36 2.56-15.53a40.88 40.88 0 0 0-5.12-3.88c-3.44-2.25-11.7-3.73-11.78-3.74h-.07a17.36 17.36 0 0 0-3.76-.64z" class="cls-3"/><path d="M154.28 208.57a7.94 7.94 0 0 1 .17 3.36c-.28 2-.31 2.44.66 3.21a4.69 4.69 0 0 0 5.23-.14c2.1-1.32 2.3-2 2.3-2.79s-1.18-2.87-1-5.25a41.7 41.7 0 0 1 .56-4.4l.45-2-1.93-.84z" class="cls-1"/><path d="M157.46 216.59a4.58 4.58 0 0 1-2.8-.87c-1.34-1.07-1.21-1.95-.93-3.9a7.59 7.59 0 0 0-.14-3l-.12-.36 7-9.62 3 1.3-.58 2.6s-.37 2-.54 4.29a10 10 0 0 0 .67 3.8 4.94 4.94 0 0 1 .34 1.4c0 1.11-.43 2-2.64 3.41a6.1 6.1 0 0 1-3.26.95zm-2.38-7.87a9.31 9.31 0 0 1 .1 3.31c-.29 2-.23 2.05.39 2.54a4 4 0 0 0 4.38-.19c2-1.23 2-1.75 2-2.17a5.62 5.62 0 0 0-.26-.94 11.33 11.33 0 0 1-.74-4.36 41 41 0 0 1 .57-4.49l.32-1.43-.83-.36z" class="cls-3"/><path d="M151.38 196.36c-.92.57-1.16 2-1.22 3-.11 2-.16 5.09.5 6.71 1 2.47 1.82 3.36 2.25 3.67s3.67 0 5.23-1.12a8.48 8.48 0 0 0 3.35-4.41 5.86 5.86 0 0 0-.23-3.54l-8.85-4.34z" class="cls-1"/><path d="M153.73 210.62a2.23 2.23 0 0 1-1.26-.26 9.65 9.65 0 0 1-2.49-4c-.69-1.7-.68-4.76-.55-7 .1-1.82.63-3 1.57-3.61l.18-.11h1.4l9.24 4.53.11.25a6.59 6.59 0 0 1 .26 4 9.1 9.1 0 0 1-3.61 4.81 9.65 9.65 0 0 1-4.85 1.39zm-2.11-13.52a3.41 3.41 0 0 0-.73 2.33c-.17 3 0 5.27.45 6.39 1 2.44 1.73 3.16 2 3.36a8.52 8.52 0 0 0 4.37-1.12 7.67 7.67 0 0 0 3.07-4 5 5 0 0 0-.11-2.81l-8.43-4.13z" class="cls-3"/><path d="M162 201.25s-.81-.66-1.38 0c-.73.83-.13 1.81-1.12 1.68s0-2.16-.86-2.76-4.83-.07-6.64-2c-1-1.07-.75.05-1.42 0a2.52 2.52 0 0 1-2-1.77c-.17-.86.18-2.41 1-2l.34.87a4.45 4.45 0 0 1-.06-4c1-2.24 2.84-2.67 3.39-2.24 1 .78.2 1.77 1.49 2.46a3.18 3.18 0 0 0 2.67.17c1-.17.71.85 1.6 1.12 1.68.52 3.42-.86 5.12 1.68 2 2.9 1.18 5.18.43 6-.43.47-.61.72-.48 1.1s.92-.2 1.17.41-1.47 1.88-1.69 2.87a5.91 5.91 0 0 1-.89 2.47c-.47.56-1 .13-1.25-.52s.47-2.76.47-2.76.75-2.15.11-2.78z" class="cls-3"/><path d="M162.12 208.27h-.2a1.79 1.79 0 0 1-1.27-1.22c-.31-.78.16-2.38.46-3.27a4.19 4.19 0 0 0 .36-2c-.09-.05-.24-.14-.32-.05a1.22 1.22 0 0 0-.26.7 1.26 1.26 0 0 1-1.51 1.22c-1.16-.15-1.13-1.35-1.11-2a2.54 2.54 0 0 0-.07-.88 6.26 6.26 0 0 0-1.5-.24c-1.64-.17-3.89-.41-5.25-1.84l-.06-.06a1.16 1.16 0 0 1-.89.29 3.23 3.23 0 0 1-2.68-2.35 3 3 0 0 1 .72-2.72l.09-.06a5.27 5.27 0 0 1 .48-2.85 4.7 4.7 0 0 1 2.94-2.74 1.83 1.83 0 0 1 1.57.24 2.4 2.4 0 0 1 .86 1.58c.09.42.12.59.52.8a2.1 2.1 0 0 0 1.8.19l.4-.09a1.45 1.45 0 0 1 1.64.82c.13.23.18.28.29.32a4 4 0 0 0 1.4.07 3.94 3.94 0 0 1 4.12 1.9c2.24 3.33 1.22 6 .36 6.89a1.12 1.12 0 0 1 .85.7c.31.72-.25 1.41-.85 2.13a4.19 4.19 0 0 0-.8 1.19 6.41 6.41 0 0 1-1.05 2.78 1.34 1.34 0 0 1-1.04.55zm-.92-8.05a2 2 0 0 1 1.24.46c1 .9.24 2.94 0 3.55a6.83 6.83 0 0 0-.47 2.23 1.59 1.59 0 0 0 .08.18 6.75 6.75 0 0 0 .66-2 4.68 4.68 0 0 1 1.1-1.81l.36-.45a.92.92 0 0 1-.93-.64 1.74 1.74 0 0 1 .65-1.83c.47-.51 1.29-2.41-.5-5.08a2.54 2.54 0 0 0-2.82-1.25 5.36 5.36 0 0 1-1.92-.14 1.88 1.88 0 0 1-1.12-1c0-.06-.09-.15-.11-.17a1.52 1.52 0 0 1-.32.11 3.59 3.59 0 0 1-2.84-.31 2.31 2.31 0 0 1-1.26-1.81c-.08-.37-.12-.54-.35-.72s-1.48.28-2.26 2a3.83 3.83 0 0 0-.28 2.53l.35.9-1.26.63a2.08 2.08 0 0 0 0 .66 1.83 1.83 0 0 0 1.24 1.16 1.06 1.06 0 0 1 .79-.45 1.91 1.91 0 0 1 1.23.69c1 1 2.92 1.24 4.33 1.39a5 5 0 0 1 2.19.5 1.91 1.91 0 0 1 .7 1.64 2.42 2.42 0 0 1 .31-.45 1.49 1.49 0 0 1 1.21-.52z" class="cls-3"/><path d="M145.74 236.3l-13.2-6.85a2.73 2.73 0 0 1-1.19-3.65l6.65-13.39a2.73 2.73 0 0 1 3.71-1.21l13.2 6.84a2.74 2.74 0 0 1 1.19 3.66l-6.63 13.38a2.73 2.73 0 0 1-3.73 1.22z" class="cls-1"/><path d="M147 237.34a3.46 3.46 0 0 1-1.59-.39l-13.2-6.85a3.49 3.49 0 0 1-1.51-4.63l6.63-13.38a3.47 3.47 0 0 1 4.71-1.54l13.2 6.84a3.5 3.5 0 0 1 1.51 4.64l-6.63 13.38a3.5 3.5 0 0 1-2 1.76 3.7 3.7 0 0 1-1.12.17zm-6.56-25.72a1.88 1.88 0 0 0-.62.11 1.94 1.94 0 0 0-1.18 1L132 226.12a2 2 0 0 0 .88 2.68l13.19 6.85a2 2 0 0 0 2.73-.89l6.63-13.39a2 2 0 0 0-.88-2.67l-13.19-6.85a2 2 0 0 0-.93-.23z" class="cls-3"/><path d="M148.1 230.55a.53.53 0 0 0 .21-.7l-.48-1a6 6 0 0 0 .71-.88l1 .32a.52.52 0 0 0 .63-.35l.58-1.84a.49.49 0 0 0-.31-.64l-1-.33a6 6 0 0 0-.09-1.19l1-.54a.52.52 0 0 0 .21-.69l-.83-1.7a.47.47 0 0 0-.66-.2l-1 .54a4.91 4.91 0 0 0-.89-.76l.33-1.09a.49.49 0 0 0-.32-.63l-1.75-.53a.5.5 0 0 0-.62.35l-.33 1.09a5 5 0 0 0-1.08.13l-.49-1a.47.47 0 0 0-.66-.21l-1.64.93a.54.54 0 0 0-.22.7l.49 1a5 5 0 0 0-.71.88l-1-.32a.51.51 0 0 0-.62.34l-.59 1.85a.51.51 0 0 0 .32.64l1 .32a5.26 5.26 0 0 0 .08 1.19l-1 .54a.54.54 0 0 0-.22.7l.83 1.69a.47.47 0 0 0 .66.21l1-.54a4.91 4.91 0 0 0 .89.76l-.33 1.08a.51.51 0 0 0 .32.64l1.76.52a.5.5 0 0 0 .62-.35l.32-1.09a4.81 4.81 0 0 0 1.07-.12l.49 1a.47.47 0 0 0 .66.2zm-6-4.17a2.79 2.79 0 0 1 1.12-3.62 2.44 2.44 0 0 1 3.43 1.06 2.8 2.8 0 0 1-1.13 3.62 2.44 2.44 0 0 1-3.43-1.06z" class="cls-2"/><path d="M142.78 231.25a1.34 1.34 0 0 1-.35-.05l-1.76-.53a1.18 1.18 0 0 1-.71-.59 1.23 1.23 0 0 1-.1-1l.18-.59-.16-.13-.49.27a1.22 1.22 0 0 1-.95.1 1.18 1.18 0 0 1-.73-.62l-.83-1.69a1.27 1.27 0 0 1 .52-1.66l.53-.3v-.25l-.51-.17a1.25 1.25 0 0 1-.73-.62 1.27 1.27 0 0 1-.06-.94l.58-1.84a1.25 1.25 0 0 1 .62-.75 1.3 1.3 0 0 1 .93-.08l.51.17.12-.15-.27-.55a1.27 1.27 0 0 1 .52-1.66l1.65-.92a1.18 1.18 0 0 1 1.67.52l.25.49h.11l.18-.59a1.21 1.21 0 0 1 .61-.75 1.19 1.19 0 0 1 .92-.1l1.75.53a1.19 1.19 0 0 1 .72.58 1.31 1.31 0 0 1 .1 1l-.18.59.15.13.48-.27a1.21 1.21 0 0 1 1.68.52l.83 1.7a1.26 1.26 0 0 1-.51 1.66l-.53.29v.26l.51.16a1.21 1.21 0 0 1 .71.6 1.28 1.28 0 0 1 .08 1l-.58 1.85a1.24 1.24 0 0 1-1.55.82l-.51-.16-.12.14.26.55a1.26 1.26 0 0 1-.51 1.66l-1.65.92a1.21 1.21 0 0 1-.95.11 1.26 1.26 0 0 1-.73-.63l-.24-.49h-.1l-.18.59a1.24 1.24 0 0 1-.61.75 1.18 1.18 0 0 1-.57.12zm-1.45-1.91l1.29.38.42-1.39h.54a4.71 4.71 0 0 0 .91-.11l.57-.13.62 1.26 1.25-.69-.64-1.29.37-.38a4.57 4.57 0 0 0 .62-.76l.3-.47 1.32.42.46-1.44-1.33-.41v-.56a4.39 4.39 0 0 0-.08-1l-.09-.52 1.25-.7-.62-1.28-1.24.69-.39-.42a4.6 4.6 0 0 0-.75-.65l-.45-.3.42-1.4-1.29-.39-.42 1.4h-.55a3.54 3.54 0 0 0-.91.11l-.57.13-.62-1.27-1.25.7.64 1.29-.37.37a5 5 0 0 0-.62.76l-.3.47-1.32-.42-.46 1.44 1.33.42v.56a5 5 0 0 0 .07 1l.1.52-1.26.7.63 1.28 1.24-.69.39.42a4.17 4.17 0 0 0 .75.65l.46.3zm2.31-2.19a3.34 3.34 0 0 1-.94-.14 3.18 3.18 0 0 1-1.92-1.66 3.54 3.54 0 0 1 1.43-4.58 3.14 3.14 0 0 1 2.52-.27 3.2 3.2 0 0 1 1.92 1.65 3.54 3.54 0 0 1-1.43 4.58 3.22 3.22 0 0 1-1.58.42zm.15-5.33a1.86 1.86 0 0 0-.87.23 2 2 0 0 0-.82 2.65 1.68 1.68 0 0 0 1 .91 1.74 1.74 0 0 0 1.37-.16 2 2 0 0 0 .83-2.65 1.7 1.7 0 0 0-1-.9 1.51 1.51 0 0 0-.51-.08z" class="cls-3"/><path d="M154.28 225.24l-.57 1.38s-3.71-4.87-4.4-4.87-1.76 2.88-1.68 4.18 1.6 3.7 2.42 4.56 2.31.82 2.86 1.47 4.37 13.18 6.14 14.21 2.24-.26 3.14-1.55a58.06 58.06 0 0 0 5.13-9.65c1-2.88 1.72-6.2 1.72-6.2l-6.2-2.2a29.67 29.67 0 0 0-1.73 5 19.58 19.58 0 0 0-.68 6.16s-3.23-5.47-4.1-6.85a3.51 3.51 0 0 1-.81-2.67 7.72 7.72 0 0 0-.65-3.15c-.26-.21-.59.18-.59.18z" class="cls-1"/><path d="M160.18 247.28a3 3 0 0 1-1.5-.48c-1.21-.7-2.67-4.28-5.1-11.07-.54-1.52-1.11-3.08-1.27-3.34a2.94 2.94 0 0 0-.86-.36 4.48 4.48 0 0 1-1.94-1c-.83-.88-2.5-3.44-2.61-5a8.08 8.08 0 0 1 1.51-4.52 1.25 1.25 0 0 1 .9-.44c.32 0 1 0 4.2 4.15l.21-.41a1.15 1.15 0 0 1 1.62-.26c.62.52.94 3 .91 3.74s-.05 1 .71 2.25c.5.81 1.79 3 2.79 4.65a23.68 23.68 0 0 1 .65-3.75 30.49 30.49 0 0 1 1.78-5.14l.28-.59 7.44 2.63-.14.64c0 .13-.76 3.39-1.75 6.28a59.14 59.14 0 0 1-5.22 9.83l-.33.49c-.46.72-1.15 1.7-2.28 1.7zm-10.82-24.66a7.34 7.34 0 0 0-1 3.26 10.18 10.18 0 0 0 2.22 4.11 3.15 3.15 0 0 0 1.32.65 3.22 3.22 0 0 1 1.57.85 19.34 19.34 0 0 1 1.49 3.74c1 2.91 3.48 9.72 4.46 10.31s1.07.33 1.82-.81l.35-.53a57.68 57.68 0 0 0 5-9.47c.72-2.07 1.3-4.4 1.56-5.49l-4.94-1.75a32.5 32.5 0 0 0-1.42 4.26 18.94 18.94 0 0 0-.66 5.91l.3 3.26-1.67-2.82s-3.23-5.48-4.08-6.83a4.26 4.26 0 0 1-.93-3.09 7.67 7.67 0 0 0-.21-1.74l-.67 1.63-.78-1a41.87 41.87 0 0 0-3.73-4.45z" class="cls-3"/><path d="M162.21 226.27a36.24 36.24 0 0 1 1.66-5 18.94 18.94 0 0 1 3.06-5.08 4.18 4.18 0 0 1 2.11-1.21l1.75 1.52s1.31 1.37 1 5.29a21.44 21.44 0 0 1-2.28 7.45 6.58 6.58 0 0 1-4-.69 9.43 9.43 0 0 1-3.3-2.28z" class="cls-1"/><path d="M165.18 226.6a35.41 35.41 0 0 1 1.67-5 18.93 18.93 0 0 1 3.05-5.08 4.18 4.18 0 0 1 2.12-1.21l1.75 1.53s1.3 1.36 1 5.28a21.68 21.68 0 0 1-2.28 7.45 6.61 6.61 0 0 1-4-.69 9.43 9.43 0 0 1-3.31-2.28z" class="cls-2"/><path d="M168.7 230a8.58 8.58 0 0 1-3.5-.82 10.16 10.16 0 0 1-3.56-2.45l-.23-.28.09-.36a36.57 36.57 0 0 1 1.71-5.17 19.55 19.55 0 0 1 3.21-5.3 4.93 4.93 0 0 1 2.52-1.41h.33l2 1.74c.21.21 1.58 1.77 1.21 5.9a21.8 21.8 0 0 1-2.37 7.74l-.15.29-.32.07a4 4 0 0 1-.94.05zm-5.7-3.94a9.93 9.93 0 0 0 2.79 1.78 6.6 6.6 0 0 0 3.18.68 20.43 20.43 0 0 0 2-6.84c.31-3.45-.76-4.71-.77-4.72l-1.4-1.21a4.14 4.14 0 0 0-1.41.93 18.59 18.59 0 0 0-2.91 4.86 34.48 34.48 0 0 0-1.48 4.52z" class="cls-3"/></g></g></g></g></svg>