<svg width="5" height="21" viewBox="0 0 5 21" fill="none" xmlns="http://www.w3.org/2000/svg">
<path d="M2.5 14.7745C1.90041 14.7745 1.40165 14.2831 1.35465 13.646L0.505849 2.14148C0.420668 0.986946 1.27678 0 2.36345 0H2.63655C3.72322 0 4.57933 0.986947 4.49415 2.14148L3.64535 13.646C3.59835 14.2831 3.09959 14.7745 2.5 14.7745ZM2.40683 21C1.37775 21 0.543502 20.1109 0.543502 19.0142V18.8454C0.543502 17.7487 1.37774 16.8596 2.40683 16.8596H2.59317C3.62226 16.8596 4.4565 17.7487 4.4565 18.8454V19.0142C4.4565 20.1109 3.62226 21 2.59317 21H2.40683Z" fill="#9747FF"/>
</svg>
