<svg width="92" height="20" viewBox="0 0 92 20" fill="none" xmlns="http://www.w3.org/2000/svg">
<path d="M38.5034 14.8738H30.6406L40.6618 1.51456C40.8931 1.20388 40.816 0.776699 40.5462 0.582524C40.4305 0.504854 40.2764 0.466019 40.1607 0.466019H25.63C24.3581 0.466019 23.3174 1.51456 23.3174 2.79612C23.3174 4.07767 24.3581 5.12621 25.63 5.12621H32.1438L22.0841 18.4854C21.8528 18.7961 21.9299 19.1845 22.1997 19.4175C22.3153 19.534 22.4695 19.5728 22.6237 19.534H38.4648C39.7368 19.4563 40.7389 18.3689 40.6618 17.0874C40.6232 15.8835 39.6597 14.9515 38.5034 14.8738ZM89.1489 0.427184C87.877 0.427184 86.8363 1.47573 86.8363 2.75728V10.6019L74.3098 0.582524C74.04 0.349515 73.6161 0.38835 73.3848 0.699029C73.2692 0.815534 73.2306 0.970874 73.2306 1.12621V17.2039C73.2306 18.4854 74.2713 19.534 75.5432 19.534C76.8151 19.534 77.8558 18.4854 77.8558 17.2039V9.39806L90.3823 19.4175C90.6906 19.6505 91.1146 19.6117 91.3458 19.301C91.4615 19.1845 91.5 19.0291 91.5 18.8738V2.79612C91.4615 1.47573 90.4208 0.427184 89.1489 0.427184ZM56.0019 15.301C50.7215 15.301 46.7516 12.5049 46.7516 9.98058C46.7516 7.45631 50.7215 4.66019 56.0019 4.66019C61.2823 4.66019 65.2522 7.45631 65.2522 9.98058C65.2522 12.5049 61.3208 15.301 56.0019 15.301ZM56.0019 0C48.3318 0 42.1264 4.46602 42.1264 9.98058C42.1264 15.4951 48.3318 19.9612 56.0019 19.9612C63.672 19.9612 69.8774 15.4951 69.8774 9.98058C69.8774 4.46602 63.672 0 56.0019 0ZM10.4441 15.3398C7.51482 15.3398 5.1637 12.9709 5.1637 10.0194C5.1637 7.06796 7.51482 4.69903 10.4441 4.69903C13.3734 4.69903 15.7245 7.06796 15.7245 10.0194C15.7245 12.932 13.3734 15.301 10.4441 15.3398ZM10.4441 0C4.93244 0 0.5 4.46602 0.5 9.98058C0.5 15.4951 4.93244 19.9612 10.4055 20C15.8787 20 20.3111 15.534 20.3496 10.0194C20.3496 4.46602 15.9172 0 10.4441 0Z" fill="white"/>
</svg>
