<svg width="40" height="40" viewBox="0 0 40 40" fill="none" xmlns="http://www.w3.org/2000/svg">
<circle cx="20" cy="20" r="20" fill="#ED1C24"/>
<path d="M10.0029 15.0553C10.0064 13.4507 10.6439 11.9127 11.7762 10.7779C12.9084 9.64309 14.4431 9.00384 16.0445 9H30V12.0763H16.0445C15.2571 12.0798 14.5029 12.3947 13.9461 12.9527C13.3893 13.5106 13.075 14.2663 13.0716 15.0553L13.0527 20.2213C12.9892 20.8836 12.7086 21.5061 12.2547 21.9917C11.8008 22.4773 11.1992 22.7985 10.5438 22.9053L10 22.9881L10.0029 15.0553Z" fill="white"/>
<path d="M10.0029 28.9997V25.9219H23.9584C24.7453 25.9177 25.4989 25.6027 26.0555 25.0453C26.612 24.4878 26.9268 23.7329 26.9313 22.9444V18.04C26.9348 17.3284 27.1909 16.6412 27.6537 16.1015C28.1166 15.5618 28.7561 15.2048 29.4576 15.0944L30 15.0101V22.9444C29.9962 24.5494 29.3581 26.0876 28.2253 27.2224C27.0925 28.3572 25.5573 28.9963 23.9555 28.9997H10.0029Z" fill="white"/>
<path d="M21.8209 22.9981V19.0193L20.0023 21.1976L18.1837 19.0193V22.9981H15.7734V15.1685H18.0575L20.0023 17.6853L21.9485 15.1685H24.2297V22.9981H21.8209Z" fill="white"/>
</svg>
