<?xml version="1.0" standalone="no"?>
<!DOCTYPE svg PUBLIC "-//W3C//DTD SVG 1.1//EN" "http://www.w3.org/Graphics/SVG/1.1/DTD/svg11.dtd" >
<svg xmlns="http://www.w3.org/2000/svg" xmlns:xlink="http://www.w3.org/1999/xlink" version="1.1">
<metadata>
Created by FontForge 20170731 at Mon Feb 27 14:34:17 2023
 By Aleksey,,,
Copyright 2020 The Roboto Serif Project Authors (https://github.com/googlefonts/RobotoSerif)
</metadata>
<defs>
<font id="RobotoSerif-Medium" horiz-adv-x="560" >
  <font-face 
    font-family="Roboto Serif Medium"
    font-weight="500"
    font-stretch="normal"
    units-per-em="1000"
    panose-1="0 0 0 0 0 0 0 0 0 0"
    ascent="800"
    descent="-200"
    x-height="538"
    cap-height="710"
    bbox="-525 -335 1435 1209"
    underline-thickness="100"
    underline-position="-300"
    unicode-range="U+000D-FB04"
  />
<missing-glyph horiz-adv-x="400" 
d="M0 0v700h400v-700h-400zM50 650v-600h300v600h-300z" />
    <glyph glyph-name="f_f" unicode="ff" horiz-adv-x="809" 
d="M37 538h399v-66h-399v66zM409 538h376v-66h-376v66zM513 63v530q0 69 29.5 107.5t78 54t104.5 15.5q34 0 63 -3.5t41 -7.5v-72q-9 3 -23.5 6t-32.5 5.5t-39 2.5q-32 0 -55.5 -9.5t-35.5 -33t-12 -66.5v-529q0 -3 13.5 -5t34 -3t40.5 -1h21v-54h-318v54h15q19 0 36.5 1
t28.5 3t11 5zM258 63q0 -3 11 -5t28.5 -3t34.5 -1h12v-54h-303v54h18q39 0 60.5 11t21.5 44v471q0 70 26 107.5t70 53t94 15.5q28 0 53.5 -3.5t36.5 -7.5v-71q-11 4 -31.5 8.5t-44.5 4.5q-28 0 -47.5 -9t-29.5 -31t-10 -63v-521z" />
    <glyph glyph-name="f_f_i" unicode="ffi" horiz-adv-x="1105" 
d="M37 538h401v-66h-401v66zM409 538h423v-66h-423v66zM513 63v532q0 51 14.5 85t40.5 53.5t58.5 28t67.5 8.5q26 0 49.5 -3.5t33.5 -7.5v-70q-7 3 -18 5.5t-24 4.5t-27 2q-25 0 -42.5 -8.5t-26 -31t-8.5 -63.5v-535q0 -3 11 -5t29 -3t36 -1h15v-54h-300v54h15q20 0 37 1
t28 3t11 5zM258 63q0 -3 11 -5t28.5 -3t34.5 -1h12v-54h-303v54h18q39 0 60.5 11t21.5 44v471q0 70 26 107.5t70 53t94 15.5q28 0 53.5 -3.5t36.5 -7.5v-71q-11 4 -31.5 8.5t-44.5 4.5q-28 0 -47.5 -9t-29.5 -31t-10 -63v-521zM938 634q-35 0 -56 18t-21 53t21 53t56 18
q34 0 55 -18t21 -53t-21 -53t-55 -18zM886 63v369q0 11 -7.5 18.5t-20.5 12t-30 7t-37 2.5h-17l10 66h220v-430q0 -32 20.5 -43t55.5 -11h2v-54h-282v54h15q14 0 30.5 1t28.5 3t12 5z" />
    <glyph glyph-name="f_f_l" unicode="ffl" horiz-adv-x="1107" 
d="M37 538h399v-66h-399v66zM258 63q0 -3 11 -5t28.5 -3t34.5 -1h12v-54h-303v54h18q39 0 60.5 11t21.5 44v471q0 70 26 107.5t70 53t94 15.5q28 0 53.5 -3.5t36.5 -7.5v-71q-11 4 -31.5 8.5t-44.5 4.5q-28 0 -47.5 -9t-29.5 -31t-10 -63v-521zM409 538h361v-66h-361v66z
M806 0v54h10q15 0 31 1t27.5 3t11.5 5v638l-87 56h205v-649q0 -32 20 -43t55 -11h3v-54h-276zM722 0h-300v54h15q20 0 37 1t28 3t11 5v530q0 52 17.5 86t48 54t72 28.5t89.5 8.5q44 0 79 -7t61.5 -19.5t42.5 -27.5l-12 -69q-17 18 -41 30t-54.5 18t-67.5 6q-40 0 -66 -9.5
t-38.5 -32.5t-12.5 -65v-531q0 -3 11 -5t29 -3t36 -1h15v-54z" />
    <glyph glyph-name="f_b" unicode="fb" horiz-adv-x="1096" 
d="M928 272q0 50 -8 87.5t-24.5 63.5t-42.5 39t-61 13q-39 0 -70.5 -15t-59 -44.5t-54.5 -75.5l-19 36q30 55 61.5 93.5t71 58.5t92.5 20q76 0 129 -35t80.5 -96.5t27.5 -144.5q0 -82 -29.5 -146t-85 -100.5t-132.5 -36.5q-52 0 -91.5 19t-70 57t-58.5 93l25 35
q25 -43 51.5 -72.5t57 -44t67.5 -14.5q36 0 63 13.5t45 40.5t26.5 66.5t8.5 89.5zM513 702l-85 55h203v-635l-7 -7l-35 -126h-76v713zM37 538h360v-66h-360v66zM258 594v-531q0 -3 12.5 -5t31 -3t36.5 -1h21v-54h-318v54h18q39 0 60.5 11t21.5 44v484q0 52 17 86t48 54
t72 28.5t89 8.5q44 0 79 -7t61.5 -19.5t42.5 -27.5l-11 -69q-15 16 -38.5 28t-54.5 19t-70 7q-41 0 -67 -9.5t-38.5 -32.5t-12.5 -65z" />
    <glyph glyph-name="f_f_b" unicode="ffb" horiz-adv-x="1469" 
d="M1301 272q0 50 -8 87.5t-25 63.5t-42.5 39t-61.5 13q-38 0 -70 -15t-59.5 -44.5t-53.5 -75.5l-20 36q30 55 62 93.5t71.5 58.5t91.5 20q76 0 129 -35t81 -96.5t28 -144.5q0 -82 -29.5 -146t-85 -100.5t-133.5 -36.5q-52 0 -91 19t-70 57t-58 93l24 35q25 -43 51.5 -72.5
t57 -44t67.5 -14.5q36 0 63.5 13.5t45 40.5t26.5 66.5t9 89.5zM37 538h399v-66h-399v66zM409 538h361v-66h-361v66zM1004 757v-635l-8 -7l-34 -126h-76v709l-81 59h199zM141 109v471q0 70 26 107.5t70 53t94 15.5q28 0 53.5 -3.5t36.5 -7.5v-71q-11 4 -31.5 8.5t-44.5 4.5
q-28 0 -47.5 -9t-29.5 -31t-10 -63v-521q0 -3 11 -5t28.5 -3t34.5 -1h12v-54h-303v54h18q39 0 60.5 11t21.5 44zM723 0h-301v54h15q20 0 37 1t28 3t11 5v530q0 52 17.5 86t48 54t72 28.5t89.5 8.5q44 0 79 -7t61.5 -19.5t42.5 -27.5l-12 -69q-17 18 -41 30t-54.5 18t-67.5 6
q-40 0 -66 -9.5t-38.5 -32.5t-12.5 -65v-531q0 -3 11.5 -5t29 -3t36.5 -1h15v-54z" />
    <glyph glyph-name="f_f_h" unicode="ffh" horiz-adv-x="1453" 
d="M37 538h399v-66h-399v66zM258 63q0 -3 11 -5t28.5 -3t34.5 -1h12v-54h-303v54h18q39 0 60.5 11t21.5 44v471q0 70 26 107.5t70 53t94 15.5q28 0 53.5 -3.5t36.5 -7.5v-71q-11 4 -31.5 8.5t-44.5 4.5q-28 0 -47.5 -9t-29.5 -31t-10 -63v-521zM409 538h361v-66h-361v66z
M1164 0v54h4q12 0 27 1t26 3t11 5v320q0 29 -7.5 48.5t-24.5 29t-46 9.5q-31 0 -60.5 -13.5t-57.5 -40.5t-56 -69l-13 42q30 51 64.5 86.5t74.5 54t88 18.5q49 0 84 -17t53.5 -51.5t18.5 -86.5v-285q0 -32 20.5 -43t54.5 -11h3v-54h-264zM805 0v54h10q15 0 31.5 1t28 3
t11.5 5v643l-85 51h203v-694q0 -3 10.5 -5t25.5 -3t27 -1h4v-54h-266zM422 0v54h15q20 0 37 1t28 3t11 5v530q0 52 17.5 86t48 54t72 28.5t89.5 8.5q44 0 79 -7t61.5 -19.5t42.5 -27.5l-12 -69q-17 18 -41 30t-54.5 18t-67.5 6q-40 0 -66 -9.5t-38.5 -32.5t-12.5 -65v-531
q0 -3 11 -5t29 -3t36 -1h15v-54h-300z" />
    <glyph glyph-name="f_f_j" unicode="ffj" horiz-adv-x="1099" 
d="M37 538h393v-66h-393v66zM409 538h423v-66h-423v66zM513 63v532q0 69 25.5 106.5t67 53t88.5 15.5q26 0 49.5 -3.5t33.5 -7.5v-70q-7 3 -18 5.5t-24 4.5t-27 2q-25 0 -42.5 -8.5t-26 -31t-8.5 -63.5v-535q0 -3 11 -5t29 -3t35 -1h16v-54h-300v54h15q19 0 36.5 1t28.5 3
t11 5zM258 63q0 -3 11 -5t28.5 -3t34.5 -1h12v-54h-303v54h18q39 0 60.5 11t21.5 44v471q0 70 26 107.5t70 53t94 15.5q28 0 53.5 -3.5t36.5 -7.5v-71q-11 4 -31.5 8.5t-44.5 4.5q-28 0 -47.5 -9t-29.5 -31t-10 -63v-521zM938 634q-35 0 -56 18t-21 53t21 53t56 18
q34 0 55 -18t21 -53t-21 -53t-55 -18zM799 -243q-31 0 -58 4.5t-39 8.5v71q16 -5 38 -9.5t49 -4.5q30 0 51.5 10.5t33.5 36t12 70.5v488q0 14 -13 23t-34 13t-48 4h-13l9 66h217v-590q0 -55 -16.5 -91.5t-45 -58.5t-65.5 -31.5t-78 -9.5z" />
    <glyph glyph-name="f_f_k" unicode="ffk" horiz-adv-x="1454" 
d="M37 538h399v-66h-399v66zM258 63q0 -3 11 -5t28.5 -3t34.5 -1h12v-54h-303v54h18q39 0 60.5 11t21.5 44v471q0 70 26 107.5t70 53t94 15.5q28 0 53.5 -3.5t36.5 -7.5v-71q-11 4 -31.5 8.5t-44.5 4.5q-28 0 -47.5 -9t-29.5 -31t-10 -63v-521zM1435 0h-282v54h5
q14 0 28.5 1t24.5 3.5t10 5.5l-182 214v11l186 179q0 6 -13 9t-32 5t-35 2h-10v54h267v-54h-10q-21 0 -38.5 -4t-32.5 -13t-31 -24l-178 -170l15 63l212 -245q13 -16 26.5 -23.5t29 -10.5t34.5 -3h6v-54zM409 538h361v-66h-361v66zM1072 0h-266v54h10q15 0 31 1t27.5 3
t11.5 5v635l-81 59h199v-694q0 -3 11 -5t26 -3t26 -1h5v-54zM631 63q0 -3 11 -5t29 -3t36 -1h15v-54h-300v54h15q20 0 37 1t28 3t11 5v530q0 52 17.5 86t48 54t72 28.5t89.5 8.5q44 0 79 -7t61.5 -19.5t42.5 -27.5l-12 -69q-17 18 -41 30t-54.5 18t-67.5 6q-40 0 -66 -9.5
t-38.5 -32.5t-12.5 -65v-531z" />
    <glyph glyph-name="f_h" unicode="fh" horiz-adv-x="1080" 
d="M37 538h360v-66h-360v66zM792 0v54h3q13 0 28 1t25.5 3t10.5 5v320q0 29 -7 48.5t-24 29t-46 9.5q-31 0 -60.5 -13.5t-57.5 -40.5t-57 -69l-12 42q30 51 64.5 86.5t74.5 54t87 18.5q50 0 84.5 -17t53 -51.5t18.5 -86.5v-285q0 -32 20.5 -43t55.5 -11h3v-54h-264zM434 0
v54h10q14 0 30.5 1t27.5 3t11 5v637l-85 57h203v-694q0 -3 10.5 -5t26 -3t27.5 -1h4v-54h-265zM41 0v54h18q39 0 60.5 11t21.5 44v484q0 52 17 86t48 54t72 28.5t89 8.5q44 0 79 -7t61.5 -19.5t42.5 -27.5l-11 -69q-17 18 -41.5 30t-54.5 18t-67 6q-41 0 -67 -9.5
t-38.5 -32.5t-12.5 -65v-531q0 -3 12 -5t30.5 -3t37.5 -1h20v-54h-317z" />
    <glyph glyph-name="f_i" unicode="fi" horiz-adv-x="737" 
d="M37 538h432v-66h-432v66zM565 634q-34 0 -55 18t-21 53t21 53t55 18t55.5 -18t21.5 -53t-21.5 -53t-55.5 -18zM428 0v54h15q14 0 30 1t28 3t12 5v369q0 11 -7.5 18.5t-20 12t-30 7t-36.5 2.5h-10l9 66h213v-430q0 -32 20.5 -43t55.5 -11h2v-54h-281zM350 0h-309v54h18
q39 0 60.5 11t21.5 44v486q0 69 25.5 106.5t66.5 53t89 15.5q26 0 49 -3.5t34 -7.5v-70q-7 3 -18 5.5t-24 4.5t-28 2q-25 0 -42 -8.5t-26 -31t-9 -63.5v-535q0 -3 11.5 -5t29 -3t35.5 -1h16v-54z" />
    <glyph glyph-name="f_j" unicode="fj" horiz-adv-x="726" 
d="M565 634q-34 0 -55.5 18t-21.5 53t21.5 53t55.5 18t55.5 -18t21.5 -53t-21.5 -53t-55.5 -18zM37 472v66h432v-66h-432zM426 -243q-31 0 -57.5 4.5t-39.5 8.5v71q17 -5 38.5 -9.5t48.5 -4.5q30 0 51.5 10.5t33.5 36t12 70.5v488q0 14 -12.5 23t-34 13t-47.5 4h-13l9 66
h216v-590q0 -55 -16.5 -91.5t-44.5 -58.5t-65 -31.5t-79 -9.5zM350 0h-309v54h18q39 0 60.5 11t21.5 44v486q0 69 25.5 106.5t66.5 53t89 15.5q26 0 49 -3.5t34 -7.5v-70q-7 3 -18 5.5t-24 4.5t-28 2q-25 0 -42 -8.5t-26 -31t-9 -63.5v-535q0 -3 11.5 -5t29 -3t35.5 -1h16
v-54z" />
    <glyph glyph-name="f_k" unicode="fk" horiz-adv-x="1082" 
d="M1063 0h-283v54h6q13 0 27.5 1t24.5 3.5t10 5.5l-182 214v11l187 179q0 6 -13.5 9t-32 5t-34.5 2h-10v54h267v-54h-11q-20 0 -37.5 -4t-33 -13t-31.5 -24l-177 -170l15 63l211 -245q14 -16 27 -23.5t29 -10.5t34 -3h7v-54zM37 538h360v-66h-360v66zM700 0h-266v54h10
q14 0 30.5 1t27.5 3t11 5v638l-77 56h195v-694q0 -3 11 -5t26 -3t27 -1h5v-54zM258 63q0 -3 12 -5t30.5 -3t37.5 -1h20v-54h-317v54h18q39 0 60.5 11t21.5 44v484q0 52 17 86t48 54t72 28.5t89 8.5q44 0 79 -7t61.5 -19.5t42.5 -27.5l-11 -69q-17 18 -41.5 30t-54.5 18
t-67 6q-41 0 -67 -9.5t-38.5 -32.5t-12.5 -65v-531z" />
    <glyph glyph-name="f_l" unicode="fl" horiz-adv-x="734" 
d="M37 538h360v-66h-360v66zM434 0v54h10q14 0 30.5 1t27.5 3t11 5v638l-78 56h196v-649q0 -32 20.5 -43t55.5 -11h2v-54h-275zM358 0h-317v54h18q39 0 60.5 11t21.5 44v484q0 52 17 86t48.5 54t72.5 28.5t88 8.5q43 0 78 -7t62 -19.5t43 -27.5l-11 -69q-17 18 -41.5 30
t-55 18t-66.5 6q-40 0 -66 -9.5t-39 -32.5t-13 -65v-531q0 -3 12 -5t30.5 -3t37.5 -1h20v-54z" />
    <glyph glyph-name=".notdef" horiz-adv-x="400" 
d="M0 0v700h400v-700h-400zM50 650v-600h300v600h-300z" />
    <glyph glyph-name=".null" horiz-adv-x="400" 
 />
    <glyph glyph-name="nonmarkingreturn" unicode="&#xd;" horiz-adv-x="260" 
 />
    <glyph glyph-name="space" unicode=" " horiz-adv-x="260" 
 />
    <glyph glyph-name="exclam" unicode="!" horiz-adv-x="323" 
d="M232 743h-140q0 -54 3 -100.5t7.5 -90.5t9.5 -90t8 -99.5t3 -119.5h78q0 66 3 119.5t8 100t9.5 90t7.5 90t3 100.5zM161 -11q-39 0 -63.5 22.5t-24.5 59.5t24.5 59t63.5 22q40 0 64.5 -22t24.5 -59t-24.5 -59.5t-64.5 -22.5z" />
    <glyph glyph-name="quotedbl" unicode="&#x22;" horiz-adv-x="439" 
d="M187 740h-117q0 -34 4 -61.5t8.5 -57t8 -66.5t3.5 -89h69q0 52 4 89t8.5 66.5t8 57.5t3.5 61zM369 740h-117q0 -34 4 -61.5t8.5 -57t8 -66.5t3.5 -89h69q0 52 4 89t8.5 66.5t8 57.5t3.5 61z" />
    <glyph glyph-name="numbersign" unicode="#" horiz-adv-x="700" 
d="M128 0l150 765h71l-150 -765h-71zM40 225v86h567v-86h-567zM88 475v86h567v-86h-567zM341 0l149 765h73l-151 -765h-71z" />
    <glyph glyph-name="dollar" unicode="$" 
d="M243 802h80v-127l-10 -13v-611l10 -16v-167h-80v166l11 14v611l-11 14v129zM282 68q52 0 86.5 12.5t52 39.5t17.5 70q0 36 -14.5 57.5t-39 34.5t-56.5 21.5t-67 17.5q-43 11 -80 23.5t-65.5 33t-45 54.5t-16.5 86q0 59 28.5 100t81.5 62t126 21q52 0 95 -8t74 -19.5
t45 -22.5v-142h-95v123q11 0 19.5 -4t15 -10.5t9.5 -13t2 -10.5q-16 13 -41.5 23.5t-56.5 16t-65 5.5q-50 0 -83.5 -11.5t-50 -34.5t-16.5 -60q0 -32 13 -51.5t36.5 -31.5t54 -19.5t65.5 -16.5q44 -11 83 -24.5t70 -35t49 -56t18 -86.5q0 -67 -30 -113.5t-85 -69.5t-131 -23
q-59 0 -108.5 9.5t-84.5 23.5t-54 28v150h100v-133q-11 0 -21 5t-17 13t-10.5 15t-2.5 11q18 -17 48 -30.5t68 -21.5t79 -8z" />
    <glyph glyph-name="percent" unicode="%" horiz-adv-x="779" 
d="M196 370q-48 0 -84 22t-56.5 63t-20.5 97q0 58 20.5 98.5t56.5 62.5t84 22t84.5 -22t56.5 -62.5t20 -98.5q0 -56 -20 -97t-56.5 -63t-84.5 -22zM196 424q23 0 38 13.5t22 42t7 72.5q0 45 -7 73.5t-22 42t-38 13.5t-38 -13.5t-22 -42t-7 -73.5q0 -44 7 -72.5t22 -42
t38 -13.5zM582 -14q-47 0 -83.5 22t-56.5 63t-20 97q0 58 20 98.5t56.5 62.5t83.5 22q48 0 84.5 -22t57 -62.5t20.5 -98.5q0 -56 -20.5 -97t-57 -63t-84.5 -22zM55 0l586 710h82l-586 -710h-82zM582 40q23 0 38 13.5t22.5 42t7.5 72.5q0 45 -7.5 73.5t-22.5 42t-38 13.5
q-22 0 -37 -13.5t-22.5 -42t-7.5 -73.5q0 -44 7.5 -72.5t22.5 -42t37 -13.5z" />
    <glyph glyph-name="ampersand" unicode="&#x26;" horiz-adv-x="782" 
d="M661 305q-5 -30 -21 -70.5t-43 -83t-67 -79.5t-94 -59.5t-122 -22.5q-81 0 -140 24t-90.5 71.5t-31.5 118.5q0 48 16.5 83.5t45.5 61.5t68.5 44t85.5 29l23 -40q-35 -14 -61 -34.5t-40.5 -52.5t-14.5 -81q0 -53 18 -88t54 -52.5t88 -17.5q48 0 88 17.5t72.5 47t55.5 66
t35 75t12 72.5q0 4 -11 5.5t-26 3t-27 1.5h-6v59h216v-59h-8q-22 0 -37.5 -3t-24.5 -11t-13 -25zM739 0h-160q-62 59 -120 116t-107 113t-85.5 110t-56.5 106.5t-20 101.5q0 56 26 94t71.5 57.5t104.5 19.5q84 0 129.5 -35.5t45.5 -100.5q0 -40 -18 -70t-50.5 -53t-76 -40.5
t-93.5 -33.5l-23 47q42 16 72.5 29t50.5 28.5t30 35.5t10 49q0 42 -19 61.5t-57 19.5q-27 0 -47.5 -9.5t-32 -32.5t-11.5 -64q0 -37 12.5 -74t38 -77t63.5 -84.5t89.5 -96t115.5 -112.5q16 -14 28 -22.5t24.5 -13t29.5 -4.5h36v-65z" />
    <glyph glyph-name="quotesingle" unicode="'" horiz-adv-x="256" 
d="M186 740h-117q0 -34 4 -61.5t8.5 -57t8 -66.5t3.5 -89h69q0 52 4 89t8.5 66.5t8 57.5t3.5 61z" />
    <glyph glyph-name="parenleft" unicode="(" horiz-adv-x="383" 
d="M170 310q0 79 16.5 146t45 122t63.5 97.5t71 71.5v3h-84q-44 -28 -84.5 -72t-72 -100t-49.5 -124t-18 -144t18 -144t49.5 -124t72 -100t84.5 -72h84v3q-36 29 -71 71.5t-63.5 97.5t-45 122t-16.5 146z" />
    <glyph glyph-name="parenright" unicode=")" horiz-adv-x="383" 
d="M213 310q0 -79 -16.5 -146t-45 -122t-63.5 -97.5t-72 -71.5v-3h85q44 28 84.5 72t71.5 100t49.5 124t18.5 144t-18.5 144t-49.5 124t-71.5 100t-84.5 72h-85v-3q37 -29 72 -71.5t63.5 -97.5t45 -122t16.5 -146z" />
    <glyph glyph-name="asterisk" unicode="*" horiz-adv-x="491" 
d="M84 385l-45 79q20 13 40 20.5t41 14t44.5 16.5t52.5 27l23 -38q-29 -18 -49 -34t-36.5 -30.5t-33 -28.5t-37.5 -26zM200 747h91q0 -24 -3.5 -45.5t-7.5 -43t-8 -47t-4 -59.5h-45q0 34 -3.5 59.5t-7.5 47l-8 43t-4 45.5zM38 601l46 79q21 -12 37.5 -26t33 -28.5
t36.5 -30.5t48 -34l-22 -38q-29 17 -52.5 27t-44.5 17t-41 14.5t-41 19.5zM201 318q0 25 3.5 46t7.5 43t7.5 47.5t3.5 58.5h46q0 -33 3.5 -58.5t7.5 -47.5t7.5 -43t3.5 -46h-90zM275 523l-22 38q28 18 48 34t36.5 31t32.5 28.5t37 25.5l46 -79q-21 -12 -41 -19.5
t-40.5 -14.5t-44 -17t-52.5 -27zM407 385q-20 12 -36.5 26t-33 28.5t-36.5 30.5t-48 34l22 38q29 -17 52.5 -27t44.5 -16.5t40.5 -14t40.5 -20.5z" />
    <glyph glyph-name="plus" unicode="+" 
d="M235 567h89v-454h-89v454zM500 381v-82h-440v82h440z" />
    <glyph glyph-name="comma" unicode="," horiz-adv-x="329" 
d="M124 -183l-76 53q48 19 80.5 41t49.5 48.5t17 59.5q1 6 3 9.5t5 4t6.5 -1.5t6.5 -6q-4 -10 -12.5 -16.5t-19.5 -9t-24 -2.5q-37 0 -61 19.5t-24 54.5q0 36 25 58.5t66 22.5q29 0 51.5 -11.5t34.5 -35.5t12 -63q0 -50 -15 -90.5t-46 -73t-79 -61.5z" />
    <glyph glyph-name="hyphen" unicode="-" horiz-adv-x="476" 
d="M78 340h319v-93h-319v93z" />
    <glyph glyph-name="period" unicode="." horiz-adv-x="308" 
d="M154 -11q-39 0 -63.5 22.5t-24.5 59.5t24.5 59t63.5 22q40 0 64.5 -22t24.5 -59t-24.5 -59.5t-64.5 -22.5z" />
    <glyph glyph-name="slash" unicode="/" horiz-adv-x="519" 
d="M527 763h-96l-439 -908h95z" />
    <glyph glyph-name="zero" unicode="0" 
d="M280 -11q-55 0 -99.5 22t-77 64t-49.5 104t-17 142q0 79 17 141t49.5 104.5t77 64t99.5 21.5t99.5 -21.5t77 -64t49.5 -104.5t17 -141q0 -80 -17 -142t-49.5 -104t-77 -64t-99.5 -22zM280 55q32 0 55 15.5t38.5 48t22.5 82.5t7 120q0 69 -7 119t-22.5 82.5t-38.5 48.5
t-55 16t-55 -16t-38.5 -48.5t-22.5 -82.5t-7 -119q0 -70 7 -120t22.5 -82.5t38.5 -48t55 -15.5z" />
    <glyph glyph-name="one" unicode="1" 
d="M366 96q0 -15 14 -23.5t39 -11.5t60 -3h36v-58h-424v58h51q32 0 55.5 3t36.5 11.5t13 23.5v469l16 11q-7 -26 -24.5 -44.5t-42.5 -31t-56.5 -18t-67.5 -5.5v79q39 1 71.5 6t57.5 15t44 25.5t33 36.5h88v-543z" />
    <glyph glyph-name="two" unicode="2" 
d="M316 89h-236q-3 -4 -3.5 -9t2 -9t7.5 -4q58 36 115.5 72.5t109 74.5t91.5 79t63.5 85t23.5 93q0 60 -25.5 100t-73.5 60.5t-120 20.5q-51 0 -93 -13.5t-73 -32.5t-47 -38v-126h104v130q-6 2 -13.5 -2t-14 -12t-11 -18t-4.5 -20q14 18 34.5 33t48 23.5t59.5 8.5
q36 0 60 -10.5t37 -34.5t13 -67q0 -44 -15.5 -81.5t-44.5 -71t-69 -65.5t-89.5 -67t-106.5 -76v-112h464v211h-67l-9 -82q-2 -17 -14 -26t-37 -11.5t-66 -2.5z" />
    <glyph glyph-name="three" unicode="3" 
d="M257 312l43 -19v30l-59 -21q71 1 129 22.5t92.5 62t34.5 97.5q0 54 -27 91.5t-76.5 57t-115.5 19.5q-52 0 -93.5 -12.5t-70.5 -31t-46 -37.5v-115h102v116q-10 -1 -17.5 -5.5t-12.5 -11t-7.5 -14.5t-1.5 -17q18 24 51 43t88 19q34 0 60 -11t39.5 -35t13.5 -66
q0 -47 -17.5 -77t-51 -44t-81.5 -14h-67v-68h79q59 0 93.5 -16t49.5 -46.5t15 -75.5q0 -50 -16.5 -81t-47.5 -44.5t-75 -13.5q-40 0 -69 11.5t-49.5 30.5t-34 42.5t-23.5 46.5l-63 -40q19 -46 49.5 -82t78.5 -56.5t118 -20.5q73 0 129.5 24t88 70t31.5 112q0 41 -14 73.5
t-45.5 56.5t-81.5 37t-122 13z" />
    <glyph glyph-name="four" unicode="4" 
d="M31 122v93l260 423h69l-20 -41l-267 -437l-3 46h478v-84h-517zM442 -63h-114v671l4 30h110v-701z" />
    <glyph glyph-name="five" unicode="5" 
d="M263 -74q78 0 135 29t88 84t31 133q0 67 -25 117t-72.5 78.5t-114.5 28.5q-42 0 -74 -12t-56.5 -35.5t-41.5 -57.5q1 -6 6 -6.5t10 3t6 8.5v323l-24 -73h320l23 93h-390v-388h64q16 27 34.5 44t42 25t52.5 8q37 0 64.5 -16t42.5 -50t15 -89q0 -62 -17 -101.5t-48.5 -58.5
t-75.5 -19q-52 0 -84.5 18.5t-52 46.5t-33.5 56l-64 -40q19 -43 49 -77t76.5 -53t113.5 -19z" />
    <glyph glyph-name="six" unicode="6" 
d="M464 674l-10 67q-98 -13 -175 -48.5t-130.5 -92.5t-81.5 -133t-28 -172q0 -106 31.5 -173.5t88.5 -99.5t133 -32q71 0 123.5 31t81.5 86.5t29 129.5q0 71 -24.5 121t-69 76.5t-105.5 26.5q-38 0 -69 -12t-55 -34t-42.5 -50t-31.5 -60l7 -49q17 34 34 60t36.5 43.5
t42.5 26.5t51 9q40 0 63 -19.5t33 -55.5t10 -85q0 -56 -12.5 -96t-38.5 -61.5t-65 -21.5q-32 0 -56.5 12t-42 39t-26.5 73t-9 113q0 90 20.5 157t60 113t96.5 73t131 38z" />
    <glyph glyph-name="seven" unicode="7" 
d="M248 546h237l-13 16q-21 -20 -54 -60t-71 -97.5t-73 -130.5t-60.5 -157t-33.5 -178h120q9 120 28.5 208t49 155.5t68 125.5t83.5 118v93h-472v-229h64l8 93q2 18 14.5 27.5t38 12.5t66.5 3z" />
    <glyph glyph-name="eight" unicode="8" 
d="M280 56q31 0 54 9.5t39.5 27.5t24.5 45t8 62q0 50 -14.5 82t-42.5 47.5t-69 15.5q-40 0 -68.5 -15.5t-43 -47.5t-14.5 -82q0 -35 8 -62t24.5 -45t40 -27.5t53.5 -9.5zM280 410q33 0 55.5 13.5t34.5 41.5t12 69t-12 68.5t-34.5 41t-55.5 13.5q-32 0 -55 -13.5t-35 -41
t-12 -68.5t12 -69t35 -41.5t55 -13.5zM280 723q66 0 113.5 -21.5t73.5 -61.5t26 -95q0 -47 -20 -83t-56.5 -58t-85.5 -30l30 19v-27l-30 21q58 -9 102.5 -34t69.5 -65t25 -94q0 -62 -30 -107.5t-85.5 -71t-132.5 -25.5q-76 0 -132 25.5t-86 71t-30 107.5q0 54 25.5 94t70 65
t102.5 34l-31 -21v27l31 -19q-49 8 -86 30t-57 58t-20 83q0 55 26 95t74 61.5t113 21.5z" />
    <glyph glyph-name="nine" unicode="9" 
d="M90 -17l11 -66q102 9 181 40.5t133 85t82 129.5t28 175q0 108 -30.5 175.5t-87 98.5t-132.5 31q-72 0 -125.5 -29t-82.5 -81.5t-29 -124.5q0 -68 25 -117.5t70.5 -76t106.5 -26.5q51 0 88.5 20.5t63.5 56.5t43 80l-7 49q-21 -46 -44 -77t-51.5 -47t-65.5 -16
q-41 0 -65 19.5t-34 54.5t-10 82q0 40 7.5 71.5t22 52.5t36.5 32t52 11q32 0 56.5 -11.5t41 -38.5t25.5 -72.5t9 -114.5q0 -94 -20.5 -160t-60.5 -109t-99.5 -66t-137.5 -31z" />
    <glyph glyph-name="colon" unicode=":" horiz-adv-x="308" 
d="M154 -11q-39 0 -63.5 22.5t-24.5 59.5t24.5 59t63.5 22q40 0 64.5 -22t24.5 -59t-24.5 -59.5t-64.5 -22.5zM154 364q-39 0 -63.5 22.5t-24.5 59.5t24.5 59t63.5 22q40 0 64.5 -22t24.5 -59t-24.5 -59.5t-64.5 -22.5z" />
    <glyph glyph-name="semicolon" unicode=";" horiz-adv-x="331" 
d="M160 364q-39 0 -63.5 22.5t-24.5 59.5t24.5 59t63.5 22q40 0 64.5 -22t24.5 -59t-24.5 -59.5t-64.5 -22.5zM121 -183l-76 53q48 19 80.5 41t49.5 48.5t17 59.5q1 6 3 9.5t5 4t6.5 -1.5t6.5 -6q-4 -10 -12.5 -16.5t-19.5 -9t-24 -2.5q-37 0 -61 19.5t-24 54.5
q0 36 25 58.5t66 22.5q29 0 51.5 -11.5t34.5 -35.5t12 -63q0 -50 -15 -90.5t-46 -73t-79 -61.5z" />
    <glyph glyph-name="less" unicode="&#x3c;" 
d="M476 565v-87l-363 -163l-28 21v48zM476 210v-95l-391 181v57l29 20z" />
    <glyph glyph-name="equal" unicode="=" 
d="M500 479v-82h-440v82h440zM500 269v-82h-440v82h440z" />
    <glyph glyph-name="greater" unicode="&#x3e;" 
d="M96 115v88l362 163l28 -21v-48zM96 470v96l390 -182v-56l-28 -21z" />
    <glyph glyph-name="question" unicode="?" horiz-adv-x="576" 
d="M212 393v-153h93v111q39 10 77.5 26.5t69.5 42t50 61.5t19 84q0 60 -28.5 101t-82 62.5t-129.5 21.5q-53 0 -98 -12.5t-77.5 -29.5t-48.5 -32v-127h107v130q-13 -2 -22 -7t-14.5 -13t-8 -17.5t-1.5 -19.5q14 16 35.5 30t52 22.5t68.5 8.5q40 0 68.5 -12.5t43.5 -38.5
t15 -66q0 -43 -14 -71t-39.5 -47t-60 -31.5t-75.5 -23.5zM260 -11q-39 0 -63.5 22t-24.5 59t24.5 59t63.5 22q40 0 64.5 -22t24.5 -59t-24.5 -59t-64.5 -22z" />
    <glyph glyph-name="at" unicode="@" horiz-adv-x="960" 
d="M481 -94q53 0 100 7.5t87.5 19.5t69.5 24l20 -59q-29 -13 -73.5 -25.5t-97 -20.5t-106.5 -8q-95 0 -173 25t-134 74t-86.5 121t-30.5 166q0 101 35 183.5t98.5 141.5t148.5 90.5t187 31.5q90 0 160 -23t118.5 -65.5t74 -104t25.5 -137.5q0 -73 -17.5 -127t-48 -91
t-69.5 -55.5t-82 -18.5q-30 0 -52 8t-38.5 21t-27 30t-17.5 36l-8 1l40 231l8 -2l44 89h65l-51 -288q-4 -25 -1.5 -40.5t14.5 -22.5t34 -7q37 0 67.5 24t48.5 76t18 135q0 84 -34 144t-102 92.5t-169 32.5q-88 0 -160.5 -27.5t-125.5 -78.5t-81.5 -121.5t-28.5 -157.5
q0 -79 24 -139.5t70 -101.5t111 -62t146 -21zM429 49q-43 0 -77 18.5t-54 56.5t-20 96q0 48 14.5 93.5t41.5 82t66.5 58t89.5 21.5q39 0 65 -16t43 -48t28 -81l-27 -33q-9 43 -22 70t-31 39.5t-44 12.5q-30 0 -53 -17t-37.5 -47t-22 -68t-7.5 -79q0 -36 6 -59t21 -34t41 -11
q25 0 46 14.5t40.5 40t39.5 58.5l27 -21q-31 -49 -55 -81.5t-51 -49t-68 -16.5z" />
    <glyph glyph-name="A" unicode="A" horiz-adv-x="725" 
d="M196 297h282l9 -63h-302zM324 669l19 -22l-185 -565q0 -5 10.5 -10t29 -7.5t40.5 -2.5h12v-62h-235v62h6q27 0 44.5 10t28.5 43l198 600h138l203 -607q10 -29 27.5 -37.5t44.5 -8.5h5v-62h-285v62h13q22 0 40.5 1t29.5 3.5t11 5.5z" />
    <glyph glyph-name="B" unicode="B" horiz-adv-x="712" 
d="M391 710q56 0 100 -11.5t74 -34t45.5 -55.5t15.5 -76q0 -49 -25 -85.5t-73.5 -56.5t-119.5 -21l39 26v-46l-34 28q78 -3 132 -24.5t82.5 -60.5t28.5 -94q0 -49 -17 -86t-50 -62t-80 -38t-109 -13h-352v62h11q33 0 55 7t22 29v514q0 22 -22 29t-55 7h-11v62h343zM225 403
h150q45 0 73 14t40.5 42.5t12.5 68.5q0 37 -13.5 63t-40.5 39.5t-71 13.5h-116v-578h125q49 0 81 15.5t47 46t15 74.5t-15.5 74.5t-48.5 47t-86 16.5h-153v63z" />
    <glyph glyph-name="C" unicode="C" horiz-adv-x="750" 
d="M399 657q-50 0 -90 -19.5t-68.5 -57.5t-43.5 -94t-15 -131t15 -131.5t44 -94.5t71.5 -57t98.5 -19q63 0 108 26t74.5 71.5t45.5 101.5l67 -28q-20 -73 -61 -127.5t-102 -84t-143 -29.5q-78 0 -142 25t-110.5 73t-71.5 117t-25 157t25.5 157.5t72 117.5t108.5 73t134 25
q71 0 121 -25t82 -71t44 -112l-33 27l15 168h72v-240h-80q-16 56 -44.5 96.5t-70.5 63t-98 22.5z" />
    <glyph glyph-name="D" unicode="D" horiz-adv-x="803" 
d="M48 648v62h324q87 0 157 -22.5t120 -67t76.5 -110.5t26.5 -152q0 -85 -26.5 -152t-76.5 -113t-120 -69.5t-157 -23.5h-324v62h11q34 0 55.5 7t21.5 29v514q0 21 -21.5 28.5t-55.5 7.5h-11zM368 643h-108v-576h108q61 0 108 18.5t79 55t49 91t17 126.5t-17 125.5t-49 89
t-79 53t-108 17.5z" />
    <glyph glyph-name="E" unicode="E" horiz-adv-x="682" 
d="M621 224v-224h-573v62h11q33 0 55 7t22 29v514q0 22 -22 29t-55 7h-11v62h549v-199h-69l-11 88q-2 18 -15 27.5t-38 13t-65 3.5h-140v-576h156q32 0 54.5 2t37 7t22 13.5t8.5 21.5l13 113h71zM236 395q45 2 88.5 4t87.5 4.5t88 4.5v-87q-44 2 -87.5 4.5t-87.5 4.5t-89 4
v61z" />
    <glyph glyph-name="F" unicode="F" horiz-adv-x="650" 
d="M259 643v-558q0 -8 8 -12.5t20.5 -7t28 -3t31.5 -0.5h19v-62h-318v62h11q33 0 55 7t22 29v514q0 22 -22 29t-55 7h-11v62h552v-200h-70l-10 89q-2 18 -15 27.5t-38.5 13t-64.5 3.5h-143zM236 385q46 3 91 5t90 4.5t90 3.5v-87q-45 3 -90 5t-90 4.5t-91 3.5v61z" />
    <glyph glyph-name="G" unicode="G" horiz-adv-x="808" 
d="M701 250v-147q-15 -19 -42.5 -40t-65.5 -39.5t-84.5 -29.5t-98.5 -11q-82 0 -148 24.5t-113.5 73t-72.5 117.5t-25 157t26.5 157t74 117t111.5 73.5t138 25.5q68 0 118.5 -23.5t82.5 -67.5t45 -104l-33 27l15 155h71v-227h-79q-16 51 -45 88.5t-70.5 59t-97.5 21.5
q-52 0 -94 -19.5t-71.5 -57.5t-45 -94.5t-15.5 -130.5q0 -76 15.5 -133t45.5 -94t73 -56t98 -19q50 0 84 11t55 26t31 25v135q0 23 -24 30.5t-58 7.5h-21v61h302v-61h-15q-31 0 -49 -7.5t-18 -30.5z" />
    <glyph glyph-name="H" unicode="H" horiz-adv-x="850" 
d="M209 399h423v-67h-423v67zM48 0v62h11q33 0 55 7t22 29v514q0 22 -22 29t-55 7h-11v62h299v-61h-9q-12 0 -26 -1t-26 -2t-19 -2.5t-7 -4.5v-568q0 -3 7 -4.5t19 -3t26 -1.5h26h9v-62h-299zM503 0v61h9q13 0 27 1t25.5 2t18.5 2.5t7 4.5v568q0 3 -7 4.5t-18.5 3t-25.5 1.5
h-27h-9v62h299v-62h-10q-34 0 -56 -7t-22 -29v-514q0 -22 22 -29t56 -7h10v-62h-299z" />
    <glyph glyph-name="I" unicode="I" horiz-adv-x="405" 
d="M140 98v514q0 22 -21.5 29t-55.5 7h-15v62h309v-62h-15q-34 0 -56 -7t-22 -29v-514q0 -22 22 -29t56 -7h15v-62h-309v62h15q34 0 55.5 7t21.5 29z" />
    <glyph glyph-name="J" unicode="J" horiz-adv-x="630" 
d="M271 710h318v-62h-16q-33 0 -55 -7t-22 -29v-384q0 -68 -17.5 -115t-50 -75.5t-77.5 -41.5t-101 -13q-52 0 -93.5 11.5t-70.5 28.5t-46 33v152h114v-147q-17 5 -29.5 13.5t-17 17t-1 12.5t15.5 0q11 -12 28 -24.5t41 -20t54 -7.5q42 0 70 14.5t43 52.5t15 108v385
q0 15 -10.5 22.5t-28 10.5t-40.5 3h-23v62z" />
    <glyph glyph-name="K" unicode="K" horiz-adv-x="779" 
d="M48 0v62h11q33 0 55 7t22 29v514q0 22 -22 29t-55 7h-11v62h300v-62h-9h-27t-26 -1.5t-19 -3t-7 -4.5v-568q0 -3 7 -4t18 -2.5t24.5 -2t25.5 -0.5h9v-62h-296zM445 0v62h9q18 0 35.5 1t29 3.5t11.5 5.5l-232 272v24l259 270q-1 4 -13 6t-30 3t-37 1h-10v62h260v-62h-23
q-17 0 -30 -2.5t-24.5 -8.5t-22.5 -18l-255 -264l18 62l279 -328q11 -12 21 -18t23 -7.5t30 -1.5h14v-62h-312z" />
    <glyph glyph-name="L" unicode="L" horiz-adv-x="650" 
d="M357 710h-309v-62h11q33 0 55 -7t22 -29v-514q0 -22 -22 -29t-55 -7h-11v-62h559v237h-73l-12 -126q-1 -18 -14 -27.5t-39.5 -13t-68.5 -3.5h-140v545q0 22 23 29t59 7h15v62z" />
    <glyph glyph-name="M" unicode="M" horiz-adv-x="985" 
d="M49 0v62h10q23 0 40.5 3t27.5 11t10 22v514q0 15 -10 22.5t-27.5 10.5t-40.5 3h-10v62h274l183 -587l-23 16l186 571h267v-62h-11q-34 0 -55.5 -7t-21.5 -29v-514q0 -22 21.5 -29t55.5 -7h11v-62h-291v62h9q15 0 31 1t28 3t12 5v617l10 4l-231 -695h-73l-231 695h11v-621
q0 -3 12 -5t28.5 -3t29.5 -1h4v-62h-236z" />
    <glyph glyph-name="N" unicode="N" horiz-adv-x="817" 
d="M49 0v62h10q23 0 40.5 3.5t27.5 12t10 22.5v512q0 15 -10 22.5t-27.5 10.5t-40.5 3h-10v62h252l328 -598l-15 -1v525q0 4 -12.5 6.5t-30.5 4t-36 1.5h-14v62h255v-62h-11q-22 0 -39.5 -3t-27.5 -11t-10 -23v-611h-129l-366 668l18 -1v-593q0 -3 12.5 -6t31 -4.5
t35.5 -1.5h14v-62h-255z" />
    <glyph glyph-name="O" unicode="O" horiz-adv-x="816" 
d="M408 -17q-78 0 -143.5 25t-113.5 73.5t-74 117.5t-26 156q0 88 26 156.5t74 117t113.5 74t143.5 25.5q79 0 144 -25.5t113 -74t74 -117t26 -156.5q0 -87 -26 -156t-74 -117.5t-113 -73.5t-144 -25zM408 53q53 0 94.5 19t71 56.5t45 94.5t15.5 132t-15.5 132t-45 94.5
t-71 56.5t-94.5 19q-52 0 -94 -19t-71.5 -56.5t-45 -94.5t-15.5 -132t15.5 -132t44.5 -94.5t71.5 -56.5t94.5 -19z" />
    <glyph glyph-name="P" unicode="P" horiz-adv-x="687" 
d="M261 71v572h114q47 0 79 -16.5t47.5 -48.5t15.5 -81t-16 -82.5t-48 -51t-81 -17.5h-140v-67h152q79 0 137.5 26.5t91 75.5t32.5 118q0 102 -68 156.5t-190 54.5h-338v-61h11q33 0 55 -7t22 -29v-516q0 -22 -22 -29t-55 -7h-11v-61h313v62h-23q-15 0 -28.5 0.5t-25 1.5
t-18 2.5t-6.5 4.5z" />
    <glyph glyph-name="Q" unicode="Q" horiz-adv-x="816" 
d="M366 0l79 10q0 -49 15.5 -78.5t47.5 -43.5t80 -14q34 0 61.5 4.5t53 11.5t48.5 14v-108q-32 -7 -72 -12t-80 -5q-75 0 -127.5 23t-79.5 72.5t-26 125.5zM408 -17q-78 0 -143.5 25t-113.5 73.5t-74 117.5t-26 156q0 88 26 156.5t74 117t113.5 74t143.5 25.5
q79 0 144 -25.5t113 -74t74 -117t26 -156.5q0 -87 -26 -156t-74 -117.5t-113 -73.5t-144 -25zM408 53q53 0 94.5 19t70.5 56.5t44.5 94.5t16.5 132t-14.5 132t-45 94.5t-71.5 56.5t-95 19q-52 0 -94 -19t-71.5 -56.5t-45 -94.5t-15.5 -132t15.5 -132t44.5 -94.5t71.5 -56.5
t94.5 -19z" />
    <glyph glyph-name="R" unicode="R" horiz-adv-x="747" 
d="M378 321l167 -321h174v62h-9q-18 0 -32.5 3t-26.5 13t-23 28l-136 241zM259 72v572h114q47 0 77 -16t45 -46.5t15 -74.5q0 -45 -15 -78t-46 -50.5t-81 -17.5h-126v-64h153q9 0 17.5 2.5t17 5.5t16.5 7q61 12 104.5 39t67 68t23.5 94q0 62 -30.5 106.5t-87.5 67.5t-138 23
h-337v-62h11q33 0 55 -7t22 -29v-514q0 -22 -22 -29t-55 -7h-11v-62h305v62h-16q-14 0 -28 0.5t-25 2t-18 3t-7 4.5z" />
    <glyph glyph-name="S" unicode="S" horiz-adv-x="652" 
d="M353 50q48 0 79 11.5t46.5 37.5t15.5 67q0 38 -16 62t-43.5 39.5t-63.5 26t-75 20.5q-44 12 -84.5 26.5t-72 37.5t-49.5 60.5t-18 93.5q0 62 28 105.5t79 67t120 23.5q56 0 98.5 -17t71.5 -55.5t44 -103.5l-29 25l15 138h67v-204h-75q-14 49 -39.5 82.5t-62 50.5
t-82.5 17q-45 0 -73 -12.5t-41.5 -36.5t-13.5 -59q0 -34 14.5 -55.5t40.5 -35t61 -23t76 -20.5q44 -11 86 -25.5t76 -38t53.5 -60.5t19.5 -94q0 -73 -31 -121.5t-87 -72.5t-129 -24q-64 0 -117 19t-89 64t-51 122l34 -30l-14 -162h-71v234h78q16 -60 47.5 -100t76.5 -60
t100 -20z" />
    <glyph glyph-name="T" unicode="T" horiz-adv-x="718" 
d="M297 98v546h-48q-44 0 -70.5 -4.5t-39 -15t-14.5 -28.5l-11 -117h-70v231h630v-231h-70l-11 117q-1 18 -14 28.5t-39.5 15t-70.5 4.5h-48v-546q0 -22 23 -29t56 -7h18v-62h-318v62h17q34 0 57 7t23 29z" />
    <glyph glyph-name="U" unicode="U" horiz-adv-x="808" 
d="M255 265q0 -57 12.5 -96t36 -62.5t55.5 -34t71 -10.5q38 0 70 11t55 34.5t36 62.5t13 95v363q0 5 -7.5 9t-19 6.5t-25.5 3.5t-28 1h-9v62h250v-62h-11q-21 0 -39 -3.5t-28 -13t-10 -26.5v-340q0 -75 -20.5 -129t-57 -88t-85 -49.5t-104.5 -15.5q-61 0 -112 16t-88.5 50
t-58 87.5t-20.5 128.5v347q0 22 -21.5 29t-55.5 7h-11v62h300v-61h-9q-13 0 -27 -1t-25.5 -2.5t-19 -3t-7.5 -4.5v-373z" />
    <glyph glyph-name="V" unicode="V" horiz-adv-x="733" 
d="M406 42l-19 23l189 563q0 6 -11 10.5t-29 7t-40 2.5h-13v62h235v-62h-5q-28 0 -45 -10t-28 -43l-203 -600h-138l-207 607q-10 30 -27.5 38t-44.5 8h-5v62h285v-62h-14q-22 0 -40 -1t-29 -3t-11 -6z" />
    <glyph glyph-name="W" unicode="W" horiz-adv-x="1041" 
d="M15 710h277v-62h-16q-16 0 -32.5 -1t-28 -3t-11.5 -6l136 -567l-13 2l155 637h131l158 -635l-13 -2l132 555q0 6 -11 10.5t-27 7t-32 2.5h-15v62h222v-62h-6q-26 0 -43 -9.5t-23 -34.5l-145 -604h-134l-157 630l12 -1l-153 -629h-138l-155 615q-6 23 -22 28t-42 5h-6v62z
" />
    <glyph glyph-name="X" unicode="X" horiz-adv-x="756" 
d="M39 648v62h296v-62h-17q-16 0 -33.5 -0.5t-29 -2.5t-11.5 -6l176 -245l8 -4l213 -294q17 -23 32.5 -28.5t41.5 -5.5h15v-62h-303v62h17q16 0 33.5 0.5t29 3t11.5 5.5l-190 263l-8 5l-198 276q-16 23 -32 28t-43 5h-8zM26 0v62h14q25 0 43 9t37 37l199 276l46 -44
l-185 -261q0 -5 12 -9t29.5 -6t34.5 -2h16v-62h-246zM435 352l-45 46l166 233q0 6 -12 9.5t-29 5.5t-34 2h-15v62h242v-62h-9q-26 0 -44.5 -9t-38.5 -36z" />
    <glyph glyph-name="Y" unicode="Y" horiz-adv-x="707" 
d="M294 310l11 -44l-206 349q-9 15 -19 22t-22.5 9t-29.5 2h-8v62h279v-62h-16q-16 0 -32.5 -1t-27 -3t-10.5 -6l183 -321l-31 -2l174 313q0 7 -10.5 11t-27 6.5t-33.5 2.5h-13v62h232v-62h-8q-16 0 -29.5 -3.5t-25 -13.5t-22.5 -28l-195 -340l11 47v-212q0 -22 22.5 -29
t56.5 -7h18v-62h-317v62h18q34 0 56 7t22 29v212z" />
    <glyph glyph-name="Z" unicode="Z" horiz-adv-x="658" 
d="M264 643q-29 0 -51 -2t-36.5 -7t-21.5 -13t-9 -22l-10 -97h-70v208h527v-82l-452 -605l-19 44h277q42 0 68.5 3.5t39 13t14.5 27.5l13 118h71v-229h-555v86l439 588l22 -31h-247z" />
    <glyph glyph-name="bracketleft" unicode="[" horiz-adv-x="365" 
d="M61 -130v880h272v-62h-167v-756h167v-62h-272z" />
    <glyph glyph-name="backslash" unicode="\" horiz-adv-x="519" 
d="M-8 763l439 -908h96l-440 908h-95z" />
    <glyph glyph-name="bracketright" unicode="]" horiz-adv-x="365" 
d="M304 -130h-272v62h167v756h-167v62h272v-880z" />
    <glyph glyph-name="asciicircum" unicode="^" horiz-adv-x="526" 
d="M137 336h-93l162 375h70l-1 -33zM385 336l-140 343l1 32h74l162 -375h-97z" />
    <glyph glyph-name="underscore" unicode="_" horiz-adv-x="514" 
d="M-5 -92h524v-69h-524v69z" />
    <glyph glyph-name="grave" unicode="`" horiz-adv-x="500" 
d="M260 754l51 -119v-26h-39l-100 83q-14 11 -24.5 23t-16 25t-5.5 26q0 22 16 38t41 16q19 0 33 -8t25 -23t19 -35z" />
    <glyph glyph-name="a" unicode="a" horiz-adv-x="596" 
d="M400 327v-58q-55 -7 -95 -17t-66.5 -21.5t-41.5 -26t-21.5 -32t-6.5 -38.5q0 -27 10.5 -44.5t29.5 -26.5t45 -9q28 0 52.5 13.5t47 40.5t45.5 69l3 -57q-20 -42 -46.5 -71t-60 -44.5t-75.5 -15.5q-51 0 -88.5 16t-57.5 48t-20 78q0 42 19 73t60 54t107 39.5t160 29.5z
M401 0l-12 114l-6 3v272q0 33 -9 53t-30.5 29.5t-59.5 9.5q-55 0 -90.5 -15.5t-52.5 -33.5q-2 8 0.5 16t9 15.5t16.5 13t24 6.5v-116h-106v124q14 11 42.5 24t70 23t94.5 10q46 0 83.5 -8.5t65.5 -27.5t43 -49t15 -73v-293q0 -13 9 -20t25 -10.5t39 -6.5l5 -2v-58h-176z" />
    <glyph glyph-name="b" unicode="b" horiz-adv-x="680" 
d="M390 -11q-47 0 -82.5 15.5t-63.5 45t-52 71.5l4 71q26 -43 52 -72t56 -43.5t67 -14.5q35 0 61.5 13.5t44.5 40.5t27 66.5t9 89.5t-8.5 87.5t-24.5 63.5t-41.5 39t-61.5 13q-37 0 -68.5 -14.5t-58.5 -44t-55 -76.5l-2 65q27 46 56.5 78t66 48.5t84.5 16.5q75 0 127.5 -35
t80.5 -96.5t28 -144.5q0 -82 -29.5 -146t-84.5 -100.5t-132 -36.5zM100 655q0 14 -7.5 21t-22.5 11.5t-39 9.5l-10 2v59h197v-636l-8 -7l-34 -126h-76v666z" />
    <glyph glyph-name="c" unicode="c" horiz-adv-x="583" 
d="M337 57q41 0 70.5 14.5t51.5 38t37 49.5l53 -41q-20 -38 -51.5 -67.5t-74 -45.5t-97.5 -16q-86 0 -149.5 33.5t-98 96.5t-34.5 150t35 149.5t99.5 96t152.5 33.5q54 0 95 -8.5t68.5 -20t39.5 -20.5v-156h-106v135q11 -1 19.5 -5.5t14 -11.5t7.5 -15t1 -14
q-20 20 -55.5 34t-80.5 14q-57 0 -94 -24.5t-55 -72t-18 -114.5q0 -53 10.5 -92.5t31 -66t52.5 -40t76 -13.5z" />
    <glyph glyph-name="d" unicode="d" horiz-adv-x="682" 
d="M580 97q0 -20 19.5 -26.5t52.5 -10.5l6 -2v-58h-178l-13 119l-5 -3v539q0 14 -7.5 21t-23.5 11.5t-39 9.5l-10 2v59h198v-661zM291 548q45 0 80.5 -16t64 -46t51.5 -74l-3 -68q-25 45 -51 73.5t-56 43t-67 14.5q-35 0 -62 -14t-45 -40.5t-27 -66t-9 -90.5q0 -49 8 -87
t25 -63.5t42.5 -38.5t61.5 -13q38 0 68.5 14t58 44t54.5 76l2 -65q-26 -45 -55 -77t-65.5 -48.5t-85.5 -16.5q-75 0 -128 34.5t-81 96.5t-28 144q0 83 29.5 146.5t85 100.5t132.5 37z" />
    <glyph glyph-name="e" unicode="e" horiz-adv-x="590" 
d="M163 264q0 -56 12 -95.5t35 -64t54 -36t69 -11.5q40 0 70 14t52 36t37 48l55 -42q-20 -37 -51.5 -65.5t-74.5 -44t-97 -15.5q-81 0 -144.5 32.5t-99.5 94.5t-36 150q0 85 33.5 148.5t92.5 99t136 35.5q61 0 106.5 -19t75 -57.5t45 -96t16.5 -134.5h-414v63h323l-25 -24
q-2 56 -9.5 95t-22.5 62t-38 33.5t-56 10.5t-59.5 -12.5t-45.5 -39t-29 -67.5t-10 -98z" />
    <glyph glyph-name="f" unicode="f" horiz-adv-x="436" 
d="M37 538h375v-66h-375v66zM456 759v-72q-13 4 -38.5 9t-57.5 5t-55 -9.5t-35 -33t-12 -65.5v-530q0 -3 14 -5t34 -3t40 -1h22v-54h-327v54h18q39 0 60.5 11t21.5 44v484q0 69 29 107.5t77.5 54t104.5 15.5q34 0 63.5 -3.5t40.5 -7.5z" />
    <glyph glyph-name="g" unicode="g" horiz-adv-x="648" 
d="M635 465q-44 3 -76 3.5t-54.5 -3t-40.5 -12.5l-17 2q14 32 32 56t40.5 39t51 20.5t64.5 2.5v-108zM303 166q-66 0 -116 23.5t-78 66t-28 100.5q0 57 28 100.5t78.5 67.5t115.5 24q67 0 117.5 -24t78.5 -67.5t28 -100.5q0 -58 -28 -100.5t-78.5 -66t-117.5 -23.5zM303 229
q37 0 61.5 14t36.5 42t12 70q0 43 -12 71.5t-36.5 43t-61.5 14.5q-35 0 -59.5 -14.5t-37 -43t-12.5 -71.5q0 -42 12.5 -70t37 -42t59.5 -14zM246 -244q-67 0 -117 11.5t-78 38.5t-28 70q0 30 14 51.5t43 39.5t76 37l30 -20q-24 -16 -38.5 -31t-20.5 -30.5t-6 -32.5
q0 -22 13.5 -37.5t43.5 -24t79 -8.5h91q51 0 86 11t53 32t18 51q0 27 -17.5 40t-61.5 13h-249l1 5q-41 8 -68 22t-40 35.5t-13 48.5q0 29 15 53t43 44.5t68 38.5l35 -21q-21 -14 -35 -27t-20.5 -25t-6.5 -26q0 -22 17.5 -32t53.5 -10h204q57 0 96.5 -14.5t60.5 -44.5t21 -76
q0 -62 -34.5 -102.5t-93 -60t-130.5 -19.5h-105z" />
    <glyph glyph-name="h" unicode="h" horiz-adv-x="685" 
d="M235 758v-695q0 -3 11 -5t26 -3t27 -1h4v-54h-264v54h3q23 0 40 4.5t26 16.5t9 33v547q0 14 -7.5 21t-22.5 12t-38 9l-10 2v59h196zM660 0h-264v54h3q13 0 28 1t26 3t11 5v321q0 29 -7.5 48t-24.5 28.5t-46 9.5q-30 0 -59 -13t-56.5 -39.5t-55.5 -66.5l1 62q27 43 59 73
t69.5 46t80.5 16q50 0 85 -17t53.5 -51.5t18.5 -86.5v-285q0 -21 9 -33t26 -16.5t40 -4.5h3v-54z" />
    <glyph glyph-name="i" unicode="i" horiz-adv-x="341" 
d="M170 634q-35 0 -56 18t-21 54q0 34 21 52t56 18q34 0 55 -18t21 -52q0 -35 -21 -53.5t-55 -18.5zM235 538v-434q0 -30 20.5 -40t55.5 -10h3v-54h-275v54h3q35 0 55.5 10t20.5 40v331q0 20 -17 27t-52 14l-10 2v60h196z" />
    <glyph glyph-name="j" unicode="j" horiz-adv-x="333" 
d="M121 -57v492q0 14 -9.5 21.5t-27 12t-41.5 7.5l-14 2v60h209v-591q0 -54 -16.5 -91t-45 -58.5t-65.5 -31t-78 -9.5q-31 0 -58 4t-39 9v71q16 -5 38 -9.5t49 -4.5q30 0 51.5 10.5t34 36t12.5 69.5zM172 634q-35 0 -56 18t-21 54q0 34 21 52t56 18q34 0 55 -18t21 -52
q0 -35 -21 -53.5t-55 -18.5z" />
    <glyph glyph-name="k" unicode="k" horiz-adv-x="686" 
d="M667 0h-282v54h5q13 0 27.5 1t25 3.5t10.5 5.5l-182 214v11l187 179q0 6 -13.5 9t-32 5t-35.5 2h-10v54h267v-54h-10q-21 0 -38.5 -4t-32.5 -13t-32 -24l-177 -170l15 63l211 -245q14 -16 27.5 -23.5t29 -10.5t33.5 -3h7v-54zM235 758v-695q0 -3 11.5 -5t26 -3t26.5 -1h5
v-54h-265v54h3q23 0 40 4.5t26 16.5t9 33v547q0 14 -7.5 21t-22.5 12t-38 9l-10 2v59h196z" />
    <glyph glyph-name="l" unicode="l" horiz-adv-x="340" 
d="M237 758v-654q0 -30 20 -40t55 -10h3v-54h-274v54h3q35 0 55 10t20 40v551q0 14 -7.5 21t-22.5 12t-39 9l-10 2v59h197z" />
    <glyph glyph-name="m" unicode="m" horiz-adv-x="987" 
d="M39 0v54h3q34 0 54.5 11t20.5 43v327q0 14 -7.5 21t-23 11.5t-38.5 8.5l-9 2v60h178l12 -117l6 -4v-354q0 -3 10.5 -5t24.5 -3t26 -1h4v-54h-261zM624 0h-248v54h3q12 0 26.5 1t25 3t10.5 5v320q0 29 -6.5 48.5t-20.5 29t-40 9.5q-28 0 -54 -13t-52 -38t-54 -65l1 65
q28 41 58 69.5t65 44t76 15.5q46 0 78.5 -17t49.5 -51.5t17 -86.5v-330q0 -3 10 -5t25 -3t27 -1h3v-54zM962 0h-262v54h3q13 0 27 1t24.5 3t10.5 5v320q0 29 -6.5 48.5t-21 29t-39.5 9.5q-28 0 -54 -13t-52 -38.5t-54 -63.5l1 64q28 41 58 69.5t65 44t76 15.5q46 0 78 -17
t49 -51.5t17 -86.5v-285q0 -32 20.5 -43t55.5 -11h4v-54z" />
    <glyph glyph-name="n" unicode="n" horiz-adv-x="685" 
d="M39 0v54h3q23 0 40 4.5t26 16.5t9 33v327q0 14 -7.5 21t-23 11.5t-38.5 8.5l-9 2v60h179l12 -117l5 -4v-354q0 -3 10.5 -5t25.5 -3t28 -1h4v-54h-264zM660 0h-264v54h3q13 0 28 1t25.5 3t10.5 5v321q0 29 -7 48t-24 28.5t-46 9.5q-30 0 -59 -13t-56.5 -39.5t-55.5 -66.5
v62q27 43 59 73t70 46t81 16q50 0 84.5 -17t53 -51.5t18.5 -86.5v-285q0 -21 9.5 -33t26 -16.5t40.5 -4.5h3v-54z" />
    <glyph glyph-name="o" unicode="o" horiz-adv-x="646" 
d="M602 268q0 -85 -34 -148t-97 -97.5t-148 -34.5t-147.5 34.5t-97 97.5t-34.5 148q0 64 19.5 116t56 88.5t88 56t115.5 19.5t115.5 -19.5t88 -56t56 -88.5t19.5 -116zM167 268q0 -71 17.5 -118t52 -70.5t86.5 -23.5q53 0 87.5 23t51.5 70.5t17 118.5q0 70 -17 117t-51.5 71
t-87.5 24q-52 0 -86.5 -24t-52 -71t-17.5 -117z" />
    <glyph glyph-name="p" unicode="p" horiz-adv-x="695" 
d="M329 -223h-290v54h3q22 0 38.5 4.5t25.5 16.5t9 33v550q0 14 -7.5 21t-23 11.5t-38.5 8.5l-9 2v60h178l13 -130l5 -5v-563q0 -3 12.5 -5t29.5 -3t31 -1h23v-54zM405 -11q-45 0 -79.5 15t-62.5 43.5t-52 69.5l2 71q25 -41 50.5 -69t55.5 -42.5t66 -14.5t62.5 13.5
t44.5 40.5t27 66.5t9 89.5t-8.5 87.5t-24.5 63.5t-42 39t-61 13q-38 0 -68.5 -14.5t-57.5 -43.5t-54 -73l-1 66q26 44 54.5 75t65 47t83.5 16q76 0 128.5 -35t80.5 -96.5t28 -144.5q0 -82 -29.5 -146t-84.5 -100.5t-132 -36.5z" />
    <glyph glyph-name="q" unicode="q" horiz-adv-x="676" 
d="M366 -223v54h23q14 0 31 1t29.5 3t12.5 5v578l7 4l35 118h76v-655q0 -32 19.5 -43t53.5 -11h3v-54h-290zM291 548q46 0 82 -16t64 -45.5t51 -73.5l-4 -68q-25 44 -51 72.5t-56 43t-67 14.5q-35 0 -62 -14t-45 -40.5t-27 -66t-9 -90.5q0 -49 8 -87t25 -63.5t42.5 -38.5
t61.5 -13q38 0 68.5 14t58 44.5t54.5 75.5l2 -66q-26 -44 -55 -76t-65.5 -48.5t-85.5 -16.5q-75 0 -128 34.5t-81 96.5t-28 144q0 83 29.5 146.5t85 100.5t132.5 37z" />
    <glyph glyph-name="r" unicode="r" horiz-adv-x="466" 
d="M434 544v-118q-7 2 -18 3.5t-23.5 2t-23.5 0.5q-26 0 -47 -4.5t-39 -14t-34 -25t-33 -38.5l-1 43q25 50 50.5 84.5t57 52.5t73.5 18q12 0 23 -1t15 -3zM39 0v54h3q34 0 54.5 11t20.5 43v327q0 14 -7.5 21t-23 11.5t-38.5 8.5l-9 2v60h178l13 -142l5 4v-327q0 -8 13 -12.5
t30.5 -5.5t32.5 -1h19v-54h-291z" />
    <glyph glyph-name="s" unicode="s" horiz-adv-x="527" 
d="M377 138q0 23 -11.5 38t-31 24.5t-44 15.5t-51.5 12q-33 8 -65 18.5t-58.5 27.5t-42.5 45t-16 70q0 50 25.5 86t72.5 54.5t113 18.5q52 0 90.5 -6t63.5 -14.5t36 -15.5v-124h-100v101q12 1 19.5 -2.5t11.5 -9.5t5.5 -14.5t-0.5 -18.5q-12 13 -31 21.5t-42.5 13t-52.5 4.5
q-55 0 -80.5 -19.5t-25.5 -54.5q0 -23 11 -38t31 -24t45.5 -16t54.5 -13q32 -8 64.5 -18.5t59 -28t42.5 -45t16 -69.5q0 -51 -25.5 -89t-76 -59t-125.5 -21q-52 0 -93.5 7t-72 18.5t-51.5 23.5v131h103v-134q-17 7 -26 15.5t-12.5 17.5t-2.5 17t5 14q15 -13 37 -23
t50.5 -15.5t62.5 -5.5q40 0 65.5 9t39 28t13.5 47z" />
    <glyph glyph-name="t" unicode="t" horiz-adv-x="436" 
d="M13 471v62h10q31 0 52.5 4t32.5 18t11 40l79 -57h200v-67h-385zM231 166q0 -40 11 -62.5t32.5 -32t51.5 -9.5q25 0 46.5 3.5t29.5 5.5v-68q-11 -3 -27 -6.5t-34.5 -5.5t-38.5 -2q-51 0 -94.5 14.5t-69 52t-25.5 106.5v360l6 8v161h112v-525z" />
    <glyph glyph-name="u" unicode="u" horiz-adv-x="670" 
d="M224 538v-383q0 -29 7.5 -48.5t24 -29t45.5 -9.5t57 13t55.5 39t55.5 66l-1 -62q-27 -43 -58.5 -73t-68.5 -45.5t-80 -15.5q-48 0 -83 17t-53.5 52t-18.5 86v290q0 20 -16.5 28.5t-52.5 12.5l-13 2v60h200zM566 538v-441q0 -13 9 -20t25.5 -11t38.5 -6l6 -2v-58h-179
l-12 119l-6 6v310q0 20 -18 28.5t-53 12.5l-23 2v60h212z" />
    <glyph glyph-name="v" unicode="v" horiz-adv-x="635" 
d="M477 458q0 5 -11 10.5t-27.5 8t-35.5 2.5h-5v59h223v-60h-5q-18 0 -32 -4t-24.5 -14.5t-18.5 -31.5l-162 -433h-124l-161 439q-7 18 -17 27.5t-24.5 13t-34.5 3.5h-4v60h269v-59h-5q-20 0 -38 -0.5t-29.5 -2t-11.5 -5.5l152 -426l-17 18z" />
    <glyph glyph-name="w" unicode="w" horiz-adv-x="916" 
d="M470 454l-23 -4l130 -455h123l123 433q6 20 16.5 30.5t25.5 15t33 4.5h5v60h-224v-59h4q21 0 37.5 -2.5t27 -7.5t10.5 -11l-107 -399l16 -8l-134 487h-108l-137 -480l19 -8l-110 421q0 4 11 5.5t29 2t39 0.5h5v59h-267v-60h4q19 0 33.5 -3.5t24.5 -12.5t15 -27l121 -440
h123z" />
    <glyph glyph-name="x" unicode="x" horiz-adv-x="639" 
d="M620 0h-272v58h3q18 0 35.5 0.5t28.5 2.5t11 5l-150 183l-8 2l-163 198q-9 11 -18 17.5t-21.5 9.5t-31.5 3h-3v59h268v-58h-2q-18 0 -35 -0.5t-28.5 -2t-11.5 -4.5l142 -175l8 -3l169 -203q11 -12 20 -19.5t22 -11t34 -3.5h3v-58zM19 0v58h3q26 0 43.5 9.5t34.5 30.5
l157 188l52 -35l-140 -171q0 -6 11 -11t28.5 -8t36.5 -3h2v-58h-228zM377 263l-51 37l135 159q0 6 -11 11t-27.5 7.5t-34.5 2.5h-4v58h222v-59h-3q-15 0 -27.5 -3.5t-24 -11.5t-23.5 -23z" />
    <glyph glyph-name="y" unicode="y" horiz-adv-x="646" 
d="M368 64l-23 -52l-52 -44l-200 475q-6 14 -15.5 21.5t-23.5 10.5t-34 3h-6v60h272v-59h-5q-19 0 -36.5 -1t-29.5 -2.5t-12 -4.5zM377 17q-29 -69 -56.5 -117.5t-56 -77.5t-62.5 -42.5t-77 -13.5q-29 0 -52 5.5t-35 12.5v94q4 -1 17 -5.5t32.5 -9t42.5 -4.5q26 0 49 7
t45 27t44 57.5t45 98.5l14 25l157 384q0 6 -10.5 10.5t-28 7.5t-36.5 3h-5v59h228v-60h-6q-17 0 -31 -4t-25 -14t-19 -30z" />
    <glyph glyph-name="z" unicode="z" horiz-adv-x="530" 
d="M149 51l-11 15h174q29 0 49 1.5t33.5 6t20.5 13.5t8 23l12 86h64v-196h-459v81l335 404l27 -12h-166q-30 0 -50 -1.5t-33 -6.5t-20 -13t-8 -22l-11 -74h-63v182h433v-77z" />
    <glyph glyph-name="braceleft" unicode="{" horiz-adv-x="410" 
d="M315 209q0 -17 -10.5 -36.5t-27 -40.5t-32.5 -43t-27 -44.5t-11 -45.5q0 -31 17 -50.5t55 -27.5t99 -7l-15 -56q-56 -4 -105 0.5t-85 19.5t-56.5 42.5t-20.5 70.5q0 37 17 70t41 62t48 56.5t39 52.5l7 -19l-194 63v56l194 62l-7 -19q-15 26 -39 53t-48 56.5t-41 62
t-17 69.5q0 43 20.5 70.5t56.5 42.5t85 19.5t105 0.5l15 -56q-61 1 -99 -7t-55 -27t-17 -51q0 -22 11 -45t27 -45t32.5 -42.5t27 -40t10.5 -37.5q0 -16 -7 -28.5t-26 -22.5t-52.5 -19.5t-85.5 -19.5v-9q52 -10 85.5 -19.5t52.5 -19.5t26 -22.5t7 -28.5z" />
    <glyph glyph-name="bar" unicode="|" horiz-adv-x="289" 
d="M101 767h87v-914h-87v914z" />
    <glyph glyph-name="braceright" unicode="}" horiz-adv-x="410" 
d="M95 209q0 16 7.5 28.5t26 22.5t52 19.5t86.5 19.5v9q-53 10 -86.5 19.5t-52 19.5t-26 22.5t-7.5 28.5q0 18 11 37.5t27 40t32.5 42.5t27 45t10.5 45q0 32 -17 51t-54.5 27t-99.5 7l15 56q57 4 105.5 -0.5t84.5 -19.5t56.5 -42.5t20.5 -70.5q0 -37 -16.5 -69.5t-41 -62
t-48.5 -56.5t-39 -53l-7 19l194 -62v-56l-194 -63l7 19q15 -25 39 -52.5t48.5 -56.5t41 -62t16.5 -70q0 -43 -20.5 -70.5t-56.5 -42.5t-84.5 -19.5t-105.5 -0.5l-15 56q62 -1 99.5 7t54.5 27.5t17 50.5q0 23 -10.5 45.5t-27 44.5t-32.5 43t-27 40.5t-11 36.5z" />
    <glyph glyph-name="asciitilde" unicode="~" horiz-adv-x="541" 
d="M353 251q-29 0 -50.5 10.5t-38 26t-30 31t-27.5 26t-30 10.5q-21 0 -33 -15t-18 -38.5t-11 -50.5l-67 17q8 55 23.5 96t43.5 63t71 22q29 0 50.5 -10.5t37.5 -26t30 -30.5t27.5 -25.5t31.5 -10.5q22 0 34.5 15.5t19.5 40.5l14 50l66 -18q-8 -40 -19.5 -73.5t-28.5 -58
t-41 -38t-55 -13.5z" />
    <glyph glyph-name="uni00A0" unicode="&#xa0;" horiz-adv-x="260" 
 />
    <glyph glyph-name="exclamdown" unicode="&#xa1;" horiz-adv-x="319" 
d="M230 -195q0 55 -3 101t-7.5 90t-9.5 90.5t-8 99.5t-3 119h-78q0 -66 -3 -119t-8 -99t-9.5 -90t-7.5 -90.5t-3 -101.5h140zM159 559q40 0 64.5 -22t24.5 -59t-24.5 -59.5t-64.5 -22.5q-39 0 -63.5 22.5t-24.5 59.5t24.5 59t63.5 22z" />
    <glyph glyph-name="cent" unicode="&#xa2;" 
d="M321 53q31 0 55.5 8.5t43 23t33 33t25.5 38.5l55 -37q-19 -39 -50 -69t-73 -46t-96 -16q-84 0 -147.5 33t-98.5 95t-35 150q0 89 34.5 152t97 96.5t149.5 33.5q55 0 97.5 -9t70.5 -21t41 -21v-154h-94v136q13 -1 21.5 -6t12.5 -12t5 -14t-1 -10q-14 11 -35.5 21.5
t-50 17.5t-63.5 7q-45 0 -77 -13.5t-53 -40t-31.5 -67.5t-10.5 -96t11 -95.5t33 -66t55 -38.5t76 -13zM268 663h78v-140l-10 -19v-470l10 -13v-167h-78v160l10 17v471l-10 12v149z" />
    <glyph glyph-name="sterling" unicode="&#xa3;" 
d="M31 -13v85q48 18 79.5 42t47 54.5t15.5 67.5q0 38 -9 69t-22.5 58t-27 53.5t-22.5 55t-9 62.5q0 62 28.5 105t81.5 65.5t127 22.5q47 0 83.5 -8t62.5 -18.5t41 -22.5v-149h-106v134q11 -1 21 -6.5t16.5 -13.5t10.5 -16.5t4 -15.5q-21 20 -52 33.5t-77 13.5
q-39 0 -66.5 -12t-41 -38.5t-13.5 -67.5q0 -40 10.5 -73t24 -64t24 -67.5t10.5 -83.5q0 -43 -16 -83.5t-47 -75t-76 -61.5t-102 -45zM386 -10q-31 0 -54.5 9.5t-45 28t-46 46t-56.5 63.5q-3 5 -0.5 13t7.5 17t13 17t17 12q32 -33 58.5 -55.5t53 -33.5t56.5 -11q28 0 45 10.5
t29 34.5t21 63l65 -20q-9 -53 -28 -97t-51.5 -70.5t-83.5 -26.5zM35 380h399v-68h-399v68z" />
    <glyph glyph-name="currency" unicode="&#xa4;" 
d="M394 373q0 40 -13.5 67.5t-39 41.5t-61.5 14q-35 0 -61 -14t-39.5 -41.5t-13.5 -67.5t13.5 -67t39.5 -41t61 -14q36 0 61.5 13.5t39 41t13.5 67.5zM73 373q0 44 16.5 81.5t45.5 65.5t66.5 43.5t78.5 15.5t78.5 -15.5t66.5 -43.5t45.5 -65.5t16.5 -81.5t-16.5 -81
t-45.5 -65t-66.5 -44t-78.5 -16t-78.5 16t-66.5 44t-45.5 65t-16.5 81zM16 582l59 60l115 -115l-67 -53zM544 582l-107 -108l-67 53l115 115zM16 164l107 108l67 -53l-115 -115zM544 164l-59 -60l-115 115l67 53z" />
    <glyph glyph-name="yen" unicode="&#xa5;" 
d="M55 375h454v-62h-454v62zM55 225h454v-62h-454v62zM224 372h116v-274q0 -22 22.5 -29t56.5 -7h19v-62h-312v62h19q35 0 57 7t22 29v274zM325 327h-86l-166 291q-11 21 -25 25.5t-34 4.5h-6v62h243v-62h-13q-14 0 -27.5 -1t-22.5 -3t-9 -6l146 -265l-39 -2l136 257
q0 7 -9.5 11t-23 6.5t-28.5 2.5h-9v62h200v-62h-5q-20 0 -36 -8.5t-31 -35.5z" />
    <glyph glyph-name="brokenbar" unicode="&#xa6;" horiz-adv-x="289" 
d="M101 767h87v-377h-87v377zM101 230h87v-377h-87v377z" />
    <glyph glyph-name="section" unicode="&#xa7;" horiz-adv-x="646" 
d="M290 423l14 -36q-51 -4 -86.5 -14.5t-54 -29.5t-18.5 -51q0 -27 14 -46t39.5 -33.5t58.5 -27t70 -26.5q40 -15 77 -33t66.5 -42.5t47 -57.5t17.5 -77q0 -56 -29 -98t-81 -64.5t-119 -22.5q-56 0 -100 9.5t-76.5 25t-55.5 31.5v135h111v-133q-11 9 -21 19.5t-17 20t-9 16
t2 7.5q18 -22 41.5 -36t53.5 -21t68 -7q43 0 71.5 11t42.5 32t14 52q0 32 -14.5 54t-39.5 37t-57.5 27t-68.5 26q-40 15 -78 32.5t-67.5 40.5t-47 53.5t-17.5 73.5q0 41 18.5 71t52 49t79 27t99.5 6zM390 68l-12 49q38 10 64 21t40 27.5t14 43.5q0 25 -15 44t-42 33.5
t-60 28t-70 28.5q-36 15 -72 33.5t-65 42.5t-46.5 57t-17.5 77q0 53 28 90.5t80.5 57t123.5 19.5q50 0 89 -8.5t66 -21t41 -24.5v-128h-105v114q11 -1 20.5 -6.5t17.5 -15t11 -18.5t0 -15q-12 17 -31.5 29.5t-46 20t-62.5 7.5q-46 0 -74 -10.5t-41 -29.5t-13 -46
q0 -29 14.5 -48.5t38.5 -34t55 -27t65 -26.5q40 -17 78.5 -33.5t69.5 -38t49 -51.5t18 -73q0 -51 -24 -85t-71 -54t-115 -29z" />
    <glyph glyph-name="dieresis" unicode="&#xa8;" horiz-adv-x="500" 
d="M200 701q0 -35 -21 -53t-55 -18t-55 18t-21 53t21 53t55 18t55 -18t21 -53zM452 701q0 -35 -21 -53t-55 -18t-55 18t-21 53t21 53t55 18t55 -18t21 -53z" />
    <glyph glyph-name="copyright" unicode="&#xa9;" horiz-adv-x="879" 
d="M444 506q-26 0 -46.5 -9t-34.5 -27.5t-21.5 -47.5t-7.5 -68q0 -51 13 -84.5t39.5 -50t64.5 -16.5q37 0 60 13.5t37.5 37.5t23.5 54l51 -20q-12 -41 -36 -72.5t-60.5 -49t-85.5 -17.5q-58 0 -103.5 24t-71.5 70t-26 111q0 66 26 112t70 70t98 24q39 0 69 -15t49 -45
t25 -74l-23 22l9 104h49v-146h-55q-8 31 -22.5 53t-37 34.5t-53.5 12.5zM119 355q0 -70 24 -130t66.5 -104.5t101 -69.5t128.5 -25t128.5 25t101.5 69.5t66.5 104.5t23.5 130t-23.5 130t-66.5 104.5t-101.5 69.5t-128.5 25t-128.5 -25t-101 -69.5t-66.5 -104.5t-24 -130z
M53 355q0 82 29 152.5t81.5 123t122.5 81.5t153 29t153.5 -29t122.5 -81.5t81.5 -123t29.5 -152.5t-29.5 -152.5t-81.5 -123t-122.5 -81.5t-153.5 -29t-153 29t-122.5 81.5t-81.5 123t-29 152.5z" />
    <glyph glyph-name="ordfeminine" unicode="&#xaa;" horiz-adv-x="531" 
d="M328 563v-48q-49 -7 -80 -15t-49 -19.5t-24.5 -26t-6.5 -33.5q0 -20 6.5 -32t19 -17.5t29.5 -5.5q32 0 54 20t44 59l10 -34q-15 -33 -35 -56.5t-46.5 -35.5t-61.5 -12q-38 0 -66.5 12t-44 36.5t-15.5 61.5q0 33 14 56t45.5 39.5t82.5 29t124 21.5zM329 316l-9 88l-4 2
v196q0 23 -7 37.5t-23 21.5t-43 7q-26 0 -48 -5t-38 -13.5t-24 -17.5q-1 9 5.5 17.5t17.5 14.5t24 7v-79h-95v88q11 10 34 20.5t57 17.5t77 7q48 0 85.5 -11.5t59 -37.5t21.5 -68v-212q0 -16 15 -21t39 -7l3 -1v-51h-147z" />
    <glyph glyph-name="guillemotleft" unicode="&#xab;" horiz-adv-x="594" 
d="M139 229l1 89l165 -249h-74l-177 181v51l177 181h74zM378 229l1 89l165 -249h-74l-177 181v51l177 181h74z" />
    <glyph glyph-name="logicalnot" unicode="&#xac;" 
d="M408 370l52 -47h-389v78h418v-250h-81v219z" />
    <glyph glyph-name="softhyphen" unicode="&#xad;" horiz-adv-x="441" 
d="M78 340h319v-93h-319v93z" />
    <glyph glyph-name="registered" unicode="&#xae;" horiz-adv-x="879" 
d="M447 26q70 0 128.5 25t101.5 69.5t66.5 104.5t23.5 130t-23.5 130t-66.5 104.5t-101.5 69.5t-128.5 25t-128.5 -25t-101 -69.5t-66.5 -104.5t-24 -130t24 -130t66.5 -104.5t101 -69.5t128.5 -25zM447 -31q-83 0 -153 29t-122.5 81.5t-81.5 123t-29 152.5t29 152.5
t81.5 123t122.5 81.5t153 29t153.5 -29t122.5 -81.5t81.5 -123t29.5 -152.5t-29.5 -152.5t-81.5 -123t-122.5 -81.5t-153.5 -29zM268 153v49h6q18 0 30.5 3.5t12.5 15.5v264q0 12 -12.5 16t-30.5 4h-6v49h192q77 0 118 -30.5t41 -86.5q0 -28 -11.5 -50.5t-32 -38.5
t-50.5 -24.5t-67 -8.5h-56v-108q0 -2 6.5 -3t16 -1.5t18.5 -0.5h8v-49h-183zM456 503h-54v-142h52q39 0 58 18t19 56q0 37 -18.5 52.5t-56.5 15.5zM449 336l78 18l66 -137q5 -10 14.5 -13t22.5 -3h13v-47h-113z" />
    <glyph glyph-name="macron" unicode="&#xaf;" horiz-adv-x="500" 
d="M80 737h340v-80h-340v80z" />
    <glyph glyph-name="degree" unicode="&#xb0;" horiz-adv-x="525" 
d="M372 546q0 54 -29.5 84t-79.5 30q-51 0 -80.5 -30t-29.5 -84q0 -36 13 -62t38 -39.5t59 -13.5q50 0 79.5 30t29.5 85zM64 546q0 58 26 100.5t71 65.5t102 23t101.5 -23t70.5 -65.5t26 -100.5t-26 -101t-70.5 -66t-101.5 -23t-102 23t-71 66t-26 101z" />
    <glyph glyph-name="plusminus" unicode="&#xb1;" 
d="M235 614h89v-454h-89v454zM500 428v-82h-440v82h440zM500 78v-82h-440v82h440z" />
    <glyph glyph-name="two.sup" unicode="&#xb2;" horiz-adv-x="409" 
d="M234 434h-153q-3 -1 -4 -5t1 -6.5t6 -2.5q36 18 73.5 37t71.5 39t60.5 42.5t42 48.5t15.5 55q0 39 -17 63t-49.5 36t-79.5 12q-32 0 -60 -7.5t-49 -18.5t-34 -24v-78h80v79q-9 0 -15.5 -6t-10.5 -14t-7 -17q14 16 35.5 27.5t49.5 11.5q31 0 45 -14t14 -51q0 -31 -15 -56
t-42.5 -47t-64.5 -43.5t-80 -46.5v-83h314v134h-49l-6 -38q-1 -11 -8.5 -17t-22.5 -8t-41 -2z" />
    <glyph glyph-name="three.sup" unicode="&#xb3;" horiz-adv-x="408" 
d="M193 407q-34 0 -56 14t-35.5 33.5t-21.5 35.5l-48 -26q12 -29 31.5 -52.5t52.5 -38t83 -14.5q49 0 87.5 11.5t60.5 37t22 65.5q0 30 -17.5 52t-56.5 34t-105 11l-11 -7q50 0 89 10t62.5 31.5t23.5 54.5q0 49 -40.5 71.5t-107.5 22.5q-34 0 -62.5 -7.5t-48 -18
t-29.5 -20.5v-72h77v71q-8 -1 -13.5 -6t-9 -12t-6.5 -16q13 14 34.5 23.5t50.5 9.5q31 0 46.5 -11t15.5 -42q0 -37 -19.5 -51t-62.5 -14h-37v-45h44q35 0 53 -7.5t25.5 -22t7.5 -36.5q0 -38 -20 -53.5t-59 -15.5z" />
    <glyph glyph-name="acute" unicode="&#xb4;" horiz-adv-x="500" 
d="M247 754q8 20 18.5 35t24.5 22.5t32 7.5q26 0 41.5 -15t15.5 -37q0 -13 -6 -26t-16.5 -25t-24.5 -23l-99 -84h-37v26z" />
    <glyph glyph-name="micro" unicode="&#xb5;" horiz-adv-x="620" 
d="M555 -10q-39 0 -66 14t-41.5 42t-16.5 70l-6 7v415h118v-433q0 -24 8.5 -34t26.5 -10q15 0 24.5 7t17 19t15.5 27l49 -31q-12 -27 -29.5 -48t-42 -33t-57.5 -12zM201 538v-362q0 -39 7.5 -63t25 -34.5t46.5 -10.5q30 0 58 13.5t55 41t53 68.5l17 -40q-30 -52 -62 -88.5
t-66.5 -55t-71.5 -18.5q-31 0 -55 7.5t-41.5 24t-30 43t-21.5 63.5l10 31q4 -47 11 -87t16 -73.5t18 -64t16.5 -59.5t12.5 -59t5 -65h-121v788h118z" />
    <glyph glyph-name="paragraph" unicode="&#xb6;" horiz-adv-x="650" 
d="M341 0v710h-89q-64 0 -110.5 -23t-71.5 -65.5t-25 -100.5q0 -59 26 -104t73.5 -70.5t112.5 -25.5h5v-321h79zM474 710h-175v-61h175v61zM523 0v613q0 14 10 21.5t28 10.5t40 3h11v62h-167v-710h78z" />
    <glyph glyph-name="periodcentered" unicode="&#xb7;" horiz-adv-x="303" 
d="M152 260q-39 0 -63.5 22.5t-24.5 59.5t24.5 59t63.5 22q40 0 64.5 -22t24.5 -59t-24.5 -59.5t-64.5 -22.5z" />
    <glyph glyph-name="cedilla" unicode="&#xb8;" horiz-adv-x="550" 
d="M312 5l-67 -84l-3 15q49 1 83 -9.5t52 -32t18 -55.5q0 -28 -11 -47.5t-30.5 -32t-44.5 -18.5t-53 -6q-48 0 -80.5 16.5t-52.5 41.5l41 41q9 -9 21.5 -20t28.5 -18t36 -7q27 0 41 12t14 37q0 24 -16.5 38t-62.5 14h-31l37 115h80z" />
    <glyph glyph-name="one.sup" unicode="&#xb9;" horiz-adv-x="408" 
d="M266 431q0 -15 19 -20t51 -5h21v-41h-284v41h29q29 0 47.5 5t18.5 20v260l10 2q-7 -21 -22 -34t-38.5 -19t-56.5 -6v58q37 1 61 6.5t39.5 18t25.5 31.5h79v-317z" />
    <glyph glyph-name="ordmasculine" unicode="&#xba;" horiz-adv-x="540" 
d="M485 516q0 -64 -26 -111t-74.5 -72t-114.5 -25q-65 0 -113.5 25t-75 72t-26.5 111t26.5 111t75 72.5t113.5 25.5q66 0 114 -25.5t74.5 -72.5t26.5 -111zM162 516q0 -51 12 -84t36 -49t60 -16t60 16t36 49t12 84q0 50 -12 83t-36 50t-60 17t-60 -17t-36 -50t-12 -83z" />
    <glyph glyph-name="guillemotright" unicode="&#xbb;" horiz-adv-x="594" 
d="M455 228l-166 253h74l176 -181v-51l-176 -181h-74l165 249zM217 228l-167 253h74l177 -181v-51l-177 -181h-74l166 249z" />
    <glyph glyph-name="onequarter" unicode="&#xbc;" horiz-adv-x="969" 
d="M270 431q0 -15 19 -20t51 -5h21v-41h-284v41h29q29 0 47.5 5t18.5 20v260l10 2q-7 -21 -22 -34t-38.5 -19t-56.5 -6v58q37 1 61 6.5t39.5 18t25.5 31.5h79v-317zM756 710h80l-595 -710h-80zM556 90v72l174 221h43l-10 -35l-177 -226l2 34h330v-66h-362zM845 0h-92v357
l3 26h89v-383z" />
    <glyph glyph-name="onehalf" unicode="&#xbd;" horiz-adv-x="991" 
d="M270 431q0 -15 19 -20t51 -5h21v-41h-284v41h29q29 0 47.5 5t18.5 20v260l10 2q-7 -21 -22 -34t-38.5 -19t-56.5 -6v58q37 1 61 6.5t39.5 18t25.5 31.5h79v-317zM756 710h80l-595 -710h-80zM804 69h-153q-3 -1 -4 -5t1 -6.5t6 -2.5q36 18 73.5 37t71.5 39t60.5 42.5
t42 48.5t15.5 55q0 39 -17 63t-49.5 36t-79.5 12q-32 0 -60 -7.5t-49 -18.5t-34 -24v-78h80v79q-9 0 -15.5 -6t-10.5 -14t-7 -17q14 16 35.5 27.5t49.5 11.5q31 0 45 -14t14 -51q0 -31 -15 -56t-42.5 -47t-64.5 -43.5t-80 -46.5v-83h314v134h-49l-6 -38q-1 -11 -8.5 -17
t-22.5 -8t-41 -2z" />
    <glyph glyph-name="threequarters" unicode="&#xbe;" horiz-adv-x="970" 
d="M209 407q-34 0 -56 14t-35.5 33.5t-21.5 35.5l-48 -26q12 -29 31.5 -52.5t52.5 -38t83 -14.5q49 0 87.5 11.5t60.5 37t22 65.5q0 30 -17.5 52t-56.5 34t-105 11l-11 -7q50 0 89 10t62.5 31.5t23.5 54.5q0 49 -40.5 71.5t-107.5 22.5q-34 0 -62.5 -7.5t-48 -18
t-29.5 -20.5v-72h77v71q-8 -1 -13.5 -6t-9 -12t-6.5 -16q13 14 34.5 23.5t50.5 9.5q31 0 46.5 -11t15.5 -42q0 -37 -19.5 -51t-62.5 -14h-37v-45h44q35 0 53 -7.5t25.5 -22t7.5 -36.5q0 -38 -20 -53.5t-59 -15.5zM758 710h80l-595 -710h-80zM557 90v72l174 221h43l-10 -35
l-177 -226l2 34h330v-66h-362zM846 0h-92v357l3 26h89v-383z" />
    <glyph glyph-name="questiondown" unicode="&#xbf;" horiz-adv-x="557" 
d="M355 154v154h-93v-112q-39 -10 -77 -26.5t-69.5 -41.5t-50 -61t-18.5 -85q0 -59 28.5 -100t82.5 -62.5t129 -21.5q53 0 98 12t77.5 29.5t47.5 31.5v127h-107v-129q14 1 23 6.5t14.5 13.5t7.5 17.5t1 18.5q-12 -15 -34 -29t-52.5 -22.5t-68.5 -8.5q-40 0 -68.5 12.5
t-43.5 38.5t-15 66q0 42 13.5 70.5t39.5 47t60.5 31t74.5 23.5zM308 559q39 0 63.5 -22.5t24.5 -58.5q0 -37 -24.5 -59.5t-63.5 -22.5q-40 0 -64.5 22.5t-24.5 59.5q0 36 24.5 58.5t64.5 22.5z" />
    <glyph glyph-name="Agrave" unicode="&#xc0;" horiz-adv-x="725" 
d="M196 297h282l9 -63h-302zM324 669l19 -22l-185 -565q0 -5 10.5 -10t29 -7.5t40.5 -2.5h12v-62h-235v62h6q27 0 44.5 10t28.5 43l198 600h138l203 -607q10 -29 27.5 -37.5t44.5 -8.5h5v-62h-285v62h13q22 0 40.5 1t29.5 3.5t11 5.5zM346 899q-11 16 -23 27.5t-25 18
t-30 6.5q-25 0 -40.5 -15.5t-15.5 -36.5q0 -16 8.5 -29.5t24.5 -24.5t37 -21l99 -47h38v27z" />
    <glyph glyph-name="Aacute" unicode="&#xc1;" horiz-adv-x="725" 
d="M196 297h282l9 -63h-302zM324 669l19 -22l-185 -565q0 -5 10.5 -10t29 -7.5t40.5 -2.5h12v-62h-235v62h6q27 0 44.5 10t28.5 43l198 600h138l203 -607q10 -29 27.5 -37.5t44.5 -8.5h5v-62h-285v62h13q22 0 40.5 1t29.5 3.5t11 5.5zM390 899l-74 -95v-27h39l99 47
q21 10 37 21t24.5 24.5t8.5 29.5q0 21 -15.5 36.5t-40.5 15.5q-17 0 -30.5 -6.5t-24.5 -18t-23 -27.5z" />
    <glyph glyph-name="Acircumflex" unicode="&#xc2;" horiz-adv-x="725" 
d="M196 297h282l9 -63h-302zM324 669l19 -22l-185 -565q0 -5 10.5 -10t29 -7.5t40.5 -2.5h12v-62h-235v62h6q27 0 44.5 10t28.5 43l198 600h138l203 -607q10 -29 27.5 -37.5t44.5 -8.5h5v-62h-285v62h13q22 0 40.5 1t29.5 3.5t11 5.5zM416 936h-98l-124 -147v-21h51l152 110
l-68 -2l151 -108h60v21z" />
    <glyph glyph-name="Atilde" unicode="&#xc3;" horiz-adv-x="725" 
d="M196 297h282l9 -63h-302zM324 669l19 -22l-185 -565q0 -5 10.5 -10t29 -7.5t40.5 -2.5h12v-62h-235v62h6q27 0 44.5 10t28.5 43l198 600h138l203 -607q10 -29 27.5 -37.5t44.5 -8.5h5v-62h-285v62h13q22 0 40.5 1t29.5 3.5t11 5.5zM432 773q-25 0 -43.5 8.5t-33 20.5
t-26.5 23.5t-23 20t-24 8.5q-15 0 -24 -9t-14 -27t-11 -47l-60 15q9 56 22.5 89t37 47.5t58.5 14.5q24 0 42 -7.5t32 -19.5t26 -23.5t24.5 -19.5t26.5 -8q16 0 25 9t15 27.5t12 46.5l60 -16q-9 -55 -24.5 -89t-39 -49t-58.5 -15z" />
    <glyph glyph-name="Adieresis" unicode="&#xc4;" horiz-adv-x="725" 
d="M196 297h282l9 -63h-302zM324 669l19 -22l-185 -565q0 -5 10.5 -10t29 -7.5t40.5 -2.5h12v-62h-235v62h6q27 0 44.5 10t28.5 43l198 600h138l203 -607q10 -29 27.5 -37.5t44.5 -8.5h5v-62h-285v62h13q22 0 40.5 1t29.5 3.5t11 5.5zM314 855q0 -35 -21 -53t-55 -18t-55 18
t-21 53t21 53t55 18t55 -18t21 -53zM562 855q0 -35 -21 -53t-55 -18t-55 18t-21 53t21 53t55 18t55 -18t21 -53z" />
    <glyph glyph-name="Aring" unicode="&#xc5;" horiz-adv-x="725" 
d="M196 297h282l9 -63h-302zM324 669l19 -22l-185 -565q0 -5 10.5 -10t29 -7.5t40.5 -2.5h12v-62h-235v62h6q27 0 44.5 10t28.5 43l198 600h138l203 -607q10 -29 27.5 -37.5t44.5 -8.5h5v-62h-285v62h13q22 0 40.5 1t29.5 3.5t11 5.5zM300 882q0 -32 16 -48t44 -16t44 16
t16 48t-16 48t-44 16q-27 0 -43.5 -16t-16.5 -48zM497 882q0 -51 -38 -82t-99 -31t-99 31t-38 82q0 34 17.5 59.5t48.5 40t71 14.5q41 0 71.5 -14.5t48 -40t17.5 -59.5z" />
    <glyph glyph-name="AE" unicode="&#xc6;" horiz-adv-x="1045" 
d="M249 297h280l9 -63h-315zM605 394q43 2 85.5 3.5t86.5 4t87 5.5v-86q-42 2 -85.5 4t-86.5 4t-87 5v60zM417 0v62h8q21 0 39.5 2t29.5 7t11 11v563h-12l-334 -563q0 -5 10.5 -10t28.5 -7.5t40 -2.5h12v-62h-242v62h5q18 0 31.5 5t25.5 16.5t24 31.5l301 500q0 14 -12 21
t-32 9.5t-44 2.5h-12v62h665v-199h-70l-10 88q-2 18 -15 27.5t-38 13t-65 3.5h-134v-576h150q32 0 54.5 2t37 7t22 13.5t8.5 21.5l13 113h71v-224h-567z" />
    <glyph glyph-name="Ccedilla" unicode="&#xc7;" horiz-adv-x="750" 
d="M399 657q-50 0 -90 -19.5t-68.5 -57.5t-43.5 -94t-15 -131t15 -131.5t44 -94.5t71.5 -57t98.5 -19q63 0 108 26t74.5 71.5t45.5 101.5l67 -28q-20 -73 -61 -127.5t-102 -84t-143 -29.5q-78 0 -142 25t-110.5 73t-71.5 117t-25 157t25.5 157.5t72 117.5t108.5 73t134 25
q71 0 121 -25t82 -71t44 -112l-33 27l15 168h72v-240h-80q-16 56 -44.5 96.5t-70.5 63t-98 22.5zM416 5l-67 -84l-3 15q49 1 83 -9.5t52 -32t18 -55.5q0 -28 -11 -47.5t-30.5 -32t-44.5 -18.5t-53 -6q-48 0 -80.5 16.5t-52.5 41.5l41 41q9 -9 21.5 -20t28.5 -18t36 -7
q27 0 41 12t14 37q0 24 -16.5 38t-62.5 14h-31l37 115h80z" />
    <glyph glyph-name="Egrave" unicode="&#xc8;" horiz-adv-x="682" 
d="M621 224v-224h-573v62h11q33 0 55 7t22 29v514q0 22 -22 29t-55 7h-11v62h549v-199h-69l-11 88q-2 18 -15 27.5t-38 13t-65 3.5h-140v-576h156q32 0 54.5 2t37 7t22 13.5t8.5 21.5l13 113h71zM236 395q45 2 88.5 4t87.5 4.5t88 4.5v-87q-44 2 -87.5 4.5t-87.5 4.5t-89 4
v61zM356 899q-11 16 -23 27.5t-25 18t-30 6.5q-25 0 -40.5 -15.5t-15.5 -36.5q0 -16 8.5 -29.5t24.5 -24.5t37 -21l99 -47h38v27z" />
    <glyph glyph-name="Eacute" unicode="&#xc9;" horiz-adv-x="682" 
d="M621 224v-224h-573v62h11q33 0 55 7t22 29v514q0 22 -22 29t-55 7h-11v62h549v-199h-69l-11 88q-2 18 -15 27.5t-38 13t-65 3.5h-140v-576h156q32 0 54.5 2t37 7t22 13.5t8.5 21.5l13 113h71zM236 395q45 2 88.5 4t87.5 4.5t88 4.5v-87q-44 2 -87.5 4.5t-87.5 4.5t-89 4
v61zM362 899l-74 -95v-27h39l99 47q21 10 37 21t24.5 24.5t8.5 29.5q0 21 -15.5 36.5t-40.5 15.5q-17 0 -30.5 -6.5t-24.5 -18t-23 -27.5z" />
    <glyph glyph-name="Ecircumflex" unicode="&#xca;" horiz-adv-x="682" 
d="M621 224v-224h-573v62h11q33 0 55 7t22 29v514q0 22 -22 29t-55 7h-11v62h549v-199h-69l-11 88q-2 18 -15 27.5t-38 13t-65 3.5h-140v-576h156q32 0 54.5 2t37 7t22 13.5t8.5 21.5l13 113h71zM236 395q45 2 88.5 4t87.5 4.5t88 4.5v-87q-44 2 -87.5 4.5t-87.5 4.5t-89 4
v61zM389 936h-98l-124 -147v-21h51l152 110l-68 -2l151 -108h60v21z" />
    <glyph glyph-name="Edieresis" unicode="&#xcb;" horiz-adv-x="682" 
d="M621 224v-224h-573v62h11q33 0 55 7t22 29v514q0 22 -22 29t-55 7h-11v62h549v-199h-69l-11 88q-2 18 -15 27.5t-38 13t-65 3.5h-140v-576h156q32 0 54.5 2t37 7t22 13.5t8.5 21.5l13 113h71zM236 395q45 2 88.5 4t87.5 4.5t88 4.5v-87q-44 2 -87.5 4.5t-87.5 4.5t-89 4
v61zM286 855q0 -35 -21 -53t-55 -18t-55 18t-21 53t21 53t55 18t55 -18t21 -53zM534 855q0 -35 -21 -53t-55 -18t-55 18t-21 53t21 53t55 18t55 -18t21 -53z" />
    <glyph glyph-name="Igrave" unicode="&#xcc;" horiz-adv-x="405" 
d="M140 98v514q0 22 -21.5 29t-55.5 7h-15v62h309v-62h-15q-34 0 -56 -7t-22 -29v-514q0 -22 22 -29t56 -7h15v-62h-309v62h15q34 0 55.5 7t21.5 29zM207 899q-11 16 -23 27.5t-25 18t-30 6.5q-25 0 -40.5 -15.5t-15.5 -36.5q0 -16 8.5 -29.5t24.5 -24.5t37 -21l99 -47h38
v27z" />
    <glyph glyph-name="Iacute" unicode="&#xcd;" horiz-adv-x="405" 
d="M140 98v514q0 22 -21.5 29t-55.5 7h-15v62h309v-62h-15q-34 0 -56 -7t-22 -29v-514q0 -22 22 -29t56 -7h15v-62h-309v62h15q34 0 55.5 7t21.5 29zM231 899l-74 -95v-27h39l99 47q21 10 37 21t24.5 24.5t8.5 29.5q0 21 -15.5 36.5t-40.5 15.5q-17 0 -30.5 -6.5t-24.5 -18
t-23 -27.5z" />
    <glyph glyph-name="Icircumflex" unicode="&#xce;" horiz-adv-x="405" 
d="M140 98v514q0 22 -21.5 29t-55.5 7h-15v62h309v-62h-15q-34 0 -56 -7t-22 -29v-514q0 -22 22 -29t56 -7h15v-62h-309v62h15q34 0 55.5 7t21.5 29zM256 936h-98l-124 -147v-21h51l152 110l-68 -2l151 -108h60v21z" />
    <glyph glyph-name="Idieresis" unicode="&#xcf;" horiz-adv-x="405" 
d="M140 98v514q0 22 -21.5 29t-55.5 7h-15v62h309v-62h-15q-34 0 -56 -7t-22 -29v-514q0 -22 22 -29t56 -7h15v-62h-309v62h15q34 0 55.5 7t21.5 29zM154 855q0 -35 -21 -53t-55 -18t-55 18t-21 53t21 53t55 18t55 -18t21 -53zM402 855q0 -35 -21 -53t-55 -18t-55 18t-21 53
t21 53t55 18t55 -18t21 -53z" />
    <glyph glyph-name="Eth" unicode="&#xd0;" horiz-adv-x="803" 
d="M44 391h402v-66h-402v66zM48 648v62h324q87 0 157 -22.5t120 -67t76.5 -110.5t26.5 -152q0 -85 -26.5 -152t-76.5 -113t-120 -69.5t-157 -23.5h-324v62h11q34 0 55.5 7t21.5 29v514q0 21 -21.5 28.5t-55.5 7.5h-11zM368 643h-108v-576h108q61 0 108 18.5t79 55t49 91
t17 126.5t-17 125.5t-49 89t-79 53t-108 17.5z" />
    <glyph glyph-name="Ntilde" unicode="&#xd1;" horiz-adv-x="817" 
d="M49 0v62h10q23 0 40.5 3.5t27.5 12t10 22.5v512q0 15 -10 22.5t-27.5 10.5t-40.5 3h-10v62h252l328 -598l-15 -1v525q0 4 -12.5 6.5t-30.5 4t-36 1.5h-14v62h255v-62h-11q-22 0 -39.5 -3t-27.5 -11t-10 -23v-611h-129l-366 668l18 -1v-593q0 -3 12.5 -6t31 -4.5
t35.5 -1.5h14v-62h-255zM489 773q-25 0 -43.5 8.5t-33 20.5t-26.5 23.5t-23 20t-24 8.5q-15 0 -24 -9t-14 -27t-11 -47l-60 15q9 56 22.5 89t37 47.5t58.5 14.5q24 0 42 -7.5t32 -19.5t26 -23.5t24.5 -19.5t26.5 -8q16 0 25 9t15 27.5t12 46.5l60 -16q-9 -55 -24.5 -89
t-39 -49t-58.5 -15z" />
    <glyph glyph-name="Ograve" unicode="&#xd2;" horiz-adv-x="816" 
d="M408 -17q-78 0 -143.5 25t-113.5 73.5t-74 117.5t-26 156q0 88 26 156.5t74 117t113.5 74t143.5 25.5q79 0 144 -25.5t113 -74t74 -117t26 -156.5q0 -87 -26 -156t-74 -117.5t-113 -73.5t-144 -25zM408 53q53 0 94.5 19t71 56.5t45 94.5t15.5 132t-15.5 132t-45 94.5
t-71 56.5t-94.5 19q-52 0 -94 -19t-71.5 -56.5t-45 -94.5t-15.5 -132t15.5 -132t44.5 -94.5t71.5 -56.5t94.5 -19zM414 899q-11 16 -23 27.5t-25 18t-30 6.5q-25 0 -40.5 -15.5t-15.5 -36.5q0 -16 8.5 -29.5t24.5 -24.5t37 -21l99 -47h38v27z" />
    <glyph glyph-name="Oacute" unicode="&#xd3;" horiz-adv-x="816" 
d="M408 -17q-78 0 -143.5 25t-113.5 73.5t-74 117.5t-26 156q0 88 26 156.5t74 117t113.5 74t143.5 25.5q79 0 144 -25.5t113 -74t74 -117t26 -156.5q0 -87 -26 -156t-74 -117.5t-113 -73.5t-144 -25zM408 53q53 0 94.5 19t71 56.5t45 94.5t15.5 132t-15.5 132t-45 94.5
t-71 56.5t-94.5 19q-52 0 -94 -19t-71.5 -56.5t-45 -94.5t-15.5 -132t15.5 -132t44.5 -94.5t71.5 -56.5t94.5 -19zM438 899l-74 -95v-27h39l99 47q21 10 37 21t24.5 24.5t8.5 29.5q0 21 -15.5 36.5t-40.5 15.5q-17 0 -30.5 -6.5t-24.5 -18t-23 -27.5z" />
    <glyph glyph-name="Ocircumflex" unicode="&#xd4;" horiz-adv-x="816" 
d="M408 -17q-78 0 -143.5 25t-113.5 73.5t-74 117.5t-26 156q0 88 26 156.5t74 117t113.5 74t143.5 25.5q79 0 144 -25.5t113 -74t74 -117t26 -156.5q0 -87 -26 -156t-74 -117.5t-113 -73.5t-144 -25zM408 53q53 0 94.5 19t71 56.5t45 94.5t15.5 132t-15.5 132t-45 94.5
t-71 56.5t-94.5 19q-52 0 -94 -19t-71.5 -56.5t-45 -94.5t-15.5 -132t15.5 -132t44.5 -94.5t71.5 -56.5t94.5 -19zM461 936h-98l-124 -147v-21h51l152 110l-68 -2l151 -108h60v21z" />
    <glyph glyph-name="Otilde" unicode="&#xd5;" horiz-adv-x="816" 
d="M408 -17q-78 0 -143.5 25t-113.5 73.5t-74 117.5t-26 156q0 88 26 156.5t74 117t113.5 74t143.5 25.5q79 0 144 -25.5t113 -74t74 -117t26 -156.5q0 -87 -26 -156t-74 -117.5t-113 -73.5t-144 -25zM408 53q53 0 94.5 19t71 56.5t45 94.5t15.5 132t-15.5 132t-45 94.5
t-71 56.5t-94.5 19q-52 0 -94 -19t-71.5 -56.5t-45 -94.5t-15.5 -132t15.5 -132t44.5 -94.5t71.5 -56.5t94.5 -19zM478 773q-25 0 -43.5 8.5t-33 20.5t-26.5 23.5t-23 20t-24 8.5q-15 0 -24 -9t-14 -27t-11 -47l-60 15q9 56 22.5 89t37 47.5t58.5 14.5q24 0 42 -7.5
t32 -19.5t26 -23.5t24.5 -19.5t26.5 -8q16 0 25 9t15 27.5t12 46.5l60 -16q-9 -55 -24.5 -89t-39 -49t-58.5 -15z" />
    <glyph glyph-name="Odieresis" unicode="&#xd6;" horiz-adv-x="816" 
d="M408 -17q-78 0 -143.5 25t-113.5 73.5t-74 117.5t-26 156q0 88 26 156.5t74 117t113.5 74t143.5 25.5q79 0 144 -25.5t113 -74t74 -117t26 -156.5q0 -87 -26 -156t-74 -117.5t-113 -73.5t-144 -25zM408 53q53 0 94.5 19t71 56.5t45 94.5t15.5 132t-15.5 132t-45 94.5
t-71 56.5t-94.5 19q-52 0 -94 -19t-71.5 -56.5t-45 -94.5t-15.5 -132t15.5 -132t44.5 -94.5t71.5 -56.5t94.5 -19zM360 855q0 -35 -21 -53t-55 -18t-55 18t-21 53t21 53t55 18t55 -18t21 -53zM608 855q0 -35 -21 -53t-55 -18t-55 18t-21 53t21 53t55 18t55 -18t21 -53z" />
    <glyph glyph-name="multiply" unicode="&#xd7;" 
d="M77 194l347 350l56 -57l-346 -350zM77 487l57 57l346 -350l-56 -57z" />
    <glyph glyph-name="Oslash" unicode="&#xd8;" horiz-adv-x="816" 
d="M409 657q-54 0 -96.5 -19t-72 -56.5t-45 -94.5t-15.5 -132q0 -81 14 -138.5t42.5 -93.5t71.5 -53t100 -17q53 0 95.5 19t72 56.5t45 94.5t15.5 132q0 81 -14 138.5t-42.5 93.5t-71.5 53t-99 17zM408 -17q-77 0 -142 26.5t-113.5 75.5t-75 117.5t-26.5 152.5
q0 88 26 156.5t74 117t113.5 74t143.5 25.5q77 0 142 -27t113.5 -76t75 -117.5t26.5 -152.5q0 -87 -26 -156t-74 -117.5t-113 -73.5t-144 -25zM-1 -20l718 750h93l-718 -750h-93z" />
    <glyph glyph-name="Ugrave" unicode="&#xd9;" horiz-adv-x="808" 
d="M255 265q0 -57 12.5 -96t36 -62.5t55.5 -34t71 -10.5q38 0 70 11t55 34.5t36 62.5t13 95v363q0 5 -7.5 9t-19 6.5t-25.5 3.5t-28 1h-9v62h250v-62h-11q-21 0 -39 -3.5t-28 -13t-10 -26.5v-340q0 -75 -20.5 -129t-57 -88t-85 -49.5t-104.5 -15.5q-61 0 -112 16t-88.5 50
t-58 87.5t-20.5 128.5v347q0 22 -21.5 29t-55.5 7h-11v62h300v-61h-9q-13 0 -27 -1t-25.5 -2.5t-19 -3t-7.5 -4.5v-373zM420 899q-11 16 -23 27.5t-25 18t-30 6.5q-25 0 -40.5 -15.5t-15.5 -36.5q0 -16 8.5 -29.5t24.5 -24.5t37 -21l99 -47h38v27z" />
    <glyph glyph-name="Uacute" unicode="&#xda;" horiz-adv-x="808" 
d="M255 265q0 -57 12.5 -96t36 -62.5t55.5 -34t71 -10.5q38 0 70 11t55 34.5t36 62.5t13 95v363q0 5 -7.5 9t-19 6.5t-25.5 3.5t-28 1h-9v62h250v-62h-11q-21 0 -39 -3.5t-28 -13t-10 -26.5v-340q0 -75 -20.5 -129t-57 -88t-85 -49.5t-104.5 -15.5q-61 0 -112 16t-88.5 50
t-58 87.5t-20.5 128.5v347q0 22 -21.5 29t-55.5 7h-11v62h300v-61h-9q-13 0 -27 -1t-25.5 -2.5t-19 -3t-7.5 -4.5v-373zM444 899l-74 -95v-27h39l99 47q21 10 37 21t24.5 24.5t8.5 29.5q0 21 -15.5 36.5t-40.5 15.5q-17 0 -30.5 -6.5t-24.5 -18t-23 -27.5z" />
    <glyph glyph-name="Ucircumflex" unicode="&#xdb;" horiz-adv-x="808" 
d="M255 265q0 -57 12.5 -96t36 -62.5t55.5 -34t71 -10.5q38 0 70 11t55 34.5t36 62.5t13 95v363q0 5 -7.5 9t-19 6.5t-25.5 3.5t-28 1h-9v62h250v-62h-11q-21 0 -39 -3.5t-28 -13t-10 -26.5v-340q0 -75 -20.5 -129t-57 -88t-85 -49.5t-104.5 -15.5q-61 0 -112 16t-88.5 50
t-58 87.5t-20.5 128.5v347q0 22 -21.5 29t-55.5 7h-11v62h300v-61h-9q-13 0 -27 -1t-25.5 -2.5t-19 -3t-7.5 -4.5v-373zM467 936h-98l-124 -147v-21h51l152 110l-68 -2l151 -108h60v21z" />
    <glyph glyph-name="Udieresis" unicode="&#xdc;" horiz-adv-x="808" 
d="M255 265q0 -57 12.5 -96t36 -62.5t55.5 -34t71 -10.5q38 0 70 11t55 34.5t36 62.5t13 95v363q0 5 -7.5 9t-19 6.5t-25.5 3.5t-28 1h-9v62h250v-62h-11q-21 0 -39 -3.5t-28 -13t-10 -26.5v-340q0 -75 -20.5 -129t-57 -88t-85 -49.5t-104.5 -15.5q-61 0 -112 16t-88.5 50
t-58 87.5t-20.5 128.5v347q0 22 -21.5 29t-55.5 7h-11v62h300v-61h-9q-13 0 -27 -1t-25.5 -2.5t-19 -3t-7.5 -4.5v-373zM365 855q0 -35 -21 -53t-55 -18t-55 18t-21 53t21 53t55 18t55 -18t21 -53zM613 855q0 -35 -21 -53t-55 -18t-55 18t-21 53t21 53t55 18t55 -18t21 -53z
" />
    <glyph glyph-name="Yacute" unicode="&#xdd;" horiz-adv-x="707" 
d="M294 310l11 -44l-206 349q-9 15 -19 22t-22.5 9t-29.5 2h-8v62h279v-62h-16q-16 0 -32.5 -1t-27 -3t-10.5 -6l183 -321l-31 -2l174 313q0 7 -10.5 11t-27 6.5t-33.5 2.5h-13v62h232v-62h-8q-16 0 -29.5 -3.5t-25 -13.5t-22.5 -28l-195 -340l11 47v-212q0 -22 22.5 -29
t56.5 -7h18v-62h-317v62h18q34 0 56 7t22 29v212zM397 899l-74 -95v-27h39l99 47q21 10 37 21t24.5 24.5t8.5 29.5q0 21 -15.5 36.5t-40.5 15.5q-17 0 -30.5 -6.5t-24.5 -18t-23 -27.5z" />
    <glyph glyph-name="Thorn" unicode="&#xde;" horiz-adv-x="700" 
d="M362 710h-314v-61h11q33 0 55 -7t22 -29v-516q0 -22 -22 -29t-55 -7h-11v-61h314v62h-24q-14 0 -28 0.5t-25.5 1.5t-18 2.5t-6.5 4.5v568q0 2 6.5 3.5t18 3t25.5 2t28 0.5h24v62zM652 365q0 63 -30.5 106.5t-87 66t-135.5 22.5h-189l-5 -67h181q46 0 76.5 -14.5t45.5 -43
t15 -71.5t-15 -73t-46.5 -45.5t-78.5 -15.5h-175v-68h188q78 0 135 24.5t89 70t32 108.5z" />
    <glyph glyph-name="germandbls" unicode="&#xdf;" horiz-adv-x="677" 
d="M37 538h145v-66h-145v66zM363 427l48 22v-31l-20 19q54 -8 99 -27.5t77 -50t49 -71t17 -90.5q0 -56 -15 -95t-42.5 -64.5t-64 -37t-78.5 -11.5q-33 0 -58.5 5.5t-37.5 11.5v68q4 0 15 -4.5t27.5 -8.5t33.5 -4q29 0 51 13t34 43.5t12 84.5q0 47 -12.5 83t-35 60.5
t-53.5 37.5t-70 13h-2v69q28 4 51.5 12t40.5 24t27 42t10 64q0 51 -24.5 75.5t-75.5 24.5q-33 0 -57.5 -10t-37 -35.5t-12.5 -74.5v-584h-218v54h18q39 0 60.5 11t21.5 44v473q0 70 30 111t81.5 59t113.5 18q71 0 119 -20t72 -55.5t24 -84.5q0 -43 -18.5 -76.5t-50 -56.5
t-70 -35t-79.5 -15z" />
    <glyph glyph-name="agrave" unicode="&#xe0;" horiz-adv-x="596" 
d="M400 327v-58q-55 -7 -95 -17t-66.5 -21.5t-41.5 -26t-21.5 -32t-6.5 -38.5q0 -27 10.5 -44.5t29.5 -26.5t45 -9q28 0 52.5 13.5t47 40.5t45.5 69l3 -57q-20 -42 -46.5 -71t-60 -44.5t-75.5 -15.5q-51 0 -88.5 16t-57.5 48t-20 78q0 42 19 73t60 54t107 39.5t160 29.5z
M401 0l-12 114l-6 3v272q0 33 -9 53t-30.5 29.5t-59.5 9.5q-55 0 -90.5 -15.5t-52.5 -33.5q-2 8 0.5 16t9 15.5t16.5 13t24 6.5v-116h-106v124q14 11 42.5 24t70 23t94.5 10q46 0 83.5 -8.5t65.5 -27.5t43 -49t15 -73v-293q0 -13 9 -20t25 -10.5t39 -6.5l5 -2v-58h-176z
M319 755l51 -119v-26h-39l-100 83q-14 11 -24.5 23t-16 25t-5.5 26q0 22 16 38t41 16q19 0 33 -8t25 -23t19 -35z" />
    <glyph glyph-name="aacute" unicode="&#xe1;" horiz-adv-x="596" 
d="M400 327v-58q-55 -7 -95 -17t-66.5 -21.5t-41.5 -26t-21.5 -32t-6.5 -38.5q0 -27 10.5 -44.5t29.5 -26.5t45 -9q28 0 52.5 13.5t47 40.5t45.5 69l3 -57q-20 -42 -46.5 -71t-60 -44.5t-75.5 -15.5q-51 0 -88.5 16t-57.5 48t-20 78q0 42 19 73t60 54t107 39.5t160 29.5z
M401 0l-12 114l-6 3v272q0 33 -9 53t-30.5 29.5t-59.5 9.5q-55 0 -90.5 -15.5t-52.5 -33.5q-2 8 0.5 16t9 15.5t16.5 13t24 6.5v-116h-106v124q14 11 42.5 24t70 23t94.5 10q46 0 83.5 -8.5t65.5 -27.5t43 -49t15 -73v-293q0 -13 9 -20t25 -10.5t39 -6.5l5 -2v-58h-176z
M297 755q8 20 18.5 35t24.5 22.5t32 7.5q26 0 41.5 -15t15.5 -37q0 -13 -6 -26t-16.5 -25t-24.5 -23l-99 -84h-37v26z" />
    <glyph glyph-name="acircumflex" unicode="&#xe2;" horiz-adv-x="596" 
d="M400 327v-58q-55 -7 -95 -17t-66.5 -21.5t-41.5 -26t-21.5 -32t-6.5 -38.5q0 -27 10.5 -44.5t29.5 -26.5t45 -9q28 0 52.5 13.5t47 40.5t45.5 69l3 -57q-20 -42 -46.5 -71t-60 -44.5t-75.5 -15.5q-51 0 -88.5 16t-57.5 48t-20 78q0 42 19 73t60 54t107 39.5t160 29.5z
M401 0l-12 114l-6 3v272q0 33 -9 53t-30.5 29.5t-59.5 9.5q-55 0 -90.5 -15.5t-52.5 -33.5q-2 8 0.5 16t9 15.5t16.5 13t24 6.5v-116h-106v124q14 11 42.5 24t70 23t94.5 10q46 0 83.5 -8.5t65.5 -27.5t43 -49t15 -73v-293q0 -13 9 -20t25 -10.5t39 -6.5l5 -2v-58h-176z
M339 795h-90l-124 -166v-20h45l157 130l-75 -2l157 -128h55v20z" />
    <glyph glyph-name="atilde" unicode="&#xe3;" horiz-adv-x="596" 
d="M400 327v-58q-55 -7 -95 -17t-66.5 -21.5t-41.5 -26t-21.5 -32t-6.5 -38.5q0 -27 10.5 -44.5t29.5 -26.5t45 -9q28 0 52.5 13.5t47 40.5t45.5 69l3 -57q-20 -42 -46.5 -71t-60 -44.5t-75.5 -15.5q-51 0 -88.5 16t-57.5 48t-20 78q0 42 19 73t60 54t107 39.5t160 29.5z
M401 0l-12 114l-6 3v272q0 33 -9 53t-30.5 29.5t-59.5 9.5q-55 0 -90.5 -15.5t-52.5 -33.5q-2 8 0.5 16t9 15.5t16.5 13t24 6.5v-116h-106v124q14 11 42.5 24t70 23t94.5 10q46 0 83.5 -8.5t65.5 -27.5t43 -49t15 -73v-293q0 -13 9 -20t25 -10.5t39 -6.5l5 -2v-58h-176z
M362 618q-24 0 -42 9t-32 23t-25.5 27.5t-22.5 23t-24 9.5q-23 0 -31 -23.5t-16 -70.5l-59 15q9 58 22.5 93.5t36.5 51.5t57 16q22 0 39 -9t31 -22.5t26 -27t24.5 -22.5t26.5 -9q15 0 23 10.5t13.5 31.5t11.5 52l59 -15q-9 -59 -24.5 -95t-38 -52t-55.5 -16z" />
    <glyph glyph-name="adieresis" unicode="&#xe4;" horiz-adv-x="596" 
d="M400 327v-58q-55 -7 -95 -17t-66.5 -21.5t-41.5 -26t-21.5 -32t-6.5 -38.5q0 -27 10.5 -44.5t29.5 -26.5t45 -9q28 0 52.5 13.5t47 40.5t45.5 69l3 -57q-20 -42 -46.5 -71t-60 -44.5t-75.5 -15.5q-51 0 -88.5 16t-57.5 48t-20 78q0 42 19 73t60 54t107 39.5t160 29.5z
M401 0l-12 114l-6 3v272q0 33 -9 53t-30.5 29.5t-59.5 9.5q-55 0 -90.5 -15.5t-52.5 -33.5q-2 8 0.5 16t9 15.5t16.5 13t24 6.5v-116h-106v124q14 11 42.5 24t70 23t94.5 10q46 0 83.5 -8.5t65.5 -27.5t43 -49t15 -73v-293q0 -13 9 -20t25 -10.5t39 -6.5l5 -2v-58h-176z
M242 702q0 -35 -21 -53t-55 -18t-55 18t-21 53t21 53t55 18t55 -18t21 -53zM494 702q0 -35 -21 -53t-55 -18t-55 18t-21 53t21 53t55 18t55 -18t21 -53z" />
    <glyph glyph-name="aring" unicode="&#xe5;" horiz-adv-x="596" 
d="M400 327v-58q-55 -7 -95 -17t-66.5 -21.5t-41.5 -26t-21.5 -32t-6.5 -38.5q0 -27 10.5 -44.5t29.5 -26.5t45 -9q28 0 52.5 13.5t47 40.5t45.5 69l3 -57q-20 -42 -46.5 -71t-60 -44.5t-75.5 -15.5q-51 0 -88.5 16t-57.5 48t-20 78q0 42 19 73t60 54t107 39.5t160 29.5z
M401 0l-12 114l-6 3v272q0 33 -9 53t-30.5 29.5t-59.5 9.5q-55 0 -90.5 -15.5t-52.5 -33.5q-2 8 0.5 16t9 15.5t16.5 13t24 6.5v-116h-106v124q14 11 42.5 24t70 23t94.5 10q46 0 83.5 -8.5t65.5 -27.5t43 -49t15 -73v-293q0 -13 9 -20t25 -10.5t39 -6.5l5 -2v-58h-176z
M234 711q0 -32 16 -48t44 -16t44.5 16t16.5 48t-16.5 48t-44.5 16t-44 -16t-16 -48zM430 711q0 -33 -17.5 -59t-47.5 -40t-71 -14q-40 0 -71 14t-48 40t-17 59t17 58.5t48 39.5t71 14q41 0 71 -14t47.5 -39.5t17.5 -58.5z" />
    <glyph glyph-name="ae" unicode="&#xe6;" horiz-adv-x="921" 
d="M410 320l-1 -58q-58 -6 -99 -15t-68.5 -19.5t-43.5 -24t-22.5 -30.5t-6.5 -38q0 -27 11 -44.5t31 -26.5t47 -9q32 0 59 14.5t52 43t48 72.5l37 -33q-20 -40 -42.5 -70.5t-49.5 -51t-59.5 -31t-71.5 -10.5q-56 0 -95.5 16t-60.5 48t-21 79q0 42 19.5 72.5t61.5 52.5
t110 37.5t165 25.5zM292 548q46 0 80 -9t57.5 -29t35 -51.5t11.5 -78.5l-85 -81v89q0 34 -9.5 54.5t-32 29.5t-61.5 9q-57 0 -93.5 -15.5t-53.5 -33.5q-2 8 0.5 16.5t9 16t16.5 12.5t24 7v-117h-106v124q15 11 43 24t69.5 23t94.5 10zM670 57q41 0 69.5 14t49 36.5
t35.5 48.5l55 -44q-20 -37 -50 -65t-71.5 -43t-96.5 -15q-79 0 -139.5 32t-95.5 94.5t-35 152.5q0 30 4.5 47.5t11.5 27.5t16 16.5t18 15.5q13 40 32 72t45 55t59 35t74 12q57 0 100 -19t71.5 -57.5t43.5 -95.5t15 -134h-417v63h327l-26 -26q-2 57 -9 95.5t-21 62t-36 34
t-52 10.5q-31 0 -56.5 -13t-44.5 -39.5t-29 -67.5t-10 -98q0 -56 11.5 -95.5t33 -64t51.5 -36t67 -11.5z" />
    <glyph glyph-name="ccedilla" unicode="&#xe7;" horiz-adv-x="583" 
d="M337 57q41 0 70.5 14.5t51.5 38t37 49.5l53 -41q-20 -38 -51.5 -67.5t-74 -45.5t-97.5 -16q-86 0 -149.5 33.5t-98 96.5t-34.5 150t35 149.5t99.5 96t152.5 33.5q54 0 95 -8.5t68.5 -20t39.5 -20.5v-156h-106v135q11 -1 19.5 -5.5t14 -11.5t7.5 -15t1 -14
q-20 20 -55.5 34t-80.5 14q-57 0 -94 -24.5t-55 -72t-18 -114.5q0 -53 10.5 -92.5t31 -66t52.5 -40t76 -13.5zM339 5l-67 -84l-3 15q49 1 83 -9.5t52 -32t18 -55.5q0 -28 -11 -47.5t-30.5 -32t-44.5 -18.5t-53 -6q-48 0 -80.5 16.5t-52.5 41.5l41 41q9 -9 21.5 -20t28.5 -18
t36 -7q27 0 41 12t14 37q0 24 -16.5 38t-62.5 14h-31l37 115h80z" />
    <glyph glyph-name="egrave" unicode="&#xe8;" horiz-adv-x="590" 
d="M163 264q0 -56 12 -95.5t35 -64t54 -36t69 -11.5q40 0 70 14t52 36t37 48l55 -42q-20 -37 -51.5 -65.5t-74.5 -44t-97 -15.5q-81 0 -144.5 32.5t-99.5 94.5t-36 150q0 85 33.5 148.5t92.5 99t136 35.5q61 0 106.5 -19t75 -57.5t45 -96t16.5 -134.5h-414v63h323l-25 -24
q-2 56 -9.5 95t-22.5 62t-38 33.5t-56 10.5t-59.5 -12.5t-45.5 -39t-29 -67.5t-10 -98zM310 755l51 -119v-26h-39l-100 83q-14 11 -24.5 23t-16 25t-5.5 26q0 22 16 38t41 16q19 0 33 -8t25 -23t19 -35z" />
    <glyph glyph-name="eacute" unicode="&#xe9;" horiz-adv-x="590" 
d="M163 264q0 -56 12 -95.5t35 -64t54 -36t69 -11.5q40 0 70 14t52 36t37 48l55 -42q-20 -37 -51.5 -65.5t-74.5 -44t-97 -15.5q-81 0 -144.5 32.5t-99.5 94.5t-36 150q0 85 33.5 148.5t92.5 99t136 35.5q61 0 106.5 -19t75 -57.5t45 -96t16.5 -134.5h-414v63h323l-25 -24
q-2 56 -9.5 95t-22.5 62t-38 33.5t-56 10.5t-59.5 -12.5t-45.5 -39t-29 -67.5t-10 -98zM300 755q8 20 18.5 35t24.5 22.5t32 7.5q26 0 41.5 -15t15.5 -37q0 -13 -6 -26t-16.5 -25t-24.5 -23l-99 -84h-37v26z" />
    <glyph glyph-name="ecircumflex" unicode="&#xea;" horiz-adv-x="590" 
d="M163 264q0 -56 12 -95.5t35 -64t54 -36t69 -11.5q40 0 70 14t52 36t37 48l55 -42q-20 -37 -51.5 -65.5t-74.5 -44t-97 -15.5q-81 0 -144.5 32.5t-99.5 94.5t-36 150q0 85 33.5 148.5t92.5 99t136 35.5q61 0 106.5 -19t75 -57.5t45 -96t16.5 -134.5h-414v63h323l-25 -24
q-2 56 -9.5 95t-22.5 62t-38 33.5t-56 10.5t-59.5 -12.5t-45.5 -39t-29 -67.5t-10 -98zM349 795h-90l-124 -166v-20h45l157 130l-75 -2l157 -128h55v20z" />
    <glyph glyph-name="edieresis" unicode="&#xeb;" horiz-adv-x="590" 
d="M163 264q0 -56 12 -95.5t35 -64t54 -36t69 -11.5q40 0 70 14t52 36t37 48l55 -42q-20 -37 -51.5 -65.5t-74.5 -44t-97 -15.5q-81 0 -144.5 32.5t-99.5 94.5t-36 150q0 85 33.5 148.5t92.5 99t136 35.5q61 0 106.5 -19t75 -57.5t45 -96t16.5 -134.5h-414v63h323l-25 -24
q-2 56 -9.5 95t-22.5 62t-38 33.5t-56 10.5t-59.5 -12.5t-45.5 -39t-29 -67.5t-10 -98zM250 702q0 -35 -21 -53t-55 -18t-55 18t-21 53t21 53t55 18t55 -18t21 -53zM502 702q0 -35 -21 -53t-55 -18t-55 18t-21 53t21 53t55 18t55 -18t21 -53z" />
    <glyph glyph-name="igrave" unicode="&#xec;" horiz-adv-x="341" 
d="M235 538v-434q0 -30 20.5 -40t55.5 -10h3v-54h-275v54h3q35 0 55.5 10t20.5 40v331q0 20 -17 27t-52 14l-10 2v60h196zM177 755l51 -119v-26h-39l-100 83q-14 11 -24.5 23t-16 25t-5.5 26q0 22 16 38t41 16q19 0 33 -8t25 -23t19 -35z" />
    <glyph glyph-name="iacute" unicode="&#xed;" horiz-adv-x="341" 
d="M235 538v-434q0 -30 20.5 -40t55.5 -10h3v-54h-275v54h3q35 0 55.5 10t20.5 40v331q0 20 -17 27t-52 14l-10 2v60h196zM173 755q8 20 18.5 35t24.5 22.5t32 7.5q26 0 41.5 -15t15.5 -37q0 -13 -6 -26t-16.5 -25t-24.5 -23l-99 -84h-37v26z" />
    <glyph glyph-name="icircumflex" unicode="&#xee;" horiz-adv-x="341" 
d="M210 796h-90l-122 -167v-20h45l155 130l-75 -2l154 -128h55v20zM235 538v-434q0 -30 20.5 -40t55.5 -10h3v-54h-275v54h3q35 0 55.5 10t20.5 40v331q0 20 -17 27t-52 14l-10 2v60h196z" />
    <glyph glyph-name="idieresis" unicode="&#xef;" horiz-adv-x="341" 
d="M46 630q-34 0 -55 18t-21 53t21 53t55 18t55 -18t21 -53t-21 -53t-55 -18zM284 630q-34 0 -55 18t-21 53t21 53t55 18t55 -18t21 -53t-21 -53t-55 -18zM235 538v-434q0 -30 20.5 -40t55.5 -10h3v-54h-275v54h3q35 0 55.5 10t20.5 40v331q0 20 -17 27t-52 14l-10 2v60h196
z" />
    <glyph glyph-name="eth" unicode="&#xf0;" horiz-adv-x="639" 
d="M485 420l9 -67q-20 34 -44.5 59t-54.5 39t-71 14q-38 0 -67.5 -13.5t-49.5 -39.5t-30 -63.5t-10 -85.5q0 -70 17 -116t51 -68.5t85 -22.5q38 0 67 14.5t48.5 45.5t28.5 79t9 116q0 76 -10 133t-32 100t-57.5 75.5t-85.5 58.5t-117 49l30 57q102 -30 176.5 -73t122.5 -100
t71.5 -131t23.5 -166q0 -105 -33.5 -177.5t-95.5 -110.5t-146 -38q-85 0 -147 34t-95.5 96t-33.5 145q0 84 33 144t92 93.5t138 33.5q40 0 74 -14t60.5 -39.5t43.5 -60.5zM134 607l386 163l21 -54l-386 -163z" />
    <glyph glyph-name="ntilde" unicode="&#xf1;" horiz-adv-x="685" 
d="M39 0v54h3q23 0 40 4.5t26 16.5t9 33v327q0 14 -7.5 21t-23 11.5t-38.5 8.5l-9 2v60h179l12 -117l5 -4v-354q0 -3 10.5 -5t25.5 -3t28 -1h4v-54h-264zM660 0h-264v54h3q13 0 28 1t25.5 3t10.5 5v321q0 29 -7 48t-24 28.5t-46 9.5q-30 0 -59 -13t-56.5 -39.5t-55.5 -66.5
v62q27 43 59 73t70 46t81 16q50 0 84.5 -17t53 -51.5t18.5 -86.5v-285q0 -21 9.5 -33t26 -16.5t40.5 -4.5h3v-54zM419 618q-24 0 -42 9t-32 23t-25.5 27.5t-22.5 23t-24 9.5q-23 0 -31 -23.5t-16 -70.5l-59 15q9 58 22.5 93.5t36.5 51.5t57 16q22 0 39 -9t31 -22.5t26 -27
t24.5 -22.5t26.5 -9q15 0 23 10.5t13.5 31.5t11.5 52l59 -15q-9 -59 -24.5 -95t-38 -52t-55.5 -16z" />
    <glyph glyph-name="ograve" unicode="&#xf2;" horiz-adv-x="646" 
d="M602 268q0 -85 -34 -148t-97 -97.5t-148 -34.5t-147.5 34.5t-97 97.5t-34.5 148q0 64 19.5 116t56 88.5t88 56t115.5 19.5t115.5 -19.5t88 -56t56 -88.5t19.5 -116zM167 268q0 -71 17.5 -118t52 -70.5t86.5 -23.5q53 0 87.5 23t51.5 70.5t17 118.5q0 70 -17 117t-51.5 71
t-87.5 24q-52 0 -86.5 -24t-52 -71t-17.5 -117zM334 755l51 -119v-26h-39l-100 83q-14 11 -24.5 23t-16 25t-5.5 26q0 22 16 38t41 16q19 0 33 -8t25 -23t19 -35z" />
    <glyph glyph-name="oacute" unicode="&#xf3;" horiz-adv-x="646" 
d="M602 268q0 -85 -34 -148t-97 -97.5t-148 -34.5t-147.5 34.5t-97 97.5t-34.5 148q0 64 19.5 116t56 88.5t88 56t115.5 19.5t115.5 -19.5t88 -56t56 -88.5t19.5 -116zM167 268q0 -71 17.5 -118t52 -70.5t86.5 -23.5q53 0 87.5 23t51.5 70.5t17 118.5q0 70 -17 117t-51.5 71
t-87.5 24q-52 0 -86.5 -24t-52 -71t-17.5 -117zM328 755q8 20 18.5 35t24.5 22.5t32 7.5q26 0 41.5 -15t15.5 -37q0 -13 -6 -26t-16.5 -25t-24.5 -23l-99 -84h-37v26z" />
    <glyph glyph-name="ocircumflex" unicode="&#xf4;" horiz-adv-x="646" 
d="M602 268q0 -85 -34 -148t-97 -97.5t-148 -34.5t-147.5 34.5t-97 97.5t-34.5 148q0 64 19.5 116t56 88.5t88 56t115.5 19.5t115.5 -19.5t88 -56t56 -88.5t19.5 -116zM167 268q0 -71 17.5 -118t52 -70.5t86.5 -23.5q53 0 87.5 23t51.5 70.5t17 118.5q0 70 -17 117t-51.5 71
t-87.5 24q-52 0 -86.5 -24t-52 -71t-17.5 -117zM371 795h-90l-124 -166v-20h45l157 130l-75 -2l157 -128h55v20z" />
    <glyph glyph-name="otilde" unicode="&#xf5;" horiz-adv-x="646" 
d="M602 268q0 -85 -34 -148t-97 -97.5t-148 -34.5t-147.5 34.5t-97 97.5t-34.5 148q0 64 19.5 116t56 88.5t88 56t115.5 19.5t115.5 -19.5t88 -56t56 -88.5t19.5 -116zM167 268q0 -71 17.5 -118t52 -70.5t86.5 -23.5q53 0 87.5 23t51.5 70.5t17 118.5q0 70 -17 117t-51.5 71
t-87.5 24q-52 0 -86.5 -24t-52 -71t-17.5 -117zM392 618q-24 0 -42 9t-32 23t-25.5 27.5t-22.5 23t-24 9.5q-23 0 -31 -23.5t-16 -70.5l-59 15q9 58 22.5 93.5t36.5 51.5t57 16q22 0 39 -9t31 -22.5t26 -27t24.5 -22.5t26.5 -9q15 0 23 10.5t13.5 31.5t11.5 52l59 -15
q-9 -59 -24.5 -95t-38 -52t-55.5 -16z" />
    <glyph glyph-name="odieresis" unicode="&#xf6;" horiz-adv-x="646" 
d="M602 268q0 -85 -34 -148t-97 -97.5t-148 -34.5t-147.5 34.5t-97 97.5t-34.5 148q0 64 19.5 116t56 88.5t88 56t115.5 19.5t115.5 -19.5t88 -56t56 -88.5t19.5 -116zM167 268q0 -71 17.5 -118t52 -70.5t86.5 -23.5q53 0 87.5 23t51.5 70.5t17 118.5q0 70 -17 117t-51.5 71
t-87.5 24q-52 0 -86.5 -24t-52 -71t-17.5 -117zM273 702q0 -35 -21 -53t-55 -18t-55 18t-21 53t21 53t55 18t55 -18t21 -53zM525 702q0 -35 -21 -53t-55 -18t-55 18t-21 53t21 53t55 18t55 -18t21 -53z" />
    <glyph glyph-name="divide" unicode="&#xf7;" 
d="M363 550q0 -34 -23.5 -55.5t-59.5 -21.5q-37 0 -60 21.5t-23 55.5q0 35 23 56t60 21q36 0 59.5 -21t23.5 -56zM363 137q0 -34 -23.5 -55t-59.5 -21q-37 0 -60 21t-23 55q0 35 23 56t60 21q36 0 59.5 -21t23.5 -56zM500 385v-82h-440v82h440z" />
    <glyph glyph-name="oslash" unicode="&#xf8;" horiz-adv-x="646" 
d="M-12 -14l577 564h89l-577 -564h-89zM162 268q0 -74 16 -120.5t52 -69t93 -22.5q54 0 90 23t53.5 70.5t17.5 118.5q0 75 -16 121.5t-51 68.5t-93 22q-54 0 -90 -24t-54 -71t-18 -117zM44 268q0 65 19.5 116.5t56 88t88 56t115.5 19.5q63 0 114.5 -21t88.5 -58.5
t56.5 -88.5t19.5 -112q0 -86 -34 -148.5t-97 -97t-148 -34.5q-84 0 -147 36.5t-97.5 99.5t-34.5 144z" />
    <glyph glyph-name="ugrave" unicode="&#xf9;" horiz-adv-x="670" 
d="M224 538v-383q0 -29 7.5 -48.5t24 -29t45.5 -9.5t57 13t55.5 39t55.5 66l-1 -62q-27 -43 -58.5 -73t-68.5 -45.5t-80 -15.5q-48 0 -83 17t-53.5 52t-18.5 86v290q0 20 -16.5 28.5t-52.5 12.5l-13 2v60h200zM566 538v-441q0 -13 9 -20t25.5 -11t38.5 -6l6 -2v-58h-179
l-12 119l-6 6v310q0 20 -18 28.5t-53 12.5l-23 2v60h212zM341 755l51 -119v-26h-39l-100 83q-14 11 -24.5 23t-16 25t-5.5 26q0 22 16 38t41 16q19 0 33 -8t25 -23t19 -35z" />
    <glyph glyph-name="uacute" unicode="&#xfa;" horiz-adv-x="670" 
d="M224 538v-383q0 -29 7.5 -48.5t24 -29t45.5 -9.5t57 13t55.5 39t55.5 66l-1 -62q-27 -43 -58.5 -73t-68.5 -45.5t-80 -15.5q-48 0 -83 17t-53.5 52t-18.5 86v290q0 20 -16.5 28.5t-52.5 12.5l-13 2v60h200zM566 538v-441q0 -13 9 -20t25.5 -11t38.5 -6l6 -2v-58h-179
l-12 119l-6 6v310q0 20 -18 28.5t-53 12.5l-23 2v60h212zM335 755q8 20 18.5 35t24.5 22.5t32 7.5q26 0 41.5 -15t15.5 -37q0 -13 -6 -26t-16.5 -25t-24.5 -23l-99 -84h-37v26z" />
    <glyph glyph-name="ucircumflex" unicode="&#xfb;" horiz-adv-x="670" 
d="M224 538v-383q0 -29 7.5 -48.5t24 -29t45.5 -9.5t57 13t55.5 39t55.5 66l-1 -62q-27 -43 -58.5 -73t-68.5 -45.5t-80 -15.5q-48 0 -83 17t-53.5 52t-18.5 86v290q0 20 -16.5 28.5t-52.5 12.5l-13 2v60h200zM566 538v-441q0 -13 9 -20t25.5 -11t38.5 -6l6 -2v-58h-179
l-12 119l-6 6v310q0 20 -18 28.5t-53 12.5l-23 2v60h212zM373 795h-90l-124 -166v-20h45l157 130l-75 -2l157 -128h55v20z" />
    <glyph glyph-name="udieresis" unicode="&#xfc;" horiz-adv-x="670" 
d="M224 538v-383q0 -29 7.5 -48.5t24 -29t45.5 -9.5t57 13t55.5 39t55.5 66l-1 -62q-27 -43 -58.5 -73t-68.5 -45.5t-80 -15.5q-48 0 -83 17t-53.5 52t-18.5 86v290q0 20 -16.5 28.5t-52.5 12.5l-13 2v60h200zM566 538v-441q0 -13 9 -20t25.5 -11t38.5 -6l6 -2v-58h-179
l-12 119l-6 6v310q0 20 -18 28.5t-53 12.5l-23 2v60h212zM276 702q0 -35 -21 -53t-55 -18t-55 18t-21 53t21 53t55 18t55 -18t21 -53zM528 702q0 -35 -21 -53t-55 -18t-55 18t-21 53t21 53t55 18t55 -18t21 -53z" />
    <glyph glyph-name="yacute" unicode="&#xfd;" horiz-adv-x="646" 
d="M368 64l-23 -52l-52 -44l-200 475q-6 14 -15.5 21.5t-23.5 10.5t-34 3h-6v60h272v-59h-5q-19 0 -36.5 -1t-29.5 -2.5t-12 -4.5zM377 17q-29 -69 -56.5 -117.5t-56 -77.5t-62.5 -42.5t-77 -13.5q-29 0 -52 5.5t-35 12.5v94q4 -1 17 -5.5t32.5 -9t42.5 -4.5q26 0 49 7
t45 27t44 57.5t45 98.5l14 25l157 384q0 6 -10.5 10.5t-28 7.5t-36.5 3h-5v59h228v-60h-6q-17 0 -31 -4t-25 -14t-19 -30zM349 755q8 20 18.5 35t24.5 22.5t32 7.5q26 0 41.5 -15t15.5 -37q0 -13 -6 -26t-16.5 -25t-24.5 -23l-99 -84h-37v26z" />
    <glyph glyph-name="thorn" unicode="&#xfe;" horiz-adv-x="691" 
d="M325 -223h-290v54h3q22 0 38.5 4.5t25.5 16.5t9 33v770q0 14 -7.5 21t-23 11.5t-38.5 9.5l-9 2v59h196v-918q0 -3 12.5 -5t29.5 -3t31 -1h23v-54zM401 -11q-39 0 -70 10.5t-56.5 32t-48 53t-42.5 73.5l23 35q25 -43 51 -72t56 -44t67 -15q36 0 62.5 13.5t44.5 40.5
t27 66.5t9 89.5t-8.5 87.5t-24.5 63.5t-42 39t-61 13q-38 0 -69.5 -15t-58.5 -44.5t-54 -75.5l-20 36q30 55 62 93.5t71 58.5t91 20q76 0 128.5 -35t80.5 -96.5t28 -144.5q0 -82 -29.5 -146t-84.5 -100.5t-132 -36.5z" />
    <glyph glyph-name="ydieresis" unicode="&#xff;" horiz-adv-x="646" 
d="M368 64l-23 -52l-52 -44l-200 475q-6 14 -15.5 21.5t-23.5 10.5t-34 3h-6v60h272v-59h-5q-19 0 -36.5 -1t-29.5 -2.5t-12 -4.5zM377 17q-29 -69 -56.5 -117.5t-56 -77.5t-62.5 -42.5t-77 -13.5q-29 0 -52 5.5t-35 12.5v94q4 -1 17 -5.5t32.5 -9t42.5 -4.5q26 0 49 7
t45 27t44 57.5t45 98.5l14 25l157 384q0 6 -10.5 10.5t-28 7.5t-36.5 3h-5v59h228v-60h-6q-17 0 -31 -4t-25 -14t-19 -30zM282 702q0 -35 -21 -53t-55 -18t-55 18t-21 53t21 53t55 18t55 -18t21 -53zM534 702q0 -35 -21 -53t-55 -18t-55 18t-21 53t21 53t55 18t55 -18
t21 -53z" />
    <glyph glyph-name="Amacron" unicode="&#x100;" horiz-adv-x="725" 
d="M196 297h282l9 -63h-302zM324 669l19 -22l-185 -565q0 -5 10.5 -10t29 -7.5t40.5 -2.5h12v-62h-235v62h6q27 0 44.5 10t28.5 43l198 600h138l203 -607q10 -29 27.5 -37.5t44.5 -8.5h5v-62h-285v62h13q22 0 40.5 1t29.5 3.5t11 5.5zM192 892h340v-80h-340v80z" />
    <glyph glyph-name="amacron" unicode="&#x101;" horiz-adv-x="596" 
d="M400 327v-58q-55 -7 -95 -17t-66.5 -21.5t-41.5 -26t-21.5 -32t-6.5 -38.5q0 -27 10.5 -44.5t29.5 -26.5t45 -9q28 0 52.5 13.5t47 40.5t45.5 69l3 -57q-20 -42 -46.5 -71t-60 -44.5t-75.5 -15.5q-51 0 -88.5 16t-57.5 48t-20 78q0 42 19 73t60 54t107 39.5t160 29.5z
M401 0l-12 114l-6 3v272q0 33 -9 53t-30.5 29.5t-59.5 9.5q-55 0 -90.5 -15.5t-52.5 -33.5q-2 8 0.5 16t9 15.5t16.5 13t24 6.5v-116h-106v124q14 11 42.5 24t70 23t94.5 10q46 0 83.5 -8.5t65.5 -27.5t43 -49t15 -73v-293q0 -13 9 -20t25 -10.5t39 -6.5l5 -2v-58h-176z
M123 738h340v-80h-340v80z" />
    <glyph glyph-name="Abreve" unicode="&#x102;" horiz-adv-x="725" 
d="M196 297h282l9 -63h-302zM324 669l19 -22l-185 -565q0 -5 10.5 -10t29 -7.5t40.5 -2.5h12v-62h-235v62h6q27 0 44.5 10t28.5 43l198 600h138l203 -607q10 -29 27.5 -37.5t44.5 -8.5h5v-62h-285v62h13q22 0 40.5 1t29.5 3.5t11 5.5zM362 776q52 0 88.5 17.5t56.5 53.5
t22 92h-70q-3 -30 -13 -46.5t-29.5 -23.5t-52.5 -7q-31 0 -50.5 7t-30 23.5t-13.5 46.5h-75q3 -56 23 -92t56.5 -53.5t87.5 -17.5z" />
    <glyph glyph-name="abreve" unicode="&#x103;" horiz-adv-x="596" 
d="M400 327v-58q-55 -7 -95 -17t-66.5 -21.5t-41.5 -26t-21.5 -32t-6.5 -38.5q0 -27 10.5 -44.5t29.5 -26.5t45 -9q28 0 52.5 13.5t47 40.5t45.5 69l3 -57q-20 -42 -46.5 -71t-60 -44.5t-75.5 -15.5q-51 0 -88.5 16t-57.5 48t-20 78q0 42 19 73t60 54t107 39.5t160 29.5z
M401 0l-12 114l-6 3v272q0 33 -9 53t-30.5 29.5t-59.5 9.5q-55 0 -90.5 -15.5t-52.5 -33.5q-2 8 0.5 16t9 15.5t16.5 13t24 6.5v-116h-106v124q14 11 42.5 24t70 23t94.5 10q46 0 83.5 -8.5t65.5 -27.5t43 -49t15 -73v-293q0 -13 9 -20t25 -10.5t39 -6.5l5 -2v-58h-176z
M290 617q50 0 84 17.5t53 55t19 98.5h-68q-2 -36 -11 -54.5t-26.5 -25t-47.5 -6.5t-48.5 6.5t-27 25t-10.5 54.5h-74q1 -61 19.5 -98.5t53.5 -55t84 -17.5z" />
    <glyph glyph-name="Aogonek" unicode="&#x104;" horiz-adv-x="725" 
d="M196 297h282l9 -63h-303zM569 45l29 -38q-50 -31 -75.5 -55.5t-35 -44.5t-9.5 -41q0 -25 12.5 -37t33.5 -12q24 0 41.5 13t28.5 26l38 -38q-24 -28 -55.5 -45.5t-82.5 -17.5q-56 0 -92.5 23.5t-36.5 72.5q0 28 11.5 51t36 44.5t63.5 45t93 53.5zM710 0h-168l-219 669
l22 -9l-189 -578q0 -5 11 -10t29 -7.5t40 -2.5h12v-62h-233v62h6q27 0 44.5 10t27.5 43l199 601h138l203 -608q10 -29 27.5 -37.5t44.5 -8.5h5v-62z" />
    <glyph glyph-name="aogonek" unicode="&#x105;" horiz-adv-x="596" 
d="M252 -152q0 26 11.5 47.5t36 42.5t63.5 45t94 54l29 -29q-37 -25 -61 -45.5t-37 -37.5t-18 -32t-5 -30q0 -23 12 -34.5t33 -11.5q24 0 41.5 12.5t28.5 24.5l37 -38q-24 -27 -55.5 -44t-82.5 -17q-56 0 -91.5 23.5t-35.5 69.5zM577 0h-176l-12 114l-6 3v272q0 33 -9 53
t-30.5 29.5t-59.5 9.5q-55 0 -90.5 -15.5t-52.5 -33.5q-2 8 0.5 16t9 15.5t16.5 13t24 6.5v-116h-106v124q14 11 42.5 24t70 23t94.5 10q46 0 83.5 -8.5t65.5 -27.5t43 -49t15 -73v-293q0 -13 9 -20t25 -10.5t39 -6.5l5 -2v-58zM54 131q0 42 19 73t60 54t107 39.5t160 29.5
v-58q-55 -7 -95 -17t-66.5 -21.5t-41.5 -26t-21.5 -32t-6.5 -38.5q0 -27 10.5 -44.5t29.5 -26.5t45 -9q28 0 52.5 13.5t47 40.5t45.5 69l3 -57q-20 -42 -46.5 -71t-60 -44.5t-75.5 -15.5q-51 0 -88.5 16t-57.5 48t-20 78z" />
    <glyph glyph-name="Cacute" unicode="&#x106;" horiz-adv-x="750" 
d="M399 657q-50 0 -90 -19.5t-68.5 -57.5t-43.5 -94t-15 -131t15 -131.5t44 -94.5t71.5 -57t98.5 -19q63 0 108 26t74.5 71.5t45.5 101.5l67 -28q-20 -73 -61 -127.5t-102 -84t-143 -29.5q-78 0 -142 25t-110.5 73t-71.5 117t-25 157t25.5 157.5t72 117.5t108.5 73t134 25
q71 0 121 -25t82 -71t44 -112l-33 27l15 168h72v-240h-80q-16 56 -44.5 96.5t-70.5 63t-98 22.5zM419 899l-74 -95v-27h39l99 47q21 10 37 21t24.5 24.5t8.5 29.5q0 21 -15.5 36.5t-40.5 15.5q-17 0 -30.5 -6.5t-24.5 -18t-23 -27.5z" />
    <glyph glyph-name="cacute" unicode="&#x107;" horiz-adv-x="583" 
d="M337 57q41 0 70.5 14.5t51.5 38t37 49.5l53 -41q-20 -38 -51.5 -67.5t-74 -45.5t-97.5 -16q-86 0 -149.5 33.5t-98 96.5t-34.5 150t35 149.5t99.5 96t152.5 33.5q54 0 95 -8.5t68.5 -20t39.5 -20.5v-156h-106v135q11 -1 19.5 -5.5t14 -11.5t7.5 -15t1 -14
q-20 20 -55.5 34t-80.5 14q-57 0 -94 -24.5t-55 -72t-18 -114.5q0 -53 10.5 -92.5t31 -66t52.5 -40t76 -13.5zM321 755q8 20 18.5 35t24.5 22.5t32 7.5q26 0 41.5 -15t15.5 -37q0 -13 -6 -26t-16.5 -25t-24.5 -23l-99 -84h-37v26z" />
    <glyph glyph-name="Ccircumflex" unicode="&#x108;" horiz-adv-x="750" 
d="M399 657q-50 0 -90 -19.5t-68.5 -57.5t-43.5 -94t-15 -131t15 -131.5t44 -94.5t71.5 -57t98.5 -19q63 0 108 26t74.5 71.5t45.5 101.5l67 -28q-20 -73 -61 -127.5t-102 -84t-143 -29.5q-78 0 -142 25t-110.5 73t-71.5 117t-25 157t25.5 157.5t72 117.5t108.5 73t134 25
q71 0 121 -25t82 -71t44 -112l-33 27l15 168h72v-240h-80q-16 56 -44.5 96.5t-70.5 63t-98 22.5zM443 936h-98l-124 -147v-21h51l152 110l-68 -2l151 -108h60v21z" />
    <glyph glyph-name="ccircumflex" unicode="&#x109;" horiz-adv-x="583" 
d="M337 57q41 0 70.5 14.5t51.5 38t37 49.5l53 -41q-20 -38 -51.5 -67.5t-74 -45.5t-97.5 -16q-86 0 -149.5 33.5t-98 96.5t-34.5 150t35 149.5t99.5 96t152.5 33.5q54 0 95 -8.5t68.5 -20t39.5 -20.5v-156h-106v135q11 -1 19.5 -5.5t14 -11.5t7.5 -15t1 -14
q-20 20 -55.5 34t-80.5 14q-57 0 -94 -24.5t-55 -72t-18 -114.5q0 -53 10.5 -92.5t31 -66t52.5 -40t76 -13.5zM362 795h-90l-124 -166v-20h45l157 130l-75 -2l157 -128h55v20z" />
    <glyph glyph-name="Cdotaccent" unicode="&#x10a;" horiz-adv-x="750" 
d="M399 657q-50 0 -90 -19.5t-68.5 -57.5t-43.5 -94t-15 -131t15 -131.5t44 -94.5t71.5 -57t98.5 -19q63 0 108 26t74.5 71.5t45.5 101.5l67 -28q-20 -73 -61 -127.5t-102 -84t-143 -29.5q-78 0 -142 25t-110.5 73t-71.5 117t-25 157t25.5 157.5t72 117.5t108.5 73t134 25
q71 0 121 -25t82 -71t44 -112l-33 27l15 168h72v-240h-80q-16 56 -44.5 96.5t-70.5 63t-98 22.5zM392 781q-35 0 -56 18t-21 53q0 34 21 52t56 18q34 0 55 -18t21 -52q0 -35 -21 -53t-55 -18z" />
    <glyph glyph-name="cdotaccent" unicode="&#x10b;" horiz-adv-x="583" 
d="M337 57q41 0 70.5 14.5t51.5 38t37 49.5l53 -41q-20 -38 -51.5 -67.5t-74 -45.5t-97.5 -16q-86 0 -149.5 33.5t-98 96.5t-34.5 150t35 149.5t99.5 96t152.5 33.5q54 0 95 -8.5t68.5 -20t39.5 -20.5v-156h-106v135q11 -1 19.5 -5.5t14 -11.5t7.5 -15t1 -14
q-20 20 -55.5 34t-80.5 14q-57 0 -94 -24.5t-55 -72t-18 -114.5q0 -53 10.5 -92.5t31 -66t52.5 -40t76 -13.5zM318 637q-35 0 -56 18t-21 53q0 34 21 52t56 18q34 0 55 -18t21 -52q0 -35 -21 -53t-55 -18z" />
    <glyph glyph-name="Ccaron" unicode="&#x10c;" horiz-adv-x="750" 
d="M340 778h98l124 148v20h-51l-152 -110l68 2l-151 108h-60v-20zM399 657q-50 0 -90 -19.5t-68.5 -57.5t-43.5 -94t-15 -131t15 -131.5t44 -94.5t71.5 -57t98.5 -19q63 0 108 26t74.5 71.5t45.5 101.5l67 -28q-20 -73 -61 -127.5t-102 -84t-143 -29.5q-78 0 -142 25
t-110.5 73t-71.5 117t-25 157t25.5 157.5t72 117.5t108.5 73t134 25q71 0 121 -25t82 -71t44 -112l-33 27l15 168h72v-240h-80q-16 56 -44.5 96.5t-70.5 63t-98 22.5z" />
    <glyph glyph-name="ccaron" unicode="&#x10d;" horiz-adv-x="583" 
d="M269 610h90l124 166v20h-45l-157 -130l74 2l-156 128h-55v-20zM337 57q41 0 70.5 14.5t51.5 38t37 49.5l53 -41q-20 -38 -51.5 -67.5t-74 -45.5t-97.5 -16q-86 0 -149.5 33.5t-98 96.5t-34.5 150t35 149.5t99.5 96t152.5 33.5q54 0 95 -8.5t68.5 -20t39.5 -20.5v-156
h-106v135q11 -1 19.5 -5.5t14 -11.5t7.5 -15t1 -14q-20 20 -55.5 34t-80.5 14q-57 0 -94 -24.5t-55 -72t-18 -114.5q0 -53 10.5 -92.5t31 -66t52.5 -40t76 -13.5z" />
    <glyph glyph-name="Dcaron" unicode="&#x10e;" horiz-adv-x="803" 
d="M342 778h98l124 148v20h-51l-152 -110l68 2l-151 108h-60v-20zM48 648v62h324q87 0 157 -22.5t120 -67t76.5 -110.5t26.5 -152q0 -85 -26.5 -152t-76.5 -113t-120 -69.5t-157 -23.5h-324v62h11q34 0 55.5 7t21.5 29v514q0 21 -21.5 28.5t-55.5 7.5h-11zM368 643h-108
v-576h108q61 0 108 18.5t79 55t49 91t17 126.5t-17 125.5t-49 89t-79 53t-108 17.5z" />
    <glyph glyph-name="dcaron" unicode="&#x10f;" horiz-adv-x="682" 
d="M580 97q0 -20 19.5 -26.5t52.5 -10.5l6 -2v-58h-178l-13 119l-5 -3v539q0 14 -7.5 21t-23.5 11.5t-39 9.5l-10 2v59h198v-661zM291 548q45 0 80.5 -16t64 -46t51.5 -74l-3 -68q-25 45 -51 73.5t-56 43t-67 14.5q-35 0 -62 -14t-45 -40.5t-27 -66t-9 -90.5q0 -49 8 -87
t25 -63.5t42.5 -38.5t61.5 -13q38 0 68.5 14t58 44t54.5 76l2 -65q-26 -45 -55 -77t-65.5 -48.5t-85.5 -16.5q-75 0 -128 34.5t-81 96.5t-28 144q0 83 29.5 146.5t85 100.5t132.5 37zM722 572l58 186h-115l-17 -167v-19h74z" />
    <glyph glyph-name="Dcroat" unicode="&#x110;" horiz-adv-x="803" 
d="M44 391h402v-66h-402v66zM48 648v62h324q87 0 157 -22.5t120 -67t76.5 -110.5t26.5 -152q0 -85 -26.5 -152t-76.5 -113t-120 -69.5t-157 -23.5h-324v62h11q34 0 55.5 7t21.5 29v514q0 21 -21.5 28.5t-55.5 7.5h-11zM368 643h-108v-576h108q61 0 108 18.5t79 55t49 91
t17 126.5t-17 125.5t-49 89t-79 53t-108 17.5z" />
    <glyph glyph-name="dcroat" unicode="&#x111;" horiz-adv-x="682" 
d="M291 548q51 0 89.5 -20t69 -58t56.5 -96l-23 -30q-24 43 -50 72.5t-55.5 44t-67.5 14.5q-35 0 -62 -14t-45 -40.5t-27 -66t-9 -90.5q0 -49 8 -87t25 -63.5t42.5 -38.5t61.5 -13q28 0 53 8t46.5 25t41.5 42t39 59l20 -35q-29 -56 -60 -94.5t-70.5 -58t-92.5 -19.5
q-75 0 -128 34.5t-81 96.5t-28 144q0 83 29.5 146.5t85 100.5t132.5 37zM462 758h118v-661q0 -20 19.5 -26.5t52.5 -10.5l6 -2v-58h-179l-12 119l-5 -3v642zM667 673v-62h-411v62h411z" />
    <glyph glyph-name="Emacron" unicode="&#x112;" horiz-adv-x="682" 
d="M621 224v-224h-573v62h11q33 0 55 7t22 29v514q0 22 -22 29t-55 7h-11v62h549v-199h-69l-11 88q-2 18 -15 27.5t-38 13t-65 3.5h-140v-576h156q32 0 54.5 2t37 7t22 13.5t8.5 21.5l13 113h71zM236 395q45 2 88.5 4t87.5 4.5t88 4.5v-87q-44 2 -87.5 4.5t-87.5 4.5t-89 4
v61zM164 892h340v-80h-340v80z" />
    <glyph glyph-name="emacron" unicode="&#x113;" horiz-adv-x="590" 
d="M163 264q0 -56 12 -95.5t35 -64t54 -36t69 -11.5q40 0 70 14t52 36t37 48l55 -42q-20 -37 -51.5 -65.5t-74.5 -44t-97 -15.5q-81 0 -144.5 32.5t-99.5 94.5t-36 150q0 85 33.5 148.5t92.5 99t136 35.5q61 0 106.5 -19t75 -57.5t45 -96t16.5 -134.5h-414v63h323l-25 -24
q-2 56 -9.5 95t-22.5 62t-38 33.5t-56 10.5t-59.5 -12.5t-45.5 -39t-29 -67.5t-10 -98zM129 738h340v-80h-340v80z" />
    <glyph glyph-name="Ebreve" unicode="&#x114;" horiz-adv-x="682" 
d="M621 224v-224h-573v62h11q33 0 55 7t22 29v514q0 22 -22 29t-55 7h-11v62h549v-199h-69l-11 88q-2 18 -15 27.5t-38 13t-65 3.5h-140v-576h156q32 0 54.5 2t37 7t22 13.5t8.5 21.5l13 113h71zM236 395q45 2 88.5 4t87.5 4.5t88 4.5v-87q-44 2 -87.5 4.5t-87.5 4.5t-89 4
v61zM334 775q52 0 88.5 17.5t56.5 53.5t22 92h-70q-3 -30 -13 -46.5t-29.5 -23.5t-52.5 -7q-31 0 -50.5 7t-30 23.5t-13.5 46.5h-75q3 -56 23 -92t56.5 -53.5t87.5 -17.5z" />
    <glyph glyph-name="ebreve" unicode="&#x115;" horiz-adv-x="590" 
d="M163 264q0 -56 12 -95.5t35 -64t54 -36t69 -11.5q40 0 70 14t52 36t37 48l55 -42q-20 -37 -51.5 -65.5t-74.5 -44t-97 -15.5q-81 0 -144.5 32.5t-99.5 94.5t-36 150q0 85 33.5 148.5t92.5 99t136 35.5q61 0 106.5 -19t75 -57.5t45 -96t16.5 -134.5h-414v63h323l-25 -24
q-2 56 -9.5 95t-22.5 62t-38 33.5t-56 10.5t-59.5 -12.5t-45.5 -39t-29 -67.5t-10 -98zM299 617q50 0 84 17.5t53 55t19 98.5h-68q-2 -36 -11 -54.5t-26.5 -25t-47.5 -6.5t-48.5 6.5t-27 25t-10.5 54.5h-74q1 -61 19.5 -98.5t53.5 -55t84 -17.5z" />
    <glyph glyph-name="Edotaccent" unicode="&#x116;" horiz-adv-x="682" 
d="M621 224v-224h-573v62h11q33 0 55 7t22 29v514q0 22 -22 29t-55 7h-11v62h549v-199h-69l-11 88q-2 18 -15 27.5t-38 13t-65 3.5h-140v-576h156q32 0 54.5 2t37 7t22 13.5t8.5 21.5l13 113h71zM236 395q45 2 88.5 4t87.5 4.5t88 4.5v-87q-44 2 -87.5 4.5t-87.5 4.5t-89 4
v61zM335 781q-35 0 -56 18t-21 53q0 34 21 52t56 18q34 0 55 -18t21 -52q0 -35 -21 -53t-55 -18z" />
    <glyph glyph-name="edotaccent" unicode="&#x117;" horiz-adv-x="590" 
d="M163 264q0 -56 12 -95.5t35 -64t54 -36t69 -11.5q40 0 70 14t52 36t37 48l55 -42q-20 -37 -51.5 -65.5t-74.5 -44t-97 -15.5q-81 0 -144.5 32.5t-99.5 94.5t-36 150q0 85 33.5 148.5t92.5 99t136 35.5q61 0 106.5 -19t75 -57.5t45 -96t16.5 -134.5h-414v63h323l-25 -24
q-2 56 -9.5 95t-22.5 62t-38 33.5t-56 10.5t-59.5 -12.5t-45.5 -39t-29 -67.5t-10 -98zM303 637q-35 0 -56 18t-21 53q0 34 21 52t56 18q34 0 55 -18t21 -52q0 -35 -21 -53t-55 -18z" />
    <glyph glyph-name="Eogonek" unicode="&#x118;" horiz-adv-x="682" 
d="M621 224v-224h-573v62h11q33 0 55 7t22 29v514q0 22 -22 29t-55 7h-11v62h549v-199h-69l-11 88q-2 18 -15 27.5t-38 13t-65 3.5h-140v-576h156q32 0 54.5 2t37 7t22 13.5t8.5 21.5l13 113h71zM236 395q45 2 88.5 4t87.5 4.5t88 4.5v-87q-44 2 -87.5 4.5t-87.5 4.5t-89 4
v61zM511 37l30 -29q-37 -25 -61 -45.5t-37 -37.5t-18 -32t-5 -30q0 -23 12 -34.5t33 -11.5q24 0 41.5 13t28.5 24l36 -38q-24 -27 -55 -44t-83 -17q-55 0 -91 23.5t-36 69.5q0 26 11.5 47.5t36 42.5t64 45t93.5 54z" />
    <glyph glyph-name="eogonek" unicode="&#x119;" horiz-adv-x="590" 
d="M422 37l1 -32q-21 -8 -45.5 -12.5t-53.5 -4.5q-81 0 -144.5 32.5t-99.5 94.5t-36 150q0 85 33.5 148.5t92.5 99t136 35.5q61 0 106.5 -19t75 -57.5t45 -96t16.5 -134.5h-430v63h339l-25 -24q-2 56 -9.5 95t-22.5 62t-38 33.5t-56 10.5t-59.5 -12.5t-45.5 -39t-29 -67.5
t-10 -98q0 -56 12 -95.5t35 -64t54 -36t69 -11.5q40 0 70 14t52 36t37 48l55 -42q-12 -23 -29 -42.5t-44 -38.5q-29 -22 -55.5 -43t-47 -41.5t-32 -41.5t-11.5 -43q0 -23 12 -34.5t33 -11.5q25 0 42 12.5t29 24.5l36 -38q-24 -27 -55 -44t-82 -17q-37 0 -66 10.5t-45.5 31.5
t-16.5 51q0 27 11.5 48t36 42t64.5 45t95 54z" />
    <glyph glyph-name="Ecaron" unicode="&#x11a;" horiz-adv-x="682" 
d="M290 778h99l123 148v20h-51l-152 -110l69 2l-151 108h-61v-20zM621 224v-224h-573v62h11q33 0 55 7t22 29v514q0 22 -22 29t-55 7h-11v62h549v-199h-69l-11 88q-2 18 -15 27.5t-38 13t-65 3.5h-140v-576h156q32 0 54.5 2t37 7t22 13.5t8.5 21.5l13 113h71zM236 395
q45 2 88.5 4t87.5 4.5t88 4.5v-87q-44 2 -87.5 4.5t-87.5 4.5t-89 4v61z" />
    <glyph glyph-name="ecaron" unicode="&#x11b;" horiz-adv-x="590" 
d="M253 610h90l124 166v20h-45l-158 -130l75 2l-156 128h-55v-20zM163 264q0 -56 12 -95.5t35 -64t54 -36t69 -11.5q40 0 70 14t52 36t37 48l55 -42q-20 -37 -51.5 -65.5t-74.5 -44t-97 -15.5q-81 0 -144.5 32.5t-99.5 94.5t-36 150q0 85 33.5 148.5t92.5 99t136 35.5
q61 0 106.5 -19t75 -57.5t45 -96t16.5 -134.5h-414v63h323l-25 -24q-2 56 -9.5 95t-22.5 62t-38 33.5t-56 10.5t-59.5 -12.5t-45.5 -39t-29 -67.5t-10 -98z" />
    <glyph glyph-name="Gcircumflex" unicode="&#x11c;" horiz-adv-x="808" 
d="M701 250v-147q-15 -19 -42.5 -40t-65.5 -39.5t-84.5 -29.5t-98.5 -11q-82 0 -148 24.5t-113.5 73t-72.5 117.5t-25 157t26.5 157t74 117t111.5 73.5t138 25.5q68 0 118.5 -23.5t82.5 -67.5t45 -104l-33 27l15 155h71v-227h-79q-16 51 -45 88.5t-70.5 59t-97.5 21.5
q-52 0 -94 -19.5t-71.5 -57.5t-45 -94.5t-15.5 -130.5q0 -76 15.5 -133t45.5 -94t73 -56t98 -19q50 0 84 11t55 26t31 25v135q0 23 -24 30.5t-58 7.5h-21v61h302v-61h-15q-31 0 -49 -7.5t-18 -30.5zM461 936h-98l-124 -147v-21h51l152 110l-68 -2l151 -108h60v21z" />
    <glyph glyph-name="gcircumflex" unicode="&#x11d;" horiz-adv-x="648" 
d="M635 465q-44 3 -76 3.5t-54.5 -3t-40.5 -12.5l-17 2q14 32 32 56t40.5 39t51 20.5t64.5 2.5v-108zM303 166q-66 0 -116 23.5t-78 66t-28 100.5q0 57 28 100.5t78.5 67.5t115.5 24q67 0 117.5 -24t78.5 -67.5t28 -100.5q0 -58 -28 -100.5t-78.5 -66t-117.5 -23.5zM303 229
q37 0 61.5 14t36.5 42t12 70q0 43 -12 71.5t-36.5 43t-61.5 14.5q-35 0 -59.5 -14.5t-37 -43t-12.5 -71.5q0 -42 12.5 -70t37 -42t59.5 -14zM246 -244q-67 0 -117 11.5t-78 38.5t-28 70q0 30 14 51.5t43 39.5t76 37l30 -20q-24 -16 -38.5 -31t-20.5 -30.5t-6 -32.5
q0 -22 13.5 -37.5t43.5 -24t79 -8.5h91q51 0 86 11t53 32t18 51q0 27 -17.5 40t-61.5 13h-249l1 5q-41 8 -68 22t-40 35.5t-13 48.5q0 29 15 53t43 44.5t68 38.5l35 -21q-21 -14 -35 -27t-20.5 -25t-6.5 -26q0 -22 17.5 -32t53.5 -10h204q57 0 96.5 -14.5t60.5 -44.5t21 -76
q0 -62 -34.5 -102.5t-93 -60t-130.5 -19.5h-105zM365 795h-90l-124 -166v-20h45l157 130l-75 -2l157 -128h55v20z" />
    <glyph glyph-name="Gbreve" unicode="&#x11e;" horiz-adv-x="808" 
d="M701 250v-147q-15 -19 -42.5 -40t-65.5 -39.5t-84.5 -29.5t-98.5 -11q-82 0 -148 24.5t-113.5 73t-72.5 117.5t-25 157t26.5 157t74 117t111.5 73.5t138 25.5q68 0 118.5 -23.5t82.5 -67.5t45 -104l-33 27l15 155h71v-227h-79q-16 51 -45 88.5t-70.5 59t-97.5 21.5
q-52 0 -94 -19.5t-71.5 -57.5t-45 -94.5t-15.5 -130.5q0 -76 15.5 -133t45.5 -94t73 -56t98 -19q50 0 84 11t55 26t31 25v135q0 23 -24 30.5t-58 7.5h-21v61h302v-61h-15q-31 0 -49 -7.5t-18 -30.5zM407 775q52 0 88.5 17.5t56.5 53.5t22 92h-70q-3 -30 -13 -46.5
t-29.5 -23.5t-52.5 -7q-31 0 -50.5 7t-30 23.5t-13.5 46.5h-75q3 -56 23 -92t56.5 -53.5t87.5 -17.5z" />
    <glyph glyph-name="gbreve" unicode="&#x11f;" horiz-adv-x="648" 
d="M635 465q-44 3 -76 3.5t-54.5 -3t-40.5 -12.5l-17 2q14 32 32 56t40.5 39t51 20.5t64.5 2.5v-108zM303 166q-66 0 -116 23.5t-78 66t-28 100.5q0 57 28 100.5t78.5 67.5t115.5 24q67 0 117.5 -24t78.5 -67.5t28 -100.5q0 -58 -28 -100.5t-78.5 -66t-117.5 -23.5zM303 229
q37 0 61.5 14t36.5 42t12 70q0 43 -12 71.5t-36.5 43t-61.5 14.5q-35 0 -59.5 -14.5t-37 -43t-12.5 -71.5q0 -42 12.5 -70t37 -42t59.5 -14zM246 -244q-67 0 -117 11.5t-78 38.5t-28 70q0 30 14 51.5t43 39.5t76 37l30 -20q-24 -16 -38.5 -31t-20.5 -30.5t-6 -32.5
q0 -22 13.5 -37.5t43.5 -24t79 -8.5h91q51 0 86 11t53 32t18 51q0 27 -17.5 40t-61.5 13h-249l1 5q-41 8 -68 22t-40 35.5t-13 48.5q0 29 15 53t43 44.5t68 38.5l35 -21q-21 -14 -35 -27t-20.5 -25t-6.5 -26q0 -22 17.5 -32t53.5 -10h204q57 0 96.5 -14.5t60.5 -44.5t21 -76
q0 -62 -34.5 -102.5t-93 -60t-130.5 -19.5h-105zM316 617q50 0 84 17.5t53 55t19 98.5h-68q-2 -36 -11 -54.5t-26.5 -25t-47.5 -6.5t-48.5 6.5t-27 25t-10.5 54.5h-74q1 -61 19.5 -98.5t53.5 -55t84 -17.5z" />
    <glyph glyph-name="Gdotaccent" unicode="&#x120;" horiz-adv-x="808" 
d="M701 250v-147q-15 -19 -42.5 -40t-65.5 -39.5t-84.5 -29.5t-98.5 -11q-82 0 -148 24.5t-113.5 73t-72.5 117.5t-25 157t26.5 157t74 117t111.5 73.5t138 25.5q68 0 118.5 -23.5t82.5 -67.5t45 -104l-33 27l15 155h71v-227h-79q-16 51 -45 88.5t-70.5 59t-97.5 21.5
q-52 0 -94 -19.5t-71.5 -57.5t-45 -94.5t-15.5 -130.5q0 -76 15.5 -133t45.5 -94t73 -56t98 -19q50 0 84 11t55 26t31 25v135q0 23 -24 30.5t-58 7.5h-21v61h302v-61h-15q-31 0 -49 -7.5t-18 -30.5zM414 781q-35 0 -56 18t-21 53q0 34 21 52t56 18q34 0 55 -18t21 -52
q0 -35 -21 -53t-55 -18z" />
    <glyph glyph-name="gdotaccent" unicode="&#x121;" horiz-adv-x="648" 
d="M635 465q-44 3 -76 3.5t-54.5 -3t-40.5 -12.5l-17 2q14 32 32 56t40.5 39t51 20.5t64.5 2.5v-108zM303 166q-66 0 -116 23.5t-78 66t-28 100.5q0 57 28 100.5t78.5 67.5t115.5 24q67 0 117.5 -24t78.5 -67.5t28 -100.5q0 -58 -28 -100.5t-78.5 -66t-117.5 -23.5zM303 229
q37 0 61.5 14t36.5 42t12 70q0 43 -12 71.5t-36.5 43t-61.5 14.5q-35 0 -59.5 -14.5t-37 -43t-12.5 -71.5q0 -42 12.5 -70t37 -42t59.5 -14zM246 -244q-67 0 -117 11.5t-78 38.5t-28 70q0 30 14 51.5t43 39.5t76 37l30 -20q-24 -16 -38.5 -31t-20.5 -30.5t-6 -32.5
q0 -22 13.5 -37.5t43.5 -24t79 -8.5h91q51 0 86 11t53 32t18 51q0 27 -17.5 40t-61.5 13h-249l1 5q-41 8 -68 22t-40 35.5t-13 48.5q0 29 15 53t43 44.5t68 38.5l35 -21q-21 -14 -35 -27t-20.5 -25t-6.5 -26q0 -22 17.5 -32t53.5 -10h204q57 0 96.5 -14.5t60.5 -44.5t21 -76
q0 -62 -34.5 -102.5t-93 -60t-130.5 -19.5h-105zM315 637q-35 0 -56 18t-21 53q0 34 21 52t56 18q34 0 55 -18t21 -52q0 -35 -21 -53t-55 -18z" />
    <glyph glyph-name="Gcommaaccent" unicode="&#x122;" horiz-adv-x="808" 
d="M701 250v-147q-15 -19 -42.5 -40t-65.5 -39.5t-84.5 -29.5t-98.5 -11q-82 0 -148 24.5t-113.5 73t-72.5 117.5t-25 157t26.5 157t74 117t111.5 73.5t138 25.5q68 0 118.5 -23.5t82.5 -67.5t45 -104l-33 27l15 155h71v-227h-79q-16 51 -45 88.5t-70.5 59t-97.5 21.5
q-52 0 -94 -19.5t-71.5 -57.5t-45 -94.5t-15.5 -130.5q0 -76 15.5 -133t45.5 -94t73 -56t98 -19q50 0 84 11t55 26t31 25v135q0 23 -24 30.5t-58 7.5h-21v61h302v-61h-15q-31 0 -49 -7.5t-18 -30.5zM380 -335l-51 49q33 13 58.5 26.5t40 31.5t14.5 43l15 -7q-9 -5 -21 -7
t-24 -2q-34 0 -52 16t-18 42t18.5 43t55.5 17q42 0 63 -22.5t21 -64.5q0 -41 -14.5 -71t-41.5 -52.5t-64 -41.5z" />
    <glyph glyph-name="gcommaaccent" unicode="&#x123;" horiz-adv-x="648" 
d="M355 890l51 -49q-33 -13 -58.5 -26.5t-40 -31.5t-14.5 -43l-15 6q10 6 22 8t23 2q35 0 52.5 -15.5t17.5 -42.5q0 -26 -18.5 -43t-55.5 -17q-41 0 -62 22t-21 65q0 41 14.5 71t41 52.5t63.5 41.5zM635 465q-44 3 -76 3.5t-54.5 -3t-40.5 -12.5l-17 2q14 32 32 56t40.5 39
t51 20.5t64.5 2.5v-108zM303 166q-66 0 -116 23.5t-78 66t-28 100.5q0 57 28 100.5t78.5 67.5t115.5 24q67 0 117.5 -24t78.5 -67.5t28 -100.5q0 -58 -28 -100.5t-78.5 -66t-117.5 -23.5zM303 229q37 0 61.5 14t36.5 42t12 70q0 43 -12 71.5t-36.5 43t-61.5 14.5
q-35 0 -59.5 -14.5t-37 -43t-12.5 -71.5q0 -42 12.5 -70t37 -42t59.5 -14zM246 -244q-67 0 -117 11.5t-78 38.5t-28 70q0 30 14 51.5t43 39.5t76 37l30 -20q-24 -16 -38.5 -31t-20.5 -30.5t-6 -32.5q0 -22 13.5 -37.5t43.5 -24t79 -8.5h91q51 0 86 11t53 32t18 51
q0 27 -17.5 40t-61.5 13h-249l1 5q-41 8 -68 22t-40 35.5t-13 48.5q0 29 15 53t43 44.5t68 38.5l35 -21q-21 -14 -35 -27t-20.5 -25t-6.5 -26q0 -22 17.5 -32t53.5 -10h204q57 0 96.5 -14.5t60.5 -44.5t21 -76q0 -62 -34.5 -102.5t-93 -60t-130.5 -19.5h-105z" />
    <glyph glyph-name="Hcircumflex" unicode="&#x124;" horiz-adv-x="850" 
d="M209 399h423v-67h-423v67zM48 0v62h11q33 0 55 7t22 29v514q0 22 -22 29t-55 7h-11v62h299v-61h-9q-12 0 -26 -1t-26 -2t-19 -2.5t-7 -4.5v-568q0 -3 7 -4.5t19 -3t26 -1.5h26h9v-62h-299zM503 0v61h9q13 0 27 1t25.5 2t18.5 2.5t7 4.5v568q0 3 -7 4.5t-18.5 3t-25.5 1.5
h-27h-9v62h299v-62h-10q-34 0 -56 -7t-22 -29v-514q0 -22 22 -29t56 -7h10v-62h-299zM477 939h-98l-124 -147v-21h51l152 110l-68 -2l151 -108h60v21z" />
    <glyph glyph-name="hcircumflex" unicode="&#x125;" horiz-adv-x="685" 
d="M235 758v-695q0 -3 11 -5t26 -3t27 -1h4v-54h-264v54h3q23 0 40 4.5t26 16.5t9 33v547q0 14 -7.5 21t-22.5 12t-38 9l-10 2v59h196zM660 0h-264v54h3q13 0 28 1t26 3t11 5v321q0 29 -7.5 48t-24.5 28.5t-46 9.5q-30 0 -59 -13t-56.5 -39.5t-55.5 -66.5l1 62q27 43 59 73
t69.5 46t80.5 16q50 0 85 -17t53.5 -51.5t18.5 -86.5v-285q0 -21 9 -33t26 -16.5t40 -4.5h3v-54zM403 977h-98l-124 -147v-21h51l152 110l-68 -2l151 -108h60v21z" />
    <glyph glyph-name="Hbar" unicode="&#x126;" horiz-adv-x="849" 
d="M209 379h423v-61h-423v61zM48 0v62h11q33 0 55 7t22 29v514q0 22 -22 29t-55 7h-11v62h299v-61h-9q-12 0 -26 -1t-26 -2t-19 -2.5t-7 -4.5v-568q0 -3 7 -4.5t19 -3t26 -1.5h26h9v-62h-299zM503 0v61h9q13 0 27 1t25.5 2t18.5 2.5t7 4.5v568q0 3 -7 4.5t-18.5 3t-25.5 1.5
h-27h-9v62h299v-62h-10q-34 0 -56 -7t-22 -29v-514q0 -22 22 -29t56 -7h10v-62h-299zM42 483v58h766v-58h-766z" />
    <glyph glyph-name="hbar" unicode="&#x127;" horiz-adv-x="685" 
d="M660 0h-264v54h3q13 0 28 1t26 3t11 5v321q0 29 -7.5 48t-24.5 28.5t-46 9.5q-31 0 -60.5 -13.5t-57.5 -40.5t-56 -69l-13 42q31 52 65 87t74 53.5t87 18.5q50 0 85 -17t53.5 -51.5t18.5 -86.5v-285q0 -21 9 -33t26 -16.5t40 -4.5h3v-54zM117 758h118v-695q0 -3 11 -5
t26 -3t27 -1h4v-54h-264v54h3q23 0 40 4.5t26 16.5t9 33v650zM436 673v-62h-406v62h406z" />
    <glyph glyph-name="Itilde" unicode="&#x128;" horiz-adv-x="405" 
d="M140 98v514q0 22 -21.5 29t-55.5 7h-15v62h309v-62h-15q-34 0 -56 -7t-22 -29v-514q0 -22 22 -29t56 -7h15v-62h-309v62h15q34 0 55.5 7t21.5 29zM272 773q-25 0 -43.5 8.5t-33 20.5t-26.5 23.5t-23 20t-24 8.5q-15 0 -24 -9t-14 -27t-11 -47l-60 15q9 56 22.5 89
t37 47.5t58.5 14.5q24 0 42 -7.5t32 -19.5t26 -23.5t24.5 -19.5t26.5 -8q16 0 25 9t15 27.5t12 46.5l60 -16q-9 -55 -24.5 -89t-39 -49t-58.5 -15z" />
    <glyph glyph-name="itilde" unicode="&#x129;" horiz-adv-x="341" 
d="M228 618q-24 0 -41.5 9t-31 23t-24 27.5t-21 23t-23.5 9.5q-21 0 -29.5 -23.5t-14.5 -70.5l-59 15q8 58 21 93.5t35.5 51.5t56.5 16q22 0 38.5 -9t29.5 -22.5t24.5 -27t23 -22.5t25.5 -9q22 0 29.5 24t16.5 70l59 -15q-9 -59 -23.5 -95t-37 -52t-54.5 -16zM235 538v-434
q0 -30 20.5 -40t55.5 -10h3v-54h-275v54h3q35 0 55.5 10t20.5 40v331q0 20 -17 27t-52 14l-10 2v60h196z" />
    <glyph glyph-name="Imacron" unicode="&#x12a;" horiz-adv-x="405" 
d="M140 98v514q0 22 -21.5 29t-55.5 7h-15v62h309v-62h-15q-34 0 -56 -7t-22 -29v-514q0 -22 22 -29t56 -7h15v-62h-309v62h15q34 0 55.5 7t21.5 29zM32 892h340v-80h-340v80z" />
    <glyph glyph-name="imacron" unicode="&#x12b;" horiz-adv-x="341" 
d="M-5 738h323v-80h-323v80zM235 538v-434q0 -30 20.5 -40t55.5 -10h3v-54h-275v54h3q35 0 55.5 10t20.5 40v331q0 20 -17 27t-52 14l-10 2v60h196z" />
    <glyph glyph-name="Ibreve" unicode="&#x12c;" horiz-adv-x="405" 
d="M140 98v514q0 22 -21.5 29t-55.5 7h-15v62h309v-62h-15q-34 0 -56 -7t-22 -29v-514q0 -22 22 -29t56 -7h15v-62h-309v62h15q34 0 55.5 7t21.5 29zM202 775q52 0 88.5 17.5t56.5 53.5t22 92h-70q-3 -30 -13 -46.5t-29.5 -23.5t-52.5 -7q-31 0 -50.5 7t-30 23.5t-13.5 46.5
h-75q3 -56 23 -92t56.5 -53.5t87.5 -17.5z" />
    <glyph glyph-name="ibreve" unicode="&#x12d;" horiz-adv-x="341" 
d="M170 617q50 0 84 17.5t52.5 55t18.5 98.5h-68q-2 -35 -10.5 -54t-26 -25.5t-47.5 -6.5t-48 6.5t-26 25.5t-11 54h-73q1 -61 19 -98.5t52.5 -55t83.5 -17.5zM235 538v-434q0 -30 20.5 -40t55.5 -10h3v-54h-275v54h3q35 0 55.5 10t20.5 40v331q0 20 -17 27t-52 14l-10 2v60
h196z" />
    <glyph glyph-name="Iogonek" unicode="&#x12e;" horiz-adv-x="405" 
d="M140 98v514q0 22 -21.5 29t-55.5 7h-15v62h309v-62h-15q-34 0 -56 -7t-22 -29v-514q0 -22 22 -29t56 -7h15v-62h-309v62h15q34 0 55.5 7t21.5 29zM295 37l30 -29q-37 -25 -61 -45.5t-37 -37.5t-18 -32t-5 -30q0 -23 12 -34.5t33 -11.5q24 0 41.5 13t28.5 24l36 -38
q-24 -27 -55 -44t-83 -17q-55 0 -91 23.5t-36 69.5q0 26 11.5 47.5t36 42.5t64 45t93.5 54z" />
    <glyph glyph-name="iogonek" unicode="&#x12f;" horiz-adv-x="341" 
d="M170 634q-35 0 -56 18t-21 54q0 34 21 52t56 18q34 0 55 -18t21 -52q0 -35 -21 -53.5t-55 -18.5zM235 538v-434q0 -30 20.5 -40t55.5 -10h3v-54h-275v54h3q35 0 55.5 10t20.5 40v331q0 20 -17 27t-52 14l-10 2v60h196zM253 37l30 -29q-37 -25 -61 -45.5t-37 -37.5
t-18 -32t-5 -30q0 -23 12 -34.5t33 -11.5q24 0 41.5 13t28.5 24l36 -38q-24 -27 -55 -44t-83 -17q-55 0 -91 23.5t-36 69.5q0 26 11.5 47.5t36 42.5t64 45t93.5 54z" />
    <glyph glyph-name="Idotaccent" unicode="&#x130;" horiz-adv-x="405" 
d="M140 98v514q0 22 -21.5 29t-55.5 7h-15v62h309v-62h-15q-34 0 -56 -7t-22 -29v-514q0 -22 22 -29t56 -7h15v-62h-309v62h15q34 0 55.5 7t21.5 29zM202 781q-35 0 -56 18t-21 53q0 34 21 52t56 18q34 0 55 -18t21 -52q0 -35 -21 -53t-55 -18z" />
    <glyph glyph-name="dotlessi" unicode="&#x131;" horiz-adv-x="341" 
d="M235 538v-434q0 -30 20.5 -40t55.5 -10h3v-54h-275v54h3q35 0 55.5 10t20.5 40v331q0 20 -17 27t-52 14l-10 2v60h196z" />
    <glyph glyph-name="IJ" unicode="&#x132;" horiz-adv-x="1028" 
d="M140 98v514q0 22 -21.5 29t-55.5 7h-15v62h309v-62h-15q-34 0 -56 -7t-22 -29v-514q0 -22 22 -29t56 -7h15v-62h-309v62h15q34 0 55.5 7t21.5 29zM674 710h318v-62h-16q-33 0 -55 -7t-22 -29v-384q0 -68 -17.5 -115t-50 -75.5t-77.5 -41.5t-101 -13q-52 0 -93.5 11.5
t-70.5 28.5t-46 33v152h114v-147q-17 5 -29.5 13.5t-17 17t-1 12.5t15.5 0q11 -12 28 -24.5t41 -20t54 -7.5q42 0 70 14.5t43 52.5t15 108v385q0 15 -10.5 22.5t-28 10.5t-40.5 3h-23v62z" />
    <glyph glyph-name="ij" unicode="&#x133;" horiz-adv-x="677" 
d="M170 634q-35 0 -56 18t-21 54q0 34 21 52t56 18q34 0 55 -18t21 -52q0 -35 -21 -53.5t-55 -18.5zM235 538v-434q0 -30 20.5 -40t55.5 -10h3v-54h-275v54h3q35 0 55.5 10t20.5 40v331q0 20 -17 27t-52 14l-10 2v60h196zM465 -57v492q0 14 -9.5 21.5t-27 12t-41.5 7.5
l-14 2v60h209v-591q0 -54 -16.5 -91t-45 -58.5t-65.5 -31t-78 -9.5q-31 0 -58 4t-39 9v71q16 -5 38 -9.5t49 -4.5q30 0 51.5 10.5t34 36t12.5 69.5zM516 634q-35 0 -56 18t-21 54q0 34 21 52t56 18q34 0 55 -18t21 -52q0 -35 -21 -53.5t-55 -18.5z" />
    <glyph glyph-name="Jcircumflex" unicode="&#x134;" horiz-adv-x="630" 
d="M271 710h318v-62h-16q-33 0 -55 -7t-22 -29v-384q0 -68 -17.5 -115t-50 -75.5t-77.5 -41.5t-101 -13q-52 0 -93.5 11.5t-70.5 28.5t-46 33v152h114v-147q-17 5 -29.5 13.5t-17 17t-1 12.5t15.5 0q11 -12 28 -24.5t41 -20t54 -7.5q42 0 70 14.5t43 52.5t15 108v385
q0 15 -10.5 22.5t-28 10.5t-40.5 3h-23v62zM473 936h-98l-124 -147v-21h51l152 110l-68 -2l151 -108h60v21z" />
    <glyph glyph-name="jcircumflex" unicode="&#x135;" horiz-adv-x="333" 
d="M121 -57v492q0 14 -9.5 21.5t-27 12t-41.5 7.5l-14 2v60h209v-591q0 -54 -16.5 -91t-45 -58.5t-65.5 -31t-78 -9.5q-31 0 -58 4t-39 8v71q16 -4 38 -8.5t49 -4.5q30 0 51.5 10.5t34 36t12.5 69.5zM196 795h-90l-124 -166v-20h45l157 130l-75 -2l157 -128h55v20z" />
    <glyph glyph-name="Kcommaaccent" unicode="&#x136;" horiz-adv-x="779" 
d="M48 0v62h11q33 0 55 7t22 29v514q0 22 -22 29t-55 7h-11v62h300v-62h-9h-27t-26 -1.5t-19 -3t-7 -4.5v-568q0 -3 7 -4t18 -2.5t24.5 -2t25.5 -0.5h9v-62h-296zM445 0v62h9q18 0 35.5 1t29 3.5t11.5 5.5l-232 272v24l259 270q-1 4 -13 6t-30 3t-37 1h-10v62h260v-62h-23
q-17 0 -30 -2.5t-24.5 -8.5t-22.5 -18l-255 -264l18 62l279 -328q11 -12 21 -18t23 -7.5t30 -1.5h14v-62h-312zM365 -335l-51 49q33 13 58.5 26.5t40 31.5t14.5 43l15 -7q-9 -5 -21 -7t-24 -2q-34 0 -52 16t-18 42t18.5 43t55.5 17q42 0 63 -22.5t21 -64.5q0 -41 -14.5 -71
t-41.5 -52.5t-64 -41.5z" />
    <glyph glyph-name="kcommaaccent" unicode="&#x137;" horiz-adv-x="686" 
d="M667 0h-282v54h5q13 0 27.5 1t25 3.5t10.5 5.5l-182 214v11l187 179q0 6 -13.5 9t-32 5t-35.5 2h-10v54h267v-54h-10q-21 0 -38.5 -4t-32.5 -13t-32 -24l-177 -170l15 63l211 -245q14 -16 27.5 -23.5t29 -10.5t33.5 -3h7v-54zM235 758v-695q0 -3 11.5 -5t26 -3t26.5 -1h5
v-54h-265v54h3q23 0 40 4.5t26 16.5t9 33v547q0 14 -7.5 21t-22.5 12t-38 9l-10 2v59h196zM317 -335l-51 49q33 13 58.5 26.5t40 31.5t14.5 43l15 -7q-9 -5 -21 -7t-24 -2q-34 0 -52 16t-18 42t18.5 43t55.5 17q42 0 63 -22.5t21 -64.5q0 -41 -14.5 -71t-41.5 -52.5
t-64 -41.5z" />
    <glyph glyph-name="kgreenlandic" unicode="&#x138;" horiz-adv-x="686" 
d="M667 0h-282v54h5q13 0 27.5 1t25 3.5t10.5 5.5l-182 214v11l186 179q0 4 -7.5 7t-20 5t-26.5 3t-26 1h-10v54h267v-54h-10q-21 0 -38.5 -4t-32.5 -13t-32 -24l-177 -170l15 63l211 -245q14 -16 27.5 -23.5t29 -10.5t33.5 -3h7v-54zM235 538v-475q0 -3 11.5 -5t26 -3
t26.5 -1h5v-54h-265v54h3q35 0 55 11t20 43v328q0 13 -7.5 20t-22.5 12t-38 9l-10 2v59h196z" />
    <glyph glyph-name="Lacute" unicode="&#x139;" horiz-adv-x="650" 
d="M357 710h-309v-62h11q33 0 55 -7t22 -29v-514q0 -22 -22 -29t-55 -7h-11v-62h559v237h-73l-12 -126q-1 -18 -14 -27.5t-39.5 -13t-68.5 -3.5h-140v545q0 22 23 29t59 7h15v62zM228 899l-74 -95v-27h39l99 47q21 10 37 21t24.5 24.5t8.5 29.5q0 21 -15.5 36.5t-40.5 15.5
q-17 0 -30.5 -6.5t-24.5 -18t-23 -27.5z" />
    <glyph glyph-name="lacute" unicode="&#x13a;" horiz-adv-x="340" 
d="M237 758v-654q0 -30 20 -40t55 -10h3v-54h-274v54h3q35 0 55 10t20 40v551q0 14 -7.5 21t-22.5 12t-39 9l-10 2v59h197zM207 934l-74 -95v-27h39l99 47q21 10 37 21t24.5 24.5t8.5 29.5q0 21 -15.5 36.5t-40.5 15.5q-17 0 -30.5 -6.5t-24.5 -18t-23 -27.5z" />
    <glyph glyph-name="Lcommaaccent" unicode="&#x13b;" horiz-adv-x="650" 
d="M357 710h-309v-62h11q33 0 55 -7t22 -29v-514q0 -22 -22 -29t-55 -7h-11v-62h559v237h-73l-12 -126q-1 -18 -14 -27.5t-39.5 -13t-68.5 -3.5h-140v545q0 22 23 29t59 7h15v62zM303 -335l-51 49q33 13 58.5 26.5t40 31.5t14.5 43l15 -7q-9 -5 -21 -7t-24 -2q-34 0 -52 16
t-18 42t18.5 43t55.5 17q42 0 63 -22.5t21 -64.5q0 -41 -14.5 -71t-41.5 -52.5t-64 -41.5z" />
    <glyph glyph-name="lcommaaccent" unicode="&#x13c;" horiz-adv-x="340" 
d="M237 758v-654q0 -30 20 -40t55 -10h3v-54h-274v54h3q35 0 55 10t20 40v551q0 14 -7.5 21t-22.5 12t-39 9l-10 2v59h197zM145 -335l-51 49q33 13 58.5 26.5t40 31.5t14.5 43l15 -7q-9 -5 -21 -7t-24 -2q-34 0 -52 16t-18 42t18.5 43t55.5 17q42 0 63 -22.5t21 -64.5
q0 -41 -14.5 -71t-41.5 -52.5t-64 -41.5z" />
    <glyph glyph-name="Lcaron" unicode="&#x13d;" horiz-adv-x="650" 
d="M357 710h-309v-62h11q33 0 55 -7t22 -29v-514q0 -22 -22 -29t-55 -7h-11v-62h559v237h-73l-12 -126q-1 -18 -14 -27.5t-39.5 -13t-68.5 -3.5h-140v545q0 22 23 29t59 7h15v62zM506 524l58 186h-115l-17 -167v-19h74z" />
    <glyph glyph-name="lcaron" unicode="&#x13e;" horiz-adv-x="340" 
d="M237 758v-654q0 -30 20 -40t55 -10h3v-54h-274v54h3q35 0 55 10t20 40v551q0 14 -7.5 21t-22.5 12t-39 9l-10 2v59h197zM380 572l58 186h-115l-17 -167v-19h74z" />
    <glyph glyph-name="Ldot" unicode="&#x13f;" horiz-adv-x="656" 
d="M357 710h-309v-62h11q33 0 55 -7t22 -29v-514q0 -22 -22 -29t-55 -7h-11v-62h559v226h-73l-12 -115q-2 -18 -15 -27.5t-39 -13t-68 -3.5h-140v545q0 22 23 29t59 7h15v62zM532 340q-39 0 -63.5 22t-24.5 59t24.5 59t63.5 22q40 0 64.5 -22t24.5 -59t-24.5 -59t-64.5 -22z
" />
    <glyph glyph-name="ldot" unicode="&#x140;" horiz-adv-x="500" 
d="M237 758v-654q0 -30 20 -40t55 -10h3v-54h-274v54h3q35 0 55 10t20 40v551q0 14 -7.5 21t-22.5 12t-39 9l-10 2v59h197zM425 280q-39 0 -63.5 22.5t-24.5 59.5t24.5 59t63.5 22q40 0 64.5 -22t24.5 -59t-24.5 -59.5t-64.5 -22.5z" />
    <glyph glyph-name="Lslash" unicode="&#x141;" horiz-adv-x="652" 
d="M33 185l457 276v77l-457 -276v-77zM358 710h-309v-62h11q34 0 55.5 -7t21.5 -29v-514q0 -22 -21.5 -29t-55.5 -7h-11v-62h559v237h-72l-12 -126q-2 -18 -15 -27.5t-39 -13t-68 -3.5h-141v545q0 22 23.5 29t59.5 7h14v62z" />
    <glyph glyph-name="lslash" unicode="&#x142;" horiz-adv-x="376" 
d="M36 211v77l320 265v-77zM252 758v-654q0 -30 20 -40t55 -10h3v-54h-274v54h3q35 0 55.5 10t20.5 40v551q0 14 -7.5 21t-23 11.5t-39.5 9.5l-9 2v59h196z" />
    <glyph glyph-name="Nacute" unicode="&#x143;" horiz-adv-x="817" 
d="M49 0v62h10q23 0 40.5 3.5t27.5 12t10 22.5v512q0 15 -10 22.5t-27.5 10.5t-40.5 3h-10v62h252l328 -598l-15 -1v525q0 4 -12.5 6.5t-30.5 4t-36 1.5h-14v62h255v-62h-11q-22 0 -39.5 -3t-27.5 -11t-10 -23v-611h-129l-366 668l18 -1v-593q0 -3 12.5 -6t31 -4.5
t35.5 -1.5h14v-62h-255zM446 899l-74 -95v-27h39l99 47q21 10 37 21t24.5 24.5t8.5 29.5q0 21 -15.5 36.5t-40.5 15.5q-17 0 -30.5 -6.5t-24.5 -18t-23 -27.5z" />
    <glyph glyph-name="nacute" unicode="&#x144;" horiz-adv-x="685" 
d="M39 0v54h3q23 0 40 4.5t26 16.5t9 33v327q0 14 -7.5 21t-23 11.5t-38.5 8.5l-9 2v60h179l12 -117l5 -4v-354q0 -3 10.5 -5t25.5 -3t28 -1h4v-54h-264zM660 0h-264v54h3q13 0 28 1t25.5 3t10.5 5v321q0 29 -7 48t-24 28.5t-46 9.5q-30 0 -59 -13t-56.5 -39.5t-55.5 -66.5
v62q27 43 59 73t70 46t81 16q50 0 84.5 -17t53 -51.5t18.5 -86.5v-285q0 -21 9.5 -33t26 -16.5t40.5 -4.5h3v-54zM348 755q8 20 18.5 35t24.5 22.5t32 7.5q26 0 41.5 -15t15.5 -37q0 -13 -6 -26t-16.5 -25t-24.5 -23l-99 -84h-37v26z" />
    <glyph glyph-name="Ncommaaccent" unicode="&#x145;" horiz-adv-x="817" 
d="M49 0v62h10q23 0 40.5 3.5t27.5 12t10 22.5v512q0 15 -10 22.5t-27.5 10.5t-40.5 3h-10v62h252l328 -598l-15 -1v525q0 4 -12.5 6.5t-30.5 4t-36 1.5h-14v62h255v-62h-11q-22 0 -39.5 -3t-27.5 -11t-10 -23v-611h-129l-366 668l18 -1v-593q0 -3 12.5 -6t31 -4.5
t35.5 -1.5h14v-62h-255zM378 -335l-51 49q33 13 58.5 26.5t40 31.5t14.5 43l15 -7q-9 -5 -21 -7t-24 -2q-34 0 -52 16t-18 42t18.5 43t55.5 17q42 0 63 -22.5t21 -64.5q0 -41 -14.5 -71t-41.5 -52.5t-64 -41.5z" />
    <glyph glyph-name="ncommaaccent" unicode="&#x146;" horiz-adv-x="685" 
d="M39 0v54h3q23 0 40 4.5t26 16.5t9 33v327q0 14 -7.5 21t-23 11.5t-38.5 8.5l-9 2v60h179l12 -117l5 -4v-354q0 -3 10.5 -5t25.5 -3t28 -1h4v-54h-264zM660 0h-264v54h3q13 0 28 1t25.5 3t10.5 5v321q0 29 -7 48t-24 28.5t-46 9.5q-30 0 -59 -13t-56.5 -39.5t-55.5 -66.5
v62q27 43 59 73t70 46t81 16q50 0 84.5 -17t53 -51.5t18.5 -86.5v-285q0 -21 9.5 -33t26 -16.5t40.5 -4.5h3v-54zM316 -335l-51 49q33 13 58.5 26.5t40 31.5t14.5 43l15 -7q-9 -5 -21 -7t-24 -2q-34 0 -52 16t-18 42t18.5 43t55.5 17q42 0 63 -22.5t21 -64.5
q0 -41 -14.5 -71t-41.5 -52.5t-64 -41.5z" />
    <glyph glyph-name="Ncaron" unicode="&#x147;" horiz-adv-x="817" 
d="M366 778h98l124 148v20h-51l-152 -110l68 2l-151 108h-60v-20zM49 0v62h10q23 0 40.5 3.5t27.5 12t10 22.5v512q0 15 -10 22.5t-27.5 10.5t-40.5 3h-10v62h252l328 -598l-15 -1v525q0 4 -12.5 6.5t-30.5 4t-36 1.5h-14v62h255v-62h-11q-22 0 -39.5 -3t-27.5 -11t-10 -23
v-611h-129l-366 668l18 -1v-593q0 -3 12.5 -6t31 -4.5t35.5 -1.5h14v-62h-255z" />
    <glyph glyph-name="ncaron" unicode="&#x148;" horiz-adv-x="685" 
d="M304 610h90l124 166v20h-44l-158 -130l75 2l-157 128h-54v-20zM39 0v54h3q23 0 40 4.5t26 16.5t9 33v327q0 14 -7.5 21t-23 11.5t-38.5 8.5l-9 2v60h179l12 -117l5 -4v-354q0 -3 10.5 -5t25.5 -3t28 -1h4v-54h-264zM660 0h-264v54h3q13 0 28 1t25.5 3t10.5 5v321
q0 29 -7 48t-24 28.5t-46 9.5q-30 0 -59 -13t-56.5 -39.5t-55.5 -66.5v62q27 43 59 73t70 46t81 16q50 0 84.5 -17t53 -51.5t18.5 -86.5v-285q0 -21 9.5 -33t26 -16.5t40.5 -4.5h3v-54z" />
    <glyph glyph-name="napostrophe" unicode="&#x149;" horiz-adv-x="677" 
d="M37 0v54h3q23 0 40 4.5t26 16.5t9 33v327q0 14 -7.5 21t-23 11.5t-38.5 8.5l-9 2v60h179l12 -117l5 -4v-354q0 -3 10.5 -5t25.5 -3t28 -1h4v-54h-264zM658 0h-264v54h3q13 0 28 1t25.5 3t10.5 5v321q0 29 -7 48t-24 28.5t-46 9.5q-30 0 -59 -13t-56.5 -39.5t-55.5 -66.5
v62q27 43 59 73t70 46t81 16q50 0 84.5 -17t53 -51.5t18.5 -86.5v-285q0 -21 9.5 -33t26 -16.5t40.5 -4.5h3v-54zM-141 430l-68 50q27 14 49.5 29.5t39.5 34t26.5 41.5t10.5 52l20 -10q-10 -6 -20.5 -8t-20.5 -2q-34 0 -54.5 16.5t-20.5 47.5q0 29 20.5 48.5t56.5 19.5
q40 0 62 -22.5t22 -72.5q0 -40 -9 -73.5t-25.5 -60.5t-39 -49.5t-49.5 -40.5z" />
    <glyph glyph-name="Eng" unicode="&#x14a;" horiz-adv-x="817" 
d="M688 -11q0 -59 -15.5 -101t-43.5 -68t-64.5 -38.5t-80.5 -12.5q-35 0 -65 5t-49 11v75q13 -4 30.5 -8t37.5 -7t43 -3q41 0 70.5 14t45 47t15.5 89v64l34 -125l-454 737l19 1v-595q0 -3 12.5 -6t31 -4.5t35.5 -1.5h14v-62h-255v62h10q23 0 40.5 3.5t27.5 12t10 22.5v512
q0 15 -10 22.5t-27.5 10.5t-40.5 3h-10v62h253l360 -578l-48 -27v531q0 4 -12.5 6.5t-30.5 4t-36 1.5h-14v62h255v-62h-11q-22 0 -39.5 -3t-27.5 -11t-10 -23v-622z" />
    <glyph glyph-name="eng" unicode="&#x14b;" horiz-adv-x="663" 
d="M39 0v54h3q23 0 40 4.5t26 16.5t9 33v327q0 14 -7.5 21t-23 11.5t-38.5 8.5l-9 2v60h179l12 -116l5 -5v-354q0 -3 10.5 -5t25.5 -3t28 -1h4v-54h-264zM463 -57v440q0 29 -7 48.5t-24 29t-46 9.5q-31 0 -60.5 -13.5t-57.5 -40.5t-56 -69l-13 42q30 51 64.5 86.5t74.5 54
t87 18.5q50 0 84.5 -17t53 -51.5t18.5 -86.5v-446q0 -54 -16 -91t-44.5 -58.5t-65.5 -31t-78 -9.5q-31 0 -58 4t-40 8v71q17 -4 39 -8.5t48 -4.5q31 0 52.5 10.5t33 36t11.5 69.5z" />
    <glyph glyph-name="Omacron" unicode="&#x14c;" horiz-adv-x="816" 
d="M408 -17q-78 0 -143.5 25t-113.5 73.5t-74 117.5t-26 156q0 88 26 156.5t74 117t113.5 74t143.5 25.5q79 0 144 -25.5t113 -74t74 -117t26 -156.5q0 -87 -26 -156t-74 -117.5t-113 -73.5t-144 -25zM408 53q53 0 94.5 19t71 56.5t45 94.5t15.5 132t-15.5 132t-45 94.5
t-71 56.5t-94.5 19q-52 0 -94 -19t-71.5 -56.5t-45 -94.5t-15.5 -132t15.5 -132t44.5 -94.5t71.5 -56.5t94.5 -19zM238 892h340v-80h-340v80z" />
    <glyph glyph-name="omacron" unicode="&#x14d;" horiz-adv-x="646" 
d="M602 268q0 -85 -34 -148t-97 -97.5t-148 -34.5t-147.5 34.5t-97 97.5t-34.5 148q0 64 19.5 116t56 88.5t88 56t115.5 19.5t115.5 -19.5t88 -56t56 -88.5t19.5 -116zM167 268q0 -71 17.5 -118t52 -70.5t86.5 -23.5q53 0 87.5 23t51.5 70.5t17 118.5q0 70 -17 117t-51.5 71
t-87.5 24q-52 0 -86.5 -24t-52 -71t-17.5 -117zM153 738h340v-80h-340v80z" />
    <glyph glyph-name="Obreve" unicode="&#x14e;" horiz-adv-x="816" 
d="M408 -17q-78 0 -143.5 25t-113.5 73.5t-74 117.5t-26 156q0 88 26 156.5t74 117t113.5 74t143.5 25.5q79 0 144 -25.5t113 -74t74 -117t26 -156.5q0 -87 -26 -156t-74 -117.5t-113 -73.5t-144 -25zM408 53q53 0 94.5 19t71 56.5t45 94.5t15.5 132t-15.5 132t-45 94.5
t-71 56.5t-94.5 19q-52 0 -94 -19t-71.5 -56.5t-45 -94.5t-15.5 -132t15.5 -132t44.5 -94.5t71.5 -56.5t94.5 -19zM408 775q52 0 88.5 17.5t56.5 53.5t22 92h-70q-3 -30 -13 -46.5t-29.5 -23.5t-52.5 -7q-31 0 -50.5 7t-30 23.5t-13.5 46.5h-75q3 -56 23 -92t56.5 -53.5
t87.5 -17.5z" />
    <glyph glyph-name="obreve" unicode="&#x14f;" horiz-adv-x="646" 
d="M602 268q0 -85 -34 -148t-97 -97.5t-148 -34.5t-147.5 34.5t-97 97.5t-34.5 148q0 64 19.5 116t56 88.5t88 56t115.5 19.5t115.5 -19.5t88 -56t56 -88.5t19.5 -116zM167 268q0 -71 17.5 -118t52 -70.5t86.5 -23.5q53 0 87.5 23t51.5 70.5t17 118.5q0 70 -17 117t-51.5 71
t-87.5 24q-52 0 -86.5 -24t-52 -71t-17.5 -117zM324 617q50 0 84 17.5t53 55t19 98.5h-68q-2 -36 -11 -54.5t-26.5 -25t-47.5 -6.5t-48.5 6.5t-27 25t-10.5 54.5h-74q1 -61 19.5 -98.5t53.5 -55t84 -17.5z" />
    <glyph glyph-name="Ohungarumlaut" unicode="&#x150;" horiz-adv-x="816" 
d="M408 -17q-78 0 -143.5 25t-113.5 73.5t-74 117.5t-26 156q0 88 26 156.5t74 117t113.5 74t143.5 25.5q79 0 144 -25.5t113 -74t74 -117t26 -156.5q0 -87 -26 -156t-74 -117.5t-113 -73.5t-144 -25zM408 53q53 0 94.5 19t71 56.5t45 94.5t15.5 132t-15.5 132t-45 94.5
t-71 56.5t-94.5 19q-52 0 -94 -19t-71.5 -56.5t-45 -94.5t-15.5 -132t15.5 -132t44.5 -94.5t71.5 -56.5t94.5 -19zM309 889q7 21 16 35t21.5 21t29.5 7q26 0 41 -13.5t15 -35.5q0 -23 -14.5 -40t-38.5 -39l-61 -52h-41v27zM500 889q6 21 15.5 35t23 21t30.5 7q25 0 40 -13.5
t15 -35.5q0 -23 -14.5 -40t-38.5 -39l-61 -52h-41v27z" />
    <glyph glyph-name="ohungarumlaut" unicode="&#x151;" horiz-adv-x="646" 
d="M602 268q0 -85 -34 -148t-97 -97.5t-148 -34.5t-147.5 34.5t-97 97.5t-34.5 148q0 64 19.5 116t56 88.5t88 56t115.5 19.5t115.5 -19.5t88 -56t56 -88.5t19.5 -116zM167 268q0 -71 17.5 -118t52 -70.5t86.5 -23.5q53 0 87.5 23t51.5 70.5t17 118.5q0 70 -17 117t-51.5 71
t-87.5 24q-52 0 -86.5 -24t-52 -71t-17.5 -117zM220 755q7 33 23 50t44 17q27 0 41 -14.5t14 -35.5q0 -19 -9.5 -36.5t-27.5 -38.5l-72 -86h-38v25zM406 755q7 33 23 50t44 17q27 0 41 -14.5t14 -35.5q0 -19 -9.5 -36.5t-28.5 -38.5l-72 -86h-37v25z" />
    <glyph glyph-name="OE" unicode="&#x152;" horiz-adv-x="1075" 
d="M637 395l86 4t86 4.5t85 4.5v-87q-42 2 -85 4t-86 4.5t-86 3.5v62zM435 67h102v576h-102q-61 0 -108.5 -18t-80 -54.5t-49 -91.5t-16.5 -127t16.5 -126t49 -89t80 -52.5t108.5 -17.5zM430 0q-86 0 -156 22.5t-120 67t-76.5 110.5t-26.5 152t26.5 152.5t76.5 112.5
t120 69.5t156 23.5h560v-199h-68l-10 88q-2 18 -15 27.5t-38.5 13t-64.5 3.5h-134v-576h150q31 0 53.5 2t37.5 7t22 13.5t9 21.5l12 113h70v-224h-584z" />
    <glyph glyph-name="oe" unicode="&#x153;" horiz-adv-x="1022" 
d="M596 264q0 -55 12 -95t34.5 -64.5t54 -36t70.5 -11.5q41 0 70.5 14t51 36.5t36.5 47.5l55 -42q-20 -37 -51.5 -65.5t-74 -44t-96.5 -15.5q-64 0 -112.5 22.5t-80.5 61t-49 88.5t-17 105q0 54 16.5 104.5t48.5 91t77 64t102 23.5q60 0 104.5 -19t74 -57.5t45 -96
t15.5 -134.5h-430v63h339l-25 -24q-2 76 -15 119.5t-39.5 62.5t-69.5 19q-33 0 -60.5 -12.5t-46.5 -39t-29 -67.5t-10 -98zM572 268q0 -53 -16 -103t-48 -90t-79 -63.5t-109 -23.5q-84 0 -146 34.5t-96 97t-34 148.5q0 65 19.5 116.5t55.5 88t87 56t114 19.5q65 0 112.5 -23
t78 -62.5t46 -89.5t15.5 -105zM167 268q0 -71 17 -118t51.5 -70.5t86.5 -23.5t86 23t51 70.5t17 118.5q0 69 -17 116t-51 71.5t-86 24.5t-86.5 -24.5t-51.5 -71.5t-17 -116z" />
    <glyph glyph-name="Racute" unicode="&#x154;" horiz-adv-x="747" 
d="M378 321l167 -321h174v62h-9q-18 0 -32.5 3t-26.5 13t-23 28l-136 241zM259 72v572h114q47 0 77 -16t45 -46.5t15 -74.5q0 -45 -15 -78t-46 -50.5t-81 -17.5h-126v-64h153q9 0 17.5 2.5t17 5.5t16.5 7q61 12 104.5 39t67 68t23.5 94q0 62 -30.5 106.5t-87.5 67.5t-138 23
h-337v-62h11q33 0 55 -7t22 -29v-514q0 -22 -22 -29t-55 -7h-11v-62h305v62h-16q-14 0 -28 0.5t-25 2t-18 3t-7 4.5zM386 899l-74 -95v-27h39l99 47q21 10 37 21t24.5 24.5t8.5 29.5q0 21 -15.5 36.5t-40.5 15.5q-17 0 -30.5 -6.5t-24.5 -18t-23 -27.5z" />
    <glyph glyph-name="racute" unicode="&#x155;" horiz-adv-x="466" 
d="M434 544v-118q-7 2 -18 3.5t-23.5 2t-23.5 0.5q-26 0 -47 -4.5t-39 -14t-34 -25t-33 -38.5l-1 43q25 50 50.5 84.5t57 52.5t73.5 18q12 0 23 -1t15 -3zM39 0v54h3q34 0 54.5 11t20.5 43v327q0 14 -7.5 21t-23 11.5t-38.5 8.5l-9 2v60h178l13 -142l5 4v-327q0 -8 13 -12.5
t30.5 -5.5t32.5 -1h19v-54h-291zM257 755q8 20 18.5 35t24.5 22.5t32 7.5q26 0 41.5 -15t15.5 -37q0 -13 -6 -26t-16.5 -25t-24.5 -23l-99 -84h-37v26z" />
    <glyph glyph-name="Rcommaaccent" unicode="&#x156;" horiz-adv-x="747" 
d="M378 321l167 -321h174v62h-9q-18 0 -32.5 3t-26.5 13t-23 28l-136 241zM259 72v572h114q47 0 77 -16t45 -46.5t15 -74.5q0 -45 -15 -78t-46 -50.5t-81 -17.5h-126v-64h153q9 0 17.5 2.5t17 5.5t16.5 7q61 12 104.5 39t67 68t23.5 94q0 62 -30.5 106.5t-87.5 67.5t-138 23
h-337v-62h11q33 0 55 -7t22 -29v-514q0 -22 -22 -29t-55 -7h-11v-62h305v62h-16q-14 0 -28 0.5t-25 2t-18 3t-7 4.5zM350 -335l-51 49q33 13 58.5 26.5t40 31.5t14.5 43l15 -7q-9 -5 -21 -7t-24 -2q-34 0 -52 16t-18 42t18.5 43t55.5 17q42 0 63 -22.5t21 -64.5
q0 -41 -14.5 -71t-41.5 -52.5t-64 -41.5z" />
    <glyph glyph-name="rcommaaccent" unicode="&#x157;" horiz-adv-x="466" 
d="M434 544v-118q-7 2 -18 3.5t-23.5 2t-23.5 0.5q-26 0 -47 -4.5t-39 -14t-34 -25t-33 -38.5l-1 43q25 50 50.5 84.5t57 52.5t73.5 18q12 0 23 -1t15 -3zM39 0v54h3q34 0 54.5 11t20.5 43v327q0 14 -7.5 21t-23 11.5t-38.5 8.5l-9 2v60h178l13 -142l5 4v-327q0 -8 13 -12.5
t30.5 -5.5t32.5 -1h19v-54h-291zM142 -335l-51 49q33 13 58.5 26.5t40 31.5t14.5 43l15 -7q-9 -5 -21 -7t-24 -2q-34 0 -52 16t-18 42t18.5 43t55.5 17q42 0 63 -22.5t21 -64.5q0 -41 -14.5 -71t-41.5 -52.5t-64 -41.5z" />
    <glyph glyph-name="Rcaron" unicode="&#x158;" horiz-adv-x="747" 
d="M312 778h98l124 148v20h-51l-152 -110l68 2l-151 108h-60v-20zM378 321l167 -321h174v62h-9q-18 0 -32.5 3t-26.5 13t-23 28l-136 241zM259 72v572h114q47 0 77 -16t45 -46.5t15 -74.5q0 -45 -15 -78t-46 -50.5t-81 -17.5h-126v-64h153q9 0 17.5 2.5t17 5.5t16.5 7
q61 12 104.5 39t67 68t23.5 94q0 62 -30.5 106.5t-87.5 67.5t-138 23h-337v-62h11q33 0 55 -7t22 -29v-514q0 -22 -22 -29t-55 -7h-11v-62h305v62h-16q-14 0 -28 0.5t-25 2t-18 3t-7 4.5z" />
    <glyph glyph-name="rcaron" unicode="&#x159;" horiz-adv-x="466" 
d="M196 610h90l124 166v20h-45l-157 -130l75 2l-157 128h-54v-20zM434 544v-118q-7 2 -18 3.5t-23.5 2t-23.5 0.5q-26 0 -47 -4.5t-39 -14t-34 -25t-33 -38.5l-1 43q25 50 50.5 84.5t57 52.5t73.5 18q12 0 23 -1t15 -3zM39 0v54h3q34 0 54.5 11t20.5 43v327q0 14 -7.5 21
t-23 11.5t-38.5 8.5l-9 2v60h178l13 -142l5 4v-327q0 -8 13 -12.5t30.5 -5.5t32.5 -1h19v-54h-291z" />
    <glyph glyph-name="Sacute" unicode="&#x15a;" horiz-adv-x="652" 
d="M353 50q48 0 79 11.5t46.5 37.5t15.5 67q0 38 -16 62t-43.5 39.5t-63.5 26t-75 20.5q-44 12 -84.5 26.5t-72 37.5t-49.5 60.5t-18 93.5q0 62 28 105.5t79 67t120 23.5q56 0 98.5 -17t71.5 -55.5t44 -103.5l-29 25l15 138h67v-204h-75q-14 49 -39.5 82.5t-62 50.5
t-82.5 17q-45 0 -73 -12.5t-41.5 -36.5t-13.5 -59q0 -34 14.5 -55.5t40.5 -35t61 -23t76 -20.5q44 -11 86 -25.5t76 -38t53.5 -60.5t19.5 -94q0 -73 -31 -121.5t-87 -72.5t-129 -24q-64 0 -117 19t-89 64t-51 122l34 -30l-14 -162h-71v234h78q16 -60 47.5 -100t76.5 -60
t100 -20zM355 899l-74 -95v-27h39l99 47q21 10 37 21t24.5 24.5t8.5 29.5q0 21 -15.5 36.5t-40.5 15.5q-17 0 -30.5 -6.5t-24.5 -18t-23 -27.5z" />
    <glyph glyph-name="sacute" unicode="&#x15b;" horiz-adv-x="527" 
d="M377 138q0 23 -11.5 38t-31 24.5t-44 15.5t-51.5 12q-33 8 -65 18.5t-58.5 27.5t-42.5 45t-16 70q0 50 25.5 86t72.5 54.5t113 18.5q52 0 90.5 -6t63.5 -14.5t36 -15.5v-124h-100v101q12 1 19.5 -2.5t11.5 -9.5t5.5 -14.5t-0.5 -18.5q-12 13 -31 21.5t-42.5 13t-52.5 4.5
q-55 0 -80.5 -19.5t-25.5 -54.5q0 -23 11 -38t31 -24t45.5 -16t54.5 -13q32 -8 64.5 -18.5t59 -28t42.5 -45t16 -69.5q0 -51 -25.5 -89t-76 -59t-125.5 -21q-52 0 -93.5 7t-72 18.5t-51.5 23.5v131h103v-134q-17 7 -26 15.5t-12.5 17.5t-2.5 17t5 14q15 -13 37 -23
t50.5 -15.5t62.5 -5.5q40 0 65.5 9t39 28t13.5 47zM267 755q8 20 18.5 35t24.5 22.5t32 7.5q26 0 41.5 -15t15.5 -37q0 -13 -6 -26t-16.5 -25t-24.5 -23l-99 -84h-37v26z" />
    <glyph glyph-name="Scircumflex" unicode="&#x15c;" horiz-adv-x="652" 
d="M353 50q48 0 79 11.5t46.5 37.5t15.5 67q0 38 -16 62t-43.5 39.5t-63.5 26t-75 20.5q-44 12 -84.5 26.5t-72 37.5t-49.5 60.5t-18 93.5q0 62 28 105.5t79 67t120 23.5q56 0 98.5 -17t71.5 -55.5t44 -103.5l-29 25l15 138h67v-204h-75q-14 49 -39.5 82.5t-62 50.5
t-82.5 17q-45 0 -73 -12.5t-41.5 -36.5t-13.5 -59q0 -34 14.5 -55.5t40.5 -35t61 -23t76 -20.5q44 -11 86 -25.5t76 -38t53.5 -60.5t19.5 -94q0 -73 -31 -121.5t-87 -72.5t-129 -24q-64 0 -117 19t-89 64t-51 122l34 -30l-14 -162h-71v234h78q16 -60 47.5 -100t76.5 -60
t100 -20zM381 936h-98l-124 -147v-21h51l152 110l-68 -2l151 -108h60v21z" />
    <glyph glyph-name="scircumflex" unicode="&#x15d;" horiz-adv-x="527" 
d="M377 138q0 23 -11.5 38t-31 24.5t-44 15.5t-51.5 12q-33 8 -65 18.5t-58.5 27.5t-42.5 45t-16 70q0 50 25.5 86t72.5 54.5t113 18.5q52 0 90.5 -6t63.5 -14.5t36 -15.5v-124h-100v101q12 1 19.5 -2.5t11.5 -9.5t5.5 -14.5t-0.5 -18.5q-12 13 -31 21.5t-42.5 13t-52.5 4.5
q-55 0 -80.5 -19.5t-25.5 -54.5q0 -23 11 -38t31 -24t45.5 -16t54.5 -13q32 -8 64.5 -18.5t59 -28t42.5 -45t16 -69.5q0 -51 -25.5 -89t-76 -59t-125.5 -21q-52 0 -93.5 7t-72 18.5t-51.5 23.5v131h103v-134q-17 7 -26 15.5t-12.5 17.5t-2.5 17t5 14q15 -13 37 -23
t50.5 -15.5t62.5 -5.5q40 0 65.5 9t39 28t13.5 47zM315 795h-90l-124 -166v-20h45l157 130l-75 -2l157 -128h55v20z" />
    <glyph glyph-name="Scedilla" unicode="&#x15e;" horiz-adv-x="652" 
d="M353 50q48 0 79 11.5t46.5 37.5t15.5 67q0 38 -16 62t-43.5 39.5t-63.5 26t-75 20.5q-44 12 -84.5 26.5t-72 37.5t-49.5 60.5t-18 93.5q0 62 28 105.5t79 67t120 23.5q56 0 98.5 -17t71.5 -55.5t44 -103.5l-29 25l15 138h67v-204h-75q-14 49 -39.5 82.5t-62 50.5
t-82.5 17q-45 0 -73 -12.5t-41.5 -36.5t-13.5 -59q0 -34 14.5 -55.5t40.5 -35t61 -23t76 -20.5q44 -11 86 -25.5t76 -38t53.5 -60.5t19.5 -94q0 -73 -31 -121.5t-87 -72.5t-129 -24q-64 0 -117 19t-89 64t-51 122l34 -30l-14 -162h-71v234h78q16 -60 47.5 -100t76.5 -60
t100 -20zM362 5l-67 -84l-3 15q49 1 83 -9.5t52 -32t18 -55.5q0 -28 -11 -47.5t-30.5 -32t-44.5 -18.5t-53 -6q-48 0 -80.5 16.5t-52.5 41.5l41 41q9 -9 21.5 -20t28.5 -18t36 -7q27 0 41 12t14 37q0 24 -16.5 38t-62.5 14h-31l37 115h80z" />
    <glyph glyph-name="scedilla" unicode="&#x15f;" horiz-adv-x="527" 
d="M377 138q0 23 -11.5 38t-31 24.5t-44 15.5t-51.5 12q-33 8 -65 18.5t-58.5 27.5t-42.5 45t-16 70q0 50 25.5 86t72.5 54.5t113 18.5q52 0 90.5 -6t63.5 -14.5t36 -15.5v-124h-100v101q12 1 19.5 -2.5t11.5 -9.5t5.5 -14.5t-0.5 -18.5q-12 13 -31 21.5t-42.5 13t-52.5 4.5
q-55 0 -80.5 -19.5t-25.5 -54.5q0 -23 11 -38t31 -24t45.5 -16t54.5 -13q32 -8 64.5 -18.5t59 -28t42.5 -45t16 -69.5q0 -51 -25.5 -89t-76 -59t-125.5 -21q-52 0 -93.5 7t-72 18.5t-51.5 23.5v131h103v-134q-17 7 -26 15.5t-12.5 17.5t-2.5 17t5 14q15 -13 37 -23
t50.5 -15.5t62.5 -5.5q40 0 65.5 9t39 28t13.5 47zM297 5l-67 -84l-3 15q49 1 83 -9.5t52 -32t18 -55.5q0 -28 -11 -47.5t-30.5 -32t-44.5 -18.5t-53 -6q-48 0 -80.5 16.5t-52.5 41.5l41 41q9 -9 21.5 -20t28.5 -18t36 -7q27 0 41 12t14 37q0 24 -16.5 38t-62.5 14h-31
l37 115h80z" />
    <glyph glyph-name="Scaron" unicode="&#x160;" horiz-adv-x="652" 
d="M275 778h98l124 148v20h-51l-152 -110l68 2l-151 108h-60v-20zM353 50q48 0 79 11.5t46.5 37.5t15.5 67q0 38 -16 62t-43.5 39.5t-63.5 26t-75 20.5q-44 12 -84.5 26.5t-72 37.5t-49.5 60.5t-18 93.5q0 62 28 105.5t79 67t120 23.5q56 0 98.5 -17t71.5 -55.5t44 -103.5
l-29 25l15 138h67v-204h-75q-14 49 -39.5 82.5t-62 50.5t-82.5 17q-45 0 -73 -12.5t-41.5 -36.5t-13.5 -59q0 -34 14.5 -55.5t40.5 -35t61 -23t76 -20.5q44 -11 86 -25.5t76 -38t53.5 -60.5t19.5 -94q0 -73 -31 -121.5t-87 -72.5t-129 -24q-64 0 -117 19t-89 64t-51 122
l34 -30l-14 -162h-71v234h78q16 -60 47.5 -100t76.5 -60t100 -20z" />
    <glyph glyph-name="scaron" unicode="&#x161;" horiz-adv-x="527" 
d="M215 610h90l125 166v20h-45l-158 -130l75 2l-157 128h-54v-20zM377 138q0 23 -11.5 38t-31 24.5t-44 15.5t-51.5 12q-33 8 -65 18.5t-58.5 27.5t-42.5 45t-16 70q0 50 25.5 86t72.5 54.5t113 18.5q52 0 90.5 -6t63.5 -14.5t36 -15.5v-124h-100v101q12 1 19.5 -2.5
t11.5 -9.5t5.5 -14.5t-0.5 -18.5q-12 13 -31 21.5t-42.5 13t-52.5 4.5q-55 0 -80.5 -19.5t-25.5 -54.5q0 -23 11 -38t31 -24t45.5 -16t54.5 -13q32 -8 64.5 -18.5t59 -28t42.5 -45t16 -69.5q0 -51 -25.5 -89t-76 -59t-125.5 -21q-52 0 -93.5 7t-72 18.5t-51.5 23.5v131h103
v-134q-17 7 -26 15.5t-12.5 17.5t-2.5 17t5 14q15 -13 37 -23t50.5 -15.5t62.5 -5.5q40 0 65.5 9t39 28t13.5 47z" />
    <glyph glyph-name="Tcedilla" unicode="&#x162;" horiz-adv-x="718" 
d="M297 98v546h-48q-44 0 -70.5 -4.5t-39 -15t-14.5 -28.5l-11 -117h-70v231h630v-231h-70l-11 117q-1 18 -14 28.5t-39.5 15t-70.5 4.5h-48v-546q0 -22 23 -29t56 -7h18v-62h-318v62h17q34 0 57 7t23 29zM406 5l-67 -84l-3 15q49 1 83 -9.5t52 -32t18 -55.5
q0 -28 -11 -47.5t-30.5 -32t-44.5 -18.5t-53 -6q-48 0 -80.5 16.5t-52.5 41.5l41 41q9 -9 21.5 -20t28.5 -18t36 -7q27 0 41 12t14 37q0 24 -16.5 38t-62.5 14h-31l37 115h80z" />
    <glyph glyph-name="tcedilla" unicode="&#x163;" horiz-adv-x="436" 
d="M13 471v62h10q31 0 52.5 4t32.5 18t11 40l79 -57h200v-67h-385zM231 166q0 -40 11 -62.5t32.5 -32t51.5 -9.5q25 0 46.5 3.5t29.5 5.5v-68q-11 -3 -27 -6.5t-34.5 -5.5t-38.5 -2q-51 0 -94.5 14.5t-69 52t-25.5 106.5v360l6 8v161h112v-525zM283 5l-67 -84l-3 15
q49 1 83 -9.5t52 -32t18 -55.5q0 -28 -11 -47.5t-30.5 -32t-44.5 -18.5t-53 -6q-48 0 -80.5 16.5t-52.5 41.5l41 41q9 -9 21.5 -20t28.5 -18t36 -7q27 0 41 12t14 37q0 24 -16.5 38t-62.5 14h-31l37 115h80z" />
    <glyph glyph-name="Tcaron" unicode="&#x164;" horiz-adv-x="718" 
d="M307 778h98l124 148v20h-51l-152 -110l68 2l-151 108h-60v-20zM297 98v546h-48q-44 0 -70.5 -4.5t-39 -15t-14.5 -28.5l-11 -117h-70v231h630v-231h-70l-11 117q-1 18 -14 28.5t-39.5 15t-70.5 4.5h-48v-546q0 -22 23 -29t56 -7h18v-62h-318v62h17q34 0 57 7t23 29z" />
    <glyph glyph-name="tcaron" unicode="&#x165;" horiz-adv-x="438" 
d="M13 471v62h10q31 0 52.5 4t32.5 18t11 40l79 -57h200v-67h-385zM231 166q0 -40 11 -62.5t32.5 -32t51.5 -9.5q25 0 46.5 3.5t29.5 5.5v-68q-11 -3 -27 -6.5t-34.5 -5.5t-38.5 -2q-51 0 -94.5 14.5t-69 52t-25.5 106.5v360l6 8v161h112v-525zM375 613l58 186h-115
l-17 -167v-19h74z" />
    <glyph glyph-name="Tbar" unicode="&#x166;" horiz-adv-x="718" 
d="M135 353h446v-65h-446v65zM297 98v546h-48q-44 0 -70.5 -4.5t-39 -15t-14.5 -28.5l-11 -117h-70v231h630v-231h-70l-11 117q-1 18 -14 28.5t-39.5 15t-70.5 4.5h-48v-546q0 -22 23 -29t56 -7h18v-62h-318v62h17q34 0 57 7t23 29z" />
    <glyph glyph-name="tbar" unicode="&#x167;" horiz-adv-x="436" 
d="M13 268v65h384v-65h-384zM13 471v62h10q31 0 52.5 4t32.5 18t11 40l79 -57h200v-67h-385zM231 166q0 -40 11 -62.5t32.5 -32t51.5 -9.5q25 0 46.5 3.5t29.5 5.5v-68q-11 -3 -27 -6.5t-34.5 -5.5t-38.5 -2q-51 0 -94.5 14.5t-69 52t-25.5 106.5v360l6 8v161h112v-525z" />
    <glyph glyph-name="Utilde" unicode="&#x168;" horiz-adv-x="808" 
d="M255 265q0 -57 12.5 -96t36 -62.5t55.5 -34t71 -10.5q38 0 70 11t55 34.5t36 62.5t13 95v363q0 5 -7.5 9t-19 6.5t-25.5 3.5t-28 1h-9v62h250v-62h-11q-21 0 -39 -3.5t-28 -13t-10 -26.5v-340q0 -75 -20.5 -129t-57 -88t-85 -49.5t-104.5 -15.5q-61 0 -112 16t-88.5 50
t-58 87.5t-20.5 128.5v347q0 22 -21.5 29t-55.5 7h-11v62h300v-61h-9q-13 0 -27 -1t-25.5 -2.5t-19 -3t-7.5 -4.5v-373zM482 773q-25 0 -43.5 8.5t-33 20.5t-26.5 23.5t-23 20t-24 8.5q-15 0 -24 -9t-14 -27t-11 -47l-60 15q9 56 22.5 89t37 47.5t58.5 14.5q24 0 42 -7.5
t32 -19.5t26 -23.5t24.5 -19.5t26.5 -8q16 0 25 9t15 27.5t12 46.5l60 -16q-9 -55 -24.5 -89t-39 -49t-58.5 -15z" />
    <glyph glyph-name="utilde" unicode="&#x169;" horiz-adv-x="670" 
d="M224 538v-383q0 -29 7.5 -48.5t24 -29t45.5 -9.5t57 13t55.5 39t55.5 66l-1 -62q-27 -43 -58.5 -73t-68.5 -45.5t-80 -15.5q-48 0 -83 17t-53.5 52t-18.5 86v290q0 20 -16.5 28.5t-52.5 12.5l-13 2v60h200zM566 538v-441q0 -13 9 -20t25.5 -11t38.5 -6l6 -2v-58h-179
l-12 119l-6 6v310q0 20 -18 28.5t-53 12.5l-23 2v60h212zM397 618q-24 0 -42 9t-32 23t-25.5 27.5t-22.5 23t-24 9.5q-23 0 -31 -23.5t-16 -70.5l-59 15q9 58 22.5 93.5t36.5 51.5t57 16q22 0 39 -9t31 -22.5t26 -27t24.5 -22.5t26.5 -9q15 0 23 10.5t13.5 31.5t11.5 52
l59 -15q-9 -59 -24.5 -95t-38 -52t-55.5 -16z" />
    <glyph glyph-name="Umacron" unicode="&#x16a;" horiz-adv-x="808" 
d="M255 265q0 -57 12.5 -96t36 -62.5t55.5 -34t71 -10.5q38 0 70 11t55 34.5t36 62.5t13 95v363q0 5 -7.5 9t-19 6.5t-25.5 3.5t-28 1h-9v62h250v-62h-11q-21 0 -39 -3.5t-28 -13t-10 -26.5v-340q0 -75 -20.5 -129t-57 -88t-85 -49.5t-104.5 -15.5q-61 0 -112 16t-88.5 50
t-58 87.5t-20.5 128.5v347q0 22 -21.5 29t-55.5 7h-11v62h300v-61h-9q-13 0 -27 -1t-25.5 -2.5t-19 -3t-7.5 -4.5v-373zM243 892h340v-80h-340v80z" />
    <glyph glyph-name="umacron" unicode="&#x16b;" horiz-adv-x="670" 
d="M224 538v-383q0 -29 7.5 -48.5t24 -29t45.5 -9.5t57 13t55.5 39t55.5 66l-1 -62q-27 -43 -58.5 -73t-68.5 -45.5t-80 -15.5q-48 0 -83 17t-53.5 52t-18.5 86v290q0 20 -16.5 28.5t-52.5 12.5l-13 2v60h200zM566 538v-441q0 -13 9 -20t25.5 -11t38.5 -6l6 -2v-58h-179
l-12 119l-6 6v310q0 20 -18 28.5t-53 12.5l-23 2v60h212zM156 738h340v-80h-340v80z" />
    <glyph glyph-name="Ubreve" unicode="&#x16c;" horiz-adv-x="808" 
d="M255 265q0 -57 12.5 -96t36 -62.5t55.5 -34t71 -10.5q38 0 70 11t55 34.5t36 62.5t13 95v363q0 5 -7.5 9t-19 6.5t-25.5 3.5t-28 1h-9v62h250v-62h-11q-21 0 -39 -3.5t-28 -13t-10 -26.5v-340q0 -75 -20.5 -129t-57 -88t-85 -49.5t-104.5 -15.5q-61 0 -112 16t-88.5 50
t-58 87.5t-20.5 128.5v347q0 22 -21.5 29t-55.5 7h-11v62h300v-61h-9q-13 0 -27 -1t-25.5 -2.5t-19 -3t-7.5 -4.5v-373zM419 775q52 0 88.5 17.5t56.5 53.5t22 92h-70q-3 -30 -13 -46.5t-29.5 -23.5t-52.5 -7q-31 0 -50.5 7t-30 23.5t-13.5 46.5h-75q3 -56 23 -92
t56.5 -53.5t87.5 -17.5z" />
    <glyph glyph-name="ubreve" unicode="&#x16d;" horiz-adv-x="670" 
d="M224 538v-383q0 -29 7.5 -48.5t24 -29t45.5 -9.5t57 13t55.5 39t55.5 66l-1 -62q-27 -43 -58.5 -73t-68.5 -45.5t-80 -15.5q-48 0 -83 17t-53.5 52t-18.5 86v290q0 20 -16.5 28.5t-52.5 12.5l-13 2v60h200zM566 538v-441q0 -13 9 -20t25.5 -11t38.5 -6l6 -2v-58h-179
l-12 119l-6 6v310q0 20 -18 28.5t-53 12.5l-23 2v60h212zM327 617q50 0 84 17.5t53 55t19 98.5h-68q-2 -36 -11 -54.5t-26.5 -25t-47.5 -6.5t-48.5 6.5t-27 25t-10.5 54.5h-74q1 -61 19.5 -98.5t53.5 -55t84 -17.5z" />
    <glyph glyph-name="Uring" unicode="&#x16e;" horiz-adv-x="808" 
d="M255 265q0 -57 12.5 -96t36 -62.5t55.5 -34t71 -10.5q38 0 70 11t55 34.5t36 62.5t13 95v363q0 5 -7.5 9t-19 6.5t-25.5 3.5t-28 1h-9v62h250v-62h-11q-21 0 -39 -3.5t-28 -13t-10 -26.5v-340q0 -75 -20.5 -129t-57 -88t-85 -49.5t-104.5 -15.5q-61 0 -112 16t-88.5 50
t-58 87.5t-20.5 128.5v347q0 22 -21.5 29t-55.5 7h-11v62h300v-61h-9q-13 0 -27 -1t-25.5 -2.5t-19 -3t-7.5 -4.5v-373zM361 882q0 -32 16 -48t44 -16t44 16t16 48t-16 48t-44 16q-27 0 -43.5 -16t-16.5 -48zM558 882q0 -51 -38 -82t-99 -31t-99 31t-38 82q0 34 17.5 59.5
t48.5 40t71 14.5q41 0 71.5 -14.5t48 -40t17.5 -59.5z" />
    <glyph glyph-name="uring" unicode="&#x16f;" horiz-adv-x="670" 
d="M224 538v-383q0 -29 7.5 -48.5t24 -29t45.5 -9.5t57 13t55.5 39t55.5 66l-1 -62q-27 -43 -58.5 -73t-68.5 -45.5t-80 -15.5q-48 0 -83 17t-53.5 52t-18.5 86v290q0 20 -16.5 28.5t-52.5 12.5l-13 2v60h200zM566 538v-441q0 -13 9 -20t25.5 -11t38.5 -6l6 -2v-58h-179
l-12 119l-6 6v310q0 20 -18 28.5t-53 12.5l-23 2v60h212zM266 711q0 -32 16 -48t44 -16t44.5 16t16.5 48t-16.5 48t-44.5 16t-44 -16t-16 -48zM462 711q0 -33 -17.5 -59t-47.5 -40t-71 -14q-40 0 -71 14t-48 40t-17 59t17 58.5t48 39.5t71 14q41 0 71 -14t47.5 -39.5
t17.5 -58.5z" />
    <glyph glyph-name="Uhungarumlaut" unicode="&#x170;" horiz-adv-x="808" 
d="M255 265q0 -57 12.5 -96t36 -62.5t55.5 -34t71 -10.5q38 0 70 11t55 34.5t36 62.5t13 95v363q0 5 -7.5 9t-19 6.5t-25.5 3.5t-28 1h-9v62h250v-62h-11q-21 0 -39 -3.5t-28 -13t-10 -26.5v-340q0 -75 -20.5 -129t-57 -88t-85 -49.5t-104.5 -15.5q-61 0 -112 16t-88.5 50
t-58 87.5t-20.5 128.5v347q0 22 -21.5 29t-55.5 7h-11v62h300v-61h-9q-13 0 -27 -1t-25.5 -2.5t-19 -3t-7.5 -4.5v-373zM314 889q7 21 16 35t21.5 21t29.5 7q26 0 41 -13.5t15 -35.5q0 -23 -14.5 -40t-38.5 -39l-61 -52h-41v27zM505 889q6 21 15.5 35t23 21t30.5 7
q25 0 40 -13.5t15 -35.5q0 -23 -14.5 -40t-38.5 -39l-61 -52h-41v27z" />
    <glyph glyph-name="uhungarumlaut" unicode="&#x171;" horiz-adv-x="670" 
d="M224 538v-383q0 -29 7.5 -48.5t24 -29t45.5 -9.5t57 13t55.5 39t55.5 66l-1 -62q-27 -43 -58.5 -73t-68.5 -45.5t-80 -15.5q-48 0 -83 17t-53.5 52t-18.5 86v290q0 20 -16.5 28.5t-52.5 12.5l-13 2v60h200zM566 538v-441q0 -13 9 -20t25.5 -11t38.5 -6l6 -2v-58h-179
l-12 119l-6 6v310q0 20 -18 28.5t-53 12.5l-23 2v60h212zM224 755q7 33 23 50t44 17q27 0 41 -14.5t14 -35.5q0 -19 -9.5 -36.5t-27.5 -38.5l-72 -86h-38v25zM410 755q7 33 23 50t44 17q27 0 41 -14.5t14 -35.5q0 -19 -9.5 -36.5t-28.5 -38.5l-72 -86h-37v25z" />
    <glyph glyph-name="Uogonek" unicode="&#x172;" horiz-adv-x="808" 
d="M537 40l-5 -35q-26 -11 -57 -16.5t-65 -5.5q-61 0 -112 16t-88.5 50t-58 87.5t-20.5 128.5v347q0 22 -21.5 29t-55.5 7h-11v62h300v-61h-9q-13 0 -27 -1t-25.5 -2.5t-19 -3t-7.5 -4.5v-373q0 -57 12.5 -96t36 -62.5t55.5 -34t71 -10.5q38 0 70 11t55 34.5t36 62.5t13 95
v363q0 5 -7.5 9t-19 6.5t-25.5 3.5t-28 1h-9v62h250v-62h-11q-21 0 -39 -3.5t-28 -13t-10 -26.5v-340q0 -48 -8.5 -88t-25 -71t-40.5 -54q-19 -19 -45 -40.5t-51 -45.5t-41.5 -49.5t-16.5 -53.5q0 -23 12.5 -34.5t32.5 -11.5q25 0 42 12.5t29 24.5l36 -38q-24 -27 -55 -44
t-83 -17q-37 0 -65.5 10.5t-45 31.5t-16.5 51q0 26 11.5 47.5t36.5 42.5t62.5 45.5t90.5 56.5z" />
    <glyph glyph-name="uogonek" unicode="&#x173;" horiz-adv-x="670" 
d="M224 538v-383q0 -29 7.5 -48.5t24 -29t45.5 -9.5t57 13t55.5 39t55.5 66l-1 -62q-27 -43 -58.5 -73t-68.5 -45.5t-80 -15.5q-48 0 -83 17t-53.5 52t-18.5 86v290q0 20 -16.5 28.5t-52.5 12.5l-13 2v60h200zM566 538v-441q0 -13 9 -20t25.5 -11t38.5 -6l6 -2v-58h-179
l-12 119l-6 6v310q0 20 -18 28.5t-53 12.5l-23 2v60h212zM524 37l29 -29q-37 -25 -61 -45.5t-37 -37.5t-18 -32t-5 -30q0 -23 12 -34.5t33 -11.5q16 0 29 6t23.5 15t17.5 16l37 -38q-24 -27 -55.5 -44t-82.5 -17q-56 0 -91.5 23.5t-35.5 69.5q0 26 11.5 47.5t36 42.5
t63.5 45t94 54z" />
    <glyph glyph-name="Wcircumflex" unicode="&#x174;" horiz-adv-x="1041" 
d="M15 710h277v-62h-16q-16 0 -32.5 -1t-28 -3t-11.5 -6l136 -567l-13 2l155 637h131l158 -635l-13 -2l132 555q0 6 -11 10.5t-27 7t-32 2.5h-15v62h222v-62h-6q-26 0 -43 -9.5t-23 -34.5l-145 -604h-134l-157 630l12 -1l-153 -629h-138l-155 615q-6 23 -22 28t-42 5h-6v62z
M601 936h-98l-124 -147v-21h51l152 110l-68 -2l151 -108h60v21z" />
    <glyph glyph-name="wcircumflex" unicode="&#x175;" horiz-adv-x="916" 
d="M470 454l-23 -4l130 -455h123l123 433q6 20 16.5 30.5t25.5 15t33 4.5h5v60h-224v-59h4q21 0 37.5 -2.5t27 -7.5t10.5 -11l-107 -399l16 -8l-134 487h-108l-137 -480l19 -8l-110 421q0 4 11 5.5t29 2t39 0.5h5v59h-267v-60h4q19 0 33.5 -3.5t24.5 -12.5t15 -27l121 -440
h123zM525 795h-90l-124 -166v-20h45l157 130l-75 -2l157 -128h55v20z" />
    <glyph glyph-name="Ycircumflex" unicode="&#x176;" horiz-adv-x="707" 
d="M294 310l11 -44l-206 349q-9 15 -19 22t-22.5 9t-29.5 2h-8v62h279v-62h-16q-16 0 -32.5 -1t-27 -3t-10.5 -6l183 -321l-31 -2l174 313q0 7 -10.5 11t-27 6.5t-33.5 2.5h-13v62h232v-62h-8q-16 0 -29.5 -3.5t-25 -13.5t-22.5 -28l-195 -340l11 47v-212q0 -22 22.5 -29
t56.5 -7h18v-62h-317v62h18q34 0 56 7t22 29v212zM422 936h-98l-124 -147v-21h51l152 110l-68 -2l151 -108h60v21z" />
    <glyph glyph-name="ycircumflex" unicode="&#x177;" horiz-adv-x="646" 
d="M368 64l-23 -52l-52 -44l-200 475q-6 14 -15.5 21.5t-23.5 10.5t-34 3h-6v60h272v-59h-5q-19 0 -36.5 -1t-29.5 -2.5t-12 -4.5zM377 17q-29 -69 -56.5 -117.5t-56 -77.5t-62.5 -42.5t-77 -13.5q-29 0 -52 5.5t-35 12.5v94q4 -1 17 -5.5t32.5 -9t42.5 -4.5q26 0 49 7
t45 27t44 57.5t45 98.5l14 25l157 384q0 6 -10.5 10.5t-28 7.5t-36.5 3h-5v59h228v-60h-6q-17 0 -31 -4t-25 -14t-19 -30zM381 795h-90l-124 -166v-20h45l157 130l-75 -2l157 -128h55v20z" />
    <glyph glyph-name="Ydieresis" unicode="&#x178;" horiz-adv-x="707" 
d="M294 310l11 -44l-206 349q-9 15 -19 22t-22.5 9t-29.5 2h-8v62h279v-62h-16q-16 0 -32.5 -1t-27 -3t-10.5 -6l183 -321l-31 -2l174 313q0 7 -10.5 11t-27 6.5t-33.5 2.5h-13v62h232v-62h-8q-16 0 -29.5 -3.5t-25 -13.5t-22.5 -28l-195 -340l11 47v-212q0 -22 22.5 -29
t56.5 -7h18v-62h-317v62h18q34 0 56 7t22 29v212zM321 855q0 -35 -21 -53t-55 -18t-55 18t-21 53t21 53t55 18t55 -18t21 -53zM569 855q0 -35 -21 -53t-55 -18t-55 18t-21 53t21 53t55 18t55 -18t21 -53z" />
    <glyph glyph-name="Zacute" unicode="&#x179;" horiz-adv-x="658" 
d="M264 643q-29 0 -51 -2t-36.5 -7t-21.5 -13t-9 -22l-10 -97h-70v208h527v-82l-452 -605l-19 44h277q42 0 68.5 3.5t39 13t14.5 27.5l13 118h71v-229h-555v86l439 588l22 -31h-247zM359 899l-74 -95v-27h39l99 47q21 10 37 21t24.5 24.5t8.5 29.5q0 21 -15.5 36.5
t-40.5 15.5q-17 0 -30.5 -6.5t-24.5 -18t-23 -27.5z" />
    <glyph glyph-name="zacute" unicode="&#x17a;" horiz-adv-x="530" 
d="M149 51l-11 15h174q29 0 49 1.5t33.5 6t20.5 13.5t8 23l12 86h64v-196h-459v81l335 404l27 -12h-166q-30 0 -50 -1.5t-33 -6.5t-20 -13t-8 -22l-11 -74h-63v182h433v-77zM275 755q8 20 18.5 35t24.5 22.5t32 7.5q26 0 41.5 -15t15.5 -37q0 -13 -6 -26t-16.5 -25
t-24.5 -23l-99 -84h-37v26z" />
    <glyph glyph-name="Zdotaccent" unicode="&#x17b;" horiz-adv-x="658" 
d="M264 643q-29 0 -51 -2t-36.5 -7t-21.5 -13t-9 -22l-10 -97h-70v208h527v-82l-452 -605l-19 44h277q42 0 68.5 3.5t39 13t14.5 27.5l13 118h71v-229h-555v86l439 588l22 -31h-247zM334 781q-35 0 -56 18t-21 53q0 34 21 52t56 18q34 0 55 -18t21 -52q0 -35 -21 -53
t-55 -18z" />
    <glyph glyph-name="zdotaccent" unicode="&#x17c;" horiz-adv-x="530" 
d="M149 51l-11 15h174q29 0 49 1.5t33.5 6t20.5 13.5t8 23l12 86h64v-196h-459v81l335 404l27 -12h-166q-30 0 -50 -1.5t-33 -6.5t-20 -13t-8 -22l-11 -74h-63v182h433v-77zM271 637q-35 0 -56 18t-21 53q0 34 21 52t56 18q34 0 55 -18t21 -52q0 -35 -21 -53t-55 -18z" />
    <glyph glyph-name="Zcaron" unicode="&#x17d;" horiz-adv-x="658" 
d="M281 778h98l124 148v20h-51l-152 -110l69 2l-152 108h-60v-20zM264 643q-29 0 -51 -2t-36.5 -7t-21.5 -13t-9 -22l-10 -97h-70v208h527v-82l-452 -605l-19 44h277q42 0 68.5 3.5t39 13t14.5 27.5l13 118h71v-229h-555v86l439 588l22 -31h-247z" />
    <glyph glyph-name="zcaron" unicode="&#x17e;" horiz-adv-x="530" 
d="M222 610h90l124 166v20h-45l-157 -130l75 2l-157 128h-54v-20zM149 51l-11 15h174q29 0 49 1.5t33.5 6t20.5 13.5t8 23l12 86h64v-196h-459v81l335 404l27 -12h-166q-30 0 -50 -1.5t-33 -6.5t-19.5 -13t-8.5 -22l-11 -74h-63v182h433v-77z" />
    <glyph glyph-name="Bhook" unicode="&#x181;" horiz-adv-x="786" 
d="M299 403h150q45 0 73 14t40.5 42.5t12.5 68.5q0 37 -13 63t-40.5 39.5t-71.5 13.5h-116v-578h125q49 0 81 15.5t47 46t15 74.5t-15.5 74.5t-48.5 47t-86 16.5h-153v63zM193 710h272q57 0 100.5 -11.5t73.5 -34t45.5 -55.5t15.5 -76q0 -49 -25 -85.5t-73.5 -56.5
t-119.5 -21l39 26v-46l-34 28q78 -3 132 -24.5t82.5 -60.5t28.5 -94q0 -49 -17 -86t-49.5 -62t-80 -38t-109.5 -13h-352v62h11q33 0 55 7t22 29v545h-16q-33 0 -55 -8.5t-32.5 -30t-10.5 -60.5q0 -22 4.5 -44.5t10.5 -39.5h-103q-4 14 -6.5 36t-2.5 40q0 56 20.5 94.5
t63.5 59t110 20.5z" />
    <glyph glyph-name="Dhook" unicode="&#x18a;" horiz-adv-x="877" 
d="M193 710h253q87 0 157 -22.5t120 -67t76.5 -110.5t26.5 -152q0 -85 -26.5 -152t-76.5 -113t-120 -69.5t-157 -23.5h-324v62h11q34 0 55.5 7t21.5 29v545h-16q-33 0 -55 -8.5t-32.5 -30t-10.5 -59.5q0 -22 4.5 -44t10.5 -39h-103q-4 14 -6.5 35.5t-2.5 39.5
q0 56 20.5 94.5t63.5 58.5t110 20zM442 643h-108v-576h108q61 0 108 18.5t79.5 55t49 91t16.5 126.5t-16.5 125.5t-49 89t-79.5 53t-108 17.5z" />
    <glyph glyph-name="Schwa" unicode="&#x18f;" horiz-adv-x="757" 
d="M368 733q101 0 177 -43t118.5 -125.5t42.5 -201.5q0 -86 -25 -155.5t-69.5 -120t-105 -77.5t-132.5 -27q-103 0 -172.5 45t-104.5 135t-37 224h576l1 -68h-469l22 20q2 -80 14 -135t34.5 -88t56 -48t78.5 -15q44 0 81.5 18t64.5 56t41.5 96.5t14.5 139.5q0 82 -15 139.5
t-43.5 93t-68 51.5t-88.5 16q-56 0 -99 -18.5t-75 -50t-56 -71.5l-63 44q29 49 71.5 86.5t100 58.5t129.5 21z" />
    <glyph glyph-name="florin" unicode="&#x192;" 
d="M122 537h374l-10 -66h-374zM245 -10q-13 -85 -42.5 -136t-73 -74t-99.5 -23q-26 0 -48 4t-37 9l8 74q16 -5 35.5 -9t38.5 -4q21 0 37.5 6t29.5 22t23 47t17 80l99 627q10 57 36 93t68.5 53t100.5 17q37 0 67 -5t49 -12l-7 -73q-19 6 -45 11t-56 5t-51.5 -9t-34 -31
t-18.5 -60z" />
    <glyph glyph-name="Khook" unicode="&#x198;" horiz-adv-x="793" 
d="M48 0v62h11q33 0 55 7t22 29v514q0 22 -22 29t-55 7h-11v62h300v-62h-9h-27t-26 -1.5t-19 -3t-7 -4.5v-568q0 -3 7 -4t18 -2.5t24.5 -2t25.5 -0.5h9v-62h-296zM689 719q38 0 61.5 -18t34.5 -48.5t11 -67.5t-6 -70t-14 -51h-103q6 13 11.5 32t9.5 41.5t4 44.5
q0 28 -7 43.5t-24 15.5q-13 0 -26.5 -8t-34 -27.5t-54.5 -56.5l-180 -194l18 62l279 -328q11 -12 21 -18t23 -7.5t30 -1.5h14v-62h-312v62h9q18 0 35.5 1t29 3.5t11.5 5.5l-232 272v24l195 213q34 37 60 63.5t47.5 42.5t42.5 24t46 8z" />
    <glyph glyph-name="khook" unicode="&#x199;" horiz-adv-x="686" 
d="M667 0h-282v54h5q13 0 27.5 1t25 3.5t10.5 5.5l-182 214v11l187 179q0 6 -13.5 9t-32 5t-35.5 2h-10v54h267v-54h-10q-21 0 -38.5 -4t-32.5 -13t-32 -24l-177 -170l15 63l211 -245q14 -16 27.5 -23.5t29 -10.5t33.5 -3h7v-54zM117 563q0 61 20.5 101t55 63.5t76 33.5
t83.5 10t74.5 -3.5t46.5 -7.5v-84q-18 9 -47 17.5t-69 8.5q-22 0 -43.5 -5.5t-39 -20.5t-28.5 -42t-11 -71v-500q0 -3 11.5 -5t26 -3t26.5 -1h5v-54h-265v54h3q23 0 40 4.5t26 16.5t9 33v455z" />
    <glyph glyph-name="Ohorn" unicode="&#x1a0;" horiz-adv-x="851" 
d="M408 53q53 0 94.5 19t71 56.5t45 94.5t15.5 132t-15.5 132t-45 94.5t-71 56.5t-94.5 19t-95 -19t-71.5 -56.5t-45 -94.5t-15.5 -132t15.5 -132t45 -94.5t71.5 -56.5t95 -19zM607 627l-33 33q43 -20 77.5 -48.5t60 -66.5t39.5 -85.5t14 -105.5q0 -87 -26 -155.5t-74 -117
t-113.5 -73.5t-143.5 -25t-143.5 25t-113.5 73.5t-74 117.5t-26 156q0 88 26 156.5t74 117t113.5 74t143.5 25.5q37 0 66.5 -4.5t53.5 -10t45.5 -10t42.5 -4.5q33 0 56.5 13.5t39.5 38t25 59t12 77.5h103q-4 -66 -19 -114t-39.5 -79t-55.5 -46t-67 -15q-13 0 -26.5 2t-27 6
t-27 9.5t-26.5 11.5l43 -6v-29z" />
    <glyph glyph-name="ohorn" unicode="&#x1a1;" horiz-adv-x="684" 
d="M167 268q0 -71 17.5 -118t52 -70.5t86.5 -23.5q53 0 87.5 23.5t51.5 70.5t17 118q0 69 -17 116t-51.5 71.5t-87.5 24.5q-52 0 -86.5 -24.5t-52 -71.5t-17.5 -116zM473 467l-25 23q46 -18 80.5 -49t54 -74.5t19.5 -99.5q0 -85 -34 -147.5t-96.5 -97t-148.5 -34.5
q-85 0 -147.5 34.5t-97 97t-34.5 148.5q0 65 19.5 116.5t56 88t88.5 56t116 19.5q25 0 44 -2t36 -5.5t31.5 -5.5t29.5 -2q35 0 55.5 21.5t31 61t14.5 94.5h99q-5 -79 -24.5 -131t-52 -77.5t-77.5 -25.5q-7 0 -14 0.5t-14 2t-14.5 3.5t-14.5 4.5t-14 6.5l33 -2v-24z" />
    <glyph glyph-name="Uhorn" unicode="&#x1af;" horiz-adv-x="886" 
d="M131 265v347q0 22 -21.5 29t-55.5 7h-11v62h300v-61h-9q-13 0 -27 -1t-25.5 -2.5t-19 -3t-7.5 -4.5v-373q0 -57 12.5 -96t36 -62.5t55.5 -34t71 -10.5q51 0 90 19.5t61.5 64t22.5 119.5v363q0 5 -7.5 9t-19 6.5t-25.5 3.5t-28 1h-9v62h159q48 0 77 9.5t43 30.5t19.5 55
t6.5 82h102q0 -49 -9 -86.5t-24.5 -64t-38 -44.5t-51 -28t-62.5 -13q-17 -2 -30.5 -7t-21.5 -13.5t-8 -23.5v-342q0 -75 -20.5 -129t-57 -88t-85 -49.5t-104.5 -15.5q-61 0 -112 16t-88.5 50t-58 87.5t-20.5 128.5z" />
    <glyph glyph-name="uhorn" unicode="&#x1b0;" horiz-adv-x="708" 
d="M224 538v-383q0 -29 7.5 -48.5t24 -29t45.5 -9.5q31 0 59.5 14t56.5 41t55 68l15 -39q-31 -52 -65 -88.5t-74 -55t-87 -18.5q-48 0 -83 17t-53.5 52t-18.5 86v289q0 20 -16.5 28.5t-52.5 13.5l-13 2v60h200zM466 538q48 0 78.5 8t47 27t23.5 52.5t9 84.5h99
q-2 -66 -16.5 -109.5t-41.5 -68.5t-68 -36t-96 -13l65 27v-413q0 -13 9 -20t25.5 -11t38.5 -6l6 -2v-58h-179l-12 119l-6 6v309q0 20 -18 29t-53 13l-23 2v60h112z" />
    <glyph glyph-name="Yhook" unicode="&#x1b3;" horiz-adv-x="772" 
d="M511 583q27 49 51 78.5t50 43.5t58 14q44 0 69 -19t36 -50t11 -68q0 -32 -5.5 -66t-12.5 -52h-104q6 13 11 32t9 40t4 41q0 32 -8 47.5t-28 15.5q-13 0 -24.5 -9t-25 -28t-31.5 -50l-165 -290l11 47v-212q0 -22 22.5 -29t56.5 -7h18v-62h-318v62h18q34 0 56.5 7t22.5 29
v212l11 -44l-205 349q-8 15 -18.5 22t-23 9t-29.5 2h-8v62h279v-62h-16q-16 0 -32.5 -1t-27 -3t-10.5 -6l182 -321l-32 -2z" />
    <glyph glyph-name="yhook" unicode="&#x1b4;" horiz-adv-x="650" 
d="M368 64l-23 -52l-52 -44l-200 475q-6 14 -15.5 21.5t-23.5 10.5t-34 3h-6v60h272v-59h-5q-19 0 -36.5 -1t-29.5 -2.5t-12 -4.5zM546 619q24 59 47 92t51 46.5t65 13.5q13 0 24.5 -1.5t18.5 -3.5v-92q-10 5 -20.5 7.5t-23.5 2.5q-19 0 -34.5 -9.5t-29 -31.5t-30.5 -60
l-237 -566q-29 -69 -56.5 -117.5t-56 -77.5t-62.5 -42.5t-77 -13.5q-29 0 -52 5.5t-35 12.5v94q4 -1 17 -5.5t32.5 -9t42.5 -4.5q26 0 49 7t45 27t44 57.5t45 98.5l14 25z" />
    <glyph glyph-name="Acaron" unicode="&#x1cd;" horiz-adv-x="725" 
d="M307 778h98l124 148v20h-51l-152 -110l68 2l-151 108h-60v-20zM196 297h282l9 -63h-302zM324 669l19 -22l-185 -565q0 -5 10.5 -10t29 -7.5t40.5 -2.5h12v-62h-235v62h6q27 0 44.5 10t28.5 43l198 600h138l203 -607q10 -29 27.5 -37.5t44.5 -8.5h5v-62h-285v62h13
q22 0 40.5 1t29.5 3.5t11 5.5z" />
    <glyph glyph-name="acaron" unicode="&#x1ce;" horiz-adv-x="596" 
d="M248 609h90l124 166v20h-45l-157 -130l74 2l-156 128h-55v-20zM400 327v-58q-55 -7 -95 -17t-66.5 -21.5t-41.5 -26t-21.5 -32t-6.5 -38.5q0 -27 10.5 -44.5t29.5 -26.5t45 -9q28 0 52.5 13.5t47 40.5t45.5 69l3 -57q-20 -42 -46.5 -71t-60 -44.5t-75.5 -15.5
q-51 0 -88.5 16t-57.5 48t-20 78q0 42 19 73t60 54t107 39.5t160 29.5zM401 0l-12 114l-6 3v272q0 33 -9 53t-30.5 29.5t-59.5 9.5q-55 0 -90.5 -15.5t-52.5 -33.5q-2 8 0.5 16t9 15.5t16.5 13t24 6.5v-116h-106v124q14 11 42.5 24t70 23t94.5 10q46 0 83.5 -8.5t65.5 -27.5
t43 -49t15 -73v-293q0 -13 9 -20t25 -10.5t39 -6.5l5 -2v-58h-176z" />
    <glyph glyph-name="Icaron" unicode="&#x1cf;" horiz-adv-x="405" 
d="M153 778h98l124 148v20h-51l-152 -110l69 2l-152 108h-60v-20zM140 98v514q0 22 -21.5 29t-55.5 7h-15v62h309v-62h-15q-34 0 -56 -7t-22 -29v-514q0 -22 22 -29t56 -7h15v-62h-309v62h15q34 0 55.5 7t21.5 29z" />
    <glyph glyph-name="icaron" unicode="&#x1d0;" horiz-adv-x="341" 
d="M131 609h90l123 166v20h-45l-156 -130l75 2l-156 128h-55v-20zM235 538v-434q0 -30 20.5 -40t55.5 -10h3v-54h-275v54h3q35 0 55.5 10t20.5 40v331q0 20 -17 27t-52 14l-10 2v60h196z" />
    <glyph glyph-name="Ocaron" unicode="&#x1d1;" horiz-adv-x="815" 
d="M358 778h99l123 148v20h-50l-153 -110l69 2l-151 108h-61v-20zM408 -17q-79 0 -144 25t-113 73.5t-74 117.5t-26 156q0 88 26 156.5t74 117t113 74t144 25.5q78 0 143.5 -25.5t113.5 -74t74 -117t26 -156.5q0 -87 -26 -156t-74 -117.5t-113.5 -73.5t-143.5 -25zM408 53
q53 0 94.5 19t71 56.5t45 94.5t15.5 132t-15.5 132t-45 94.5t-71 56.5t-94.5 19q-52 0 -94.5 -19t-71.5 -56.5t-44.5 -94.5t-15.5 -132t15.5 -132t44.5 -94.5t71 -56.5t95 -19z" />
    <glyph glyph-name="ocaron" unicode="&#x1d2;" horiz-adv-x="646" 
d="M279 609h89l125 166v20h-45l-158 -130l75 2l-157 128h-54v-20zM602 268q0 -85 -34 -148t-97 -97.5t-148 -34.5t-147.5 34.5t-97 97.5t-34.5 148q0 64 19.5 116t56 88.5t88 56t115.5 19.5t115.5 -19.5t88 -56t56 -88.5t19.5 -116zM167 268q0 -71 17.5 -118t52 -70.5
t86.5 -23.5q53 0 87.5 23t51.5 70.5t17 118.5q0 70 -17 117t-51.5 71t-87.5 24q-52 0 -86.5 -24t-52 -71t-17.5 -117z" />
    <glyph glyph-name="Ucaron" unicode="&#x1d3;" horiz-adv-x="808" 
d="M378 778h98l124 148v20h-51l-152 -110l68 2l-151 108h-60v-20zM255 265q0 -57 12.5 -96t36 -62.5t55.5 -34t71 -10.5q38 0 70 11t55 34.5t36 62.5t13 95v363q0 5 -7.5 9t-19 6.5t-25.5 3.5t-28 1h-9v62h250v-62h-11q-21 0 -39 -3.5t-28 -13t-10 -26.5v-340
q0 -75 -20.5 -129t-57 -88t-85 -49.5t-104.5 -15.5q-61 0 -112 16t-88.5 50t-58 87.5t-20.5 128.5v347q0 22 -21.5 29t-55.5 7h-11v62h300v-61h-9q-13 0 -27 -1t-25.5 -2.5t-19 -3t-7.5 -4.5v-373z" />
    <glyph glyph-name="ucaron" unicode="&#x1d4;" horiz-adv-x="670" 
d="M265 609h90l124 166v20h-45l-158 -130l75 2l-156 128h-55v-20zM224 538v-383q0 -29 7.5 -48.5t24 -29t45.5 -9.5t57 13t55.5 39t55.5 66l-1 -62q-27 -43 -58.5 -73t-68.5 -45.5t-80 -15.5q-48 0 -83 17t-53.5 52t-18.5 86v290q0 20 -16.5 28.5t-52.5 12.5l-13 2v60h200z
M566 538v-441q0 -13 9 -20t25.5 -11t38.5 -6l6 -2v-58h-179l-12 119l-6 6v310q0 20 -18 28.5t-53 12.5l-23 2v60h212z" />
    <glyph glyph-name="Udieresiscaron" unicode="&#x1d9;" horiz-adv-x="814" 
d="M370 972h98l124 148v20h-51l-152 -110l69 2l-152 108h-60v-20zM255 265q0 -57 12.5 -96t36 -62.5t55.5 -34t71 -10.5q38 0 70 11t55 34.5t36 62.5t13 95v363q0 5 -7.5 9t-19 6.5t-25.5 3.5t-28 1h-9v62h250v-62h-11q-21 0 -39 -3.5t-28 -13t-10 -26.5v-340
q0 -75 -20.5 -129t-57 -88t-85 -49.5t-104.5 -15.5q-61 0 -112 16t-88.5 50t-58 87.5t-20.5 128.5v347q0 22 -21.5 29t-55.5 7h-11v62h300v-61h-9q-13 0 -27 -1t-25.5 -2.5t-19 -3t-7.5 -4.5v-373zM371 868q0 -34 -21 -52.5t-55 -18.5t-55 18.5t-21 52.5q0 35 21 53t55 18
t55 -18t21 -53zM619 868q0 -34 -21.5 -52.5t-55.5 -18.5q-33 0 -54 18.5t-21 52.5q0 35 21 53t54 18q34 0 55.5 -18t21.5 -53z" />
    <glyph glyph-name="udieresiscaron" unicode="&#x1da;" horiz-adv-x="670" 
d="M281 812h90l124 167v20h-45l-158 -131l75 2l-156 129h-55v-20zM224 538v-383q0 -29 7.5 -48.5t24 -29t45.5 -9.5t57 13t55.5 39t55.5 66l-1 -62q-27 -43 -58.5 -73t-68.5 -45.5t-80 -15.5q-48 0 -83 17t-53.5 52t-18.5 86v290q0 20 -16.5 28.5t-52.5 12.5l-13 2v60h200z
M566 538v-441q0 -13 9 -20t25.5 -11t38.5 -6l6 -2v-58h-179l-12 119l-6 6v310q0 20 -18 28.5t-53 12.5l-23 2v60h212zM276 702q0 -35 -21 -53t-55 -18t-55 18t-21 53t21 53t55 18t55 -18t21 -53zM528 702q0 -35 -21 -53t-55 -18t-55 18t-21 53t21 53t55 18t55 -18t21 -53z
" />
    <glyph glyph-name="Gcaron" unicode="&#x1e6;" horiz-adv-x="808" 
d="M358 778h99l123 148v20h-51l-152 -110l69 2l-152 108h-60v-20zM701 250v-147q-15 -19 -42.5 -40t-65.5 -39.5t-84.5 -29.5t-98.5 -11q-82 0 -148 24.5t-113.5 73t-72.5 117.5t-25 157t26.5 157t74 117t111.5 73.5t138 25.5q68 0 118.5 -23.5t82.5 -67.5t45 -104l-33 27
l15 155h71v-227h-79q-16 51 -45 88.5t-70.5 59t-97.5 21.5q-52 0 -94 -19.5t-71.5 -57.5t-45 -94.5t-15.5 -130.5q0 -76 15.5 -133t45.5 -94t73 -56t98 -19q50 0 84 11t55 26t31 25v135q0 23 -24 30.5t-58 7.5h-21v61h302v-61h-15q-31 0 -49 -7.5t-18 -30.5z" />
    <glyph glyph-name="gcaron" unicode="&#x1e7;" horiz-adv-x="648" 
d="M269 610h90l124 166v20h-45l-157 -130l74 2l-156 128h-55v-20zM635 465q-44 3 -76 3.5t-54.5 -3t-40.5 -12.5l-17 2q14 32 32 56t40.5 39t51 20.5t64.5 2.5v-108zM303 166q-66 0 -116 23.5t-78 66t-28 100.5q0 57 28 100.5t78.5 67.5t115.5 24q67 0 117.5 -24t78.5 -67.5
t28 -100.5q0 -58 -28 -100.5t-78.5 -66t-117.5 -23.5zM303 229q37 0 61.5 14t36.5 42t12 70q0 43 -12 71.5t-36.5 43t-61.5 14.5q-35 0 -59.5 -14.5t-37 -43t-12.5 -71.5q0 -42 12.5 -70t37 -42t59.5 -14zM246 -244q-67 0 -117 11.5t-78 38.5t-28 70q0 30 14 51.5t43 39.5
t76 37l30 -20q-24 -16 -38.5 -31t-20.5 -30.5t-6 -32.5q0 -22 13.5 -37.5t43.5 -24t79 -8.5h91q51 0 86 11t53 32t18 51q0 27 -17.5 40t-61.5 13h-249l1 5q-41 8 -68 22t-40 35.5t-13 48.5q0 29 15 53t43 44.5t68 38.5l35 -21q-21 -14 -35 -27t-20.5 -25t-6.5 -26
q0 -22 17.5 -32t53.5 -10h204q57 0 96.5 -14.5t60.5 -44.5t21 -76q0 -62 -34.5 -102.5t-93 -60t-130.5 -19.5h-105z" />
    <glyph glyph-name="Oogonek" unicode="&#x1ea;" horiz-adv-x="816" 
d="M408 53q53 0 94.5 19t71 56.5t45 94.5t15.5 132t-15.5 132t-45 94.5t-71 56.5t-94.5 19t-94.5 -19t-71 -56.5t-45 -94.5t-15.5 -132t15.5 -132t44.5 -94.5t71.5 -56.5t94.5 -19zM658 75q-24 -24 -52 -44t-56.5 -39t-51.5 -38.5t-37.5 -41.5t-14.5 -49q0 -23 12 -34.5
t33 -11.5q25 0 42 12.5t29 24.5l36 -38q-16 -17 -35 -31t-44 -22t-59 -8q-37 0 -65.5 10.5t-45 31.5t-16.5 51q0 26 12 47.5t37.5 42t66.5 43.5t98 51l-16 -31q-18 -6 -38.5 -10t-41.5 -6t-43 -2q-78 0 -143.5 25t-113.5 73.5t-74 117.5t-26 156q0 88 26 156.5t74 117
t113.5 74t143.5 25.5q79 0 144 -25.5t113 -74t74 -117t26 -156.5q0 -59 -12.5 -110.5t-36 -94t-58.5 -75.5z" />
    <glyph glyph-name="oogonek" unicode="&#x1eb;" horiz-adv-x="646" 
d="M167 268q0 -72 17.5 -119t52 -70t86.5 -23q53 0 87.5 23t51.5 70t17 119q0 69 -17 116t-51.5 71.5t-87.5 24.5q-52 0 -86.5 -24.5t-52 -71.5t-17.5 -116zM450 37l-9 -29q-17 -6 -36.5 -11t-39.5 -7t-42 -2q-85 0 -147.5 34t-97 97t-34.5 149q0 64 19.5 116t56 88.5t88 56
t115.5 19.5t115.5 -19.5t88 -56t56 -88.5t19.5 -116q0 -44 -9.5 -82.5t-27.5 -71t-46 -58.5q-27 -25 -56 -48.5t-54 -46t-41 -47t-16 -51.5q0 -23 12 -34.5t33 -11.5q25 0 42 12.5t29 24.5l36 -38q-24 -27 -55 -44t-82 -17q-56 0 -92 23.5t-36 69.5q0 26 11.5 47.5
t36.5 42.5t65.5 44.5t97.5 54.5z" />
    <glyph glyph-name="Aringacute" unicode="&#x1fa;" horiz-adv-x="721" 
d="M196 297h282l9 -63h-302zM324 669l19 -22l-185 -565q0 -5 10.5 -10t29 -7.5t40.5 -2.5h12v-62h-235v62h6q27 0 44.5 10t28.5 43l198 600h138l203 -607q10 -29 27.5 -37.5t44.5 -8.5h5v-62h-285v62h13q22 0 40.5 1t29.5 3.5t11 5.5zM295 882q0 -32 16 -48t44 -16t44 16
t16 48t-16 48t-44 16q-27 0 -43.5 -16t-16.5 -48zM492 882q0 -51 -38 -82t-99 -31t-99 31t-38 82q0 34 17.5 59.5t48.5 40t71 14.5q41 0 71.5 -14.5t48 -40t17.5 -59.5zM384 1157l-74 -95v-27h39l99 47q21 10 37 21t24.5 24.5t8.5 29.5q0 21 -15.5 36.5t-40.5 15.5
q-17 0 -30.5 -6.5t-24.5 -18t-23 -27.5z" />
    <glyph glyph-name="aringacute" unicode="&#x1fb;" horiz-adv-x="596" 
d="M400 327v-58q-55 -7 -95 -17t-66.5 -21.5t-41.5 -26t-21.5 -32t-6.5 -38.5q0 -27 10.5 -44.5t29.5 -26.5t45 -9q28 0 52.5 13.5t47 40.5t45.5 69l3 -57q-20 -42 -46.5 -71t-60 -44.5t-75.5 -15.5q-51 0 -88.5 16t-57.5 48t-20 78q0 42 19 73t60 54t107 39.5t160 29.5z
M401 0l-12 114l-6 3v272q0 33 -9 53t-30.5 29.5t-59.5 9.5q-55 0 -90.5 -15.5t-52.5 -33.5q-2 8 0.5 16t9 15.5t16.5 13t24 6.5v-116h-106v124q14 11 42.5 24t70 23t94.5 10q46 0 83.5 -8.5t65.5 -27.5t43 -49t15 -73v-293q0 -13 9 -20t25 -10.5t39 -6.5l5 -2v-58h-176z
M234 705q0 -32 16 -48t44 -16t44.5 16t16.5 48t-16.5 48t-44.5 16t-44 -16t-16 -48zM430 705q0 -33 -17.5 -59t-47.5 -40t-71 -14q-40 0 -71 14t-48 40t-17 59t17 58.5t48 39.5t71 14q41 0 71 -14t47.5 -39.5t17.5 -58.5zM330 978l-74 -95v-27h39l99 47q21 10 37 21
t24.5 24.5t8.5 29.5q0 21 -15.5 36.5t-40.5 15.5q-17 0 -30.5 -6.5t-24.5 -18t-23 -27.5z" />
    <glyph glyph-name="AEacute" unicode="&#x1fc;" horiz-adv-x="1044" 
d="M249 297h280l9 -63h-315zM605 394q43 2 85.5 3.5t86.5 4t87 5.5v-86q-42 2 -85.5 4t-86.5 4t-87 5v60zM417 0v62h8q21 0 39.5 2t29.5 7t11 11v563h-12l-334 -563q0 -5 10.5 -10t28.5 -7.5t40 -2.5h12v-62h-242v62h5q18 0 31.5 5t25.5 16.5t24 31.5l301 500q0 14 -12 21
t-32 9.5t-44 2.5h-12v62h665v-199h-70l-10 88q-2 18 -15 27.5t-38 13t-65 3.5h-134v-576h150q32 0 54.5 2t37 7t22 13.5t8.5 21.5l13 113h71v-224h-567zM612 899l-74 -95v-27h39l99 47q21 10 37 21t24.5 24.5t8.5 29.5q0 21 -15.5 36.5t-40.5 15.5q-17 0 -30.5 -6.5
t-24.5 -18t-23 -27.5z" />
    <glyph glyph-name="aeacute" unicode="&#x1fd;" horiz-adv-x="915" 
d="M409 320l-1 -58q-58 -6 -99 -15t-68.5 -19.5t-43.5 -24t-22.5 -30.5t-6.5 -38q0 -27 11 -44.5t31 -26.5t47 -9q32 0 59 14.5t52 43t48 72.5l37 -33q-20 -40 -42.5 -70.5t-49.5 -51t-59.5 -31t-71.5 -10.5q-56 0 -95.5 16t-60.5 48t-21 79q0 42 19.5 72.5t61.5 52.5
t110 37.5t165 25.5zM291 548q46 0 80 -9t57.5 -29t35 -51.5t11.5 -78.5l-85 -81v89q0 34 -9.5 54.5t-32 29.5t-61.5 9q-57 0 -93.5 -15.5t-53.5 -33.5q-2 8 0.5 16.5t9 16t16.5 12.5t24 7v-117h-106v124q15 11 43 24t69.5 23t94.5 10zM669 57q41 0 69.5 14t49 36.5
t35.5 48.5l55 -44q-20 -37 -50 -65t-71.5 -43t-96.5 -15q-79 0 -139.5 32t-95.5 94.5t-35 152.5q0 30 4.5 47.5t11.5 27.5t16 16.5t18 15.5q13 40 32 72t45 55t59 35t74 12q57 0 100 -19t71.5 -57.5t43.5 -95.5t15 -134h-417v63h327l-26 -26q-2 57 -9 95.5t-21 62t-36 34
t-52 10.5q-31 0 -56.5 -13t-44.5 -39.5t-29 -67.5t-10 -98q0 -56 11.5 -95.5t33 -64t51.5 -36t67 -11.5zM489 749q8 20 18.5 35t24.5 22.5t32 7.5q26 0 41.5 -15t15.5 -37q0 -13 -6 -26t-16.5 -25t-24.5 -23l-99 -84h-37v26z" />
    <glyph glyph-name="Oslashacute" unicode="&#x1fe;" horiz-adv-x="816" 
d="M409 657q-54 0 -96.5 -19t-72 -56.5t-45 -94.5t-15.5 -132q0 -81 14 -138.5t42.5 -93.5t71.5 -53t100 -17q53 0 95.5 19t72 56.5t45 94.5t15.5 132q0 81 -14 138.5t-42.5 93.5t-71.5 53t-99 17zM408 -17q-77 0 -142 26.5t-113.5 75.5t-75 117.5t-26.5 152.5
q0 88 26 156.5t74 117t113.5 74t143.5 25.5q77 0 142 -27t113.5 -76t75 -117.5t26.5 -152.5q0 -87 -26 -156t-74 -117.5t-113 -73.5t-144 -25zM-1 -20l718 750h93l-718 -750h-93zM438 899l-74 -95v-27h39l99 47q21 10 37 21t24.5 24.5t8.5 29.5q0 21 -15.5 36.5t-40.5 15.5
q-17 0 -30.5 -6.5t-24.5 -18t-23 -27.5z" />
    <glyph glyph-name="oslashacute" unicode="&#x1ff;" horiz-adv-x="646" 
d="M-12 -14l577 564h89l-577 -564h-89zM162 268q0 -74 16 -120.5t52 -69t93 -22.5q54 0 90 23t53.5 70.5t17.5 118.5q0 75 -16 121.5t-51 68.5t-93 22q-54 0 -90 -24t-54 -71t-18 -117zM44 268q0 65 19.5 116.5t56 88t88 56t115.5 19.5q63 0 114.5 -21t88.5 -58.5
t56.5 -88.5t19.5 -112q0 -86 -34 -148.5t-97 -97t-148 -34.5q-84 0 -147 36.5t-97.5 99.5t-34.5 144zM328 755q8 20 18.5 35t24.5 22.5t32 7.5q26 0 41.5 -15t15.5 -37q0 -13 -6 -26t-16.5 -25t-24.5 -23l-99 -84h-37v26z" />
    <glyph glyph-name="Adblgrave" unicode="&#x200;" horiz-adv-x="725" 
d="M460 889l32 -90v-27h-41l-60 52q-24 22 -38.5 39t-14.5 40q0 22 14.5 35.5t40.5 13.5q17 0 30 -7t22 -21t15 -35zM270 889l30 -90v-27h-41l-60 52q-24 22 -38.5 39t-14.5 40q0 22 14.5 35.5t40.5 13.5q17 0 30.5 -7t22.5 -21t16 -35zM196 297h282l9 -63h-302zM324 669
l19 -22l-185 -565q0 -5 10.5 -10t29 -7.5t40.5 -2.5h12v-62h-235v62h6q27 0 44.5 10t28.5 43l198 600h138l203 -607q10 -29 27.5 -37.5t44.5 -8.5h5v-62h-285v62h13q22 0 40.5 1t29.5 3.5t11 5.5z" />
    <glyph glyph-name="adblgrave" unicode="&#x201;" horiz-adv-x="596" 
d="M398 755l25 -119v-25h-37l-72 86q-19 22 -28.5 39t-9.5 36q0 21 14.5 36t40.5 15q29 0 44.5 -17.5t22.5 -50.5zM212 755l25 -119v-25h-37l-72 86q-18 22 -28 39t-10 36q0 21 14.5 36t40.5 15q29 0 45 -17.5t22 -50.5zM400 327v-58q-55 -7 -95 -17t-66.5 -21.5t-41.5 -26
t-21.5 -32t-6.5 -38.5q0 -27 10.5 -44.5t29.5 -26.5t45 -9q28 0 52.5 13.5t47 40.5t45.5 69l3 -57q-20 -42 -46.5 -71t-60 -44.5t-75.5 -15.5q-51 0 -88.5 16t-57.5 48t-20 78q0 42 19 73t60 54t107 39.5t160 29.5zM401 0l-12 114l-6 3v272q0 33 -9 53t-30.5 29.5t-59.5 9.5
q-55 0 -90.5 -15.5t-52.5 -33.5q-2 8 0.5 16t9 15.5t16.5 13t24 6.5v-116h-106v124q14 11 42.5 24t70 23t94.5 10q46 0 83.5 -8.5t65.5 -27.5t43 -49t15 -73v-293q0 -13 9 -20t25 -10.5t39 -6.5l5 -2v-58h-176z" />
    <glyph glyph-name="Ainvertedbreve" unicode="&#x202;" horiz-adv-x="725" 
d="M364 923q-52 0 -88.5 -17.5t-56 -53.5t-21.5 -92h70q2 30 12 46.5t30 23.5t52 7t51.5 -7t29.5 -23.5t13 -46.5h75q-2 56 -22.5 92t-57 53.5t-87.5 17.5zM196 297h282l9 -63h-302zM324 669l19 -22l-185 -565q0 -5 10.5 -10t29 -7.5t40.5 -2.5h12v-62h-235v62h6
q27 0 44.5 10t28.5 43l198 600h138l203 -607q10 -29 27.5 -37.5t44.5 -8.5h5v-62h-285v62h13q22 0 40.5 1t29.5 3.5t11 5.5z" />
    <glyph glyph-name="ainvertedbreve" unicode="&#x203;" horiz-adv-x="596" 
d="M290 788q-49 0 -84 -17.5t-53.5 -55t-19.5 -98.5h69q2 35 10.5 53.5t26.5 25.5t48 7t48 -7t27 -25.5t11 -53.5h73q0 61 -19 98.5t-53 55t-84 17.5zM400 327v-58q-55 -7 -95 -17t-66.5 -21.5t-41.5 -26t-21.5 -32t-6.5 -38.5q0 -27 10.5 -44.5t29.5 -26.5t45 -9
q28 0 52.5 13.5t47 40.5t45.5 69l3 -57q-20 -42 -46.5 -71t-60 -44.5t-75.5 -15.5q-51 0 -88.5 16t-57.5 48t-20 78q0 42 19 73t60 54t107 39.5t160 29.5zM401 0l-12 114l-6 3v272q0 33 -9 53t-30.5 29.5t-59.5 9.5q-55 0 -90.5 -15.5t-52.5 -33.5q-2 8 0.5 16t9 15.5
t16.5 13t24 6.5v-116h-106v124q14 11 42.5 24t70 23t94.5 10q46 0 83.5 -8.5t65.5 -27.5t43 -49t15 -73v-293q0 -13 9 -20t25 -10.5t39 -6.5l5 -2v-58h-176z" />
    <glyph glyph-name="Edblgrave" unicode="&#x204;" horiz-adv-x="682" 
d="M452 889l32 -90v-27h-41l-60 52q-25 22 -39.5 39t-14.5 40q0 22 15.5 35.5t40.5 13.5q18 0 30.5 -7t21.5 -21t15 -35zM261 889l31 -90v-27h-41l-61 52q-24 22 -38.5 39t-14.5 40q0 22 15 35.5t40 13.5q18 0 31 -7t22.5 -21t15.5 -35zM621 224v-224h-573v62h11q33 0 55 7
t22 29v514q0 22 -22 29t-55 7h-11v62h549v-199h-69l-11 88q-2 18 -15 27.5t-38 13t-65 3.5h-140v-576h156q32 0 54.5 2t37 7t22 13.5t8.5 21.5l13 113h71zM236 395q45 2 88.5 4t87.5 4.5t88 4.5v-87q-44 2 -88 4.5t-87.5 4.5t-88.5 4v61z" />
    <glyph glyph-name="edblgrave" unicode="&#x205;" horiz-adv-x="590" 
d="M409 755l25 -119v-25h-37l-72 86q-18 22 -28 39t-10 36q0 21 14.5 36t40.5 15q29 0 45 -17.5t22 -50.5zM223 755l26 -119v-25h-38l-72 86q-18 22 -27.5 39t-9.5 36q0 21 14.5 36t40.5 15q28 0 44 -17.5t22 -50.5zM163 264q0 -56 12 -95.5t35 -64t54 -36t69 -11.5
q40 0 70 14t52 36t37 48l55 -42q-20 -37 -51.5 -65.5t-74.5 -44t-97 -15.5q-81 0 -144.5 32.5t-99.5 94.5t-36 150q0 85 33.5 148.5t92.5 99t136 35.5q61 0 106.5 -19t75 -57.5t45 -96t16.5 -134.5h-414v63h323l-25 -24q-2 56 -9.5 95t-22.5 62t-38 33.5t-56 10.5
t-59.5 -12.5t-45.5 -39t-29 -67.5t-10 -98z" />
    <glyph glyph-name="Einvertedbreve" unicode="&#x206;" horiz-adv-x="682" 
d="M338 923q-52 0 -88.5 -17.5t-56 -53.5t-22.5 -92h70q3 30 13 46.5t29.5 23.5t52.5 7q32 0 51.5 -7t29.5 -23.5t13 -46.5h75q-2 56 -22.5 92t-57 53.5t-87.5 17.5zM621 224v-224h-573v62h11q33 0 55 7t22 29v514q0 22 -22 29t-55 7h-11v62h549v-199h-69l-11 88
q-2 18 -15 27.5t-38 13t-65 3.5h-140v-576h156q32 0 54.5 2t37 7t22 13.5t8.5 21.5l13 113h71zM236 395q45 2 88.5 4t87.5 4.5t88 4.5v-87q-44 2 -88 4.5t-87.5 4.5t-88.5 4v61z" />
    <glyph glyph-name="einvertedbreve" unicode="&#x207;" horiz-adv-x="590" 
d="M300 788q-49 0 -84 -17.5t-53 -55t-19 -98.5h68q3 35 11.5 53.5t26 25.5t47.5 7t48 -7t27 -25.5t11 -53.5h73q0 61 -18.5 98.5t-53 55t-84.5 17.5zM163 264q0 -56 12 -95.5t35 -64t54 -36t69 -11.5q40 0 70 14t52 36t37 48l55 -42q-20 -37 -51.5 -65.5t-74.5 -44
t-97 -15.5q-81 0 -144.5 32.5t-99.5 94.5t-36 150q0 85 33.5 148.5t92.5 99t136 35.5q61 0 106.5 -19t75 -57.5t45 -96t16.5 -134.5h-414v63h323l-25 -24q-2 56 -9.5 95t-22.5 62t-38 33.5t-56 10.5t-59.5 -12.5t-45.5 -39t-29 -67.5t-10 -98z" />
    <glyph glyph-name="Idblgrave" unicode="&#x208;" horiz-adv-x="405" 
d="M310 889l31 -90v-27h-41l-60 52q-24 22 -38.5 39t-14.5 40q0 22 15 35.5t40 13.5q18 0 30.5 -7t21.5 -21t16 -35zM119 889l30 -90v-27h-41l-60 52q-24 22 -38.5 39t-14.5 40q0 22 14.5 35.5t40.5 13.5q17 0 30.5 -7t22.5 -21t16 -35zM140 98v514q0 22 -21.5 29t-55.5 7
h-15v62h309v-62h-15q-34 0 -56 -7t-22 -29v-514q0 -22 22 -29t56 -7h15v-62h-309v62h15q34 0 55.5 7t21.5 29z" />
    <glyph glyph-name="idblgrave" unicode="&#x209;" horiz-adv-x="341" 
d="M272 755l25 -119v-25h-37l-72 86q-18 22 -28 39t-10 36q0 21 14.5 36t40.5 15q29 0 45 -17.5t22 -50.5zM86 755l26 -119v-25h-38l-72 86q-18 22 -27.5 39t-9.5 36q0 21 14.5 36t39.5 15q29 0 45 -17.5t22 -50.5zM235 538v-434q0 -30 20.5 -40t55.5 -10h3v-54h-275v54h3
q35 0 55.5 10t20.5 40v331q0 20 -17 27t-52 14l-10 2v60h196z" />
    <glyph glyph-name="Iinvertedbreve" unicode="&#x20a;" horiz-adv-x="405" 
d="M202 923q-51 0 -87.5 -17.5t-56.5 -53.5t-22 -92h70q3 30 12.5 46.5t29.5 23.5t53 7q31 0 50.5 -7t30 -23.5t13.5 -46.5h75q-3 56 -23.5 92t-57 53.5t-87.5 17.5zM140 98v514q0 22 -21.5 29t-55.5 7h-15v62h309v-62h-15q-34 0 -56 -7t-22 -29v-514q0 -22 22 -29t56 -7h15
v-62h-309v62h15q34 0 55.5 7t21.5 29z" />
    <glyph glyph-name="iinvertedbreve" unicode="&#x20b;" horiz-adv-x="341" 
d="M166 788q-49 0 -83.5 -17.5t-52.5 -55t-19 -98.5h68q3 35 11 53.5t25.5 25.5t47.5 7t48 -7t26.5 -25.5t10.5 -53.5h73q0 61 -18.5 98.5t-52.5 55t-84 17.5zM235 538v-434q0 -30 20.5 -40t55.5 -10h3v-54h-275v54h3q35 0 55.5 10t20.5 40v331q0 20 -17 27t-52 14l-10 2v60
h196z" />
    <glyph glyph-name="Odblgrave" unicode="&#x20c;" horiz-adv-x="816" 
d="M519 889l32 -90v-27h-41l-61 52q-24 22 -38.5 39t-14.5 40q0 22 15 35.5t40 13.5q18 0 31 -7t22 -21t15 -35zM328 889l31 -90v-27h-41l-61 52q-24 22 -38.5 39t-14.5 40q0 22 15 35.5t40 13.5q18 0 31 -7t22.5 -21t15.5 -35zM408 -17q-78 0 -143.5 25t-113.5 73.5
t-74 117.5t-26 156q0 88 26 156.5t74 117t113.5 74t143.5 25.5q79 0 144 -25.5t113 -74t74 -117t26 -156.5q0 -87 -26 -156t-74 -117.5t-113 -73.5t-144 -25zM408 53q53 0 94.5 19t71 56.5t45 94.5t15.5 132t-15.5 132t-45 94.5t-71 56.5t-94.5 19q-52 0 -94 -19
t-71.5 -56.5t-45 -94.5t-15.5 -132t15.5 -132t44.5 -94.5t71.5 -56.5t94.5 -19z" />
    <glyph glyph-name="odblgrave" unicode="&#x20d;" horiz-adv-x="646" 
d="M433 755l25 -119v-25h-37l-72 86q-18 22 -27.5 39t-9.5 36q0 21 14.5 36t39.5 15q29 0 45 -17.5t22 -50.5zM248 755l25 -119v-25h-38l-72 86q-18 22 -27.5 39t-9.5 36q0 21 14.5 36t40.5 15q29 0 44.5 -17.5t22.5 -50.5zM602 268q0 -85 -34 -148t-97 -97.5t-148 -34.5
t-147.5 34.5t-97 97.5t-34.5 148q0 64 19.5 116t56 88.5t88 56t115.5 19.5t115.5 -19.5t88 -56t56 -88.5t19.5 -116zM167 268q0 -71 17.5 -118t52 -70.5t86.5 -23.5q53 0 87.5 23t51.5 70.5t17 118.5q0 70 -17 117t-51.5 71t-87.5 24q-52 0 -86.5 -24t-52 -71t-17.5 -117z
" />
    <glyph glyph-name="Oinvertedbreve" unicode="&#x20e;" horiz-adv-x="816" 
d="M408 923q-51 0 -87.5 -17.5t-56.5 -53.5t-22 -92h70q3 30 12.5 46.5t29.5 23.5t52 7t51.5 -7t29.5 -23.5t13 -46.5h75q-2 56 -22.5 92t-57 53.5t-87.5 17.5zM408 -17q-78 0 -143.5 25t-113.5 73.5t-74 117.5t-26 156q0 88 26 156.5t74 117t113.5 74t143.5 25.5
q79 0 144 -25.5t113 -74t74 -117t26 -156.5q0 -87 -26 -156t-74 -117.5t-113 -73.5t-144 -25zM408 53q53 0 94.5 19t71 56.5t45 94.5t15.5 132t-15.5 132t-45 94.5t-71 56.5t-94.5 19q-52 0 -94 -19t-71.5 -56.5t-45 -94.5t-15.5 -132t15.5 -132t44.5 -94.5t71.5 -56.5
t94.5 -19z" />
    <glyph glyph-name="oinvertedbreve" unicode="&#x20f;" horiz-adv-x="646" 
d="M323 788q-49 0 -84 -17.5t-53 -55t-19 -98.5h68q3 35 11 53.5t26 25.5t48 7t48 -7t27 -25.5t11 -53.5h73q0 61 -19 98.5t-53 55t-84 17.5zM602 268q0 -85 -34 -148t-97 -97.5t-148 -34.5t-147.5 34.5t-97 97.5t-34.5 148q0 64 19.5 116t56 88.5t88 56t115.5 19.5
t115.5 -19.5t88 -56t56 -88.5t19.5 -116zM167 268q0 -71 17.5 -118t52 -70.5t86.5 -23.5q53 0 87.5 23t51.5 70.5t17 118.5q0 70 -17 117t-51.5 71t-87.5 24q-52 0 -86.5 -24t-52 -71t-17.5 -117z" />
    <glyph glyph-name="Rdblgrave" unicode="&#x210;" horiz-adv-x="747" 
d="M469 889l32 -90v-27h-41l-60 52q-24 22 -38.5 39t-14.5 40q0 22 15 35.5t40 13.5q18 0 30.5 -7t21.5 -21t15 -35zM279 889l30 -90v-27h-41l-60 52q-24 22 -38.5 39t-14.5 40q0 22 15 35.5t40 13.5q18 0 31 -7t22.5 -21t15.5 -35zM378 321l167 -321h174v62h-9
q-18 0 -32.5 3t-26.5 13t-23 28l-136 241zM259 72v572h114q47 0 77 -16t45 -46.5t15 -74.5q0 -45 -15 -78t-46 -50.5t-81 -17.5h-126v-64h153q9 0 17.5 2.5t17 5.5t16.5 7q61 12 104.5 39t67 68t23.5 94q0 62 -30.5 106.5t-87.5 67.5t-138 23h-337v-62h11q33 0 55 -7t22 -29
v-514q0 -22 -22 -29t-55 -7h-11v-62h305v62h-16q-14 0 -28 0.5t-25 2t-18 3t-7 4.5z" />
    <glyph glyph-name="rdblgrave" unicode="&#x211;" horiz-adv-x="466" 
d="M353 755l25 -119v-25h-37l-72 86q-18 22 -27.5 39t-9.5 36q0 21 14 36t41 15q28 0 44 -17.5t22 -50.5zM168 755l25 -119v-25h-38l-71 86q-19 22 -28.5 39t-9.5 36q0 21 14.5 36t40.5 15q28 0 44 -17.5t23 -50.5zM434 544v-118q-7 2 -18 3.5t-23.5 2t-23.5 0.5
q-26 0 -47 -4.5t-39 -14t-34 -25t-33 -38.5l-1 43q25 50 50.5 84.5t57 52.5t73.5 18q12 0 23 -1t15 -3zM39 0v54h3q34 0 54.5 11t20.5 43v327q0 14 -7.5 21t-23 11.5t-38.5 8.5l-9 2v60h178l13 -142l5 4v-327q0 -8 13 -12.5t30.5 -5.5t32.5 -1h19v-54h-291z" />
    <glyph glyph-name="Rinvertedbreve" unicode="&#x212;" horiz-adv-x="747" 
d="M361 923q-51 0 -87.5 -17.5t-56.5 -53.5t-22 -92h70q3 30 13 46.5t29.5 23.5t52.5 7q32 0 51 -7t29.5 -23.5t13.5 -46.5h75q-2 56 -22.5 92t-57 53.5t-88.5 17.5zM378 321l167 -321h174v62h-9q-18 0 -32.5 3t-26.5 13t-23 28l-136 241zM259 72v572h114q47 0 77 -16
t45 -46.5t15 -74.5q0 -45 -15 -78t-46 -50.5t-81 -17.5h-126v-64h153q9 0 17.5 2.5t17 5.5t16.5 7q61 12 104.5 39t67 68t23.5 94q0 62 -30.5 106.5t-87.5 67.5t-138 23h-337v-62h11q33 0 55 -7t22 -29v-514q0 -22 -22 -29t-55 -7h-11v-62h305v62h-16q-14 0 -28 0.5t-25 2
t-18 3t-7 4.5z" />
    <glyph glyph-name="rinvertedbreve" unicode="&#x213;" horiz-adv-x="466" 
d="M242 788q-50 0 -84.5 -17.5t-53 -55t-19.5 -98.5h69q2 35 10.5 53.5t26 25.5t48.5 7q30 0 48 -7t27 -25.5t11 -53.5h73q-1 61 -19.5 98.5t-53 55t-83.5 17.5zM434 544v-118q-7 2 -18 3.5t-23.5 2t-23.5 0.5q-26 0 -47 -4.5t-39 -14t-34 -25t-33 -38.5l-1 43
q25 50 50.5 84.5t57 52.5t73.5 18q12 0 23 -1t15 -3zM39 0v54h3q34 0 54.5 11t20.5 43v327q0 14 -7.5 21t-23 11.5t-38.5 8.5l-9 2v60h178l13 -142l5 4v-327q0 -8 13 -12.5t30.5 -5.5t32.5 -1h19v-54h-291z" />
    <glyph glyph-name="Udblgrave" unicode="&#x214;" horiz-adv-x="808" 
d="M529 889l32 -90v-27h-41l-61 52q-24 22 -38.5 39t-14.5 40q0 22 15 35.5t41 13.5q17 0 30 -7t22 -21t15 -35zM338 889l31 -90v-27h-41l-61 52q-24 22 -38.5 39t-14.5 40q0 22 15 35.5t40 13.5q18 0 31 -7t22.5 -21t15.5 -35zM255 265q0 -57 12.5 -96t36 -62.5t55.5 -34
t71 -10.5q38 0 70 11t55 34.5t36 62.5t13 95v363q0 5 -7.5 9t-19 6.5t-25.5 3.5t-28 1h-9v62h250v-62h-11q-21 0 -39 -3.5t-28 -13t-10 -26.5v-340q0 -75 -20.5 -129t-57 -88t-85 -49.5t-104.5 -15.5q-61 0 -112 16t-88.5 50t-58 87.5t-20.5 128.5v347q0 22 -21.5 29
t-55.5 7h-11v62h300v-61h-9q-13 0 -27 -1t-25.5 -2.5t-19 -3t-7.5 -4.5v-373z" />
    <glyph glyph-name="udblgrave" unicode="&#x215;" horiz-adv-x="670" 
d="M428 755l25 -119v-25h-37l-72 86q-18 22 -28 39t-10 36q0 21 14.5 36t40.5 15q29 0 45 -17.5t22 -50.5zM242 755l26 -119v-25h-38l-72 86q-18 22 -28 39t-10 36q0 21 14.5 36t40.5 15q29 0 45 -17.5t22 -50.5zM224 538v-383q0 -29 7.5 -48.5t24 -29t45.5 -9.5t57 13
t55.5 39t55.5 66l-1 -62q-27 -43 -58.5 -73t-68.5 -45.5t-80 -15.5q-48 0 -83 17t-53.5 52t-18.5 86v290q0 20 -16.5 28.5t-52.5 12.5l-13 2v60h200zM566 538v-441q0 -13 9 -20t25.5 -11t38.5 -6l6 -2v-58h-179l-12 119l-6 6v310q0 20 -18 28.5t-53 12.5l-23 2v60h212z" />
    <glyph glyph-name="Uinvertedbreve" unicode="&#x216;" horiz-adv-x="808" 
d="M420 923q-51 0 -87.5 -17.5t-56.5 -53.5t-23 -92h70q4 30 13.5 46.5t29.5 23.5t52 7t51.5 -7t29.5 -23.5t13 -46.5h75q-2 56 -22.5 92t-57 53.5t-87.5 17.5zM255 265q0 -57 12.5 -96t36 -62.5t55.5 -34t71 -10.5q38 0 70 11t55 34.5t36 62.5t13 95v363q0 5 -7.5 9
t-19 6.5t-25.5 3.5t-28 1h-9v62h250v-62h-11q-21 0 -39 -3.5t-28 -13t-10 -26.5v-340q0 -75 -20.5 -129t-57 -88t-85 -49.5t-104.5 -15.5q-61 0 -112 16t-88.5 50t-58 87.5t-20.5 128.5v347q0 22 -21.5 29t-55.5 7h-11v62h300v-61h-9q-13 0 -27 -1t-25.5 -2.5t-19 -3
t-7.5 -4.5v-373z" />
    <glyph glyph-name="uinvertedbreve" unicode="&#x217;" horiz-adv-x="670" 
d="M329 788q-49 0 -84 -17.5t-53 -55t-19 -98.5h68q3 35 11.5 53.5t26 25.5t47.5 7t48 -7t27 -25.5t11 -53.5h73q0 61 -18.5 98.5t-53 55t-84.5 17.5zM224 538v-383q0 -29 7.5 -48.5t24 -29t45.5 -9.5t57 13t55.5 39t55.5 66l-1 -62q-27 -43 -58.5 -73t-68.5 -45.5
t-80 -15.5q-48 0 -83 17t-53.5 52t-18.5 86v290q0 20 -16.5 28.5t-52.5 12.5l-13 2v60h200zM566 538v-441q0 -13 9 -20t25.5 -11t38.5 -6l6 -2v-58h-179l-12 119l-6 6v310q0 20 -18 28.5t-53 12.5l-23 2v60h212z" />
    <glyph glyph-name="Scommaaccent" unicode="&#x218;" horiz-adv-x="652" 
d="M353 50q48 0 79 11.5t46.5 37.5t15.5 67q0 38 -16 62t-43.5 39.5t-63.5 26t-75 20.5q-44 12 -84.5 26.5t-72 37.5t-49.5 60.5t-18 93.5q0 62 28 105.5t79 67t120 23.5q56 0 98.5 -17t71.5 -55.5t44 -103.5l-29 25l15 138h67v-204h-75q-14 49 -39.5 82.5t-62 50.5
t-82.5 17q-45 0 -73 -12.5t-41.5 -36.5t-13.5 -59q0 -34 14.5 -55.5t40.5 -35t61 -23t76 -20.5q44 -11 86 -25.5t76 -38t53.5 -60.5t19.5 -94q0 -73 -31 -121.5t-87 -72.5t-129 -24q-64 0 -117 19t-89 64t-51 122l34 -30l-14 -162h-71v234h78q16 -60 47.5 -100t76.5 -60
t100 -20zM294 -335l-51 49q33 13 58.5 26.5t40 31.5t14.5 43l15 -7q-9 -5 -21 -7t-24 -2q-34 0 -52 16t-18 42t18.5 43t55.5 17q42 0 63 -22.5t21 -64.5q0 -41 -14.5 -71t-41.5 -52.5t-64 -41.5z" />
    <glyph glyph-name="scommaaccent" unicode="&#x219;" horiz-adv-x="527" 
d="M377 138q0 23 -11.5 38t-31 24.5t-44 15.5t-51.5 12q-33 8 -65 18.5t-58.5 27.5t-42.5 45t-16 70q0 50 25.5 86t72.5 54.5t113 18.5q52 0 90.5 -6t63.5 -14.5t36 -15.5v-124h-100v101q12 1 19.5 -2.5t11.5 -9.5t5.5 -14.5t-0.5 -18.5q-12 13 -31 21.5t-42.5 13t-52.5 4.5
q-55 0 -80.5 -19.5t-25.5 -54.5q0 -23 11 -38t31 -24t45.5 -16t54.5 -13q32 -8 64.5 -18.5t59 -28t42.5 -45t16 -69.5q0 -51 -25.5 -89t-76 -59t-125.5 -21q-52 0 -93.5 7t-72 18.5t-51.5 23.5v131h103v-134q-17 7 -26 15.5t-12.5 17.5t-2.5 17t5 14q15 -13 37 -23
t50.5 -15.5t62.5 -5.5q40 0 65.5 9t39 28t13.5 47zM229 -335l-51 49q33 13 58.5 26.5t40 31.5t14.5 43l15 -7q-9 -5 -21 -7t-24 -2q-34 0 -52 16t-18 42t18.5 43t55.5 17q42 0 63 -22.5t21 -64.5q0 -41 -14.5 -71t-41.5 -52.5t-64 -41.5z" />
    <glyph glyph-name="Tcommaaccent" unicode="&#x21a;" horiz-adv-x="718" 
d="M297 98v546h-48q-44 0 -70.5 -4.5t-39 -15t-14.5 -28.5l-11 -117h-70v231h630v-231h-70l-11 117q-1 18 -14 28.5t-39.5 15t-70.5 4.5h-48v-546q0 -22 23 -29t56 -7h18v-62h-318v62h17q34 0 57 7t23 29zM325 -335l-51 49q33 13 58.5 26.5t40 31.5t14.5 43l15 -7
q-9 -5 -21 -7t-24 -2q-34 0 -52 16t-18 42t18.5 43t55.5 17q42 0 63 -22.5t21 -64.5q0 -41 -14.5 -71t-41.5 -52.5t-64 -41.5z" />
    <glyph glyph-name="tcommaaccent" unicode="&#x21b;" horiz-adv-x="436" 
d="M13 471v62h10q31 0 52.5 4t32.5 18t11 40l79 -57h200v-67h-385zM231 166q0 -40 11 -62.5t32.5 -32t51.5 -9.5q25 0 46.5 3.5t29.5 5.5v-68q-11 -3 -27 -6.5t-34.5 -5.5t-38.5 -2q-51 0 -94.5 14.5t-69 52t-25.5 106.5v360l6 8v161h112v-525zM162 -335l-51 49
q33 13 58.5 26.5t40 31.5t14.5 43l15 -7q-9 -5 -21 -7t-24 -2q-34 0 -52 16t-18 42t18.5 43t55.5 17q42 0 63 -22.5t21 -64.5q0 -41 -14.5 -71t-41.5 -52.5t-64 -41.5z" />
    <glyph glyph-name="Odieresismacron" unicode="&#x22a;" horiz-adv-x="816" 
d="M408 -17q-78 0 -143.5 25t-113.5 73.5t-74 117.5t-26 156q0 88 26 156.5t74 117t113.5 74t143.5 25.5q79 0 144 -25.5t113 -74t74 -117t26 -156.5q0 -87 -26 -156t-74 -117.5t-113 -73.5t-144 -25zM408 53q53 0 94.5 19t71 56.5t45 94.5t15.5 132t-15.5 132t-45 94.5
t-71 56.5t-94.5 19q-52 0 -94 -19t-71.5 -56.5t-45 -94.5t-15.5 -132t15.5 -132t44.5 -94.5t71.5 -56.5t94.5 -19zM360 855q0 -35 -21 -53t-55 -18t-55 18t-21 53t21 53t55 18t55 -18t21 -53zM608 855q0 -35 -21 -53t-55 -18t-55 18t-21 53t21 53t55 18t55 -18t21 -53z
M238 1061h340v-80h-340v80z" />
    <glyph glyph-name="odieresismacron" unicode="&#x22b;" horiz-adv-x="646" 
d="M602 268q0 -85 -34 -148t-97 -97.5t-148 -34.5t-147.5 34.5t-97 97.5t-34.5 148q0 64 19.5 116t56 88.5t88 56t115.5 19.5t115.5 -19.5t88 -56t56 -88.5t19.5 -116zM167 268q0 -71 17.5 -118t52 -70.5t86.5 -23.5q53 0 87.5 23t51.5 70.5t17 118.5q0 70 -17 117t-51.5 71
t-87.5 24q-52 0 -86.5 -24t-52 -71t-17.5 -117zM273 702q0 -35 -21 -53t-55 -18t-55 18t-21 53t21 53t55 18t55 -18t21 -53zM525 702q0 -35 -21 -53t-55 -18t-55 18t-21 53t21 53t55 18t55 -18t21 -53zM153 929h340v-80h-340v80z" />
    <glyph glyph-name="Otildemacron" unicode="&#x22c;" horiz-adv-x="816" 
d="M408 -17q-78 0 -143.5 25t-113.5 73.5t-74 117.5t-26 156q0 88 26 156.5t74 117t113.5 74t143.5 25.5q79 0 144 -25.5t113 -74t74 -117t26 -156.5q0 -87 -26 -156t-74 -117.5t-113 -73.5t-144 -25zM408 53q53 0 94.5 19t71 56.5t45 94.5t15.5 132t-15.5 132t-45 94.5
t-71 56.5t-94.5 19q-52 0 -94 -19t-71.5 -56.5t-45 -94.5t-15.5 -132t15.5 -132t44.5 -94.5t71.5 -56.5t94.5 -19zM479 773q-25 0 -43.5 8.5t-33 20.5t-26.5 23.5t-23 20t-24 8.5q-15 0 -24 -9t-14 -27t-11 -47l-60 15q9 56 22.5 89t37 47.5t58.5 14.5q24 0 42 -7.5
t32 -19.5t26 -23.5t24.5 -19.5t26.5 -8q16 0 25 9t15 27.5t12 46.5l60 -16q-9 -55 -24.5 -89t-39 -49t-58.5 -15zM239 1078h340v-80h-340v80z" />
    <glyph glyph-name="otildemacron" unicode="&#x22d;" horiz-adv-x="646" 
d="M602 268q0 -85 -34 -148t-97 -97.5t-148 -34.5t-147.5 34.5t-97 97.5t-34.5 148q0 64 19.5 116t56 88.5t88 56t115.5 19.5t115.5 -19.5t88 -56t56 -88.5t19.5 -116zM167 268q0 -71 17.5 -118t52 -70.5t86.5 -23.5q53 0 87.5 23t51.5 70.5t17 118.5q0 70 -17 117t-51.5 71
t-87.5 24q-52 0 -86.5 -24t-52 -71t-17.5 -117zM390 618q-24 0 -42 9t-32 23t-25.5 27.5t-22.5 23t-24 9.5q-23 0 -31 -23.5t-16 -70.5l-59 15q9 58 22.5 93.5t36.5 51.5t57 16q22 0 39 -9t31 -22.5t26 -27t24.5 -22.5t26.5 -9q15 0 23 10.5t13.5 31.5t11.5 52l59 -15
q-9 -59 -24.5 -95t-38 -52t-55.5 -16zM152 942h340v-80h-340v80z" />
    <glyph glyph-name="Odotaccentmacron" unicode="&#x230;" horiz-adv-x="816" 
d="M408 -17q-78 0 -143.5 25t-113.5 73.5t-74 117.5t-26 156q0 88 26 156.5t74 117t113.5 74t143.5 25.5q79 0 144 -25.5t113 -74t74 -117t26 -156.5q0 -87 -26 -156t-74 -117.5t-113 -73.5t-144 -25zM408 53q53 0 94.5 19t71 56.5t45 94.5t15.5 132t-15.5 132t-45 94.5
t-71 56.5t-94.5 19q-52 0 -94 -19t-71.5 -56.5t-45 -94.5t-15.5 -132t15.5 -132t44.5 -94.5t71.5 -56.5t94.5 -19zM408 781q-35 0 -56 18t-21 53q0 34 21 52t56 18q34 0 55 -18t21 -52q0 -35 -21 -53t-55 -18zM238 1059h340v-80h-340v80z" />
    <glyph glyph-name="odotaccentmacron" unicode="&#x231;" horiz-adv-x="646" 
d="M602 268q0 -85 -34 -148t-97 -97.5t-148 -34.5t-147.5 34.5t-97 97.5t-34.5 148q0 64 19.5 116t56 88.5t88 56t115.5 19.5t115.5 -19.5t88 -56t56 -88.5t19.5 -116zM167 268q0 -71 17.5 -118t52 -70.5t86.5 -23.5q53 0 87.5 23t51.5 70.5t17 118.5q0 70 -17 117t-51.5 71
t-87.5 24q-52 0 -86.5 -24t-52 -71t-17.5 -117zM323 637q-35 0 -56 18t-21 53q0 34 21 52t56 18q34 0 55 -18t21 -52q0 -35 -21 -53t-55 -18zM153 928h340v-80h-340v80z" />
    <glyph glyph-name="Ymacron" unicode="&#x232;" horiz-adv-x="707" 
d="M294 310l11 -44l-206 349q-9 15 -19 22t-22.5 9t-29.5 2h-8v62h279v-62h-16q-16 0 -32.5 -1t-27 -3t-10.5 -6l183 -321l-31 -2l174 313q0 7 -10.5 11t-27 6.5t-33.5 2.5h-13v62h232v-62h-8q-16 0 -29.5 -3.5t-25 -13.5t-22.5 -28l-195 -340l11 47v-212q0 -22 22.5 -29
t56.5 -7h18v-62h-317v62h18q34 0 56 7t22 29v212zM198 892h340v-80h-340v80z" />
    <glyph glyph-name="ymacron" unicode="&#x233;" horiz-adv-x="646" 
d="M368 64l-23 -52l-52 -44l-200 475q-6 14 -15.5 21.5t-23.5 10.5t-34 3h-6v60h272v-59h-5q-19 0 -36.5 -1t-29.5 -2.5t-12 -4.5zM377 17q-29 -69 -56.5 -117.5t-56 -77.5t-62.5 -42.5t-77 -13.5q-29 0 -52 5.5t-35 12.5v94q4 -1 17 -5.5t32.5 -9t42.5 -4.5q26 0 49 7
t45 27t44 57.5t45 98.5l14 25l157 384q0 6 -10.5 10.5t-28 7.5t-36.5 3h-5v59h228v-60h-6q-17 0 -31 -4t-25 -14t-19 -30zM163 738h340v-80h-340v80z" />
    <glyph glyph-name="dotlessj" unicode="&#x237;" horiz-adv-x="333" 
d="M121 -57v492q0 14 -9.5 21.5t-27 12t-41.5 7.5l-14 2v60h209v-591q0 -54 -16.5 -91t-45 -58.5t-65.5 -31t-78 -9.5q-31 0 -58 4t-39 8v71q16 -4 38 -8.5t49 -4.5q30 0 51.5 10.5t34 36t12.5 69.5z" />
    <glyph glyph-name="bhook" unicode="&#x253;" horiz-adv-x="672" 
d="M210 563v-441l-8 -7l-34 -126h-76v574q0 61 20.5 101t54.5 63.5t76 33.5t84 10q41 0 73.5 -3.5t47.5 -7.5v-84q-19 9 -48 17.5t-68 8.5q-22 0 -44 -5.5t-39.5 -20.5t-28 -42t-10.5 -71zM382 -11q-47 0 -82.5 15.5t-63.5 45t-52 71.5l4 71q26 -43 52 -72t56 -43.5
t67 -14.5q35 0 61.5 13.5t44.5 40.5t27 66.5t9 89.5t-8.5 87.5t-24.5 63.5t-41.5 39t-61.5 13q-37 0 -68.5 -14.5t-58.5 -44t-55 -76.5l-2 65q27 46 56.5 78t66 48.5t84.5 16.5q75 0 127.5 -35t80.5 -96.5t28 -144.5q0 -82 -29.5 -146t-84.5 -100.5t-132 -36.5z" />
    <glyph glyph-name="dhook" unicode="&#x257;" horiz-adv-x="687" 
d="M580 575v-478q0 -20 19.5 -26.5t52.5 -10.5l6 -2v-58h-178l-13 119l-5 -3v460q0 54 15.5 92t42 60.5t61 32.5t71.5 10q25 0 45.5 -2.5t31.5 -5.5v-81q-12 6 -31 13t-38 7q-17 0 -31.5 -5.5t-25.5 -19.5t-17 -38.5t-6 -63.5zM291 548q45 0 80.5 -16t64 -46t51.5 -74
l-3 -68q-25 45 -51 73.5t-56 43t-67 14.5q-35 0 -62 -14t-45 -40.5t-27 -66t-9 -90.5q0 -49 8 -87t25 -63.5t42.5 -38.5t61.5 -13q38 0 68.5 14t58 44t54.5 76l2 -65q-26 -45 -55 -77t-65.5 -48.5t-85.5 -16.5q-75 0 -128 34.5t-81 96.5t-28 144q0 83 29.5 146.5t85 100.5
t132.5 37z" />
    <glyph glyph-name="schwa" unicode="&#x259;" horiz-adv-x="590" 
d="M432 272q0 57 -11.5 96.5t-33 63.5t-51.5 35.5t-66 11.5q-41 0 -72.5 -14t-54.5 -36t-40 -48l-55 42q22 38 54.5 66t76.5 43.5t98 15.5q82 0 143 -32t95.5 -93.5t34.5 -151.5q0 -84 -33 -148t-92 -99.5t-136 -35.5q-61 0 -106.5 19.5t-75.5 57.5t-45 95.5t-16 133.5h430
v-63h-339l25 24q2 -74 15 -118t40 -63t71 -19q33 0 59 13t45 39t29.5 67.5t10.5 97.5z" />
    <glyph glyph-name="primemod" unicode="&#x2b9;" horiz-adv-x="251" 
d="M218 740h-117q-6 -31 -8 -57t-3.5 -56t-5.5 -68.5t-15 -92.5h70q10 49 21 85t22 65.5t20.5 59t15.5 64.5z" />
    <glyph glyph-name="doubleprimemod" unicode="&#x2ba;" horiz-adv-x="420" 
d="M218 740h-117q-6 -31 -8 -57t-3.5 -56t-5.5 -68.5t-15 -92.5h70q10 49 21 85t22 65.5t20.5 59t15.5 64.5zM395 740h-117q-6 -31 -8 -57t-3.5 -56t-5.5 -68.5t-15 -92.5h70q10 49 21 85t22 65.5t20.5 59t15.5 64.5z" />
    <glyph glyph-name="commaturnedmod" unicode="&#x2bb;" horiz-adv-x="265" 
d="M175 755l68 -50q-26 -13 -49 -29t-40 -34.5t-26.5 -41t-10.5 -51.5l-20 9q11 7 21.5 9t20.5 2q34 0 54 -16.5t20 -48.5q0 -29 -20.5 -48t-56.5 -19q-39 0 -61.5 22.5t-22.5 71.5q0 40 9 73.5t25.5 60.5t39 49.5t49.5 40.5z" />
    <glyph glyph-name="apostrophemod" unicode="&#x2bc;" horiz-adv-x="265" 
d="M100 430l-68 50q27 14 49.5 29.5t39.5 34t26.5 41.5t10.5 52l20 -10q-10 -6 -20.5 -8t-20.5 -2q-34 0 -54.5 16.5t-20.5 47.5q0 29 20.5 48.5t56.5 19.5q40 0 62 -22.5t22 -72.5q0 -40 -9 -73.5t-25.5 -60.5t-39 -49.5t-49.5 -40.5z" />
    <glyph glyph-name="ringhalfright" unicode="&#x2be;" horiz-adv-x="500" 
d="M246 822v-48q29 0 45.5 -16t16.5 -48t-16.5 -48t-45.5 -16v-49q41 0 71.5 14t48 40t17.5 59t-17.5 58.5t-48 39.5t-71.5 14z" />
    <glyph glyph-name="ringhalfleft" unicode="&#x2bf;" horiz-adv-x="500" 
d="M248 646v-49q-41 0 -72 14t-48 40t-17 59t17 58.5t48 39.5t72 14v-48q-28 0 -44.5 -16t-16.5 -48t16.5 -48t44.5 -16z" />
    <glyph glyph-name="circumflex" unicode="&#x2c6;" horiz-adv-x="500" 
d="M297 794h-90l-124 -166v-20h45l157 130l-75 -2l157 -128h55v20z" />
    <glyph glyph-name="caron" unicode="&#x2c7;" horiz-adv-x="500" 
d="M203 609h90l124 166v20h-45l-157 -130l75 2l-157 128h-55v-20z" />
    <glyph glyph-name="verticallinemod" unicode="&#x2c8;" horiz-adv-x="500" 
d="M206 510v240h88v-240h-88z" />
    <glyph glyph-name="firsttonechinese" unicode="&#x2c9;" horiz-adv-x="500" 
d="M80 737h340v-80h-340v80z" />
    <glyph glyph-name="secondtonechinese" unicode="&#x2ca;" horiz-adv-x="500" 
d="M247 754q8 20 18.5 35t24.5 22.5t32 7.5q26 0 41.5 -15t15.5 -37q0 -13 -6 -26t-16.5 -25t-24.5 -23l-99 -84h-37v26z" />
    <glyph glyph-name="fourthtonechinese" unicode="&#x2cb;" horiz-adv-x="500" 
d="M269 754l51 -119v-26h-39l-100 83q-14 11 -24.5 23t-16 25t-5.5 26q0 22 16 38t41 16q19 0 33 -8t25 -23t19 -35z" />
    <glyph glyph-name="verticallinelowmod" unicode="&#x2cc;" horiz-adv-x="500" 
d="M206 -289v241h88v-241h-88z" />
    <glyph glyph-name="breve" unicode="&#x2d8;" horiz-adv-x="500" 
d="M251 616q50 0 84 17.5t53 55t19 98.5h-68q-2 -36 -11 -54.5t-26.5 -25t-47.5 -6.5t-48.5 6.5t-27 25t-10.5 54.5h-74q1 -61 19.5 -98.5t53.5 -55t84 -17.5z" />
    <glyph glyph-name="dotaccent" unicode="&#x2d9;" horiz-adv-x="500" 
d="M250 636q-35 0 -56 18t-21 53q0 34 21 52t56 18q34 0 55 -18t21 -52q0 -35 -21 -53t-55 -18z" />
    <glyph glyph-name="ring" unicode="&#x2da;" horiz-adv-x="500" 
d="M187 710q0 -32 16 -48t44 -16t44.5 16t16.5 48t-16.5 48t-44.5 16t-44 -16t-16 -48zM383 710q0 -33 -17.5 -59t-47.5 -40t-71 -14q-40 0 -71 14t-48 40t-17 59t17 58.5t48 39.5t71 14q41 0 71 -14t47.5 -39.5t17.5 -58.5z" />
    <glyph glyph-name="ogonek" unicode="&#x2db;" horiz-adv-x="600" 
d="M382 37l30 -29q-37 -25 -61 -45.5t-37 -37.5t-18 -32t-5 -30q0 -23 12 -34.5t33 -11.5q24 0 41.5 13t28.5 24l36 -38q-24 -27 -55 -44t-83 -17q-55 0 -91 23.5t-36 69.5q0 26 11.5 47.5t36 42.5t64 45t93.5 54z" />
    <glyph glyph-name="tilde" unicode="&#x2dc;" horiz-adv-x="500" 
d="M318 617q-24 0 -42 9t-32 23t-25.5 27.5t-22.5 23t-24 9.5q-23 0 -31 -23.5t-16 -70.5l-59 15q9 58 22.5 93.5t36.5 51.5t57 16q22 0 39 -9t31 -22.5t26 -27t24.5 -22.5t26.5 -9q15 0 23 10.5t13.5 31.5t11.5 52l59 -15q-9 -59 -24.5 -95t-38 -52t-55.5 -16z" />
    <glyph glyph-name="hungarumlaut" unicode="&#x2dd;" horiz-adv-x="500" 
d="M125 754q7 33 23 50t44 17q27 0 41 -14.5t14 -35.5q0 -19 -9.5 -36.5t-27.5 -38.5l-72 -86h-38v25zM311 754q7 33 23 50t44 17q27 0 41 -14.5t14 -35.5q0 -19 -9.5 -36.5t-28.5 -38.5l-72 -86h-37v25z" />
    <glyph glyph-name="gravecomb" unicode="&#x300;" horiz-adv-x="50" 
d="M-282 754l51 -119v-26h-37l-99 84q-14 11 -24.5 23t-16.5 25t-6 26q0 22 15.5 37t41.5 15q19 0 32.5 -7.5t24.5 -22.5t18 -35z" />
    <glyph glyph-name="acutecomb" unicode="&#x301;" horiz-adv-x="50" 
d="M-364 754q8 20 18.5 35t24.5 22.5t32 7.5q26 0 41.5 -15t15.5 -37q0 -13 -6 -26t-16.5 -25t-24.5 -23l-99 -84h-37v26z" />
    <glyph glyph-name="circumflexcomb" unicode="&#x302;" horiz-adv-x="50" 
d="M-279 794h-90l-124 -166v-20h45l157 130l-75 -2l157 -128h55v20z" />
    <glyph glyph-name="tildecomb" unicode="&#x303;" horiz-adv-x="50" 
d="M-257 617q-24 0 -42 9t-32 23t-25.5 27.5t-22.5 23t-24 9.5q-23 0 -31 -23.5t-16 -70.5l-59 15q9 58 22.5 93.5t36.5 51.5t57 16q22 0 39 -9t31 -22.5t26 -27t24.5 -22.5t26.5 -9q15 0 23 10.5t13.5 31.5t11.5 52l59 -15q-9 -59 -24.5 -95t-38 -52t-55.5 -16z" />
    <glyph glyph-name="macroncomb" unicode="&#x304;" horiz-adv-x="50" 
d="M-493 737h340v-80h-340v80z" />
    <glyph glyph-name="brevecomb" unicode="&#x306;" horiz-adv-x="50" 
d="M-323 616q50 0 84 17.5t53 55t19 98.5h-68q-2 -36 -11 -54.5t-26.5 -25t-47.5 -6.5t-48.5 6.5t-27 25t-10.5 54.5h-74q1 -61 19.5 -98.5t53.5 -55t84 -17.5z" />
    <glyph glyph-name="dotaccentcomb" unicode="&#x307;" horiz-adv-x="50" 
d="M-323 636q-35 0 -56 18t-21 53q0 34 21 52t56 18q34 0 55 -18t21 -52q0 -35 -21 -53t-55 -18z" />
    <glyph glyph-name="dieresiscomb" unicode="&#x308;" horiz-adv-x="50" 
d="M-373 701q0 -35 -21 -53t-55 -18t-55 18t-21 53t21 53t55 18t55 -18t21 -53zM-121 701q0 -35 -21 -53t-55 -18t-55 18t-21 53t21 53t55 18t55 -18t21 -53z" />
    <glyph glyph-name="hookabovecomb" unicode="&#x309;" horiz-adv-x="50" 
d="M-467 748h91q2 18 8 28t18 15t32 5q28 0 40 -11t12 -34q0 -21 -10.5 -34t-31.5 -18.5t-56 -7.5v-86h79v80l-45 -38q44 2 80 12.5t57.5 33.5t21.5 61q0 34 -17.5 57t-50 34t-78.5 11q-44 0 -77 -13t-51.5 -37t-21.5 -58z" />
    <glyph glyph-name="ringcomb" unicode="&#x30a;" horiz-adv-x="50" 
d="M-383 710q0 -32 16 -48t44 -16t44.5 16t16.5 48t-16.5 48t-44.5 16t-44 -16t-16 -48zM-187 710q0 -33 -17.5 -59t-47.5 -40t-71 -14q-40 0 -71 14t-48 40t-17 59t17 58.5t48 39.5t71 14q41 0 71 -14t47.5 -39.5t17.5 -58.5z" />
    <glyph glyph-name="hungarumlautcomb" unicode="&#x30b;" horiz-adv-x="50" 
d="M-465 754q7 33 23 50t44 17q27 0 41 -14.5t14 -35.5q0 -19 -9.5 -36.5t-27.5 -38.5l-72 -86h-38v25zM-279 754q7 33 23 50t44 17q27 0 41 -14.5t14 -35.5q0 -19 -9.5 -36.5t-28.5 -38.5l-72 -86h-37v25z" />
    <glyph glyph-name="caroncomb" unicode="&#x30c;" horiz-adv-x="50" 
d="M-368 609h90l124 166v20h-45l-158 -130l75 2l-156 128h-55v-20z" />
    <glyph glyph-name="dblgravecomb" unicode="&#x30f;" horiz-adv-x="50" 
d="M-182 754l25 -119v-25h-37l-72 86q-18 21 -28 38.5t-10 36.5q0 21 14.5 35.5t40.5 14.5q29 0 45 -17t22 -50zM-368 754l26 -119v-25h-38l-72 86q-18 21 -27.5 38.5t-9.5 36.5q0 21 14.5 35.5t39.5 14.5q29 0 45 -17t22 -50z" />
    <glyph glyph-name="breveinvertedcomb" unicode="&#x311;" horiz-adv-x="50" 
d="M-324 788q-49 0 -83.5 -17.5t-53 -55t-19.5 -98.5h73q3 35 11.5 53.5t26.5 25.5t48 7t48 -7t26.5 -25.5t10.5 -53.5h68q0 61 -18.5 98.5t-53 55t-84.5 17.5z" />
    <glyph glyph-name="commaturnedabovecomb" unicode="&#x312;" horiz-adv-x="50" 
d="M-291 954l68 -50q-27 -13 -50 -29t-40 -34.5t-26.5 -41t-10.5 -51.5l-19 9q10 7 20.5 9t20.5 2q34 0 54 -16.5t20 -48.5q0 -29 -20.5 -48t-56.5 -19q-39 0 -61 22.5t-22 71.5q0 40 9 73.5t25 61t38.5 49.5t50.5 40z" />
    <glyph glyph-name="horncomb" unicode="&#x31b;" horiz-adv-x="50" 
d="M-428 489l-38 54q57 0 92.5 7.5t55 26.5t28 51.5t10.5 81.5h98q-2 -66 -17 -109t-44 -67.5t-75 -35t-110 -9.5z" />
    <glyph glyph-name="dotbelowcomb" unicode="&#x323;" horiz-adv-x="50" 
d="M-323 -226q-35 0 -56 18t-21 53q0 34 21 52t56 18q34 0 55 -18t21 -52q0 -35 -21 -53t-55 -18z" />
    <glyph glyph-name="dieresisbelowcomb" unicode="&#x324;" horiz-adv-x="50" 
d="M-373 -157q0 -35 -21 -53t-55 -18t-55 18t-21 53t21 53t55 18t55 -18t21 -53zM-121 -157q0 -35 -21 -53t-55 -18t-55 18t-21 53t21 53t55 18t55 -18t21 -53z" />
    <glyph glyph-name="commaaccentcomb" unicode="&#x326;" horiz-adv-x="50" 
d="M-357 -335l-51 49q33 13 58.5 26.5t40 31.5t14.5 43l15 -7q-9 -5 -21 -7t-24 -2q-34 0 -52 16t-18 42t18.5 43t55.5 17q42 0 63 -22.5t21 -64.5q0 -41 -14.5 -71t-41.5 -52.5t-64 -41.5z" />
    <glyph glyph-name="cedillacomb" unicode="&#x327;" horiz-adv-x="50" 
d="M-271 5l-67 -84l-3 15q49 1 83 -9.5t52 -32t18 -55.5q0 -28 -11 -47.5t-30.5 -32t-44.5 -18.5t-53 -6q-48 0 -80.5 16.5t-52.5 41.5l41 41q9 -9 21.5 -20t28.5 -18t36 -7q27 0 41 12t14 37q0 24 -16.5 38t-62.5 14h-31l37 115h80z" />
    <glyph glyph-name="ogonekcomb" unicode="&#x328;" horiz-adv-x="50" 
d="M-257 37l30 -29q-37 -25 -61 -45.5t-37 -37.5t-18 -32t-5 -30q0 -23 12 -34.5t33 -11.5q24 0 41.5 13t28.5 24l36 -38q-24 -27 -55 -44t-83 -17q-55 0 -91 23.5t-36 69.5q0 26 11.5 47.5t36 42.5t64 45t93.5 54z" />
    <glyph glyph-name="brevebelowcomb" unicode="&#x32e;" horiz-adv-x="50" 
d="M-329 -251q50 0 84 17.5t53 55t19 98.5h-68q-2 -36 -11 -54.5t-26.5 -25t-47.5 -6.5t-48.5 6.5t-27 25t-10.5 54.5h-74q1 -61 19.5 -98.5t53.5 -55t84 -17.5z" />
    <glyph glyph-name="macronbelowcomb" unicode="&#x331;" horiz-adv-x="50" 
d="M-493 -115h340v-80h-340v80z" />
    <glyph glyph-name="Delta" unicode="&#x394;" horiz-adv-x="757" 
d="M47 0v96l269 614h125l269 -614v-96h-663zM602 61l-267 624l44 11l-273 -633l-26 36h565z" />
    </font>
</defs>
</svg>
