<?xml version="1.0" encoding="utf-8"?><svg xmlns="http://www.w3.org/2000/svg" xmlns:xlink="http://www.w3.org/1999/xlink"><symbol fill="none" viewBox="0 0 24 24" id="analytics" xmlns="http://www.w3.org/2000/svg"><path d="M18.364 5.636a9 9 0 010 12.728 9 9 0 110-12.728" stroke="#232323" stroke-linecap="round" stroke-linejoin="round"/><path clip-rule="evenodd" d="M15 16h-2V8a1 1 0 011-1h1a1 1 0 011 1v7a1 1 0 01-1 1z" stroke="#232323" stroke-linecap="round" stroke-linejoin="round"/><path d="M13 16h-3v-5a1 1 0 011-1h2m-3 6H8a1 1 0 01-1-1v-1a1 1 0 011-1h2" stroke="#232323" stroke-linecap="round" stroke-linejoin="round"/></symbol><symbol fill="none" viewBox="0 0 24 24" id="bell" xmlns="http://www.w3.org/2000/svg"><path d="M13.6 20h-3.2" stroke="#232323" stroke-linecap="round" stroke-linejoin="round"/><path clip-rule="evenodd" d="M17 10.032V10v0a5 5 0 00-5-5v0a5 5 0 00-5 5v2.504a.855.855 0 01-.472.764l-.503.251A1.857 1.857 0 005 15.178v0c0 1.024.83 1.854 1.854 1.854h10.292c1.024 0 1.854-.83 1.854-1.854v0c0-.702-.397-1.344-1.025-1.658l-.503-.251a.857.857 0 01-.472-.765v-2.472z" stroke="#232323" stroke-linecap="round" stroke-linejoin="round"/><path d="M18.951 6.05a8.029 8.029 0 00-3-3m-10.902 3a8.029 8.029 0 013-3" stroke="#232323" stroke-linecap="round" stroke-linejoin="round"/></symbol><symbol fill="none" viewBox="0 0 20 21" id="calendar" xmlns="http://www.w3.org/2000/svg"><path d="M14 1v4M6 1v4M1 8h18" stroke="#232323" stroke-linecap="round" stroke-linejoin="round"/><path clip-rule="evenodd" d="M17 3H3a2 2 0 00-2 2v13a2 2 0 002 2h14a2 2 0 002-2V5a2 2 0 00-2-2z" stroke="#232323" stroke-linecap="round" stroke-linejoin="round"/><path d="M10.013 11.73a.25.25 0 10.002.5.25.25 0 00-.002-.5m5 0a.25.25 0 10.002.5.25.25 0 00-.002-.5m-10 4a.25.25 0 10.002.5.25.25 0 00-.002-.5m5 0a.25.25 0 10.002.5.25.25 0 00-.002-.5" stroke="#232323" stroke-linecap="round" stroke-linejoin="round"/></symbol><symbol fill="none" viewBox="0 0 26 26" id="chat" xmlns="http://www.w3.org/2000/svg"><path d="M19.503 19.566v1.936a.5.5 0 01-.854.354l-2.29-2.29m2.644-9.066h.504a2.498 2.498 0 012.497 2.498v4.072a2.498 2.498 0 01-2.497 2.498v0" stroke="#232323" stroke-linecap="round" stroke-linejoin="round"/><path d="M16.363 19.57h-2.867A2.498 2.498 0 0111 17.072v-1.068" stroke="#232323" stroke-linecap="round" stroke-linejoin="round"/><path clip-rule="evenodd" d="M9.705 13L7.35 15.353A.5.5 0 016.497 15v-2h-.003a2.497 2.497 0 01-2.498-2.498V6.494a2.498 2.498 0 012.498-2.498h7.01A2.498 2.498 0 0116 6.494v4.008A2.497 2.497 0 0113.504 13h-3.8z" stroke="#232323" stroke-linecap="round" stroke-linejoin="round"/></symbol><symbol fill="none" viewBox="0 0 26 26" id="completionrate" xmlns="http://www.w3.org/2000/svg"><path d="M3.996 19.004h5.002m0 3h-3m7.002 0A9.004 9.004 0 103.996 13c.003.674.083 1.345.238 2" stroke="#232323" stroke-linecap="round" stroke-linejoin="round"/><path d="M12.718 9v4.638l3.657 2.23" stroke="#232323" stroke-linecap="round" stroke-linejoin="round"/></symbol><symbol fill="none" viewBox="0 0 26 26" id="customplatform" xmlns="http://www.w3.org/2000/svg"><path clip-rule="evenodd" d="M7.498 22.005v0a3.501 3.501 0 01-3.502-3.502V5.998a2 2 0 012-2h3.002a2 2 0 012.001 2v12.505a3.501 3.501 0 01-3.501 3.502z" stroke="#232323" stroke-linecap="round" stroke-linejoin="round"/><path d="M9.974 20.98l9.715-9.716a2 2 0 000-2.829l-2.122-2.122a2 2 0 00-2.83 0L11 10.05" stroke="#232323" stroke-linecap="round" stroke-linejoin="round"/><path d="M15.952 15.002h4.051a2 2 0 012.001 2v3.002a2 2 0 01-2 2H7.497M3.996 15.96H11M3.996 9.914H11" stroke="#232323" stroke-linecap="round" stroke-linejoin="round"/></symbol><symbol fill="none" viewBox="0 0 24 24" id="degree-material" xmlns="http://www.w3.org/2000/svg"><path clip-rule="evenodd" d="M5 20H3.618a.559.559 0 01-.56-.559v-4.382c0-.309.25-.559.56-.559H5c.309 0 .559.25.559.601v4.382c0 .267-.25.517-.56.517v0z" stroke="#232323" stroke-linecap="round" stroke-linejoin="round"/><path d="M5.559 15.685l1.846-3.021c.71-1.163 2.502-.66 2.502.704v1.595h1.51c.453 0 .876.227 1.128.606.223.335.288.752.177 1.139l-.732 2.562c-.124.432-.52.73-.968.73H7.439a1.25 1.25 0 01-.798-.288l-1.082-.897" stroke="#232323" stroke-linecap="round" stroke-linejoin="round"/><path clip-rule="evenodd" d="M19.059 4.059h1.382c.309 0 .559.25.559.559V9c0 .309-.25.559-.559.559h-1.382c-.309 0-.559-.25-.559-.601V4.576c0-.267.25-.517.559-.517v0z" stroke="#232323" stroke-linecap="round" stroke-linejoin="round"/><path d="M18.5 8.374l-1.846 3.02c-.71 1.164-2.502.66-2.502-.703V9.096h-1.51c-.453 0-.876-.227-1.128-.606a1.374 1.374 0 01-.177-1.14l.732-2.561c.124-.432.52-.73.968-.73h3.583c.291 0 .574.102.798.288l1.082.897M21 15v4a2 2 0 01-2 2h-4M3 9V5a2 2 0 012-2h4" stroke="#232323" stroke-linecap="round" stroke-linejoin="round"/></symbol><symbol fill="none" viewBox="0 0 22 22" id="flag-en-rounded" xmlns="http://www.w3.org/2000/svg"><mask id="aha" style="mask-type:alpha" maskUnits="userSpaceOnUse" x="0" y="0" width="22" height="22"><circle cx="11" cy="11" r="11" fill="#C4C4C4"/></mask><g mask="url(#aha)"><path fill="#E5394B" d="M-11 3.383h44v1.692h-44zM-11 0h44v1.692h-44zm0 6.77h44v1.692h-44zm0 3.382h44v1.692h-44zm0 3.386h44v1.692h-44zm0 3.384h44v1.692h-44zm0 3.386h44V22h-44z"/><path fill="#14599F" d="M-11 0h22v11.846h-22z"/><path d="M0 0l.19.585h.614L.307.946l.19.585-.498-.362-.497.362.19-.585-.497-.361h.615L0 0zm0 3.383l.19.584h.614l-.497.362.19.585-.498-.362-.497.362.19-.585-.497-.362h.615L0 3.383zM0 6.77l.19.584h.614l-.497.362.19.584-.498-.361-.497.361.19-.584-.497-.362h.615L0 6.77zm0 3.382l.19.585h.614l-.497.361.19.585-.498-.361-.497.361.19-.585-.497-.361h.615l.19-.585zM3.385 0l.19.585h.614l-.497.361.19.585-.497-.362-.498.362.19-.585L2.58.585h.615L3.385 0zm0 3.383l.19.584h.614l-.497.362.19.585-.497-.362-.498.362.19-.585-.497-.362h.615l.19-.584zm0 3.387l.19.584h.614l-.497.362.19.584-.497-.361-.498.361.19-.584-.497-.362h.615l.19-.584zm0 3.382l.19.585h.614l-.497.361.19.585-.497-.361-.498.361.19-.585-.497-.361h.615l.19-.585zm-1.692-1.69l.19.585h.615L2 9.407l.19.586-.497-.362-.498.362.19-.585-.497-.361h.615l.19-.585zm0-3.384l.19.585h.615L2 6.024l.19.585-.497-.362-.498.362.19-.585-.497-.361h.615l.19-.585zm0-3.386l.19.585h.615L2 2.638l.19.585-.497-.361-.498.361.19-.585-.497-.36h.615l.19-.586zM6.769 0l.19.585h.614l-.497.361.19.585-.497-.362-.498.362.19-.585-.497-.361h.615L6.769 0zm0 3.383l.19.584h.614l-.497.362.19.585-.497-.362-.498.362.19-.585-.497-.362h.615l.19-.584zm0 3.387l.19.584h.614l-.497.362.19.584-.497-.361-.498.361.19-.584-.497-.362h.615l.19-.584zm0 3.382l.19.585h.614l-.497.361.19.585-.497-.361-.498.361.19-.585-.497-.361h.615l.19-.585zm-1.692-1.69l.19.585h.614l-.497.36.19.586-.497-.362-.498.362.19-.585-.497-.361h.615l.19-.585zm0-3.384l.19.585h.614l-.497.361.19.585-.497-.362-.498.362.19-.585-.497-.361h.615l.19-.585zm0-3.386l.19.585h.614l-.497.361.19.585-.497-.361-.498.361.19-.585-.497-.36h.615l.19-.586zM10.154 0l.19.585h.615l-.497.361.19.585-.498-.362-.497.362.19-.585L9.35.585h.614l.19-.585zm0 3.383l.19.584h.615l-.497.362.19.585-.498-.362-.497.362.19-.585-.497-.362h.614l.19-.584zm0 3.387l.19.584h.615l-.497.362.19.584-.498-.361-.497.361.19-.584-.497-.362h.614l.19-.584zm0 3.382l.19.585h.615l-.497.361.19.585-.498-.361-.497.361.19-.585-.497-.361h.614l.19-.585zm-1.692-1.69l.19.585h.615l-.497.36.19.586-.498-.362-.497.362.19-.585-.497-.361h.614l.19-.585zm0-3.384l.19.585h.615l-.497.361.19.585-.498-.362-.497.362.19-.585-.497-.361h.614l.19-.585zm0-3.386l.19.585h.615l-.497.361.19.585-.498-.361-.497.361.19-.585-.497-.36h.614l.19-.586z" fill="#fff"/></g></symbol><symbol fill="none" viewBox="0 0 22 22" id="flag-ru-rounded" xmlns="http://www.w3.org/2000/svg"><mask id="aia" style="mask-type:alpha" maskUnits="userSpaceOnUse" x="0" y="0" width="22" height="22"><rect width="22" height="22" rx="11" fill="#fff"/></mask><g mask="url(#aia)"><path fill="#fff" d="M0 0h22v7H0z"/><path fill="#E5394B" d="M0 15h22v7H0z"/><path fill="#14599F" d="M0 7h22v8H0z"/></g></symbol><symbol fill="none" viewBox="0 0 24 24" id="gamemechanic" xmlns="http://www.w3.org/2000/svg"><path d="M7.5 17.332v-2.66M6.17 16h2.66" stroke="#232323" stroke-linecap="round" stroke-linejoin="round"/><path clip-rule="evenodd" d="M7.398 11a5 5 0 00-3.536 8.536 5 5 0 007.071 0h2.134a5 5 0 007.071 0A5 5 0 0016.602 11H7.398v0z" stroke="#232323" stroke-linecap="round" stroke-linejoin="round"/><path d="M17.335 16.816a.25.25 0 11-.002.5.25.25 0 01.002-.5m-2.134-2.132a.25.25 0 11-.251.25.252.252 0 01.251-.25M12 11V9.5A2.5 2.5 0 0114.5 7v0A2.5 2.5 0 0017 4.5V3" stroke="#232323" stroke-linecap="round" stroke-linejoin="round"/></symbol><symbol fill="none" viewBox="0 0 24 24" id="groupexclude" xmlns="http://www.w3.org/2000/svg"><path d="M3 18l3 3m-3 0l3-3m4.5 0l3 3m-3 0l3-3m4.5 0l3 3m-3 0l3-3m-5.552-5.094C15.047 11.812 13.668 11 12 11c-1.67 0-3.047.812-3.448 1.906" stroke="#232323" stroke-linecap="round" stroke-linejoin="round"/><path d="M16.243 3.757a6 6 0 11-8.485 8.486 6 6 0 018.485-8.486" stroke="#232323" stroke-linecap="round" stroke-linejoin="round"/><path d="M13.414 5.336a2 2 0 11-2.828 2.828 2 2 0 012.828-2.828" stroke="#232323" stroke-linecap="round" stroke-linejoin="round"/></symbol><symbol fill="none" viewBox="0 0 24 24" id="hearth" xmlns="http://www.w3.org/2000/svg"><path clip-rule="evenodd" d="M15.696 4C18.871 4 21 6.98 21 9.755 21 15.388 12.161 20 12 20c-.161 0-9-4.612-9-10.245C3 6.98 5.129 4 8.304 4c1.815 0 3.007.905 3.696 1.711C12.689 4.905 13.881 4 15.696 4z" stroke="#232323" stroke-linecap="round" stroke-linejoin="round"/></symbol><symbol fill="none" viewBox="0 0 25 25" id="homework" xmlns="http://www.w3.org/2000/svg"><path clip-rule="evenodd" d="M7.503 9.002H4.502A1.5 1.5 0 013 7.502V4.5A1.5 1.5 0 014.501 3h3.002a1.5 1.5 0 011.5 1.5v3.002a1.5 1.5 0 01-1.5 1.5zm12.005 0h-6.002a1.5 1.5 0 01-1.501-1.5V4.5a1.5 1.5 0 011.5-1.5h6.003a1.5 1.5 0 011.5 1.5v3.002a1.5 1.5 0 01-1.5 1.5z" stroke="#232323" stroke-linecap="round" stroke-linejoin="round"/><path d="M11.575 13.504l-4.323 4.233-1.42-1.422" stroke="#232323" stroke-linecap="round" stroke-linejoin="round"/><path d="M8.36 12.434H5.492a2.491 2.491 0 00-2.491 2.49v3.593a2.491 2.491 0 002.491 2.491h3.593a2.491 2.491 0 002.49-2.49v-.725" stroke="#232323" stroke-linecap="round" stroke-linejoin="round"/><path clip-rule="evenodd" d="M19.508 18.006h-3.002a1.5 1.5 0 01-1.5-1.5v-3.002a1.5 1.5 0 011.5-1.5h3.002a1.5 1.5 0 011.5 1.5v3.002a1.5 1.5 0 01-1.5 1.5z" stroke="#232323" stroke-linecap="round" stroke-linejoin="round"/></symbol><symbol fill="none" viewBox="0 0 20 20" id="html5" xmlns="http://www.w3.org/2000/svg"><path clip-rule="evenodd" d="M11.46 18.737l4.418-2.524a3.996 3.996 0 001.975-2.907l1.105-7.739A4 4 0 0014.998 1H5.002a4 4 0 00-3.96 4.566l1.085 7.596A3.999 3.999 0 004.31 16.18l5.27 2.612a2 2 0 001.88-.055v0z" stroke="#232323" stroke-linecap="round" stroke-linejoin="round"/><path d="M6 12l.111.778L10 15l3.889-2.222.54-3.778H5.571L5 5h10" stroke="#232323" stroke-linecap="round" stroke-linejoin="round"/></symbol><symbol fill="none" viewBox="0 0 24 24" id="mailing" xmlns="http://www.w3.org/2000/svg"><path clip-rule="evenodd" d="M14.6 6.7v0c.4.4.5.9.4 1.3l-1.1 5.8c-.3 1.4-1.4 2.5-2.8 2.8l-5.8 1.1c-.5.1-1-.1-1.3-.4v0c-.6-.6-.6-1.5 0-2.1l8.5-8.5c.5-.6 1.5-.6 2.1 0v0z" stroke="#232323" stroke-linecap="round" stroke-linejoin="round"/><path d="M9 4.1a.05.05 0 01-.05-.05A.05.05 0 019 4a.05.05 0 01.05.05.05.05 0 01-.05.05M3 21h18M3 7V4m3 1V4m8.6 2.7l5.2 5.2c.8.8.8 2 0 2.8L13.5 21m-9.6-3.598l3.7 3.6" stroke="#232323" stroke-linecap="round" stroke-linejoin="round"/></symbol><symbol fill="none" viewBox="0 0 26 26" id="markhistory" xmlns="http://www.w3.org/2000/svg"><path d="M9.999 7.438h11.005m0 5.562H9.999m0 5.563h11.005M5.497 6.938a.5.5 0 100 1 .5.5 0 000-1m0 5.562a.5.5 0 100 1 .5.5 0 000-1m0 5.563a.5.5 0 100 1 .5.5 0 000-1" stroke="#232323" stroke-linecap="round" stroke-linejoin="round"/></symbol><symbol fill="none" viewBox="0 0 24 24" id="nocode" xmlns="http://www.w3.org/2000/svg"><path d="M13.78 4l-3.56 16M18 8l4 4-4 4M6 16l-4-4 4-4" stroke="#232323" stroke-linecap="round" stroke-linejoin="round"/></symbol><symbol fill="none" viewBox="0 0 24 24" id="nps" xmlns="http://www.w3.org/2000/svg"><path clip-rule="evenodd" d="M5.984 21H4a1 1 0 01-1-1v-6a1 1 0 011-1h1.984a1 1 0 011 1v6a1 1 0 01-1 1z" stroke="#232323" stroke-linecap="round" stroke-linejoin="round"/><path d="M12.96 17h2.324c.431 0 .85-.14 1.195-.4l2.406-1.813a1.505 1.505 0 011.972.141v0a1.52 1.52 0 010 2.142l-2.064 2.073a3.98 3.98 0 01-2.036 1.094l-2.919.586a3.968 3.968 0 01-1.748-.042l-2.639-.662c-.315-.08-.64-.12-.966-.12h-1.5" stroke="#232323" stroke-linecap="round" stroke-linejoin="round"/><path d="M12.96 17h1.48c.832 0 1.508-.678 1.508-1.515v-.303c0-.695-.47-1.301-1.143-1.469l-2.283-.573a4.665 4.665 0 00-1.134-.14v0c-.923 0-1.826.274-2.594.789L6.984 15" stroke="#232323" stroke-linecap="round" stroke-linejoin="round"/><path clip-rule="evenodd" d="M15.286 3.66l-.349.374-.35-.373a2.086 2.086 0 00-2.887-.153v0c-.867.748-.97 2.045-.257 2.943 1.02 1.284 2.19 2.552 3.494 3.549 1.338-1.022 2.532-2.328 3.57-3.645.674-.855.535-2.096-.287-2.807l-.038-.033a2.09 2.09 0 00-2.896.146v0z" stroke="#232323" stroke-linecap="round" stroke-linejoin="round"/></symbol><symbol fill="none" viewBox="0 0 26 26" id="paymentmodule" xmlns="http://www.w3.org/2000/svg"><path d="M3.996 9h18.008M10.5 13H7.997m3.002 6.002H6.997a3.001 3.001 0 01-3-3.001V7.997a3.001 3.001 0 013-3h12.005a3.001 3.001 0 013.002 3V12" stroke="#232323" stroke-linecap="round" stroke-linejoin="round"/><circle cx="18.003" cy="18.002" r="4.002" stroke="#232323" stroke-linecap="round" stroke-linejoin="round"/><path d="M16.909 18.004a.05.05 0 11-.05-.05m0-.002a.05.05 0 01.05.05m2.287.002a.05.05 0 11-.05-.05m-.001-.002a.05.05 0 01.05.05" stroke="#232323" stroke-linecap="round" stroke-linejoin="round"/></symbol><symbol fill="none" viewBox="0 0 20 16" id="peoplegroup" xmlns="http://www.w3.org/2000/svg"><path d="M1 15a4 4 0 014-4h4a4 4 0 014 4m1-13.348a2.5 2.5 0 110 5M9.405 1.996a3.401 3.401 0 11-4.81 4.81 3.401 3.401 0 014.81-4.81M15 10a4 4 0 014 4" stroke="#232323" stroke-linecap="round" stroke-linejoin="round"/></symbol><symbol fill="none" viewBox="0 0 20 20" id="personalarea" xmlns="http://www.w3.org/2000/svg"><path clip-rule="evenodd" d="M16.957 19.002H3.043a2 2 0 01-2.001-2V5.996a2 2 0 012-2h13.915a2 2 0 012 2v11.005a2 2 0 01-2 2z" stroke="#232323" stroke-linecap="round" stroke-linejoin="round"/><path d="M10 7a2.5 2.5 0 110 5.001A2.5 2.5 0 0110 7m4.502 9a2.384 2.384 0 00-.595-.866v0a2.368 2.368 0 00-1.614-.634H7.707c-.6 0-1.175.227-1.615.634v0c-.26.241-.463.537-.594.867M2.778 3.997v-1a2 2 0 012.001-2h10.44a2 2 0 012 2v1" stroke="#232323" stroke-linecap="round" stroke-linejoin="round"/></symbol><symbol fill="none" viewBox="0 0 23 26" id="play" xmlns="http://www.w3.org/2000/svg"><path d="M23 13L.5 25.99V.01L23 13z" fill="#F9F9F9"/></symbol><symbol fill="none" viewBox="0 0 60 60" id="pricing-1" xmlns="http://www.w3.org/2000/svg"><path d="M52.74 33.582a5.268 5.268 0 11-10.176 2.727 5.268 5.268 0 0110.177-2.727m-34.461 0A5.268 5.268 0 118.106 36.31a5.268 5.268 0 0110.176-2.727m-.542-1.273l7.623-4.403m17.725 4.403l-7.6-4.388" stroke="#232323" stroke-width="2" stroke-linecap="round" stroke-linejoin="round"/><path fill-rule="evenodd" clip-rule="evenodd" d="M36.075 23.48a5.852 5.852 0 11-11.305 3.03 5.852 5.852 0 0111.305-3.03z" fill="#006E53"/><path d="M36.075 23.48a5.852 5.852 0 11-11.305 3.03 5.852 5.852 0 0111.305-3.03" stroke="#006E53" stroke-width="2" stroke-linecap="round" stroke-linejoin="round"/></symbol><symbol fill="none" viewBox="0 0 64 67" id="pricing-2" xmlns="http://www.w3.org/2000/svg"><path d="M49.02 17.11a5.268 5.268 0 11-2.727 10.176A5.268 5.268 0 0149.02 17.11M31.79 46.95a5.267 5.267 0 11-2.726 10.175A5.267 5.267 0 0131.79 46.95M14.559 17.106a5.268 5.268 0 11-2.727 10.176 5.268 5.268 0 012.727-10.176m15.859 29.677l-.002-8.803M17.743 24.832l7.623 4.403m17.726-4.403l-7.6 4.387" stroke="#232323" stroke-width="2" stroke-linecap="round" stroke-linejoin="round"/><path fill-rule="evenodd" clip-rule="evenodd" d="M31.938 26.49a5.852 5.852 0 11-3.03 11.305 5.852 5.852 0 013.03-11.306z" fill="#006E53"/><path d="M31.938 26.49a5.852 5.852 0 11-3.03 11.305 5.852 5.852 0 013.03-11.306" stroke="#006E53" stroke-width="2" stroke-linecap="round" stroke-linejoin="round"/></symbol><symbol fill="none" viewBox="0 0 73 72" id="pricing-3" xmlns="http://www.w3.org/2000/svg"><path d="M50.281 16.256a5.268 5.268 0 110 10.535 5.268 5.268 0 010-10.535M17.18 49.734a5.268 5.268 0 1010.536 0 5.268 5.268 0 00-10.535 0m33.199-4.912a5.268 5.268 0 11-.001 10.535 5.268 5.268 0 010-10.535M22.448 26.72a5.267 5.267 0 110-10.534 5.267 5.267 0 010 10.535m24.098 19.471l-6.227-6.223M26.47 25.533l5.33 5.33m14.753-5.61l-6.205 6.205M26.15 46.033l5.525-5.525" stroke="#232323" stroke-width="2" stroke-linecap="round" stroke-linejoin="round"/><path fill-rule="evenodd" clip-rule="evenodd" d="M36.21 29.741a5.852 5.852 0 110 11.705 5.852 5.852 0 010-11.705z" fill="#006E53" stroke="#006E53" stroke-width="2" stroke-linecap="round" stroke-linejoin="round"/></symbol><symbol fill="none" viewBox="0 0 60 60" id="pricing-4" xmlns="http://www.w3.org/2000/svg"><path d="M53.621 26.273a5.268 5.268 0 11-7.45 7.45 5.268 5.268 0 017.45-7.45m-39.795 0a5.268 5.268 0 11-7.45 7.45 5.268 5.268 0 017.45-7.45m29.846-17.23a5.267 5.267 0 11-7.45 7.45 5.267 5.267 0 017.45-7.45M23.777 43.504a5.267 5.267 0 11-7.449 7.45 5.267 5.267 0 017.45-7.45m-.001-34.461a5.267 5.267 0 11-7.449 7.45 5.267 5.267 0 017.45-7.45m19.894 34.461a5.267 5.267 0 11-7.45 7.45 5.267 5.267 0 017.45-7.45m-20.998-.832l4.4-7.625m-4.4-17.723l4.4 7.625M44.625 30H35.85" stroke="#232323" stroke-width="2" stroke-linecap="round" stroke-linejoin="round"/><path fill-rule="evenodd" clip-rule="evenodd" d="M34.136 25.859a5.852 5.852 0 11-8.276 8.276 5.852 5.852 0 018.276-8.276z" fill="#006E53" stroke="#006E53" stroke-width="2" stroke-linecap="round" stroke-linejoin="round"/></symbol><symbol fill="none" viewBox="0 0 24 24" id="secury" xmlns="http://www.w3.org/2000/svg"><path clip-rule="evenodd" d="M20 11.182c0 4.541-3.413 8.787-8 9.818-4.587-1.031-8-5.277-8-9.818V7.615a2 2 0 011.243-1.851l5-2.046a4.637 4.637 0 013.514 0l5 2.046A2 2 0 0120 7.615v3.567z" stroke="#232323" stroke-linecap="round" stroke-linejoin="round"/><path d="M15.25 10.125l-3.75 3.75-2.25-2.25" stroke="#232323" stroke-linecap="round" stroke-linejoin="round"/></symbol><symbol fill="none" viewBox="0 0 26 26" id="setting-role" xmlns="http://www.w3.org/2000/svg"><path d="M7.518 4.977L5.47 7.02l-.994-.991m7.477-2.033h6.05M12 7h10.004M7.518 11.98L5.47 14.025l-.994-.991M11.953 11h6.05M12 14h10.004m0 7.004h-10.05m10.05-3H12" stroke="#232323" stroke-linecap="round" stroke-linejoin="round"/><circle cx="5.997" cy="20.005" r="2.001" stroke="#232323" stroke-linecap="round" stroke-linejoin="round"/></symbol><symbol fill="none" viewBox="0 0 24 24" id="speed" xmlns="http://www.w3.org/2000/svg"><path d="M18.364 5.636a9 9 0 010 12.728 9 9 0 110-12.728" stroke="#232323" stroke-linecap="round" stroke-linejoin="round"/><path d="M17.413 19.031a3.213 3.213 0 00-.804-1.172A3.209 3.209 0 0014.424 17H9.576a3.225 3.225 0 00-2.99 2.031m6.828-8.445a2 2 0 11-2.828 2.828 2 2 0 012.828-2.828M12 3v2m4.5-.79l-.87 1.5M7.5 4.21l.87 1.5M4.21 7.499l1.5.87M21 12h-1.5m-15 0H3m10.79-.87l6-3.63" stroke="#232323" stroke-linecap="round" stroke-linejoin="round"/></symbol><symbol fill="none" viewBox="0 0 24 24" id="tech-support" xmlns="http://www.w3.org/2000/svg"><path clip-rule="evenodd" d="M19 17h-1a1 1 0 01-1-1v-5a1 1 0 011-1h1a2 2 0 012 2v3a2 2 0 01-2 2zM6 17H5a2 2 0 01-2-2v-3a2 2 0 012-2h1a1 1 0 011 1v5a1 1 0 01-1 1z" stroke="#232323" stroke-linecap="round" stroke-linejoin="round"/><path d="M18.5 10v-.5A6.5 6.5 0 0012 3v0a6.5 6.5 0 00-6.5 6.5v.5" stroke="#232323" stroke-linecap="round" stroke-linejoin="round"/><path clip-rule="evenodd" d="M12.625 21.25h-1.25c-.69 0-1.25-.56-1.25-1.25v0c0-.69.56-1.25 1.25-1.25h1.25c.69 0 1.25.56 1.25 1.25v0c0 .69-.56 1.25-1.25 1.25z" stroke="#232323" stroke-linecap="round" stroke-linejoin="round"/><path d="M13.875 20H16a2 2 0 002-2v-1" stroke="#232323" stroke-linecap="round" stroke-linejoin="round"/></symbol><symbol fill="none" viewBox="0 0 24 24" id="tests" xmlns="http://www.w3.org/2000/svg"><path d="M11 5h10m-10 7h10m-10 7h10m-17.98-.492l1.653 1.488L8 17M6.414 3.586a2 2 0 11-2.828 2.828 2 2 0 012.828-2.828m0 7a2 2 0 11-2.828 2.828 2 2 0 012.828-2.828" stroke="#232323" stroke-linecap="round" stroke-linejoin="round"/></symbol><symbol fill="none" viewBox="0 0 24 24" id="tooldevelop" xmlns="http://www.w3.org/2000/svg"><path d="M12.469 3.023A3.492 3.492 0 117.531 7.96a3.492 3.492 0 014.938-4.938m1.894 9.774c-1.299-.519-2.823-.805-4.363-.805-4.048 0-8 1.967-8 4.992v1a1 1 0 001 1h9.413" stroke="#232323" stroke-linecap="round" stroke-linejoin="round"/><path d="M17 22a5 5 0 01-5-5c0-2.704 2.3-5.003 5.004-5A5 5 0 0117 22" stroke="#232323" stroke-linecap="round" stroke-linejoin="round"/><path d="M18.768 18.136L17 16.367l-1.768 1.768" stroke="#232323" stroke-linecap="round" stroke-linejoin="round"/></symbol><symbol fill="none" viewBox="0 0 26 26" id="ui" xmlns="http://www.w3.org/2000/svg"><path clip-rule="evenodd" d="M6.998 3.996a4.002 4.002 0 01-4.002 4.002 4.002 4.002 0 014.002 4.001 4.002 4.002 0 014.001-4.001 4.002 4.002 0 01-4.001-4.002zm11.004 12.008A5.002 5.002 0 0013 11.002 5.002 5.002 0 0018.002 6a5.002 5.002 0 005.002 5.002 5.002 5.002 0 00-5.002 5.002z" stroke="#232323" stroke-linecap="round" stroke-linejoin="round"/><path d="M18.002 16.004v1m0-11.007v-1M11 22.004v1M11 15v-1m-4.003-2v1m0-10.004v1" stroke="#232323" stroke-linecap="round" stroke-linejoin="round"/><path clip-rule="evenodd" d="M11 14.5a4.002 4.002 0 01-4.002 4.002A4.002 4.002 0 0111 22.503a4.002 4.002 0 014-4.001 4.002 4.002 0 01-4-4.002z" stroke="#232323" stroke-linecap="round" stroke-linejoin="round"/></symbol><symbol fill="none" viewBox="0 0 24 24" id="unionfunc" xmlns="http://www.w3.org/2000/svg"><path clip-rule="evenodd" d="M8.5 12L12 8.5l3.501 3.5-3.5 3.5L8.5 12z" stroke="#232323" stroke-linecap="round" stroke-linejoin="round"/><path d="M5 12.25l-2 2-2-2m18-.5l2-2 2 2" stroke="#232323" stroke-linecap="round" stroke-linejoin="round"/><path d="M19.371 6.845A8.982 8.982 0 0012 3a9 9 0 00-9 9c0 .694.086 1.366.235 2.015m1.394 3.139A8.982 8.982 0 0011.999 21a9 9 0 009-9c0-.694-.085-1.366-.234-2.015" stroke="#232323" stroke-linecap="round" stroke-linejoin="round"/></symbol></svg>