<svg width="252" height="160" viewBox="0 0 252 160" fill="none" xmlns="http://www.w3.org/2000/svg">
<mask id="path-1-inside-1_9_431" fill="white">
<path d="M0 6C0 2.6863 2.68629 0 6 0H246C249.314 0 252 2.68629 252 6V154C252 157.314 249.314 160 246 160H6.00001C2.6863 160 0 157.314 0 154V6Z"/>
</mask>
<path d="M0 6C0 2.6863 2.68629 0 6 0H246C249.314 0 252 2.68629 252 6V154C252 157.314 249.314 160 246 160H6.00001C2.6863 160 0 157.314 0 154V6Z" fill="#F3F3F3"/>
<path d="M0 0H252H0ZM252 154C252 159.523 247.523 164 242 164H10C4.47715 164 0 159.523 0 154C0 155.105 2.68629 156 6 156H246C249.314 156 252 155.105 252 154ZM0 160V0V160ZM252 0V160V0Z" fill="#C6C6C6" mask="url(#path-1-inside-1_9_431)"/>
<path d="M56 124.809L23.55 124.809L23.55 121.509L56 121.509L56 124.809ZM56 119.859L23.55 119.859L23.55 114.909L56 114.909L56 119.859ZM56 109.959L23.55 109.959L23.55 108.309L56 108.309L56 109.959ZM56 106.654L23.55 106.654L23.55 105.004L56 105.004L56 106.654ZM56 100.054L23.55 100.054L23.55 96.7543L56 96.7543L56 100.054ZM56 95.1043L23.55 95.1043L23.55 93.4543L56 93.4543L56 95.1043ZM56 88.5L23.55 88.5L23.55 83.55L56 83.55L56 88.5ZM56 78.6L23.55 78.6L23.55 76.95L56 76.95L56 78.6ZM56 75.3L23.55 75.3L23.55 72L56 72L56 75.3ZM56 70.3457L23.55 70.3457L23.55 67.0457L56 67.0457L56 70.3457ZM56 65.3957L23.55 65.3957L23.55 60.4457L56 60.4457L56 65.3957ZM56 55.4957L23.55 55.4957L23.55 53.8457L56 53.8457L56 55.4957Z" fill="url(#paint0_linear_9_431)"/>
<path d="M81.5894 65H83.8452V54.3359H81.5894V65ZM86.0791 65H89.6606C91.0962 65 92.2949 64.5605 93.2568 63.6816C94.2188 62.8027 94.6997 61.5747 94.6997 59.9976V59.3311C94.6997 57.7588 94.2188 56.5332 93.2568 55.6543C92.2949 54.7754 91.0962 54.3359 89.6606 54.3359H86.0791V65ZM88.3203 63.3228V56.0205H89.624C90.4541 56.0205 91.123 56.2964 91.6309 56.8481C92.1436 57.395 92.3999 58.208 92.3999 59.2871V60.0488C92.3999 61.1279 92.1436 61.9434 91.6309 62.4951C91.123 63.0469 90.4541 63.3228 89.624 63.3228H88.3203ZM99.8193 59.9976C99.8193 61.6919 100.256 62.9858 101.13 63.8794C102.004 64.7681 103.149 65.2124 104.565 65.2124C105.908 65.2124 106.958 64.8633 107.715 64.165C108.477 63.4619 108.882 62.5684 108.931 61.4844V61.2793H106.66V61.4771C106.626 62.0874 106.438 62.5757 106.096 62.9419C105.759 63.3081 105.251 63.4912 104.573 63.4912C103.816 63.4912 103.22 63.2202 102.786 62.6782C102.351 62.1313 102.134 61.3232 102.134 60.2539V59.082C102.134 57.9297 102.354 57.1045 102.793 56.6064C103.237 56.1035 103.821 55.8521 104.543 55.8521C105.256 55.8521 105.786 56.0254 106.133 56.3721C106.484 56.7139 106.66 57.2046 106.66 57.8442V58.064H108.931V57.8735C108.931 56.7749 108.538 55.8765 107.751 55.1782C106.97 54.4751 105.908 54.1235 104.565 54.1235C103.154 54.1235 102.009 54.5654 101.13 55.4492C100.256 56.333 99.8193 57.6294 99.8193 59.3384V59.9976ZM109.136 65H111.238L113.962 57.4707C114.021 57.3047 114.067 57.146 114.102 56.9946C114.141 56.8433 114.172 56.6919 114.197 56.5405H114.255C114.285 56.6919 114.316 56.8433 114.351 56.9946C114.39 57.146 114.438 57.3047 114.497 57.4707L117.229 65H119.646L115.544 54.2847H113.171L109.136 65ZM111.428 62.6562H117.178L116.658 60.9863H111.941L111.428 62.6562ZM120.576 65H122.832V61.1328H124.473C125.703 61.1328 126.667 60.8301 127.366 60.2246C128.064 59.6143 128.413 58.772 128.413 57.6978C128.413 56.6333 128.066 55.8081 127.373 55.2222C126.68 54.6313 125.713 54.3359 124.473 54.3359H120.576V65ZM122.832 59.4775V56.0132H124.385C125.034 56.0132 125.493 56.167 125.762 56.4746C126.03 56.7773 126.165 57.1924 126.165 57.7197C126.165 58.2568 126.03 58.6841 125.762 59.0015C125.493 59.3188 125.034 59.4775 124.385 59.4775H122.832ZM126.406 65H128.926L126.274 59.9683L123.901 60.0854L126.406 65ZM130.156 65H133.738C135.173 65 136.372 64.5605 137.334 63.6816C138.296 62.8027 138.777 61.5747 138.777 59.9976V59.3311C138.777 57.7588 138.296 56.5332 137.334 55.6543C136.372 54.7754 135.173 54.3359 133.738 54.3359H130.156V65ZM132.397 63.3228V56.0205H133.701C134.531 56.0205 135.2 56.2964 135.708 56.8481C136.221 57.395 136.477 58.208 136.477 59.2871V60.0488C136.477 61.1279 136.221 61.9434 135.708 62.4951C135.2 63.0469 134.531 63.3228 133.701 63.3228H132.397Z" fill="#799AA8"/>
<path d="M80 81.5H175" stroke="#799AA8" stroke-width="3" stroke-linecap="round"/>
<path d="M80 91.5H130" stroke="#799AA8" stroke-width="3" stroke-linecap="round"/>
<path d="M80 99.5H147" stroke="#799AA8" stroke-width="3" stroke-linecap="round"/>
<path d="M80 109.5H115" stroke="#799AA8" stroke-width="3" stroke-linecap="round"/>
<path d="M80 117.5H157" stroke="#799AA8" stroke-width="3" stroke-linecap="round"/>
<path d="M80 135.5H157" stroke="#799AA8" stroke-width="3" stroke-linecap="round"/>
<path d="M80 125.5H125" stroke="#799AA8" stroke-width="3" stroke-linecap="round"/>
<circle cx="217" cy="114" r="19" fill="#E1E1E1"/>
<circle cx="217" cy="114" r="12.5" fill="#E1E1E1" stroke="#F3F3F3" stroke-width="3"/>
<path d="M0 6C0 2.68629 2.68629 0 6 0H246C249.314 0 252 2.68629 252 6V16H0V6Z" fill="#00B1FF"/>
<path d="M0 21H252V31H0V21Z" fill="#00B1FF"/>
<defs>
<linearGradient id="paint0_linear_9_431" x1="14" y1="80" x2="79" y2="88.5" gradientUnits="userSpaceOnUse">
<stop stop-color="#D038FF"/>
<stop offset="1" stop-color="#00B1FF"/>
</linearGradient>
</defs>
</svg>
