<svg width="30" height="30" viewBox="0 0 30 30" fill="none" xmlns="http://www.w3.org/2000/svg">
<g clip-path="url(#clip0_55_17491)">
<path d="M4.16539 9.71747C3.6485 9.71747 3.20993 9.89772 2.84941 10.2582C2.4889 10.6187 2.30859 11.0513 2.30859 11.5563V19.3086C2.30859 19.8262 2.48885 20.2643 2.84941 20.6249C3.20993 20.9854 3.6485 21.1657 4.16539 21.1657C4.68191 21.1657 5.11783 20.9855 5.47275 20.6249C5.82697 20.2644 6.00457 19.8262 6.00457 19.3086V11.5563C6.00457 11.0513 5.82431 10.6187 5.46375 10.2582C5.10318 9.89772 4.67031 9.71747 4.16539 9.71747Z" fill="white"/>
<path d="M19.0938 2.75818L20.3739 0.396789C20.4579 0.240455 20.428 0.120574 20.2839 0.0362778C20.1275 -0.0364103 20.0074 0.000421912 19.9234 0.144171L18.6254 2.52443C17.4833 2.01947 16.2753 1.76653 15.0015 1.76653C13.7274 1.76653 12.5193 2.01952 11.3776 2.52443L10.0796 0.144171C9.99524 0.000421912 9.87508 -0.0360849 9.71908 0.0362778C9.57468 0.120954 9.54479 0.240455 9.62914 0.396789L10.9093 2.75818C9.61124 3.42012 8.57744 4.34202 7.80825 5.52586C7.03906 6.71035 6.6543 8.00473 6.6543 9.4113H23.3306C23.3306 8.00506 22.9458 6.71062 22.1766 5.52586C21.4074 4.34202 20.3795 3.42012 19.0938 2.75818ZM11.693 6.19285C11.5546 6.33161 11.3892 6.40066 11.197 6.40066C11.0045 6.40066 10.8425 6.33161 10.7103 6.19285C10.5782 6.05474 10.5121 5.89005 10.5121 5.69721C10.5121 5.50502 10.5782 5.34001 10.7103 5.20158C10.8425 5.06347 11.0048 4.99442 11.197 4.99442C11.3892 4.99442 11.5546 5.06347 11.693 5.20158C11.8311 5.34034 11.9005 5.50502 11.9005 5.69721C11.9001 5.88973 11.8308 6.05474 11.693 6.19285ZM19.2919 6.19285C19.1595 6.33161 18.9972 6.40066 18.8053 6.40066C18.6127 6.40066 18.4474 6.33161 18.3092 6.19285C18.1709 6.05474 18.1018 5.89005 18.1018 5.69721C18.1018 5.50502 18.1709 5.34001 18.3092 5.20158C18.4474 5.06347 18.6127 4.99442 18.8053 4.99442C18.9975 4.99442 19.1595 5.06347 19.2919 5.20158C19.4242 5.34034 19.4901 5.50502 19.4901 5.69721C19.4901 5.88973 19.4241 6.05474 19.2919 6.19285Z" fill="white"/>
<path d="M6.72656 22.067C6.72656 22.6204 6.91875 23.0889 7.30318 23.4733C7.68794 23.8577 8.1564 24.0499 8.70943 24.0499H10.0436L10.0619 28.1429C10.0619 28.6598 10.2422 29.0987 10.6027 29.4592C10.9632 29.8198 11.3961 30 11.9007 30C12.4173 30 12.8561 29.8198 13.2167 29.4592C13.5773 29.0987 13.7575 28.6598 13.7575 28.1429V24.0503H16.2454V28.1429C16.2454 28.6598 16.4256 29.0987 16.7862 29.4592C17.1467 29.8198 17.5852 30 18.1021 30C18.6187 30 19.0576 29.8198 19.4181 29.4592C19.7787 29.0987 19.9589 28.6598 19.9589 28.1429V24.0503H21.3111C21.8519 24.0503 22.3143 23.8581 22.6994 23.4736C23.0838 23.0892 23.2761 22.6207 23.2761 22.0674V10.0597H6.72656V22.067Z" fill="white"/>
<path d="M25.8369 9.71747C25.3319 9.71747 24.8994 9.89507 24.5388 10.2493C24.1783 10.6042 23.998 11.0401 23.998 11.5563V19.3086C23.998 19.8262 24.1782 20.2643 24.5388 20.6249C24.8994 20.9855 25.3323 21.1657 25.8369 21.1657C26.3535 21.1657 26.7923 20.9855 27.1529 20.6249C27.5134 20.2643 27.6936 19.8262 27.6936 19.3086V11.5563C27.6936 11.04 27.5134 10.6042 27.1529 10.2493C26.7923 9.89507 26.3535 9.71747 25.8369 9.71747Z" fill="white"/>
</g>
<defs>
<clipPath id="clip0_55_17491">
<rect width="30" height="30" fill="white"/>
</clipPath>
</defs>
</svg>
