<svg width="125" height="29" viewBox="0 0 125 29" fill="none" xmlns="http://www.w3.org/2000/svg">
<path d="M19.4472 15.2385C19.4472 13.0053 20.6295 10.9034 22.6001 9.72113C21.4178 8.01336 19.4472 6.96242 17.3454 6.83105C15.1121 6.56832 13.0103 8.14472 11.828 8.14472C10.6457 8.14472 8.93788 6.83105 7.09874 6.83105C4.60276 6.96242 2.36952 8.27609 1.18722 10.378C-1.30875 14.7131 0.530386 21.2814 3.02636 24.8283C4.20866 26.5361 5.6537 28.5066 7.49284 28.5066C9.33198 28.3753 9.98881 27.3243 12.2221 27.3243C14.4553 27.3243 14.9808 28.5066 16.9513 28.5066C18.9218 28.5066 20.1041 26.7988 21.2864 24.9597C22.206 23.7774 22.8628 22.3324 23.2569 20.8873C20.8923 20.0991 19.4472 17.7345 19.4472 15.2385Z" fill="black"/>
<path d="M15.7685 4.59785C16.8195 3.28418 17.3449 1.70777 17.2136 0C15.6371 0.131367 14.0607 0.91957 13.0098 2.23324C11.9589 3.41554 11.4334 4.99195 11.5648 6.69972C13.2725 6.69972 14.7176 5.91152 15.7685 4.59785Z" fill="black"/>
<path d="M41.8312 20.4621H36.0144L34.653 24.6701H32.1777L37.7471 9.32349H40.2223L45.7916 24.6701H43.3164L41.8312 20.4621ZM36.6332 18.6057H41.3362L38.9847 11.7987H38.8609L36.6332 18.6057Z" fill="black"/>
<path d="M57.7972 19.1008C57.7972 22.5662 55.9407 24.7939 53.0942 24.7939C51.609 24.9177 50.2476 24.0513 49.6288 22.8137V28.383H47.2773V13.5315H49.5051V15.3879C50.2476 14.1503 51.609 13.4077 53.0942 13.4077C55.817 13.284 57.7972 15.6355 57.7972 19.1008ZM55.3219 19.1008C55.3219 16.8731 54.208 15.3879 52.3516 15.3879C50.6189 15.3879 49.3813 16.8731 49.3813 19.1008C49.3813 21.3285 50.6189 22.8137 52.3516 22.8137C54.208 22.8137 55.3219 21.3285 55.3219 19.1008Z" fill="black"/>
<path d="M70.0491 19.1008C70.0491 22.5662 68.1927 24.7939 65.3461 24.7939C63.861 24.9177 62.4996 24.0513 61.8808 22.8137V28.383H59.5293V13.5315H61.757V15.3879C62.4996 14.1503 63.861 13.4077 65.3461 13.4077C68.1927 13.284 70.0491 15.6355 70.0491 19.1008ZM67.6976 19.1008C67.6976 16.8731 66.5838 15.3879 64.7273 15.3879C62.9947 15.3879 61.757 16.8731 61.757 19.1008C61.757 21.3285 62.9947 22.8137 64.7273 22.8137C66.5838 22.8137 67.6976 21.3285 67.6976 19.1008Z" fill="black"/>
<path d="M78.2172 20.3383C78.341 21.8235 79.8262 22.8136 81.9301 22.8136C83.9103 22.8136 85.2717 21.8235 85.2717 20.4621C85.2717 19.2245 84.4054 18.6056 82.4252 18.1106L80.445 17.6155C77.5984 16.873 76.3608 15.6353 76.3608 13.5314C76.3608 10.9324 78.7123 9.07593 81.9301 9.07593C85.148 9.07593 87.3757 10.9324 87.4995 13.5314H85.148C85.0242 12.0462 83.7866 11.0561 81.9301 11.0561C80.0737 11.0561 78.8361 12.0462 78.8361 13.4076C78.8361 14.5215 79.7024 15.1403 81.6826 15.6353L83.4153 16.0066C86.5094 16.7492 87.8707 17.9868 87.8707 20.2146C87.8707 23.0611 85.5193 24.9175 81.9301 24.9175C78.4648 24.9175 76.237 23.1849 76.1133 20.3383H78.2172Z" fill="black"/>
<path d="M92.573 10.8086V13.4076H94.6769V15.264H92.573V21.4522C92.573 22.4423 92.9443 22.8136 93.9344 22.8136C94.1819 22.8136 94.4294 22.8136 94.6769 22.8136V24.67C94.3056 24.7938 93.8106 24.7938 93.4393 24.7938C91.2116 24.7938 90.3452 23.9274 90.3452 21.8235V15.3878H88.7363V13.5314H90.3452V10.9324H92.573V10.8086Z" fill="black"/>
<path d="M96.0391 19.1008C96.0391 15.6354 98.143 13.4077 101.361 13.4077C104.579 13.4077 106.683 15.6354 106.683 19.1008C106.683 22.6899 104.579 24.7939 101.361 24.7939C98.0193 24.7939 96.0391 22.5662 96.0391 19.1008ZM104.331 19.1008C104.331 16.6255 103.217 15.2642 101.361 15.2642C99.5044 15.2642 98.3906 16.6255 98.3906 19.1008C98.3906 21.5761 99.5044 22.9374 101.361 22.9374C103.217 22.9374 104.331 21.4523 104.331 19.1008Z" fill="black"/>
<path d="M108.539 13.4075H110.767V15.3877C111.014 14.1501 112.252 13.2837 113.49 13.4075C113.737 13.4075 113.985 13.4075 114.232 13.5313V15.6352C113.861 15.5115 113.49 15.5115 113.242 15.5115C112.004 15.5115 110.891 16.5016 110.891 17.7392C110.891 17.863 110.891 17.9867 110.891 18.1105V24.7937H108.539V13.4075Z" fill="black"/>
<path d="M124.875 21.3284C124.628 23.3086 122.524 24.7937 120.048 24.7937C116.831 24.7937 114.727 22.566 114.727 19.1007C114.727 15.6353 116.707 13.2838 119.925 13.2838C123.019 13.2838 124.999 15.3878 124.999 18.8531V19.5957H117.078V19.7195C116.954 21.3284 118.068 22.6898 119.677 22.9373C119.801 22.9373 119.925 22.9373 120.048 22.9373C121.162 23.0611 122.276 22.4422 122.647 21.3284H124.875ZM117.078 17.9868H122.647C122.771 16.5016 121.534 15.264 120.048 15.1403C119.925 15.1403 119.925 15.1403 119.801 15.1403C118.316 15.1403 117.078 16.3779 117.078 17.9868Z" fill="black"/>
</svg>
