<svg width="13" height="11" viewBox="0 0 13 11" fill="none" xmlns="http://www.w3.org/2000/svg">
<path d="M12.986 2.73762C12.986 2.96083 12.9079 3.15057 12.7517 3.30682L6.69141 9.36709L5.55301 10.5055C5.39676 10.6617 5.20703 10.7399 4.98382 10.7399C4.7606 10.7399 4.57087 10.6617 4.41462 10.5055L3.27623 9.36709L0.246094 6.33695C0.0898437 6.1807 0.0117188 5.99097 0.0117188 5.76775C0.0117188 5.54454 0.0898437 5.35481 0.246094 5.19856L1.38449 4.06016C1.54074 3.90391 1.73047 3.82579 1.95368 3.82579C2.1769 3.82579 2.36663 3.90391 2.52288 4.06016L4.98382 6.52947L10.4749 1.03003C10.6311 0.873779 10.8209 0.795654 11.0441 0.795654C11.2673 0.795654 11.457 0.873779 11.6133 1.03003L12.7517 2.16842C12.9079 2.32467 12.986 2.5144 12.986 2.73762Z" fill="#E63739"/>
</svg>
