<svg width="32" height="32" viewBox="0 0 32 32" fill="none" xmlns="http://www.w3.org/2000/svg">
<path d="M27.3137 4.68625C24.2917 1.66425 20.2738 0 16 0C11.7262 0 7.70825 1.66425 4.68625 4.68625C1.66431 7.70825 0 11.7262 0 16C0 20.2738 1.66431 24.2917 4.68625 27.3137C7.70825 30.3357 11.7262 32 16 32C20.2738 32 24.2917 30.3357 27.3137 27.3137C30.3357 24.2917 32 20.2738 32 16C32 11.7262 30.3357 7.70825 27.3137 4.68625ZM16 30.125C8.21144 30.125 1.875 23.7886 1.875 16C1.875 8.21144 8.21144 1.875 16 1.875C23.7886 1.875 30.125 8.21144 30.125 16C30.125 23.7886 23.7886 30.125 16 30.125Z" fill="#E63739"/>
<path d="M17.0052 15.0625H14.9968C13.8526 15.0625 12.9218 14.1317 12.9218 12.9876C12.9218 11.8434 13.8527 10.9126 14.9968 10.9126H19.0135C19.5313 10.9126 19.951 10.4928 19.951 9.97505C19.951 9.4573 19.5313 9.03755 19.0135 9.03755H16.9385V6.96255C16.9385 6.4448 16.5188 6.02505 16.001 6.02505C15.4833 6.02505 15.0635 6.4448 15.0635 6.96255V9.03755H14.9969C12.8188 9.03755 11.0469 10.8096 11.0469 12.9876C11.0469 15.1656 12.8189 16.9375 14.9969 16.9375H17.0053C18.1494 16.9375 19.0802 17.8684 19.0802 19.0125C19.0802 20.1566 18.1494 21.0875 17.0053 21.0875H12.9886C12.4708 21.0875 12.0511 21.5072 12.0511 22.025C12.0511 22.5427 12.4708 22.9625 12.9886 22.9625H15.0635V25.0376C15.0635 25.5553 15.4833 25.9751 16.001 25.9751C16.5188 25.9751 16.9385 25.5553 16.9385 25.0376V22.9625H17.0052C19.1832 22.9625 20.9551 21.1905 20.9551 19.0125C20.9551 16.8345 19.1832 15.0625 17.0052 15.0625Z" fill="#E63739"/>
</svg>
