<svg width="25" height="30" viewBox="0 0 25 30" fill="none" xmlns="http://www.w3.org/2000/svg">
<path d="M20.466 16.0369C20.466 13.6866 21.7103 11.4746 23.784 10.2304C22.5398 8.43316 20.466 7.32717 18.254 7.18892C15.9038 6.91242 13.6918 8.57141 12.4476 8.57141C11.2033 8.57141 9.40611 7.18892 7.47062 7.18892C4.84389 7.32717 2.49366 8.70966 1.24942 10.9216C-1.37732 15.4839 0.558171 22.3963 3.1849 26.129C4.42914 27.9263 5.94988 30 7.88537 30C9.82086 29.8618 10.5121 28.7558 12.8623 28.7558C15.2126 28.7558 15.7656 30 17.8393 30C19.913 30 21.1573 28.2028 22.4015 26.2673C23.3693 25.023 24.0605 23.5023 24.4753 21.9816C21.9868 21.1521 20.466 18.6636 20.466 16.0369Z" fill="white"/>
<path d="M16.5952 4.83872C17.7012 3.45623 18.2542 1.79724 18.116 0C16.457 0.138249 14.798 0.967743 13.692 2.35023C12.586 3.59448 12.033 5.25347 12.1713 7.0507C13.9685 7.0507 15.4892 6.22121 16.5952 4.83872Z" fill="white"/>
</svg>
