<svg width="25" height="25" viewBox="0 0 25 25" fill="none" xmlns="http://www.w3.org/2000/svg">
<path d="M12.4688 10.5542C12.4688 10.7876 12.6563 10.9709 12.8854 10.9709C13.3604 10.9709 13.7437 11.3584 13.7437 11.8292C13.7437 12.0584 13.9313 12.2459 14.1604 12.2459C14.3896 12.2459 14.5771 12.0584 14.5771 11.8292C14.5771 10.8959 13.8187 10.1376 12.8854 10.1376C12.6563 10.1376 12.4688 10.3251 12.4688 10.5542ZM19.2521 12.2459C19.4854 12.2459 19.6688 12.0584 19.6688 11.8292C19.6688 8.08756 16.6271 5.0459 12.8854 5.0459C12.6563 5.0459 12.4688 5.23338 12.4688 5.46257C12.4688 5.69173 12.6563 5.87923 12.8854 5.87923C16.1688 5.87923 18.8354 8.55005 18.8354 11.8292C18.8354 12.0584 19.0229 12.2459 19.2521 12.2459Z" fill="#E63739"/>
<path d="M16.289 11.8292C16.289 12.0583 16.4765 12.2458 16.7057 12.2458C16.9349 12.2458 17.1224 12.0583 17.1224 11.8292C17.1224 9.49168 15.2224 7.59168 12.8849 7.59168C12.6557 7.59168 12.4682 7.77918 12.4682 8.00835C12.4682 8.24168 12.6557 8.42501 12.8849 8.42501C14.764 8.42501 16.289 9.95417 16.289 11.8292ZM12.8849 2.5C12.6557 2.5 12.4682 2.68751 12.4682 2.91667C12.4682 3.14585 12.6557 3.33333 12.8849 3.33333C17.5724 3.33333 21.3849 7.14584 21.3849 11.8292C21.3849 12.0583 21.5682 12.2458 21.8016 12.2458C22.0307 12.2458 22.2182 12.0583 22.2182 11.8292C22.2182 6.68335 18.0307 2.5 12.8849 2.5ZM16.9557 16.2208L16.4099 16.5167C15.489 17.0208 14.3224 16.85 13.5765 16.1042L9.17653 11.7042C8.43071 10.9584 8.25989 9.79167 8.76404 8.86668L9.05988 8.32502C9.39321 7.70833 9.51403 7.01668 9.41404 6.325C9.31821 5.63334 9.00571 5.00417 8.50571 4.50417C7.89739 3.89585 7.08905 3.56252 6.22655 3.56252C5.36405 3.56252 4.55154 3.89585 3.9432 4.50417L3.73072 4.72084C2.60572 5.84585 2.47655 7.78333 3.36405 10.1833C4.20153 12.475 5.88905 14.9583 8.10572 17.175C11.4849 20.5542 15.2474 22.5 17.9474 22.5C19.0141 22.5 19.9182 22.1958 20.5599 21.5542L20.7765 21.3375C21.3807 20.7333 21.7182 19.925 21.7224 19.0542C21.7182 18.2042 21.3724 17.3708 20.7765 16.775C19.7724 15.7708 18.2015 15.5458 16.9557 16.2208Z" fill="#E63739"/>
</svg>
