<svg width="18" height="18" viewBox="0 0 18 18" fill="none" xmlns="http://www.w3.org/2000/svg">
<g clip-path="url(#clip0_2_2207)">
<path d="M9 18C13.9706 18 18 13.9706 18 9C18 4.02944 13.9706 0 9 0C4.02944 0 0 4.02944 0 9C0 13.9706 4.02944 18 9 18Z" fill="#F0F0F0"/>
<path d="M8.6087 9.00024H18C18 8.18792 17.8917 7.40098 17.6899 6.6524H8.6087V9.00024Z" fill="#D80027"/>
<path d="M8.6087 4.30451H16.679C16.1281 3.4055 15.4237 2.61086 14.6024 1.95667H8.6087V4.30451Z" fill="#D80027"/>
<path d="M9.00008 18.0001C11.1182 18.0001 13.0651 17.268 14.6024 16.0436H3.39772C4.9351 17.268 6.88195 18.0001 9.00008 18.0001Z" fill="#D80027"/>
<path d="M1.32099 13.6959H16.6791C17.1214 12.9742 17.4644 12.1853 17.69 11.3481H0.310074C0.535672 12.1853 0.878691 12.9742 1.32099 13.6959Z" fill="#D80027"/>
<path d="M4.16897 1.40548H4.98913L4.22624 1.95971L4.51765 2.85652L3.75479 2.30228L2.99194 2.85652L3.24366 2.08178C2.57196 2.64129 1.98323 3.29681 1.49808 4.02722H1.76087L1.27526 4.38001C1.1996 4.50622 1.12704 4.63444 1.0575 4.76455L1.28939 5.47826L0.856758 5.16393C0.749215 5.39177 0.650848 5.62475 0.56243 5.86259L0.81791 6.64896H1.76087L0.99798 7.2032L1.28939 8.1L0.526535 7.54576L0.0695742 7.87778C0.0238359 8.24544 0 8.61993 0 9H9C9 4.02947 9 3.44348 9 0C7.22208 0 5.56471 0.515742 4.16897 1.40548ZM4.51765 8.1L3.75479 7.54576L2.99194 8.1L3.28335 7.2032L2.52046 6.64896H3.46342L3.75479 5.75216L4.04617 6.64896H4.98913L4.22624 7.2032L4.51765 8.1ZM4.22624 4.58146L4.51765 5.47826L3.75479 4.92402L2.99194 5.47826L3.28335 4.58146L2.52046 4.02722H3.46342L3.75479 3.13042L4.04617 4.02722H4.98913L4.22624 4.58146ZM7.74591 8.1L6.98305 7.54576L6.22019 8.1L6.51161 7.2032L5.74871 6.64896H6.69168L6.98305 5.75216L7.27443 6.64896H8.21739L7.4545 7.2032L7.74591 8.1ZM7.4545 4.58146L7.74591 5.47826L6.98305 4.92402L6.22019 5.47826L6.51161 4.58146L5.74871 4.02722H6.69168L6.98305 3.13042L7.27443 4.02722H8.21739L7.4545 4.58146ZM7.4545 1.95971L7.74591 2.85652L6.98305 2.30228L6.22019 2.85652L6.51161 1.95971L5.74871 1.40548H6.69168L6.98305 0.508676L7.27443 1.40548H8.21739L7.4545 1.95971Z" fill="#0052B4"/>
</g>
<defs>
<clipPath id="clip0_2_2207">
<rect width="18" height="18" fill="white"/>
</clipPath>
</defs>
</svg>
