<svg width="24" height="18" viewBox="0 0 24 18" fill="none" xmlns="http://www.w3.org/2000/svg">
<g clip-path="url(#clip0_55_19761)">
<path fill-rule="evenodd" clip-rule="evenodd" d="M0 0H34.0526V1.38516H0V0ZM0 2.77031H34.0526V4.15547H0V2.77031ZM0 5.53711H34.0526V6.92578H0V5.53711ZM0 8.30742H34.0526V9.69258H0V8.30742ZM0 11.0777H34.0526V12.4629H0V11.0777ZM0 13.8445H34.0526V15.2297H0V13.8445ZM0 16.6148H34.0526V18H0V16.6148Z" fill="#BD3D44"/>
<path fill-rule="evenodd" clip-rule="evenodd" d="M0 1.38519H34.0526V2.77035H0V1.38519ZM0 4.15551H34.0526V5.53715H0V4.15551ZM0 6.9223H34.0526V8.30746H0V6.9223ZM0 9.69262H34.0526V11.0778H0V9.69262ZM0 12.4629H34.0526V13.8481H0V12.4629ZM0 15.2297H34.0526V16.6149H0V15.2297Z" fill="white"/>
<path fill-rule="evenodd" clip-rule="evenodd" d="M0 0H13.6203V9.69258H0V0Z" fill="#192F5D"/>
<path fill-rule="evenodd" clip-rule="evenodd" d="M1.13445 0.414856L1.26046 0.798059H1.65952L1.33747 1.03361L1.45999 1.42032L1.13445 1.18126L0.812402 1.41681L0.934919 1.03361L0.609375 0.798059H1.01543L1.13445 0.414856ZM3.40625 0.414856L3.52877 0.798059H3.93132L3.60578 1.03361L3.7283 1.42032L3.40625 1.18126L3.08071 1.41681L3.20322 1.03361L2.88118 0.798059H3.28023L3.40625 0.414856ZM5.67456 0.414856L5.80057 0.798059H6.19613L5.87408 1.03361L5.9966 1.42032L5.67106 1.18126L5.34901 1.41681L5.47153 1.03361L5.14599 0.798059H5.54854L5.67456 0.414856ZM7.94636 0.414856L8.06888 0.798059H8.47143L8.14589 1.03361L8.27191 1.42032L7.94636 1.18126L7.62082 1.41681L7.74684 1.03361L7.42129 0.798059H7.82035L7.94636 0.414856ZM10.2147 0.414856L10.3407 0.798059H10.7397L10.4177 1.03361L10.5402 1.42032L10.2147 1.18126L9.89263 1.41681L10.0151 1.03361L9.6931 0.798059H10.0922L10.2147 0.414856ZM12.4865 0.414856L12.609 0.798059H13.0115L12.686 1.03361L12.812 1.42032L12.4865 1.18126L12.1609 1.41681L12.2869 1.03361L11.9614 0.798059H12.364L12.4865 0.414856ZM2.2721 1.38517L2.39462 1.76837H2.79717L2.47163 2.00392L2.59064 2.38712L2.2756 2.15157L1.95006 2.38712L2.06557 2.00392L1.75053 1.76837H2.14958L2.2721 1.38517ZM4.5404 1.38517L4.66642 1.76837H5.06548L4.73993 2.00392L4.86595 2.38712L4.5404 2.15157L4.21486 2.38712L4.34088 2.00392L4.01533 1.76837H4.41789L4.5404 1.38517ZM6.81221 1.38517L6.93473 1.76837H7.33728L7.01174 2.00392L7.13425 2.38712L6.81221 2.15157L6.48667 2.38712L6.60918 2.00392L6.28714 1.76837H6.68619L6.81221 1.38517ZM9.08052 1.38517L9.20653 1.76837H9.60559L9.28004 2.00392L9.40606 2.38712L9.08052 2.15157L8.75847 2.38712L8.88099 2.00392L8.55545 1.76837H8.9615L9.08052 1.38517ZM11.3523 1.38517L11.4748 1.76837H11.8774L11.5518 2.00392L11.6744 2.38712L11.3523 2.15157L11.0268 2.38712L11.1493 2.00392L10.8273 1.76837H11.2263L11.3523 1.38517ZM1.13445 2.35196L1.26046 2.7422H1.65952L1.33747 2.97775L1.45999 3.36095L1.13445 3.12189L0.812402 3.36095L0.934919 2.97423L0.609375 2.73868H1.01543L1.13445 2.35196ZM3.40625 2.35196L3.52877 2.73868H3.93132L3.60578 2.97423L3.7283 3.35743L3.40625 3.11837L3.08071 3.35743L3.20322 2.97071L2.88118 2.73517H3.28023L3.40625 2.35196ZM5.67456 2.35196L5.80057 2.73868H6.19613L5.87408 2.97423L5.9966 3.35743L5.67106 3.11837L5.34901 3.35743L5.47153 2.97071L5.14599 2.73517H5.54854L5.67456 2.35196ZM7.94636 2.35196L8.06888 2.73868H8.47143L8.14589 2.97423L8.27191 3.35743L7.94636 3.11837L7.62082 3.35743L7.74684 2.97071L7.42129 2.73517H7.82035L7.94636 2.35196ZM10.2147 2.35196L10.3407 2.73868H10.7397L10.4177 2.97423L10.5402 3.35743L10.2147 3.11837L9.89263 3.35743L10.0151 2.97071L9.6931 2.73517H10.0922L10.2147 2.35196ZM12.4865 2.35196L12.609 2.73868H13.0115L12.686 2.97423L12.812 3.35743L12.4865 3.11837L12.1609 3.35743L12.2869 2.97071L11.9614 2.73517H12.364L12.4865 2.35196ZM2.2721 3.32228L2.39462 3.70548H2.79717L2.47163 3.94103L2.59414 4.32775L2.2721 4.08868L1.94656 4.32423L2.06907 3.94103L1.74703 3.70548H2.14608L2.2721 3.32228ZM4.5404 3.32228L4.66642 3.70548H5.06548L4.73993 3.94103L4.86595 4.32775L4.5404 4.08868L4.21486 4.32423L4.34088 3.94103L4.01533 3.70548H4.41789L4.5404 3.32228ZM6.81221 3.32228L6.93473 3.70548H7.33728L7.01174 3.94103L7.13425 4.32775L6.81221 4.08868L6.48667 4.32423L6.60918 3.94103L6.28714 3.70548H6.68619L6.81221 3.32228ZM9.08052 3.32228L9.20653 3.70548H9.60559L9.28354 3.94103L9.40606 4.32775L9.08052 4.08868L8.75847 4.32423L8.88099 3.94103L8.55545 3.70548H8.9615L9.08052 3.32228ZM11.3523 3.32228L11.4748 3.70548H11.8774L11.5518 3.94103L11.6744 4.32775L11.3523 4.08868L11.0268 4.32423L11.1493 3.94103L10.8273 3.70548H11.2263L11.3523 3.32228ZM1.13445 4.29259L1.26046 4.67579H1.65952L1.33747 4.91134L1.45999 5.29806L1.13445 5.05899L0.812402 5.29454L0.934919 4.91134L0.609375 4.67579H1.01543L1.13445 4.29259ZM3.40625 4.29259L3.52877 4.67579H3.93132L3.60578 4.91134L3.7283 5.29454L3.40625 5.05899L3.08071 5.29454L3.20322 4.91134L2.88118 4.67579H3.28023L3.40625 4.29259ZM5.67456 4.29259L5.80057 4.67579H6.19613L5.87408 4.91134L5.9966 5.29806L5.67106 5.05899L5.34901 5.29454L5.47153 4.91134L5.14599 4.67579H5.54854L5.67456 4.29259ZM7.94636 4.29259L8.06888 4.67579H8.47143L8.14589 4.91134L8.27191 5.29806L7.94636 5.05899L7.62082 5.29454L7.74684 4.91134L7.42129 4.67579H7.82035L7.94636 4.29259ZM10.2147 4.29259L10.3407 4.67579H10.7397L10.4177 4.91134L10.5402 5.29806L10.2147 5.05899L9.89263 5.29454L10.0151 4.91134L9.6931 4.67579H10.0922L10.2147 4.29259ZM12.4865 4.29259L12.609 4.67579H13.0115L12.686 4.91134L12.812 5.29806L12.4865 5.05899L12.1609 5.29454L12.2869 4.91134L11.9614 4.67579H12.364L12.4865 4.29259ZM2.2721 5.2629L2.39462 5.6461H2.79717L2.47163 5.88165L2.59414 6.26485L2.2721 6.02579L1.94656 6.26485L2.06907 5.87814L1.74703 5.64259H2.14608L2.2721 5.2629ZM4.5404 5.2629L4.66642 5.6461H5.06548L4.73993 5.88165L4.86595 6.26485L4.5404 6.02579L4.21486 6.26485L4.34088 5.87814L4.01533 5.64259H4.41789L4.5404 5.2629ZM6.81221 5.2629L6.93473 5.6461H7.33728L7.01174 5.88165L7.13425 6.26485L6.81221 6.02579L6.48667 6.26485L6.60918 5.87814L6.28714 5.64259H6.68619L6.81221 5.2629ZM9.08052 5.2629L9.20653 5.6461H9.60559L9.28354 5.88165L9.40606 6.26485L9.08052 6.02579L8.75847 6.26485L8.88099 5.87814L8.55545 5.64259H8.9615L9.08052 5.2629ZM11.3523 5.2629L11.4748 5.6461H11.8774L11.5518 5.88165L11.6744 6.26485L11.3523 6.02579L11.0268 6.26485L11.1493 5.87814L10.8273 5.64259H11.2263L11.3523 5.2629ZM1.13445 6.2297L1.26046 6.61642H1.65952L1.33747 6.85196L1.45999 7.23165L1.13445 6.9961L0.812402 7.23165L0.934919 6.84845L0.609375 6.6129H1.01543L1.13445 6.2297ZM3.40625 6.2297L3.52877 6.61642H3.93132L3.60578 6.85196L3.7318 7.23165L3.40625 6.9961L3.08071 7.23165L3.20672 6.84845L2.88118 6.6129H3.28023L3.40625 6.2297ZM5.67456 6.2297L5.80057 6.61642H6.19613L5.87408 6.85196L5.9966 7.23165L5.67106 6.9961L5.34901 7.23165L5.47153 6.84845L5.14599 6.6129H5.54854L5.67456 6.2297ZM7.94636 6.2297L8.06888 6.61642H8.47143L8.14589 6.85196L8.27191 7.23165L7.94636 6.9961L7.62082 7.23165L7.74684 6.84845L7.42129 6.6129H7.82035L7.94636 6.2297ZM10.2147 6.2297L10.3407 6.61642H10.7397L10.4177 6.85196L10.5402 7.23165L10.2147 6.9961L9.89263 7.23165L10.0151 6.84845L9.6931 6.6129H10.0922L10.2147 6.2297ZM12.4865 6.2297L12.609 6.61642H13.0115L12.686 6.85196L12.812 7.23165L12.4865 6.9961L12.1609 7.23165L12.2869 6.84845L11.9614 6.6129H12.364L12.4865 6.2297ZM2.2721 7.20001L2.39462 7.58321H2.79717L2.47163 7.81876L2.59414 8.20548L2.2721 7.96642L1.94656 8.20196L2.06907 7.81876L1.74703 7.58321H2.14608L2.2721 7.20001ZM4.5404 7.20001L4.66642 7.58321H5.06548L4.73993 7.81876L4.86595 8.20548L4.5404 7.96642L4.21486 8.20196L4.34088 7.81876L4.01533 7.58321H4.41789L4.5404 7.20001ZM6.81221 7.20001L6.93473 7.58321H7.33728L7.01174 7.81876L7.13425 8.20548L6.81221 7.96642L6.48667 8.20196L6.60918 7.81876L6.28714 7.58321H6.68619L6.81221 7.20001ZM9.08052 7.20001L9.20653 7.58321H9.60559L9.28354 7.81876L9.40606 8.20548L9.08052 7.96642L8.75847 8.20196L8.88099 7.81876L8.55545 7.58321H8.9615L9.08052 7.20001ZM11.3523 7.20001L11.4748 7.58321H11.8774L11.5518 7.81876L11.6744 8.20548L11.3523 7.96642L11.0268 8.20196L11.1493 7.81876L10.8273 7.58321H11.2263L11.3523 7.20001ZM1.13445 8.17032L1.26046 8.55352H1.65952L1.33747 8.78907L1.45999 9.17227L1.13445 8.93673L0.812402 9.17227L0.934919 8.78556L0.609375 8.55001H1.01543L1.13445 8.17032ZM3.40625 8.17032L3.52877 8.55352H3.93132L3.60578 8.78907L3.7318 9.17227L3.40625 8.93673L3.08071 9.17227L3.20672 8.78556L2.88118 8.55001H3.28023L3.40625 8.17032ZM5.67456 8.17032L5.80057 8.55352H6.19613L5.88109 8.78907L6.0036 9.17227L5.67806 8.93673L5.35601 9.17227L5.47853 8.78556L5.15299 8.55001H5.55554L5.67456 8.17032ZM7.94636 8.17032L8.06888 8.55352H8.47143L8.14589 8.78907L8.27191 9.17227L7.94636 8.93673L7.62082 9.17227L7.74684 8.78556L7.42129 8.55001H7.82035L7.94636 8.17032ZM10.2147 8.17032L10.3407 8.55352H10.7397L10.4177 8.78907L10.5402 9.17227L10.2147 8.93673L9.89263 9.17227L10.0151 8.78556L9.6931 8.55001H10.0922L10.2147 8.17032ZM12.4865 8.17032L12.609 8.55352H13.0115L12.686 8.78907L12.812 9.17227L12.4865 8.93673L12.1609 9.17227L12.2869 8.78556L11.9614 8.55001H12.364L12.4865 8.17032Z" fill="white"/>
</g>
<defs>
<clipPath id="clip0_55_19761">
<rect width="23.8966" height="18" fill="white"/>
</clipPath>
</defs>
</svg>
