<svg width="56" height="17" viewBox="0 0 56 17" fill="none" xmlns="http://www.w3.org/2000/svg">
<path d="M0.0512783 6.87328C-0.117722 6.23969 0.14636 5.88484 0.618057 5.66248C2.92987 4.57181 5.20647 3.3915 7.57054 2.43653C9.79639 1.54421 12.1308 0.907251 14.4058 0.137378C14.9445 -0.0437535 15.2557 0.0539328 15.2496 0.664277C15.2297 2.57028 16.0514 4.02854 17.6097 5.14151C18.1054 5.49518 18.5246 5.95785 18.9699 6.37847C19.5327 6.89435 20.1856 7.30355 20.8961 7.5858C21.9904 8.05318 22.9594 8.81455 23.9719 9.46729C25.1116 10.201 25.0493 10.193 25.4079 8.88506C25.622 8.1046 26.0461 7.38346 26.3752 6.63704L26.5987 6.67258C26.661 7.17188 26.7477 7.67 26.7777 8.17146C26.8165 8.76138 27.1593 8.95009 27.6804 8.95124C28.2015 8.95238 28.4946 8.76905 28.5171 8.20601C28.5373 7.67901 28.6262 7.1554 28.6849 6.62898L28.9603 6.56705C29.3224 7.46777 29.7338 8.35152 30.0333 9.27231C30.3043 10.105 30.3038 10.1433 31.0438 9.64812C31.9283 9.05687 32.8111 8.46489 33.6922 7.87217C33.8425 7.7718 33.9846 7.61581 34.1489 7.58538C35.5867 7.32453 36.3544 6.16314 37.3353 5.29105C37.7387 4.93194 38.0945 4.51484 38.5199 4.1772C39.3244 3.54251 39.6489 2.71838 39.7412 1.72277C39.9262 -0.259351 39.9501 -0.24589 41.9243 0.354564C45.4353 1.42184 48.9468 2.48786 52.267 4.07268C53.1092 4.47423 53.9115 4.95625 54.7175 5.42652C55.2332 5.72808 55.2556 5.81954 55.2298 6.56965C54.7454 6.41392 54.2824 6.26751 53.8221 6.11489C53.1818 5.90272 52.5628 5.84236 51.8991 6.06967C49.9671 6.72261 48.0027 7.29309 46.0746 7.96106C45.6968 8.09245 45.3421 8.46992 45.1238 8.82257C44.7792 9.40458 44.4928 10.0189 44.2687 10.6567C44.0825 11.1569 43.7717 11.3296 43.2522 11.3588C41.1007 11.4926 38.9433 11.6401 36.7892 11.8306C36.2978 11.8712 35.8235 12.0278 35.4056 12.2873C33.6503 13.4481 31.9403 14.6687 30.1953 15.8399C29.9009 16.038 29.5593 16.156 29.2044 16.1822C28.2065 16.232 27.2038 16.2247 26.2053 16.2045C25.938 16.1945 25.6781 16.1129 25.453 15.9685C23.6471 14.7798 21.8692 13.5513 20.0514 12.3826C19.6295 12.1237 19.1518 11.9684 18.6579 11.9296C16.4804 11.7566 14.299 11.6294 12.1131 11.5195C11.6079 11.4957 11.2715 11.3334 11.1458 10.8524C10.6139 8.82496 9.20518 7.84726 7.21164 7.42978C5.83391 7.14101 4.49931 6.64256 3.13099 6.29855C2.76323 6.20723 2.33136 6.2986 1.94428 6.37991C1.32376 6.50591 0.720521 6.69441 0.0512783 6.87328Z" fill="#E6000E"/>
</svg>
