<svg width="677" height="231" viewBox="0 0 677 231" fill="none" xmlns="http://www.w3.org/2000/svg">
<path d="M555 47.8016C555.115 46.7576 555.717 46.3808 556.552 46.3221C560.646 46.0333 564.74 45.5903 568.834 45.5344C572.684 45.4919 576.549 45.8937 580.402 46.0626C581.313 46.1043 581.722 46.4305 581.359 47.3383C580.221 50.1728 580.604 52.8264 582.29 55.3914C582.827 56.2067 583.186 57.1405 583.608 58.0266C584.151 59.1231 584.89 60.1124 585.79 60.9457C587.156 62.2777 588.165 63.9761 589.301 65.5375C590.581 67.2936 590.492 67.2456 591.789 65.5004C592.563 64.4591 593.617 63.6281 594.543 62.7043L594.857 62.8868C594.66 63.6685 594.501 64.4626 594.254 65.2287C593.969 66.132 594.373 66.6124 595.152 66.9161C595.932 67.2199 596.477 67.1159 596.838 66.2883C597.174 65.5131 597.612 64.7828 598.005 64.0308L598.454 64.0979C598.472 65.6527 598.575 67.2107 598.488 68.7591C598.41 70.1595 598.387 70.2165 599.782 69.9059C601.45 69.5356 603.115 69.1633 604.779 68.7889C605.062 68.7262 605.365 68.5756 605.629 68.6254C607.933 69.0691 609.757 67.7798 611.732 67.0461C612.544 66.7437 613.319 66.3271 614.152 66.0695C615.725 65.588 616.69 64.5455 617.407 63.1123C618.835 60.2599 618.863 60.2939 621.469 62.3345C626.105 65.9629 630.743 69.5897 634.792 73.8802C635.819 74.9679 636.74 76.1526 637.674 77.3219C638.27 78.071 638.251 78.2206 637.776 79.3256C637.142 78.8124 636.534 78.3255 635.933 77.8308C635.098 77.143 634.206 76.6941 633.081 76.6488C629.809 76.5042 626.537 76.2176 623.263 76.0976C622.621 76.0748 621.871 76.4329 621.339 76.833C620.485 77.5023 619.7 78.2536 618.994 79.076C618.424 79.7151 617.859 79.7928 617.064 79.5353C613.766 78.4883 610.45 77.4582 607.115 76.4944C606.356 76.2702 605.555 76.2291 604.778 76.3745C601.476 77.0904 598.207 77.9221 594.915 78.6596C594.359 78.7848 593.779 78.763 593.233 78.5965C591.71 78.0925 590.213 77.5006 588.73 76.8917C588.336 76.7218 587.994 76.4494 587.741 76.1033C585.728 73.2818 583.781 70.4171 581.739 67.6186C581.257 66.9874 580.632 66.4787 579.916 66.1346C576.757 64.6143 573.565 63.1603 570.357 61.7293C569.614 61.401 569.205 60.9638 569.296 60.1727C569.678 56.8371 568.137 54.5609 565.395 52.7822C563.501 51.5526 561.793 50.0349 559.944 48.7282C559.447 48.3787 558.747 48.2649 558.12 48.162C557.118 47.9905 556.106 47.9224 555 47.8016Z" fill="white"/>
<path d="M613.665 24.7356C613.447 24.022 613.733 23.6078 614.26 23.3358C616.845 22.002 619.386 20.5677 622.035 19.386C624.53 18.2812 627.159 17.4623 629.715 16.4948C630.32 16.267 630.678 16.3654 630.695 17.0597C630.75 19.2278 631.743 20.8527 633.561 22.0552C634.138 22.4372 634.634 22.9463 635.157 23.4066C635.818 23.9704 636.577 24.4093 637.397 24.7014C638.66 25.1885 639.792 26.015 640.97 26.7163C642.296 27.5044 642.225 27.4978 642.579 25.996C642.791 25.0999 643.244 24.2627 643.588 23.4006L643.844 23.432C643.935 23.9972 644.054 24.5601 644.108 25.1291C644.176 25.7983 644.574 25.999 645.166 25.9792C645.759 25.9594 646.085 25.7391 646.087 25.0979C646.089 24.4979 646.169 23.8989 646.214 23.2979L646.525 23.2163C646.973 24.2259 647.477 25.2141 647.855 26.249C648.197 27.1848 648.198 27.2285 649.019 26.6354C650.001 25.9273 650.981 25.2184 651.958 24.5087C652.125 24.3885 652.281 24.2053 652.466 24.1641C654.09 23.8092 654.916 22.4575 655.996 21.4261C656.441 21.0014 656.828 20.5128 657.298 20.1116C658.187 19.3573 658.523 18.407 658.588 17.2712C658.718 15.0098 658.745 15.0242 661.015 15.627C665.05 16.6984 669.086 17.7683 672.926 19.4359C673.9 19.8584 674.832 20.374 675.767 20.876C676.366 21.1981 676.395 21.3012 676.396 22.1551C675.839 21.9977 675.306 21.85 674.777 21.6951C674.04 21.4798 673.334 21.4362 672.588 21.7216C670.418 22.5423 668.207 23.2705 666.042 24.1082C665.618 24.2729 665.23 24.7165 664.996 25.1263C664.628 25.8021 664.327 26.5122 664.098 27.2465C663.906 27.8229 663.56 28.0318 662.97 28.086C660.529 28.3253 658.082 28.5804 655.64 28.8843C655.083 28.9505 654.55 29.1477 654.086 29.4597C652.137 30.8507 650.242 32.308 648.305 33.7105C647.978 33.9476 647.594 34.0957 647.192 34.1398C646.059 34.2368 644.919 34.2692 643.783 34.2867C643.478 34.2861 643.179 34.2039 642.918 34.0488C640.816 32.7702 638.745 31.4453 636.63 30.19C636.14 29.9127 635.591 29.7555 635.027 29.7314C632.544 29.6229 630.059 29.5666 627.569 29.5302C626.993 29.5235 626.604 29.3527 626.442 28.8108C625.755 26.527 624.113 25.4723 621.83 25.0783C620.251 24.8058 618.714 24.2931 617.144 23.9573C616.722 23.8684 616.234 23.9898 615.798 24.0979C615.097 24.2663 614.419 24.5051 613.665 24.7356Z" fill="white"/>
<path d="M83.127 198.27C83.0118 197.226 82.4103 196.85 81.575 196.791C77.4807 196.502 73.3869 196.059 69.2932 196.003C65.4428 195.961 61.5781 196.362 57.7253 196.531C56.8136 196.573 56.4046 196.899 56.7683 197.807C57.9055 200.642 57.5227 203.295 55.8366 205.86C55.3 206.675 54.9412 207.609 54.5191 208.495C53.9763 209.592 53.2367 210.581 52.337 211.414C50.9706 212.746 49.9623 214.445 48.8259 216.006C47.5461 217.762 47.6346 217.714 46.338 215.969C45.5641 214.928 44.5102 214.097 43.5839 213.173L43.27 213.356C43.4668 214.137 43.6263 214.931 43.8728 215.697C44.1575 216.601 43.754 217.081 42.9746 217.385C42.1952 217.689 41.65 217.585 41.289 216.757C40.9527 215.982 40.5154 215.252 40.1216 214.5L39.6734 214.567C39.6546 216.121 39.5522 217.679 39.6389 219.228C39.717 220.628 39.74 220.685 38.3446 220.375C36.6771 220.004 35.0116 219.632 33.3483 219.258C33.0648 219.195 32.7616 219.044 32.4979 219.094C30.1941 219.538 28.3701 218.249 26.3951 217.515C25.5825 217.212 24.8075 216.796 23.9746 216.538C22.4016 216.057 21.437 215.014 20.7204 213.581C19.2919 210.729 19.2638 210.763 16.6575 212.803C12.0217 216.432 7.38443 220.058 3.33506 224.349C2.30754 225.437 1.38659 226.621 0.4533 227.791C-0.143448 228.54 -0.123909 228.689 0.350609 229.794C0.985161 229.281 1.59325 228.794 2.19362 228.3C3.02885 227.612 3.92046 227.163 5.04607 227.118C8.3175 226.973 11.5895 226.686 14.8639 226.566C15.5058 226.544 16.2562 226.902 16.7878 227.302C17.6418 227.971 18.4274 228.722 19.1334 229.545C19.7028 230.184 20.2683 230.262 21.063 230.004C24.3614 228.957 27.6767 227.927 31.0119 226.963C31.7712 226.739 32.5722 226.698 33.3485 226.843C36.6505 227.559 39.9196 228.391 43.2122 229.128C43.768 229.254 44.3479 229.232 44.8944 229.065C46.4172 228.561 47.9139 227.969 49.3968 227.36C49.7912 227.191 50.1329 226.918 50.3859 226.572C52.3986 223.751 54.3464 220.886 56.3884 218.087C56.8696 217.456 57.4945 216.947 58.2112 216.603C61.3704 215.083 64.5619 213.629 67.7704 212.198C68.5127 211.87 68.9221 211.433 68.8308 210.641C68.449 207.306 69.9898 205.03 72.7315 203.251C74.6261 202.021 76.3344 200.504 78.1828 199.197C78.6803 198.847 79.3799 198.734 80.0066 198.631C81.0087 198.459 82.0212 198.391 83.127 198.27Z" fill="white"/>
</svg>
