<svg width="98" height="64" viewBox="0 0 98 64" fill="none" xmlns="http://www.w3.org/2000/svg">
<path d="M0.222656 38.2021C0.314665 37.3678 0.795361 37.0666 1.46292 37.0198C4.73504 36.7889 8.00667 36.4349 11.2783 36.3902C14.3555 36.3563 17.444 36.6774 20.5231 36.8123C21.2517 36.8457 21.5786 37.1063 21.2879 37.8319C20.3791 40.0971 20.6851 42.2178 22.0326 44.2677C22.4614 44.9193 22.7481 45.6656 23.0855 46.3737C23.5192 47.25 24.1103 48.0407 24.8293 48.7066C25.9214 49.7711 26.7272 51.1285 27.6354 52.3763C28.6581 53.7797 28.5874 53.7413 29.6236 52.3466C30.2421 51.5144 31.0843 50.8503 31.8247 50.112L32.0755 50.2579C31.9182 50.8826 31.7907 51.5172 31.5937 52.1295C31.3662 52.8514 31.6887 53.2353 32.3116 53.4781C32.9344 53.7208 33.3702 53.6377 33.6586 52.9763C33.9274 52.3568 34.2769 51.7731 34.5916 51.1721L34.9499 51.2258C34.9648 52.4683 35.0467 53.7135 34.9774 54.9509C34.915 56.0701 34.8966 56.1157 36.0118 55.8674C37.3444 55.5715 38.6754 55.2739 40.0047 54.9747C40.2312 54.9246 40.4736 54.8042 40.6843 54.8441C42.5255 55.1987 43.9832 54.1683 45.5616 53.5819C46.211 53.3402 46.8303 53.0073 47.496 52.8014C48.7531 52.4166 49.524 51.5835 50.0967 50.4381C51.2383 48.1585 51.2607 48.1857 53.3437 49.8165C57.0485 52.7162 60.7545 55.6147 63.9907 59.0436C64.8118 59.9128 65.5478 60.8596 66.2937 61.7941C66.7706 62.3928 66.755 62.5123 66.3758 63.3955C65.8686 62.9853 65.3827 62.5961 64.9029 62.2008C64.2354 61.6511 63.5228 61.2924 62.6233 61.2562C60.0088 61.1406 57.3939 60.9116 54.777 60.8157C54.2641 60.7975 53.6644 61.0836 53.2395 61.4034C52.557 61.9383 51.9292 62.5387 51.365 63.196C50.9099 63.7067 50.458 63.7688 49.8228 63.563C47.1869 62.7262 44.5373 61.903 41.8719 61.1328C41.2651 60.9536 40.6249 60.9208 40.0045 61.037C37.3656 61.6091 34.7531 62.2738 32.1217 62.8632C31.6775 62.9632 31.214 62.9458 30.7773 62.8127C29.5603 62.4099 28.3642 61.9369 27.1791 61.4503C26.8639 61.3145 26.5908 61.0969 26.3886 60.8203C24.7801 58.5653 23.2235 56.2759 21.5915 54.0394C21.207 53.535 20.7076 53.1284 20.1348 52.8535C17.61 51.6385 15.0594 50.4764 12.4953 49.3329C11.9021 49.0705 11.5748 48.721 11.6479 48.0888C11.953 45.4231 10.7216 43.604 8.53047 42.1825C7.01632 41.1998 5.65113 39.9869 4.1739 38.9426C3.77633 38.6633 3.21724 38.5724 2.71641 38.4901C1.91555 38.3531 1.10635 38.2986 0.222656 38.2021Z" fill="white"/>
<path d="M47.1065 19.7682C46.9324 19.1979 47.1609 18.8669 47.5824 18.6496C49.6479 17.5836 51.6785 16.4373 53.796 15.4929C55.7898 14.61 57.8906 13.9556 59.933 13.1823C60.4167 13.0003 60.7026 13.079 60.7169 13.6338C60.7605 15.3665 61.5544 16.6651 63.0065 17.6261C63.4685 17.9314 63.8644 18.3383 64.2826 18.7061C64.8108 19.1567 65.4173 19.5074 66.0722 19.7409C67.0817 20.1302 67.987 20.7907 68.9282 21.3511C69.9876 21.981 69.9308 21.9757 70.2143 20.7755C70.3836 20.0594 70.7456 19.3903 71.0205 18.7013L71.2248 18.7264C71.2976 19.1781 71.3925 19.628 71.436 20.0827C71.4904 20.6175 71.8079 20.7779 72.2815 20.7621C72.7551 20.7463 73.0155 20.5702 73.0178 20.0578C73.0191 19.5782 73.0829 19.0995 73.1192 18.6192L73.3675 18.554C73.7257 19.3609 74.1282 20.1506 74.4301 20.9777C74.7034 21.7256 74.7042 21.7605 75.3606 21.2865C76.1452 20.7206 76.9283 20.154 77.7098 19.5869C77.8432 19.4908 77.9672 19.3444 78.1156 19.3115C79.4137 19.0279 80.0737 17.9476 80.9368 17.1234C81.2919 16.784 81.6017 16.3934 81.9773 16.0728C82.6878 15.47 82.9561 14.7106 83.0077 13.8028C83.1116 11.9956 83.1338 12.0071 84.9473 12.4888C88.1724 13.345 91.398 14.2001 94.4665 15.5328C95.2449 15.8704 95.9896 16.2825 96.7372 16.6837C97.2156 16.9411 97.239 17.0235 97.2398 17.706C96.7946 17.5801 96.3691 17.4621 95.9458 17.3383C95.3571 17.1662 94.7926 17.1314 94.1968 17.3595C92.4623 18.0154 90.6957 18.5974 88.9651 19.2668C88.626 19.3984 88.3159 19.7529 88.1289 20.0805C87.8346 20.6205 87.5943 21.188 87.4113 21.7749C87.2583 22.2355 86.9814 22.4025 86.5102 22.4458C84.5595 22.6371 82.6037 22.8409 80.6524 23.0838C80.2071 23.1367 79.7811 23.2943 79.4098 23.5437C77.8522 24.6553 76.3378 25.8199 74.7899 26.9407C74.5288 27.1303 74.2222 27.2486 73.9005 27.2839C72.9953 27.3614 72.0839 27.3873 71.1759 27.4012C70.9326 27.4008 70.6938 27.3351 70.4846 27.2111C68.805 26.1893 67.1496 25.1305 65.4599 24.1273C65.068 23.9056 64.6289 23.78 64.1789 23.7607C62.1944 23.674 60.208 23.6291 58.218 23.5999C57.7582 23.5946 57.4472 23.4581 57.3174 23.0251C56.7684 21.1998 55.4566 20.357 53.6314 20.0421C52.3701 19.8243 51.1412 19.4146 49.8866 19.1462C49.5494 19.0752 49.1599 19.1722 48.8108 19.2586C48.251 19.3932 47.7089 19.584 47.1065 19.7682Z" fill="white"/>
</svg>
