<svg width="17" height="18" viewBox="0 0 17 18" fill="none" xmlns="http://www.w3.org/2000/svg">
<path d="M8.70752 5.40765C8.70752 5.13151 8.48366 4.90765 8.20752 4.90765C7.93138 4.90765 7.70752 5.13151 7.70752 5.40765V9.59965C7.70752 9.77574 7.80014 9.93884 7.95136 10.0291L11.2119 11.9741C11.4491 12.1156 11.756 12.038 11.8975 11.8009C12.0389 11.5637 11.9614 11.2568 11.7242 11.1153L8.70752 9.31572V5.40765Z" fill="#667CBB"/>
<path fill-rule="evenodd" clip-rule="evenodd" d="M8.5 0.5C3.80526 0.5 0 4.30526 0 9C0 13.6947 3.80526 17.5 8.5 17.5C13.1947 17.5 17 13.6947 17 9C17 4.30526 13.1947 0.5 8.5 0.5ZM1 9C1 4.85755 4.35755 1.5 8.5 1.5C12.6425 1.5 16 4.85755 16 9C16 13.1425 12.6425 16.5 8.5 16.5C4.35755 16.5 1 13.1425 1 9Z" fill="#667CBB"/>
</svg>
