<svg width="70" height="70" viewBox="0 0 70 70" fill="none" xmlns="http://www.w3.org/2000/svg">
<path d="M21.1479 0C15.542 0.0153893 10.1702 2.25444 6.20721 6.22752C2.24422 10.2006 0.0124687 15.5844 0 21.2018V70H48.8448C54.452 69.9884 59.8262 67.7514 63.7911 63.7785C67.7559 59.8055 69.9885 54.4204 70 48.8019V0H21.1479Z" fill="white"/>
<path d="M9.93599 25.1239C9.94462 21.1026 11.5425 17.2484 14.3799 14.4046C17.2173 11.5607 21.0633 9.95872 25.0764 9.9491H60.0492V17.6585H25.0764C23.1032 17.6671 21.2132 18.4564 19.8178 19.8546C18.4225 21.2528 17.6348 23.1466 17.6262 25.1239L17.5789 38.07C17.4198 39.7297 16.7165 41.2898 15.5791 42.5066C14.4416 43.7235 12.9339 44.5286 11.2916 44.7961L9.92871 45.0037L9.93599 25.1239Z" fill="#ED1C24"/>
<path d="M9.93604 60.0692V52.3562H44.9088C46.8808 52.3457 48.7692 51.5563 50.1641 50.1593C51.5589 48.7623 52.3476 46.8705 52.3591 44.8944V32.6038C52.3677 30.8206 53.0095 29.0986 54.1694 27.7461C55.3294 26.3936 56.9319 25.4989 58.69 25.2222L60.0492 25.011V44.8944C60.0396 48.9167 58.4405 52.7715 55.6017 55.6153C52.763 58.4592 48.9157 60.0606 44.9015 60.0692H9.93604Z" fill="#ED1C24"/>
<path d="M39.5517 45.0292V35.0584L34.9943 40.5172L30.4369 35.0584V45.0292H24.3967V25.408H30.1207L34.9943 31.7153L39.8715 25.408H45.5883V45.0292H39.5517Z" fill="#ED1C24"/>
</svg>
