<svg width="132" height="48" viewBox="0 0 132 48" fill="none" xmlns="http://www.w3.org/2000/svg">
<path d="M14 20.3981C13.336 20.9472 12.5614 21.1669 12.008 21.1669C10.9014 21.2767 9.68408 20.9472 9.02009 20.0686C8.46677 19.4096 8.13478 18.4211 7.47079 17.6522C6.47481 16.4441 5.03617 15.6753 3.48686 16.0047C0.388255 16.5539 -0.93972 20.0686 0.720249 22.4849C3.15487 25.8897 8.79876 25.3406 11.5654 22.9242C12.4507 22.1554 13.336 21.3866 14 20.3981Z" fill="white"/>
<path d="M118 20.3981C118.664 20.9472 119.439 21.1669 119.992 21.1669C121.099 21.2767 122.316 20.9472 122.98 20.0686C123.533 19.2997 123.865 18.4211 124.529 17.6522C125.415 16.4441 126.964 15.6753 128.513 16.0047C131.612 16.5539 132.94 20.0686 131.28 22.4849C128.845 25.8897 123.201 25.3406 120.435 22.9242C119.549 22.1554 118.664 21.3866 118 20.3981Z" fill="white"/>
<path d="M107.526 1.99097C107.421 1.99097 100.474 1.99097 100.474 1.99097C99.7368 1.99097 99.1053 2.71185 99 3.43272C99 4.1536 99.6316 4.87448 100.474 4.97746C100.579 4.97746 107.526 4.97746 107.526 4.97746C108.263 4.97746 108.895 4.25658 109 3.53571C109 2.81483 108.368 2.09395 107.526 1.99097Z" fill="white"/>
<path d="M60.7868 17.3252C60.6765 16.8757 60.6765 16.5385 60.5662 16.0889C60.5662 15.5269 60.5662 14.6278 60.5662 13.841C60.6765 11.1435 61.1176 6.42297 57.4779 6.42297C55.0515 6.42297 53.5074 8.55846 53.1765 9.23283C53.0662 7.32212 51.6324 5.97339 49.3162 5.97339C47.8824 5.97339 47 7.09733 47 7.09733C47 7.09733 48.4338 7.54691 48.4338 9.45762C48.4338 10.8064 48.4338 17.4376 48.4338 17.55C48.4338 18.7864 49.3162 19.7979 50.75 19.7979C52.1838 19.7979 53.1765 18.674 53.1765 17.55V11.5931C53.3971 10.5816 53.9485 9.68241 54.7206 9.68241C55.8235 9.68241 55.8235 10.9187 55.8235 10.9187V16.6509C55.8235 16.8757 55.8235 16.9881 55.9338 17.2128C55.9338 17.55 56.0441 17.7748 56.1544 17.9996C56.7059 19.1236 57.9191 19.9103 59.6838 19.9103C61.1176 19.9103 62 18.7864 62 18.7864C62 18.7864 61.2279 18.3368 60.7868 17.3252Z" fill="white"/>
<path d="M96.6743 17.4902C96.5538 17.0502 96.5538 16.7202 96.4332 16.2802V2.42023C96.4332 1.10024 95.228 0.000244141 93.7818 0.000244141C92.3356 0.000244141 91.0098 1.10024 91.0098 2.42023V14.6302C91.0098 15.7302 90.8893 16.8302 91.4919 17.9302C92.0945 19.0301 93.6613 19.9101 95.4691 19.9101C97.0358 19.9101 98 18.8101 98 18.8101C98 18.8101 97.1564 18.4801 96.6743 17.4902Z" fill="white"/>
<path d="M40.5 17.0068C39.2213 17.0068 38.582 15.497 38.582 12.9419C38.582 10.5029 39.3279 8.99306 40.3934 8.87692C41.459 8.87692 42.2049 10.3867 42.2049 12.9419C42.3115 15.3808 41.7787 16.8906 40.5 17.0068ZM40.5 5.97339C36.877 5.97339 34 9.1092 34 12.9419C34 16.7745 36.877 19.9103 40.5 19.9103C44.1229 19.9103 47 16.7745 47 12.9419C47 9.1092 44.0164 5.97339 40.5 5.97339Z" fill="white"/>
<path d="M68.5815 16.6853C67.2696 16.6853 66.6136 15.368 66.6136 13.3922C66.6136 11.4163 67.3789 10.0991 68.4722 10.0991C69.5655 10.0991 70.3308 11.4163 70.3308 13.3922C70.4401 15.368 69.7842 16.6853 68.5815 16.6853ZM75.9067 17.4537C75.7974 17.0146 75.7974 16.6853 75.688 16.2462V2.41518C75.688 1.09794 74.5947 0.000244141 73.1734 0.000244141C71.7521 0.000244141 70.6588 1.09794 70.6588 2.41518V9.00138C70.1122 8.233 68.8002 6.80598 66.7229 6.80598C61.0377 6.80598 60.7097 16.7951 64.5363 19.21C65.6296 19.8686 67.2696 20.0882 68.5815 19.7588C69.4562 19.5393 70.7681 18.6611 70.9868 17.6732C70.9868 17.783 71.0961 17.783 71.0961 17.8928C71.6428 18.9905 73.0641 19.8686 74.7041 19.8686C76.1254 19.8686 77 18.7709 77 18.7709C77 18.7709 76.2347 18.4416 75.9067 17.4537Z" fill="white"/>
<path d="M82.2857 12.1289C82.3929 11.0836 82.7143 9.6899 83.5714 8.99306C84.4286 8.52849 85.5 9.1092 85.5 10.1545C85.5 11.1997 84.8571 12.0127 83.8929 12.245C83.8929 12.1289 82.2857 12.245 82.2857 12.1289ZM89.3571 15.6131C89.3571 15.6131 88.6071 16.6584 85.9286 16.6584C83.1429 16.6584 82.6071 14.3355 82.6071 14.3355C86.5714 14.3355 90 14.1033 90 10.619C90 7.1348 86.3571 5.97339 84.2143 5.97339C80.6786 5.97339 78 8.99306 78 13.058C78 17.5875 81.4286 19.9103 84.2143 19.9103C89.1429 19.9103 89.3571 15.6131 89.3571 15.6131Z" fill="white"/>
<path d="M102.393 12.1289C102.5 11.0836 102.821 9.6899 103.679 8.99306C104.429 8.52849 105.5 9.1092 105.5 10.1545C105.5 11.1997 104.857 12.0127 103.893 12.245C103.893 12.1289 102.393 12.245 102.393 12.1289ZM109.357 15.6131C109.357 15.6131 108.607 16.6584 105.929 16.6584C103.25 16.6584 102.607 14.3355 102.607 14.3355C106.571 14.3355 110 14.1033 110 10.619C110 7.1348 106.357 5.97339 104.214 5.97339C100.679 5.97339 98 8.99306 98 13.058C98 17.5875 101.429 19.9103 104.214 19.9103C109.143 19.9103 109.357 15.6131 109.357 15.6131Z" fill="white"/>
<path d="M118.544 16.1842H115.673C115.894 16.1842 117.992 14.3689 118.654 13.8017C120.531 12.2133 123.732 9.94426 122.849 7.10792C122.628 6.4272 122.187 5.97339 122.187 5.97339C122.187 5.97339 121.966 6.54066 121.304 6.76756C121.083 6.88102 120.752 6.88102 120.531 6.88102C120.31 6.88102 112.582 6.88102 112.582 6.88102C111.589 6.88102 110.705 7.67519 110.705 8.69627C110.705 9.71735 111.478 10.5115 112.582 10.5115H117.108C115.011 11.6461 112.582 13.121 111.257 15.1631C110.485 16.4111 109.822 18.2264 110.043 19.7013C111.037 18.7936 113.686 17.9995 115.673 18.3398C116.446 18.4533 117.219 18.9071 117.881 19.2474C121.635 21.63 123.843 16.9784 122.076 14.9362C121.966 15.1631 120.862 16.1842 118.544 16.1842Z" fill="white"/>
<path d="M34.0368 18.9838C31.7206 16.5786 31.0588 12.4241 30.8382 9.80027C30.7279 7.50438 30.8382 3.45926 32.7132 2.25665C32.0515 1.49135 30.8382 1.16337 29.8456 1.16337C27.75 1.16337 26.6471 2.58463 25.9853 3.56858C25.7647 3.89657 22.125 8.70699 22.125 8.70699C22.125 8.70699 19.1471 4.00589 18.8162 3.45925C18.2647 2.69396 17.3824 1.2727 15.6176 1.05404C14.8456 0.944716 12.9706 0.835388 11.9779 2.25665C13.7426 3.67791 13.7426 7.1764 13.3015 9.58161C12.1985 16.7972 9 17.4532 9 17.4532C10.6544 21.717 14.7353 19.9678 15.9485 16.6879C16.7206 14.5014 17.1618 11.7682 17.2721 9.47228L21.7941 16.2506L26.9779 9.47228C26.0956 21.4983 30.3971 24.8875 34.0368 24.8875C37.6765 24.8875 39 21.6077 39 21.6077C37.0147 21.2797 35.3603 20.2957 34.0368 18.9838Z" fill="white"/>
<path d="M45.6 22.9935C45.6 23.212 45.72 23.3213 45.72 23.5398C45.72 23.5398 45.72 29.7677 45.72 29.877C45.72 30.4233 46.32 30.8603 46.8 30.8603C47.4 30.8603 48 30.4233 48 29.877C48 29.7677 48 24.1954 48 24.1954C48 23.7583 48 23.212 47.76 22.775C47.52 22.3379 46.8 21.9009 46.08 21.9009C45.36 21.9009 45 22.3379 45 22.3379C45 22.3379 45.48 22.5564 45.6 22.9935Z" fill="white"/>
<path d="M113.4 29.7677C113.4 29.5492 113.28 29.4399 113.28 29.2214C113.28 29.2214 113.28 22.9935 113.28 22.8842C113.28 22.3379 112.68 21.9009 112.2 21.9009C111.6 21.9009 111 22.3379 111 22.8842C111 22.9935 111 28.5658 111 28.5658C111 29.0029 111 29.5492 111.24 29.9862C111.48 30.4233 112.2 30.8603 112.92 30.8603C113.64 30.8603 114 30.4233 114 30.4233C114 30.4233 113.52 30.2048 113.4 29.7677Z" fill="white"/>
<path d="M74.7361 25.2135C73.7264 25.2135 73.1205 26.0823 72.9186 26.4081C72.9186 26.0823 72.9186 25.8651 72.9186 25.8651C72.9186 25.3221 72.4137 24.9963 72.0098 24.8877C71.5049 24.8877 71 25.3221 71 25.8651C71 25.9737 71 29.7747 71 29.8833C71 30.4263 71.5049 30.8607 71.9088 30.8607C72.4137 30.8607 72.9186 30.4263 72.9186 29.8833C72.9186 29.8833 72.9186 28.5801 72.9186 27.4941C73.0195 27.0597 73.2215 26.6253 73.5244 26.6253C73.9283 26.6253 74.0293 27.1683 74.0293 27.1683V29.8833C74.0293 30.4263 74.5342 30.8607 74.9381 30.8607C75.443 30.8607 75.9479 30.4263 75.9479 29.8833V28.4715C76.0488 26.9511 76.1498 25.2135 74.7361 25.2135Z" fill="white"/>
<path d="M101.736 25.2135C100.726 25.2135 100.121 26.0823 99.9186 26.4081C99.9186 26.0823 99.9186 25.8651 99.9186 25.8651C99.9186 25.3221 99.4137 24.9963 99.0098 24.8877C98.5049 24.8877 98 25.3221 98 25.8651C98 25.9737 98 29.7747 98 29.8833C98 30.4263 98.5049 30.8607 98.9088 30.8607C99.4137 30.8607 99.9186 30.4263 99.9186 29.8833C99.9186 29.8833 99.9186 28.5801 99.9186 27.4941C100.02 27.0597 100.221 26.6253 100.524 26.6253C100.928 26.6253 101.029 27.1683 101.029 27.1683V29.8833C101.029 30.4263 101.534 30.8607 101.938 30.8607C102.443 30.8607 102.948 30.4263 102.948 29.8833V28.4715C103.049 26.9511 103.15 25.2135 101.736 25.2135Z" fill="white"/>
<path d="M52.7679 25.2135C51.7496 25.2135 51.1385 26.0823 50.9349 26.4081C50.9349 26.0823 50.9349 25.8651 50.9349 25.8651C50.9349 25.3221 50.4257 24.9963 50.0184 24.8877C49.5092 24.8877 49 25.3221 49 25.8651C49 25.9737 49 29.7747 49 29.8833C49 30.4263 49.5092 30.8607 49.9165 30.8607C50.4257 30.8607 50.9349 30.4263 50.9349 29.8833C50.9349 29.8833 50.9349 28.5801 50.9349 27.4941C51.0367 27.0597 51.2404 26.6253 51.5459 26.6253C51.9532 26.6253 52.0551 27.1683 52.0551 27.1683V29.8833C52.0551 30.4263 52.5642 30.8607 52.9716 30.8607C53.4808 30.8607 53.9899 30.4263 53.9899 29.8833V28.4715C53.9899 26.9511 54.1936 25.2135 52.7679 25.2135Z" fill="white"/>
<path d="M94 29.5333C93.4444 29.5333 93.1111 28.8697 93.1111 27.8742C93.1111 26.7681 93.4444 26.215 94 26.1044C94.4444 26.1044 94.8889 26.7681 94.8889 27.8742C94.8889 28.8697 94.5556 29.5333 94 29.5333ZM94 24.8877C92.3333 24.8877 91 26.215 91 27.8742C91 29.5333 92.3333 30.8607 94 30.8607C95.6667 30.8607 97 29.5333 97 27.8742C97 26.215 95.6667 24.8877 94 24.8877Z" fill="white"/>
<path d="M79.3835 29.4455C78.9323 29.4455 78.6617 28.9029 78.6617 27.9262C78.6617 27.0581 78.9323 26.5155 79.3835 26.407C79.7444 26.407 80.1053 26.9496 80.1053 27.9262C80.1053 28.9029 79.8346 29.4455 79.3835 29.4455ZM82 25.8644C82 25.3218 81.5489 24.8877 81.0977 24.8877C80.6466 24.8877 80.1955 25.3218 80.1955 25.8644V25.9729C80.015 25.6473 79.4737 24.9962 78.7519 24.9962C76.6767 24.9962 76.4963 29.4455 77.9399 30.5307C78.3008 30.8563 78.9323 30.9648 79.3835 30.7477C79.6541 30.6392 80.015 30.4222 80.1955 30.0966C80.2857 30.5307 80.6466 30.8563 81.0075 30.8563C81.4586 30.8563 81.9098 30.4222 81.9098 29.8796C82 29.8796 82 25.9729 82 25.8644Z" fill="white"/>
<path d="M106.86 29.2095C106.319 29.2095 105.994 28.5765 105.994 27.4371C105.994 26.4242 106.319 25.7912 106.86 25.6646C107.293 25.6646 107.726 26.2976 107.726 27.4371C107.726 28.5765 107.402 29.2095 106.86 29.2095ZM110 25.0315C110 24.3985 109.459 23.8921 108.917 23.8921C108.376 23.8921 107.835 24.3985 107.835 25.0315V25.1581C107.618 24.7783 106.968 24.0187 106.102 24.0187C103.612 24.0187 103.396 29.2095 105.128 30.4756C105.561 30.8554 106.319 30.982 106.86 30.7288C107.185 30.6022 107.618 30.349 107.835 29.9692C107.943 30.4756 108.376 30.8554 108.809 30.8554C109.35 30.8554 109.892 30.349 109.892 29.716C110 29.716 110 25.1581 110 25.0315Z" fill="white"/>
<path d="M90 25.9848C90 25.3753 89.6 25.0096 89.1 24.8877H89C88.6 24.8877 88 25.3753 88 25.8629V27.9351C88 28.5446 88 29.7636 88 29.7636C88 30.3731 88.4 30.7388 88.9 30.8607H89C89.4 30.8607 90 30.3731 90 29.8855V28.057C90 27.4475 90 25.9848 90 25.9848Z" fill="white"/>
<path d="M90 22.8964C90 23.4494 89.6 23.8919 89 23.8919C88.5 23.8919 88 23.4494 88 22.8964C88 22.3433 88.4 21.9009 89 21.9009C89.6 21.9009 90 22.3433 90 22.8964Z" fill="white"/>
<path d="M68.9434 25.1049C68.3737 25.1049 68.0888 25.5393 67.804 26.1909C67.804 26.1909 67.804 25.9737 67.804 25.8651C67.804 25.3221 67.3293 24.8877 66.9495 24.8877C66.4747 24.8877 66 25.3221 66 25.8651V27.3855V29.8833C66 30.4263 66.4747 30.8607 66.8545 30.8607C67.3293 30.8607 67.804 30.4263 67.804 29.8833V27.3855C67.804 27.0597 67.9939 26.5167 68.2787 26.5167C68.6585 26.5167 68.2787 27.4941 69.1333 27.4941C70.2726 27.6027 70.3676 25.1049 68.9434 25.1049Z" fill="white"/>
<path d="M61.04 27.5903C61.16 27.1398 61.28 26.4642 61.76 26.239C62.12 26.0138 62.72 26.239 62.72 26.6894C62.72 27.1398 62.36 27.4777 61.88 27.5903H61.04ZM64.64 29.0542C64.64 29.0542 64.28 29.5046 62.96 29.5046C61.52 29.5046 61.28 28.4911 61.28 28.4911C63.32 28.4911 65 28.3785 65 26.9146C65 25.4507 63.2 24.8877 62.12 24.8877C60.32 24.8877 59 26.239 59 27.9281C59 29.8424 60.68 30.8559 62.12 30.8559C64.52 30.9685 64.64 29.0542 64.64 29.0542Z" fill="white"/>
<path d="M59 29.6352C59 29.6352 58.4737 30.8604 57.5263 30.8604C56.6842 30.8604 55.7368 30.0028 55.7368 28.9001C55.7368 28.9001 55.7368 27.1848 55.7368 25.837H55.4211C55.3158 25.837 55 25.7145 55 25.3469C55 24.9794 55.3158 24.8568 55.4211 24.8568H55.6316C55.6316 24.3668 55.6316 23.9992 55.6316 23.9992C55.6316 23.3866 56.1579 22.8965 56.6842 22.8965C57.2105 22.8965 57.6316 23.3866 57.6316 23.9992V24.7343H58.4737C58.5789 24.7343 58.8947 24.8568 58.8947 25.2244C58.8947 25.7145 58.5789 25.7145 58.4737 25.7145H57.6316V28.2875C57.6316 29.1451 58.2632 29.6352 59 29.6352Z" fill="white"/>
<path d="M87 29.7885C87 29.7885 86.4737 30.8606 85.5263 30.8606C84.6842 30.8606 83.7368 30.1101 83.7368 29.1452C83.7368 29.1452 83.7368 27.6443 83.7368 26.4651H83.421C83.3158 26.4651 83 26.3579 83 26.0362C83 25.7146 83.3158 25.6074 83.421 25.6074H83.6316C83.6316 25.1786 83.6316 24.857 83.6316 24.857C83.6316 24.3209 84.1579 23.8921 84.6842 23.8921C85.2105 23.8921 85.6316 24.3209 85.6316 24.857V25.5002H86.4737C86.5789 25.5002 86.8947 25.6074 86.8947 25.929C86.8947 26.3579 86.5789 26.3579 86.4737 26.3579H85.6316V28.6092C85.7368 29.3597 86.3684 29.7885 87 29.7885Z" fill="white"/>
<path d="M5.88679 45.3508C5.88679 45.4614 5.88679 45.4614 5.88679 45.572C5.88679 45.6826 5.88679 45.6826 5.77358 45.7932C5.77358 45.7932 5.66038 45.9038 5.66038 46.0144C5.54717 46.3463 5.32075 46.5675 5.09434 46.7887C4.86792 46.8993 4.75472 47.0099 4.5283 47.1205C4.30189 47.2311 4.07547 47.3418 3.96226 47.4524C3.73585 47.563 3.50943 47.6736 3.28302 47.6736C3.0566 47.6736 2.9434 47.6736 2.71698 47.6736C2.60377 47.6736 2.37736 47.6736 2.26415 47.6736C1.92453 47.6736 1.92453 47.6736 1.58491 47.563C1.24528 47.4524 1.01887 47.2311 0.792453 46.8993C0.792453 46.8993 0.792453 47.0099 0.792453 47.1205C0.792453 47.2311 0.792453 47.3418 0.792453 47.4524C0.792453 47.563 0.679245 47.7842 0.566038 47.7842C0.45283 47.7842 0.339623 47.7842 0.226415 47.6736C0.113208 47.563 0.113208 47.4524 0.113208 47.4524C0.113208 47.3418 0.113208 47.2311 0.113208 47.1205C0.113208 47.0099 0.113208 46.8993 0.113208 46.6781C0.113208 46.5675 0.113208 46.125 0.113208 45.7932C0.113208 45.2401 0.113208 44.6871 0.113208 44.5765C0.113208 44.4659 0.113208 44.2447 0.226415 44.134C0.226415 44.0234 0.226415 44.0234 0.339623 44.0234L0.45283 43.9128L0.566038 44.0234C0.679245 44.134 0.679245 44.2447 0.679245 44.3553C0.679245 44.4659 0.679245 44.7977 0.679245 45.0189C0.679245 45.2401 0.679245 45.4614 0.679245 45.6826C0.679245 45.9038 0.679245 46.0144 0.792453 46.125C0.90566 46.2356 1.01887 46.3463 1.13208 46.5675C1.24528 46.7887 1.35849 46.7887 1.58491 46.8993C1.69811 46.8993 2.15094 47.0099 2.26415 47.0099C2.49057 47.0099 2.49057 46.8993 2.71698 46.8993C2.9434 46.7887 3.16981 46.8993 3.28302 46.7887C3.39623 46.6781 3.62264 46.5675 3.62264 46.4569C3.73585 46.3463 3.73585 46.2356 3.73585 46.125C3.73585 46.0144 3.73585 46.0144 3.73585 45.9038C3.62264 45.6826 3.50943 45.572 3.50943 45.4614C3.39623 45.0189 3.39623 44.7977 3.28302 44.5765C3.0566 44.2447 2.71698 43.9128 2.37736 43.581C2.15094 43.2492 1.81132 42.9173 1.4717 42.6961C1.13208 42.3643 0.90566 42.0324 0.566038 41.7006C0.339623 41.3688 0.226415 40.9263 0.113208 40.4839C0.113208 40.2627 0 39.8202 0 39.4884C0 39.046 0.226415 38.7141 0.45283 38.2717C0.679245 37.9398 1.01887 37.608 1.35849 37.3868C1.69811 37.1656 1.92453 37.1656 2.37736 37.055C2.60377 37.055 2.71698 36.9443 2.9434 36.9443C3.16981 36.9443 3.28302 36.9443 3.39623 37.055C3.50943 37.055 3.73585 37.1656 3.96226 37.2762C4.18868 37.3868 4.41509 37.3868 4.5283 37.608C4.5283 37.3868 4.5283 37.1656 4.64151 37.055C4.64151 36.9443 4.64151 36.9443 4.75472 36.9443C4.75472 36.9443 4.86792 36.8337 4.98113 36.8337L5.09434 36.9443C5.20755 37.055 5.20755 37.1656 5.20755 37.2762C5.20755 37.3868 5.20755 37.9398 5.20755 38.2717C5.20755 38.6035 5.20755 38.8247 5.20755 39.046C5.20755 39.4884 5.20755 39.599 5.20755 40.0414C5.20755 40.2627 5.20755 40.7051 4.86792 40.7051C4.75472 40.7051 4.64151 40.7051 4.5283 40.5945C4.41509 40.4839 4.41509 40.3733 4.41509 40.3733C4.41509 40.2627 4.41509 40.1521 4.41509 40.0414C4.41509 39.9308 4.41509 39.8202 4.41509 39.599C4.41509 39.4884 4.41509 39.2672 4.41509 39.046C4.41509 38.9353 4.41509 38.7141 4.30189 38.6035C4.18868 38.3823 4.18868 38.2717 3.96226 38.1611C3.84906 38.0505 3.73585 37.9398 3.50943 37.9398C3.39623 37.9398 3.16981 37.8292 2.9434 37.8292C2.71698 37.8292 2.49057 37.8292 2.37736 37.9398C2.26415 38.0505 2.26415 38.1611 2.15094 38.2717C2.03774 38.3823 1.92453 38.6035 1.92453 38.8247C1.92453 39.046 1.81132 39.1566 1.81132 39.3778C1.81132 39.4884 1.92453 39.599 1.92453 39.599C1.92453 39.7096 1.92453 39.8202 1.92453 39.9308C1.92453 40.0414 2.15094 40.1521 2.26415 40.2627C2.37736 40.3733 2.49057 40.5945 2.60377 40.7051C2.71698 40.9263 2.9434 41.0369 3.0566 41.2582C3.39623 41.3688 3.62264 41.4794 3.73585 41.59C3.96226 41.8112 4.30189 42.1431 4.64151 42.3643C4.75472 42.4749 4.86792 42.6961 4.98113 42.8067C4.98113 42.8067 5.09434 42.8067 5.09434 42.9173C5.20755 43.0279 5.20755 43.0279 5.20755 43.1385C5.32075 43.2492 5.54717 43.4704 5.66038 43.581C5.77358 43.6916 5.77358 43.9128 5.88679 44.134C6 44.2447 6 44.4659 6 44.5765C6 44.6871 6 44.6871 6 44.7977C6 44.9083 6 45.0189 5.88679 45.1295C5.88679 45.2402 5.88679 45.2401 5.88679 45.3508Z" fill="white"/>
<path d="M13.5616 37.5254C13.6712 37.5254 14 37.5253 14 37.7559C14 37.8712 14 37.9864 13.8904 37.9864C13.8904 38.1017 13.7808 38.1017 13.6712 38.1017C13.5616 38.1017 13.4521 38.1017 13.4521 38.1017C13.4521 38.1017 13.2329 38.1017 13.0137 38.1017C13.0137 38.217 13.0137 38.3322 13.0137 38.4475C13.0137 38.678 13.0137 38.7933 13.0137 39.0238C13.0137 39.3696 13.0137 39.6002 13.1233 39.946C13.1233 40.2918 13.1233 40.5223 13.1233 40.8681C13.1233 41.0987 13.1233 41.3292 13.1233 41.5597C13.1233 41.7903 13.1233 42.1361 13.1233 42.3666C13.1233 42.5971 13.0137 42.8277 13.0137 43.1735C13.0137 43.404 13.0137 43.6345 13.0137 43.9804C13.0137 44.3262 13.0137 44.5567 13.0137 44.9025C13.0137 45.133 13.0137 45.3636 13.0137 45.5941C13.0137 45.8246 13.0137 46.0552 13.0137 46.2857C13.0137 46.5162 13.1233 46.8621 13.1233 47.0926C13.1233 47.3231 13.1233 47.4384 12.9041 47.5537C12.6849 47.7842 12.4658 47.7842 12.137 47.7842C11.9178 47.7842 11.6986 47.6689 11.4795 47.6689C11.2603 47.5537 11.0411 47.4384 10.9315 47.3231C10.6027 46.9773 10.3836 46.6315 10.1644 46.1704C9.94521 45.7094 9.72603 45.2483 9.61644 44.672C9.50685 44.4414 9.39726 44.0956 9.28767 43.8651C9.17808 43.404 8.9589 42.9429 8.84931 42.4819C8.73973 42.1361 8.63014 41.9055 8.52055 41.5597C8.41096 41.3292 8.30137 41.0987 8.19178 40.8681C8.19178 40.7529 8.08219 40.7529 8.08219 40.7529C8.08219 40.7529 7.9726 40.8681 7.9726 40.9834C7.9726 41.0987 7.9726 41.0987 7.9726 41.2139C7.9726 41.4445 7.9726 41.7903 7.9726 42.0208C7.9726 42.5971 7.9726 43.0582 8.08219 43.6346C8.08219 43.7498 8.08219 43.9804 8.08219 44.0956C8.08219 44.4414 8.08219 44.7872 8.08219 45.133C8.08219 45.5941 8.08219 45.9399 8.08219 46.401C8.08219 46.5162 8.08219 46.6315 8.08219 46.7468C8.08219 46.8621 8.08219 47.0926 8.08219 47.2079C8.41096 47.2079 8.63014 47.2079 8.73973 47.2079C8.84932 47.2079 9.17808 47.2079 9.17808 47.4384C9.17808 47.5537 9.17808 47.6689 9.06849 47.6689C9.06849 47.7842 8.9589 47.7842 8.84931 47.7842C8.73973 47.7842 8.63014 47.7842 8.63014 47.7842C8.63014 47.7842 8.30137 47.7842 8.08219 47.7842C7.86301 47.7842 7.53425 47.7842 7.53425 47.7842C7.31507 47.7842 6.9863 47.7842 6.87671 47.7842C6.76712 47.7842 6.65753 47.7842 6.54795 47.7842C6.43836 47.7842 6.32877 47.7842 6.21918 47.6689C6.10959 47.6689 6 47.4384 6 47.4384V47.3231C6.10959 47.2079 6.21918 47.2079 6.21918 47.2079C6.43836 47.2079 6.87671 47.0926 6.87671 47.0926H6.9863C6.9863 46.401 6.9863 45.7094 6.9863 45.0178C6.9863 44.7872 6.9863 44.5567 6.9863 44.4414C6.9863 43.7498 6.9863 42.9429 6.9863 42.2513C6.9863 41.7903 6.9863 41.4445 6.9863 40.9834C6.9863 40.5223 6.9863 40.0612 6.9863 39.6002C6.9863 39.0238 6.9863 38.4475 6.9863 37.8712H6.87671C6.76712 37.8712 6.65753 37.8712 6.54795 37.8712C6.43836 37.8712 6.32877 37.8712 6.21918 37.7559C6.10959 37.7559 6 37.5254 6 37.5254V37.4101C6.10959 37.2948 6.21918 37.2948 6.21918 37.2948C6.43836 37.2948 6.9863 37.1795 7.09589 37.1795C7.20548 37.1795 7.42466 37.1795 7.53425 37.1795C7.64384 37.0643 7.75343 37.0643 7.86301 36.949C7.9726 36.8337 8.08219 36.8337 8.30137 36.8337C8.52055 36.8337 8.73973 36.949 8.84931 37.1795C8.9589 37.4101 9.06849 37.5253 9.17808 37.6406C9.28767 37.8712 9.28767 38.1017 9.39726 38.3322C9.61644 38.9086 9.72603 39.1391 9.72603 39.2544C9.83562 39.4849 9.94521 39.7154 9.94521 39.946C10.0548 40.1765 10.0548 40.407 10.1644 40.6376C10.274 40.8681 10.1644 41.0987 10.3836 41.2139C10.6027 41.5597 10.8219 42.1361 10.9315 42.5971C10.9315 42.8277 11.0411 43.0582 11.1507 43.2887C11.2603 43.5193 11.2603 43.7498 11.3699 43.9804C11.3699 44.2109 11.4795 44.4414 11.589 44.672C11.589 44.7872 11.6986 44.9025 11.8082 44.9025C11.8082 45.0178 11.8082 45.133 11.9178 45.2483C11.9178 45.3636 12.0274 45.5941 12.0274 45.7094C12.0274 45.8246 12.137 45.8246 12.137 45.8246C12.137 45.8246 12.2466 45.8246 12.2466 45.7094V45.5941C12.2466 45.3636 12.2466 45.0178 12.2466 44.7872C12.2466 44.2109 12.2466 43.6346 12.2466 43.0582C12.2466 42.5971 12.137 42.0208 12.137 41.5597C12.137 41.2139 12.137 40.8681 12.137 40.407C12.137 40.1765 12.137 39.946 12.137 39.7154C12.137 39.3696 12.137 39.0238 12.137 38.678C12.137 38.5628 12.137 38.3322 12.137 38.217C12.0274 38.217 11.8082 38.217 11.6986 38.217C11.589 38.217 11.4795 38.217 11.3699 38.217C11.2603 38.217 11.1507 38.217 11.0411 38.1017C10.9315 38.1017 10.8219 37.8712 10.8219 37.8712V37.7559C10.9315 37.6406 11.0411 37.6406 11.0411 37.6406C11.2603 37.6406 11.8082 37.5254 11.9178 37.5254C12.0274 37.5254 12.137 37.5254 12.2466 37.5254C12.3562 37.4101 12.4658 37.4101 12.5753 37.4101C12.6849 37.4101 12.7945 37.4101 12.7945 37.5254C13.1233 37.5254 13.4521 37.5254 13.5616 37.5254Z" fill="white"/>
<path d="M22 47.3505C22 47.4589 21.9014 47.4589 21.9014 47.5674C21.8028 47.6758 21.7042 47.6758 21.7042 47.6758C21.6056 47.6758 21.4084 47.6758 21.3099 47.6758C21.2113 47.6758 21.1127 47.6758 21.0141 47.6758H20.9155C20.8169 47.6758 20.8169 47.6758 20.7183 47.7842C20.6197 47.7842 20.5211 47.7842 20.5211 47.7842C20.3239 47.7842 20.1268 47.7842 20.0282 47.6758H19.7324C19.4366 47.6758 19.1408 47.6758 19.0423 47.6758C18.9437 47.6758 18.7465 47.6758 18.6479 47.5674C18.5493 47.5674 18.4507 47.4589 18.4507 47.3505C18.4507 47.1337 18.6479 47.1337 18.8451 47.1337C18.9437 47.1337 19.0423 47.1337 19.2394 47.1337C19.2394 47.0253 19.2394 46.9168 19.2394 46.8084C19.2394 46.7 19.2394 46.4832 19.2394 46.3747C19.2394 46.2663 19.2394 46.2663 19.2394 46.1579C19.2394 46.0495 19.2394 45.941 19.2394 45.941C19.2394 45.8326 19.2394 45.8326 19.1408 45.7242C19.1408 45.5074 19.0423 45.3989 19.0423 45.1821C19.0423 45.0737 19.0423 44.8568 19.0423 44.7484C19.0423 44.5316 19.0423 44.4232 18.9437 44.2063C18.9437 44.0979 18.9437 44.0979 18.8451 44.0979H18.7465C18.5493 44.0979 18.4507 44.0979 18.2535 44.0979C18.0563 44.0979 17.9577 44.0979 17.7606 44.0979C17.662 44.0979 17.4648 44.0979 17.3662 44.0979C17.2676 44.0979 17.169 44.0979 17.0704 44.0979C16.9718 44.0979 16.9718 44.2063 16.9718 44.3147C16.9718 44.4232 16.8732 44.64 16.8732 44.8568C16.7746 45.1821 16.7746 45.3989 16.6761 45.7242C16.5775 46.0495 16.4789 46.5916 16.3803 46.9168C16.4789 46.9168 16.6761 46.9168 16.8732 46.9168C17.0704 46.9168 17.3662 46.9168 17.3662 47.1337C17.3662 47.2421 17.3662 47.2421 17.2676 47.3505C17.169 47.4589 17.0704 47.4589 17.0704 47.4589C16.9718 47.4589 16.8732 47.4589 16.7746 47.4589C16.6761 47.4589 16.5775 47.4589 16.4789 47.4589C16.2817 47.4589 16.0845 47.4589 15.8873 47.4589C15.7887 47.4589 15.6901 47.4589 15.5915 47.4589C15.493 47.4589 15.2958 47.4589 15.1972 47.3505C15.0986 47.3505 15 47.1337 15 47.1337C15 47.1337 15 47.0253 15.0986 47.0253C15.1972 46.9168 15.2958 46.9168 15.3944 46.9168C15.5915 46.9168 15.7887 46.9168 15.9859 46.8084C15.9859 46.5916 15.9859 46.4832 16.0845 46.3747C16.1831 46.0495 16.1831 45.7242 16.2817 45.2905C16.2817 45.0737 16.3803 44.7484 16.3803 44.4232C16.3803 44.3147 16.4789 44.0979 16.4789 43.9895C16.4789 43.8811 16.1831 43.8811 16.0845 43.7726C15.9859 43.7726 15.9859 43.6642 15.9859 43.5558C15.9859 43.4474 16.0845 43.339 16.2817 43.339C16.3803 43.339 16.5775 43.339 16.6761 43.2305C16.7746 43.1221 16.7746 42.9053 16.7746 42.7969C16.8732 42.4716 16.9718 42.1463 17.0704 41.8211C17.169 41.4958 17.2676 41.1706 17.3662 40.7369C17.4648 40.4116 17.4648 40.0864 17.5634 39.7611C17.662 39.4358 17.662 39.1106 17.7606 38.7853C17.8592 38.46 17.9577 38.1348 18.1549 37.8095L18.2535 37.4843C18.3521 37.3758 18.3521 37.159 18.4507 37.0506C18.6479 36.8337 19.0423 36.8337 19.2394 36.8337C19.4366 36.8337 19.5352 36.8337 19.6338 36.9422C19.7324 37.0506 19.7324 37.159 19.831 37.2674C19.9296 37.3758 20.0282 37.4843 20.0282 37.5927C20.0282 37.7011 20.0282 37.8095 20.1268 37.9179C20.2254 38.1348 20.2254 38.46 20.2254 38.6769C20.3239 38.8937 20.4225 39.219 20.4225 39.4358C20.4225 39.7611 20.5211 40.0864 20.5211 40.3032C20.6197 40.6285 20.6197 40.8453 20.6197 41.1706C20.6197 41.279 20.6197 41.4958 20.7183 41.6042C20.7183 41.8211 20.8169 42.0379 20.8169 42.1463C20.8169 42.2548 20.8169 42.3632 20.9155 42.58C20.9155 42.6884 21.0141 42.7969 21.0141 42.9053C21.0141 42.9053 21.1127 42.9053 21.2113 42.9053C21.3099 42.9053 21.3099 42.9053 21.4085 42.9053C21.507 42.9053 21.7042 42.9053 21.8028 43.1221V43.2305C21.8028 43.2305 21.8028 43.339 21.7042 43.339C21.6056 43.4474 21.507 43.5558 21.4085 43.5558C21.4085 43.5558 21.3099 43.5558 21.2113 43.5558H21.1127C21.1127 43.5558 21.1127 43.5558 21.1127 43.6642C21.1127 43.6642 21.1127 43.7726 21.1127 43.8811C21.1127 43.9895 21.1127 43.9895 21.1127 44.0979V44.3147C21.1127 44.4232 21.1127 44.4232 21.1127 44.5316C21.1127 44.64 21.2113 44.8568 21.2113 44.9653C21.2113 45.0737 21.3099 45.2905 21.3099 45.3989C21.3099 45.6158 21.4085 45.7242 21.4085 45.8326C21.4085 46.0495 21.4085 46.1579 21.507 46.3747C21.507 46.4832 21.507 46.4832 21.507 46.5916C21.6056 46.5916 21.7042 46.5916 21.9014 46.5916C21.8028 47.0253 22 47.2421 22 47.3505ZM18.5493 43.2305C18.5493 43.1221 18.5493 43.0137 18.5493 42.9053C18.5493 42.6884 18.4507 42.58 18.4507 42.3632C18.4507 41.9295 18.4507 41.3874 18.4507 40.9537C18.4507 40.7369 18.4507 40.52 18.3521 40.3032C18.3521 40.0864 18.2535 39.8695 18.2535 39.5442C18.2535 39.4358 18.2535 39.1106 18.2535 38.8937C18.2535 38.6769 18.1549 38.5685 18.1549 38.5685C18.0563 38.5685 17.8592 38.7853 17.8592 38.8937C17.8592 39.1106 17.7606 39.219 17.7606 39.4358C17.7606 39.5442 17.7606 39.6527 17.7606 39.6527C17.7606 39.7611 17.7606 39.8695 17.7606 39.8695C17.662 40.0864 17.662 40.3032 17.662 40.4116C17.5634 40.8453 17.4648 41.1706 17.3662 41.4958C17.3662 41.7127 17.2676 41.8211 17.2676 42.0379C17.2676 42.2548 17.169 42.4716 17.169 42.6884C17.169 42.7969 17.0704 43.0137 17.0704 43.1221C17.0704 43.1221 17.0704 43.1221 17.169 43.1221C17.2676 43.1221 17.4648 43.1221 17.4648 43.1221C17.5634 43.1221 17.662 43.1221 17.7606 43.1221C17.8592 43.1221 17.9577 43.1221 18.0563 43.1221C18.1549 43.1221 18.2535 43.1221 18.4507 43.1221C18.3521 43.339 18.3521 43.339 18.5493 43.2305C18.4507 43.339 18.5493 43.339 18.5493 43.2305Z" fill="white"/>
<path d="M28 47.1138C28 47.3372 28 47.7842 27.7 47.7842C27.6 47.7842 27.5 47.7842 27.5 47.6725C27.4 47.5607 27.4 47.449 27.4 47.449C27.3 47.1138 27.4 46.8903 27.4 46.6668C27.3 46.7785 27.1 47.1138 27 47.2255C26.7 47.5607 26.3 47.7842 25.8 47.7842C25.7 47.7842 25.6 47.7842 25.5 47.7842C25.2 47.6725 24.8 47.5607 24.5 47.449C24.2 47.3372 24 47.1138 23.8 46.8903C23.6 46.6668 23.4 46.3316 23.3 45.9964C23.2 45.6611 23.1 45.3259 23.1 44.9907C23.1 44.5438 23 44.2085 23 43.7616C23 43.3146 23 42.9794 23 42.6442C23 42.309 23 41.862 23.1 41.5268C23.2 41.1916 23.3 40.7446 23.4 40.4094C23.5 40.0742 23.6 39.6272 23.8 39.292C23.9 38.9568 24.1 38.7333 24.3 38.3981C24.5 38.1746 24.7 37.8394 24.9 37.6159C25.1 37.3924 25.4 37.2807 25.7 37.169C25.9 37.0572 26.1 37.0572 26.4 37.0572C26.5 37.0572 26.6 37.0572 26.7 37.0572C26.8 37.0572 26.9 37.169 27 37.2807C27.1 37.3924 27.1 37.5042 27.2 37.6159C27.3 37.7277 27.3 37.8394 27.4 37.9511C27.4 37.8394 27.4 37.6159 27.4 37.5042C27.4 37.3924 27.4 37.169 27.5 37.0572C27.5 36.9455 27.5 36.9455 27.6 36.9455L27.7 36.8337L27.8 36.9455C27.9 37.0572 27.9 37.169 27.9 37.2807C27.9 37.3924 27.9 37.7277 27.9 37.9511C27.9 38.3981 27.9 38.845 27.9 38.9568C27.9 39.292 27.9 39.5155 27.9 39.8507V39.9624C27.9 40.0742 27.9 40.0742 27.9 40.1859C27.9 40.4094 27.8 40.5211 27.7 40.5211C27.6 40.5211 27.5 40.5211 27.5 40.4094C27.4 40.4094 27.4 40.2977 27.4 40.1859C27.3 39.8507 27.4 39.739 27.4 39.5155V39.4037C27.3 39.0685 27.3 38.845 27.2 38.5098C27.1 38.2864 26.8 37.8394 26.5 37.8394C26.3 37.8394 26.2 37.9511 26 38.0629C25.9 38.0629 25.9 38.1746 25.9 38.1746L25.8 38.2864C25.7 38.3981 25.8 38.6216 25.7 38.7333C25.6 38.9568 25.6 39.0685 25.6 39.292C25.5 39.6272 25.5 39.9624 25.4 40.2977C25.3 40.6329 25.3 40.9681 25.3 41.3033C25.3 41.4151 25.3 41.415 25.3 41.5268C25.3 41.6385 25.3 41.6385 25.3 41.7503C25.3 41.862 25.3 41.9737 25.3 42.0855V42.1972C25.3 42.309 25.3 42.309 25.3 42.4207V42.5324C25.3 42.5324 25.3 42.6442 25.3 42.7559C25.3 42.8677 25.3 42.9794 25.3 43.0911C25.3 43.4264 25.4 43.8733 25.4 44.2085C25.4 44.5438 25.4 44.9907 25.5 45.3259C25.5 45.4377 25.5 45.6611 25.6 45.7729C25.6 45.8846 25.8 46.1081 25.8 46.2198C25.9 46.5551 26.1 46.7785 26.4 46.7785C26.7 46.7785 27.1 46.4433 27.2 46.1081C27.3 45.8846 27.4 45.7729 27.5 45.5494C27.5 45.1025 27.5 44.5438 27.5 44.432C27.5 44.3203 27.5 44.0968 27.6 43.9851C27.6 43.8733 27.6 43.8733 27.7 43.7616L27.8 43.6498L27.9 43.7616C28 43.8733 28 43.9851 28 44.0968C28 44.2085 28 44.879 28 45.2142C28 45.6611 28 46.1081 28 46.2198C28 46.6668 28 46.7785 28 47.1138Z" fill="white"/>
<path d="M33.8451 41.59C33.7324 41.8112 33.507 42.0324 33.507 42.2537C33.507 42.3643 33.8451 42.3643 34.0704 42.5855C34.4085 42.6961 34.7465 43.0279 34.9718 43.3598C35.0845 43.581 35.1972 43.6916 35.1972 43.8022C35.3099 44.0234 35.3099 44.134 35.4225 44.3553C35.4225 44.5765 35.5352 44.6871 35.5352 44.9083C35.6479 45.1295 35.6479 45.3508 35.6479 45.4614C35.6479 45.572 35.6479 45.7932 35.7606 45.9038C35.7606 46.0144 35.8732 46.0144 35.8732 46.125C35.8732 46.2356 35.9859 46.3463 35.9859 46.3463C35.9859 46.5675 36.0986 46.6781 36.2113 46.7887C36.3239 47.0099 36.4366 47.0099 36.5493 47.1205C36.662 47.1205 36.7747 47.3418 36.7747 47.4524V47.563C36.662 47.6736 36.4366 47.7842 36.2113 47.7842C35.9859 47.7842 35.6479 47.7842 35.4225 47.6736C35.0845 47.563 34.7465 47.2311 34.6338 47.1205C34.5211 47.0099 34.4085 46.8993 34.2958 46.6781C34.1831 46.5675 34.1831 46.3463 34.0704 46.125C33.9577 45.7932 33.8451 45.572 33.7324 45.1295C33.6197 44.9083 33.6197 44.5765 33.507 44.3553C33.507 44.2447 33.3944 44.0234 33.3944 43.9128C33.3944 43.8022 33.2817 43.6916 33.2817 43.581C33.169 43.3598 33.169 43.2492 32.9437 43.2492C32.9437 43.2492 32.831 43.2492 32.831 43.3598C32.7183 43.4704 32.6056 43.581 32.493 43.6916C32.3803 43.8022 32.2676 44.0234 32.2676 44.2447C32.2676 44.3553 32.2676 44.4659 32.2676 44.5765C32.2676 44.5765 32.2676 44.5765 32.2676 44.6871C32.2676 44.7977 32.2676 45.0189 32.2676 45.2401C32.2676 45.6826 32.2676 46.0144 32.2676 46.4569C32.2676 46.5675 32.2676 46.7887 32.2676 46.8993C32.493 46.8993 32.6056 46.8993 32.7183 46.8993C32.9437 46.8993 33.3944 46.8993 33.3944 47.1205C33.3944 47.2311 33.3944 47.3418 33.2817 47.3418C33.169 47.4524 33.0563 47.4524 32.9437 47.4524C32.831 47.4524 32.7183 47.4524 32.6056 47.4524C32.6056 47.4524 32.2676 47.4524 32.0423 47.4524C31.9296 47.563 31.8169 47.563 31.7042 47.563C31.5915 47.563 31.3662 47.563 31.2535 47.4524H31.0282C30.8028 47.4524 30.3521 47.4524 30.1268 47.4524C30.0141 47.4524 29.9014 47.4524 29.6761 47.4524C29.5634 47.4524 29.338 47.4524 29.2254 47.3418C29.1127 47.3418 29 47.1205 29 47.1205C29 47.1205 29 47.0099 29.1127 47.0099C29.2254 46.8993 29.338 46.8993 29.4507 46.8993C29.7887 46.8993 30.1268 46.7887 30.2394 46.7887C30.3521 46.7887 30.4648 46.7887 30.5775 46.7887V46.6781C30.3521 46.3463 30.3521 45.9038 30.3521 45.572C30.3521 45.1295 30.3521 44.6871 30.3521 44.134C30.3521 43.581 30.3521 43.1385 30.3521 42.5855C30.3521 42.143 30.3521 41.7006 30.3521 41.2582C30.3521 40.8157 30.3521 40.4839 30.3521 40.0414C30.3521 39.8202 30.3521 39.599 30.3521 39.2672C30.3521 39.046 30.3521 38.8247 30.3521 38.7141C30.3521 38.3823 30.3521 38.0505 30.3521 37.7186C30.3521 37.7186 30.3521 37.7186 30.1268 37.7186C30.0141 37.7186 29.9014 37.7186 29.6761 37.7186C29.5634 37.7186 29.338 37.7186 29.2254 37.608C29.1127 37.608 29 37.3868 29 37.3868C29 37.3868 29 37.2762 29.1127 37.2762C29.2254 37.1656 29.338 37.1656 29.4507 37.1656C29.7887 37.1656 30.2394 37.055 30.3521 37.055H30.4648C30.5775 36.9443 30.6901 36.8337 30.9155 36.8337H31.0282C31.1408 36.8337 31.3662 36.9443 31.4789 36.9443C32.0423 36.9443 32.6056 36.9443 32.831 36.9443C33.0563 36.9443 33.507 36.9444 33.507 37.1656C33.507 37.2762 33.507 37.3868 33.3944 37.3868C33.2817 37.4974 33.169 37.4974 33.0563 37.4974C32.9437 37.4974 32.831 37.4974 32.7183 37.4974C32.6056 37.4974 32.2676 37.4974 31.9296 37.4974C32.0423 37.608 32.0423 37.7186 32.0423 37.9398C32.0423 38.0505 32.0423 38.0505 32.0423 38.1611C32.0423 38.2717 32.0423 38.2717 32.0423 38.2717C32.0423 38.3823 32.0423 38.6035 32.1549 38.8247V38.9353C32.1549 39.046 32.1549 39.1566 32.1549 39.2672C32.1549 39.4884 32.1549 39.7096 32.2676 39.9308C32.2676 40.1521 32.3803 40.2627 32.3803 40.4839C32.3803 40.5945 32.3803 40.8157 32.3803 40.9263V41.0369C32.3803 41.1476 32.3803 41.2582 32.3803 41.3688C32.3803 41.4794 32.3803 41.59 32.3803 41.7006C32.3803 41.8112 32.3803 41.9218 32.493 41.9218C32.6056 41.9218 32.6056 41.8112 32.7183 41.7006C32.831 41.4794 32.9437 41.2582 33.0563 41.1476C33.169 41.0369 33.169 40.8157 33.2817 40.7051C33.3944 40.4839 33.6197 40.2627 33.7324 39.9308C33.8451 39.7096 33.9577 39.4884 34.0704 39.3778C34.1831 39.1566 34.4085 38.8247 34.5211 38.6035C34.6338 38.2717 34.8592 37.9398 34.9718 37.7186C34.9718 37.7186 34.9718 37.7186 34.9718 37.608C34.8592 37.608 34.8592 37.608 34.7465 37.608C34.6338 37.608 34.5211 37.608 34.4085 37.4974C34.2958 37.4974 34.1831 37.2762 34.1831 37.2762V37.1656C34.1831 37.055 34.4085 37.055 34.4085 37.055C34.6338 37.055 34.8592 36.9443 34.9718 36.9443C35.0845 36.9443 35.0845 36.9443 35.1972 36.9443C35.1972 36.9443 35.1972 36.9443 35.3099 36.9443C35.4225 36.9443 35.4225 36.8337 35.5352 36.8337C35.6479 36.8337 35.6479 36.8337 35.7606 36.8337H35.8732C36.2113 36.8337 36.4366 36.8337 36.5493 36.8337C36.662 36.8337 37 36.8337 37 37.055C37 37.1656 37 37.2762 36.8873 37.2762C36.8873 37.3868 36.7746 37.3868 36.662 37.3868C36.5493 37.3868 36.4366 37.3868 36.4366 37.3868C36.4366 37.3868 36.0986 37.3868 35.7606 37.3868C35.6479 37.4974 35.6479 37.608 35.5352 37.7186C35.3099 38.0505 35.1972 38.3823 35.0845 38.6035C34.8592 38.9353 34.7465 39.3778 34.6338 39.7096C34.2958 40.9263 34.0704 41.2582 33.8451 41.59Z" fill="white"/>
<path d="M41.4 47.2079C41.6 47.2079 42 47.2079 42 47.4384C42 47.5537 42 47.5537 41.9 47.6689C41.8 47.7842 41.7 47.7842 41.6 47.7842C41.5 47.7842 41.4 47.7842 41.3 47.7842C41.3 47.7842 41 47.7842 40.7 47.7842C40.3 47.7842 39.9 47.7842 39.9 47.7842C39.7 47.7842 39.3 47.7842 39.1 47.7842C39 47.7842 38.9 47.7842 38.7 47.7842C38.6 47.7842 38.4 47.7842 38.3 47.6689C38.2 47.6689 38.1 47.4384 38.1 47.4384C38.1 47.4384 38.1 47.3231 38.2 47.3231C38.3 47.2079 38.4 47.2079 38.5 47.2079C38.8 47.2079 39.1 47.0926 39.2 47.0926C39.2 47.0926 39.3 47.0926 39.4 47.0926C39.2 47.2079 39.1 47.0926 39.1 46.8621C39.1 46.7468 39.1 46.7468 39.1 46.6315V46.5162V46.401C39.1 46.2857 39.1 46.0552 39.1 45.9399C39.1 45.8246 39.1 45.8246 39.1 45.7094C39.1 44.9025 39.1 44.0956 39.1 43.1735C39.1 42.7124 39.1 42.2513 39.1 41.9055C39.1 41.5597 39.1 41.0987 39.1 40.7529C39.1 40.5223 39.1 40.2918 39.1 40.1765V39.3696C39.1 39.0238 39.1 38.678 39.1 38.217V38.1017H39C38.9 38.1017 38.8 38.1017 38.6 38.1017C38.5 38.1017 38.3 38.1017 38.2 37.9864C38.1 37.9864 38 37.7559 38 37.7559V37.6406C38.1 37.5253 38.2 37.5253 38.3 37.5253C38.6 37.5253 38.9 37.4101 39 37.4101V37.2948C39 37.1795 39 37.1795 39 37.0643C39 36.949 39.2 36.949 39.2 36.949C39.3 36.949 39.4 36.8337 39.4 36.8337C39.5 36.8337 39.5 36.8337 39.6 36.8337C39.7 36.8337 39.8 36.8337 39.9 36.8337C40.1 36.949 40.3 37.0643 40.4 37.2948C40.7 37.2948 41 37.2948 41.1 37.2948C41.3 37.2948 41.7 37.2948 41.7 37.5253C41.7 37.6406 41.7 37.6406 41.6 37.7559C41.5 37.8712 41.4 37.8712 41.3 37.8712C41.2 37.8712 41.1 37.8712 41 37.8712C41 37.8712 40.8 37.8712 40.6 37.8712C40.6 38.1017 40.7 38.3322 40.7 38.4475C40.7 38.678 40.7 38.9086 40.7 39.0238C40.7 39.2544 40.7 39.3696 40.7 39.6002C40.7 39.7154 40.7 39.8307 40.7 39.946C40.7 40.0612 40.7 40.0612 40.7 40.1765C40.8 40.6376 40.7 40.9834 40.8 41.4445C40.8 41.9055 40.8 42.3666 40.8 42.8277C40.8 43.1735 40.8 43.6345 40.8 43.9804C40.8 44.4414 40.9 44.7872 40.9 45.2483C40.9 45.4788 40.9 45.7094 40.9 45.8246C40.9 46.0552 40.9 46.2857 40.9 46.5162C40.9 46.7468 40.9 46.8621 40.8 47.0926C41.2 47.2079 41.3 47.2079 41.4 47.2079Z" fill="white"/>
<path d="M49.5676 37.5254C49.6757 37.5254 50 37.5253 50 37.7559C50 37.8712 50 37.9864 49.8919 37.9864C49.8919 38.1017 49.7838 38.1017 49.6757 38.1017C49.5676 38.1017 49.4595 38.1017 49.4595 38.1017C49.4595 38.1017 49.2432 38.1017 48.9189 38.1017C48.9189 38.217 48.9189 38.3322 48.9189 38.4475C48.9189 38.678 48.9189 38.7933 48.9189 39.0238C48.9189 39.3696 48.9189 39.6002 49.027 39.946C49.027 40.2918 49.027 40.5223 49.027 40.8681C49.027 41.0987 49.027 41.3292 49.027 41.5597C49.027 41.7903 49.027 42.1361 49.027 42.3666C49.027 42.5971 48.9189 42.8277 48.9189 43.1735C48.9189 43.404 48.9189 43.6345 48.9189 43.9804C48.9189 44.3262 48.9189 44.5567 48.9189 44.9025C48.9189 45.133 48.9189 45.3636 48.9189 45.5941C48.9189 45.8246 48.9189 46.0552 48.9189 46.2857C48.9189 46.5162 49.027 46.8621 49.027 47.0926C49.027 47.3231 49.027 47.4384 48.8108 47.5537C48.5946 47.7842 48.3784 47.7842 48.0541 47.7842C47.8378 47.7842 47.6216 47.6689 47.4054 47.6689C47.1892 47.5537 46.973 47.4384 46.8649 47.3231C46.5405 46.9773 46.3243 46.6315 46.1081 46.1704C45.8919 45.7094 45.6757 45.2483 45.5676 44.672C45.4595 44.4414 45.3514 44.0956 45.2432 43.8651C45.1351 43.404 44.9189 42.9429 44.8108 42.4819C44.7027 42.1361 44.5946 41.9055 44.4865 41.5597C44.3784 41.3292 44.2703 41.0987 44.1622 40.8681C44.1622 40.7529 44.0541 40.7529 44.0541 40.7529C44.0541 40.7529 43.9459 40.8681 43.9459 40.9834C43.9459 41.0987 43.9459 41.0987 43.9459 41.2139C43.9459 41.4445 43.9459 41.7903 43.9459 42.0208C43.9459 42.5971 43.9459 43.0582 44.0541 43.6346C44.0541 43.7498 44.0541 43.9804 44.0541 44.0956C44.0541 44.4414 44.0541 44.7872 44.0541 45.133C44.0541 45.5941 44.0541 45.9399 44.0541 46.401C44.0541 46.5162 44.0541 46.6315 44.0541 46.7468C44.0541 46.8621 44.0541 47.0926 44.0541 47.2079C44.3784 47.2079 44.5946 47.2079 44.7027 47.2079C44.8108 47.2079 45.1351 47.2079 45.1351 47.4384C45.1351 47.5537 45.1351 47.6689 45.027 47.6689C45.027 47.7842 44.9189 47.7842 44.8108 47.7842C44.7027 47.7842 44.5946 47.7842 44.5946 47.7842C44.5946 47.7842 44.2703 47.7842 44.0541 47.7842C43.8378 47.7842 43.5135 47.7842 43.5135 47.7842C43.2973 47.7842 42.973 47.7842 42.8649 47.7842C42.7568 47.7842 42.6486 47.7842 42.5405 47.7842C42.4324 47.7842 42.3243 47.7842 42.2162 47.6689C42.1081 47.6689 42 47.4384 42 47.4384V47.3231C42.1081 47.2079 42.2162 47.2079 42.2162 47.2079C42.4324 47.2079 42.8649 47.0926 42.8649 47.0926H42.973C42.973 46.401 42.973 45.7094 42.973 45.0178C42.973 44.7872 42.973 44.5567 42.973 44.4414C42.973 43.7498 42.973 42.9429 42.973 42.2513C42.973 41.7903 42.973 41.4445 42.973 40.9834C42.973 40.5223 42.973 40.0612 42.973 39.6002C42.973 39.0238 42.973 38.4475 42.973 37.8712C42.8649 37.8712 42.7568 37.8712 42.6487 37.8712C42.5405 37.8712 42.4324 37.8712 42.3243 37.7559C42.2162 37.7559 42.1081 37.5254 42.1081 37.5254V37.4101C42.2162 37.2948 42.3243 37.2948 42.3243 37.2948C42.5405 37.2948 43.0811 37.1795 43.1892 37.1795C43.2973 37.1795 43.5135 37.1795 43.7297 37.1795C43.8378 37.0643 43.9459 37.0643 43.9459 36.949C44.0541 36.8337 44.1622 36.8337 44.3784 36.8337C44.5946 36.8337 44.8108 36.949 44.9189 37.1795C45.027 37.4101 45.1351 37.5253 45.2432 37.6406C45.3514 37.8712 45.3514 38.1017 45.4595 38.3322C45.5676 38.5628 45.5676 38.7933 45.6757 38.9086C45.7838 39.1391 45.8919 39.3696 45.8919 39.6002C46 39.8307 46 40.0612 46.1081 40.2918C46.2162 40.5223 46.1081 40.7529 46.3243 40.8681C46.5405 41.3292 46.7568 41.7903 46.8649 42.2513C46.8649 42.4819 46.973 42.7124 47.0811 42.9429C47.2973 43.5193 47.2973 43.7498 47.2973 43.9804C47.2973 44.2109 47.4054 44.4414 47.5135 44.672C47.5135 44.7872 47.6216 44.9025 47.7297 44.9025C47.7297 45.0178 47.7297 45.133 47.8378 45.2483C47.8378 45.3636 47.9459 45.5941 47.9459 45.7094C47.9459 45.8246 48.0541 45.8246 48.0541 45.8246C48.0541 45.8246 48.1622 45.8246 48.1622 45.7094V45.5941C48.1622 45.3636 48.1622 45.0178 48.1622 44.7872C48.1622 44.2109 48.1622 43.6346 48.1622 43.0582C48.1622 42.5971 48.0541 42.0208 48.0541 41.5597C48.0541 41.2139 48.0541 40.8681 48.0541 40.407C48.0541 40.1765 48.0541 39.946 48.0541 39.7154C48.0541 39.3696 48.0541 39.0238 48.0541 38.678C48.0541 38.5628 48.0541 38.3322 48.0541 38.217C47.9459 38.217 47.7297 38.217 47.6216 38.217C47.5135 38.217 47.4054 38.217 47.2973 38.217C47.1892 38.217 47.0811 38.217 46.973 38.1017C46.8649 38.1017 46.7568 37.8712 46.7568 37.8712V37.7559C46.8649 37.6406 46.973 37.6406 46.973 37.6406C47.1892 37.6406 47.7297 37.5254 47.8378 37.5254C47.9459 37.5254 48.0541 37.5254 48.1622 37.5254C48.2703 37.4101 48.3784 37.4101 48.4865 37.4101C48.5946 37.4101 48.7027 37.4101 48.7027 37.5254C49.1351 37.5254 49.3514 37.5254 49.5676 37.5254Z" fill="white"/>
<path d="M58 43.0755C58 43.185 57.7705 43.2945 57.6557 43.404C57.4262 43.5135 57.1967 43.5135 56.9672 43.5135C56.7377 43.5135 56.623 43.5135 56.623 43.7325C56.623 43.842 56.623 44.1705 56.623 44.28C56.623 44.3896 56.623 44.7181 56.623 44.8276C56.623 44.9371 56.623 45.0466 56.623 45.1561C56.623 45.5941 56.623 46.0321 56.623 46.1416C56.623 46.4701 56.623 46.6891 56.623 47.0177C56.623 47.2367 56.623 47.6747 56.2787 47.6747C56.1639 47.6747 56.0492 47.6747 56.0492 47.5652C55.9344 47.4557 55.9344 47.3462 55.9344 47.3462C55.9344 47.2367 55.9344 47.1272 55.9344 47.0177C55.9344 46.9082 55.9344 46.7987 55.9344 46.5796C55.8197 46.9082 55.5902 47.2367 55.3607 47.3462C54.9016 47.6747 54.5574 47.7842 54.0984 47.7842C53.7541 47.7842 53.4098 47.7842 53.1803 47.6747C52.8361 47.5652 52.4918 47.3462 52.2623 47.1272C51.918 46.7987 51.6885 46.3606 51.459 45.9226C51.2295 45.5941 51.2295 45.2656 51.1148 44.9371C51.1148 44.7181 51 44.4991 51 44.1705C51 43.9515 51 43.7325 51 43.5135C51 42.6375 51.2295 41.7614 51.459 40.8854C51.5738 40.4474 51.6885 40.0094 51.8033 39.5714C51.918 39.1333 52.1475 38.6953 52.4918 38.2573C52.7213 37.9288 53.0656 37.6003 53.4098 37.2718C53.5246 37.1623 53.7541 37.0527 53.8689 37.0527C54.0984 36.9432 54.3279 36.8337 54.5574 36.8337H54.6721C54.7869 36.8337 54.9016 36.8337 55.0164 36.8337C55.2459 36.8337 55.4754 36.9432 55.5902 37.0527C55.7049 37.1623 55.8197 37.2718 55.9344 37.3813C55.9344 37.2718 55.9344 37.1623 56.0492 37.0527C56.0492 36.9432 56.0492 36.9432 56.1639 36.9432L56.2787 36.8337L56.3934 36.9432C56.5082 37.0527 56.5082 37.1623 56.5082 37.2718C56.5082 37.3813 56.5082 37.7098 56.5082 37.9288C56.5082 38.3668 56.5082 38.8048 56.5082 38.9143C56.5082 39.2428 56.5082 39.4618 56.5082 39.7904C56.5082 40.0094 56.5082 40.4474 56.1639 40.4474C56.0492 40.4474 55.9344 40.4474 55.9344 40.3379C55.8197 40.2284 55.8197 40.1189 55.8197 40.1189C55.8197 40.0094 55.8197 39.8999 55.8197 39.8999C55.8197 39.7904 55.8197 39.6809 55.8197 39.4618C55.8197 39.3523 55.8197 39.2428 55.8197 39.1333C55.8197 38.9143 55.7049 38.6953 55.7049 38.4763C55.7049 38.2573 55.5902 38.0383 55.4754 37.8193C55.3607 37.7098 55.1311 37.6003 55.0164 37.6003C54.7869 37.6003 54.6721 37.7098 54.5574 37.9288C54.4426 38.1478 54.3279 38.2573 54.2131 38.4763C54.0984 38.6953 54.0984 38.9143 54.0984 39.1333C54.0984 39.3523 53.9836 39.5714 53.9836 39.7904C53.8689 40.0094 53.8689 40.2284 53.8689 40.5569C53.8689 40.7759 53.7541 40.9949 53.7541 41.2139C53.7541 41.4329 53.6393 41.6519 53.6393 41.7614C53.6393 41.9805 53.6393 42.1995 53.5246 42.4185C53.5246 42.6375 53.5246 42.8565 53.4098 43.0755C53.4098 43.2945 53.4098 43.5135 53.4098 43.623C53.4098 43.9515 53.4098 44.1705 53.4098 44.4991C53.4098 44.8276 53.5246 45.2656 53.6393 45.5941C53.6393 45.7036 53.7541 45.9226 53.7541 46.0321C53.7541 46.2511 53.8689 46.3606 53.9836 46.5796C54.0984 46.7987 54.4426 47.1272 54.7869 47.1272C55.0164 47.1272 55.2459 46.9082 55.3607 46.6891C55.5902 46.3606 55.7049 46.0321 55.8197 45.7036C55.9344 45.3751 55.9344 45.0466 55.9344 44.7181C55.9344 44.4991 55.9344 44.1705 55.9344 43.9515V43.842C55.9344 43.623 55.9344 43.623 55.7049 43.623C55.4754 43.623 55.2459 43.623 55.0164 43.623C54.7869 43.623 54.6721 43.623 54.4426 43.5135C54.3279 43.5135 54.3279 43.404 54.3279 43.404C54.3279 43.404 54.3279 43.2945 54.4426 43.2945C54.5574 43.185 54.6721 43.185 54.7869 43.0755C55.0164 42.966 55.2459 42.966 55.4754 42.8565C55.7049 42.8565 55.9344 42.8565 56.1639 42.747C56.3934 42.747 56.5082 42.747 56.7377 42.747C56.9672 42.747 57.4262 42.747 57.6557 42.747C57.7705 42.8565 58 42.966 58 43.0755Z" fill="white"/>
<path d="M69.3407 47.0099C69.5604 47.0099 70 47.0099 70 47.2311C70 47.3418 70 47.4524 69.8901 47.4524C69.7802 47.563 69.6703 47.563 69.5604 47.563C69.4505 47.563 69.3407 47.563 69.2308 47.563C69.2308 47.563 69.011 47.563 68.6813 47.563C68.4615 47.6736 68.2418 47.7842 67.9121 47.7842C67.8022 47.7842 67.5824 47.7842 67.4725 47.6736C67.3626 47.6736 67.3626 47.563 67.2527 47.563C67.033 47.563 66.8132 47.563 66.5934 47.563C66.4835 47.563 66.3736 47.563 66.1538 47.563C66.044 47.563 65.8242 47.563 65.7143 47.4524C65.6044 47.4524 65.4945 47.2311 65.4945 47.2311C65.4945 47.2311 65.4945 47.1205 65.6044 47.1205C65.7143 47.0099 65.8242 47.0099 65.9341 47.0099C66.2637 47.0099 66.7033 46.8993 66.8132 46.8993H66.9231C66.9231 46.7887 66.9231 46.7887 66.9231 46.6781C66.8132 46.2356 66.8132 45.7932 66.8132 45.2402C66.8132 44.6871 66.8132 44.134 66.8132 43.581C66.8132 43.1385 66.8132 42.5855 66.8132 42.1431C66.8132 41.7006 66.8132 41.1476 66.8132 40.7051C66.8132 40.2627 66.8132 39.7096 66.8132 39.4884C66.8132 39.3778 66.8132 39.3778 66.8132 39.3778C66.8132 39.3778 66.8132 39.3778 66.8132 39.4884C66.8132 39.7096 66.7033 39.9308 66.7033 40.0415C66.5934 40.4839 66.4835 40.9263 66.3736 41.3688C66.2637 41.8112 66.1538 42.2537 66.1538 42.5855C66.1538 42.8067 66.044 43.0279 66.044 43.2492C66.044 43.4704 65.9341 43.6916 65.9341 43.9128C65.9341 44.134 65.8242 44.3553 65.7143 44.5765C65.6044 44.6871 65.3846 44.7977 65.1648 44.7977C64.8352 44.7977 64.5055 44.6871 64.2857 44.4659C63.956 44.134 63.8462 43.6916 63.7363 43.3598C63.6264 42.9173 63.5165 42.4749 63.4066 42.0324C63.4066 41.9218 63.2967 41.59 63.1868 41.1476C63.0769 40.7051 62.967 40.2627 62.8571 39.8202C62.7473 39.4884 62.7473 39.2672 62.6374 39.1566C62.6374 39.046 62.6374 39.046 62.6374 39.046C62.6374 39.046 62.6374 39.1566 62.5275 39.2672C62.5275 39.3778 62.5275 39.599 62.5275 39.7096C62.5275 39.9308 62.5275 40.1521 62.5275 40.2627C62.5275 40.3733 62.5275 40.7051 62.5275 40.9263C62.5275 41.1476 62.5275 41.4794 62.5275 41.7006C62.5275 41.9218 62.5275 42.1431 62.5275 42.3643C62.5275 42.5855 62.5275 42.6961 62.5275 42.9173C62.5275 43.0279 62.5275 43.2492 62.5275 43.3598C62.5275 43.4704 62.5275 43.581 62.5275 43.6916C62.5275 43.9128 62.4176 44.134 62.4176 44.4659C62.3077 44.9083 62.3077 45.4614 62.1978 45.9038C62.1978 46.125 62.1978 46.3463 62.1978 46.6781C62.1978 46.7887 62.1978 46.7887 62.1978 46.8993C62.5275 46.8993 62.8571 46.8993 63.0769 46.8993C63.2967 46.8993 63.6264 46.8993 63.6264 47.2311C63.6264 47.3418 63.5165 47.3418 63.5165 47.4524C63.5165 47.563 63.4066 47.563 63.2967 47.563C63.1868 47.563 63.0769 47.563 62.967 47.563C62.8571 47.563 62.0879 47.563 61.8681 47.563C61.6484 47.563 61.0989 47.563 60.8791 47.563C60.7692 47.563 60.6593 47.563 60.5495 47.563C60.4396 47.563 60.3297 47.563 60.2198 47.4524C60.1099 47.3418 60 47.2311 60 47.2311C60 47.2311 60 47.1205 60.1099 47.1205C60.2198 47.0099 60.3297 47.0099 60.3297 47.0099C60.5495 47.0099 61.0989 46.8993 61.0989 46.8993C61.0989 46.8993 61.2088 46.8993 61.3187 46.8993C61.3187 46.4569 61.4286 46.0144 61.4286 45.6826C61.4286 45.1295 61.5385 44.6871 61.5385 44.134C61.5385 43.6916 61.5385 43.2492 61.6484 42.8067C61.6484 42.1431 61.6484 41.59 61.7582 40.9263C61.7582 40.5945 61.7582 40.2627 61.8681 39.9308C61.8681 39.4884 61.978 39.1566 62.0879 38.6035C62.0879 38.3823 62.0879 38.1611 62.1978 37.8292C62.1978 37.8292 62.1978 37.8292 62.1978 37.7186C62.0879 37.7186 61.978 37.7186 61.8681 37.7186C61.7582 37.7186 61.6484 37.7186 61.4286 37.7186C61.2088 37.7186 61.0989 37.7186 60.989 37.608C60.8791 37.608 60.7692 37.3868 60.7692 37.3868C60.7692 37.3868 60.7692 37.2762 60.8791 37.2762C60.989 37.1656 61.0989 37.1656 61.2088 37.1656C61.5385 37.1656 61.978 37.055 62.0879 37.055C62.4176 37.055 62.7473 37.055 63.0769 37.055H63.1868C63.2967 37.055 63.5165 37.055 63.6264 37.1656C63.8462 37.2762 64.0659 37.4974 64.2857 37.9398C64.3956 38.3823 64.6154 38.8247 64.7253 39.2672C64.7253 39.4884 64.7253 39.7096 64.8352 39.8202C64.9451 40.0414 64.9451 40.2627 65.0549 40.4839C65.0549 40.7051 65.0549 40.9263 65.1648 41.0369C65.2747 41.2582 65.2747 41.3688 65.2747 41.59C65.2747 41.7006 65.3846 41.9218 65.4945 42.2537C65.6044 42.4749 65.6044 42.6961 65.7143 42.6961C65.8242 42.6961 65.8242 42.1431 65.8242 42.0324C65.8242 41.8112 65.9341 41.59 65.9341 41.2582C66.044 40.8157 66.1538 40.2627 66.2637 39.8202C66.3736 39.2672 66.4835 38.8247 66.5934 38.2717C66.7033 37.8292 66.8132 37.4974 67.1429 37.1656C67.3626 36.9444 67.5824 36.8337 67.9121 36.8337C68.022 36.8337 68.1319 36.8337 68.2418 36.9444H69.3407C69.5604 36.9444 70 36.9444 70 37.1656C70 37.2762 70 37.2762 69.8901 37.3868C69.7802 37.4974 69.6703 37.4974 69.5604 37.4974C69.4505 37.4974 69.3407 37.4974 69.2308 37.4974C69.1209 37.4974 69.011 37.4974 68.7912 37.4974V37.608C68.7912 37.8292 68.9011 38.0505 68.9011 38.2717C68.9011 38.4929 68.9011 38.7141 69.011 38.9353C69.011 39.046 69.1209 39.2672 69.1209 39.3778C69.1209 39.3778 69.1209 39.3778 69.1209 39.4884V39.599C69.1209 39.7096 69.1209 39.9308 69.1209 40.0415C69.1209 40.2627 69.2308 40.4839 69.2308 40.7051C69.2308 40.8157 69.2308 40.8157 69.2308 40.9263C69.2308 41.0369 69.3407 41.1476 69.3407 41.2582C69.3407 41.3688 69.3407 41.3688 69.3407 41.4794C69.3407 41.59 69.3407 41.7006 69.3407 41.9218C69.3407 42.0324 69.3407 42.1431 69.3407 42.3643C69.3407 42.4749 69.3407 42.6961 69.4505 42.8067C69.4505 42.9173 69.4505 43.0279 69.4505 43.1385C69.4505 43.2492 69.4505 43.2492 69.4505 43.3598C69.4505 43.4704 69.4505 43.4704 69.4505 43.4704C69.4505 43.581 69.5604 43.6916 69.5604 43.8022C69.5604 44.0234 69.5604 44.134 69.6703 44.3553C69.6703 44.5765 69.6703 44.7977 69.7802 45.1295V45.2402C69.7802 45.3508 69.7802 45.4614 69.7802 45.4614C69.7802 45.6826 69.7802 45.7932 69.7802 45.7932C69.7802 45.9038 69.7802 45.9038 69.7802 46.0144C69.7802 46.125 69.7802 46.125 69.7802 46.2356V46.3463C69.7802 46.4569 69.7802 46.5675 69.7802 46.6781V46.7887C69.2308 47.0099 69.3407 47.0099 69.3407 47.0099Z" fill="white"/>
<path d="M79 47.3505C79 47.4589 78.8873 47.4589 78.8873 47.5674C78.7747 47.6758 78.662 47.6758 78.662 47.6758C78.5493 47.6758 78.3239 47.6758 78.2113 47.6758C78.0986 47.6758 77.9859 47.6758 77.8732 47.6758H77.7606C77.6479 47.6758 77.6479 47.6758 77.5352 47.7842C77.4225 47.7842 77.3099 47.7842 77.3099 47.7842C77.0845 47.7842 76.8592 47.7842 76.7465 47.6758C76.6338 47.6758 76.5211 47.6758 76.4084 47.6758C76.0704 47.6758 75.7324 47.6758 75.6197 47.6758C75.507 47.6758 75.2817 47.6758 75.169 47.5674C75.0563 47.5674 74.9437 47.4589 74.9437 47.3505C74.9437 47.1337 75.169 47.1337 75.3944 47.1337C75.507 47.1337 75.6197 47.1337 75.8451 47.1337C75.8451 47.0253 75.8451 46.9168 75.8451 46.8084C75.8451 46.7 75.8451 46.4832 75.8451 46.3747C75.8451 46.2663 75.8451 46.2663 75.8451 46.1579C75.8451 46.0495 75.8451 45.941 75.8451 45.941C75.8451 45.8326 75.8451 45.8326 75.7324 45.7242C75.7324 45.5074 75.6197 45.3989 75.6197 45.1821C75.6197 45.0737 75.6197 44.8568 75.6197 44.7484C75.6197 44.5316 75.6197 44.4232 75.507 44.2063C75.507 44.0979 75.507 44.0979 75.3944 44.0979H75.2817C75.0563 44.0979 74.9437 44.0979 74.7183 44.0979C74.493 44.0979 74.3803 44.0979 74.1549 44.0979C74.0423 44.0979 73.8169 44.0979 73.7042 44.0979C73.5915 44.0979 73.4789 44.0979 73.3662 44.0979C73.2535 44.0979 73.2535 44.2063 73.2535 44.3147C73.2535 44.4232 73.1408 44.64 73.1408 44.8568C73.0282 45.1821 73.0282 45.3989 72.9155 45.7242C72.8028 46.0495 72.6901 46.5916 72.5775 46.9168C72.6901 46.9168 72.9155 46.9168 73.1408 46.9168C73.3662 46.9168 73.7042 46.9168 73.7042 47.1337C73.7042 47.2421 73.7042 47.2421 73.5915 47.3505C73.4789 47.4589 73.3662 47.4589 73.3662 47.4589C73.2535 47.4589 73.1408 47.4589 73.0282 47.4589C72.9155 47.4589 72.8028 47.4589 72.6901 47.4589C72.4648 47.4589 72.2394 47.4589 72.0141 47.4589C71.9014 47.4589 71.7887 47.4589 71.6761 47.4589C71.5634 47.4589 71.338 47.4589 71.2254 47.3505C71.1127 47.3505 71 47.1337 71 47.1337C71 47.1337 71 47.0253 71.1127 47.0253C71.2254 46.9168 71.338 46.9168 71.4507 46.9168C71.6761 46.9168 71.9014 46.9168 72.1268 46.8084C72.1268 46.5916 72.1268 46.4832 72.2394 46.3747C72.3521 46.0495 72.3521 45.7242 72.4648 45.2905C72.4648 45.0737 72.5775 44.7484 72.5775 44.4232C72.5775 44.3147 72.6901 44.0979 72.6901 43.9895C72.6901 43.8811 72.3521 43.8811 72.2394 43.7726C72.1268 43.7726 72.1268 43.6642 72.1268 43.5558C72.1268 43.4474 72.2394 43.339 72.4648 43.339C72.5775 43.339 72.8028 43.339 72.9155 43.2305C73.0282 43.1221 73.0282 42.9053 73.0282 42.7969C73.1408 42.4716 73.2535 42.1463 73.3662 41.8211C73.4789 41.4958 73.5915 41.1706 73.7042 40.7369C73.8169 40.4116 73.8169 40.0864 73.9296 39.7611C74.0423 39.4358 74.0423 39.1106 74.1549 38.7853C74.2676 38.46 74.3803 38.1348 74.6056 37.8095L74.7183 37.4843C74.831 37.3758 74.831 37.159 74.9437 37.0506C75.169 36.8337 75.6197 36.8337 75.8451 36.8337C76.0704 36.8337 76.1831 36.8337 76.4084 36.9422C76.5211 37.0506 76.5211 37.159 76.6338 37.2674C76.7465 37.3758 76.8592 37.4843 76.8592 37.5927C76.8592 37.7011 76.8592 37.8095 76.9718 37.9179C77.0845 38.1348 77.0845 38.46 77.0845 38.6769C77.1972 38.8937 77.3099 39.219 77.3099 39.4358C77.3099 39.7611 77.4225 40.0864 77.4225 40.3032C77.5352 40.6285 77.5352 40.8453 77.5352 41.1706C77.5352 41.279 77.5352 41.4958 77.6479 41.6042C77.6479 41.8211 77.7606 42.0379 77.7606 42.1463C77.7606 42.2548 77.7606 42.3632 77.8732 42.58C77.8732 42.6884 77.9859 42.7969 77.9859 42.9053C77.9859 42.9053 78.0986 42.9053 78.2113 42.9053C78.3239 42.9053 78.3239 42.9053 78.4366 42.9053C78.5493 42.9053 78.7747 42.9053 78.8873 43.1221V43.2305C78.8873 43.2305 78.8873 43.339 78.7746 43.339C78.662 43.4474 78.5493 43.5558 78.4366 43.5558C78.4366 43.5558 78.3239 43.5558 78.2113 43.5558H78.0986C78.0986 43.5558 78.0986 43.5558 78.0986 43.6642C78.0986 43.6642 78.0986 43.7726 78.0986 43.8811C78.0986 43.9895 78.0986 43.9895 78.0986 44.0979V44.3147C78.0986 44.4232 78.0986 44.4232 78.0986 44.5316C78.0986 44.64 78.2113 44.8568 78.2113 44.9653C78.2113 45.0737 78.3239 45.2905 78.3239 45.3989C78.3239 45.6158 78.4366 45.7242 78.4366 45.8326C78.4366 46.0495 78.4366 46.1579 78.5493 46.3747C78.5493 46.4832 78.5493 46.4832 78.5493 46.5916C78.662 46.5916 78.7746 46.5916 79 46.5916C78.7746 47.1337 79 47.2421 79 47.3505ZM75.0563 43.2305C75.0563 43.1221 75.0563 43.0137 75.0563 42.9053C75.0563 42.6884 74.9437 42.58 74.9437 42.3632C74.9437 41.9295 74.9437 41.3874 74.9437 40.9537C74.9437 40.7369 74.9437 40.52 74.831 40.3032C74.831 40.0864 74.7183 39.8695 74.7183 39.5442C74.7183 39.4358 74.7183 39.219 74.7183 38.8937C74.7183 38.6769 74.6056 38.5685 74.6056 38.5685C74.493 38.5685 74.2676 38.7853 74.2676 38.8937C74.2676 39.1106 74.1549 39.219 74.1549 39.4358C74.1549 39.5442 74.1549 39.6527 74.1549 39.6527C74.1549 39.7611 74.1549 39.8695 74.1549 39.8695C74.0423 40.0864 74.0423 40.3032 74.0423 40.4116C73.9296 40.8453 73.8169 41.1706 73.7042 41.4958C73.7042 41.7127 73.5915 41.8211 73.5915 42.0379C73.5915 42.2548 73.4789 42.4716 73.4789 42.6884C73.4789 42.7969 73.3662 43.0137 73.3662 43.1221C73.3662 43.1221 73.3662 43.1221 73.4789 43.1221C73.5915 43.1221 73.8169 43.1221 73.8169 43.1221C73.9296 43.1221 74.0423 43.1221 74.1549 43.1221C74.2676 43.1221 74.3803 43.1221 74.493 43.1221C74.6056 43.1221 74.7183 43.1221 74.9437 43.1221C74.831 43.4474 74.831 43.4474 75.0563 43.2305C74.9437 43.339 75.0563 43.339 75.0563 43.2305Z" fill="white"/>
<path d="M86.8841 42.7384C86.8841 42.8458 86.8841 42.9531 86.8841 43.0605C86.8841 43.1678 86.7681 43.2752 86.7681 43.4899C86.7681 43.5973 86.7681 43.812 86.7681 43.9193C86.7681 44.0267 86.7681 44.134 86.6522 44.2414C86.6522 44.3488 86.6522 44.4561 86.5362 44.5635C86.4203 44.6708 86.4203 44.8855 86.4203 44.9929C86.4203 45.1003 86.3043 45.315 86.3043 45.4223C86.3043 45.5297 86.1884 45.637 86.0725 45.7444C85.9565 45.8518 85.9565 45.9591 85.9565 46.0665C85.8406 46.1738 85.7246 46.4959 85.6087 46.4959C85.2609 46.9253 84.913 47.1401 84.6812 47.3548C84.5652 47.4621 84.3333 47.5695 84.1014 47.5695C83.8696 47.5695 83.6377 47.6768 83.4058 47.6768C83.1739 47.6768 83.058 47.5695 82.942 47.5695C82.4783 47.5695 82.5942 47.5695 82.1304 47.5695C82.0145 47.6768 82.0145 47.7842 81.8986 47.7842C81.7826 47.7842 81.6667 47.7842 81.6667 47.7842C81.5507 47.7842 81.4348 47.7842 81.4348 47.7842C81.4348 47.7842 81.3188 47.7842 81.2029 47.7842C81.087 47.7842 80.8551 47.6768 80.8551 47.6768C80.7391 47.5695 80.6232 47.5695 80.5072 47.4621C80.5072 47.4621 80.3913 47.4621 80.3913 47.3548C80.2754 47.3548 80.3913 47.3548 80.1594 47.3548C80.0435 47.3548 79.9275 47.3548 79.6957 47.3548C79.5797 47.3548 79.3478 47.3548 79.2319 47.2474C79.1159 47.2474 79 47.0327 79 47.0327C79 46.9253 79 46.9253 79.1159 46.818C79.2319 46.7106 79.3478 46.7106 79.4638 46.7106C79.6956 46.7106 79.9275 46.7106 80.1594 46.6033C80.1594 46.4959 80.1594 46.2812 80.1594 46.1738C80.1594 45.5297 80.1594 44.7782 80.1594 44.134C80.1594 43.9193 80.1594 43.1678 80.2754 42.2016C80.2754 41.4501 80.2754 40.806 80.2754 40.0545C80.2754 39.625 80.2754 39.1956 80.2754 38.7662C80.2754 38.4441 80.2754 38.2294 80.2754 37.9073C80.2754 37.9073 80.2754 37.9073 80.1594 37.9073C80.0435 37.9073 79.9275 37.9073 79.6957 37.9073C79.5797 37.9073 79.3478 37.9073 79.2319 37.8C79.1159 37.8 79 37.5852 79 37.5852C79 37.5852 79 37.4779 79.1159 37.3705C79.2319 37.2632 79.3478 37.2632 79.4638 37.2632C79.8116 37.2632 80.1594 37.1558 80.2754 37.1558L80.3913 37.0485L80.6232 36.9411C80.7391 36.9411 80.8551 36.8337 80.8551 36.8337C80.971 36.8337 80.971 36.8337 81.087 36.8337C81.2029 36.8337 81.3188 36.8337 81.4348 36.8337C81.6667 36.8337 81.7826 36.9411 81.8986 37.1558C82.0145 37.1558 82.1304 37.1558 82.2464 37.1558C82.5942 37.1558 82.8261 37.2632 83.4058 37.2632C83.7536 37.2632 83.9855 37.3705 84.3333 37.3705C84.4493 37.3705 84.6812 37.3705 84.7971 37.4779C84.913 37.5852 85.029 37.6926 85.1449 37.8C85.2609 37.9073 85.3768 37.9073 85.4928 38.0147C85.6087 38.122 85.6087 38.2294 85.6087 38.3367C85.7246 38.4441 85.8406 38.5515 86.0725 38.6588C86.1884 38.7662 86.1884 38.9809 86.3043 39.0882C86.5362 39.4103 86.7681 39.7324 86.8841 40.0545C87 40.3765 87 40.5913 87 40.9133C87 41.128 87 41.3428 87 41.5575C87 41.6648 87 41.8795 87 41.9869V42.0943C87 42.5237 86.8841 42.631 86.8841 42.7384ZM84.7971 42.7384C84.7971 42.5237 84.7971 42.2016 84.7971 41.8795C84.7971 41.4501 84.6812 41.128 84.6812 41.0207C84.5652 40.3765 84.4493 39.8398 84.3333 39.303C84.3333 39.1956 84.3333 38.8735 83.7536 38.4441C83.6377 38.3367 83.058 38.2294 82.7101 38.2294C82.4783 38.2294 82.3623 38.2294 82.3623 38.3367C82.3623 38.4441 82.3623 38.7662 82.3623 39.1956C82.3623 40.1618 82.3623 41.4501 82.3623 41.6648C82.3623 41.7722 82.3623 41.8795 82.3623 41.9869C82.3623 42.2016 82.3623 42.4163 82.3623 42.631C82.3623 42.9531 82.3623 43.1678 82.3623 43.4899C82.3623 43.7046 82.3623 44.0267 82.3623 44.2414C82.3623 44.5635 82.3623 45.315 82.3623 45.637C82.3623 45.7444 82.3623 45.8518 82.3623 46.0665C82.3623 46.1738 82.3623 46.6033 82.3623 46.818C82.3623 46.9253 82.3623 46.9253 82.4783 46.9253C82.5942 46.9253 82.7101 46.9253 82.7101 46.9253C82.8261 46.9253 82.8261 46.9253 83.058 46.9253C83.1739 46.9253 83.4058 46.7106 83.5217 46.7106L83.7536 46.6033C83.8696 46.4959 83.9855 46.3886 83.9855 46.2812C84.1014 46.1738 84.2174 45.9591 84.2174 45.8518C84.3333 45.5297 84.4493 45.5297 84.5652 44.8855C84.5652 44.4561 84.6812 44.134 84.7971 43.812C84.7971 43.3825 84.7971 43.0605 84.7971 42.7384Z" fill="white"/>
<path d="M93.8814 46.7785L94 46.8903C94 47.002 93.8814 47.1138 93.7627 47.2255C93.6441 47.3372 93.5254 47.3372 93.2881 47.3372C92.9322 47.3372 92.5763 47.449 92.2203 47.449C92.1017 47.449 91.8644 47.449 91.7458 47.5607C91.6271 47.5607 91.2712 47.5607 91.0339 47.5607C90.9153 47.5607 90.9152 47.5607 90.7966 47.5607H90.5593C90.5593 47.6725 90.4407 47.6725 90.322 47.7842C90.2034 47.7842 90.0847 47.7842 89.9661 47.7842C89.8475 47.7842 89.7288 47.7842 89.6102 47.7842C89.4915 47.7842 89.3729 47.7842 89.3729 47.7842C89.2542 47.7842 89.0169 47.6725 89.0169 47.6725C88.8983 47.5607 88.7797 47.5607 88.661 47.449C88.5424 47.449 88.4237 47.449 88.4237 47.449C88.1864 47.449 88.3051 47.449 88.0678 47.449C87.9492 47.449 87.8305 47.449 87.7119 47.449C87.5932 47.449 87.3559 47.449 87.2373 47.3372C87.1186 47.3372 87 47.1138 87 47.002C87 47.002 87 46.8903 87.1186 46.8903C87.2373 46.7785 87.3559 46.7785 87.4746 46.7785C87.7119 46.7785 87.9492 46.6668 88.3051 46.6668C88.3051 46.4433 88.3051 45.9964 88.3051 45.6611C88.3051 45.1025 88.3051 44.5438 88.3051 44.3203C88.3051 44.2085 88.3051 43.7616 88.3051 43.4264C88.3051 43.0911 88.3051 42.7559 88.3051 42.4207C88.3051 42.309 88.3051 42.1972 88.3051 42.0855C88.3051 41.862 88.3051 41.7503 88.3051 41.5268C88.3051 41.4151 88.3051 41.1916 88.3051 41.0798C88.3051 40.8564 88.3051 40.7446 88.3051 40.5211C88.3051 40.1859 88.4237 39.8507 88.4237 39.6272C88.4237 39.292 88.4237 38.9568 88.4237 38.6216C88.4237 38.3981 88.4237 38.0629 88.4237 37.8394C88.3051 37.8394 88.4237 37.8394 88.1864 37.8394C88.0678 37.8394 87.9491 37.8394 87.8305 37.8394C87.7119 37.8394 87.4746 37.8394 87.3559 37.7277C87.2373 37.7277 87.1186 37.5042 87.1186 37.3924C87.1186 37.3924 87.1186 37.2807 87.2373 37.2807C87.3559 37.169 87.4746 37.169 87.5932 37.169C87.9492 37.169 88.4237 37.0572 88.661 37.0572C88.661 36.9455 88.7797 36.9455 88.7797 36.9455C88.8983 36.8337 89.017 36.8337 89.2542 36.8337C89.3729 36.8337 89.4915 36.8337 89.6102 36.8337H89.7288C89.8475 36.8337 89.8475 36.8337 89.9661 36.9455C90.0847 36.9455 90.0847 36.9455 90.2034 37.0572C90.322 37.0572 90.5593 37.169 90.678 37.169H90.7966C90.9152 37.169 91.0339 37.169 91.1525 37.169C91.2712 37.169 91.8644 37.169 92.1017 37.169C92.2203 37.169 92.4576 37.169 92.5763 37.169C92.8136 37.169 92.9322 37.169 93.1695 37.2807C93.2881 37.2807 93.4068 37.2807 93.5254 37.3924C93.6441 37.2807 93.6441 37.2807 93.6441 37.2807C93.6441 37.2807 93.7627 37.2807 93.7627 37.3924C93.8814 37.5042 93.8814 37.6159 93.8814 37.7277C93.8814 38.1746 93.8814 37.9511 93.8814 38.2864C93.8814 38.6216 93.8814 38.6216 93.8814 39.0685C93.8814 39.292 93.8814 39.6272 93.6441 39.6272C93.5254 39.6272 93.4068 39.6272 93.4068 39.5155C93.2881 39.4037 93.2881 39.292 93.2881 39.292C93.2881 39.1803 93.2881 39.0685 93.2881 38.9568C93.2881 38.8451 93.2881 38.7333 93.2881 38.6216C93.2881 38.5098 93.2881 38.2864 93.2881 38.1746C93.1695 38.1746 92.9322 38.1746 92.8136 38.1746C92.5763 38.1746 92.4576 38.1746 92.2203 38.1746C92.1017 38.1746 91.8644 38.1746 91.2712 38.2864C91.1525 38.2864 91.1525 38.2864 91.0339 38.2864C90.9153 38.2864 90.9152 38.2864 90.7966 38.3981C90.7966 38.3981 90.7966 38.5098 90.7966 38.6216C90.7966 38.7333 90.7966 38.7333 90.7966 38.845C90.7966 38.9568 90.7966 39.1803 90.7966 39.292C90.7966 39.4037 90.7966 39.5155 90.7966 39.6272C90.7966 39.8507 90.7966 40.0742 90.7966 40.1859C90.7966 40.2977 90.7966 40.5211 90.7966 40.6329C90.7966 40.7446 90.7966 40.9681 90.7966 41.0798C90.7966 41.1916 90.7966 41.1916 90.7966 41.3033C90.7966 41.3033 90.7966 41.4151 90.7966 41.5268H90.9153C91.0339 41.5268 91.0339 41.5268 91.1525 41.5268C91.6271 41.5268 91.8644 41.5268 91.983 41.5268C92.1017 41.5268 92.339 41.5268 92.4576 41.5268V41.4151C92.4576 41.3033 92.4576 41.1916 92.4576 41.0798C92.4576 40.9681 92.4576 40.7446 92.5763 40.6329C92.5763 40.5211 92.8136 40.4094 92.8136 40.4094C92.8136 40.4094 92.9322 40.4094 92.9322 40.5211C93.0508 40.6329 93.0508 40.7446 93.0508 40.8564C93.0508 41.1916 93.0508 41.4151 93.1695 41.7503C93.1695 42.0855 93.1695 42.309 93.1695 42.6442C93.1695 42.8677 93.1695 43.2029 92.9322 43.2029C92.8136 43.2029 92.6949 43.2029 92.6949 43.0911C92.5763 42.9794 92.5763 42.8677 92.5763 42.8677C92.5763 42.7559 92.5763 42.6442 92.5763 42.5324C92.5763 42.4207 92.5763 42.309 92.5763 42.1972C92.2203 42.1972 91.7458 42.1972 91.0339 42.1972C90.9153 42.1972 90.7966 42.309 90.7966 42.4207C90.7966 42.5324 90.7966 42.7559 90.7966 42.8677C90.7966 42.9794 90.7966 42.9794 90.7966 43.0911C90.7966 43.2029 90.7966 43.3146 90.7966 43.3146C90.7966 43.4264 90.7966 43.5381 90.7966 43.7616C90.7966 43.8733 90.7966 43.9851 90.7966 44.0968C90.7966 44.3203 90.7966 44.5438 90.7966 44.7672C90.7966 45.1024 90.7966 45.4377 90.7966 45.6611C90.7966 45.7729 90.7966 45.9964 90.9153 46.1081C90.9153 46.2198 90.9153 46.5551 91.0339 46.5551C91.0339 46.5551 91.1525 46.5551 91.5085 46.5551C91.7458 46.5551 91.9831 46.5551 92.1017 46.5551C92.339 46.5551 92.5763 46.5551 92.6949 46.5551C92.9322 46.5551 93.0508 46.4433 93.2881 46.4433C93.2881 46.3316 93.2881 46.1081 93.2881 45.9964C93.2881 45.8846 93.2881 45.7729 93.2881 45.6611C93.2881 45.5494 93.2881 45.4377 93.2881 45.3259C93.2881 45.2142 93.4068 45.1025 93.4068 45.1025C93.5254 44.9907 93.5254 44.9907 93.6441 44.9907C93.8814 44.9907 93.8814 45.4377 93.8814 45.5494C94 46.1081 93.8814 46.3316 93.8814 46.7785C93.8814 46.6668 93.8814 46.7785 93.8814 46.7785Z" fill="white"/>
<path d="M103.778 47.3279C103.889 47.442 104 47.442 104 47.5561V47.6701C103.889 47.7842 103.778 47.7842 103.556 47.7842C103.111 47.7842 102.556 47.442 102.222 47.2139C101.889 46.8717 101.778 46.5295 101.556 46.1873C101.444 45.9591 101.333 45.8451 101.222 45.6169C101.111 45.3888 101.111 45.2747 101 45.0466C101 44.8184 100.889 44.5903 100.778 44.4762C100.667 44.2481 100.667 44.02 100.556 43.9059C100.444 43.7918 100.444 43.5637 100.333 43.3356C100.222 43.1074 100.222 42.9934 100 42.8793C99.8889 42.7652 99.7778 42.7652 99.6667 42.7652C99.5556 42.7652 99.4444 42.7652 99.3333 42.7652C99.3333 42.7652 99.3333 42.7652 99.3333 42.8793C99.3333 42.9934 99.3333 43.2215 99.3333 43.2215C99.3333 43.4496 99.3333 43.6778 99.3333 43.9059C99.3333 44.2481 99.4444 44.3622 99.4444 44.7044C99.4444 45.1606 99.3333 45.5028 99.3333 45.9591C99.3333 46.0732 99.3333 46.1873 99.3333 46.4154C99.3333 46.5295 99.3333 46.5295 99.3333 46.6435C99.5556 46.6435 99.7778 46.6435 99.8889 46.6435C100.111 46.6435 100.556 46.6435 100.556 46.9857C100.556 47.0998 100.556 47.2139 100.444 47.2139C100.333 47.3279 100.222 47.3279 100.111 47.3279C100 47.3279 99.8889 47.3279 99.7778 47.3279C99.6667 47.3279 99.4444 47.3279 99.1111 47.3279C98.8889 47.442 98.6667 47.5561 98.5556 47.5561C98.4444 47.5561 98.3333 47.5561 98.2222 47.5561C98.1111 47.5561 98.1111 47.5561 98 47.5561C97.8889 47.5561 97.6667 47.442 97.5556 47.3279C97.4444 47.3279 97.2222 47.3279 97.1111 47.3279C97 47.3279 96.8889 47.3279 96.6667 47.3279C96.5556 47.3279 96.3333 47.2139 96.2222 47.2139C96.1111 47.2139 96 46.9857 96 46.9857C96 46.9857 96 46.8717 96.1111 46.8717C96.2222 46.7576 96.3333 46.7576 96.4444 46.7576C96.6667 46.7576 97 46.6435 97.2222 46.6435C97.2222 46.5295 97.2222 46.4154 97.2222 46.3013C97.2222 46.1873 97.2222 45.3888 97.2222 45.0466C97.2222 44.7044 97.2222 44.3622 97.2222 44.02C97.2222 43.6778 97.2222 43.2215 97.2222 42.8793C97.2222 42.423 97.2222 41.9668 97.2222 41.6246C97.2222 41.1683 97.2222 40.712 97.2222 40.2558C97.2222 39.7995 97.2222 39.6854 97.2222 39.3432C97.2222 39.1151 97.2222 39.001 97.2222 38.7729C97.2222 38.5447 97.2222 38.3166 97.2222 38.2025C97.2222 38.0885 97.2222 37.9744 97.2222 37.8603C97.2222 37.8603 97.2222 37.8603 97.1111 37.8603C97 37.8603 96.8889 37.8603 96.6667 37.8603C96.5556 37.8603 96.3333 37.8603 96.2222 37.7463C96.1111 37.7463 96 37.5181 96 37.5181C96 37.5181 96 37.4041 96.1111 37.4041C96.2222 37.29 96.3333 37.29 96.4444 37.29C96.7778 37.29 97 37.1759 97.2222 37.1759C97.2222 37.1759 97.2222 37.0619 97.3333 37.0619C97.4444 37.0619 97.4444 36.9478 97.6667 36.9478C97.7778 36.9478 97.8889 36.8337 97.8889 36.8337H98.1111C98.2222 36.8337 98.4444 36.8337 98.5556 36.9478C98.7778 37.0619 98.8889 37.0619 98.8889 37.1759C99.1111 37.1759 99.2222 37.1759 99.4444 37.1759C99.6667 37.1759 99.7778 37.1759 100.111 37.1759C100.222 37.1759 100.333 37.1759 100.444 37.1759C100.667 37.1759 100.889 37.29 101.222 37.4041C101.333 37.4041 101.444 37.5181 101.667 37.6322C101.778 37.6322 101.889 37.7463 102.111 37.8603C102.333 37.9744 102.444 38.0885 102.444 38.2025C102.556 38.4307 102.778 38.5448 102.778 38.6588C102.889 38.887 102.889 39.1151 102.889 39.3432C102.889 39.5714 103 39.6854 103 39.6854V39.7995C103 39.9136 103 40.0276 103 40.0276C103 40.1417 103 40.2558 103 40.3698C103 40.4839 103 40.598 102.889 40.8261C102.889 41.0542 102.778 41.1683 102.667 41.3964C102.667 41.5105 102.556 41.5105 102.556 41.6246C102.556 41.7386 102.556 41.7386 102.444 41.8527C102.333 41.9668 102.222 42.0808 102.111 42.1949C102 42.1949 102 42.1949 101.889 42.309C101.778 42.423 101.778 42.423 101.667 42.5371C101.556 42.6512 101.444 42.7652 101.333 42.8793C101.222 42.9934 101.111 42.9934 101.111 43.1074C101.111 43.2215 101.444 43.4496 101.556 43.5637C101.667 43.7918 101.778 44.02 101.889 44.2481C102 44.4762 102 44.7044 102.111 44.9325C102.222 45.2747 102.333 45.5028 102.333 45.8451C102.444 46.1873 102.556 46.4154 102.667 46.7576C102.778 46.9857 102.778 47.0998 102.889 47.2139C103.444 47.0998 103.556 47.2139 103.778 47.3279ZM101.444 39.001C101.444 39.001 101.444 38.887 101.444 38.7729C101.444 38.5447 101.333 38.3166 101.111 38.0885C101 37.9744 101 37.9744 100.889 37.8603C100.778 37.7463 100.667 37.7463 100.556 37.7463C100.333 37.6322 100.111 37.6322 99.8889 37.6322H99.4444C99.4444 37.8603 99.4444 38.2025 99.4444 38.5447C99.4444 39.001 99.5556 39.5714 99.5556 40.1417C99.5556 40.8261 99.5556 41.2824 99.5556 41.3964C99.5556 41.6246 99.5556 41.7386 99.5556 41.9668V42.0808C99.5556 42.1949 99.5556 42.1949 99.6667 42.1949C99.6667 42.1949 99.7778 42.1949 99.8889 42.1949C100 42.1949 100 42.1949 100.111 42.1949C100.333 42.1949 100.667 42.0808 100.778 41.9668C100.889 41.8527 101 41.7386 101 41.5105C101 41.3964 101.111 41.1683 101.111 41.0542C101.222 40.8261 101.222 40.712 101.222 40.4839C101.222 40.2558 101.222 40.2558 101.222 40.0276C101.222 39.6854 101.222 39.7995 101.222 39.5714C101.444 39.3432 101.444 39.3432 101.444 39.001Z" fill="white"/>
<path d="M108.385 47.2139C108.59 47.2139 109 47.2139 109 47.442C109 47.5561 109 47.5561 108.897 47.6701C108.795 47.7842 108.692 47.7842 108.59 47.7842C108.487 47.7842 108.385 47.7842 108.282 47.7842C108.282 47.7842 107.974 47.7842 107.667 47.7842C107.256 47.7842 106.846 47.7842 106.846 47.7842C106.641 47.7842 106.231 47.7842 106.026 47.7842C105.923 47.7842 105.821 47.7842 105.615 47.7842C105.513 47.7842 105.308 47.7842 105.205 47.6701C105.103 47.6701 105 47.442 105 47.442C105 47.442 105 47.3279 105.103 47.3279C105.205 47.2139 105.308 47.2139 105.41 47.2139C105.718 47.2139 106.026 47.0998 106.128 47.0998C106.128 47.0998 106.231 47.0998 106.333 47.0998C106.231 46.9857 106.128 46.8717 106.128 46.7576C106.128 46.6435 106.128 46.6435 106.128 46.5295V46.4154V46.3013C106.128 46.1873 106.128 45.9591 106.128 45.8451C106.128 45.731 106.128 45.731 106.128 45.6169C106.128 44.8184 106.128 44.02 106.128 43.1074C106.128 42.6512 106.128 42.1949 106.128 41.8527C106.128 41.5105 106.128 41.0542 106.128 40.712C106.128 40.4839 106.128 40.2558 106.128 40.1417V39.3432C106.128 39.001 106.128 38.6588 106.128 38.2025V38.0885H106.026C105.923 38.0885 105.821 38.0885 105.615 38.0885C105.513 38.0885 105.308 38.0885 105.205 37.9744C105.103 37.9744 105 37.7463 105 37.7463V37.6322C105.103 37.5181 105.205 37.5181 105.308 37.5181C105.615 37.5181 105.923 37.4041 106.026 37.4041V37.29C106.026 37.1759 106.026 37.1759 106.026 37.0619L106.231 36.9478C106.333 36.9478 106.436 36.8337 106.436 36.8337C106.538 36.8337 106.538 36.8337 106.641 36.8337C106.744 36.8337 106.846 36.8337 106.949 36.8337C107.154 36.9478 107.359 37.0619 107.462 37.29C107.769 37.29 108.077 37.29 108.179 37.29C108.385 37.29 108.795 37.29 108.795 37.5181C108.795 37.6322 108.795 37.6322 108.692 37.7463C108.795 37.9744 108.692 38.0885 108.59 38.0885C108.487 38.0885 108.385 38.0885 108.282 38.0885C108.282 38.0885 108.077 38.0885 107.872 38.0885C107.872 38.3166 107.974 38.5447 107.974 38.6588C107.974 38.8869 107.974 39.1151 107.974 39.2292C107.974 39.4573 107.974 39.5714 107.974 39.7995C107.974 39.9136 107.974 40.0276 107.974 40.1417C107.974 40.2558 107.974 40.2558 107.974 40.3698C108.077 40.8261 107.974 41.1683 108.077 41.6246C108.077 42.0808 108.077 42.5371 108.077 42.9934C108.077 43.3356 108.077 43.7918 108.077 44.134C108.077 44.5903 108.179 44.9325 108.179 45.3888C108.179 45.6169 108.179 45.8451 108.179 45.9591C108.179 46.1873 108.179 46.4154 108.179 46.6435C108.179 46.8717 108.179 46.9857 108.077 47.2139C108.179 47.2139 108.282 47.2139 108.385 47.2139Z" fill="white"/>
<path d="M116 43.0755C116 43.185 115.803 43.2945 115.705 43.404C115.508 43.5135 115.311 43.5135 115.115 43.5135C114.918 43.5135 114.82 43.5135 114.82 43.7325C114.82 43.842 114.82 44.1705 114.82 44.28C114.82 44.3896 114.82 44.7181 114.82 44.8276C114.82 44.9371 114.82 45.0466 114.82 45.1561C114.82 45.5941 114.82 46.0321 114.82 46.1416C114.82 46.4701 114.82 46.6891 114.82 47.0177C114.82 47.2367 114.82 47.6747 114.525 47.6747C114.426 47.6747 114.328 47.6747 114.328 47.5652C114.23 47.4557 114.23 47.3462 114.23 47.3462C114.23 47.2367 114.23 47.1272 114.23 47.0177C114.23 46.9082 114.23 46.7987 114.23 46.5796C114.131 46.9082 113.934 47.2367 113.738 47.3462C113.344 47.6747 113.049 47.7842 112.656 47.7842C112.361 47.7842 112.066 47.7842 111.869 47.6747C111.574 47.5652 111.279 47.3462 111.082 47.1272C110.787 46.7987 110.59 46.3606 110.393 45.9226C110.197 45.5941 110.197 45.2656 110.098 44.9371C110.098 44.7181 110 44.4991 110 44.1705C110 43.9515 110 43.7325 110 43.5135C110 42.6375 110.197 41.7614 110.393 40.8854C110.492 40.4474 110.59 40.0094 110.689 39.5714C110.787 39.1333 110.984 38.6953 111.279 38.2573C111.475 37.9288 111.77 37.6003 112.066 37.2718C112.164 37.1623 112.361 37.0527 112.459 37.0527C112.656 36.9432 112.852 36.8337 113.049 36.8337H113.148C113.246 36.8337 113.344 36.8337 113.443 36.8337C113.639 36.8337 113.836 36.9432 113.934 37.0527C114.033 37.1623 114.131 37.2718 114.23 37.3813C114.23 37.2718 114.23 37.1623 114.328 37.0527C114.328 36.9432 114.328 36.9432 114.426 36.9432L114.525 36.8337C114.623 36.8337 114.623 36.9432 114.623 36.9432C114.721 37.0527 114.721 37.1623 114.721 37.2718C114.721 37.3813 114.721 37.7098 114.721 37.9288C114.721 38.3668 114.721 38.8048 114.721 38.9143C114.721 39.2428 114.721 39.4618 114.721 39.7904C114.721 40.0094 114.721 40.4474 114.426 40.4474C114.328 40.4474 114.23 40.4474 114.23 40.3379C114.131 40.2284 114.131 40.1189 114.131 40.1189C114.131 40.0094 114.131 39.8999 114.131 39.8999C114.131 39.7904 114.131 39.6809 114.131 39.4618C114.131 39.3523 114.131 39.2428 114.131 39.1333C114.131 38.9143 114.033 38.6953 114.033 38.4763C114.033 38.2573 113.934 38.0383 113.836 37.8193C113.738 37.7098 113.541 37.6003 113.443 37.6003C113.246 37.6003 113.148 37.7098 113.049 37.9288C112.951 38.1478 112.852 38.2573 112.754 38.4763C112.656 38.6953 112.656 38.9143 112.656 39.1333C112.656 39.3523 112.557 39.5714 112.557 39.7904C112.459 40.0094 112.459 40.2284 112.459 40.5569C112.459 40.7759 112.361 40.9949 112.361 41.2139C112.361 41.4329 112.262 41.6519 112.262 41.7614C112.262 41.9805 112.262 42.1995 112.164 42.4185C112.164 42.6375 112.164 42.8565 112.066 43.0755C112.066 43.2945 112.066 43.5135 112.066 43.623C112.066 43.9515 112.066 44.1705 112.066 44.4991C112.066 44.8276 112.164 45.2656 112.262 45.5941C112.262 45.7036 112.361 45.9226 112.361 46.0321C112.459 46.2511 112.459 46.3606 112.557 46.5796C112.656 46.7987 112.951 47.1272 113.246 47.1272C113.443 47.1272 113.639 46.9082 113.738 46.6891C113.934 46.3606 114.033 46.0321 114.131 45.7036C114.23 45.3751 114.23 45.0466 114.23 44.7181C114.23 44.4991 114.23 44.1705 114.23 43.9515V43.842C114.23 43.623 114.23 43.623 114.033 43.623C113.836 43.623 113.639 43.623 113.443 43.623C113.246 43.623 113.148 43.623 112.951 43.5135C112.852 43.5135 112.852 43.404 112.852 43.404C112.852 43.404 112.852 43.2945 112.951 43.2945C113.049 43.185 113.148 43.185 113.246 43.0755C113.443 42.966 113.639 42.966 113.836 42.8565C114.033 42.8565 114.23 42.8565 114.426 42.747C114.623 42.747 114.721 42.747 114.918 42.747C115.115 42.747 115.508 42.747 115.705 42.747C115.803 42.8565 116 42.966 116 43.0755Z" fill="white"/>
<path d="M124.299 46.9857C124.532 46.9857 125 46.9857 125 47.2139C125 47.3279 125 47.442 124.883 47.442C124.766 47.5561 124.649 47.5561 124.532 47.5561C124.416 47.5561 124.299 47.5561 124.182 47.5561C123.948 47.5561 122.429 47.5561 122.195 47.5561C121.961 47.5561 122.078 47.5561 121.844 47.5561C121.727 47.5561 121.61 47.5561 121.377 47.5561C121.26 47.5561 121.026 47.5561 120.909 47.442C120.792 47.442 120.675 47.2139 120.675 47.2139C120.675 47.2139 120.675 47.0998 120.792 47.0998C120.909 46.9857 121.026 46.9857 121.143 46.9857C121.377 46.9857 121.727 46.8717 121.844 46.8717C121.727 46.7576 121.61 46.6435 121.61 46.4154C121.61 46.0732 121.61 45.6169 121.61 45.2747C121.61 44.9325 121.61 44.4762 121.61 44.134C121.61 43.9059 121.61 43.6778 121.61 43.4496C121.61 43.2215 121.61 42.9934 121.61 42.6512C121.61 42.5371 121.61 42.423 121.61 42.309C121.61 42.1949 121.61 42.1949 121.61 42.0808H121.494C121.26 42.0808 121.026 42.1949 120.909 42.1949C120.792 42.1949 120.558 42.1949 120.091 42.1949C119.857 42.1949 119.74 42.1949 119.623 42.1949C119.623 42.1949 119.506 42.1949 119.506 42.309C119.506 42.423 119.506 42.5371 119.506 42.6512C119.506 42.7652 119.506 42.8793 119.506 43.1074C119.506 43.2215 119.506 43.3356 119.506 43.4496C119.506 43.6778 119.506 43.7918 119.506 44.02C119.506 44.02 119.506 44.02 119.506 44.134C119.506 44.3622 119.506 44.4762 119.506 44.7044C119.506 44.9325 119.506 45.0466 119.506 45.2747C119.506 45.5028 119.506 45.6169 119.506 45.8451C119.506 46.0732 119.506 46.3013 119.506 46.6435C119.506 46.7576 119.506 46.8717 119.506 46.9857C119.74 46.9857 120.091 46.9857 120.091 47.2139C120.091 47.3279 120.091 47.442 119.974 47.442C119.857 47.5561 119.74 47.5561 119.623 47.5561C119.506 47.5561 119.39 47.5561 119.273 47.5561C119.156 47.5561 119.156 47.5561 119.039 47.6701C118.922 47.6701 119.039 47.7842 118.922 47.7842C118.922 47.7842 118.805 47.7842 118.688 47.7842C118.455 47.7842 118.221 47.6701 118.104 47.6701L117.987 47.5561C117.753 47.5561 117.519 47.5561 117.519 47.5561C117.286 47.5561 117.403 47.5561 117.169 47.5561C117.052 47.5561 116.935 47.5561 116.701 47.5561C116.584 47.5561 116.351 47.5561 116.234 47.442C116.117 47.442 116 47.2139 116 47.2139C116 47.2139 116 47.0998 116.117 47.0998C116.234 46.9857 116.351 46.9857 116.468 46.9857C116.701 46.9857 117.052 46.8717 117.286 46.8717V46.7576C117.286 46.6435 117.286 46.5295 117.286 46.5295C117.286 46.3013 117.286 46.1873 117.286 45.9591C117.286 45.731 117.286 45.5028 117.286 45.2747V44.7044C117.286 44.3622 117.286 44.02 117.286 43.5637C117.286 43.3356 117.286 43.1074 117.286 42.8793C117.286 42.7652 117.286 42.7652 117.286 42.6512C117.286 42.5371 117.286 42.423 117.286 42.423C117.286 42.309 117.286 42.309 117.169 42.309C117.169 42.309 116.935 42.309 116.701 42.309C116.468 42.309 116.234 42.1949 116.234 42.0808C116.234 42.0808 116.234 41.9668 116.351 41.9668C116.468 41.8527 116.584 41.8527 116.584 41.8527C116.701 41.8527 116.818 41.8527 116.935 41.8527C117.052 41.8527 117.052 41.8527 117.169 41.7386V41.6246C117.169 41.1683 117.169 40.8261 117.169 40.3698C117.169 39.6854 117.169 38.887 117.286 38.2025C117.286 38.0885 117.286 37.9744 117.286 37.8603C117.169 37.8603 117.169 37.8603 117.052 37.8603H116.935C116.818 37.8603 116.818 37.8603 116.701 37.8603C116.584 37.8603 116.351 37.8603 116.234 37.7463C116.117 37.7463 116 37.5181 116 37.5181C116 37.5181 116 37.4041 116.117 37.4041C116.234 37.29 116.351 37.29 116.468 37.29C116.818 37.29 117.286 37.1759 117.403 37.1759H117.519C117.636 36.9478 117.753 36.8337 118.221 36.8337C118.455 36.8337 118.688 36.9478 118.922 37.1759C119.156 37.1759 119.273 37.1759 119.39 37.1759C119.623 37.1759 120.091 37.1759 120.091 37.4041C120.091 37.5181 119.974 37.6322 119.857 37.6322C119.74 37.7463 119.623 37.7463 119.506 37.7463C119.39 37.7463 119.273 37.7463 119.156 37.7463H119.039C119.039 37.7463 119.039 37.7463 119.039 37.8603C119.156 38.0885 119.156 38.4307 119.156 38.6588C119.156 38.887 119.156 39.2292 119.273 39.4573C119.273 39.6854 119.39 39.9136 119.39 40.2558C119.39 40.3698 119.39 40.4839 119.39 40.4839V40.598C119.39 40.712 119.39 40.8261 119.39 41.0542C119.39 41.1683 119.506 41.1683 119.506 41.2824V41.3964C119.506 41.5105 119.506 41.5105 119.623 41.5105C119.857 41.5105 120.558 41.3964 120.675 41.3964C120.792 41.3964 121.026 41.3964 121.143 41.3964C121.26 41.3964 121.377 41.3964 121.494 41.3964C121.61 41.3964 121.727 41.3964 121.727 41.1683C121.727 41.0542 121.727 40.8261 121.727 40.712C121.727 40.3698 121.727 40.1417 121.727 39.7995C121.727 39.7995 121.727 39.4573 121.727 39.1151C121.727 38.887 121.727 38.5448 121.727 38.3166C121.727 38.2026 121.727 37.9744 121.727 37.8603C121.727 37.7463 121.727 37.6322 121.727 37.6322C121.61 37.6322 121.494 37.6322 121.494 37.6322C121.377 37.6322 121.143 37.6322 121.026 37.5181C120.909 37.5181 120.792 37.29 120.792 37.29C120.792 37.29 120.792 37.1759 120.909 37.1759C121.026 37.0619 121.143 37.0619 121.26 37.0619C121.494 37.0619 121.727 37.0619 121.844 37.0619L121.961 36.9478C122.078 36.9478 122.312 36.9478 122.312 36.9478C122.312 36.9478 122.312 36.9478 122.429 36.9478C122.545 36.9478 122.662 36.9478 122.779 36.9478C122.896 36.9478 122.896 36.9478 122.896 37.0619C123.364 37.0619 123.831 37.0619 124.065 37.0619C124.299 37.0619 124.649 37.0619 124.649 37.29C124.649 37.4041 124.649 37.5181 124.532 37.5181C124.416 37.6322 124.299 37.6322 124.182 37.6322C124.065 37.6322 123.948 37.6322 123.831 37.6322C123.831 37.6322 123.481 37.6322 123.13 37.6322C123.13 37.7463 123.247 37.8603 123.247 38.0885C123.247 38.3166 123.364 38.6588 123.481 38.887C123.481 39.1151 123.481 39.3432 123.597 39.5714C123.714 39.7995 123.714 40.0276 123.714 40.2558C123.714 40.4839 123.714 40.598 123.714 40.8261C123.714 40.9402 123.714 41.0542 123.714 41.1683C123.714 41.1683 123.714 41.1683 123.714 41.2824C123.714 41.3964 123.831 41.3964 123.831 41.3964C123.831 41.3964 123.948 41.3964 124.065 41.3964C124.182 41.3964 124.416 41.3964 124.416 41.5105V41.6246C124.416 41.7386 124.299 41.9668 124.065 41.9668C123.948 41.9668 123.831 41.9668 123.831 42.0808C123.714 42.0808 123.714 42.0808 123.714 42.1949C123.714 42.1949 123.714 42.309 123.714 42.423C123.714 42.423 123.714 42.423 123.714 42.5371C123.714 42.6512 123.714 42.7652 123.714 42.9934C123.714 43.3356 123.714 43.6778 123.714 44.134C123.714 44.4762 123.831 44.9325 123.831 45.2747C123.831 45.5028 123.831 45.6169 123.831 45.8451C123.831 46.1873 123.714 46.5295 123.714 46.7576L123.597 46.8717C123.597 46.9857 123.597 46.9857 123.597 47.0998V47.2139C124.065 46.9857 124.182 46.9857 124.299 46.9857Z" fill="white"/>
<path d="M131.887 39.7153C131.887 39.9249 131.887 40.2392 131.661 40.2392C131.548 40.2392 131.435 40.2392 131.435 40.1345C131.323 40.0297 131.323 40.0297 131.323 39.9249C131.323 39.8201 131.323 39.7153 131.323 39.6105C131.323 39.5057 131.323 38.9818 131.323 38.877C131.323 38.7722 131.323 38.6674 131.323 38.5626C131.21 38.5626 130.984 38.5626 130.871 38.5626C130.758 38.5626 130.645 38.5626 130.419 38.5626C130.306 38.5626 130.081 38.5626 129.968 38.5626H129.855C129.742 38.5626 129.629 38.5626 129.629 38.6674V38.7722C129.629 38.877 129.629 39.1914 129.629 39.2961C129.629 39.4009 129.629 39.6105 129.629 39.7153C129.629 39.8201 129.629 39.9249 129.629 40.1345C129.629 40.2392 129.742 40.4488 129.629 40.5536C129.629 40.6584 129.629 40.868 129.629 40.9728C129.629 41.2871 129.629 41.4967 129.629 41.8111C129.629 41.9159 129.629 42.0207 129.629 42.2302C129.629 42.335 129.629 42.335 129.629 42.4398C129.629 42.5446 129.629 42.6494 129.629 42.7542C129.629 43.0686 129.629 43.1733 129.629 43.4877C129.629 43.8021 129.629 44.0117 129.629 44.326C129.629 44.4308 129.629 44.5356 129.629 44.7452C129.629 44.85 129.629 45.0595 129.629 45.1643C129.629 45.4787 129.629 45.6883 129.629 46.0026C129.629 46.2122 129.629 46.6314 129.629 46.841V46.9457C129.855 46.9457 129.968 46.9457 130.081 46.9457C130.306 46.9457 130.758 47.0505 130.758 47.2601C130.758 47.3649 130.758 47.4697 130.645 47.4697C130.532 47.5745 130.419 47.5745 130.306 47.5745C130.194 47.5745 130.081 47.5745 129.968 47.5745C129.968 47.5745 129.742 47.5745 129.403 47.5745C129.403 47.5745 129.29 47.5745 129.29 47.6793C129.177 47.7841 129.065 47.7841 128.952 47.7841C128.839 47.7841 128.726 47.7841 128.613 47.7841C128.387 47.7841 128.274 47.6793 128.161 47.6793C128.161 47.6793 128.048 47.6793 128.048 47.5745C127.823 47.5745 127.597 47.5745 127.371 47.5745C127.258 47.5745 127.145 47.5745 126.919 47.5745C126.694 47.5745 126.581 47.5745 126.468 47.4697C126.355 47.4697 126.242 47.2601 126.242 47.1553C126.242 47.1553 126.242 47.0505 126.355 47.0505C126.468 46.9457 126.581 46.9457 126.694 46.9457C126.919 46.9457 127.258 46.9457 127.371 46.841C127.371 46.7362 127.371 46.5266 127.371 46.4218C127.371 46.2122 127.371 45.8979 127.371 45.5835C127.371 45.2691 127.371 45.0595 127.371 44.7452C127.371 44.4308 127.371 44.1164 127.371 43.8021C127.371 43.5925 127.371 43.3829 127.371 43.0686C127.371 42.9638 127.371 42.859 127.371 42.6494C127.371 42.5446 127.371 42.4398 127.371 42.2302C127.371 41.9159 127.371 41.7063 127.371 41.3919C127.371 41.0776 127.371 40.868 127.371 40.5536C127.371 40.344 127.371 40.0297 127.371 39.8201C127.371 39.5057 127.371 39.0866 127.371 38.7722C127.371 38.6674 127.371 38.6674 127.371 38.5626C127.371 38.4578 127.258 38.4578 127.258 38.4578C127.145 38.4578 126.581 38.4578 126.581 38.4578C126.355 38.4578 126.016 38.4578 125.79 38.4578H125.677C125.677 38.7722 125.677 39.2961 125.677 39.6105C125.677 39.8201 125.677 40.1345 125.452 40.1345C125.339 40.1345 125.226 40.1345 125.226 40.0297C125.113 39.9249 125.113 39.9249 125.113 39.8201C125.113 39.7153 125.113 39.6105 125.113 39.5057C125.113 39.4009 125.113 38.9818 125.113 38.877C125.113 38.6674 125.113 38.5626 125.113 38.353C125.113 38.2483 125 38.2483 125 38.1435C125 38.0387 125 38.0387 125.113 38.0387C125.226 37.9339 125.339 37.9339 125.565 37.9339C125.677 37.9339 125.79 37.9339 125.903 37.9339C126.242 37.9339 126.468 37.9339 126.806 37.9339C126.919 37.9339 127.145 37.9339 127.258 37.9339C127.371 37.9339 127.371 37.9339 127.484 37.9339C127.597 37.9339 127.597 37.9339 127.597 37.9339C127.71 37.9339 127.823 37.8291 127.935 37.8291C128.048 37.8291 128.161 37.8291 128.274 37.8291C128.5 37.8291 128.613 37.8291 128.839 37.8291C128.952 37.8291 128.952 37.8291 129.065 37.9339C129.177 37.9339 129.177 38.0387 129.29 38.0387H129.403C129.516 38.0387 129.516 38.0387 129.629 38.0387C129.742 38.0387 129.968 38.0387 130.081 38.0387C130.419 38.0387 130.871 38.0387 131.21 38.0387C131.435 38.0387 131.661 38.0387 131.774 38.1435C131.887 38.2483 132 38.353 132 38.4578C132 38.5626 132 38.5626 131.887 38.6674C131.887 38.6674 131.887 38.6674 131.887 38.877C131.887 38.9818 131.887 39.4009 131.887 39.7153Z" fill="white"/>
</svg>
