<svg width="16" height="16" viewBox="0 0 16 16" fill="none" xmlns="http://www.w3.org/2000/svg">
<circle cx="8" cy="8" r="7.5" stroke="#206EBF"/>
<path d="M7.37204 10.62C7.63804 10.62 8.11404 10.62 8.11404 10.186C8.11404 10.06 8.11404 9.94799 8.11404 9.83599C8.11404 9.58399 8.12804 9.38799 8.21204 9.10799C8.70204 7.56799 10.144 6.86799 10.144 5.29999C10.144 3.47999 8.61804 2.98999 6.91004 2.98999C6.67204 2.98999 6.42004 3.12999 6.42004 3.57799C6.42004 3.73199 6.56004 3.85799 7.13404 3.91399C7.94604 3.99799 8.94004 4.44599 8.94004 5.45399C8.94004 6.76999 7.06404 7.91799 7.06404 10.004C7.06404 10.298 7.06404 10.62 7.37204 10.62ZM6.93804 12.594C6.93804 12.972 7.27404 13.14 7.58204 13.14C7.90404 13.14 8.11404 12.972 8.19804 12.594C8.19804 12.258 8.05804 11.852 7.58204 11.852C7.06404 11.852 6.93804 12.258 6.93804 12.594Z" fill="#206EBF"/>
</svg>
