<svg width="16" height="16" viewBox="0 0 16 16" fill="none" xmlns="http://www.w3.org/2000/svg">
<circle cx="8" cy="8" r="7.5" stroke="#989898"/>
<path d="M7.37192 10.62C7.63792 10.62 8.11392 10.62 8.11392 10.186C8.11392 10.06 8.11392 9.94799 8.11392 9.83599C8.11392 9.58399 8.12792 9.38799 8.21192 9.10799C8.70192 7.56799 10.1439 6.86799 10.1439 5.29999C10.1439 3.47999 8.61792 2.98999 6.90992 2.98999C6.67192 2.98999 6.41992 3.12999 6.41992 3.57799C6.41992 3.73199 6.55992 3.85799 7.13392 3.91399C7.94592 3.99799 8.93992 4.44599 8.93992 5.45399C8.93992 6.76999 7.06392 7.91799 7.06392 10.004C7.06392 10.298 7.06392 10.62 7.37192 10.62ZM6.93792 12.594C6.93792 12.972 7.27392 13.14 7.58192 13.14C7.90392 13.14 8.11392 12.972 8.19792 12.594C8.19792 12.258 8.05792 11.852 7.58192 11.852C7.06392 11.852 6.93792 12.258 6.93792 12.594Z" fill="#989898"/>
</svg>
