<svg width="120" height="120" viewBox="0 0 120 120" fill="none" xmlns="http://www.w3.org/2000/svg">
<path fill-rule="evenodd" clip-rule="evenodd" d="M26.0109 9.46396C26.3051 8.41344 27.3952 7.80031 28.4457 8.09449L38.2992 10.8538L42.407 1.91929C42.8628 0.928098 44.0357 0.494012 45.0269 0.949728C46.0181 1.40544 46.4522 2.57839 45.9964 3.56958L41.5578 13.2236L46.4081 24.1175L49.8594 18.2688C50.4138 17.3292 51.6249 17.017 52.5644 17.5715C53.504 18.1259 53.8162 19.337 53.2618 20.2765L48.3808 28.5481L53.974 41.1107C57.9112 39.794 62.0208 39.7551 65.8069 40.8018L70.7354 27.9627L65.4282 19.9579C64.8254 19.0487 65.0738 17.8229 65.983 17.2201C66.8922 16.6172 68.118 16.8656 68.7209 17.7749L72.4735 23.4349L76.747 12.3021L71.8092 2.89365C71.3022 1.92767 71.6743 0.73361 72.6403 0.226644C73.6063 -0.280319 74.8003 0.091785 75.3073 1.05776L79.8771 9.76508L89.5727 6.49383C90.6064 6.14507 91.7271 6.70031 92.0758 7.73399C92.4246 8.76767 91.8693 9.88836 90.8357 10.2371L80.4227 13.7504L76.1165 24.9684L83.2802 23.3306C84.3437 23.0874 85.4029 23.7524 85.646 24.8159C85.8892 25.8794 85.2242 26.9386 84.1607 27.1818L74.4112 29.4109L69.4952 42.2175C70.1262 42.5327 70.7415 42.8809 71.338 43.2609C72.2581 43.847 72.5288 45.068 71.9427 45.9881C71.3565 46.9082 70.1355 47.179 69.2154 46.5928C68.2905 46.0036 67.3105 45.5095 66.2919 45.1168C66.2844 45.114 66.277 45.1112 66.2696 45.1084C66.2622 45.1055 66.2548 45.1026 66.2474 45.0997C62.337 43.6049 57.8607 43.6009 53.7377 45.4366C49.6076 47.2754 46.6133 50.6136 45.1104 54.5247L45.1084 54.53L45.1073 54.533C43.6062 58.4457 43.5974 62.9309 45.4366 67.0619C45.774 67.8196 46.1612 68.5381 46.5924 69.2156C47.1782 70.1359 46.907 71.3568 45.9867 71.9426C45.0664 72.5284 43.8454 72.2572 43.2596 71.3369C43.072 71.0422 42.8912 70.7414 42.7176 70.4347L30.155 76.0279L28.2475 85.4409C28.0308 86.5101 26.9884 87.2013 25.9192 86.9846C24.85 86.7679 24.1589 85.7255 24.3756 84.6563L25.7243 78.0006L14.8305 82.8508L11.6692 92.9952C11.3446 94.0367 10.2372 94.6179 9.19563 94.2933C8.1541 93.9688 7.57289 92.8613 7.89747 91.8198L10.8232 82.4315L1.6542 77.8888C0.676669 77.4044 0.276836 76.2194 0.761149 75.2419C1.24546 74.2643 2.43052 73.8645 3.40806 74.3488L13.2554 79.2276L24.2327 74.3402L18.0091 70.4329C17.0851 69.8528 16.8064 68.6336 17.3864 67.7096C17.9665 66.7857 19.1857 66.507 20.1097 67.087L28.5798 72.4047L41.1106 66.8257C39.794 62.8891 39.7543 58.7799 40.8016 54.9925L27.9628 50.0642L19.9579 55.3714C19.0487 55.9743 17.8229 55.7259 17.2201 54.8166C16.6172 53.9074 16.8656 52.6816 17.7749 52.0788L23.4349 48.3261L12.3021 44.0527L2.89365 48.9904C1.92767 49.4974 0.733611 49.1253 0.226646 48.1593C-0.28032 47.1933 0.0917852 45.9993 1.05776 45.4923L9.76508 40.9225L6.49383 31.2269C6.14507 30.1932 6.70031 29.0726 7.73399 28.7238C8.76767 28.375 9.88836 28.9303 10.2371 29.964L13.7504 40.3769L24.9684 44.6831L23.3306 37.5194C23.0874 36.456 23.7524 35.3967 24.8159 35.1536C25.8794 34.9104 26.9386 35.5754 27.1818 36.6389L29.4109 46.3884L42.2174 51.3043C43.9733 47.7891 46.7524 44.7619 50.3649 42.7175L44.7858 30.1867L34.933 28.4709C33.8582 28.2837 33.1387 27.2607 33.3259 26.186C33.513 25.1112 34.536 24.3917 35.6108 24.5788L42.8503 25.8395L37.9629 14.8622L27.3804 11.8988C26.3299 11.6046 25.7167 10.5145 26.0109 9.46396Z" fill="url(#paint0_linear_20000240_1457)"/>
<path fill-rule="evenodd" clip-rule="evenodd" d="M93.626 32.3385C94.7008 32.5256 95.4203 33.5486 95.2331 34.6234L93.9724 41.8629L104.95 36.9755L107.913 26.393C108.207 25.3425 109.297 24.7293 110.348 25.0235C111.399 25.3177 112.012 26.4078 111.717 27.4583L108.958 37.3118L117.893 41.4196C118.884 41.8753 119.318 43.0483 118.862 44.0395C118.407 45.0307 117.234 45.4647 116.242 45.009L106.588 40.5704L95.6945 45.4207L101.543 48.872C102.483 49.4264 102.795 50.6375 102.241 51.577C101.686 52.5166 100.475 52.8288 99.5354 52.2744L91.2638 47.3934L78.7013 52.9865C80.0179 56.923 80.0576 61.0323 79.0104 64.8196L91.8169 69.7355L99.9971 63.9818C100.889 63.3542 102.122 63.5687 102.749 64.461C103.377 65.3534 103.162 66.5855 102.27 67.2131L96.2593 71.4408L107.477 75.747L117.056 70.3595C118.007 69.8247 119.211 70.162 119.746 71.1128C120.281 72.0637 119.943 73.268 118.993 73.8029L110.074 78.8192L113.487 88.0415C113.866 89.0646 113.343 90.201 112.32 90.5796C111.297 90.9583 110.161 90.4358 109.782 89.4127L106.094 79.4477L94.9613 75.1742L96.6565 81.7503C96.9288 82.8067 96.2932 83.8838 95.2368 84.1561C94.1804 84.4285 93.1033 83.7929 92.831 82.7365L90.4335 73.4362L77.5946 68.5078C75.8387 72.0231 73.0595 75.0503 69.4471 77.0947L75.0403 89.6572L84.4533 91.5647C85.5225 91.7813 86.2136 92.8238 85.9969 93.893C85.7803 94.9622 84.7379 95.6533 83.6687 95.4366L77.0129 94.0879L81.8632 104.982L92.0075 108.143C93.0491 108.468 93.6303 109.575 93.3057 110.617C92.9811 111.658 91.8737 112.239 90.8321 111.915L81.4438 108.989L76.9011 118.158C76.4168 119.136 75.2318 119.535 74.2542 119.051C73.2767 118.567 72.8769 117.382 73.3612 116.404L78.24 106.557L73.3526 95.5795L69.4452 101.803C68.8652 102.727 67.6459 103.006 66.722 102.426C65.7981 101.846 65.5193 100.626 66.0994 99.7025L71.4171 91.2324L65.838 78.7015C61.901 80.0181 57.791 80.057 54.005 79.0104L49.089 91.817L54.8427 99.9973C55.4704 100.89 55.2558 102.122 54.3635 102.749C53.4712 103.377 52.239 103.162 51.6114 102.27L47.3837 96.2595L43.0775 107.478L48.465 117.056C48.9998 118.007 48.6625 119.211 47.7117 119.746C46.7608 120.281 45.5565 119.944 45.0217 118.993L40.0053 110.074L30.783 113.487C29.7599 113.866 28.6235 113.343 28.2449 112.32C27.8663 111.297 28.3887 110.161 29.4118 109.782L39.3768 106.094L43.6503 94.9614L37.0742 96.6567C36.0179 96.929 34.9407 96.2934 34.6684 95.237C34.3961 94.1806 35.0317 93.1035 36.0881 92.8311L45.3884 90.4336L50.3168 77.5948C50.0648 77.4689 49.8153 77.3378 49.5686 77.2015C48.6137 76.6739 48.2672 75.4722 48.7948 74.5173C49.3223 73.5624 50.5241 73.2159 51.479 73.7435C52.1377 74.1074 52.8199 74.4254 53.5205 74.6955C53.5278 74.6982 53.5351 74.7009 53.5424 74.7037C53.5497 74.7066 53.5571 74.7094 53.5644 74.7123C57.4751 76.2074 61.9508 76.2115 66.0742 74.3756C74.3382 70.6963 78.0547 61.0143 74.3754 52.7503C74.2177 52.3961 74.0491 52.0506 73.8703 51.7138C73.3587 50.7503 73.725 49.5544 74.6885 49.0428C75.4814 48.6218 76.4316 48.7953 77.0284 49.4069L89.6253 43.7984L91.3411 33.9456C91.5283 32.8708 92.5512 32.1513 93.626 32.3385Z" fill="black"/>
<defs>
<linearGradient id="paint0_linear_20000240_1457" x1="6.86795e-07" y1="94.3833" x2="97.7926" y2="88.1572" gradientUnits="userSpaceOnUse">
<stop stop-color="#A400CD"/>
<stop offset="1" stop-color="#D33883"/>
</linearGradient>
</defs>
</svg>
