<svg width="211" height="26" viewBox="0 0 211 26" fill="none" xmlns="http://www.w3.org/2000/svg">
<path fill-rule="evenodd" clip-rule="evenodd" d="M0.333344 26L8.02348 1H210.333L202.643 26H0.333344Z" fill="#856398"/>
<path d="M17.7433 4H13.0102L7.33334 22.4062H12.0664L15.5458 11.125L18.842 19.4375L25.7432 12.5906L22.7158 22.4062H27.4489L33.1258 4H28.3927L20.617 11.125L17.7433 4Z" fill="white"/>
<path d="M42.592 4H37.8589L34.2246 16.4688C33.6188 18.8438 35.4078 23 40.1409 23C46.0572 23 49.2971 20.625 51.1284 14.6875L54.4247 4H49.6916L47.2405 11.9471C45.3388 18.113 43.6907 18.8438 41.3242 18.8438C38.9576 18.8438 38.8971 15.98 39.2957 14.6875L42.592 4Z" fill="white"/>
<path d="M63.8908 4H59.1577L53.4809 22.4062H56.7067H66.4968L67.706 18.4858H59.4231L63.8908 4Z" fill="white"/>
<path d="M85.1897 4H69.8072L68.5394 8.11058H74.4557L70.0466 22.4062H74.7797L79.1888 8.11058H83.9219L85.1897 4Z" fill="white"/>
<path d="M92.2893 4H87.5562L81.8793 22.4062H86.6124L92.2893 4Z" fill="white"/>
<path d="M111.222 4H97.0223L91.3455 22.4062H96.0786L98.1211 15.7837H107.587L108.771 11.9471H99.3044L100.488 8.11058H109.954L111.222 4Z" fill="white"/>
<path d="M147.903 4H133.704L128.027 22.4062H142.226L143.435 18.4858H133.969L134.957 15.2812H144.424L145.705 11.125H136.239L137.169 8.11058H146.635L147.903 4Z" fill="white"/>
<path d="M165.652 4H151.453L145.776 22.4062H159.975L161.184 18.4858H151.718L152.706 15.2812H162.173L163.201 11.125H153.988L154.918 8.11058H164.384L165.652 4Z" fill="white"/>
<path d="M184.584 4H169.202L167.934 8.11058H176.809L164.734 18.4858L163.525 22.4062H178.907L180.117 18.4858H170.892L183.486 7.5625L184.584 4Z" fill="white"/>
<path d="M202.333 4H188.134L182.457 22.4062H196.656L197.866 18.4858H188.399L189.388 15.2812H198.854L200.136 11.125H190.67L191.599 8.11058H201.066L202.333 4Z" fill="white"/>
<path fill-rule="evenodd" clip-rule="evenodd" d="M114.771 4H125.928C127.703 4 129.8 5.1875 129.478 8.75C129.004 13.975 124.942 16.0729 122.97 16.4688L125.336 22.4062H120.012L118.237 17.0625H115.476L113.828 22.4062H109.095L114.771 4ZM122.97 8.11058H118.237L117.053 12.9062H120.012C121.195 12.9062 124.153 12.9062 124.745 10.5312C125.204 8.68798 123.561 8.1258 122.97 8.11058Z" fill="white"/>
</svg>
