<svg width="229" height="50" viewBox="0 0 229 50" fill="none" xmlns="http://www.w3.org/2000/svg">
<path d="M95.6349 37.1845H75.8484L101.066 3.78641C101.648 3.00971 101.454 1.94175 100.776 1.45631C100.485 1.26214 100.097 1.16505 99.8056 1.16505H63.2393C60.0385 1.16505 57.4197 3.78641 57.4197 6.99029C57.4197 10.1942 60.0385 12.8155 63.2393 12.8155H79.6311L54.316 46.2136C53.734 46.9903 53.928 47.9612 54.6069 48.5437C54.8979 48.8349 55.2859 48.932 55.6739 48.8349H95.5379C98.7387 48.6408 101.26 45.9223 101.066 42.7184C100.969 39.7087 98.5447 37.3786 95.6349 37.1845ZM223.083 1.06796C219.883 1.06796 217.264 3.68932 217.264 6.8932V26.5049L185.741 1.45631C185.062 0.873786 183.995 0.970874 183.413 1.74757C183.122 2.03884 183.025 2.42718 183.025 2.81553V43.0097C183.025 46.2136 185.644 48.8349 188.845 48.8349C192.046 48.8349 194.665 46.2136 194.665 43.0097V23.4951L226.187 48.5437C226.963 49.1262 228.03 49.0291 228.612 48.2524C228.903 47.9612 229 47.5728 229 47.1845V6.99029C228.903 3.68932 226.284 1.06796 223.083 1.06796ZM139.67 38.2524C126.382 38.2524 116.391 31.2621 116.391 24.9515C116.391 18.6408 126.382 11.6505 139.67 11.6505C152.958 11.6505 162.948 18.6408 162.948 24.9515C162.948 31.2621 153.055 38.2524 139.67 38.2524ZM139.67 0C120.368 0 104.752 11.165 104.752 24.9515C104.752 38.7379 120.368 49.9029 139.67 49.9029C158.971 49.9029 174.587 38.7379 174.587 24.9515C174.587 11.165 158.971 0 139.67 0ZM25.0241 38.3495C17.6527 38.3495 11.7361 32.4272 11.7361 25.0485C11.7361 17.6699 17.6527 11.7476 25.0241 11.7476C32.3956 11.7476 38.3122 17.6699 38.3122 25.0485C38.3122 32.3301 32.3956 38.2524 25.0241 38.3495ZM25.0241 0C11.1542 0 0 11.165 0 24.9515C0 38.7379 11.1542 49.9029 24.9271 50C38.7001 50 49.8543 38.8349 49.9513 25.0485C49.9513 11.165 38.7971 0 25.0241 0Z" fill="#005BFF"/>
</svg>
