<svg width="229" height="50" viewBox="0 0 229 50" fill="none" xmlns="http://www.w3.org/2000/svg">
<rect width="229" height="50" rx="10" fill="#005BFF"/>
<path d="M103.214 32.3107H91.3765L106.463 12.2718C106.812 11.8058 106.695 11.165 106.289 10.8738C106.115 10.7573 105.883 10.699 105.709 10.699H83.8331C81.9183 10.699 80.3515 12.2718 80.3515 14.1942C80.3515 16.1165 81.9183 17.6893 83.8331 17.6893H93.6396L78.4947 37.7282C78.1465 38.1942 78.2626 38.7767 78.6688 39.1262C78.8429 39.301 79.075 39.3592 79.3071 39.301H103.156C105.071 39.1845 106.579 37.5534 106.463 35.6311C106.405 33.8252 104.955 32.4272 103.214 32.3107ZM179.46 10.6408C177.546 10.6408 175.979 12.2136 175.979 14.1359V25.9029L157.12 10.8738C156.714 10.5243 156.076 10.5825 155.728 11.0485C155.554 11.2233 155.496 11.4563 155.496 11.6893V35.8058C155.496 37.7282 157.062 39.301 158.977 39.301C160.892 39.301 162.459 37.7282 162.459 35.8058V24.0971L181.317 39.1262C181.781 39.4757 182.42 39.4175 182.768 38.9515C182.942 38.7767 183 38.5437 183 38.3107V14.1942C182.942 12.2136 181.375 10.6408 179.46 10.6408ZM129.558 32.9515C121.608 32.9515 115.632 28.7573 115.632 24.9709C115.632 21.1845 121.608 16.9903 129.558 16.9903C137.507 16.9903 143.484 21.1845 143.484 24.9709C143.484 28.7573 137.565 32.9515 129.558 32.9515ZM129.558 10C118.011 10 108.668 16.699 108.668 24.9709C108.668 33.2427 118.011 39.9417 129.558 39.9417C141.105 39.9417 150.447 33.2427 150.447 24.9709C150.447 16.699 141.105 10 129.558 10ZM60.9708 33.0097C56.5608 33.0097 53.0212 29.4563 53.0212 25.0291C53.0212 20.6019 56.5608 17.0485 60.9708 17.0485C65.3808 17.0485 68.9204 20.6019 68.9204 25.0291C68.9204 29.3981 65.3808 32.9515 60.9708 33.0097ZM60.9708 10C52.673 10 46 16.699 46 24.9709C46 33.2427 52.673 39.9417 60.9127 40C69.1525 40 75.8255 33.301 75.8835 25.0291C75.8835 16.699 69.2105 10 60.9708 10Z" fill="white"/>
</svg>
