<svg width="505" height="321" viewBox="0 0 505 321" fill="none" xmlns="http://www.w3.org/2000/svg">
<path d="M453.932 152.177C453.933 162.549 450.019 172.538 442.973 180.148C435.927 187.759 426.269 192.43 415.928 193.227C415.58 193.253 415.226 193.28 414.872 193.296V154.22C414.873 153.83 414.786 153.444 414.618 153.091C414.45 152.739 414.205 152.428 413.901 152.183C413.866 152.147 413.827 152.115 413.785 152.088C413.747 152.056 413.706 152.028 413.664 152.003C413.293 151.764 412.868 151.623 412.428 151.59C411.989 151.558 411.548 151.636 411.146 151.818L410.708 150.858C411.187 150.64 411.707 150.526 412.233 150.525L382.168 124.624C382.4 124.361 382.643 124.102 382.886 123.843C388.554 117.868 395.883 113.73 403.927 111.964C411.972 110.198 420.36 110.885 428.01 113.936C435.66 116.986 442.219 122.261 446.84 129.078C451.461 135.895 453.931 143.942 453.932 152.177V152.177Z" fill="#F2F2F2"/>
<path d="M62.9253 180.25C62.7758 179.486 62.7956 178.699 62.9833 177.943C63.171 177.188 63.5221 176.483 64.0117 175.878C64.5014 175.273 65.1178 174.782 65.8175 174.441C66.5172 174.1 67.2831 173.917 68.0614 173.904L91.7939 145.652L97.7188 153.228L73.5321 179.52C73.4673 180.829 72.9246 182.069 72.0069 183.005C71.0892 183.94 69.8602 184.506 68.5528 184.596C67.2454 184.686 65.9504 184.294 64.9132 183.493C63.876 182.691 63.1687 181.538 62.9253 180.25H62.9253Z" fill="#FFB8B8"/>
<path d="M175.623 145.478C175.457 145.719 175.31 145.972 175.184 146.235L149.27 149.939L145.335 144.943L137.02 149.897L144.836 162.084L176.44 152.767C177.274 153.522 178.318 154.005 179.434 154.153C180.549 154.3 181.683 154.104 182.684 153.591C183.685 153.078 184.507 152.273 185.039 151.281C185.571 150.29 185.789 149.161 185.664 148.043C185.538 146.925 185.076 145.872 184.337 145.023C183.599 144.174 182.619 143.571 181.529 143.292C180.439 143.014 179.29 143.074 178.235 143.465C177.18 143.855 176.269 144.557 175.623 145.478Z" fill="#FFB8B8"/>
<path d="M131.359 239.869L135.945 244.435L155.739 228.92L148.971 222.182L131.359 239.869Z" fill="#FFB8B8"/>
<path d="M140.547 257.498L126.135 243.148L131.679 237.58L140.523 246.385C141.254 247.114 141.835 247.979 142.232 248.931C142.629 249.884 142.834 250.905 142.836 251.937C142.839 252.969 142.638 253.991 142.245 254.945C141.852 255.899 141.275 256.767 140.547 257.498L140.547 257.498Z" fill="#2F2E41"/>
<path d="M106.983 283.663H113.455L116.533 258.703H106.982L106.983 283.663Z" fill="#FFB8B8"/>
<path d="M125.934 289.673L105.596 289.674L105.595 281.816L118.075 281.815C119.107 281.815 120.129 282.019 121.083 282.413C122.036 282.808 122.902 283.387 123.632 284.117C124.362 284.846 124.94 285.713 125.335 286.666C125.73 287.619 125.934 288.641 125.934 289.673V289.673Z" fill="#2F2E41"/>
<path d="M105.577 264.388L98.2062 210.028C97.0526 201.813 97.4106 193.456 99.2625 185.369C100.775 178.871 102.818 174.369 105.336 171.99C105.733 171.618 106.242 171.385 106.784 171.329L131.121 168.794C131.589 168.746 132.062 168.833 132.484 169.043C132.905 169.254 133.258 169.58 133.501 169.984L134.301 171.317C134.398 171.479 134.477 171.651 134.535 171.831L139.68 187.782C139.757 188.023 139.881 188.246 140.045 188.439C140.208 188.632 140.409 188.79 140.635 188.904C148.736 193.04 175.051 207.002 173.545 213.026C172.13 218.686 158.882 227.864 154.856 230.541C154.446 230.815 153.963 230.96 153.469 230.956C152.976 230.952 152.496 230.801 152.09 230.52L145.406 225.947C145.079 225.724 144.811 225.426 144.624 225.077C144.436 224.729 144.335 224.341 144.328 223.946C144.321 223.551 144.409 223.159 144.584 222.805C144.759 222.45 145.017 222.143 145.335 221.908L149.944 218.512C150.227 218.304 150.447 218.023 150.581 217.7C150.715 217.376 150.759 217.022 150.707 216.675C150.655 216.329 150.509 216.003 150.286 215.733C150.063 215.463 149.77 215.259 149.439 215.143L124.685 206.457C124.407 206.359 124.11 206.327 123.818 206.362C123.525 206.397 123.245 206.498 122.998 206.659C122.751 206.819 122.544 207.034 122.393 207.287C122.242 207.54 122.151 207.824 122.127 208.118L117.562 263.903C117.512 264.501 117.247 265.061 116.816 265.479C116.385 265.896 115.817 266.144 115.217 266.175L108.155 266.528C108.112 266.53 108.07 266.531 108.027 266.531C107.428 266.534 106.848 266.317 106.397 265.923C105.946 265.528 105.654 264.982 105.577 264.388V264.388Z" fill="#2F2E41"/>
<path d="M116.74 123.788C123.899 123.788 129.704 117.984 129.704 110.824C129.704 103.664 123.899 97.8599 116.74 97.8599C109.58 97.8599 103.775 103.664 103.775 110.824C103.775 117.984 109.58 123.788 116.74 123.788Z" fill="#FFB8B8"/>
<path d="M104.613 169.768L95.0703 134.95L95.2337 134.84C95.4387 134.702 116.007 121.12 140.089 132.065L140.526 132.315L134.871 168.455C134.748 169.279 134.341 170.035 133.72 170.592C133.099 171.148 132.303 171.471 131.47 171.504L108.201 172.399C108.154 172.4 108.108 172.401 108.061 172.401C107.277 172.403 106.514 172.146 105.89 171.67C105.267 171.194 104.818 170.526 104.613 169.768V169.768Z" fill="#CCCCCC"/>
<path d="M94.7051 157.617L86.7574 148.477C86.3746 148.038 86.1591 147.478 86.1488 146.896C86.1385 146.313 86.3342 145.746 86.7013 145.293L95.0097 135.03L101.388 136.769L104.769 148.604L98.6037 157.412C98.3886 157.721 98.1056 157.977 97.7762 158.16C97.4469 158.342 97.0801 158.447 96.7041 158.465C96.6596 158.467 96.6154 158.469 96.5712 158.469C96.2172 158.469 95.8672 158.394 95.5452 158.247C95.2231 158.1 94.9366 157.885 94.7051 157.617V157.617Z" fill="#CCCCCC"/>
<path d="M138.657 155.715C138.281 155.696 137.914 155.592 137.585 155.409C137.255 155.226 136.972 154.971 136.757 154.662L130.592 145.854L133.557 133.396L139.43 131.794L140.526 132.317L148.66 142.543C149.027 142.995 149.222 143.563 149.212 144.145C149.202 144.728 148.986 145.288 148.603 145.727L140.656 154.866C140.424 155.134 140.138 155.349 139.816 155.496C139.494 155.643 139.144 155.719 138.79 155.718C138.746 155.718 138.701 155.717 138.657 155.715Z" fill="#CCCCCC"/>
<path d="M414.871 151.63C414.876 151.761 414.831 151.89 414.744 151.989C414.653 152.095 414.524 152.161 414.384 152.172C414.245 152.183 414.107 152.138 414 152.047L412.232 150.522L382.166 124.621L297.84 51.9646C297.359 51.5528 296.746 51.327 296.113 51.3279C295.48 51.3289 294.868 51.5567 294.388 51.9699L180.83 150.627L179.806 151.514C179.766 151.549 179.722 151.577 179.674 151.598C179.589 151.636 179.496 151.65 179.405 151.641C179.273 151.627 179.151 151.565 179.062 151.466C179.016 151.415 178.981 151.354 178.958 151.289C178.936 151.223 178.926 151.154 178.931 151.085C178.935 151.015 178.953 150.948 178.984 150.886C179.014 150.823 179.057 150.768 179.109 150.722L179.251 150.596L293.696 51.1729C294.369 50.5953 295.225 50.2768 296.112 50.2749C296.998 50.273 297.856 50.5877 298.531 51.1623L382.884 123.84L414.686 151.245C414.742 151.293 414.787 151.352 414.819 151.418C414.85 151.485 414.868 151.557 414.871 151.63V151.63Z" fill="#3F3D56"/>
<path d="M350.756 167.219L349.367 163.398L344.585 150.202L334.282 121.789L322.765 90.0288L301.994 32.7431C301.587 31.6259 300.753 30.716 299.675 30.2124C298.598 29.7088 297.365 29.6527 296.246 30.0564L176.159 73.5974C175.042 74.0048 174.131 74.8386 173.628 75.9161C173.124 76.9936 173.068 78.2269 173.472 79.3455L202.92 160.558L203.422 161.946L234.332 175.955L243.02 179.892L244.429 180.531L281.214 197.205L282.639 196.688L306.766 187.942L343.16 174.746L348.064 172.967C349.182 172.56 350.093 171.727 350.597 170.649C351.102 169.572 351.159 168.338 350.756 167.219V167.219Z" fill="#E6E6E6"/>
<path d="M300.402 99.5719C299.803 97.9278 298.576 96.5883 296.991 95.8472C295.406 95.1061 293.592 95.0238 291.946 95.6184L244.43 112.852L221.486 121.171C220.67 121.465 219.921 121.918 219.281 122.502C218.64 123.087 218.122 123.792 217.754 124.577C217.386 125.362 217.177 126.211 217.138 127.077C217.098 127.943 217.23 128.809 217.526 129.624C217.821 130.439 218.275 131.187 218.86 131.827C219.445 132.467 220.15 132.985 220.935 133.352C221.721 133.719 222.571 133.927 223.437 133.966C224.303 134.004 225.168 133.871 225.983 133.575L244.43 126.887L296.448 108.028C298.092 107.429 299.432 106.202 300.173 104.617C300.914 103.032 300.996 101.218 300.402 99.5719V99.5719Z" fill="white"/>
<path d="M308.767 122.65C308.168 121.006 306.942 119.667 305.357 118.926C303.771 118.185 301.957 118.102 300.311 118.697L292.262 121.616L244.43 138.96L229.851 144.244C228.207 144.842 226.867 146.067 226.127 147.652C225.386 149.237 225.305 151.051 225.901 152.695C226.497 154.34 227.721 155.681 229.305 156.423C230.889 157.165 232.703 157.248 234.348 156.653L244.43 152.996L304.814 131.101C304.951 131.054 305.083 130.995 305.215 130.937C306.748 130.265 307.968 129.034 308.628 127.495C309.287 125.957 309.337 124.225 308.767 122.65V122.65Z" fill="white"/>
<path d="M317.224 145.968C316.626 144.324 315.401 142.985 313.817 142.243C312.232 141.502 310.419 141.42 308.774 142.014L286.198 150.201L268.722 156.54L244.431 165.345L238.308 167.567C236.893 168.082 235.696 169.065 234.916 170.353C234.136 171.641 233.818 173.157 234.017 174.65C234.077 175.095 234.183 175.531 234.333 175.954L243.021 179.892L244.431 179.38H244.441L288.521 163.397L313.271 154.424C314.916 153.826 316.256 152.599 316.997 151.014C317.739 149.428 317.82 147.613 317.224 145.968H317.224Z" fill="white"/>
<path d="M267.748 76.8863C267.149 75.2422 265.923 73.9028 264.338 73.1616C262.753 72.4205 260.938 72.3382 259.293 72.9328L232.003 82.8244C230.359 83.4219 229.02 84.6477 228.279 86.2324C227.538 87.817 227.457 89.631 228.053 91.2756C228.649 92.9201 229.874 94.2608 231.458 95.003C233.042 95.7452 234.855 95.8282 236.501 95.2337L245.136 92.1037L250.852 90.0293L263.795 85.3369C265.439 84.739 266.778 83.5135 267.519 81.9292C268.261 80.3449 268.343 78.5312 267.748 76.8863Z" fill="white"/>
<path d="M376.652 90.0273H248.916C248.163 90.0281 247.422 90.2185 246.761 90.581C246.101 90.9436 245.542 91.4665 245.137 92.1017C244.674 92.8209 244.428 93.6585 244.43 94.5139V180.53L281.215 197.204L286.398 199.553L294.584 203.263C295.064 203.48 295.584 203.592 296.11 203.592C296.636 203.592 297.156 203.48 297.635 203.263L305.822 199.553L331.443 187.94L355.322 177.115L381.138 165.418V94.5139C381.138 93.3242 380.665 92.1835 379.824 91.3423C378.982 90.501 377.842 90.0281 376.652 90.0273Z" fill="#006E53"/>
<path d="M350.258 150.202H275.305C273.601 150.203 271.963 150.863 270.735 152.045C269.507 153.227 268.784 154.838 268.718 156.541C268.709 156.627 268.706 156.713 268.707 156.8C268.71 158.549 269.406 160.225 270.643 161.462C271.879 162.699 273.556 163.395 275.305 163.397H350.258C352.008 163.397 353.686 162.702 354.923 161.465C356.16 160.228 356.856 158.549 356.856 156.8C356.856 155.05 356.16 153.371 354.923 152.134C353.686 150.897 352.008 150.202 350.258 150.202Z" fill="white"/>
<path d="M354.528 176.319C353.338 175.301 351.823 174.743 350.257 174.746H275.305C273.555 174.746 271.877 175.441 270.64 176.679C269.402 177.916 268.707 179.594 268.707 181.344C268.707 183.094 269.402 184.772 270.64 186.009C271.877 187.247 273.555 187.942 275.305 187.942H331.44L355.319 177.116C355.078 176.829 354.814 176.562 354.528 176.319Z" fill="white"/>
<path d="M286.395 199.557L294.581 203.267C295.061 203.484 295.581 203.596 296.107 203.596C296.633 203.596 297.153 203.484 297.632 203.267L305.819 199.557H286.395Z" fill="white"/>
<path d="M333.496 122.075C333.031 120.805 332.187 119.708 331.079 118.933C329.971 118.158 328.651 117.742 327.299 117.742H298.268C297 117.743 295.76 118.109 294.695 118.796C293.63 119.483 292.785 120.462 292.261 121.616C291.87 122.471 291.668 123.4 291.67 124.34C291.672 126.089 292.368 127.766 293.605 129.002C294.842 130.239 296.519 130.935 298.268 130.938H327.299C328.36 130.938 329.406 130.682 330.347 130.191C331.289 129.701 332.098 128.991 332.706 128.121C333.314 127.251 333.704 126.247 333.841 125.195C333.978 124.142 333.86 123.072 333.496 122.075Z" fill="white"/>
<path d="M328.884 187.941L303.263 199.553L297.198 202.303C296.857 202.457 296.486 202.537 296.111 202.537C295.736 202.537 295.366 202.457 295.024 202.303L288.959 199.553H286.399L294.586 203.264C295.065 203.481 295.585 203.593 296.111 203.593C296.637 203.593 297.157 203.481 297.637 203.264L305.823 199.553L331.444 187.941H328.884ZM328.884 187.941L303.263 199.553L297.198 202.303C296.857 202.457 296.486 202.537 296.111 202.537C295.736 202.537 295.366 202.457 295.024 202.303L288.959 199.553H286.399L294.586 203.264C295.065 203.481 295.585 203.593 296.111 203.593C296.637 203.593 297.157 203.481 297.637 203.264L305.823 199.553L331.444 187.941H328.884ZM328.884 187.941L303.263 199.553L297.198 202.303C296.857 202.457 296.486 202.537 296.111 202.537C295.736 202.537 295.366 202.457 295.024 202.303L288.959 199.553H286.399L294.586 203.264C295.065 203.481 295.585 203.593 296.111 203.593C296.637 203.593 297.157 203.481 297.637 203.264L305.823 199.553L331.444 187.941H328.884ZM414.874 151.631C414.679 151.438 414.465 151.264 414.235 151.114C413.716 150.778 413.121 150.578 412.505 150.533C411.889 150.488 411.271 150.599 410.709 150.856L354.532 176.318L328.884 187.941L303.263 199.553L297.198 202.303C296.857 202.457 296.486 202.537 296.111 202.537C295.736 202.537 295.366 202.457 295.024 202.303L288.959 199.553L282.641 196.687L244.441 179.38L244.431 179.374L234.017 174.65L202.922 160.557L181.513 150.856C181.295 150.755 181.067 150.679 180.832 150.629C180.315 150.499 179.776 150.489 179.254 150.597C178.419 150.768 177.669 151.221 177.13 151.881C176.59 152.54 176.295 153.366 176.293 154.218V286.773C176.294 287.752 176.684 288.691 177.376 289.384C178.069 290.077 179.008 290.466 179.988 290.467H412.234C413.214 290.466 414.153 290.077 414.846 289.384C415.539 288.691 415.928 287.752 415.929 286.773V154.218C415.931 153.25 415.552 152.321 414.874 151.631V151.631ZM414.874 286.773C414.873 287.472 414.595 288.144 414.1 288.638C413.605 289.133 412.934 289.411 412.234 289.412H179.988C179.288 289.411 178.617 289.133 178.122 288.638C177.627 288.144 177.349 287.472 177.349 286.773V154.218C177.349 153.777 177.46 153.343 177.671 152.955C177.882 152.568 178.187 152.24 178.557 152.001C178.818 151.834 179.106 151.713 179.407 151.642C179.496 151.623 179.586 151.609 179.676 151.6C179.78 151.585 179.884 151.578 179.988 151.579C180.363 151.579 180.734 151.66 181.075 151.816L203.423 161.945L234.333 175.954L243.022 179.892L244.431 180.53L281.216 197.205L286.399 199.553L294.586 203.264C295.065 203.481 295.585 203.593 296.111 203.593C296.637 203.593 297.157 203.481 297.637 203.264L305.823 199.553L331.444 187.941L355.323 177.115L411.147 151.816C411.549 151.634 411.99 151.556 412.429 151.588C412.869 151.62 413.294 151.762 413.665 152.001C413.707 152.026 413.748 152.054 413.786 152.085C413.828 152.113 413.867 152.144 413.902 152.18C414.206 152.426 414.451 152.737 414.619 153.089C414.787 153.442 414.874 153.827 414.874 154.218L414.874 286.773ZM328.884 187.941L303.263 199.553L297.198 202.303C296.857 202.457 296.486 202.537 296.111 202.537C295.736 202.537 295.366 202.457 295.024 202.303L288.959 199.553H286.399L294.586 203.264C295.065 203.481 295.585 203.593 296.111 203.593C296.637 203.593 297.157 203.481 297.637 203.264L305.823 199.553L331.444 187.941H328.884ZM328.884 187.941L303.263 199.553L297.198 202.303C296.857 202.457 296.486 202.537 296.111 202.537C295.736 202.537 295.366 202.457 295.024 202.303L288.959 199.553H286.399L294.586 203.264C295.065 203.481 295.585 203.593 296.111 203.593C296.637 203.593 297.157 203.481 297.637 203.264L305.823 199.553L331.444 187.941H328.884ZM243.022 179.892L244.431 180.53V179.38L243.022 179.892ZM328.884 187.941L303.263 199.553L297.198 202.303C296.857 202.457 296.486 202.537 296.111 202.537C295.736 202.537 295.366 202.457 295.024 202.303L288.959 199.553H286.399L294.586 203.264C295.065 203.481 295.585 203.593 296.111 203.593C296.637 203.593 297.157 203.481 297.637 203.264L305.823 199.553L331.444 187.941H328.884Z" fill="#3F3D56"/>
<path d="M145.136 290.468H85.4907C85.3507 290.468 85.2165 290.413 85.1175 290.314C85.0185 290.215 84.9629 290.08 84.9629 289.94C84.9629 289.8 85.0185 289.666 85.1175 289.567C85.2165 289.468 85.3507 289.413 85.4907 289.413H145.136C145.276 289.413 145.41 289.468 145.509 289.567C145.608 289.666 145.664 289.8 145.664 289.94C145.664 290.08 145.608 290.215 145.509 290.314C145.41 290.413 145.276 290.468 145.136 290.468Z" fill="#3F3D56"/>
<path d="M111.808 120.302C110.835 119.808 110.025 119.042 109.477 118.098C108.93 117.153 108.668 116.07 108.723 114.979C108.778 113.888 109.148 112.837 109.789 111.953C110.429 111.068 111.312 110.388 112.331 109.995C116.243 108.485 120.629 111.566 124.729 110.69C128.816 109.817 131.181 104.931 130.205 100.867C129.23 96.803 125.679 93.742 121.763 92.2802C119.206 91.3278 116.468 90.9626 113.75 91.2117C111.033 91.4608 108.406 92.3177 106.065 93.7191C103.748 95.1615 101.818 97.1481 100.443 99.5061C99.0684 101.864 98.2904 104.522 98.1768 107.249C98.1235 109.979 98.7904 112.674 100.11 115.064C101.43 117.454 103.356 119.454 105.695 120.863C106.737 121.463 107.95 121.946 109.123 121.675C110.085 121.363 110.991 120.899 111.808 120.302V120.302Z" fill="#2F2E41"/>
<path d="M107.607 93.4026C104.157 88.8271 99.5008 85.0683 94.0821 83.2047C88.6635 81.3411 82.4713 81.4907 77.3822 84.1243C72.2931 86.7579 68.4978 91.9883 68.1016 97.7048C67.4423 107.219 75.5718 115.306 76.4061 124.806C76.6705 127.818 76.1818 130.847 74.9838 133.623C73.7859 136.398 71.9164 138.832 69.5437 140.705C67.171 142.578 64.3697 143.831 61.392 144.352C58.4144 144.873 55.3539 144.645 52.4863 143.689C54.5288 145.37 56.8969 146.611 59.4418 147.333C61.9867 148.055 64.6535 148.243 67.2747 147.886C69.8915 147.493 72.3882 146.523 74.5836 145.045C76.779 143.568 78.6181 141.621 79.9676 139.345C81.7972 136.166 82.5485 132.473 82.8403 128.817C83.2987 123.036 82.678 117.22 81.0099 111.666C80.0981 108.636 78.8615 105.517 79.4397 102.406C79.7693 100.788 80.5672 99.3017 81.7341 98.133C82.9011 96.9644 84.3857 96.1643 86.0035 95.8324C88.6181 95.3425 91.2912 96.1404 93.7877 97.0588C96.2842 97.9771 98.8012 99.0398 101.461 99.1006C104.12 99.1614 107.016 97.9441 108.044 95.4907L107.607 93.4026Z" fill="#2F2E41"/>
</svg>
