<svg width="148" height="214" viewBox="0 0 148 214" fill="none" xmlns="http://www.w3.org/2000/svg">
<path d="M137.5 20C143.023 20 147.5 15.5228 147.5 10C147.5 4.47715 143.023 0 137.5 0V20ZM48.9101 45.8043L41.9611 38.6132L48.9101 45.8043ZM20.0716 209.067C22.95 213.781 29.1044 215.268 33.8179 212.39C38.5313 209.512 40.019 203.357 37.1406 198.644L20.0716 209.067ZM20 137.5C20 104.324 33.7366 74.3731 55.8591 52.9953L41.9611 38.6132C16.1003 63.6034 0 98.6802 0 137.5H20ZM55.8591 52.9953C77.0084 32.558 105.777 20 137.5 20V0C100.386 0 66.6892 14.7175 41.9611 38.6132L55.8591 52.9953ZM37.1406 198.644C26.2675 180.838 20 159.916 20 137.5H0C0 163.698 7.33626 188.212 20.0716 209.067L37.1406 198.644Z" fill="#006E53"/>
</svg>
