<svg width="635" height="396" viewBox="0 0 635 396" fill="none" xmlns="http://www.w3.org/2000/svg">
<g clip-path="url(#clip0_172_2286)">
<path d="M482.585 351.978C561.966 351.978 626.318 287.626 626.318 208.245C626.318 128.863 561.966 64.5117 482.585 64.5117C403.203 64.5117 338.852 128.863 338.852 208.245C338.852 287.626 403.203 351.978 482.585 351.978Z" fill="#F2F2F2"/>
<path d="M77.9811 109.78C108.296 109.78 132.871 85.2053 132.871 54.8902C132.871 24.5752 108.296 0 77.9811 0C47.666 0 23.0908 24.5752 23.0908 54.8902C23.0908 85.2053 47.666 109.78 77.9811 109.78Z" fill="#FF6584"/>
<path d="M176.444 294.826C255.826 294.826 320.177 230.474 320.177 151.092C320.177 71.7109 255.826 7.35938 176.444 7.35938C97.0624 7.35938 32.7109 71.7109 32.7109 151.092C32.7109 230.474 97.0624 294.826 176.444 294.826Z" fill="#F2F2F2"/>
<path d="M169.654 302.746C256.848 302.746 327.534 298.946 327.534 294.258C327.534 289.57 256.848 285.77 169.654 285.77C82.4588 285.77 11.7734 289.57 11.7734 294.258C11.7734 298.946 82.4588 302.746 169.654 302.746Z" fill="#3F3D56"/>
<path opacity="0.1" d="M137.964 300.403C203.282 300.403 256.233 297.782 256.233 294.549C256.233 291.316 203.282 288.695 137.964 288.695C72.646 288.695 19.6953 291.316 19.6953 294.549C19.6953 297.782 72.646 300.403 137.964 300.403Z" fill="black"/>
<path d="M476.926 362.729C564.121 362.729 634.806 358.548 634.806 353.392C634.806 348.235 564.121 344.055 476.926 344.055C389.731 344.055 319.046 348.235 319.046 353.392C319.046 358.548 389.731 362.729 476.926 362.729Z" fill="#3F3D56"/>
<path opacity="0.1" d="M445.236 360.156C510.554 360.156 563.505 357.273 563.505 353.717C563.505 350.16 510.554 347.277 445.236 347.277C379.918 347.277 326.968 350.16 326.968 353.717C326.968 357.273 379.918 360.156 445.236 360.156Z" fill="black"/>
<path d="M226.862 336.698C282.506 336.698 327.613 334.417 327.613 331.605C327.613 328.792 282.506 326.512 226.862 326.512C171.219 326.512 126.111 328.792 126.111 331.605C126.111 334.417 171.219 336.698 226.862 336.698Z" fill="#3F3D56"/>
<path d="M48.6106 317.086C75.4576 317.086 97.2213 315.986 97.2213 314.629C97.2213 313.272 75.4576 312.172 48.6106 312.172C21.7637 312.172 0 313.272 0 314.629C0 315.986 21.7637 317.086 48.6106 317.086Z" fill="#3F3D56"/>
<path d="M539.241 395.596C589.207 395.596 629.713 393.548 629.713 391.023C629.713 388.497 589.207 386.449 539.241 386.449C489.274 386.449 448.769 388.497 448.769 391.023C448.769 393.548 489.274 395.596 539.241 395.596Z" fill="#3F3D56"/>
<path d="M529.553 245.027H348.472V352.544H529.553V245.027Z" fill="#3F3D56"/>
<path d="M406.757 340.658C429.259 340.658 447.5 322.417 447.5 299.915C447.5 277.413 429.259 259.172 406.757 259.172C384.255 259.172 366.014 277.413 366.014 299.915C366.014 322.417 384.255 340.658 406.757 340.658Z" fill="#006E53"/>
<path d="M473.53 262.004H459.949V275.585H473.53V262.004Z" fill="#006E53"/>
<path opacity="0.5" d="M490.507 262.004H476.926V275.585H490.507V262.004Z" fill="#006E53"/>
<path opacity="0.2" d="M507.483 262.004H493.902V275.585H507.483V262.004Z" fill="#006E53"/>
<path d="M473.53 278.98H459.949V292.562H473.53V278.98Z" fill="#2F2E41"/>
<path opacity="0.5" d="M490.507 278.98H476.926V292.562H490.507V278.98Z" fill="#2F2E41"/>
<path opacity="0.2" d="M507.483 278.98H493.902V292.562H507.483V278.98Z" fill="#2F2E41"/>
<path d="M473.53 295.957H459.949V309.538H473.53V295.957Z" fill="#FF6584"/>
<path opacity="0.5" d="M490.507 295.957H476.926V309.538H490.507V295.957Z" fill="#FF6584"/>
<path opacity="0.2" d="M507.483 295.957H493.902V309.538H507.483V295.957Z" fill="#FF6584"/>
<path opacity="0.5" d="M406.757 259.172V340.658C429.259 340.658 448.632 322.417 448.632 299.915C448.632 277.413 429.259 259.172 406.757 259.172Z" fill="#3F3D56"/>
<path d="M568.315 252.664C568.315 252.664 592.082 263.416 583.594 275.865C575.106 288.314 549.641 312.081 549.075 317.174C548.509 322.267 545.114 326.794 545.114 326.794C545.114 326.794 533.796 314.911 534.928 313.779C536.06 312.647 547.378 301.895 547.943 299.066C548.509 296.237 565.486 274.167 565.486 274.167L550.207 260.586L568.315 252.664Z" fill="#FFB9B9"/>
<path opacity="0.1" d="M568.315 252.664C568.315 252.664 592.082 263.416 583.594 275.865C575.106 288.314 549.641 312.081 549.075 317.174C548.509 322.267 545.114 326.794 545.114 326.794C545.114 326.794 533.796 314.911 534.928 313.779C536.06 312.647 547.378 301.895 547.943 299.066C548.509 296.237 565.486 274.167 565.486 274.167L550.207 260.586L568.315 252.664Z" fill="black"/>
<path d="M538.323 276.433C538.323 276.433 554.734 283.224 553.602 293.976C552.47 304.727 573.408 335.285 573.408 335.285C573.408 335.285 575.671 342.641 575.105 344.905C574.539 347.168 589.818 346.602 589.818 346.602V341.51C589.818 341.51 577.935 321.138 576.803 315.479C575.671 309.82 568.881 287.751 568.881 287.751C568.881 287.751 566.617 267.945 555.3 267.945C552.005 267.945 548.756 268.712 545.81 270.186C542.863 271.659 540.3 273.798 538.323 276.433Z" fill="#FFB9B9"/>
<path d="M539.172 225.219C539.172 225.219 573.125 252.947 571.993 255.21C570.861 257.474 554.451 265.962 551.622 266.528C548.792 267.094 528.772 225.219 528.772 225.219H539.172Z" fill="#2F2E41"/>
<path opacity="0.1" d="M539.172 225.219C539.172 225.219 573.125 252.947 571.993 255.21C570.861 257.474 554.451 265.962 551.622 266.528C548.792 267.094 528.772 225.219 528.772 225.219H539.172Z" fill="black"/>
<path d="M502.39 230.881C502.39 230.881 498.995 246.16 508.049 252.384C517.103 258.609 532.382 282.942 534.079 282.942C535.777 282.942 560.11 269.927 558.978 267.663C557.846 265.4 545.397 245.594 545.397 245.594L541.436 224.656C541.436 224.656 506.917 223.525 502.39 230.881Z" fill="#2F2E41"/>
<path d="M539.172 181.082L544.265 213.903L553.319 237.104C553.319 237.104 566.9 251.251 558.978 252.383C551.055 253.514 546.528 237.104 546.528 237.104L539.172 223.523V181.082Z" fill="#FFB9B9"/>
<path opacity="0.1" d="M539.172 181.082L544.265 213.903L553.319 237.104C553.319 237.104 566.9 251.251 558.978 252.383C551.055 253.514 546.528 237.104 546.528 237.104L539.172 223.523V181.082Z" fill="black"/>
<path d="M520.215 144.582C520.215 144.582 520.215 156.465 516.254 157.597C512.293 158.729 532.099 174.008 532.099 174.008C532.099 174.008 529.835 154.202 537.758 149.109L520.215 144.582Z" fill="#FFB9B9"/>
<path opacity="0.1" d="M520.215 144.582C520.215 144.582 520.215 156.465 516.254 157.597C512.293 158.729 532.099 174.008 532.099 174.008C532.099 174.008 529.835 154.202 537.758 149.109L520.215 144.582Z" fill="black"/>
<path d="M529.269 154.202C536.457 154.202 542.284 148.375 542.284 141.187C542.284 133.999 536.457 128.172 529.269 128.172C522.081 128.172 516.254 133.999 516.254 141.187C516.254 148.375 522.081 154.202 529.269 154.202Z" fill="#FFB9B9"/>
<path d="M529.836 168.35C529.836 168.35 517.952 153.638 516.255 154.203C514.557 154.769 502.108 167.219 500.976 171.18C499.844 175.141 497.581 203.435 499.278 209.094C500.976 214.752 500.976 229.465 500.41 230.597C499.844 231.729 496.449 234.558 499.844 234.558C503.24 234.558 515.123 226.07 523.045 227.768C530.968 229.465 541.719 227.202 542.285 226.07C542.851 224.938 541.719 195.513 542.285 193.249C542.851 190.986 541.153 179.668 540.588 177.404C540.022 175.141 540.022 166.087 534.363 163.823L531.95 163.585L531.815 169.182L529.836 168.35Z" fill="#006E53"/>
<path d="M504.937 197.777C504.937 197.777 506.068 215.32 514.556 222.676C523.045 230.032 541.153 242.482 542.285 244.745C543.416 247.009 554.168 258.892 556.431 253.799C557.088 252.212 557.247 250.462 556.885 248.782C556.557 247.112 555.89 245.527 554.926 244.125C553.962 242.722 552.722 241.531 551.281 240.626L546.246 237.389L521.347 211.358L520.215 197.777H504.937Z" fill="#FFB9B9"/>
<path d="M537.474 311.8C537.474 311.8 530.967 310.386 528.703 314.347C526.44 318.308 530.967 329.06 530.967 329.06C530.967 329.06 543.982 356.222 546.245 352.826C548.509 349.431 544.548 336.982 544.548 336.982C544.548 336.982 550.207 324.533 547.943 323.967C545.679 323.401 537.474 318.591 537.474 311.8Z" fill="#2F2E41"/>
<path d="M577.37 344.34C577.37 344.34 573.975 342.642 573.409 344.34C572.843 346.037 569.448 354.525 573.409 355.657C577.37 356.789 616.416 357.921 615.284 355.657C614.152 353.394 607.927 350.564 603.966 349.432C600.005 348.301 589.819 339.812 589.819 339.812C589.819 339.812 584.16 347.169 577.37 344.34Z" fill="#2F2E41"/>
<path d="M542.38 130.856C542.136 130.035 541.598 129.333 540.869 128.883C540.906 128.004 540.798 127.124 540.549 126.279C539.718 123.821 537.748 123.962 535.889 122.875C535.083 122.403 535.132 121.987 534.713 121.212C534.163 120.197 533.339 119.356 532.335 118.786C531.142 118.026 529.883 117.243 528.473 117.147C525.508 116.945 523.235 119.734 520.401 120.628C519.153 121.023 517.81 121.039 516.555 121.412C515.299 121.785 514.047 122.675 513.86 123.972C513.773 124.57 513.926 125.184 513.838 125.782C513.664 126.971 512.621 127.804 511.922 128.782C510.378 130.945 510.554 134.001 511.789 136.354C512.05 136.841 512.348 137.307 512.68 137.748C512.783 138.86 513.103 139.942 513.62 140.931C514.855 143.285 516.981 145.043 519.201 146.504C519.019 145.724 518.909 144.928 518.871 144.128C518.84 143.861 518.875 143.591 518.973 143.34C519.22 142.824 519.873 142.686 520.371 142.403C521.403 141.817 521.807 140.519 521.837 139.333C521.867 138.147 521.616 136.958 521.74 135.778C521.745 135.507 521.807 135.24 521.921 134.994C522.036 134.747 522.2 134.528 522.405 134.35C522.786 134.132 523.221 134.029 523.659 134.051C525.772 133.964 527.981 133.926 529.846 132.926C530.447 132.527 531.093 132.2 531.771 131.952C533.356 131.539 534.975 132.649 535.889 134.009C536.802 135.368 537.257 136.985 538.1 138.39C538.942 139.794 540.398 141.046 542.027 140.88C542.119 140.88 542.21 140.861 542.293 140.823C542.377 140.786 542.452 140.732 542.514 140.663C542.584 140.537 542.615 140.393 542.603 140.249L542.694 134.022C542.77 132.956 542.664 131.886 542.38 130.856Z" fill="#2F2E41"/>
<path d="M510.03 168.914C510.03 168.914 522.479 174.573 521.914 186.456C521.348 198.34 525.309 199.472 515.689 200.603C506.069 201.735 503.805 200.603 503.24 201.735C502.674 202.867 499.278 175.705 501.542 172.875C503.805 170.046 510.03 168.914 510.03 168.914Z" fill="#006E53"/>
<path d="M259.629 72.9975C269.629 72.9975 277.737 64.8902 277.737 54.8894C277.737 44.8885 269.629 36.7812 259.629 36.7812C249.628 36.7812 241.521 44.8885 241.521 54.8894C241.521 64.8902 249.628 72.9975 259.629 72.9975Z" fill="#2F2E41"/>
<path d="M271.795 253.23L261.61 280.959C261.61 280.959 253.121 287.749 258.214 290.013C263.307 292.276 273.493 287.749 273.493 287.749L281.415 267.377L280.283 253.23H271.795Z" fill="#2F2E41"/>
<path opacity="0.1" d="M271.795 253.23L261.61 280.959C261.61 280.959 253.121 287.749 258.214 290.013C263.307 292.276 273.493 287.749 273.493 287.749L281.415 267.377L280.283 253.23H271.795Z" fill="black"/>
<path d="M272.644 88.8438L281.132 89.9755C281.132 89.9755 285.093 121.099 283.395 123.362C281.698 125.626 273.209 134.68 269.814 132.416C266.419 130.153 272.644 88.8438 272.644 88.8438Z" fill="#575A89"/>
<path d="M191.44 145.715C191.44 145.715 179.557 150.808 177.293 151.374C175.03 151.94 171.635 157.598 175.596 158.73C179.557 159.862 194.836 148.544 194.836 148.544L191.44 145.715Z" fill="#A0616A"/>
<path d="M275.756 264.55L281.981 287.751C281.981 287.751 282.546 296.239 285.376 296.805C288.205 297.371 296.693 293.976 296.693 292.844C296.693 291.712 293.298 282.658 293.298 282.658C293.298 282.658 293.298 275.867 289.903 273.038C286.508 270.209 283.449 260.73 283.449 260.73L275.756 264.55Z" fill="#2F2E41"/>
<path d="M283.678 211.357C284.822 214.022 284.68 233.359 283.43 246.227C282.824 252.48 281.958 257.205 280.849 257.759L272.74 255.733L269.532 254.93L269.447 247.89L268.966 209.094L259.346 168.916V158.73L283.678 160.994L287.538 167.055L287.64 167.219C287.64 167.219 281.981 207.396 283.678 211.357Z" fill="#2F2E41"/>
<path opacity="0.1" d="M278.586 223.807C279.797 225.623 281.817 236.499 283.43 246.227C282.824 252.48 281.958 257.205 280.849 257.759L272.74 255.733C272.616 255.473 272.491 255.201 272.361 254.93C271.325 252.757 270.352 250.358 269.447 247.89L268.966 209.094L259.346 168.916V158.73L283.678 160.994L287.538 167.055L265.004 165.521L270.097 187.59L276.322 210.791C276.322 210.791 276.322 220.411 278.586 223.807Z" fill="black"/>
<path d="M238.408 136.095C238.408 136.095 230.485 153.637 241.803 177.97C248.806 193.112 255.039 208.599 260.477 224.372C260.477 224.372 264.438 243.046 270.097 254.929C275.756 266.813 274.624 267.379 274.624 267.379L283.678 262.286C283.678 262.286 278.585 227.201 276.322 223.806C274.058 220.411 274.058 210.791 274.058 210.791L267.833 187.59L262.74 165.52L287.639 167.218C287.639 167.218 287.639 134.963 276.322 128.738L238.408 136.095Z" fill="#2F2E41"/>
<path d="M247.745 63.3789C247.745 63.3789 247.745 72.433 244.916 72.9988C242.087 73.5647 236.428 73.5647 234.73 76.3941C233.032 79.2235 247.745 116.571 247.745 116.571L263.024 106.952L268.117 81.487C268.117 81.487 260.761 76.96 260.761 74.6965V64.5107L247.745 63.3789Z" fill="#A0616A"/>
<path opacity="0.1" d="M247.745 63.3789C247.745 63.3789 247.745 72.433 244.916 72.9988C242.087 73.5647 236.428 73.5647 234.73 76.3941C233.032 79.2235 247.745 116.571 247.745 116.571L263.024 106.952L268.117 81.487C268.117 81.487 260.761 76.96 260.761 74.6965V64.5107L247.745 63.3789Z" fill="black"/>
<path d="M256.516 73.2833C264.016 73.2833 270.097 67.2028 270.097 59.7022C270.097 52.2016 264.016 46.1211 256.516 46.1211C249.015 46.1211 242.935 52.2016 242.935 59.7022C242.935 67.2028 249.015 73.2833 256.516 73.2833Z" fill="#A0616A"/>
<path d="M249.442 105.255C249.442 105.255 244.349 73 243.218 73C242.086 73 226.241 76.3953 225.11 76.9611C223.978 77.527 220.017 82.6199 220.017 82.6199L227.939 105.255C227.939 105.255 231.334 121.1 233.598 123.929C235.861 126.758 240.388 134.681 238.125 135.813C235.861 136.944 233.598 138.642 235.861 138.642C238.125 138.642 256.799 135.247 257.93 136.944C259.062 138.642 277.736 130.72 277.736 130.154C277.736 129.588 275.473 102.992 275.473 102.992L281.131 89.9764L264.155 78.0929L249.442 105.255Z" fill="#575A89"/>
<path d="M225.675 79.7891L220.016 82.6185C220.016 82.6185 204.172 118.835 203.04 119.401C201.908 119.966 196.25 130.718 195.684 132.982C195.118 135.245 193.986 142.602 192.288 143.733C191.378 144.352 190.433 144.919 189.459 145.431C189.459 145.431 192.854 151.09 194.552 151.09C196.25 151.09 201.908 143.167 201.908 143.167C201.908 143.167 214.358 151.09 217.753 144.865C221.148 138.64 229.636 99.0289 229.636 99.0289L225.675 79.7891Z" fill="#575A89"/>
<path d="M270.098 97.0482C270.098 97.0482 262.175 77.8083 257.648 80.0719C253.121 82.3354 261.044 95.9165 266.136 98.18L270.098 97.0482Z" fill="#A0616A"/>
<path opacity="0.1" d="M262.175 97.6151L270.115 95.8203L271.795 104.406C271.795 104.406 279.151 117.421 277.454 123.08C275.756 128.738 265.57 137.793 262.175 132.7C258.78 127.607 255.95 119.684 258.214 115.157C260.477 110.63 263.873 99.8787 262.175 97.6151Z" fill="black"/>
<path d="M263.872 96.4823L271.812 94.6875L273.492 103.273C273.492 103.273 280.849 116.288 279.151 121.947C277.453 127.606 267.268 136.66 263.872 131.567C260.477 126.474 257.648 118.552 259.911 114.025C262.175 109.498 265.57 98.7458 263.872 96.4823Z" fill="#575A89"/>
<path d="M272.493 56.9735C274.018 53.7188 269.748 48.501 262.956 45.3191C256.163 42.1372 249.421 42.1961 247.896 45.4507C246.372 48.7054 250.642 53.9232 257.434 57.1051C264.226 60.287 270.969 60.2281 272.493 56.9735Z" fill="#2F2E41"/>
<path d="M270.38 47.536C274.756 47.536 278.303 43.9891 278.303 39.6137C278.303 35.2383 274.756 31.6914 270.38 31.6914C266.005 31.6914 262.458 35.2383 262.458 39.6137C262.458 43.9891 266.005 47.536 270.38 47.536Z" fill="#2F2E41"/>
<path d="M263.023 36.7817C263.024 34.8277 263.746 32.9428 265.052 31.4891C266.357 30.0354 268.154 29.1155 270.097 28.9062C268.991 28.7854 267.871 28.899 266.812 29.2397C265.752 29.5804 264.776 30.1405 263.948 30.8835C263.119 31.6265 262.456 32.5358 262.003 33.552C261.549 34.5683 261.314 35.6687 261.314 36.7817C261.314 37.8946 261.549 38.9951 262.003 40.0113C262.456 41.0276 263.119 41.9368 263.948 42.6799C264.776 43.4229 265.752 43.983 266.812 44.3237C267.871 44.6643 268.991 44.778 270.097 44.6571C268.154 44.4478 266.357 43.5279 265.052 42.0743C263.746 40.6206 263.024 38.7356 263.023 36.7817Z" fill="#2F2E41"/>
<path d="M234.729 156.75H36.6719V294.258H234.729V156.75Z" fill="#3F3D56"/>
<path d="M78.547 170.332H52.5166V196.362H78.547V170.332Z" fill="#F2F2F2"/>
<path d="M78.547 212.77H52.5166V238.8H78.547V212.77Z" fill="#006E53"/>
<path d="M78.547 255.211H52.5166V281.241H78.547V255.211Z" fill="#F2F2F2"/>
<path d="M214.923 178.535H90.9961V180.799H214.923V178.535Z" fill="#F2F2F2"/>
<path d="M129.476 185.891H90.9961V188.154H129.476V185.891Z" fill="#F2F2F2"/>
<path d="M214.923 220.977H90.9961V223.24H214.923V220.977Z" fill="#F2F2F2"/>
<path d="M129.476 228.332H90.9961V230.596H129.476V228.332Z" fill="#F2F2F2"/>
<path d="M214.923 263.418H90.9961V265.681H214.923V263.418Z" fill="#F2F2F2"/>
<path d="M129.476 270.773H90.9961V273.037H129.476V270.773Z" fill="#F2F2F2"/>
<path d="M560.11 378.535C560.11 390.055 553.263 394.076 544.815 394.076C544.62 394.076 544.424 394.074 544.23 394.069C543.838 394.061 543.45 394.043 543.067 394.016C535.443 393.477 529.521 389.248 529.521 378.535C529.521 367.451 543.685 353.463 544.752 352.425L544.753 352.424C544.794 352.383 544.815 352.363 544.815 352.363C544.815 352.363 560.11 367.017 560.11 378.535Z" fill="#006E53"/>
<path d="M544.258 392.314L549.852 384.498L544.244 393.173L544.23 394.069C543.838 394.061 543.45 394.043 543.067 394.016L543.669 382.492L543.665 382.402L543.675 382.387L543.733 381.297L538.11 372.602L543.75 380.481L543.764 380.712L544.218 372.005L539.405 363.02L544.278 370.478L544.752 352.425L544.753 352.363V352.424L544.674 366.659L549.466 361.015L544.655 367.885L544.528 375.68L549.003 368.199L544.51 376.828L544.439 381.162L550.933 370.748L544.414 382.674L544.258 392.314Z" fill="#3F3D56"/>
<path d="M63.8345 299.879C63.8345 311.398 56.9874 315.42 48.5398 315.42C48.3441 315.42 48.1485 315.417 47.9542 315.413C47.5629 315.405 47.1743 315.386 46.7914 315.36C39.1673 314.82 33.2451 310.592 33.2451 299.879C33.2451 288.795 47.4094 274.806 48.4765 273.769L48.4779 273.768C48.5187 273.727 48.5398 273.707 48.5398 273.707C48.5398 273.707 63.8345 288.361 63.8345 299.879Z" fill="#006E53"/>
<path d="M47.9824 313.658L53.5766 305.842L47.9683 314.516L47.9542 315.413C47.5629 315.405 47.1744 315.386 46.7915 315.36L47.394 303.836L47.3897 303.746L47.3996 303.731L47.4573 302.641L41.835 293.946L47.4742 301.824L47.4883 302.055L47.943 293.349L43.13 284.363L48.0021 291.821L48.4765 273.769L48.4779 273.707V273.768L48.3991 288.002L53.1909 282.359L48.3794 289.228L48.2527 297.024L52.7278 289.542L48.2344 298.172L48.164 302.506L54.6577 292.092L48.1386 304.018L47.9824 313.658Z" fill="#3F3D56"/>
</g>
<defs>
<clipPath id="clip0_172_2286">
<rect width="634.806" height="395.595" fill="white"/>
</clipPath>
</defs>
</svg>
