<svg width="20" height="20" viewBox="0 0 20 20" fill="none" xmlns="http://www.w3.org/2000/svg">
<path d="M13.4445 17.8648C12.3155 18.3312 11.1471 18.5488 10 18.5488C5.03036 18.5488 1 14.5185 1 9.54883C1 4.57919 5.03036 0.548828 10 0.548828C14.9696 0.548828 19 4.57919 19 9.54883V11.0477C19 12.6006 17.74 13.859 16.1887 13.859C14.6375 13.859 13.3775 12.599 13.3775 11.0477V9.54883C13.3775 7.68337 11.8671 6.17465 10.0033 6.17465V6.17465C8.13782 6.17465 6.62909 7.68501 6.62909 9.54883C6.62909 11.4126 8.13945 12.923 10.0033 12.923" stroke="#F9F9F9" stroke-linecap="round" stroke-linejoin="round"/>
</svg>
