<svg width="620" height="466" viewBox="0 0 620 466" fill="none" xmlns="http://www.w3.org/2000/svg">
<g clip-path="url(#clip0_172_2421)">
<path d="M32.9615 464.712L32.2767 463.446C41.4591 458.48 52.887 452.3 58.856 442.158C64.74 432.16 64.872 418.583 59.2005 406.726C54.3739 396.635 45.5078 387.594 33.5608 380.581C31.2042 379.198 28.7305 377.887 26.3382 376.618C20.5555 373.554 14.576 370.385 9.6456 365.889C2.85488 359.696 -2.28315 349.304 1.54641 340.047C2.80586 337.093 4.86848 334.55 7.50008 332.709C10.1317 330.868 13.2268 329.802 16.4341 329.631L16.5153 331.069C13.5771 331.225 10.7414 332.201 8.32998 333.887C5.9186 335.573 4.0281 337.901 2.87301 340.607C-0.685646 349.209 4.19681 358.971 10.6159 364.825C15.4115 369.198 21.3091 372.323 27.0125 375.346C29.4184 376.621 31.9063 377.94 34.2899 379.339C46.4855 386.498 55.5487 395.753 60.4995 406.104C66.375 418.388 66.2208 432.483 60.097 442.888C53.9246 453.375 42.3012 459.662 32.9615 464.712Z" fill="#F1F1F1"/>
<path d="M25.5598 337.22C32.5186 337.22 38.1597 334.48 38.1597 331.1C38.1597 327.72 32.5186 324.98 25.5598 324.98C18.6011 324.98 12.96 327.72 12.96 331.1C12.96 334.48 18.6011 337.22 25.5598 337.22Z" fill="#F1F1F1"/>
<path d="M35.6399 377.541C42.5986 377.541 48.2398 374.801 48.2398 371.421C48.2398 368.041 42.5986 365.301 35.6399 365.301C28.6812 365.301 23.04 368.041 23.04 371.421C23.04 374.801 28.6812 377.541 35.6399 377.541Z" fill="#F1F1F1"/>
<path d="M12.5999 384.019C19.5586 384.019 25.1998 381.279 25.1998 377.899C25.1998 374.519 19.5586 371.779 12.5999 371.779C5.64116 371.779 0 374.519 0 377.899C0 381.279 5.64116 384.019 12.5999 384.019Z" fill="#F1F1F1"/>
<path d="M48.5999 417.861C55.5586 417.861 61.1998 415.121 61.1998 411.741C61.1998 408.361 55.5586 405.621 48.5999 405.621C41.6412 405.621 36 408.361 36 411.741C36 415.121 41.6412 417.861 48.5999 417.861Z" fill="#F1F1F1"/>
<path d="M73.8001 417.861C80.7588 417.861 86.3999 415.121 86.3999 411.741C86.3999 408.361 80.7588 405.621 73.8001 405.621C66.8414 405.621 61.2002 408.361 61.2002 411.741C61.2002 415.121 66.8414 417.861 73.8001 417.861Z" fill="#F1F1F1"/>
<path d="M158.737 315.285H188.476C190.505 303.553 190.505 291.56 188.476 279.828H158.737C162.088 291.41 162.088 303.704 158.737 315.285Z" fill="#006E53"/>
<path d="M66.9653 456.045H75.1315L79.0166 424.547L66.9639 424.548L66.9653 456.045Z" fill="#FFB7B7"/>
<path d="M64.8818 453.382L80.9639 453.381H80.9645C83.6826 453.381 86.2893 454.461 88.2113 456.383C90.1333 458.305 91.2131 460.911 91.2133 463.629V463.962L64.8823 463.963L64.8818 453.382Z" fill="#2F2E41"/>
<path d="M165.075 455.778L173.005 453.827L169.251 422.312L157.548 425.193L165.075 455.778Z" fill="#FFB7B7"/>
<path d="M162.416 453.687L178.032 449.844L178.033 449.844C180.672 449.194 183.461 449.62 185.787 451.027C188.112 452.434 189.784 454.707 190.433 457.347L190.513 457.67L164.945 463.962L162.416 453.687Z" fill="#2F2E41"/>
<path d="M61.9434 448.537L63.6397 439.857C63.6397 439.857 66.7623 406.345 89.1723 372.9L96.4667 336.568C96.4667 336.568 94.3004 309.067 115.209 294.181L121.655 289.74L144.256 291.036L149.476 319.613L159.993 387.231C159.993 387.231 162.707 387.485 163.725 395.304C165.794 398.588 167.018 402.332 167.288 406.204C167.288 406.204 172.67 421.053 174.112 431.985L173.942 442.683L162.577 448.738L138.888 381.745L121.945 344.291C121.945 344.291 113.79 370.679 101.299 393.286C101.299 393.286 84.1908 430.316 80.773 437.839L77.041 450.151L61.9434 448.537Z" fill="#2F2E41"/>
<path d="M137.511 232.238C146.432 232.238 153.665 225.005 153.665 216.084C153.665 207.162 146.432 199.93 137.511 199.93C128.589 199.93 121.356 207.162 121.356 216.084C121.356 225.005 128.589 232.238 137.511 232.238Z" fill="#FFB7B7"/>
<path d="M137.511 232.238C146.432 232.238 153.665 225.005 153.665 216.084C153.665 207.162 146.432 199.93 137.511 199.93C128.589 199.93 121.356 207.162 121.356 216.084C121.356 225.005 128.589 232.238 137.511 232.238Z" fill="#FFB8B8"/>
<path d="M115.257 294.353L120.59 281.032C116.822 268.829 117.053 255.74 121.249 243.677L122.269 242.837C131.157 235.517 138.958 236.85 146.198 245.804C147.363 247.259 148.727 248.545 150.248 249.623C153.441 251.863 158.507 264.033 151.819 271.167L146.468 302.379C147.031 319.611 134.527 313.122 115.257 294.353Z" fill="#3F3D56"/>
<path d="M162.609 312.752C162.501 311.894 162.206 311.07 161.745 310.339C161.284 309.607 160.668 308.986 159.941 308.518C159.214 308.05 158.393 307.747 157.536 307.631C156.679 307.515 155.808 307.588 154.982 307.845L146.324 297.467L138.734 301.19L151.166 315.674C151.69 317.032 152.694 318.151 153.988 318.818C155.282 319.486 156.775 319.655 158.186 319.295C159.596 318.935 160.825 318.07 161.641 316.864C162.456 315.658 162.8 314.195 162.609 312.752V312.752Z" fill="#FFB7B7"/>
<path d="M144.272 312.616L122.595 280.125L128.863 256.566C129.896 254.44 131.732 252.811 133.966 252.038C136.199 251.264 138.649 251.409 140.776 252.441C142.902 253.473 144.532 255.307 145.308 257.54C146.083 259.774 145.939 262.223 144.909 264.351L137.404 279.854L155.008 305.1L144.272 312.616Z" fill="#CCCCCC"/>
<path d="M108.715 212.545C117.274 212.545 124.213 205.606 124.213 197.047C124.213 188.487 117.274 181.549 108.715 181.549C100.155 181.549 93.2168 188.487 93.2168 197.047C93.2168 205.606 100.155 212.545 108.715 212.545Z" fill="#2F2E41"/>
<path d="M95.3468 209.88C97.3528 211.33 99.6767 212.278 102.124 212.646C104.572 213.013 107.072 212.789 109.415 211.992C111.758 211.196 113.877 209.849 115.593 208.066C117.309 206.283 118.573 204.114 119.28 201.742C119.012 203.868 118.307 205.915 117.209 207.755C116.11 209.594 114.643 211.186 112.898 212.429C111.153 213.673 109.17 214.541 107.073 214.98C104.975 215.418 102.81 215.417 100.714 214.976C98.6169 214.535 96.6344 213.664 94.8913 212.419C93.1481 211.173 91.6821 209.58 90.5859 207.739C89.4896 205.898 88.7869 203.85 88.5221 201.724C88.2574 199.598 88.4362 197.44 89.0475 195.387C88.7003 198.145 89.102 200.947 90.2104 203.497C91.3187 206.047 93.0929 208.252 95.3468 209.88Z" fill="#2F2E41"/>
<path d="M156.509 209.895C153.803 205.051 152.768 203.028 149.28 200.083C146.195 197.478 142.4 196.713 139.34 199.181C135.719 197.617 131.69 197.262 127.852 198.17C124.014 199.077 120.571 201.199 118.034 204.219C115.498 207.239 114.003 210.997 113.773 214.934C113.542 218.872 114.587 222.779 116.754 226.074C118.92 229.37 122.092 231.879 125.798 233.229C129.504 234.578 133.547 234.697 137.325 233.566C141.104 232.435 144.417 230.115 146.772 226.952C149.127 223.788 150.399 219.949 150.399 216.005C150.396 215.313 150.354 214.621 150.274 213.933C152.934 213.559 153.848 210.269 156.509 209.895Z" fill="#2F2E41"/>
<path d="M234.238 465.116H14.6399C14.449 465.116 14.2658 465.04 14.1308 464.905C13.9958 464.77 13.9199 464.587 13.9199 464.396C13.9199 464.205 13.9958 464.022 14.1308 463.887C14.2658 463.752 14.449 463.676 14.6399 463.676H234.238C234.429 463.676 234.612 463.752 234.747 463.887C234.882 464.022 234.958 464.205 234.958 464.396C234.958 464.587 234.882 464.77 234.747 464.905C234.612 465.04 234.429 465.116 234.238 465.116Z" fill="#CBCBCB"/>
<path d="M569.11 58.0644H568.439V39.6809C568.439 38.2837 568.164 36.9001 567.629 35.6092C567.094 34.3183 566.31 33.1454 565.322 32.1574C564.334 31.1694 563.161 30.3856 561.871 29.8509C560.58 29.3162 559.196 29.041 557.799 29.041H518.851C517.454 29.041 516.07 29.3162 514.779 29.8509C513.488 30.3856 512.315 31.1693 511.327 32.1573C510.339 33.1453 509.556 34.3183 509.021 35.6092C508.486 36.9001 508.211 38.2836 508.211 39.6809V140.534C508.211 143.356 509.332 146.063 511.327 148.058C513.323 150.053 516.029 151.174 518.851 151.174H557.799C560.621 151.174 563.327 150.053 565.322 148.058C567.318 146.063 568.439 143.356 568.439 140.534V71.1501H569.11V58.0644Z" fill="#E5E5E5"/>
<path d="M557.785 31.8086H552.701C552.935 32.3818 553.024 33.0037 552.961 33.6195C552.898 34.2353 552.684 34.8262 552.339 35.34C551.994 35.8538 551.528 36.2748 550.981 36.5659C550.435 36.857 549.825 37.0093 549.206 37.0093H526.893C526.274 37.0093 525.665 36.857 525.119 36.5659C524.572 36.2748 524.106 35.8538 523.761 35.34C523.415 34.8262 523.202 34.2353 523.138 33.6195C523.075 33.0037 523.165 32.3818 523.398 31.8086H518.65C516.543 31.8086 514.521 32.6457 513.031 34.1358C511.541 35.626 510.704 37.647 510.704 39.7543V140.46C510.704 142.567 511.541 144.588 513.031 146.078C514.521 147.568 516.542 148.406 518.65 148.406H557.785C558.829 148.406 559.862 148.2 560.826 147.801C561.79 147.401 562.666 146.816 563.404 146.078C564.142 145.341 564.727 144.465 565.126 143.501C565.526 142.537 565.731 141.503 565.731 140.46V39.7544C565.731 38.7109 565.526 37.6777 565.126 36.7137C564.727 35.7496 564.142 34.8737 563.404 34.1359C562.666 33.398 561.79 32.8128 560.826 32.4134C559.862 32.0141 558.829 31.8086 557.785 31.8086Z" fill="white"/>
<path d="M558.996 68.7324H534.731V70.6549H558.996V68.7324Z" fill="#E5E5E5"/>
<path d="M558.996 74.8184H534.731V76.7408H558.996V74.8184Z" fill="#E5E5E5"/>
<path d="M558.996 80.9082H534.731V82.8307H558.996V80.9082Z" fill="#E5E5E5"/>
<path d="M530.047 69.9219H518.325V81.6439H530.047V69.9219Z" fill="#E5E5E5"/>
<path d="M526.341 111.481C529.159 111.481 531.442 109.198 531.442 106.38C531.442 103.563 529.159 101.279 526.341 101.279C523.524 101.279 521.24 103.563 521.24 106.38C521.24 109.198 523.524 111.481 526.341 111.481Z" fill="#006E53"/>
<path d="M539.944 110.549C542.246 110.549 544.112 108.683 544.112 106.381C544.112 104.079 542.246 102.213 539.944 102.213C537.642 102.213 535.775 104.079 535.775 106.381C535.775 108.683 537.642 110.549 539.944 110.549Z" fill="#006E53"/>
<path d="M553.546 108.918C554.946 108.918 556.082 107.782 556.082 106.382C556.082 104.981 554.946 103.846 553.546 103.846C552.145 103.846 551.01 104.981 551.01 106.382C551.01 107.782 552.145 108.918 553.546 108.918Z" fill="#006E53"/>
<path d="M391.338 145.649H301.929C299.809 145.647 297.778 144.804 296.279 143.305C294.781 141.807 293.938 139.775 293.936 137.656V7.99308C293.938 5.87392 294.781 3.84223 296.279 2.34376C297.778 0.845281 299.809 0.00239159 301.929 0H391.338C393.457 0.00239159 395.488 0.845281 396.987 2.34376C398.485 3.84223 399.328 5.87392 399.331 7.99308V137.656C399.328 139.775 398.485 141.807 396.987 143.305C395.488 144.804 393.457 145.647 391.338 145.649Z" fill="#E5E5E5"/>
<path d="M391.494 140.551H301.771C301.117 140.551 300.491 140.291 300.029 139.829C299.567 139.367 299.307 138.741 299.307 138.087V7.56553C299.307 6.91228 299.567 6.28599 300.029 5.82407C300.491 5.36215 301.117 5.10231 301.771 5.10156H391.494C392.148 5.10231 392.774 5.36215 393.236 5.82407C393.698 6.28599 393.958 6.91228 393.958 7.56553V138.087C393.958 138.741 393.698 139.367 393.236 139.829C392.774 140.291 392.148 140.551 391.494 140.551Z" fill="white"/>
<path d="M346.293 3.12751C346.669 3.12751 346.973 2.82308 346.973 2.44755C346.973 2.07201 346.669 1.76758 346.293 1.76758C345.918 1.76758 345.613 2.07201 345.613 2.44755C345.613 2.82308 345.918 3.12751 346.293 3.12751Z" fill="white"/>
<path d="M383.818 45.1289H333.915V47.9962H383.818V45.1289Z" fill="#E5E5E5"/>
<path d="M383.818 54.2109H333.915V57.0783H383.818V54.2109Z" fill="#E5E5E5"/>
<path d="M383.818 63.291H333.915V66.1583H383.818V63.291Z" fill="#E5E5E5"/>
<path d="M326.93 46.9004H309.447V64.3832H326.93V46.9004Z" fill="#E5E5E5"/>
<path d="M329.856 100.522C333.692 100.522 336.802 97.4121 336.802 93.5756C336.802 89.739 333.692 86.6289 329.856 86.6289C326.019 86.6289 322.909 89.739 322.909 93.5756C322.909 97.4121 326.019 100.522 329.856 100.522Z" fill="#006E53"/>
<path d="M348.38 99.2493C351.515 99.2493 354.056 96.7079 354.056 93.5729C354.056 90.4379 351.515 87.8965 348.38 87.8965C345.245 87.8965 342.703 90.4379 342.703 93.5729C342.703 96.7079 345.245 99.2493 348.38 99.2493Z" fill="#006E53"/>
<path d="M366.904 97.028C368.811 97.028 370.357 95.4819 370.357 93.5746C370.357 91.6673 368.811 90.1211 366.904 90.1211C364.996 90.1211 363.45 91.6673 363.45 93.5746C363.45 95.4819 364.996 97.028 366.904 97.028Z" fill="#006E53"/>
<path d="M561.345 157.645H297.548C296.594 157.645 295.65 157.832 294.769 158.197C293.888 158.562 293.088 159.097 292.414 159.771C291.74 160.445 291.205 161.246 290.84 162.127C290.475 163.008 290.287 163.952 290.287 164.905V311.888C290.287 313.814 291.052 315.661 292.414 317.022C293.775 318.384 295.622 319.149 297.548 319.149H561.345C563.271 319.149 565.118 318.384 566.479 317.022C567.841 315.661 568.606 313.814 568.606 311.888V164.905C568.606 162.98 567.841 161.133 566.479 159.771C565.118 158.409 563.271 157.645 561.345 157.645Z" fill="#3F3D56"/>
<path d="M558.871 170.479H300.021V316.496H558.871V170.479Z" fill="white"/>
<path d="M429.224 166.495C430.69 166.495 431.879 165.307 431.879 163.84C431.879 162.374 430.69 161.186 429.224 161.186C427.758 161.186 426.569 162.374 426.569 163.84C426.569 165.307 427.758 166.495 429.224 166.495Z" fill="white"/>
<path d="M575.873 313.839H550.611V312.019C550.611 311.972 550.602 311.925 550.584 311.881C550.566 311.837 550.539 311.797 550.506 311.764C550.472 311.73 550.432 311.704 550.389 311.686C550.345 311.668 550.298 311.658 550.25 311.658H541.589C541.542 311.658 541.495 311.668 541.451 311.686C541.407 311.704 541.367 311.73 541.334 311.764C541.3 311.797 541.274 311.837 541.256 311.881C541.238 311.925 541.228 311.972 541.228 312.019V313.839H535.815V312.019C535.815 311.972 535.806 311.925 535.787 311.881C535.769 311.837 535.743 311.797 535.709 311.764C535.676 311.73 535.636 311.704 535.592 311.686C535.548 311.668 535.501 311.658 535.454 311.658H526.793C526.745 311.658 526.698 311.668 526.655 311.686C526.611 311.704 526.571 311.73 526.538 311.764C526.504 311.797 526.478 311.837 526.459 311.881C526.441 311.925 526.432 311.972 526.432 312.019V313.839H521.019V312.019C521.019 311.972 521.009 311.925 520.991 311.881C520.973 311.837 520.946 311.797 520.913 311.764C520.879 311.73 520.84 311.704 520.796 311.686C520.752 311.668 520.705 311.658 520.658 311.658H511.996C511.949 311.658 511.902 311.668 511.858 311.686C511.815 311.704 511.775 311.73 511.741 311.764C511.708 311.797 511.681 311.837 511.663 311.881C511.645 311.925 511.636 311.972 511.636 312.019V313.839H506.222V312.019C506.222 311.972 506.213 311.925 506.195 311.881C506.177 311.837 506.15 311.797 506.117 311.764C506.083 311.73 506.043 311.704 505.999 311.686C505.956 311.668 505.909 311.658 505.861 311.658H497.2C497.153 311.658 497.106 311.668 497.062 311.686C497.018 311.704 496.978 311.73 496.945 311.764C496.911 311.797 496.885 311.837 496.867 311.881C496.849 311.925 496.839 311.972 496.839 312.019V313.839H491.426V312.019C491.426 311.972 491.417 311.925 491.398 311.881C491.38 311.837 491.354 311.797 491.32 311.764C491.287 311.73 491.247 311.704 491.203 311.686C491.159 311.668 491.112 311.658 491.065 311.658H482.404C482.356 311.658 482.309 311.668 482.266 311.686C482.222 311.704 482.182 311.73 482.149 311.764C482.115 311.797 482.089 311.837 482.07 311.881C482.052 311.925 482.043 311.972 482.043 312.019V313.839H476.63V312.019C476.63 311.972 476.62 311.925 476.602 311.881C476.584 311.837 476.557 311.797 476.524 311.764C476.49 311.73 476.451 311.704 476.407 311.686C476.363 311.668 476.316 311.658 476.269 311.658H467.607C467.56 311.658 467.513 311.668 467.469 311.686C467.426 311.704 467.386 311.73 467.352 311.764C467.319 311.797 467.292 311.837 467.274 311.881C467.256 311.925 467.247 311.972 467.247 312.019V313.839H461.833V312.019C461.833 311.972 461.824 311.925 461.806 311.881C461.788 311.837 461.761 311.797 461.728 311.764C461.694 311.73 461.654 311.704 461.61 311.686C461.567 311.668 461.52 311.658 461.472 311.658H393.626C393.578 311.658 393.531 311.668 393.488 311.686C393.444 311.704 393.404 311.73 393.37 311.764C393.337 311.797 393.31 311.837 393.292 311.881C393.274 311.925 393.265 311.972 393.265 312.019V313.839H387.851V312.019C387.851 311.972 387.842 311.925 387.824 311.881C387.806 311.837 387.779 311.797 387.746 311.764C387.712 311.73 387.672 311.704 387.629 311.686C387.585 311.668 387.538 311.658 387.491 311.658H378.829C378.782 311.658 378.735 311.668 378.691 311.686C378.647 311.704 378.608 311.73 378.574 311.764C378.541 311.797 378.514 311.837 378.496 311.881C378.478 311.925 378.468 311.972 378.468 312.019V313.839H373.055V312.019C373.055 311.972 373.046 311.925 373.028 311.881C373.01 311.837 372.983 311.797 372.949 311.764C372.916 311.73 372.876 311.704 372.832 311.686C372.789 311.668 372.742 311.658 372.694 311.658H364.033C363.986 311.658 363.939 311.668 363.895 311.686C363.851 311.704 363.811 311.73 363.778 311.764C363.744 311.797 363.718 311.837 363.7 311.881C363.681 311.925 363.672 311.972 363.672 312.019V313.839H358.259V312.019C358.259 311.972 358.249 311.925 358.231 311.881C358.213 311.837 358.187 311.797 358.153 311.764C358.12 311.73 358.08 311.704 358.036 311.686C357.992 311.668 357.945 311.658 357.898 311.658H349.237C349.189 311.658 349.142 311.668 349.099 311.686C349.055 311.704 349.015 311.73 348.981 311.764C348.948 311.797 348.921 311.837 348.903 311.881C348.885 311.925 348.876 311.972 348.876 312.019V313.839H343.462V312.019C343.462 311.972 343.453 311.925 343.435 311.881C343.417 311.837 343.39 311.797 343.357 311.764C343.323 311.73 343.283 311.704 343.24 311.686C343.196 311.668 343.149 311.658 343.102 311.658H334.44C334.393 311.658 334.346 311.668 334.302 311.686C334.258 311.704 334.219 311.73 334.185 311.764C334.152 311.797 334.125 311.837 334.107 311.881C334.089 311.925 334.079 311.972 334.079 312.019V313.839H328.666V312.019C328.666 311.972 328.657 311.925 328.639 311.881C328.62 311.837 328.594 311.797 328.56 311.764C328.527 311.73 328.487 311.704 328.443 311.686C328.399 311.668 328.353 311.658 328.305 311.658H319.644C319.548 311.658 319.456 311.696 319.389 311.764C319.321 311.832 319.283 311.923 319.283 312.019V313.839H313.87V312.019C313.87 311.972 313.86 311.925 313.842 311.881C313.824 311.837 313.798 311.797 313.764 311.764C313.731 311.73 313.691 311.704 313.647 311.686C313.603 311.668 313.556 311.658 313.509 311.658H304.848C304.752 311.658 304.66 311.696 304.592 311.764C304.525 311.832 304.487 311.923 304.487 312.019V313.839H287.886C286.748 313.839 285.622 314.063 284.571 314.499C283.521 314.934 282.566 315.572 281.761 316.376C280.957 317.18 280.319 318.135 279.884 319.186C279.449 320.237 279.225 321.363 279.225 322.501V326.417C279.225 328.714 280.137 330.917 281.761 332.541C283.386 334.166 285.589 335.078 287.886 335.078H575.873C578.17 335.078 580.374 334.166 581.998 332.541C583.622 330.917 584.535 328.714 584.535 326.417V322.501C584.535 321.363 584.311 320.237 583.875 319.186C583.44 318.135 582.802 317.18 581.998 316.376C581.194 315.572 580.239 314.934 579.188 314.499C578.137 314.063 577.011 313.839 575.873 313.839Z" fill="#3F3D56"/>
<path d="M487.146 184.381H403.44V187.491H487.146V184.381Z" fill="#CBCBCB"/>
<path d="M487.146 194.23H403.44V197.341H487.146V194.23Z" fill="#CBCBCB"/>
<path d="M487.146 204.08H403.44V207.19H487.146V204.08Z" fill="#CBCBCB"/>
<path d="M395.86 186.303H376.896V205.267H395.86V186.303Z" fill="#CBCBCB"/>
<path d="M429.244 289.293C447.573 289.293 462.432 274.434 462.432 256.104C462.432 237.775 447.573 222.916 429.244 222.916C410.915 222.916 396.056 237.775 396.056 256.104C396.056 274.434 410.915 289.293 429.244 289.293Z" fill="#006E53"/>
<path d="M423.856 261.056H416.897L429.212 236.029L441.592 261.032H434.627V271.437H423.856V261.056Z" fill="white"/>
<path d="M254.052 136.091C258.773 130.561 265.261 126.834 272.416 125.539L269.237 122.869L272.637 122.574L276.987 126.231L273.33 130.582L269.931 130.877L272.381 127.963C265.168 129.395 258.76 133.492 254.431 139.437C250.103 145.381 248.172 152.738 249.024 160.042C249.875 167.347 253.446 174.062 259.026 178.852C264.606 183.641 271.785 186.154 279.134 185.889L279.219 188.258C273.08 188.479 267.01 186.907 261.75 183.735C256.489 180.562 252.267 175.927 249.598 170.394C246.928 164.861 245.928 158.671 246.719 152.579C247.51 146.488 250.058 140.758 254.052 136.091Z" fill="#E5E5E5"/>
<path d="M611.974 157.789C611.672 166.171 608.053 174.09 601.913 179.804C595.773 185.519 587.614 188.559 579.231 188.258L579.317 185.889C586.666 186.154 593.845 183.641 599.424 178.852C605.004 174.062 608.575 167.347 609.427 160.042C610.278 152.738 608.348 145.381 604.019 139.437C599.691 133.492 593.282 129.395 586.07 127.963L588.52 130.877L585.12 130.582L581.463 126.231L585.814 122.574L589.214 122.869L586.035 125.539C593.512 126.9 600.249 130.909 605.013 136.831C609.776 142.754 612.248 150.193 611.974 157.789H611.974Z" fill="#E5E5E5"/>
<path d="M618.583 335.518H239.866C239.676 335.518 239.492 335.442 239.357 335.307C239.222 335.172 239.146 334.989 239.146 334.798C239.146 334.607 239.222 334.424 239.357 334.289C239.492 334.154 239.676 334.078 239.866 334.078H618.583C618.774 334.078 618.957 334.154 619.092 334.289C619.227 334.424 619.303 334.607 619.303 334.798C619.303 334.989 619.227 335.172 619.092 335.307C618.957 335.442 618.774 335.518 618.583 335.518Z" fill="#CBCBCB"/>
</g>
<defs>
<clipPath id="clip0_172_2421">
<rect width="619.303" height="465.115" fill="white"/>
</clipPath>
</defs>
</svg>
