<svg width="532" height="282" viewBox="0 0 532 282" fill="none" xmlns="http://www.w3.org/2000/svg">
<g clip-path="url(#clip0_172_2885)">
<path d="M465.255 246.354C451.365 246.233 437.499 245.215 423.74 243.309C423.257 243.242 422.774 243.169 422.291 243.102L423.018 113.031C423.498 112.649 423.983 112.273 424.475 111.909C426.101 110.695 427.773 109.556 429.504 108.512C437.839 103.49 447.598 101.191 454.332 103.495L454.436 103.536C455.911 104.033 457.272 104.817 458.443 105.842C464.356 111.095 463.37 121.715 458.598 131.353C468.06 122.709 480.001 115.825 490.659 115.302C501.054 114.789 508.481 120.225 514.792 126.121C515.001 126.315 515.204 126.508 515.406 126.702C515.511 126.795 515.609 126.895 515.714 126.989C520.523 131.589 525.264 136.952 524.691 144.714C524.061 153.227 516.93 162.666 508.62 169.284C500.317 175.902 490.884 180.3 481.678 184.758C472.477 189.222 463.042 194.051 455.178 201.213C467.449 191.512 481.41 183.69 494.988 180.801C508.566 177.912 521.608 180.455 528.002 189.101C529.884 191.725 531.11 194.763 531.576 197.958C531.638 198.331 531.689 198.71 531.733 199.095C532.644 207.099 529.876 216.655 523.259 224.786C515.973 233.74 505.173 239.948 494.92 243.036C484.667 246.125 474.796 246.454 465.255 246.354Z" fill="#F2F2F2"/>
<path d="M422.748 161.257L422.762 158.77C423.256 157.98 423.744 157.187 424.226 156.39C424.537 155.896 424.837 155.397 425.143 154.897C430.182 146.647 435.015 138.346 439.642 129.992C444.274 121.647 448.692 113.259 452.897 104.829C452.994 104.606 453.166 104.424 453.384 104.314C453.602 104.205 453.851 104.175 454.088 104.23C454.119 104.239 454.149 104.253 454.175 104.272C454.396 104.389 454.488 104.652 454.299 105.036C453.781 106.069 453.262 107.109 452.732 108.143C448.456 116.596 443.966 125.012 439.262 133.392C434.561 141.767 429.652 150.093 424.535 158.372C424.429 158.546 424.318 158.72 424.212 158.895C423.724 159.684 423.236 160.468 422.748 161.257Z" fill="white"/>
<path d="M422.57 193.328L422.579 191.79C423.064 191.443 423.55 191.102 424.035 190.756C435.464 182.605 446.893 174.457 458.322 166.31C477.033 152.969 495.744 139.632 514.454 126.299C514.555 126.22 514.67 126.161 514.793 126.126C515.208 126.012 515.451 126.316 515.408 126.706C515.384 126.871 515.326 127.028 515.237 127.168C515.147 127.308 515.029 127.428 514.89 127.519C504.397 134.999 493.908 142.476 483.423 149.952C464.806 163.224 446.19 176.494 427.577 189.762C426.396 190.606 425.208 191.45 424.027 192.294C423.541 192.64 423.056 192.987 422.57 193.328Z" fill="white"/>
<path d="M431.5 227.591C428.908 227.513 426.358 227.341 423.831 227.117C423.347 227.074 422.864 227.03 422.381 226.987L422.39 225.373C422.873 225.422 423.356 225.472 423.84 225.515C427.49 225.856 431.183 226.098 434.975 226.131C445.489 226.174 455.98 225.149 466.287 223.073C477.385 220.865 488.27 217.696 498.818 213.601C509.944 209.303 520.707 204.121 531.005 198.104C531.172 197.991 531.375 197.94 531.576 197.962C532.036 198.028 532.173 198.641 531.733 199.099C531.647 199.189 531.548 199.267 531.44 199.33C530.16 200.074 528.877 200.805 527.589 201.522C517.234 207.317 506.434 212.277 495.29 216.355C484.707 220.239 473.806 223.193 462.71 225.185C452.416 227.05 441.959 227.856 431.5 227.591Z" fill="white"/>
<path d="M418.686 6.62146e-09H65.0739C63.727 0.00122482 62.4356 0.536825 61.4833 1.48923C60.5309 2.44164 59.9953 3.73302 59.9941 5.0799V244.698C59.9953 246.044 60.5309 247.336 61.4833 248.288C62.4356 249.241 63.727 249.776 65.0739 249.778H418.686C419.421 249.778 420.147 249.618 420.814 249.31C421.48 249.003 422.073 248.554 422.549 247.995C422.589 247.951 422.626 247.904 422.66 247.855C422.963 247.484 423.208 247.07 423.388 246.626C423.644 246.015 423.774 245.36 423.772 244.698V5.07994C423.771 3.7321 423.234 2.43998 422.281 1.48745C421.327 0.534931 420.034 -6.87239e-05 418.686 6.62146e-09ZM422.322 244.698C422.322 245.406 422.114 246.099 421.722 246.69C421.373 247.21 420.901 247.634 420.347 247.925C419.834 248.19 419.264 248.328 418.686 248.327H65.0739C64.1117 248.326 63.1892 247.943 62.5088 247.263C61.8285 246.582 61.4457 245.66 61.4446 244.698V5.07994C61.4457 4.11773 61.8285 3.19527 62.5088 2.51488C63.1892 1.8345 64.1117 1.45175 65.0739 1.45058H418.686C419.65 1.45046 420.573 1.8326 421.255 2.5131C421.937 3.19359 422.32 4.11679 422.322 5.07994V244.698Z" fill="#3F3D56"/>
<path d="M423.046 20.3594H60.7197V21.8116H423.046V20.3594Z" fill="#3F3D56"/>
<path d="M73.0617 15.2484C75.4678 15.2484 77.4183 13.2979 77.4183 10.8918C77.4183 8.48568 75.4678 6.53516 73.0617 6.53516C70.6556 6.53516 68.7051 8.48568 68.7051 10.8918C68.7051 13.2979 70.6556 15.2484 73.0617 15.2484Z" fill="#3F3D56"/>
<path d="M85.5881 15.2484C87.9942 15.2484 89.9447 13.2979 89.9447 10.8918C89.9447 8.48568 87.9942 6.53516 85.5881 6.53516C83.182 6.53516 81.2314 8.48568 81.2314 10.8918C81.2314 13.2979 83.182 15.2484 85.5881 15.2484Z" fill="#3F3D56"/>
<path d="M98.1125 15.2484C100.519 15.2484 102.469 13.2979 102.469 10.8918C102.469 8.48568 100.519 6.53516 98.1125 6.53516C95.7064 6.53516 93.7559 8.48568 93.7559 10.8918C93.7559 13.2979 95.7064 15.2484 98.1125 15.2484Z" fill="#3F3D56"/>
<path d="M332.819 53.9746H151.061C149.052 53.9746 147.126 53.1767 145.705 51.7565C144.285 50.3362 143.487 48.4099 143.487 46.4014C143.487 44.3928 144.285 42.4665 145.705 41.0463C147.126 39.626 149.052 38.8281 151.061 38.8281H332.819C334.827 38.8281 336.753 39.626 338.174 41.0463C339.594 42.4665 340.392 44.3928 340.392 46.4014C340.392 48.4099 339.594 50.3362 338.174 51.7565C336.753 53.1767 334.827 53.9746 332.819 53.9746ZM151.061 39.9932C149.361 39.9932 147.731 40.6684 146.529 41.8701C145.328 43.0719 144.652 44.7018 144.652 46.4014C144.652 48.1009 145.328 49.7309 146.529 50.9326C147.731 52.1344 149.361 52.8095 151.061 52.8095H332.819C334.518 52.8095 336.148 52.1344 337.35 50.9326C338.552 49.7309 339.227 48.1009 339.227 46.4014C339.227 44.7018 338.552 43.0719 337.35 41.8701C336.148 40.6684 334.518 39.9932 332.819 39.9932H151.061Z" fill="#3F3D56"/>
<path d="M152.578 100.29H136.266C135.03 100.29 133.844 99.7987 132.97 98.9247C132.096 98.0507 131.605 96.8652 131.605 95.6292C131.605 94.3932 132.096 93.2078 132.97 92.3338C133.844 91.4598 135.03 90.9688 136.266 90.9688H152.578C153.814 90.9688 154.999 91.4598 155.873 92.3338C156.747 93.2078 157.238 94.3932 157.238 95.6292C157.238 96.8652 156.747 98.0507 155.873 98.9247C154.999 99.7987 153.814 100.29 152.578 100.29Z" fill="#CCCCCC"/>
<path d="M171.802 116.016H136.266C135.03 116.016 133.844 115.525 132.97 114.651C132.096 113.777 131.605 112.592 131.605 111.356C131.605 110.12 132.096 108.934 132.97 108.06C133.844 107.186 135.03 106.695 136.266 106.695H171.802C173.038 106.695 174.223 107.186 175.097 108.06C175.971 108.934 176.462 110.12 176.462 111.356C176.462 112.592 175.971 113.777 175.097 114.651C174.223 115.525 173.038 116.016 171.802 116.016Z" fill="#CCCCCC"/>
<path d="M155.491 169.028H139.179C137.943 169.028 136.758 168.537 135.884 167.663C135.01 166.789 134.519 165.604 134.519 164.367C134.519 163.131 135.01 161.946 135.884 161.072C136.758 160.198 137.943 159.707 139.179 159.707H155.491C156.727 159.707 157.912 160.198 158.786 161.072C159.66 161.946 160.151 163.131 160.151 164.367C160.151 165.604 159.66 166.789 158.786 167.663C157.912 168.537 156.727 169.028 155.491 169.028Z" fill="#CCCCCC"/>
<path d="M174.715 184.758H139.179C137.943 184.758 136.758 184.267 135.884 183.393C135.01 182.519 134.519 181.334 134.519 180.098C134.519 178.862 135.01 177.677 135.884 176.803C136.758 175.929 137.943 175.438 139.179 175.438H174.715C175.951 175.438 177.136 175.929 178.01 176.803C178.884 177.677 179.376 178.862 179.376 180.098C179.376 181.334 178.884 182.519 178.01 183.393C177.136 184.267 175.951 184.758 174.715 184.758Z" fill="#CCCCCC"/>
<path d="M262.682 167.282H246.37C245.134 167.282 243.949 166.791 243.075 165.917C242.201 165.043 241.71 163.857 241.71 162.621C241.71 161.385 242.201 160.2 243.075 159.326C243.949 158.452 245.134 157.961 246.37 157.961H262.682C263.918 157.961 265.103 158.452 265.977 159.326C266.851 160.2 267.343 161.385 267.343 162.621C267.343 163.857 266.851 165.043 265.977 165.917C265.103 166.791 263.918 167.282 262.682 167.282Z" fill="#CCCCCC"/>
<path d="M281.906 183.012H246.37C245.134 183.012 243.949 182.521 243.075 181.647C242.201 180.773 241.71 179.588 241.71 178.352C241.71 177.116 242.201 175.93 243.075 175.056C243.949 174.182 245.134 173.691 246.37 173.691H281.906C283.142 173.691 284.328 174.182 285.202 175.056C286.076 175.93 286.567 177.116 286.567 178.352C286.567 179.588 286.076 180.773 285.202 181.647C284.328 182.521 283.142 183.012 281.906 183.012Z" fill="#CCCCCC"/>
<path d="M260.934 103.204H244.622C243.386 103.204 242.201 102.713 241.327 101.839C240.453 100.965 239.962 99.7793 239.962 98.5433C239.962 97.3072 240.453 96.1219 241.327 95.2478C242.201 94.3738 243.386 93.8828 244.622 93.8828H260.934C262.17 93.8828 263.355 94.3738 264.229 95.2478C265.103 96.1219 265.594 97.3072 265.594 98.5433C265.594 99.7793 265.103 100.965 264.229 101.839C263.355 102.713 262.17 103.204 260.934 103.204Z" fill="#CCCCCC"/>
<path d="M280.158 118.93H244.622C243.386 118.93 242.201 118.439 241.327 117.565C240.453 116.691 239.962 115.506 239.962 114.27C239.962 113.034 240.453 111.848 241.327 110.974C242.201 110.1 243.386 109.609 244.622 109.609H280.158C281.394 109.609 282.58 110.1 283.454 110.974C284.328 111.848 284.819 113.034 284.819 114.27C284.819 115.506 284.328 116.691 283.454 117.565C282.58 118.439 281.394 118.93 280.158 118.93Z" fill="#CCCCCC"/>
<path d="M369.871 99.7076H353.56C352.324 99.7076 351.138 99.2166 350.264 98.3426C349.39 97.4686 348.899 96.2832 348.899 95.0472C348.899 93.8111 349.39 92.6258 350.264 91.7518C351.138 90.8777 352.324 90.3867 353.56 90.3867H369.871C371.108 90.3867 372.293 90.8777 373.167 91.7518C374.041 92.6258 374.532 93.8111 374.532 95.0472C374.532 96.2832 374.041 97.4686 373.167 98.3426C372.293 99.2166 371.108 99.7076 369.871 99.7076Z" fill="#CCCCCC"/>
<path d="M389.096 115.434H353.56C352.324 115.434 351.138 114.943 350.264 114.069C349.39 113.195 348.899 112.01 348.899 110.774C348.899 109.538 349.39 108.352 350.264 107.478C351.138 106.604 352.324 106.113 353.56 106.113H389.096C390.332 106.113 391.517 106.604 392.391 107.478C393.265 108.352 393.756 109.538 393.756 110.774C393.756 112.01 393.265 113.195 392.391 114.069C391.517 114.943 390.332 115.434 389.096 115.434Z" fill="#CCCCCC"/>
<path d="M107.486 120.965C117.139 120.965 124.963 113.141 124.963 103.488C124.963 93.8363 117.139 86.0117 107.486 86.0117C97.8344 86.0117 90.0098 93.8363 90.0098 103.488C90.0098 113.141 97.8344 120.965 107.486 120.965Z" fill="#006E53"/>
<path d="M115.643 111.358H99.3317C98.8683 111.357 98.4241 111.173 98.0964 110.846C97.7688 110.518 97.5845 110.074 97.584 109.61V97.3766C97.5845 96.9132 97.7688 96.469 98.0964 96.1414C98.4241 95.8137 98.8683 95.6294 99.3317 95.6289H103.924C104.222 95.6278 104.516 95.7038 104.777 95.8494C105.038 95.9951 105.256 96.2055 105.412 96.4604L106.693 98.5417H115.643C116.107 98.5422 116.551 98.7265 116.879 99.0541C117.206 99.3818 117.39 99.826 117.391 100.289V109.61C117.39 110.074 117.206 110.518 116.879 110.846C116.551 111.173 116.107 111.357 115.643 111.358ZM99.3317 96.794C99.1772 96.7942 99.0292 96.8557 98.9199 96.9649C98.8107 97.0741 98.7493 97.2221 98.7491 97.3766V109.61C98.7493 109.765 98.8107 109.913 98.9199 110.022C99.0292 110.131 99.1772 110.193 99.3317 110.193H115.643C115.798 110.193 115.946 110.131 116.055 110.022C116.164 109.913 116.226 109.765 116.226 109.61V100.289C116.226 100.135 116.164 99.9869 116.055 99.8777C115.946 99.7685 115.798 99.707 115.643 99.7068H106.042L104.42 97.0711C104.368 96.9861 104.295 96.916 104.208 96.8675C104.121 96.8189 104.023 96.7937 103.924 96.794H99.3317Z" fill="white"/>
<path d="M214.678 123.883C224.33 123.883 232.155 116.059 232.155 106.406C232.155 96.7543 224.33 88.9297 214.678 88.9297C205.026 88.9297 197.201 96.7543 197.201 106.406C197.201 116.059 205.026 123.883 214.678 123.883Z" fill="#006E53"/>
<path d="M222.251 117.477H207.104C206.641 117.477 206.197 117.292 205.869 116.965C205.541 116.637 205.357 116.193 205.356 115.729V97.0875C205.357 96.6242 205.541 96.1799 205.869 95.8523C206.197 95.5246 206.641 95.3403 207.104 95.3398H218.079C218.477 95.3402 218.863 95.4761 219.174 95.7253L223.345 99.0773C223.55 99.2406 223.714 99.4479 223.827 99.6837C223.941 99.9196 223.999 100.178 223.998 100.44V115.729C223.998 116.193 223.813 116.637 223.486 116.965C223.158 117.292 222.714 117.477 222.251 117.477ZM207.104 96.505C206.95 96.5052 206.802 96.5666 206.692 96.6758C206.583 96.785 206.522 96.9331 206.522 97.0875V115.729C206.522 115.884 206.583 116.032 206.692 116.141C206.802 116.25 206.95 116.312 207.104 116.312H222.251C222.405 116.312 222.553 116.25 222.662 116.141C222.772 116.032 222.833 115.884 222.833 115.729V100.44C222.833 100.352 222.814 100.266 222.776 100.188C222.739 100.109 222.684 100.04 222.616 99.9855L218.444 96.6332C218.34 96.5503 218.212 96.5051 218.079 96.505H207.104Z" fill="white"/>
<path d="M219.339 103.493H210.018C209.864 103.493 209.715 103.432 209.606 103.323C209.497 103.213 209.436 103.065 209.436 102.911C209.436 102.756 209.497 102.608 209.606 102.499C209.715 102.389 209.864 102.328 210.018 102.328H219.339C219.494 102.328 219.642 102.389 219.751 102.499C219.86 102.608 219.922 102.756 219.922 102.911C219.922 103.065 219.86 103.213 219.751 103.323C219.642 103.432 219.494 103.493 219.339 103.493Z" fill="white"/>
<path d="M219.339 106.989H210.018C209.864 106.989 209.715 106.928 209.606 106.819C209.497 106.709 209.436 106.561 209.436 106.407C209.436 106.252 209.497 106.104 209.606 105.995C209.715 105.886 209.864 105.824 210.018 105.824H219.339C219.494 105.824 219.642 105.886 219.751 105.995C219.86 106.104 219.922 106.252 219.922 106.407C219.922 106.561 219.86 106.709 219.751 106.819C219.642 106.928 219.494 106.989 219.339 106.989Z" fill="white"/>
<path d="M219.339 110.482H210.018C209.864 110.482 209.715 110.42 209.606 110.311C209.497 110.202 209.436 110.053 209.436 109.899C209.436 109.744 209.497 109.596 209.606 109.487C209.715 109.378 209.864 109.316 210.018 109.316H219.339C219.494 109.316 219.642 109.378 219.751 109.487C219.86 109.596 219.922 109.744 219.922 109.899C219.922 110.053 219.86 110.202 219.751 110.311C219.642 110.42 219.494 110.482 219.339 110.482Z" fill="white"/>
<path d="M322.451 120.383C332.103 120.383 339.928 112.559 339.928 102.906C339.928 93.2543 332.103 85.4297 322.451 85.4297C312.799 85.4297 304.975 93.2543 304.975 102.906C304.975 112.559 312.799 120.383 322.451 120.383Z" fill="#006E53"/>
<path d="M330.607 109.32H314.296C313.832 109.32 313.388 109.135 313.06 108.808C312.733 108.48 312.548 108.036 312.548 107.573V98.2516C312.548 97.7882 312.733 97.344 313.06 97.0163C313.388 96.6887 313.832 96.5044 314.296 96.5039H330.607C331.07 96.5044 331.515 96.6887 331.842 97.0163C332.17 97.344 332.354 97.7882 332.355 98.2516V107.573C332.354 108.036 332.17 108.48 331.842 108.808C331.515 109.135 331.07 109.32 330.607 109.32ZM314.296 97.669C314.141 97.6692 313.993 97.7306 313.884 97.8398C313.775 97.949 313.713 98.0971 313.713 98.2516V107.573C313.713 107.727 313.775 107.875 313.884 107.984C313.993 108.093 314.141 108.155 314.296 108.155H330.607C330.762 108.155 330.91 108.093 331.019 107.984C331.128 107.875 331.19 107.727 331.19 107.573V98.2516C331.19 98.0971 331.128 97.949 331.019 97.8398C330.91 97.7306 330.762 97.6692 330.607 97.669H314.296Z" fill="white"/>
<path d="M322.451 104.447C322.123 104.448 321.802 104.357 321.524 104.184L312.821 98.7442C312.69 98.6621 312.597 98.5315 312.563 98.3811C312.528 98.2306 312.555 98.0726 312.636 97.9418C312.718 97.8109 312.849 97.7178 312.999 97.683C313.149 97.6482 313.307 97.6744 313.439 97.756L322.142 103.196C322.235 103.253 322.342 103.283 322.451 103.283C322.56 103.283 322.667 103.253 322.759 103.196L331.463 97.756C331.594 97.6744 331.752 97.6482 331.902 97.683C332.052 97.7178 332.183 97.8109 332.265 97.9418C332.346 98.0726 332.373 98.2306 332.338 98.3811C332.304 98.5315 332.211 98.6621 332.08 98.7442L323.377 104.184C323.099 104.357 322.778 104.448 322.451 104.447Z" fill="white"/>
<path d="M107.486 189.707C117.139 189.707 124.963 181.883 124.963 172.231C124.963 162.579 117.139 154.754 107.486 154.754C97.8344 154.754 90.0098 162.579 90.0098 172.231C90.0098 181.883 97.8344 189.707 107.486 189.707Z" fill="#006E53"/>
<path d="M115.643 178.64H99.3317C98.8683 178.64 98.4241 178.456 98.0964 178.128C97.7688 177.8 97.5845 177.356 97.584 176.893V167.572C97.5845 167.109 97.7688 166.664 98.0964 166.337C98.4241 166.009 98.8683 165.825 99.3317 165.824H115.643C116.107 165.825 116.551 166.009 116.879 166.337C117.206 166.664 117.39 167.109 117.391 167.572V176.893C117.39 177.356 117.206 177.8 116.879 178.128C116.551 178.456 116.107 178.64 115.643 178.64ZM99.3317 166.989C99.1772 166.989 99.0291 167.051 98.9199 167.16C98.8107 167.269 98.7493 167.417 98.7491 167.572V176.893C98.7493 177.047 98.8107 177.195 98.9199 177.305C99.0291 177.414 99.1772 177.475 99.3317 177.475H115.643C115.798 177.475 115.946 177.414 116.055 177.305C116.164 177.195 116.226 177.047 116.226 176.893V167.572C116.226 167.417 116.164 167.269 116.055 167.16C115.946 167.051 115.798 166.989 115.643 166.989H99.3317Z" fill="white"/>
<path d="M113.058 178.638H101.334C101.13 178.639 100.929 178.585 100.752 178.483C100.574 178.38 100.427 178.233 100.325 178.056C100.223 177.879 100.169 177.678 100.169 177.473C100.169 177.269 100.223 177.068 100.325 176.891L103.856 170.774C103.959 170.597 104.106 170.45 104.283 170.347C104.46 170.245 104.661 170.191 104.866 170.191C105.07 170.191 105.271 170.245 105.448 170.347C105.625 170.45 105.772 170.597 105.875 170.774L108.155 174.724L109.477 172.436C109.579 172.259 109.726 172.112 109.903 172.009C110.08 171.907 110.281 171.853 110.486 171.853C110.69 171.853 110.891 171.907 111.068 172.009C111.245 172.112 111.392 172.259 111.495 172.436L114.067 176.891C114.169 177.068 114.223 177.269 114.223 177.473C114.223 177.678 114.169 177.879 114.067 178.056C113.964 178.233 113.817 178.38 113.64 178.482C113.463 178.585 113.262 178.639 113.058 178.638H113.058ZM113.058 177.473L110.486 173.018L108.66 176.181C108.609 176.269 108.535 176.343 108.447 176.394C108.358 176.445 108.258 176.472 108.155 176.472C108.053 176.472 107.953 176.445 107.864 176.394C107.775 176.343 107.702 176.269 107.651 176.181L104.866 171.357L101.334 177.473H113.058Z" fill="white"/>
<path d="M113.896 170.486C114.539 170.486 115.061 169.965 115.061 169.321C115.061 168.678 114.539 168.156 113.896 168.156C113.252 168.156 112.73 168.678 112.73 169.321C112.73 169.965 113.252 170.486 113.896 170.486Z" fill="white"/>
<path d="M215.844 187.961C225.496 187.961 233.321 180.137 233.321 170.485C233.321 160.832 225.496 153.008 215.844 153.008C206.192 153.008 198.367 160.832 198.367 170.485C198.367 180.137 206.192 187.961 215.844 187.961Z" fill="#006E53"/>
<path d="M215.844 170.775C214.807 170.775 213.793 170.468 212.931 169.891C212.069 169.315 211.397 168.497 211 167.538C210.603 166.58 210.499 165.526 210.701 164.509C210.904 163.492 211.403 162.558 212.136 161.825C212.869 161.091 213.804 160.592 214.821 160.39C215.838 160.188 216.892 160.291 217.85 160.688C218.808 161.085 219.627 161.757 220.203 162.619C220.779 163.481 221.087 164.495 221.087 165.532C221.085 166.922 220.532 168.255 219.549 169.238C218.566 170.221 217.234 170.774 215.844 170.775ZM215.844 161.454C215.037 161.454 214.249 161.693 213.578 162.141C212.907 162.59 212.385 163.226 212.076 163.972C211.767 164.717 211.687 165.537 211.844 166.328C212.001 167.119 212.39 167.845 212.96 168.416C213.53 168.986 214.257 169.374 215.048 169.532C215.839 169.689 216.659 169.608 217.404 169.3C218.149 168.991 218.786 168.468 219.234 167.798C219.682 167.127 219.922 166.339 219.922 165.532C219.92 164.451 219.49 163.414 218.726 162.65C217.961 161.885 216.925 161.455 215.844 161.454Z" fill="white"/>
<path d="M220.503 180.68H211.183C210.642 180.679 210.124 180.464 209.741 180.082C209.359 179.7 209.144 179.181 209.144 178.641C209.144 176.864 209.849 175.16 211.106 173.904C212.362 172.647 214.066 171.941 215.843 171.941C217.62 171.941 219.324 172.647 220.58 173.904C221.837 175.16 222.542 176.864 222.542 178.641C222.542 179.181 222.327 179.7 221.944 180.082C221.562 180.464 221.044 180.679 220.503 180.68ZM215.843 173.107C214.376 173.108 212.969 173.692 211.931 174.729C210.894 175.767 210.31 177.174 210.309 178.641C210.309 178.872 210.401 179.095 210.565 179.258C210.729 179.422 210.951 179.514 211.183 179.515H220.503C220.735 179.514 220.957 179.422 221.121 179.258C221.285 179.095 221.377 178.872 221.377 178.641C221.376 177.174 220.792 175.767 219.754 174.729C218.717 173.692 217.31 173.108 215.843 173.107Z" fill="white"/>
<path d="M47.1516 274.501H54.2937L57.6912 246.953L47.1504 246.954L47.1516 274.501Z" fill="#FFB8B8"/>
<path d="M68.0684 281.133L45.622 281.134L45.6216 272.461L59.3955 272.461C61.6956 272.461 63.9015 273.374 65.528 275.001C67.1545 276.627 68.0683 278.833 68.0684 281.133L68.0684 281.133Z" fill="#2F2E41"/>
<path d="M20.3537 274.501H27.4959L30.8933 246.953L20.3525 246.954L20.3537 274.501Z" fill="#FFB8B8"/>
<path d="M41.2685 281.133L18.8222 281.134L18.8218 272.461L32.5957 272.461C34.8958 272.461 37.1017 273.374 38.7282 275.001C40.3546 276.627 41.2684 278.833 41.2686 281.133L41.2685 281.133Z" fill="#2F2E41"/>
<path d="M21.2254 192.457C21.9949 191.962 22.6465 191.304 23.1343 190.53C23.6221 189.756 23.9343 188.884 24.0488 187.977C24.1633 187.069 24.0775 186.147 23.7972 185.276C23.517 184.405 23.0492 183.606 22.4268 182.936L27.1295 116.199L13.5833 117.513L13.2112 182.868C12.154 183.988 11.5444 185.458 11.498 186.997C11.4516 188.537 11.9716 190.04 12.9594 191.222C13.9473 192.404 15.3344 193.182 16.8579 193.41C18.3814 193.637 19.9354 193.298 21.2255 192.457H21.2254Z" fill="#FFB8B8"/>
<path d="M47.3639 260.624C46.7231 260.621 46.1051 260.386 45.6257 259.96C45.1464 259.535 44.8388 258.949 44.7606 258.313L40.6092 223.591C40.5508 223.102 40.3174 222.651 39.9522 222.321C39.587 221.991 39.1146 221.804 38.6223 221.795C38.1299 221.786 37.651 221.955 37.2738 222.271C36.8967 222.588 36.6468 223.03 36.5704 223.517L31.3408 256.762C31.2461 257.38 30.9326 257.944 30.4572 258.35C29.9819 258.756 29.3765 258.979 28.7511 258.976H20.2749C19.929 258.976 19.5865 258.908 19.2671 258.775C18.9478 258.642 18.6579 258.447 18.4142 258.201C18.1705 257.956 17.9779 257.664 17.8473 257.344C17.7167 257.024 17.6508 256.681 17.6534 256.335L21.6988 182.621C21.7003 181.994 21.9282 181.388 22.3406 180.915C22.753 180.442 23.3222 180.133 23.9437 180.046L55.3981 175.48C55.7719 175.426 56.1529 175.453 56.5151 175.56C56.8774 175.667 57.2123 175.85 57.497 176.099C57.7817 176.347 58.0094 176.653 58.1646 176.998C58.3198 177.342 58.3988 177.716 58.3963 178.093L57.8476 257.645C57.8429 258.316 57.5815 258.959 57.1171 259.443C56.6526 259.926 56.0205 260.213 55.3508 260.245L47.4884 260.62C47.4467 260.622 47.4052 260.624 47.3639 260.624Z" fill="#2F2E41"/>
<path d="M31.0575 185.408C28.032 185.397 25.0312 184.862 22.1876 183.829C21.7055 183.651 21.2869 183.335 20.9843 182.92C20.6818 182.505 20.509 182.009 20.4877 181.496C20.2163 175.474 18.6288 144.478 14.007 125.571C13.1087 121.862 13.3284 117.97 14.6384 114.386C15.9485 110.802 18.2902 107.686 21.3685 105.43C21.6171 105.251 21.8706 105.076 22.1288 104.904C24.8019 103.124 27.8858 102.058 31.0872 101.808C34.2885 101.557 37.5009 102.129 40.4185 103.47C43.4327 104.819 46.0516 106.916 48.0261 109.563C50.0006 112.21 51.265 115.318 51.6989 118.592L59.2357 174.547C59.2841 174.897 59.261 175.253 59.1678 175.593C59.0745 175.934 58.9131 176.252 58.6933 176.528C58.4783 176.803 58.2097 177.031 57.9039 177.198C57.5981 177.366 57.2615 177.469 56.9145 177.503C54.3029 177.763 48.8865 178.775 41.9544 182.627C38.6209 184.474 34.8683 185.431 31.0575 185.408Z" fill="#3F3D56"/>
<path d="M21.8418 139.029L9.43875 135.666C8.76815 135.483 8.19737 135.042 7.85164 134.439C7.50592 133.836 7.41347 133.121 7.59459 132.45L11.9548 116.368C12.4218 114.646 13.51 113.157 15.0097 112.189C16.5093 111.221 18.3142 110.843 20.0762 111.127C21.8382 111.412 23.4326 112.338 24.5519 113.728C25.6712 115.118 26.2362 116.874 26.138 118.656L25.1454 136.643C25.1239 137.033 25.0156 137.413 24.8282 137.756C24.6409 138.099 24.3794 138.395 24.0627 138.624C23.7461 138.853 23.3823 139.008 22.9981 139.078C22.6138 139.148 22.2187 139.131 21.8418 139.029Z" fill="#3F3D56"/>
<path d="M35.65 95.8703C43.5522 95.8703 49.9582 89.4643 49.9582 81.5621C49.9582 73.6599 43.5522 67.2539 35.65 67.2539C27.7478 67.2539 21.3418 73.6599 21.3418 81.5621C21.3418 89.4643 27.7478 95.8703 35.65 95.8703Z" fill="#FFB8B8"/>
<path d="M87.5004 109.678C87.4289 109.993 87.3823 110.312 87.361 110.634L62.3358 125.071L56.2531 121.569L49.7686 130.058L62.7812 139.333L91.3312 116.81C92.4956 117.241 93.7636 117.307 94.9666 116.999C96.1696 116.692 97.2504 116.026 98.0655 115.089C98.8806 114.153 99.3912 112.99 99.5295 111.756C99.6678 110.522 99.4271 109.276 98.8396 108.182C98.252 107.088 97.3454 106.199 96.2403 105.633C95.1352 105.067 93.884 104.851 92.6531 105.014C91.4221 105.176 90.2698 105.709 89.3494 106.543C88.429 107.376 87.7841 108.47 87.5004 109.678V109.678Z" fill="#FFB8B8"/>
<path d="M60.2607 125.764L49.4809 132.759C48.8974 133.137 48.188 133.268 47.5082 133.123C46.8284 132.978 46.2337 132.57 45.8547 131.987L36.7843 118.011C35.8127 116.513 35.4297 114.71 35.7093 112.947C35.9889 111.184 36.9113 109.587 38.2985 108.464C39.6858 107.341 41.4397 106.772 43.222 106.865C45.0044 106.959 46.6889 107.709 47.9508 108.971L60.6875 121.711C60.9637 121.987 61.1747 122.322 61.3051 122.69C61.4354 123.058 61.4818 123.451 61.4409 123.839C61.4 124.228 61.2728 124.602 61.0686 124.935C60.8644 125.268 60.5883 125.551 60.2607 125.764Z" fill="#3F3D56"/>
<path d="M25.5245 92.886C28.1938 95.7293 33.1509 94.2029 33.4987 90.3185C33.526 90.0169 33.524 89.7134 33.4928 89.4122C33.3132 87.6916 32.3192 86.1295 32.5573 84.3128C32.6112 83.8606 32.7797 83.4297 33.0467 83.0609C35.1738 80.2126 40.1669 84.3349 42.1744 81.7564C43.4053 80.1753 41.9583 77.686 42.9029 75.9188C44.1496 73.5865 47.8423 74.7371 50.158 73.4598C52.7346 72.0386 52.5804 68.0855 50.8844 65.6811C48.816 62.7487 45.1895 61.184 41.6081 60.9585C38.0268 60.733 34.4701 61.7011 31.1266 63.0041C27.3277 64.4846 23.5605 66.5306 21.2227 69.871C18.3797 73.9333 18.1061 79.3947 19.528 84.1447C20.3929 87.0342 23.3447 90.5641 25.5245 92.886Z" fill="#2F2E41"/>
<path d="M82.1407 281.173H0.582558C0.428054 281.173 0.279878 281.112 0.170627 281.002C0.061376 280.893 0 280.745 0 280.59C0 280.436 0.061376 280.288 0.170627 280.178C0.279878 280.069 0.428054 280.008 0.582558 280.008H82.1407C82.2952 280.008 82.4433 280.069 82.5526 280.178C82.6618 280.288 82.7232 280.436 82.7232 280.59C82.7232 280.745 82.6618 280.893 82.5526 281.002C82.4433 281.112 82.2952 281.173 82.1407 281.173Z" fill="#3F3D56"/>
</g>
<defs>
<clipPath id="clip0_172_2885">
<rect width="532" height="281.173" fill="white"/>
</clipPath>
</defs>
</svg>
