<svg width="478" height="347" viewBox="0 0 478 347" fill="none" xmlns="http://www.w3.org/2000/svg">
<g clip-path="url(#clip0_172_2726)">
<path d="M277.913 61.174C286.855 61.174 294.104 53.9253 294.104 44.9835C294.104 36.0417 286.855 28.793 277.913 28.793C268.971 28.793 261.723 36.0417 261.723 44.9835C261.723 53.9253 268.971 61.174 277.913 61.174Z" fill="#F2F2F2"/>
<path d="M403.509 301.459C427.574 283.129 439.068 252.327 431.872 222.945C431.694 222.214 431.505 221.486 431.306 220.759C426.536 203.318 414.733 186.742 397.531 181.169C383.088 176.489 367.322 180.088 352.254 178.227C322.675 174.574 299.742 150.641 283.606 125.582C267.47 100.524 255.069 72.4743 233.628 51.7723C198.286 17.6486 140.634 10.3018 96.815 32.5138C52.9959 54.7258 25.0836 104.005 26.2739 153.118C27.4644 202.231 56.6205 249.186 98.9625 274.099C114.517 283.251 132.508 289.734 150.412 287.466C165.947 285.497 180.063 277.15 195.525 274.672C219.835 270.775 243.99 281.767 265.017 294.575C286.043 307.383 306.353 322.565 330.247 328.503C353.447 334.268 382.19 317.696 403.509 301.459Z" fill="#F2F2F2"/>
<path d="M368.932 33.5444C368.405 33.1927 367.871 32.8592 367.344 32.5196C352.094 22.7666 335.749 14.8434 318.646 8.91364L314.68 63.6203H289.54V0.927746C287.958 0.600306 286.363 0.291058 284.768 0V63.6203H254.892C238.445 63.6203 222.672 57.0868 211.042 45.4571C199.412 33.8273 192.879 18.0539 192.879 1.60695V1.6069C191.278 1.95253 189.689 2.32241 188.101 2.71655V63.6204H163.767L159.989 11.4543C142.414 18.1949 125.728 27.0591 110.303 37.8496C110.037 38.0316 109.77 38.2195 109.509 38.4014C108.169 39.3413 106.847 40.2994 105.531 41.2696V249.976H177.247L175.979 232.422L169.006 136.039H309.435L302.462 232.422L301.195 249.976H372.116V35.6546C371.061 34.9391 370 34.2357 368.932 33.5444ZM188.101 120.122H167.854L164.113 68.3986H188.101V120.122ZM284.768 120.122H250.763V119.097C250.763 118.605 250.666 118.117 250.477 117.662C250.288 117.207 250.012 116.793 249.663 116.445C249.315 116.097 248.901 115.821 248.445 115.633C247.99 115.445 247.502 115.349 247.01 115.35H232.226C231.734 115.35 231.247 115.446 230.792 115.635C230.337 115.823 229.924 116.099 229.576 116.447C229.228 116.795 228.952 117.208 228.764 117.663C228.575 118.118 228.479 118.605 228.479 119.097V120.122H192.879V68.3986H284.768V120.122ZM289.54 120.122V68.3986H314.335L310.594 120.122H289.54Z" fill="#3F3D56"/>
<path d="M0 263.34C5.26769 269.582 10.9653 275.447 17.0511 280.894L460.053 281.501C466.139 276.054 471.836 270.188 477.104 263.946L0 263.34Z" fill="#3F3D56"/>
<path d="M300.415 207.132V259.1C300.416 259.762 300.679 260.397 301.147 260.866C301.615 261.334 302.25 261.597 302.913 261.598H379.924C380.587 261.597 381.222 261.334 381.69 260.866C382.158 260.397 382.422 259.762 382.422 259.1V207.132C382.421 206.47 382.157 205.836 381.689 205.368C381.221 204.901 380.586 204.638 379.924 204.637H302.913C302.251 204.638 301.617 204.901 301.148 205.368C300.68 205.836 300.417 206.47 300.415 207.132Z" fill="#3F3D56"/>
<path d="M302.221 207.779V258.46C302.221 258.814 302.362 259.153 302.612 259.403C302.863 259.653 303.202 259.794 303.556 259.795H379.282C379.636 259.794 379.975 259.653 380.226 259.403C380.476 259.153 380.617 258.814 380.617 258.46V207.779C380.617 207.425 380.477 207.085 380.226 206.834C379.976 206.583 379.637 206.442 379.282 206.441H303.556C303.201 206.442 302.862 206.583 302.612 206.834C302.361 207.085 302.221 207.425 302.221 207.779Z" fill="#006E53"/>
<path d="M298.803 269.232C298.944 269.409 299.124 269.552 299.328 269.65C299.532 269.747 299.755 269.797 299.982 269.796H382.443C382.669 269.796 382.891 269.745 383.095 269.648C383.298 269.551 383.478 269.41 383.62 269.235C383.762 269.06 383.863 268.855 383.916 268.636C383.969 268.417 383.972 268.188 383.926 267.968L382.646 261.887C382.593 261.64 382.479 261.409 382.314 261.216C382.149 261.024 381.938 260.876 381.701 260.785C381.53 260.718 381.347 260.683 381.163 260.684H301.257C301.072 260.683 300.89 260.718 300.718 260.785C300.481 260.875 300.271 261.024 300.106 261.216C299.941 261.409 299.826 261.639 299.773 261.887L298.493 267.968C298.448 268.188 298.452 268.416 298.505 268.635C298.559 268.854 298.661 269.058 298.803 269.232Z" fill="#2F2E41"/>
<path d="M378.333 263.305H380.281C380.445 263.305 380.577 263.172 380.577 263.009V262.077C380.577 261.913 380.445 261.781 380.281 261.781H378.333C378.17 261.781 378.037 261.913 378.037 262.077V263.009C378.037 263.172 378.17 263.305 378.333 263.305Z" fill="#3F3D56"/>
<path d="M373.254 263.305H375.202C375.365 263.305 375.498 263.172 375.498 263.009V262.077C375.498 261.913 375.365 261.781 375.202 261.781H373.254C373.091 261.781 372.958 261.913 372.958 262.077V263.009C372.958 263.172 373.091 263.305 373.254 263.305Z" fill="#3F3D56"/>
<path d="M368.175 263.305H370.123C370.286 263.305 370.419 263.172 370.419 263.009V262.077C370.419 261.913 370.286 261.781 370.123 261.781H368.175C368.012 261.781 367.879 261.913 367.879 262.077V263.009C367.879 263.172 368.012 263.305 368.175 263.305Z" fill="#3F3D56"/>
<path d="M363.096 263.305H365.044C365.207 263.305 365.34 263.172 365.34 263.009V262.077C365.34 261.913 365.207 261.781 365.044 261.781H363.096C362.933 261.781 362.8 261.913 362.8 262.077V263.009C362.8 263.172 362.933 263.305 363.096 263.305Z" fill="#3F3D56"/>
<path d="M358.016 263.305H359.964C360.127 263.305 360.26 263.172 360.26 263.009V262.077C360.26 261.913 360.127 261.781 359.964 261.781H358.016C357.853 261.781 357.72 261.913 357.72 262.077V263.009C357.72 263.172 357.853 263.305 358.016 263.305Z" fill="#3F3D56"/>
<path d="M352.936 263.305H354.884C355.047 263.305 355.18 263.172 355.18 263.009V262.077C355.18 261.913 355.047 261.781 354.884 261.781H352.936C352.772 261.781 352.64 261.913 352.64 262.077V263.009C352.64 263.172 352.772 263.305 352.936 263.305Z" fill="#3F3D56"/>
<path d="M347.857 263.305H349.805C349.968 263.305 350.101 263.172 350.101 263.009V262.077C350.101 261.913 349.968 261.781 349.805 261.781H347.857C347.693 261.781 347.561 261.913 347.561 262.077V263.009C347.561 263.172 347.693 263.305 347.857 263.305Z" fill="#3F3D56"/>
<path d="M342.777 263.305H344.724C344.888 263.305 345.021 263.172 345.021 263.009V262.077C345.021 261.913 344.888 261.781 344.724 261.781H342.777C342.613 261.781 342.481 261.913 342.481 262.077V263.009C342.481 263.172 342.613 263.305 342.777 263.305Z" fill="#3F3D56"/>
<path d="M337.698 263.305H339.645C339.809 263.305 339.941 263.172 339.941 263.009V262.077C339.941 261.913 339.809 261.781 339.645 261.781H337.698C337.534 261.781 337.402 261.913 337.402 262.077V263.009C337.402 263.172 337.534 263.305 337.698 263.305Z" fill="#3F3D56"/>
<path d="M332.619 263.305H334.566C334.73 263.305 334.862 263.172 334.862 263.009V262.077C334.862 261.913 334.73 261.781 334.566 261.781H332.619C332.455 261.781 332.323 261.913 332.323 262.077V263.009C332.323 263.172 332.455 263.305 332.619 263.305Z" fill="#3F3D56"/>
<path d="M327.538 263.305H329.486C329.65 263.305 329.782 263.172 329.782 263.009V262.077C329.782 261.913 329.65 261.781 329.486 261.781H327.538C327.375 261.781 327.242 261.913 327.242 262.077V263.009C327.242 263.172 327.375 263.305 327.538 263.305Z" fill="#3F3D56"/>
<path d="M322.459 263.305H324.407C324.571 263.305 324.703 263.172 324.703 263.009V262.077C324.703 261.913 324.571 261.781 324.407 261.781H322.459C322.296 261.781 322.163 261.913 322.163 262.077V263.009C322.163 263.172 322.296 263.305 322.459 263.305Z" fill="#3F3D56"/>
<path d="M317.379 263.305H319.327C319.49 263.305 319.623 263.172 319.623 263.009V262.077C319.623 261.913 319.49 261.781 319.327 261.781H317.379C317.216 261.781 317.083 261.913 317.083 262.077V263.009C317.083 263.172 317.216 263.305 317.379 263.305Z" fill="#3F3D56"/>
<path d="M312.3 263.305H314.248C314.411 263.305 314.544 263.172 314.544 263.009V262.077C314.544 261.913 314.411 261.781 314.248 261.781H312.3C312.137 261.781 312.004 261.913 312.004 262.077V263.009C312.004 263.172 312.137 263.305 312.3 263.305Z" fill="#3F3D56"/>
<path d="M307.221 263.305H309.169C309.332 263.305 309.465 263.172 309.465 263.009V262.077C309.465 261.913 309.332 261.781 309.169 261.781H307.221C307.058 261.781 306.925 261.913 306.925 262.077V263.009C306.925 263.172 307.058 263.305 307.221 263.305Z" fill="#3F3D56"/>
<path d="M302.141 263.305H304.089C304.252 263.305 304.385 263.172 304.385 263.009V262.077C304.385 261.913 304.252 261.781 304.089 261.781H302.141C301.978 261.781 301.845 261.913 301.845 262.077V263.009C301.845 263.172 301.978 263.305 302.141 263.305Z" fill="#3F3D56"/>
<path d="M378.394 265.844H380.342C380.505 265.844 380.638 265.711 380.638 265.548V264.616C380.638 264.452 380.505 264.32 380.342 264.32H378.394C378.23 264.32 378.098 264.452 378.098 264.616V265.548C378.098 265.711 378.23 265.844 378.394 265.844Z" fill="#3F3D56"/>
<path d="M373.315 265.844H375.263C375.426 265.844 375.559 265.711 375.559 265.548V264.616C375.559 264.452 375.426 264.32 375.263 264.32H373.315C373.151 264.32 373.019 264.452 373.019 264.616V265.548C373.019 265.711 373.151 265.844 373.315 265.844Z" fill="#3F3D56"/>
<path d="M368.236 265.844H370.183C370.347 265.844 370.479 265.711 370.479 265.548V264.616C370.479 264.452 370.347 264.32 370.183 264.32H368.236C368.072 264.32 367.94 264.452 367.94 264.616V265.548C367.94 265.711 368.072 265.844 368.236 265.844Z" fill="#3F3D56"/>
<path d="M363.156 265.844H365.103C365.267 265.844 365.399 265.711 365.399 265.548V264.616C365.399 264.452 365.267 264.32 365.103 264.32H363.156C362.992 264.32 362.86 264.452 362.86 264.616V265.548C362.86 265.711 362.992 265.844 363.156 265.844Z" fill="#3F3D56"/>
<path d="M358.076 265.844H360.023C360.187 265.844 360.319 265.711 360.319 265.548V264.616C360.319 264.452 360.187 264.32 360.023 264.32H358.076C357.912 264.32 357.78 264.452 357.78 264.616V265.548C357.78 265.711 357.912 265.844 358.076 265.844Z" fill="#3F3D56"/>
<path d="M352.996 265.844H354.944C355.108 265.844 355.24 265.711 355.24 265.548V264.616C355.24 264.452 355.108 264.32 354.944 264.32H352.996C352.833 264.32 352.7 264.452 352.7 264.616V265.548C352.7 265.711 352.833 265.844 352.996 265.844Z" fill="#3F3D56"/>
<path d="M347.917 265.844H349.865C350.029 265.844 350.161 265.711 350.161 265.548V264.616C350.161 264.452 350.029 264.32 349.865 264.32H347.917C347.754 264.32 347.621 264.452 347.621 264.616V265.548C347.621 265.711 347.754 265.844 347.917 265.844Z" fill="#3F3D56"/>
<path d="M342.838 265.844H344.786C344.949 265.844 345.082 265.711 345.082 265.548V264.616C345.082 264.452 344.949 264.32 344.786 264.32H342.838C342.675 264.32 342.542 264.452 342.542 264.616V265.548C342.542 265.711 342.675 265.844 342.838 265.844Z" fill="#3F3D56"/>
<path d="M337.757 265.844H339.705C339.868 265.844 340.001 265.711 340.001 265.548V264.616C340.001 264.452 339.868 264.32 339.705 264.32H337.757C337.594 264.32 337.461 264.452 337.461 264.616V265.548C337.461 265.711 337.594 265.844 337.757 265.844Z" fill="#3F3D56"/>
<path d="M332.678 265.844H334.626C334.789 265.844 334.922 265.711 334.922 265.548V264.616C334.922 264.452 334.789 264.32 334.626 264.32H332.678C332.515 264.32 332.382 264.452 332.382 264.616V265.548C332.382 265.711 332.515 265.844 332.678 265.844Z" fill="#3F3D56"/>
<path d="M327.599 265.844H329.547C329.71 265.844 329.843 265.711 329.843 265.548V264.616C329.843 264.452 329.71 264.32 329.547 264.32H327.599C327.436 264.32 327.303 264.452 327.303 264.616V265.548C327.303 265.711 327.436 265.844 327.599 265.844Z" fill="#3F3D56"/>
<path d="M322.519 265.844H324.467C324.63 265.844 324.763 265.711 324.763 265.548V264.616C324.763 264.452 324.63 264.32 324.467 264.32H322.519C322.355 264.32 322.223 264.452 322.223 264.616V265.548C322.223 265.711 322.355 265.844 322.519 265.844Z" fill="#3F3D56"/>
<path d="M317.439 265.844H319.387C319.55 265.844 319.683 265.711 319.683 265.548V264.616C319.683 264.452 319.55 264.32 319.387 264.32H317.439C317.275 264.32 317.143 264.452 317.143 264.616V265.548C317.143 265.711 317.275 265.844 317.439 265.844Z" fill="#3F3D56"/>
<path d="M312.36 265.844H314.307C314.471 265.844 314.604 265.711 314.604 265.548V264.616C314.604 264.452 314.471 264.32 314.307 264.32H312.36C312.196 264.32 312.064 264.452 312.064 264.616V265.548C312.064 265.711 312.196 265.844 312.36 265.844Z" fill="#3F3D56"/>
<path d="M307.28 265.844H309.227C309.391 265.844 309.523 265.711 309.523 265.548V264.616C309.523 264.452 309.391 264.32 309.227 264.32H307.28C307.116 264.32 306.984 264.452 306.984 264.616V265.548C306.984 265.711 307.116 265.844 307.28 265.844Z" fill="#3F3D56"/>
<path d="M302.202 265.844H304.149C304.313 265.844 304.445 265.711 304.445 265.548V264.616C304.445 264.452 304.313 264.32 304.149 264.32H302.202C302.038 264.32 301.906 264.452 301.906 264.616V265.548C301.906 265.711 302.038 265.844 302.202 265.844Z" fill="#3F3D56"/>
<path d="M336.234 268.891H355.96C356.123 268.891 356.256 268.758 356.256 268.595V267.663C356.256 267.499 356.123 267.367 355.96 267.367H336.234C336.07 267.367 335.938 267.499 335.938 267.663V268.595C335.938 268.758 336.07 268.891 336.234 268.891Z" fill="#3F3D56"/>
<path d="M315.335 217.527H313.611C313.088 217.527 312.664 217.951 312.664 218.474C312.664 218.997 313.088 219.421 313.611 219.421H315.335C315.858 219.421 316.282 218.997 316.282 218.474C316.282 217.951 315.858 217.527 315.335 217.527Z" fill="white"/>
<path d="M335.056 217.527H333.331C332.809 217.527 332.385 217.951 332.385 218.474C332.385 218.997 332.809 219.421 333.331 219.421H335.056C335.578 219.421 336.002 218.997 336.002 218.474C336.002 217.951 335.578 217.527 335.056 217.527Z" fill="white"/>
<path d="M340.643 217.527H338.918C338.395 217.527 337.972 217.951 337.972 218.474C337.972 218.997 338.395 219.421 338.918 219.421H340.643C341.165 219.421 341.589 218.997 341.589 218.474C341.589 217.951 341.165 217.527 340.643 217.527Z" fill="white"/>
<path d="M329.692 217.367H318.975C318.452 217.367 318.028 217.791 318.028 218.314C318.028 218.837 318.452 219.26 318.975 219.26H329.692C330.215 219.26 330.638 218.837 330.638 218.314C330.638 217.791 330.215 217.367 329.692 217.367Z" fill="white"/>
<path d="M355.987 217.367H345.27C344.747 217.367 344.323 217.791 344.323 218.314C344.323 218.837 344.747 219.26 345.27 219.26H355.987C356.51 219.26 356.933 218.837 356.933 218.314C356.933 217.791 356.51 217.367 355.987 217.367Z" fill="white"/>
<path d="M320.594 221.805H318.869C318.347 221.805 317.923 222.229 317.923 222.751C317.923 223.274 318.347 223.698 318.869 223.698H320.594C321.117 223.698 321.54 223.274 321.54 222.751C321.54 222.229 321.117 221.805 320.594 221.805Z" fill="white"/>
<path d="M340.315 221.805H338.591C338.068 221.805 337.645 222.229 337.645 222.751C337.645 223.274 338.068 223.698 338.591 223.698H340.315C340.838 223.698 341.262 223.274 341.262 222.751C341.262 222.229 340.838 221.805 340.315 221.805Z" fill="white"/>
<path d="M345.902 221.805H344.178C343.655 221.805 343.231 222.229 343.231 222.751C343.231 223.274 343.655 223.698 344.178 223.698H345.902C346.425 223.698 346.849 223.274 346.849 222.751C346.849 222.229 346.425 221.805 345.902 221.805Z" fill="white"/>
<path d="M334.951 221.641H324.234C323.711 221.641 323.287 222.064 323.287 222.587C323.287 223.11 323.711 223.534 324.234 223.534H334.951C335.473 223.534 335.897 223.11 335.897 222.587C335.897 222.064 335.473 221.641 334.951 221.641Z" fill="white"/>
<path d="M361.246 221.641H350.529C350.006 221.641 349.582 222.064 349.582 222.587C349.582 223.11 350.006 223.534 350.529 223.534H361.246C361.768 223.534 362.192 223.11 362.192 222.587C362.192 222.064 361.768 221.641 361.246 221.641Z" fill="white"/>
<path d="M325.852 226.074H324.127C323.604 226.074 323.181 226.498 323.181 227.021C323.181 227.544 323.604 227.967 324.127 227.967H325.852C326.374 227.967 326.798 227.544 326.798 227.021C326.798 226.498 326.374 226.074 325.852 226.074Z" fill="white"/>
<path d="M345.574 226.074H343.85C343.327 226.074 342.903 226.498 342.903 227.021C342.903 227.544 343.327 227.967 343.85 227.967H345.574C346.097 227.967 346.521 227.544 346.521 227.021C346.521 226.498 346.097 226.074 345.574 226.074Z" fill="white"/>
<path d="M351.161 226.074H349.437C348.914 226.074 348.49 226.498 348.49 227.021C348.49 227.544 348.914 227.967 349.437 227.967H351.161C351.684 227.967 352.108 227.544 352.108 227.021C352.108 226.498 351.684 226.074 351.161 226.074Z" fill="white"/>
<path d="M340.209 225.918H329.492C328.97 225.918 328.546 226.342 328.546 226.865C328.546 227.387 328.97 227.811 329.492 227.811H340.209C340.732 227.811 341.156 227.387 341.156 226.865C341.156 226.342 340.732 225.918 340.209 225.918Z" fill="white"/>
<path d="M366.504 225.918H355.787C355.265 225.918 354.841 226.342 354.841 226.865C354.841 227.387 355.265 227.811 355.787 227.811H366.504C367.027 227.811 367.451 227.387 367.451 226.865C367.451 226.342 367.027 225.918 366.504 225.918Z" fill="white"/>
<path d="M331.111 230.348H329.387C328.864 230.348 328.44 230.771 328.44 231.294C328.44 231.817 328.864 232.241 329.387 232.241H331.111C331.634 232.241 332.058 231.817 332.058 231.294C332.058 230.771 331.634 230.348 331.111 230.348Z" fill="white"/>
<path d="M350.833 230.348H349.109C348.586 230.348 348.162 230.771 348.162 231.294C348.162 231.817 348.586 232.241 349.109 232.241H350.833C351.356 232.241 351.78 231.817 351.78 231.294C351.78 230.771 351.356 230.348 350.833 230.348Z" fill="white"/>
<path d="M356.42 230.348H354.696C354.173 230.348 353.749 230.771 353.749 231.294C353.749 231.817 354.173 232.241 354.696 232.241H356.42C356.943 232.241 357.367 231.817 357.367 231.294C357.367 230.771 356.943 230.348 356.42 230.348Z" fill="white"/>
<path d="M345.468 230.188H334.751C334.228 230.188 333.805 230.611 333.805 231.134C333.805 231.657 334.228 232.081 334.751 232.081H345.468C345.991 232.081 346.415 231.657 346.415 231.134C346.415 230.611 345.991 230.188 345.468 230.188Z" fill="white"/>
<path d="M335.056 247.34H333.331C332.809 247.34 332.385 247.764 332.385 248.286C332.385 248.809 332.809 249.233 333.331 249.233H335.056C335.578 249.233 336.002 248.809 336.002 248.286C336.002 247.764 335.578 247.34 335.056 247.34Z" fill="white"/>
<path d="M340.643 247.34H338.918C338.395 247.34 337.972 247.764 337.972 248.286C337.972 248.809 338.395 249.233 338.918 249.233H340.643C341.165 249.233 341.589 248.809 341.589 248.286C341.589 247.764 341.165 247.34 340.643 247.34Z" fill="white"/>
<path d="M355.987 247.496H345.27C344.747 247.496 344.323 247.92 344.323 248.443C344.323 248.965 344.747 249.389 345.27 249.389H355.987C356.51 249.389 356.933 248.965 356.933 248.443C356.933 247.92 356.51 247.496 355.987 247.496Z" fill="white"/>
<path d="M315.335 247.34H313.611C313.088 247.34 312.664 247.764 312.664 248.286C312.664 248.809 313.088 249.233 313.611 249.233H315.335C315.858 249.233 316.282 248.809 316.282 248.286C316.282 247.764 315.858 247.34 315.335 247.34Z" fill="white"/>
<path d="M329.692 247.496H318.975C318.452 247.496 318.028 247.92 318.028 248.443C318.028 248.965 318.452 249.389 318.975 249.389H329.692C330.215 249.389 330.638 248.965 330.638 248.443C330.638 247.92 330.215 247.496 329.692 247.496Z" fill="white"/>
<path d="M320.594 243.066H318.869C318.347 243.066 317.923 243.49 317.923 244.013C317.923 244.536 318.347 244.96 318.869 244.96H320.594C321.117 244.96 321.54 244.536 321.54 244.013C321.54 243.49 321.117 243.066 320.594 243.066Z" fill="white"/>
<path d="M340.315 243.066H338.591C338.068 243.066 337.645 243.49 337.645 244.013C337.645 244.536 338.068 244.96 338.591 244.96H340.315C340.838 244.96 341.262 244.536 341.262 244.013C341.262 243.49 340.838 243.066 340.315 243.066Z" fill="white"/>
<path d="M345.902 243.066H344.178C343.655 243.066 343.231 243.49 343.231 244.013C343.231 244.536 343.655 244.96 344.178 244.96H345.902C346.425 244.96 346.849 244.536 346.849 244.013C346.849 243.49 346.425 243.066 345.902 243.066Z" fill="white"/>
<path d="M334.951 243.219H324.234C323.711 243.219 323.287 243.643 323.287 244.165C323.287 244.688 323.711 245.112 324.234 245.112H334.951C335.473 245.112 335.897 244.688 335.897 244.165C335.897 243.643 335.473 243.219 334.951 243.219Z" fill="white"/>
<path d="M325.852 238.789H324.127C323.604 238.789 323.181 239.213 323.181 239.736C323.181 240.258 323.604 240.682 324.127 240.682H325.852C326.374 240.682 326.798 240.258 326.798 239.736C326.798 239.213 326.374 238.789 325.852 238.789Z" fill="white"/>
<path d="M345.574 238.789H343.85C343.327 238.789 342.903 239.213 342.903 239.736C342.903 240.258 343.327 240.682 343.85 240.682H345.574C346.097 240.682 346.521 240.258 346.521 239.736C346.521 239.213 346.097 238.789 345.574 238.789Z" fill="white"/>
<path d="M351.161 238.789H349.437C348.914 238.789 348.49 239.213 348.49 239.736C348.49 240.258 348.914 240.682 349.437 240.682H351.161C351.684 240.682 352.108 240.258 352.108 239.736C352.108 239.213 351.684 238.789 351.161 238.789Z" fill="white"/>
<path d="M340.209 238.953H329.492C328.97 238.953 328.546 239.377 328.546 239.9C328.546 240.422 328.97 240.846 329.492 240.846H340.209C340.732 240.846 341.156 240.422 341.156 239.9C341.156 239.377 340.732 238.953 340.209 238.953Z" fill="white"/>
<path d="M331.111 234.52H329.387C328.864 234.52 328.44 234.943 328.44 235.466C328.44 235.989 328.864 236.413 329.387 236.413H331.111C331.634 236.413 332.058 235.989 332.058 235.466C332.058 234.943 331.634 234.52 331.111 234.52Z" fill="white"/>
<path d="M350.833 234.52H349.109C348.586 234.52 348.162 234.943 348.162 235.466C348.162 235.989 348.586 236.413 349.109 236.413H350.833C351.356 236.413 351.78 235.989 351.78 235.466C351.78 234.943 351.356 234.52 350.833 234.52Z" fill="white"/>
<path d="M356.42 234.52H354.696C354.173 234.52 353.749 234.943 353.749 235.466C353.749 235.989 354.173 236.413 354.696 236.413H356.42C356.943 236.413 357.367 235.989 357.367 235.466C357.367 234.943 356.943 234.52 356.42 234.52Z" fill="white"/>
<path d="M345.468 234.676H334.751C334.228 234.676 333.805 235.1 333.805 235.622C333.805 236.145 334.228 236.569 334.751 236.569H345.468C345.991 236.569 346.415 236.145 346.415 235.622C346.415 235.1 345.991 234.676 345.468 234.676Z" fill="white"/>
<path d="M306.167 297.416L298.072 284.621L323.48 264.366L333.968 252.748C335.33 251.238 337.065 250.113 338.999 249.484C340.933 248.855 342.998 248.744 344.987 249.164C346.977 249.583 348.822 250.517 350.338 251.872C351.854 253.228 352.987 254.957 353.625 256.888C354.57 259.749 354.367 262.866 353.058 265.58C351.749 268.294 349.437 270.394 346.609 271.435L330.026 277.545L306.167 297.416Z" fill="#FFB6B6"/>
<path d="M116.236 204.637V266.827H159.804V204.637C159.805 204.19 159.662 203.754 159.397 203.394C159.132 203.034 158.758 202.768 158.331 202.636C158.129 202.57 157.918 202.537 157.706 202.539H118.34C118.064 202.539 117.791 202.592 117.536 202.698C117.281 202.803 117.049 202.957 116.854 203.152C116.658 203.347 116.503 203.578 116.397 203.833C116.291 204.088 116.237 204.361 116.236 204.637ZM133.239 226.006C133.25 224.78 133.745 223.608 134.616 222.745C135.487 221.882 136.664 221.398 137.89 221.398C139.116 221.398 140.292 221.882 141.163 222.745C142.034 223.608 142.529 224.78 142.541 226.006V233.222C142.534 234.451 142.042 235.628 141.17 236.495C140.299 237.362 139.119 237.849 137.89 237.849C136.66 237.849 135.481 237.362 134.61 236.495C133.738 235.628 133.245 234.451 133.239 233.222V226.006Z" fill="#2F2E41"/>
<path d="M116.103 264.84V270.837C116.104 271.147 116.227 271.445 116.446 271.665C116.665 271.886 116.962 272.011 117.273 272.013H158.767C159.078 272.012 159.375 271.887 159.595 271.667C159.814 271.446 159.937 271.148 159.937 270.837V264.84H116.103Z" fill="#3F3D56"/>
<path d="M47.6973 110.943V224.492C47.6984 225.939 48.2737 227.327 49.2969 228.35C50.3201 229.373 51.7076 229.948 53.1546 229.95H221.422C222.869 229.948 224.257 229.373 225.28 228.35C226.303 227.327 226.878 225.939 226.88 224.492V110.943C226.876 109.498 226.3 108.112 225.277 107.09C224.254 106.069 222.868 105.494 221.422 105.492H53.1546C51.7088 105.494 50.3227 106.069 49.2998 107.09C48.277 108.112 47.7007 109.498 47.6973 110.943Z" fill="#3F3D56"/>
<path d="M51.6445 112.356V223.092C51.6459 223.865 51.9536 224.606 52.5003 225.153C53.0469 225.699 53.788 226.007 54.5612 226.008H220.021C220.795 226.007 221.536 225.699 222.082 225.153C222.629 224.606 222.937 223.865 222.938 223.092V112.356C222.938 111.582 222.631 110.84 222.084 110.292C221.537 109.744 220.795 109.435 220.021 109.434H54.5612C53.7871 109.435 53.0453 109.744 52.4985 110.292C51.9517 110.84 51.6446 111.582 51.6445 112.356Z" fill="white"/>
<path d="M82.3516 271.604C82.52 271.815 82.7341 271.985 82.9777 272.102C83.2214 272.218 83.4883 272.278 83.7584 272.277H182.197C182.466 272.276 182.731 272.216 182.974 272.1C183.217 271.984 183.431 271.815 183.601 271.606C183.771 271.397 183.891 271.153 183.955 270.891C184.018 270.63 184.022 270.357 183.967 270.094L182.439 262.835C182.376 262.54 182.239 262.264 182.042 262.034C181.845 261.804 181.594 261.628 181.311 261.52C181.106 261.439 180.888 261.398 180.668 261.398H85.2804C85.0604 261.398 84.8424 261.439 84.6376 261.52C84.3548 261.628 84.1034 261.804 83.9064 262.034C83.7095 262.264 83.5731 262.54 83.5098 262.835L81.9817 270.094C81.9274 270.357 81.9323 270.629 81.9963 270.89C82.0603 271.152 82.1817 271.395 82.3516 271.604Z" fill="#2F2E41"/>
<path d="M214.652 124.688H59.8316C59.6707 124.685 59.5176 124.618 59.405 124.503C59.2925 124.388 59.2295 124.234 59.2295 124.073C59.2295 123.912 59.2925 123.757 59.405 123.642C59.5176 123.527 59.6707 123.461 59.8316 123.457H214.652C214.813 123.461 214.966 123.527 215.079 123.642C215.191 123.757 215.254 123.912 215.254 124.073C215.254 124.234 215.191 124.388 215.079 124.503C214.966 124.618 214.813 124.685 214.652 124.688Z" fill="#3F3D56"/>
<path d="M70.3709 120.311C72.3636 120.311 73.979 118.659 73.979 116.622C73.979 114.585 72.3636 112.934 70.3709 112.934C68.3781 112.934 66.7627 114.585 66.7627 116.622C66.7627 118.659 68.3781 120.311 70.3709 120.311Z" fill="#3F3D56"/>
<path d="M82.8357 120.311C84.8284 120.311 86.4439 118.659 86.4439 116.622C86.4439 114.585 84.8284 112.934 82.8357 112.934C80.843 112.934 79.2275 114.585 79.2275 116.622C79.2275 118.659 80.843 120.311 82.8357 120.311Z" fill="#3F3D56"/>
<path d="M95.2996 120.311C97.2923 120.311 98.9077 118.659 98.9077 116.622C98.9077 114.585 97.2923 112.934 95.2996 112.934C93.3068 112.934 91.6914 114.585 91.6914 116.622C91.6914 118.659 93.3068 120.311 95.2996 120.311Z" fill="#3F3D56"/>
<path d="M207.146 113.848H198.293C198.118 113.852 197.952 113.924 197.829 114.049C197.707 114.175 197.639 114.343 197.639 114.518C197.639 114.693 197.707 114.861 197.829 114.986C197.952 115.111 198.118 115.184 198.293 115.188H207.146C207.322 115.185 207.49 115.114 207.614 114.988C207.738 114.863 207.807 114.694 207.807 114.518C207.807 114.342 207.738 114.173 207.614 114.047C207.49 113.922 207.322 113.85 207.146 113.848Z" fill="#3F3D56"/>
<path d="M207.147 116.363H198.294C198.119 116.367 197.952 116.439 197.83 116.565C197.707 116.69 197.639 116.858 197.639 117.033C197.639 117.209 197.707 117.377 197.83 117.502C197.952 117.627 198.119 117.699 198.294 117.703H207.147C207.323 117.701 207.492 117.63 207.616 117.504C207.74 117.379 207.809 117.21 207.809 117.033C207.809 116.857 207.74 116.688 207.616 116.562C207.492 116.437 207.323 116.365 207.147 116.363Z" fill="#3F3D56"/>
<path d="M207.146 118.879H198.293C198.118 118.883 197.952 118.955 197.829 119.081C197.707 119.206 197.639 119.374 197.639 119.549C197.639 119.724 197.707 119.892 197.829 120.017C197.952 120.143 198.118 120.215 198.293 120.219H207.146C207.322 120.216 207.49 120.145 207.614 120.019C207.738 119.894 207.807 119.725 207.807 119.549C207.807 119.373 207.738 119.204 207.614 119.078C207.49 118.953 207.322 118.881 207.146 118.879Z" fill="#3F3D56"/>
<path d="M420.576 267.473C420.843 268.251 421.35 268.924 422.024 269.396C422.697 269.867 423.503 270.114 424.325 270.099L440.389 269.686C441.217 269.669 442.018 269.386 442.672 268.877C443.326 268.368 443.797 267.661 444.016 266.862L446.289 242.554C447.095 242.919 447.973 243.1 448.859 243.082C449.628 243.063 450.386 242.892 451.089 242.58C451.792 242.268 452.427 241.82 452.957 241.263C453.487 240.705 453.902 240.049 454.179 239.331C454.455 238.613 454.587 237.848 454.568 237.079C454.549 236.309 454.378 235.552 454.066 234.849C453.754 234.145 453.306 233.511 452.749 232.98C452.191 232.45 451.535 232.035 450.817 231.759C450.099 231.482 449.334 231.35 448.565 231.369C448.211 231.368 447.858 231.405 447.512 231.479C447.136 231.071 446.678 230.748 446.169 230.528C445.66 230.308 445.111 230.198 444.556 230.203L419.847 230.841C419.642 230.849 419.438 230.874 419.237 230.917C418.695 231.018 418.181 231.234 417.73 231.55C417.278 231.867 416.9 232.276 416.62 232.751C416.34 233.226 416.165 233.755 416.107 234.303C416.048 234.851 416.108 235.405 416.282 235.928L420.576 267.473ZM446.755 240.904L448.373 235.111C448.557 234.442 448.561 233.736 448.385 233.065C448.464 233.065 448.533 233.027 448.611 233.027C449.72 233.004 450.793 233.422 451.595 234.189C452.396 234.956 452.861 236.01 452.887 237.119C452.913 238.228 452.498 239.302 451.733 240.105C450.969 240.909 449.916 241.377 448.807 241.406C448.09 241.428 447.381 241.254 446.755 240.904Z" fill="#2F2E41"/>
<path d="M419.236 230.918C419.763 233.928 425.681 236.044 432.798 235.676C439.343 235.375 444.694 233.077 445.674 230.353C445.311 230.246 444.934 230.196 444.556 230.204L419.846 230.842C419.641 230.85 419.437 230.875 419.236 230.918Z" fill="#3F3D56"/>
<path d="M434.103 254.115C434.135 254.107 434.166 254.094 434.194 254.075L437.683 251.792C437.725 251.764 437.76 251.727 437.784 251.682C437.808 251.638 437.82 251.589 437.82 251.538C437.82 251.488 437.808 251.438 437.784 251.394C437.76 251.35 437.725 251.312 437.683 251.285L434.057 248.91C434.024 248.888 433.987 248.872 433.947 248.865C433.908 248.857 433.868 248.858 433.829 248.866C433.79 248.874 433.753 248.889 433.72 248.912C433.687 248.934 433.658 248.963 433.637 248.996C433.615 249.03 433.6 249.067 433.592 249.106C433.585 249.145 433.585 249.186 433.593 249.225C433.602 249.264 433.617 249.301 433.64 249.334C433.663 249.367 433.691 249.395 433.725 249.417L436.963 251.538L433.862 253.568C433.802 253.607 433.758 253.666 433.738 253.735C433.717 253.804 433.722 253.878 433.751 253.943C433.78 254.009 433.831 254.062 433.895 254.094C433.96 254.125 434.033 254.133 434.103 254.115H434.103Z" fill="#006E53"/>
<path d="M428.594 254.369C428.653 254.354 428.706 254.322 428.746 254.277C428.786 254.232 428.812 254.176 428.82 254.116C428.829 254.056 428.819 253.995 428.792 253.941C428.765 253.887 428.723 253.842 428.671 253.812L425.455 251.968L428.563 249.659C428.595 249.636 428.622 249.606 428.643 249.572C428.663 249.538 428.677 249.5 428.682 249.46C428.688 249.421 428.686 249.381 428.676 249.342C428.667 249.304 428.65 249.267 428.626 249.236C428.602 249.204 428.572 249.177 428.538 249.156C428.504 249.136 428.466 249.122 428.427 249.117C428.387 249.111 428.347 249.113 428.309 249.122C428.27 249.132 428.234 249.149 428.202 249.173L424.722 251.758C424.682 251.788 424.649 251.827 424.628 251.873C424.607 251.919 424.597 251.969 424.6 252.019C424.603 252.069 424.619 252.118 424.645 252.161C424.672 252.203 424.708 252.239 424.752 252.264L428.369 254.338C428.437 254.377 428.518 254.388 428.594 254.369Z" fill="#006E53"/>
<path d="M433.757 256.114C433.787 256.107 433.815 256.095 433.84 256.079C433.874 256.058 433.904 256.031 433.928 255.999C433.951 255.967 433.968 255.93 433.978 255.892C433.987 255.853 433.989 255.813 433.983 255.773C433.976 255.734 433.963 255.696 433.942 255.662L428.997 247.532C428.955 247.463 428.887 247.414 428.809 247.395C428.731 247.376 428.649 247.389 428.58 247.431C428.511 247.473 428.462 247.54 428.443 247.618C428.424 247.696 428.437 247.779 428.479 247.847L433.424 255.978C433.458 256.033 433.508 256.076 433.568 256.101C433.628 256.125 433.694 256.13 433.757 256.114Z" fill="#006E53"/>
<path d="M155.74 158.156H128.944C127.851 158.156 126.965 159.042 126.965 160.136V162.753C126.965 163.847 127.851 164.733 128.944 164.733H155.74C156.833 164.733 157.719 163.847 157.719 162.753V160.136C157.719 159.042 156.833 158.156 155.74 158.156Z" fill="#006E53"/>
<path d="M171.359 171.309H113.325C112.232 171.309 111.346 172.195 111.346 173.288V175.906C111.346 176.999 112.232 177.885 113.325 177.885H171.359C172.453 177.885 173.339 176.999 173.339 175.906V173.288C173.339 172.195 172.453 171.309 171.359 171.309Z" fill="#E6E6E6"/>
<path d="M171.359 184.465H113.325C112.232 184.465 111.346 185.351 111.346 186.444V189.062C111.346 190.155 112.232 191.041 113.325 191.041H171.359C172.453 191.041 173.339 190.155 173.339 189.062V186.444C173.339 185.351 172.453 184.465 171.359 184.465Z" fill="#E6E6E6"/>
<path d="M176.279 228.507L176.411 228.922L176.418 228.936L180.374 240.966L184.926 254.828L193.489 280.878L193.572 284.925V284.939L194.209 317.491L192.445 321.904L194.43 329.14C194.43 329.14 193.517 318.203 188.62 324.484C185.846 328.053 182.602 331.705 179.939 335.129C183.819 336.7 187.762 338.12 191.767 339.39C192.632 339.667 193.503 339.93 194.375 340.193C194.562 340.248 194.748 340.304 194.935 340.359C208.212 344.285 221.937 346.491 235.775 346.923C236.494 346.944 237.2 346.958 237.885 346.972C238.127 346.979 238.362 346.986 238.597 346.986C239.372 346.993 240.14 346.999 240.914 346.999C242.478 346.999 244.034 346.976 245.583 346.93C257.052 346.607 268.453 345.065 279.596 342.33C279.52 337.73 279.312 332.356 279.015 326.614C278.876 323.799 275.77 320.748 275.584 317.802C275.452 315.588 278.24 313.506 278.095 311.258C277.154 297.416 275.978 302.73 275.106 292.928C275.016 291.967 274.933 291.047 274.857 290.168C274.297 283.873 273.91 279.937 273.91 279.937L277.631 256.481L283.476 219.653L283.027 218.913L282.522 218.664L251.691 203.405L250.017 199.116C249.53 197.88 248.683 196.819 247.588 196.068C246.492 195.318 245.196 194.912 243.868 194.903L223.559 194.82C222.505 194.816 221.465 195.062 220.525 195.54C219.586 196.017 218.774 196.712 218.156 197.567L212.657 205.182L176.279 228.507Z" fill="#3F3D56"/>
<path d="M198.173 275.081L193.573 284.925L190.433 291.648L185.03 319.933L182.326 322.804L180.008 312.641L155.755 318.026C154.959 313.606 155.542 318.176 155.051 313.327C155.189 313.188 155.334 313.05 155.48 312.912C155.867 312.552 156.192 312.213 156.185 311.888C155.909 295.162 156.739 266.697 163.67 249.453C164.755 246.637 166.187 243.967 167.931 241.505C168.069 241.318 168.201 241.131 168.332 240.945C171.528 236.469 173.548 232.063 176.411 228.929V228.922C176.429 228.908 176.445 228.892 176.46 228.874C176.47 228.869 176.48 228.862 176.487 228.853L196.16 218.422L197.004 242.134L197.606 259.178L198.173 275.081Z" fill="#3F3D56"/>
<path d="M269.108 277.877L274.854 290.172L276.86 294.453L282.261 322.735L284.956 325.599L287.279 315.439L288.37 315.215L308.052 311.139L313.789 329.358C315.082 327.204 315.591 324.669 315.231 322.182C314.871 319.696 313.663 317.41 311.811 315.711C311.42 315.357 311.093 315.012 311.102 314.685C311.429 295.013 310.226 259.091 299.359 244.306C295.907 239.614 293.837 234.941 290.824 231.676C290.814 231.667 290.814 231.658 290.805 231.658L283.473 219.653L283.026 218.916L282.522 218.664L269.108 277.877Z" fill="#3F3D56"/>
<path d="M234.3 189.042C249.222 189.042 261.319 176.945 261.319 162.023C261.319 147.101 249.222 135.004 234.3 135.004C219.378 135.004 207.281 147.101 207.281 162.023C207.281 176.945 219.378 189.042 234.3 189.042Z" fill="#FFB6B6"/>
<path d="M270.819 143.152C270.609 142.928 270.357 142.749 270.077 142.625C269.796 142.501 269.494 142.435 269.188 142.43L269.594 141.303C269.727 140.947 269.762 140.563 269.698 140.19C269.633 139.816 269.47 139.466 269.226 139.176C268.981 138.886 268.664 138.666 268.307 138.539C267.95 138.412 267.565 138.382 267.193 138.453L265.713 138.738L265.853 137.749C265.906 137.381 265.863 137.005 265.727 136.659C265.591 136.313 265.368 136.008 265.078 135.774C264.789 135.54 264.444 135.386 264.077 135.326C263.71 135.266 263.333 135.303 262.985 135.433C262.667 135.558 262.326 135.61 261.986 135.586C261.646 135.562 261.316 135.462 261.02 135.293C260.722 135.13 260.464 134.904 260.263 134.631C260.062 134.357 259.923 134.043 259.856 133.711L259.34 131.225L259.286 131.091C256.775 126.907 251.949 123.863 246.043 122.748C240.785 121.747 235.395 122.256 230.198 122.735C228.136 122.93 225.808 123.148 223.868 124.336C222.218 125.355 220.824 127.392 221.109 129.448C215.985 127.878 210.491 131.012 207.768 134.966C204.543 139.671 204.015 145.565 203.93 150.174C203.7 161.076 205.949 169.996 210.6 176.69C210.94 177.175 211.025 178.188 211.698 178.528L211.558 178.303C212.31 178.679 213.074 179.286 212.789 179.934C211.971 181.802 217.41 185.931 221.242 187.296C228.233 189.788 237.529 189.576 244.066 188.678L244.296 187.132C246.655 186.811 248.316 186.198 248.783 185.24C249.608 184.537 250.311 183.906 250.924 183.324L250.93 183.318C250.942 183.306 250.966 183.288 250.978 183.275C253.931 180.444 254.617 178.831 254.926 176.375C255.223 173.968 254.695 171.524 254.156 169.323C265.519 171.081 249.681 157.22 260.268 154.54C260.389 154.502 260.513 154.472 260.638 154.449C260.947 154.376 261.256 154.303 261.553 154.218C262.986 153.83 264.357 153.244 265.628 152.478C268.587 150.677 269.564 148.288 271.092 145.596C271.312 145.212 271.405 144.769 271.356 144.329C271.306 143.89 271.118 143.477 270.819 143.152Z" fill="#2F2E41"/>
<path d="M329.861 279.803C329.855 280.864 329.843 282.35 329.795 284.187C329.789 284.442 329.782 284.702 329.776 284.969C329.698 288.347 329.619 291.178 329.491 294.325C329.485 294.544 329.479 294.756 329.467 294.974C329.297 299.364 329.031 304.476 328.57 312.571C327.715 327.524 326.223 314.627 324.725 319.872C324.653 320.133 324.574 320.442 324.501 320.806C324.274 322.126 323.892 323.414 323.361 324.644C322.567 325.117 321.748 325.572 320.942 326.026C318.643 327.306 316.309 328.537 313.956 329.707C312.634 330.362 311.306 331.005 309.972 331.623C309.76 331.72 309.554 331.817 309.348 331.908C302.517 335.068 295.476 337.755 288.276 339.949C286.87 340.373 285.469 340.785 284.05 341.167C282.571 341.58 281.091 341.968 279.593 342.332C268.451 345.067 257.05 346.61 245.582 346.934C244.036 346.983 242.477 347.001 240.913 347.001C240.137 347.001 239.373 346.995 238.597 346.989C238.36 346.989 238.124 346.983 237.887 346.977C237.202 346.958 236.492 346.946 235.777 346.928C221.939 346.496 208.214 344.289 194.938 340.361L194.374 340.197C193.501 339.931 192.634 339.67 191.767 339.391C187.765 338.124 183.821 336.705 179.936 335.134C176.971 333.94 174.04 332.658 171.144 331.29C171.118 331.283 171.093 331.27 171.071 331.253C170.465 330.974 169.852 330.683 169.246 330.386C169.167 330.344 169.082 330.301 168.997 330.259C166.736 329.155 164.498 327.999 162.285 326.79C160.423 322.516 157.804 321.697 156.179 317.937C155.706 316.821 155.364 315.653 155.16 314.457C155.16 314.445 155.154 314.433 155.154 314.414C155.324 316.67 154.432 310.412 155.148 314.39C155.142 314.317 155.136 314.239 155.13 314.148C155.112 313.929 155.087 313.663 155.051 313.329C152.971 293.022 153.104 269.798 152.201 250.661C152.14 249.424 152.078 248.239 152.013 247.107C151.995 246.731 151.971 246.362 151.946 245.998C151.989 245.889 152.037 245.773 152.092 245.664C152.103 245.633 152.118 245.602 152.134 245.573C152.152 245.536 152.172 245.499 152.195 245.464C152.207 245.446 152.225 245.422 152.237 245.403C152.246 245.383 152.256 245.362 152.268 245.343C152.322 245.258 152.383 245.167 152.45 245.082C152.48 245.046 152.504 245.015 152.534 244.985C152.555 244.954 152.58 244.926 152.607 244.9C152.626 244.871 152.648 244.845 152.674 244.821C152.698 244.797 152.722 244.767 152.753 244.737C152.766 244.717 152.782 244.701 152.801 244.688C152.849 244.633 152.902 244.582 152.959 244.536C153.175 244.337 153.406 244.155 153.65 243.991C153.735 243.936 153.826 243.882 153.911 243.821C154.522 243.455 155.165 243.147 155.833 242.899C156.064 242.814 156.294 242.735 156.543 242.651C156.634 242.626 156.718 242.596 156.809 242.566C156.943 242.523 157.076 242.481 157.216 242.45C157.907 242.244 158.653 242.068 159.459 241.905C159.556 241.887 159.659 241.868 159.762 241.844C159.908 241.814 160.06 241.79 160.211 241.765C160.417 241.729 160.629 241.693 160.842 241.656C162.643 241.371 164.686 241.159 166.942 241.019C167.154 241.007 167.366 240.995 167.579 240.983C167.827 240.971 168.076 240.959 168.33 240.947C168.543 240.935 168.761 240.928 168.979 240.922C169.191 240.91 169.41 240.904 169.634 240.898C170.247 240.88 170.877 240.862 171.52 240.85C173.351 240.813 175.279 240.825 177.305 240.868C178.245 240.892 179.203 240.916 180.185 240.959C180.252 240.959 180.312 240.965 180.373 240.965C181.228 240.995 182.089 241.032 182.974 241.08C183.593 241.11 184.217 241.141 184.842 241.177C185.43 241.214 186.024 241.25 186.625 241.292C187.091 241.317 187.558 241.353 188.031 241.383C188.432 241.414 188.832 241.444 189.232 241.468L189.778 241.505C190.075 241.529 190.372 241.547 190.675 241.577C191.342 241.632 192.009 241.686 192.688 241.741C193.361 241.802 194.047 241.862 194.732 241.923C195.417 241.984 196.108 242.05 196.799 242.117C196.872 242.123 196.939 242.129 197.006 242.135C197.636 242.202 198.267 242.263 198.904 242.329C199.049 242.341 199.201 242.353 199.346 242.372C199.953 242.433 200.572 242.504 201.185 242.569C201.373 242.589 201.56 242.609 201.748 242.63C202.228 242.682 202.701 242.727 203.184 242.784C203.821 242.857 204.47 242.923 205.101 243.008C205.592 243.063 206.083 243.118 206.574 243.178C207.344 243.269 208.126 243.366 208.909 243.469C209.206 243.506 209.503 243.542 209.8 243.584C212.031 243.863 214.287 244.173 216.579 244.494C220.054 244.985 223.583 245.519 227.136 246.095C230.696 246.671 234.275 247.279 237.875 247.92C238.784 248.084 239.694 248.247 240.61 248.417C241.022 248.496 241.434 248.575 241.847 248.654C242.55 248.781 243.253 248.914 243.957 249.048C244.66 249.181 245.364 249.315 246.067 249.454C246.904 249.618 247.747 249.781 248.583 249.945C254.095 251.037 259.577 252.201 264.925 253.42C265.804 253.62 266.684 253.826 267.557 254.026C269.303 254.432 271.033 254.845 272.747 255.263C273.22 255.372 273.687 255.487 274.154 255.603C275.318 255.894 276.483 256.185 277.629 256.482L277.829 256.536C278.672 256.743 279.496 256.955 280.321 257.173C282.267 257.682 284.181 258.198 286.063 258.719C287.312 259.065 288.547 259.415 289.768 259.768C291.593 260.296 293.382 260.83 295.122 261.369C295.553 261.503 295.983 261.636 296.408 261.763C297.681 262.157 298.936 262.558 300.155 262.958C301.125 263.273 302.071 263.595 303.005 263.916C303.939 264.237 304.855 264.559 305.752 264.88C306.328 265.086 306.898 265.305 307.468 265.511C308.287 265.814 309.093 266.117 309.881 266.42C310.124 266.511 310.36 266.608 310.597 266.699C310.748 266.766 310.894 266.82 311.04 266.881C311.325 266.996 311.616 267.105 311.895 267.221C312.18 267.33 312.458 267.445 312.737 267.566C313.01 267.675 313.289 267.791 313.556 267.906C313.829 268.015 314.096 268.13 314.362 268.251C314.587 268.342 314.805 268.439 315.017 268.537C315.448 268.724 315.878 268.912 316.297 269.106C316.503 269.204 316.709 269.294 316.915 269.391L317.388 269.61C317.455 269.646 317.522 269.676 317.588 269.707C317.74 269.78 317.898 269.858 318.049 269.931C318.401 270.095 318.747 270.271 319.086 270.434C319.541 270.665 319.983 270.895 320.408 271.12C320.838 271.35 321.257 271.58 321.657 271.805C321.724 271.841 321.784 271.878 321.851 271.914C321.942 271.962 322.033 272.017 322.124 272.066C322.433 272.241 322.73 272.423 323.027 272.599C323.61 272.957 324.161 273.309 324.677 273.66C324.792 273.739 324.901 273.818 325.016 273.891C325.398 274.164 325.762 274.43 326.102 274.703C326.102 274.709 326.102 274.709 326.108 274.709C326.223 274.794 326.332 274.885 326.441 274.97C326.532 275.055 326.629 275.128 326.72 275.213C327.036 275.485 327.327 275.746 327.593 276.013C327.683 276.095 327.768 276.182 327.848 276.274C327.883 276.303 327.916 276.335 327.945 276.371C328.066 276.492 328.176 276.613 328.279 276.735C328.295 276.751 328.309 276.77 328.321 276.789C328.467 276.959 328.6 277.129 328.727 277.299C328.788 277.383 328.855 277.468 328.909 277.553C328.982 277.656 329.055 277.765 329.115 277.869C329.17 277.953 329.219 278.044 329.267 278.129C329.396 278.348 329.505 278.577 329.594 278.814C329.663 278.975 329.717 279.142 329.758 279.312C329.804 279.473 329.839 279.637 329.861 279.803Z" fill="#2F2E41"/>
<path opacity="0.2" d="M329.862 279.802C329.855 280.863 329.843 282.349 329.795 284.186C329.789 284.441 329.777 284.702 329.771 284.968C329.71 287.545 329.619 290.729 329.492 294.325C329.486 294.543 329.48 294.755 329.467 294.973C329.298 299.364 329.031 304.475 328.57 312.57C327.715 327.523 326.223 314.626 324.726 319.871C320.566 317.312 316.006 314.632 311.131 311.879C310.252 311.382 309.364 310.883 308.469 310.381C298.718 304.942 287.828 299.242 276.459 293.597C276.01 293.373 275.555 293.148 275.106 292.93C249.063 280.057 220.636 267.535 197.606 259.179C193.161 257.567 188.917 256.111 184.927 254.832C176.523 252.146 169.258 250.266 163.668 249.453C157.846 248.604 153.826 248.908 152.201 250.66C152.141 249.423 152.078 248.239 152.013 247.107C151.989 246.731 151.965 246.361 151.94 245.997C151.978 245.897 152.026 245.802 152.074 245.706C152.08 245.692 152.085 245.677 152.092 245.663C152.104 245.632 152.118 245.602 152.134 245.572C152.152 245.535 152.173 245.498 152.195 245.463C152.215 245.42 152.239 245.38 152.268 245.342C152.322 245.257 152.383 245.166 152.45 245.081C152.499 245.018 152.551 244.957 152.607 244.899C152.626 244.87 152.648 244.844 152.674 244.821C152.698 244.796 152.723 244.766 152.753 244.736C152.766 244.717 152.782 244.7 152.801 244.687C152.849 244.632 152.902 244.581 152.959 244.536C153.175 244.337 153.407 244.154 153.65 243.99C153.735 243.935 153.826 243.881 153.911 243.82C154.522 243.455 155.166 243.146 155.833 242.898C156.064 242.814 156.294 242.735 156.543 242.65C156.634 242.626 156.719 242.595 156.81 242.565C156.943 242.522 157.076 242.48 157.216 242.45C157.907 242.244 158.653 242.068 159.459 241.904C159.702 241.855 159.957 241.807 160.211 241.765C160.417 241.728 160.63 241.692 160.842 241.655C162.643 241.37 164.686 241.158 166.942 241.019C167.154 241.007 167.366 240.994 167.579 240.982C167.827 240.97 168.076 240.958 168.331 240.946C168.543 240.934 168.761 240.928 168.979 240.922C169.192 240.91 169.41 240.903 169.634 240.897C170.247 240.879 170.877 240.861 171.52 240.849C173.351 240.819 175.28 240.831 177.305 240.873C178.245 240.891 179.203 240.922 180.185 240.964C180.246 240.964 180.312 240.97 180.373 240.97C181.228 240.994 182.095 241.037 182.974 241.079C183.593 241.11 184.218 241.14 184.842 241.176C185.43 241.213 186.024 241.249 186.625 241.292C187.092 241.316 187.559 241.352 188.032 241.382C188.432 241.413 188.832 241.443 189.232 241.467C189.711 241.504 190.19 241.54 190.675 241.577C191.342 241.631 192.009 241.686 192.688 241.74C193.362 241.801 194.047 241.861 194.732 241.922C195.417 241.983 196.108 242.049 196.8 242.116C196.872 242.122 196.939 242.128 197.006 242.134C197.636 242.201 198.267 242.262 198.904 242.328C202.433 242.686 206.065 243.105 209.8 243.584C212.032 243.869 214.291 244.174 216.579 244.499C220.054 244.99 223.583 245.524 227.136 246.094C230.696 246.67 234.275 247.278 237.875 247.919C238.785 248.083 239.694 248.247 240.61 248.416C241.726 248.623 242.841 248.833 243.957 249.047C244.66 249.18 245.364 249.314 246.067 249.453C246.904 249.617 247.747 249.781 248.584 249.944C254.096 251.036 259.577 252.2 264.925 253.419C265.805 253.619 266.684 253.825 267.557 254.025C269.303 254.432 271.034 254.844 272.748 255.262C273.22 255.377 273.687 255.493 274.154 255.608C275.325 255.899 276.483 256.19 277.629 256.481V256.487C277.695 256.499 277.762 256.517 277.829 256.536C278.666 256.748 279.496 256.96 280.321 257.178C282.268 257.688 284.182 258.201 286.063 258.719C287.313 259.07 288.55 259.416 289.768 259.768C291.594 260.301 293.382 260.835 295.123 261.368C295.553 261.502 295.984 261.635 296.408 261.763C297.681 262.163 298.931 262.561 300.155 262.957C301.126 263.272 302.072 263.594 303.005 263.915C303.939 264.237 304.855 264.558 305.752 264.879C306.334 265.085 306.904 265.298 307.468 265.504C308.293 265.807 309.093 266.11 309.882 266.419C310.124 266.51 310.361 266.607 310.597 266.698C311.04 266.868 311.47 267.044 311.895 267.22C312.18 267.329 312.459 267.444 312.738 267.566C313.01 267.675 313.289 267.79 313.556 267.905C313.829 268.014 314.096 268.129 314.363 268.251C314.587 268.342 314.805 268.439 315.018 268.536C315.448 268.724 315.879 268.912 316.297 269.106C316.503 269.203 316.709 269.294 316.916 269.391L317.388 269.609C317.455 269.645 317.522 269.676 317.589 269.706C318.104 269.949 318.601 270.191 319.086 270.434C319.541 270.664 319.984 270.895 320.408 271.119C320.912 271.386 321.391 271.646 321.851 271.913C321.942 271.962 322.033 272.016 322.124 272.065C322.433 272.241 322.731 272.423 323.028 272.598C323.61 272.956 324.162 273.308 324.677 273.66C325.186 274.011 325.659 274.357 326.102 274.702C326.102 274.709 326.102 274.709 326.108 274.709C326.32 274.878 326.526 275.048 326.721 275.212C327.036 275.485 327.327 275.745 327.594 276.012C327.683 276.095 327.768 276.182 327.848 276.273C327.884 276.302 327.916 276.335 327.945 276.37C328.073 276.509 328.2 276.649 328.321 276.788C328.467 276.958 328.6 277.128 328.728 277.298C328.788 277.383 328.855 277.468 328.91 277.552C328.982 277.655 329.055 277.765 329.116 277.868C329.17 277.953 329.219 278.044 329.267 278.128C329.396 278.347 329.506 278.576 329.595 278.814C329.661 278.975 329.716 279.141 329.758 279.311C329.804 279.472 329.839 279.636 329.862 279.802Z" fill="black"/>
</g>
<defs>
<clipPath id="clip0_172_2726">
<rect width="477.104" height="347" fill="white"/>
</clipPath>
</defs>
</svg>
