<svg width="318" height="242" viewBox="0 0 318 242" fill="none" xmlns="http://www.w3.org/2000/svg">
<g clip-path="url(#clip0_100_6457)">
<path d="M294.224 219.627C283.805 227.562 271.111 235.599 258.631 239.389C255.034 240.514 251.321 241.232 247.563 241.53C244.05 241.813 240.515 241.538 237.087 240.717C228.08 238.477 219.726 234.554 211.642 229.97C209.001 228.47 206.391 226.901 203.796 225.299C199.559 222.68 195.365 219.971 191.159 217.326C190.53 216.925 189.904 216.532 189.274 216.143H189.27C188.255 215.505 187.237 214.877 186.217 214.257C186.038 214.147 185.858 214.04 185.675 213.929C183.748 212.761 181.787 211.62 179.794 210.506C179.549 210.372 179.305 210.235 179.061 210.101C175.204 207.962 171.24 206.022 167.184 204.289C164.52 203.167 161.822 202.155 159.097 201.293H159.093C158.051 200.964 157.005 200.655 155.956 200.373C152.809 199.509 149.602 198.882 146.361 198.495C141.896 197.955 137.379 197.991 132.923 198.602C132.622 198.644 132.324 198.686 132.022 198.736C119.962 200.667 108.955 207.178 96.8419 208.712C96.4488 208.762 96.0595 208.807 95.6664 208.842C95.4985 208.857 95.3306 208.876 95.1626 208.888C91.6424 209.189 88.0997 209.102 84.5985 208.628C74.8168 207.338 65.2908 203.335 56.7151 198.289C36.667 186.492 20.4087 168.36 10.5239 147.362C8.82649 143.763 7.31944 140.077 6.009 136.32C2.34512 125.902 0.32741 114.977 0.0285143 103.937C-0.898897 65.6349 20.8666 27.2064 55.0397 9.88331C89.2165 -7.43983 134.175 -1.71125 161.738 24.9013C178.458 41.0451 188.133 62.9213 200.716 82.4657C213.299 102.006 231.183 120.673 254.25 123.52C266.001 124.97 278.298 122.165 289.56 125.814C295.797 127.836 301.117 131.706 305.403 136.637C308.284 139.983 310.695 143.707 312.57 147.705C313.944 150.595 315.059 153.602 315.902 156.689C316.058 157.258 316.203 157.826 316.345 158.395C321.955 181.309 312.99 205.331 294.224 219.627Z" fill="#F2F2F2"/>
<path d="M106.544 178.146H70.6689C65.294 178.146 60.9368 182.503 60.9368 187.878V187.878C60.9368 193.253 65.294 197.61 70.6689 197.61H106.544C111.919 197.61 116.276 193.253 116.276 187.878C116.276 182.503 111.919 178.146 106.544 178.146Z" fill="#3F3D56"/>
<path d="M95.6672 192.648V208.842C91.9821 209.198 88.268 209.126 84.5994 208.628V192.648H95.6672Z" fill="#3F3D56"/>
<path d="M132.924 198.603C132.622 198.645 132.325 198.687 132.023 198.736C119.963 200.668 108.956 207.178 96.8427 208.713C96.4496 208.762 96.0603 208.808 95.6672 208.842C95.4992 208.858 95.3313 208.877 95.1634 208.888C92.2056 205.992 89.2478 202.908 86.4694 199.713C84.9619 197.985 83.504 196.221 82.1338 194.435C78.5768 189.825 75.5618 185.085 73.5696 180.429C73.7718 178.196 72.3826 173.032 71.7186 169.078L71.7147 169.074C71.4323 167.414 71.2797 165.972 71.4209 165.044C72.23 159.693 76.5999 160.308 77.9433 155.064C79.1551 154.058 80.4454 153.151 81.8018 152.351C82.0269 152.217 82.2559 152.083 82.4926 151.95L97.0716 141.874L102.644 147.339L111.124 155.659L120.314 164.67L112.513 172.551C112.513 172.551 119.032 180.066 126.653 190.084C128.699 192.775 130.825 195.649 132.924 198.603Z" fill="#2F2E41"/>
<path d="M258.632 192.648V239.389C255.034 240.514 251.322 241.232 247.564 241.53V192.648H258.632Z" fill="#3F3D56"/>
<path d="M272.943 188.833H237.068C231.693 188.833 227.336 193.19 227.336 198.565V198.565C227.336 203.94 231.693 208.297 237.068 208.297H272.943C278.318 208.297 282.676 203.94 282.676 198.565C282.676 193.19 278.318 188.833 272.943 188.833Z" fill="#3F3D56"/>
<path d="M185.675 213.93C183.748 212.762 181.788 211.621 179.794 210.507C179.55 210.373 179.306 210.236 179.061 210.102L180.374 209.541L183.916 208.018L183.95 208.003L183.988 208.133L185.675 213.93Z" fill="#FFB6B6"/>
<path d="M191.16 217.325C190.53 216.924 189.904 216.531 189.274 216.142H189.27C188.255 215.505 187.238 214.876 186.217 214.257C186.038 214.146 185.858 214.039 185.675 213.928C183.748 212.761 181.787 211.619 179.794 210.505C179.55 210.371 179.306 210.234 179.061 210.1C175.204 207.961 171.24 206.021 167.184 204.288C164.52 203.166 161.822 202.154 159.097 201.292H159.093L156.952 197.708L147.316 181.568L145.197 178.023C145.197 178.023 137.973 180.16 127.748 182.209C124.027 182.957 119.913 183.69 115.597 184.308C110.982 184.965 106.143 185.488 101.334 185.74C99.0405 185.862 96.7544 185.923 94.5027 185.904C88.6825 185.866 83.0913 185.32 78.1947 184.022C76.5613 182.488 71.638 180.4 68.1115 178.488H68.1077C66.6269 177.687 65.398 176.92 64.753 176.237C61.0357 172.306 64.211 169.241 60.9059 164.951C60.8614 163.377 60.9418 161.803 61.1464 160.242C61.1807 159.982 61.2151 159.719 61.2571 159.452L62.299 141.758L70.0388 140.735L81.8166 139.178L94.5752 137.491L95.9797 148.491C95.9797 148.491 105.914 147.987 118.501 148.155C138.717 148.429 165.768 150.445 169.432 159.093C169.776 159.906 170.119 160.726 170.463 161.547C171.279 163.508 172.088 165.48 172.89 167.462C175.794 174.637 178.565 181.881 181.095 188.728C182.668 192.987 184.149 197.094 185.511 200.937C186.607 204.028 187.622 206.952 188.549 209.642C189.396 212.1 190.163 214.363 190.847 216.394C190.953 216.711 191.057 217.024 191.16 217.325Z" fill="#2F2E41"/>
<path d="M119.961 110.124L95.5139 89.3615L111.419 73.2646L122.516 91.44L163.648 99.5948C164.885 98.664 166.365 98.1131 167.91 98.0094C169.454 97.9057 170.996 98.2536 172.346 99.0107C173.696 99.7678 174.796 100.901 175.514 102.273C176.231 103.645 176.533 105.196 176.384 106.737C176.235 108.277 175.64 109.741 174.674 110.95C173.707 112.159 172.409 113.06 170.939 113.545C169.469 114.029 167.889 114.074 166.393 113.676C164.897 113.278 163.55 112.454 162.514 111.303L119.961 110.124Z" fill="#A0616A"/>
<path d="M73.9076 62.0766C71.0823 71.2678 97.9896 93.1888 97.9896 93.1888C98.2886 90.9822 113.544 110.009 114.582 108.286C117.532 103.389 120.778 91.283 124.183 89.7358C126.131 88.8509 114.958 76.5522 114.958 76.5522C114.958 76.5522 109.259 69.0123 101.735 59.4564C99.6574 56.7154 96.9205 54.5444 93.7786 53.1457C90.6366 51.7469 87.1919 51.1659 83.765 51.4566C83.765 51.4566 76.7328 52.8855 73.9076 62.0766Z" fill="#3F3D56"/>
<path d="M85.8052 41.7291C94.937 41.7291 102.34 34.3263 102.34 25.1944C102.34 16.0626 94.937 8.65979 85.8052 8.65979C76.6733 8.65979 69.2705 16.0626 69.2705 25.1944C69.2705 34.3263 76.6733 41.7291 85.8052 41.7291Z" fill="#A0616A"/>
<path d="M94.0722 52.6565C97.6344 54.7742 99.7653 58.6653 100.989 62.6247C103.253 69.9552 104.616 77.5343 105.048 85.1944L106.34 108.128L122.341 156.959C108.473 168.693 56.3465 159.626 56.3465 159.626C56.3465 159.626 54.7463 159.092 56.3465 157.492C57.9466 155.892 59.5043 157.31 57.9042 155.71C56.3041 154.109 57.4071 155.892 57.9405 154.292C58.4739 152.692 57.9405 153.759 57.4072 153.225C56.8738 152.692 61.5363 147.891 61.5363 147.891L57.2693 119.862L51.9355 63.324C58.3361 55.3233 71.2083 50.607 71.2083 50.607L74.5344 44.6202L91.1645 45.9506L94.0722 52.6565Z" fill="#3F3D56"/>
<path d="M99.4352 16.4098C100.72 17.3683 101.672 18.7058 102.157 20.2338C102.344 17.7366 102.356 15.2295 102.193 12.7307C101.998 10.9748 100.762 10.5799 99.3302 10.1222C98.0375 9.70873 96.5756 9.24166 96.1822 7.53708C90.9847 2.4808 81.9368 2.73576 75.7447 4.49947C72.3375 5.47001 70.3769 6.71695 70.2015 7.44742L70.1651 7.59779L70.0268 7.66698C67.4004 8.98017 66.8891 13.127 66.9229 16.3744C66.9869 22.4928 69.0994 29.4418 70.2895 30.0063C70.3525 30.0361 70.3684 30.0245 70.3957 30.0017C72.1877 28.5696 74.374 30.1106 75.3347 30.9482C75.9014 27.1455 77.7261 23.6424 80.5172 20.9984C83.3084 18.3544 86.9051 16.7219 90.7329 16.3618C91.983 16.241 93.223 16.033 94.4441 15.7395C95.0635 15.5792 95.7003 15.4957 96.34 15.4907C97.4414 15.474 98.5215 15.7947 99.4352 16.4098Z" fill="#2F2E41"/>
<path d="M78.6007 135.036L73.5427 132.446C73.2717 132.253 73.0792 131.969 73.0004 131.645C72.9216 131.322 72.9617 130.981 73.1133 130.685C73.265 130.389 73.5182 130.157 73.8266 130.032C74.135 129.907 74.4781 129.897 74.7931 130.004L79.8511 132.595C80.1221 132.788 80.3146 133.072 80.3934 133.395C80.4722 133.719 80.4321 134.059 80.2805 134.356C80.1288 134.652 79.8756 134.884 79.5672 135.009C79.2588 135.133 78.9157 135.143 78.6007 135.036L78.6007 135.036Z" fill="#004D7E"/>
<path d="M61.5778 128.098L53.2573 97.1225L75.4918 92.9135L74.2961 114.175L103.51 144.256C105.057 144.193 106.589 144.581 107.918 145.373C109.248 146.165 110.319 147.327 111 148.717C111.681 150.108 111.942 151.666 111.753 153.202C111.563 154.738 110.931 156.186 109.933 157.369C108.935 158.553 107.614 159.42 106.132 159.865C104.649 160.311 103.069 160.315 101.584 159.878C100.099 159.441 98.7735 158.581 97.7687 157.404C96.7638 156.226 96.1233 154.782 95.9252 153.247L61.5778 128.098Z" fill="#A0616A"/>
<path d="M50.9821 62.3897C43.435 68.3479 53.1218 101.675 53.1218 101.675C54.6216 100.029 56.3644 124.355 58.1975 123.526C63.4076 121.172 72.957 113.055 76.6384 113.716C78.7438 114.095 76.538 97.6261 76.538 97.6261C76.538 97.6261 76.1323 88.1834 75.3698 76.0445C75.2179 72.6086 74.1992 69.267 72.4084 66.3308C70.6177 63.3946 68.1131 60.9592 65.128 59.2513C65.128 59.2513 58.5293 56.4316 50.9821 62.3897Z" fill="#3F3D56"/>
<path d="M312.57 147.704L10.5237 147.361C8.82628 143.762 7.31923 140.077 6.00879 136.32L305.403 136.636C308.284 139.982 310.695 143.706 312.57 147.704Z" fill="#3F3D56"/>
<path d="M216.367 227.783C214.806 228.539 213.231 229.268 211.642 229.97C209.001 228.47 206.391 226.902 203.796 225.299L213.421 221.07L216.367 227.783Z" fill="#FFB6B6"/>
<path d="M286.545 175.192C284.981 177.291 283.366 179.348 281.702 181.364C280.168 183.222 278.593 185.045 276.977 186.833C276.309 187.573 275.634 188.31 274.943 189.039C273.672 190.401 272.373 191.741 271.046 193.057C268.657 193.809 263.818 195.133 258.631 196.37C254.857 197.267 250.899 198.118 247.563 198.66C245.696 198.995 243.807 199.197 241.911 199.263C239.659 199.282 237.373 199.221 235.08 199.099C232.492 198.961 229.901 198.748 227.34 198.473C220.68 197.775 214.23 196.687 208.666 195.569C206.628 195.164 204.712 194.752 202.948 194.351C199.609 193.599 196.815 192.897 194.793 192.363C192.514 191.767 191.217 191.382 191.217 191.382L185.511 200.938L182.549 205.896L180.374 209.541L179.794 210.506C179.549 210.373 179.305 210.235 179.061 210.102C175.204 207.962 171.24 206.022 167.184 204.289C164.52 203.167 161.822 202.156 159.097 201.293H159.093C158.051 200.965 157.005 200.656 155.956 200.374C156.284 199.492 156.616 198.604 156.952 197.71C157.578 196.042 158.216 194.359 158.868 192.66C160.276 188.981 161.734 185.249 163.234 181.535C164.463 178.486 165.715 175.448 166.982 172.452C167.566 171.07 168.753 169.857 170.413 168.792C171.206 168.292 172.034 167.848 172.89 167.464C177.641 165.3 184.641 163.892 192.354 162.987C192.991 162.915 193.632 162.842 194.277 162.773C200.662 162.102 207.437 161.754 213.772 161.594C216.944 161.514 220.005 161.483 222.852 161.48C223.771 161.48 224.666 161.482 225.535 161.487H225.538C227.886 161.499 230.046 161.533 231.946 161.571C232.317 161.579 232.675 161.59 233.026 161.598H233.03C233.267 161.602 233.5 161.609 233.729 161.613C237.885 161.72 240.434 161.85 240.434 161.85L241.423 154.095L241.625 152.53L241.816 151.041V151.038L241.839 150.851L241.995 150.847L244.743 150.793L267.841 150.343L280.458 150.095L278.458 158.667L275.157 172.811C275.493 175.047 286.66 173.295 286.545 175.192Z" fill="#2F2E41"/>
<path d="M219.215 226.371C218.272 226.852 217.322 227.325 216.368 227.783C214.807 228.539 213.232 229.268 211.643 229.97C209.002 228.47 206.391 226.901 203.796 225.298C199.56 222.68 195.365 219.97 191.159 217.326C190.53 216.925 189.904 216.532 189.274 216.143H189.27C187.538 213.57 185.771 210.891 183.988 208.132C183.962 208.094 183.939 208.055 183.916 208.017C183.458 207.315 183.002 206.608 182.549 205.895C179.698 201.43 176.832 196.774 174.05 192.018L181.095 188.729L194.194 182.614L196.453 181.561L202.949 194.35L208.742 205.758L210.032 208.296L219.215 226.371Z" fill="#2F2E41"/>
<path d="M221.189 164.968L254.583 132.763L263.839 106.556L250.187 100.619C243.174 107.336 235.593 128.26 235.593 128.26L212.613 157.496C212.434 157.557 212.256 157.622 212.079 157.7C211.044 158.156 210.144 158.872 209.467 159.778C208.789 160.684 208.357 161.749 208.211 162.871C208.065 163.993 208.212 165.133 208.636 166.182C209.059 167.231 209.747 168.152 210.631 168.858C211.515 169.563 212.566 170.029 213.683 170.209C214.8 170.39 215.944 170.279 217.006 169.888C218.067 169.497 219.01 168.839 219.743 167.977C220.475 167.115 220.973 166.079 221.189 164.968Z" fill="#FFB8B8"/>
<path d="M246.345 103.548L263.663 109.045L263.728 109.034C270.174 107.955 275.522 97.4274 278.874 88.7863C279.976 85.9361 279.956 82.7735 278.816 79.9378C277.676 77.1022 275.502 74.8051 272.734 73.5109C270.685 72.57 268.414 72.2209 266.177 72.5031C263.941 72.7854 261.827 73.6876 260.076 75.1079L251.184 82.3743L246.345 103.548Z" fill="#004D7E"/>
<path d="M286.476 175.578L286.577 175.443C291.98 168.277 284.59 150.531 283.473 147.958L288.497 146.47L287.621 136.904L287.199 132.639L291.105 128.929L291.119 128.834L293.805 109.717L297.32 97.0634C298.645 92.2799 298.673 87.2301 297.401 82.4322C296.129 77.6344 293.604 73.2614 290.084 69.7621L282.898 62.6279L274.289 49.1532L259.856 48.7806L254.665 58.0009C249.838 58.9859 245.51 61.6331 242.435 65.4812C239.359 69.3294 237.73 74.1346 237.833 79.0598L238.322 103.606L233.143 134.019L232.998 139.543L227.914 144.907L228.854 150.33L225.052 151.845L223.191 159.551C222.48 160.44 217.788 166.371 217.746 168.024C217.739 168.273 217.916 168.517 218.303 168.794C221.34 170.967 238.315 175.675 245.955 172.845C254.094 169.832 285.989 175.49 286.31 175.548L286.476 175.578Z" fill="#004D7E"/>
<path d="M265.812 44.6495C276.373 44.6495 284.934 36.0883 284.934 25.5274C284.934 14.9666 276.373 6.40533 265.812 6.40533C255.251 6.40533 246.69 14.9666 246.69 25.5274C246.69 36.0883 255.251 44.6495 265.812 44.6495Z" fill="#FFB8B8"/>
<path d="M263.479 44.9062C266.44 44.9524 269.4 44.7455 272.326 44.2879C275.226 43.6981 281.714 38.9436 283.523 36.0825C284.867 33.9567 285.726 30.6372 286.21 28.227C286.863 25.0374 286.838 21.7465 286.137 18.5672C285.437 15.3879 284.077 12.3912 282.144 9.77103C281.402 8.6751 280.377 7.80025 279.178 7.23903C279.072 7.19747 278.962 7.16065 278.852 7.12917C277.105 6.66948 275.535 5.69809 274.344 4.33972C274.113 4.06498 273.862 3.80722 273.594 3.56846C272.248 2.43243 270.652 1.6311 268.937 1.22998C266.169 0.489035 262.162 1.22452 257.029 3.41811C254.45 4.52021 251.63 4.12136 249.46 3.65071C249.338 3.6272 249.213 3.63597 249.095 3.67614C248.978 3.71632 248.873 3.7865 248.792 3.8797C247.868 4.74632 246.652 5.23141 245.385 5.23749C244.61 5.27154 243.796 6.34533 242.813 7.74559C242.59 8.06345 242.329 8.43442 242.141 8.66006L242.116 8.22656L241.678 8.71016C240.988 9.47021 240.502 10.3924 240.265 11.3909C240.028 12.3893 240.047 13.4316 240.321 14.4205C240.595 15.4095 241.115 16.3131 241.832 17.047C242.549 17.781 243.441 18.3215 244.423 18.6182C245.203 18.8258 246.003 18.9532 246.809 18.9984C247.297 19.0423 247.802 19.0877 248.286 19.1717C249.839 19.4897 251.283 20.2051 252.477 21.2479C253.671 22.2908 254.575 23.6255 255.099 25.1217C255.223 25.4675 255.425 25.7802 255.689 26.0357C255.953 26.2912 256.272 26.4825 256.622 26.595C256.972 26.7076 257.343 26.7382 257.706 26.6846C258.07 26.6309 258.416 26.4945 258.718 26.2858C259.222 25.8933 259.814 25.6285 260.443 25.514C261.071 25.3995 261.718 25.4388 262.328 25.6285C262.856 25.9217 263.266 26.3872 263.491 26.9471C263.764 27.5708 264.217 28.099 264.791 28.4644C266.757 29.4777 266.892 33.9667 266.186 37.7088C265.506 41.3159 264.161 43.9253 262.916 44.0543C261.957 44.1534 261.847 44.2215 261.778 44.3911L261.716 44.5429L261.824 44.6848C262.353 44.8768 262.918 44.9523 263.479 44.9062Z" fill="#2F2E41"/>
<path d="M251.093 97.7644L243.72 83.0649C233.018 83.796 211.778 96.1698 211.778 96.1698L171.591 104.69C170.4 104.233 169.11 104.097 167.85 104.296C166.591 104.496 165.406 105.023 164.415 105.826C163.424 106.629 162.662 107.679 162.206 108.87C161.749 110.061 161.615 111.352 161.816 112.611C162.017 113.871 162.546 115.055 163.35 116.045C164.155 117.035 165.205 117.796 166.397 118.25C167.588 118.705 168.879 118.838 170.138 118.636C171.397 118.433 172.581 117.903 173.57 117.097L224.691 113.433L251.093 97.7644Z" fill="#FFB8B8"/>
<path d="M248.119 100.181L267.375 85.8715L270.767 73.6483C271.424 71.2463 271.396 68.7083 270.687 66.3213C269.977 63.9342 268.614 61.7931 266.752 60.1401C264.212 57.9163 260.922 56.7399 257.548 56.8487C254.174 56.9576 250.967 58.3436 248.576 60.7265C241.33 67.9593 233.065 78.0496 234.84 85.0465L234.858 85.1175L248.119 100.181Z" fill="#004D7E"/>
<path d="M224.282 138.452H172.76V145.321H224.282V138.452Z" fill="white"/>
<path d="M92.6132 138.452H41.0903V145.321H92.6132V138.452Z" fill="white"/>
<path d="M98.6287 105.419V138.128C98.629 138.545 98.7947 138.944 99.0895 139.239C99.3842 139.534 99.7839 139.699 100.201 139.7H148.672C149.089 139.699 149.489 139.534 149.783 139.239C150.078 138.944 150.244 138.545 150.244 138.128V105.419C150.243 105.002 150.077 104.603 149.783 104.309C149.488 104.015 149.089 103.849 148.672 103.848H100.201C99.7842 103.849 99.385 104.015 99.0903 104.309C98.7957 104.603 98.6297 105.002 98.6287 105.419Z" fill="#3F3D56"/>
<path d="M99.7661 105.825V137.724C99.7665 137.946 99.8551 138.16 100.013 138.317C100.17 138.475 100.384 138.563 100.606 138.564H148.269C148.492 138.563 148.705 138.475 148.863 138.317C149.02 138.16 149.109 137.946 149.109 137.724V105.825C149.109 105.602 149.021 105.388 148.863 105.23C148.706 105.072 148.492 104.984 148.269 104.983H100.606C100.383 104.984 100.17 105.072 100.012 105.23C99.8546 105.388 99.7661 105.602 99.7661 105.825Z" fill="#004D7E"/>
<path d="M97.6151 144.504C97.7039 144.615 97.8168 144.705 97.9453 144.766C98.0737 144.828 98.2144 144.859 98.3569 144.858H150.258C150.4 144.858 150.54 144.826 150.668 144.765C150.797 144.704 150.909 144.615 150.999 144.505C151.088 144.395 151.152 144.266 151.185 144.128C151.219 143.99 151.221 143.846 151.192 143.707L150.386 139.881C150.353 139.725 150.281 139.579 150.177 139.458C150.073 139.337 149.941 139.244 149.792 139.187C149.684 139.144 149.569 139.123 149.453 139.123H99.1593C99.0433 139.123 98.9284 139.144 98.8204 139.187C98.6713 139.244 98.5388 139.337 98.4349 139.458C98.3311 139.579 98.2591 139.725 98.2258 139.881L97.4201 143.707C97.3914 143.846 97.3941 143.99 97.4278 144.128C97.4615 144.265 97.5255 144.394 97.6151 144.504Z" fill="#2F2E41"/>
<path d="M147.673 140.769H148.898C149.001 140.769 149.085 140.686 149.085 140.583V139.996C149.085 139.894 149.001 139.81 148.898 139.81H147.673C147.57 139.81 147.486 139.894 147.486 139.996V140.583C147.486 140.686 147.57 140.769 147.673 140.769Z" fill="#3F3D56"/>
<path d="M144.475 140.769H145.701C145.804 140.769 145.887 140.686 145.887 140.583V139.996C145.887 139.894 145.804 139.81 145.701 139.81H144.475C144.372 139.81 144.289 139.894 144.289 139.996V140.583C144.289 140.686 144.372 140.769 144.475 140.769Z" fill="#3F3D56"/>
<path d="M141.279 140.769H142.505C142.608 140.769 142.691 140.686 142.691 140.583V139.996C142.691 139.894 142.608 139.81 142.505 139.81H141.279C141.176 139.81 141.093 139.894 141.093 139.996V140.583C141.093 140.686 141.176 140.769 141.279 140.769Z" fill="#3F3D56"/>
<path d="M138.082 140.769H139.308C139.41 140.769 139.494 140.686 139.494 140.583V139.996C139.494 139.894 139.41 139.81 139.308 139.81H138.082C137.979 139.81 137.895 139.894 137.895 139.996V140.583C137.895 140.686 137.979 140.769 138.082 140.769Z" fill="#3F3D56"/>
<path d="M134.884 140.769H136.11C136.212 140.769 136.296 140.686 136.296 140.583V139.996C136.296 139.894 136.212 139.81 136.11 139.81H134.884C134.781 139.81 134.697 139.894 134.697 139.996V140.583C134.697 140.686 134.781 140.769 134.884 140.769Z" fill="#3F3D56"/>
<path d="M131.687 140.769H132.913C133.016 140.769 133.099 140.686 133.099 140.583V139.996C133.099 139.894 133.016 139.81 132.913 139.81H131.687C131.584 139.81 131.501 139.894 131.501 139.996V140.583C131.501 140.686 131.584 140.769 131.687 140.769Z" fill="#3F3D56"/>
<path d="M128.49 140.769H129.716C129.819 140.769 129.902 140.686 129.902 140.583V139.996C129.902 139.894 129.819 139.81 129.716 139.81H128.49C128.387 139.81 128.304 139.894 128.304 139.996V140.583C128.304 140.686 128.387 140.769 128.49 140.769Z" fill="#3F3D56"/>
<path d="M125.294 140.769H126.519C126.622 140.769 126.706 140.686 126.706 140.583V139.996C126.706 139.894 126.622 139.81 126.519 139.81H125.294C125.191 139.81 125.107 139.894 125.107 139.996V140.583C125.107 140.686 125.191 140.769 125.294 140.769Z" fill="#3F3D56"/>
<path d="M122.096 140.769H123.321C123.424 140.769 123.508 140.686 123.508 140.583V139.996C123.508 139.894 123.424 139.81 123.321 139.81H122.096C121.993 139.81 121.909 139.894 121.909 139.996V140.583C121.909 140.686 121.993 140.769 122.096 140.769Z" fill="#3F3D56"/>
<path d="M118.899 140.769H120.125C120.228 140.769 120.312 140.686 120.312 140.583V139.996C120.312 139.894 120.228 139.81 120.125 139.81H118.899C118.796 139.81 118.713 139.894 118.713 139.996V140.583C118.713 140.686 118.796 140.769 118.899 140.769Z" fill="#3F3D56"/>
<path d="M115.702 140.769H116.928C117.031 140.769 117.114 140.686 117.114 140.583V139.996C117.114 139.894 117.031 139.81 116.928 139.81H115.702C115.599 139.81 115.516 139.894 115.516 139.996V140.583C115.516 140.686 115.599 140.769 115.702 140.769Z" fill="#3F3D56"/>
<path d="M112.505 140.769H113.731C113.834 140.769 113.917 140.686 113.917 140.583V139.996C113.917 139.894 113.834 139.81 113.731 139.81H112.505C112.402 139.81 112.318 139.894 112.318 139.996V140.583C112.318 140.686 112.402 140.769 112.505 140.769Z" fill="#3F3D56"/>
<path d="M109.308 140.769H110.533C110.636 140.769 110.72 140.686 110.72 140.583V139.996C110.72 139.894 110.636 139.81 110.533 139.81H109.308C109.205 139.81 109.121 139.894 109.121 139.996V140.583C109.121 140.686 109.205 140.769 109.308 140.769Z" fill="#3F3D56"/>
<path d="M106.11 140.769H107.336C107.439 140.769 107.522 140.686 107.522 140.583V139.996C107.522 139.894 107.439 139.81 107.336 139.81H106.11C106.007 139.81 105.924 139.894 105.924 139.996V140.583C105.924 140.686 106.007 140.769 106.11 140.769Z" fill="#3F3D56"/>
<path d="M102.914 140.769H104.14C104.243 140.769 104.326 140.686 104.326 140.583V139.996C104.326 139.894 104.243 139.81 104.14 139.81H102.914C102.811 139.81 102.728 139.894 102.728 139.996V140.583C102.728 140.686 102.811 140.769 102.914 140.769Z" fill="#3F3D56"/>
<path d="M99.7167 140.769H100.943C101.045 140.769 101.129 140.686 101.129 140.583V139.996C101.129 139.894 101.045 139.81 100.943 139.81H99.7167C99.6138 139.81 99.5304 139.894 99.5304 139.996V140.583C99.5304 140.686 99.6138 140.769 99.7167 140.769Z" fill="#3F3D56"/>
<path d="M147.711 142.371H148.936C149.039 142.371 149.123 142.288 149.123 142.185V141.598C149.123 141.495 149.039 141.412 148.936 141.412H147.711C147.608 141.412 147.524 141.495 147.524 141.598V142.185C147.524 142.288 147.608 142.371 147.711 142.371Z" fill="#3F3D56"/>
<path d="M144.513 142.371H145.739C145.842 142.371 145.926 142.288 145.926 142.185V141.598C145.926 141.495 145.842 141.412 145.739 141.412H144.513C144.41 141.412 144.327 141.495 144.327 141.598V142.185C144.327 142.288 144.41 142.371 144.513 142.371Z" fill="#3F3D56"/>
<path d="M141.317 142.371H142.543C142.646 142.371 142.729 142.288 142.729 142.185V141.598C142.729 141.495 142.646 141.412 142.543 141.412H141.317C141.214 141.412 141.131 141.495 141.131 141.598V142.185C141.131 142.288 141.214 142.371 141.317 142.371Z" fill="#3F3D56"/>
<path d="M138.119 142.371H139.345C139.448 142.371 139.531 142.288 139.531 142.185V141.598C139.531 141.495 139.448 141.412 139.345 141.412H138.119C138.016 141.412 137.932 141.495 137.932 141.598V142.185C137.932 142.288 138.016 142.371 138.119 142.371Z" fill="#3F3D56"/>
<path d="M134.922 142.371H136.147C136.25 142.371 136.334 142.288 136.334 142.185V141.598C136.334 141.495 136.25 141.412 136.147 141.412H134.922C134.819 141.412 134.735 141.495 134.735 141.598V142.185C134.735 142.288 134.819 142.371 134.922 142.371Z" fill="#3F3D56"/>
<path d="M131.724 142.371H132.95C133.053 142.371 133.136 142.288 133.136 142.185V141.598C133.136 141.495 133.053 141.412 132.95 141.412H131.724C131.621 141.412 131.538 141.495 131.538 141.598V142.185C131.538 142.288 131.621 142.371 131.724 142.371Z" fill="#3F3D56"/>
<path d="M128.527 142.371H129.753C129.856 142.371 129.939 142.288 129.939 142.185V141.598C129.939 141.495 129.856 141.412 129.753 141.412H128.527C128.424 141.412 128.341 141.495 128.341 141.598V142.185C128.341 142.288 128.424 142.371 128.527 142.371Z" fill="#3F3D56"/>
<path d="M125.332 142.371H126.558C126.66 142.371 126.744 142.288 126.744 142.185V141.598C126.744 141.495 126.66 141.412 126.558 141.412H125.332C125.229 141.412 125.145 141.495 125.145 141.598V142.185C125.145 142.288 125.229 142.371 125.332 142.371Z" fill="#3F3D56"/>
<path d="M122.133 142.371H123.359C123.462 142.371 123.546 142.288 123.546 142.185V141.598C123.546 141.495 123.462 141.412 123.359 141.412H122.133C122.031 141.412 121.947 141.495 121.947 141.598V142.185C121.947 142.288 122.031 142.371 122.133 142.371Z" fill="#3F3D56"/>
<path d="M118.936 142.371H120.162C120.265 142.371 120.348 142.288 120.348 142.185V141.598C120.348 141.495 120.265 141.412 120.162 141.412H118.936C118.833 141.412 118.75 141.495 118.75 141.598V142.185C118.75 142.288 118.833 142.371 118.936 142.371Z" fill="#3F3D56"/>
<path d="M115.739 142.371H116.965C117.068 142.371 117.151 142.288 117.151 142.185V141.598C117.151 141.495 117.068 141.412 116.965 141.412H115.739C115.636 141.412 115.553 141.495 115.553 141.598V142.185C115.553 142.288 115.636 142.371 115.739 142.371Z" fill="#3F3D56"/>
<path d="M112.542 142.371H113.768C113.871 142.371 113.954 142.288 113.954 142.185V141.598C113.954 141.495 113.871 141.412 113.768 141.412H112.542C112.439 141.412 112.356 141.495 112.356 141.598V142.185C112.356 142.288 112.439 142.371 112.542 142.371Z" fill="#3F3D56"/>
<path d="M109.346 142.371H110.571C110.674 142.371 110.758 142.288 110.758 142.185V141.598C110.758 141.495 110.674 141.412 110.571 141.412H109.346C109.243 141.412 109.159 141.495 109.159 141.598V142.185C109.159 142.288 109.243 142.371 109.346 142.371Z" fill="#3F3D56"/>
<path d="M106.148 142.371H107.374C107.477 142.371 107.561 142.288 107.561 142.185V141.598C107.561 141.495 107.477 141.412 107.374 141.412H106.148C106.045 141.412 105.962 141.495 105.962 141.598V142.185C105.962 142.288 106.045 142.371 106.148 142.371Z" fill="#3F3D56"/>
<path d="M102.951 142.371H104.177C104.28 142.371 104.363 142.288 104.363 142.185V141.598C104.363 141.495 104.28 141.412 104.177 141.412H102.951C102.848 141.412 102.765 141.495 102.765 141.598V142.185C102.765 142.288 102.848 142.371 102.951 142.371Z" fill="#3F3D56"/>
<path d="M99.7538 142.371H100.98C101.083 142.371 101.166 142.288 101.166 142.185V141.598C101.166 141.495 101.083 141.412 100.98 141.412H99.7538C99.6509 141.412 99.5675 141.495 99.5675 141.598V142.185C99.5675 142.288 99.6509 142.371 99.7538 142.371Z" fill="#3F3D56"/>
<path d="M121.174 144.292H133.59C133.693 144.292 133.776 144.208 133.776 144.105V143.519C133.776 143.416 133.693 143.333 133.59 143.333H121.174C121.071 143.333 120.988 143.416 120.988 143.519V144.105C120.988 144.208 121.071 144.292 121.174 144.292Z" fill="#3F3D56"/>
</g>
<defs>
<clipPath id="clip0_100_6457">
<rect width="318" height="241.627" fill="white"/>
</clipPath>
</defs>
</svg>
