<svg fill="none" xmlns="http://www.w3.org/2000/svg" viewBox="23.77 24 301.88 239.45">
<g clip-path="url(#clip0_100_2641)">
<path fill-rule="evenodd" clip-rule="evenodd" d="M181.34 40.4581C206.773 41.8858 235.635 20.0789 255.733 35.673C275.949 51.3587 260.676 85.2019 269.77 109.071C279.669 135.053 315.439 152.172 310.542 179.531C305.746 206.328 273.488 219.075 248.227 229.434C227.069 238.11 203.94 228.961 181.34 232.513C152.07 237.114 124.389 264.777 97.1357 253.185C70.1281 241.698 62.8809 206.802 54.7721 178.679C46.9135 151.423 43.5375 122.896 51.7396 95.7413C60.0674 68.1705 74.0335 38.2953 100.597 26.9641C126.315 15.994 153.41 38.8902 181.34 40.4581Z" fill="#F2F2F2"/>
<path d="M302.438 148.84H41.3537C40.2452 148.84 39.182 149.28 38.3981 150.064C37.6142 150.848 37.1738 151.911 37.1738 153.02C37.1738 154.128 37.6142 155.192 38.3981 155.975C39.182 156.759 40.2452 157.2 41.3537 157.2H48.749V257.196C48.749 258.305 49.1894 259.368 49.9732 260.152C50.7571 260.936 51.8203 261.376 52.9289 261.376C54.0375 261.376 55.1006 260.936 55.8845 260.152C56.6684 259.368 57.1088 258.305 57.1088 257.196L57.1723 157.2H286.039V257.196C286.039 258.305 286.48 259.368 287.264 260.152C288.048 260.936 289.111 261.376 290.219 261.376C291.328 261.376 292.391 260.936 293.175 260.152C293.959 259.368 294.399 258.305 294.399 257.196V159.404L295.615 157.2H302.438C303.546 157.2 304.609 156.759 305.393 155.975C306.177 155.192 306.617 154.128 306.617 153.02C306.617 151.911 306.177 150.848 305.393 150.064C304.609 149.28 303.546 148.84 302.438 148.84Z" fill="#CCCCCC"/>
<path d="M186.101 151.027H107.016C105.485 151.025 104.017 150.416 102.934 149.333C101.851 148.25 101.242 146.782 101.24 145.251V101.709C101.242 100.178 101.851 98.71 102.934 97.6272C104.017 96.5444 105.485 95.9353 107.016 95.9336H186.101C187.633 95.9353 189.101 96.5444 190.183 97.6272C191.266 98.71 191.875 100.178 191.877 101.709V145.251C191.875 146.782 191.266 148.25 190.183 149.333C189.101 150.416 187.633 151.025 186.101 151.027Z" fill="#3F3D56"/>
<path d="M186.101 100.379H107.017C106.664 100.38 106.326 100.52 106.076 100.77C105.827 101.019 105.686 101.357 105.686 101.71V145.252C105.686 145.605 105.827 145.943 106.076 146.192C106.326 146.442 106.664 146.582 107.017 146.583H186.101C186.454 146.582 186.792 146.442 187.041 146.192C187.291 145.943 187.431 145.605 187.432 145.252V101.71C187.431 101.357 187.291 101.019 187.041 100.77C186.792 100.52 186.454 100.38 186.101 100.379Z" fill="white"/>
<path d="M153.305 131.203C153.305 131.203 143.837 129.022 138.63 133.021C133.423 137.021 145.258 146.111 145.258 146.111L153.305 131.203Z" fill="#2F2E41"/>
<path d="M147.022 127.083C151.954 127.083 155.952 123.085 155.952 118.153C155.952 113.221 151.954 109.223 147.022 109.223C142.09 109.223 138.092 113.221 138.092 118.153C138.092 123.085 142.09 127.083 147.022 127.083Z" fill="#A0616A"/>
<path d="M140.117 105.615C140.713 104.604 141.576 103.777 142.612 103.226C143.647 102.675 144.815 102.421 145.986 102.492C147.211 102.646 148.406 102.98 149.533 103.485L155.371 105.762C156.881 106.351 158.536 107.073 159.191 108.556C159.8 109.933 159.346 111.523 158.886 112.956L156.702 119.768C156.46 118.226 156.045 116.717 155.464 115.268C154.874 113.81 153.808 112.594 152.439 111.819C150.923 111.041 149.136 111.057 147.433 111.139C145.022 111.255 142.401 111.561 140.688 113.262C139.779 114.228 139.162 115.432 138.91 116.734C138.662 118.029 138.537 119.345 138.537 120.664C137.549 118.965 136.716 117.179 136.049 115.33C135.501 113.953 135.188 112.493 135.125 111.012C135.067 109.518 135.563 108.056 136.517 106.904C137.001 106.342 137.632 105.926 138.34 105.703C139.048 105.48 139.804 105.46 140.523 105.643L140.117 105.615Z" fill="#2F2E41"/>
<path d="M168.346 138.948C168.262 138.646 168.091 138.376 167.855 138.171C167.618 137.966 167.326 137.836 167.015 137.797C166.995 137.782 166.973 137.769 166.951 137.758L153.619 130.287C153.239 130.073 152.79 130.015 152.368 130.124C151.945 130.233 151.581 130.5 151.35 130.871L147.704 136.774L142.212 131.282L142.125 131.195C141.843 130.913 141.471 130.74 141.074 130.705C140.677 130.67 140.28 130.777 139.954 131.005L128.997 138.678C128.978 138.678 128.959 138.684 128.94 138.684C128.415 138.771 127.936 139.035 127.582 139.431C127.228 139.828 127.019 140.333 126.991 140.864L126.708 146.581H170.462L168.346 138.948Z" fill="#006E53"/>
<path d="M192.765 145.693H184.324C184.324 145.458 184.23 145.232 184.063 145.065C183.897 144.898 183.671 144.805 183.435 144.805H180.769C180.533 144.805 180.307 144.898 180.141 145.065C179.974 145.232 179.881 145.458 179.881 145.693H177.215C177.215 145.458 177.121 145.232 176.955 145.065C176.788 144.898 176.562 144.805 176.326 144.805H173.66C173.425 144.805 173.199 144.898 173.032 145.065C172.865 145.232 172.772 145.458 172.772 145.693H170.106C170.106 145.458 170.012 145.232 169.846 145.065C169.679 144.898 169.453 144.805 169.217 144.805H166.552C166.316 144.805 166.09 144.898 165.923 145.065C165.757 145.232 165.663 145.458 165.663 145.693H162.997C162.997 145.458 162.904 145.232 162.737 145.065C162.57 144.898 162.344 144.805 162.109 144.805H159.443C159.207 144.805 158.981 144.898 158.814 145.065C158.648 145.232 158.554 145.458 158.554 145.693H155.888C155.888 145.458 155.795 145.232 155.628 145.065C155.462 144.898 155.236 144.805 155 144.805H152.334C152.098 144.805 151.872 144.898 151.706 145.065C151.539 145.232 151.445 145.458 151.445 145.693H148.78C148.78 145.458 148.686 145.232 148.519 145.065C148.353 144.898 148.127 144.805 147.891 144.805H145.225C144.99 144.805 144.764 144.898 144.597 145.065C144.43 145.232 144.337 145.458 144.337 145.693H141.671C141.671 145.458 141.577 145.232 141.411 145.065C141.244 144.898 141.018 144.805 140.782 144.805H138.117C137.881 144.805 137.655 144.898 137.488 145.065C137.322 145.232 137.228 145.458 137.228 145.693H134.562C134.562 145.458 134.468 145.232 134.302 145.065C134.135 144.898 133.909 144.805 133.674 144.805H131.008C130.772 144.805 130.546 144.898 130.379 145.065C130.213 145.232 130.119 145.458 130.119 145.693H127.453C127.453 145.458 127.36 145.232 127.193 145.065C127.026 144.898 126.8 144.805 126.565 144.805H123.899C123.663 144.805 123.437 144.898 123.271 145.065C123.104 145.232 123.01 145.458 123.01 145.693H120.345C120.345 145.458 120.251 145.232 120.084 145.065C119.918 144.898 119.692 144.805 119.456 144.805H116.79C116.555 144.805 116.328 144.898 116.162 145.065C115.995 145.232 115.902 145.458 115.902 145.693H113.236C113.236 145.458 113.142 145.232 112.976 145.065C112.809 144.898 112.583 144.805 112.347 144.805H109.681C109.446 144.805 109.22 144.898 109.053 145.065C108.886 145.232 108.793 145.458 108.793 145.693H100.351C99.6448 145.694 98.9678 145.976 98.4688 146.476C97.9698 146.975 97.6895 147.653 97.6895 148.359C97.6895 149.065 97.9698 149.743 98.4688 150.243C98.9678 150.742 99.6448 151.024 100.351 151.025H192.765C193.472 151.025 194.15 150.744 194.65 150.244C195.15 149.744 195.431 149.066 195.431 148.359C195.431 147.652 195.15 146.974 194.65 146.474C194.15 145.974 193.472 145.693 192.765 145.693Z" fill="#3F3D56"/>
<path d="M86.6104 130.208V147.909H42.2633C41.0752 147.951 39.8909 147.752 38.781 147.326C37.6711 146.9 36.6584 146.255 35.8033 145.429C34.9481 144.603 34.268 143.613 33.8035 142.519C33.339 141.424 33.0996 140.248 33.0996 139.059C33.0996 137.87 33.339 136.693 33.8035 135.599C34.268 134.505 34.9481 133.515 35.8033 132.689C36.6584 131.863 37.6711 131.218 38.781 130.792C39.8909 130.365 41.0752 130.167 42.2633 130.208H86.6104Z" fill="#F2F2F2"/>
<path d="M87.6997 147.774C87.6997 147.954 87.6279 148.128 87.5003 148.255C87.3726 148.383 87.1995 148.455 87.0189 148.455H41.4734C38.9998 148.455 36.6274 147.472 34.8783 145.723C33.1291 143.974 32.1465 141.601 32.1465 139.128C32.1465 136.654 33.1291 134.282 34.8783 132.533C36.6274 130.783 38.9998 129.801 41.4734 129.801H87.0189C87.1995 129.801 87.3726 129.873 87.5003 130C87.628 130.128 87.6997 130.301 87.6997 130.482C87.6997 130.662 87.628 130.835 87.5003 130.963C87.3726 131.091 87.1995 131.162 87.0189 131.162H41.4734C39.3621 131.164 37.338 132.004 35.8457 133.498C34.3535 134.991 33.5152 137.016 33.5152 139.128C33.5152 141.239 34.3535 143.264 35.8457 144.758C37.338 146.251 39.3621 147.091 41.4734 147.093H87.0189C87.1995 147.093 87.3726 147.165 87.5002 147.293C87.6279 147.42 87.6997 147.593 87.6997 147.774Z" fill="#006E53"/>
<path d="M86.6085 134.3H38.9525C38.9346 134.3 38.9168 134.296 38.9001 134.29C38.8835 134.283 38.8684 134.273 38.8556 134.26C38.8429 134.247 38.8328 134.232 38.8259 134.216C38.819 134.199 38.8154 134.181 38.8154 134.164C38.8154 134.146 38.819 134.128 38.8259 134.111C38.8328 134.095 38.8429 134.08 38.8556 134.067C38.8684 134.054 38.8835 134.044 38.9001 134.037C38.9168 134.031 38.9346 134.027 38.9525 134.027H86.6085C86.6444 134.028 86.6788 134.042 86.7042 134.068C86.7295 134.093 86.7437 134.128 86.7437 134.164C86.7437 134.199 86.7295 134.234 86.7042 134.259C86.6788 134.285 86.6444 134.299 86.6085 134.3Z" fill="#CCCCCC"/>
<path d="M86.6085 137.557H38.9525C38.9346 137.558 38.9168 137.554 38.9001 137.547C38.8835 137.541 38.8684 137.531 38.8556 137.518C38.8429 137.505 38.8328 137.49 38.8259 137.474C38.819 137.457 38.8154 137.439 38.8154 137.421C38.8154 137.403 38.819 137.386 38.8259 137.369C38.8328 137.352 38.8429 137.337 38.8556 137.325C38.8684 137.312 38.8835 137.302 38.9001 137.295C38.9168 137.288 38.9346 137.285 38.9525 137.285H86.6085C86.6444 137.285 86.6788 137.3 86.7042 137.325C86.7295 137.351 86.7437 137.385 86.7437 137.421C86.7437 137.457 86.7295 137.492 86.7042 137.517C86.6788 137.543 86.6444 137.557 86.6085 137.557Z" fill="#CCCCCC"/>
<path d="M86.6085 140.831H38.9525C38.9346 140.831 38.9168 140.828 38.9001 140.821C38.8835 140.814 38.8684 140.804 38.8556 140.791C38.8429 140.779 38.8328 140.764 38.8259 140.747C38.819 140.73 38.8154 140.713 38.8154 140.695C38.8154 140.677 38.819 140.659 38.8259 140.642C38.8328 140.626 38.8429 140.611 38.8556 140.598C38.8684 140.585 38.8835 140.575 38.9001 140.569C38.9168 140.562 38.9346 140.558 38.9525 140.559H86.6085C86.6444 140.559 86.6788 140.573 86.7042 140.599C86.7295 140.624 86.7437 140.659 86.7437 140.695C86.7437 140.731 86.7295 140.765 86.7042 140.791C86.6788 140.816 86.6444 140.831 86.6085 140.831Z" fill="#CCCCCC"/>
<path d="M86.6085 144.1H38.9525C38.9346 144.101 38.9168 144.097 38.9001 144.09C38.8835 144.084 38.8684 144.074 38.8556 144.061C38.8429 144.048 38.8328 144.033 38.8259 144.017C38.819 144 38.8154 143.982 38.8154 143.964C38.8154 143.946 38.819 143.929 38.8259 143.912C38.8328 143.895 38.8429 143.88 38.8556 143.868C38.8684 143.855 38.8835 143.845 38.9001 143.838C38.9168 143.831 38.9346 143.828 38.9525 143.828H86.6085C86.6444 143.828 86.6788 143.843 86.7042 143.868C86.7295 143.894 86.7437 143.928 86.7437 143.964C86.7437 144 86.7295 144.035 86.7042 144.06C86.6788 144.086 86.6444 144.1 86.6085 144.1Z" fill="#CCCCCC"/>
<path d="M78.2501 111.564V129.265H33.903C32.7148 129.306 31.5305 129.108 30.4206 128.682C29.3108 128.255 28.2981 127.61 27.4429 126.784C26.5877 125.958 25.9076 124.969 25.4431 123.874C24.9786 122.78 24.7393 121.603 24.7393 120.414C24.7393 119.225 24.9786 118.049 25.4431 116.954C25.9076 115.86 26.5877 114.87 27.4429 114.044C28.2981 113.219 29.3108 112.573 30.4206 112.147C31.5305 111.721 32.7148 111.523 33.903 111.564H78.2501Z" fill="#F2F2F2"/>
<path d="M79.3404 129.125C79.3403 129.306 79.2686 129.479 79.1409 129.607C79.0132 129.734 78.8401 129.806 78.6595 129.806H33.1141C31.8892 129.806 30.6764 129.565 29.5448 129.096C28.4132 128.628 27.385 127.941 26.5189 127.074C25.6528 126.208 24.9658 125.18 24.4971 124.049C24.0284 122.917 23.7871 121.704 23.7871 120.479C23.7871 119.254 24.0284 118.042 24.4971 116.91C24.9658 115.778 25.6528 114.75 26.5189 113.884C27.385 113.018 28.4132 112.331 29.5448 111.862C30.6764 111.394 31.8892 111.152 33.1141 111.152H78.6595C78.8401 111.152 79.0133 111.224 79.1409 111.352C79.2686 111.479 79.3404 111.653 79.3404 111.833C79.3404 112.014 79.2686 112.187 79.1409 112.315C79.0133 112.442 78.8401 112.514 78.6595 112.514H33.1141C31.0028 112.516 28.9786 113.356 27.4863 114.849C25.9941 116.343 25.1559 118.368 25.1559 120.479C25.1559 122.591 25.9941 124.616 27.4863 126.109C28.9786 127.603 31.0028 128.443 33.1141 128.445H78.6595C78.8401 128.445 79.0132 128.516 79.1409 128.644C79.2685 128.772 79.3403 128.945 79.3404 129.125Z" fill="#3F3D56"/>
<path d="M78.2491 115.647H30.5932C30.5752 115.647 30.5574 115.644 30.5408 115.637C30.5241 115.63 30.509 115.62 30.4963 115.608C30.4835 115.595 30.4734 115.58 30.4665 115.563C30.4596 115.547 30.4561 115.529 30.4561 115.511C30.4561 115.493 30.4596 115.475 30.4665 115.459C30.4734 115.442 30.4835 115.427 30.4963 115.415C30.509 115.402 30.5241 115.392 30.5408 115.385C30.5574 115.378 30.5752 115.375 30.5932 115.375H78.2491C78.2851 115.375 78.3195 115.39 78.3448 115.415C78.3701 115.441 78.3844 115.475 78.3844 115.511C78.3844 115.547 78.3701 115.582 78.3448 115.607C78.3195 115.633 78.2851 115.647 78.2491 115.647Z" fill="#CCCCCC"/>
<path d="M78.2491 118.913H30.5932C30.5752 118.913 30.5574 118.91 30.5408 118.903C30.5241 118.896 30.509 118.886 30.4963 118.873C30.4835 118.861 30.4734 118.846 30.4665 118.829C30.4596 118.813 30.4561 118.795 30.4561 118.777C30.4561 118.759 30.4596 118.741 30.4665 118.724C30.4734 118.708 30.4835 118.693 30.4963 118.68C30.509 118.668 30.5241 118.658 30.5408 118.651C30.5574 118.644 30.5752 118.641 30.5932 118.641H78.2491C78.2851 118.641 78.3195 118.655 78.3448 118.681C78.3701 118.706 78.3844 118.741 78.3844 118.777C78.3844 118.813 78.3701 118.847 78.3448 118.873C78.3195 118.898 78.2851 118.913 78.2491 118.913Z" fill="#CCCCCC"/>
<path d="M78.2491 122.182H30.5932C30.5752 122.183 30.5574 122.179 30.5408 122.172C30.5241 122.166 30.509 122.156 30.4963 122.143C30.4835 122.13 30.4734 122.115 30.4665 122.099C30.4596 122.082 30.4561 122.064 30.4561 122.046C30.4561 122.028 30.4596 122.011 30.4665 121.994C30.4734 121.977 30.4835 121.962 30.4963 121.95C30.509 121.937 30.5241 121.927 30.5408 121.92C30.5574 121.913 30.5752 121.91 30.5932 121.91H78.2491C78.2851 121.91 78.3195 121.925 78.3448 121.95C78.3701 121.976 78.3844 122.01 78.3844 122.046C78.3844 122.082 78.3701 122.117 78.3448 122.142C78.3195 122.168 78.2851 122.182 78.2491 122.182Z" fill="#CCCCCC"/>
<path d="M78.2491 125.448H30.5932C30.5752 125.448 30.5574 125.445 30.5408 125.438C30.5241 125.431 30.509 125.421 30.4963 125.409C30.4835 125.396 30.4734 125.381 30.4665 125.364C30.4596 125.348 30.4561 125.33 30.4561 125.312C30.4561 125.294 30.4596 125.276 30.4665 125.26C30.4734 125.243 30.4835 125.228 30.4963 125.215C30.509 125.203 30.5241 125.193 30.5408 125.186C30.5574 125.179 30.5752 125.176 30.5932 125.176H78.2491C78.2851 125.176 78.3195 125.19 78.3448 125.216C78.3701 125.241 78.3844 125.276 78.3844 125.312C78.3844 125.348 78.3701 125.382 78.3448 125.408C78.3195 125.433 78.2851 125.448 78.2491 125.448Z" fill="#CCCCCC"/>
<path d="M129.839 210.826V195.393C129.839 194.71 129.568 194.056 129.086 193.574C128.603 193.091 127.949 192.82 127.267 192.82H68.748C68.0658 192.82 67.4116 193.091 66.9292 193.574C66.4468 194.056 66.1758 194.71 66.1758 195.393V210.826H129.839Z" fill="#CCCCCC"/>
<path d="M129.839 216.613H66.1758V236.548H129.839V216.613Z" fill="#CCCCCC"/>
<path d="M66.1758 242.34V257.773C66.1758 258.456 66.4468 259.11 66.9292 259.592C67.4116 260.075 68.0658 260.346 68.748 260.346H127.267C127.949 260.346 128.603 260.075 129.086 259.592C129.568 259.11 129.839 258.456 129.839 257.773V242.34H66.1758Z" fill="#CCCCCC"/>
<path d="M97.687 204.401C98.7525 204.401 99.6162 203.538 99.6162 202.472C99.6162 201.407 98.7525 200.543 97.687 200.543C96.6215 200.543 95.7578 201.407 95.7578 202.472C95.7578 203.538 96.6215 204.401 97.687 204.401Z" fill="white"/>
<path d="M97.687 230.124C98.7525 230.124 99.6162 229.26 99.6162 228.195C99.6162 227.129 98.7525 226.266 97.687 226.266C96.6215 226.266 95.7578 227.129 95.7578 228.195C95.7578 229.26 96.6215 230.124 97.687 230.124Z" fill="white"/>
<path d="M97.7895 255.292C98.855 255.292 99.7187 254.428 99.7187 253.363C99.7187 252.297 98.855 251.434 97.7895 251.434C96.7241 251.434 95.8604 252.297 95.8604 253.363C95.8604 254.428 96.7241 255.292 97.7895 255.292Z" fill="white"/>
<path d="M122.621 175.224V192.925H78.2741C77.0859 192.966 75.9016 192.768 74.7917 192.342C73.6818 191.916 72.6691 191.27 71.814 190.444C70.9588 189.619 70.2787 188.629 69.8143 187.534C69.3498 186.44 69.1104 185.263 69.1104 184.075C69.1104 182.886 69.3498 181.709 69.8143 180.615C70.2787 179.52 70.9588 178.531 71.814 177.705C72.6691 176.879 73.6818 176.233 74.7917 175.807C75.9016 175.381 77.0859 175.183 78.2741 175.224H122.621Z" fill="#F2F2F2"/>
<path d="M123.711 192.789C123.711 192.97 123.64 193.143 123.512 193.271C123.384 193.399 123.211 193.47 123.031 193.47H77.4851C76.2596 193.471 75.0459 193.231 73.9134 192.763C72.7809 192.294 71.7518 191.607 70.8849 190.741C70.018 189.875 69.3303 188.847 68.8611 187.714C68.3919 186.582 68.1504 185.369 68.1504 184.143C68.1504 182.918 68.3919 181.704 68.8611 180.572C69.3303 179.44 70.018 178.412 70.8849 177.545C71.7518 176.679 72.7809 175.992 73.9134 175.524C75.0459 175.056 76.2596 174.815 77.4851 174.816H123.031C123.211 174.816 123.384 174.888 123.512 175.016C123.64 175.143 123.711 175.317 123.711 175.497C123.711 175.678 123.64 175.851 123.512 175.979C123.384 176.106 123.211 176.178 123.031 176.178H77.4851C75.3738 176.18 73.3496 177.02 71.8573 178.514C70.3651 180.007 69.5269 182.032 69.5269 184.143C69.5269 186.255 70.3651 188.28 71.8573 189.773C73.3496 191.267 75.3738 192.107 77.4851 192.109H123.031C123.211 192.109 123.384 192.181 123.512 192.308C123.64 192.436 123.711 192.609 123.711 192.789Z" fill="#3F3D56"/>
<path d="M122.62 179.307H74.9642C74.9463 179.308 74.9285 179.304 74.9118 179.297C74.8952 179.291 74.8801 179.281 74.8673 179.268C74.8546 179.255 74.8445 179.24 74.8376 179.224C74.8307 179.207 74.8271 179.189 74.8271 179.171C74.8271 179.153 74.8307 179.136 74.8376 179.119C74.8445 179.102 74.8546 179.087 74.8673 179.075C74.8801 179.062 74.8952 179.052 74.9118 179.045C74.9285 179.038 74.9463 179.035 74.9642 179.035H122.62C122.656 179.035 122.691 179.05 122.716 179.075C122.741 179.101 122.755 179.135 122.755 179.171C122.755 179.207 122.741 179.242 122.716 179.267C122.691 179.293 122.656 179.307 122.62 179.307Z" fill="#CCCCCC"/>
<path d="M122.62 182.581H74.9642C74.9463 182.581 74.9285 182.578 74.9118 182.571C74.8952 182.564 74.8801 182.554 74.8673 182.541C74.8546 182.529 74.8445 182.514 74.8376 182.497C74.8307 182.48 74.8271 182.463 74.8271 182.445C74.8271 182.427 74.8307 182.409 74.8376 182.392C74.8445 182.376 74.8546 182.361 74.8673 182.348C74.8801 182.335 74.8952 182.325 74.9118 182.319C74.9285 182.312 74.9463 182.308 74.9642 182.309H122.62C122.656 182.309 122.691 182.323 122.716 182.349C122.741 182.374 122.755 182.409 122.755 182.445C122.755 182.481 122.741 182.515 122.716 182.541C122.691 182.566 122.656 182.581 122.62 182.581Z" fill="#CCCCCC"/>
<path d="M122.62 185.847H74.9642C74.9463 185.847 74.9285 185.843 74.9118 185.836C74.8952 185.83 74.8801 185.82 74.8673 185.807C74.8546 185.794 74.8445 185.779 74.8376 185.763C74.8307 185.746 74.8271 185.728 74.8271 185.71C74.8271 185.692 74.8307 185.675 74.8376 185.658C74.8445 185.641 74.8546 185.626 74.8673 185.614C74.8801 185.601 74.8952 185.591 74.9118 185.584C74.9285 185.578 74.9463 185.574 74.9642 185.574H122.62C122.656 185.574 122.691 185.589 122.716 185.614C122.741 185.64 122.755 185.674 122.755 185.71C122.755 185.746 122.741 185.781 122.716 185.806C122.691 185.832 122.656 185.846 122.62 185.847Z" fill="#CCCCCC"/>
<path d="M122.62 189.108H74.9642C74.9463 189.108 74.9285 189.105 74.9118 189.098C74.8952 189.091 74.8801 189.081 74.8673 189.069C74.8546 189.056 74.8445 189.041 74.8376 189.024C74.8307 189.008 74.8271 188.99 74.8271 188.972C74.8271 188.954 74.8307 188.936 74.8376 188.92C74.8445 188.903 74.8546 188.888 74.8673 188.876C74.8801 188.863 74.8952 188.853 74.9118 188.846C74.9285 188.839 74.9463 188.836 74.9642 188.836H122.62C122.656 188.836 122.691 188.851 122.716 188.876C122.741 188.902 122.755 188.936 122.755 188.972C122.755 189.008 122.741 189.043 122.716 189.068C122.691 189.094 122.656 189.108 122.62 189.108Z" fill="#CCCCCC"/>
<path d="M227.11 143.303H206.905C206.713 143.302 206.524 143.346 206.352 143.431L201.252 145.984C201.084 146.055 200.941 146.175 200.841 146.327C200.74 146.479 200.687 146.657 200.687 146.839C200.687 147.022 200.74 147.2 200.841 147.352C200.941 147.504 201.084 147.623 201.252 147.695L206.352 150.248C206.524 150.332 206.713 150.376 206.905 150.376H227.11C227.388 150.392 227.662 150.298 227.871 150.114C228.081 149.93 228.209 149.671 228.229 149.392V144.286C228.209 144.008 228.081 143.749 227.871 143.565C227.662 143.381 227.388 143.286 227.11 143.303Z" fill="#3F3D56"/>
<path d="M228.228 144.286V149.392C228.208 149.671 228.079 149.93 227.87 150.114C227.66 150.298 227.387 150.392 227.108 150.376H223.083V143.303H227.108C227.387 143.286 227.66 143.381 227.87 143.565C228.079 143.749 228.208 144.008 228.228 144.286Z" fill="#006E53"/>
<path d="M226.957 105.114C227.872 104.719 228.86 104.522 229.857 104.536C230.854 104.549 231.836 104.773 232.74 105.193C233.644 105.613 234.45 106.219 235.103 106.972C235.757 107.725 236.244 108.607 236.532 109.561C236.622 109.863 236.691 110.172 236.738 110.484L264.993 124.495L271.532 120.161L279.668 129.528L269.684 137.637C268.483 138.604 267.003 139.159 265.462 139.218C263.921 139.278 262.402 138.839 261.13 137.967L232.463 118.142C232.25 118.233 232.032 118.312 231.81 118.38C230.856 118.669 229.852 118.752 228.863 118.626C227.874 118.499 226.923 118.165 226.073 117.645C225.222 117.126 224.491 116.432 223.927 115.61C223.363 114.788 222.979 113.856 222.801 112.875C222.748 112.59 222.713 112.303 222.696 112.014C222.617 110.566 222.982 109.129 223.744 107.896C224.506 106.662 225.627 105.691 226.957 105.114Z" fill="#FFB8B8"/>
<path d="M285.807 191.379H254.933C254.933 192.266 223.115 192.987 223.115 192.987C222.615 193.363 222.16 193.794 221.758 194.273C220.549 195.714 219.889 197.536 219.893 199.417V200.703C219.893 202.835 220.74 204.879 222.248 206.386C223.755 207.894 225.799 208.741 227.931 208.742H285.807C287.938 208.74 289.981 207.892 291.488 206.385C292.996 204.878 293.843 202.835 293.845 200.703V199.417C293.842 197.286 292.994 195.243 291.487 193.737C289.98 192.23 287.938 191.382 285.807 191.379Z" fill="#3F3D56"/>
<path d="M252.223 262.438H260.583V208.42H252.223V262.438Z" fill="#3F3D56"/>
<path d="M228.43 262.144C228.43 263.048 241.098 262.494 256.724 262.494C272.351 262.494 285.019 263.048 285.019 262.144C285.019 261.241 272.351 254.078 256.724 254.078C241.098 254.078 228.43 261.241 228.43 262.144Z" fill="#3F3D56"/>
<path d="M235.976 255.815L228.093 255.815L224.342 235.367L235.977 235.368L235.976 255.815Z" fill="#FFB8B8"/>
<path d="M237.988 263.447L212.567 263.446V263.125C212.567 261.825 212.823 260.539 213.321 259.338C213.818 258.138 214.547 257.047 215.465 256.128C216.384 255.21 217.475 254.481 218.675 253.984C219.876 253.486 221.163 253.23 222.462 253.23H222.463L237.989 253.231L237.988 263.447Z" fill="#2F2E41"/>
<path d="M224.185 243.132L208.468 207.888C207.155 204.917 207.01 201.561 208.061 198.488C209.112 195.416 211.282 192.852 214.139 191.307L248.23 173.026L263.786 171.703L278.136 170.398L278.239 170.574C278.372 170.797 281.457 176.126 279.371 181.97C277.789 186.402 273.675 189.864 267.141 192.26C251.891 197.852 234.275 202.631 227.409 204.426C227.105 204.503 226.821 204.644 226.576 204.839C226.331 205.034 226.13 205.279 225.987 205.557C225.842 205.832 225.757 206.134 225.735 206.444C225.713 206.754 225.756 207.065 225.86 207.357L240.462 240.163C240.615 240.579 240.67 241.024 240.623 241.465C240.576 241.906 240.428 242.33 240.192 242.704C239.955 243.079 239.635 243.394 239.257 243.626C238.88 243.857 238.454 243.999 238.012 244.04L227.102 244.834C227.009 244.843 226.917 244.848 226.825 244.848C226.266 244.847 225.72 244.685 225.251 244.381C224.783 244.077 224.412 243.643 224.185 243.132Z" fill="#2F2E41"/>
<path d="M239.835 255.815L231.951 255.815L228.2 235.367L239.836 235.368L239.835 255.815Z" fill="#FFB8B8"/>
<path d="M241.845 263.447L216.425 263.446V263.125C216.425 261.825 216.681 260.539 217.178 259.338C217.675 258.138 218.404 257.047 219.323 256.128C220.242 255.21 221.332 254.481 222.533 253.984C223.733 253.486 225.02 253.23 226.319 253.23H226.32L241.846 253.231L241.845 263.447Z" fill="#2F2E41"/>
<path d="M228.688 245.062L212.971 209.817C211.658 206.847 211.513 203.491 212.564 200.418C213.615 197.345 215.785 194.781 218.642 193.236L252.733 174.956L268.289 173.632L282.639 172.328L282.742 172.503C282.875 172.727 285.96 178.056 283.874 183.9C282.292 188.332 278.177 191.794 271.644 194.19C256.394 199.781 238.778 204.56 231.911 206.355C231.608 206.433 231.324 206.574 231.079 206.769C230.834 206.964 230.633 207.209 230.49 207.487C230.345 207.762 230.26 208.064 230.238 208.374C230.216 208.683 230.259 208.994 230.363 209.287L244.965 242.092C245.118 242.508 245.172 242.954 245.126 243.395C245.079 243.835 244.931 244.259 244.694 244.634C244.458 245.009 244.138 245.324 243.76 245.555C243.383 245.787 242.957 245.929 242.515 245.97L231.605 246.764C231.512 246.773 231.42 246.777 231.328 246.777C230.769 246.777 230.223 246.615 229.754 246.311C229.285 246.006 228.915 245.573 228.688 245.062Z" fill="#2F2E41"/>
<path d="M220.853 137.393C214.249 128.608 209.028 118.864 205.371 108.499C205.159 107.879 205.175 107.204 205.414 106.594C205.653 105.984 206.101 105.479 206.678 105.168L229.278 93.0583C229.644 92.8609 230.05 92.7496 230.465 92.7327C230.88 92.7159 231.294 92.794 231.674 92.9611C232.062 93.1295 232.406 93.384 232.68 93.7054C232.954 94.0268 233.152 94.4065 233.257 94.8157C235.888 104.803 240.832 114.032 247.691 121.754C247.973 122.068 248.18 122.443 248.296 122.849C248.412 123.256 248.433 123.683 248.359 124.099C248.287 124.508 248.123 124.896 247.879 125.232C247.635 125.569 247.318 125.845 246.951 126.04L224.35 138.15C223.772 138.458 223.103 138.551 222.463 138.413C221.823 138.274 221.252 137.913 220.853 137.393Z" fill="#CCCCCC"/>
<path d="M222.395 136.231C222.516 136.382 222.687 136.487 222.878 136.526C223.068 136.566 223.266 136.537 223.438 136.446L246.039 124.336C246.149 124.279 246.244 124.197 246.316 124.097C246.389 123.997 246.438 123.881 246.458 123.759C246.482 123.63 246.475 123.498 246.439 123.372C246.403 123.246 246.338 123.13 246.249 123.034C239.189 115.084 234.098 105.584 231.39 95.3017C231.359 95.1746 231.299 95.0566 231.214 94.9567C231.129 94.8569 231.023 94.7779 230.903 94.7261C230.79 94.6755 230.666 94.6518 230.542 94.6569C230.418 94.6621 230.297 94.6959 230.189 94.7556L207.588 106.865C207.417 106.958 207.284 107.107 207.211 107.288C207.138 107.468 207.131 107.669 207.19 107.854C210.781 118.033 215.909 127.603 222.395 136.231Z" fill="white"/>
<path d="M295.936 134.162L278.236 140.888L273.915 128.884C273.341 127.29 273.349 125.545 273.938 123.956C274.526 122.368 275.657 121.038 277.131 120.203C278.622 119.358 280.366 119.074 282.048 119.403C283.73 119.731 285.239 120.65 286.303 121.994L295.936 134.162Z" fill="#006E53"/>
<path d="M250.915 181.719C250.542 181.456 250.23 181.116 249.999 180.722C249.768 180.329 249.624 179.891 249.575 179.437C247.308 158.274 248.887 141.712 254.402 128.805C255.373 126.579 256.836 124.602 258.682 123.023C260.527 121.444 262.706 120.303 265.055 119.687L279.363 118.965L279.437 119.001C282.666 120.582 285.299 123.162 286.946 126.357C288.593 129.553 289.167 133.195 288.581 136.742C283.979 148.872 280.126 161.502 283.065 171.69C283.188 172.116 283.224 172.562 283.17 173.002C283.117 173.442 282.975 173.867 282.754 174.251C282.539 174.623 282.25 174.946 281.905 175.201C281.561 175.457 281.168 175.639 280.75 175.736L253.498 182.219C253.057 182.324 252.598 182.334 252.153 182.248C251.707 182.161 251.285 181.981 250.915 181.719Z" fill="#006E53"/>
<path d="M274.587 113.62C283.31 113.62 290.382 106.549 290.382 97.8256C290.382 89.1026 283.31 82.0312 274.587 82.0312C265.864 82.0312 258.793 89.1026 258.793 97.8256C258.793 106.549 265.864 113.62 274.587 113.62Z" fill="#FFB8B8"/>
<path d="M230.762 110.34L218.452 115.774C217.984 115.98 217.454 115.992 216.977 115.807C216.5 115.622 216.116 115.256 215.909 114.788L215.604 114.098C215.398 113.63 215.386 113.099 215.571 112.622C215.756 112.145 216.122 111.761 216.59 111.554L228.899 106.121C229.367 105.915 229.898 105.903 230.375 106.088C230.852 106.272 231.236 106.639 231.443 107.106L231.748 107.796C231.954 108.264 231.966 108.795 231.781 109.272C231.596 109.749 231.229 110.133 230.762 110.34Z" fill="#CCCCCC"/>
<path d="M235.263 118.699L222.953 124.133C222.485 124.339 221.955 124.351 221.478 124.166C221.001 123.981 220.617 123.615 220.409 123.147L220.105 122.458C219.899 121.989 219.887 121.459 220.072 120.982C220.257 120.505 220.623 120.121 221.091 119.914L233.4 114.48C233.868 114.274 234.399 114.262 234.876 114.447C235.353 114.632 235.737 114.998 235.944 115.466L236.249 116.156C236.455 116.624 236.466 117.154 236.282 117.631C236.097 118.108 235.73 118.492 235.263 118.699Z" fill="#CCCCCC"/>
<path d="M244.756 151.351L217.314 129.701C217.096 129.778 216.873 129.844 216.648 129.898C215.679 130.124 214.674 130.145 213.697 129.957C212.72 129.77 211.793 129.379 210.977 128.81C210.156 128.241 209.466 127.503 208.953 126.645C208.439 125.787 208.115 124.83 208.002 123.837C207.818 122.25 208.176 120.647 209.018 119.288C209.859 117.93 211.135 116.895 212.638 116.353C213.576 116.016 214.575 115.882 215.569 115.958C216.563 116.035 217.529 116.32 218.405 116.796C219.281 117.272 220.046 117.927 220.651 118.719C221.256 119.512 221.687 120.423 221.915 121.393C221.986 121.7 222.035 122.012 222.062 122.327L249.381 138.087L256.179 134.173L263.71 144.032L253.155 151.555C251.919 152.429 250.434 152.881 248.922 152.844C247.409 152.807 245.948 152.283 244.756 151.351Z" fill="#FFB8B8"/>
<path d="M267.059 147.105L251.401 136.458L258.76 126.036C259.737 124.652 261.172 123.658 262.811 123.229C264.45 122.801 266.188 122.966 267.717 123.695C269.264 124.432 270.496 125.698 271.191 127.265C271.886 128.831 271.999 130.595 271.507 132.236L267.059 147.105Z" fill="#006E53"/>
<path d="M268.798 95.4725C264.739 98.2509 259.409 101.107 255.263 98.1482C252.54 96.2054 251.683 92.6079 252.787 89.4508C254.772 83.7735 260.226 81.2741 265.442 79.3582C272.223 76.8676 279.606 74.8862 286.606 76.6698C293.606 78.4535 299.793 85.2309 298.529 92.3432C297.513 98.0627 292.118 102.822 292.884 108.58C293.654 114.376 300.172 117.426 305.926 118.462C311.68 119.498 318.119 119.831 322.254 123.963C327.529 129.236 326.212 138.66 321.248 144.226C316.284 149.793 308.794 152.316 301.536 154.031C291.919 156.304 281.518 157.498 272.384 153.727C263.251 149.955 256.143 139.802 258.789 130.281C259.907 126.259 262.539 122.86 265.084 119.551C267.628 116.243 270.204 112.783 271.175 108.723C271.984 105.34 271.385 101.412 269.142 98.8746C268.734 98.4304 268.477 97.8684 268.408 97.2692C268.34 96.6699 268.463 96.0644 268.759 95.5394L268.798 95.4725Z" fill="#2F2E41"/>
</g>
<defs>
<clipPath id="clip0_100_2641">
<rect width="347" height="291" fill="white"/>
</clipPath>
</defs>
</svg>