<svg width="452" height="340" viewBox="0 0 452 340" fill="none" xmlns="http://www.w3.org/2000/svg">
<g clip-path="url(#clip0_311_8617)">
<path d="M284.457 90.4952C265.01 77.9457 238.227 82.8217 219.281 96.1187C213.098 100.517 207.419 105.584 202.347 111.228C199.389 114.472 196.585 117.878 193.903 121.401C193.242 122.265 192.585 123.138 191.94 124.02C191.499 124.616 191.061 125.216 190.627 125.821C185.188 133.381 180.201 141.335 175.319 149.217C163.132 168.892 150.628 189.153 132.059 202.967C128.234 205.812 122.896 208.375 118.977 205.658C115.576 203.298 115.43 198.337 116.204 194.271C119.082 179.207 129.462 166.724 140.49 156.068C151.518 145.411 163.727 135.642 172.059 122.765C180.392 109.889 184.199 92.6981 176.9 79.2121C170.61 67.5905 157.077 61.0717 143.867 60.768C130.658 60.4673 117.825 65.6018 106.65 72.6522C95.4751 79.7054 85.6492 88.6549 75.3944 96.988C69.2128 102.015 60.5817 107.004 53.845 102.747C48.1548 99.1501 47.7109 90.5147 51.1021 84.7004C54.4934 78.8861 60.5462 75.2321 66.3488 71.8245C84.3645 61.2409 102.381 50.6582 120.397 40.0765C125.924 36.8328 131.572 33.4855 135.652 28.5393C139.733 23.5961 141.999 16.6485 139.749 10.6457C137.53 4.73014 131.332 0.973816 125.061 0.189899C118.794 -0.59221 112.474 1.14541 106.612 3.49908C84.6436 12.3216 32.9163 70.0396 19.13 79.9076C10.2703 86.2455 0.963318 94.2692 0.0673218 105.125C-1.04889 118.64 12.3983 129.855 25.8958 131.166C39.3914 132.481 52.4718 126.613 64.5304 120.409C76.589 114.204 88.8954 107.364 102.431 106.503C115.966 105.642 131.151 112.877 134.36 126.053C137.15 137.518 130.057 149.349 120.817 156.685C113.584 162.429 105.097 166.254 96.8979 170.555C94.6211 171.746 92.3683 172.977 90.171 174.293C84.5456 177.67 79.2872 181.623 74.481 186.089C69.4355 190.77 64.9065 195.978 60.9717 201.625C57.8317 206.124 55.0921 210.89 52.7842 215.868C52.4326 216.628 52.0911 217.399 51.7598 218.18C51.446 218.928 51.142 219.684 50.8538 220.449C47.0906 230.362 45.6246 241.471 50.4321 250.725C55.2274 259.954 65.6139 265.419 75.9854 266.177C81.9843 266.534 87.9964 265.74 93.6966 263.837C97.8888 262.475 101.947 260.731 105.82 258.626C123.776 248.988 137.992 233.705 150.975 217.994C163.954 202.283 176.177 185.741 191.586 172.405C206.995 159.066 226.304 148.981 246.684 149.134C267.064 149.285 288.073 161.702 293.861 181.242C302.298 166.704 308.003 150.132 307.25 133.342C306.497 116.552 298.578 99.6105 284.457 90.4952Z" fill="#3F3D56"/>
<path d="M205.39 144.814C204.153 144.814 203.151 143.812 203.151 142.575C203.151 141.339 204.153 140.336 205.39 140.336C206.626 140.336 207.629 141.339 207.629 142.575C207.629 143.812 206.626 144.814 205.39 144.814Z" fill="#006E53"/>
<path d="M289.769 148.016C287.857 148.016 286.307 146.466 286.307 144.554C286.307 142.642 287.857 141.092 289.769 141.092C291.681 141.092 293.23 142.642 293.23 144.554C293.23 146.466 291.681 148.016 289.769 148.016Z" fill="#FF6584"/>
<path d="M39.5627 117.386C38.8563 117.386 38.2836 116.813 38.2836 116.107C38.2836 115.4 38.8563 114.828 39.5627 114.828C40.2691 114.828 40.8418 115.4 40.8418 116.107C40.8418 116.813 40.2691 117.386 39.5627 117.386Z" fill="#FF6584"/>
<path d="M65.4416 48.6416C64.7352 48.6416 64.1626 48.069 64.1626 47.3626C64.1626 46.6562 64.7352 46.0835 65.4416 46.0835C66.148 46.0835 66.7207 46.6562 66.7207 47.3626C66.7207 48.069 66.148 48.6416 65.4416 48.6416Z" fill="#FF6584"/>
<path d="M98.3522 173.534C97.9892 172.486 97.4999 171.485 96.8951 170.555C94.6183 171.746 92.3655 172.977 90.1682 174.293C84.5428 177.67 79.2845 181.623 74.4783 186.089C76.4127 188.718 79.2257 190.566 82.4065 191.298C85.5873 192.029 88.925 191.596 91.8138 190.077C94.7026 188.558 96.9509 186.053 98.1506 183.018C99.3503 179.983 99.4218 176.618 98.3522 173.534L98.3522 173.534Z" fill="#FF6584"/>
<path d="M261.479 131.907C260.756 131.907 260.171 131.322 260.171 130.599C260.171 129.877 260.756 129.291 261.479 129.291C262.201 129.291 262.787 129.877 262.787 130.599C262.787 131.322 262.201 131.907 261.479 131.907Z" fill="#F0F0F0"/>
<path d="M101.206 35.1221C100.483 35.1221 99.8974 34.5365 99.8974 33.814C99.8974 33.0915 100.483 32.5059 101.206 32.5059C101.928 32.5059 102.514 33.0915 102.514 33.814C102.514 34.5365 101.928 35.1221 101.206 35.1221Z" fill="#F0F0F0"/>
<path d="M112.985 11.8209C112.262 11.8209 111.677 11.2352 111.677 10.5127C111.677 9.79026 112.262 9.20459 112.985 9.20459C113.707 9.20459 114.293 9.79026 114.293 10.5127C114.293 11.2352 113.707 11.8209 112.985 11.8209Z" fill="#F0F0F0"/>
<path d="M20.3598 98.6778C19.6374 98.6778 19.0517 98.0921 19.0517 97.3697C19.0517 96.6472 19.6374 96.0615 20.3598 96.0615C21.0823 96.0615 21.668 96.6472 21.668 97.3697C21.668 98.0921 21.0823 98.6778 20.3598 98.6778Z" fill="#F0F0F0"/>
<path d="M89.0727 100.557C88.3502 100.557 87.7646 99.9715 87.7646 99.2491C87.7646 98.5266 88.3502 97.9409 89.0727 97.9409C89.7952 97.9409 90.3809 98.5266 90.3809 99.2491C90.3809 99.9715 89.7952 100.557 89.0727 100.557Z" fill="#F0F0F0"/>
<path d="M125.536 225.33C124.813 225.33 124.227 224.744 124.227 224.022C124.227 223.299 124.813 222.713 125.536 222.713C126.258 222.713 126.844 223.299 126.844 224.022C126.844 224.744 126.258 225.33 125.536 225.33Z" fill="#F0F0F0"/>
<path d="M166.643 102.62C165.921 102.62 165.335 102.034 165.335 101.312C165.335 100.589 165.921 100.003 166.643 100.003C167.365 100.003 167.951 100.589 167.951 101.312C167.951 102.034 167.365 102.62 166.643 102.62Z" fill="#F0F0F0"/>
<path d="M168.481 77.8839C167.758 77.8839 167.173 77.2982 167.173 76.5757C167.173 75.8533 167.758 75.2676 168.481 75.2676C169.203 75.2676 169.789 75.8533 169.789 76.5757C169.789 77.2982 169.203 77.8839 168.481 77.8839Z" fill="#F0F0F0"/>
<path d="M96.768 229.586C94.6116 223.343 91.0019 217.702 86.2367 213.128C85.6075 212.526 84.9605 211.944 84.2955 211.382C77.7078 205.809 69.5628 202.402 60.9694 201.625C57.8294 206.124 55.0898 210.89 52.7819 215.868C52.4302 216.628 52.0888 217.399 51.7575 218.18C51.4437 218.928 51.1397 219.684 50.8514 220.449C47.0882 230.362 45.6222 241.471 50.4297 250.725C55.225 259.954 65.6116 265.419 75.983 266.177C81.982 266.535 87.994 265.74 93.6943 263.837C96.7818 258.36 98.5966 252.259 99.0042 245.985C99.0558 245.195 99.081 244.405 99.0888 243.611C99.1223 238.837 98.3374 234.094 96.768 229.586Z" fill="#006E53"/>
<path d="M114.083 221.297C111.982 215.243 104.122 211.679 91.9456 211.258C89.5092 211.172 86.8297 212.185 84.2967 211.382C72.0082 207.485 60.8594 210.032 51.7586 218.18C51.4449 218.927 51.1408 219.684 50.8526 220.449C50.9736 220.403 51.0957 220.361 51.2177 220.319C63.5151 216.051 75.7225 213.56 86.2378 213.128C88.1808 213.05 90.4986 211.925 91.8826 213.103C102.998 222.563 110.517 218.599 112.339 221.902C115.002 226.726 110.279 234.243 101.732 241.482C100.886 242.199 100.006 242.908 99.09 243.61C99.0822 244.405 99.0569 245.195 99.0053 245.985C100.384 244.965 101.69 243.935 102.924 242.892C112.221 235.018 116.183 227.348 114.083 221.297Z" fill="#E4E4E4"/>
<path d="M68.0239 264.177C67.3014 264.177 66.7157 263.591 66.7157 262.869C66.7157 262.146 67.3014 261.561 68.0239 261.561C68.7464 261.561 69.332 262.146 69.332 262.869C69.332 263.591 68.7464 264.177 68.0239 264.177Z" fill="#F0F0F0"/>
<path d="M91.1704 247.352C90.4479 247.352 89.8622 246.766 89.8622 246.044C89.8622 245.322 90.4479 244.736 91.1704 244.736C91.8928 244.736 92.4785 245.322 92.4785 246.044C92.4785 246.766 91.8928 247.352 91.1704 247.352Z" fill="#F0F0F0"/>
<path d="M73.4625 250.907C66.4369 250.907 60.7415 245.212 60.7415 238.186C60.7415 231.16 66.4369 225.465 73.4625 225.465C80.4882 225.465 86.1836 231.16 86.1836 238.186C86.1836 245.212 80.4882 250.907 73.4625 250.907Z" fill="#F0F0F0"/>
<path opacity="0.3" d="M273.328 97.5547C270.354 97.6944 264.204 99.1711 257.539 101.08C250.879 102.991 243.654 105.323 236.521 107.629C224.035 111.663 211.55 115.695 199.065 119.726C197.348 120.28 195.627 120.838 193.901 121.401C193.241 122.265 192.583 123.138 191.938 124.02C193.455 123.484 194.978 122.965 196.497 122.47C202.985 120.362 208.615 118.971 214.912 117.053C224.602 114.104 234.825 110.23 244.74 106.623C254.654 103.013 266.029 99.1273 273.328 97.5547Z" fill="#F0F0F0"/>
<path opacity="0.3" d="M51.3212 71.9456L23.2375 118.566L49.7371 71.0184C49.768 70.8674 49.8344 70.726 49.9309 70.6058C50.0273 70.4856 50.151 70.3901 50.2918 70.3273C50.4325 70.2645 50.5862 70.2362 50.7401 70.2446C50.8939 70.2531 51.0436 70.2981 51.1766 70.3759C51.3096 70.4538 51.4221 70.5622 51.5048 70.6923C51.5875 70.8223 51.638 70.9702 51.6522 71.1236C51.6663 71.2771 51.6436 71.4317 51.5861 71.5747C51.5285 71.7176 51.4377 71.8448 51.3212 71.9456Z" fill="#F0F0F0"/>
<path d="M65.018 209.533C64.2956 209.533 63.7099 208.948 63.7099 208.225C63.7099 207.503 64.2956 206.917 65.018 206.917C65.7405 206.917 66.3262 207.503 66.3262 208.225C66.3262 208.948 65.7405 209.533 65.018 209.533Z" fill="#F0F0F0"/>
<path d="M294.465 205.215C289.834 205.215 286.079 201.461 286.079 196.829C286.079 192.198 289.834 188.443 294.465 188.443C299.097 188.443 302.852 192.198 302.852 196.829C302.852 201.461 299.097 205.215 294.465 205.215Z" fill="#006E53"/>
<path d="M299.434 192.225C300.28 191.994 301.065 191.58 301.733 191.012C302.401 190.445 302.937 189.738 303.302 188.941C303.668 188.144 303.854 187.277 303.848 186.401C303.842 185.524 303.644 184.659 303.268 183.867L318.453 168.918L307.623 166.607L294.864 181.158C293.576 181.878 292.596 183.046 292.111 184.44C291.627 185.834 291.67 187.357 292.233 188.722C292.797 190.086 293.841 191.196 295.168 191.841C296.495 192.487 298.013 192.624 299.434 192.225L299.434 192.225Z" fill="#A0616A"/>
<path d="M372.038 75.8779L363.569 81.4596L353.657 83.7816C353.657 83.7816 345.795 139.969 341.932 143.339C338.069 146.709 341.324 147.029 340.277 151.678C339.23 156.327 336.807 165.837 336.807 165.837C360.34 180.424 381.363 182.205 399.299 168.235C399.579 167.314 399.536 166.325 399.177 165.433C398.818 164.54 398.165 163.796 397.325 163.326C394.293 161.442 400.871 154.061 398.388 152.583C395.905 151.105 400.292 140.049 400.292 140.049L399.527 116.306L401.658 112.665L398.656 89.2877L390.916 85.8481L388.266 77.9928L372.038 75.8779Z" fill="#F2F2F2"/>
<path d="M354.365 128.686L347.122 127.686C347.122 127.686 346.423 138.606 342.958 140.261C339.494 141.916 340.662 142.188 340.253 143.94C339.845 145.692 343.334 150.546 340.59 151.753C337.845 152.96 313.858 183.202 313.858 183.202L299.706 170.098C300.679 167.463 305.359 169.607 305.653 166.813C306.022 162.589 313.43 151.05 315.007 149.571C316.583 148.091 315.96 145.483 316.777 141.979C317.594 138.475 317.027 141.724 318.389 135.884C319.75 130.044 338.205 100.288 338.847 94.8963C339.489 89.5044 347.002 86.3306 347.002 86.3306L352.842 87.6924L354.365 128.686Z" fill="#006E53"/>
<path d="M415.521 322.87L406.997 325.108L394.306 293.292L406.887 289.989L415.521 322.87Z" fill="#A0616A"/>
<path d="M418.154 331.684L391.94 338.568L391.853 338.236C391.142 335.53 391.536 332.653 392.947 330.237C394.358 327.821 396.67 326.064 399.376 325.353L399.377 325.353L403.211 320.463L413.1 321.75L415.388 321.149L418.154 331.684Z" fill="#2F2E41"/>
<path d="M371.82 329.247L363.007 329.247L358.814 295.25L371.822 295.252L371.82 329.247Z" fill="#A0616A"/>
<path d="M372.128 338.442L345.025 338.441V338.098C345.025 335.3 346.137 332.617 348.115 330.639C350.094 328.66 352.777 327.549 355.575 327.549H355.575L360.526 323.793L369.763 327.549L372.129 327.549L372.128 338.442Z" fill="#2F2E41"/>
<path d="M393.861 166.564C395.99 169.225 394.925 178.274 394.925 178.274C394.925 178.274 398.651 207.548 397.054 210.21C395.458 212.871 398.119 215 399.716 218.726C401.313 222.452 402.909 231.5 402.909 231.5C411.958 238.952 411.426 273.017 411.426 273.017L414.619 303.356C413.555 306.55 398.651 307.082 396.522 306.55C394.393 306.018 373.635 230.968 373.635 230.968C373.635 230.968 374.699 303.356 374.699 306.55C374.699 309.744 360.328 308.147 357.134 308.147C353.941 308.147 333.715 177.741 333.715 177.741V170.29L336.376 166.564C336.376 166.564 391.732 163.902 393.861 166.564Z" fill="#2F2E41"/>
<path d="M388.81 79.4214L401.881 87.7493L408.203 93.0491L399.817 146.512C399.817 146.512 412.558 195.108 392.479 192.112C372.4 189.116 373.525 145.443 373.525 145.443L388.81 79.4214Z" fill="#006E53"/>
<path d="M371.32 155.367C372.075 155.814 372.918 156.09 373.79 156.176C374.663 156.261 375.543 156.155 376.37 155.863C377.197 155.572 377.949 155.102 378.575 154.488C379.201 153.875 379.685 153.131 379.992 152.31L401.295 152.824L395.424 143.436L376.094 144.386C374.681 143.962 373.16 144.07 371.822 144.691C370.483 145.312 369.418 146.403 368.83 147.756C368.241 149.11 368.17 150.632 368.629 152.035C369.088 153.438 370.046 154.624 371.32 155.367Z" fill="#A0616A"/>
<path d="M368.369 77.8491L354.405 82.4991C354.405 82.4991 338.959 80.8681 338.333 103.862C337.707 126.856 340.585 139.196 340.585 139.196C340.585 139.196 308.454 203.811 343.26 184.727L353.431 144.677L363.914 81.7802L368.369 77.8491Z" fill="#006E53"/>
<path d="M381.95 72.1921C372.653 72.1921 365.116 64.6549 365.116 55.3573C365.116 46.0597 372.653 38.5225 381.95 38.5225C391.248 38.5225 398.785 46.0597 398.785 55.3573C398.785 64.6549 391.248 72.1921 381.95 72.1921Z" fill="#A0616A"/>
<path d="M401.045 44.2955C399.154 41.371 395.607 39.4219 392.168 39.9696C391.848 37.775 390.932 35.7102 389.519 34.0001C388.107 32.29 386.253 31.0001 384.158 30.271C382.063 29.5418 379.809 29.4013 377.64 29.8647C375.471 30.3282 373.471 31.3778 371.857 32.8993C371.326 32.5256 370.708 32.2954 370.063 32.2307C369.417 32.1661 368.765 32.2693 368.171 32.5304C366.987 33.0685 365.958 33.8951 365.176 34.9342C363.203 37.3951 361.934 40.3449 361.504 43.4698C361.074 46.5947 361.5 49.7777 362.735 52.6799C362.315 51.1521 363.846 49.7147 365.393 49.3718C366.94 49.0289 368.563 49.3533 370.132 49.13C372.143 48.8439 373.95 47.6775 375.964 47.4149C377.657 47.1943 379.359 47.6283 381.009 48.0633C382.66 48.4982 384.358 48.9418 386.052 48.7405C387.748 48.5392 389.931 54.9629 389.902 59.4873C389.896 60.3447 390.073 61.4455 390.911 61.6274C391.942 61.8515 392.54 60.4273 393.523 60.0392C393.975 59.9095 394.461 59.9605 394.876 60.1816C395.292 60.4027 395.606 60.7765 395.751 61.2243C395.875 61.6796 395.888 62.1579 395.79 62.6193C395.692 63.0807 395.484 63.512 395.186 63.8772C394.582 64.6012 393.865 65.2229 393.063 65.7183L393.468 66.0547C394.141 66.9436 395.536 66.9821 396.506 66.4322C397.434 65.8041 398.185 64.949 398.688 63.9483C400.482 60.964 402.056 57.7843 402.689 54.3601C403.322 50.936 402.935 47.2201 401.045 44.2955Z" fill="#2F2E41"/>
<path d="M395.102 94.6216L402.667 88.1387C402.667 88.1387 411.5 90.8948 412.997 96.6893C424.786 111.763 431.135 129.367 432.84 149.132C417.449 154.945 398.603 157.007 378.329 157.519L382.522 141.794L411.35 136.553L395.102 94.6216Z" fill="#006E53"/>
<path d="M421.906 331.031L425.947 324.536L426.754 328.247C426.896 328.897 427.037 329.558 427.168 330.213C428.316 329.233 429.538 328.326 430.733 327.456C434.402 324.793 438.069 322.127 441.734 319.458L440.587 326.114C439.879 330.213 439.14 334.396 437.389 338.143C437.195 338.568 436.986 338.987 436.76 339.396H419.705C419.567 339.016 419.472 338.622 419.422 338.222C419.417 338.196 419.416 338.169 419.416 338.143C419.149 335.601 420.554 333.206 421.906 331.031Z" fill="#F2F2F2"/>
<path d="M271.179 323.57L263.533 311.284L262.006 318.304C261.739 319.534 261.471 320.783 261.223 322.023C259.051 320.168 256.741 318.453 254.48 316.807C247.539 311.77 240.601 306.726 233.666 301.675L235.838 314.269C237.177 322.023 238.575 329.936 241.887 337.026C242.254 337.829 242.65 338.622 243.077 339.396H275.344C275.603 338.677 275.783 337.932 275.879 337.174C275.887 337.125 275.89 337.075 275.889 337.026C276.395 332.216 273.737 327.685 271.179 323.57Z" fill="#F2F2F2"/>
<path d="M277.173 339.658H312.279C313.878 339.656 315.412 339.02 316.543 337.889C317.674 336.757 318.311 335.224 318.312 333.624V210.463C318.311 208.863 317.674 207.33 316.543 206.198C315.412 205.067 313.878 204.431 312.279 204.429H277.173C275.574 204.431 274.04 205.067 272.909 206.198C271.778 207.33 271.142 208.863 271.14 210.463V333.624C271.142 335.224 271.778 336.757 272.909 337.889C274.04 339.02 275.574 339.656 277.173 339.658Z" fill="#F2F2F2"/>
<path d="M285.464 207.574H303.467C304.068 207.574 304.644 207.334 305.069 206.909C305.495 206.484 305.734 205.908 305.734 205.306V198.835C305.734 198.234 305.495 197.658 305.069 197.233C304.644 196.807 304.068 196.568 303.467 196.567H285.464C284.863 196.568 284.286 196.807 283.861 197.233C283.436 197.658 283.197 198.234 283.196 198.835V205.306C283.197 205.908 283.436 206.484 283.861 206.909C284.286 207.334 284.863 207.574 285.464 207.574Z" fill="#3F3D56"/>
<path d="M233.977 339.839L450.841 340C451.006 340 451.164 339.934 451.281 339.817C451.397 339.7 451.463 339.541 451.463 339.376C451.463 339.211 451.397 339.052 451.281 338.935C451.164 338.818 451.006 338.752 450.841 338.752L233.977 338.591C233.812 338.591 233.653 338.657 233.537 338.774C233.42 338.891 233.355 339.05 233.355 339.215C233.355 339.38 233.42 339.539 233.537 339.656C233.653 339.773 233.812 339.839 233.977 339.839Z" fill="#CACACA"/>
</g>
<defs>
<clipPath id="clip0_311_8617">
<rect width="451.466" height="340" fill="white" transform="matrix(-1 0 0 1 451.465 0)"/>
</clipPath>
</defs>
</svg>
