<svg width="292" height="179" viewBox="0 0 292 179" fill="none" xmlns="http://www.w3.org/2000/svg">
<path fill-rule="evenodd" clip-rule="evenodd" d="M269.093 27.2819C274.301 27.945 278.701 30.7503 282.461 34.4153C286.284 38.1424 289.226 42.5199 290.125 47.7833C291.233 54.272 292.213 61.6272 287.966 66.6562C283.536 71.9015 275.942 72.2107 269.093 72.6869C261.512 73.2138 253.395 74.1458 247.4 69.4762C240.837 64.3647 236.182 56.0485 237.12 47.7833C238.007 39.9743 245.209 34.7577 251.825 30.5154C256.949 27.2293 263.054 26.5132 269.093 27.2819Z" fill="url(#paint0_linear_216_42)" fill-opacity="0.38"/>
<path fill-rule="evenodd" clip-rule="evenodd" d="M208.55 105.04C217.662 105.523 225.372 111.2 231.488 117.972C237.252 124.352 240.702 132.315 240.95 140.909C241.206 149.782 238.601 158.448 232.85 165.209C226.577 172.583 218.23 178.833 208.55 178.997C198.754 179.162 190.295 173.021 183.416 166.043C176.596 159.126 171.072 150.623 171.001 140.909C170.929 131.136 175.977 122.155 183.045 115.404C189.943 108.814 199.024 104.535 208.55 105.04Z" fill="#E2E3FB" fill-opacity="0.7"/>
<path d="M163.842 11.1687C163.842 11.1687 141.61 -5.49152 112.693 1.88386C83.777 9.25924 71.6684 32.1362 55.0895 47.8518C46.4041 56.079 33.5739 59.1107 23.256 65.4445C-9.7434 85.6975 -4.85068 131.246 20.5897 148.402C42.6157 163.274 70.1373 164.828 105.948 153.86C141.759 142.892 167.384 136.304 189.591 104.885C211.797 73.4658 191.232 33.7792 163.842 11.1687Z" fill="url(#paint1_linear_216_42)" fill-opacity="0.38"/>
<path d="M10.4448 155.438H218" stroke="#263238" stroke-width="0.47681" stroke-linecap="round" stroke-linejoin="round"/>
<path d="M2.95888 155.438H7.11666" stroke="#263238" stroke-width="0.47681" stroke-linecap="round" stroke-linejoin="round"/>
<path d="M87.378 122.672H79.5393V155.438H87.378V122.672Z" fill="white" stroke="#263238" stroke-width="0.47681" stroke-linecap="round" stroke-linejoin="round"/>
<path d="M138.945 122.672H131.106V155.438H138.945V122.672Z" fill="white" stroke="#263238" stroke-width="0.47681" stroke-linecap="round" stroke-linejoin="round"/>
<path d="M138.95 119.205H79.5393V124.336H138.95V119.205Z" fill="white" stroke="#263238" stroke-width="0.47681" stroke-linecap="round" stroke-linejoin="round"/>
<path d="M105.115 113.064C104.385 111.907 103.589 110.792 102.731 109.726C101.539 108.296 98.2016 105.554 98.2016 105.554L102.493 107.819C102.493 107.819 101.778 105.792 101.062 104.124C100.347 102.455 99.1552 98.4019 99.1552 98.4019C99.1552 98.4019 102.016 103.289 102.731 104.124C103.446 104.958 104.639 106.746 104.639 106.746C104.639 106.746 104.758 102.216 105.354 100.786C105.95 99.3555 108.453 96.0178 108.453 96.0178C108.453 96.0178 107.619 101.263 107.619 101.859C107.619 102.455 107.976 106.15 107.976 106.15L109.407 98.6403L109.526 103.885L110.599 98.2827C110.599 98.2827 111.433 102.574 111.671 103.885C111.825 104.871 111.905 105.867 111.91 106.865L112.983 102.932L115.605 98.4019C115.605 98.4019 115.605 103.528 115.486 104.004C115.367 104.481 115.248 107.58 115.248 107.58L116.797 105.912L115.605 109.607L117.155 109.845L117.87 110.441C117.87 110.441 115.009 111.295 113.75 111.643C112.492 111.991 110.122 113.421 110.122 113.421L105.115 113.064Z" fill="#92E3A9"/>
<path d="M105.95 113.064C105.95 113.064 103.923 108.653 101.897 107.581C99.8704 106.508 98.9168 106.031 98.9168 106.031C98.9168 106.031 101.897 106.15 103.446 107.223C104.436 107.948 105.25 108.885 105.831 109.965C105.515 108.475 105.356 106.957 105.354 105.435C105.354 102.932 105.95 97.5676 105.95 97.5676C105.95 97.5676 105.831 104.243 106.427 106.508C106.849 108.025 107.408 109.501 108.095 110.918C108.095 110.918 108.334 108.773 108.691 106.627C109.138 104.533 109.695 102.464 110.36 100.428L109.407 109.011C110.046 107.942 110.604 106.826 111.075 105.673C111.791 103.885 115.367 101.501 115.367 101.501C115.367 101.501 112.625 104.958 112.029 106.865C111.433 108.773 110.837 110.441 110.837 110.441C111.497 109.418 112.3 108.495 113.221 107.7C114.652 106.508 117.274 105.793 117.274 105.793C117.274 105.793 113.698 108.415 113.34 109.249C112.983 110.084 112.387 111.634 112.387 111.634C112.387 111.634 115.724 108.773 118.585 107.938C118.585 107.938 114.175 111.037 112.983 113.183L105.95 113.064Z" stroke="#263238" stroke-width="0.47681" stroke-linecap="round" stroke-linejoin="round"/>
<path d="M103.461 112.12C103.264 112.817 103.16 113.536 103.151 114.261C103.151 118.628 105.754 118.99 108.963 118.99C112.172 118.99 114.775 118.747 114.775 114.261C114.766 113.536 114.662 112.817 114.466 112.12H103.461Z" fill="#263238" stroke="#263238" stroke-width="0.47681" stroke-linecap="round" stroke-linejoin="round"/>
<path d="M103.151 114.261C103.151 114.356 103.151 114.442 103.151 114.537H114.756C114.756 114.442 114.756 114.356 114.756 114.261C114.756 114.065 114.756 113.865 114.728 113.66H103.179C103.16 113.857 103.151 114.057 103.151 114.261Z" fill="#92E3A9"/>
<path d="M114.671 115.639C114.671 115.505 114.709 115.362 114.723 115.214H103.203C103.203 115.362 103.237 115.505 103.261 115.639H114.671Z" fill="#92E3A9"/>
<path d="M203.777 122.448L206.461 155.228H205.522L200.687 122.719L203.777 122.448Z" fill="white" stroke="#263238" stroke-width="0.47681" stroke-linecap="round" stroke-linejoin="round"/>
<path d="M183.632 122.448L186.316 155.228H185.377L180.542 122.719L183.632 122.448Z" fill="white" stroke="#263238" stroke-width="0.47681" stroke-linecap="round" stroke-linejoin="round"/>
<path d="M181.214 122.448L178.525 155.228H179.469L184.304 122.719L181.214 122.448Z" fill="white" stroke="#263238" stroke-width="0.47681" stroke-linecap="round" stroke-linejoin="round"/>
<path d="M158.38 122.448L155.695 155.228H156.635L161.469 122.719L158.38 122.448Z" fill="white" stroke="#263238" stroke-width="0.47681" stroke-linecap="round" stroke-linejoin="round"/>
<path d="M182.95 70.1176H212.755C212.755 70.1176 216.331 71.1094 214.743 75.2862C213.156 79.4631 204.22 123.587 204.22 123.587H156.911L153.931 96.1562C153.931 96.1562 153.33 92.1796 156.115 91.5836C158.899 90.9876 170.228 91.3833 172.417 90.1913C174.606 88.9993 179.531 71.7054 179.531 71.7054C179.531 71.7054 179.965 69.7123 182.95 70.1176Z" fill="#92E3A9" stroke="#263238" stroke-width="0.47681" stroke-linecap="round" stroke-linejoin="round"/>
<path d="M180.68 117.341H156.897" stroke="#263238" stroke-width="0.47681" stroke-linecap="round" stroke-linejoin="round"/>
<path d="M198.298 35.6301C196.319 34.1276 193.972 33.184 191.504 32.898C187.665 32.569 182.077 37.1893 181.967 39.6926C181.858 42.1958 180.437 41.7762 179.998 43.2019C179.56 44.6275 181.309 44.4034 181.309 45.3904C181.309 46.3774 179.011 47.5838 179.231 48.4611C179.45 49.3384 181.858 50.2157 181.858 50.7593C181.858 51.3029 180.542 52.2946 181.638 53.172C182.735 54.0493 183.832 53.3913 184.27 54.488C184.709 55.5846 185.701 56.6813 186.025 55.9184C186.349 55.1555 185.257 50.6735 185.696 47.4789C186.135 44.2842 187.012 42.8776 190.407 41.5616C193.802 40.2457 196.215 39.2587 197.64 37.9427C199.066 36.6267 198.298 35.6301 198.298 35.6301Z" fill="#263238"/>
<path d="M193.602 36.0545C193.602 36.0545 190.741 34.0042 188.681 35.7779C186.621 37.5517 186.774 39.7402 185.262 40.4268C183.751 41.1134 181.572 41.5187 182.401 43.4307C183.231 45.3427 184.728 48.1988 183.088 48.7615C181.448 49.3241 180.227 50.8117 180.761 51.3601" stroke="#666666" stroke-width="0.47681" stroke-linecap="round" stroke-linejoin="round"/>
<path d="M198.298 35.6301C196.319 34.1276 193.972 33.184 191.504 32.898C187.665 32.569 182.077 37.1893 181.967 39.6926C181.858 42.1958 180.437 41.7762 179.998 43.2019C179.56 44.6275 181.309 44.4034 181.309 45.3904C181.309 46.3774 179.011 47.5838 179.231 48.4611C179.45 49.3384 181.858 50.2157 181.858 50.7593C181.858 51.3029 180.542 52.2946 181.638 53.172C182.735 54.0493 183.832 53.3913 184.27 54.488C184.709 55.5846 185.701 56.6813 186.025 55.9184C186.349 55.1555 185.257 50.6735 185.696 47.4789C186.135 44.2842 187.012 42.8776 190.407 41.5616C193.802 40.2457 196.215 39.2587 197.64 37.9427C199.066 36.6267 198.298 35.6301 198.298 35.6301Z" stroke="#263238" stroke-width="0.47681" stroke-linecap="round" stroke-linejoin="round"/>
<path d="M191.299 37.9282C191.299 37.9282 185.82 40.4505 185.052 42.5342C184.285 44.6178 184.833 48.3417 184.614 48.89C184.394 49.4383 182.64 50.4253 182.859 50.8592C183.208 51.3438 183.613 51.7855 184.065 52.1752C184.065 52.1752 184.285 57.8731 185.71 58.3118C187.136 58.7504 190.955 57.5489 190.955 57.5489L193.258 65.9836L202.68 63.3564L199.176 55.3556C199.176 55.3556 203.467 49.7674 203.886 46.0387C204.306 42.31 200.601 37.2702 197.86 36.7218C195.118 36.1735 191.723 37.7088 191.723 37.7088L191.299 37.9282Z" fill="#B2B2B2" stroke="#263238" stroke-width="0.47681" stroke-linecap="round" stroke-linejoin="round"/>
<path d="M186.626 49.2144C186.897 49.2144 187.117 48.749 187.117 48.1749C187.117 47.6009 186.897 47.1355 186.626 47.1355C186.355 47.1355 186.135 47.6009 186.135 48.1749C186.135 48.749 186.355 49.2144 186.626 49.2144Z" fill="#263238"/>
<path d="M185.915 45.1616C185.915 45.1616 187.122 43.7312 188.433 45.3809" stroke="#263238" stroke-width="0.47681" stroke-linecap="round" stroke-linejoin="round"/>
<path d="M180.084 91.741C180.084 91.741 170.624 93.7865 169.16 93.982C167.697 94.1775 166.137 93.5957 165.746 93.5052C165.355 93.4146 162.237 91.8459 161.846 91.8459C161.455 91.8459 160.287 92.8233 159.019 93.1142C157.75 93.405 156.096 92.8233 155.8 93.4098C155.505 93.9963 156.873 94.187 157.555 94.2871C158.237 94.3873 159.801 94.3825 159.801 94.3825C159.801 94.3825 157.264 95.8463 156.873 96.0418C156.482 96.2373 153.85 95.4553 154.046 96.3326C154.241 97.21 158.141 97.7011 159.801 97.8918C161.46 98.0825 165.746 96.6283 165.746 96.6283C165.746 96.6283 171.401 97.8918 173.852 97.7964C176.303 97.7011 179.603 97.5056 179.603 97.5056L180.084 91.741Z" fill="#B2B2B2" stroke="#263238" stroke-width="0.47681" stroke-linecap="round" stroke-linejoin="round"/>
<path d="M158.337 97.5914C158.337 97.5914 154.436 96.0322 155.218 96.0322C156 96.0322 157.946 96.9096 157.946 96.9096C157.946 96.9096 156.482 95.5459 156.992 95.5459C157.502 95.5459 160.306 96.7904 160.306 96.7904C160.306 96.7904 158.451 95.7175 159.524 95.913C160.597 96.1085 162.862 96.7904 162.862 96.7904" fill="#B2B2B2"/>
<path d="M158.337 97.5914C158.337 97.5914 154.436 96.0322 155.218 96.0322C156 96.0322 157.946 96.9096 157.946 96.9096C157.946 96.9096 156.482 95.5459 156.992 95.5459C157.502 95.5459 160.306 96.7904 160.306 96.7904C160.306 96.7904 158.451 95.7175 159.524 95.913C160.597 96.1085 162.862 96.7904 162.862 96.7904" stroke="#263238" stroke-width="0.47681" stroke-linecap="round" stroke-linejoin="round"/>
<path d="M149.177 97.0717C149.177 97.0717 142.502 97.0717 141.024 100.819C139.546 104.567 151.514 147.575 151.514 147.575C151.514 147.575 147.275 152.301 144.338 153.445C141.401 154.589 140.914 154.913 142.054 155.238C143.193 155.562 148.577 155.715 151.352 154.913C154.127 154.112 157.874 151.976 159.343 151.323C160.811 150.67 158.69 149.368 157.712 146.922C156.735 144.476 153.082 129.523 152.92 124.793C152.758 120.063 151.123 107.018 151.123 107.018C151.123 107.018 156.344 110.77 166.128 112.563C175.912 114.356 166.457 102.288 162.051 99.5178C157.645 96.7475 149.177 97.0717 149.177 97.0717Z" fill="#263238" stroke="#263238" stroke-width="0.47681" stroke-linecap="round" stroke-linejoin="round"/>
<path d="M153.154 149.855L151.247 147.857C150.293 148.877 146.836 152.467 144.328 153.445C141.391 154.585 140.905 154.913 142.044 155.238C143.184 155.562 148.567 155.715 151.342 154.914C154.117 154.112 157.865 151.976 159.333 151.323C160.711 150.713 158.928 149.526 157.903 147.361L153.154 149.855Z" fill="white" stroke="#263238" stroke-width="0.47681" stroke-linecap="round" stroke-linejoin="round"/>
<path d="M141.906 154.484C141.291 154.842 141.396 155.033 142.063 155.223C143.208 155.552 148.586 155.7 151.361 154.899C154.136 154.098 157.884 151.962 159.352 151.309C160.025 151.008 159.939 150.57 159.557 149.95C156.31 151.476 149.482 154.632 148.295 154.79C146.85 154.995 142.593 154.57 141.906 154.484Z" fill="#263238" stroke="#263238" stroke-width="0.47681" stroke-linecap="round" stroke-linejoin="round"/>
<path d="M202.022 62.0405L190.955 65.2161C190.955 65.2161 189.968 69.2737 187.012 71.4671C184.056 73.6604 180.337 75.7583 179.45 79.4632C178.563 83.168 178.792 86.6964 179.011 89.9863C179.231 93.2763 176.599 100.176 176.599 100.176C176.599 100.176 159.829 96.5615 154.241 96.7904C148.653 97.0193 144.6 96.2421 143.723 101.83C142.845 107.419 146.583 146.069 146.583 146.069C146.583 146.069 140.886 151.314 138.363 152.868C135.841 154.422 133.762 155.386 135.188 155.934C136.613 156.482 143.737 155.715 146.364 155.276C148.991 154.837 153.597 154.618 154.255 153.083C154.913 151.547 152.61 144.428 152.72 143.77C152.83 143.112 153.039 127.692 154.026 122.104C154.682 118.039 155.121 113.943 155.342 109.831C155.342 109.831 179.784 116.626 185.811 116.626C191.837 116.626 195.781 115.748 197.535 105.659C199.29 95.5698 197.864 94.1489 199.948 90.096C202.032 86.0431 204.001 80.9985 204.239 74.7523C204.478 68.5061 202.022 62.0405 202.022 62.0405Z" fill="white" stroke="#263238" stroke-width="0.47681" stroke-linecap="round" stroke-linejoin="round"/>
<path d="M182.773 106.041C178.997 102.984 177.4 101.001 176.746 99.7753C176.656 100.033 176.599 100.176 176.599 100.176C176.599 100.176 159.829 96.5616 154.241 96.7905C148.653 97.0193 144.6 96.2421 143.723 101.83C142.845 107.419 146.583 146.069 146.583 146.069C146.583 146.069 140.886 151.314 138.363 152.868C135.841 154.422 133.762 155.386 135.188 155.934C136.613 156.482 143.737 155.715 146.364 155.276C148.991 154.837 153.597 154.618 154.255 153.083C154.913 151.547 152.61 144.429 152.72 143.771C152.83 143.113 153.039 127.692 154.026 122.104C154.682 118.039 155.121 113.943 155.342 109.831C155.342 109.831 179.784 116.626 185.811 116.626C190.226 116.626 193.525 116.149 195.661 111.929C191.804 111.014 186.793 109.292 182.773 106.041Z" fill="#263238" stroke="#263238" stroke-width="0.47681" stroke-linecap="round" stroke-linejoin="round"/>
<path d="M146.202 146.407C144.891 147.599 140.48 151.557 138.358 152.858C135.841 154.389 133.757 155.376 135.183 155.924C136.609 156.473 143.732 155.705 146.359 155.266C148.987 154.828 153.593 154.608 154.251 153.073C154.642 152.162 153.984 149.259 153.411 146.932L147.938 148.715L146.202 146.407Z" fill="white" stroke="#263238" stroke-width="0.47681" stroke-linecap="round" stroke-linejoin="round"/>
<path d="M135.183 155.915C136.613 156.463 143.732 155.695 146.359 155.257C148.987 154.818 153.593 154.599 154.251 153.063C154.28 152.994 154.302 152.922 154.317 152.849C148.934 153.965 139.636 154.756 134.887 155.118C134.611 155.438 134.654 155.724 135.183 155.915Z" fill="#263238" stroke="#263238" stroke-width="0.47681" stroke-linecap="round" stroke-linejoin="round"/>
<path d="M190.955 65.2161C190.955 65.2161 189.968 69.2737 187.012 71.4671C184.056 73.6604 180.337 75.7583 179.45 79.4632C178.563 83.168 178.792 86.6964 179.011 89.9863C179.231 93.2763 176.599 100.176 176.599 100.176C176.599 100.176 174.577 99.7419 171.702 99.1792C172.379 103.432 175.464 115.586 188.576 116.511C193.053 116.087 196.062 114.103 197.531 105.659C199.285 95.5746 197.86 94.1489 199.943 90.096C202.027 86.0431 203.996 80.9985 204.234 74.7523C204.473 68.5061 202.041 62.0405 202.041 62.0405L190.955 65.2161Z" fill="white" stroke="#263238" stroke-width="0.47681" stroke-linecap="round" stroke-linejoin="round"/>
<path d="M189.968 68.0674L202.68 64.6677" stroke="#263238" stroke-width="0.47681" stroke-linecap="round" stroke-linejoin="round"/>
<path d="M163.439 82.0903C163.439 82.0903 162.919 78.786 162.313 79.2581C161.708 79.7301 162.452 82.6625 162.452 82.6625C162.791 82.7811 163.146 82.8502 163.505 82.8675" fill="#B2B2B2"/>
<path d="M163.439 82.0903C163.439 82.0903 162.919 78.786 162.313 79.2581C161.708 79.7301 162.452 82.6625 162.452 82.6625C162.791 82.7811 163.146 82.8502 163.505 82.8675" stroke="#263238" stroke-width="0.47681" stroke-linecap="round" stroke-linejoin="round"/>
<path d="M202.132 70.48C202.132 70.48 201.474 67.2996 197.421 67.848C193.368 68.3963 191.942 70.3703 190.846 75.7392C189.749 81.1081 188.104 89.8766 188.104 89.8766C188.104 89.8766 174.076 81.108 171.997 79.6824C169.918 78.2567 167.282 78.0422 166.08 78.9147C164.879 79.7873 161.584 82.9724 161.584 82.9724C161.584 82.9724 159.939 79.6824 159.72 80.7791C159.5 81.8757 160.268 84.727 161.913 85.385C163.558 86.043 166.509 83.7686 166.838 83.659C167.167 83.5493 164.864 85.962 165.632 86.0716C166.4 86.1813 167.062 85.1943 168.493 84.317C169.439 83.7022 170.292 82.9538 171.025 82.095C171.025 82.095 178.806 89.5476 181.214 91.4119C183.622 93.2762 190.188 98.2207 191.504 98.2207C192.82 98.2207 194.57 96.1371 195.447 94.2728C196.324 92.4084 201.693 80.4453 202.461 74.6568" fill="#B2B2B2"/>
<path d="M202.132 70.48C202.132 70.48 201.474 67.2996 197.421 67.848C193.368 68.3963 191.942 70.3703 190.846 75.7392C189.749 81.1081 188.104 89.8766 188.104 89.8766C188.104 89.8766 174.076 81.108 171.997 79.6824C169.918 78.2567 167.282 78.0422 166.08 78.9147C164.879 79.7873 161.584 82.9724 161.584 82.9724C161.584 82.9724 159.939 79.6824 159.72 80.7791C159.5 81.8757 160.268 84.727 161.913 85.385C163.558 86.043 166.509 83.7686 166.838 83.659C167.167 83.5493 164.864 85.962 165.632 86.0716C166.4 86.1813 167.062 85.1943 168.493 84.317C169.439 83.7022 170.292 82.9538 171.025 82.095C171.025 82.095 178.806 89.5476 181.214 91.4119C183.622 93.2762 190.188 98.2207 191.504 98.2207C192.82 98.2207 194.57 96.1371 195.447 94.2728C196.324 92.4084 201.693 80.4453 202.461 74.6568" stroke="#263238" stroke-width="0.47681" stroke-linecap="round" stroke-linejoin="round"/>
<path d="M166.838 83.659L167.315 82.7722C167.111 82.3721 166.935 81.9578 166.791 81.5325C166.768 81.3448 166.79 81.1546 166.854 80.9767C166.917 80.7988 167.021 80.6381 167.158 80.5073" fill="white"/>
<path d="M166.838 83.659L167.315 82.7722C167.111 82.3721 166.935 81.9578 166.791 81.5325C166.768 81.3448 166.79 81.1546 166.854 80.9767C166.917 80.7988 167.021 80.6381 167.158 80.5073" stroke="#263238" stroke-width="0.47681" stroke-linecap="round" stroke-linejoin="round"/>
<path d="M162.342 83.8355C162.342 83.8355 158.78 80.4215 158.494 81.5086C158.208 82.5958 161.694 85.3851 161.694 85.3851C161.977 85.4445 162.271 85.4072 162.531 85.2793C162.79 85.1514 162.999 84.9401 163.124 84.6794" fill="#B2B2B2"/>
<path d="M162.342 83.8355C162.342 83.8355 158.78 80.4215 158.494 81.5086C158.208 82.5958 161.694 85.3851 161.694 85.3851C161.977 85.4445 162.271 85.4072 162.531 85.2793C162.79 85.1514 162.999 84.9401 163.124 84.6794" stroke="#263238" stroke-width="0.47681" stroke-linecap="round" stroke-linejoin="round"/>
<path d="M163.792 83.9928C163.792 83.9928 162.123 79.3535 161.384 80.1783C160.645 81.0032 162.523 85.0704 162.523 85.0704C162.523 85.0704 162.79 86.0574 164.764 84.708" fill="#B2B2B2"/>
<path d="M163.792 83.9928C163.792 83.9928 162.123 79.3535 161.384 80.1783C160.645 81.0032 162.523 85.0704 162.523 85.0704C162.523 85.0704 162.79 86.0574 164.764 84.708" stroke="#263238" stroke-width="0.47681" stroke-linecap="round" stroke-linejoin="round"/>
<path d="M210.891 91.0925C210.891 91.0925 203.576 97.2195 194.794 97.8299C186.011 98.4402 182.182 100.057 181.624 104.901C181.066 109.745 180.404 123.439 180.404 123.439L204.063 123.587L209.551 97.5867L210.891 91.0925Z" fill="#92E3A9" stroke="#263238" stroke-width="0.47681" stroke-linecap="round" stroke-linejoin="round"/>
<path d="M204.94 98.073C204.94 98.073 202.747 101.001 197.259 101.487C191.771 101.973 187.622 102.708 186.292 104.539" stroke="#263238" stroke-width="0.47681" stroke-linecap="round" stroke-linejoin="round"/>
<path d="M213.613 55.6608C212.607 55.3699 214.19 53.5008 214.91 51.7748C215.63 50.0487 213.613 49.0379 212.049 48.1749C210.485 47.3118 212.049 45.581 211.906 43.278C211.763 40.975 209.999 41.018 209.169 39.6829C208.34 38.3478 209.889 33.923 204.277 33.3461C198.665 32.7692 196.505 33.6369 194.198 34.7765C193.087 35.3754 192.173 36.2828 191.566 37.3894C191.036 37.8901 190.612 38.5195 190.865 39.125C191.413 40.441 191.961 41.3183 191.194 42.744C190.426 44.1697 190.865 45.4809 191.523 46.0292C192.181 46.5776 192.181 48.0032 191.084 49.0999C189.987 50.1965 190.316 51.0691 191.303 51.6174C192.29 52.1658 193.387 53.5914 192.4 54.9074C191.413 56.2234 191.742 58.083 193.716 58.5216C194.346 58.624 194.965 58.7836 195.566 58.9984L196.043 61.1012C195.905 62.0119 195.733 62.8415 196.462 63.0084C196.771 63.049 197.085 62.9905 197.359 62.8415C197.708 62.7709 198.05 62.6736 198.384 62.5507C199.104 62.2598 199.39 63.9811 200.11 65.4115C200.83 66.842 202.971 66.1315 204.144 65.1207C204.261 65.0117 204.401 64.9307 204.554 64.8836C204.707 64.8365 204.868 64.8246 205.026 64.8489C205.451 65.1772 205.964 65.3729 206.499 65.4115C207.192 65.7696 207.974 65.9187 208.75 65.8407C210.91 65.5546 210.619 64.6916 210.91 63.3946C211.201 62.0977 212.34 62.0977 214.076 60.6577C215.811 59.2178 214.619 55.9469 213.613 55.6608Z" fill="#263238"/>
<path d="M193.735 35.3677C193.735 35.3677 194.965 36.0543 194.422 38.0998C193.878 40.1453 192.915 41.1085 193.873 41.7903C194.832 42.4721 197.287 43.8406 196.734 45.6048C196.181 47.369 194.412 49.0187 195.914 50.1154C197.416 51.2121 200.558 51.8891 200.425 54.0777C200.291 56.2662 199.328 57.8922 200.558 58.5883C201.788 59.2845 203.705 58.04 203.977 59.5419C204.249 61.0439 203.429 63.0942 204.387 63.3564C205.345 63.6186 206.819 63.0703 207.248 64.0382C207.508 64.6382 207.601 65.2969 207.52 65.9455" stroke="#666666" stroke-width="0.47681" stroke-linecap="round" stroke-linejoin="round"/>
<path d="M196.334 33.594C196.334 33.594 199.195 34.4141 199.066 36.7362C198.937 39.0582 197.836 42.4579 198.794 43.0205C199.752 43.5831 202.346 44.389 202.075 46.1675C201.803 47.946 200.844 49.4431 201.664 50.1297C202.485 50.8164 204.94 52.037 204.94 53.1336C204.94 54.2303 203.576 54.2303 204.53 55.7323C205.484 57.2342 208.497 57.0959 208.631 59.1462C208.764 61.1965 207.949 62.2932 208.359 62.7032C208.769 63.1133 209.861 64.3387 210.266 64.4769C210.671 64.6152 210.404 66.5272 210.404 66.5272" stroke="#666666" stroke-width="0.47681" stroke-linecap="round" stroke-linejoin="round"/>
<path d="M200.434 31.6772C200.434 31.6772 204.668 34.0041 204.397 36.7362C204.125 39.4683 203.715 40.8368 204.397 41.5043C205.078 42.1718 206.58 43.1445 206.58 44.513" stroke="#666666" stroke-width="0.47681" stroke-linecap="round" stroke-linejoin="round"/>
<path d="M207.129 48.0796C207.129 48.0796 206.857 50.5399 207.949 51.0835C209.041 51.6271 211.639 54.3639 211.639 55.8516C211.639 57.3392 210.819 58.8603 211.778 59.9522C212.753 60.9442 213.803 61.8592 214.92 62.689" stroke="#666666" stroke-width="0.47681" stroke-linecap="round" stroke-linejoin="round"/>
<path d="M213.613 55.6608C212.607 55.3699 214.19 53.5008 214.91 51.7748C215.63 50.0487 213.613 49.0379 212.049 48.1749C210.485 47.3118 212.049 45.581 211.906 43.278C211.763 40.975 209.999 41.018 209.169 39.6829C208.34 38.3478 209.889 33.923 204.277 33.3461C198.665 32.7692 196.505 33.6369 194.198 34.7765C193.087 35.3754 192.173 36.2828 191.566 37.3894C191.036 37.8901 190.612 38.5195 190.865 39.125C191.413 40.441 191.961 41.3183 191.194 42.744C190.426 44.1697 190.865 45.4809 191.523 46.0292C192.181 46.5776 192.181 48.0032 191.084 49.0999C189.987 50.1965 190.316 51.0691 191.303 51.6174C192.29 52.1658 193.387 53.5914 192.4 54.9074C191.413 56.2234 191.742 58.083 193.716 58.5216C194.346 58.624 194.965 58.7836 195.566 58.9984L196.043 61.1012C195.905 62.0119 195.733 62.8415 196.462 63.0084C196.771 63.049 197.085 62.9905 197.359 62.8415C197.708 62.7709 198.05 62.6736 198.384 62.5507C199.104 62.2598 199.39 63.9811 200.11 65.4115C200.83 66.842 202.971 66.1315 204.144 65.1207C204.261 65.0117 204.401 64.9307 204.554 64.8836C204.707 64.8365 204.868 64.8247 205.026 64.8489C205.451 65.1772 205.964 65.3729 206.499 65.4115C207.192 65.7696 207.974 65.9187 208.75 65.8407C210.91 65.5546 210.619 64.6916 210.91 63.3946C211.201 62.0977 212.34 62.0977 214.076 60.6577C215.811 59.2178 214.619 55.9469 213.613 55.6608Z" stroke="#263238" stroke-width="0.47681" stroke-linecap="round" stroke-linejoin="round"/>
<path d="M14.4929 122.447L11.8037 155.228H12.743L17.5778 122.719L14.4929 122.447Z" fill="white" stroke="#263238" stroke-width="0.47681" stroke-linecap="round" stroke-linejoin="round"/>
<path d="M34.6381 122.447L31.9489 155.228H32.8882L37.723 122.719L34.6381 122.447Z" fill="white" stroke="#263238" stroke-width="0.47681" stroke-linecap="round" stroke-linejoin="round"/>
<path d="M37.0507 122.447L39.7399 155.228H38.8006L33.9658 122.719L37.0507 122.447Z" fill="white" stroke="#263238" stroke-width="0.47681" stroke-linecap="round" stroke-linejoin="round"/>
<path d="M59.8851 122.447L62.5696 155.228H61.6303L56.7954 122.719L59.8851 122.447Z" fill="white" stroke="#263238" stroke-width="0.47681" stroke-linecap="round" stroke-linejoin="round"/>
<path d="M35.3151 70.1176H5.50024C5.50024 70.1176 1.92417 71.1094 3.51194 75.2862C5.09972 79.4631 14.0494 123.587 14.0494 123.587H61.3537L64.3385 96.1562C64.3385 96.1562 64.9346 92.1796 62.15 91.5836C59.3654 90.9876 48.0364 91.3833 45.8526 90.1913C43.6688 88.9993 38.7196 71.7054 38.7196 71.7054C38.7196 71.7054 38.3 69.7123 35.3151 70.1176Z" fill="#92E3A9" stroke="#263238" stroke-width="0.47681" stroke-linecap="round" stroke-linejoin="round"/>
<path d="M37.5895 117.341H61.3728" stroke="#263238" stroke-width="0.47681" stroke-linecap="round" stroke-linejoin="round"/>
<path d="M22.551 45.5857C22.551 45.5857 22.9849 62.5077 23.1756 64.0287C23.287 65.2838 23.129 66.5482 22.712 67.7373C22.2951 68.9264 21.629 70.0126 20.7582 70.9234C18.4313 73.4314 9.02864 71.548 8.40402 69.2212C7.7794 66.8943 8.93805 63.0226 8.93805 63.0226C8.93805 63.0226 5.3429 62.2407 6.3442 59.1223C7.3455 56.004 12.7907 50.4396 15.2987 48.561C17.8067 46.6824 20.6676 45.1375 22.551 45.5857Z" fill="#92E3A9" stroke="#263238" stroke-width="0.47681" stroke-linecap="round" stroke-linejoin="round"/>
<path d="M15.9901 49.1426C15.9901 49.1426 10.4019 58.86 9.55313 61.4109" stroke="#263238" stroke-width="0.47681" stroke-linecap="round" stroke-linejoin="round"/>
<path d="M18.7842 48.6562C18.7842 48.6562 12.5856 61.4109 11.4937 66.6367" stroke="#263238" stroke-width="0.47681" stroke-linecap="round" stroke-linejoin="round"/>
<path d="M19.0273 53.5149C19.0273 53.5149 16.5479 60.5526 15.9901 63.237" stroke="#263238" stroke-width="0.47681" stroke-linecap="round" stroke-linejoin="round"/>
<path d="M30.6996 66.8036C30.6996 66.8036 35.2007 66.6892 37.1652 65.6497C39.1296 64.6103 43.1682 65.4161 44.551 69.5739C45.9337 73.7317 48.5943 81.3511 49.6337 84.4694C50.6732 87.5877 53.0954 90.4724 53.0954 90.4724L43.5115 94.1629L37.971 96.5899C37.971 96.5899 33.5843 79.0433 32.0824 74.5375C30.5804 70.0316 30.137 67.3805 30.6996 66.8036Z" fill="#B2B2B2" stroke="#263238" stroke-width="0.47681" stroke-linecap="round" stroke-linejoin="round"/>
<path d="M69.9935 126.147L73.6888 133.848L74.6281 133.4L72.1534 126.648L69.9935 126.147Z" fill="#263238" stroke="#263238" stroke-width="0.47681" stroke-linecap="round" stroke-linejoin="round"/>
<path d="M71.2332 110.57C71.2332 110.57 75.9536 121.751 76.9549 122.8C77.9562 123.849 83.4538 126.472 84.2787 126.586C85.1036 126.701 87.0108 126.681 86.8487 127.144C86.6866 127.606 78.4569 132.069 77.0169 131.478C75.577 130.887 75.1669 129.6 73.6316 128.799C72.0962 127.997 69.9697 126.92 69.0208 124.941C68.072 122.962 69.6502 121.184 69.6502 121.184L65.3351 113.522L71.2332 110.57Z" fill="white" stroke="#263238" stroke-width="0.47681" stroke-linecap="round" stroke-linejoin="round"/>
<path d="M84.293 126.586C84.0085 126.52 83.7308 126.427 83.4634 126.309C81.9519 127.74 78.7763 129.142 74.8141 126.5C72.7491 125.163 70.9122 123.504 69.3737 121.584C69.036 122.065 68.8275 122.624 68.7682 123.209C68.709 123.793 68.8009 124.383 69.0351 124.922C69.9887 126.901 72.1105 127.978 73.6459 128.779C75.1812 129.58 75.596 130.868 77.0312 131.459C78.4664 132.05 86.7009 127.587 86.863 127.125C87.0251 126.662 85.1131 126.705 84.293 126.586Z" fill="#263238" stroke="#263238" stroke-width="0.47681" stroke-linecap="round" stroke-linejoin="round"/>
<path d="M64.5436 89.5665C64.5436 89.5665 71.4526 105.373 73.0499 108.596L75.3576 113.211L66.5843 117.603C66.5843 117.603 57.0005 99.3601 57.0005 96.7043C57.0005 94.0485 58.7885 91.2877 59.9424 89.905C61.0963 88.5222 64.5436 89.5665 64.5436 89.5665Z" fill="#263238" stroke="#263238" stroke-width="0.47681" stroke-linecap="round" stroke-linejoin="round"/>
<path d="M62.0832 132.608C62.0832 132.608 61.5063 144.729 61.964 146.116C62.4218 147.504 66.2553 152.234 66.9324 152.696C67.6095 153.159 69.3546 153.964 69.0065 154.313C68.6585 154.661 59.313 155.123 58.2735 153.964C57.2341 152.806 57.6966 149.578 56.6571 148.195C55.6177 146.812 53.8869 146.808 53.8869 144.614C53.8869 142.421 56.0802 141.496 56.0802 141.496L55.5033 132.723L62.0832 132.608Z" fill="white" stroke="#263238" stroke-width="0.47681" stroke-linecap="round" stroke-linejoin="round"/>
<path d="M66.9515 152.696C66.6589 152.454 66.3892 152.186 66.1456 151.895C64.8678 152.372 63.485 152.682 62.4456 152.348C59.909 151.542 57.9445 149.926 57.3676 146.693C57.01 144.681 55.5271 143.475 54.4638 142.85C54.098 143.365 53.9029 143.982 53.9059 144.614C53.9059 146.808 55.6368 146.808 56.6762 148.195C57.7157 149.583 57.2532 152.811 58.2926 153.965C59.332 155.118 68.6823 154.661 69.0256 154.313C69.3689 153.965 67.6428 153.159 66.9515 152.696Z" fill="#263238" stroke="#263238" stroke-width="0.47681" stroke-linecap="round" stroke-linejoin="round"/>
<path d="M54.2493 146.116V154.661H55.2887L55.9801 147.504L54.2493 146.116Z" fill="#263238" stroke="#263238" stroke-width="0.47681" stroke-linecap="round" stroke-linejoin="round"/>
<path d="M57.8301 96.5898C57.8301 96.5898 65.6784 97.3957 65.564 102.707C65.4495 108.019 65.0872 133.299 65.0872 133.299L54.4829 134.458C54.4829 134.458 52.1704 121.413 52.7473 116.101C53.3243 110.789 54.2493 109.75 54.2493 109.75H37.0508C37.0508 109.75 38.7816 105.826 44.3221 101.668C49.8626 97.5101 57.8301 96.5898 57.8301 96.5898Z" fill="#263238" stroke="#263238" stroke-width="0.47681" stroke-linecap="round" stroke-linejoin="round"/>
<path d="M40.5124 69.2258C40.591 70.5439 40.7503 71.856 40.9892 73.1547C41.3325 74.8855 43.1825 75.6913 43.7594 78.2327C44.3364 80.7741 43.4114 81.928 43.5258 84.5838C43.6402 87.2396 45.2614 90.8157 45.4903 92.0888C45.7191 93.3619 44.3364 94.3965 42.3719 95.6649C40.4075 96.9332 23.3234 103.294 21.0156 100.743C18.7079 98.1919 20.6675 94.6254 20.2098 91.7407C19.7521 88.856 17.4348 77.1932 16.3953 72.6683C15.3559 68.1434 14.8028 65.931 17.2631 64.9392C18.9939 64.2479 25.14 66.6891 25.14 66.6891C25.14 66.6891 27.3381 66.918 32.0681 66.918" fill="#B2B2B2"/>
<path d="M40.5124 69.2258C40.591 70.5439 40.7503 71.856 40.9892 73.1547C41.3325 74.8855 43.1825 75.6913 43.7594 78.2327C44.3364 80.7741 43.4114 81.928 43.5258 84.5838C43.6402 87.2396 45.2614 90.8157 45.4903 92.0888C45.7191 93.3619 44.3364 94.3965 42.3719 95.6649C40.4075 96.9332 23.3234 103.294 21.0156 100.743C18.7079 98.1919 20.6675 94.6254 20.2098 91.7407C19.7521 88.856 17.4348 77.1932 16.3953 72.6683C15.3559 68.1434 14.8028 65.931 17.2631 64.9392C18.9939 64.2479 25.14 66.6891 25.14 66.6891C25.14 66.6891 27.3381 66.918 32.0681 66.918" stroke="#263238" stroke-width="0.47681" stroke-linecap="round" stroke-linejoin="round"/>
<path d="M22.6368 52.5709V65.3732C22.6368 65.3732 25.0542 67.4331 28.101 69.8505C31.1478 72.2679 33.3841 72.7113 33.8227 70.4751C34.2614 68.2389 32.2969 65.5497 31.6723 64.925C31.0477 64.3004 31.1335 59.0174 31.1335 59.0174C31.1335 59.0174 24.606 52.1227 23.4617 51.4027C22.3173 50.6827 22.6368 52.5709 22.6368 52.5709Z" fill="white" stroke="#263238" stroke-width="0.47681" stroke-linecap="round" stroke-linejoin="round"/>
<path d="M36.1591 37.7947C36.1591 37.7947 40.8128 39.0487 40.9272 42.3625C41.0416 45.6763 35.9779 46.9303 35.4439 45.7717C34.9099 44.613 34.1899 38.6958 34.2757 37.89C34.3615 37.0842 36.1591 37.7947 36.1591 37.7947Z" fill="#92E3A9" stroke="#263238" stroke-width="0.47681" stroke-linecap="round" stroke-linejoin="round"/>
<path d="M36.9172 40.1262C36.9172 40.1262 39.0676 45.228 38.1283 49.5241C37.189 53.8202 35.3056 58.655 33.837 60.0139C32.3685 61.3728 30.6138 61.7161 27.5241 59.2081C25.2926 57.3962 22.5557 53.8345 21.8834 51.9558C21.2111 50.0772 21.7499 46.3152 24.1673 42.6914C26.5848 39.0677 35.4439 37.437 36.9172 40.1262Z" fill="white" stroke="#263238" stroke-width="0.47681" stroke-linecap="round" stroke-linejoin="round"/>
<path d="M32.1682 49.4572C32.4737 49.4572 32.7213 49.0367 32.7213 48.5179C32.7213 47.9992 32.4737 47.5786 32.1682 47.5786C31.8627 47.5786 31.6151 47.9992 31.6151 48.5179C31.6151 49.0367 31.8627 49.4572 32.1682 49.4572Z" fill="#263238"/>
<path d="M37.0793 48.6038C37.0793 49.1235 36.8314 49.5574 36.5263 49.5574C36.2211 49.5574 35.9684 49.1378 35.9684 48.6038C35.9684 48.0697 36.2163 47.6501 36.5263 47.6501C36.8362 47.6501 37.0793 48.084 37.0793 48.6038Z" fill="#263238"/>
<path d="M36.2259 46.4678C36.2259 46.4678 34.9432 47.5787 35.2722 49.1188C35.6012 50.6589 36.2259 51.6793 35.9541 52.1943C35.6823 52.7092 34.5237 52.7044 34.5237 52.7044" stroke="#263238" stroke-width="0.47681" stroke-linecap="round" stroke-linejoin="round"/>
<path d="M29.9892 45.9574C29.9892 45.9574 32.0395 44.8465 33.4079 45.3567" stroke="#263238" stroke-width="0.47681" stroke-linecap="round" stroke-linejoin="round"/>
<path d="M36.4833 45.5284C36.4833 45.5284 37.3368 44.7608 38.1903 45.8717" stroke="#263238" stroke-width="0.47681" stroke-linecap="round" stroke-linejoin="round"/>
<path d="M32.7261 54.5829C32.2801 54.583 31.8436 54.4543 31.4689 54.2125C31.0943 53.9706 30.7973 53.6257 30.6138 53.2192" stroke="#263238" stroke-width="0.47681" stroke-linecap="round" stroke-linejoin="round"/>
<path d="M14.1019 49.2047C14.1019 49.2047 25.0351 47.7742 30.3134 45.0183C35.5917 42.2623 37.5752 40.3169 37.1461 38.0998C36.717 35.8826 31.4244 32.2064 25.531 32.2875C23.0221 32.3453 20.5868 33.1465 18.5335 34.5894C16.4803 36.0324 14.9014 38.0523 13.997 40.3932C12.6476 44.2506 14.1019 49.2047 14.1019 49.2047Z" fill="#92E3A9" stroke="#263238" stroke-width="0.47681" stroke-linecap="round" stroke-linejoin="round"/>
<path d="M32.9979 37.4751C30.5855 40.0801 27.7498 42.258 24.6108 43.9168C21.4447 45.4909 18.035 46.5178 14.5262 46.9541" stroke="#263238" stroke-width="0.47681" stroke-linecap="round" stroke-linejoin="round"/>
<path d="M14.1686 45.7382C17.0731 44.8458 19.8812 43.6654 22.551 42.2146" stroke="#263238" stroke-width="0.47681" stroke-linecap="round" stroke-linejoin="round"/>
<path d="M24.3724 41.1227C24.3724 41.1227 29.2358 37.7182 31.6628 35.2817" stroke="#263238" stroke-width="0.47681" stroke-linecap="round" stroke-linejoin="round"/>
<path d="M24.5631 49.3906C24.5631 49.3906 22.818 45.4951 20.8011 46.9732C18.7842 48.4513 20.1335 52.7474 21.3399 53.5532C22.5462 54.359 24.2961 53.1526 24.2961 53.1526" fill="white"/>
<path d="M24.5631 49.3906C24.5631 49.3906 22.818 45.4951 20.8011 46.9732C18.7842 48.4513 20.1335 52.7474 21.3399 53.5532C22.5462 54.359 24.2961 53.1526 24.2961 53.1526" stroke="#263238" stroke-width="0.47681" stroke-linecap="round" stroke-linejoin="round"/>
<path d="M40.15 85.7377C40.15 85.7377 44.8847 84.9271 46.6155 84.6982C48.3464 84.4694 52.8522 86.0857 52.6186 86.8916C52.3849 87.6974 47.5406 88.2791 45.9432 88.856C44.3459 89.4329 40.746 88.6224 40.746 88.6224L40.15 85.7377Z" fill="white" stroke="#263238" stroke-width="0.47681" stroke-linecap="round" stroke-linejoin="round"/>
<path d="M22.9849 66.4556C22.9849 66.4556 21.3685 63.919 17.5588 64.6104C13.7491 65.3017 12.5904 69.2259 12.7096 73.1548C12.8288 77.0837 17.0009 94.2822 18.479 95.3217C19.9571 96.3611 40.9749 90.1149 40.9749 90.1149L40.1643 85.7283L24.463 86.6628L22.7321 72.473" fill="#B2B2B2"/>
<path d="M22.9849 66.4556C22.9849 66.4556 21.3685 63.919 17.5588 64.6104C13.7491 65.3017 12.5904 69.2259 12.7096 73.1548C12.8288 77.0837 17.0009 94.2822 18.479 95.3217C19.9571 96.3611 40.9749 90.1149 40.9749 90.1149L40.1643 85.7283L24.463 86.6628L22.7321 72.473" stroke="#263238" stroke-width="0.47681" stroke-linecap="round" stroke-linejoin="round"/>
<path d="M52.6996 85.6567L35.9398 93.5909L40.4123 95.4886L61.8591 88.0026L52.6996 85.6567Z" fill="white" stroke="#263238" stroke-width="0.47681" stroke-linecap="round" stroke-linejoin="round"/>
<path d="M65.769 92.0221C65.769 92.0221 64.6532 87.9978 61.8591 87.9978C59.065 87.9978 41.1942 93.8101 35.0481 96.2657C28.9021 98.7212 23.6524 100.176 22.4222 102.078C21.192 103.98 23.4283 111.238 27.3381 112.353C31.248 113.469 38.176 112.019 41.0798 110.446C43.9835 108.873 63.8713 94.8066 63.8713 94.8066" fill="#263238"/>
<path d="M65.769 92.0221C65.769 92.0221 64.6532 87.9978 61.8591 87.9978C59.065 87.9978 41.1942 93.8101 35.0481 96.2657C28.9021 98.7212 23.6524 100.176 22.4222 102.078C21.192 103.98 23.4283 111.238 27.3381 112.353C31.248 113.469 38.176 112.019 41.0798 110.446C43.9835 108.873 63.8713 94.8066 63.8713 94.8066" stroke="#263238" stroke-width="0.47681" stroke-linecap="round" stroke-linejoin="round"/>
<path d="M7.40271 91.6121C7.40271 91.6121 14.5549 97.2193 23.3186 97.8106C32.0824 98.4018 35.9302 100.037 36.4881 104.882C37.046 109.726 37.7087 123.42 37.7087 123.42L14.0494 123.568L9.39101 100.505L7.40271 91.6121Z" fill="#92E3A9" stroke="#263238" stroke-width="0.47681" stroke-linecap="round" stroke-linejoin="round"/>
<path d="M12.8288 98.0728C12.8288 98.0728 15.0221 101 20.515 101.487C26.0078 101.973 30.1465 102.707 31.4816 104.538" stroke="#263238" stroke-width="0.47681" stroke-linecap="round" stroke-linejoin="round"/>
<defs>
<linearGradient id="paint0_linear_216_42" x1="260.235" y1="30.0087" x2="281.889" y2="67.7279" gradientUnits="userSpaceOnUse">
<stop stop-color="#92E3A9"/>
<stop offset="1" stop-color="#F9F3DF"/>
</linearGradient>
<linearGradient id="paint1_linear_216_42" x1="85.5" y1="10.5" x2="159" y2="145.5" gradientUnits="userSpaceOnUse">
<stop stop-color="#92E3A9"/>
<stop offset="1" stop-color="#F9F3DF"/>
</linearGradient>
</defs>
</svg>
