<svg width="139" height="97" viewBox="0 0 139 97" fill="none" xmlns="http://www.w3.org/2000/svg">
<path d="M28.8013 78.6685C26.9893 77.9346 25.22 77.1752 23.5019 76.4128C17.4545 73.7333 11.1681 70.2687 6.65384 65.1997C0.680348 58.5066 -0.397725 48.6759 0.111443 40.0741C0.498298 33.6227 2.46386 27.1571 6.48032 22.0797C11.5663 15.6596 19.9321 12.4396 27.8142 10.6532C36.8882 8.5938 46.3036 8.79576 55.3947 6.88709C64.2923 5.00971 72.0636 -0.397721 81.4903 0.0232673C93.6563 0.563726 108.286 9.04323 111.827 21.0727C113.474 26.6821 112.769 32.7352 110.908 38.2678C106.252 52.0723 96.5349 64.5768 84.9265 73.4346C78.1138 78.6316 70.152 82.5371 61.6384 84.1243C50.3286 86.2179 39.2207 82.8727 28.8013 78.6685Z" fill="url(#paint0_linear_212_41)" fill-opacity="0.48"/>
<path d="M118.183 77.7429H108.556" stroke="#263238" stroke-width="0.248133" stroke-linecap="round" stroke-linejoin="round"/>
<path d="M28.8507 77.7429H19.2231" stroke="#263238" stroke-width="0.248133" stroke-linecap="round" stroke-linejoin="round"/>
<path d="M69.14 96.3184C96.7399 96.3184 119.114 92.6868 119.114 88.2069C119.114 83.7271 96.7399 80.0955 69.14 80.0955C41.5402 80.0955 19.1661 83.7271 19.1661 88.2069C19.1661 92.6868 41.5402 96.3184 69.14 96.3184Z" fill="#E2E3FB" fill-opacity="0.7"/>
<path d="M72.6362 61.8599L75.2863 81.1348C75.2863 82.6236 82.1348 83.8196 90.5812 83.8196C99.0276 83.8196 105.879 82.6187 105.879 81.1348L108.529 61.8599H72.6362Z" fill="white" stroke="#263238" stroke-width="0.248133" stroke-linecap="round" stroke-linejoin="round"/>
<path d="M90.5812 64.5321C100.492 64.5321 108.526 63.3312 108.526 61.8498C108.526 60.3684 100.492 59.1675 90.5812 59.1675C80.6705 59.1675 72.6362 60.3684 72.6362 61.8498C72.6362 63.3312 80.6705 64.5321 90.5812 64.5321Z" fill="white" stroke="#263238" stroke-width="0.248133" stroke-linecap="round" stroke-linejoin="round"/>
<path d="M104.906 61.8599C104.906 62.2296 104.281 62.577 103.169 62.8797C100.742 63.5497 96.0128 64.0013 90.5713 64.0013C85.1297 64.0013 80.3978 63.5497 77.976 62.8797C76.8743 62.577 76.2391 62.2296 76.2391 61.8599C76.2391 60.6763 82.6509 59.7185 90.5613 59.7185C98.4718 59.7185 104.906 60.6664 104.906 61.8599Z" fill="white" stroke="#263238" stroke-width="0.248133" stroke-linecap="round" stroke-linejoin="round"/>
<path d="M103.179 62.8698C100.752 63.5398 96.0227 63.9914 90.5812 63.9914C85.1396 63.9914 80.4077 63.5398 77.986 62.8698C79.4351 61.9468 84.5267 61.2644 90.5812 61.2644C96.6356 61.2644 101.73 61.9468 103.179 62.8698Z" fill="#263238"/>
<path d="M99.2236 42.7538C99.2361 42.7538 99.5065 41.729 99.5164 41.652C99.6256 40.8655 99.375 39.2849 98.576 38.8978C98.3216 38.7845 98.0326 38.7765 97.7723 38.8755C97.5119 38.9746 97.3013 39.1725 97.1865 39.4263C97.1716 39.461 97.1592 39.4983 97.1468 39.533C96.9334 40.1211 97.2063 40.8431 97.5264 41.3394C97.9036 41.9349 99.2212 42.7538 99.2236 42.7538Z" fill="#263238"/>
<path d="M83.4672 42.4235C84.1025 42.6989 85.6582 42.6716 85.6607 42.6716C85.6632 42.6716 85.3258 41.6468 85.2985 41.5873C84.9536 40.8727 83.8742 39.6916 82.9933 39.8131C82.857 39.8351 82.7264 39.8838 82.609 39.9564C82.4915 40.0289 82.3896 40.1239 82.3089 40.2359C82.2282 40.348 82.1705 40.4748 82.1389 40.6092C82.1073 40.7436 82.1025 40.8828 82.1248 41.0191C82.1248 41.0563 82.1397 41.0935 82.1497 41.1282C82.2911 41.7312 82.9238 42.1853 83.4672 42.4235Z" fill="#263238"/>
<path d="M103.97 37.1409L103.874 37.1211C102.99 37.0243 101.943 38.2352 101.618 38.9573C101.591 39.0218 101.268 40.0491 101.283 40.0491H101.303C101.137 40.2376 100.961 40.4436 100.772 40.6719C100.425 41.0962 100.028 41.5776 99.6554 42.1309C99.509 42.3393 99.3651 42.5478 99.2261 42.7612C98.9697 43.1565 98.7274 43.5601 98.4991 43.972C98.1021 44.6853 97.77 45.4327 97.5066 46.2052V45.1879C97.4048 44.4038 96.7398 42.9423 95.8739 42.781C95.737 42.7598 95.5973 42.7658 95.4628 42.7986C95.3282 42.8314 95.2015 42.8904 95.0897 42.9722C94.978 43.054 94.8834 43.157 94.8115 43.2753C94.7395 43.3937 94.6916 43.525 94.6704 43.6619C94.6704 43.6991 94.6704 43.7338 94.6704 43.7711C94.6208 44.3939 95.0724 45.0117 95.5141 45.4137C96.0103 45.8579 97.3949 46.2896 97.4991 46.3219C97.2515 47.1128 97.0567 47.9194 96.916 48.7362C96.8317 49.2101 96.7622 49.6915 96.6977 50.1729C96.7034 50.0214 96.6993 49.8697 96.6853 49.7188C96.5835 48.9322 95.916 47.4856 95.0501 47.3144C94.7747 47.2716 94.4936 47.3397 94.2684 47.504C94.0433 47.6682 93.8925 47.915 93.8491 48.1903C93.8491 48.225 93.8491 48.2623 93.8491 48.2995C93.797 48.9248 94.2511 49.5401 94.6952 49.9446C95.1394 50.3491 96.3131 50.7361 96.6232 50.8354C96.6009 51.0215 96.5736 51.2051 96.5537 51.3912C96.4471 52.282 96.3428 53.1728 96.2188 54.0413C96.1716 54.3465 96.1195 54.6492 96.0624 54.947V54.5524C95.9607 53.7658 95.2932 52.3192 94.4297 52.148C94.1544 52.1052 93.8732 52.1734 93.6481 52.3376C93.4229 52.5018 93.2721 52.7486 93.2288 53.0239C93.2288 53.0587 93.2288 53.0984 93.2288 53.1356C93.1767 53.7584 93.6307 54.3762 94.0724 54.7782C94.5141 55.1802 95.5761 55.5226 95.9458 55.6517C95.8788 55.9569 95.8168 56.2645 95.7399 56.5573C95.6828 56.7558 95.6406 56.9543 95.5761 57.1479C95.5116 57.3414 95.4471 57.5399 95.385 57.7335C95.2535 58.0982 95.1171 58.4779 94.9781 58.8352C94.8838 59.0833 94.7895 59.3141 94.6928 59.5498C94.7399 59.2446 94.8218 58.6466 94.8243 58.597C94.8141 57.8993 94.6253 57.2159 94.2759 56.6119C94.282 56.5351 94.282 56.458 94.2759 56.3812C94.2584 56.2439 94.2141 56.1115 94.1454 55.9914C94.0767 55.8713 93.9849 55.766 93.8755 55.6814C93.766 55.5968 93.6409 55.5346 93.5074 55.4984C93.3738 55.4623 93.2345 55.4528 93.0973 55.4705L92.9955 55.4879C92.137 55.7162 91.5936 57.2248 91.5514 58.0139C91.5514 58.061 91.5812 58.5697 91.606 58.8898L91.4769 58.3315C91.3851 57.9518 91.2859 57.5871 91.1792 57.1727C91.1196 56.9792 91.0601 56.7831 91.003 56.5846C90.9459 56.3861 90.8616 56.1876 90.7946 55.9866C90.6234 55.5226 90.4298 55.0611 90.2239 54.5996C90.5564 54.5202 91.73 54.2199 92.2089 53.8552C92.6878 53.4904 93.1767 52.9073 93.1717 52.2795C93.176 52.142 93.1532 52.005 93.1045 51.8763C93.0558 51.7476 92.9822 51.6298 92.888 51.5295C92.7937 51.4293 92.6806 51.3486 92.5552 51.2921C92.4297 51.2356 92.2944 51.2043 92.1568 51.2002C92.118 51.1976 92.079 51.1976 92.0402 51.2002C91.1544 51.2969 90.3901 52.7014 90.2313 53.478C90.2313 53.5252 90.1668 54.0983 90.147 54.411C90.0179 54.1331 89.8988 53.8601 89.7574 53.5822C89.3629 52.7882 88.9386 51.9967 88.5167 51.2051L88.1371 50.4781C88.2562 50.4483 89.6581 50.1233 90.1867 49.7089C90.6581 49.3491 91.1544 48.7585 91.1494 48.1307C91.1534 47.9932 91.1302 47.8563 91.0812 47.7277C91.0322 47.5991 90.9584 47.4815 90.8639 47.3815C90.7694 47.2815 90.6562 47.2011 90.5306 47.1448C90.405 47.0886 90.2696 47.0577 90.1321 47.0539C90.0941 47.0501 90.0559 47.0501 90.0179 47.0539C89.1346 47.1481 88.3678 48.5426 88.209 49.3292C88.209 49.3888 88.1222 50.2076 88.1148 50.416C87.8344 49.8826 87.5639 49.3466 87.3182 48.8081C86.9824 48.0829 86.6931 47.337 86.4523 46.575C86.5068 46.575 87.9733 46.23 88.5018 45.8082C88.9733 45.4459 89.4696 44.8579 89.4646 44.2301C89.4713 43.9508 89.3668 43.6803 89.1742 43.4779C88.9816 43.2756 88.7166 43.1579 88.4373 43.1507H88.3306C87.4473 43.2475 86.683 44.6544 86.5217 45.4311C86.5217 45.4807 86.4547 46.1085 86.4349 46.4037H86.3853C86.1635 45.629 86.0115 44.8359 85.9312 44.0341C85.884 43.5924 85.8592 43.1681 85.8468 42.7537C86.1272 42.719 87.4026 42.5478 87.9336 42.2426C88.4646 41.9374 88.9981 41.4039 89.0626 40.7811C89.08 40.644 89.0701 40.5049 89.0336 40.3716C88.9971 40.2384 88.9346 40.1137 88.8498 40.0046C88.7649 39.8956 88.6594 39.8044 88.5392 39.7362C88.4191 39.668 88.2866 39.6243 88.1495 39.6074C88.109 39.6049 88.0684 39.6049 88.0279 39.6074C87.1421 39.6074 86.2339 40.92 85.9783 41.6719C85.9659 41.714 85.8766 42.1458 85.8146 42.4609V41.9026C85.8146 41.2327 85.8567 40.6222 85.8989 40.0739C85.9262 39.7637 85.956 39.4858 85.9858 39.2253C86.2339 39.0491 87.2661 38.3245 87.5862 37.8059C87.9063 37.2873 88.1445 36.5653 87.9138 35.9871C87.821 35.7251 87.6282 35.5105 87.3774 35.3905C87.1267 35.2704 86.8386 35.2548 86.5763 35.3469C86.5416 35.3594 86.5068 35.3767 86.4696 35.3941C85.6806 35.801 85.4771 37.3792 85.6036 38.1707C85.6161 38.2377 85.9113 39.265 85.9262 39.265H85.9411C85.9088 39.5131 85.8741 39.7761 85.8419 40.0788C85.7873 40.6222 85.7327 41.2376 85.7178 41.9101C85.6909 42.6366 85.7075 43.3641 85.7674 44.0887C85.8326 44.8987 85.9679 45.7015 86.1719 46.4881V46.5179C86.0354 46.2995 85.621 45.6966 85.5863 45.6569C85.0726 45.0564 83.7129 44.2028 82.8965 44.5502C82.6428 44.6664 82.4457 44.8785 82.3484 45.14C82.2512 45.4016 82.2618 45.691 82.3779 45.9447C82.3928 45.9794 82.4127 46.0117 82.43 46.0439C82.7327 46.5923 83.4548 46.8628 84.0404 46.9472C84.7004 47.0439 86.09 46.6395 86.2016 46.6097C86.4319 47.4035 86.7129 48.1818 87.0428 48.9397C87.2364 49.3838 87.4423 49.823 87.6557 50.2622C87.5267 50.0786 87.4076 49.9123 87.4076 49.89C86.8939 49.292 85.5342 48.4384 84.7178 48.7833C84.464 48.9 84.2668 49.1126 84.1695 49.3745C84.0723 49.6365 84.083 49.9263 84.1992 50.1803C84.2141 50.2126 84.234 50.2473 84.2513 50.2771C84.554 50.8255 85.2761 51.0984 85.8617 51.1828C86.4473 51.2671 87.6557 50.9495 87.9634 50.8627C88.0478 51.0289 88.1272 51.1977 88.2115 51.3738C88.6135 52.1753 89.018 52.9718 89.3926 53.7683C89.5266 54.0487 89.6408 54.3316 89.7648 54.6095C89.6507 54.4457 89.5564 54.3068 89.539 54.2869C89.0254 53.6864 87.6656 52.8353 86.8493 53.1827C86.7237 53.24 86.6107 53.3214 86.5167 53.4224C86.4227 53.5234 86.3495 53.6419 86.3014 53.7712C86.2532 53.9005 86.231 54.038 86.236 54.1759C86.2411 54.3138 86.2732 54.4493 86.3307 54.5748C86.348 54.6095 86.3654 54.6442 86.3828 54.674C86.6855 55.2224 87.4076 55.4928 87.9932 55.5797C88.5788 55.6665 89.6656 55.3787 90.0427 55.2745C90.1594 55.5648 90.2735 55.8551 90.3703 56.143C90.4348 56.3415 90.5067 56.5251 90.5613 56.7285C90.6159 56.932 90.6705 57.1231 90.7251 57.3166C90.8169 57.6963 90.9112 58.0858 90.9732 58.4605C91.0303 58.7086 91.0824 58.9717 91.132 59.2049C91.0055 58.9245 90.7425 58.3811 90.7152 58.3364C90.2934 57.669 89.0825 56.6194 88.2214 56.8476C88.0891 56.8856 87.9655 56.9493 87.8577 57.0352C87.75 57.121 87.6603 57.2272 87.5937 57.3477C87.527 57.4683 87.4849 57.6008 87.4695 57.7377C87.4542 57.8745 87.466 58.0131 87.5043 58.1454C87.512 58.1751 87.522 58.2041 87.5341 58.2322C87.7475 58.8203 88.42 59.1975 88.9857 59.3712C89.611 59.5622 90.9881 59.3885 91.1643 59.3712C91.2462 59.7855 91.3231 60.1875 91.3876 60.5672C91.6134 61.8599 91.7573 62.9492 91.8467 63.7184H92.4496C92.4496 63.7184 92.4496 63.7011 92.4496 63.6912C92.3405 62.9095 92.1717 61.7954 91.9087 60.4654C91.8268 60.0461 91.7325 59.5994 91.6258 59.1454C92.0426 58.9779 92.4487 58.7848 92.8417 58.5672C93.2958 59.0635 94.4595 59.6367 94.6109 59.7086C94.4545 60.1056 94.2933 60.4803 94.1394 60.8351C93.6208 62.0361 93.1469 63.0212 92.7846 63.711H93.4322C93.7548 63.0286 94.1766 62.1254 94.6034 61.056C94.7647 60.659 94.931 60.2322 95.0997 59.7955C95.2659 59.8302 96.6381 60.1081 97.2708 59.9642C97.8465 59.8327 98.5512 59.5076 98.8068 58.9394C98.8687 58.816 98.9056 58.6816 98.9153 58.5439C98.925 58.4062 98.9073 58.2679 98.8632 58.1371C98.8192 58.0063 98.7496 57.8855 98.6586 57.7817C98.5675 57.6779 98.4568 57.5932 98.3329 57.5325C98.3006 57.5151 98.2634 57.5002 98.2286 57.4853C97.385 57.205 96.1021 58.1603 95.6307 58.798C95.6059 58.8377 95.3503 59.2769 95.194 59.5672C95.2585 59.3861 95.3255 59.2124 95.3925 59.0287C95.5265 58.6615 95.6406 58.2843 95.7845 57.8973C95.8416 57.7012 95.8987 57.5077 95.9582 57.3092C96.0178 57.1107 96.0649 56.8998 96.117 56.6938C96.2337 56.2124 96.3255 55.7211 96.4074 55.2224C96.7274 55.339 97.8713 55.7335 98.4569 55.6963C99.0425 55.6591 99.7869 55.4482 100.129 54.9122C100.29 54.6854 100.354 54.4041 100.307 54.1302C100.261 53.8562 100.108 53.6118 99.8812 53.4507L99.782 53.3912C98.9929 52.9817 97.5785 53.7336 97.0178 54.2919C96.9805 54.3266 96.6232 54.7733 96.4322 55.0214C96.4793 54.7212 96.5265 54.4234 96.5662 54.1182C96.6729 53.2398 96.7572 52.344 96.8441 51.4532C96.8714 51.1803 96.9011 50.9073 96.9284 50.6369C97.0426 50.6766 98.3924 51.1828 99.0574 51.1332C99.648 51.0885 100.387 50.885 100.732 50.349C100.894 50.1216 100.958 49.8394 100.912 49.5645C100.865 49.2895 100.711 49.0442 100.484 48.8826C100.448 48.8571 100.409 48.8339 100.37 48.8131C99.581 48.4062 98.1666 49.1555 97.6058 49.7163C97.5636 49.7585 97.05 50.4012 96.9284 50.5699C96.988 49.9694 97.0575 49.3739 97.1493 48.7759C97.2682 47.9837 97.4398 47.2004 97.6629 46.431C97.7125 46.4534 99.1219 46.9819 99.8018 46.9447C100.392 46.9025 101.134 46.6965 101.477 46.1606C101.637 45.9333 101.701 45.6517 101.655 45.3773C101.608 45.103 101.455 44.8582 101.229 44.6966L101.134 44.6395C100.345 44.2326 98.9309 44.9819 98.3701 45.5402C98.3304 45.5799 97.9383 46.0688 97.7572 46.3095L97.7125 46.2871C97.9557 45.5165 98.2671 44.7692 98.643 44.0539C98.8465 43.6594 99.0599 43.2872 99.2782 42.9423C99.5264 43.0688 100.688 43.6321 101.305 43.6544C101.923 43.6768 102.658 43.5453 103.055 43.0614C103.146 42.9575 103.217 42.8365 103.261 42.7054C103.306 42.5743 103.325 42.4357 103.316 42.2975C103.307 42.1592 103.271 42.024 103.21 41.8997C103.149 41.7753 103.065 41.6641 102.961 41.5726C102.931 41.5503 102.901 41.523 102.871 41.5031C102.127 41.0069 100.638 41.6024 100.025 42.0986C99.9904 42.1235 99.6777 42.4336 99.4519 42.6644C99.5537 42.5081 99.6554 42.3443 99.7522 42.1954C100.124 41.6346 100.497 41.1458 100.834 40.7066C101.028 40.4585 101.206 40.2476 101.377 40.0491C101.688 40.0491 102.943 40.0044 103.494 39.7463C104.045 39.4883 104.64 39.0268 104.774 38.4114C104.807 38.2751 104.811 38.1338 104.788 37.9957C104.765 37.8576 104.714 37.7255 104.639 37.6072C104.565 37.4889 104.467 37.3867 104.352 37.3066C104.237 37.2265 104.107 37.1702 103.97 37.1409Z" fill="#263238"/>
<path d="M91.2983 85.8049C90.0229 88.2118 88.8045 89.775 87.6036 90.8072C85.9882 92.1844 84.4126 92.5714 82.8096 92.6831C80.0479 92.8717 74.924 92.0603 69.9613 88.6708L69.7455 88.5244C69.5299 88.6184 69.3096 88.7012 69.0854 88.7725C68.2308 89.0485 67.3542 89.2511 66.4651 89.378C64.1893 89.6955 61.8765 89.6318 59.6216 89.1894C58.8368 89.0401 58.06 88.8513 57.2941 88.6236C56.7554 89.5631 56.0983 90.4296 55.3389 91.2018C53.8327 92.7377 51.5002 94.2935 48.5127 93.7253C43.0116 92.6831 41.7288 90.4053 40.9695 87.0257C40.5976 85.238 40.4947 83.4047 40.6643 81.5866C40.7338 80.7876 40.8231 80.2938 40.8231 80.2938C40.8231 80.2938 38.838 81.0655 37.7909 78.2517C37.7909 78.2517 37.6991 84.4004 35.0044 85.0431C33.7066 85.3508 32.7439 84.795 32.0541 83.8645C31.2874 82.8248 30.8531 81.2988 30.6695 79.9266C30.6248 79.5941 30.5975 79.2691 30.5802 78.9614C30.4363 76.2592 31.198 71.562 32.6198 67.1999C34.0416 62.8377 38.4063 57.0463 42.0613 53.7734C45.7163 50.5005 48.0487 49.2053 48.0487 49.2053C48.0487 49.2053 46.1158 45.0218 45.9222 40.6621C45.8756 39.8035 45.9138 38.9425 46.0364 38.0914C46.0364 38.0914 41.3491 37.7912 39.6395 33.6697C38.3269 30.4961 38.2748 27.6301 39.1631 25.5285C39.4159 24.9145 39.7689 24.3468 40.2077 23.8486C42.0588 21.7618 46.3887 19.8586 51.7037 24.8411L51.8179 24.7915C52.7136 24.4143 58.5174 22.1166 64.8994 22.9578C65.6593 23.0604 66.4125 23.2079 67.1549 23.3995H67.1773C68.1764 23.6514 69.1506 23.9936 70.0879 24.4218C70.0879 24.4218 71.5122 19.6303 76.584 19.2507C78.3606 19.1167 79.6038 19.7867 80.4598 20.7643C82.0553 22.5806 82.3233 25.4788 82.2315 26.2704C82.0901 27.511 81.7179 31.3 77.0207 32.3447C77.0692 33.2618 77.1853 34.1741 77.3681 35.0741C77.6336 36.1907 79.6733 38.5157 79.2465 41.9325C78.8197 45.3493 77.2961 47.9671 74.3657 49.7239C74.3616 49.73 74.3554 49.7344 74.3483 49.7363L74.393 49.7834C74.4699 49.8728 74.6411 50.0613 74.8719 50.3392C76.2465 51.9769 79.9958 56.689 82.1769 61.8452C84.5193 67.3984 84.4746 71.237 84.4101 72.1625C84.4101 72.3064 84.3952 72.3784 84.3952 72.3784C84.7461 72.482 85.0649 72.6729 85.3218 72.9333C85.5787 73.1937 85.7653 73.515 85.8642 73.8672C85.8642 73.8672 88.3306 70.3288 90.8913 71.8945C93.4521 73.4603 92.4645 77.1599 92.4645 77.1599C92.4645 77.1599 94.2883 80.1598 91.2983 85.8049Z" fill="white"/>
<path opacity="0.6" d="M56.9641 70.9417C56.9641 70.9417 55.5274 69.3983 54.5175 68.8673L54.783 69.9318C54.783 69.9318 51.3266 68.9194 47.9768 72.4851C47.9768 72.4851 45.4756 69.1874 43.5104 70.3561C41.5452 71.5248 43.1382 73.9739 43.1382 73.9739L41.9695 73.2295C41.9695 73.2295 42.3417 75.2493 43.4583 75.9937C43.4583 75.9937 40.6395 81.6859 41.3839 88.2267C41.3839 88.2267 39.3541 82.2715 41.8032 76.4528C41.8032 76.4528 39.4062 72.0881 42.3367 69.5472C45.2671 67.0063 47.8229 71.041 47.8229 71.041C47.8229 71.041 50.53 66.7756 54.0932 67.7408C56.6465 68.443 56.9641 70.9417 56.9641 70.9417Z" fill="white"/>
<path opacity="0.6" d="M55.391 50.8256C55.391 50.8256 51.2149 50.8256 48.9941 49.5477C48.9941 49.5477 43.9446 54.4607 41.3194 58.9767C38.6941 63.4927 38.2227 66.247 38.2227 66.247L37.5502 63.2843C36.6986 65.1176 35.978 67.009 35.3939 68.9442C34.7959 70.9293 34.518 72.9913 33.7836 74.9267C33.0838 76.7703 31.8928 78.4006 30.672 79.9365C30.6273 79.604 30.6 79.2789 30.5826 78.9713C30.4387 76.2691 31.2005 71.5719 32.6223 67.2098C34.0441 62.8476 38.4088 57.0562 42.0638 53.7833C45.7187 50.5104 48.0487 49.2052 48.0487 49.2052C48.0487 49.2052 46.1158 45.0217 45.9222 40.662L46.0364 38.0914C46.0364 38.0914 47.277 30.4166 49.9618 28.1934L50.535 28.6226C50.535 28.6226 50.1975 30.506 52.3538 34.95C52.3538 34.95 50.2645 33.9401 49.8725 32.9947C50.2025 34.1916 50.6731 35.3452 51.2744 36.4314C51.2744 36.4314 50.5697 36.7812 49.4383 35.9227C49.4283 35.9227 48.7931 47.3269 55.391 50.8256Z" fill="white"/>
<path opacity="0.6" d="M53.2049 27.0148L50.8253 25.2183L50.7757 26.5781C50.7757 26.5781 48.4904 23.9057 46.9371 23.469L47.7113 24.6302C47.5649 24.5781 43.3764 23.067 39.1631 25.5285C39.4159 24.9145 39.7689 24.3469 40.2077 23.8486C42.0588 21.7618 46.3887 19.8586 51.7037 24.8411L51.8179 24.7915L51.9394 25.2208L53.2049 27.0148Z" fill="white"/>
<path d="M62.1675 22.655C63.6572 22.6786 65.1402 22.8599 66.5917 23.196C71.2045 24.2679 76.0406 27.3472 76.9512 32.2925C77.12 33.2081 77.1349 34.1783 77.3706 35.0741C77.8048 36.7142 78.8718 38.0517 79.177 39.739C79.9735 44.1334 76.8917 50.0539 72.0308 50.3864" stroke="#263238" stroke-width="0.248133" stroke-linecap="round" stroke-linejoin="round"/>
<path d="M51.7285 24.8883C53.6802 23.9967 55.7371 23.3564 57.85 22.9827" stroke="#263238" stroke-width="0.248133" stroke-linecap="round" stroke-linejoin="round"/>
<path d="M66.4106 36.4685C66.4106 37.1311 66.1302 37.6695 65.7853 37.6695C65.4404 37.6695 65.1624 37.1311 65.1624 36.4685C65.1624 35.806 65.4404 35.2676 65.7853 35.2676C66.1302 35.2676 66.4106 35.806 66.4106 36.4685Z" fill="#263238"/>
<path d="M74.1821 35.4612C74.1821 36.1237 73.9042 36.6597 73.5593 36.6597C73.2143 36.6597 72.934 36.1237 72.934 35.4612C72.934 34.7987 73.2143 34.2603 73.5593 34.2603C73.9042 34.2603 74.1821 34.7962 74.1821 35.4612Z" fill="#263238"/>
<path d="M70.5792 37.6746C70.4867 37.7033 70.402 37.7531 70.3321 37.8201C70.2621 37.8871 70.2086 37.9694 70.1759 38.0606C70.1432 38.1518 70.1321 38.2493 70.1435 38.3456C70.1549 38.4418 70.1886 38.534 70.2417 38.615C70.6908 39.3073 71.5122 40.3519 72.4352 40.3767C73.8297 40.4363 74.063 38.1113 73.7727 37.7043C73.5345 37.3743 71.7653 37.3123 70.5792 37.6746Z" fill="#263238"/>
<path d="M38.2996 57.6665C33.4213 63.5249 30.3593 70.9689 30.5702 78.6933C30.605 79.8645 30.6968 81.1151 31.1658 82.2019C32.6794 85.7005 34.4759 85.6063 35.9895 84.6609C37.5031 83.7155 37.6892 78.0432 37.6892 78.0432C37.6892 78.0432 38.4336 80.1225 39.8653 80.4054C40.05 80.424 40.2366 80.4039 40.4131 80.3462C40.5896 80.2885 40.752 80.1946 40.8901 80.0704" stroke="#263238" stroke-width="0.248133" stroke-linecap="round" stroke-linejoin="round"/>
<path d="M46.0017 38.2527C45.3838 43.6173 48.0487 49.2053 48.0487 49.2053C47.9991 49.1035 41.8454 53.9719 41.2822 54.4955L40.6941 55.0612" stroke="#263238" stroke-width="0.248133" stroke-linecap="round" stroke-linejoin="round"/>
<path d="M69.4899 37.1734C69.992 36.8358 70.5661 36.6206 71.1663 36.5447C71.7665 36.4689 72.3761 36.5346 72.9464 36.7366" stroke="#263238" stroke-width="0.248133" stroke-linecap="round" stroke-linejoin="round"/>
<path d="M75.8396 19.2929C76.2484 19.2156 76.6644 19.1832 77.0803 19.1961C81.6633 19.3698 83.095 25.4391 81.703 28.9974C80.904 31.0321 79.0653 31.9874 76.9587 32.2851" stroke="#263238" stroke-width="0.248133" stroke-linecap="round" stroke-linejoin="round"/>
<path d="M70.2467 24.4541C70.5717 22.7544 71.8124 21.2283 73.3707 20.2681" stroke="#263238" stroke-width="0.248133" stroke-linecap="round" stroke-linejoin="round"/>
<path d="M74.5989 27.6426C74.5989 27.6426 75.8768 21.8189 79.9983 23.0025" stroke="#263238" stroke-width="0.248133" stroke-linecap="round" stroke-linejoin="round"/>
<path d="M75.4947 25.5112C75.4947 25.5112 78.8668 24.7668 79.3879 27.2159C79.909 29.6649 76.4748 30.4217 76.4748 30.4217" stroke="#263238" stroke-width="0.248133" stroke-linecap="round" stroke-linejoin="round"/>
<path d="M73.3285 20.7519C73.3285 20.7519 73.3285 19.8041 73.7057 19.3872" stroke="#263238" stroke-width="0.248133" stroke-linecap="round" stroke-linejoin="round"/>
<path d="M74.5245 19.1365C74.3477 19.4938 74.2624 19.8894 74.2763 20.2878" stroke="#263238" stroke-width="0.248133" stroke-linecap="round" stroke-linejoin="round"/>
<path d="M75.6262 18.7644C75.4886 19.0948 75.4259 19.4515 75.4426 19.809" stroke="#263238" stroke-width="0.248133" stroke-linecap="round" stroke-linejoin="round"/>
<path d="M70.9315 36.5505C70.8197 36.4963 70.7133 36.4315 70.6139 36.3569" stroke="#263238" stroke-width="0.248133" stroke-linecap="round" stroke-linejoin="round"/>
<path d="M70.0829 35.8333C69.7646 35.3873 69.6055 34.8472 69.6313 34.2999C69.6785 32.7143 69.3336 24.9081 64.5595 23.0049" stroke="#263238" stroke-width="0.248133" stroke-linecap="round" stroke-linejoin="round" stroke-dasharray="0.75 0.75"/>
<path d="M64.2046 22.8759C64.0855 22.8387 63.9565 22.8039 63.8448 22.7742" stroke="#263238" stroke-width="0.248133" stroke-linecap="round" stroke-linejoin="round"/>
<path d="M44.9247 21.6626C44.6065 21.6772 44.2898 21.7145 43.9769 21.7743C38.8182 22.7494 36.8108 28.5284 39.8653 34.0395C41.7734 37.4885 44.9942 38.1337 46.9172 38.1808" stroke="#263238" stroke-width="0.248133" stroke-linecap="round" stroke-linejoin="round"/>
<path d="M52.6888 26.2357C51.6668 24.7665 50.3375 23.5372 48.7931 22.6328" stroke="#263238" stroke-width="0.248133" stroke-linecap="round" stroke-linejoin="round"/>
<path d="M51.1727 29.1934C51.1727 29.1934 46.0389 23.3374 40.503 27.0768" stroke="#263238" stroke-width="0.248133" stroke-linecap="round" stroke-linejoin="round"/>
<path d="M46.5128 26.2356C46.5128 26.2356 42.1184 30.1685 46.8081 33.8409" stroke="#263238" stroke-width="0.248133" stroke-linecap="round" stroke-linejoin="round"/>
<path d="M46.5599 35.6373C46.5599 35.6373 46.8577 31.1287 50.0015 28.166" stroke="#263238" stroke-width="0.248133" stroke-linecap="round" stroke-linejoin="round"/>
<path d="M47.2398 21.459C47.4977 21.799 47.6635 22.1999 47.7212 22.6227" stroke="#263238" stroke-width="0.248133" stroke-linecap="round" stroke-linejoin="round"/>
<path d="M48.0214 21.387C48.2751 21.8177 48.4007 22.3117 48.3837 22.8112" stroke="#263238" stroke-width="0.248133" stroke-linecap="round" stroke-linejoin="round"/>
<path d="M45.6667 21.1265C46.0725 21.4525 46.3388 21.921 46.4111 22.4366" stroke="#263238" stroke-width="0.248133" stroke-linecap="round" stroke-linejoin="round"/>
<path d="M51.2273 49.915C51.2273 49.915 60.6191 52.9447 68.8745 51.1284" stroke="#263238" stroke-width="0.248133" stroke-linecap="round" stroke-linejoin="round"/>
<path d="M57.2917 88.6237C63.3982 90.3383 66.7852 89.9561 70.5097 87.981C74.8123 85.6957 76.9091 81.0333 77.4723 76.3758C78.5046 67.7805 75.6088 58.8155 72.5841 50.9075" stroke="#263238" stroke-width="0.248133" stroke-linecap="round" stroke-linejoin="round"/>
<path d="M66.3088 89.3109C66.3088 89.3704 78.9412 82.9413 70.6164 51.7336" stroke="#263238" stroke-width="0.248133" stroke-linecap="round" stroke-linejoin="round" stroke-dasharray="0.74 0.74"/>
<path d="M69.8968 88.4672C69.8968 88.4672 77.4301 94.1569 84.5491 92.4001C91.668 90.6433 94.1841 78.6262 92.4744 77.1598C92.4744 77.1598 93.1196 71.7356 89.9782 71.6041C86.8368 71.4726 85.889 73.877 85.889 73.877C85.889 73.877 85.3059 71.7753 83.6558 72.3882C82.0057 73.0011 79.3904 75.862 77.6733 76.5618" stroke="#263238" stroke-width="0.248133" stroke-linecap="round" stroke-linejoin="round"/>
<path d="M91.6035 76.4751C90.6754 74.6687 88.9807 74.8027 87.5242 75.5967C86.0676 76.3907 85.0974 77.8622 84.4994 79.408C83.5148 81.9713 83.4118 84.7895 84.2066 87.4178C84.4032 88.1789 84.7755 88.8834 85.2934 89.4748C85.8344 90.0405 86.6483 90.3954 87.4125 90.2192C88.0286 90.0571 88.6008 89.7595 89.0874 89.3482" stroke="#263238" stroke-width="0.248133" stroke-linecap="round" stroke-linejoin="round"/>
<path d="M72.6635 88.1919C72.6635 88.1919 77.2639 91.0305 84.2463 88.4872" stroke="#263238" stroke-width="0.248133" stroke-linecap="round" stroke-linejoin="round" stroke-dasharray="0.74 0.74"/>
<path d="M32.1111 83.7478C32.734 83.6536 33.2153 83.1598 33.5999 82.666C35.6991 80.0159 36.5775 76.6339 37.4187 73.3585C37.6668 73.6662 38.1308 73.4156 38.4286 73.1451C39.4832 72.1898 39.9174 70.7457 40.3293 69.3859C41.4658 65.7284 42.9099 62.138 44.9967 58.9247C47.0835 55.7113 49.8402 52.8777 53.2124 51.0588" stroke="#263238" stroke-width="0.248133" stroke-linecap="round" stroke-linejoin="round" stroke-dasharray="0.74 0.74"/>
<path d="M74.3334 49.8455C74.3334 49.8455 84.1049 59.7509 84.4895 72.0335" stroke="#263238" stroke-width="0.248133" stroke-linecap="round" stroke-linejoin="round"/>
<path d="M41.8032 76.4529C41.8032 76.4529 36.9324 90.7031 47.014 93.3606C57.0957 96.0181 60.3834 81.7629 59.8499 79.8151C59.8499 79.8151 63.5719 77.691 62.0633 74.7705C60.8822 72.4753 57.4604 73.7085 57.4604 73.7085C57.4604 73.7085 57.7259 68.5722 53.8327 67.6888C49.9395 66.8055 47.8229 71.0411 47.8229 71.0411C47.8229 71.0411 45.0389 67.5375 42.3417 69.5523C39.2351 71.8475 41.8032 76.4529 41.8032 76.4529Z" stroke="#263238" stroke-width="0.248133" stroke-linecap="round" stroke-linejoin="round"/>
<path d="M44.9123 78.2368C43.0414 81.3335 42.2325 85.5865 43.4633 88.3879C43.7885 89.1145 44.2641 89.7639 44.8586 90.2934C45.4531 90.8229 46.153 91.2204 46.9123 91.4598C53.1156 93.3754 56.9145 86.1398 57.0361 81.0953C57.0758 79.3757 56.855 77.5817 55.927 76.1326C54.2124 73.4478 50.5127 73.5347 48.0041 74.9887C47.8478 75.0781 47.6939 75.1773 47.5426 75.284" stroke="#263238" stroke-width="0.248133" stroke-linecap="round" stroke-linejoin="round"/>
<path d="M46.1083 69.3485C46.1083 69.3485 47.0264 62.5745 50.3564 56.0312" stroke="#263238" stroke-width="0.248133" stroke-linecap="round" stroke-linejoin="round"/>
<path d="M38.8157 55.6568C39.6801 55.2666 40.6518 55.1834 41.57 55.421" stroke="#263238" stroke-width="0.248133" stroke-linecap="round" stroke-linejoin="round"/>
<path d="M38.4112 56.6494C38.9562 56.4837 39.5323 56.448 40.0936 56.5451" stroke="#263238" stroke-width="0.248133" stroke-linecap="round" stroke-linejoin="round"/>
<path d="M45.9024 75.2271C46.4794 75.3714 47.0356 75.5891 47.5574 75.8747" stroke="#263238" stroke-width="0.248133" stroke-linecap="round" stroke-linejoin="round"/>
<path d="M45.9594 76.1228C46.3427 76.2078 46.718 76.3257 47.081 76.4751" stroke="#263238" stroke-width="0.248133" stroke-linecap="round" stroke-linejoin="round"/>
<path d="M44.5749 77.8225L45.5054 77.8548" stroke="#263238" stroke-width="0.248133" stroke-linecap="round" stroke-linejoin="round"/>
<path d="M69.2889 51.354C69.2889 51.354 69.0407 53.0264 70.2814 53.1133C71.5221 53.2001 73.0704 53.0264 72.6858 51.354C72.3012 49.6816 69.8844 50.5823 69.2889 51.354Z" fill="#263238"/>
<path d="M57.7458 54.0217C57.7458 54.0217 58.242 57.7437 60.6638 58.0811C63.0856 58.4186 70.1474 52.0093 70.1474 52.0093L70.3186 50.7463L57.7458 54.0217Z" fill="#263238"/>
<path d="M70.3186 50.7462C70.3186 50.7462 59.6117 55.8577 57.8748 54.1928C56.1378 52.5278 70.3807 50.6941 70.3807 50.6941L70.3186 50.7462Z" fill="#263238"/>
<path d="M57.7458 54.0217C57.7458 54.0217 58.242 57.7437 60.6638 58.0811C63.0856 58.4186 70.1474 52.0093 70.1474 52.0093L70.3186 50.7463L57.7458 54.0217Z" fill="#263238"/>
<path opacity="0.2" d="M70.3186 50.7462C70.3186 50.7462 59.6117 55.8577 57.8748 54.1928C56.1378 52.5278 70.3807 50.6941 70.3807 50.6941L70.3186 50.7462Z" fill="black"/>
<path d="M71.7528 50.2449L71.5171 51.2225C71.5171 51.2225 75.4078 54.8998 79.5988 55.7956C83.7898 56.6914 82.3779 51.3069 82.3779 51.3069L71.7528 50.2449Z" fill="#263238"/>
<path d="M71.7528 50.2449L71.5171 51.2225C71.5171 51.2225 75.4078 54.8998 79.5988 55.7956C83.7898 56.6914 82.3779 51.3069 82.3779 51.3069L71.7528 50.2449Z" fill="#263238"/>
<path d="M71.7528 50.2449C71.7528 50.2449 80.4201 53.0538 82.1173 51.8429C83.8146 50.632 76.9835 49.034 71.7528 50.2449Z" fill="#263238"/>
<path opacity="0.2" d="M71.7528 50.2449C71.7528 50.2449 80.4201 53.0538 82.1173 51.8429C83.8146 50.632 76.9835 49.034 71.7528 50.2449Z" fill="black"/>
<path d="M70.0482 52.1556C70.0482 52.1556 68.1773 59.3936 66.686 62.6168L70.5221 64.9592C70.5221 64.9592 72.0109 55.5823 70.9911 51.8801L70.0482 52.1556Z" fill="#263238"/>
<path d="M70.9216 52.2226C70.9216 52.2226 74.3706 59.9767 74.5146 65.8376L78.2961 62.7658C78.2961 62.7658 74.1349 52.7437 71.8198 51.5998C69.5048 50.4559 70.9216 52.2226 70.9216 52.2226Z" fill="#263238"/>
<path opacity="0.2" d="M74.3634 49.7388L74.4086 49.7865L74.3508 49.774C74.3508 49.774 74.3508 49.7513 74.3634 49.7388Z" fill="black"/>
<path d="M57.7681 22.0471C58.0446 22.1732 58.2929 22.3537 58.498 22.578C58.703 22.8023 58.8607 23.0656 58.9616 23.3523" stroke="#263238" stroke-width="0.248133" stroke-linecap="round" stroke-linejoin="round"/>
<path d="M59.0435 22.0645C59.3223 22.4006 59.5667 22.7639 59.773 23.1488" stroke="#263238" stroke-width="0.248133" stroke-linecap="round" stroke-linejoin="round"/>
<path d="M60.6191 21.9702C60.8754 22.424 61.0682 22.9107 61.1923 23.4168" stroke="#263238" stroke-width="0.248133" stroke-linecap="round" stroke-linejoin="round"/>
<g style="mix-blend-mode:multiply">
<path fill-rule="evenodd" clip-rule="evenodd" d="M103.179 62.2233C102.45 67.5103 106.197 72.6594 110.551 75.7458C114.375 78.4563 119.361 77.5086 124.02 76.9961C127.941 76.5647 131.907 75.8618 134.712 73.088C137.515 70.316 139.072 66.3734 138.733 62.4457C138.418 58.797 135.226 56.4782 133.026 53.5504C130.19 49.7766 128.936 43.5404 124.231 43.1472C119.528 42.754 117.33 48.7765 113.833 51.946C110.031 55.3903 103.879 57.1418 103.179 62.2233Z" fill="#E2E3FB" fill-opacity="0.7"/>
</g>
<defs>
<linearGradient id="paint0_linear_212_41" x1="48.4436" y1="5.52823" x2="85.5614" y2="78.8955" gradientUnits="userSpaceOnUse">
<stop stop-color="#92E3A9"/>
<stop offset="1" stop-color="#F9F3DF"/>
</linearGradient>
</defs>
</svg>
