<svg width="114" height="104" viewBox="0 0 114 104" fill="none" xmlns="http://www.w3.org/2000/svg">
<path d="M12.4478 40.978C12.4478 40.978 2.44101 56.0884 9.55193 78.8789C16.6628 101.669 37.3818 107.483 49.6681 101.155C61.9544 94.8259 63.7464 86.5888 73.6764 80.6115C83.6064 74.6342 104.083 74.8446 111.968 58.4001C119.854 41.9556 103.501 18.9077 84.99 5.6338C66.4788 -7.64008 26.2389 8.05938 12.4478 40.978Z" fill="white"/>
<path d="M12.4478 40.978C12.4478 40.978 2.44101 56.0884 9.55193 78.8789C16.6628 101.669 37.3818 107.483 49.6681 101.155C61.9544 94.8259 63.7464 86.5888 73.6764 80.6115C83.6064 74.6342 104.083 74.8446 111.968 58.4001C119.854 41.9556 103.501 18.9077 84.99 5.6338C66.4788 -7.64008 26.2389 8.05938 12.4478 40.978Z" fill="url(#paint0_linear_211_40)" fill-opacity="0.4"/>
<path d="M91.6963 39.7257L86.3526 38.9708L87.0951 33.6642L92.4413 34.4067L91.6963 39.7257ZM86.6322 38.7604L91.4859 39.446L92.1665 34.6295L87.3104 33.9439L86.6322 38.7604ZM92.5477 31.7707L87.6594 31.0802L88.3673 26.0657L88.4143 26.036C89.7091 25.2422 90.9404 24.3494 92.0972 23.3654C93.1794 22.4534 94.121 21.3867 94.8916 20.1997C95.6202 19.0683 96.0948 17.7924 96.2826 16.4599C96.4286 15.4278 96.3098 14.5838 95.9287 13.9452C95.5475 13.3066 94.9188 12.9378 94.0501 12.8141C93.7188 12.7487 93.3778 12.7496 93.0469 12.8167C92.716 12.8839 92.4016 13.0159 92.122 13.2051C91.8608 13.4074 91.6443 13.6616 91.4863 13.9517C91.3282 14.2418 91.232 14.5615 91.2037 14.8907C91.1551 15.2135 91.1468 15.541 91.179 15.8659C91.2112 16.1851 91.2532 16.5292 91.3052 16.8881L91.3225 17.0192L86.2164 17.3979L86.1966 17.2915C86.0909 16.7711 86.0271 16.243 86.0061 15.7124C85.9869 15.1963 86.0134 14.6794 86.0852 14.1679C86.3897 12.0121 87.3079 10.3613 88.8078 9.25986C90.3077 8.15844 92.3225 7.77481 94.7802 8.12627C97.29 8.4802 99.1661 9.45044 100.362 11.0073C101.557 12.5641 101.985 14.6283 101.631 17.138C101.427 18.695 100.915 20.1958 100.126 21.5536C99.329 22.8854 98.321 24.079 97.1414 25.088C95.8751 26.1734 94.5141 27.1434 93.0749 27.9863L92.5477 31.7707ZM87.9391 30.8698L92.3373 31.4911L92.8546 27.823L92.9066 27.7933C94.3512 26.9508 95.7164 25.979 96.9855 24.89C98.1444 23.8957 99.1348 22.7205 99.9185 21.41C100.695 20.0832 101.2 18.615 101.404 17.091C101.748 14.6506 101.337 12.6507 100.183 11.1508C99.0299 9.65092 97.2132 8.71039 94.7629 8.36387C92.372 8.02726 90.4216 8.39358 88.9712 9.45291C87.5208 10.5122 86.6248 12.1037 86.3303 14.1902C86.2605 14.6869 86.2348 15.1889 86.2536 15.6901C86.2725 16.1712 86.3271 16.6502 86.4169 17.1232L91.0404 16.7792C90.9983 16.4648 90.9612 16.1629 90.9315 15.8782C90.8977 15.5336 90.9068 15.186 90.9587 14.8436C90.9912 14.4819 91.0983 14.1308 91.2734 13.8125C91.4485 13.4943 91.6877 13.2158 91.976 12.9948C92.2809 12.7856 92.6243 12.6392 92.9863 12.564C93.3484 12.4888 93.7217 12.4863 94.0847 12.5567C95.0327 12.6903 95.7232 13.1111 96.139 13.7942C96.5549 14.4773 96.6811 15.3807 96.5276 16.4698C96.3367 17.8412 95.8494 19.1545 95.0995 20.3185C94.3158 21.525 93.3583 22.6092 92.2581 23.5361C91.1059 24.5149 89.8814 25.4052 88.595 26.1993L87.9391 30.8698Z" fill="#263238"/>
<path d="M49.4453 51.5318C49.4453 51.5318 33.5578 51.7422 33.0627 52.8733C32.5677 54.0044 30.308 67.704 30.1669 72.4265C30.0258 77.1489 29.9565 80.2651 30.4491 80.8294C30.9416 81.3937 38.6416 85.8439 38.6416 85.8439C38.6416 85.8439 35.0403 98.4842 36.1665 98.9099C37.2927 99.3356 44.2179 101.098 48.6657 101.17C53.1134 101.241 57.4943 101.239 57.8482 101.239C58.2022 101.239 69.5702 101.662 73.5254 100.744C77.4806 99.8257 78.6785 99.7539 78.6785 98.202C78.6785 96.6501 77.6885 94.7369 77.6192 94.3904C77.5499 94.0439 80.3047 67.2709 78.7503 60.7045C77.196 54.1381 75.1491 51.5937 73.5947 51.1705C72.0404 50.7472 60.9545 51.0294 60.9545 51.0294L49.4453 51.5318Z" fill="white"/>
<path d="M63.9444 101.474C62.2118 101.474 60.2788 101.447 58.1947 101.387H57.8507C57.0587 101.387 52.9005 101.387 48.6682 101.318C44.1462 101.246 37.2258 99.4617 36.1269 99.0484C35.8794 98.9593 35.3176 98.7464 36.8694 92.2147C37.5476 89.3386 38.3545 86.475 38.503 85.928C37.6243 85.4206 30.8426 81.4852 30.3649 80.9357C29.8427 80.3392 29.9021 77.4706 30.0506 72.4487C30.1941 67.6643 32.491 53.9078 32.9563 52.8411C33.4513 51.6951 46.7797 51.46 49.4503 51.4253L60.9594 50.9303C61.4148 50.9179 72.0973 50.6531 73.6368 51.0763C74.5922 51.3238 77.0103 52.794 78.8815 60.6994C80.1611 66.11 78.5523 84.8909 77.9459 91.9597C77.8296 93.3186 77.7454 94.3012 77.7529 94.3977C77.8085 94.57 77.8729 94.7394 77.9459 94.9051C78.2479 95.6476 78.8122 97.0436 78.8122 98.2267C78.8122 99.7117 77.8048 99.9295 74.81 100.605L73.5724 100.89C71.8646 101.281 68.5257 101.474 63.9444 101.474ZM67.9911 51.0763C64.6275 51.0763 61.0238 51.1654 60.9594 51.1679L49.4503 51.6629C43.3368 51.7446 33.5157 52.1579 33.1791 52.9302C32.7162 53.987 30.4367 67.6792 30.2931 72.4462C30.1694 76.6118 30.0605 80.2105 30.5406 80.7649C30.9342 81.2154 36.565 84.5172 38.7084 85.7522C38.7323 85.7661 38.7508 85.7874 38.7611 85.813C38.7714 85.8386 38.7729 85.8668 38.7653 85.8933C37.0056 92.0538 35.5725 98.5583 36.2135 98.8058C37.305 99.2142 44.1784 100.986 48.6706 101.058C52.9055 101.125 57.0587 101.127 57.8507 101.127H58.2022C65.7537 101.34 71.1865 101.165 73.4982 100.632C73.9511 100.526 74.3669 100.434 74.7481 100.348C77.6737 99.687 78.5573 99.4865 78.5573 98.2093C78.5573 97.0757 78.0053 95.712 77.7083 94.9794C77.6275 94.7974 77.5581 94.6105 77.5004 94.42C77.488 94.3482 77.5227 93.9126 77.6935 91.9201C78.2974 84.8612 79.9037 66.1124 78.6315 60.7341C76.7925 52.9574 74.4758 51.5416 73.565 51.2917C72.9141 51.1283 70.5207 51.0763 67.9911 51.0763Z" fill="#263238"/>
<path d="M56.2567 58.175C56.2325 58.1754 56.2087 58.1686 56.1884 58.1553C56.1681 58.1421 56.1523 58.1231 56.1429 58.1008C56.1363 58.0858 56.1328 58.0697 56.1325 58.0534C56.1322 58.0371 56.1351 58.0209 56.1411 58.0057C56.147 57.9905 56.156 57.9767 56.1673 57.9649C56.1787 57.9532 56.1922 57.9439 56.2072 57.9374C56.77 57.697 57.3172 57.4217 57.8457 57.1132C57.8599 57.1051 57.8755 57.0998 57.8916 57.0977C57.9078 57.0956 57.9242 57.0967 57.94 57.101C57.9557 57.1052 57.9705 57.1125 57.9834 57.1225C57.9963 57.1324 58.0071 57.1448 58.0153 57.159C58.0234 57.1731 58.0287 57.1887 58.0308 57.2049C58.0329 57.2211 58.0317 57.2375 58.0275 57.2532C58.0232 57.269 58.0159 57.2837 58.006 57.2967C57.996 57.3096 57.9836 57.3204 57.9695 57.3285C57.4322 57.6417 56.8758 57.9211 56.3037 58.1651C56.289 58.1719 56.2729 58.1753 56.2567 58.175Z" fill="#263238"/>
<path d="M58.6551 56.883C58.6347 56.8828 58.6146 56.8778 58.5966 56.8683C58.5785 56.8588 58.5629 56.8452 58.5511 56.8285C58.5335 56.8009 58.5275 56.7675 58.5344 56.7355C58.5414 56.7034 58.5607 56.6755 58.5883 56.6577C60.5558 55.3473 62.283 53.7079 63.6944 51.8115C63.7038 51.7981 63.7157 51.7867 63.7295 51.778C63.7433 51.7693 63.7587 51.7633 63.7748 51.7606C63.7909 51.7578 63.8074 51.7583 63.8233 51.7619C63.8393 51.7656 63.8543 51.7723 63.8676 51.7818C63.8809 51.791 63.8923 51.8027 63.901 51.8163C63.9097 51.8299 63.9156 51.8451 63.9184 51.861C63.9211 51.8769 63.9207 51.8932 63.9171 51.9089C63.9135 51.9246 63.9068 51.9395 63.8973 51.9526C62.467 53.8737 60.7173 55.5347 58.7244 56.8632C58.7039 56.8768 58.6797 56.8837 58.6551 56.883Z" fill="#263238"/>
<path d="M60.1105 57.5758C60.0882 57.5756 60.0665 57.5695 60.0474 57.5582C60.0282 57.5469 60.0124 57.5308 60.0015 57.5114C59.9937 57.4971 59.9888 57.4814 59.987 57.4652C59.9853 57.449 59.9867 57.4326 59.9913 57.417C59.9959 57.4013 60.0036 57.3868 60.0138 57.3741C60.0241 57.3614 60.0367 57.3509 60.0511 57.3431C61.2886 56.6798 62.7365 54.6576 62.7514 54.6378C62.7601 54.6231 62.7718 54.6103 62.7858 54.6003C62.7997 54.5903 62.8156 54.5833 62.8324 54.5798C62.8492 54.5763 62.8665 54.5763 62.8833 54.5798C62.9001 54.5833 62.9159 54.5903 62.9299 54.6003C62.9438 54.6103 62.9556 54.6231 62.9643 54.6378C62.9731 54.6526 62.9786 54.669 62.9807 54.686C62.9828 54.703 62.9813 54.7203 62.9763 54.7367C62.9713 54.7532 62.963 54.7684 62.9519 54.7814C62.8924 54.8656 61.4668 56.8704 60.1674 57.5609C60.15 57.5708 60.1304 57.5759 60.1105 57.5758Z" fill="#263238"/>
<path d="M52.757 77.4606C52.7309 77.4602 52.7057 77.4516 52.6848 77.4361C52.6639 77.4205 52.6485 77.3988 52.6407 77.3739L52.2248 76.0819C52.2195 76.0665 52.2173 76.0502 52.2184 76.0339C52.2195 76.0176 52.2238 76.0017 52.2312 75.9871C52.2386 75.9725 52.2489 75.9596 52.2614 75.9491C52.2739 75.9386 52.2884 75.9308 52.304 75.926C52.3352 75.9158 52.3692 75.9185 52.3984 75.9333C52.4276 75.9482 52.4498 75.974 52.46 76.0052L52.8758 77.2972C52.8859 77.3284 52.8833 77.3623 52.8684 77.3915C52.8536 77.4208 52.8277 77.4429 52.7966 77.4531C52.7839 77.458 52.7705 77.4605 52.757 77.4606Z" fill="#263238"/>
<path d="M55.0241 84.4998C54.998 84.4998 54.9726 84.4914 54.9516 84.4758C54.9306 84.4602 54.9153 84.4382 54.9078 84.4132L53.0664 78.6982C53.0562 78.6654 53.0595 78.6299 53.0755 78.5995C53.0915 78.5691 53.1189 78.5463 53.1517 78.5361C53.1846 78.5259 53.2201 78.5292 53.2505 78.5452C53.2809 78.5612 53.3037 78.5887 53.3139 78.6215L55.1553 84.3389C55.1648 84.3701 55.1619 84.4038 55.1471 84.4328C55.1323 84.4619 55.1069 84.4841 55.0761 84.4948L55.0241 84.4998Z" fill="#263238"/>
<path d="M55.591 84.6407C55.5671 84.6418 55.5436 84.6348 55.5241 84.6209C55.5103 84.6123 55.4983 84.6011 55.4888 84.5878C55.4793 84.5746 55.4726 84.5596 55.4689 84.5437C55.4652 84.5279 55.4647 84.5114 55.4674 84.4954C55.4701 84.4793 55.4759 84.4639 55.4845 84.4501L57.321 81.5567C57.3294 81.5427 57.3405 81.5304 57.3537 81.5207C57.367 81.511 57.382 81.5042 57.398 81.5004C57.4139 81.4967 57.4305 81.4963 57.4466 81.4992C57.4627 81.5021 57.4781 81.5082 57.4918 81.5171C57.5193 81.5349 57.5387 81.5627 57.5461 81.5945C57.5535 81.6264 57.5482 81.6599 57.5314 81.6879L55.6949 84.5838C55.6836 84.601 55.6682 84.6153 55.65 84.6252C55.6319 84.6351 55.6116 84.6404 55.591 84.6407Z" fill="#263238"/>
<path d="M59.7565 82.9456C59.7324 82.9464 59.7085 82.9401 59.688 82.9273C59.6675 82.9145 59.6513 82.8958 59.6414 82.8738C59.6316 82.8517 59.6286 82.8272 59.6328 82.8034C59.6369 82.7795 59.6482 82.7575 59.6649 82.7401L64.1201 77.7256C64.1421 77.701 64.173 77.6861 64.2059 77.6843C64.2389 77.6824 64.2712 77.6937 64.2958 77.7157C64.3204 77.7377 64.3353 77.7686 64.3372 77.8015C64.339 77.8345 64.3277 77.8668 64.3057 77.8915L59.8506 82.906C59.8387 82.919 59.8242 82.9293 59.8079 82.9361C59.7917 82.943 59.7741 82.9462 59.7565 82.9456Z" fill="#263238"/>
<path d="M57.8507 101.377H57.8161L48.2301 98.583C48.2145 98.5785 48.1999 98.5709 48.1872 98.5607C48.1746 98.5506 48.164 98.538 48.1562 98.5237C48.1484 98.5095 48.1435 98.4938 48.1417 98.4777C48.1399 98.4615 48.1414 98.4452 48.1459 98.4296C48.1502 98.4138 48.1576 98.399 48.1677 98.3862C48.1778 98.3733 48.1904 98.3626 48.2047 98.3548C48.219 98.3469 48.2348 98.342 48.2511 98.3404C48.2673 98.3388 48.2838 98.3405 48.2994 98.3454L57.8829 101.135C57.9157 101.139 57.9454 101.157 57.9653 101.183C57.9853 101.21 57.9939 101.243 57.9893 101.276C57.9847 101.309 57.9673 101.338 57.9408 101.358C57.9144 101.378 57.8811 101.387 57.8482 101.382L57.8507 101.377Z" fill="#263238"/>
<path d="M47.1361 98.2564H47.1014L45.458 97.7762C45.4251 97.767 45.3973 97.7451 45.3806 97.7154C45.3639 97.6857 45.3597 97.6506 45.3688 97.6178C45.378 97.585 45.3999 97.5571 45.4296 97.5404C45.4593 97.5237 45.4944 97.5195 45.5273 97.5287L47.1707 98.0089C47.1863 98.0134 47.2009 98.021 47.2135 98.0312C47.2262 98.0413 47.2368 98.0539 47.2446 98.0682C47.2524 98.0824 47.2573 98.0981 47.2591 98.1142C47.2608 98.1304 47.2594 98.1467 47.2549 98.1623C47.2483 98.1889 47.233 98.2126 47.2115 98.2296C47.19 98.2467 47.1635 98.2561 47.1361 98.2564Z" fill="#263238"/>
<path d="M49.3463 20.1302C49.3463 20.1302 44.359 18.9843 43.4061 20.2664C42.4532 21.5485 44.3516 22.7613 44.0818 23.031C43.812 23.3008 38.0129 26.266 38.4832 29.1668C38.9534 32.0676 42.8665 35.0327 43.0027 35.8495C43.1388 36.6663 38.4832 36.9286 37.8768 38.1414C37.2704 39.3542 36.3917 45.0865 41.4508 46.975C46.5099 48.8635 52.8362 45.6929 54.5984 45.6929C56.3607 45.6929 58.1056 49.1333 60.1278 48.9303C61.3597 48.7893 62.4925 48.1871 63.2984 47.2448C63.2984 47.2448 65.3873 50.1456 68.4218 48.9303C71.4562 47.715 74.9634 43.4678 73.4809 42.1882C71.9983 40.9086 70.3103 40.5026 71.3894 39.3567C72.4685 38.2107 74.6936 35.1763 74.3595 32.5453C74.0254 29.9142 70.9191 29.7138 69.7063 28.9044C68.4936 28.0951 71.0553 26.7461 70.9884 24.521C70.9216 22.2959 69.3004 18.5808 61.0757 16.1058C52.851 13.6307 48.8043 14.8237 48.3984 16.9151C48.2715 17.4874 48.2919 18.0826 48.4577 18.6449C48.6235 19.2072 48.9292 19.7183 49.3463 20.1302Z" fill="#263238"/>
<path d="M66.9565 49.3412C65.0284 49.3412 63.6671 47.8735 63.3033 47.4329C62.4849 48.3413 61.3624 48.9188 60.1476 49.0566C59.0214 49.1704 58.0017 48.2324 57.0191 47.324C56.1775 46.5469 55.3806 45.8142 54.6059 45.8142C54.1331 45.8142 53.2842 46.0617 52.21 46.3785C49.376 47.2077 45.0916 48.4601 41.4161 47.0889C39.6588 46.433 38.446 45.2672 37.7926 43.6238C36.9263 41.416 37.3521 38.9211 37.7728 38.0845C38.1193 37.394 39.5945 37.0079 40.8964 36.6688C41.8047 36.4213 42.9334 36.1367 42.8764 35.8669C42.8195 35.5971 42.3171 35.0625 41.7156 34.414C40.5053 33.1047 38.6738 31.1271 38.3594 29.1916C37.9461 26.6546 42.0102 24.1696 43.5422 23.234C43.7551 23.1029 43.9581 22.9865 43.9902 22.9469C43.9098 22.8112 43.8188 22.6821 43.718 22.5608C43.3071 22.0262 42.619 21.1278 43.3046 20.1971C44.1363 19.0685 47.7598 19.7021 48.9775 19.9323C48.6412 19.5078 48.4041 19.0133 48.2838 18.4852C48.1634 17.9572 48.1628 17.4089 48.282 16.8805C48.3561 16.562 48.4973 16.263 48.6962 16.0035C48.8951 15.744 49.1471 15.5299 49.4354 15.3757C51.4972 14.1381 55.7568 14.351 61.1153 15.9771C69.6692 18.571 71.0528 22.442 71.1171 24.5211C71.1493 25.6398 70.5504 26.5333 70.0677 27.2437C69.7385 27.7387 69.4564 28.1545 69.5158 28.459C69.5347 28.5301 69.568 28.5966 69.6135 28.6545C69.6591 28.7124 69.7159 28.7604 69.7806 28.7956C70.1937 29.0342 70.6309 29.2283 71.085 29.3747C72.4883 29.8945 74.2333 30.543 74.4857 32.5255C74.8174 35.112 72.7532 38.087 71.4859 39.4359C71.3925 39.5134 71.3169 39.6101 71.2644 39.7194C71.2118 39.8288 71.1836 39.9482 71.1815 40.0696C71.2211 40.4309 71.7087 40.7601 72.3275 41.1735C72.7579 41.4537 73.1712 41.7595 73.565 42.0892C73.7328 42.2486 73.8551 42.4497 73.9195 42.672C73.9838 42.8943 73.9879 43.1296 73.9313 43.354C73.6195 45.2153 70.8647 48.0839 68.4738 49.0467C67.9913 49.2403 67.4764 49.3403 66.9565 49.3412ZM63.3058 47.1137C63.3249 47.1139 63.3436 47.1188 63.3604 47.1278C63.3772 47.1369 63.3916 47.1498 63.4023 47.1656C63.4246 47.1929 65.474 49.9724 68.3822 48.8091C70.7088 47.8785 73.3868 45.0965 73.6863 43.3119C73.763 42.8516 73.669 42.5026 73.4041 42.2749C73.0172 41.9539 72.6114 41.6563 72.1889 41.3838C71.5181 40.9334 70.9884 40.577 70.934 40.1042C70.9315 39.9463 70.9636 39.7898 71.0282 39.6456C71.0928 39.5015 71.1882 39.3733 71.3077 39.2701C72.4611 38.0326 74.5625 35.0625 74.2407 32.5602C74.0056 30.7286 72.3374 30.1098 70.9983 29.6123C70.5262 29.4595 70.0715 29.2571 69.642 29.0084C69.5503 28.955 69.4704 28.8836 69.4071 28.7986C69.3437 28.7135 69.2981 28.6165 69.2732 28.5134C69.194 28.11 69.4885 27.6694 69.8623 27.1125C70.3251 26.4244 70.8993 25.5681 70.8696 24.5285C70.8078 22.5163 69.4514 18.764 61.0436 16.2147C55.7518 14.6084 51.5665 14.3807 49.5641 15.5885C49.3056 15.725 49.0792 15.9151 48.9 16.146C48.7207 16.3768 48.5928 16.6433 48.5246 16.9275C48.4002 17.4814 48.4178 18.0577 48.5758 18.6029C48.7337 19.1481 49.0268 19.6445 49.428 20.0461C49.4485 20.0648 49.4625 20.0895 49.4679 20.1167C49.4732 20.1439 49.4697 20.1721 49.4577 20.1971C49.4451 20.2218 49.4246 20.2416 49.3995 20.2532C49.3744 20.2649 49.3461 20.2678 49.3191 20.2615C47.9528 19.9471 44.2476 19.3531 43.5125 20.3481C42.9383 21.1302 43.5125 21.8728 43.9234 22.4173C44.1709 22.7316 44.3417 22.9618 44.1709 23.1276C44.0142 23.2478 43.8487 23.3562 43.6759 23.4519C42.327 24.2761 38.2307 26.7833 38.6094 29.1569C38.9114 31.0182 40.7107 32.9636 41.9037 34.2506C42.6091 35.013 43.0745 35.5154 43.1264 35.8322C43.2081 36.3272 42.2626 36.5747 40.9558 36.9138C39.7653 37.2232 38.2852 37.6093 37.9857 38.2009C37.5946 38.983 37.1838 41.4309 38.0129 43.5372C38.315 44.3117 38.7832 45.0107 39.3844 45.585C39.9856 46.1593 40.7053 46.5949 41.4929 46.8612C45.0916 48.2052 49.3265 46.9651 52.1357 46.1459C53.2297 45.8266 54.091 45.5717 54.6108 45.5717C55.482 45.5717 56.3137 46.3365 57.1923 47.1458C58.1353 48.0146 59.1105 48.9106 60.1278 48.8091C61.3248 48.6686 62.4254 48.0839 63.2117 47.1706C63.2221 47.1546 63.2359 47.1412 63.2522 47.1313C63.2685 47.1215 63.2868 47.1154 63.3058 47.1137Z" fill="#263238"/>
<path d="M50.2448 41.7651C50.2448 41.7651 48.5592 52.2842 48.4924 52.6208C48.4256 52.9574 51.4625 55.9918 55.5712 55.4523C57.9779 55.163 60.1898 53.9855 61.7737 52.1505L60.4941 41.6982C60.4941 41.6982 56.9869 43.3838 54.8286 43.3169C52.6704 43.2501 50.2448 41.7651 50.2448 41.7651Z" fill="white"/>
<path d="M54.6009 55.6403C52.3927 55.6042 50.2835 54.7176 48.7127 53.1652C48.334 52.7618 48.3612 52.6331 48.3711 52.5836C48.4355 52.2544 50.1037 41.8393 50.121 41.7328C50.1246 41.7128 50.133 41.694 50.1454 41.6779C50.1579 41.6618 50.174 41.6489 50.1925 41.6404C50.211 41.6319 50.2312 41.628 50.2515 41.629C50.2718 41.63 50.2916 41.6359 50.3091 41.6462C50.3339 41.661 52.7347 43.1139 54.8336 43.1807C56.9325 43.2476 60.405 41.5917 60.4397 41.5744C60.4572 41.5653 60.4768 41.5605 60.4966 41.5605C60.5164 41.5605 60.5359 41.5653 60.5535 41.5744C60.5704 41.5842 60.5848 41.5978 60.5955 41.6142C60.6063 41.6305 60.6131 41.6491 60.6154 41.6685L61.8975 52.1183C61.8996 52.1344 61.8985 52.1508 61.8942 52.1665C61.89 52.1822 61.8827 52.197 61.8727 52.2099C60.2631 54.0639 58.0249 55.2574 55.5885 55.5611C55.2614 55.6092 54.9315 55.6357 54.6009 55.6403ZM50.3388 41.963C50.1087 43.3961 48.6756 52.3311 48.6063 52.6455C48.6583 52.9524 51.5343 55.8631 55.5365 55.3309C57.8896 55.0339 60.0541 53.8901 61.6252 52.1133L60.3926 41.8789C59.6798 42.208 56.7567 43.4976 54.8262 43.4382C52.9525 43.3812 50.9155 42.2947 50.3388 41.963Z" fill="#263238"/>
<path d="M49.5518 47.4081L56.6528 46.0344L50.2448 41.7649L49.5518 47.4081Z" fill="#263238"/>
<path d="M49.5517 47.5319C49.5209 47.531 49.4912 47.5196 49.4676 47.4997C49.4537 47.4859 49.4432 47.4692 49.4368 47.4507C49.4303 47.4323 49.4282 47.4126 49.4305 47.3932L50.121 41.7501C50.1236 41.7291 50.1315 41.7092 50.1441 41.6923C50.1567 41.6753 50.1735 41.662 50.1928 41.6535C50.2115 41.6438 50.2323 41.6387 50.2534 41.6387C50.2745 41.6387 50.2953 41.6438 50.3141 41.6535L56.7196 45.9255C56.7404 45.9386 56.7567 45.9576 56.7664 45.9802C56.7762 46.0027 56.7788 46.0277 56.774 46.0518C56.769 46.0759 56.7569 46.0979 56.7393 46.1151C56.7216 46.1323 56.6993 46.1439 56.675 46.1483L49.5765 47.522L49.5517 47.5319ZM50.3438 41.9802L49.6953 47.2546L56.331 45.9701L50.3438 41.9802Z" fill="#263238"/>
<path d="M46.4975 32.4908C46.4975 32.4908 45.3095 30.986 44.7649 32.8868C44.2204 34.7877 46.5866 37.0945 46.5866 37.0945L46.4975 32.4908Z" fill="white"/>
<path d="M46.5767 37.2085C46.5474 37.2071 46.5195 37.1957 46.4975 37.1763C46.3985 37.0797 44.0744 34.8051 44.6437 32.8548C44.8243 32.236 45.0966 31.887 45.453 31.8177C46.0322 31.7063 46.5792 32.387 46.6014 32.4167C46.6187 32.4376 46.6283 32.4638 46.6287 32.4909L46.7079 37.0847C46.7078 37.1091 46.7008 37.1331 46.6877 37.1537C46.6745 37.1743 46.6558 37.1907 46.6336 37.201C46.6151 37.2063 46.5959 37.2088 46.5767 37.2085ZM45.5867 32.0504C45.5587 32.0478 45.5305 32.0478 45.5025 32.0504C45.255 32.0999 45.0347 32.3994 44.8837 32.9142C44.4555 34.3844 45.8936 36.1466 46.4579 36.7629L46.3836 32.5281C46.2327 32.3697 45.8911 32.0504 45.5768 32.0504H45.5867Z" fill="#263238"/>
<path d="M63.5186 32.4908C63.5186 32.4908 64.7067 30.986 65.2512 32.8868C65.7957 34.7877 63.4296 37.0945 63.4296 37.0945L63.5186 32.4908Z" fill="white"/>
<path d="M63.4395 37.2083C63.423 37.2109 63.4063 37.2109 63.3899 37.2083C63.3672 37.1988 63.3479 37.1826 63.3347 37.1618C63.3214 37.141 63.3148 37.1167 63.3157 37.092L63.3949 32.4983C63.3955 32.4716 63.4042 32.4457 63.4196 32.424C63.4444 32.3943 63.9939 31.7112 64.5681 31.825C64.927 31.8943 65.1992 32.2433 65.3799 32.8621C65.9467 34.8125 63.6226 37.0871 63.5236 37.1836C63.4996 37.2021 63.4696 37.2109 63.4395 37.2083ZM63.6399 32.5354L63.5756 36.7703C64.1374 36.154 65.5779 34.3917 65.1497 32.9215C64.9987 32.4067 64.7834 32.1072 64.5285 32.0577C64.1869 31.9933 63.7959 32.3547 63.6399 32.5354Z" fill="#263238"/>
<path d="M50.2299 22.9816C50.2299 22.9816 46.8292 26.2858 46.3366 27.2759C45.8441 28.2659 46.0421 39.5473 46.5841 40.6413C47.1262 41.7353 52.5466 45.9652 53.4327 46.3093C54.3188 46.6533 56.3409 46.9998 57.9175 46.2103C59.4942 45.4207 63.2885 41.3814 63.6845 40.3468C64.0805 39.3122 63.5855 27.4763 63.338 26.3502C63.0905 25.224 57.1404 21.1575 54.6158 20.9619C52.0912 20.7664 50.2299 22.9816 50.2299 22.9816Z" fill="white"/>
<path d="M55.6553 46.7942C54.8805 46.7984 54.1108 46.6677 53.3807 46.4081C52.4278 46.0369 47.0148 41.7772 46.4653 40.6808C45.9158 39.5843 45.703 28.2435 46.2178 27.2139C46.7128 26.2238 49.9304 23.0829 50.1309 22.8973C50.2547 22.7513 52.111 20.64 54.6182 20.838C57.0661 21.0311 63.1746 25.0259 63.4518 26.3055C63.682 27.3698 64.1943 39.3121 63.7909 40.3739C63.3677 41.4877 59.5263 45.5245 57.9646 46.3141C57.2418 46.649 56.4517 46.8133 55.6553 46.7942ZM54.294 21.0732C52.0268 21.0732 50.3339 23.0409 50.3165 23.0532C50.2819 23.0854 46.9257 26.3525 46.448 27.3079C45.9703 28.2633 46.1807 39.5249 46.6955 40.5521C47.2103 41.5792 52.5763 45.8067 53.4797 46.1581C54.4301 46.5269 56.3805 46.8066 57.8656 46.0641C59.457 45.2696 63.2068 41.2228 63.5706 40.2674C63.9691 39.223 63.4493 27.397 63.2192 26.3426C62.989 25.2882 57.0909 21.2786 54.6059 21.088C54.5044 21.088 54.4029 21.0732 54.3014 21.0732H54.294Z" fill="#263238"/>
<path d="M52.903 20.9619C52.903 20.9619 57.9967 25.6101 61.6599 25.7883L65.3255 25.9665C65.3255 25.9665 57.2814 24.8948 54.7791 19.4447C54.7791 19.4447 52.0095 17.128 52.903 20.9619Z" fill="#263238"/>
<path d="M65.3255 26.0903L61.6623 25.9121C57.9967 25.7339 53.0367 21.2466 52.8263 21.0535C52.8084 21.0368 52.7955 21.0153 52.7892 20.9916C52.4946 19.7244 52.559 18.9819 52.9872 18.7195C53.6208 18.3309 54.742 19.2442 54.8658 19.3482C54.8807 19.3601 54.8925 19.3754 54.9004 19.3927C57.3458 24.7191 65.2685 25.8279 65.3477 25.8453C65.3797 25.849 65.409 25.8651 65.4293 25.89C65.4496 25.915 65.4594 25.9468 65.4566 25.9789C65.4529 26.0106 65.4373 26.0398 65.413 26.0604C65.3886 26.0811 65.3574 26.0918 65.3255 26.0903ZM53.0144 20.8926C53.4302 21.2639 58.2294 25.4913 61.6772 25.6596L63.7464 25.7611C61.2713 25.1374 56.5166 23.4618 54.69 19.5165C54.3683 19.2516 53.5193 18.6799 53.1184 18.9249C52.8906 19.0635 52.7001 19.514 53.0144 20.8976V20.8926Z" fill="#263238"/>
<path d="M56.1503 35.2778C56.1191 35.2779 56.0891 35.2662 56.0661 35.2451C56.0432 35.224 56.0291 35.195 56.0266 35.1639L55.633 30.1865C55.6317 30.1703 55.6336 30.1539 55.6387 30.1384C55.6437 30.1229 55.6517 30.1085 55.6623 30.0961C55.6728 30.0837 55.6858 30.0735 55.7003 30.0661C55.7148 30.0587 55.7306 30.0542 55.7469 30.0529C55.7631 30.0516 55.7795 30.0535 55.795 30.0585C55.8105 30.0635 55.8249 30.0716 55.8373 30.0821C55.8497 30.0927 55.8599 30.1056 55.8673 30.1201C55.8747 30.1347 55.8792 30.1505 55.8805 30.1667L56.2741 35.1441C56.2754 35.1604 56.2735 35.1768 56.2685 35.1923C56.2636 35.2078 56.2555 35.2222 56.2449 35.2346C56.2344 35.2471 56.2214 35.2573 56.2069 35.2647C56.1923 35.2721 56.1765 35.2765 56.1602 35.2778H56.1503Z" fill="#263238"/>
<path d="M55.0093 37.644C54.3212 37.644 53.6629 36.9015 53.6356 36.8619C53.6241 36.8498 53.6151 36.8356 53.6091 36.82C53.6032 36.8043 53.6005 36.7877 53.6012 36.771C53.6019 36.7543 53.606 36.7379 53.6132 36.7228C53.6204 36.7078 53.6306 36.6943 53.6431 36.6833C53.6557 36.6722 53.6703 36.6638 53.6862 36.6586C53.7021 36.6534 53.7188 36.6514 53.7355 36.6529C53.7521 36.6543 53.7683 36.6591 53.783 36.6669C53.7978 36.6748 53.8108 36.6855 53.8213 36.6985C53.8213 36.6985 54.4351 37.3965 55.0093 37.3965C55.4821 37.3965 56.1973 36.4758 56.435 36.1218C56.4437 36.1082 56.4551 36.0964 56.4686 36.0872C56.482 36.078 56.4971 36.0716 56.513 36.0683C56.5289 36.0651 56.5454 36.0651 56.5613 36.0684C56.5772 36.0716 56.5923 36.078 56.6057 36.0872C56.6329 36.1053 56.6517 36.1335 56.6582 36.1655C56.6647 36.1974 56.6583 36.2307 56.6404 36.258C56.5463 36.3991 55.6974 37.644 55.0093 37.644Z" fill="#263238"/>
<path d="M54.2272 39.926C54.0762 39.926 53.9228 39.926 53.7693 39.9112C52.2446 39.8097 51.1086 37.9584 51.0591 37.8792C51.0506 37.8652 51.045 37.8497 51.0426 37.8335C51.0401 37.8174 51.0408 37.8009 51.0447 37.785C51.0487 37.7692 51.0556 37.7543 51.0653 37.7411C51.075 37.7279 51.0872 37.7168 51.1012 37.7084C51.1151 37.6999 51.1306 37.6943 51.1468 37.6918C51.1629 37.6894 51.1794 37.6901 51.1953 37.694C51.2111 37.6979 51.2261 37.7049 51.2392 37.7146C51.2524 37.7243 51.2635 37.7365 51.2719 37.7504C51.2719 37.7703 52.3907 39.5696 53.7866 39.6637C54.802 39.6981 55.8169 39.583 56.7988 39.3221C56.8316 39.3129 56.8667 39.3172 56.8965 39.3339C56.9262 39.3506 56.948 39.3784 56.9572 39.4112C56.9664 39.4441 56.9622 39.4792 56.9455 39.5089C56.9288 39.5386 56.9009 39.5604 56.8681 39.5696C56.0054 39.7943 55.1186 39.914 54.2272 39.926Z" fill="#263238"/>
<path d="M56.3409 29.3896C56.3409 29.3896 58.0735 28.1075 58.7541 27.657C59.4348 27.2065 61.6623 28.0506 61.6623 28.0506C61.6623 28.0506 59.9867 27.115 59.1006 26.9665C58.2145 26.818 56.3904 28.1001 56.2419 28.699C56.0934 29.298 55.6553 29.1421 56.3409 29.3896Z" fill="#263238"/>
<path d="M56.3409 29.5033C56.327 29.5056 56.3128 29.5056 56.2988 29.5033C55.9721 29.387 55.8756 29.3523 55.8459 29.2558C55.8404 29.2173 55.8449 29.178 55.8587 29.1416C55.8726 29.1053 55.8954 29.073 55.9251 29.0479C56.022 28.9442 56.0903 28.8171 56.1231 28.6791C56.284 28.0331 58.1527 26.699 59.1204 26.8624C60.0189 27.0109 61.6549 27.9217 61.7242 27.9588C61.7512 27.9745 61.7715 27.9996 61.7811 28.0293C61.7907 28.059 61.789 28.0912 61.7762 28.1197C61.7632 28.1482 61.7398 28.1706 61.7109 28.1826C61.682 28.1945 61.6496 28.1951 61.6203 28.1841C61.0188 27.9564 59.3457 27.4415 58.8234 27.7782C58.1428 28.2138 56.4325 29.486 56.4152 29.4983C56.3913 29.5066 56.3657 29.5083 56.3409 29.5033ZM56.1305 29.1692L56.3211 29.2409C56.6156 29.0206 58.071 27.9465 58.6873 27.5504C59.0412 27.3227 59.7169 27.3896 60.3406 27.5257C59.9392 27.3305 59.5164 27.1826 59.0808 27.0851C58.2616 26.9515 56.4944 28.194 56.3582 28.7187C56.3231 28.8891 56.2446 29.0477 56.1305 29.1791V29.1692Z" fill="#263238"/>
<path d="M52.7916 29.6247C52.7011 29.41 52.5508 29.2259 52.3586 29.0943C52.1664 28.9626 51.9404 28.889 51.7076 28.8822C50.871 28.8327 47.1732 29.8202 47.8142 29.8202C48.4553 29.8202 51.116 29.7707 51.8066 29.7707C52.1415 29.7915 52.4771 29.7418 52.7916 29.6247Z" fill="#263238"/>
<path d="M47.8142 29.9465C47.7797 29.9513 47.7446 29.9465 47.7127 29.9325C47.6808 29.9185 47.6534 29.8959 47.6335 29.8673C47.6221 29.8465 47.616 29.823 47.616 29.7992C47.616 29.7754 47.6221 29.752 47.6335 29.7312C47.7845 29.4837 51.0244 28.7189 51.71 28.7609C51.967 28.7678 52.2165 28.8491 52.4283 28.995C52.64 29.1409 52.8049 29.345 52.903 29.5827C52.9131 29.6111 52.9126 29.6423 52.9017 29.6704C52.8908 29.6986 52.8702 29.7219 52.8436 29.7361C52.5111 29.861 52.1563 29.9158 51.8016 29.897C51.4501 29.897 50.5888 29.897 49.7423 29.9218C48.8958 29.9465 48.1286 29.9465 47.8142 29.9465ZM51.6358 29.0085C51.012 29.0085 49.2745 29.4267 48.3761 29.6941L49.7448 29.6743C50.5913 29.6619 51.4551 29.6495 51.8065 29.6495C52.081 29.6556 52.355 29.6239 52.6208 29.5555C52.5267 29.3923 52.392 29.2562 52.2298 29.1604C52.0677 29.0646 51.8835 29.0122 51.6952 29.0085H51.6358Z" fill="#263238"/>
<path d="M61.2688 32.4438C60.525 32.6125 59.7643 32.6956 59.0016 32.6914C58.0116 32.6419 57.128 32.3448 57.5166 32.7879C57.9052 33.2309 58.6997 33.6269 59.9298 33.3794C61.1599 33.1319 61.6128 32.8869 61.2688 32.4438Z" fill="#263238"/>
<path d="M52.3486 32.4438C51.6048 32.6125 50.8441 32.6956 50.0814 32.6914C49.0914 32.6419 48.2103 32.3448 48.5964 32.7879C48.9825 33.2309 49.7795 33.6269 51.0121 33.3794C52.2446 33.1319 52.6852 32.8869 52.3486 32.4438Z" fill="#263238"/>
<path d="M35.9487 60.8479C35.9487 60.8479 37.4337 52.6801 38.107 51.8806C38.7802 51.0812 46.1312 45.0692 46.5346 44.6658C46.9381 44.2623 49.8389 39.8765 49.975 40.416C50.1111 40.9556 49.6384 43.3168 48.7597 44.5964C47.8811 45.8761 46.6707 47.4304 46.6707 47.4304C46.6707 47.4304 51.2001 48.5764 51.4477 48.8462C51.6952 49.1159 53.2545 52.4722 53.3361 52.8905C53.4797 53.6132 53.2718 54.3879 52.6629 54.4423C52.1085 54.4894 48.4825 52.6207 48.4825 52.6207L45.5916 53.0167C45.5916 53.0167 43.5026 55.5784 42.0844 56.0511C41.4484 56.2838 40.7944 56.4642 40.1291 56.5907L40.1984 61.5805L35.9487 60.8479Z" fill="white"/>
<path d="M40.1984 61.7141H40.1762L35.9289 60.9716C35.896 60.9656 35.8667 60.9469 35.8472 60.9196C35.8294 60.8927 35.8223 60.86 35.8274 60.828C35.8893 60.4939 37.3249 52.6281 38.0129 51.8039C38.4634 51.2618 41.7454 48.5244 44.1412 46.527C45.354 45.5147 46.3144 44.7153 46.448 44.5791C46.5817 44.443 46.9604 43.9133 47.4133 43.2822C49.1756 40.8269 49.6978 40.2032 49.9577 40.2527C49.9912 40.2597 50.0219 40.2763 50.046 40.3004C50.0702 40.3246 50.0868 40.3553 50.0938 40.3888C50.2398 40.9729 49.7522 43.3713 48.8563 44.6707C48.1434 45.7078 47.2029 46.9379 46.8762 47.3586C47.9306 47.6284 51.2769 48.4997 51.5393 48.7595C51.8016 49.0194 53.3733 52.4301 53.4599 52.8707C53.518 53.1021 53.5292 53.3428 53.4931 53.5787C53.457 53.8145 53.3742 54.0408 53.2495 54.2443C53.1823 54.336 53.0963 54.4123 52.9973 54.4682C52.8983 54.5241 52.7885 54.5583 52.6753 54.5686C52.111 54.6181 48.9627 53.0142 48.4677 52.7518L45.656 53.1404C45.3813 53.4746 43.4804 55.7269 42.124 56.1774C41.5132 56.3933 40.889 56.5694 40.2554 56.7046L40.3222 61.5879C40.3219 61.6062 40.3178 61.6243 40.3101 61.6409C40.3024 61.6575 40.2914 61.6723 40.2776 61.6844C40.255 61.7025 40.2273 61.7129 40.1984 61.7141ZM36.1022 60.7464L40.0623 61.432L39.9955 56.5907C39.9958 56.5604 40.0069 56.5313 40.0269 56.5086C40.0469 56.4859 40.0744 56.4711 40.1044 56.4669C40.7621 56.3415 41.4086 56.1627 42.0374 55.9323C43.4012 55.4769 45.4654 52.9622 45.4852 52.9375C45.5053 52.9135 45.5335 52.8977 45.5644 52.8929L48.4776 52.4994C48.5022 52.4947 48.5277 52.4991 48.5494 52.5118C49.9404 53.2271 52.2917 54.3557 52.6629 54.3186C52.7419 54.3116 52.8183 54.2876 52.8871 54.2483C52.9559 54.209 53.0154 54.1553 53.0614 54.0909C53.1653 53.9155 53.2334 53.7214 53.2618 53.5196C53.2903 53.3178 53.2785 53.1124 53.2273 52.9152C53.1382 52.4697 51.5962 49.1556 51.3734 48.9328C51.163 48.7472 48.3588 47.9848 46.6435 47.5492C46.6237 47.5441 46.6055 47.5341 46.5905 47.5202C46.5754 47.5063 46.5641 47.4888 46.5575 47.4694C46.5509 47.4501 46.5492 47.4293 46.5525 47.4091C46.5559 47.3889 46.5642 47.3699 46.5767 47.3537C46.5767 47.3364 47.7969 45.7894 48.6607 44.5271C49.5245 43.2649 49.9305 41.1437 49.8711 40.5299C49.4948 40.8071 48.287 42.4926 47.6163 43.4257C47.1386 44.0915 46.7623 44.6162 46.6262 44.7524C46.4901 44.8885 45.5669 45.6583 44.3021 46.7151C42.0473 48.5937 38.6416 51.4351 38.2035 51.9598C37.6763 52.591 36.5229 58.4 36.1022 60.7464Z" fill="#263238"/>
<path d="M53.346 53.0167C53.3259 53.0172 53.3059 53.0125 53.2881 53.0029C53.2703 52.9934 53.2553 52.9793 53.2446 52.9622C52.46 51.8064 51.1531 49.9204 50.9873 49.7892C50.8215 49.658 48.73 49.3437 46.8712 49.0937C46.8384 49.0891 46.8088 49.0716 46.7888 49.0452C46.7688 49.0187 46.7602 48.9854 46.7648 48.9526C46.7694 48.9198 46.7868 48.8901 46.8133 48.8702C46.8398 48.8502 46.8731 48.8416 46.9059 48.8462C47.8365 48.9724 50.8957 49.3956 51.1432 49.5887C51.3907 49.7818 53.2396 52.5068 53.4475 52.8063C53.4569 52.8198 53.4635 52.8349 53.467 52.851C53.4704 52.867 53.4707 52.8836 53.4677 52.8997C53.4647 52.9158 53.4585 52.9312 53.4495 52.9449C53.4405 52.9586 53.4289 52.9704 53.4154 52.9796C53.3962 52.9983 53.3722 53.0111 53.346 53.0167Z" fill="#263238"/>
<path d="M53.1802 54.039C53.1622 54.039 53.1444 54.035 53.1282 54.0273C53.1119 54.0196 53.0976 54.0084 53.0862 53.9944C52.5565 53.3831 51.4972 52.1777 51.2769 51.9921C51.0987 51.8485 49.0097 51.3139 47.1311 50.8833C47.0993 50.8756 47.0719 50.8557 47.0547 50.8279C47.0375 50.8001 47.0321 50.7666 47.0395 50.7348C47.043 50.7189 47.0497 50.7038 47.0591 50.6905C47.0685 50.6772 47.0805 50.666 47.0944 50.6575C47.1082 50.6489 47.1237 50.6432 47.1397 50.6408C47.1558 50.6383 47.1723 50.6392 47.188 50.6432C47.8439 50.7917 51.1482 51.5565 51.4353 51.804C51.7224 52.0515 53.2099 53.7593 53.2743 53.8336C53.285 53.8457 53.2933 53.8598 53.2985 53.8751C53.3037 53.8904 53.3058 53.9067 53.3046 53.9228C53.3035 53.9389 53.2991 53.9547 53.2918 53.9691C53.2844 53.9836 53.2743 53.9964 53.2619 54.0068C53.2398 54.0276 53.2106 54.0391 53.1802 54.039Z" fill="#263238"/>
<path d="M53.2594 85.1533C53.2594 85.1533 47.9627 84.1632 47.7524 84.0939C47.542 84.0246 43.7922 82.8935 43.2972 82.6806C42.8022 82.4678 36.8001 81.4109 36.518 81.8342C36.2358 82.2574 35.9536 84.73 35.8819 84.9404C35.8101 85.1508 35.2458 86.1408 35.3868 86.7076C35.463 87.2221 35.463 87.745 35.3868 88.2595C35.3868 88.2595 35.3151 91.5786 36.1616 91.6503C37.008 91.7221 37.7877 88.5416 37.7877 88.5416C37.7877 88.5416 38.9881 89.2495 41.4582 89.3906C43.9284 89.5317 46.3317 88.3313 46.3317 88.3313L52.9055 89.8955L53.2594 85.1533Z" fill="white"/>
<path d="M36.1962 91.7741H36.1591C35.2433 91.6974 35.2581 88.8312 35.268 88.257C35.3429 87.7532 35.3429 87.2411 35.268 86.7373C35.1443 86.2423 35.4883 85.4998 35.674 85.1112C35.716 85.0171 35.7507 84.9429 35.7655 84.9033C35.7804 84.8637 35.8274 84.5593 35.872 84.2523C36.0452 83.1113 36.216 82.0619 36.414 81.7649C36.7853 81.2105 42.9829 82.4109 43.3442 82.5668C43.7056 82.7227 46.0297 83.438 47.141 83.7796L47.7821 83.9751C47.9429 84.0271 51.1556 84.636 53.2743 85.032C53.3044 85.0374 53.3315 85.0538 53.3502 85.0781C53.369 85.1023 53.3781 85.1326 53.3758 85.1632L53.0292 89.8955C53.0283 89.9135 53.0234 89.9311 53.0148 89.9469C53.0063 89.9627 52.9943 89.9765 52.9797 89.9871C52.9655 89.998 52.9489 90.0055 52.9313 90.0089C52.9137 90.0123 52.8956 90.0117 52.8783 90.0069L46.3539 88.4649C46.0223 88.6209 43.7601 89.648 41.4582 89.5168C39.4386 89.4005 38.2654 88.9179 37.8768 88.7273C37.6788 89.4921 37.0204 91.7741 36.1962 91.7741ZM37.0278 81.854C36.8891 81.8394 36.7489 81.859 36.6194 81.9109C36.4412 82.1782 36.2333 83.5519 36.1244 84.2895C36.0625 84.7078 36.0304 84.9107 36.0081 84.98C35.9858 85.0493 35.9536 85.1087 35.9041 85.2151C35.7457 85.5567 35.4091 86.272 35.5156 86.6779C35.5957 87.2079 35.5957 87.7469 35.5156 88.2768C35.4883 89.5936 35.6764 91.4944 36.1814 91.5266C36.7259 91.5613 37.3842 89.7025 37.6664 88.5144C37.6714 88.4956 37.6803 88.4782 37.6927 88.4632C37.7051 88.4482 37.7206 88.4362 37.7382 88.4278C37.7555 88.4193 37.7746 88.4149 37.7939 88.4149C37.8132 88.4149 37.8322 88.4193 37.8496 88.4278C37.8496 88.4278 39.0599 89.1208 41.4657 89.2594C43.8714 89.398 46.2525 88.2249 46.2772 88.2125C46.3037 88.2038 46.3324 88.2038 46.3589 88.2125L52.7941 89.7322L53.1282 85.2572C52.2372 85.0914 47.9157 84.282 47.7128 84.2127L47.0767 84.0172C45.8738 83.6484 43.6388 82.9628 43.2527 82.797C42.77 82.5866 38.4238 81.854 37.0278 81.854Z" fill="#263238"/>
<path d="M34.9413 59.4075L42.0423 60.7069L41.7775 65.1447C41.7775 65.1447 43.3492 65.8872 43.8269 70.2706C44.3046 74.654 45.6733 84.8068 45.3317 85.5592C44.9902 86.3116 42.8715 89.5936 37.9486 89.799C33.0256 90.0044 30.3599 85.4924 29.8823 84.0543C29.4046 82.6163 31.9341 73.211 32.0702 72.3918C32.2064 71.5725 32.8895 65.9565 33.5058 65.0086C33.8856 64.4228 34.3455 63.8929 34.872 63.4344L34.9413 59.4075Z" fill="white"/>
<path d="M37.6219 89.9328C32.7237 89.9328 30.1966 85.3564 29.766 84.099C29.3798 82.9432 30.8104 77.0896 31.5777 73.9512C31.7757 73.1394 31.9193 72.5528 31.949 72.3795C31.9787 72.2063 32.0133 71.9464 32.0678 71.5603C32.3301 69.6792 32.8796 65.7636 33.4019 64.9518C33.7775 64.3709 34.2314 63.8445 34.7508 63.3875L34.8176 59.4101C34.8176 59.3921 34.8216 59.3743 34.8293 59.358C34.837 59.3418 34.8482 59.3274 34.8622 59.316C34.8763 59.3049 34.8927 59.2969 34.9102 59.2927C34.9277 59.2884 34.9459 59.2879 34.9636 59.2913L42.0721 60.5882C42.1022 60.5936 42.1293 60.6101 42.148 60.6343C42.1668 60.6585 42.1759 60.6888 42.1735 60.7194L41.9062 65.0854C42.2354 65.2983 43.5249 66.3651 43.9507 70.2683C44.0695 71.3623 44.2477 72.8374 44.4457 74.3992C45.1709 80.4186 45.7055 85.0693 45.4555 85.6212C45.4357 85.6608 43.5373 89.7001 37.9634 89.9303L37.6219 89.9328ZM35.0626 59.5561L34.9958 63.442C34.9958 63.46 34.9918 63.4778 34.9841 63.494C34.9764 63.5103 34.9652 63.5247 34.9513 63.536C34.435 63.9865 33.9835 64.5062 33.6098 65.0805C33.1147 65.8453 32.5529 69.8723 32.3128 71.59C32.2584 71.9786 32.2163 72.2706 32.1915 72.4166C32.1618 72.5998 32.0183 73.1889 31.8178 74.0032C31.1099 76.9015 29.6373 82.9308 30.0011 84.0223C30.4169 85.2598 32.9836 89.8883 37.9436 89.6779C42.4433 89.4922 44.7204 86.6088 45.2204 85.5123C45.4679 84.9802 44.7254 78.8791 44.1907 74.4239C44.0026 72.8597 43.8244 71.3845 43.6957 70.2905C43.2304 66.0334 41.728 65.2686 41.7157 65.2612C41.6939 65.2502 41.6757 65.2331 41.6634 65.212C41.6511 65.191 41.6452 65.1667 41.6464 65.1424L41.9137 60.8085L35.0626 59.5561Z" fill="#263238"/>
<path d="M40.5573 64.7263C40.1552 64.7246 39.7535 64.6989 39.3544 64.6496C39.322 64.6458 39.2923 64.6294 39.2719 64.6039C39.2515 64.5784 39.242 64.5459 39.2455 64.5134C39.2498 64.4808 39.2668 64.4511 39.2926 64.4308C39.3185 64.4104 39.3514 64.401 39.3841 64.4045C39.7734 64.4519 40.1651 64.4767 40.5573 64.4788C40.5901 64.4788 40.6216 64.4918 40.6448 64.515C40.668 64.5382 40.6811 64.5697 40.6811 64.6025C40.6811 64.6354 40.668 64.6668 40.6448 64.69C40.6216 64.7132 40.5901 64.7263 40.5573 64.7263Z" fill="#263238"/>
<path d="M37.6986 64.3651H37.6713C36.7093 64.1518 35.7605 63.8824 34.8299 63.5582C34.8 63.5464 34.7758 63.5234 34.7625 63.494C34.7493 63.4647 34.748 63.4313 34.7589 63.401C34.7699 63.3707 34.7922 63.3459 34.8212 63.3318C34.8502 63.3177 34.8835 63.3155 34.9141 63.3256C35.834 63.6462 36.7721 63.9124 37.7233 64.1225C37.7393 64.1261 37.7544 64.1327 37.7678 64.1421C37.7812 64.1515 37.7925 64.1634 37.8013 64.1772C37.81 64.191 37.816 64.2064 37.8187 64.2225C37.8215 64.2386 37.821 64.2551 37.8174 64.2711C37.8112 64.2979 37.7961 64.3218 37.7745 64.3389C37.7529 64.356 37.7261 64.3652 37.6986 64.3651Z" fill="#263238"/>
<path d="M74.0204 61.6375L73.315 79.8566C73.315 79.8566 72.5378 79.9284 72.2557 80.2799C72.0677 80.5236 71.902 80.7837 71.7607 81.0571C71.7607 81.0571 64.63 81.3392 61.2391 82.3292C59.2929 82.8827 57.4021 83.6152 55.5909 84.5172L52.4822 84.4504L51.8461 92.6404L56.0142 92.7815C56.0142 92.7815 58.0611 93.9819 67.3822 94.8309C76.7034 95.6799 81.0125 95.8902 82.0001 94.7591C82.9876 93.628 83.4134 91.8633 83.5544 90.9475C83.6955 90.0317 85.391 84.3786 85.391 76.1861C85.391 67.9936 77.6934 56.1379 75.998 53.4475C74.3026 50.7571 72.5329 50.9724 71.3374 51.2595" fill="white"/>
<path d="M78.0474 95.6549C75.6837 95.6549 72.2235 95.3926 67.3724 94.952C58.5957 94.1526 56.2642 93.0536 55.987 92.9026L51.8511 92.7616C51.8342 92.7617 51.8174 92.7582 51.8019 92.7513C51.7865 92.7445 51.7726 92.7344 51.7614 92.7217C51.7501 92.709 51.7417 92.6941 51.7367 92.6779C51.7317 92.6618 51.7302 92.6447 51.7323 92.6279L52.3585 84.4502C52.3604 84.4185 52.3747 84.3888 52.3983 84.3675C52.4219 84.3462 52.453 84.335 52.4847 84.3364L55.5613 84.4057C57.3727 83.5094 59.2614 82.7787 61.2044 82.2227C64.3874 81.2945 70.9266 80.9851 71.6839 80.948C71.8202 80.687 71.9792 80.4385 72.1592 80.2055C72.4067 79.8961 72.9611 79.7847 73.1962 79.75L73.8967 61.6349C73.8966 61.6184 73.9 61.6021 73.9066 61.587C73.9131 61.5719 73.9228 61.5584 73.9349 61.5472C73.947 61.536 73.9613 61.5275 73.9769 61.5221C73.9924 61.5168 74.009 61.5147 74.0254 61.5161C74.0416 61.5167 74.0576 61.5206 74.0724 61.5274C74.0871 61.5342 74.1004 61.5439 74.1115 61.5558C74.1225 61.5678 74.1311 61.5818 74.1367 61.5971C74.1423 61.6123 74.1448 61.6286 74.1442 61.6448L73.4388 79.8639C73.4377 79.8938 73.4259 79.9224 73.4054 79.9442C73.3849 79.966 73.3572 79.9797 73.3274 79.9827C73.1244 80 72.5576 80.104 72.3522 80.3589C72.1708 80.5963 72.0101 80.8489 71.8721 81.1138C71.8624 81.1341 71.8474 81.1513 71.8286 81.1635C71.8098 81.1758 71.788 81.1825 71.7656 81.1831C71.6963 81.1831 64.6102 81.4752 61.2738 82.4504C59.3364 83.0046 57.4534 83.7336 55.6479 84.6284C55.6287 84.638 55.6075 84.6431 55.586 84.6433L52.5961 84.5765L51.9798 92.5215L56.0167 92.6576C56.0375 92.6592 56.0577 92.6651 56.0761 92.6749C56.0959 92.6749 58.2393 93.8754 67.3946 94.707C76.6762 95.551 80.9729 95.7465 81.9085 94.6773C82.9753 93.4595 83.3441 91.4993 83.4332 90.9275C83.4554 90.7716 83.5198 90.5043 83.6138 90.0959C84.7099 85.5404 85.2649 80.8715 85.2672 76.1859C85.2672 70.9536 82.1758 63.4244 76.0822 53.8087L75.8941 53.5142C74.1343 50.7272 72.2631 51.1678 71.3671 51.3782C71.335 51.3857 71.3012 51.3803 71.273 51.3632C71.2447 51.3461 71.2244 51.3186 71.2162 51.2866C71.2125 51.2707 71.2121 51.2542 71.2148 51.2381C71.2176 51.2219 71.2235 51.2065 71.2322 51.1927C71.241 51.1789 71.2524 51.167 71.2658 51.1576C71.2791 51.1482 71.2942 51.1416 71.3102 51.1381C72.7631 50.7965 74.4709 50.7965 76.1044 53.3805L76.2901 53.6775C82.411 63.3303 85.5147 70.9066 85.5147 76.1859C85.5117 80.8905 84.9551 85.5784 83.8564 90.1528C83.7648 90.5389 83.7005 90.8186 83.6782 90.9647C83.5866 91.5537 83.2055 93.5709 82.0941 94.8406C81.5967 95.4074 80.3368 95.6549 78.0474 95.6549Z" fill="#263238"/>
<path d="M73.315 79.9804C73.2933 79.9807 73.2719 79.9752 73.2532 79.9643C73.2344 79.9534 73.219 79.9375 73.2086 79.9185C73.1943 79.8942 73.1887 79.8657 73.1927 79.8378C73.1968 79.8099 73.2102 79.7842 73.2309 79.765L77.3271 75.9534C77.3384 75.9419 77.3519 75.9327 77.3668 75.9265C77.3817 75.9202 77.3976 75.917 77.4138 75.917C77.4299 75.917 77.4459 75.9202 77.4607 75.9265C77.4756 75.9327 77.4891 75.9419 77.5004 75.9534C77.512 75.9649 77.5212 75.9786 77.5275 75.9937C77.5338 76.0087 77.537 76.0249 77.537 76.0413C77.537 76.0576 77.5338 76.0738 77.5275 76.0889C77.5212 76.1039 77.512 76.1176 77.5004 76.1291L73.7878 79.5942L77.6217 78.4805C77.6545 78.4713 77.6896 78.4755 77.7193 78.4922C77.749 78.5089 77.7709 78.5367 77.7801 78.5696C77.7893 78.6024 77.785 78.6375 77.7683 78.6672C77.7516 78.6969 77.7238 78.7188 77.691 78.728L73.3571 79.9853L73.315 79.9804Z" fill="#263238"/>
<path d="M79.0052 78.3293C78.9724 78.3335 78.9392 78.3246 78.913 78.3044C78.8868 78.2842 78.8697 78.2544 78.8654 78.2216C78.8611 78.1888 78.8701 78.1556 78.8903 78.1294C78.9105 78.1032 78.9402 78.086 78.9731 78.0818L80.3418 77.6858C80.3574 77.6809 80.3738 77.6792 80.3901 77.6808C80.4063 77.6824 80.4221 77.6873 80.4364 77.6951C80.4508 77.703 80.4634 77.7137 80.4735 77.7265C80.4836 77.7394 80.491 77.7541 80.4952 77.7699C80.5044 77.8014 80.5007 77.8353 80.4849 77.8641C80.4692 77.8928 80.4426 77.9142 80.4111 77.9234L79.0399 78.3194C79.0293 78.3253 79.0174 78.3287 79.0052 78.3293Z" fill="#263238"/>
<path d="M78.1167 82.24H78.0721C76.2752 81.547 71.7978 81.1906 71.7508 81.1881C71.7345 81.1868 71.7187 81.1823 71.7042 81.1749C71.6897 81.1675 71.6768 81.1573 71.6662 81.1448C71.6556 81.1324 71.6476 81.1181 71.6426 81.1025C71.6375 81.087 71.6356 81.0707 71.6369 81.0544C71.6382 81.0382 71.6427 81.0223 71.6501 81.0078C71.6576 80.9933 71.6678 80.9804 71.6802 80.9698C71.6926 80.9593 71.707 80.9512 71.7225 80.9462C71.738 80.9412 71.7543 80.9393 71.7706 80.9406C71.9562 80.9554 76.3297 81.3044 78.1612 82.0073C78.1775 82.0103 78.193 82.0164 78.2069 82.0253C78.2208 82.0342 78.2328 82.0458 78.2422 82.0593C78.2517 82.0729 78.2583 82.0882 78.2618 82.1043C78.2654 82.1205 78.2657 82.1371 78.2627 82.1534C78.2598 82.1696 78.2537 82.1851 78.2448 82.199C78.2359 82.2129 78.2243 82.2249 78.2107 82.2344C78.1972 82.2438 78.1819 82.2504 78.1658 82.254C78.1496 82.2575 78.1329 82.2578 78.1167 82.2549V82.24Z" fill="#263238"/>
<path d="M79.3889 85.9131C79.3697 85.9129 79.3508 85.9084 79.3337 85.8998C79.3165 85.8912 79.3015 85.8789 79.2899 85.8636C79.1042 85.6161 78.9013 85.3909 78.6859 85.1657C78.6661 85.1416 78.656 85.1108 78.6579 85.0797C78.6597 85.0485 78.6732 85.0192 78.6958 84.9975C78.7183 84.9759 78.7482 84.9636 78.7794 84.9632C78.8107 84.9627 78.8409 84.974 78.8642 84.9949C79.0833 85.2234 79.2906 85.463 79.4854 85.7126C79.5056 85.7383 79.5149 85.7709 79.5112 85.8034C79.5075 85.8358 79.4911 85.8655 79.4656 85.8859C79.4436 85.9029 79.4167 85.9124 79.3889 85.9131Z" fill="#263238"/>
<path d="M77.9113 84.4057C77.8827 84.405 77.855 84.3955 77.8321 84.3785C76.5753 83.3608 75.1255 82.608 73.57 82.1658C73.5537 82.162 73.5384 82.1551 73.5248 82.1455C73.5112 82.1358 73.4996 82.1235 73.4908 82.1094C73.4819 82.0953 73.476 82.0795 73.4732 82.0631C73.4704 82.0466 73.4709 82.0298 73.4747 82.0136C73.4784 81.9973 73.4853 81.982 73.495 81.9684C73.5047 81.9548 73.5169 81.9432 73.531 81.9344C73.5452 81.9255 73.5609 81.9196 73.5774 81.9168C73.5938 81.914 73.6106 81.9145 73.6269 81.9183C75.2195 82.3681 76.7041 83.1369 77.9905 84.178C78.0106 84.1942 78.0251 84.2162 78.0321 84.241C78.0391 84.2658 78.0382 84.2922 78.0295 84.3164C78.0208 84.3407 78.0047 84.3616 77.9835 84.3763C77.9623 84.391 77.937 84.3987 77.9113 84.3983V84.4057Z" fill="#263238"/>
<path d="M55.5909 92.2692C55.5581 92.2692 55.5266 92.2562 55.5034 92.2329C55.4802 92.2097 55.4672 92.1783 55.4672 92.1454L55.4078 85.2969C55.4075 85.2806 55.4103 85.2645 55.4163 85.2493C55.4222 85.2342 55.431 85.2204 55.4423 85.2086C55.4535 85.1969 55.467 85.1875 55.4819 85.181C55.4968 85.1745 55.5128 85.171 55.5291 85.1707C55.5619 85.1707 55.5934 85.1837 55.6166 85.2069C55.6398 85.2301 55.6528 85.2616 55.6528 85.2944L55.7246 92.143C55.7246 92.176 55.7116 92.2078 55.6885 92.2314C55.6654 92.255 55.6339 92.2685 55.6008 92.2692H55.5909Z" fill="#263238"/>
<path d="M55.0959 90.5737H52.1258C52.093 90.5737 52.0615 90.5606 52.0383 90.5374C52.0151 90.5142 52.0021 90.4827 52.0021 90.4499C52.0021 90.4171 52.0151 90.3856 52.0383 90.3624C52.0615 90.3392 52.093 90.3262 52.1258 90.3262H55.0959C55.1288 90.3262 55.1602 90.3392 55.1834 90.3624C55.2066 90.3856 55.2197 90.4171 55.2197 90.4499C55.2191 90.4825 55.2058 90.5137 55.1827 90.5367C55.1597 90.5598 55.1286 90.573 55.0959 90.5737Z" fill="#263238"/>
<path d="M52.8362 86.5468C52.8046 86.5468 52.7742 86.5348 52.7512 86.5132C52.7282 86.4916 52.7143 86.462 52.7124 86.4305C52.7114 86.4143 52.7137 86.3982 52.719 86.3829C52.7243 86.3676 52.7327 86.3536 52.7435 86.3416C52.7543 86.3296 52.7675 86.3199 52.7821 86.3131C52.7967 86.3062 52.8126 86.3024 52.8288 86.3018L54.0292 86.23C54.0454 86.229 54.0617 86.2312 54.0771 86.2365C54.0925 86.2418 54.1067 86.2501 54.1189 86.2609C54.1311 86.2717 54.141 86.2848 54.1481 86.2995C54.1553 86.3141 54.1594 86.33 54.1603 86.3463C54.1617 86.379 54.1504 86.4109 54.1287 86.4354C54.107 86.4599 54.0766 86.4749 54.044 86.4775L52.8436 86.5468H52.8362Z" fill="#263238"/>
<g style="mix-blend-mode:multiply">
<path fill-rule="evenodd" clip-rule="evenodd" d="M78.1786 82.2233C77.4497 87.5103 81.1971 92.6594 85.5512 95.7458C89.3752 98.4563 94.3606 97.5086 99.0197 96.9961C102.941 96.5647 106.907 95.8618 109.712 93.088C112.515 90.316 114.072 86.3734 113.733 82.4457C113.418 78.797 110.226 76.4782 108.026 73.5504C105.19 69.7766 103.936 63.5404 99.2315 63.1472C94.5276 62.754 92.3305 68.7765 88.8325 71.946C85.0313 75.3903 78.8792 77.1418 78.1786 82.2233Z" fill="url(#paint1_linear_211_40)"/>
</g>
<g style="mix-blend-mode:multiply">
<path fill-rule="evenodd" clip-rule="evenodd" d="M16.5645 4.0169C20.3816 4.21923 23.6114 6.5975 26.1736 9.43408C28.588 12.107 30.0336 15.4427 30.1373 19.0432C30.2445 22.7598 29.1532 26.3905 26.744 29.2226C24.1161 32.3118 20.6197 34.9302 16.5645 34.9986C12.4605 35.0679 8.91713 32.4952 6.03544 29.5723C3.17844 26.6743 0.864157 23.1125 0.8343 19.0432C0.80426 14.9487 2.91902 11.1867 5.8798 8.35841C8.76966 5.59788 12.5737 3.80537 16.5645 4.0169Z" fill="#E2E3FB" fill-opacity="0.7"/>
</g>
<defs>
<linearGradient id="paint0_linear_211_40" x1="52.9724" y1="7.61381" x2="103.804" y2="86.3675" gradientUnits="userSpaceOnUse">
<stop stop-color="#92E3A9"/>
<stop offset="1" stop-color="#F9F3DF"/>
</linearGradient>
<linearGradient id="paint1_linear_211_40" x1="78.1079" y1="80.2466" x2="113.798" y2="80.4699" gradientUnits="userSpaceOnUse">
<stop stop-color="#F1F4FC"/>
<stop offset="1" stop-color="#EDEDFD"/>
</linearGradient>
</defs>
</svg>
