<svg width="163" height="104" viewBox="0 0 163 104" fill="none" xmlns="http://www.w3.org/2000/svg">
<path d="M158.711 76.2988C162.853 68.6242 163.464 59.8777 162.493 51.4237C161.632 43.9266 160.334 35.3288 156.696 28.5608C147.496 11.4178 124.206 3.3739 105.303 8.52783C97.4175 10.6863 91.887 15.6628 85.558 20.4042C80.8765 23.9105 75.7417 27.3352 69.6933 28.0355C55.21 29.7143 38.7265 16.0441 24.9915 17.2432C11.2565 18.4424 0.528903 30.6737 0.0180667 41.2262C-0.49277 51.7786 10.007 62.571 9.00926 69.7658C8.01157 76.9607 1.517 96.147 27.2363 96.8665C52.9556 97.586 66.4436 83.1963 76.4349 86.314C86.4261 89.4318 108.404 98.5453 126.871 96.147C138.927 94.5834 150.715 88.662 157.329 78.6059C157.83 77.8481 158.29 77.079 158.711 76.2988Z" fill="url(#paint0_linear_87_816)" fill-opacity="0.38"/>
<path d="M137.989 18.3319C137.979 18.2443 137.973 18.1562 137.973 18.068C137.949 16.0631 137.205 14.6769 135.39 13.624C131.989 11.6478 130.013 13.624 129.025 15.3796C128.037 17.1351 126.502 14.2811 124.089 14.6049C121.676 14.9287 121.784 17.5692 121.127 18.9938C120.47 20.4184 119.041 18.5549 117.177 18.8859C115.314 19.2168 115.201 20.3105 114.872 20.7493C114.544 21.1882 111.579 20.0922 109.934 20.97C108.885 21.5735 108.015 22.444 107.411 23.493H143.386C143.386 23.493 143.824 20.8549 142.4 19.8716C141.134 18.9914 138.234 20.4088 137.989 18.3319Z" stroke="#263238" stroke-width="0.239829" stroke-linecap="round" stroke-linejoin="round"/>
<path d="M121.286 21.6155C121.163 21.6448 121.049 21.7023 120.952 21.7835C120.487 22.189 120.487 22.4794 120.487 22.4794" stroke="#263238" stroke-width="0.239829" stroke-linecap="round" stroke-linejoin="round"/>
<path d="M129.233 18.2026C128.914 18.9029 128.631 19.6704 127.969 19.9798C127.027 20.4211 126.144 19.4258 125.276 19.2003C125.03 19.1204 124.766 19.1181 124.519 19.1936C124.272 19.2691 124.054 19.4188 123.895 19.6224C123.504 20.0709 123.497 21.0854 122.981 21.3732C122.666 21.4962 122.328 21.5493 121.99 21.5291" stroke="#263238" stroke-width="0.239829" stroke-linecap="round" stroke-linejoin="round"/>
<path d="M139.944 21.4473C139.92 21.3826 139.891 21.3202 139.862 21.2603C139.169 19.8789 137.534 20.9893 136.529 20.6031C135.634 20.2578 135.927 18.8452 135.809 18.1065C135.57 16.6795 133.783 15.5883 132.38 15.809C131.339 15.9848 130.398 16.5318 129.73 17.3487" stroke="#263238" stroke-width="0.239829" stroke-linecap="round" stroke-linejoin="round"/>
<path d="M140.23 22.7165C140.203 22.4745 140.163 22.2342 140.11 21.9966" stroke="#263238" stroke-width="0.239829" stroke-linecap="round" stroke-linejoin="round"/>
<path d="M58.239 4.86079C58.239 4.80323 58.239 4.74328 58.227 4.67613C58.2102 3.27792 57.6922 2.31141 56.4259 1.57513C54.0516 0.196115 52.6726 1.57513 51.9843 2.80066C51.296 4.02619 50.2239 2.03561 48.5379 2.26344C46.8519 2.49128 46.9311 4.33077 46.4706 5.32606C46.0101 6.32135 45.0172 5.01189 43.715 5.25172C42.4127 5.49155 42.3359 6.24941 42.1057 6.55399C41.8755 6.85857 39.8105 6.09591 38.6618 6.70748C37.9294 7.12877 37.3213 7.73604 36.899 8.46783H62.0139C62.0139 8.46783 62.3209 6.63073 61.3256 5.94242C60.4383 5.32127 58.4117 6.30936 58.239 4.86079Z" stroke="#263238" stroke-width="0.239829" stroke-linecap="round" stroke-linejoin="round"/>
<path d="M46.5837 7.15137C46.4958 7.17179 46.4137 7.21201 46.3437 7.26896C46.0173 7.55454 46.0173 7.74893 46.0173 7.74893" stroke="#263238" stroke-width="0.239829" stroke-linecap="round" stroke-linejoin="round"/>
<path d="M52.1282 4.77197C51.9051 5.25163 51.7085 5.79604 51.248 6.01189C50.5885 6.31887 49.9745 5.62577 49.3677 5.46748C49.1969 5.41234 49.0132 5.41107 48.8416 5.46384C48.67 5.5166 48.5188 5.62086 48.4084 5.76247C48.135 6.07425 48.1302 6.78414 47.7705 6.9832C47.5509 7.06942 47.3153 7.10706 47.0798 7.09352" stroke="#263238" stroke-width="0.239829" stroke-linecap="round" stroke-linejoin="round"/>
<path d="M59.6036 7.03592C59.5874 6.99151 59.5681 6.94825 59.5461 6.90642C59.0664 5.9471 57.9224 6.71455 57.2197 6.44594C56.5962 6.20611 56.8 5.22042 56.7161 4.70478C56.5554 3.70709 55.3035 2.94683 54.3178 3.10032C53.5911 3.22307 52.9334 3.60473 52.4663 4.17476" stroke="#263238" stroke-width="0.239829" stroke-linecap="round" stroke-linejoin="round"/>
<path d="M59.8027 7.92132C59.7846 7.74947 59.7565 7.5788 59.7188 7.41016" stroke="#263238" stroke-width="0.239829" stroke-linecap="round" stroke-linejoin="round"/>
<path d="M47.3604 24.4549C47.3604 24.3637 47.3436 24.2654 47.3412 24.1623C47.3148 21.9199 46.4826 20.3682 44.4632 19.1906C40.6571 16.9794 38.4483 19.1906 37.3451 21.1524C36.2419 23.1142 34.5223 19.9269 31.829 20.2938C29.1357 20.6608 29.2509 23.6083 28.5146 25.2031C27.7783 26.798 26.1834 24.7115 24.0969 25.0808C22.0104 25.4502 21.8881 26.6757 21.5188 27.1673C21.1494 27.659 17.8374 26.4311 16.0027 27.4072C14.168 28.3833 13.1799 30.2299 13.1799 30.2299H53.4113C53.4113 30.2299 53.9029 27.2848 52.308 26.1816C50.8787 25.1935 47.6362 26.7788 47.3604 24.4549Z" stroke="#263238" stroke-width="0.239829" stroke-linecap="round" stroke-linejoin="round"/>
<path d="M28.6758 28.1292C28.5392 28.1624 28.412 28.2264 28.3039 28.3163C27.7831 28.7723 27.7831 29.0963 27.7831 29.0963" stroke="#263238" stroke-width="0.239829" stroke-linecap="round" stroke-linejoin="round"/>
<path d="M37.5657 24.3159C37.2084 25.1002 36.8942 25.9611 36.1531 26.3065C35.1003 26.7981 34.1122 25.6853 33.1409 25.4335C32.8654 25.3447 32.5692 25.3431 32.2927 25.4289C32.0163 25.5148 31.7731 25.6839 31.5964 25.9132C31.1575 26.4144 31.1503 27.5488 30.5747 27.8702C30.2941 28.0261 29.8792 28.0309 29.4667 28.0453" stroke="#263238" stroke-width="0.239829" stroke-linecap="round" stroke-linejoin="round"/>
<path d="M49.5476 27.9422C49.5188 27.8702 49.4876 27.8007 49.4541 27.7335C48.6818 26.1866 46.8519 27.4289 45.7271 26.9948C44.727 26.6111 45.0556 25.0306 44.9213 24.2056C44.6599 22.6084 42.6549 21.3876 41.084 21.6346C39.9199 21.8321 38.8669 22.4447 38.1197 23.359" stroke="#263238" stroke-width="0.239829" stroke-linecap="round" stroke-linejoin="round"/>
<path d="M49.8667 29.3598C49.8383 29.0846 49.7935 28.8113 49.7323 28.5415" stroke="#263238" stroke-width="0.239829" stroke-linecap="round" stroke-linejoin="round"/>
<path d="M107.445 74.9798L109.603 77.0568C108.696 78.0379 107.892 79.11 107.205 80.2561C106.246 81.9349 102.008 88.6501 101.689 89.5279C101.37 90.4057 102.169 90.5687 102.809 90.8086C103.449 91.0484 106.406 92.4058 107.524 92.4058C108.642 92.4058 109.044 92.5665 109.044 91.9262C109.044 91.2858 106.804 90.0891 106.565 89.6886C106.325 89.2881 105.365 87.451 105.365 87.451C105.365 87.451 113.122 79.5366 113.68 78.6564C114.239 77.7763 115.119 75.378 114.879 74.8192C114.64 74.2604 110.323 71.8621 110.323 71.8621L107.445 74.9798Z" fill="#D4D4D4" stroke="#263238" stroke-width="0.239829" stroke-linecap="round" stroke-linejoin="round"/>
<path d="M104.728 88.6501L102.619 87.8275C102.278 88.3765 101.967 88.9442 101.689 89.5278C101.37 90.408 102.169 90.5687 102.809 90.8085C103.449 91.0484 106.406 92.4058 107.524 92.4058C108.642 92.4058 109.044 92.5665 109.044 91.9261C109.044 91.2858 106.804 90.0891 106.565 89.6885C106.325 89.288 105.365 87.4509 105.365 87.4509L104.886 88.0889L104.728 88.6501Z" fill="#92E3A9" stroke="#263238" stroke-width="0.239829" stroke-linecap="round" stroke-linejoin="round"/>
<path d="M108.953 92.2836C107.896 92.1061 106.315 91.4705 104.967 90.8878C103.902 90.4321 102.583 89.7845 101.758 89.3696C101.73 89.432 101.703 89.4895 101.689 89.5279C101.37 90.4081 102.169 90.5688 102.809 90.8086C103.449 91.0484 106.406 92.4059 107.524 92.4059C108.349 92.4059 108.781 92.4922 108.953 92.2836Z" fill="white" stroke="#263238" stroke-width="0.239829" stroke-linecap="round" stroke-linejoin="round"/>
<path d="M97.1321 68.6627C97.1321 68.6627 100.569 71.3008 102.967 73.2194C105.365 75.1381 107.284 76.6586 107.284 76.6586C107.284 76.6586 110.162 74.5001 110.642 73.7806C111.121 73.0612 112.481 72.181 112.481 72.181L100.25 66.8256C100.25 66.8256 97.5326 66.2644 97.1321 68.6627Z" fill="#D4D4D4" stroke="#263238" stroke-width="0.239829" stroke-linecap="round" stroke-linejoin="round"/>
<path d="M90.1771 103.503C96.6236 103.503 101.85 98.2767 101.85 91.8302C101.85 85.3837 96.6236 80.1577 90.1771 80.1577C83.7305 80.1577 78.5046 85.3837 78.5046 91.8302C78.5046 98.2767 83.7305 103.503 90.1771 103.503Z" fill="#263238" stroke="#263238" stroke-width="0.239829" stroke-linecap="round" stroke-linejoin="round"/>
<path d="M90.1771 102.222C95.9163 102.222 100.569 97.5695 100.569 91.8303C100.569 86.091 95.9163 81.4385 90.1771 81.4385C84.4378 81.4385 79.7853 86.091 79.7853 91.8303C79.7853 97.5695 84.4378 102.222 90.1771 102.222Z" fill="white" stroke="#263238" stroke-width="0.239829" stroke-linecap="round" stroke-linejoin="round"/>
<path d="M90.1771 101.742C95.6514 101.742 100.089 97.3044 100.089 91.8301C100.089 86.3558 95.6514 81.918 90.1771 81.918C84.7027 81.918 80.2649 86.3558 80.2649 91.8301C80.2649 97.3044 84.7027 101.742 90.1771 101.742Z" fill="white" stroke="#263238" stroke-width="0.239829" stroke-linecap="round" stroke-linejoin="round"/>
<path d="M132.548 103.503C138.994 103.503 144.22 98.2767 144.22 91.8302C144.22 85.3837 138.994 80.1577 132.548 80.1577C126.101 80.1577 120.875 85.3837 120.875 91.8302C120.875 98.2767 126.101 103.503 132.548 103.503Z" fill="#263238" stroke="#263238" stroke-width="0.239829" stroke-linecap="round" stroke-linejoin="round"/>
<path d="M132.548 102.222C138.287 102.222 142.939 97.5695 142.939 91.8303C142.939 86.091 138.287 81.4385 132.548 81.4385C126.808 81.4385 122.156 86.091 122.156 91.8303C122.156 97.5695 126.808 102.222 132.548 102.222Z" fill="white" stroke="#263238" stroke-width="0.239829" stroke-linecap="round" stroke-linejoin="round"/>
<path d="M132.548 101.742C138.022 101.742 142.46 97.3044 142.46 91.8301C142.46 86.3558 138.022 81.918 132.548 81.918C127.073 81.918 122.636 86.3558 122.636 91.8301C122.636 97.3044 127.073 101.742 132.548 101.742Z" fill="white" stroke="#263238" stroke-width="0.239829" stroke-linecap="round" stroke-linejoin="round"/>
<path d="M132.68 93.2693C133.474 93.2693 134.119 92.6251 134.119 91.8303C134.119 91.0356 133.474 90.3914 132.68 90.3914C131.885 90.3914 131.241 91.0356 131.241 91.8303C131.241 92.6251 131.885 93.2693 132.68 93.2693Z" stroke="#263238" stroke-width="0.239829" stroke-linecap="round" stroke-linejoin="round"/>
<path d="M98.5471 70.5117L106.565 92.9501" stroke="#263238" stroke-width="0.959317" stroke-miterlimit="10" stroke-linecap="round"/>
<path d="M132.929 92.3458C130.13 89.3935 123.002 69.965 121.791 66.6313C121.74 66.4913 121.735 66.3382 121.779 66.1954C121.822 66.0526 121.911 65.9278 122.031 65.8399L124.76 63.8469" stroke="#263238" stroke-width="0.959317" stroke-miterlimit="10" stroke-linecap="round"/>
<path d="M90.4792 91.3241C90.4792 91.3241 95.9234 74.397 123.317 71.5046" stroke="#263238" stroke-width="0.959317" stroke-miterlimit="10" stroke-linecap="round"/>
<path d="M110.563 92.516C110.563 92.516 114.987 91.4943 117.964 86.6474C120.94 81.8004 123.324 77.3732 125.365 76.2676" stroke="#263238" stroke-width="0.959317" stroke-miterlimit="10" stroke-linecap="round"/>
<path d="M94.5276 67.8042C94.5276 67.8042 94.446 69.9363 95.0192 70.5934C95.5924 71.2505 99.2834 71.3321 101.015 71.0851C102.747 70.838 103.476 70.1833 103.31 69.6916C103.145 69.2 100.432 67.4756 98.5543 67.3125C96.6764 67.1495 94.6091 67.0655 94.5276 67.8042Z" fill="white" stroke="#263238" stroke-width="0.239829" stroke-linecap="round" stroke-linejoin="round"/>
<path d="M122.211 60.614C122.211 60.614 128.59 61.4654 129.866 66.1445C131.142 70.8235 126.888 73.0348 124.252 73.0348" stroke="#263238" stroke-width="0.239829" stroke-linecap="round" stroke-linejoin="round"/>
<path d="M126.72 59.084C126.72 59.084 132.418 64.1876 131.229 67.8449C130.039 71.5023 123.06 70.6534 122.89 70.3991" stroke="#263238" stroke-width="0.239829" stroke-linecap="round" stroke-linejoin="round"/>
<path d="M109.678 65.6336C110.507 65.2331 112.601 66.2116 113.429 66.473C114.885 66.9256 116.306 67.4868 117.678 68.1518C118.18 68.3917 119.995 68.9145 119.995 69.634C119.995 70.2743 115.198 86.7434 115.198 86.7434C116.136 87.1937 117.097 87.594 118.076 87.9425C119.117 88.2615 120.796 88.4222 120.954 88.662C121.113 88.9019 120.556 89.7005 119.755 90.0195C118.954 90.3384 113.122 90.8205 112.481 90.8205C111.841 90.8205 111.601 91.0603 111.841 90.0195C112.081 88.9786 112.32 85.0646 112.32 85.0646C112.32 85.0646 112.721 79.6157 112.721 78.2558C112.721 76.896 113.68 72.3416 113.68 72.3416L108.325 72.181C108.494 70.4682 108.753 68.7655 109.1 67.0798C109.172 66.7488 109.212 66.1085 109.431 65.8351C109.497 65.7503 109.581 65.6815 109.678 65.6336Z" fill="white" stroke="#263238" stroke-width="0.239829" stroke-linecap="round" stroke-linejoin="round"/>
<path d="M94.3333 62.5878C94.3333 62.5878 93.6138 65.5449 94.0935 67.2237C94.5731 68.9025 97.9307 69.2238 97.9307 69.2238L109.284 73.9389L111.042 65.3866L104.987 63.408C104.987 63.408 94.4148 62.1873 94.3333 62.5878Z" fill="white" stroke="#263238" stroke-width="0.239829" stroke-linecap="round" stroke-linejoin="round"/>
<path d="M107.84 69.375L108.796 69.7782" stroke="#263238" stroke-width="0.239829" stroke-linecap="round" stroke-linejoin="round"/>
<path d="M101.075 66.5066L106.819 68.9409" stroke="#263238" stroke-width="0.239829" stroke-linecap="round" stroke-linejoin="round"/>
<path d="M98.0914 63.0747C98.0914 63.0747 96.1728 64.672 96.7364 64.8303C97.3 64.9885 98.4919 63.2354 98.4919 64.1108C98.4919 64.9861 98.0123 65.9455 98.3313 66.0294C98.6502 66.1133 99.3697 65.7896 99.3697 65.7896L100.42 66.2333" stroke="#263238" stroke-width="0.239829" stroke-linecap="round" stroke-linejoin="round"/>
<path d="M115.198 86.7317C115.198 86.7317 115.249 86.5637 115.333 86.2686C115.248 86.4082 115.201 86.5681 115.198 86.7317V86.7317Z" stroke="#263238" stroke-width="0.239829" stroke-linecap="round" stroke-linejoin="round"/>
<path d="M118.076 87.9306C117.097 87.582 116.136 87.1818 115.198 86.7314C115.119 87.6092 115.119 88.0889 115.119 88.0889L112.071 88.2664C112.023 88.8507 111.943 89.432 111.831 90.0075C111.591 91.0484 111.831 90.8085 112.472 90.8085C113.112 90.8085 118.947 90.3289 119.746 90.0075C120.544 89.6861 121.105 88.8899 120.945 88.6501C120.784 88.4102 119.117 88.2496 118.076 87.9306Z" fill="#92E3A9" stroke="#263238" stroke-width="0.239829" stroke-linecap="round" stroke-linejoin="round"/>
<path d="M112.481 90.8086C113.122 90.8086 118.957 90.3289 119.755 90.0076C120.441 89.7341 120.954 89.1082 120.978 88.7844C118.393 90.0076 111.841 90.0076 111.841 90.0076C111.601 91.0484 111.841 90.8086 112.481 90.8086Z" fill="white" stroke="#263238" stroke-width="0.239829" stroke-linecap="round" stroke-linejoin="round"/>
<path d="M109.203 89.751L89.2969 90.3913L89.0571 92.5498L108.723 96.3079L109.203 89.751Z" fill="white" stroke="#263238" stroke-width="0.239829" stroke-linecap="round" stroke-linejoin="round"/>
<path d="M108.723 96.3079C110.534 96.3079 112.002 94.8401 112.002 93.0294C112.002 91.2188 110.534 89.751 108.723 89.751C106.912 89.751 105.445 91.2188 105.445 93.0294C105.445 94.8401 106.912 96.3079 108.723 96.3079Z" fill="white" stroke="#263238" stroke-width="0.239829" stroke-linecap="round" stroke-linejoin="round"/>
<path d="M114.724 91.4104L109.1 92.6839C109.006 92.7064 108.918 92.7484 108.842 92.8074C108.766 92.8663 108.703 92.9407 108.657 93.0257C108.612 93.1107 108.585 93.2043 108.579 93.3004C108.572 93.3966 108.586 93.4929 108.62 93.5833C108.683 93.7513 108.811 93.8874 108.975 93.9616C109.138 94.0357 109.325 94.042 109.493 93.979L115.664 91.6646L114.724 91.4104Z" fill="white" stroke="#263238" stroke-width="0.239829" stroke-miterlimit="10" stroke-linecap="round"/>
<path d="M117.738 90.6887H113.966V92.0006H117.738V90.6887Z" fill="white" stroke="#263238" stroke-width="0.239829" stroke-miterlimit="10" stroke-linecap="round"/>
<path d="M90.1771 93.9096C91.3254 93.9096 92.2564 92.9787 92.2564 91.8303C92.2564 90.6819 91.3254 89.751 90.1771 89.751C89.0287 89.751 88.0977 90.6819 88.0977 91.8303C88.0977 92.9787 89.0287 93.9096 90.1771 93.9096Z" fill="white" stroke="#263238" stroke-width="0.239829" stroke-linecap="round" stroke-linejoin="round"/>
<path d="M112.088 55.5105L117.604 57.892C117.604 57.892 120.156 58.4028 120.412 58.7434C120.658 59.0843 120.858 59.456 121.007 59.849C121.091 60.1056 120.496 60.1056 120.496 60.1056C120.496 60.1056 121.177 61.041 120.923 61.3048C120.669 61.5686 120.412 61.6453 120.242 61.3048C120.125 61.0887 119.947 60.9112 119.731 60.7939L118.115 60.2855L117.179 59.0864C117.179 59.0864 109.351 58.3213 108.673 58.0647C107.994 57.8081 105.44 54.1531 105.44 54.1531L106.725 52.6182L112.088 55.5105Z" fill="#D4D4D4" stroke="#263238" stroke-width="0.239829" stroke-linecap="round" stroke-linejoin="round"/>
<path d="M102.468 41.8234C102.468 41.8234 101.269 41.5836 99.7702 42.5429C98.2713 43.5022 96.4726 45.7206 95.873 47.8791C95.2734 50.0375 95.0336 54.5943 95.0336 56.333C95.0336 58.0718 94.0143 60.5301 94.0143 61.5493C94.0143 62.5686 94.1942 63.0483 94.7338 63.0483C95.2734 63.0483 98.5711 62.9883 100.61 63.408C102.648 63.8277 104.327 63.9476 104.987 63.408C105.646 62.8684 105.466 59.6307 105.466 59.211C105.466 58.7913 107.445 53.635 107.924 51.299C108.404 48.9631 107.385 44.7037 106.905 43.7444C106.425 42.7851 103.847 41.7634 103.607 41.7634C103.368 41.7634 102.468 41.8234 102.468 41.8234Z" fill="#92E3A9" stroke="#263238" stroke-width="0.239829" stroke-linecap="round" stroke-linejoin="round"/>
<path d="M97.1446 52.4072L96.3479 52.8752" stroke="#263238" stroke-width="0.239829" stroke-linecap="round" stroke-linejoin="round"/>
<path d="M96.5182 50.9177L101.284 49.98L98.101 51.8459" stroke="#263238" stroke-width="0.239829" stroke-linecap="round" stroke-linejoin="round"/>
<path d="M102.228 39.1252L101.869 42.0632C101.869 42.0632 103.847 44.2216 104.447 44.7612C105.046 45.3008 106.366 45.6606 106.366 45.6606V43.5621L107.265 39.3075C107.265 39.3075 103.548 40.2668 102.228 39.1252Z" fill="white" stroke="#263238" stroke-width="0.239829" stroke-linecap="round" stroke-linejoin="round"/>
<path d="M100.852 34.4199C100.852 34.4199 99.8182 34.1944 99.8182 35.4511C99.8091 35.8054 99.8765 36.1574 100.016 36.4832C100.156 36.8089 100.364 37.1007 100.626 37.3386C100.626 37.3386 101.257 37.6528 101.526 37.07C101.526 37.07 101.66 39.0006 101.886 39.4491C102.111 39.8976 103.548 41.2022 105.255 41.291C106.963 41.3797 107.725 39.4946 107.905 38.8207C108.085 38.1468 108.354 37.2043 108.354 37.2043C108.354 37.2043 108.622 37.6072 109.208 37.0244C109.793 36.4416 110.241 35.6766 109.881 34.8228C109.799 34.5918 109.634 34.3996 109.419 34.2835C109.203 34.1674 108.951 34.1356 108.713 34.1944V32.0839C108.752 31.6558 108.644 31.2274 108.407 30.8686C108.171 30.5097 107.82 30.2415 107.411 30.1077C105.929 29.5681 103.142 29.9279 101.84 31.41C100.538 32.8921 100.672 33.5205 100.672 33.5205L100.852 34.4199Z" fill="white" stroke="#263238" stroke-width="0.239829" stroke-linecap="round" stroke-linejoin="round"/>
<path d="M104.85 36.9332C104.85 36.9332 103.099 36.7989 102.648 37.0699C102.197 37.3409 102.288 39.6289 102.648 40.3939C103.008 41.159 104.624 41.7849 105.478 41.7418C106.332 41.6986 107.006 40.617 107.14 39.943C107.274 39.2691 107.366 37.2042 107.14 37.0651C106.915 36.926 104.85 36.9332 104.85 36.9332Z" fill="#263238" stroke="#263238" stroke-width="0.239829" stroke-linecap="round" stroke-linejoin="round"/>
<path d="M105.435 33.8347L105.389 36.8901L104.31 36.4393" stroke="#263238" stroke-width="0.239829" stroke-linecap="round" stroke-linejoin="round"/>
<path d="M103.322 37.564C103.322 37.564 104.13 38.1012 105.481 37.8781C105.481 37.8781 104.627 38.6864 104.224 38.7319C103.821 38.7775 103.322 37.564 103.322 37.564Z" fill="white"/>
<path d="M103.368 34.4634C103.368 34.7034 103.267 34.9146 103.142 34.9146C103.018 34.9146 102.919 34.713 102.919 34.4634C102.919 34.2138 103.02 34.0146 103.142 34.0146C103.265 34.0146 103.368 34.2162 103.368 34.4634Z" fill="#263238"/>
<path d="M106.378 34.4634C106.378 34.7034 106.277 34.9146 106.152 34.9146C106.027 34.9146 105.929 34.713 105.929 34.4634C105.929 34.2138 106.03 34.0146 106.152 34.0146C106.275 34.0146 106.378 34.2162 106.378 34.4634Z" fill="#263238"/>
<path d="M102.2 33.6093C102.2 33.6093 103.233 32.7579 104.176 33.5205" stroke="#263238" stroke-width="0.239829" stroke-linecap="round" stroke-linejoin="round"/>
<path d="M105.704 33.2062C105.704 33.2062 106.78 32.8009 107.366 33.6547" stroke="#263238" stroke-width="0.239829" stroke-linecap="round" stroke-linejoin="round"/>
<path d="M103.631 31.3045C103.631 31.3045 102.811 32.7003 103.871 32.6187C104.931 32.5372 107.229 30.9783 107.229 30.9783C107.229 30.9783 107.557 32.5348 107.884 32.7818C108.21 33.0288 108.459 33.1919 108.459 33.1919L108.378 35.8996C108.378 35.8996 108.788 36.1394 108.788 34.9139C108.788 33.6884 109.198 31.7146 109.028 29.9111C108.857 28.1075 105.91 26.2201 104.682 25.9731C103.454 25.726 103.286 27.0403 103.286 27.0403C103.286 27.0403 100.662 27.532 101.154 28.3522C101.646 29.1724 101.394 29.0908 101.394 29.0908C101.394 29.0908 99.588 28.9278 99.7534 30.6497C99.9132 31.9101 100.204 33.1504 100.622 34.3503C100.622 34.3503 100.861 35.9907 101.276 35.9907C101.691 35.9907 101.327 35.0314 101.327 34.7916C101.242 34.3336 101.128 33.8817 100.984 33.4389L103.631 31.3045Z" fill="#263238" stroke="#263238" stroke-width="0.239829" stroke-linecap="round" stroke-linejoin="round"/>
<path d="M119.997 59.933C119.997 59.933 121.103 59.8467 121.7 60.4414C122.297 61.0362 122.636 62.8253 123.571 63.5904C124.506 64.3554 125.528 63.7607 126.293 62.739C127.058 61.7173 126.631 58.9977 126.391 58.494C126.151 57.9904 121.796 58.8346 121.796 58.8346" stroke="#263238" stroke-width="0.959317" stroke-miterlimit="10" stroke-linecap="round"/>
<path d="M98.4919 48.9968C98.4919 48.9968 106.246 55.0741 107.126 55.3139C108.006 55.5537 121.276 57.5515 121.276 57.5515C121.276 57.5515 121.434 58.271 122.074 58.4317C122.494 58.5298 122.922 58.5829 123.353 58.59C123.353 58.59 123.273 59.391 123.674 59.391C124.075 59.391 125.511 59.6308 125.751 59.391C125.991 59.1512 126.151 57.7914 125.991 57.3908C125.83 56.9903 121.355 56.0334 121.355 56.0334L109.764 51.6349C109.764 51.6349 104.166 44.6799 102.809 43.7206C101.451 42.7613 99.3697 44.2818 99.3697 44.2818" fill="white"/>
<path d="M98.4919 48.9968C98.4919 48.9968 106.246 55.0741 107.126 55.3139C108.006 55.5537 121.276 57.5515 121.276 57.5515C121.276 57.5515 121.434 58.271 122.074 58.4317C122.494 58.5298 122.922 58.5829 123.353 58.59C123.353 58.59 123.273 59.391 123.674 59.391C124.075 59.391 125.511 59.6308 125.751 59.391C125.991 59.1512 126.151 57.7913 125.991 57.3908C125.83 56.9903 121.355 56.0334 121.355 56.0334L109.764 51.6349C109.764 51.6349 104.166 44.6799 102.809 43.7206C101.451 42.7613 99.3697 44.2818 99.3697 44.2818" stroke="#263238" stroke-width="0.239829" stroke-linecap="round" stroke-linejoin="round"/>
<path d="M98.4919 48.9967C98.4919 48.9967 100.847 50.8433 103.109 52.5389L107.749 49.1813C106.003 47.0804 103.631 44.3056 102.809 43.7252C101.449 42.7659 99.3697 44.2864 99.3697 44.2864" fill="#92E3A9"/>
<path d="M98.4919 48.9967C98.4919 48.9967 100.847 50.8433 103.109 52.5389L107.749 49.1813C106.003 47.0804 103.631 44.3056 102.809 43.7252C101.449 42.7659 99.3697 44.2864 99.3697 44.2864" stroke="#263238" stroke-width="0.239829" stroke-linecap="round" stroke-linejoin="round"/>
<path d="M124.312 58.1101V59.55" stroke="#263238" stroke-width="0.239829" stroke-linecap="round" stroke-linejoin="round"/>
<path d="M125.031 57.7913L124.952 59.4701" stroke="#263238" stroke-width="0.239829" stroke-linecap="round" stroke-linejoin="round"/>
<path d="M125.672 57.7913L125.751 59.3909" stroke="#263238" stroke-width="0.239829" stroke-linecap="round" stroke-linejoin="round"/>
<path d="M52.9004 32.7649C53.2391 33.5587 53.4807 34.3905 53.6199 35.2423C53.8597 36.6813 54.2506 37.2089 54.5432 37.3384C54.8358 37.4679 54.9198 37.9931 54.7591 38.3913C54.5984 38.7894 53.8885 38.8278 53.8885 38.8278C53.8885 38.8278 53.5407 40.8375 53.4592 41.1589C53.3777 41.4803 53.0611 42.0367 51.9411 41.7968C51.447 41.6913 49.6219 40.9982 49.6219 40.9982C49.6219 40.9982 49.3821 44.6748 49.3821 45.6341V46.9148L45.3866 46.1953C45.3866 46.1953 45.7055 44.0368 45.7847 42.8377C45.8638 41.6385 45.4657 39.7991 44.7462 38.2809C44.0267 36.7628 42.6669 36.2808 43.5471 34.6835C44.4272 33.0862 48.4228 31.724 49.8618 31.6449C51.3007 31.5657 52.9004 32.7649 52.9004 32.7649Z" fill="white" stroke="#263238" stroke-width="0.239829" stroke-linecap="round" stroke-linejoin="round"/>
<path d="M53.1258 36.1775L53.1618 36.7223" stroke="#263238" stroke-width="0.239829" stroke-linecap="round" stroke-linejoin="round"/>
<path d="M52.4016 35.7799C52.4016 35.7799 52.4736 34.9063 53.2007 35.1607" stroke="#263238" stroke-width="0.239829" stroke-linecap="round" stroke-linejoin="round"/>
<path d="M53.4168 39.3726C53.4168 39.3726 52.4736 39.4446 52.2553 38.5735" stroke="#263238" stroke-width="0.239829" stroke-linecap="round" stroke-linejoin="round"/>
<path d="M51.8476 49.7256L54.8262 53.8938C54.8262 53.8938 63.1627 57.9709 64.1796 58.3187C65.1965 58.6664 68.2567 59.8488 69.2831 59.9351C70.3096 60.0215 71.2402 61.1343 71.2402 61.1343C71.2402 61.1343 71.1538 61.8993 70.8133 62.1559C70.4727 62.4125 69.5374 62.0696 68.9426 62.0696C68.4488 62.0289 67.9638 61.9149 67.5036 61.7314C67.5036 61.7314 66.3045 60.0286 66.0646 59.9447C65.8248 59.8608 58.7474 57.9014 56.7113 57.1363C54.6751 56.3713 52.0322 55.4359 51.3511 54.244C50.67 53.052 51.6917 50.0757 51.6917 50.0757L51.8476 49.7256Z" fill="#D4D4D4" stroke="#263238" stroke-width="0.239829" stroke-linecap="round" stroke-linejoin="round"/>
<path d="M48.5835 72.0849C48.5835 72.0849 51.3008 74.3225 52.6606 75.5216C53.4147 76.2026 54.2462 76.7927 55.138 77.2796C55.138 77.2796 52.9004 79.9177 52.4999 82.3975C52.0994 84.8774 48.7442 91.7509 48.8233 92.3097C48.9025 92.8685 51.862 92.95 52.9004 92.95C53.9389 92.95 55.3779 93.3481 55.8575 92.95C56.3372 92.5519 54.1787 91.4295 53.6199 91.1105C53.0611 90.7915 52.1018 89.5924 52.1018 89.5924C52.1018 89.5924 56.8168 81.997 58.016 79.8385C59.2151 77.6801 60.6541 76.6416 59.9346 74.723C59.2151 72.8043 50.742 70.8042 50.1832 70.6459C49.6244 70.4876 48.5835 70.725 48.5835 72.0849Z" fill="#D4D4D4" stroke="#263238" stroke-width="0.239829" stroke-linecap="round" stroke-linejoin="round"/>
<path d="M49.7275 89.8635C49.1879 91.1466 48.7945 92.1131 48.8233 92.3098C48.9025 92.8686 51.862 92.9501 52.9004 92.9501C53.9389 92.9501 55.3778 93.3483 55.8575 92.9501C56.3372 92.552 54.1787 91.4296 53.6199 91.1106C53.0611 90.7917 52.1018 89.5925 52.1018 89.5925L51.7013 90.2305L49.7275 89.8635Z" fill="white" stroke="#263238" stroke-width="0.239829" stroke-linecap="round" stroke-linejoin="round"/>
<path d="M55.8575 92.95C55.9798 92.8493 55.9319 92.7102 55.7856 92.5327C54.5265 92.4104 52.3248 92.2041 51.0609 92.149C50.3443 92.1468 49.6341 92.0143 48.9648 91.7581C48.8884 91.9332 48.8406 92.1194 48.8233 92.3097C48.9025 92.8685 51.862 92.95 52.9004 92.95C53.9389 92.95 55.3778 93.3481 55.8575 92.95Z" fill="white" stroke="#263238" stroke-width="0.239829" stroke-linecap="round" stroke-linejoin="round"/>
<path d="M70.089 71.3652C70.089 71.3652 64.0933 72.4037 61.0546 76.8813C58.7475 80.2797 53.2194 86.4745 50.9818 87.1124" stroke="#263238" stroke-width="0.959317" stroke-linecap="round" stroke-linejoin="bevel"/>
<path d="M70.8085 74.2434C70.8085 74.2434 66.8897 76.4019 64.8127 79.1191C62.7358 81.8364 60.6541 90.6309 56.4979 93.1084" stroke="#263238" stroke-width="0.959317" stroke-linecap="round" stroke-linejoin="bevel"/>
<path d="M46.5042 72.9626L52.4999 92.95" stroke="#263238" stroke-width="0.959317" stroke-miterlimit="10" stroke-linecap="round"/>
<path d="M36.1124 103.502C42.5589 103.502 47.7849 98.2765 47.7849 91.83C47.7849 85.3834 42.5589 80.1575 36.1124 80.1575C29.6658 80.1575 24.4399 85.3834 24.4399 91.83C24.4399 98.2765 29.6658 103.502 36.1124 103.502Z" fill="#263238" stroke="#263238" stroke-width="0.239829" stroke-linecap="round" stroke-linejoin="round"/>
<path d="M36.1124 102.222C41.8516 102.222 46.5042 97.5693 46.5042 91.83C46.5042 86.0908 41.8516 81.4382 36.1124 81.4382C30.3731 81.4382 25.7206 86.0908 25.7206 91.83C25.7206 97.5693 30.3731 102.222 36.1124 102.222Z" fill="white" stroke="#263238" stroke-width="0.239829" stroke-linecap="round" stroke-linejoin="round"/>
<path d="M36.1124 101.742C41.5867 101.742 46.0245 97.3042 46.0245 91.8299C46.0245 86.3555 41.5867 81.9177 36.1124 81.9177C30.638 81.9177 26.2002 86.3555 26.2002 91.8299C26.2002 97.3042 30.638 101.742 36.1124 101.742Z" fill="white" stroke="#263238" stroke-width="0.239829" stroke-linecap="round" stroke-linejoin="round"/>
<path d="M78.483 103.502C84.9295 103.502 90.1555 98.2765 90.1555 91.83C90.1555 85.3834 84.9295 80.1575 78.483 80.1575C72.0365 80.1575 66.8105 85.3834 66.8105 91.83C66.8105 98.2765 72.0365 103.502 78.483 103.502Z" fill="#263238" stroke="#263238" stroke-width="0.239829" stroke-linecap="round" stroke-linejoin="round"/>
<path d="M78.483 102.222C84.2222 102.222 88.8748 97.5693 88.8748 91.83C88.8748 86.0908 84.2222 81.4382 78.483 81.4382C72.7438 81.4382 68.0912 86.0908 68.0912 91.83C68.0912 97.5693 72.7438 102.222 78.483 102.222Z" fill="white" stroke="#263238" stroke-width="0.239829" stroke-linecap="round" stroke-linejoin="round"/>
<path d="M78.483 101.742C83.9573 101.742 88.3951 97.3042 88.3951 91.8299C88.3951 86.3555 83.9573 81.9177 78.483 81.9177C73.0087 81.9177 68.5709 86.3555 68.5709 91.8299C68.5709 97.3042 73.0087 101.742 78.483 101.742Z" fill="white" stroke="#263238" stroke-width="0.239829" stroke-linecap="round" stroke-linejoin="round"/>
<path d="M78.483 93.2691C79.2777 93.2691 79.922 92.6248 79.922 91.8301C79.922 91.0354 79.2777 90.3911 78.483 90.3911C77.6883 90.3911 77.044 91.0354 77.044 91.8301C77.044 92.6248 77.6883 93.2691 78.483 93.2691Z" stroke="#263238" stroke-width="0.239829" stroke-linecap="round" stroke-linejoin="round"/>
<path d="M78.483 91.8299C78.483 91.8299 73.0461 82.7164 72.8062 81.5173C72.5664 80.3181 69.0481 67.4465 69.0481 67.4465L71.4464 61.9304C71.4614 61.9008 71.4701 61.8683 71.4719 61.8351C71.4737 61.8019 71.4686 61.7686 71.4569 61.7375C71.4451 61.7064 71.4271 61.678 71.4038 61.6543C71.3805 61.6305 71.3526 61.6118 71.3217 61.5995L68.1703 61.2109" stroke="#263238" stroke-width="0.959317" stroke-linecap="round" stroke-linejoin="bevel"/>
<path d="M36.0332 91.0313L48.2645 79.5195" stroke="#263238" stroke-width="0.959317" stroke-miterlimit="10" stroke-linecap="round"/>
<path d="M43.7293 70.1685C43.7293 70.1685 42.2664 69.9143 41.9498 70.4228C41.6332 70.9312 41.5685 72.5812 42.2664 72.9649C42.9643 73.3487 47.4803 73.5357 48.5619 73.4086C49.6435 73.2815 49.9601 71.9481 49.3246 71.4396C48.689 70.9312 43.7293 70.1685 43.7293 70.1685Z" fill="white" stroke="#263238" stroke-width="0.239829" stroke-linecap="round" stroke-linejoin="round"/>
<path d="M55.138 89.7507L35.2322 90.3911L34.9924 92.5495L54.6584 96.3077L55.138 89.7507Z" fill="white" stroke="#263238" stroke-width="0.239829" stroke-linecap="round" stroke-linejoin="round"/>
<path d="M54.6584 96.3077C56.469 96.3077 57.9368 94.8398 57.9368 93.0292C57.9368 91.2186 56.469 89.7507 54.6584 89.7507C52.8477 89.7507 51.3799 91.2186 51.3799 93.0292C51.3799 94.8398 52.8477 96.3077 54.6584 96.3077Z" fill="white" stroke="#263238" stroke-width="0.239829" stroke-linecap="round" stroke-linejoin="round"/>
<path d="M54.6584 94.1492C55.2769 94.1492 55.7784 93.6477 55.7784 93.0292C55.7784 92.4106 55.2769 91.9092 54.6584 91.9092C54.0398 91.9092 53.5384 92.4106 53.5384 93.0292C53.5384 93.6477 54.0398 94.1492 54.6584 94.1492Z" fill="white" stroke="#263238" stroke-width="0.239829" stroke-linecap="round" stroke-linejoin="round"/>
<path d="M60.9755 94.7079C60.9452 94.7113 60.9146 94.7113 60.8843 94.7079L54.5696 93.5087C54.5044 93.5007 54.4416 93.4794 54.385 93.4461C54.3283 93.4128 54.2792 93.3682 54.2405 93.3151C54.2018 93.262 54.1745 93.2016 54.1601 93.1375C54.1457 93.0734 54.1447 93.007 54.157 92.9425C54.1694 92.878 54.1948 92.8167 54.2319 92.7624C54.2689 92.7082 54.3166 92.6621 54.3721 92.627C54.4277 92.592 54.4898 92.5687 54.5548 92.5586C54.6197 92.5486 54.6859 92.552 54.7495 92.5686L61.0642 93.7677C61.1272 93.7735 61.1884 93.7917 61.2444 93.8212C61.3003 93.8507 61.35 93.8909 61.3904 93.9396C61.4308 93.9882 61.4612 94.0444 61.48 94.1048C61.4987 94.1652 61.5053 94.2288 61.4995 94.2918C61.4937 94.3547 61.4755 94.416 61.446 94.4719C61.4165 94.5279 61.3763 94.5775 61.3276 94.6179C61.279 94.6583 61.2228 94.6888 61.1624 94.7075C61.102 94.7262 61.0384 94.7329 60.9755 94.727V94.7079Z" fill="white" stroke="#263238" stroke-width="0.239829" stroke-linecap="round" stroke-linejoin="round"/>
<path d="M36.1124 93.9094C37.2607 93.9094 38.1917 92.9784 38.1917 91.8301C38.1917 90.6817 37.2607 89.7507 36.1124 89.7507C34.964 89.7507 34.033 90.6817 34.033 91.8301C34.033 92.9784 34.964 93.9094 36.1124 93.9094Z" fill="white" stroke="#263238" stroke-width="0.239829" stroke-linecap="round" stroke-linejoin="round"/>
<path d="M50.7683 46.5478C50.1054 45.6671 49.1678 45.0325 48.1038 44.7443C45.9454 44.1831 44.5855 44.6627 43.5471 47.2217C42.5086 49.7807 44.3457 54.0161 44.6671 55.0569C44.9884 56.0978 44.2666 58.0932 43.4679 59.8535C42.6693 61.6139 41.0696 63.451 41.3095 66.6479C41.5493 69.8448 44.986 71.5236 45.7847 71.6052L46.5857 71.6843C46.5857 71.6843 52.1018 74.4016 54.5001 75.0419C55.8848 75.4202 57.3035 75.6612 58.7355 75.7614C58.7355 75.7614 57.1382 76.9605 57.1382 79.9176C57.1382 82.8747 56.9775 94.3889 56.9775 94.3889C56.9775 94.3889 57.4572 95.1084 57.697 95.1084C57.9368 95.1084 65.5322 93.1082 65.5322 93.1082C65.5322 93.1082 65.772 92.0698 65.3715 92.0698C64.971 92.0698 59.2151 90.7099 59.2151 90.7099C59.2151 90.7099 62.0139 78.8792 62.6543 77.5193C63.2946 76.1595 62.9732 74.5622 62.2537 73.5238C61.5343 72.4853 56.9775 67.6072 53.2194 65.9284L52.4208 64.4894C52.2145 61.2469 52.2649 61.2445 52.0202 58.5728C51.9411 57.6951 52.9004 51.6178 52.2601 49.5409C51.9509 48.46 51.4452 47.4454 50.7683 46.5478Z" fill="white" stroke="#263238" stroke-width="0.239829" stroke-linecap="round" stroke-linejoin="round"/>
<path d="M43.0051 60.7577C44.7486 61.0862 48.8329 63.4941 52.3104 62.9953C52.2337 61.8417 52.0538 58.9422 52.0202 58.5728C51.9411 57.695 52.9004 51.6178 52.2601 49.5409C51.9509 48.46 51.4452 47.4454 50.7683 46.5478C50.1054 45.6671 49.1678 45.0325 48.1038 44.7443C45.9454 44.1831 44.5855 44.6627 43.5471 47.2217C42.5086 49.7807 44.3457 54.0161 44.6671 55.0569C44.9885 56.0978 44.2666 58.0932 43.4679 59.8535C43.3312 60.1485 43.1705 60.4483 43.0051 60.7577Z" fill="white" stroke="#263238" stroke-width="0.239829" stroke-linecap="round" stroke-linejoin="round"/>
<path d="M44.6503 56.5032C44.5742 56.8781 44.4757 57.2481 44.3553 57.6112H52.0658C52.0946 57.2922 52.1306 56.9181 52.1713 56.5032H44.6503Z" fill="#263238"/>
<path d="M52.2505 62.0503C52.2265 61.7026 52.2025 61.3309 52.1785 60.9399H43.679C44.456 61.1966 45.4801 61.6354 46.6217 62.0503H52.2505Z" fill="#263238"/>
<path d="M43.9524 58.7336C43.8013 59.1054 43.6406 59.4795 43.4727 59.8441H52.1066C52.0754 59.3644 52.049 58.9567 52.0322 58.7336H43.9524Z" fill="#263238"/>
<path d="M43.8732 46.5167H50.7444C50.4064 46.0909 50.0081 45.7168 49.562 45.4062H44.6239C44.3231 45.7396 44.0705 46.1133 43.8732 46.5167Z" fill="#263238"/>
<path d="M43.2713 49.8455C43.3048 50.2148 43.3624 50.5865 43.432 50.9559H52.4639C52.4489 50.5831 52.4064 50.212 52.3368 49.8455H43.2713Z" fill="#263238"/>
<path d="M43.4104 47.6272C43.3113 47.9888 43.2541 48.3606 43.2401 48.7352H51.9795C51.834 48.3553 51.6642 47.9852 51.471 47.6272H43.4104Z" fill="#263238"/>
<path d="M44.3961 54.2822C44.516 54.6156 44.6119 54.8818 44.6671 55.0569C44.6988 55.1665 44.7197 55.2789 44.7294 55.3926H52.2841C52.3176 55.0329 52.3488 54.6612 52.3776 54.2822H44.3961Z" fill="#263238"/>
<path d="M43.6886 52.064C43.7917 52.4549 43.9044 52.829 44.0171 53.1744H52.4399C52.4591 52.7954 52.4735 52.4237 52.4783 52.064H43.6886Z" fill="#263238"/>
<path d="M53.2194 65.9284L52.4208 64.4894C52.4208 64.4894 52.38 64.0098 52.2601 62.2518C49.5452 62.7075 45.564 60.3332 43.4272 59.9351C42.6165 61.669 41.072 63.4989 41.3095 66.6503C41.5493 69.8472 44.986 71.526 45.7847 71.6075L46.5857 71.6867L46.6553 71.7227C48.0726 68.1084 53.1306 66.3313 53.1306 66.3313H54.0132C53.7518 66.1802 53.4832 66.0459 53.2194 65.9284Z" fill="#92E3A9" stroke="#263238" stroke-width="0.239829" stroke-linecap="round" stroke-linejoin="round"/>
<path d="M47.1613 66.8613C47.3533 66.9813 47.5597 67.1037 47.7805 67.2285" stroke="#263238" stroke-width="0.239829" stroke-linecap="round" stroke-linejoin="round"/>
<path d="M45.5209 61.1487C45.5209 61.1487 45.8686 61.6691 45.3482 61.8418C44.8278 62.0145 44.3049 62.8011 44.3049 62.8011C44.3049 62.8011 45.1731 62.8874 45.2642 63.1489C45.3554 63.4103 44.4824 63.842 44.5711 64.1082C44.6407 64.3168 44.8781 65.1994 46.4082 66.3482" stroke="#263238" stroke-width="0.239829" stroke-linecap="round" stroke-linejoin="round"/>
<path d="M46.106 71.6052L47.3052 72.3247C47.9582 70.8319 48.8491 69.455 49.9433 68.2476C51.6221 66.4873 54.6584 66.7271 54.6584 66.7271C54.6584 66.7271 53.9389 65.9285 53.2194 65.9285C52.4999 65.9285 49.9433 66.4873 48.5043 67.6864C47.0654 68.8856 46.106 71.6052 46.106 71.6052Z" fill="white" stroke="#263238" stroke-width="0.239829" stroke-linecap="round" stroke-linejoin="round"/>
<path d="M51.3439 64.7556L53.2194 65.9284" stroke="#263238" stroke-width="0.239829" stroke-linecap="round" stroke-linejoin="round"/>
<path d="M50.0225 63.9307L50.5024 64.2282" stroke="#263238" stroke-width="0.239829" stroke-linecap="round" stroke-linejoin="round"/>
<path d="M65.0532 61.0527H64.0932" stroke="#263238" stroke-width="0.959317" stroke-linecap="round" stroke-linejoin="round"/>
<path d="M65.3715 92.0698C64.971 92.0698 59.2151 90.71 59.2151 90.71V92.3888L56.9991 92.7341C56.9871 93.7486 56.9775 94.3889 56.9775 94.3889C56.9775 94.3889 57.4572 95.1084 57.697 95.1084C57.9368 95.1084 65.5322 93.1083 65.5322 93.1083C65.5322 93.1083 65.772 92.0698 65.3715 92.0698Z" fill="white" stroke="#263238" stroke-width="0.239829" stroke-linecap="round" stroke-linejoin="round"/>
<path d="M65.597 92.6504L57.2293 94.7273C57.3828 94.912 57.5723 95.1086 57.697 95.1086C57.9368 95.1086 65.5322 93.1085 65.5322 93.1085C65.5648 92.9575 65.5864 92.8044 65.597 92.6504Z" fill="white" stroke="#263238" stroke-width="0.239829" stroke-linecap="round" stroke-linejoin="round"/>
<path d="M63.0309 93.9279L59.3974 94.9247C59.3387 94.9408 59.3041 95.0015 59.3202 95.0603L59.5734 95.9831C59.5895 96.0418 59.6502 96.0764 59.7089 96.0603L63.3424 95.0635C63.4012 95.0474 63.4357 94.9867 63.4196 94.928L63.1665 94.0051C63.1504 93.9464 63.0897 93.9118 63.0309 93.9279Z" fill="white" stroke="#263238" stroke-width="0.239829" stroke-linecap="round" stroke-linejoin="round"/>
<path d="M70.1777 71.8306L77.5716 72.622" stroke="#263238" stroke-width="0.479658" stroke-linecap="round" stroke-linejoin="round"/>
<path d="M82.114 63.5447C81.9688 63.5429 81.8269 63.5874 81.7087 63.6718C81.75 63.5389 81.7718 63.4008 81.7734 63.2617C81.7891 62.8972 81.6599 62.5413 81.4142 62.2717C81.1684 62.0022 80.8259 61.8407 80.4616 61.8227C80.1794 61.8221 79.905 61.9158 79.6821 62.0889C79.6263 61.9668 79.5373 61.8629 79.4255 61.7887C79.3136 61.7145 79.1832 61.6731 79.049 61.6692C78.8497 61.6749 78.6606 61.7588 78.5228 61.9029C78.3849 62.0471 78.3095 62.2397 78.3127 62.4391C78.2444 62.4133 78.1722 62.3995 78.0993 62.3983C78.0705 62.3983 78.0441 62.3983 78.0177 62.3983C78.0439 62.321 78.0577 62.24 78.0585 62.1585C78.0594 62.0629 78.0415 61.968 78.0058 61.8794C77.9701 61.7907 77.9173 61.7099 77.8504 61.6417C77.7835 61.5734 77.7037 61.519 77.6158 61.4815C77.5278 61.4441 77.4334 61.4243 77.3378 61.4234C77.2422 61.4224 77.1474 61.4403 77.0587 61.476C76.97 61.5117 76.8893 61.5646 76.821 61.6315C76.7527 61.6984 76.6983 61.7781 76.6609 61.8661C76.6234 61.954 76.6037 62.0485 76.6027 62.1441C76.6012 62.2253 76.6125 62.3062 76.6363 62.3839H76.4564C76.4657 62.3348 76.4713 62.2851 76.4732 62.2352C76.4824 62.0347 76.4118 61.8387 76.2771 61.69C76.1423 61.5413 75.9542 61.4519 75.7537 61.4414C75.6369 61.4426 75.5221 61.4723 75.4193 61.5279C75.3165 61.5835 75.2288 61.6633 75.1637 61.7603C75.1052 61.6617 75.0226 61.5796 74.9235 61.5217C74.8245 61.4638 74.7124 61.432 74.5978 61.4294C74.4095 61.4363 74.2314 61.5167 74.1018 61.6535C73.9722 61.7903 73.9014 61.9725 73.9046 62.1609C73.9036 62.2941 73.9366 62.4253 74.0006 62.5422C73.8496 62.4741 73.6865 62.4374 73.5209 62.4343C73.163 62.4629 72.8287 62.6243 72.5837 62.8868C72.3386 63.1493 72.2006 63.4939 72.1967 63.853C72.1928 64.2121 72.3233 64.5596 72.5625 64.8274C72.8018 65.0952 73.1325 65.2638 73.4897 65.3002L78.7084 65.9645C78.6529 66.0765 78.6227 66.1993 78.6197 66.3243C78.6112 66.5246 78.6819 66.7202 78.8166 66.8688C78.9512 67.0174 79.139 67.107 79.3392 67.1181C79.498 67.1159 79.6517 67.062 79.7772 66.9646C79.9027 66.8673 79.993 66.7318 80.0347 66.5785C80.1308 66.6051 80.2299 66.6196 80.3297 66.6217C80.6957 66.6104 81.0423 66.4547 81.294 66.1887C81.5456 65.9227 81.6818 65.5679 81.6727 65.2019C81.6729 65.1127 81.6657 65.0237 81.6511 64.9357C81.7749 65.0478 81.935 65.1117 82.102 65.1155C82.3031 65.1068 82.4931 65.0213 82.6331 64.8767C82.7731 64.7321 82.8522 64.5393 82.8544 64.3381C82.8566 64.1368 82.7815 63.9424 82.6447 63.7948C82.5078 63.6472 82.3196 63.5577 82.1188 63.5447H82.114Z" fill="#92E3A9" stroke="#263238" stroke-width="0.239829" stroke-linecap="round" stroke-linejoin="round"/>
<path d="M76.9865 72.3318L71.5064 71.8642L71.4752 64.1584L78.3247 64.7436L76.9865 72.3318Z" fill="white" stroke="#263238" stroke-width="0.239829" stroke-linecap="round" stroke-linejoin="round"/>
<path d="M74.6601 64.7292C75.2946 64.7292 75.8089 64.2149 75.8089 63.5804C75.8089 62.946 75.2946 62.4316 74.6601 62.4316C74.0257 62.4316 73.5113 62.946 73.5113 63.5804C73.5113 64.2149 74.0257 64.7292 74.6601 64.7292Z" fill="white" stroke="#263238" stroke-width="0.239829" stroke-linecap="round" stroke-linejoin="round"/>
<path d="M75.0323 63.5808C75.0328 63.6544 75.0114 63.7266 74.9708 63.7881C74.9302 63.8496 74.8723 63.8976 74.8044 63.9261C74.7365 63.9546 74.6616 63.9624 74.5893 63.9483C74.517 63.9342 74.4505 63.899 74.3982 63.847C74.3459 63.7951 74.3103 63.7288 74.2957 63.6566C74.2812 63.5844 74.2884 63.5095 74.3165 63.4414C74.3446 63.3733 74.3922 63.315 74.4535 63.274C74.5147 63.2331 74.5867 63.2112 74.6604 63.2112C74.7091 63.2109 74.7574 63.2202 74.8025 63.2386C74.8476 63.2571 74.8887 63.2842 74.9232 63.3186C74.9578 63.3529 74.9852 63.3938 75.004 63.4388C75.0227 63.4838 75.0323 63.532 75.0323 63.5808Z" fill="white" stroke="#263238" stroke-width="0.239829" stroke-linecap="round" stroke-linejoin="round"/>
<path d="M78.483 62.0121C78.483 62.2393 78.4156 62.4614 78.2894 62.6503C78.1632 62.8392 77.9837 62.9865 77.7738 63.0734C77.5639 63.1604 77.3329 63.1831 77.1101 63.1388C76.8872 63.0944 76.6826 62.985 76.5219 62.8244C76.3612 62.6637 76.2518 62.459 76.2075 62.2362C76.1632 62.0133 76.1859 61.7824 76.2729 61.5724C76.3598 61.3625 76.5071 61.1831 76.696 61.0569C76.8849 60.9307 77.107 60.8633 77.3342 60.8633C77.6389 60.8633 77.9311 60.9843 78.1465 61.1998C78.362 61.4152 78.483 61.7074 78.483 62.0121Z" fill="white" stroke="#263238" stroke-width="0.239829" stroke-linecap="round" stroke-linejoin="round"/>
<path d="M77.7064 62.0121C77.7064 62.0857 77.6846 62.1576 77.6437 62.2188C77.6029 62.2799 77.5448 62.3276 77.4768 62.3558C77.4088 62.3839 77.334 62.3913 77.2619 62.3769C77.1897 62.3626 77.1234 62.3272 77.0714 62.2751C77.0194 62.2231 76.984 62.1568 76.9696 62.0847C76.9553 62.0125 76.9626 61.9377 76.9908 61.8698C77.0189 61.8018 77.0666 61.7437 77.1278 61.7028C77.189 61.662 77.2609 61.6401 77.3345 61.6401C77.3834 61.6398 77.4319 61.6492 77.4772 61.6678C77.5225 61.6864 77.5636 61.7138 77.5982 61.7484C77.6328 61.783 77.6602 61.8241 77.6788 61.8694C77.6973 61.9147 77.7067 61.9632 77.7064 62.0121Z" fill="white" stroke="#263238" stroke-width="0.239829" stroke-linecap="round" stroke-linejoin="round"/>
<path d="M80.0011 63.849C80.0016 64.0764 79.9346 64.2989 79.8085 64.4882C79.6825 64.6774 79.5031 64.8251 79.2931 64.9123C79.083 64.9995 78.8519 65.0225 78.6288 64.9783C78.4057 64.934 78.2008 64.8245 78.04 64.6637C77.8792 64.5029 77.7698 64.298 77.7255 64.075C77.6813 63.8519 77.7042 63.6207 77.7915 63.4107C77.8787 63.2007 78.0263 63.0213 78.2156 62.8952C78.4049 62.7692 78.6273 62.7022 78.8547 62.7026C79.1588 62.7026 79.4504 62.8234 79.6653 63.0384C79.8803 63.2534 80.0011 63.545 80.0011 63.849Z" fill="white" stroke="#263238" stroke-width="0.239829" stroke-linecap="round" stroke-linejoin="round"/>
<path d="M79.2245 63.8496C79.225 63.9233 79.2036 63.9956 79.1629 64.0571C79.1222 64.1187 79.0641 64.1667 78.996 64.1952C78.928 64.2236 78.853 64.2312 78.7806 64.2169C78.7082 64.2026 78.6417 64.1671 78.5896 64.115C78.5374 64.0628 78.5019 63.9963 78.4876 63.9239C78.4734 63.8516 78.4809 63.7766 78.5094 63.7085C78.5378 63.6404 78.5859 63.5824 78.6474 63.5417C78.709 63.501 78.7812 63.4795 78.855 63.48C78.953 63.48 79.047 63.5189 79.1163 63.5882C79.1856 63.6575 79.2245 63.7515 79.2245 63.8496Z" fill="white" stroke="#263238" stroke-width="0.239829" stroke-linecap="round" stroke-linejoin="round"/>
<path d="M80.8813 62.2518C80.8813 62.479 80.8139 62.7011 80.6877 62.89C80.5615 63.079 80.382 63.2262 80.1721 63.3131C79.9622 63.4001 79.7312 63.4228 79.5084 63.3785C79.2855 63.3342 79.0809 63.2248 78.9202 63.0641C78.7595 62.9035 78.6501 62.6988 78.6058 62.4759C78.5615 62.2531 78.5842 62.0221 78.6712 61.8122C78.7581 61.6023 78.9054 61.4229 79.0943 61.2966C79.2832 61.1704 79.5053 61.103 79.7325 61.103C79.8834 61.103 80.0327 61.1327 80.1721 61.1905C80.3115 61.2482 80.4381 61.3328 80.5448 61.4395C80.6515 61.5462 80.7361 61.6728 80.7938 61.8122C80.8516 61.9516 80.8813 62.101 80.8813 62.2518Z" fill="white" stroke="#263238" stroke-width="0.239829" stroke-linecap="round" stroke-linejoin="round"/>
<path d="M80.1047 62.2521C80.1047 62.3257 80.0829 62.3976 80.042 62.4588C80.0011 62.5199 79.9431 62.5676 79.8751 62.5958C79.8071 62.6239 79.7323 62.6313 79.6602 62.6169C79.588 62.6026 79.5217 62.5672 79.4697 62.5151C79.4177 62.4631 79.3823 62.3968 79.3679 62.3247C79.3536 62.2525 79.3609 62.1777 79.3891 62.1098C79.4172 62.0418 79.4649 61.9837 79.5261 61.9428C79.5873 61.902 79.6592 61.8801 79.7327 61.8801C79.7817 61.8798 79.8302 61.8892 79.8755 61.9078C79.9207 61.9264 79.9619 61.9538 79.9965 61.9884C80.0311 62.023 80.0585 62.0641 80.077 62.1094C80.0956 62.1547 80.105 62.2032 80.1047 62.2521Z" fill="white" stroke="#263238" stroke-width="0.239829" stroke-linecap="round" stroke-linejoin="round"/>
<path d="M76.267 61.2926C76.267 61.5198 76.1996 61.7419 76.0734 61.9308C75.9471 62.1197 75.7677 62.267 75.5578 62.3539C75.3479 62.4409 75.1169 62.4636 74.8941 62.4193C74.6712 62.375 74.4666 62.2656 74.3059 62.1049C74.1452 61.9442 74.0358 61.7395 73.9915 61.5167C73.9472 61.2939 73.9699 61.0629 74.0569 60.853C74.1438 60.643 74.2911 60.4636 74.48 60.3374C74.6689 60.2112 74.891 60.1438 75.1182 60.1438C75.2691 60.1435 75.4187 60.173 75.5582 60.2306C75.6977 60.2882 75.8245 60.3728 75.9312 60.4796C76.038 60.5863 76.1226 60.7131 76.1802 60.8526C76.2378 60.9921 76.2673 61.1416 76.267 61.2926Z" fill="white" stroke="#263238" stroke-width="0.239829" stroke-linecap="round" stroke-linejoin="round"/>
<path d="M75.4904 61.2926C75.4904 61.3662 75.4686 61.4381 75.4277 61.4993C75.3868 61.5605 75.3287 61.6081 75.2608 61.6363C75.1928 61.6645 75.118 61.6718 75.0459 61.6575C74.9737 61.6431 74.9074 61.6077 74.8554 61.5557C74.8034 61.5036 74.768 61.4374 74.7536 61.3652C74.7392 61.293 74.7466 61.2183 74.7748 61.1503C74.8029 61.0823 74.8506 61.0242 74.9118 60.9834C74.9729 60.9425 75.0449 60.9207 75.1184 60.9207C75.1674 60.9203 75.2159 60.9298 75.2611 60.9483C75.3064 60.9669 75.3476 60.9943 75.3822 61.0289C75.4168 61.0635 75.4442 61.1046 75.4627 61.1499C75.4813 61.1952 75.4907 61.2437 75.4904 61.2926Z" fill="white" stroke="#263238" stroke-width="0.239829" stroke-linecap="round" stroke-linejoin="round"/>
<path d="M52.2601 33.1628C51.4717 33.665 50.8142 34.3476 50.3417 35.1541C49.8692 35.9606 49.5954 36.8679 49.5428 37.8011C49.303 41.0772 48.8425 44.0367 46.9838 44.8353C42.3479 46.8331 38.8296 45.1591 38.1101 45.8738C37.3906 46.5885 37.7912 47.874 37.7912 47.874C37.7912 47.874 35.5536 47.5526 34.8341 46.5141C33.6925 44.8665 33.6349 42.437 36.3522 40.4393C39.0695 38.4415 41.7076 38.5998 41.7076 38.5998C41.7076 38.5998 41.8683 38.8396 43.3864 37.0817C44.9045 35.3237 49.1423 33.8032 49.9433 33.5634C50.7055 33.3769 51.4795 33.2431 52.2601 33.1628Z" fill="#263238" stroke="#263238" stroke-width="0.239829" stroke-linecap="round" stroke-linejoin="round"/>
<path d="M41.7076 38.5998L55.7784 31.8846C55.7784 31.8846 52.4999 30.7646 52.0202 30.2849C51.5406 29.8053 50.742 28.2872 50.423 28.208C50.104 28.1289 42.2688 31.2443 41.8683 31.7239C41.4678 32.2036 41.9474 35.801 42.029 36.602C42.1105 37.4031 41.7076 38.5998 41.7076 38.5998Z" fill="white" stroke="#263238" stroke-width="0.239829" stroke-linecap="round" stroke-linejoin="round"/>
<path d="M48.1758 32.0599C48.5071 31.916 48.846 31.7902 49.1909 31.6831" stroke="#263238" stroke-width="0.239829" stroke-linecap="round" stroke-linejoin="round"/>
<path d="M42.0961 35.3717C42.0961 35.3717 44.6695 33.7577 46.9646 32.6233" stroke="#263238" stroke-width="0.239829" stroke-linecap="round" stroke-linejoin="round"/>
<path d="M41.7076 38.5998C41.7076 38.5998 41.3886 37.1609 41.3886 36.921C41.3886 36.6812 44.9069 35.4029 46.1852 35.1631C47.4635 34.9233 50.3414 34.4436 50.3414 34.4436L41.7076 38.5998Z" fill="white" stroke="#263238" stroke-width="0.239829" stroke-linecap="round" stroke-linejoin="round"/>
<path d="M49.622 48.5001C49.622 48.5001 48.9984 47.0779 47.864 46.8213C45.3866 46.2625 44.4273 47.8621 44.7462 50.0997C45.0652 52.3373 51.1425 57.5344 52.4208 58.0141C53.6991 58.4938 63.9326 60.2517 63.9326 60.2517L64.3331 60.6522L65.2924 61.1319C65.2924 61.1319 65.1317 62.1703 65.7721 62.0912C66.4124 62.0121 68.3286 62.65 68.5685 62.0121C68.8083 61.3741 68.65 60.1726 68.0888 59.9327C67.5276 59.6929 63.3738 58.8127 61.8532 58.0932C60.3327 57.3738 53.699 54.4958 53.699 54.4958L49.622 48.5001Z" fill="white" stroke="#263238" stroke-width="0.239829" stroke-linecap="round" stroke-linejoin="round"/>
<path d="M66.2086 60.6882L66.1606 62.0465" stroke="#263238" stroke-width="0.239829" stroke-linecap="round" stroke-linejoin="round"/>
<path d="M66.7913 62.096L66.9856 60.4939" stroke="#263238" stroke-width="0.239829" stroke-linecap="round" stroke-linejoin="round"/>
<path d="M67.6643 62.1919L67.8106 60.5898" stroke="#263238" stroke-width="0.239829" stroke-linecap="round" stroke-linejoin="round"/>
<path d="M156.13 103.502H159.248" stroke="#263238" stroke-width="0.239829" stroke-linecap="round" stroke-linejoin="round"/>
<path d="M26.3825 103.502H153.492" stroke="#263238" stroke-width="0.239829" stroke-linecap="round" stroke-linejoin="round"/>
<path d="M5.99701 103.502H22.3054" stroke="#263238" stroke-width="0.239829" stroke-linecap="round" stroke-linejoin="round"/>
<defs>
<linearGradient id="paint0_linear_87_816" x1="69.9877" y1="12.8498" x2="101.887" y2="98.7354" gradientUnits="userSpaceOnUse">
<stop stop-color="#92E3A9"/>
<stop offset="1" stop-color="#F9F3DF"/>
</linearGradient>
</defs>
</svg>
