<svg width="134" height="18" viewBox="0 0 134 18" fill="none" xmlns="http://www.w3.org/2000/svg">
<path d="M5.466 17.22C4.48333 17.22 3.574 17.0293 2.738 16.648C1.91667 16.252 1.242 15.702 0.714 14.998L2.342 13.04C3.19267 14.2133 4.212 14.8 5.4 14.8C6.99867 14.8 7.798 13.854 7.798 11.962V3.998H2.32V1.6H10.658V11.808C10.658 13.612 10.218 14.9687 9.338 15.878C8.458 16.7727 7.16733 17.22 5.466 17.22ZM25.7796 5.252V17H23.1616V15.504C22.7216 16.032 22.1716 16.4427 21.5116 16.736C20.8516 17.0147 20.1402 17.154 19.3776 17.154C17.8082 17.154 16.5689 16.7213 15.6596 15.856C14.7649 14.976 14.3176 13.678 14.3176 11.962V5.252H17.0676V11.588C17.0676 12.644 17.3022 13.436 17.7716 13.964C18.2556 14.4773 18.9376 14.734 19.8176 14.734C20.8002 14.734 21.5776 14.4333 22.1496 13.832C22.7362 13.216 23.0296 12.336 23.0296 11.192V5.252H25.7796ZM33.0102 17.154C32.0568 17.154 31.1255 17.0293 30.2162 16.78C29.3068 16.5307 28.5808 16.2153 28.0382 15.834L29.0942 13.744C29.6222 14.096 30.2528 14.382 30.9862 14.602C31.7342 14.8073 32.4675 14.91 33.1862 14.91C34.8288 14.91 35.6502 14.4773 35.6502 13.612C35.6502 13.2013 35.4375 12.9153 35.0122 12.754C34.6015 12.5927 33.9342 12.4387 33.0102 12.292C32.0422 12.1453 31.2502 11.9767 30.6342 11.786C30.0328 11.5953 29.5048 11.2653 29.0502 10.796C28.6102 10.312 28.3902 9.64467 28.3902 8.794C28.3902 7.67933 28.8522 6.792 29.7762 6.132C30.7148 5.45733 31.9762 5.12 33.5602 5.12C34.3668 5.12 35.1735 5.21533 35.9802 5.406C36.7868 5.582 37.4468 5.824 37.9602 6.132L36.9042 8.222C35.9068 7.63533 34.7848 7.342 33.5382 7.342C32.7315 7.342 32.1155 7.46667 31.6902 7.716C31.2795 7.95067 31.0742 8.266 31.0742 8.662C31.0742 9.102 31.2942 9.41733 31.7342 9.608C32.1888 9.784 32.8855 9.95267 33.8242 10.114C34.7628 10.2607 35.5328 10.4293 36.1342 10.62C36.7355 10.8107 37.2488 11.1333 37.6742 11.588C38.1142 12.0427 38.3342 12.688 38.3342 13.524C38.3342 14.624 37.8575 15.504 36.9042 16.164C35.9508 16.824 34.6528 17.154 33.0102 17.154ZM47.7644 16.362C47.4418 16.626 47.0458 16.824 46.5764 16.956C46.1218 17.088 45.6378 17.154 45.1244 17.154C43.8338 17.154 42.8364 16.8167 42.1324 16.142C41.4284 15.4673 41.0764 14.4847 41.0764 13.194V7.54H39.1404V5.34H41.0764V2.656H43.8264V5.34H46.9724V7.54H43.8264V13.128C43.8264 13.7 43.9658 14.14 44.2444 14.448C44.5231 14.7413 44.9264 14.888 45.4544 14.888C46.0704 14.888 46.5838 14.7267 46.9944 14.404L47.7644 16.362ZM64.4367 17L64.4147 6.792L59.3547 15.24H58.0787L53.0187 6.924V17H50.2907V1.6H52.6447L58.7607 11.808L64.7667 1.6H67.1207L67.1427 17H64.4367ZM71.0384 5.252H73.7884V17H71.0384V5.252ZM72.4244 3.316C71.9257 3.316 71.5077 3.162 71.1704 2.854C70.833 2.53133 70.6644 2.13533 70.6644 1.666C70.6644 1.19667 70.833 0.807999 71.1704 0.499999C71.5077 0.177333 71.9257 0.0159997 72.4244 0.0159997C72.923 0.0159997 73.341 0.169999 73.6784 0.477999C74.0157 0.771333 74.1844 1.14533 74.1844 1.6C74.1844 2.084 74.0157 2.49467 73.6784 2.832C73.3557 3.15467 72.9377 3.316 72.4244 3.316ZM84.0638 5.12C85.5451 5.12 86.7331 5.55267 87.6278 6.418C88.5224 7.28333 88.9698 8.56667 88.9698 10.268V17H86.2198V10.62C86.2198 9.59333 85.9778 8.82333 85.4938 8.31C85.0098 7.782 84.3204 7.518 83.4258 7.518C82.4138 7.518 81.6144 7.826 81.0278 8.442C80.4411 9.04333 80.1478 9.916 80.1478 11.06V17H77.3978V5.252H80.0158V6.77C80.4704 6.22733 81.0424 5.81667 81.7318 5.538C82.4211 5.25933 83.1984 5.12 84.0638 5.12ZM104.072 0.675999V17H101.432V15.482C100.977 16.0393 100.412 16.4573 99.7377 16.736C99.0777 17.0147 98.3444 17.154 97.5377 17.154C96.4084 17.154 95.3891 16.9047 94.4797 16.406C93.5851 15.9073 92.8811 15.2033 92.3677 14.294C91.8544 13.37 91.5977 12.314 91.5977 11.126C91.5977 9.938 91.8544 8.88933 92.3677 7.98C92.8811 7.07067 93.5851 6.36667 94.4797 5.868C95.3891 5.36933 96.4084 5.12 97.5377 5.12C98.3151 5.12 99.0264 5.252 99.6717 5.516C100.317 5.78 100.867 6.176 101.322 6.704V0.675999H104.072ZM97.8677 14.8C98.5277 14.8 99.1217 14.6533 99.6497 14.36C100.178 14.052 100.596 13.6193 100.904 13.062C101.212 12.5047 101.366 11.8593 101.366 11.126C101.366 10.3927 101.212 9.74733 100.904 9.19C100.596 8.63267 100.178 8.20733 99.6497 7.914C99.1217 7.606 98.5277 7.452 97.8677 7.452C97.2077 7.452 96.6137 7.606 96.0857 7.914C95.5577 8.20733 95.1397 8.63267 94.8317 9.19C94.5237 9.74733 94.3697 10.3927 94.3697 11.126C94.3697 11.8593 94.5237 12.5047 94.8317 13.062C95.1397 13.6193 95.5577 14.052 96.0857 14.36C96.6137 14.6533 97.2077 14.8 97.8677 14.8ZM112.443 2.744C111.285 2.744 110.705 3.37467 110.705 4.636V5.34H113.939V7.54H110.793V17H108.043V7.54H106.107V5.34H108.043V4.592C108.043 3.33067 108.41 2.34067 109.143 1.622C109.877 0.888666 110.911 0.522 112.245 0.522C113.301 0.522 114.13 0.734666 114.731 1.16L113.961 3.228C113.492 2.90533 112.986 2.744 112.443 2.744ZM127.164 5.252V17H124.546V15.504C124.106 16.032 123.556 16.4427 122.896 16.736C122.236 17.0147 121.525 17.154 120.762 17.154C119.193 17.154 117.954 16.7213 117.044 15.856C116.15 14.976 115.702 13.678 115.702 11.962V5.252H118.452V11.588C118.452 12.644 118.687 13.436 119.156 13.964C119.64 14.4773 120.322 14.734 121.202 14.734C122.185 14.734 122.962 14.4333 123.534 13.832C124.121 13.216 124.414 12.336 124.414 11.192V5.252H127.164ZM130.765 0.675999H133.515V17H130.765V0.675999Z" fill="white"/>
</svg>
