<svg width="18" height="14" viewBox="0 0 18 14" fill="none" xmlns="http://www.w3.org/2000/svg">
<path d="M2.60155 0.381516C2.70169 0.284328 2.83634 0.230895 2.97588 0.232968C3.11542 0.235042 3.24842 0.292451 3.34563 0.392572C3.45193 0.503424 3.51025 0.651696 3.50798 0.805257C3.5057 0.958818 3.443 1.1053 3.33347 1.21295C1.90375 2.65951 1.10307 4.61212 1.10563 6.646C1.10563 8.8462 2.0233 10.8319 3.49821 12.2405C3.55516 12.2931 3.60106 12.3565 3.63322 12.4271C3.66538 12.4977 3.68317 12.5739 3.68553 12.6514C3.6879 12.7289 3.6748 12.8061 3.64701 12.8785C3.61921 12.9509 3.57727 13.017 3.52364 13.073C3.42853 13.1713 3.29885 13.2285 3.16217 13.2327C3.02549 13.2368 2.89258 13.1875 2.79172 13.0951C1.90929 12.2688 1.20613 11.27 0.725884 10.1606C0.245641 9.05118 -0.00143089 7.85489 6.23349e-06 6.646C6.23349e-06 4.19814 0.995071 1.98246 2.60155 0.381516ZM14.3566 1.21295C14.2472 1.10515 14.1847 0.958589 14.1826 0.80503C14.1806 0.65147 14.2391 0.50328 14.3455 0.392572C14.4427 0.292787 14.5755 0.235592 14.7147 0.23352C14.854 0.231447 14.9884 0.284667 15.0885 0.381516C15.9142 1.20224 16.5693 2.17838 17.0158 3.25358C17.4623 4.32878 17.6915 5.48177 17.69 6.646C17.69 9.18894 16.6176 11.482 14.8983 13.0951C14.7975 13.1875 14.6646 13.2368 14.5279 13.2327C14.3912 13.2285 14.2615 13.1713 14.1664 13.073C14.1129 13.017 14.0711 12.951 14.0435 12.8787C14.0158 12.8064 14.0027 12.7293 14.0051 12.652C14.0074 12.5746 14.0252 12.4985 14.0572 12.428C14.0893 12.3576 14.1351 12.2942 14.1918 12.2416C14.9491 11.5198 15.5517 10.6515 15.963 9.68959C16.3743 8.72767 16.5857 7.69216 16.5844 6.646C16.587 4.61179 15.7864 2.65881 14.3566 1.21184V1.21295ZM4.56846 2.323C4.66698 2.22916 4.79875 2.17831 4.93477 2.18163C5.07079 2.18495 5.19992 2.24216 5.29375 2.34069C5.52372 2.57066 5.5005 2.94878 5.27385 3.18096C4.37163 4.10853 3.86772 5.35202 3.8697 6.646C3.8697 8.07226 4.47006 9.35921 5.43306 10.2669C5.6763 10.4958 5.70947 10.8872 5.47176 11.1249C5.38064 11.2196 5.25657 11.2757 5.12525 11.2815C4.99393 11.2872 4.86543 11.2422 4.76637 11.1559C4.13523 10.5864 3.63083 9.89067 3.28589 9.11374C2.94095 8.33681 2.76317 7.49606 2.76407 6.646C2.76286 5.84173 2.92178 5.04527 3.23157 4.30306C3.54136 3.56085 3.99583 2.88775 4.56846 2.323ZM12.4162 3.18096C12.1895 2.94878 12.1663 2.57066 12.3963 2.34069C12.4901 2.24216 12.6193 2.18495 12.7553 2.18163C12.8913 2.17831 13.0231 2.22916 13.1216 2.323C13.6941 2.88786 14.1484 3.56098 14.4582 4.30317C14.768 5.04535 14.927 5.84176 14.926 6.646C14.9272 7.49616 14.7496 8.33708 14.4049 9.1142C14.0601 9.89132 13.5559 10.5873 12.9248 11.157C12.8253 11.2437 12.6962 11.2887 12.5643 11.2825C12.4325 11.2764 12.3081 11.2195 12.2172 11.1238C11.9806 10.8872 12.0138 10.4958 12.257 10.2669C12.7513 9.80234 13.1451 9.2413 13.414 8.6185C13.6829 7.9957 13.8212 7.32437 13.8203 6.646C13.8223 5.35202 13.3184 4.10853 12.4162 3.18096ZM8.84502 5.26397C8.47849 5.26397 8.12696 5.40957 7.86778 5.66876C7.6086 5.92794 7.46299 6.27946 7.46299 6.646C7.46299 7.01254 7.6086 7.36406 7.86778 7.62325C8.12696 7.88243 8.47849 8.02804 8.84502 8.02804C9.21156 8.02804 9.56309 7.88243 9.82227 7.62325C10.0815 7.36406 10.2271 7.01254 10.2271 6.646C10.2271 6.27946 10.0815 5.92794 9.82227 5.66876C9.56309 5.40957 9.21156 5.26397 8.84502 5.26397Z" fill="white"/>
</svg>
