<svg width="14" height="12" viewBox="0 0 14 12" fill="none" xmlns="http://www.w3.org/2000/svg">
<path d="M2.23781 3.28408C2.11723 3.41533 1.94715 3.49462 1.76723 3.47548M2.23781 3.28408L4.20547 1.09548C4.44883 0.825872 4.42695 0.411067 4.15898 0.168528M2.23781 3.28408L2.16345 3.21722L2.16383 3.21679L2.16417 3.21642L2.23781 3.28408ZM1.76723 3.47548L4.15898 0.168528M1.76723 3.47548C1.5873 3.50556 1.4134 3.43447 1.28598 3.28408M1.76723 3.47548L1.28598 3.28408M4.15898 0.168528L4.09188 0.242669C4.09194 0.242722 4.092 0.242776 4.09206 0.242829C4.09212 0.242888 4.09219 0.242948 4.09225 0.243007L4.15898 0.168528ZM1.28598 3.28408L0.192199 2.19033M1.28598 3.28408L0.192199 2.19033M0.192199 2.19033C-0.0640664 1.9579 -0.0640664 1.54228 0.192199 1.28607M0.192199 2.19033V1.28607M0.192199 1.28607C0.448438 1.02986 0.864063 1.02986 1.12027 1.28607H0.192199ZM1.77781 7.75104L1.76422 7.7496L1.75074 7.75185C1.60998 7.77538 1.46996 7.72153 1.36227 7.59443L1.36253 7.59421L1.35669 7.58836L0.262909 6.49461L0.262993 6.49453L0.25938 6.49125C0.0490178 6.30046 0.0435897 5.95117 0.262799 5.73107C0.480035 5.51565 0.832572 5.51568 1.04974 5.73114C1.04977 5.73117 1.0498 5.73119 1.04983 5.73122L1.65415 6.33527L1.72865 6.40974L1.79915 6.33147L3.30634 4.65803L3.30644 4.65792C3.50983 4.43142 3.86216 4.41224 4.09213 4.61899L4.1588 4.54483L4.09217 4.61903C4.31867 4.82242 4.33785 5.17475 4.1311 5.40472L2.16417 7.59142C2.16406 7.59154 2.16396 7.59166 2.16385 7.59177C2.06066 7.7039 1.9205 7.76622 1.77781 7.75104ZM6.225 1.75009C6.225 1.32209 6.57131 0.975091 7 0.975091H13.125C13.5537 0.975091 13.9 1.32209 13.9 1.75009C13.9 2.17885 13.5538 2.52509 13.125 2.52509H7C6.57124 2.52509 6.225 2.17885 6.225 1.75009ZM6.225 6.12509C6.225 5.69633 6.57124 5.35009 7 5.35009H13.125C13.5538 5.35009 13.9 5.69633 13.9 6.12509C13.9 6.55385 13.5538 6.90009 13.125 6.90009H7C6.57124 6.90009 6.225 6.55385 6.225 6.12509ZM4.475 10.5001C4.475 10.0713 4.82124 9.72509 5.25 9.72509H13.125C13.5538 9.72509 13.9 10.0713 13.9 10.5001C13.9 10.9288 13.5538 11.2751 13.125 11.2751H5.25C4.82124 11.2751 4.475 10.9288 4.475 10.5001ZM0.1 10.5001C0.1 9.8307 0.642859 9.28759 1.3125 9.28759C1.98214 9.28759 2.525 9.8307 2.525 10.5001C2.525 11.1695 1.98214 11.7126 1.3125 11.7126C0.642859 11.7126 0.1 11.1695 0.1 10.5001Z" fill="white" stroke="#9EC6F6" stroke-width="0.2"/>
</svg>
