<svg width="14" height="10" viewBox="0 0 14 10" fill="none" xmlns="http://www.w3.org/2000/svg">
<path d="M10.8252 3.97436C10.8252 4.07637 10.7854 4.17419 10.7146 4.24632C10.6438 4.31845 10.5477 4.35897 10.4476 4.35897H5.41259C5.31244 4.35897 5.21639 4.31845 5.14557 4.24632C5.07475 4.17419 5.03497 4.07637 5.03497 3.97436C5.03497 3.87235 5.07475 3.77452 5.14557 3.7024C5.21639 3.63027 5.31244 3.58974 5.41259 3.58974H10.4476C10.5477 3.58974 10.6438 3.63027 10.7146 3.7024C10.7854 3.77452 10.8252 3.87235 10.8252 3.97436ZM10.4476 5.64103H5.41259C5.31244 5.64103 5.21639 5.68155 5.14557 5.75368C5.07475 5.82581 5.03497 5.92364 5.03497 6.02564C5.03497 6.12765 5.07475 6.22548 5.14557 6.29761C5.21639 6.36974 5.31244 6.41026 5.41259 6.41026H10.4476C10.5477 6.41026 10.6438 6.36974 10.7146 6.29761C10.7854 6.22548 10.8252 6.12765 10.8252 6.02564C10.8252 5.92364 10.7854 5.82581 10.7146 5.75368C10.6438 5.68155 10.5477 5.64103 10.4476 5.64103ZM13.8462 0.897436V8.58974C13.8445 8.96325 13.6981 9.32097 13.4388 9.58508C13.1795 9.84919 12.8283 9.99831 12.4615 10H1.38462C1.01848 10 0.667248 9.8523 0.407763 9.58922C0.148277 9.32613 0.00166425 8.96907 0 8.59616V2.4359C0 2.33389 0.0397851 2.23606 0.110603 2.16393C0.181421 2.0918 0.277471 2.05128 0.377622 2.05128C0.477774 2.05128 0.573824 2.0918 0.644642 2.16393C0.71546 2.23606 0.755245 2.33389 0.755245 2.4359V8.58974C0.755245 8.75976 0.821553 8.9228 0.939583 9.04302C1.05761 9.16323 1.2177 9.23077 1.38462 9.23077C1.55153 9.23077 1.71162 9.16323 1.82965 9.04302C1.94768 8.9228 2.01399 8.75976 2.01399 8.58974V0.897436C2.01399 0.659421 2.10682 0.431155 2.27206 0.262853C2.4373 0.0945511 2.66142 0 2.89511 0H12.965C13.1987 0 13.4228 0.0945511 13.5881 0.262853C13.7533 0.431155 13.8462 0.659421 13.8462 0.897436ZM13.0909 0.897436C13.0909 0.863434 13.0776 0.830824 13.054 0.806781C13.0304 0.782738 12.9984 0.769231 12.965 0.769231H2.89511C2.86172 0.769231 2.8297 0.782738 2.8061 0.806781C2.78249 0.830824 2.76923 0.863434 2.76923 0.897436V8.58974C2.7686 8.81249 2.71688 9.032 2.61818 9.23077H12.4615C12.6285 9.23077 12.7885 9.16323 12.9066 9.04302C13.0246 8.9228 13.0909 8.75976 13.0909 8.58974V0.897436Z" fill="white"/>
</svg>
