<svg width="50" height="50" viewBox="0 0 50 50" fill="none" xmlns="http://www.w3.org/2000/svg">
<path d="M1 25C1 11.7452 11.7452 1 25 1C38.2548 1 49 11.7452 49 25C49 38.2548 38.2548 49 25 49C11.7452 49 1 38.2548 1 25Z" fill="white" stroke="#BCC5DA" stroke-width="0.3"/>
<path d="M35.4697 34.2304H14.5009C13.6879 34.2304 13.0032 33.5671 13.0032 32.7326V17.5837C13.0032 16.7706 13.6665 16.0859 14.5009 16.0859H35.4697C36.2828 16.0859 36.9675 16.7492 36.9675 17.5837V32.7326C36.9675 33.5671 36.3042 34.2304 35.4697 34.2304Z" fill="#E3E3E3"/>
<path opacity="0.1" d="M15.9987 34.2307L24.9639 27.02L25.0281 26.6348L15.7847 19.9805L15.7633 33.9097L15.9987 34.2307Z" fill="#231F20"/>
<path d="M14.5009 34.2304C13.6665 34.2304 13.0032 33.5671 13.0032 32.7326V17.5624C13.0032 16.7279 13.6665 16.5781 14.5009 16.5781C15.3354 16.5781 15.9987 16.7493 15.9987 17.5624V34.2304H14.5009Z" fill="#D54B3D"/>
<path d="M14.5009 16.7921C15.5708 16.7921 15.7847 17.113 15.7847 17.5624V34.0164H14.5009C13.7949 34.0164 13.2171 33.4387 13.2171 32.7326V17.5624C13.2171 17.0916 13.4311 16.7921 14.5009 16.7921ZM14.5009 16.5781C13.6665 16.5781 13.0032 16.7493 13.0032 17.5624V32.7326C13.0032 33.5671 13.6665 34.2304 14.5009 34.2304H15.9987V17.5624C15.9987 16.7279 15.3354 16.5781 14.5009 16.5781Z" fill="#D72B27"/>
<path d="M35.4697 34.2304H33.9719V17.5196C33.9719 16.6851 34.6352 16.5781 35.4697 16.5781C36.3042 16.5781 36.9675 16.6851 36.9675 17.5196V32.754C36.9675 33.5671 36.3042 34.2304 35.4697 34.2304Z" fill="#D54B3D"/>
<path d="M35.4697 16.7921C36.4325 16.7921 36.7535 16.9847 36.7535 17.5196V32.754C36.7535 33.4601 36.1758 34.0378 35.4697 34.0378H34.1859V17.5196C34.1859 16.9633 34.5068 16.7921 35.4697 16.7921ZM35.4697 16.5781C34.6352 16.5781 33.9719 16.6851 33.9719 17.5196V34.2518H35.4697C36.3042 34.2518 36.9675 33.5885 36.9675 32.754V17.5196C36.9675 16.6851 36.3042 16.5781 35.4697 16.5781Z" fill="#D72B27"/>
<path d="M29.0507 34.229L13.1285 18.1832L13.966 18.5238L25.0495 26.5048L36.9675 17.7656L36.9675 32.7527C36.9675 33.5657 36.3042 34.229 35.4697 34.229H29.0507Z" fill="url(#paint0_linear_167_16452)"/>
<path d="M24.9639 27.0208L13.645 18.8044C12.9817 18.3123 12.7892 17.3709 13.2813 16.7076C13.7734 16.0443 14.7363 15.8945 15.421 16.3866L24.9853 23.3405L34.6138 16.301C35.2771 15.8089 36.2186 15.9587 36.7107 16.6434C37.2028 17.3067 37.053 18.2481 36.3683 18.7403L24.9639 27.0208Z" fill="#D54B3D"/>
<path d="M35.4697 16.214C35.8762 16.214 36.2614 16.4065 36.5181 16.7489C36.9247 17.3266 36.7963 18.1183 36.24 18.5462L24.9639 26.7625L13.7734 18.6318C13.1957 18.2039 13.0459 17.3908 13.4525 16.8345C13.6878 16.5135 14.0944 16.2996 14.5223 16.2996C14.8005 16.2996 15.0786 16.3851 15.2926 16.5563L24.8355 23.4889L24.9639 23.5744L25.0923 23.4889L34.6994 16.4493C34.9348 16.2996 35.1915 16.214 35.4697 16.214ZM35.4697 16C35.1701 16 34.8492 16.0856 34.5924 16.2782L24.9639 23.3177L15.3996 16.3637C15.1428 16.1712 14.8219 16.0856 14.5009 16.0856C14.0302 16.0856 13.5594 16.2996 13.2599 16.7061C12.7892 17.3694 12.9817 18.3108 13.645 18.803L24.9639 27.0407L36.347 18.7388C37.0103 18.2467 37.16 17.3266 36.6893 16.6419C36.3897 16.214 35.9404 16 35.4697 16Z" fill="#D72B27"/>
<defs>
<linearGradient id="paint0_linear_167_16452" x1="13.1295" y1="25.9969" x2="36.9752" y2="25.9969" gradientUnits="userSpaceOnUse">
<stop stop-opacity="0.1"/>
<stop offset="1" stop-opacity="0.2"/>
</linearGradient>
</defs>
</svg>
