<svg width="24" height="24" viewBox="0 0 24 24" fill="none" xmlns="http://www.w3.org/2000/svg">
<path d="M10.7427 5.09232C11.1491 5.03223 11.5684 5 12.0002 5C17.1052 5 20.455 9.50484 21.5805 11.2868C21.7167 11.5025 21.7848 11.6103 21.8229 11.7767C21.8515 11.9016 21.8515 12.0987 21.8228 12.2236C21.7847 12.3899 21.7161 12.4985 21.5789 12.7156C21.2791 13.1901 20.8219 13.8571 20.2163 14.5805M6.72408 6.71504C4.56201 8.1817 3.09421 10.2194 2.42086 11.2853C2.28404 11.5019 2.21563 11.6102 2.17749 11.7765C2.14885 11.9014 2.14884 12.0984 2.17747 12.2234C2.21559 12.3897 2.28369 12.4975 2.41989 12.7132C3.5453 14.4952 6.89517 19 12.0002 19C14.0586 19 15.8316 18.2676 17.2886 17.2766M3.00017 3L21.0002 21M9.87885 9.87868C9.33596 10.4216 9.00017 11.1716 9.00017 12C9.00017 13.6569 10.3433 15 12.0002 15C12.8286 15 13.5786 14.6642 14.1215 14.1213" stroke="#BCC5DA" stroke-width="2" stroke-linecap="round" stroke-linejoin="round"/>
</svg>
