<svg width="24" height="24" viewBox="0 0 24 24" fill="none" xmlns="http://www.w3.org/2000/svg">
<path d="M2.41988 12.7132C2.28369 12.4975 2.2156 12.3897 2.17748 12.2234C2.14885 12.0985 2.14885 11.9015 2.17748 11.7766C2.2156 11.6103 2.28369 11.5025 2.41988 11.2868C3.54528 9.50484 6.89516 5 12.0002 5C17.1052 5 20.455 9.50484 21.5804 11.2868C21.7166 11.5025 21.7847 11.6103 21.8228 11.7766C21.8515 11.9015 21.8515 12.0985 21.8228 12.2234C21.7847 12.3897 21.7166 12.4975 21.5804 12.7132C20.455 14.4952 17.1052 19 12.0002 19C6.89516 19 3.54529 14.4952 2.41988 12.7132Z" stroke="#BCC5DA" stroke-width="2" stroke-linecap="round" stroke-linejoin="round"/>
<path d="M12.0002 15C13.657 15 15.0002 13.6569 15.0002 12C15.0002 10.3431 13.657 9 12.0002 9C10.3433 9 9.00016 10.3431 9.00016 12C9.00016 13.6569 10.3433 15 12.0002 15Z" stroke="#BCC5DA" stroke-width="2" stroke-linecap="round" stroke-linejoin="round"/>
</svg>
