<svg width="48" height="48" viewBox="0 0 48 48" fill="none" xmlns="http://www.w3.org/2000/svg">
<circle cx="24" cy="24" r="24" fill="#2F89CE"/>
<path d="M11.221 24.4473L16.7387 26.5048L18.8897 33.4253C18.9832 33.8929 19.5443 33.9864 19.9184 33.7058L23.0046 31.1808C23.2851 30.9002 23.7527 30.9002 24.1268 31.1808L29.6445 35.2022C30.0186 35.4827 30.5797 35.2957 30.6732 34.8281L34.7881 15.1888C34.8817 14.7212 34.4141 14.2536 33.9465 14.4407L11.221 23.2316C10.6599 23.4186 10.6599 24.2603 11.221 24.4473ZM18.6091 25.4761L29.4575 18.8361C29.6445 18.7426 29.8316 19.0232 29.6445 19.1167L20.7601 27.44C20.4795 27.7205 20.199 28.0946 20.199 28.5622L19.9184 30.8067C19.9184 31.0873 19.4508 31.1808 19.3573 30.8067L18.235 26.6918C17.9545 26.2242 18.1415 25.6631 18.6091 25.4761Z" fill="white"/>
</svg>
