<svg width="48" height="48" viewBox="0 0 48 48" fill="none" xmlns="http://www.w3.org/2000/svg">
<circle cx="24" cy="24" r="24" fill="#7294C7"/>
<path d="M35.7671 30.1371C35.7671 30.0375 35.6675 30.0375 35.6675 29.9379C35.269 29.1409 34.3723 28.1446 33.1768 27.0487C32.579 26.5506 32.2801 26.152 32.0809 25.9528C31.782 25.5543 31.782 25.2554 31.8816 24.8569C31.9813 24.558 32.3798 24.0599 33.0771 23.1632C33.4757 22.6651 33.6749 22.3662 33.9738 22.0673C35.4682 20.0748 36.1656 18.7796 35.9663 18.1818L35.8667 18.0822C35.7671 17.9826 35.6675 17.883 35.4682 17.883C35.2689 17.7833 34.9701 17.7833 34.6712 17.883H30.8854C30.7857 17.883 30.7857 17.883 30.5865 17.883C30.4868 17.883 30.3872 17.883 30.3872 17.883H30.2876H30.188L30.0883 17.9826C29.9887 18.0822 29.9887 18.0822 29.9887 18.1818C29.5902 19.2777 29.092 20.1744 28.5939 21.1707C28.295 21.6688 27.9961 22.1669 27.6973 22.5655C27.3984 22.964 27.1991 23.2628 26.9999 23.4621C26.8006 23.6613 26.6013 23.761 26.5017 23.9602C26.4021 24.0599 26.2029 24.1595 26.2029 24.0599C26.1032 24.0599 26.0036 24.0599 26.0036 23.9602C25.904 23.8606 25.8043 23.761 25.7047 23.6613C25.6051 23.5617 25.6051 23.3625 25.5054 23.1632C25.5054 22.964 25.5054 22.7647 25.5054 22.6651C25.5054 22.5654 25.5054 22.2666 25.5054 22.0673C25.5054 21.7684 25.5054 21.5692 25.5054 21.4695C25.5054 21.1707 25.5054 20.7722 25.5054 20.3736C25.5054 19.9751 25.5054 19.6762 25.5054 19.477C25.5054 19.2777 25.5054 18.9789 25.5054 18.7796C25.5054 18.4807 25.5054 18.2815 25.5054 18.1818C25.5054 18.0822 25.4058 17.883 25.4058 17.7833C25.3062 17.6837 25.2066 17.5841 25.1069 17.4844C25.0073 17.3848 24.8081 17.3848 24.7084 17.2852C24.2103 17.1856 23.6125 17.0859 22.9152 17.0859C21.3211 17.0859 20.2252 17.1856 19.8267 17.3848C19.6274 17.4845 19.4282 17.5841 19.3286 17.7833C19.1293 17.9826 19.1293 18.0822 19.2289 18.0822C19.7271 18.1818 20.1256 18.3811 20.3248 18.68L20.4245 18.8792C20.5241 18.9789 20.5241 19.1781 20.6237 19.477C20.7233 19.7759 20.7233 20.0748 20.7233 20.4733C20.7233 21.071 20.7233 21.6688 20.7233 22.0673C20.7233 22.5655 20.6237 22.8643 20.6237 23.1632C20.6237 23.4621 20.5241 23.6614 20.4245 23.761C20.3248 23.9602 20.3248 24.0599 20.2252 24.0599C20.2252 24.0599 20.2252 24.1595 20.1256 24.1595C20.0259 24.1595 19.9263 24.2591 19.7271 24.2591C19.6274 24.2591 19.4282 24.1595 19.3286 24.0599C19.1293 23.9602 18.93 23.761 18.8304 23.5617C18.6312 23.3625 18.4319 23.0636 18.2327 22.6651C18.0334 22.2666 17.7345 21.8681 17.5352 21.2703L17.336 20.8718C17.2364 20.6725 17.0371 20.274 16.8379 19.7759C16.6386 19.2777 16.4394 18.8792 16.2401 18.3811C16.1405 18.1818 16.0409 18.0822 15.9412 17.9826H15.8416C15.8416 17.9826 15.742 17.883 15.6423 17.883C15.5427 17.883 15.4431 17.7833 15.3435 17.7833H11.7569C11.3584 17.7833 11.1591 17.883 11.0595 17.9826L10.9598 18.0822C10.9598 18.0822 10.9598 18.1818 10.9598 18.2815C10.9598 18.3811 10.9598 18.4807 11.0595 18.68C11.5576 19.8755 12.1554 21.071 12.7531 22.2666C13.3509 23.3625 13.9487 24.3587 14.3472 25.0561C14.8453 25.7535 15.2438 26.4509 15.742 27.0487C16.2401 27.6465 16.539 28.045 16.6386 28.2442C16.8379 28.4435 16.9375 28.5431 17.0371 28.6427L17.336 28.9416C17.5353 29.1409 17.8341 29.4397 18.2327 29.7386C18.6312 30.0375 19.1293 30.3364 19.6274 30.6353C20.1256 30.9342 20.7233 31.1334 21.3211 31.3327C22.0185 31.5319 22.6163 31.6316 23.214 31.5319H24.7084C25.0073 31.5319 25.2066 31.4323 25.4058 31.233L25.5054 31.1334C25.5054 31.0338 25.6051 31.0338 25.6051 30.9342C25.6051 30.8345 25.6051 30.7349 25.6051 30.5357C25.6051 30.1371 25.6051 29.8383 25.7047 29.5394C25.8043 29.2405 25.8044 29.0412 25.904 28.842C26.0036 28.6427 26.1032 28.5431 26.2029 28.4435C26.3025 28.3438 26.4021 28.2442 26.4021 28.2442H26.5017C26.701 28.1446 26.9999 28.2442 27.1991 28.4435C27.498 28.6427 27.7969 28.9416 27.9961 29.2405C28.1954 29.5394 28.4943 29.8383 28.8928 30.2368C29.2913 30.6353 29.5902 30.9342 29.7894 31.0338L30.0883 31.233C30.2876 31.3327 30.4868 31.4323 30.7857 31.5319C31.0846 31.6316 31.2838 31.6315 31.4831 31.6315L34.8705 31.5319C35.1693 31.5319 35.4682 31.4323 35.6675 31.3327C35.8667 31.233 35.9663 31.1334 35.9663 30.9342C35.9663 30.8345 35.9663 30.6353 35.9663 30.5357C35.7671 30.3364 35.7671 30.2368 35.7671 30.1371Z" fill="white"/>
</svg>
