<svg width="48" height="48" viewBox="0 0 48 48" fill="none" xmlns="http://www.w3.org/2000/svg">
<path d="M48 24C48 37.2548 37.2548 48 24 48C10.7452 48 0 37.2548 0 24C0 10.7452 10.7452 0 24 0C37.2548 0 48 10.7452 48 24Z" fill="#ED1E24"/>
<path d="M26.9114 25.2656H25.2267C22.5794 25.2656 20.0123 23.4226 20.0123 18.8142C20.0123 14.0146 22.4192 12.056 24.8656 12.056H26.9114V25.2656ZM29.5586 9.59843H24.9863C20.493 9.59843 16.6834 12.863 16.6834 19.1988C16.6834 23.0003 18.5284 25.8036 21.8177 27.1852L15.6803 37.7838C15.4794 38.1295 15.6803 38.3984 16.0008 38.3984H18.8489C19.0892 38.3984 19.2506 38.3217 19.3307 38.1295L24.9062 27.7232H26.9114V38.1295C26.9114 38.245 27.0321 38.3984 27.1924 38.3984H29.6794C29.9197 38.3984 29.9999 38.2829 29.9999 38.0916V9.98194C29.9999 9.71401 29.8396 9.59843 29.5586 9.59843Z" fill="white"/>
</svg>
