<svg xmlns="http://www.w3.org/2000/svg" xmlns:xlink="http://www.w3.org/1999/xlink" width="187" height="42"><defs><path id="a" d="M250.386 1477.24c2.851-1.532 5.836-2.83 8.553-4.595 6.831-4.435 10.743-14.742 2.017-19.91-16.732-9.908-37.774-10.213-56.355-10.72-40.766.865-18.68.702-66.168 3.16-16.08.832-32.036-1.954-47.559 2.966-10.83 3.433-16.86 14.632-6.55 23.483 11.795 10.126 24.043 11.02 39.249 11.74 21.094 1.001 37.297.928 57.87-1.02 4.394-.416 8.928-.824 13.339-.925 23.402-.67 27.932.607 47.807-1.531z"/></defs><use fill="#114182" xlink:href="#a" transform="translate(-79 -1442)"/></svg>