<svg xmlns="http://www.w3.org/2000/svg" xmlns:xlink="http://www.w3.org/1999/xlink" width="208" height="53"><defs><path id="a" d="M848.659 1425.468c3.171-1.933 6.491-3.572 9.514-5.799 7.599-5.598 11.951-18.605 2.243-25.128-18.612-12.505-42.02-12.89-62.692-13.53-45.35 1.091-20.78.886-73.608 3.988-17.887 1.05-35.638-2.466-52.906 3.744-12.05 4.332-18.757 18.466-7.286 29.638 13.12 12.78 26.746 13.908 43.66 14.817 23.467 1.262 41.493 1.17 64.379-1.288 4.887-.525 9.931-1.04 14.839-1.167 26.033-.845 31.072.766 53.182-1.933z"/></defs><use fill="#fee486" xlink:href="#a" transform="translate(-658 -1381)"/></svg>