<svg xmlns="http://www.w3.org/2000/svg" xmlns:xlink="http://www.w3.org/1999/xlink" width="187" height="53"><defs><path id="a" d="M759.614 1079.469c-2.851-1.933-5.836-3.571-8.553-5.798-6.831-5.597-10.743-18.602-2.017-25.124 16.732-12.503 37.774-12.888 56.355-13.527 40.766 1.09 18.68.884 66.168 3.986 16.08 1.05 32.036-2.465 47.559 3.744 10.83 4.332 16.86 18.463 6.55 29.633-11.795 12.778-24.043 13.906-39.249 14.815-21.094 1.263-37.298 1.17-57.87-1.288-4.394-.525-8.928-1.04-13.339-1.166-23.402-.846-27.932.765-47.807-1.933z"/></defs><use fill="#ffdd14" xlink:href="#a" transform="translate(-744 -1035)"/></svg>