<svg width="90" height="82" fill="none" xmlns="http://www.w3.org/2000/svg"><path fill-rule="evenodd" clip-rule="evenodd" d="m41.133 60.928 6.727 3.889 2.172-3.768L55.664 65 90 15.94 68.843 1.093l-3.328 4.754L55.401 0 32 40.584h2.355L56.147 2.79 74.99 13.682 47.113 62.027l-5.98-3.458v2.359Zm14.03 1.227-4.107-2.882 26.719-46.338-10.486-6.063 2.053-2.934L87.16 16.44 55.164 62.155Z" fill="#fff"/><path d="M41.04 38.59 26.71 40.68l.235-.163c4.57-3.16 5.34-4.276 5.593-4.643.845-1.225 1.245-2.656 1.13-4.03-.121-1.455-.797-2.675-1.902-3.436-.902-.621-2.034-.869-3.186-.7-1.586.23-3.07 1.197-4.07 2.649-.253.367-1.023 1.483-2.342 6.876-.148.604-.287 1.196-.412 1.75a87.448 87.448 0 0 0-.728-1.212c-2.625-4.29-3.636-4.986-3.971-5.214a5.209 5.209 0 0 0-3.709-.874 4.884 4.884 0 0 0-3.325 2.026 4.87 4.87 0 0 0-.78 3.812 5.186 5.186 0 0 0 2.163 3.235c.29.199 1.092.75 4.54 1.49L2.867 44.154a1.067 1.067 0 0 0-.901 1.208l1.089 7.47a1.064 1.064 0 0 0 1.209.9l1.385-.202 3.84 26.336a1.064 1.064 0 0 0 1.21.9l16.252-2.37c.269.066.553.024.791-.116l16.253-2.37a1.066 1.066 0 0 0 .901-1.207l-3.84-26.334 1.386-.202a1.067 1.067 0 0 0 .901-1.208l-1.089-7.47a1.064 1.064 0 0 0-1.215-.899Zm-14.777-7.025c.654-.951 1.634-1.605 2.62-1.749.439-.063 1.083-.055 1.67.349.57.39.92 1.05.988 1.856.075.886-.197 1.826-.762 2.646-.768 1.115-4.197 3.572-7.108 5.49.753-3.4 1.823-7.477 2.591-8.592ZM11.33 37.092a2.738 2.738 0 0 1 1.258-2.927 2.75 2.75 0 0 1 1.062-.374c.77-.11 1.554.077 2.193.521.291.201 1.203 1.047 3.355 4.563.44.717.85 1.417 1.199 2.021-.69-.108-1.49-.242-2.32-.395-4.058-.75-5.175-1.297-5.467-1.497a3.066 3.066 0 0 1-1.28-1.912Zm-7.1 9.016 16.976-2.475.782 5.362-16.976 2.476-.782-5.363Zm3.53 7.114 14.536-2.12 3.686 25.282-14.535 2.12L7.76 53.221Zm34.867 20.735-14.535 2.12-3.686-25.281 14.535-2.12 3.686 25.28Zm-1.553-27.743L24.1 48.69l-.782-5.364 16.975-2.476.782 5.364Z" fill="#fff"/></svg>