<svg width="41" height="41" viewBox="0 0 41 41" fill="none" xmlns="http://www.w3.org/2000/svg">
<circle cx="20.4299" cy="20.43" r="17.5" transform="rotate(10 20.4299 20.43)" fill="#E20613"/>
<path d="M18.3497 17.8185L15.0907 19.3619L17.008 22.0829L13.7969 23.7862L11.7481 20.9474L8.36217 22.5631L6.80414 19.9622L9.95801 18.4758L8.05588 15.7764L11.2702 14.0549L13.3223 16.8752L16.8102 15.2208L18.3497 17.8185Z" fill="white"/>
<path d="M30.069 27.7144L17.2823 25.4598C17.7821 24.1358 18.3453 23.2076 18.9719 22.6751C19.3007 22.3926 19.5869 22.172 19.8306 22.0133C20.0742 21.8545 20.4722 21.6473 21.0246 21.3917C21.5914 21.126 22.3637 20.8461 23.3415 20.552C24.3315 20.2601 25.5671 19.9421 27.0483 19.5981C27.684 19.4454 28.1761 19.28 28.5246 19.1019C28.8731 18.9238 29.0775 18.6636 29.1379 18.3212C29.1939 18.0033 29.0609 17.7151 28.7386 17.4565C28.4287 17.2001 28.0154 17.0264 27.4988 16.9353C25.7398 16.6251 24.702 17.2239 24.3854 18.7314C22.0424 18.2805 20.7479 18.0333 20.5019 17.9899C21.3243 14.6929 23.968 13.4381 28.4332 14.2255C29.0852 14.3404 29.6977 14.4989 30.2709 14.7008C30.8564 14.9049 31.4239 15.1752 31.9734 15.5116C32.5228 15.848 32.9339 16.2861 33.2065 16.8259C33.4813 17.3535 33.5616 17.9413 33.4473 18.5894C33.3352 19.2252 33.0779 19.785 32.6755 20.2688C32.2753 20.7404 31.7372 21.1309 31.0611 21.4404C30.3995 21.7398 29.7281 21.987 29.0469 22.1821C28.3678 22.365 27.5718 22.5272 26.659 22.6689C25.5097 22.8571 24.7344 23.0103 24.333 23.1287C23.944 23.2492 23.6819 23.4047 23.5468 23.5952L31.241 24.9519L30.069 27.7144Z" fill="white"/>
</svg>
