<svg version="1.1" id="Layer_1" xmlns="http://www.w3.org/2000/svg" xmlns:xlink="http://www.w3.org/1999/xlink" x="0px" y="0px"
	 width="100%" viewBox="0 0 1400 700" enable-background="new 0 0 1400 700" xml:space="preserve">
<path fill="#FF0000" opacity="1.000000" stroke="none" 
	d="
M351.000000,701.000000 
	C234.369019,701.000000 117.738029,701.000000 1.053520,701.000000 
	C1.053520,467.773712 1.053520,234.547424 1.053520,1.000000 
	C117.357216,1.000000 233.714722,1.000000 350.538452,1.465008 
	C351.004883,77.492737 350.997894,153.055466 351.048035,228.618149 
	C351.049255,230.468704 351.685669,232.318832 352.004639,234.345490 
	C351.983459,234.521835 351.944580,234.876373 351.569916,235.109375 
	C351.137024,237.168167 351.028137,238.993942 351.027924,240.819717 
	C351.019318,313.055115 351.018616,385.290497 351.026672,457.525879 
	C351.027069,461.017090 351.115570,464.508331 351.093719,468.455811 
	C351.016235,546.274719 351.008118,623.637329 351.000000,701.000000 
z"/>
<path fill="#007424" opacity="1.000000" stroke="none" 
	d="
M352.025818,234.169159 
	C351.685669,232.318832 351.049255,230.468704 351.048035,228.618149 
	C350.997894,153.055466 351.004883,77.492737 351.002319,1.465008 
	C700.882629,1.000000 1050.765259,1.000000 1401.000000,1.000000 
	C1401.000000,78.356300 1401.000000,155.713135 1400.542236,233.550461 
	C1052.894897,234.032364 705.705200,234.033554 358.515564,234.040726 
	C356.352325,234.040771 354.189087,234.124512 352.025818,234.169159 
z"/>
<path fill="#FFFFFF" opacity="1.000000" stroke="none" 
	d="
M351.163025,467.999542 
	C351.115570,464.508331 351.027069,461.017090 351.026672,457.525879 
	C351.018616,385.290497 351.019318,313.055115 351.027924,240.819717 
	C351.028137,238.993942 351.137024,237.168167 352.027771,235.160614 
	C354.859436,234.985901 356.858612,234.999130 358.857788,234.999130 
	C706.238525,235.000046 1053.619263,235.000000 1401.000000,235.000000 
	C1401.000000,312.354218 1401.000000,389.708466 1400.552002,467.409515 
	C1398.104248,467.747589 1396.104370,467.731110 1394.104614,467.731110 
	C1059.116577,467.729980 724.128540,467.727112 389.140533,467.741425 
	C376.481354,467.741974 363.822205,467.909698 351.163025,467.999542 
z"/>
<path fill="#000000" opacity="1.000000" stroke="none" 
	d="
M351.093689,468.455811 
	C363.822205,467.909698 376.481354,467.741974 389.140533,467.741425 
	C724.128540,467.727112 1059.116577,467.729980 1394.104614,467.731110 
	C1396.104370,467.731110 1398.104248,467.747589 1400.552002,467.878174 
	C1401.000000,545.641052 1401.000000,623.282166 1401.000000,701.000000 
	C1051.307495,701.000000 701.614990,701.000000 351.461243,701.000000 
	C351.008118,623.637329 351.016235,546.274719 351.093689,468.455811 
z"/>
<path fill="#91CEB5" opacity="1.000000" stroke="none" 
	d="
M1401.000000,234.750000 
	C1053.619263,235.000000 706.238525,235.000046 358.857788,234.999130 
	C356.858612,234.999130 354.859436,234.985901 352.402405,234.927612 
	C351.944580,234.876373 351.983459,234.521835 352.004639,234.345490 
	C354.189087,234.124512 356.352325,234.040771 358.515564,234.040726 
	C705.705200,234.033554 1052.894897,234.032364 1400.542236,234.015472 
	C1401.000000,234.000000 1401.000000,234.500000 1401.000000,234.750000 
z"/>
</svg>