<?xml version="1.0" encoding="utf-8"?><svg xmlns="http://www.w3.org/2000/svg" xmlns:xlink="http://www.w3.org/1999/xlink"><symbol fill="none" viewBox="0 0 70 70" id="IP" xmlns="http://www.w3.org/2000/svg"><circle cx="35" cy="35" r="35" fill="#E63739"/><path d="M55.455 37.22h-3.71l-.462-2.16a.878.878 0 00-.853-.717.895.895 0 00-.901.657l-.936 3.307-1.257-2.71a.892.892 0 00-.71-.514.905.905 0 00-.807.335l-1.303 1.648-.427-1.027a.894.894 0 00-.889-.55.874.874 0 00-.806.67l-1.624 6.04-1.718-14.566a.893.893 0 00-.9-.8.881.881 0 00-.89.8l-1.35 11.69-1.553-7.344a.884.884 0 00-.913-.716c-.45.012-.794.334-.865.788l-.842 6.232-1.019-3.343a.898.898 0 00-1.742.084l-.45 2.209H24.51a.546.546 0 00-.546.549c0 .31.25.55.546.55h4.171a.927.927 0 00.89-.73l.331-1.6 1.055 3.475a.9.9 0 001.754-.155l.806-5.994 1.564 7.403a.89.89 0 00.925.717.884.884 0 00.853-.8l1.292-11.2 1.636 13.91a.891.891 0 00.83.8h.07a.887.887 0 00.866-.669l1.742-6.483.332.8c.13.298.39.501.71.55a.89.89 0 00.83-.335l1.304-1.66 1.351 2.902c.166.346.51.549.89.525a.902.902 0 00.793-.657l.865-3.056.32 1.54a.901.901 0 00.877.716h3.876c.308 0 .545-.25.545-.549a.532.532 0 00-.533-.561z" fill="#fff"/><path d="M35.247 46.32v-3.523a.61.61 0 00-.604-.609.61.61 0 00-.605.609v3.522c0 1.91-1.54 3.475-3.448 3.475h-9.944c-1.896 0-3.449-1.552-3.449-3.475V23.681c0-1.91 1.54-3.475 3.449-3.475h9.944c1.896 0 3.448 1.552 3.448 3.475v5.003a.61.61 0 00.605.608.61.61 0 00.604-.608V23.68c0-2.58-2.086-4.681-4.645-4.681h-9.956C18.086 19 16 21.102 16 23.68v22.64c0 2.578 2.086 4.68 4.646 4.68h9.944c2.571 0 4.657-2.102 4.657-4.68z" fill="#fff"/><path d="M32.26 25.376a.61.61 0 00-.604-.609H19.58a.61.61 0 000 1.218h12.077a.61.61 0 00.605-.609zM18.987 45.352a.61.61 0 00.604.61h12.077a.61.61 0 000-1.219H19.58a.6.6 0 00-.592.61z" fill="#fff"/></symbol><symbol fill="none" viewBox="0 0 12 12" id="breadcrumb-arrow" xmlns="http://www.w3.org/2000/svg"><g clip-path="url(#abclip0_55_11447)"><path d="M9.113.16a.545.545 0 010 .771L4.044 6l5.07 5.069a.545.545 0 01-.772.771L2.887 6.386a.545.545 0 010-.772L8.342.16a.545.545 0 01.771 0z" fill="#A7A7A7"/></g><defs><clipPath id="abclip0_55_11447"><path fill="#fff" transform="matrix(0 -1 -1 0 12 12)" d="M0 0h12v12H0z"/></clipPath></defs></symbol><symbol fill="none" viewBox="0 0 16 16" id="call" xmlns="http://www.w3.org/2000/svg"><path d="M6.626 9.291c-1.527-1.513-1.872-3.027-1.95-3.633a.54.54 0 01.158-.455L6.07 3.98a.543.543 0 00.077-.676L4.18.275a.554.554 0 00-.715-.2L.306 1.55a.543.543 0 00-.303.543c.165 1.558.85 5.388 4.65 9.153 3.798 3.765 7.662 4.444 9.235 4.608a.55.55 0 00.549-.301l1.487-3.13a.544.544 0 00-.2-.708L12.67 9.766a.555.555 0 00-.683.077l-1.235 1.224a.552.552 0 01-.46.156c-.61-.077-2.138-.418-3.665-1.932z" fill="#fff"/><path d="M12.69 8.474a.55.55 0 01-.552-.546c-.002-2.264-1.853-4.099-4.137-4.101a.55.55 0 01-.552-.547A.55.55 0 018 2.733c2.893.004 5.237 2.327 5.24 5.195a.55.55 0 01-.551.546z" fill="#fff"/><path d="M15.448 8.474a.55.55 0 01-.551-.546c-.005-3.773-3.09-6.83-6.896-6.835a.55.55 0 01-.552-.546A.55.55 0 018 0c4.416.005 7.995 3.551 8 7.928a.544.544 0 01-.162.386.554.554 0 01-.39.16z" fill="#fff"/></symbol><symbol fill="none" viewBox="0 0 22 22" id="coin" xmlns="http://www.w3.org/2000/svg"><path d="M18.778 3.222A10.928 10.928 0 0011 0C8.062 0 5.3 1.144 3.222 3.222A10.928 10.928 0 000 11c0 2.938 1.144 5.7 3.222 7.778A10.928 10.928 0 0011 22c2.938 0 5.7-1.144 7.778-3.222A10.928 10.928 0 0022 11c0-2.938-1.144-5.7-3.222-7.778zM11 20.71c-5.355 0-9.71-4.356-9.71-9.711S5.644 1.29 11 1.29s9.71 4.355 9.71 9.71-4.355 9.71-9.71 9.71z" fill="#E63739"/><path d="M11.69 10.355h-1.38c-.787 0-1.427-.64-1.427-1.426 0-.787.64-1.427 1.427-1.427h2.761a.644.644 0 100-1.289h-1.426V4.787a.644.644 0 10-1.29 0v1.426h-.045A2.719 2.719 0 007.594 8.93a2.719 2.719 0 002.716 2.716h1.38c.787 0 1.427.64 1.427 1.426 0 .787-.64 1.427-1.427 1.427H8.93a.644.644 0 100 1.289h1.426v1.426a.645.645 0 101.29 0v-1.426h.045a2.719 2.719 0 002.716-2.716 2.719 2.719 0 00-2.716-2.716z" fill="#E63739"/></symbol><symbol fill="none" viewBox="0 0 20 20" id="email" xmlns="http://www.w3.org/2000/svg"><path d="M13.257 10.103L20 14.365V5.66l-6.743 4.443zM0 5.66v8.705l6.742-4.262L0 5.66zm18.75-2.535H1.25c-.624 0-1.119.465-1.212 1.064L10 10.752l9.963-6.563c-.094-.599-.59-1.064-1.213-1.064zm-6.637 7.733l-1.77 1.165a.625.625 0 01-.687 0l-1.768-1.167L.04 15.82c.096.594.589 1.055 1.21 1.055h17.5c.621 0 1.114-.461 1.21-1.055l-7.848-4.962z" fill="#E5E5E5"/></symbol><symbol fill="none" viewBox="0 0 19 20" id="fb" xmlns="http://www.w3.org/2000/svg"><g clip-path="url(#afclip0_3234_4527)"><path d="M12.436 3.213h1.703V.136A21.216 21.216 0 0011.658 0C9.202 0 7.52 1.602 7.52 4.546v2.71H4.81v3.438h2.71v8.654h3.322v-8.653h2.6l.413-3.439h-3.014v-2.37c.001-.993.26-1.673 1.595-1.673z" fill="#E5E5E5"/></g><defs><clipPath id="afclip0_3234_4527"><path fill="#fff" d="M0 0h18.657v19.348H0z"/></clipPath></defs></symbol><symbol fill="none" viewBox="0 0 19 20" id="insta" xmlns="http://www.w3.org/2000/svg"><g clip-path="url(#agclip0_3234_4530)" fill="#E5E5E5"><path d="M12.827 0H5.83C2.61 0 0 2.707 0 6.046v7.256c0 3.338 2.61 6.046 5.83 6.046h6.997c3.22 0 5.83-2.708 5.83-6.046V6.046c0-3.339-2.61-6.046-5.83-6.046zm4.081 13.302c0 2.333-1.83 4.232-4.081 4.232H5.83c-2.25 0-4.08-1.899-4.08-4.232V6.046c0-2.334 1.83-4.232 4.08-4.232h6.997c2.25 0 4.081 1.898 4.081 4.232v7.256z"/><path d="M9.329 4.837c-2.576 0-4.664 2.166-4.664 4.837s2.088 4.837 4.664 4.837c2.576 0 4.664-2.166 4.664-4.837S11.905 4.837 9.33 4.837zm0 7.86c-1.607 0-2.915-1.357-2.915-3.023 0-1.668 1.308-3.023 2.915-3.023s2.915 1.355 2.915 3.023c0 1.666-1.308 3.023-2.915 3.023zm5.014-7.578a.633.633 0 00.621-.645.633.633 0 00-.621-.644.633.633 0 00-.622.644c0 .356.278.645.622.645z"/></g><defs><clipPath id="agclip0_3234_4530"><path fill="#fff" d="M0 0h18.657v19.348H0z"/></clipPath></defs></symbol><symbol fill="none" viewBox="0 0 70 70" id="internet" xmlns="http://www.w3.org/2000/svg"><circle cx="35" cy="35" r="35" fill="#E63739"/><g clip-path="url(#ahclip0_55_6434)" fill="#fff"><path d="M28.844 55h12.508c3.22 0 5.844-2.627 5.844-5.85v-28.3c0-3.223-2.624-5.85-5.844-5.85H28.844C25.624 15 23 17.627 23 20.85v28.3c0 3.223 2.624 5.85 5.844 5.85zm-4.338-34.15a4.345 4.345 0 014.338-4.343h12.508a4.345 4.345 0 014.338 4.344v28.298a4.345 4.345 0 01-4.338 4.343H28.844a4.345 4.345 0 01-4.338-4.343V20.851z"/><path d="M27.502 23.731h15.191c.418 0 .76-.343.76-.76a.764.764 0 00-.76-.762h-15.19a.764.764 0 00-.761.761c0 .418.343.761.76.761zm0 24.971h15.191c.418 0 .76-.344.76-.762a.764.764 0 00-.76-.76h-15.19a.764.764 0 00-.761.76c0 .418.343.762.76.762zm11.464-7.971a.54.54 0 01-.402-.164c-3.026-2.776-5.993-.134-6.127-.03a.595.595 0 01-.85-.044.597.597 0 01.045-.851c1.341-1.224 4.68-2.776 7.737.03a.608.608 0 01.03.85.51.51 0 01-.433.21z"/><path d="M40.487 37.761a.54.54 0 01-.403-.164c-4.696-4.313-9.347-.209-9.54-.045a.577.577 0 01-.835-.044.578.578 0 01.044-.836c.06-.045 5.636-5.015 11.151.044a.609.609 0 01.03.851.706.706 0 01-.447.194z"/><path d="M41.978 34.403a.54.54 0 01-.403-.164c-2.713-2.493-5.74-3.269-8.99-2.314-2.474.732-4.159 2.24-4.173 2.254a.576.576 0 01-.835-.045.578.578 0 01.044-.836c.075-.074 1.879-1.686 4.592-2.507 2.535-.761 6.366-.94 10.167 2.567a.609.609 0 01.03.851.537.537 0 01-.432.194z"/></g><defs><clipPath id="ahclip0_55_6434"><path fill="#fff" transform="translate(23 15)" d="M0 0h24.21v40H0z"/></clipPath></defs></symbol><symbol fill="none" viewBox="0 0 20 20" id="linkedin" xmlns="http://www.w3.org/2000/svg"><path d="M3.119.949a2.185 2.185 0 012.17 2.181C5.287 4.383 4.247 5.328 3.104 5.3 1.946 5.324.928 4.356.928 3.122c0-1.197.986-2.174 2.191-2.173zm1.265 18.099H1.833a.6.6 0 01-.6-.6V7.565a.6.6 0 01.6-.6h2.551a.6.6 0 01.6.6V18.45a.6.6 0 01-.6.6zm14.688-8.26a4.132 4.132 0 00-4.131-4.132h-.655a3.668 3.668 0 00-3.215 1.898.275.275 0 00-.034-.004V7.214a.249.249 0 00-.25-.25H7.605a.249.249 0 00-.249.25v11.585c0 .138.112.25.25.25h3.252a.249.249 0 00.249-.249v-6.693c0-1.157.923-2.118 2.08-2.13.59-.008 1.126.23 1.511.615.381.38.617.907.617 1.488v6.721a.25.25 0 00.248.25h3.261a.249.249 0 00.25-.25v-8.013z" fill="#E5E5E5"/></symbol><symbol fill="none" viewBox="0 0 70 70" id="local" xmlns="http://www.w3.org/2000/svg"><circle cx="35" cy="35" r="35" fill="#E63739"/><g clip-path="url(#ajclip0_55_6369)" fill="#fff"><path d="M27.498 42.806h15.16c.418 0 .76-.343.76-.761a.764.764 0 00-.76-.762h-1.265v-5.611l.774.656a.762.762 0 001.072-.09.757.757 0 00-.089-1.059l-7.58-6.418a.744.744 0 00-.968 0l-7.58 6.418a.756.756 0 00-.09 1.06.752.752 0 001.057.09l.774-.657v5.611h-1.265a.764.764 0 00-.76.762c.015.418.343.76.76.76zm7.595-12.478l4.81 4.075v6.895h-9.635v-6.895l4.825-4.075z"/><path d="M28.838 55h12.495c3.217 0 5.838-2.627 5.838-5.85v-28.3c0-3.223-2.621-5.85-5.838-5.85H28.838C25.621 15 23 17.627 23 20.85v28.3c0 3.223 2.621 5.85 5.838 5.85zm-4.334-34.15a4.343 4.343 0 014.334-4.343h12.495a4.343 4.343 0 014.334 4.344v28.298a4.343 4.343 0 01-4.334 4.343H28.838a4.343 4.343 0 01-4.334-4.343V20.851z"/><path d="M27.498 23.731h15.175c.417 0 .76-.343.76-.76a.764.764 0 00-.76-.762H27.498a.764.764 0 00-.76.761c0 .418.343.761.76.761zm0 24.971h15.175c.417 0 .76-.344.76-.762a.764.764 0 00-.76-.76H27.498a.764.764 0 00-.76.76c0 .418.343.762.76.762z"/></g><defs><clipPath id="ajclip0_55_6369"><path fill="#fff" transform="translate(23 15)" d="M0 0h24.186v40H0z"/></clipPath></defs></symbol><symbol fill="none" viewBox="0 0 70 70" id="one-rate" xmlns="http://www.w3.org/2000/svg"><circle cx="35" cy="35" r="35" fill="#E63739"/><path d="M35.547 36.82c.28.06.754.27.813.464.03.09-.045.328-.281.626-.148.075-.473.24-.902.344-.014 0-.03 0-.03.015a3.206 3.206 0 01-2.068-.18.758.758 0 00-.99.389.771.771 0 00.384 1 4.63 4.63 0 001.862.388c.103 0 .207 0 .31-.015l.074.567c.06.373.37.657.74.657.029 0 .073 0 .103-.015a.753.753 0 00.635-.851l-.089-.672c.518-.194.828-.388.872-.418a.748.748 0 00.163-.149c.65-.776.872-1.507.635-2.194-.384-1.104-1.773-1.418-1.92-1.448-2.055-.462-2.513-1.164-2.528-1.403.015-.03 0-.015.015-.074.089-.612.37-.836.561-.956.769-.477 2.173-.149 2.66.015a.746.746 0 00.946-.462.757.757 0 00-.458-.956 6.481 6.481 0 00-2.113-.343l-.074-.492a.748.748 0 00-.842-.642.753.753 0 00-.636.85l.074.568a1.867 1.867 0 00-.34.179c-.68.418-1.123 1.104-1.27 2-.045.194-.104.716.25 1.313.532.851 1.685 1.493 3.444 1.896z" fill="#fff"/><path d="M34.985 43.134c.355 0 .71-.03 1.064-.074 4.123-.597 6.99-4.463 6.4-8.627-.592-4.164-4.42-7.06-8.543-6.463-1.995.284-3.753 1.343-4.965 2.97a7.65 7.65 0 00-1.434 5.657c.562 3.791 3.798 6.537 7.478 6.537zm-4.832-11.298a6.065 6.065 0 013.99-2.388 5.61 5.61 0 01.857-.06c2.956 0 5.557 2.209 5.985 5.239.473 3.328-1.832 6.433-5.128 6.91-3.295.478-6.37-1.85-6.842-5.179a6.123 6.123 0 011.138-4.522z" fill="#fff"/><path d="M41.192 15H28.793C25.601 15 23 17.627 23 20.85v28.3c0 3.223 2.601 5.85 5.793 5.85h12.4c3.191 0 5.792-2.627 5.792-5.85v-28.3C47 17.628 44.4 15 41.192 15zm4.3 34.15c0 2.387-1.92 4.343-4.3 4.343H28.793c-2.364 0-4.3-1.94-4.3-4.344V20.851c0-2.388 1.92-4.343 4.3-4.343h12.4c2.364 0 4.3 1.94 4.3 4.343v28.298z" fill="#fff"/><path d="M42.522 22.209H27.463a.76.76 0 000 1.522h15.06a.76.76 0 000-1.522zm0 24.971H27.463a.76.76 0 000 1.522h15.06a.76.76 0 000-1.523z" fill="#fff"/></symbol><symbol fill="none" viewBox="0 0 70 70" id="one-sim-card" xmlns="http://www.w3.org/2000/svg"><circle cx="35" cy="35" r="35" fill="#E63739"/><g clip-path="url(#alclip0_55_6449)" fill="#fff"><path d="M46.954 24.772l-4.799-4.196a2.408 2.408 0 00-1.59-.576H25.498c-1.24 0-2.25.882-2.25 1.967V48.55c0 1.085 1.01 1.967 2.25 1.967h19.865c1.24 0 2.25-.882 2.25-1.967V26.163c0-.525-.234-1.02-.66-1.39zM45.568 48.55c0 .099-.092.179-.205.179H25.498c-.113 0-.205-.08-.205-.18V21.968c0-.099.092-.179.205-.179h15.067a.22.22 0 01.145.052l4.798 4.197c.038.034.06.078.06.126V48.55z"/><path d="M41.002 29.796H29.859c-1.24 0-2.25.882-2.25 1.967v13.132c0 1.085 1.01 1.967 2.25 1.967h11.143c1.24 0 2.249-.882 2.249-1.967V31.763c0-1.085-1.01-1.967-2.25-1.967zm-4.328 12.729v2.549h-2.487v-2.55h2.487zm-7.02-1.788V35.92h11.552v4.816H29.655zm4.533-6.604v-2.55h2.487v2.55h-2.487zm7.02-2.37v2.37h-2.488v-2.55h2.283c.113 0 .204.081.204.18zm-11.348-.18h2.283v2.55h-2.487v-2.37c0-.099.091-.18.204-.18zm-.204 13.312v-2.37h2.487v2.549H29.86c-.113 0-.204-.08-.204-.179zm11.347.179h-2.283v-2.55h2.487v2.371c0 .099-.091.179-.204.179z"/></g><defs><clipPath id="alclip0_55_6449"><path fill="#fff" transform="translate(18 20)" d="M0 0h34.897v30.517H0z"/></clipPath></defs></symbol><symbol fill="none" viewBox="0 0 70 70" id="overseas-charge" xmlns="http://www.w3.org/2000/svg"><circle cx="35" cy="35" r="35" fill="#E63739"/><g clip-path="url(#amclip0_55_6423)" fill="#fff"><path d="M44.103 31.522a.748.748 0 00-.708-.477h-6.577v-.791a.768.768 0 00-.768-.761h-7.345a.768.768 0 00-.768.76v14.478a.768.768 0 001.535 0V38.09h4.14v.79c0 .418.346.762.767.762h9.016a.754.754 0 00.512-1.314l-3.296-2.985 3.296-2.985a.78.78 0 00.196-.836zm-14.63-.507h5.824v5.567h-5.825v-5.567zm9.497 3.761a.722.722 0 00-.24.552c0 .21.09.418.24.553l2.454 2.224h-6.292v-.015h.918a.768.768 0 00.768-.762v-4.776h4.606l-2.454 2.224z"/><path d="M41.529 16H28.9c-3.25 0-5.9 2.627-5.9 5.85v28.3c0 3.223 2.65 5.85 5.9 5.85h12.63c3.251 0 5.9-2.627 5.9-5.85v-28.3c.015-3.223-2.634-5.85-5.9-5.85zm4.38 34.15c0 2.387-1.957 4.343-4.38 4.343H28.9c-2.408 0-4.38-1.94-4.38-4.344V21.851c0-2.388 1.957-4.343 4.38-4.343h12.63c2.408 0 4.38 1.94 4.38 4.343v28.298z"/><path d="M27.546 24.731h15.338a.768.768 0 00.767-.76.768.768 0 00-.767-.762H27.546a.768.768 0 00-.768.761c0 .418.346.761.768.761zM42.884 48.18H27.546a.768.768 0 00-.768.76c0 .418.346.762.768.762h15.338a.768.768 0 00.767-.762.768.768 0 00-.767-.76z"/></g><defs><clipPath id="amclip0_55_6423"><path fill="#fff" transform="translate(23 16)" d="M0 0h24.444v40H0z"/></clipPath></defs></symbol><symbol fill="none" viewBox="0 0 20 20" id="phone" xmlns="http://www.w3.org/2000/svg"><g clip-path="url(#anclip0_3233_6038)"><path d="M18.395 13.128a11.37 11.37 0 01-3.566-.568c-.558-.19-1.245-.016-1.585.334l-2.249 1.697C8.387 13.2 6.781 11.593 5.407 9.005l1.648-2.19a1.617 1.617 0 00.398-1.638 11.373 11.373 0 01-.57-3.572C6.883.72 6.163 0 5.278 0H1.605C.72 0 0 .72 0 1.605 0 11.748 8.252 20 18.395 20 19.28 20 20 19.28 20 18.395v-3.662c0-.885-.72-1.605-1.605-1.605z" fill="#E5E5E5"/></g><defs><clipPath id="anclip0_3233_6038"><path fill="#fff" d="M0 0h20v20H0z"/></clipPath></defs></symbol><symbol fill="none" viewBox="0 0 20 20" id="pin" xmlns="http://www.w3.org/2000/svg"><path d="M10 0C5.864 0 2.5 3.365 2.5 7.5c0 5.533 6.92 12.11 7.214 12.387a.418.418 0 00.572 0C10.58 19.609 17.5 13.033 17.5 7.5 17.5 3.365 14.136 0 10 0zm0 11.667A4.172 4.172 0 015.833 7.5 4.172 4.172 0 0110 3.333 4.172 4.172 0 0114.167 7.5 4.172 4.172 0 0110 11.667z" fill="#E5E5E5"/></symbol><symbol fill="none" viewBox="0 0 22 22" id="red-phone" xmlns="http://www.w3.org/2000/svg"><g clip-path="url(#apclip0_55_11637)"><path d="M19.627 14.343c-1.306 0-2.59-.206-3.807-.606-.594-.205-1.328-.017-1.689.356l-2.4 1.811c-2.784-1.483-4.496-3.2-5.963-5.962l1.756-2.34a1.715 1.715 0 00.422-1.744 12.081 12.081 0 01-.605-3.812A1.713 1.713 0 005.629.334H1.712C.767.334 0 1.101 0 2.046 0 12.87 8.802 21.672 19.627 21.672c.944 0 1.711-.767 1.711-1.711v-3.907c0-.944-.767-1.711-1.711-1.711z" fill="#E63739"/></g><g clip-path="url(#apclip1_55_11637)" fill="#E63739"><path d="M12.563 0a.562.562 0 100 1.125c4.033 0 7.315 3.283 7.315 7.316a.562.562 0 101.126 0C21 3.785 17.214 0 12.563 0z"/><path d="M12.563 2.251a.562.562 0 100 1.125 5.07 5.07 0 015.064 5.065.562.562 0 101.126 0 6.196 6.196 0 00-6.19-6.19z"/><path d="M12.563 4.502a.562.562 0 100 1.125c1.55 0 2.813 1.26 2.813 2.814a.562.562 0 101.126 0 3.943 3.943 0 00-3.94-3.94z"/><path d="M12.563 6.753a.562.562 0 100 1.125c.311 0 .563.252.563.563a.562.562 0 101.125 0c0-.934-.758-1.688-1.688-1.688z"/></g><defs><clipPath id="apclip0_55_11637"><path fill="#fff" transform="translate(0 .334)" d="M0 0h21.338v21.338H0z"/></clipPath><clipPath id="apclip1_55_11637"><path fill="#fff" transform="translate(12)" d="M0 0h9v9H0z"/></clipPath></defs></symbol><symbol fill="none" viewBox="0 0 20 20" id="red-wifi" xmlns="http://www.w3.org/2000/svg"><g clip-path="url(#aqclip0_55_11672)" fill="#E63739"><path d="M1.25 0a1.25 1.25 0 100 2.501c8.963 0 16.257 7.295 16.257 16.257 0 .692.559 1.25 1.25 1.25.693 0 1.251-.558 1.251-1.25C20 8.412 11.588 0 1.251 0z"/><path d="M1.25 5.002a1.25 1.25 0 100 2.501c6.203 0 11.255 5.044 11.255 11.255 0 .692.559 1.25 1.25 1.25.693 0 1.251-.558 1.251-1.25 0-7.587-6.169-13.756-13.755-13.756z"/><path d="M1.25 10.004A1.25 1.25 0 000 11.254c0 .693.559 1.251 1.25 1.251a6.26 6.26 0 016.253 6.253c0 .692.559 1.25 1.25 1.25.693 0 1.251-.558 1.251-1.25 0-4.827-3.926-8.754-8.753-8.754z"/><path d="M1.25 15.006A1.25 1.25 0 000 16.256c0 .693.559 1.251 1.25 1.251a1.25 1.25 0 011.251 1.25c0 .693.559 1.251 1.25 1.251.693 0 1.251-.558 1.251-1.25a3.752 3.752 0 00-3.751-3.752z"/></g><defs><clipPath id="aqclip0_55_11672"><path fill="#fff" d="M0 0h20v20H0z"/></clipPath></defs></symbol><symbol fill="none" viewBox="0 0 16 16" id="search" xmlns="http://www.w3.org/2000/svg"><path d="M15.849 15.13l-4.131-4.065a6.534 6.534 0 001.746-4.44C13.464 2.965 10.45 0 6.732 0 3.014 0 0 2.966 0 6.625c0 3.658 3.014 6.624 6.732 6.624a6.77 6.77 0 004.237-1.48l4.147 4.082c.202.199.53.199.732 0a.504.504 0 000-.722zm-9.117-2.9c-3.146 0-5.696-2.51-5.696-5.605 0-3.096 2.55-5.606 5.696-5.606s5.696 2.51 5.696 5.606c0 3.095-2.55 5.605-5.696 5.605z" fill="#E5E5E5"/></symbol><symbol fill="none" viewBox="0 0 14 14" id="select-arrow" xmlns="http://www.w3.org/2000/svg"><g clip-path="url(#asclip0_55_10394)"><path d="M13.814 3.368a.636.636 0 00-.9 0L7 9.282 1.086 3.368a.636.636 0 00-.9.9l6.364 6.364a.636.636 0 00.9 0l6.364-6.364a.636.636 0 000-.9z" fill="#FAFAFA"/></g><defs><clipPath id="asclip0_55_10394"><path fill="#fff" d="M0 0h14v14H0z"/></clipPath></defs></symbol><symbol fill="none" viewBox="0 0 70 70" id="services-1" xmlns="http://www.w3.org/2000/svg"><circle cx="35" cy="35" r="35" fill="#E63739"/><g clip-path="url(#atclip0_55_10602)" fill="#fff"><path d="M27.498 42.806h15.16c.418 0 .76-.343.76-.761a.764.764 0 00-.76-.762h-1.265v-5.611l.774.656a.762.762 0 001.072-.09.757.757 0 00-.089-1.059l-7.58-6.418a.744.744 0 00-.968 0l-7.58 6.418a.757.757 0 00-.09 1.06.752.752 0 001.057.09l.775-.657v5.611h-1.266a.764.764 0 00-.76.762c.015.418.343.76.76.76zm7.595-12.478l4.81 4.075v6.895h-9.635v-6.895l4.825-4.075z"/><path d="M28.838 55h12.495c3.217 0 5.838-2.627 5.838-5.85v-28.3c0-3.223-2.621-5.85-5.838-5.85H28.838C25.621 15 23 17.627 23 20.85v28.3c0 3.223 2.621 5.85 5.838 5.85zm-4.334-34.15a4.343 4.343 0 014.334-4.343h12.495a4.343 4.343 0 014.334 4.344v28.298a4.343 4.343 0 01-4.334 4.343H28.838a4.343 4.343 0 01-4.334-4.343V20.851z"/><path d="M27.498 23.731h15.176c.417 0 .76-.343.76-.76a.764.764 0 00-.76-.762H27.498a.764.764 0 00-.76.761c0 .418.343.761.76.761zm0 24.971h15.176c.417 0 .76-.344.76-.762a.764.764 0 00-.76-.76H27.498a.764.764 0 00-.76.76c0 .418.343.762.76.762z"/></g><defs><clipPath id="atclip0_55_10602"><path fill="#fff" transform="translate(23 15)" d="M0 0h24.186v40H0z"/></clipPath></defs></symbol><symbol fill="none" viewBox="0 0 70 70" id="services-2" xmlns="http://www.w3.org/2000/svg"><circle cx="35" cy="35" r="35" fill="#E63739"/><g clip-path="url(#auclip0_55_10630)" fill="#fff"><path d="M49.822 43.608a3.93 3.93 0 00.981-2.596c0-2.187-1.803-3.967-4.02-3.967a4.04 4.04 0 00-3.039 1.37 3.935 3.935 0 00-.98 2.597c0 2.187 1.803 3.967 4.02 3.967a4.04 4.04 0 003.038-1.37zm-5.886-2.596c0-.675.247-1.328.695-1.838a2.861 2.861 0 012.152-.972c1.57 0 2.847 1.26 2.847 2.81a2.78 2.78 0 01-.694 1.838 2.862 2.862 0 01-2.153.972c-1.57 0-2.846-1.26-2.846-2.81z"/><path d="M52.2 35.709a7.643 7.643 0 00-5.233-2.234 7.64 7.64 0 00-5.521 2.143 7.434 7.434 0 00-2.302 5.394c0 .98.189 1.935.562 2.84a.59.59 0 00.764.317c.3-.12.444-.458.322-.754a6.27 6.27 0 01-.476-2.403c0-1.733.692-3.355 1.949-4.566a6.466 6.466 0 014.675-1.814c1.668.039 3.24.71 4.428 1.892a6.305 6.305 0 01.605 8.297l-3.189 4.339a6.835 6.835 0 00-1.177 2.6l-.239 1.09a.6.6 0 01-1.169 0l-.239-1.09a6.835 6.835 0 00-1.177-2.6l-2.755-3.75a.591.591 0 00-.82-.128.574.574 0 00-.13.808l2.755 3.749c.479.651.809 1.38.98 2.166l.24 1.09a1.775 1.775 0 001.73 1.378c.828 0 1.556-.58 1.731-1.378l.24-1.09a5.69 5.69 0 01.98-2.166l3.184-4.334a7.448 7.448 0 00-.718-9.797zM21.81 24.478c.968 0 1.888-.415 2.521-1.137a3.263 3.263 0 00.507-3.534.59.59 0 00-.778-.283.575.575 0 00-.287.768 2.115 2.115 0 01-.328 2.29 2.174 2.174 0 01-1.635.739c-1.192 0-2.163-.958-2.163-2.135 0-.513.188-1.009.528-1.396a2.174 2.174 0 011.965-.713c.32.048.62-.169.669-.485a.58.58 0 00-.491-.66 3.353 3.353 0 00-3.03 1.1 3.265 3.265 0 00-.813 2.154c0 1.815 1.496 3.292 3.335 3.292z"/><path d="M19.354 28.323c.373.508.63 1.077.765 1.69l.191.873a1.538 1.538 0 001.5 1.195c.718 0 1.349-.503 1.5-1.195l.192-.872a4.44 4.44 0 01.765-1.691l2.549-3.469a6.077 6.077 0 00-.586-7.994 6.236 6.236 0 00-4.27-1.822 6.232 6.232 0 00-4.505 1.748 6.066 6.066 0 00-1.879 4.402c0 1.332.425 2.6 1.224 3.66l2.553 3.475zm-1.08-10.709a5.057 5.057 0 013.659-1.42 5.062 5.062 0 013.465 1.481 4.933 4.933 0 01.473 6.494l-2.553 3.474a5.586 5.586 0 00-.963 2.126l-.19.873a.363.363 0 01-.709 0l-.19-.873a5.586 5.586 0 00-.963-2.126l-2.557-3.48a4.91 4.91 0 01-.997-2.975c0-1.357.542-2.626 1.525-3.574zM48.7 21.627a.573.573 0 00.038.818.588.588 0 00.828-.037l.01-.01c.015-.016.029-.03.042-.046a2.764 2.764 0 00.689-1.824c0-1.537-1.267-2.787-2.825-2.787a2.84 2.84 0 00-2.124.95.573.573 0 00.055.817c.244.21.614.187.827-.054a1.662 1.662 0 011.243-.556c.91 0 1.651.731 1.651 1.63 0 .392-.143.77-.403 1.067l-.03.032z"/><path d="M43.065 18.114c.263.187.63.128.819-.132a4.45 4.45 0 013.706-1.823 4.43 4.43 0 013.032 1.295 4.317 4.317 0 01.413 5.684l-.606.825a.574.574 0 00.13.808.588.588 0 00.82-.129l.602-.82a5.461 5.461 0 00-.526-7.184 5.604 5.604 0 00-3.838-1.636 5.63 5.63 0 00-4.686 2.305c-.052.071-.206.434.04.725.028.03.06.058.094.082zm-.959 31.538c0-.16-.065-.32-.196-.435a.592.592 0 00-.827.047c-.373.412-.761.79-1.155 1.124a16.56 16.56 0 01-2.536.647c.654-1.389 1.215-3.298 1.643-5.61a.58.58 0 00-.471-.673.586.586 0 00-.682.465c-.483 2.605-1.155 4.718-1.904 6a16.963 16.963 0 01-2.962-.002c-.864-1.474-1.577-3.941-2.063-6.959a44.386 44.386 0 006.875.018.581.581 0 00.541-.62.585.585 0 00-.629-.534 43.933 43.933 0 01-6.96-.04 61.716 61.716 0 01-.526-7.65h9.509a.583.583 0 00.586-.578.58.58 0 00-.434-.558 63.109 63.109 0 00-.495-7.549 35.63 35.63 0 015.517 1.064c.36 1.284.624 2.63.778 4.003a.584.584 0 00.647.512.58.58 0 00.519-.639 26.53 26.53 0 00-.625-3.47c1.594.534 3.012 1.18 4.193 1.923.295.972.5 1.975.607 2.997a.583.583 0 00.644.516.58.58 0 00.522-.635c-.452-4.301-2.497-8.276-5.756-11.194a17.913 17.913 0 00-11.968-4.556c-1.81 0-3.595.267-5.307.793a.577.577 0 00-.386.725.588.588 0 00.735.38 16.703 16.703 0 012.064-.493c-.778 1.653-1.42 4.035-1.861 6.89a40.63 40.63 0 00-1.98.262.58.58 0 00-.486.663c.051.315.352.53.672.48a39.196 39.196 0 011.626-.222c-.094.722-.176 1.47-.244 2.24a.58.58 0 00.585.63c.3 0 .556-.228.583-.529.075-.848.168-1.67.276-2.46a43.513 43.513 0 017.441-.001 61.75 61.75 0 01.526 7.65h-8.487c.007-.922.033-1.843.077-2.745a.582.582 0 00-.558-.606.583.583 0 00-.614.55c-.045.92-.07 1.86-.078 2.8h-5.964a34.3 34.3 0 01.016-.52.582.582 0 00-.563-.6.583.583 0 00-.609.555 32.37 32.37 0 00-.017.565H17.86c.054-1.53.322-3.039.799-4.49a.577.577 0 00-.378-.73.588.588 0 00-.738.372 17.362 17.362 0 00-.866 5.427c0 4.698 1.853 9.114 5.22 12.436 3.365 3.321 7.84 5.15 12.6 5.15 2.69 0 5.275-.577 7.684-1.714a.575.575 0 00-.075-1.072zm-2.854-24.089c-.438-2.83-1.074-5.221-1.86-6.89.866.15 1.715.368 2.54.649 1.463 1.244 2.757 3 3.746 5.09.316.666.6 1.367.851 2.094a37.922 37.922 0 00-5.277-.943zm10.585 2.894c-1.173-.604-2.502-1.131-3.953-1.573a22.465 22.465 0 00-1.143-2.961 18.273 18.273 0 00-2.056-3.377 16.653 16.653 0 012.993 2.134 16.446 16.446 0 014.159 5.777zm-15.34-3.15c-1.196 0-2.382.048-3.547.14.493-3.038 1.218-5.508 2.067-6.959a17.118 17.118 0 012.962 0c.864 1.476 1.578 3.943 2.063 6.961a44.48 44.48 0 00-3.544-.141zm-2.894 25.725a16.685 16.685 0 01-2.542-.651c-1.988-1.69-3.566-4.204-4.596-7.181 1.65.422 3.426.74 5.279.941.437 2.831 1.074 5.223 1.859 6.891zm-2.027-8.073a35.62 35.62 0 01-5.52-1.064 26.058 26.058 0 01-.939-6.464h5.964c.022 2.665.195 5.22.495 7.528zM17.86 35.431h4.084c.042 2.101.317 4.145.796 6.06-1.593-.534-3.01-1.18-4.191-1.922a16.166 16.166 0 01-.69-4.138zm1.303 5.82c1.171.602 2.5 1.129 3.95 1.57.746 2.41 1.828 4.572 3.183 6.325a16.607 16.607 0 01-7.133-7.895z"/></g><defs><clipPath id="auclip0_55_10630"><path fill="#fff" transform="translate(15 15)" d="M0 0h40v39.473H0z"/></clipPath></defs></symbol><symbol fill="none" viewBox="0 0 70 70" id="services-3" xmlns="http://www.w3.org/2000/svg"><circle cx="35" cy="35" r="35" fill="#E63739"/><path d="M52.258 21.133H17.242a1.948 1.948 0 00-1.945 1.945v23.344a1.948 1.948 0 001.945 1.945h30.543a1.948 1.948 0 001.454-.653l4.473-5.032c.316-.356.491-.816.491-1.292V23.078a1.948 1.948 0 00-1.945-1.945zm-8.952 23.39l-4.255.034a8.406 8.406 0 01-.002-5.185l4.262-.002a25.81 25.81 0 00-.005 5.153zm-2.944 2.547a8.385 8.385 0 01-.772-1.22l3.885-.031c.07.431.153.849.247 1.251h-3.36zm3.121-8.997l-3.89.002a8.466 8.466 0 015.259-4.242 8.524 8.524 0 00-.685 1.496 15.895 15.895 0 00-.684 2.744zm1.905-2.308c.587-1.643 1.254-2.229 1.682-2.229.428 0 1.095.586 1.682 2.23.26.75.457 1.52.59 2.304l-4.544.003c.132-.785.33-1.557.59-2.308zm2.88 11.088a.65.65 0 01-.483.217h-2.727c-.102-.4-.19-.822-.267-1.262l4.438-.035-.96 1.08zm1.266-2.379l-4.923.039c-.18-1.71-.18-3.434.003-5.144l4.912-.002c.093.863.139 1.73.138 2.6 0 .837-.043 1.674-.13 2.507zm3.372-3.084a.647.647 0 01-.164.43l-1.854 2.086a25.72 25.72 0 00-.059-4.54h2.077v2.024zm0-3.322l-2.25.001a15.9 15.9 0 00-.682-2.74 8.504 8.504 0 00-.688-1.5 8.36 8.36 0 013.62 2.055v2.184zm0-3.885a9.73 9.73 0 00-15.562 7.784 9.752 9.752 0 001.447 5.103H17.242a.65.65 0 01-.648-.648V23.078a.649.649 0 01.648-.648h35.016a.65.65 0 01.648.648v11.105z" fill="#fff"/><path d="M33.777 23.727H20.16a2.272 2.272 0 00-2.27 2.27v13.616a2.272 2.272 0 002.27 2.27h13.617a2.272 2.272 0 002.27-2.27V25.996a2.272 2.272 0 00-2.27-2.27zm-6.16 1.296h3.242v3.243h-.648a.65.65 0 00-.54.288l-1.104 1.657h-.95v-5.188zm.649 6.485v2.594h-2.594v-2.594h2.594zm-5.188-6.485h3.242v5.188h-.95l-1.104-1.657a.65.65 0 00-.54-.288h-.648v-3.243zm-3.89.973a.974.974 0 01.972-.973h1.621v3.243h-2.593v-2.27zm0 3.567h4.192l.995 1.493v1.1h-5.188v-2.593zm0 3.89h5.187v1.1l-.995 1.494h-4.192v-2.594zm2.593 7.133h-1.62a.973.973 0 01-.974-.973v-2.27h2.594v3.243zm4.54 0h-3.243v-3.242h.649a.65.65 0 00.54-.289l1.103-1.657h.95v5.188zm4.538 0h-3.242v-5.188h.95l1.104 1.657a.649.649 0 00.54.289h.648v3.242zm3.891-.973a.973.973 0 01-.973.973h-1.62v-3.242h2.593v2.27zm0-3.566h-4.192l-.995-1.493v-1.1h5.187v2.593zm0-3.89h-5.188v-1.101l.996-1.494h4.192v2.594zm0-3.891h-2.594v-3.243h1.621a.974.974 0 01.973.973v2.27zm11.413-4.316a7.148 7.148 0 00-5.278 2.334.649.649 0 00.96.872 5.837 5.837 0 018.636 0 .648.648 0 00.96-.872 7.15 7.15 0 00-5.278-2.334z" fill="#fff"/><path d="M46.163 26.543a4.55 4.55 0 00-3.358 1.486.648.648 0 00.959.872 3.243 3.243 0 014.798 0 .649.649 0 00.96-.872 4.548 4.548 0 00-3.359-1.486z" fill="#fff"/><path d="M46.163 29.137a1.948 1.948 0 00-1.438.638.65.65 0 00.26 1.046.65.65 0 00.7-.174.644.644 0 01.957 0 .648.648 0 00.96-.872 1.949 1.949 0 00-1.439-.638z" fill="#fff"/></symbol><symbol fill="none" viewBox="0 0 70 70" id="services-4" xmlns="http://www.w3.org/2000/svg"><circle cx="35" cy="35" r="35" fill="#E63739"/><path d="M21.752 40.332a.615.615 0 101.23 0v-7.038h5.989a1.848 1.848 0 001.845-1.846v-7.95a1.848 1.848 0 00-1.845-1.847h-5.989v-3.96a2.464 2.464 0 012.461-2.46h19.114a2.464 2.464 0 012.46 2.46v2.625a.615.615 0 101.231 0v-2.625A3.696 3.696 0 0044.557 14H25.443a3.696 3.696 0 00-3.691 3.691v3.96h-5.906A1.848 1.848 0 0014 23.497v7.95c0 1.019.828 1.847 1.846 1.847h5.906v7.038zm-5.906-17.45H28.97c.339 0 .615.276.615.615v1.624H15.23v-1.624c0-.339.275-.615.615-.615zm-.616 8.566v-1.624h3.2a.615.615 0 000-1.23h-3.2V26.35h14.356v2.243H21.3a.615.615 0 100 1.23h8.285v1.624c0 .34-.276.615-.615.615H15.846a.616.616 0 01-.616-.615z" fill="#fff"/><path d="M36.066 17.691a.615.615 0 100-1.23h-4.101a.615.615 0 000 1.23h4.101zm18.088 15.324h-5.906v-9.69a.615.615 0 10-1.23 0v9.69h-5.989a1.848 1.848 0 00-1.845 1.846v7.95c0 1.018.828 1.846 1.845 1.846h5.989v7.652a2.464 2.464 0 01-2.461 2.46H25.443a2.464 2.464 0 01-2.46-2.46v-9.106a.615.615 0 10-1.231 0v9.106A3.696 3.696 0 0025.443 56h19.114a3.696 3.696 0 003.691-3.691v-7.652h5.906A1.848 1.848 0 0056 42.812V34.86a1.848 1.848 0 00-1.846-1.846zm-13.74 4.7H54.77v2.242H40.415v-2.242zm.615-3.47h13.125c.34 0 .615.277.615.616v1.624H40.415V34.86c0-.34.276-.615.615-.615zm13.125 9.182H41.03a.616.616 0 01-.615-.615v-1.624H54.77v1.623c0 .34-.275.616-.615.616z" fill="#fff"/><path d="M26.305 36.334c0 .34.275.615.615.615h10.008a.615.615 0 100-1.23H26.92a.615.615 0 00-.615.615zm-1.641 2.543c0 .34.275.615.615.615h11.649a.615.615 0 100-1.23H25.279a.615.615 0 00-.615.615zm.616 3.076h6.726a.615.615 0 100-1.23h-6.727a.615.615 0 100 1.23zm19.44-17.598H34.714a.615.615 0 100 1.23H44.72a.615.615 0 100-1.23zm.616 3.159a.615.615 0 00-.615-.616H33.072a.615.615 0 100 1.23h11.649c.34 0 .615-.275.615-.614zm-4.922 2.46a.615.615 0 00-.615-.615h-6.727a.615.615 0 100 1.23H39.8c.34 0 .615-.275.615-.614zm-9.393 23.155h7.876c.791 0 1.435-.644 1.435-1.436v-1.64c0-.792-.644-1.436-1.435-1.436h-2.42a.615.615 0 100 1.23h2.42c.113 0 .205.093.205.206v1.64a.205.205 0 01-.205.205h-7.875a.205.205 0 01-.206-.205v-1.64c0-.113.092-.205.206-.205h2.584a.615.615 0 000-1.23H31.02c-.791 0-1.435.643-1.435 1.435v1.64c0 .792.644 1.436 1.436 1.436zm7.096-35.438a.615.615 0 100-1.23.615.615 0 000 1.23z" fill="#fff"/></symbol><symbol fill="none" viewBox="0 0 22 20" id="smartphone" xmlns="http://www.w3.org/2000/svg"><g clip-path="url(#axclip0_55_11392)"><path d="M14.208 0H7.791C6.022 0 4.583 1.308 4.583 2.917v14.166c0 1.609 1.44 2.917 3.208 2.917h6.417c1.77 0 3.208-1.308 3.208-2.917V2.917C17.416 1.308 15.977 0 14.208 0zm0 1.667c.253 0 .458.186.458.416 0 .23-.205.417-.458.417s-.458-.187-.458-.417c0-.23.205-.416.458-.416zm-4.583 0h2.75c.253 0 .458.186.458.416 0 .23-.205.417-.458.417h-2.75c-.253 0-.459-.187-.459-.417 0-.23.206-.416.459-.416zM11 18.333c-.505 0-.917-.374-.917-.833 0-.46.412-.833.917-.833.505 0 .916.374.916.833 0 .46-.411.833-.916.833zM16.5 15h-11V4.167h11V15z" fill="#fff"/></g><defs><clipPath id="axclip0_55_11392"><path fill="#fff" d="M0 0h22v20H0z"/></clipPath></defs></symbol><symbol fill="none" viewBox="0 0 16 17" id="sms" xmlns="http://www.w3.org/2000/svg"><path d="M13.867 0H2.133A2.126 2.126 0 000 2.114v9.514c0 1.166.957 2.114 2.133 2.114v2.113a.529.529 0 00.534.529.53.53 0 00.341-.123l3.052-2.519h7.807A2.126 2.126 0 0016 11.628V2.114A2.126 2.126 0 0013.867 0zM3.733 6.342c.882 0 1.6.712 1.6 1.586 0 .874-.718 1.586-1.6 1.586H2.667a.531.531 0 01-.534-.529c0-.292.24-.528.534-.528h1.066a.531.531 0 00.534-.529.531.531 0 00-.534-.528c-.882 0-1.6-.712-1.6-1.586 0-.874.718-1.586 1.6-1.586H4.8c.294 0 .533.237.533.529a.531.531 0 01-.533.528H3.733a.531.531 0 00-.533.529.53.53 0 00.533.528zM9.6 8.985a.531.531 0 01-.533.529.531.531 0 01-.534-.529v-1.99l-.056.113c-.182.358-.774.358-.955 0l-.055-.112v1.99a.531.531 0 01-.534.528.531.531 0 01-.533-.529V4.757a.53.53 0 01.41-.515.536.536 0 01.6.278L8 5.69l.59-1.169a.53.53 0 01.6-.279.53.53 0 01.41.515v4.228zm2.667-2.643c.882 0 1.6.712 1.6 1.586 0 .874-.718 1.586-1.6 1.586H11.2a.531.531 0 01-.533-.529.53.53 0 01.533-.528h1.067a.532.532 0 00.533-.529.532.532 0 00-.533-.528c-.883 0-1.6-.712-1.6-1.586 0-.874.717-1.586 1.6-1.586h1.066c.295 0 .534.237.534.529a.531.531 0 01-.534.528h-1.066a.532.532 0 00-.534.529c0 .292.24.528.534.528z" fill="#fff"/></symbol><symbol fill="none" viewBox="0 0 70 70" id="switch-off" xmlns="http://www.w3.org/2000/svg"><circle cx="35" cy="35" r="35" fill="#E63739"/><g clip-path="url(#azclip0_55_6392)" fill="#fff"><path d="M45.533 49.15v-4.404a.754.754 0 00-.739-.76.754.754 0 00-.739.76v4.403c0 2.388-1.883 4.343-4.217 4.343H27.68c-2.318 0-4.216-1.94-4.216-4.343V20.851c0-2.388 1.883-4.343 4.216-4.343h12.158c2.319 0 4.217 1.94 4.217 4.343v6.254c0 .417.334.76.74.76a.753.753 0 00.738-.76V20.85c0-3.224-2.55-5.851-5.68-5.851H27.68C24.55 15 22 17.627 22 20.85v28.3c0 3.223 2.55 5.85 5.68 5.85h12.158c3.145 0 5.695-2.627 5.695-5.85z"/><path d="M41.882 22.97a.754.754 0 00-.74-.761H26.377a.754.754 0 00-.739.761c0 .418.334.761.74.761h14.766a.754.754 0 00.739-.76zm-16.23 24.97c0 .418.333.762.739.762h14.766a.753.753 0 00.74-.762.753.753 0 00-.74-.76h-14.78c-.406 0-.725.343-.725.76zM50.3 33.015H35.594a.496.496 0 01-.493-.508c0-.283.217-.507.492-.507h14.709c.275 0 .493.224.493.508a.496.496 0 01-.493.507z"/><path d="M46.997 36.702l-.681-.747 3.608-3.462-3.608-3.448.68-.761 4.392 4.209-4.391 4.209zm3.898 4.044H36.172a.496.496 0 01-.492-.507c0-.284.217-.508.492-.508h14.709c.275 0 .492.224.492.508a.476.476 0 01-.478.507z"/><path d="M39.49 44.448l.682-.761-3.609-3.448 3.609-3.448-.681-.761-4.391 4.209 4.39 4.209z"/></g><defs><clipPath id="azclip0_55_6392"><path fill="#fff" transform="translate(22 15)" d="M0 0h29.388v40H0z"/></clipPath></defs></symbol><symbol fill="none" viewBox="0 0 23 20" id="twitter" xmlns="http://www.w3.org/2000/svg"><path d="M.001 17.189a13.033 13.033 0 007.19 2.159c7.428 0 13.45-6.245 13.45-13.947 0-.192-.005-.383-.012-.574.269-.219 1.93-1.6 2.338-2.488 0 0-1.35.582-2.67.719h-.009l.008-.004c.121-.085 1.823-1.286 2.053-2.717a16.077 16.077 0 01-2.983 1.211A4.63 4.63 0 0015.922 0c-2.607 0-4.72 2.19-4.72 4.891 0 .382.042.753.122 1.109-.364-.016-5.912-.338-9.686-5.078 0 0-2.255 3.193 1.344 6.477 0 0-1.094-.045-2.038-.63 0 0-.347 3.868 3.73 4.858 0 0-.802.315-2.082.09 0 0 .716 3.126 4.338 3.418 0 0-2.864 2.683-6.93 2.053h.001z" fill="#E5E5E5"/></symbol><symbol fill="none" viewBox="0 0 22 22" id="user" xmlns="http://www.w3.org/2000/svg"><g clip-path="url(#bbclip0_3208_5198)"><path d="M17.188 22H4.813a2.065 2.065 0 01-2.063-2.063V6.758c0-.55.215-1.069.604-1.458L8.05.604A2.05 2.05 0 019.507 0h7.68c1.138 0 2.063.925 2.063 2.063v17.875A2.065 2.065 0 0117.187 22zM9.506 1.375a.692.692 0 00-.486.201L4.326 6.271a.692.692 0 00-.201.486v13.18c0 .38.308.688.688.688h12.375a.688.688 0 00.687-.688V2.064a.688.688 0 00-.688-.688h-7.68z" fill="#E63739"/><g clip-path="url(#bbclip1_3208_5198)"><path d="M16.384 16.122a7.555 7.555 0 00-2.882-1.808 4.383 4.383 0 00-2.48-7.998 4.383 4.383 0 00-2.48 7.998 7.555 7.555 0 00-2.883 1.808 7.534 7.534 0 00-2.221 5.362h1.184a6.406 6.406 0 016.4-6.399 6.406 6.406 0 016.399 6.4h1.184c0-2.026-.788-3.93-2.22-5.363zM11.021 13.9a3.203 3.203 0 01-3.199-3.2 3.203 3.203 0 013.2-3.199 3.203 3.203 0 013.199 3.2c0 1.764-1.435 3.2-3.2 3.2z" fill="#E63739"/></g></g><defs><clipPath id="bbclip0_3208_5198"><path fill="#fff" d="M0 0h22v22H0z"/></clipPath><clipPath id="bbclip1_3208_5198"><path fill="#fff" transform="translate(3.438 6.316)" d="M0 0h15.168v15.168H0z"/></clipPath></defs></symbol><symbol fill="none" viewBox="0 0 60 60" id="via-mobile" xmlns="http://www.w3.org/2000/svg"><circle cx="30" cy="30" r="30" fill="#E63739"/><g clip-path="url(#bcclip0_55_7931)" fill="#fff"><path d="M28 16h-9.333A4.672 4.672 0 0014 20.667v22.666A4.672 4.672 0 0018.667 48H20a.667.667 0 000-1.333h-1.333a3.338 3.338 0 01-3.334-3.334V20.667a3.338 3.338 0 013.334-3.334H28a3.338 3.338 0 013.333 3.334v6.666a.667.667 0 001.334 0v-6.666A4.672 4.672 0 0028 16z"/><path d="M32 21.333H14.667a.667.667 0 000 1.334H32a.667.667 0 000-1.334zM26 40H14.667a.667.667 0 000 1.333H26A.667.667 0 0026 40zm-.667-21.333h-4a.667.667 0 000 1.333h4a.667.667 0 000-1.333zm2.694 0h-.014a.661.661 0 00-.66.666c0 .368.306.667.674.667a.667.667 0 000-1.333z"/><path d="M44.093 33.647l-5.013-5.51a2.552 2.552 0 00-4.255 1.111 2.555 2.555 0 00-4 1.332 2.552 2.552 0 00-3.994 1.308l-2.363-2.363a2.552 2.552 0 00-3.61 3.61l9.078 9.077-5.384.845A2.987 2.987 0 0022 46c0 1.103.897 2 2 2h12.572c1.959 0 3.8-.763 5.185-2.148l2.098-2.097A7.273 7.273 0 0046 38.576a7.313 7.313 0 00-1.907-4.93zm-1.18 9.165l-2.098 2.098a5.96 5.96 0 01-4.243 1.757H24a.667.667 0 01-.667-.667c0-.81.606-1.508 1.416-1.625l6.687-1.05a.667.667 0 00.368-1.13L21.8 32.19a1.217 1.217 0 01.008-1.724 1.215 1.215 0 011.717.001l6.671 6.67a.667.667 0 00.943-.942l-2.724-2.724a1.217 1.217 0 01.008-1.724 1.217 1.217 0 011.716 0l2.724 2.724a.667.667 0 00.948-.937l-1.39-1.39a1.217 1.217 0 01.007-1.725 1.217 1.217 0 011.716 0l1.39 1.39.002.002.002.002.002.002h.001l.002.001a.667.667 0 00.93-.956l-.058-.057a1.21 1.21 0 01.007-1.724c.473-.472 1.242-.47 1.694-.023l4.992 5.487a5.986 5.986 0 011.559 4.032 5.95 5.95 0 01-1.755 4.236z"/></g><defs><clipPath id="bcclip0_55_7931"><path fill="#fff" transform="translate(14 16)" d="M0 0h32v32H0z"/></clipPath></defs></symbol><symbol fill="none" viewBox="0 0 60 60" id="via-online" xmlns="http://www.w3.org/2000/svg"><circle cx="30" cy="30" r="30" fill="#E63739"/><g clip-path="url(#bdclip0_55_7958)" fill="#fff"><path d="M45.725 40.422l-5.406-5.407 2.651-2.651a.937.937 0 00-.366-1.553l-15.91-5.303a.938.938 0 00-1.186 1.186l5.303 15.91a.938.938 0 001.553.366l2.651-2.651 5.407 5.406a.934.934 0 001.326 0l3.977-3.977a.937.937 0 000-1.326zm-4.64 3.315l-5.407-5.407a.937.937 0 00-1.326 0l-2.241 2.242L27.88 27.88l12.692 4.23-2.242 2.242a.938.938 0 000 1.326l5.407 5.407-2.652 2.652zM26.188 21.5c.517 0 .937-.42.937-.938v-5.625a.937.937 0 10-1.875 0v5.626c0 .517.42.937.938.937zm-7.293-3.93a.937.937 0 10-1.325 1.326l3.977 3.977a.937.937 0 001.326-1.326l-3.978-3.977zm2.652 11.932L17.57 33.48a.937.937 0 001.325 1.325l3.978-3.977a.937.937 0 10-1.326-1.326zm9.281-6.629l3.977-3.977a.937.937 0 10-1.325-1.326l-3.978 3.977a.937.937 0 001.326 1.326zM21.5 26.188a.938.938 0 00-.938-.938h-5.625a.937.937 0 100 1.875h5.626c.517 0 .937-.42.937-.938z"/></g><defs><clipPath id="bdclip0_55_7958"><path fill="#fff" transform="translate(14 14)" d="M0 0h32v32H0z"/></clipPath></defs></symbol><symbol fill="none" viewBox="0 0 16 16" id="wifi" xmlns="http://www.w3.org/2000/svg"><g clip-path="url(#beclip0_55_5818)" fill="#fff"><path d="M7.997 11.322c-.765 0-1.387.62-1.387 1.382a1.386 1.386 0 002.774 0c0-.762-.623-1.382-1.387-1.382zm3.383-1.883a4.755 4.755 0 00-3.383-1.4A4.759 4.759 0 004.62 9.43a.93.93 0 00.661 1.592.93.93 0 00.66-.272 2.896 2.896 0 012.055-.846c.778 0 1.51.302 2.06.851a.931.931 0 00.661.274.93.93 0 00.662-1.59zm4.347-4.332a10.874 10.874 0 00-7.73-3.193A10.87 10.87 0 00.274 5.099a.93.93 0 00.66 1.59.93.93 0 00.661-.272 9.016 9.016 0 016.402-2.64c2.42 0 4.696.94 6.407 2.646a.93.93 0 00.662.274.93.93 0 00.66-1.59z"/><path d="M13.498 7.327a7.739 7.739 0 00-5.501-2.273 7.739 7.739 0 00-5.494 2.265.924.924 0 00-.275.659.93.93 0 00.935.932.93.93 0 00.66-.272 5.879 5.879 0 014.174-1.721c1.578 0 3.062.613 4.178 1.727a.93.93 0 00.662.273.93.93 0 00.935-.93.924.924 0 00-.274-.66z"/></g><defs><clipPath id="beclip0_55_5818"><path fill="#fff" d="M0 0h16v16H0z"/></clipPath></defs></symbol></svg>