<svg width="150" height="50" viewBox="0 0 150 50" fill="none" xmlns="http://www.w3.org/2000/svg">
<rect width="150" height="50" rx="5" fill="white"/>
<path d="M108.047 29.5492V30.9724H109.851V35.3093H111.331V30.9836H113.135V29.5604H108.047V29.5492ZM45.6837 33.9981C44.7984 33.9981 44.1372 33.3369 44.1372 32.4292C44.1372 31.5103 44.7984 30.8491 45.6837 30.8491C46.2664 30.8491 46.7707 31.1517 46.9948 31.6224L48.2723 30.8715C47.8017 29.9862 46.8267 29.3811 45.6949 29.3811C43.9467 29.3811 42.658 30.7034 42.658 32.418C42.658 34.1326 43.9467 35.4549 45.6949 35.4549C46.8267 35.4549 47.8017 34.861 48.2948 33.9645L47.006 33.2249C46.7819 33.7067 46.2776 33.9981 45.6837 33.9981ZM51.6006 33.4154L50.0542 29.5492H48.4741L50.7938 35.2308C50.5136 35.9592 50.099 36.2282 49.3257 36.217V37.5954C50.7041 37.6738 51.7687 36.9454 52.3627 35.2981L54.4583 29.538H52.867L51.6006 33.4154ZM55.1643 35.3093H56.6435V30.9388H58.9296V35.3093H60.4313V29.5492H55.1643V35.3093ZM64.2975 29.3923C62.4932 29.3923 61.2605 30.7146 61.2605 32.4292C61.2605 34.1438 62.482 35.4661 64.4095 35.4661C65.5189 35.4661 66.3818 35.0179 66.9197 34.2334L65.7207 33.5387C65.4629 33.8748 65.0035 34.1102 64.4319 34.1102C63.6475 34.1102 63.0199 33.7852 62.807 33.0232H67.1551C67.1887 32.8214 67.2111 32.6309 67.2111 32.418C67.2111 30.7371 66.0008 29.3923 64.2975 29.3923ZM62.7846 31.8913C62.9527 31.1517 63.5018 30.7259 64.2975 30.7259C64.9138 30.7259 65.5414 31.062 65.7207 31.8913H62.7846ZM71.3575 29.3923C70.517 29.3923 69.9118 29.7061 69.4972 30.2328V29.5492H68.018V37.6066H69.4972V34.6257C69.9118 35.1524 70.5282 35.4661 71.3575 35.4661C72.9039 35.4661 74.1703 34.1438 74.1703 32.4292C74.1703 30.7146 72.9039 29.3923 71.3575 29.3923ZM71.0885 34.0541C70.1808 34.0541 69.4972 33.393 69.4972 32.4292C69.4972 31.4655 70.1808 30.8043 71.0885 30.8043C72.0074 30.8043 72.691 31.4655 72.691 32.4292C72.691 33.393 72.0074 34.0541 71.0885 34.0541ZM77.9804 31.9698L76.4452 29.5492H74.9883V35.3093H76.4115V31.9249L77.8796 34.2447H78.0701L79.5269 31.9473V35.3093H80.9613V29.5492H79.5045L77.9804 31.9698ZM86.4749 30.2328C86.0602 29.7173 85.4439 29.3923 84.6034 29.3923C83.0681 29.3923 81.8018 30.7146 81.8018 32.4292C81.8018 34.1438 83.0681 35.4661 84.6034 35.4661C85.4439 35.4661 86.0602 35.1412 86.4749 34.6257V35.3093H87.9653V29.5492H86.4749V30.2328ZM84.8723 34.0541C83.9646 34.0541 83.281 33.393 83.281 32.4292C83.281 31.4655 83.9646 30.8043 84.8723 30.8043C85.7913 30.8043 86.4749 31.4655 86.4749 32.4292C86.4749 33.393 85.7913 34.0541 84.8723 34.0541ZM92.4254 29.3923C91.585 29.3923 90.9798 29.7061 90.5652 30.2328V29.5492H89.0859V37.6066H90.5652V34.6257C90.9798 35.1524 91.5962 35.4661 92.4254 35.4661C93.9719 35.4661 95.2382 34.1438 95.2382 32.4292C95.2382 30.7146 93.9719 29.3923 92.4254 29.3923ZM92.1453 34.0541C91.2376 34.0541 90.554 33.393 90.554 32.4292C90.554 31.4655 91.2376 30.8043 92.1453 30.8043C93.0642 30.8043 93.7478 31.4655 93.7478 32.4292C93.7478 33.393 93.0642 34.0541 92.1453 34.0541ZM104.663 29.3923C102.859 29.3923 101.626 30.7146 101.626 32.4292C101.626 34.1438 102.847 35.4661 104.775 35.4661C105.884 35.4661 106.747 35.0179 107.285 34.2334L106.086 33.5387C105.828 33.8748 105.369 34.1102 104.797 34.1102C104.013 34.1102 103.385 33.7852 103.172 33.0232H107.509C107.543 32.8214 107.565 32.6309 107.565 32.418C107.576 30.7371 106.366 29.3923 104.663 29.3923ZM103.161 31.8913C103.329 31.1517 103.878 30.7259 104.674 30.7259C105.29 30.7259 105.918 31.062 106.097 31.8913H103.161ZM101.48 29.5492H99.7096L98.051 31.8801H97.5467V29.5492H96.0675V35.3093H97.5467V33.0456H98.1631L99.8216 35.3093H101.547L99.3398 32.3956L101.48 29.5492Z" fill="#62BB46"/>
<path d="M115.712 17.7601H118.144V23.5762H120.139V17.7601H122.571V15.8438H115.724V17.7601H115.712ZM56.3633 15.6309C53.9315 15.6309 52.2842 17.4127 52.2842 19.71C52.2842 22.0185 53.9203 23.7891 56.5202 23.7891C58.0107 23.7891 59.1649 23.184 59.8933 22.1306L58.2796 21.2004C57.9434 21.6487 57.3159 21.9737 56.5426 21.9737C55.4892 21.9737 54.6375 21.5366 54.3574 20.5168H60.1847C60.2295 20.2591 60.2631 19.9901 60.2631 19.6988C60.2744 17.4351 58.6494 15.6309 56.3633 15.6309ZM54.335 18.9816C54.5703 17.9954 55.2987 17.4239 56.3633 17.4239C57.2038 17.4239 58.0331 17.8721 58.2796 18.9816H54.335ZM66.1689 15.6309C65.0371 15.6309 64.219 16.0455 63.6587 16.7627V15.855H61.6639V26.6803H63.6587V22.6685C64.219 23.3857 65.0371 23.8003 66.1689 23.8003C68.2421 23.8003 69.9455 22.0185 69.9455 19.7212C69.9455 17.4015 68.2421 15.6309 66.1689 15.6309ZM65.7991 21.8952C64.5776 21.8952 63.6699 21.0099 63.6699 19.71C63.6699 18.41 64.5776 17.5247 65.7991 17.5247C67.0318 17.5247 67.9507 18.41 67.9507 19.71C67.9507 21.0099 67.0318 21.8952 65.7991 21.8952ZM75.0331 15.6309C72.6014 15.6309 70.954 17.4127 70.954 19.71C70.954 22.0185 72.5902 23.7891 75.19 23.7891C76.6805 23.7891 77.8347 23.184 78.5632 22.1306L76.9494 21.2004C76.6133 21.6487 75.9857 21.9737 75.2125 21.9737C74.1591 21.9737 73.3074 21.5366 73.0272 20.5168H78.8545C78.8994 20.2591 78.933 19.9901 78.933 19.6988C78.9442 17.4351 77.3193 15.6309 75.0331 15.6309ZM73.0048 18.9816C73.2401 17.9954 73.9685 17.4239 75.0331 17.4239C75.8736 17.4239 76.7029 17.8721 76.9494 18.9816H73.0048ZM93.5349 15.6309C92.403 15.6309 91.585 16.0455 91.0247 16.7627V15.855H89.0299V26.6803H91.0247V22.6685C91.585 23.3857 92.403 23.8003 93.5349 23.8003C95.6081 23.8003 97.3114 22.0185 97.3114 19.7212C97.3114 17.4015 95.6081 15.6309 93.5349 15.6309ZM93.1651 21.8952C91.9436 21.8952 91.0359 21.0099 91.0359 19.71C91.0359 18.41 91.9436 17.5247 93.1651 17.5247C94.3978 17.5247 95.3167 18.41 95.3167 19.71C95.3167 21.0099 94.3978 21.8952 93.1651 21.8952ZM100.841 15.0257C101.413 15.0257 101.872 14.5663 101.872 13.9835C101.872 13.412 101.413 12.9301 100.841 12.9301C100.27 12.9301 99.788 13.412 99.788 13.9835C99.788 14.5551 100.27 15.0257 100.841 15.0257ZM103.778 15.0257C104.349 15.0257 104.82 14.5663 104.82 13.9835C104.82 13.412 104.36 12.9301 103.778 12.9301C103.206 12.9301 102.724 13.412 102.724 13.9835C102.724 14.5551 103.206 15.0257 103.778 15.0257ZM102.399 15.6309C99.9673 15.6309 98.32 17.4127 98.32 19.71C98.32 22.0185 99.9561 23.7891 102.556 23.7891C104.046 23.7891 105.201 23.184 105.929 22.1306L104.315 21.2004C103.979 21.6487 103.352 21.9737 102.578 21.9737C101.525 21.9737 100.673 21.5366 100.393 20.5168H106.22C106.265 20.2591 106.299 19.9901 106.299 19.6988C106.31 17.4351 104.696 15.6309 102.399 15.6309ZM100.371 18.9816C100.606 17.9954 101.335 17.4239 102.399 17.4239C103.24 17.4239 104.069 17.8721 104.315 18.9816H100.371ZM111.319 21.8168C110.132 21.8168 109.246 20.9315 109.246 19.71C109.246 18.4773 110.132 17.592 111.319 17.592C112.104 17.592 112.776 17.9954 113.079 18.623L114.793 17.6144C114.155 16.4265 112.843 15.6197 111.331 15.6197C108.977 15.6197 107.251 17.4015 107.251 19.6988C107.251 22.0073 108.988 23.7779 111.331 23.7779C112.843 23.7779 114.166 22.971 114.827 21.772L113.09 20.7858C112.787 21.4246 112.115 21.8168 111.319 21.8168ZM127.3 15.6309C125.025 15.6309 123.221 17.4127 123.221 19.71C123.221 22.0185 125.025 23.7891 127.3 23.7891C129.575 23.7891 131.401 22.0073 131.401 19.71C131.401 17.4015 129.575 15.6309 127.3 15.6309ZM127.3 21.8504C126.123 21.8504 125.215 20.9651 125.215 19.71C125.215 18.4549 126.123 17.5808 127.3 17.5808C128.488 17.5808 129.406 18.4661 129.406 19.71C129.395 20.9651 128.488 21.8504 127.3 21.8504ZM87.6291 15.8438H85.2422L83.0121 18.9816H82.3285V15.8438H80.3338V23.5762H82.3285V20.528H83.169L85.399 23.5762H87.7188L84.7603 19.6652L87.6291 15.8438ZM137.004 19.6652L139.873 15.8438H137.486L135.256 18.9816H134.573V15.8438H132.578V23.5762H134.573V20.528H135.413L137.643 23.5762H139.963L137.004 19.6652ZM42.8708 23.5762H45.0001V14.9361H48.8214V23.5874H50.9619V12.9413H42.8708V23.5762Z" fill="#0C592E"/>
<path d="M27.4174 20.2143L24.0106 23.621L20.6039 20.2143C18.7212 18.3316 18.7212 15.2835 20.6039 13.412C22.4866 11.5293 25.5347 11.5293 27.4174 13.412C29.3 15.2947 29.3 18.3428 27.4174 20.2143Z" fill="#62BB46"/>
<path d="M20.6037 29.7845L24.0105 26.3778L27.4172 29.7845C29.2999 31.6672 29.2999 34.7153 27.4172 36.598C25.5345 38.4807 22.4864 38.4807 20.6149 36.598C18.7323 34.7153 18.7323 31.6672 20.6037 29.7845Z" fill="#0C592E"/>
<path d="M28.7958 28.4061L25.389 24.9994L28.7958 21.5927C30.6784 19.71 33.7266 19.71 35.6093 21.5927C37.4919 23.4753 37.4919 26.5235 35.6093 28.4061C33.7266 30.2888 30.6784 30.2888 28.7958 28.4061Z" fill="#1B8F45"/>
<path d="M19.2255 21.5927L22.6322 24.9994L19.2255 28.4061C17.3428 30.2888 14.2947 30.2888 12.412 28.4061C10.5293 26.5235 10.5293 23.4753 12.412 21.5927C14.3059 19.7212 17.354 19.7212 19.2255 21.5927Z" fill="#A1D078"/>
</svg>
