<svg width="150" height="50" viewBox="0 0 150 50" fill="none" xmlns="http://www.w3.org/2000/svg">
<rect width="150" height="50" rx="5" fill="white"/>
<path fill-rule="evenodd" clip-rule="evenodd" d="M32.9336 13.0636C30.4681 12.8039 27.9826 13.3142 25.8189 14.5244C23.6552 15.7345 21.9194 17.5851 20.8501 19.8218C19.7808 22.0585 19.4305 24.5715 19.8474 27.0154C20.2643 29.4592 21.4278 31.714 23.1781 33.4697C24.9284 35.2255 27.1796 36.396 29.6221 36.8204C32.0647 37.2448 34.5788 36.9023 36.8188 35.84C39.0587 34.7776 40.9147 33.0475 42.1316 30.8875C43.3484 28.7276 43.8664 26.2437 43.6143 23.7774C43.3369 21.036 42.1233 18.4738 40.178 16.5224C38.2326 14.571 35.6742 13.3495 32.9336 13.0636ZM32.5448 31.348C31.2187 31.5259 29.8703 31.2838 28.689 30.6558C27.5076 30.0277 26.5528 29.0453 25.9586 27.8465C25.3645 26.6478 25.1609 25.293 25.3765 23.9726C25.592 22.6522 26.2159 21.4325 27.1605 20.485C28.1051 19.5375 29.3228 18.9097 30.6425 18.69C31.9623 18.4703 33.3177 18.6697 34.5183 19.2601C35.7189 19.8505 36.7043 20.8022 37.336 21.9816C37.9678 23.1609 38.2141 24.5086 38.0403 25.8352C37.858 27.2305 37.2208 28.5268 36.2273 29.5234C35.2338 30.52 33.9395 31.1613 32.5448 31.348ZM50.0326 13.5384C49.6164 13.5394 49.2057 13.6331 48.8303 13.8128C48.4549 13.9926 48.1243 14.2537 47.8625 14.5773C47.6007 14.9009 47.4144 15.2787 47.3171 15.6834C47.2197 16.0881 47.2138 16.5093 47.2998 16.9166C47.5631 18.2358 48.7954 19.1373 50.1378 19.1373H57.9279L45.8047 35.1808C45.715 35.2992 45.6601 35.4403 45.6461 35.5882C45.6321 35.7361 45.6596 35.8849 45.7255 36.0181C45.7914 36.1512 45.893 36.2634 46.0191 36.342C46.1451 36.4206 46.2906 36.4625 46.4391 36.4631H65.4557C66.7972 36.4631 68.0303 35.5619 68.2936 34.2424C68.3796 33.8352 68.3738 33.414 68.2765 33.0094C68.1792 32.6048 67.993 32.227 67.7314 31.9034C67.4697 31.5798 67.1393 31.3185 66.764 31.1387C66.3887 30.9589 65.9781 30.8649 65.5619 30.8637H56.0702L68.1842 14.8327C68.2747 14.7131 68.3302 14.5707 68.3442 14.4213C68.3583 14.272 68.3305 14.1217 68.264 13.9873C68.1974 13.8529 68.0947 13.7397 67.9674 13.6604C67.84 13.5811 67.6931 13.5388 67.5431 13.5384H50.0326ZM126.021 13.6029C125.392 13.7526 124.832 14.1127 124.435 14.6237C124.038 15.1346 123.827 15.7658 123.837 16.4128V25.7348L108.732 13.7144C108.614 13.6204 108.471 13.5617 108.321 13.5451C108.17 13.5286 108.018 13.5548 107.882 13.6207C107.746 13.6867 107.632 13.7897 107.551 13.918C107.471 14.0462 107.429 14.1945 107.429 14.3457V33.5936C107.419 34.2407 107.63 34.8719 108.027 35.3828C108.424 35.8938 108.984 36.2538 109.614 36.4035C110.022 36.4935 110.446 36.4905 110.854 36.3948C111.261 36.2991 111.642 36.1132 111.968 35.8507C112.294 35.5882 112.557 35.2558 112.738 34.8781C112.918 34.5004 113.012 34.087 113.011 33.6684V24.2657L128.116 36.2864C128.235 36.3803 128.377 36.439 128.528 36.4555C128.678 36.4721 128.83 36.4459 128.966 36.38C129.102 36.3141 129.217 36.2111 129.297 36.0829C129.377 35.9547 129.419 35.8064 129.419 35.6553V16.3371C129.419 15.9186 129.326 15.5054 129.145 15.1278C128.965 14.7502 128.702 14.418 128.376 14.1556C128.05 13.8932 127.669 13.7073 127.261 13.6117C126.854 13.516 126.43 13.513 126.021 13.6029ZM86.6918 18.6014C93.0808 18.6014 97.8547 21.9777 97.8547 24.9979C97.8547 28.0181 93.0808 31.3945 86.6918 31.3945C80.3027 31.3945 75.5289 28.0181 75.5289 24.9979C75.5289 21.9777 80.3027 18.6014 86.6918 18.6014ZM86.6918 13.0027C77.4439 13.0027 69.9472 18.3732 69.9472 24.9979C69.9472 31.6226 77.4439 36.9931 86.6918 36.9931C95.9397 36.9931 103.436 31.6226 103.436 24.9979C103.436 18.3732 95.9394 13.0027 86.6918 13.0027Z" fill="#0069FF"/>
</svg>
