<svg width="150" height="50" viewBox="0 0 150 50" fill="none" xmlns="http://www.w3.org/2000/svg">
<rect width="150" height="50" rx="5" fill="white"/>
<path fill-rule="evenodd" clip-rule="evenodd" d="M113.45 34.8855H119.053V29.5645H113.45V34.8855ZM113.695 26.8407H118.845V9.67099H113.694V26.8407H113.695ZM43.2746 29.6227C42.4922 30.4645 41.492 30.8855 40.2733 30.8855C39.0777 30.8855 38.0881 30.4589 37.3071 29.6051C36.5248 28.7521 36.134 27.4388 36.134 25.6633C36.134 23.9578 36.5248 22.6775 37.3071 21.8244C38.0881 20.9713 39.0777 20.544 40.2733 20.544C41.492 20.544 42.4922 20.9713 43.2746 21.8244C44.0562 22.6775 44.4477 23.9683 44.4477 25.6976C44.4477 27.4724 44.0555 28.7808 43.2746 29.6227ZM40.6593 16.8221C38.7598 16.8221 36.9443 17.3908 35.4195 18.363C35.5801 17.9141 35.7454 17.467 35.9154 17.0217C36.6109 15.2266 38.2359 14.328 40.2075 14.1501L48.1739 13.4335V9L43.2514 9.55192C34.7472 10.3574 31 12.4117 31 23.9123C31 31.2567 34.813 34.627 40.2915 34.627C45.7701 34.627 49.3989 31.2539 49.3989 25.7249C49.3989 20.1952 45.6888 16.8228 40.6593 16.8228V16.8221ZM84.6375 29.6255C83.8559 30.4785 82.8662 30.9051 81.6706 30.9051C80.4519 30.9051 79.4518 30.4785 78.6694 29.6255C77.8878 28.7717 77.4962 27.4808 77.4962 25.7522C77.4962 23.9767 77.8885 22.6691 78.6694 21.8272C79.4518 20.9853 80.4519 20.5643 81.6706 20.5643C82.8662 20.5643 83.8559 20.9902 84.6375 21.844C85.4192 22.6971 85.81 24.011 85.81 25.7859C85.81 27.492 85.4192 28.7717 84.6375 29.6255ZM82.5714 16.8221C80.1984 16.8221 78.3836 17.7109 77.1292 19.1649V17.1842H72.7286V41H77.4955V32.6757C78.7282 33.8958 80.419 34.627 82.5714 34.627C87.6009 34.627 90.7598 30.6417 90.7598 25.7249C90.7598 20.8081 87.6009 16.8221 82.5714 16.8221ZM104.923 17.1842L100.781 28.6939L96.5227 17.1849H91.3376L98.3248 34.4596C97.4717 35.8745 96.2516 36.2856 94.6456 36.2856H92.7195V40.6442H95.173C98.5952 40.6442 101.641 38.7496 103.225 34.5661L109.762 17.1849H104.923V17.1842ZM57.1313 23.7988C57.2294 22.134 58.8403 20.2954 61.2287 20.2954C63.6171 20.2954 65.1012 22.134 65.2 23.7988H57.1306H57.1313ZM69.8801 25.6738C69.8801 20.7233 67.2339 16.6981 61.2735 16.6981C55.3131 16.6981 52.1157 20.7233 52.1157 25.6738C52.1157 30.8855 55.6857 34.8484 62.4551 34.8484C65.9361 34.8484 68.3063 33.5064 68.3063 33.5064V29.8643C68.3063 29.8643 66.432 30.9814 63.2192 30.9814C59.643 30.9814 57.408 29.3635 57.1369 27.2119H69.8072C69.8534 26.7902 69.8801 26.1122 69.8801 25.6738Z" fill="#3E2D8F"/>
</svg>
