<svg width="150" height="50" viewBox="0 0 150 50" fill="none" xmlns="http://www.w3.org/2000/svg">
<rect width="150" height="50" rx="5" fill="white"/>
<path fill-rule="evenodd" clip-rule="evenodd" d="M131.777 24.2817C132.459 24.2817 133.059 23.7025 133.059 22.9888C133.059 22.2853 132.459 21.7265 131.777 21.7265C131.073 21.7265 130.484 22.2853 130.484 22.9888C130.484 23.7025 131.073 24.2817 131.777 24.2817ZM131.777 19.6991C132.459 19.6991 133.059 19.1407 133.059 18.4063C133.059 17.7028 132.459 17.1339 131.777 17.1339C131.073 17.1339 130.484 17.7028 130.484 18.4063C130.484 19.1407 131.073 19.6991 131.777 19.6991ZM91.8685 20.7131C91.8685 22.3578 90.7304 23.599 89.0546 23.599C87.3787 23.599 86.2409 22.3578 86.2409 20.7131C86.2409 19.0682 87.3787 17.8167 89.0546 17.8167C90.7304 17.8167 91.8685 19.0682 91.8685 20.7131ZM83.6653 20.7131C83.6653 23.7955 85.9511 26.0817 89.0546 26.0817C92.158 26.0817 94.444 23.7853 94.444 20.7131C94.444 17.6304 92.137 15.3337 89.0546 15.3337C85.9511 15.3337 83.6653 17.6304 83.6653 20.7131ZM80.5 25.7094C80.9758 26.1953 81.7721 26.2162 82.2584 25.7299C82.7342 25.2646 82.7859 24.4576 82.3102 23.9715L79.0723 20.6302L82.1861 17.413C82.6513 16.927 82.6101 16.1304 82.1341 15.6752C81.6584 15.1888 80.8617 15.2099 80.396 15.6959L77.1794 19.0059C76.9002 19.296 76.7034 19.3371 76.4966 19.3371C76.1763 19.3371 75.9068 19.1199 75.9068 18.7889V16.5751C75.9068 15.8821 75.3275 15.3234 74.6345 15.3234C73.9418 15.3234 73.3623 15.8821 73.3623 16.5751V24.8299C73.3623 25.5232 73.9418 26.0817 74.6345 26.0817C75.3275 26.0817 75.9068 25.5232 75.9068 24.8299V22.4816C75.9068 22.1612 76.1763 21.944 76.4966 21.944C76.7034 21.944 76.9002 21.9856 77.1794 22.2747L80.5 25.7094ZM127.359 17.9612C128.063 17.9612 128.621 17.413 128.621 16.7202C128.621 16.0477 128.063 15.4786 127.359 15.4786H125.435C122.291 15.4786 120.056 17.7235 120.056 20.7337C120.056 23.7439 122.291 25.9884 125.435 25.9884H127.359C128.063 25.9884 128.621 25.4402 128.621 24.7472C128.621 24.0749 128.063 23.5058 127.359 23.5058H125.363C123.687 23.5058 122.58 22.3268 122.58 20.7337C122.58 19.1407 123.687 17.9612 125.363 17.9612H127.359ZM116.001 20.7131C116.001 22.3578 114.863 23.599 113.188 23.599C111.512 23.599 110.374 22.3578 110.374 20.7131C110.374 19.0682 111.512 17.8167 113.188 17.8167C114.863 17.8167 116.001 19.0682 116.001 20.7131ZM107.798 20.7131C107.798 23.7955 110.084 26.0817 113.188 26.0817C116.291 26.0817 118.577 23.7853 118.577 20.7131C118.577 17.6304 116.27 15.3337 113.188 15.3337C110.084 15.3337 107.798 17.6304 107.798 20.7131ZM57.0238 21.0643L54.039 15.9545C53.6973 15.3753 52.9737 15.1683 52.3529 15.4478C51.7216 15.8096 51.5257 16.5751 51.8874 17.1855L55.455 23.2097C55.0236 23.4955 54.5568 23.596 54.0493 23.6405C53.3562 23.7025 52.8906 24.1989 52.8906 24.8506C52.8906 25.6266 53.5218 26.0611 54.1634 26.0611C55.6111 26.0611 56.8732 25.3266 57.7834 24.3023C58.6113 23.3713 59.2423 22.1922 59.8318 21.0852L61.9317 17.1442C62.2523 16.5338 62.056 15.7372 61.4039 15.4269C60.7939 15.1371 60.0491 15.3959 59.7285 15.9959L57.0238 21.0643ZM66.0077 17.9509V24.8299C66.0077 25.5334 66.597 26.0817 67.3008 26.0817C68.0142 26.0817 68.5934 25.5334 68.5934 24.8299V17.9509H70.5172C71.2211 17.9509 71.7898 17.3923 71.7898 16.6892C71.7898 16.0062 71.2211 15.4371 70.5172 15.4371H64.073C63.3693 15.4371 62.8005 16.0062 62.8005 16.6892C62.8005 17.3923 63.3693 17.9509 64.073 17.9509H66.0077ZM96.472 24.8299C96.4817 25.5232 97.0615 26.0817 97.7537 26.0817C98.4475 26.0817 99.0265 25.5232 99.0265 24.8299V21.9646H103.216V24.8299C103.216 25.5232 103.805 26.0817 104.498 26.0817C105.191 26.0817 105.771 25.5232 105.771 24.8299V16.5751C105.771 15.8821 105.182 15.3234 104.488 15.3234C103.795 15.3234 103.216 15.8821 103.216 16.5751V19.4403H99.016V16.5751C99.016 15.8821 98.437 15.3234 97.744 15.3234C97.051 15.3234 96.472 15.8821 96.472 16.5751V24.8299Z" fill="#0DB14B"/>
<path d="M52.8374 34.5644L54.7098 31.9733C54.791 31.863 54.8953 31.7761 55.046 31.7761C55.2836 31.7761 55.3765 31.9383 55.3765 32.1355V35.4224C55.3765 35.6137 55.2722 35.7761 55.0345 35.7761C54.791 35.7761 54.6808 35.6137 54.6808 35.4224V32.9993L52.7968 35.5731C52.7214 35.6718 52.617 35.7761 52.4721 35.7761C52.2576 35.7761 52.1416 35.6427 52.1416 35.4224V32.1355C52.1416 31.9442 52.2462 31.7761 52.4895 31.7761C52.7272 31.7761 52.8374 31.9442 52.8374 32.1355V34.5644Z" fill="black"/>
<path d="M56.5018 34.9705C56.7626 34.9705 56.9075 35.1617 56.9075 35.3762C56.9075 35.5963 56.7626 35.7761 56.5018 35.7761C56.2409 35.7761 56.1018 35.5963 56.1018 35.3762C56.1018 35.1617 56.2409 34.9705 56.5018 34.9705Z" fill="black"/>
<path d="M57.8931 34.9705C58.154 34.9705 58.2989 35.1617 58.2989 35.3762C58.2989 35.5963 58.154 35.7761 57.8931 35.7761C57.6322 35.7761 57.4932 35.5963 57.4932 35.3762C57.4932 35.1617 57.6322 34.9705 57.8931 34.9705Z" fill="black"/>
<path d="M61.1166 34.5644L62.9891 31.9733C63.0702 31.863 63.1745 31.7761 63.3253 31.7761C63.5629 31.7761 63.6557 31.9383 63.6557 32.1355V35.4224C63.6557 35.6137 63.5515 35.7761 63.3137 35.7761C63.0702 35.7761 62.96 35.6137 62.96 35.4224V32.9993L61.076 35.5731C61.0006 35.6718 60.8962 35.7761 60.7514 35.7761C60.5369 35.7761 60.4209 35.6427 60.4209 35.4224V32.1355C60.4209 31.9442 60.5254 31.7761 60.7687 31.7761C61.0064 31.7761 61.1166 31.9442 61.1166 32.1355V34.5644Z" fill="black"/>
<path d="M64.9552 34.9705C65.2159 34.9705 65.3609 35.1617 65.3609 35.3762C65.3609 35.5963 65.2159 35.7761 64.9552 35.7761C64.6941 35.7761 64.5551 35.5963 64.5551 35.3762C64.5551 35.1617 64.6941 34.9705 64.9552 34.9705Z" fill="black"/>
<path d="M66.5205 34.9705C66.7814 34.9705 66.9263 35.1617 66.9263 35.3762C66.9263 35.5963 66.7814 35.7761 66.5205 35.7761C66.2597 35.7761 66.1206 35.5963 66.1206 35.3762C66.1206 35.1617 66.2597 34.9705 66.5205 34.9705Z" fill="black"/>
<path d="M71.1238 35.2138C71.9122 35.2138 72.3006 34.582 72.3006 33.7762C72.3006 32.9761 71.9122 32.3385 71.1238 32.3385C70.3411 32.3385 69.9527 32.9761 69.9527 33.7762C69.9527 34.582 70.3411 35.2138 71.1238 35.2138ZM71.1238 31.7182C72.3817 31.7182 73.031 32.6282 73.031 33.7762C73.031 34.9297 72.3817 35.834 71.1238 35.834C69.8658 35.834 69.2223 34.9297 69.2223 33.7762C69.2223 32.6282 69.8658 31.7182 71.1238 31.7182Z" fill="black"/>
<path d="M76.2663 34.0428H74.4229V35.4224C74.4229 35.6195 74.301 35.7761 74.075 35.7761C73.8432 35.7761 73.7272 35.6195 73.7272 35.4224V32.1355C73.7272 31.9383 73.8432 31.7761 74.075 31.7761C74.301 31.7761 74.4229 31.9383 74.4229 32.1355V33.4224H76.2663V32.1355C76.2663 31.9383 76.3823 31.7761 76.6141 31.7761C76.8402 31.7761 76.962 31.9383 76.962 32.1355V35.4224C76.962 35.6195 76.8402 35.7761 76.6141 35.7761C76.3823 35.7761 76.2663 35.6195 76.2663 35.4224V34.0428Z" fill="black"/>
<path d="M80.3656 31.7761C80.5975 31.7761 80.7135 31.9383 80.7135 32.1355V35.4224C80.7135 35.6195 80.5975 35.7761 80.3656 35.7761C80.1338 35.7761 80.0178 35.6195 80.0178 35.4224V32.3964H78.9453C78.9339 33.098 78.8874 34.176 78.6786 34.9182C78.5454 35.3936 78.2498 35.805 77.7918 35.805C77.4556 35.805 77.2991 35.6022 77.3628 35.3529C77.409 35.1617 77.5599 35.1444 77.699 35.1444C77.844 35.1444 77.9831 35.0283 78.0642 34.7559C78.2149 34.2747 78.2904 33.3935 78.3078 32.1355C78.3134 31.9153 78.4353 31.7761 78.6381 31.7761H80.3656Z" fill="black"/>
<path d="M82.4472 34.1008H83.5545L82.9921 32.6399L82.4472 34.1008ZM83.7517 34.6457H82.2617L81.9603 35.463C81.8907 35.6659 81.7402 35.8514 81.4849 35.7471C81.3053 35.6719 81.2936 35.4688 81.3691 35.2717L82.6734 32.0023C82.7486 31.8052 82.8646 31.7182 83.0269 31.7182C83.2066 31.7182 83.3051 31.8283 83.3632 31.9675L84.7081 35.2661C84.7777 35.4398 84.7545 35.6719 84.5517 35.7471C84.3313 35.8282 84.1574 35.7238 84.0763 35.5037L83.7517 34.6457Z" fill="black"/>
<path d="M86.0361 31.15C85.9493 31.034 85.9376 30.8892 86.0361 30.7965C86.1694 30.6687 86.3028 30.75 86.4129 30.8544C86.5752 31.011 86.7435 31.0747 86.9521 31.0747C87.1608 31.0747 87.3231 31.0167 87.4854 30.8603C87.5956 30.75 87.729 30.6804 87.8622 30.7965C87.9723 30.8892 87.9435 31.034 87.8565 31.15C87.7114 31.3471 87.3926 31.521 86.9521 31.521C86.5116 31.521 86.1811 31.3471 86.0361 31.15ZM86.0536 34.5644L87.9259 31.9733C88.0072 31.863 88.1115 31.7761 88.2622 31.7761C88.5 31.7761 88.5927 31.9383 88.5927 32.1355V35.4224C88.5927 35.6137 88.4883 35.7761 88.2506 35.7761C88.0072 35.7761 87.897 35.6137 87.897 35.4224V32.9993L86.013 35.5731C85.9376 35.6718 85.8333 35.7761 85.6884 35.7761C85.4739 35.7761 85.3579 35.6427 85.3579 35.4224V32.1355C85.3579 31.9442 85.4622 31.7761 85.7058 31.7761C85.9434 31.7761 86.0536 31.9442 86.0536 32.1355V34.5644Z" fill="black"/>
<path d="M92.1183 34.0428H90.2746V35.4224C90.2746 35.6195 90.1529 35.7761 89.9267 35.7761C89.6949 35.7761 89.5789 35.6195 89.5789 35.4224V32.1355C89.5789 31.9383 89.6949 31.7761 89.9267 31.7761C90.1529 31.7761 90.2746 31.9383 90.2746 32.1355V33.4224H92.1183V32.1355C92.1183 31.9383 92.2338 31.7761 92.4655 31.7761C92.692 31.7761 92.8135 31.9383 92.8135 32.1355V35.4224C92.8135 35.6195 92.692 35.7761 92.4655 35.7761C92.2338 35.7761 92.1183 35.6195 92.1183 35.4224V34.0428Z" fill="black"/>
<path fill-rule="evenodd" clip-rule="evenodd" d="M43.7496 14.2494C43.7496 12.455 42.2772 11 40.461 11H19.2887C17.4726 11 16 12.455 16 14.2494V27.2913C16 34.8623 22.2118 41 29.8747 41C37.5379 41 43.7496 34.8623 43.7496 27.2913C43.7491 22.1003 43.7507 19.4406 43.7496 14.2494Z" fill="#FFC709"/>
<path fill-rule="evenodd" clip-rule="evenodd" d="M33.4544 30.9164C33.4544 30.2098 32.8712 29.6387 32.1642 29.6387C31.4567 29.6387 30.8735 30.2098 30.8735 30.9164C30.8735 31.6238 31.4567 32.2067 32.1642 32.2067C32.8712 32.2067 33.4544 31.6238 33.4544 30.9164ZM28.8761 30.9164C28.8761 30.2098 28.2932 29.6387 27.5734 29.6387C26.8662 29.6387 26.2955 30.2098 26.2955 30.9164C26.2955 31.6238 26.8662 32.2067 27.5734 32.2067C28.2932 32.2067 28.8761 31.6238 28.8761 30.9164Z" fill="black"/>
</svg>
