<?xml version="1.0" encoding="UTF-8"?>
<svg width="172px" height="58px" viewBox="0 0 172 58" version="1.1" xmlns="http://www.w3.org/2000/svg" xmlns:xlink="http://www.w3.org/1999/xlink">
    <title>arena_logo</title>
    <g id="arena-mainpage" stroke="none" stroke-width="1" fill="none" fill-rule="evenodd">
        <g id="arena_main_2" transform="translate(-55.000000, -61.000000)" fill="#D22D2C" fill-rule="nonzero">
            <g id="header" transform="translate(0.000000, 50.000000)">
                <path d="M157.375881,66.7473577 L157.449332,66.7695148 L157.500747,66.7990577 L157.508092,66.843372 L157.486057,66.8950719 L157.434641,66.9615434 L157.353845,67.0354005 L157.236324,67.124029 L156.91314,67.3160576 L156.47978,67.5450146 L155.943588,67.7961289 L155.510228,67.9660003 L155.076867,68.1211002 L154.636162,68.2614288 L154.166076,68.3796002 L153.659265,68.4830001 L153.108383,68.5790144 L152.506085,68.6602572 L151.822992,68.7415001 L150.163001,68.9261429 L149.384422,69 L149.22283,69 L149.164069,68.9852286 L149.156724,68.9704572 L149.156724,68.9556857 L149.164069,68.9113715 L149.186104,68.8818286 L149.259555,68.8301286 L149.501943,68.6898001 L149.869198,68.512543 L150.309903,68.3131287 L150.728573,68.1506431 L151.279455,67.9807717 L151.947858,67.7961289 L152.741128,67.6041003 L153.637229,67.4046861 L154.636162,67.2052719 L155.73058,66.9984719 L156.920485,66.7842863 L157.104112,66.7621291 L157.258359,66.7473577 L157.375881,66.7473577 Z M173.828885,64.0737298 L174.019857,64.0811155 L174.166759,64.0958869 L174.26959,64.1254298 L174.343041,64.1623583 L174.379767,64.2066726 L174.372422,64.2657583 L174.335696,64.3322297 L174.262245,64.4060868 L174.144724,64.4947154 L173.997822,64.5907297 L173.814195,64.7015153 L173.329419,64.9378581 L172.712431,65.2185152 L171.948542,65.5361009 L171.052441,65.8906151 L170.721911,66.0087865 L170.362002,66.1269579 L169.972712,66.2451292 L169.554042,66.3633006 L168.650596,66.5774863 L167.673699,66.791672 L166.645386,66.9837005 L165.595038,67.1683433 L164.54469,67.330829 L163.509032,67.4785432 L162.517445,67.5967146 L161.584618,67.7001146 L160.747278,67.7813574 L160.012769,67.8330574 L159.417816,67.8552146 L158.977111,67.8478289 L158.822864,67.8404431 L158.712687,67.8109003 L158.653927,67.7813574 L158.646582,67.766586 L158.653927,67.7444289 L158.690652,67.6779575 L158.756758,67.5967146 L158.955075,67.4046861 L159.234189,67.175729 L159.572063,66.9320005 L159.946663,66.6956577 L160.343298,66.481472 L160.541615,66.3854578 L160.732587,66.3042149 L160.92356,66.2377435 L161.107187,66.1934293 L162.076739,65.9792436 L162.97284,65.7946008 L164.610796,65.4917866 L167.879361,64.9378581 L169.230858,64.6867439 L170.428108,64.479944 L171.456421,64.3100726 L172.330486,64.1919012 L173.050305,64.1106583 L173.608532,64.0737298 L173.828885,64.0737298 Z M83.3153265,55.3733605 L86.6720331,55.3807462 L92.3057181,55.3807462 L92.3057181,67.1905004 L89.0077721,67.1905004 L89.0077721,62.6113587 L82.8966563,62.6113587 L82.8966563,63.5198013 L82.8893112,63.7783013 L82.874621,64.0368012 L82.8525857,64.2879154 L82.8158603,64.531644 L82.7717897,64.7679868 L82.7203741,65.0043296 L82.6616134,65.2259009 L82.5955075,65.4327009 L82.5220566,65.6395008 L82.4412606,65.8241436 L82.3457744,66.0087865 L82.2502883,66.1712721 L82.147457,66.3263721 L82.0372806,66.4667006 L81.9197591,66.5922577 L81.7948926,66.7030434 L81.6553359,66.7990577 L81.4937439,66.8950719 L81.3174617,66.9763148 L81.1338344,67.0501719 L80.9355169,67.1092576 L80.7445446,67.1535719 L80.5609173,67.1831147 L80.3846351,67.1905004 L79.5766751,67.1905004 L79.5472947,57.2124029 L79.5472947,56.9391315 L79.5546398,56.6880173 L79.5766751,56.4664459 L79.6060554,56.2744174 L79.6427809,56.104546 L79.6868514,55.9716032 L79.7456122,55.8682032 L79.811718,55.7869604 L79.9292394,55.7057176 L80.0467609,55.6318604 L80.1863176,55.5727747 L80.3405645,55.5210747 L80.5315369,55.4767605 L80.7592347,55.4472176 L81.0310031,55.4176748 L81.3615322,55.4029033 L82.1915275,55.3807462 L83.3153265,55.3733605 Z M134.158048,55.3807462 L139.747662,55.3881319 L141.841013,55.3955176 L142.693044,55.4029033 L143.427553,55.4250605 L144.05923,55.4546033 L144.595422,55.4989176 L145.043473,55.5580033 L145.410727,55.6318604 L145.564974,55.6835604 L145.704531,55.7352604 L145.829397,55.7869604 L145.946919,55.8534318 L146.042405,55.9199032 L146.130546,56.0011461 L146.211342,56.0823889 L146.277448,56.1710174 L146.336209,56.2744174 L146.387624,56.3778174 L146.483111,56.6141602 L146.556561,56.8874316 L146.630012,57.1976315 L146.674083,57.4856743 L146.718153,57.928817 L146.754879,58.5049026 L146.784259,59.1991596 L146.835675,60.8461734 L146.850365,62.6704444 L146.85771,67.1905004 L146.145236,67.1905004 L145.829397,67.1831147 L145.535594,67.1388005 L145.263825,67.072329 L145.014092,66.9837005 L144.779049,66.8655291 L144.566042,66.7178148 L144.375069,66.5479435 L144.206132,66.3485292 L144.05923,66.1195721 L143.927019,65.8684579 L143.816842,65.5878008 L143.728701,65.2776009 L143.65525,64.9452439 L143.603835,64.5833439 L143.574454,64.1992869 L143.567109,63.785687 L143.567109,62.6113587 L137.220951,62.6113587 L137.220951,67.1905004 L134.158048,67.1905004 L134.158048,55.3807462 Z M123.346073,55.3807462 L123.346073,59.9598879 L129.457189,59.9598879 L129.457189,55.3807462 L132.74779,55.3807462 L132.74779,67.1905004 L129.457189,67.1905004 L129.457189,62.6113587 L123.346073,62.6113587 L123.346073,67.1905004 L120.048127,67.1905004 L120.048127,55.3807462 L123.346073,55.3807462 Z M99.1366529,55.3807462 L101.457702,55.3881319 L102.397873,55.4029033 L103.205833,55.4324462 L103.881582,55.4841462 L104.18273,55.5210747 L104.454499,55.565389 L104.696887,55.6097033 L104.91724,55.668789 L105.115557,55.7426461 L105.284494,55.8165032 L105.438741,55.9051318 L105.578298,56.0011461 L105.695819,56.1119317 L105.791305,56.2374889 L105.879447,56.3704317 L105.952897,56.5181459 L106.011658,56.6806316 L106.055729,56.8578887 L106.092454,57.0499172 L106.121835,57.2641029 L106.151215,57.7294028 L106.165905,58.2759455 L106.165905,59.5610595 L106.15856,60.0928308 L106.12918,60.499045 L106.085109,60.8166306 L106.055729,60.9495734 L106.019003,61.0677448 L105.974933,61.1711448 L105.923517,61.267159 L105.791305,61.4370304 L105.629713,61.6142875 L105.468121,61.7546161 L105.306529,61.8801732 L105.137592,61.9983446 L104.94662,62.1017446 L104.748303,62.1903731 L104.52795,62.2716159 L104.285562,62.3454731 L104.028484,62.4045588 L103.742025,62.4562588 L103.426186,62.500573 L103.080967,62.5375016 L102.706367,62.5670444 L101.846992,62.603973 L100.826024,62.6113587 L98.181791,62.6113587 L98.181791,61.8801732 L98.1891361,61.7029161 L98.2185165,61.5330447 L98.2699321,61.3557876 L98.3360379,61.1859162 L98.4168339,61.0160448 L98.5196652,60.8535591 L98.6298416,60.6984592 L98.7620532,60.5507449 L98.9456805,60.3734878 L99.1219627,60.2331593 L99.2174489,60.1814593 L99.3202801,60.1297593 L99.4304565,60.0928308 L99.547978,60.0559022 L99.8344365,60.0115879 L100.201691,59.9820451 L100.657087,59.9672737 L101.230004,59.9598879 L103.117692,59.9598879 L103.117692,57.7884885 L96.7715335,57.7884885 L96.7715335,67.1905004 L93.7159756,67.1905004 L93.7159756,55.3807462 L99.1366529,55.3807462 Z M114.039843,64.5390297 L117.06602,64.5538011 L118.006192,64.5685725 L118.645215,64.6055011 L118.872913,64.6350439 L119.04185,64.6645868 L119.166716,64.7089011 L119.247512,64.7532153 L119.298928,64.812301 L119.328308,64.8787724 L119.342999,64.9526296 L119.342999,65.1889724 L119.320963,65.3366866 L119.298928,65.4770152 L119.262203,65.6173437 L119.210787,65.7502865 L119.159371,65.8758436 L119.08592,65.994015 L119.01247,66.1121864 L118.924328,66.2303578 L118.828842,66.3337578 L118.718666,66.4371578 L118.601144,66.533172 L118.476278,66.6218006 L118.336721,66.7030434 L118.197164,66.7842863 L118.042918,66.8507577 L117.918051,66.8950719 L117.771149,66.9393862 L117.403895,67.0132433 L116.919119,67.072329 L116.302131,67.1166433 L115.523551,67.1535719 L114.576035,67.175729 L113.422855,67.1905004 L110.21305,67.1905004 L108.839518,67.175729 L108.310672,67.1609576 L107.877311,67.1314147 L107.539437,67.0944862 L107.275014,67.0427862 L107.172183,67.0058576 L107.084042,66.9689291 L107.017936,66.9320005 L106.96652,66.8803005 L106.92245,66.8286005 L106.900414,66.7769005 L106.885724,66.7104291 L106.878379,66.6439577 L106.907759,66.4888578 L106.96652,66.3116007 L107.164838,65.8610722 L107.267669,65.6468865 L107.377845,65.454858 L107.502712,65.2923723 L107.656959,65.1446581 L107.833241,65.019101 L108.053594,64.915701 L108.325362,64.8196867 L108.641201,64.7458296 L109.023146,64.6867439 L109.471196,64.6424296 L110.000043,64.6055011 L110.609685,64.5759582 L112.115429,64.5464154 L114.039843,64.5390297 Z M159.219499,63.40163 L159.314985,63.4164014 L159.373746,63.4459442 L159.425161,63.5198013 L159.447196,63.6158156 L159.432506,63.7118299 L159.388436,63.8226156 L159.32233,63.940787 L159.234189,64.0737298 L159.116667,64.1992869 L158.977111,64.3396154 L158.822864,64.479944 L158.653927,64.6128868 L158.271982,64.8935439 L157.853312,65.1594295 L157.405261,65.403158 L157.28774,65.454858 L157.148183,65.506558 L156.788273,65.6025723 L156.347568,65.713358 L155.833412,65.8167579 L154.658197,66.045715 L153.402186,66.3042149 L152.601572,66.481472 L151.933168,66.6218006 L151.352906,66.7178148 L150.802024,66.7769005 L150.728573,66.7769005 L150.669813,66.7695148 L150.611052,66.7473577 L150.566981,66.7252006 L150.537601,66.688272 L150.508221,66.6439577 L150.500875,66.5922577 L150.500875,66.533172 L150.515566,66.4740863 L150.544946,66.4002292 L150.581671,66.3189864 L150.640432,66.2377435 L150.802024,66.0531007 L151.037067,65.8536865 L151.110518,65.8019865 L151.220694,65.7429008 L151.551223,65.5951866 L151.991929,65.4179295 L152.535466,65.2185152 L153.828202,64.7753725 L155.275185,64.324844 L156.009694,64.1032726 L156.714823,63.9038584 L157.383226,63.733987 L157.985523,63.5862728 L158.507025,63.4828728 L158.925695,63.4164014 L159.087287,63.40163 L159.219499,63.40163 Z M212.860699,56.5624602 L213.132468,56.5846173 L213.235299,56.6067745 L213.32344,56.6363173 L213.382201,56.6732459 L213.426272,56.7101745 L213.448307,56.7544887 L213.455652,56.8061887 L213.448307,56.902203 L213.418926,56.9982172 L213.360166,57.0942315 L213.272025,57.1902458 L213.132468,57.3010315 L212.948841,57.4192029 L212.706453,57.5521457 L212.405304,57.6998599 L211.582654,58.0691455 L210.422129,58.5492169 L208.872315,59.1696167 L206.87445,59.9525022 L205.464193,60.4916592 L204.178802,60.9791163 L202.966862,61.4148733 L201.813682,61.8063161 L200.682538,62.1608303 L199.536704,62.4858016 L198.36149,62.7886158 L197.112824,63.0766586 L195.768672,63.34993 L194.292309,63.6232013 L192.661699,63.8964727 L190.840116,64.1771298 L188.798181,64.479944 L186.506512,64.7975296 L181.0638,65.5287151 L178.676645,65.8389151 L176.862408,66.0604864 L175.540291,66.200815 L174.64419,66.2820578 L174.328351,66.2968292 L174.093308,66.2968292 L173.931716,66.2894435 L173.828885,66.2746721 L173.777469,66.2451292 L173.762779,66.2303578 L173.770124,66.2155864 L173.79216,66.1712721 L173.843575,66.1269579 L174.26959,65.8093722 L174.702951,65.5139437 L175.143656,65.2332866 L175.584362,64.9747867 L176.025067,64.7236725 L176.465773,64.4947154 L176.899133,64.2805297 L177.325148,64.0811155 L178.125763,63.7266013 L178.845582,63.4311728 L179.940001,63.0175729 L180.211769,62.9289444 L180.64513,62.810773 L181.967246,62.4710302 L183.854934,62.0278874 L186.256779,61.4887304 L189.106675,60.8683306 L192.367895,60.188845 L195.974335,59.4576595 L199.881923,58.6895454 L203.576504,57.9879027 L206.573301,57.44136 L208.938421,57.0277601 L209.900628,56.8726601 L210.730623,56.7544887 L211.435752,56.6584745 L212.016014,56.5993888 L212.493445,56.5698459 L212.860699,56.5624602 Z M181.622027,57.2493315 L181.776274,57.2567172 L181.91583,57.2714886 L182.040697,57.3010315 L182.150873,57.33796 L182.239014,57.3822743 L182.312465,57.4265886 L182.363881,57.4856743 L182.400606,57.5521457 L182.415297,57.6038457 L182.415297,57.6629314 L182.385916,57.8106456 L182.31981,57.9879027 L182.216979,58.1873169 L182.077422,58.4088883 L181.91583,58.6452311 L181.732203,58.8963453 L181.526541,59.1474596 L181.306188,59.4059595 L181.071145,59.6570737 L180.828757,59.908188 L180.579024,60.1445308 L180.329291,60.3587164 L180.086903,60.5581307 L179.844515,60.728002 L179.616817,60.8609449 L179.308323,61.0234305 L178.992484,61.1711448 L178.661955,61.3114733 L178.309391,61.4444161 L177.927446,61.577359 L177.516121,61.7029161 L177.060725,61.8284732 L176.561259,61.9540303 L175.386044,62.2273017 L173.953752,62.5375016 L170.075543,63.3203871 L167.512107,63.8521584 L165.448136,64.2509869 L164.58876,64.4060868 L163.832216,64.531644 L163.178503,64.6350439 L162.627621,64.7089011 L162.157535,64.760601 L161.768245,64.7901439 L161.459751,64.7975296 L161.217363,64.7901439 L161.041081,64.7679868 L160.92356,64.7310582 L160.879489,64.7089011 L160.857454,64.6793582 L160.842764,64.6498154 L160.835419,64.6202725 L160.842764,64.531644 L160.872144,64.428244 L160.916215,64.3100726 L160.982321,64.1771298 L161.151258,63.8817013 L161.37161,63.5567299 L161.636034,63.2391443 L161.782935,63.0840443 L161.929837,62.9363301 L162.091429,62.8033872 L162.253021,62.6852158 L162.421958,62.5818159 L162.590896,62.4931873 L162.91408,62.3750159 L163.516377,62.1829874 L165.404065,61.6069018 L167.945467,60.8461734 L170.832088,59.9968165 L173.777469,59.1474596 L176.465773,58.3867312 L178.610539,57.7884885 L179.374429,57.5890742 L179.888585,57.4635171 L180.402742,57.3601172 L180.858137,57.28626 L181.269462,57.2493315 L181.622027,57.2493315 Z M158.455609,59.6275309 L158.551095,59.6423023 L158.631891,59.6644594 L158.705342,59.6940023 L158.778793,59.7383166 L158.844899,59.7974023 L158.896315,59.8638737 L159.006491,60.0337451 L159.101977,60.240545 L159.204808,60.5064307 L159.30764,60.8092449 L159.359055,60.9717305 L159.388436,61.1120591 L159.403126,61.2302305 L159.403126,61.3410162 L159.381091,61.4296447 L159.35171,61.5035018 L159.314985,61.5699733 L159.270914,61.629059 L159.153393,61.7176875 L159.028526,61.7915446 L158.896315,61.858016 L158.786138,61.9392589 L158.727378,61.9761874 L158.646582,62.0205017 L158.389503,62.1239017 L158.029594,62.2494588 L157.588888,62.3824016 L157.082077,62.5301159 L156.50916,62.6852158 L155.899517,62.8403158 L155.26784,62.9954158 L154.716958,63.1209729 L154.217492,63.24653 L153.343426,63.4976442 L152.623607,63.7266013 L152.058035,63.9112441 L151.624674,64.0294155 L151.455737,64.0589584 L151.316181,64.0663441 L151.206004,64.0515726 L151.161934,64.0368012 L151.125208,64.0072584 L151.095828,63.9777155 L151.066447,63.9334012 L151.037067,63.8300013 L151.015032,63.6158156 L151.022377,63.4164014 L151.059102,63.2317586 L151.117863,63.0618872 L151.213349,62.8994015 L151.330871,62.7516873 L151.477773,62.603973 L151.654055,62.4636445 L151.859717,62.3233159 L152.09476,62.1903731 L152.359183,62.0500446 L152.645642,61.909716 L153.32139,61.6142875 L154.107315,61.2745448 L155.649784,60.6098306 L156.810309,60.1149879 L157.265704,59.9303451 L157.654994,59.7900166 L157.970833,59.6940023 L158.235256,59.6349166 L158.352778,59.6275309 L158.455609,59.6275309 Z M114.039843,59.9598879 L117.06602,59.9746594 L118.006192,59.9894308 L118.645215,60.0263594 L118.872913,60.0559022 L119.04185,60.0928308 L119.166716,60.1297593 L119.247512,60.1740736 L119.298928,60.2331593 L119.328308,60.2996307 L119.342999,60.3734878 L119.342999,60.6098306 L119.320963,60.7575449 L119.298928,60.8978734 L119.262203,61.038202 L119.210787,61.1711448 L119.159371,61.2967019 L119.08592,61.422259 L119.01247,61.5404304 L118.924328,61.6512161 L118.828842,61.7546161 L118.718666,61.858016 L118.601144,61.9540303 L118.476278,62.0426589 L118.336721,62.1239017 L118.197164,62.2051445 L118.042918,62.2716159 L117.918051,62.3233159 L117.771149,62.3602445 L117.403895,62.4341016 L116.919119,62.4931873 L116.302131,62.5448873 L115.523551,62.5744302 L114.576035,62.5965873 L113.422855,62.6113587 L112.064013,62.6187444 L110.21305,62.6113587 L108.839518,62.5965873 L108.310672,62.5818159 L107.877311,62.552273 L107.539437,62.5153445 L107.275014,62.4636445 L107.172183,62.4267159 L107.084042,62.3897873 L107.017936,62.3528588 L106.96652,62.3011588 L106.92245,62.2568445 L106.900414,62.1977588 L106.885724,62.1386731 L106.878379,62.064816 L106.907759,61.909716 L106.96652,61.7324589 L107.164838,61.2819305 L107.267669,61.0677448 L107.377845,60.8757163 L107.502712,60.7132306 L107.656959,60.5655164 L107.833241,60.4399593 L108.053594,60.3365593 L108.325362,60.2479307 L108.641201,60.1666879 L109.023146,60.1076022 L109.471196,60.0632879 L110.000043,60.0263594 L110.609685,59.9968165 L112.115429,59.9672737 L114.039843,59.9598879 Z M154.09997,56.207946 L154.357048,56.2153317 L154.555366,56.2301031 L154.731648,56.259646 L154.89324,56.3187317 L155.062177,56.4073602 L155.245804,56.5255316 L155.466157,56.6806316 L156.031729,57.0942315 L156.398984,57.3748886 L156.685442,57.6260028 L156.795619,57.7441742 L156.891105,57.8549599 L156.964556,57.9583599 L157.023316,58.0543741 L157.060042,58.1503884 L157.074732,58.2464026 L157.074732,58.3350312 L157.052697,58.4236597 L157.008626,58.5122883 L156.949865,58.5935311 L156.869069,58.6821597 L156.773583,58.7634025 L156.648717,58.8446454 L156.487125,58.9332739 L155.980313,59.1474596 L155.172353,59.4798166 L153.975104,59.9894308 L153.101038,60.3661021 L152.660332,60.5507449 L152.234317,60.7206163 L151.815647,60.8683306 L151.419012,60.986502 L151.051757,61.0677448 L150.88282,61.0899019 L150.721228,61.1046734 L150.544946,61.1046734 L150.405389,61.0899019 L150.295213,61.0529734 L150.207072,60.9938877 L150.111586,60.9274163 L150.016099,60.831402 L149.898578,60.7206163 L149.744331,60.5950592 L149.582739,60.447345 L149.450527,60.292245 L149.362386,60.137145 L149.303626,59.9746594 L149.28159,59.804788 L149.29628,59.6349166 L149.347696,59.4502738 L149.435837,59.265631 L149.560704,59.0736024 L149.722296,58.8741882 L149.920613,58.6673883 L150.163001,58.4532026 L150.442115,58.2316312 L150.757954,58.0026741 L151.110518,57.7589456 L151.499808,57.5078314 L152.807234,56.7101745 L153.203869,56.4738317 L153.490328,56.3261174 L153.71068,56.2448746 L153.806166,56.2227174 L153.901653,56.207946 L154.09997,56.207946 Z M179.660887,51.3776901 L179.969381,51.4072329 L180.24115,51.4589329 L180.498228,51.5475614 L180.725926,51.6657328 L180.938933,51.8134471 L181.129906,51.9907042 L181.306188,52.2048899 L181.475125,52.4486184 L181.622027,52.7366611 L181.768929,53.0542468 L181.90114,53.4013753 L182.003971,53.7263466 L182.077422,53.9774608 L182.114148,54.1842608 L182.114148,54.3467465 L182.099458,54.4944607 L182.055387,54.642175 L181.908485,54.974532 L181.864415,55.0483892 L181.790964,55.129632 L181.688133,55.2108748 L181.563266,55.2995034 L181.232737,55.4767605 L180.814067,55.6761747 L180.307255,55.8829747 L179.726993,56.0971603 L179.065935,56.3261174 L178.353461,56.5698459 L176.759576,57.0646887 L174.996754,57.5816885 L173.138446,58.1060741 L171.243413,58.6378454 L167.80591,59.5832166 L166.226716,60.0042022 L164.809113,60.3734878 L163.597173,60.6615306 L163.090362,60.779702 L162.642311,60.8609449 L162.275057,60.9274163 L161.981253,60.9569591 L161.782935,60.9569591 L161.71683,60.9421877 L161.672759,60.9200306 L161.599308,60.8387877 L161.525857,60.7353877 L161.467097,60.6172164 L161.408336,60.4842735 L161.320195,60.2110022 L161.239399,59.9525022 L161.129222,59.5684452 L161.063117,59.2730167 L161.048426,59.1548453 L161.048426,59.0440596 L161.055771,58.9480453 L161.085152,58.8594168 L161.129222,58.7781739 L161.187983,58.7043168 L161.268779,58.6304597 L161.364265,58.5492169 L161.621343,58.3941169 L161.966563,58.2020884 L162.370543,58.0026741 L163.016911,57.7072456 L164.867874,56.8874316 L167.255028,55.8608175 L169.913951,54.7455749 L172.558184,53.6524895 L174.915958,52.6997326 L176.722851,51.9907042 L177.332493,51.7691328 L177.707093,51.6509614 L178.162489,51.5475614 L178.588504,51.4663186 L178.977794,51.4072329 L179.337703,51.3776901 L179.660887,51.3776901 Z M224.267626,45.98612 L224.524704,46.0008914 L224.767092,46.0156628 L224.99479,46.0525914 L225.200453,46.0895199 L225.391425,46.1412199 L225.553017,46.2003056 L225.699919,46.2741627 L225.824785,46.3554056 L225.927617,46.4440341 L226.008413,46.5400484 L226.059828,46.6508341 L226.081864,46.7320769 L226.074519,46.8354769 L226.037793,46.9462626 L225.986377,47.0865911 L225.905581,47.2416911 L225.810095,47.4115625 L225.530982,47.8251624 L225.156382,48.3052337 L224.678951,48.8813192 L224.106034,49.5312619 L223.430286,50.2698332 L223.085066,50.6243474 L222.747192,50.9493187 L222.394628,51.2521329 L222.027373,51.5401757 L221.660119,51.8060614 L221.270829,52.0645613 L220.866849,52.3009041 L220.448179,52.5298612 L220.007473,52.7514326 L219.552078,52.9656182 L219.067302,53.1724182 L218.56049,53.3718324 L218.024299,53.5712467 L217.466072,53.7706609 L216.246787,54.1694894 L215.115642,54.5240036 L214.050604,54.8342035 L213.485032,54.9819177 L212.87539,55.1370177 L211.413717,55.4693748 L209.496648,55.8755889 L206.940556,56.3925888 L199.22821,57.8918885 L195.386728,58.6378454 L192.228338,59.2287024 L189.694282,59.6792309 L188.643934,59.856488 L187.725797,60.0042022 L186.932528,60.1223736 L186.264124,60.2036165 L185.705897,60.2627022 L185.250502,60.292245 L184.897937,60.292245 L184.633514,60.2700879 L184.530683,60.2479307 L184.449887,60.2183879 L184.383781,60.188845 L184.33971,60.1519165 L184.29564,60.0854451 L184.26626,60.0042022 L184.244224,59.9229594 L184.236879,59.8269451 L184.244224,59.7235451 L184.258914,59.6127595 L184.317675,59.3764167 L184.420506,59.110531 L184.545373,58.8372596 L184.706965,58.5492169 L184.883247,58.2537884 L185.081565,57.9657456 L185.287227,57.6777028 L185.50758,57.4044314 L185.727933,57.1533172 L185.948285,56.9169744 L186.168638,56.7175602 L186.374301,56.5476888 L186.557928,56.4221317 L186.947218,56.2227174 L187.380578,56.0159175 L187.880044,55.8017318 L188.460307,55.5801604 L189.12871,55.3364319 L189.90729,55.077932 L190.810736,54.7972749 L191.846394,54.487075 L194.36576,53.7485038 L197.58291,52.8326754 L206.543921,50.3215332 L214.07264,48.2166051 L216.621386,47.5223481 L218.53111,47.012734 L219.963403,46.6508341 L221.050476,46.3997199 L221.924542,46.2298485 L222.732502,46.1042914 L223.070376,46.0599771 L223.39356,46.0230485 L223.694709,46.0008914 L223.988513,45.9935057 L224.267626,45.98612 Z M89.0077721,57.7884885 L82.8966563,57.7884885 L82.8966563,59.9598879 L89.0077721,59.9598879 L89.0077721,57.7884885 Z M143.567109,57.7884885 L137.220951,57.7884885 L137.220951,59.9598879 L143.567109,59.9598879 L143.567109,57.7884885 Z M114.039843,55.3364319 L117.06602,55.3438176 L118.006192,55.3659748 L118.645215,55.4029033 L118.872913,55.4324462 L119.04185,55.461989 L119.166716,55.5063033 L119.247512,55.5506176 L119.298928,55.6097033 L119.328308,55.6761747 L119.342999,55.7500318 L119.342999,55.9863746 L119.320963,56.1340889 L119.298928,56.2744174 L119.262203,56.4073602 L119.210787,56.5403031 L119.159371,56.6732459 L119.08592,56.7914173 L119.01247,56.9095887 L118.924328,57.0203744 L118.828842,57.1311601 L118.718666,57.2271743 L118.601144,57.3231886 L118.476278,57.4118171 L118.336721,57.5004457 L118.197164,57.5743028 L118.042918,57.6481599 L117.918051,57.6924742 L117.771149,57.7367885 L117.403895,57.8106456 L116.919119,57.8697313 L116.302131,57.9140456 L115.523551,57.9509742 L114.576035,57.9731313 L113.422855,57.9879027 L110.21305,57.9879027 L108.839518,57.9731313 L108.310672,57.9583599 L107.877311,57.928817 L107.539437,57.8845027 L107.275014,57.8328028 L107.172183,57.8032599 L107.084042,57.7663313 L107.017936,57.7220171 L106.96652,57.6777028 L106.92245,57.6260028 L106.900414,57.5669171 L106.885724,57.5078314 L106.878379,57.44136 L106.907759,57.28626 L106.96652,57.1090029 L107.164838,56.6584745 L107.267669,56.4442888 L107.377845,56.2522603 L107.502712,56.0823889 L107.656959,55.9420604 L107.833241,55.8165032 L108.053594,55.7057176 L108.325362,55.617089 L108.641201,55.5432319 L109.023146,55.4841462 L109.471196,55.4324462 L110.000043,55.4029033 L110.609685,55.3733605 L112.115429,55.3438176 L114.039843,55.3364319 Z M170.949609,46.0230485 L171.155272,46.0378199 L171.338899,46.0747485 L171.515181,46.1264485 L171.78695,46.2298485 L172.536149,46.5474341 L173.483666,46.9831911 L174.519324,47.4928053 L175.253833,47.8620909 L175.834095,48.1722908 L176.282145,48.4234051 L176.605329,48.630205 L176.730196,48.7262193 L176.833027,48.8074621 L176.906478,48.8960907 L176.972584,48.9699478 L177.009309,49.0511906 L177.03869,49.1250478 L177.05338,49.2062906 L177.060725,49.2875334 L177.046035,49.3983191 L177.001964,49.5164905 L176.928513,49.6420476 L176.833027,49.7676047 L176.722851,49.8931618 L176.583294,50.018719 L176.429047,50.1516618 L176.26011,50.2772189 L175.892856,50.5357188 L175.488876,50.7720616 L175.06286,50.993633 L174.651535,51.1930472 L170.016783,53.2315039 L166.351582,54.8489749 L164.911944,55.4767605 L163.744075,55.9789889 L162.870009,56.3335031 L162.53948,56.4590602 L162.289747,56.5476888 L161.613998,56.7397173 L161.305505,56.8135744 L161.011701,56.8726601 L160.739933,56.9169744 L160.475509,56.9391315 L160.218431,56.9465173 L159.961353,56.9391315 L159.71162,56.9095887 L159.461887,56.8726601 L159.204808,56.8061887 L158.93304,56.7323316 L158.661272,56.6363173 L158.367468,56.5181459 L157.728445,56.2301031 L157.368536,56.0602318 L157.060042,55.8977461 L156.795619,55.7426461 L156.575266,55.5949319 L156.406329,55.4472176 L156.274117,55.3068891 L156.222701,55.233032 L156.185976,55.1591748 L156.156596,55.0853177 L156.141905,55.0114606 L156.13456,54.9302178 L156.13456,54.8563606 L156.149251,54.7751178 L156.178631,54.6864892 L156.259427,54.5166179 L156.384293,54.331975 L156.553231,54.1325608 L156.758893,53.9109894 L157.008626,53.6746466 L157.295085,53.4161467 L157.625614,53.1428753 L158.058974,52.8105183 L158.587821,52.4264612 L159.190118,51.9907042 L160.56365,51.045333 L162.062049,50.0408761 L163.575138,49.0511906 L164.985395,48.1649051 L165.617073,47.7882338 L166.1753,47.4558767 L166.645386,47.1973768 L167.019985,47.0053483 L167.306444,46.8724055 L167.600248,46.7468483 L168.202545,46.525277 L168.812188,46.3332484 L169.399795,46.1929199 L169.965367,46.0895199 L170.237135,46.0525914 L170.486869,46.0304342 L170.729257,46.0230485 L170.949609,46.0230485 Z M221.527907,34.6195085 L222.277106,34.6342799 L222.732502,34.6638227 L223.143827,34.7007513 L223.518427,34.759837 L223.856301,34.8410798 L224.164795,34.9444798 L224.304352,35.0109512 L224.443908,35.0848084 L224.57612,35.1586655 L224.700986,35.247294 L224.818508,35.3433083 L224.936029,35.454094 L225.053551,35.5722654 L225.156382,35.6978225 L225.36939,35.9858653 L225.575052,36.325608 L225.77337,36.7170508 L225.971687,37.1675793 L226.17735,37.6698077 L226.390357,38.2458933 L226.61071,38.8810646 L226.809028,39.4940787 L226.882479,39.7673501 L226.941239,40.0184643 L226.977965,40.2474214 L226.992655,40.4689927 L227,40.668407 L226.977965,40.8678212 L226.941239,41.052464 L226.882479,41.2371068 L226.809028,41.4143639 L226.706196,41.5990067 L226.588675,41.7836496 L226.449118,41.9756781 L226.287526,42.1750923 L226.103899,42.3818923 L225.876201,42.6108494 L225.611778,42.8471922 L225.295939,43.0761492 L224.943374,43.3051063 L224.54674,43.5414491 L224.106034,43.7777919 L223.613913,44.0141347 L223.070376,44.2578632 L222.475424,44.5089775 L221.836401,44.7600917 L221.138617,45.0185916 L220.382073,45.2844773 L219.574113,45.5577486 L218.714737,45.83102 L216.805013,46.4144913 L213.830252,47.2933911 L211.046462,48.0984337 L208.46099,48.837005 L206.06649,49.5091048 L203.855618,50.1221189 L201.821027,50.6760474 L199.97741,51.1708901 L198.295384,51.6066471 L195.452833,52.330447 L193.256651,52.8548325 L192.38993,53.0468611 L191.670111,53.1945753 L191.097194,53.305361 L190.671179,53.3792181 L189.826494,53.5047752 L189.084639,53.5934038 L188.430926,53.6524895 L187.865354,53.6746466 L187.380578,53.6746466 L186.961908,53.6451038 L186.785626,53.6155609 L186.616689,53.5786324 L186.462442,53.5343181 L186.322885,53.4826181 L186.256779,53.4530753 L186.190673,53.408761 L186.051117,53.2905896 L185.918905,53.1281039 L185.779348,52.9434611 L185.647137,52.7218897 L185.514925,52.4781612 L185.390059,52.2196613 L185.272537,51.9463899 L185.162361,51.6731186 L185.066874,51.3924615 L184.993424,51.1191901 L184.927318,50.8533045 L184.883247,50.609576 L184.861212,50.3732332 L184.861212,50.1738189 L184.890592,50.0039475 L184.964043,49.760219 L185.066874,49.5386477 L185.191741,49.3392334 L185.338643,49.1472049 L185.50758,48.9699478 L185.698552,48.8000764 L185.89687,48.6449764 L186.117223,48.4972622 L186.34492,48.3569337 L186.587308,48.2166051 L187.086775,47.9581052 L188.144468,47.4411053 L188.783491,47.1456768 L189.855874,46.6656055 L193.065679,45.2770916 L197.274416,43.4823634 L201.982619,41.4882211 L206.698168,39.5162358 L210.91425,37.765822 L214.14609,36.4511652 L215.233164,36.0227938 L215.879532,35.7790653 L216.885809,35.4467083 L217.789256,35.1734369 L218.611906,34.966637 L219.001196,34.8780084 L219.375795,34.8041513 L219.74305,34.7450656 L220.102959,34.7007513 L220.455524,34.6638227 L220.815433,34.6342799 L221.167998,34.6195085 L221.527907,34.6195085 Z M153.372806,41.8279638 L153.791476,41.8353495 L154.246872,41.8648924 L154.753683,41.9239781 L155.31191,42.0052209 L155.928898,42.1160066 L156.611991,42.2489494 L158.220566,42.5886922 L159.807106,42.9432064 L161.063117,43.2460206 L161.569928,43.3863492 L162.010633,43.519292 L162.385233,43.6448491 L162.693727,43.7704062 L162.950805,43.903349 L163.156468,44.0289062 L163.31806,44.161849 L163.435581,44.3021775 L163.516377,44.4498918 L163.560448,44.6049917 L163.582483,44.7748631 L163.582483,44.9668916 L163.567793,45.1219916 L163.531067,45.2844773 L163.479652,45.4469629 L163.420891,45.6168343 L163.340095,45.77932 L163.251954,45.93442 L163.156468,46.0747485 L163.060981,46.2003056 L162.825938,46.4071056 L162.421958,46.7246912 L161.885767,47.1235197 L161.224709,47.603591 L159.652859,48.7040621 L157.882692,49.9005476 L156.097835,51.0822616 L154.496605,52.1162613 L153.813512,52.5372469 L153.24794,52.8769897 L152.814579,53.1207182 L152.652987,53.1945753 L152.542811,53.2462753 L152.337148,53.3127467 L152.09476,53.3644467 L151.830337,53.4161467 L151.551223,53.460461 L151.264765,53.4973895 L150.970961,53.5269324 L150.691848,53.5417038 L150.427425,53.5417038 L150.082205,53.5269324 L149.70026,53.4973895 L149.288935,53.4456895 L148.86292,53.3866038 L147.981509,53.2315039 L147.100098,53.0468611 L146.284793,52.8400611 L145.572319,52.6332612 L145.278516,52.5298612 L145.028783,52.4338469 L144.83781,52.3452184 L144.705598,52.2639756 L144.639493,52.1975041 L144.580732,52.1310327 L144.536661,52.0497899 L144.499936,51.9611613 L144.470556,51.8577614 L144.455865,51.7543614 L144.44852,51.6435757 L144.44852,51.5180186 L144.485246,51.2595187 L144.551352,50.9714759 L144.646838,50.6612759 L144.771704,50.3289189 L144.925951,49.9817904 L145.102233,49.6125048 L145.307896,49.2358334 L145.520904,48.8517764 L145.763292,48.4529479 L146.013025,48.0467337 L146.556561,47.2343054 L147.129479,46.4292627 L147.717086,45.6537629 L148.304693,44.9225774 L148.86292,44.2578632 L149.384422,43.6817777 L149.839817,43.2090921 L150.04548,43.0170635 L150.221762,42.8619636 L150.376009,42.7437922 L150.508221,42.6625493 L150.890165,42.4705208 L151.250075,42.3006494 L151.595294,42.1603209 L151.933168,42.0421495 L152.271042,41.9461352 L152.616262,41.8796638 L152.983516,41.8427353 L153.372806,41.8279638 Z M131.352223,39.7895072 L131.859034,39.7968929 L133.100354,39.8338215 L134.701584,39.9150643 L139.240851,40.18095 L140.665798,40.2843499 L141.818978,40.3803642 L142.744459,40.4837642 L143.126404,40.5428499 L143.471623,40.6093213 L143.765427,40.6757927 L144.02985,40.7496498 L144.264893,40.8308927 L144.46321,40.9195212 L144.646838,41.0155355 L144.80843,41.1189354 L144.955332,41.2371068 L145.094888,41.3700497 L145.25648,41.5473068 L145.396037,41.7171781 L145.506213,41.8944352 L145.587009,42.0864638 L145.609045,42.182478 L145.63108,42.285878 L145.638425,42.3966637 L145.638425,42.5074494 L145.6017,42.7585636 L145.528249,43.0392207 L145.403382,43.3568063 L145.234445,43.7187062 L145.014092,44.1249204 L144.742324,44.5902203 L144.40445,45.1072202 L144.01516,45.6906915 L143.559764,46.3480199 L143.038263,47.0718197 L142.164197,48.2756908 L141.451723,49.2432192 L141.143229,49.6494333 L140.864116,50.0039475 L140.599693,50.3215332 L140.349959,50.5948045 L140.114917,50.8311473 L139.879874,51.0379473 L139.652176,51.2152044 L139.417133,51.3703043 L139.174745,51.5106329 L138.917667,51.6288043 L138.638553,51.7322043 L138.34475,51.8282185 L138.197848,51.8577614 L137.98484,51.8799185 L137.367852,51.9168471 L136.567237,51.9316185 L135.641756,51.9316185 L134.679549,51.9242328 L133.732032,51.9020756 L132.887347,51.8651471 L132.204253,51.8282185 L131.337533,51.7691328 L130.573643,51.7026614 L129.91993,51.6288043 L129.347013,51.53279 L129.09728,51.4737043 L128.869582,51.4072329 L128.656574,51.3407615 L128.465602,51.2595187 L128.296665,51.1635044 L128.142418,51.0601044 L128.002861,50.941933 L127.877995,50.8163759 L127.775163,50.6686617 L127.679677,50.5135617 L127.598881,50.3363046 L127.532775,50.1442761 L127.474015,49.9300904 L127.429944,49.7011333 L127.400564,49.4500191 L127.371183,49.1767477 L127.349148,48.5637336 L127.341803,47.8473195 L127.363838,47.0348911 L127.400564,46.1042914 L127.451979,44.5385203 L127.503395,43.3198778 L127.532775,42.825035 L127.576846,42.389278 L127.628262,42.0199924 L127.701712,41.7024067 L127.789854,41.4291354 L127.892685,41.1854069 L128.024896,40.9859926 L128.186488,40.8013498 L128.377461,40.6388641 L128.597814,40.4837642 L128.862237,40.3286642 L129.15604,40.1735642 L129.383738,40.0701643 L129.626126,39.9815357 L129.89055,39.9150643 L130.184353,39.8633643 L130.522227,39.8264358 L130.911517,39.8042786 L131.352223,39.7895072 Z M73.5610454,39.9519929 L73.6271512,43.2238635 L73.693257,46.4883484 L76.748815,43.6670062 L77.8432335,42.6773208 L78.3280096,42.2489494 L78.7834052,41.8648924 L79.2020754,41.5251496 L79.5840202,41.2223354 L79.9439296,40.9564498 L80.2818038,40.7274927 L80.5976427,40.5354642 L80.8914464,40.3729785 L81.1779049,40.2400357 L81.4423282,40.1366357 L81.7067515,40.0553928 L81.9564846,40.0036929 L82.2062177,39.9667643 L82.4559508,39.9593786 L83.2198403,39.9519929 L83.2198403,51.7691328 L79.9365845,51.7691328 L79.8704787,48.5046479 L79.8043729,45.2475487 L76.6606739,48.1722908 L76.0069608,48.7631478 L75.3752829,49.3318477 L74.7656403,49.863619 L74.2074134,50.3363046 L73.7006021,50.7425188 L73.2819319,51.0748758 L72.9514028,51.3038329 L72.8191912,51.3850758 L72.723705,51.42939 L72.5547679,51.4958615 L72.3564504,51.5623329 L71.9304352,51.6657328 L71.4970748,51.73959 L71.2987573,51.7617471 L71.11513,51.7691328 L70.2851347,51.7691328 L70.2851347,39.9519929 L73.5610454,39.9519929 Z M115.890806,39.9519929 L115.883461,44.7231631 L120.143614,39.9519929 L123.50032,39.9519929 L123.51501,39.9593786 L123.522356,39.9667643 L123.51501,40.0184643 L123.478285,40.0923214 L123.412179,40.2031071 L123.206517,40.4837642 L122.912713,40.8456641 L122.148824,41.7393353 L121.282103,42.7585636 L119.761669,44.545906 L119.284238,45.1219916 L119.144681,45.2992487 L119.100611,45.3804915 L119.166716,45.4765058 L119.365034,45.6906915 L120.070163,46.4292627 L121.054405,47.4632624 L122.170859,48.6597479 L124.910578,51.7469757 L121.642012,51.7469757 L121.348209,51.7543614 L121.230687,51.73959 L121.113166,51.7174328 L121.010334,51.6731186 L120.892813,51.6066471 L120.775291,51.5180186 L120.64308,51.3998472 L120.305206,51.0527187 L119.842465,50.5431045 L119.203442,49.8414619 L118.344066,48.9182478 L115.912841,46.3406342 L115.905496,49.0511906 L115.905496,51.7691328 L112.849938,51.7691328 L112.849938,39.9519929 L115.890806,39.9519929 Z M68.8748772,39.8855215 L68.8748772,51.7691328 L65.5842764,51.7691328 L65.5842764,44.6936203 L61.8823504,49.863619 L60.0240424,47.3081625 L58.0408677,44.752706 L58.0408677,51.7691328 L55,51.7691328 L55,39.9519929 L55.6977837,39.9519929 L55.9842422,39.9593786 L56.2633557,39.9889214 L56.5204339,40.0332357 L56.7775121,40.0923214 L57.0272452,40.18095 L57.2696332,40.2917356 L57.5193663,40.4320642 L57.7617543,40.5945499 L58.0114874,40.7865784 L58.2685656,41.0081498 L58.5329889,41.2666497 L58.8047572,41.5620782 L59.0985609,41.8870495 L59.3997096,42.2489494 L59.7228936,42.6551636 L60.0607678,43.0983064 L61.8676602,45.4838915 L63.5496861,43.2829492 L64.2474698,42.3818923 L64.827732,41.6728639 L65.0848102,41.3774354 L65.3271982,41.1263212 L65.554896,40.9121355 L65.7752488,40.7274927 L65.9882564,40.5723927 L66.1939189,40.4394499 L66.4069266,40.3360499 L66.6272793,40.2474214 L66.8549772,40.1735642 L67.0973652,40.1218643 L67.3617884,40.07755 L67.6409019,40.0332357 L68.8748772,39.8855215 Z M87.9206986,39.9298357 L87.9206986,44.7748631 L94.2668574,44.7748631 L94.2668574,39.9519929 L97.5648033,39.9519929 L97.5648033,51.7691328 L94.2668574,51.7691328 L94.2668574,47.1826054 L87.9206986,47.1826054 L87.9206986,51.7691328 L84.6741683,51.7691328 L84.6741683,39.9298357 L87.9206986,39.9298357 Z M104.12397,39.97415 L105.717855,39.9963071 L107.017936,40.02585 L108.038903,40.0627786 L108.817483,40.1070928 L109.40509,40.1587928 L109.632788,40.1957214 L109.831106,40.2326499 L110.007388,40.2769642 L110.15429,40.3212785 L110.286501,40.3803642 L110.411368,40.4394499 L110.646411,40.5723927 L110.756587,40.6536356 L110.866763,40.7422641 L110.96225,40.8382784 L111.043046,40.9416783 L111.123842,41.0450783 L111.189947,41.1632497 L111.248708,41.2814211 L111.300124,41.3995925 L111.373575,41.6580924 L111.4103,41.9239781 L111.417645,42.2046352 L111.388265,42.4779065 L111.336849,42.7511779 L111.248708,43.0244493 L111.131187,43.2829492 L110.99163,43.5266777 L110.822693,43.7556348 L110.624375,43.9624347 L110.521544,44.0510633 L110.411368,44.1396918 L110.293846,44.213549 L110.16898,44.2800204 L109.647478,44.5311346 L109.434471,44.6271489 L109.243498,44.6936203 L109.074561,44.7453203 L108.927659,44.7674774 L108.802793,44.7748631 L108.699962,44.752706 L108.61182,44.7083917 L108.53837,44.6419203 L108.486954,44.545906 L108.442883,44.4277346 L108.413503,44.2874061 L108.391468,44.110149 L108.376778,43.6891634 L108.376778,42.6034636 L102.030619,42.6034636 L102.030619,49.3540048 L108.347397,49.3540048 L108.420848,48.6892907 L108.457574,48.5120336 L108.508989,48.3495479 L108.589785,48.194448 L108.699962,48.0541194 L108.854208,47.9211766 L109.037836,47.7808481 L109.265534,47.6405195 L109.544647,47.4854196 L110.132254,47.1973768 L110.374642,47.0865911 L110.580305,47.0053483 L110.763932,46.961034 L110.918179,46.9388769 L111.043046,46.9462626 L111.101806,46.9684197 L111.145877,46.9905768 L111.197293,47.0275054 L111.234018,47.0718197 L111.300124,47.1826054 L111.351539,47.3303196 L111.388265,47.5223481 L111.4103,47.7513052 L111.42499,48.0245766 L111.432335,48.6892907 L111.417645,49.3096906 L111.38092,49.8266904 L111.351539,50.0482618 L111.314814,50.2402903 L111.270743,50.4249331 L111.211983,50.5874188 L111.145877,50.7351331 L111.072426,50.8680759 L110.984285,50.9862473 L110.881454,51.097033 L110.763932,51.200433 L110.639066,51.3038329 L110.492164,51.3924615 L110.337917,51.4884757 L110.257121,51.5180186 L110.132254,51.5475614 L109.757655,51.5992614 L109.243498,51.6435757 L108.61182,51.6805043 L107.884656,51.7100471 L107.084042,51.7322043 L105.357945,51.7543614 L103.617158,51.7469757 L102.809198,51.7322043 L102.059999,51.7100471 L101.413631,51.6731186 L100.877439,51.63619 L100.473459,51.58449 L100.333903,51.5623329 L100.238417,51.53279 L100.12824,51.4737043 L100.010719,51.3998472 L99.7389503,51.1930472 L99.4745271,50.941933 L99.3496605,50.8089902 L99.2394841,50.6686617 L99.0852372,50.4470903 L99.0191314,50.3289189 L98.9677158,50.2033618 L98.9163001,50.0630332 L98.8722296,49.9005476 L98.8428492,49.708519 L98.8134688,49.4869477 L98.7767434,48.9256335 L98.747363,48.1649051 L98.7400179,47.1530625 L98.7400179,44.5828346 L98.7547081,43.5783777 L98.7767434,42.8176493 L98.8134688,42.2489494 L98.8428492,42.0273781 L98.8722296,41.8353495 L98.908955,41.6728639 L98.9603707,41.5325353 L99.0117863,41.4069782 L99.070547,41.2888068 L99.224794,41.0746212 L99.3716958,40.8973641 L99.5259427,40.7422641 L99.7022249,40.6019356 L99.9005423,40.4763785 L100.120895,40.3655928 L100.370628,40.2769642 L100.664432,40.1957214 L100.994961,40.12925 L101.369561,40.07755 L101.802921,40.0406214 L102.280352,40.0110786 L102.831234,39.9889214 L104.12397,39.97415 Z M205.515608,23.636954 L205.860828,23.6443397 L206.206047,23.6591112 L206.558611,23.6812683 L206.896485,23.7255826 L207.212324,23.7846683 L207.513473,23.8732968 L207.814622,23.9840825 L208.115771,24.1096396 L208.732758,24.382911 L209.357091,24.6857252 L209.988769,25.0180823 L211.252125,25.7049535 L211.883802,26.0373106 L212.508135,26.3622819 L213.536448,26.8792818 L214.506,27.3815103 L215.394756,27.8468101 L216.180681,28.2751815 L216.849084,28.6592385 L217.370585,28.9694384 L217.730495,29.2131669 L217.848016,29.3017955 L217.914122,29.3682669 L218.068369,29.5824526 L218.178546,29.8114097 L218.259342,30.0403667 L218.303412,30.2767095 L218.310757,30.520438 L218.281377,30.7641666 L218.215271,31.0152808 L218.11244,31.2737807 L217.980228,31.5322807 L217.803946,31.7907806 L217.598283,32.0566662 L217.36324,32.3299376 L217.084127,32.5958233 L216.775633,32.8690946 L216.430414,33.1497517 L216.055814,33.423023 L215.784046,33.6076659 L215.460862,33.7996944 L215.071572,34.0212658 L214.601486,34.2649943 L214.050604,34.5456513 L213.389546,34.863237 L211.70752,35.6461225 L209.459922,36.6505794 L206.536576,37.9283077 L202.83465,39.5236215 L198.251313,41.4956068 L194.894606,42.928435 L191.897809,44.1913918 L190.531622,44.752706 L189.260922,45.2623201 L188.078362,45.7128486 L186.976598,46.1116771 L185.970321,46.4440341 L185.044839,46.7246912 L184.611479,46.8428626 L184.207499,46.9388769 L183.818209,47.0201197 L183.450954,47.0865911 L183.09839,47.1382911 L182.775206,47.1678339 L182.466712,47.1826054 L182.180254,47.1826054 L181.91583,47.1604482 L181.673442,47.116134 L181.445745,47.064434 L181.240082,46.9831911 L180.233805,46.5400484 L179.543366,46.2372342 L178.867618,45.9418057 L177.905411,45.4986629 L176.840372,44.9816631 L176.384977,44.7600917 L175.988342,44.545906 L175.635777,44.3464918 L175.327284,44.161849 L175.070205,43.9845919 L174.849853,43.8147205 L174.67357,43.6522348 L174.526669,43.4897491 L174.423837,43.3346492 L174.350386,43.1795492 L174.306316,43.0244493 L174.291626,42.8619636 L174.298971,42.6994779 L174.335696,42.5222208 L174.379767,42.3745066 L174.453218,42.2046352 L174.556049,42.0199924 L174.67357,41.8279638 L174.820472,41.6211639 L174.982064,41.4069782 L175.371354,40.9416783 L175.82675,40.461607 L176.340906,39.9593786 L176.899133,39.4571501 L177.501431,38.9623074 L178.044967,38.5560932 L178.867618,37.9726219 L179.940001,37.2414364 L181.210702,36.377308 L184.207499,34.3831657 L187.51279,32.2043805 L190.818081,30.0625239 L193.785498,28.1643958 L195.034163,27.3741245 L196.084511,26.7241818 L196.885126,26.2441105 L197.399283,25.9560677 L198.464321,25.4242964 L199.433873,24.9663823 L199.896614,24.7595823 L200.352009,24.5675538 L200.792715,24.3976824 L201.226075,24.2425825 L201.659435,24.1096396 L202.092796,23.9914682 L202.526156,23.8880683 L202.974207,23.7994397 L203.422257,23.7329683 L203.892343,23.688654 L204.369774,23.6517255 L204.876585,23.6443397 L205.515608,23.636954 Z M175.657813,15.8450274 L176.465773,15.8524131 L177.214972,15.8893417 L177.596917,15.9188845 L178.000897,15.9631988 L178.441602,16.0222845 L178.919033,16.1035273 L180.057522,16.3103273 L181.504505,16.6057558 L183.355468,17.0119699 L185.705897,17.5289698 L188.71004,18.2158411 L191.302857,18.8362409 L192.353205,19.0947409 L193.19789,19.3163122 L193.807533,19.4861836 L194.138062,19.5969693 L194.321689,19.6929836 L194.520007,19.8037693 L194.725669,19.9367121 L194.931332,20.0844263 L195.122304,20.2395263 L195.305932,20.3946263 L195.467524,20.5571119 L195.60708,20.7048262 L195.783363,20.9190118 L195.915574,21.1036547 L196.01106,21.273526 L196.077166,21.4360117 L196.113892,21.6058831 L196.121237,21.7831402 L196.106547,21.9825544 L196.069821,22.2041258 L195.98168,22.6177257 L195.930264,22.8171399 L195.864159,23.0091685 L195.783363,23.201197 L195.687876,23.3932255 L195.5777,23.5926398 L195.445488,23.792054 L195.291241,24.0062397 L195.114959,24.2204253 L194.909297,24.4493824 L194.674254,24.6857252 L194.402485,24.9442251 L194.101337,25.2101108 L193.763462,25.5055393 L193.381518,25.8083535 L192.500107,26.4952248 L191.435069,27.285496 L190.164368,28.1939386 L188.673314,29.2279384 L186.939873,30.4170381 L184.942008,31.7686235 L180.086903,35.0257227 L177.523466,36.7392079 L175.43746,38.0907933 L174.556049,38.6521075 L173.762779,39.1395645 L173.04296,39.5605501 L172.396592,39.92245 L171.808985,40.2326499 L171.272793,40.4911499 L170.773327,40.7053355 L170.303241,40.8825926 L169.847846,41.0303069 L169.40714,41.1484783 L168.95909,41.2444926 L168.496349,41.3257354 L167.938122,41.4143639 L167.438656,41.4808353 L167.042021,41.5251496 L166.806978,41.539921 L166.557245,41.5103782 L166.116539,41.4365211 L164.787078,41.1854069 L163.024256,40.8308927 L161.063117,40.4246785 L159.116667,40.0110786 L157.405261,39.6270215 L156.156596,39.331593 L155.774651,39.2355788 L155.591024,39.1691073 L155.370671,39.0361645 L155.179699,38.8810646 L155.010761,38.6964217 L154.86386,38.4970075 L154.738993,38.2754361 L154.636162,38.0390933 L154.562711,37.7805934 L154.50395,37.5147078 L154.47457,37.2340507 L154.47457,36.9386222 L154.48926,36.6431937 L154.53333,36.3329938 L154.606781,36.0227938 L154.702268,35.7052082 L154.819789,35.3802369 L154.966691,35.0626512 L155.179699,34.7155227 L155.583679,34.1025086 L156.156596,33.2531517 L156.88376,32.2191519 L158.683307,29.6858525 L160.791348,26.7832675 L162.862664,23.9766968 L163.729385,22.8171399 L164.507964,21.8052973 L165.205748,20.9263976 L165.837426,20.1656692 L166.417688,19.5157265 L166.696801,19.2276837 L166.961225,18.961798 L167.218303,18.7180695 L167.475381,18.4891124 L167.725114,18.2823125 L167.974847,18.090284 L168.22458,17.9130269 L168.481659,17.7505412 L168.731392,17.5954412 L168.995815,17.447727 L169.260238,17.3147842 L169.539352,17.1818413 L170.119614,16.9307271 L170.751292,16.6943843 L171.449075,16.4432701 L171.970577,16.266013 L172.433318,16.1256845 L172.874023,16.0222845 L173.307384,15.9484274 L173.777469,15.8967274 L174.306316,15.8597988 L174.923304,15.8450274 L175.657813,15.8450274 Z M137.602895,11 L139.108639,11.0295428 L141.091814,11.1034 L143.471623,11.2215714 L146.203997,11.3692856 L149.22283,11.5613141 L152.462015,11.7828855 L155.862792,12.0339997 L156.869069,12.1226283 L157.794551,12.2260283 L158.653927,12.3589711 L159.439851,12.5140711 L159.807106,12.5953139 L160.15967,12.6913282 L160.490199,12.7873424 L160.806038,12.8907424 L161.099842,12.9941424 L161.378955,13.1123138 L161.643379,13.2304852 L161.893112,13.363428 L162.12081,13.4963708 L162.341162,13.6366994 L162.53948,13.7844136 L162.723107,13.9395136 L162.884699,14.0946135 L163.038946,14.2644849 L163.178503,14.441742 L163.296024,14.6189991 L163.406201,14.8110276 L163.494342,15.0030562 L163.575138,15.2098561 L163.633898,15.4166561 L163.685314,15.6382274 L163.714694,15.8671845 L163.73673,16.0961416 L163.744075,16.3398701 L163.73673,16.5688272 L163.707349,16.8125557 L163.663279,17.0710556 L163.604518,17.344327 L163.442926,17.8908697 L163.340095,18.1493697 L163.237264,18.3930982 L163.068326,18.7106838 L162.767178,19.2129123 L161.827006,20.7048262 L160.570995,22.66204 L159.116667,24.8777537 L157.610924,27.1377817 L156.193321,29.2427098 L154.996071,30.9783522 L154.525985,31.6430663 L154.158731,32.1452948 L153.850237,32.5367376 L153.541743,32.9134089 L153.233249,33.2679231 L152.91741,33.6002801 L152.601572,33.9252515 L152.278387,34.2280657 L151.947858,34.5087228 L151.609984,34.7819941 L151.27211,35.0331084 L150.919546,35.2694512 L150.566981,35.4984083 L150.199727,35.7052082 L149.817782,35.9046224 L149.435837,36.0892652 L149.031857,36.2665223 L148.627877,36.429008 L148.231242,36.5619508 L147.863988,36.6727365 L147.474698,36.7539794 L147.033992,36.8056794 L146.512491,36.8426079 L145.866123,36.8647651 L145.080198,36.8721508 L144.103301,36.8647651 L142.641628,36.8352222 L140.900841,36.7761365 L139.013153,36.687508 L137.088739,36.584108 L135.259811,36.4733223 L133.643891,36.3625366 L132.37319,36.2517509 L131.895759,36.2000509 L131.557885,36.1483509 L131.300807,36.096651 L131.021694,36.0375653 L130.72789,35.9637081 L130.419396,35.8676939 L130.103557,35.7642939 L129.787718,35.6535082 L129.471879,35.5279511 L129.163386,35.3876226 L128.862237,35.2399083 L128.575778,35.0774226 L128.30401,34.9001655 L128.061622,34.7229084 L127.848614,34.5308799 L127.664987,34.3314657 L127.51074,34.11728 L127.451979,34.01388 L127.407909,33.9030944 L127.363838,33.7923087 L127.341803,33.6741373 L127.305078,33.4377945 L127.283042,33.194066 L127.275697,32.9577232 L127.341803,24.9146823 L127.363838,21.9603973 L127.407909,19.6634407 L127.437289,18.732841 L127.48136,17.9277983 L127.52543,17.2335413 L127.591536,16.6352986 L127.664987,16.1256845 L127.753128,15.6899274 L127.855959,15.3206418 L127.980826,14.9956704 L128.120383,14.7002419 L128.28932,14.4343563 L128.472947,14.1684706 L128.685955,13.9099707 L128.957723,13.6071565 L129.258872,13.3191137 L129.596746,13.0458424 L129.964001,12.7873424 L130.360635,12.5509996 L130.786651,12.3294282 L131.242046,12.1226283 L131.726822,11.9305998 L132.240979,11.7607284 L132.784516,11.5982427 L133.357433,11.4579142 L133.952385,11.3397428 L134.584063,11.2289571 L135.237776,11.1403285 L135.913524,11.0738571 L136.625998,11.0147714 L137.044668,11 L137.602895,11 Z M107.862621,11.2658856 L109.970662,11.2732714 L111.895076,11.3101999 L112.783832,11.3397428 L113.635863,11.3766713 L114.436478,11.435757 L115.200367,11.5022284 L115.920186,11.590857 L116.595935,11.694257 L117.234958,11.8198141 L117.837255,11.9675283 L118.395482,12.1447854 L118.659905,12.2407997 L118.916983,12.3441997 L119.159371,12.4549854 L119.401759,12.5731568 L119.629457,12.6987139 L119.84981,12.8316567 L120.055473,12.9719852 L120.261135,13.1196995 L120.452107,13.2747994 L120.635735,13.4446708 L120.812017,13.6219279 L120.980954,13.8065707 L121.135201,13.9985993 L121.289448,14.2053992 L121.429005,14.4195849 L121.561216,14.6411562 L121.693428,14.877499 L121.810949,15.1212276 L121.921126,15.3797275 L122.023957,15.6456131 L122.119443,15.9188845 L122.207584,16.214313 L122.28838,16.5171272 L122.361831,16.8273271 L122.494043,17.4920413 L122.589529,18.2084554 L122.66298,18.9765695 L122.70705,19.8037693 L122.729086,20.682669 L122.736431,22.3887686 L122.736431,23.895454 L122.729086,25.2101108 L122.70705,26.3622819 L122.67767,27.3519674 L122.64829,28.2013243 L122.604219,28.9177384 L122.560149,29.5307526 L122.508733,30.0403667 L122.457317,30.4613523 L122.405902,30.8232523 L122.347141,31.1260665 L122.236965,31.6282949 L122.134133,32.0862091 L122.009267,32.6179804 L121.935816,32.8690946 L121.85502,33.1054374 L121.766879,33.3270088 L121.664047,33.5411944 L121.553871,33.7479944 L121.43635,33.9474086 L121.304138,34.1320514 L121.149891,34.3093085 L120.988299,34.4717942 L120.812017,34.6342799 L120.621045,34.7819941 L120.408037,34.9297084 L120.180339,35.0626512 L119.930606,35.195594 L119.592732,35.3433083 L119.423795,35.4097797 L119.247512,35.4688654 L119.049195,35.5131797 L118.821497,35.557494 L118.285306,35.6313511 L117.565487,35.6978225 L116.625315,35.7495225 L115.39134,35.7938368 L113.83418,35.8529225 L110.932869,35.9563224 L108.641201,36.0227938 L107.686339,36.0301795 L106.841653,36.0375653 L106.092454,36.0227938 L105.438741,35.993251 L104.851134,35.9489367 L104.322287,35.889851 L103.844856,35.8159939 L103.404151,35.7273653 L102.985481,35.6165797 L102.574156,35.4836368 L102.16283,35.3359226 L101.736815,35.1660512 L101.215314,34.9518655 L100.730538,34.7302942 L100.275142,34.5013371 L99.8344365,34.2502228 L99.4010761,33.9695658 L98.9677158,33.6445944 L98.5123201,33.2826945 L98.0422343,32.8543232 L97.535423,32.3668662 L96.9845411,31.7981663 L96.3895888,31.1482236 L95.7211855,30.4022666 L94.9866763,29.5602954 L94.1713712,28.6001528 L92.2543024,26.3105819 L87.0245975,20.0327263 L86.2019473,19.0356552 L85.5555793,18.2158411 L85.2838109,17.8539412 L85.0561131,17.5289698 L84.8577956,17.2261556 L84.6888585,16.9454985 L84.5493018,16.6796129 L84.4317803,16.4358844 L84.3436392,16.1921559 L84.2775334,15.9631988 L84.2261178,15.726856 L84.1967374,15.4978989 L84.1820472,15.2541704 L84.1747021,15.0030562 L84.1820472,14.7667134 L84.2187727,14.545142 L84.2775334,14.3235706 L84.3509843,14.1167707 L84.4538156,13.9099707 L84.5786822,13.7179422 L84.725584,13.5332994 L84.8945211,13.3560423 L85.0854934,13.1861709 L85.3058462,13.0236852 L85.5408891,12.8685853 L85.8053124,12.720871 L86.0917709,12.5805425 L86.4076099,12.4475996 L86.738139,12.3220425 L87.0980484,12.1964854 L87.4946833,12.0930854 L87.9721143,11.9896855 L88.5376863,11.8936712 L89.1913994,11.7976569 L89.9405987,11.7164141 L90.7926293,11.642557 L91.740146,11.5686999 L92.7978392,11.5022284 L93.9657087,11.4505285 L95.2510996,11.3988285 L96.646667,11.3545142 L98.1744459,11.3249713 L99.8197463,11.2954285 L101.597258,11.2806571 L105.556263,11.2658856 L107.862621,11.2658856 Z" id="arena_logo"></path>
            </g>
        </g>
    </g>
</svg>