<svg width="13" height="10" viewBox="0 0 13 10" fill="none" xmlns="http://www.w3.org/2000/svg">
<path d="M10.7093 0.804255L10.7093 0.804274L4.47175 6.98146L2.29077 4.82159C2.29076 4.82159 2.29076 4.82158 2.29075 4.82157C1.88106 4.41583 1.21893 4.41596 0.809306 4.82154L0.809288 4.82156C0.396894 5.22992 0.39692 5.89402 0.809271 6.30238L0.809273 6.30238L3.73096 9.19575C4.14067 9.60161 4.80312 9.60121 5.21249 9.1958L12.1907 2.28512C12.1907 2.28511 12.1907 2.28511 12.1907 2.2851C12.6031 1.87671 12.603 1.21262 12.1908 0.80429L11.8389 1.15954L12.1908 0.804289C11.7811 0.398551 11.1189 0.398601 10.7093 0.804255Z" fill="#222129" stroke="#222129"/>
</svg>
