<svg width="28" height="28" viewBox="0 0 28 28" fill="none" xmlns="http://www.w3.org/2000/svg">
<path d="M21.2537 17.9081C21.0165 17.9081 20.779 17.8178 20.5986 17.636C20.2364 17.2738 20.2364 16.6865 20.5986 16.3243L23.8934 13.0295C25.0889 11.8451 25.7468 10.2624 25.7468 8.56857C25.7468 5.08699 22.9143 2.25445 19.4327 2.25445C17.7389 2.25445 16.1562 2.91097 14.9743 4.10402L11.677 7.40156C11.3147 7.76377 10.7275 7.76377 10.365 7.40156C10.0028 7.03911 10.0028 6.45187 10.365 6.08965L13.6601 2.79484C15.1882 1.25043 17.2406 0.399902 19.4313 0.399902C23.9355 0.399902 27.6 4.06441 27.6 8.56857C27.6 10.7607 26.7481 12.8131 25.2015 14.3448L21.9091 17.636C21.7273 17.8178 21.4912 17.9081 21.2537 17.9081Z" fill="#6640FF"/>
<path d="M8.56867 27.6003C4.0645 27.6003 0.399994 23.9358 0.399994 19.4316C0.399994 17.2395 1.25188 15.1873 2.79855 13.6554L6.0911 10.3642C6.45332 10.002 7.04056 10.002 7.40278 10.3642C7.765 10.7264 7.765 11.3137 7.40278 11.6759L4.10796 14.9709C2.91106 16.154 2.25454 17.7367 2.25454 19.4316C2.25454 22.9132 5.08708 25.7457 8.56867 25.7457C10.2625 25.7457 11.8451 25.0892 13.0271 23.8962L16.3244 20.5989C16.6866 20.2366 17.2739 20.2366 17.6361 20.5989C17.9985 20.9611 17.9985 21.5483 17.6361 21.9105L14.3413 25.2056C12.8118 26.7498 10.7596 27.6003 8.56867 27.6003Z" fill="#6640FF"/>
<path d="M9.05451 19.8724C8.81726 19.8724 8.57978 19.7821 8.39935 19.6006C8.03713 19.2381 8.03713 18.6509 8.39935 18.2887L18.2901 8.39764C18.6526 8.03542 19.2398 8.03542 19.602 8.39764C19.9643 8.76008 19.9643 9.34733 19.602 9.70954L9.71103 19.6006C9.52924 19.7821 9.29199 19.8724 9.05451 19.8724Z" fill="#6640FF"/>
</svg>
