<svg width="93" height="96" viewBox="0 0 93 96" fill="none" xmlns="http://www.w3.org/2000/svg">
<path fill-rule="evenodd" clip-rule="evenodd" d="M7.21484 35.3389H19.8755C23.2333 35.3389 26.4538 36.6727 28.8281 39.0471C31.2024 41.4214 32.5363 44.6417 32.5363 47.9995C32.5363 51.3573 31.2024 54.5776 28.8281 56.9519C26.4538 59.3263 23.2333 60.6603 19.8755 60.6603H7.21484V35.3389ZM19.8755 39.5127H11.3887V56.4863H19.8755C22.1157 56.4701 24.2587 55.5687 25.8371 53.9789C27.4155 52.3891 28.3011 50.2397 28.3011 47.9995C28.3011 45.7592 27.4155 43.6099 25.8371 42.0201C24.2587 40.4303 22.1157 39.5289 19.8755 39.5127Z" fill="white"/>
<path fill-rule="evenodd" clip-rule="evenodd" d="M32.5361 88.4789H7.21484V63.1572H11.3887V84.3042H32.5363L32.5361 88.4789Z" fill="white"/>
<path fill-rule="evenodd" clip-rule="evenodd" d="M58.3566 7.51367V32.8353H45.6958C42.3404 32.8273 39.1248 31.4909 36.7522 29.1183C34.3796 26.7457 33.0432 23.53 33.0352 20.1746V7.51367H37.209V20.1746C37.217 22.423 38.1137 24.5771 39.7036 26.1669C41.2934 27.7568 43.4474 28.6534 45.6958 28.6614H54.183V7.51367H58.3566Z" fill="white"/>
<path fill-rule="evenodd" clip-rule="evenodd" d="M7.21484 7.51367H19.8755C23.2303 7.52345 26.445 8.86048 28.8173 11.2327C31.1895 13.6049 32.5267 16.8196 32.5365 20.1744V30.0682L38.2234 35.9922L35.2235 38.8782L29.4222 32.8347H19.8757C16.5209 32.8249 13.3063 31.4879 10.9341 29.1157C8.56186 26.7434 7.22484 23.5288 7.21506 20.174L7.21484 7.51367ZM26.1036 23.3666L28.3622 25.7196V20.1742C28.3527 17.9263 27.4554 15.7732 25.8659 14.1837C24.2764 12.5942 22.1233 11.697 19.8755 11.6874H11.3887V20.1742C11.3983 22.4221 12.2955 24.5752 13.885 26.1647C15.4745 27.7543 17.6276 28.6514 19.8755 28.661H25.4159L20.3337 23.3664L26.1036 23.3666Z" fill="#6640FF"/>
<path fill-rule="evenodd" clip-rule="evenodd" d="M80.5969 32.8352V23.2398H63.6234V32.8352H59.4493V21.1522C59.4355 17.6053 60.7627 14.1842 63.1649 11.5746C64.319 10.3047 65.7241 9.28798 67.2913 8.58882C68.8584 7.88966 70.5536 7.52321 72.2696 7.5127H84.771V32.8344L80.5969 32.8352ZM80.5969 19.0659V11.6873H72.2696C71.1267 11.6981 69.9981 11.9459 68.9558 12.415C67.9135 12.884 66.9801 13.5642 66.214 14.4124C65.0118 15.7178 64.189 17.3269 63.8353 19.0659H80.5969Z" fill="white"/>
<path fill-rule="evenodd" clip-rule="evenodd" d="M61.5441 63.1569H84.7783V70.523C84.7782 71.4917 84.587 72.4507 84.2153 73.3452C83.8437 74.2397 83.2991 75.0521 82.6128 75.7356C82.5864 75.762 82.5595 75.7883 82.5326 75.8143C82.5595 75.8402 82.5864 75.8665 82.6128 75.8929C83.2991 76.5764 83.8437 77.3888 84.2153 78.2833C84.587 79.1778 84.7782 80.1367 84.7783 81.1053V88.4779H59.457V63.1562L61.5441 63.1569ZM77.4 77.9015H63.6311V84.3041H80.6047V81.1053C80.6006 80.2567 80.2618 79.4441 79.6617 78.8441C79.0616 78.244 78.2486 77.905 77.4 77.9011V77.9015ZM80.6047 67.3307H63.6311V73.7277H77.4C78.2486 73.7237 79.0616 73.3848 79.6617 72.7847C80.2618 72.1846 80.6006 71.3719 80.6047 70.5232V67.3307Z" fill="white"/>
<path fill-rule="evenodd" clip-rule="evenodd" d="M50.6045 51.143L59.6612 60.6514H53.908L44.8828 51.1773L44.915 51.1458H37.1773V60.6521H33.0039V35.3389H58.3254V43.2421C58.3208 45.3053 57.5113 47.2851 56.0693 48.7607C54.6273 50.2362 52.6666 51.0908 50.6041 51.1428L50.6045 51.143ZM54.1513 39.5127H37.1777V46.9714H50.4223C51.41 46.967 52.3561 46.5725 53.0545 45.8741C53.7529 45.1757 54.1474 44.2299 54.1517 43.2421L54.1513 39.5127Z" fill="white"/>
<path fill-rule="evenodd" clip-rule="evenodd" d="M80.5969 60.6608V51.0652H63.6234V60.6608H59.4493V48.9782C59.4355 45.4314 60.7627 42.0104 63.1649 39.4009C64.319 38.1309 65.7241 37.1141 67.2913 36.4149C68.8584 35.7157 70.5536 35.3494 72.2696 35.3389H84.771V60.6608H80.5969ZM80.5969 46.8912V39.5125H72.2696C71.1267 39.5234 69.9981 39.7713 68.9558 40.2403C67.9135 40.7094 66.9801 41.3894 66.214 42.2376C65.0118 43.5431 64.189 45.1522 63.8353 46.8912H80.5969Z" fill="white"/>
<path fill-rule="evenodd" clip-rule="evenodd" d="M54.1833 88.4779V78.8826H37.2098V88.4779H33.0353V76.7958C33.0215 73.249 34.3486 69.828 36.7506 67.2183C37.9048 65.9484 39.3098 64.9316 40.877 64.2325C42.4442 63.5333 44.1395 63.1668 45.8556 63.1562H58.3572V88.4779H54.1833ZM54.1833 74.7086V67.3301H45.8556C44.7126 67.341 43.5843 67.5887 42.5419 68.0577C41.4996 68.5267 40.5659 69.2066 39.7997 70.0548C38.5978 71.3603 37.7754 72.9696 37.4217 74.7086H54.1833Z" fill="white"/>
</svg>
