<svg width="90" height="90" viewBox="0 0 90 90" fill="none" xmlns="http://www.w3.org/2000/svg">
<circle cx="45" cy="45" r="44.5" stroke="#F2F2F2"/>
<path d="M45.5195 45.4701L61.5239 29.4657L61.418 29.3597L61.524 29.4656C61.7972 29.1923 61.7972 28.7492 61.524 28.4759L61.5239 28.4758C61.2506 28.2026 60.8075 28.2026 60.5342 28.4758L60.5341 28.4759L44.5297 44.4803L28.5253 28.4759L28.5253 28.4758L28.5234 28.474C28.2453 28.2055 27.8022 28.2132 27.5336 28.4912L27.5336 28.4913C27.2717 28.7625 27.2717 29.1926 27.5336 29.4638L27.5336 29.4638L27.5355 29.4657L43.5399 45.4701L27.5373 61.4727C27.537 61.4731 27.5366 61.4734 27.5363 61.4737C27.2592 61.7424 27.2519 62.1848 27.5202 62.4625C27.7888 62.7405 28.2319 62.7483 28.5099 62.4796L28.4057 62.3717M45.5195 45.4701L43.646 45.5762L27.6415 61.5806C27.423 61.7917 27.417 62.1398 27.6281 62.3583C27.8391 62.5768 28.1872 62.5828 28.4057 62.3717M45.5195 45.4701L61.5239 61.4745L61.5258 61.4764C61.7878 61.7476 61.7878 62.1778 61.5258 62.449C61.2572 62.7271 60.8141 62.7348 60.536 62.4662L60.5341 62.4644L44.5297 46.4599M45.5195 45.4701L44.6358 46.3538M28.4057 62.3717C28.4103 62.3674 28.4148 62.3628 28.4192 62.3583M28.4057 62.3717L28.5093 62.4802C28.5156 62.4742 28.5214 62.4684 28.526 62.4636L28.5253 62.4643L28.4192 62.3583M28.4192 62.3583L28.5269 62.4627L44.5297 46.4599M28.4192 62.3583L44.4236 46.3538L44.5297 46.4599M44.5297 46.4599L44.6358 46.3538M44.6358 46.3538L60.6402 62.3583C60.8587 62.5693 61.2068 62.5633 61.4179 62.3448C61.6238 62.1317 61.6238 61.7937 61.4179 61.5806L44.6358 46.3538Z" fill="#F2F2F2" stroke="#F2F2F2" stroke-width="0.3"/>
</svg>
