<svg width="31" height="33" viewBox="0 0 31 33" fill="none" xmlns="http://www.w3.org/2000/svg">
<path d="M29.165 7.433C28.6165 5.47508 27.5306 3.92848 25.9402 2.83435C23.9329 1.44954 21.624 0.961434 19.6304 0.662536C16.8717 0.251208 14.3736 0.193622 11.9906 0.484294C9.7585 0.758513 8.07754 1.19452 6.54466 1.89926C3.53922 3.28133 1.73486 5.51621 1.18368 8.54084C0.914949 10.0107 0.733964 11.3379 0.629761 12.6048C0.388449 15.5334 0.607824 18.1248 1.29886 20.5269C1.97343 22.8688 3.14983 24.5415 4.89661 25.6411C5.34084 25.9208 5.91121 26.1237 6.46239 26.3184C6.775 26.4281 7.07939 26.5351 7.32893 26.653C7.55927 26.7599 7.55927 26.7791 7.55653 26.9711C7.53733 28.6356 7.55653 31.8988 7.55653 31.8988L7.56201 32.5953H8.81245L9.01537 32.3979C9.14974 32.2717 12.2484 29.2773 13.3535 28.0707L13.5043 27.9034C13.6935 27.6841 13.6935 27.6841 13.8882 27.6813C15.38 27.6511 16.9046 27.5936 18.4183 27.5113C20.2529 27.4126 22.3781 27.2343 24.3798 26.4007C26.2116 25.6356 27.5498 24.4209 28.3533 22.792C29.1924 21.0918 29.6887 19.2518 29.8752 17.165C30.2043 13.496 29.9712 10.3123 29.165 7.433ZM22.5673 21.7006C22.1066 22.4492 21.421 22.9702 20.6121 23.3075C20.0198 23.5543 19.4165 23.5022 18.8324 23.2554C13.9431 21.1851 10.1068 17.9246 7.57298 13.2355C7.04922 12.2702 6.68725 11.2172 6.27044 10.1971C6.18543 9.98872 6.19092 9.74192 6.15253 9.51158C6.18818 7.86352 7.45232 6.93392 8.73018 6.65422C9.21829 6.54453 9.65156 6.71729 10.0135 7.06554C11.0172 8.01983 11.8097 9.13041 12.4075 10.3754C12.668 10.9211 12.5501 11.4037 12.1058 11.8095C12.0126 11.8945 11.9166 11.9713 11.8151 12.0481C10.8005 12.8104 10.6525 13.389 11.1927 14.538C12.114 16.4932 13.6442 17.8067 15.6213 18.6211C16.1423 18.835 16.6332 18.7281 17.0308 18.3058C17.0856 18.2509 17.146 18.1961 17.1843 18.1303C17.9631 16.8305 19.0957 16.9594 20.1404 17.6997C20.826 18.1879 21.4923 18.7034 22.1696 19.1997C23.2035 19.9593 23.1952 20.6723 22.5673 21.7006ZM16.082 8.72731C15.8516 8.72731 15.6213 8.74651 15.3937 8.7849C15.0098 8.84797 14.6506 8.5902 14.5848 8.20629C14.5217 7.82513 14.7794 7.46316 15.1634 7.40009C15.465 7.34799 15.7749 7.32331 16.082 7.32331C19.1231 7.32331 21.5965 9.79676 21.5965 12.8378C21.5965 13.1477 21.5718 13.4576 21.5197 13.7565C21.4622 14.0993 21.166 14.3433 20.8287 14.3433C20.7903 14.3433 20.7519 14.3406 20.7108 14.3323C20.3296 14.2693 20.0719 13.9073 20.1349 13.5261C20.1733 13.3013 20.1925 13.0709 20.1925 12.8378C20.1925 10.5728 18.347 8.72731 16.082 8.72731ZM19.4905 12.9393C19.4905 13.326 19.1752 13.6413 18.7885 13.6413C18.4019 13.6413 18.0865 13.326 18.0865 12.9393C18.0865 11.7794 17.1405 10.8333 15.9805 10.8333C15.5939 10.8333 15.2785 10.518 15.2785 10.1313C15.2785 9.74466 15.5939 9.42931 15.9805 9.42931C17.9165 9.42931 19.4905 11.0033 19.4905 12.9393ZM23.4996 14.4996C23.4256 14.8259 23.1349 15.0453 22.8141 15.0453C22.762 15.0453 22.7099 15.0398 22.6578 15.0289C22.2793 14.9411 22.0435 14.5654 22.1285 14.187C22.23 13.74 22.2821 13.2766 22.2821 12.8104C22.2821 9.39915 19.5042 6.62131 16.093 6.62131C15.6268 6.62131 15.1634 6.67341 14.7164 6.77487C14.338 6.86262 13.9623 6.62405 13.8773 6.24563C13.7895 5.86721 14.0281 5.49153 14.4065 5.40652C14.9549 5.28038 15.5226 5.21731 16.093 5.21731C20.2803 5.21731 23.6861 8.62311 23.6861 12.8104C23.6861 13.3808 23.623 13.9484 23.4996 14.4996Z" fill="black"/>
</svg>
