<svg width="31" height="31" viewBox="0 0 31 31" fill="none" xmlns="http://www.w3.org/2000/svg">
<g clip-path="url(#clip0_87_12949)">
<path d="M15.4662 0.966797H15.4588C7.31011 0.966797 0.683594 7.59515 0.683594 15.7457C0.683594 18.9786 1.72551 21.9751 3.49714 24.4081L1.65531 29.8984L7.33597 28.0825C9.67289 29.6306 12.4606 30.5247 15.4662 30.5247C23.615 30.5247 30.2415 23.8945 30.2415 15.7457C30.2415 7.597 23.615 0.966797 15.4662 0.966797ZM24.0657 21.8365C23.7092 22.8433 22.2941 23.6783 21.1654 23.9222C20.3932 24.0866 19.3845 24.2178 15.989 22.8101C11.6459 21.0107 8.84896 16.5974 8.63097 16.311C8.42222 16.0247 6.87597 13.9741 6.87597 11.8533C6.87597 9.73256 7.95299 8.69988 8.38712 8.25651C8.74366 7.89258 9.33297 7.72632 9.89827 7.72632C10.0812 7.72632 10.2456 7.73556 10.3934 7.74294C10.8275 7.76142 11.0455 7.78728 11.3318 8.47266C11.6884 9.33168 12.5566 11.4525 12.6601 11.6705C12.7654 11.8884 12.8707 12.184 12.7229 12.4704C12.5843 12.7659 12.4624 12.8971 12.2444 13.1483C12.0264 13.3996 11.8195 13.5917 11.6015 13.8614C11.402 14.096 11.1766 14.3473 11.4279 14.7814C11.6791 15.2063 12.5474 16.6232 13.8258 17.7612C15.4755 19.2299 16.813 19.6991 17.2914 19.8986C17.648 20.0464 18.0729 20.0113 18.3334 19.7342C18.664 19.3777 19.0723 18.7865 19.488 18.2046C19.7835 17.7871 20.1567 17.7354 20.5483 17.8832C20.9474 18.0217 23.0589 19.0655 23.4931 19.2816C23.9272 19.4996 24.2135 19.6031 24.3188 19.7859C24.4223 19.9688 24.4223 20.8279 24.0657 21.8365Z" fill="black"/>
</g>
<defs>
<clipPath id="clip0_87_12949">
<rect width="29.5579" height="29.5579" fill="white" transform="translate(0.679688 0.96875)"/>
</clipPath>
</defs>
</svg>
