<svg width="14" height="18" viewBox="0 0 14 18" fill="none" xmlns="http://www.w3.org/2000/svg">
<path d="M7 13.7143C6.04857 13.7143 5.28571 12.9429 5.28571 12C5.28571 11.0486 6.04857 10.2857 7 10.2857C7.45465 10.2857 7.89069 10.4663 8.21218 10.7878C8.53367 11.1093 8.71428 11.5453 8.71428 12C8.71428 12.4547 8.53367 12.8907 8.21218 13.2122C7.89069 13.5337 7.45465 13.7143 7 13.7143ZM12.1429 16.2857V7.71429H1.85714V16.2857H12.1429ZM12.1429 6C12.5975 6 13.0335 6.18061 13.355 6.5021C13.6765 6.82359 13.8571 7.25963 13.8571 7.71429V16.2857C13.8571 16.7404 13.6765 17.1764 13.355 17.4979C13.0335 17.8194 12.5975 18 12.1429 18H1.85714C0.90571 18 0.142853 17.2286 0.142853 16.2857V7.71429C0.142853 6.76286 0.90571 6 1.85714 6H2.71428V4.28571C2.71428 3.14907 3.16581 2.05898 3.96954 1.25526C4.77327 0.451529 5.86335 0 7 0C7.5628 0 8.1201 0.110853 8.64007 0.326231C9.16004 0.541608 9.63249 0.857291 10.0305 1.25526C10.4284 1.65322 10.7441 2.12568 10.9595 2.64564C11.1749 3.16561 11.2857 3.72291 11.2857 4.28571V6H12.1429ZM7 1.71429C6.31801 1.71429 5.66396 1.9852 5.18172 2.46744C4.69948 2.94968 4.42857 3.60373 4.42857 4.28571V6H9.57142V4.28571C9.57142 3.60373 9.30051 2.94968 8.81827 2.46744C8.33603 1.9852 7.68198 1.71429 7 1.71429Z" fill="#95929C"/>
</svg>
