<svg width="227" height="63" viewBox="0 0 227 63" fill="none" xmlns="http://www.w3.org/2000/svg">
<g clip-path="url(#clip0_16901_8311)">
<path d="M116.9 35.7158C116.9 39.1158 116 41.8158 114.1 43.7158C112.2 45.7158 109.4 46.8158 105.7 46.8158H102.5V49.0158H96.1998V46.8158H92.9998C85.6998 46.8158 81.7998 42.6158 81.7998 35.7158C81.7998 28.2158 85.6998 23.9158 92.3998 23.9158H96.1998V21.7158H102.5V23.9158H106.3C113 23.9158 116.9 28.2158 116.9 35.7158ZM96.1998 42.2158V28.5158H94.1998C90.2998 28.5158 88.1998 31.0158 88.1998 35.2158C88.1998 39.7158 90.3998 42.2158 94.6998 42.2158H96.1998ZM110.5 35.2158C110.5 31.1158 108.4 28.5158 104.5 28.5158H102.5V42.2158H104C108.3 42.2158 110.5 39.7158 110.5 35.2158Z" fill="#020203"/>
<path d="M141.7 46.8154H135.4V33.1154L125.9 46.8154H119.6V23.9154H125.9V37.6154L135.4 23.8154H141.7V46.8154Z" fill="#020203"/>
<path d="M167.8 46.816H161.5V37.616H152V46.816H145.7V23.916H152V33.116H161.5V23.916H167.8V46.816Z" fill="#020203"/>
<path d="M193.7 46.816H179.6C177 46.816 175.1 46.316 173.7 45.316C172.2 44.216 171.2 42.316 171.2 39.916C171.2 37.816 171.9 36.216 173.1 35.016C174.5 33.616 176.5 33.016 179.3 33.016H187.9V32.616C187.9 29.716 186.6 28.516 183.1 28.516H172.6V23.916H185C187.4 23.916 189.2 24.416 190.4 25.216C192.6 26.716 193.7 29.716 193.7 34.116V46.816ZM187.9 42.216V37.616H179.6C177.9 37.616 176.8 38.116 176.8 39.916C176.8 41.616 178.1 42.216 179.6 42.216H187.9Z" fill="#020203"/>
<path d="M221 23.916C218.6 23.916 217.1 25.216 216.3 27.516L212.1 40.016L208 27.516C207.3 25.216 205.8 23.916 203.3 23.916H197.6V46.816H203.9V30.716L209.2 46.916H215.2L220.5 30.716V46.916H226.8V23.916H221Z" fill="#020203"/>
<path d="M10.0996 49.0158L13.5996 51.7158L17.0996 54.4158C17.0996 54.4158 17.6996 52.3158 19.0996 49.6158L12.0996 44.2158C10.6996 47.0158 10.0996 49.0158 10.0996 49.0158Z" fill="#CE6814"/>
<path d="M12.5996 43.516L19.5996 48.916C20.3996 47.616 21.2996 46.216 22.4996 44.816L15.4996 39.416C14.2996 40.716 13.3996 42.216 12.5996 43.516Z" fill="#D8850B"/>
<path d="M16.0996 38.7154L23.0996 44.1154C24.1996 42.9154 25.4996 41.7154 26.8996 40.7154L19.8996 35.3154C18.4996 36.3154 17.1996 37.5154 16.0996 38.7154Z" fill="#D7981A"/>
<path d="M43.4004 22.4158L50.4004 27.8158C51.6004 26.7158 52.7004 25.5158 53.8004 24.1158L46.8004 18.7158C45.7004 20.0158 44.6004 21.3158 43.4004 22.4158Z" fill="#FAD33F"/>
<path d="M26.7002 31.9158L33.7002 37.3158C35.4002 36.6158 37.2002 35.9158 39.1002 35.1158L32.1002 29.7158C30.2002 30.6158 28.4002 31.3158 26.7002 31.9158Z" fill="#FEDE6C"/>
<path d="M21.3002 34.4154C21.1002 34.5154 20.9002 34.6154 20.7002 34.8154L27.7002 40.2154C27.9002 40.1154 28.1002 39.9154 28.3002 39.8154C29.6002 39.0154 31.1002 38.4154 32.8002 37.7154L25.8002 32.3154C24.1002 33.0154 22.6002 33.6154 21.3002 34.4154Z" fill="#F8AA00"/>
<path d="M53.4004 7.61582L60.4004 13.0158C61.1004 11.5158 61.7004 9.81582 62.3004 8.11582L55.3004 2.71582C54.7004 4.51582 54.1004 6.11582 53.4004 7.61582Z" fill="#E89500"/>
<path d="M50.7002 13.016L57.7002 18.416C58.5002 17.016 59.3002 15.516 60.0002 13.816L53.0002 8.41602C52.3002 10.116 51.5002 11.616 50.7002 13.016Z" fill="#EBA600"/>
<path d="M33 29.3158L40 34.7158C41.6 34.0158 43.2 33.1158 44.8 32.1158L37.8 26.7158C36.2 27.7158 34.6 28.6158 33 29.3158Z" fill="#FFF7BC"/>
<path d="M38.5996 26.2156L45.5996 31.6156C46.9996 30.7156 48.2996 29.6156 49.6996 28.4156L42.6996 23.0156C41.3996 24.2156 39.9996 25.2156 38.5996 26.2156Z" fill="#FFDB7E"/>
<path d="M47.4004 18.0154L54.4004 23.4154C55.4004 22.1154 56.3004 20.8154 57.2004 19.2154L50.2004 13.8154C49.3004 15.3154 48.4004 16.7154 47.4004 18.0154Z" fill="#EFB100"/>
<path d="M0 41.216L3.5 43.916L7 46.616C7 46.616 7.6 44.516 9 41.816L2 36.416C0.6 39.116 0 41.216 0 41.216Z" fill="#8D1913"/>
<path d="M2.5 35.6156L9.5 41.0156C10.3 39.7156 11.2 38.3156 12.4 36.9156L5.4 31.5156C4.2 32.8156 3.2 34.3156 2.5 35.6156Z" fill="#BB1B18"/>
<path d="M6 30.816L13 36.216C14.1 35.016 15.4 33.816 16.8 32.816L9.8 27.416C8.3 28.416 7.1 29.616 6 30.816Z" fill="#C21B18"/>
<path d="M33.2998 14.5154L40.2998 19.9154C41.4998 18.8154 42.5998 17.6154 43.6998 16.2154L36.6998 10.8154C35.5998 12.2154 34.3998 13.4154 33.2998 14.5154Z" fill="#E03D2E"/>
<path d="M16.5996 24.0154L23.5996 29.4154C25.2996 28.7154 27.0996 28.0154 28.9996 27.2154L21.9996 21.8154C20.0996 22.7154 18.2996 23.4154 16.5996 24.0154Z" fill="#F2908E"/>
<path d="M11.1996 26.516C10.9996 26.616 10.7996 26.716 10.5996 26.916L17.5996 32.316C17.7996 32.216 17.9996 32.016 18.1996 31.916C19.4996 31.116 20.9996 30.516 22.6996 29.816L15.6996 24.416C13.9996 25.116 12.4996 25.716 11.1996 26.516Z" fill="#E52A12"/>
<path d="M40.5996 5.21582L47.5996 10.6158C48.3996 9.21582 49.1996 7.71582 49.8996 6.11582L42.8996 0.71582C42.1996 2.21582 41.3996 3.71582 40.5996 5.21582Z" fill="#C31C18"/>
<path d="M22.9004 21.4154L29.9004 26.8154C31.5004 26.1154 33.1004 25.2154 34.7004 24.2154L27.7004 18.8154C26.1004 19.8154 24.4004 20.7154 22.9004 21.4154Z" fill="#F9CECF"/>
<path d="M28.5 18.3162L35.5 23.7162C36.9 22.8162 38.2 21.7162 39.6 20.5162L32.6 15.1162C31.2 16.3162 29.9 17.4162 28.5 18.3162Z" fill="#F18E99"/>
<path d="M37.2998 10.116L44.2998 15.516C45.2998 14.216 46.1998 12.916 47.0998 11.316L40.0998 5.91602C39.1998 7.41602 38.1998 8.81602 37.2998 10.116Z" fill="#D21F16"/>
<path d="M20.2998 56.9162L23.7998 59.6162L27.2998 62.3162C27.2998 62.3162 27.8998 60.2162 29.2998 57.5162L22.2998 52.1162C20.8998 54.8162 20.2998 56.9162 20.2998 56.9162Z" fill="#8D1913"/>
<path d="M22.7998 51.3158L29.7998 56.7158C30.5998 55.4158 31.4998 54.0158 32.6998 52.6158L25.6998 47.2158C24.4998 48.6158 23.4998 50.0158 22.7998 51.3158Z" fill="#BB1B18"/>
<path d="M26.2998 46.6158L33.2998 52.0158C34.3998 50.8158 35.6998 49.6158 37.0998 48.6158L30.0998 43.2158C28.5998 44.2158 27.3998 45.3158 26.2998 46.6158Z" fill="#C21B18"/>
<path d="M53.5 30.3162L60.5 35.7162C61.7 34.6162 62.8 33.4162 63.9 32.0162L56.9 26.6162C55.9 27.9162 54.7 29.2162 53.5 30.3162Z" fill="#E03D2E"/>
<path d="M36.9004 39.8162L43.9004 45.2162C45.6004 44.5162 47.4004 43.8162 49.3004 43.0162L42.3004 37.6162C40.4004 38.4162 38.6004 39.1162 36.9004 39.8162Z" fill="#F2908E"/>
<path d="M31.5004 42.3158C31.3004 42.4158 31.1004 42.6158 30.9004 42.7158L37.9004 48.1158C38.1004 48.0158 38.3004 47.9158 38.5004 47.7158C39.8004 46.9158 41.3004 46.3158 43.0004 45.6158L36.0004 40.2158C34.3004 40.9158 32.7004 41.5158 31.5004 42.3158Z" fill="#E52A12"/>
<path d="M43.2002 37.2162L50.2002 42.6162C51.8002 41.9162 53.4002 41.0162 55.0002 40.0162L48.0002 34.6162C46.4002 35.6162 44.7002 36.4162 43.2002 37.2162Z" fill="#F9CECF"/>
<path d="M48.7998 34.0154L55.7998 39.4154C57.1998 38.5154 58.4998 37.4154 59.8998 36.2154L52.8998 30.8154C51.4998 32.1154 50.0998 33.1154 48.7998 34.0154Z" fill="#F18E99"/>
<path d="M57.5 25.9158L64.5 31.3158C65.5 30.0158 66.4 28.7158 67.3 27.1158L60.3 21.7158C59.5 23.2158 58.5 24.6158 57.5 25.9158Z" fill="#D21F16"/>
</g>
<defs>
<clipPath id="clip0_16901_8311">
<rect width="226.8" height="61.7" fill="white" transform="translate(0 0.616211)"/>
</clipPath>
</defs>
</svg>
