<svg xmlns="http://www.w3.org/2000/svg" width="272.764" height="356.595" viewBox="0 0 255.716 334.308"><path d="M125.263 330.33c-5.436-8.807-15.067-20.315-33.373-39.877a27115.77 27115.77 0 01-18.687-19.988c-36.866-39.504-55.922-67.942-65.997-98.49-15.702-47.612-5.4-96.871 27.559-131.773C73.032-.32 132.976-11.49 183.094 12.565c28.06 13.468 50.47 36.852 62.446 65.157 16.501 39.003 12.842 83.208-10.307 124.508-12.742 22.734-28.093 41.992-63.754 79.98-24.612 26.22-35.093 38.513-41.022 48.12-1.351 2.187-2.52 3.978-2.597 3.978-.078 0-1.247-1.79-2.597-3.978zm10.577-142.87c23.714-3.292 42.62-19.614 49.809-43 1.621-5.274 1.772-6.684 1.772-16.577 0-9.89-.151-11.304-1.77-16.572-6.463-21.022-22.187-36.134-43.555-41.858-7.487-2.006-20.73-1.993-28.319.027-21.587 5.747-37.212 20.701-43.708 41.831-1.62 5.268-1.77 6.681-1.77 16.572 0 9.935.146 11.289 1.8 16.678 8.876 28.9 36.54 46.953 65.74 42.9z"/></svg>