<svg xmlns="http://www.w3.org/2000/svg" width="318.134" height="253.765" viewBox="0 0 298.251 237.904"><path d="M122.57 235.74C55.86 217.804 3.206 156.73.2 93.798c-.949-19.854 1.375-32 9.203-48.092 7.757-15.949 19.92-28.288 35.418-35.93C59.721 2.428 69.644.3 88.571.396c17.997.09 32.363 3.197 50.193 10.857l10.544 4.53L157.647 12c20.699-9.385 44.9-13.68 64.237-11.4 78.17 9.22 101.594 97.914 45.505 172.309-20.788 27.572-49.3 48.192-82.97 60.005-12.223 4.287-13.509 4.479-32.723 4.871-16.827.343-21.448.019-29.127-2.046zm58.968-11.701c25.798-8.763 45.38-21.173 64.828-41.086 48.376-49.535 56.78-117.907 18.868-153.486-15.631-14.67-34.164-20.784-59.641-19.678-17.074.74-30.722 4.144-46.339 11.554-5.056 2.4-9.731 4.363-10.39 4.363-.658 0-5.915-2.21-11.682-4.912-17.78-8.329-28.877-10.713-49.86-10.713-14.436 0-19.525.477-25 2.341-24.139 8.221-41.104 24.356-48.887 46.494-18.361 52.228 19.478 124.99 81.152 156.047 22.432 11.297 35.608 14.54 57.11 14.057 14.935-.336 17.349-.739 29.84-4.981zm-35.826-7.859c-1.906-1.906-.85-6.568 1.67-7.368 3.283-1.042 6.417 1.55 5.937 4.91-.375 2.626-5.714 4.351-7.607 2.458zm-13.453-23.426c-33.577-9.056-38.223-54.146-9.88-95.883 6.33-9.32 21.714-25.765 25.114-26.844 7.2-2.285 31.573 27.83 40.337 49.84 14.013 35.19 4.83 65.652-21.938 72.777-8.102 2.157-25.83 2.214-33.633.11zm34.437-10.077c2.75-1.157 6.618-3.62 8.596-5.475 19.115-17.922 8.408-63.348-21.714-92.121l-5.234-5-6.833 7.5c-15.096 16.57-25.203 36.188-28.03 54.408-1.705 10.988-.769 18.507 3.383 27.165 5.722 11.935 16.19 16.857 34.207 16.083 6.143-.264 12.734-1.344 15.625-2.56zm-87.738-.266c-1.034-2.695 1.187-6.08 3.988-6.08 1.225 0 2.8.908 3.5 2.018 1.91 3.027.145 6.107-3.5 6.107-1.812 0-3.544-.888-3.988-2.045zm132.281-.11c-1.572-2.81.421-6.595 3.473-6.595 3.198 0 5.475 3.129 4.503 6.19-1.011 3.187-6.27 3.454-7.976.405zM59.946 138.38c-1.4-1.965-4.787-8.211-7.528-13.879-12.612-26.08-11.742-53.563 2.152-67.966 11.235-11.647 30.864-15.477 52.126-10.171 8.756 2.185 8.87 4.932.585 13.998-17.512 19.16-31.88 46.399-36.118 68.468-2.589 13.48-2.435 13.125-5.655 13.125-1.892 0-3.966-1.333-5.562-3.574zm4.685-21.078c4.572-17.094 15.39-37.893 27.89-53.623 8.123-10.222 8.016-10.474-4.45-10.474-11.57 0-20.016 2.95-26.226 9.16-11.94 11.941-12.409 31.59-1.396 58.653 1.433 3.522 2.5 2.574 4.182-3.716zm164.637 23.09c-.26-.859-1.66-6.906-3.11-13.437-4.716-21.24-15.72-42.782-31.726-62.113-5.535-6.684-9.589-12.702-9.36-13.892.59-3.059 5.425-4.949 16.021-6.262 38.751-4.802 60.777 20.843 51.437 59.888-4.573 19.116-14.224 37.379-19.753 37.379-1.669 0-3.248-.703-3.509-1.562zm12.558-31.54c3.64-11.47 4.431-25.868 1.856-33.772-4.577-14.045-14.098-20.686-30.996-21.617-15.376-.848-15.488-.675-6.916 10.666 13.264 17.55 21.278 32.676 26.604 50.214 2.567 8.456 2.963 9.057 4.542 6.898.951-1.301 3.16-6.876 4.91-12.388zM36.321 137.957c-3.774-3.774.06-9.76 4.67-7.293 3.25 1.74 3.338 5.8.162 7.5-3.013 1.612-3.013 1.612-4.832-.207zm220 0c-3.774-3.774.06-9.76 4.67-7.293 3.25 1.74 3.338 5.8.162 7.5-3.013 1.612-3.013 1.612-4.832-.207zM94.938 105.221c-2.017-2.43.286-7.015 3.524-7.015 3.43 0 5.893 3.475 4.284 6.042-1.733 2.767-5.89 3.285-7.808.973zm100.395.017c-1.498-3.904.018-6.407 3.88-6.407 3.315 0 3.733.42 3.733 3.75 0 3.164-.538 3.812-3.444 4.146-2.199.253-3.707-.286-4.169-1.49zM25.071 72.956c-3.742-3.743.507-9.65 5.095-7.082 3.615 2.023 1.919 8.582-2.22 8.582-.756 0-2.05-.675-2.875-1.5zm241.714-.464c-1.08-1.08-1.964-2.447-1.964-3.036 0-1.389 3.612-5 5-5 1.389 0 5 3.611 5 5 0 1.389-3.611 5-5 5-.59 0-1.955-.884-3.036-1.964zM146.321 52.956c-3.774-3.774.06-9.76 4.67-7.293 3.25 1.74 3.338 5.8.162 7.5-3.013 1.612-3.013 1.612-4.832-.207zM76.458 29.911c-1.034-2.695 1.187-6.08 3.988-6.08 1.225 0 2.8.908 3.5 2.018 1.91 3.027.145 6.107-3.5 6.107-1.812 0-3.544-.888-3.988-2.045zm137.281-.11c-1.572-2.81.421-6.595 3.473-6.595 3.198 0 5.475 3.129 4.503 6.19-1.011 3.187-6.27 3.454-7.976.405z"/></svg>