<svg xmlns="http://www.w3.org/2000/svg" width="639.795" height="639.738" viewBox="0 0 599.808 599.755"><path d="M56.688 598.624c-13.477-2.686-26.493-9.65-36.223-19.381C12.792 571.57 8.279 564.4 3.66 552.544L.438 544.27.086 305.52C-.167 133.75.126 64.408 1.133 58.352c.798-4.803 3.518-12.8 6.334-18.624 6.208-12.836 19.08-26.21 30.836-32.037C55.168-.67 39.539-.216 297.938.17l233.75.349 10 3.406c21.35 7.272 41.699 23.16 50.278 39.257 8.39 15.74 7.849-2.067 7.828 257.912-.02 261.416.56 243.393-8.384 260.414-9.163 17.438-29.115 32.386-48.791 36.556-7.15 1.515-44.321 1.77-244.681 1.671-129.938-.063-238.5-.563-241.25-1.112zm440-82.45c7.968-3.945 15.458-11.435 19.405-19.404l3.095-6.25.337-120.312.336-120.313h-47.204l2.279 9.566c5.648 23.71 6.108 50.126 1.303 74.858-11.327 58.303-50.565 107.06-105.176 130.69-23.812 10.302-43.234 14.163-71.25 14.163-28.017 0-47.439-3.86-71.25-14.164-79.681-34.477-123.82-121.822-103.873-205.547l2.279-9.566H79.813v117.926c0 95.97.317 118.981 1.704 123.59 3.607 11.985 14.435 22.99 26.291 26.72 4.11 1.292 42.643 1.566 193.88 1.376l188.75-.237 6.25-3.095zm-176.7-108.26c44.531-8.443 79.4-43.313 87.843-87.845 11.234-59.253-28.267-116.898-87.844-128.193-28.133-5.333-57.137.657-81.24 16.78-57.603 38.533-65.58 119.852-16.564 168.868 25.704 25.704 62.392 37.103 97.804 30.39zm190.596-231.221c1.897-1.418 4.609-4.13 6.027-6.03 2.468-3.305 2.577-5.028 2.577-40.768s-.11-37.463-2.578-40.769c-1.417-1.898-4.13-4.611-6.029-6.029-3.306-2.468-5.028-2.577-40.768-2.577s-37.463.109-40.769 2.577c-1.898 1.418-4.612 4.13-6.029 6.027-2.43 3.252-2.599 5.38-2.96 37.422-.21 18.686-.046 35.786.363 38 .926 5.011 6.176 11.39 11.208 13.62 2.967 1.314 11.755 1.623 39.66 1.396 34.013-.277 36.025-.424 39.298-2.87z"/></svg>