<svg xmlns="http://www.w3.org/2000/svg" width="329.609" height="307.358" viewBox="0 0 309.009 288.148"><path d="M232.242 287.978c-1.031-.237-6.094-1.116-11.25-1.953-21.054-3.42-64.805-19.994-86.25-32.672-6.531-3.86-17.625-11.315-24.653-16.564C64.998 203.109 14.386 137.504 3.46 98.572c-5.605-19.974-4.305-45.12 3.212-62.119 6.341-14.339 19.368-29.45 28.98-33.619C38.384 1.65 45.362.523 52.242.156c13.83-.738 19.996 1.082 22.884 6.755 5.637 11.075 28.366 68.17 28.366 71.255 0 4.7-4.95 12.373-15.583 24.156-12.743 14.122-12.807 14.697-3.382 29.992 17.321 28.108 43.872 53.92 72.369 70.358 12.422 7.165 30.295 14.652 34.963 14.646 6.169-.01 11.426-4.634 22.599-19.883 12.136-16.565 15.692-19.472 22.667-18.537 4.594.616 63.788 28.36 69.175 32.423 2.528 1.906 2.804 3.135 2.687 11.989-.16 12.025-4.069 25.98-9.64 34.408-7.093 10.729-28.7 24.347-44.605 28.113-6.418 1.52-19.706 2.788-22.5 2.147z"/></svg>