<svg xmlns="http://www.w3.org/2000/svg" width="213.472" height="251.888" viewBox="0 0 200.13 236.145"><path d="M90.06 235.75c-34.455-2.914-66.815-26.03-81.367-58.123-13.872-30.595-10.943-69.003 7.364-96.584C33.629 54.569 66.286 35.97 95.352 35.882c5.797-.018 7.387.434 8.437 2.396.82 1.53 1.294 18.037 1.294 45 0 23.42.28 42.582.62 42.582.341 0 16.367-11.797 35.614-26.215 21.772-16.311 35.689-25.948 36.836-25.508 2.505.961 9.785 12.133 13.801 21.18 8.234 18.545 10.48 43.788 5.68 63.81-11.795 49.198-56.378 80.954-107.574 76.624zm31.194-10.673c30.952-7.668 56.069-30.95 65.907-61.092 4.724-14.47 5.474-34.906 1.816-49.462-2.46-9.794-7.816-22.557-11.648-27.759-1.536-2.086-1.88-2.01-5.677 1.25l-4.04 3.471 4.344 8.75c5.954 11.99 8.127 21.516 8.127 35.625 0 13.895-2.173 23.601-7.837 35-4.19 8.433-7.368 10.34-10.075 6.049-1-1.585-.38-4.103 2.614-10.625 2.158-4.702 4.5-11.08 5.206-14.174 1.915-8.406 1.602-25.512-.625-34.105-1.985-7.66-7.05-18.89-9.09-20.15-.606-.376-14.212 9.147-30.234 21.161-16.022 12.014-29.558 21.844-30.08 21.844-.523 0-1.834-.884-2.914-1.964-1.696-1.696-1.965-6.931-1.965-38.267V64.326l-5.687.853c-9.602 1.44-17.14 4.147-25.287 9.082-8.529 5.165-18.951 14.786-22.847 21.09-2.89 4.675-5.794 6.135-8.212 4.128-2.82-2.34-1.993-5.498 3.285-12.556 11.093-14.834 29.062-25.93 47.91-29.587l10.83-2.1.004-5.457.004-5.457-7.187.872c-33.389 4.05-63.17 28.913-74.909 62.541C9.78 116.927 9.5 119.2 9.525 135.86c.025 16.311.364 19.126 3.386 28.125 10.069 29.98 34.034 52.507 64.652 60.775 10.783 2.912 32.58 3.07 43.691.317zm-30.546-9.187c-27.885-3.443-51.546-20.454-63.19-45.43-6.134-13.16-7.797-22.092-7.134-38.318.66-16.136 3.62-26.544 7.777-27.345 4.62-.89 5.546 2.807 3.003 11.98-2.87 10.35-3.059 27.013-.42 37.143 6.251 24 25.964 43.982 50.504 51.195 11.073 3.254 29.324 2.689 41.334-1.28 10.59-3.5 13.751-3.327 13.751.754 0 7.095-26.51 13.661-45.625 11.301zm12.055-20.696c-10.966-9.227-5.93-25.158 8.39-26.534 5.63-.541 6.535-.236 10.708 3.617 5.575 5.145 6.952 11.24 3.964 17.536-4.112 8.666-15.892 11.415-23.062 5.381zm13.784-7.653c2.837-2.567 2.906-5.174.218-8.145-2.95-3.26-7.487-2.876-9.922.84-1.896 2.894-1.896 3.354 0 6.25 2.362 3.603 6.403 4.043 9.704 1.055zm-64.589-20.373c-11.022-4.56-12.233-21.576-1.916-26.912 12.72-6.577 26.543 4.564 22.16 17.86-2.598 7.877-12.442 12.279-20.244 9.052zm9.458-8.852c2.89-1.547 3.274-7.689.618-9.893-5.695-4.726-13.802 3.188-8.86 8.65 2.567 2.836 4.672 3.153 8.242 1.243zm78.37-6.913c-7.727-4.192-9.7-16.458-3.725-23.146 6.611-7.399 20.207-5.984 24.626 2.562 7.125 13.778-7.287 27.971-20.9 20.584zm12.083-8.757c3.914-3.914 1.35-10.536-4.08-10.536-4.327 0-6.456 2.06-6.456 6.25 0 1.788.675 3.925 1.5 4.75 2.104 2.104 6.705 1.867 9.036-.464zm-92.798-29.318c-5.718-3.486-8.43-10.229-6.587-16.378 1.948-6.502 7.743-11.09 14.007-11.09 6.707 0 11.588 2.761 14.049 7.946 2.778 5.855 2.569 9.655-.807 14.664-5.112 7.586-13.105 9.465-20.662 4.858zm12.817-8.996c2.457-3.508 2.453-5.286-.019-7.758-2.82-2.819-7.57-2.426-9.84.814-2.504 3.575-2.455 4.213.554 7.222 3.279 3.279 6.889 3.17 9.305-.278zm41.529-.555c-.459-.459-.834-23.501-.834-51.206 0-58.342-1.341-53.396 14.015-51.674 17.366 1.947 31.283 6.8 45.057 15.71 11.065 7.158 25.928 22.218 25.928 26.271 0 2.44-7.004 8.21-39.275 32.351-35.912 26.865-42.43 31.01-44.891 28.548zM132.97 83.15c5.631-4.24 10.498-7.922 10.815-8.18.316-.259-.896-1.711-2.695-3.228-7.402-6.239-8.172-14.805-1.943-21.602 7.595-8.288 19.956-6.785 24.384 2.964 1.157 2.547 2.228 4.833 2.38 5.08.46.742 20.422-15.055 20.422-16.16 0-.564-2.91-3.89-6.466-7.39-12.963-12.76-33.758-22.79-50.983-24.59l-7.55-.79v11.25l7.39.772c13.863 1.45 36.36 12.061 36.36 17.152 0 4.937-3.705 4.787-14.23-.58-9.81-5-20.22-8.238-26.491-8.238h-3.03v30.625c0 16.844.315 30.625.7 30.625.384 0 5.305-3.47 10.937-7.71zm21.863-18.79c2.777-2.776 1.808-8.413-1.722-10.022-5.61-2.556-10.855 2.69-8.3 8.3 1.609 3.53 7.246 4.498 10.022 1.722z"/></svg>