<svg xmlns="http://www.w3.org/2000/svg" width="333.407" height="206.854" viewBox="0 0 312.569 193.926"><path d="M87.5 193.566a990.932 990.932 0 00-9.375-1.904c-33.401-6.649-58.705-45.813-45.765-70.835l1.8-3.48-7.933-4.114C16.61 108.247 7.859 99.2 3.35 89.578.494 83.485 0 80.771 0 71.181c0-9.759.458-12.184 3.458-18.29C13.123 33.208 40.19 15.785 75 6.84 94.988 1.702 109.707.007 134.375 0c32.397-.009 53.01 3.511 93.75 16.012 12.031 3.692 26.27 7.392 31.643 8.223 18.085 2.797 34.859 10.348 44.745 20.143 13.325 13.202 9.53 26.483-7.034 24.616-3.082-.347-5.604-.207-5.604.312 0 .52.903 3.104 2.006 5.744 1.363 3.262 1.833 7.175 1.469 12.214-.465 6.422-1.07 7.89-4.525 10.977-3.323 2.97-5.082 3.56-10.532 3.537-3.675-.015-8.808-1.056-11.709-2.373l-5.166-2.346.615 18.31c.478 14.253.163 20.223-1.422 26.933-5.304 22.465-21.12 39.868-43.733 48.123L210 193.666l-60 .218c-33 .12-61.125-.024-62.5-.318zm42.835-11.76c.859-1.375 2.677-2.5 4.04-2.5s3.181 1.125 4.04 2.5c1.463 2.342 2.915 2.5 22.99 2.5 20.377 0 21.46-.123 22.082-2.5.44-1.679 1.705-2.5 3.852-2.5 1.919 0 3.733 1 4.536 2.5 1.664 3.109 8.735 3.344 19.133.635 20.103-5.236 35.07-19.2 40.999-38.25 2.85-9.157 3.242-34.841.716-46.892-1.44-6.87-2.593-8.737-11.536-18.691-5.466-6.083-11.715-12.92-13.888-15.194l-3.95-4.135-9.175 3.299c-15.549 5.591-32.748 13.634-60.901 28.48-28.403 14.978-45.701 22.842-58.404 26.551-5.082 1.484-8.004 3.076-8.75 4.768-1.414 3.208-5.053 3.944-7.775 1.573-1.487-1.296-6.581-2.02-17.568-2.5-15.307-.666-15.506-.64-18.38 2.46-3.297 3.559-4.96 11.879-3.617 18.093 1.034 4.78 5.955 14.948 9.655 19.954 2.169 2.933 2.914 3.216 5.44 2.065 4.067-1.853 6.973.723 6.492 5.754-.342 3.574.189 4.11 8.093 8.156 6.51 3.333 8.8 3.99 9.937 2.852 2.25-2.249 5.776-1.77 7.52 1.022 1.458 2.336 2.914 2.5 22.209 2.5 19.295 0 20.751-.164 22.21-2.5zm-25.912-11.16c-1.633-3.053-.523-6.021 2.627-7.021 4.67-1.482 8.079 4.427 4.575 7.93-2.25 2.25-5.747 1.809-7.202-.909zm52.5 0c-1.633-3.053-.523-6.021 2.627-7.021 4.67-1.482 8.079 4.427 4.575 7.93-2.25 2.25-5.747 1.809-7.202-.909zm53.952.91c-3.555-3.555-.077-9.408 4.69-7.894 1.784.566 2.56 1.882 2.56 4.344 0 4.572-4.18 6.619-7.25 3.55zm-132.837-16.73c-2.21-2.664-.068-6.021 4.168-6.53 3.484-.42 5.383 2.695 3.939 6.459-1.003 2.614-5.96 2.657-8.107.07zm52.5 0c-2.224-2.68-.06-6.023 4.232-6.537 2.602-.311 3.428.247 4.054 2.742.433 1.723.419 3.727-.03 4.454-1.233 1.995-6.395 1.583-8.256-.66zm53.1.261c-1.499-3.904.017-6.406 3.88-6.406 3.313 0 3.732.42 3.732 3.75 0 3.163-.539 3.812-3.445 4.146-2.198.253-3.706-.286-4.168-1.49zm52.5 0c-1.499-3.904.017-6.406 3.88-6.406 3.313 0 3.732.42 3.732 3.75 0 3.163-.539 3.812-3.445 4.146-2.198.253-3.706-.286-4.168-1.49zM52.651 139.904c-1.115-1.115-2.027-2.51-2.027-3.098 0-1.933 4.012-5.133 5.955-4.75 3.1.61 4.885 4.388 3.28 6.937-1.878 2.981-4.772 3.347-7.208.91zm52.5 0c-2.455-2.455-2.503-3.22-.382-6.12 3.257-4.455 10.531.538 7.59 5.21-1.878 2.98-4.772 3.346-7.208.91zm52.5 0c-2.455-2.455-2.503-3.22-.382-6.12 3.257-4.455 10.531.538 7.59 5.21-1.878 2.98-4.772 3.346-7.208.91zm53.223.402c-3.555-3.555-.077-9.408 4.69-7.894 1.784.566 2.56 1.882 2.56 4.344 0 4.572-4.18 6.619-7.25 3.55zm-80.337-16.73c-2.361-2.845.099-6.145 4.581-6.145 2.468 0 3.733.705 4.03 2.247.959 4.98-5.344 7.834-8.611 3.898zm53.1.261c-1.499-3.904.017-6.406 3.88-6.406 3.313 0 3.732.42 3.732 3.75 0 3.163-.539 3.812-3.445 4.146-2.198.253-3.706-.286-4.168-1.49zm52.5 0c-1.499-3.904.017-6.406 3.88-6.406 3.313 0 3.732.42 3.732 3.75 0 3.163-.539 3.812-3.445 4.146-2.198.253-3.706-.286-4.168-1.49zm-78.549-15.246c-2.324-2.324-2.344-2.49-.67-5.618 1.458-2.725 4.954-3.17 7.206-.917 2.252 2.252 1.807 5.747-.918 7.206-3.127 1.673-3.294 1.653-5.618-.67zm53.086.15c-3.05-3.675.984-9.495 5.405-7.799 3.833 1.471 1.777 9.614-2.427 9.614-.81 0-2.15-.817-2.978-1.815zM184.688 93.5c-2.39-1-1.859-6.45.764-7.853 3.289-1.76 6.786 1.035 6.23 4.978-.428 3.027-3.556 4.313-6.994 2.875zm52.5 0c-2.39-1-1.859-6.45.764-7.853 3.289-1.76 6.786 1.035 6.23 4.978-.428 3.027-3.556 4.313-6.994 2.875zm-25.884-15.876c-1.312-.96-1.996-2.789-1.735-4.64.348-2.465 1.155-3.054 4.181-3.054 3.139 0 3.813.546 4.137 3.353.491 4.248-3.295 6.745-6.583 4.34zm-124.6 32.161c12.486-2.763 24.304-7.992 64.546-28.559 39.683-20.281 63.846-30.671 71.327-30.671 5.793 0 10.48 2.788 14.355 8.54 1.687 2.505 7.853 9.342 13.702 15.195 14.48 14.487 27.463 21.178 33.099 17.057 5.078-3.714 1.58-16.07-8.254-29.149-3.988-5.305-4.16-8.529-.529-9.922 1.035-.397 6.072 1.022 11.192 3.153 9.214 3.836 16.983 5.039 16.983 2.63 0-2.893-9.38-11.275-17.198-15.368-9.77-5.115-18.41-7.77-31.552-9.697-5.156-.756-16.125-3.529-24.375-6.163-18.075-5.77-34.467-10.371-34.952-9.81-.195.224 1.25 5.471 3.211 11.659 4.17 13.156 4.418 16.357 1.396 17.975-4.066 2.176-6.108-.829-10.972-16.15-2.774-8.735-5.658-15.585-6.826-16.21-2.61-1.396-23.55-4.34-24.452-3.437-.378.378 2.49 10.614 6.374 22.747 5.664 17.695 6.762 22.42 5.55 23.88-1.853 2.232-5.455 2.362-7.176.257-.703-.86-4.618-11.969-8.7-24.687L146.028 9.93l-15.35-.353c-12.073-.277-15.225-.01-14.756 1.25 2.09 5.616 19.702 62.195 19.702 63.291 0 1.954-4.486 4.055-6.78 3.175-1.275-.489-5.695-12.28-12.652-33.753-10.026-30.946-10.864-32.967-13.443-32.45-1.512.304-7.953 1.503-14.312 2.664-7.902 1.442-11.563 2.65-11.563 3.816 0 .938 4.781 16.475 10.625 34.527 5.844 18.051 10.625 33.739 10.625 34.861 0 2.878-3.2 5.19-5.968 4.311-1.806-.573-4.973-8.856-13.922-36.402C67.27 21.11 66.507 19.252 63.951 20.033c-4.837 1.476-20.326 8.316-22.601 9.98-2.08 1.52-1.608 3.513 7.53 31.794C59.188 93.712 59.483 96.18 52.989 96.18c-2.793 0-3.617-1.914-12.563-29.158C35.16 50.986 30.598 37.61 30.286 37.3c-1.264-1.265-14.862 13.73-17.98 19.828-10.395 20.326 3.653 45.12 29.576 52.2 13.15 3.592 29.882 3.763 44.822.457z"/></svg>