<svg xmlns="http://www.w3.org/2000/svg" width="559.713" height="424.657" viewBox="0 0 524.731 398.116"><path d="M182.372 395.616c-1.454-1.454-2.5-4.166-2.5-6.486 0-3.495 2.805-6.811 22.813-26.971 12.547-12.642 24.309-23.775 26.138-24.739 7.61-4.01 15.838 3.965 11.87 11.505-1.033 1.962-12.22 13.832-24.863 26.379-20.16 20.008-23.476 22.812-26.972 22.812-2.319 0-5.03-1.045-6.486-2.5zm64.057-64.068c-40.63-40.642-46.557-47.048-46.557-50.334 0-3.123 2.296-6.054 13.458-17.182 10.943-10.909 14.14-13.416 17.102-13.416 3.035 0 7.013 3.347 23.793 20.016l20.15 20.016 3.607-3.766 3.608-3.766-11.943-12.187c-13.439-13.713-17.265-20.088-18.192-30.312-1.047-11.551 2.187-20.228 10.695-28.692 8.586-8.54 17.688-12.05 28.394-10.944 10.835 1.118 17.044 4.75 30.585 17.89l12.524 12.152 3.008-2.825 3.008-2.826-5.517-8.226c-6.578-9.808-10.005-18.495-11.955-30.307-3.211-19.441 5.436-43.723 15.57-43.723 1.635 0 9.935 7.328 22.968 20.274l20.409 20.273 3.387-3.387 3.387-3.387-19.648-19.787c-25.124-25.302-24.82-23.248-6.19-41.82 10.943-10.909 14.14-13.416 17.102-13.416 3.035 0 7.014 3.348 23.802 20.024l20.157 20.024 2.945-3.133 2.944-3.134-11.826-12.203c-12.964-13.378-17.135-20.426-18.202-30.757-1.121-10.869 2.34-19.91 10.93-28.543 5.642-5.672 8.523-7.523 14.348-9.216 9.06-2.634 19.284-1.9 26.933 1.935 7.715 3.868 64.798 60.732 69.337 69.071 4.526 8.316 5.457 19.372 2.405 28.56-3.271 9.849-13.938 20.21-23.736 23.06-8.686 2.524-17.818 1.908-26.119-1.764-3.466-1.533-10.632-7.302-18.234-14.678l-12.524-12.153-3.134 2.944-3.134 2.944 20.024 20.158c25.336 25.504 24.971 23.405 7.187 41.383-18.328 18.53-16.77 18.787-42.774-7.046l-20.157-20.024-2.74 2.917c-1.508 1.605-2.742 3.45-2.742 4.102 0 .651 8.72 9.89 19.375 20.53 20.301 20.268 21.652 22.442 17.571 28.268-2.676 3.822-15.675 9.175-25.004 10.298-16.418 1.977-32.08-1.99-46.304-11.729l-7.882-5.396-2.831 3.014-2.832 3.014 12.153 12.524c13.116 13.517 16.772 19.753 17.882 30.506 1.133 10.983-2.213 19.786-10.778 28.35-8.638 8.638-17.254 11.869-28.85 10.817-10.224-.927-16.6-4.753-30.312-18.191l-12.187-11.944-3.766 3.608-3.766 3.608 20.016 20.15c25.376 25.545 25.022 23.474 7.08 41.416-11.352 11.351-13.458 12.936-17.194 12.936-3.935 0-7.794-3.537-50.814-46.568zm21.277-21.218l-37.768-37.768-4.438 4.302-4.438 4.301 37.828 37.844 37.829 37.844 4.378-4.378 4.377-4.377-37.768-37.768zm83.69-4.908c6.113-4.353 8.96-12.233 7.035-19.47-1.002-3.764-7.076-10.569-30.219-33.856-15.93-16.03-30.483-29.952-32.34-30.938-4.871-2.586-13.376-2.239-18.272.746-5.518 3.365-9.395 11.998-8.26 18.397.716 4.037 5.121 9.006 31.62 35.669 19.997 20.121 32.102 31.376 34.537 32.113 4.974 1.506 11.606.396 15.898-2.661zm55.372-68.112c1.62-.621-5.584-8.494-31.451-34.375-18.454-18.463-34.047-33.569-34.651-33.569-.605 0-.86 4.922-.566 10.938.45 9.245 1.179 12.245 4.706 19.389 7.557 15.304 24.089 30.579 38.816 35.865 6.74 2.42 18.991 3.347 23.146 1.752zm9.688-75.73l-37.768-37.768-4.438 4.302-4.438 4.301 37.828 37.844 37.829 37.844 4.378-4.378 4.377-4.377-37.768-37.768zm80.88-2.82c7.266-3.757 11.366-13.453 8.878-20.992-.92-2.784-11.32-14.013-32.286-34.855-26.622-26.464-31.584-30.863-35.62-31.58-6.4-1.134-15.033 2.742-18.397 8.26-2.985 4.896-3.333 13.401-.747 18.273 2.011 3.788 57.436 59.196 61.333 61.315 3.612 1.963 12.666 1.737 16.839-.421zM2.941 341.298c-3.522-3.521-3.79-5.687-1.29-10.431 2.984-5.667 45.974-47.47 49.793-48.42 6.304-1.567 12.108 4.573 10.467 11.072-.378 1.497-11.571 13.55-24.874 26.785C10.736 346.47 9.113 347.47 2.941 341.298zm63.513-63.513c-40.587-40.587-46.582-47.064-46.582-50.334 0-3.107 2.316-6.06 13.458-17.169 18.6-18.54 16.518-18.85 41.752 6.207l19.762 19.622 3.793-3.634 3.794-3.635-12.479-12.55c-14.768-14.854-18.046-20.885-18.026-33.176.031-20.195 16.008-36.25 36.071-36.25 12.026 0 17.43 2.907 32.232 17.338l13.48 13.143 3.2-3.199 3.199-3.199-4.488-6.246c-8.95-12.457-13.21-25.705-13.233-41.143-.027-18.536 6.99-34.194 15.323-34.194 3.321 0 6.702 2.817 23.99 19.99l20.123 19.991 3.39-3.39 3.39-3.39-19.99-20.123c-16.75-16.863-19.99-20.721-19.99-23.81 0-3.022 2.423-6.102 13.457-17.102 11.109-11.073 14.112-13.416 17.203-13.416 3.17 0 6.8 3.06 23.688 19.974l19.945 19.974 3.482-3.337 3.482-3.336-12.335-12.575c-6.785-6.916-13.35-14.544-14.59-16.95-3.364-6.528-3.998-22.243-1.193-29.588 2.74-7.172 9.218-14.487 16.756-18.919 5.08-2.986 7.005-3.367 16.98-3.359 9.368.007 12.19.5 16.874 2.947 3.505 1.83 17.025 14.314 35.863 33.116 34.566 34.497 36.613 37.443 36.613 52.678 0 17.524-10.258 30.687-27.322 35.059-15.337 3.93-24.546.21-41.99-16.955l-12.689-12.486-3.336 3.482-3.336 3.483 19.453 19.333c10.7 10.634 19.892 20.456 20.428 21.828 1.733 4.44-1.08 8.812-13.57 21.083-17.206 16.904-15.293 17.288-40.976-8.225l-20.409-20.274-3.405 3.405-3.405 3.406 19.874 19.903c17.455 17.482 19.874 20.395 19.874 23.941 0 5.068-3.915 8.626-13.793 12.535-6.077 2.406-9.571 2.87-21.624 2.87-16.698 0-23.348-2.022-37.193-11.306l-8.28-5.552-3.129 3.129-3.128 3.129 13.168 13.504c15.463 15.857 18.037 21.174 17.03 35.188-1.37 19.102-15.852 32.975-34.635 33.18-13.277.146-18.658-2.648-33.906-17.601l-13.199-12.944-3.629 3.787-3.628 3.788 18.953 19.03c10.425 10.467 19.486 20.46 20.136 22.21 1.877 5.048-.919 9.511-13.864 22.133-10.205 9.95-12.446 11.562-16.071 11.562-3.874 0-7.95-3.737-50.793-46.58zm55.648 19.985l3.97-4.095-37.825-37.81-37.825-37.81-4.3 4.436-4.299 4.436 37.455 37.47c20.6 20.608 37.769 37.47 38.154 37.47.385 0 2.486-1.844 4.67-4.097zm48.64-45.849c7.946-4.845 11.163-14.768 7.376-22.75-1.12-2.36-15.106-17.293-31.079-33.184-33.137-32.966-34.851-34.08-45.621-29.616-7.491 3.105-11.546 8.852-11.546 16.367 0 3.026.807 7.021 1.792 8.878 2.01 3.788 57.436 59.196 61.333 61.315 4.068 2.211 13.327 1.684 17.745-1.01zm57.485-69.243c.5-.499-14.232-16.055-32.737-34.57-22.52-22.53-33.965-33.158-34.612-32.14-1.635 2.574-1.111 13.833.976 20.984 2.836 9.714 7.293 16.839 16.567 26.48 13.942 14.496 27.772 21.303 41.738 20.543 3.938-.214 7.57-.798 8.068-1.297zm42.625-33.658l3.97-4.095-37.825-37.81-37.825-37.81-4.3 4.436-4.299 4.436 37.455 37.47c20.6 20.608 37.769 37.47 38.154 37.47.385 0 2.486-1.844 4.67-4.097zm46.472-44.004c7.399-3.826 11.047-11.717 9.448-20.435-.713-3.889-5.458-9.227-31.058-34.942-32.076-32.221-34.5-34.006-43.81-32.26-6.063 1.138-12.842 7.75-13.94 13.597-2.033 10.839-1.431 11.7 30.456 43.642 16.268 16.295 30.984 30.181 32.702 30.859 4.672 1.84 12.165 1.627 16.202-.46zm175.617-19.968c-5.285-5.285-4.169-8.775 6.085-19.029 10.253-10.253 13.744-11.37 19.028-6.085 5.285 5.285 4.169 8.775-6.085 19.029-10.253 10.254-13.744 11.37-19.028 6.085zM314.506 31.846c-2.57-2.022-3.384-3.754-3.384-7.21 0-3.98 1.086-5.612 8.673-13.035 9.543-9.338 14.044-10.768 18.827-5.985 4.818 4.817 3.37 9.415-5.937 18.85-9.7 9.834-13.236 11.269-18.18 7.38z"/></svg>