<svg width="24" height="24" viewBox="0 0 24 24" fill="none" xmlns="http://www.w3.org/2000/svg">
<path d="M18.3639 5.63604C21.8787 9.15076 21.8787 14.8492 18.3639 18.3639C14.8492 21.8787 9.15074 21.8787 5.63604 18.3639C2.12132 14.8492 2.12132 9.15074 5.63604 5.63604C9.15076 2.12132 14.8492 2.12132 18.3639 5.63604" stroke="#232323" stroke-linecap="round" stroke-linejoin="round"/>
<path fill-rule="evenodd" clip-rule="evenodd" d="M15 16H13V8C13 7.448 13.448 7 14 7H15C15.552 7 16 7.448 16 8V15C16 15.552 15.552 16 15 16Z" stroke="#232323" stroke-linecap="round" stroke-linejoin="round"/>
<path d="M13 16H10V11C10 10.448 10.448 10 11 10H13" stroke="#232323" stroke-linecap="round" stroke-linejoin="round"/>
<path d="M10 16H8C7.448 16 7 15.552 7 15V14C7 13.448 7.448 13 8 13H10" stroke="#232323" stroke-linecap="round" stroke-linejoin="round"/>
</svg>
