<svg width="20" height="21" viewBox="0 0 20 21" fill="none" xmlns="http://www.w3.org/2000/svg">
<path d="M14 1V5" stroke="#232323" stroke-linecap="round" stroke-linejoin="round"/>
<path d="M6 1V5" stroke="#232323" stroke-linecap="round" stroke-linejoin="round"/>
<path d="M1 8H19" stroke="#232323" stroke-linecap="round" stroke-linejoin="round"/>
<path fill-rule="evenodd" clip-rule="evenodd" d="M17 3H3C1.895 3 1 3.895 1 5V18C1 19.105 1.895 20 3 20H17C18.105 20 19 19.105 19 18V5C19 3.895 18.105 3 17 3Z" stroke="#232323" stroke-linecap="round" stroke-linejoin="round"/>
<path d="M10.0127 11.7305C9.87468 11.7305 9.76268 11.8425 9.76368 11.9805C9.76368 12.1185 9.87568 12.2305 10.0137 12.2305C10.1517 12.2305 10.2637 12.1185 10.2637 11.9805C10.2637 11.8425 10.1517 11.7305 10.0127 11.7305" stroke="#232323" stroke-linecap="round" stroke-linejoin="round"/>
<path d="M15.0127 11.7305C14.8747 11.7305 14.7627 11.8425 14.7637 11.9805C14.7637 12.1185 14.8757 12.2305 15.0137 12.2305C15.1517 12.2305 15.2637 12.1185 15.2637 11.9805C15.2637 11.8425 15.1517 11.7305 15.0127 11.7305" stroke="#232323" stroke-linecap="round" stroke-linejoin="round"/>
<path d="M5.01268 15.7305C4.87468 15.7305 4.76268 15.8425 4.76368 15.9805C4.76368 16.1185 4.87568 16.2305 5.01368 16.2305C5.15168 16.2305 5.26368 16.1185 5.26368 15.9805C5.26368 15.8425 5.15168 15.7305 5.01268 15.7305" stroke="#232323" stroke-linecap="round" stroke-linejoin="round"/>
<path d="M10.0127 15.7305C9.87468 15.7305 9.76268 15.8425 9.76368 15.9805C9.76368 16.1185 9.87568 16.2305 10.0137 16.2305C10.1517 16.2305 10.2637 16.1185 10.2637 15.9805C10.2637 15.8425 10.1517 15.7305 10.0127 15.7305" stroke="#232323" stroke-linecap="round" stroke-linejoin="round"/>
</svg>
