<svg width="26" height="26" viewBox="0 0 26 26" fill="none" xmlns="http://www.w3.org/2000/svg">
<path d="M19.5026 19.5664V21.502C19.5026 21.7043 19.3807 21.8867 19.1938 21.9641C19.0069 22.0416 18.7918 21.9988 18.6487 21.8557L16.3594 19.5664" stroke="#232323" stroke-linecap="round" stroke-linejoin="round"/>
<path d="M19.0029 10.5H19.5067C20.886 10.5 22.0042 11.6182 22.0042 12.9975V17.0705C22.0042 18.4498 20.886 19.568 19.5067 19.568V19.568" stroke="#232323" stroke-linecap="round" stroke-linejoin="round"/>
<path d="M16.3629 19.5696H13.4965C12.1172 19.5696 10.999 18.4514 10.999 17.0721V16.0039" stroke="#232323" stroke-linecap="round" stroke-linejoin="round"/>
<path fill-rule="evenodd" clip-rule="evenodd" d="M9.70452 12.9998L7.35104 15.3534C7.20798 15.4965 6.99283 15.5392 6.80591 15.4618C6.619 15.3844 6.49714 15.202 6.49714 14.9997V12.9998H6.49359C5.83121 12.9998 5.19596 12.7367 4.72759 12.2683C4.25921 11.8 3.99609 11.1647 3.99609 10.5023V6.49359C3.99609 5.11426 5.11426 3.99609 6.49359 3.99609H13.5036C14.8829 3.99609 16.0011 5.11426 16.0011 6.49359V10.5023C16.0011 11.1647 15.738 11.8 15.2696 12.2683C14.8012 12.7367 14.166 12.9998 13.5036 12.9998H9.70452Z" stroke="#232323" stroke-linecap="round" stroke-linejoin="round"/>
</svg>
