<svg width="26" height="26" viewBox="0 0 26 26" fill="none" xmlns="http://www.w3.org/2000/svg">
<path fill-rule="evenodd" clip-rule="evenodd" d="M7.49755 22.0048V22.0048C5.56375 22.0048 3.99609 20.4372 3.99609 18.5034V5.99815C3.99609 4.89312 4.8919 3.99731 5.99693 3.99731H8.99818C10.1032 3.99731 10.999 4.89312 10.999 5.99815V18.5034C10.999 20.4372 9.43135 22.0048 7.49755 22.0048Z" stroke="#232323" stroke-linecap="round" stroke-linejoin="round"/>
<path d="M9.97363 20.9794L19.6887 11.2644C20.4698 10.483 20.4698 9.2165 19.6887 8.43518L17.5668 6.31329C16.7855 5.53221 15.5189 5.53221 14.7376 6.31329L10.9991 10.0499" stroke="#232323" stroke-linecap="round" stroke-linejoin="round"/>
<path d="M15.9516 15.002H20.0033C21.1083 15.002 22.0041 15.8978 22.0041 17.0028V20.004C22.0041 21.1091 21.1083 22.0049 20.0033 22.0049H7.49805" stroke="#232323" stroke-linecap="round" stroke-linejoin="round"/>
<path d="M3.99609 15.9593H10.999" stroke="#232323" stroke-linecap="round" stroke-linejoin="round"/>
<path d="M3.99609 9.91378H10.999" stroke="#232323" stroke-linecap="round" stroke-linejoin="round"/>
</svg>
