<svg width="24" height="24" viewBox="0 0 24 24" fill="none" xmlns="http://www.w3.org/2000/svg">
<path fill-rule="evenodd" clip-rule="evenodd" d="M4.99959 20H3.61759C3.30859 20 3.05859 19.75 3.05859 19.441V15.059C3.05859 14.75 3.30859 14.5 3.61759 14.5H4.99959C5.30859 14.5 5.55859 14.75 5.55859 15.101V19.483C5.55859 19.75 5.30859 20 4.99959 20V20Z" stroke="#232323" stroke-linecap="round" stroke-linejoin="round"/>
<path d="M5.55859 15.685L7.40459 12.664C8.11559 11.501 9.90659 12.004 9.90659 13.368V14.963H10.7966H11.4166C11.8696 14.963 12.2926 15.19 12.5446 15.569C12.7676 15.904 12.8326 16.321 12.7216 16.708L11.9896 19.27C11.8656 19.702 11.4706 20 11.0216 20H7.43859C7.14759 20 6.86459 19.898 6.64059 19.712L5.55859 18.815" stroke="#232323" stroke-linecap="round" stroke-linejoin="round"/>
<path fill-rule="evenodd" clip-rule="evenodd" d="M19.059 4.05859H20.441C20.75 4.05859 21 4.30859 21 4.61759V8.99959C21 9.30859 20.75 9.55859 20.441 9.55859H19.059C18.75 9.55859 18.5 9.30859 18.5 8.95759V4.57559C18.5 4.30859 18.75 4.05859 19.059 4.05859V4.05859Z" stroke="#232323" stroke-linecap="round" stroke-linejoin="round"/>
<path d="M18.5003 8.37359L16.6543 11.3946C15.9433 12.5576 14.1523 12.0546 14.1523 10.6906V9.09559H13.2623H12.6423C12.1893 9.09559 11.7663 8.86859 11.5143 8.48959C11.2913 8.15459 11.2263 7.73759 11.3373 7.35059L12.0693 4.78859C12.1933 4.35659 12.5883 4.05859 13.0373 4.05859H16.6203C16.9113 4.05859 17.1943 4.16059 17.4183 4.34659L18.5003 5.24359" stroke="#232323" stroke-linecap="round" stroke-linejoin="round"/>
<path d="M21 15V19C21 20.105 20.105 21 19 21H15" stroke="#232323" stroke-linecap="round" stroke-linejoin="round"/>
<path d="M3 9V5C3 3.895 3.895 3 5 3H9" stroke="#232323" stroke-linecap="round" stroke-linejoin="round"/>
</svg>
