<svg width="22" height="22" viewBox="0 0 22 22" fill="none" xmlns="http://www.w3.org/2000/svg">
<mask id="mask0_100_2492" style="mask-type:alpha" maskUnits="userSpaceOnUse" x="0" y="0" width="22" height="22">
<circle cx="11" cy="11" r="11" fill="#C4C4C4"/>
</mask>
<g mask="url(#mask0_100_2492)">
<rect x="-11" y="3.38281" width="44" height="1.69231" fill="#E5394B"/>
<rect x="-11" width="44" height="1.69231" fill="#E5394B"/>
<rect x="-11" y="6.76953" width="44" height="1.69231" fill="#E5394B"/>
<rect x="-11" y="10.1523" width="44" height="1.69231" fill="#E5394B"/>
<rect x="-11" y="13.5381" width="44" height="1.69231" fill="#E5394B"/>
<rect x="-11" y="16.9219" width="44" height="1.69231" fill="#E5394B"/>
<rect x="-11" y="20.3076" width="44" height="1.69231" fill="#E5394B"/>
<rect x="-11" width="22" height="11.8462" fill="#14599F"/>
<path d="M-0.000525832 0L0.189448 0.584678H0.804214L0.306858 0.946029L0.496831 1.53071L-0.000525832 1.16936L-0.497883 1.53071L-0.307909 0.946029L-0.805266 0.584678H-0.190499L-0.000525832 0Z" fill="white"/>
<path d="M-0.000525832 3.38281L0.189448 3.96749H0.804214L0.306858 4.32884L0.496831 4.91352L-0.000525832 4.55217L-0.497883 4.91352L-0.307909 4.32884L-0.805266 3.96749H-0.190499L-0.000525832 3.38281Z" fill="white"/>
<path d="M-0.000525832 6.76953L0.189448 7.35421H0.804214L0.306858 7.71556L0.496831 8.30024L-0.000525832 7.93889L-0.497883 8.30024L-0.307909 7.71556L-0.805266 7.35421H-0.190499L-0.000525832 6.76953Z" fill="white"/>
<path d="M-0.000525832 10.1523L0.189448 10.737H0.804214L0.306858 11.0984L0.496831 11.6831L-0.000525832 11.3217L-0.497883 11.6831L-0.307909 11.0984L-0.805266 10.737H-0.190499L-0.000525832 10.1523Z" fill="white"/>
<path d="M3.38473 0L3.5747 0.584678H4.18947L3.69211 0.946029L3.88208 1.53071L3.38473 1.16936L2.88737 1.53071L3.07734 0.946029L2.57999 0.584678H3.19475L3.38473 0Z" fill="white"/>
<path d="M3.38473 3.38281L3.5747 3.96749H4.18947L3.69211 4.32884L3.88208 4.91352L3.38473 4.55217L2.88737 4.91352L3.07734 4.32884L2.57999 3.96749H3.19475L3.38473 3.38281Z" fill="white"/>
<path d="M3.38473 6.76953L3.5747 7.35421H4.18947L3.69211 7.71556L3.88208 8.30024L3.38473 7.93889L2.88737 8.30024L3.07734 7.71556L2.57999 7.35421H3.19475L3.38473 6.76953Z" fill="white"/>
<path d="M3.38473 10.1523L3.5747 10.737H4.18947L3.69211 11.0984L3.88208 11.6831L3.38473 11.3217L2.88737 11.6831L3.07734 11.0984L2.57999 10.737H3.19475L3.38473 10.1523Z" fill="white"/>
<path d="M1.69283 8.46191L1.88281 9.04659H2.49757L2.00022 9.40794L2.19019 9.99262L1.69283 9.63127L1.19548 9.99262L1.38545 9.40794L0.888093 9.04659H1.50286L1.69283 8.46191Z" fill="white"/>
<path d="M1.69283 5.07812L1.88281 5.6628H2.49757L2.00022 6.02415L2.19019 6.60883L1.69283 6.24748L1.19548 6.60883L1.38545 6.02415L0.888093 5.6628H1.50286L1.69283 5.07812Z" fill="white"/>
<path d="M1.69283 1.69238L1.88281 2.27706H2.49757L2.00022 2.63841L2.19019 3.22309L1.69283 2.86174L1.19548 3.22309L1.38545 2.63841L0.888093 2.27706H1.50286L1.69283 1.69238Z" fill="white"/>
<path d="M6.76852 0L6.95849 0.584678H7.57326L7.0759 0.946029L7.26587 1.53071L6.76852 1.16936L6.27116 1.53071L6.46113 0.946029L5.96378 0.584678H6.57854L6.76852 0Z" fill="white"/>
<path d="M6.76852 3.38281L6.95849 3.96749H7.57326L7.0759 4.32884L7.26587 4.91352L6.76852 4.55217L6.27116 4.91352L6.46113 4.32884L5.96378 3.96749H6.57854L6.76852 3.38281Z" fill="white"/>
<path d="M6.76852 6.76953L6.95849 7.35421H7.57326L7.0759 7.71556L7.26587 8.30024L6.76852 7.93889L6.27116 8.30024L6.46113 7.71556L5.96378 7.35421H6.57854L6.76852 6.76953Z" fill="white"/>
<path d="M6.76852 10.1523L6.95849 10.737H7.57326L7.0759 11.0984L7.26587 11.6831L6.76852 11.3217L6.27116 11.6831L6.46113 11.0984L5.96378 10.737H6.57854L6.76852 10.1523Z" fill="white"/>
<path d="M5.07662 8.46191L5.2666 9.04659H5.88136L5.38401 9.40794L5.57398 9.99262L5.07662 9.63127L4.57927 9.99262L4.76924 9.40794L4.27188 9.04659H4.88665L5.07662 8.46191Z" fill="white"/>
<path d="M5.07662 5.07812L5.2666 5.6628H5.88136L5.38401 6.02415L5.57398 6.60883L5.07662 6.24748L4.57927 6.60883L4.76924 6.02415L4.27188 5.6628H4.88665L5.07662 5.07812Z" fill="white"/>
<path d="M5.07662 1.69238L5.2666 2.27706H5.88136L5.38401 2.63841L5.57398 3.22309L5.07662 2.86174L4.57927 3.22309L4.76924 2.63841L4.27188 2.27706H4.88665L5.07662 1.69238Z" fill="white"/>
<path d="M10.1543 0L10.3442 0.584678H10.959L10.4616 0.946029L10.6516 1.53071L10.1543 1.16936L9.6569 1.53071L9.84688 0.946029L9.34952 0.584678H9.96429L10.1543 0Z" fill="white"/>
<path d="M10.1543 3.38281L10.3442 3.96749H10.959L10.4616 4.32884L10.6516 4.91352L10.1543 4.55217L9.6569 4.91352L9.84688 4.32884L9.34952 3.96749H9.96429L10.1543 3.38281Z" fill="white"/>
<path d="M10.1543 6.76953L10.3442 7.35421H10.959L10.4616 7.71556L10.6516 8.30024L10.1543 7.93889L9.6569 8.30024L9.84688 7.71556L9.34952 7.35421H9.96429L10.1543 6.76953Z" fill="white"/>
<path d="M10.1543 10.1523L10.3442 10.737H10.959L10.4616 11.0984L10.6516 11.6831L10.1543 11.3217L9.6569 11.6831L9.84688 11.0984L9.34952 10.737H9.96429L10.1543 10.1523Z" fill="white"/>
<path d="M8.46236 8.46191L8.65234 9.04659H9.2671L8.76975 9.40794L8.95972 9.99262L8.46236 9.63127L7.96501 9.99262L8.15498 9.40794L7.65762 9.04659H8.27239L8.46236 8.46191Z" fill="white"/>
<path d="M8.46236 5.07812L8.65234 5.6628H9.2671L8.76975 6.02415L8.95972 6.60883L8.46236 6.24748L7.96501 6.60883L8.15498 6.02415L7.65762 5.6628H8.27239L8.46236 5.07812Z" fill="white"/>
<path d="M8.46236 1.69238L8.65234 2.27706H9.2671L8.76975 2.63841L8.95972 3.22309L8.46236 2.86174L7.96501 3.22309L8.15498 2.63841L7.65762 2.27706H8.27239L8.46236 1.69238Z" fill="white"/>
</g>
</svg>
