<svg width="24" height="24" viewBox="0 0 24 24" fill="none" xmlns="http://www.w3.org/2000/svg">
<path d="M7.5 17.3319V14.6719" stroke="#232323" stroke-linecap="round" stroke-linejoin="round"/>
<path d="M6.16992 16H8.82992" stroke="#232323" stroke-linecap="round" stroke-linejoin="round"/>
<path fill-rule="evenodd" clip-rule="evenodd" d="M7.39821 11C6.11821 11 4.83921 11.488 3.86221 12.465C1.90921 14.418 1.90921 17.583 3.86221 19.536C5.81521 21.489 8.98021 21.489 10.9332 19.536H13.0672C15.0202 21.489 18.1852 21.489 20.1382 19.536C22.0912 17.583 22.0912 14.418 20.1382 12.465C19.1622 11.488 17.8822 11 16.6022 11H7.39821V11Z" stroke="#232323" stroke-linecap="round" stroke-linejoin="round"/>
<path d="M17.335 16.8164C17.473 16.8164 17.585 16.9284 17.584 17.0664C17.584 17.2044 17.472 17.3164 17.334 17.3164C17.196 17.3164 17.084 17.2044 17.084 17.0664C17.085 16.9284 17.197 16.8164 17.335 16.8164" stroke="#232323" stroke-linecap="round" stroke-linejoin="round"/>
<path d="M15.2012 14.6836C15.3392 14.6836 15.4512 14.7956 15.4502 14.9336C15.4502 15.0716 15.3382 15.1836 15.2002 15.1836C15.0622 15.1836 14.9502 15.0716 14.9502 14.9336C14.9512 14.7956 15.0632 14.6836 15.2012 14.6836" stroke="#232323" stroke-linecap="round" stroke-linejoin="round"/>
<path d="M12 11V9.5C12 8.12 13.119 7 14.5 7V7C15.881 7 17 5.881 17 4.5V3" stroke="#232323" stroke-linecap="round" stroke-linejoin="round"/>
</svg>
