<svg width="25" height="25" viewBox="0 0 25 25" fill="none" xmlns="http://www.w3.org/2000/svg">
<path fill-rule="evenodd" clip-rule="evenodd" d="M7.50285 9.0025H4.5016C3.67283 9.0025 3.00098 8.33065 3.00098 7.50187V4.50063C3.00098 3.67185 3.67283 3 4.5016 3H7.50285C8.33162 3 9.00348 3.67185 9.00348 4.50063V7.50187C9.00348 8.33065 8.33162 9.0025 7.50285 9.0025Z" stroke="#232323" stroke-linecap="round" stroke-linejoin="round"/>
<path fill-rule="evenodd" clip-rule="evenodd" d="M19.508 9.0025H13.5055C12.6767 9.0025 12.0049 8.33065 12.0049 7.50187V4.50063C12.0049 3.67185 12.6767 3 13.5055 3H19.508C20.3368 3 21.0086 3.67185 21.0086 4.50063V7.50187C21.0086 8.33065 20.3368 9.0025 19.508 9.0025Z" stroke="#232323" stroke-linecap="round" stroke-linejoin="round"/>
<path d="M11.5754 13.5039L7.25162 17.7367L5.83203 16.3151" stroke="#232323" stroke-linecap="round" stroke-linejoin="round"/>
<path d="M8.36021 12.4336H5.49201C4.11625 12.4336 3.00098 13.5489 3.00098 14.9246V18.5171C3.00098 19.8929 4.11625 21.0082 5.49201 21.0082H9.08451C10.4603 21.0082 11.5755 19.8929 11.5755 18.5171V17.7928" stroke="#232323" stroke-linecap="round" stroke-linejoin="round"/>
<path fill-rule="evenodd" clip-rule="evenodd" d="M19.5077 18.0064H16.5065C15.6777 18.0064 15.0059 17.3346 15.0059 16.5058V13.5045C15.0059 12.6758 15.6777 12.0039 16.5065 12.0039H19.5077C20.3365 12.0039 21.0084 12.6758 21.0084 13.5045V16.5058C21.0084 17.3346 20.3365 18.0064 19.5077 18.0064Z" stroke="#232323" stroke-linecap="round" stroke-linejoin="round"/>
</svg>
