<svg width="26" height="26" viewBox="0 0 26 26" fill="none" xmlns="http://www.w3.org/2000/svg">
<path d="M9.99902 7.43771H21.0036" stroke="#232323" stroke-linecap="round" stroke-linejoin="round"/>
<path d="M21.0036 13.0002H9.99902" stroke="#232323" stroke-linecap="round" stroke-linejoin="round"/>
<path d="M9.99902 18.5627H21.0036" stroke="#232323" stroke-linecap="round" stroke-linejoin="round"/>
<path d="M5.49728 6.9375C5.22102 6.9375 4.99707 7.16145 4.99707 7.43771C4.99707 7.71397 5.22102 7.93792 5.49728 7.93792C5.77354 7.93792 5.99749 7.71397 5.99749 7.43771C5.99749 7.16145 5.77354 6.9375 5.49728 6.9375" stroke="#232323" stroke-linecap="round" stroke-linejoin="round"/>
<path d="M5.49728 12.5C5.22102 12.5 4.99707 12.724 4.99707 13.0002C4.99707 13.2765 5.22102 13.5004 5.49728 13.5004C5.77354 13.5004 5.99749 13.2765 5.99749 13.0002C5.99749 12.724 5.77354 12.5 5.49728 12.5" stroke="#232323" stroke-linecap="round" stroke-linejoin="round"/>
<path d="M5.49728 18.0625C5.22102 18.0625 4.99707 18.2865 4.99707 18.5627C4.99707 18.839 5.22102 19.0629 5.49728 19.0629C5.77354 19.0629 5.99749 18.839 5.99749 18.5627C5.99749 18.2865 5.77354 18.0625 5.49728 18.0625" stroke="#232323" stroke-linecap="round" stroke-linejoin="round"/>
</svg>
