<svg width="24" height="24" viewBox="0 0 24 24" fill="none" xmlns="http://www.w3.org/2000/svg">
<path fill-rule="evenodd" clip-rule="evenodd" d="M5.984 21H4C3.448 21 3 20.552 3 20V14C3 13.448 3.448 13 4 13H5.984C6.536 13 6.984 13.448 6.984 14V20C6.984 20.552 6.536 21 5.984 21Z" stroke="#232323" stroke-linecap="round" stroke-linejoin="round"/>
<path d="M12.9604 16.9991H15.2844C15.7154 16.9991 16.1344 16.8591 16.4794 16.5991L18.8854 14.7871C19.4864 14.3351 20.3264 14.3951 20.8574 14.9281V14.9281C21.4464 15.5201 21.4464 16.4791 20.8574 17.0701L18.7934 19.1431C18.2374 19.7011 17.5294 20.0821 16.7574 20.2371L13.8384 20.8231C13.2604 20.9391 12.6634 20.9251 12.0904 20.7811L9.45138 20.1191C9.13638 20.0391 8.81138 19.9991 8.48538 19.9991H6.98438" stroke="#232323" stroke-linecap="round" stroke-linejoin="round"/>
<path d="M12.9604 17H14.4394C15.2724 17 15.9484 16.322 15.9484 15.485V15.182C15.9484 14.487 15.4774 13.881 14.8054 13.713L12.5224 13.14C12.1514 13.047 11.7704 13 11.3884 13V13C10.4654 13 9.56238 13.274 8.79438 13.789L6.98438 15" stroke="#232323" stroke-linecap="round" stroke-linejoin="round"/>
<path fill-rule="evenodd" clip-rule="evenodd" d="M15.2864 3.66068L14.9374 4.03368L14.5874 3.66068C13.8204 2.84268 12.5484 2.77568 11.7004 3.50768V3.50768C10.8334 4.25568 10.7304 5.55268 11.4434 6.45068C12.4634 7.73468 13.6324 9.00268 14.9374 9.99968C16.2754 8.97768 17.4694 7.67168 18.5074 6.35468C19.1814 5.49968 19.0424 4.25868 18.2204 3.54768L18.1824 3.51468C17.3264 2.77568 16.0534 2.84268 15.2864 3.66068V3.66068Z" stroke="#232323" stroke-linecap="round" stroke-linejoin="round"/>
</svg>
