<svg width="26" height="26" viewBox="0 0 26 26" fill="none" xmlns="http://www.w3.org/2000/svg">
<path d="M3.99609 9.00021H22.0036" stroke="#232323" stroke-linecap="round" stroke-linejoin="round"/>
<path d="M10.4991 13.0002H7.99805" stroke="#232323" stroke-linecap="round" stroke-linejoin="round"/>
<path d="M10.999 19.0019H6.99734C5.3398 19.0019 3.99609 17.6582 3.99609 16.0007V7.99734C3.99609 6.3398 5.3398 4.99609 6.99734 4.99609H19.0023C20.6599 4.99609 22.0036 6.3398 22.0036 7.99734V11.999" stroke="#232323" stroke-linecap="round" stroke-linejoin="round"/>
<circle cx="18.0026" cy="18.0017" r="4.00167" stroke="#232323" stroke-linecap="round" stroke-linejoin="round"/>
<path d="M16.9086 18.0041C16.9086 18.0317 16.8862 18.0541 16.8586 18.0541C16.831 18.0541 16.8086 18.0317 16.8086 18.0041C16.8086 17.9765 16.831 17.9541 16.8586 17.9541" stroke="#232323" stroke-linecap="round" stroke-linejoin="round"/>
<path d="M16.859 17.9518C16.8866 17.9518 16.909 17.9742 16.909 18.0018" stroke="#232323" stroke-linecap="round" stroke-linejoin="round"/>
<path d="M19.1957 18.0041C19.1957 18.0317 19.1733 18.0541 19.1457 18.0541C19.1181 18.0541 19.0957 18.0317 19.0957 18.0041C19.0957 17.9765 19.1181 17.9541 19.1457 17.9541" stroke="#232323" stroke-linecap="round" stroke-linejoin="round"/>
<path d="M19.1451 17.9518C19.1727 17.9518 19.1951 17.9742 19.1951 18.0018" stroke="#232323" stroke-linecap="round" stroke-linejoin="round"/>
</svg>
