<svg width="20" height="16" viewBox="0 0 20 16" fill="none" xmlns="http://www.w3.org/2000/svg">
<path d="M1 15C1 12.791 2.791 11 5 11H9C11.209 11 13 12.791 13 15" stroke="#232323" stroke-linecap="round" stroke-linejoin="round"/>
<path d="M14 1.65234C15.381 1.65234 16.5 2.77134 16.5 4.15234C16.5 5.53334 15.381 6.65234 14 6.65234" stroke="#232323" stroke-linecap="round" stroke-linejoin="round"/>
<path d="M9.4045 1.99613C10.7327 3.3243 10.7327 5.4777 9.4045 6.80587C8.07633 8.13404 5.92293 8.13404 4.59476 6.80587C3.26659 5.4777 3.26659 3.3243 4.59476 1.99613C5.92293 0.667957 8.07633 0.667957 9.4045 1.99613" stroke="#232323" stroke-linecap="round" stroke-linejoin="round"/>
<path d="M15 10C17.209 10 19 11.791 19 14" stroke="#232323" stroke-linecap="round" stroke-linejoin="round"/>
</svg>
