<svg width="20" height="20" viewBox="0 0 20 20" fill="none" xmlns="http://www.w3.org/2000/svg">
<path fill-rule="evenodd" clip-rule="evenodd" d="M16.9566 19.0023H3.04283C1.93737 19.0023 1.04199 18.107 1.04199 17.0015V5.99693C1.04199 4.89147 1.93737 3.99609 3.04283 3.99609H16.9566C18.0621 3.99609 18.9575 4.89147 18.9575 5.99693V17.0015C18.9575 18.107 18.0611 19.0023 16.9566 19.0023Z" stroke="#232323" stroke-linecap="round" stroke-linejoin="round"/>
<path d="M10.0001 7C11.3816 7 12.5011 8.11947 12.5011 9.50104C12.5011 10.8826 11.3816 12.0021 10.0001 12.0021C8.61849 12.0021 7.49902 10.8826 7.49902 9.50104C7.49902 8.11947 8.61849 7 10.0001 7" stroke="#232323" stroke-linecap="round" stroke-linejoin="round"/>
<path d="M14.5018 16.0006C14.3707 15.6715 14.1677 15.3754 13.9075 15.1343V15.1343C13.4684 14.7261 12.8931 14.5 12.2929 14.5C11.2925 14.5 8.70738 14.5 7.70697 14.5C7.10672 14.5 6.53248 14.7271 6.09229 15.1343V15.1343C5.83219 15.3754 5.6291 15.6715 5.49805 16.0006" stroke="#232323" stroke-linecap="round" stroke-linejoin="round"/>
<path d="M2.77832 3.99734V2.99693C2.77832 1.89147 3.67369 0.996094 4.77915 0.996094H15.2185C16.324 0.996094 17.2193 1.89147 17.2193 2.99693V3.99734" stroke="#232323" stroke-linecap="round" stroke-linejoin="round"/>
</svg>
