<svg width="64" height="67" viewBox="0 0 64 67" fill="none" xmlns="http://www.w3.org/2000/svg">
<path d="M49.0198 17.1096C51.8298 17.8625 53.4974 20.7509 52.7445 23.5609C51.9916 26.3709 49.1032 28.0385 46.2932 27.2856C43.4831 26.5326 41.8155 23.6443 42.5685 20.8342C43.3214 18.0242 46.2098 16.3566 49.0198 17.1096" stroke="#232323" stroke-width="2" stroke-linecap="round" stroke-linejoin="round"/>
<path d="M31.7903 46.9494C34.6004 47.7023 36.2679 50.5907 35.515 53.4007C34.7621 56.2108 31.8737 57.8784 29.0637 57.1254C26.2536 56.3725 24.586 53.4841 25.339 50.6741C26.0919 47.8641 28.9803 46.1965 31.7903 46.9494" stroke="#232323" stroke-width="2" stroke-linecap="round" stroke-linejoin="round"/>
<path d="M14.5589 17.1056C17.3689 17.8586 19.0365 20.747 18.2836 23.557C17.5306 26.367 14.6423 28.0346 11.8322 27.2817C9.02218 26.5287 7.35459 23.6404 8.10753 20.8303C8.86047 18.0203 11.7488 16.3527 14.5589 17.1056" stroke="#232323" stroke-width="2" stroke-linecap="round" stroke-linejoin="round"/>
<path d="M30.418 46.7831L30.416 37.9797" stroke="#232323" stroke-width="2" stroke-linecap="round" stroke-linejoin="round"/>
<path d="M17.7432 24.832L25.3662 29.2355" stroke="#232323" stroke-width="2" stroke-linecap="round" stroke-linejoin="round"/>
<path d="M43.0916 24.8318L35.4922 29.2193" stroke="#232323" stroke-width="2" stroke-linecap="round" stroke-linejoin="round"/>
<path fill-rule="evenodd" clip-rule="evenodd" d="M31.9381 26.4891C35.0602 27.3257 36.913 30.5348 36.0764 33.6569C35.2399 36.779 32.0307 38.6318 28.9086 37.7952C25.7865 36.9587 23.9337 33.7495 24.7703 30.6274C25.6069 27.5053 28.816 25.6525 31.9381 26.4891Z" fill="#006E53"/>
<path d="M31.9381 26.4891C35.0602 27.3257 36.913 30.5348 36.0764 33.6569C35.2399 36.779 32.0307 38.6318 28.9086 37.7952C25.7865 36.9587 23.9337 33.7495 24.7703 30.6274C25.6069 27.5053 28.816 25.6525 31.9381 26.4891" stroke="#006E53" stroke-width="2" stroke-linecap="round" stroke-linejoin="round"/>
</svg>
