<svg width="60" height="60" viewBox="0 0 60 60" fill="none" xmlns="http://www.w3.org/2000/svg">
<path d="M52.7407 33.5822C53.4936 36.3922 51.826 39.2806 49.016 40.0336C46.2059 40.7865 43.3176 39.1189 42.5646 36.3089C41.8117 33.4988 43.4793 30.6105 46.2893 29.8575C49.0994 29.1046 51.9877 30.7722 52.7407 33.5822" stroke="#232323" stroke-width="2" stroke-linecap="round" stroke-linejoin="round"/>
<path d="M18.2807 33.5822C19.0337 36.3922 17.3661 39.2806 14.556 40.0336C11.746 40.7865 8.85763 39.1189 8.10467 36.3089C7.35172 33.4988 9.01932 30.6105 11.8294 29.8575C14.6394 29.1046 17.5277 30.7722 18.2807 33.5822" stroke="#232323" stroke-width="2" stroke-linecap="round" stroke-linejoin="round"/>
<path d="M17.7402 32.3105L25.3632 27.907" stroke="#232323" stroke-width="2" stroke-linecap="round" stroke-linejoin="round"/>
<path d="M43.0877 32.3099L35.4883 27.9224" stroke="#232323" stroke-width="2" stroke-linecap="round" stroke-linejoin="round"/>
<path fill-rule="evenodd" clip-rule="evenodd" d="M36.0755 23.4799C36.9121 26.602 35.0593 29.8112 31.9372 30.6477C28.8151 31.4843 25.6059 29.6315 24.7694 26.5094C23.9328 23.3873 25.7856 20.1781 28.9077 19.3416C32.0298 18.505 35.239 20.3578 36.0755 23.4799Z" fill="#006E53"/>
<path d="M36.0755 23.4799C36.9121 26.602 35.0593 29.8112 31.9372 30.6477C28.8151 31.4843 25.6059 29.6315 24.7694 26.5094C23.9328 23.3873 25.7856 20.1781 28.9077 19.3416C32.0298 18.505 35.239 20.3578 36.0755 23.4799" stroke="#006E53" stroke-width="2" stroke-linecap="round" stroke-linejoin="round"/>
</svg>
