<svg width="60" height="60" viewBox="0 0 60 60" fill="none" xmlns="http://www.w3.org/2000/svg">
<path d="M53.6211 26.2733C55.6782 28.3304 55.6782 31.6656 53.6211 33.7227C51.564 35.7797 48.2288 35.7797 46.1717 33.7227C44.1146 31.6656 44.1146 28.3304 46.1717 26.2733C48.2288 24.2162 51.564 24.2162 53.6211 26.2733" stroke="#232323" stroke-width="2" stroke-linecap="round" stroke-linejoin="round"/>
<path d="M13.8262 26.2733C15.8833 28.3304 15.8833 31.6656 13.8262 33.7227C11.7691 35.7797 8.4339 35.7797 6.3768 33.7227C4.31971 31.6656 4.31971 28.3304 6.3768 26.2733C8.43389 24.2162 11.7691 24.2162 13.8262 26.2733" stroke="#232323" stroke-width="2" stroke-linecap="round" stroke-linejoin="round"/>
<path d="M43.6719 9.04282C45.729 11.0999 45.729 14.4351 43.6719 16.4922C41.6148 18.5493 38.2796 18.5493 36.2225 16.4922C34.1654 14.4351 34.1654 11.0999 36.2225 9.04282C38.2796 6.98573 41.6148 6.98573 43.6719 9.04282" stroke="#232323" stroke-width="2" stroke-linecap="round" stroke-linejoin="round"/>
<path d="M23.7773 43.5038C25.8344 45.5608 25.8344 48.896 23.7773 50.9531C21.7203 53.0102 18.3851 53.0102 16.328 50.9531C14.2709 48.896 14.2709 45.5609 16.328 43.5038C18.3851 41.4467 21.7202 41.4467 23.7773 43.5038" stroke="#232323" stroke-width="2" stroke-linecap="round" stroke-linejoin="round"/>
<path d="M23.7773 9.04282C25.8344 11.0999 25.8344 14.4351 23.7773 16.4922C21.7203 18.5493 18.3851 18.5493 16.328 16.4922C14.2709 14.4351 14.2709 11.0999 16.328 9.04282C18.3851 6.98573 21.7202 6.98573 23.7773 9.04282" stroke="#232323" stroke-width="2" stroke-linecap="round" stroke-linejoin="round"/>
<path d="M43.6719 43.5038C45.729 45.5608 45.729 48.896 43.6719 50.9531C41.6148 53.0102 38.2796 53.0102 36.2225 50.9531C34.1654 48.896 34.1654 45.5609 36.2225 43.5038C38.2796 41.4467 41.6148 41.4467 43.6719 43.5038" stroke="#232323" stroke-width="2" stroke-linecap="round" stroke-linejoin="round"/>
<path d="M22.6738 42.6719L27.0738 35.0469" stroke="#232323" stroke-width="2" stroke-linecap="round" stroke-linejoin="round"/>
<path d="M22.6738 17.3242L27.0738 24.9492" stroke="#232323" stroke-width="2" stroke-linecap="round" stroke-linejoin="round"/>
<path d="M44.6246 30H35.8496" stroke="#232323" stroke-width="2" stroke-linecap="round" stroke-linejoin="round"/>
<path fill-rule="evenodd" clip-rule="evenodd" d="M34.1363 25.8587C36.4219 28.1442 36.4219 31.8498 34.1363 34.1354C31.8508 36.4209 28.1452 36.4209 25.8597 34.1354C23.5741 31.8498 23.5741 28.1442 25.8597 25.8587C28.1452 23.5731 31.8508 23.5731 34.1363 25.8587Z" fill="#006E53" stroke="#006E53" stroke-width="2" stroke-linecap="round" stroke-linejoin="round"/>
</svg>
