<svg width="73" height="72" viewBox="0 0 73 72" fill="none" xmlns="http://www.w3.org/2000/svg">
<path d="M50.2814 16.2559C53.1906 16.2559 55.5489 18.6143 55.5489 21.5234C55.5489 24.4326 53.1906 26.7909 50.2814 26.7909C47.3722 26.7909 45.0139 24.4326 45.0139 21.5234C45.0139 18.6143 47.3722 16.2559 50.2814 16.2559" stroke="#232323" stroke-width="2" stroke-linecap="round" stroke-linejoin="round"/>
<path d="M17.1807 49.7345C17.1807 52.6437 19.5391 55.002 22.4482 55.002C25.3574 55.002 27.7157 52.6437 27.7157 49.7345C27.7157 46.8254 25.3574 44.467 22.4482 44.467C19.5391 44.467 17.1807 46.8254 17.1807 49.7345" stroke="#232323" stroke-width="2" stroke-linecap="round" stroke-linejoin="round"/>
<path d="M50.3791 44.8223C53.2882 44.8223 55.6466 47.1807 55.6466 50.0898C55.6466 52.999 53.2882 55.3573 50.3791 55.3573C47.4699 55.3573 45.1116 52.999 45.1116 50.0898C45.1116 47.1807 47.4699 44.8223 50.3791 44.8223" stroke="#232323" stroke-width="2" stroke-linecap="round" stroke-linejoin="round"/>
<path d="M22.4481 26.7206C19.5389 26.7206 17.1806 24.3623 17.1806 21.4531C17.1806 18.544 19.5389 16.1856 22.4481 16.1856C25.3572 16.1856 27.7156 18.544 27.7156 21.4531C27.7156 24.3623 25.3573 26.7206 22.4481 26.7206" stroke="#232323" stroke-width="2" stroke-linecap="round" stroke-linejoin="round"/>
<path d="M46.5458 46.1922L40.3195 39.9687" stroke="#232323" stroke-width="2" stroke-linecap="round" stroke-linejoin="round"/>
<path d="M26.4709 25.5334L31.8001 30.8625" stroke="#232323" stroke-width="2" stroke-linecap="round" stroke-linejoin="round"/>
<path d="M46.5526 25.2532L40.3478 31.4581" stroke="#232323" stroke-width="2" stroke-linecap="round" stroke-linejoin="round"/>
<path d="M26.1492 46.0335L31.6748 40.5078" stroke="#232323" stroke-width="2" stroke-linecap="round" stroke-linejoin="round"/>
<path fill-rule="evenodd" clip-rule="evenodd" d="M36.2093 29.7413C39.4415 29.7413 42.0618 32.3615 42.0618 35.5938C42.0618 38.826 39.4415 41.4463 36.2093 41.4462C32.977 41.4462 30.3568 38.826 30.3568 35.5938C30.3568 32.3615 32.9771 29.7412 36.2093 29.7413Z" fill="#006E53" stroke="#006E53" stroke-width="2" stroke-linecap="round" stroke-linejoin="round"/>
</svg>
