<svg width="24" height="24" viewBox="0 0 24 24" fill="none" xmlns="http://www.w3.org/2000/svg">
<path d="M12.469 3.02278C13.8327 4.38649 13.8327 6.5975 12.469 7.96121C11.1053 9.32492 8.8943 9.32492 7.53059 7.96121C6.16688 6.5975 6.16688 4.38649 7.53059 3.02278C8.8943 1.65907 11.1053 1.65907 12.469 3.02278" stroke="#232323" stroke-linecap="round" stroke-linejoin="round"/>
<path d="M14.363 12.796C13.064 12.277 11.54 11.991 10 11.991C5.952 11.991 2 13.958 2 16.983V17.983C2 18.535 2.448 18.983 3 18.983H12.413" stroke="#232323" stroke-linecap="round" stroke-linejoin="round"/>
<path d="M17 22C14.239 22 12 19.762 12 17C12 14.296 14.3 11.997 17.004 12C19.764 12.002 22 14.24 22 17C22 19.761 19.762 22 17 22" stroke="#232323" stroke-linecap="round" stroke-linejoin="round"/>
<path d="M18.7684 18.1355L17.0004 16.3675L15.2324 18.1355" stroke="#232323" stroke-linecap="round" stroke-linejoin="round"/>
</svg>
