<svg width="26" height="26" viewBox="0 0 26 26" fill="none" xmlns="http://www.w3.org/2000/svg">
<path fill-rule="evenodd" clip-rule="evenodd" d="M6.99776 3.99609C6.99776 6.20615 5.20615 7.99776 2.99609 7.99776C5.20615 7.99776 6.99776 9.78937 6.99776 11.9994C6.99776 9.78937 8.78937 7.99776 10.9994 7.99776C8.78937 7.99776 6.99776 6.20615 6.99776 3.99609Z" stroke="#232323" stroke-linecap="round" stroke-linejoin="round"/>
<path fill-rule="evenodd" clip-rule="evenodd" d="M18.0021 16.0042C18.0021 13.2416 15.7626 11.0021 13 11.0021C15.7626 11.0021 18.0021 8.76257 18.0021 6C18.0021 8.76257 20.2416 11.0021 23.0042 11.0021C20.2416 11.0021 18.0021 13.2416 18.0021 16.0042Z" stroke="#232323" stroke-linecap="round" stroke-linejoin="round"/>
<path d="M18.0022 16.0039V17.0043" stroke="#232323" stroke-linecap="round" stroke-linejoin="round"/>
<path d="M18.0022 5.99651V4.99609" stroke="#232323" stroke-linecap="round" stroke-linejoin="round"/>
<path d="M10.9992 22.0039V23.0043" stroke="#232323" stroke-linecap="round" stroke-linejoin="round"/>
<path d="M10.9992 15.0004V14" stroke="#232323" stroke-linecap="round" stroke-linejoin="round"/>
<path d="M6.99728 12V13.0004" stroke="#232323" stroke-linecap="round" stroke-linejoin="round"/>
<path d="M6.99728 2.99609V3.99651" stroke="#232323" stroke-linecap="round" stroke-linejoin="round"/>
<path fill-rule="evenodd" clip-rule="evenodd" d="M10.9997 14.5C10.9997 16.7101 9.20811 18.5017 6.99805 18.5017C9.20811 18.5017 10.9997 20.2933 10.9997 22.5033C10.9997 20.2933 12.7913 18.5017 15.0014 18.5017C12.7913 18.5017 10.9997 16.7101 10.9997 14.5Z" stroke="#232323" stroke-linecap="round" stroke-linejoin="round"/>
</svg>
