<svg width="24" height="24" viewBox="0 0 24 24" fill="none" xmlns="http://www.w3.org/2000/svg">
<path fill-rule="evenodd" clip-rule="evenodd" d="M8.5 12L12.0001 8.49986L15.501 12.0007L12.0009 15.5009L8.5 12Z" stroke="#232323" stroke-linecap="round" stroke-linejoin="round"/>
<path d="M5 12.25L3 14.25L1 12.25" stroke="#232323" stroke-linecap="round" stroke-linejoin="round"/>
<path d="M19 11.75L21 9.75L23 11.75" stroke="#232323" stroke-linecap="round" stroke-linejoin="round"/>
<path d="M19.371 6.845C17.744 4.522 15.052 3 12 3C7.029 3 3 7.029 3 12C3 12.694 3.086 13.366 3.235 14.015" stroke="#232323" stroke-linecap="round" stroke-linejoin="round"/>
<path d="M4.62891 17.1544C6.25591 19.4774 8.94791 20.9994 11.9999 20.9994C16.9709 20.9994 20.9999 16.9704 20.9999 11.9994C20.9999 11.3054 20.9139 10.6334 20.7649 9.98438" stroke="#232323" stroke-linecap="round" stroke-linejoin="round"/>
</svg>
