<svg width="175" height="153" viewBox="0 0 175 153" fill="none" xmlns="http://www.w3.org/2000/svg">
<path fill-rule="evenodd" clip-rule="evenodd" d="M63.7222 -25.7641C63.7222 -25.7641 91.1198 -10.358 145.778 40.7334C193.65 85.4806 205.933 83.4545 219.758 95.1231C239.886 112.109 233.789 110.806 212.236 111.472C203.51 111.741 200.972 113.699 203.18 117.662C209.449 128.918 220.605 153.192 212.322 150.9C204.039 148.608 157.487 121.932 112.973 81.7175C68.4582 41.5033 43.989 19.3233 25.8439 6.71968C7.69872 -5.88389 9.84798 -7.11386 26.1999 -8.22204C45.4248 -9.52518 50.3708 -3.51486 44.3456 -16.4257C35.4967 -35.3955 20.9755 -53.59 63.7222 -25.7641Z" fill="#ED2891"/>
<path d="M100.664 21.1371C101.492 19.5851 100.287 18.272 99.9061 17.9207C99.3078 17.3687 98.4524 16.9318 97.0722 17.7729L86.845 25.2016C86.7927 25.2037 86.7426 25.2581 86.5878 25.3166L82.8385 27.7978C82.8385 27.7978 82.6336 27.9108 82.5312 27.9673C82.4287 28.0238 82.3283 28.1326 82.2782 28.1869L81.5128 28.689C80.6743 29.325 80.2415 29.6304 79.886 29.9066C79.426 30.1869 78.6168 30.9003 78.3157 31.2266C77.4877 32.124 77.766 32.5317 79.0712 33.736C80.7028 35.2415 81.3155 34.8502 82.9611 33.4487C83.4943 33.0345 84.2282 32.4027 85.2738 31.7061C85.2989 31.6789 85.4766 31.5408 85.554 31.5115C85.6292 31.4299 85.8049 31.2396 85.8822 31.2103L88.087 33.2949L88.1142 33.32L87.7045 34.2005L86.1762 36.5662C86.0508 36.7021 86.078 36.7272 86.1281 36.6729L85.8062 37.1309C85.2145 38.045 84.7211 38.798 85.9992 39.9772C87.5764 41.4325 88.1454 41.9071 89.1364 40.5057C90.8026 37.6631 91.5239 36.7177 93.9405 32.3525L93.7921 32.5679L93.8381 32.4089L93.9363 32.2479L100.664 21.1371ZM90.7568 29.3646L89.4306 28.292L93.4998 25.3005L90.7568 29.3646ZM93.8721 45.7813C95.457 44.1727 97.138 42.3507 98.5431 40.8279L99.9231 39.3323C99.9732 39.2779 100.021 39.1712 100.071 39.1168C100.272 38.8993 100.502 38.7591 100.818 38.7988C101.372 39.562 101.76 41.3793 100.696 42.9146L100.2 43.6153C96.7377 48.0226 96.8764 50.8187 99.7589 53.4783C100.357 54.0303 100.807 54.1431 101.183 53.7352L102.789 51.9949C103.013 51.6978 102.927 51.518 102.546 51.1667C101.078 49.8119 102.892 47.4085 103.99 46.0551C107.032 42.267 104.658 39.2204 104.656 39.1681C106.166 40.2595 108.272 39.8867 111.58 37.5019C113.18 36.2592 113.849 35.3159 115.099 36.47C115.371 36.7209 115.576 36.608 115.702 36.472C116.103 36.0369 117.004 35.0057 117.431 34.5434C117.707 34.2442 117.46 33.9661 116.671 33.2385C113.898 30.6793 111.89 31.5456 107.374 35.1312C105.877 36.3173 103.925 35.9769 103.327 35.4249C103.904 34.7994 104.379 34.2305 104.88 33.6866C106.436 32.0006 108.224 30.2267 109.884 28.5366C110.612 27.7479 109.587 27.0037 108.798 26.276L107.765 25.3226C107.146 24.9024 106.819 25.2559 105.841 26.3164L105.188 27.0234C100.346 32.2718 96.6202 36.6373 92.1269 41.4526C91.9262 41.6701 90.9958 42.624 90.7699 42.8687C89.8918 43.8205 90.6155 44.2365 91.1593 44.7383C92.0023 45.5161 93.019 46.7059 93.8721 45.7813ZM110.867 62.922C110.043 63.9239 110.675 63.3486 109.094 65.0618C108.442 65.7688 108.937 66.3773 109.237 66.6533L110.352 67.682C110.787 68.0835 111.523 68.8132 112.301 67.9702L112.928 67.2904L113.731 66.4202C114.459 65.6316 115.264 64.8137 116.016 63.9979C116.669 63.2908 115.89 62.8246 115.943 62.8225L115.127 62.0698C121.207 55.0436 123.835 52.686 125.667 50.7009L126.395 49.9123C126.52 49.7763 126.62 49.6676 126.746 49.5316C127.198 49.0421 127.647 48.5004 127.973 48.1469L128.375 47.7118C128.701 47.3582 129.077 46.9503 129.28 46.7851C129.932 46.0781 129.654 45.6703 129.353 45.342L127.391 43.431C127.039 43.1571 126.565 43.0714 126.038 43.6425L124.457 45.3557C123.177 46.7425 116.497 53.8191 112.006 58.6867L111.805 58.9042C111.78 58.9314 111.78 58.9314 111.728 58.9335L108.678 56.0188C110.29 54.4353 113.054 51.5486 115.513 48.8837C116.015 48.3398 116.517 47.796 116.993 47.2793L122.854 40.6546C123.856 39.5146 122.032 38.4359 121.297 37.7584L120.944 37.4323C120.699 37.2065 120.151 36.6001 119.449 37.3615L118.796 38.0685C117.391 39.5913 116.04 41.1643 114.66 42.66L108.363 49.4855L104.915 52.9496C104.288 53.6294 103.961 53.9829 103.284 54.7171C102.732 55.3154 103.115 55.7189 103.278 55.8695L108.173 60.3857C108.39 60.5864 108.472 60.6617 108.554 60.737C109.641 61.7406 109.861 61.9936 110.867 62.922ZM128.195 74.8823L129.725 73.2236C132.36 70.3683 135.325 67.264 138.06 64.2999C139.67 62.6641 140.951 61.3296 142.683 59.4532C143.209 58.8822 143.877 58.5411 143.034 57.7633L141.538 56.3834C141.157 56.0321 141.044 55.8272 140.35 56.1431L126.983 62.3365C129.568 59.5356 133.166 55.2538 135.023 53.2415L134.998 53.2687C135.173 53.0783 135.552 52.7227 135.828 52.4236C136.58 51.6078 136.31 51.4092 134.652 49.8787L134.543 49.7783C133.537 48.85 133.221 48.8103 132.564 49.4127L131.26 50.8268C130.53 51.5631 129.857 52.4019 129.154 53.1633L127.348 55.1212C127.074 55.4726 126.8 55.8241 126.499 56.1504L125.878 56.9871C125.299 57.5602 124.805 58.3132 124.226 58.8864L121.485 61.6936C120.504 62.7019 119.877 63.3817 119.375 63.9256C118.874 64.4694 118.497 64.8773 118.071 65.3396L116.816 66.6993C116.766 66.7537 116.716 66.808 116.666 66.8624C116.139 67.4335 116.208 67.8497 116.697 68.3013C117.513 69.054 118.517 70.5846 119.674 70.0406C122.476 68.7496 126.662 66.7222 132.154 63.9353L123.865 72.6999C123.288 73.3254 122.705 73.794 124.554 75.5001C125.506 76.3783 125.953 77.0934 126.963 76.1625L127.666 75.4011C127.816 75.238 128.019 75.0727 128.195 74.8823ZM141.446 87.109L142.977 85.4502C145.611 82.5949 148.576 79.4906 151.311 76.5266C152.921 74.8908 154.203 73.5562 155.934 71.6799C156.461 71.1088 157.128 70.7678 156.285 69.99L154.789 68.61C154.409 68.2587 154.296 68.0538 153.601 68.3698L140.235 74.5632C142.819 71.7622 146.417 67.4804 148.274 65.4681L148.249 65.4953C148.425 65.305 148.803 64.9493 149.079 64.6502C149.832 63.8344 149.562 63.6358 147.903 62.1053L147.794 62.0049C146.788 61.0766 146.472 61.0369 145.816 61.6394L144.511 63.0534C143.781 63.7898 143.108 64.6285 142.406 65.39L140.599 67.3479C140.325 67.6993 140.051 68.0507 139.75 68.377L139.129 69.2137C138.55 69.7869 138.057 70.5399 137.478 71.113L134.736 73.9202C133.756 74.9285 133.129 75.6083 132.627 76.1522C132.125 76.6961 131.749 77.104 131.322 77.5662L130.068 78.9259C130.017 78.9803 129.967 79.0347 129.917 79.0891C129.39 79.6601 129.459 80.0763 129.949 80.5279C130.764 81.2806 131.769 82.8113 132.925 82.2673C135.727 80.9763 139.914 78.9488 145.405 76.1619L137.117 84.9266C136.54 85.552 135.956 86.0206 137.805 87.7267C138.757 88.6049 139.205 89.32 140.215 88.3892L140.917 87.6278C141.068 87.4646 141.271 87.2993 141.446 87.109Z" fill="white"/>
</svg>
