<svg width="124" height="40" viewBox="0 0 124 40" fill="none" xmlns="http://www.w3.org/2000/svg">
<path d="M11.873 2.05383C12.2806 0.827518 13.4276 0 14.7199 0H119.783C121.846 0 123.293 2.03479 122.617 3.98403L112.2 33.984C111.781 35.1909 110.644 36 109.366 36H4.74924C2.70267 36 1.25688 33.9959 1.90236 32.0538L11.873 2.05383Z" fill="#FFDD14"/>
<path d="M30.0477 16.65C30.0227 16.925 30.0227 17.275 30.0227 17.55V17.475C30.0227 17.675 29.9727 18 29.9727 18.4C30.0477 20.625 29.8227 27.2 35.1977 27.6C37.9477 27.6 38.7477 26.05 38.7477 25.7C38.7477 24.95 37.7727 24.15 37.3477 24.15C36.7977 24.15 36.3977 24.75 35.4977 24.75C33.3977 24.75 33.0727 20.625 33.0727 18.6C33.0727 18.175 33.0977 17.675 33.1477 17.175L33.2727 15.55C33.5227 14.35 33.9727 12.1 35.5227 12.1C36.4977 12.1 37.1727 12.625 37.5477 12.625C37.6477 12.625 38.7477 12.2 38.7477 11.125C38.7477 10.5 37.2227 9.25 35.4227 9.25C32.8227 9.25 31.2727 11.075 30.6477 13.3V13.275C30.4477 13.95 30.2977 14.725 30.1727 15.5C30.1727 15.5 30.1727 15.475 30.1727 15.45C30.0727 15.9 30.0477 16.175 30.0477 16.65ZM43.476 26.3C43.526 24.775 43.526 23.1 43.526 21.7V20.325C43.526 20.275 43.501 20.2 43.501 20.15C43.501 19.95 43.551 19.775 43.726 19.65C44.351 19.775 45.376 20.5 45.551 21.75L45.626 22.325C45.926 26.1 47.276 27.425 49.926 27.425C50.476 27.425 50.751 27.275 50.751 26.9V25.3C50.726 25.05 50.601 25 50.251 25C48.901 25 48.701 22.975 48.626 21.8C48.401 18.525 45.826 18.1 45.801 18.075C47.051 17.925 47.926 16.775 48.476 14.075C48.701 12.725 48.601 11.95 49.751 11.95C50.001 11.95 50.051 11.8 50.051 11.675C50.051 11.275 50.026 10.35 50.026 9.925C50.026 9.65 49.776 9.625 49.051 9.625C46.501 9.625 45.901 10.975 45.301 14.825C45.101 16.1 43.976 16.825 43.426 16.825C43.426 16.25 43.401 15.75 43.401 15.25C43.401 13.7 43.476 12 43.526 10.4C43.526 9.675 42.676 9.775 41.951 9.775H41.001C40.501 9.85 40.501 10.175 40.501 11.15V11.8C40.501 16.625 40.651 20.5 40.626 24.95C40.626 25.15 40.601 26.05 40.601 26.275C40.601 27.15 41.151 27.025 41.651 27.025C42.426 27.025 43.476 27.15 43.476 26.3ZM61.8191 16.375C61.7941 16.275 61.7941 16.225 61.7941 16.15C61.6441 13.075 60.7441 9.25 57.4941 9.25C53.8941 9.25 52.5191 12.175 52.0941 17.325C51.7191 22 52.6191 27.575 56.7691 27.575C57.7941 27.575 58.8441 27.375 59.4191 26.8L59.6191 26.675C60.3941 26.025 61.8691 24.65 61.8691 19.825C61.8691 18.55 61.8191 17.375 61.8191 16.375ZM58.6441 16.65C58.6691 17.225 58.6941 18.025 58.6941 18.875C58.6941 20.1 58.5941 21.575 58.2941 22.575C58.1191 23.125 57.8191 24.6 57.1191 24.6C55.3441 24.6 55.2691 21.2 55.2441 20.425C55.2191 19.9 55.1941 18.975 55.1941 18.1C55.1941 16.875 55.3191 16.2 55.3191 15.5C55.4441 14.35 56.3191 12.625 57.0441 12.625C58.4941 12.625 58.6441 15.35 58.6441 16.65ZM66.9094 11.975C67.8344 12.025 69.5344 13.3 69.5344 16.45C69.5344 17.95 69.1094 20.225 66.7844 20.225C66.8344 17.65 66.8594 15.25 66.8844 12.675C66.8844 12.575 66.8594 12.5 66.8594 12.425C66.8594 12.275 66.8844 12.125 66.9094 11.975ZM67.0844 26.45C67.0844 25.225 67.1094 23.575 67.1094 22.375C67.5094 22.375 69.1594 22.3 70.1344 21.7C71.7344 20.7 72.6594 18.625 72.6594 16C72.6594 11.625 69.1594 9.5 65.7594 9.5C64.9094 9.5 64.1344 9.8 64.1344 10.875C64.1344 15.875 64.1094 20.9 64.1094 25.925V26.2C64.1094 26.975 64.5594 27.05 64.8594 27.05H66.2594C66.4594 27.05 67.0844 27.125 67.0844 26.45ZM83.9871 16.375C83.9621 16.275 83.9621 16.225 83.9621 16.15C83.8121 13.075 82.9121 9.25 79.6621 9.25C76.0621 9.25 74.6871 12.175 74.2621 17.325C73.8871 22 74.7871 27.575 78.9371 27.575C79.9621 27.575 81.0121 27.375 81.5871 26.8L81.7871 26.675C82.5621 26.025 84.0371 24.65 84.0371 19.825C84.0371 18.55 83.9871 17.375 83.9871 16.375ZM80.8121 16.65C80.8371 17.225 80.8621 18.025 80.8621 18.875C80.8621 20.1 80.7621 21.575 80.4621 22.575C80.2871 23.125 79.9871 24.6 79.2871 24.6C77.5121 24.6 77.4371 21.2 77.4121 20.425C77.3871 19.9 77.3621 18.975 77.3621 18.1C77.3621 16.875 77.4871 16.2 77.4871 15.5C77.6121 14.35 78.4871 12.625 79.2121 12.625C80.6621 12.625 80.8121 15.35 80.8121 16.65Z" fill="#105EA8"/>
</svg>
