<svg width="74" height="25" viewBox="0 0 74 25" fill="none" xmlns="http://www.w3.org/2000/svg">
<mask id="mask0" mask-type="alpha" maskUnits="userSpaceOnUse" x="0" y="0" width="74" height="24">
<rect width="74" height="24" fill="#C4C4C4"/>
</mask>
<g mask="url(#mask0)">
<path d="M8.57872 2.02695C8.99448 0.814421 10.1347 0 11.4165 0H82.0768C84.1526 0 85.6011 2.05751 84.9011 4.01171L78.4066 22.1414C77.9794 23.334 76.8491 24.1297 75.5823 24.1297H5.20011C3.14161 24.1297 1.69463 22.1039 2.3623 20.1567L8.57872 2.02695Z" fill="#FFDD14"/>
</g>
<path d="M15.2474 10.72C15.2274 10.94 15.2274 11.22 15.2274 11.44V11.38C15.2274 11.54 15.1874 11.8 15.1874 12.12C15.2474 13.9 15.0674 19.16 19.3674 19.48C21.5674 19.48 22.2074 18.24 22.2074 17.96C22.2074 17.36 21.4274 16.72 21.0874 16.72C20.6474 16.72 20.3274 17.2 19.6074 17.2C17.9274 17.2 17.6674 13.9 17.6674 12.28C17.6674 11.94 17.6874 11.54 17.7274 11.14L17.8274 9.84C18.0274 8.88 18.3874 7.08 19.6274 7.08C20.4074 7.08 20.9474 7.5 21.2474 7.5C21.3274 7.5 22.2074 7.16 22.2074 6.3C22.2074 5.8 20.9874 4.8 19.5474 4.8C17.4674 4.8 16.2274 6.26 15.7274 8.04V8.02C15.5674 8.56 15.4474 9.18 15.3474 9.8C15.3474 9.8 15.3474 9.78 15.3474 9.76C15.2674 10.12 15.2474 10.34 15.2474 10.72ZM25.99 18.44C26.03 17.22 26.03 15.88 26.03 14.76V13.66C26.03 13.62 26.01 13.56 26.01 13.52C26.01 13.36 26.05 13.22 26.19 13.12C26.69 13.22 27.51 13.8 27.65 14.8L27.71 15.26C27.95 18.28 29.03 19.34 31.15 19.34C31.59 19.34 31.81 19.22 31.81 18.92V17.64C31.79 17.44 31.69 17.4 31.41 17.4C30.33 17.4 30.17 15.78 30.11 14.84C29.93 12.22 27.87 11.88 27.85 11.86C28.85 11.74 29.55 10.82 29.99 8.66C30.17 7.58 30.09 6.96 31.01 6.96C31.21 6.96 31.25 6.84 31.25 6.74C31.25 6.42 31.23 5.68 31.23 5.34C31.23 5.12 31.03 5.1 30.45 5.1C28.41 5.1 27.93 6.18 27.45 9.26C27.29 10.28 26.39 10.86 25.95 10.86C25.95 10.4 25.93 10 25.93 9.6C25.93 8.36 25.99 7 26.03 5.72C26.03 5.14 25.35 5.22 24.77 5.22H24.01C23.61 5.28 23.61 5.54 23.61 6.32V6.84C23.61 10.7 23.73 13.8 23.71 17.36C23.71 17.52 23.69 18.24 23.69 18.42C23.69 19.12 24.13 19.02 24.53 19.02C25.15 19.02 25.99 19.12 25.99 18.44ZM40.6646 10.5C40.6446 10.42 40.6446 10.38 40.6446 10.32C40.5246 7.86 39.8046 4.8 37.2046 4.8C34.3246 4.8 33.2246 7.14 32.8846 11.26C32.5846 15 33.3046 19.46 36.6246 19.46C37.4446 19.46 38.2846 19.3 38.7446 18.84L38.9046 18.74C39.5246 18.22 40.7046 17.12 40.7046 13.26C40.7046 12.24 40.6646 11.3 40.6646 10.5ZM38.1246 10.72C38.1446 11.18 38.1646 11.82 38.1646 12.5C38.1646 13.48 38.0846 14.66 37.8446 15.46C37.7046 15.9 37.4646 17.08 36.9046 17.08C35.4846 17.08 35.4246 14.36 35.4046 13.74C35.3846 13.32 35.3646 12.58 35.3646 11.88C35.3646 10.9 35.4646 10.36 35.4646 9.8C35.5646 8.88 36.2646 7.5 36.8446 7.5C38.0046 7.5 38.1246 9.68 38.1246 10.72ZM44.7368 6.98C45.4768 7.02 46.8368 8.04 46.8368 10.56C46.8368 11.76 46.4968 13.58 44.6368 13.58C44.6768 11.52 44.6968 9.6 44.7168 7.54C44.7168 7.46 44.6968 7.4 44.6968 7.34C44.6968 7.22 44.7168 7.1 44.7368 6.98ZM44.8768 18.56C44.8768 17.58 44.8968 16.26 44.8968 15.3C45.2168 15.3 46.5368 15.24 47.3168 14.76C48.5968 13.96 49.3368 12.3 49.3368 10.2C49.3368 6.7 46.5368 5 43.8168 5C43.1368 5 42.5168 5.24 42.5168 6.1C42.5168 10.1 42.4968 14.12 42.4968 18.14V18.36C42.4968 18.98 42.8568 19.04 43.0968 19.04H44.2168C44.3768 19.04 44.8768 19.1 44.8768 18.56ZM58.399 10.5C58.379 10.42 58.379 10.38 58.379 10.32C58.259 7.86 57.539 4.8 54.939 4.8C52.059 4.8 50.959 7.14 50.619 11.26C50.319 15 51.039 19.46 54.359 19.46C55.179 19.46 56.019 19.3 56.479 18.84L56.639 18.74C57.259 18.22 58.439 17.12 58.439 13.26C58.439 12.24 58.399 11.3 58.399 10.5ZM55.859 10.72C55.879 11.18 55.899 11.82 55.899 12.5C55.899 13.48 55.819 14.66 55.579 15.46C55.439 15.9 55.199 17.08 54.639 17.08C53.219 17.08 53.159 14.36 53.139 13.74C53.119 13.32 53.099 12.58 53.099 11.88C53.099 10.9 53.199 10.36 53.199 9.8C53.299 8.88 53.999 7.5 54.579 7.5C55.739 7.5 55.859 9.68 55.859 10.72Z" fill="#105EA8"/>
</svg>
