<svg width="95" height="40" viewBox="0 0 95 40" fill="none" xmlns="http://www.w3.org/2000/svg">
<path d="M11.873 2.05383C12.2806 0.827518 13.4276 0 14.7199 0H119.783C121.846 0 123.293 2.03479 122.617 3.98403L112.2 33.984C111.781 35.1909 110.644 36 109.366 36H4.74924C2.70267 36 1.25688 33.9959 1.90236 32.0538L11.873 2.05383Z" fill="#FFDD14"/>
<path d="M25.0477 16.65C25.0227 16.925 25.0227 17.275 25.0227 17.55V17.475C25.0227 17.675 24.9727 18 24.9727 18.4C25.0477 20.625 24.8227 27.2 30.1977 27.6C32.9477 27.6 33.7477 26.05 33.7477 25.7C33.7477 24.95 32.7727 24.15 32.3477 24.15C31.7977 24.15 31.3977 24.75 30.4977 24.75C28.3977 24.75 28.0727 20.625 28.0727 18.6C28.0727 18.175 28.0977 17.675 28.1477 17.175L28.2727 15.55C28.5227 14.35 28.9727 12.1 30.5227 12.1C31.4977 12.1 32.1727 12.625 32.5477 12.625C32.6477 12.625 33.7477 12.2 33.7477 11.125C33.7477 10.5 32.2227 9.25 30.4227 9.25C27.8227 9.25 26.2727 11.075 25.6477 13.3V13.275C25.4477 13.95 25.2977 14.725 25.1727 15.5C25.1727 15.5 25.1727 15.475 25.1727 15.45C25.0727 15.9 25.0477 16.175 25.0477 16.65ZM38.476 26.3C38.526 24.775 38.526 23.1 38.526 21.7V20.325C38.526 20.275 38.501 20.2 38.501 20.15C38.501 19.95 38.551 19.775 38.726 19.65C39.351 19.775 40.376 20.5 40.551 21.75L40.626 22.325C40.926 26.1 42.276 27.425 44.926 27.425C45.476 27.425 45.751 27.275 45.751 26.9V25.3C45.726 25.05 45.601 25 45.251 25C43.901 25 43.701 22.975 43.626 21.8C43.401 18.525 40.826 18.1 40.801 18.075C42.051 17.925 42.926 16.775 43.476 14.075C43.701 12.725 43.601 11.95 44.751 11.95C45.001 11.95 45.051 11.8 45.051 11.675C45.051 11.275 45.026 10.35 45.026 9.925C45.026 9.65 44.776 9.625 44.051 9.625C41.501 9.625 40.901 10.975 40.301 14.825C40.101 16.1 38.976 16.825 38.426 16.825C38.426 16.25 38.401 15.75 38.401 15.25C38.401 13.7 38.476 12 38.526 10.4C38.526 9.675 37.676 9.775 36.951 9.775H36.001C35.501 9.85 35.501 10.175 35.501 11.15V11.8C35.501 16.625 35.651 20.5 35.626 24.95C35.626 25.15 35.601 26.05 35.601 26.275C35.601 27.15 36.151 27.025 36.651 27.025C37.426 27.025 38.476 27.15 38.476 26.3ZM56.8191 16.375C56.7941 16.275 56.7941 16.225 56.7941 16.15C56.6441 13.075 55.7441 9.25 52.4941 9.25C48.8941 9.25 47.5191 12.175 47.0941 17.325C46.7191 22 47.6191 27.575 51.7691 27.575C52.7941 27.575 53.8441 27.375 54.4191 26.8L54.6191 26.675C55.3941 26.025 56.8691 24.65 56.8691 19.825C56.8691 18.55 56.8191 17.375 56.8191 16.375ZM53.6441 16.65C53.6691 17.225 53.6941 18.025 53.6941 18.875C53.6941 20.1 53.5941 21.575 53.2941 22.575C53.1191 23.125 52.8191 24.6 52.1191 24.6C50.3441 24.6 50.2691 21.2 50.2441 20.425C50.2191 19.9 50.1941 18.975 50.1941 18.1C50.1941 16.875 50.3191 16.2 50.3191 15.5C50.4441 14.35 51.3191 12.625 52.0441 12.625C53.4941 12.625 53.6441 15.35 53.6441 16.65ZM61.9094 11.975C62.8344 12.025 64.5344 13.3 64.5344 16.45C64.5344 17.95 64.1094 20.225 61.7844 20.225C61.8344 17.65 61.8594 15.25 61.8844 12.675C61.8844 12.575 61.8594 12.5 61.8594 12.425C61.8594 12.275 61.8844 12.125 61.9094 11.975ZM62.0844 26.45C62.0844 25.225 62.1094 23.575 62.1094 22.375C62.5094 22.375 64.1594 22.3 65.1344 21.7C66.7344 20.7 67.6594 18.625 67.6594 16C67.6594 11.625 64.1594 9.5 60.7594 9.5C59.9094 9.5 59.1344 9.8 59.1344 10.875C59.1344 15.875 59.1094 20.9 59.1094 25.925V26.2C59.1094 26.975 59.5594 27.05 59.8594 27.05H61.2594C61.4594 27.05 62.0844 27.125 62.0844 26.45ZM78.9871 16.375C78.9621 16.275 78.9621 16.225 78.9621 16.15C78.8121 13.075 77.9121 9.25 74.6621 9.25C71.0621 9.25 69.6871 12.175 69.2621 17.325C68.8871 22 69.7871 27.575 73.9371 27.575C74.9621 27.575 76.0121 27.375 76.5871 26.8L76.7871 26.675C77.5621 26.025 79.0371 24.65 79.0371 19.825C79.0371 18.55 78.9871 17.375 78.9871 16.375ZM75.8121 16.65C75.8371 17.225 75.8621 18.025 75.8621 18.875C75.8621 20.1 75.7621 21.575 75.4621 22.575C75.2871 23.125 74.9871 24.6 74.2871 24.6C72.5121 24.6 72.4371 21.2 72.4121 20.425C72.3871 19.9 72.3621 18.975 72.3621 18.1C72.3621 16.875 72.4871 16.2 72.4871 15.5C72.6121 14.35 73.4871 12.625 74.2121 12.625C75.6621 12.625 75.8121 15.35 75.8121 16.65Z" fill="#105EA8"/>
</svg>
