<svg width="161" height="66" viewBox="0 0 161 66" fill="none" xmlns="http://www.w3.org/2000/svg">
<mask id="mask0" mask-type="alpha" maskUnits="userSpaceOnUse" x="0" y="0" width="161" height="66">
<rect width="161" height="66" fill="#C4C4C4"/>
</mask>
<g mask="url(#mask0)">
<path d="M21.2529 2.05382C21.6605 0.82751 22.8075 0 24.0998 0H167C168.657 0 170 1.34315 170 3V63C170 64.6569 168.657 66 167 66H4.15842C2.11185 66 0.666064 63.9959 1.31154 62.0538L21.2529 2.05382Z" fill="#FFDD14"/>
</g>
<path d="M53.1886 32.096C53.1526 32.492 53.1526 32.996 53.1526 33.392V33.284C53.1526 33.572 53.0806 34.04 53.0806 34.616C53.1886 37.82 52.8646 47.288 60.6046 47.864C64.5646 47.864 65.7166 45.632 65.7166 45.128C65.7166 44.048 64.3126 42.896 63.7006 42.896C62.9086 42.896 62.3326 43.76 61.0366 43.76C58.0126 43.76 57.5446 37.82 57.5446 34.904C57.5446 34.292 57.5806 33.572 57.6526 32.852L57.8326 30.512C58.1926 28.784 58.8406 25.544 61.0726 25.544C62.4766 25.544 63.4486 26.3 63.9886 26.3C64.1326 26.3 65.7166 25.688 65.7166 24.14C65.7166 23.24 63.5206 21.44 60.9286 21.44C57.1846 21.44 54.9526 24.068 54.0526 27.272V27.236C53.7646 28.208 53.5486 29.324 53.3686 30.44C53.3686 30.44 53.3686 30.404 53.3686 30.368C53.2246 31.016 53.1886 31.412 53.1886 32.096ZM72.5254 45.992C72.5974 43.796 72.5974 41.384 72.5974 39.368V37.388C72.5974 37.316 72.5614 37.208 72.5614 37.136C72.5614 36.848 72.6334 36.596 72.8854 36.416C73.7854 36.596 75.2614 37.64 75.5134 39.44L75.6214 40.268C76.0534 45.704 77.9974 47.612 81.8134 47.612C82.6054 47.612 83.0014 47.396 83.0014 46.856V44.552C82.9654 44.192 82.7854 44.12 82.2814 44.12C80.3374 44.12 80.0494 41.204 79.9414 39.512C79.6174 34.796 75.9094 34.184 75.8734 34.148C77.6734 33.932 78.9334 32.276 79.7254 28.388C80.0494 26.444 79.9054 25.328 81.5614 25.328C81.9214 25.328 81.9934 25.112 81.9934 24.932C81.9934 24.356 81.9574 23.024 81.9574 22.412C81.9574 22.016 81.5974 21.98 80.5534 21.98C76.8814 21.98 76.0174 23.924 75.1534 29.468C74.8654 31.304 73.2454 32.348 72.4534 32.348C72.4534 31.52 72.4174 30.8 72.4174 30.08C72.4174 27.848 72.5254 25.4 72.5974 23.096C72.5974 22.052 71.3734 22.196 70.3294 22.196H68.9614C68.2414 22.304 68.2414 22.772 68.2414 24.176V25.112C68.2414 32.06 68.4574 37.64 68.4214 44.048C68.4214 44.336 68.3854 45.632 68.3854 45.956C68.3854 47.216 69.1774 47.036 69.8974 47.036C71.0134 47.036 72.5254 47.216 72.5254 45.992ZM98.9396 31.7C98.9036 31.556 98.9036 31.484 98.9036 31.376C98.6876 26.948 97.3916 21.44 92.7116 21.44C87.5276 21.44 85.5476 25.652 84.9356 33.068C84.3956 39.8 85.6916 47.828 91.6676 47.828C93.1436 47.828 94.6556 47.54 95.4836 46.712L95.7716 46.532C96.8876 45.596 99.0116 43.616 99.0116 36.668C99.0116 34.832 98.9396 33.14 98.9396 31.7ZM94.3676 32.096C94.4036 32.924 94.4396 34.076 94.4396 35.3C94.4396 37.064 94.2956 39.188 93.8636 40.628C93.6116 41.42 93.1796 43.544 92.1716 43.544C89.6156 43.544 89.5076 38.648 89.4716 37.532C89.4356 36.776 89.3996 35.444 89.3996 34.184C89.3996 32.42 89.5796 31.448 89.5796 30.44C89.7596 28.784 91.0196 26.3 92.0636 26.3C94.1516 26.3 94.3676 30.224 94.3676 32.096ZM106.27 25.364C107.602 25.436 110.05 27.272 110.05 31.808C110.05 33.968 109.438 37.244 106.09 37.244C106.162 33.536 106.198 30.08 106.234 26.372C106.234 26.228 106.198 26.12 106.198 26.012C106.198 25.796 106.234 25.58 106.27 25.364ZM106.522 46.208C106.522 44.444 106.558 42.068 106.558 40.34C107.134 40.34 109.51 40.232 110.914 39.368C113.218 37.928 114.55 34.94 114.55 31.16C114.55 24.86 109.51 21.8 104.614 21.8C103.39 21.8 102.274 22.232 102.274 23.78C102.274 30.98 102.238 38.216 102.238 45.452V45.848C102.238 46.964 102.886 47.072 103.318 47.072H105.334C105.622 47.072 106.522 47.18 106.522 46.208ZM130.861 31.7C130.825 31.556 130.825 31.484 130.825 31.376C130.609 26.948 129.313 21.44 124.633 21.44C119.449 21.44 117.469 25.652 116.857 33.068C116.317 39.8 117.613 47.828 123.589 47.828C125.065 47.828 126.577 47.54 127.405 46.712L127.693 46.532C128.809 45.596 130.933 43.616 130.933 36.668C130.933 34.832 130.861 33.14 130.861 31.7ZM126.289 32.096C126.325 32.924 126.361 34.076 126.361 35.3C126.361 37.064 126.217 39.188 125.785 40.628C125.533 41.42 125.101 43.544 124.093 43.544C121.537 43.544 121.429 38.648 121.393 37.532C121.357 36.776 121.321 35.444 121.321 34.184C121.321 32.42 121.501 31.448 121.501 30.44C121.681 28.784 122.941 26.3 123.985 26.3C126.073 26.3 126.289 30.224 126.289 32.096Z" fill="#105EA8"/>
</svg>
