<?xml version="1.0" encoding="utf-8"?><svg xmlns="http://www.w3.org/2000/svg" xmlns:xlink="http://www.w3.org/1999/xlink"><symbol fill="none" viewBox="0 0 14 11" id="arrow-blue" xmlns="http://www.w3.org/2000/svg"><path d="M6.452 10.046a.665.665 0 001.096 0l6-8.667A.666.666 0 0013 .333H1A.668.668 0 00.452 1.38l6 8.667z" fill="#6776FF"/></symbol><symbol fill="none" viewBox="0 0 18 21" id="bell" xmlns="http://www.w3.org/2000/svg"><g clip-path="url(#bclip0_871_21662)"><path d="M9 21c1.42 0 2.57-1.175 2.57-2.625H6.43C6.43 19.825 7.58 21 9 21zm8.654-6.14c-.776-.852-2.229-2.133-2.229-6.329 0-3.187-2.189-5.738-5.14-6.364v-.854C10.285.588 9.71 0 9 0S7.715.588 7.715 1.313v.854c-2.951.626-5.14 3.177-5.14 6.364 0 4.196-1.453 5.477-2.229 6.329-.241.264-.348.58-.346.89.004.673.522 1.313 1.29 1.313h15.42c.768 0 1.286-.64 1.29-1.313a1.295 1.295 0 00-.346-.89z" fill="#2F2F2F"/></g><defs><clipPath id="bclip0_871_21662"><path fill="#fff" d="M0 0h18v21H0z"/></clipPath></defs></symbol><symbol fill="none" viewBox="0 0 16 16" id="enter" xmlns="http://www.w3.org/2000/svg"><path fill-rule="evenodd" clip-rule="evenodd" d="M6.604.361A2.25 2.25 0 019.5 2.516v10.968a2.25 2.25 0 01-2.896 2.155l-4.5-1.35A2.25 2.25 0 01.5 12.134V3.866a2.25 2.25 0 011.603-2.155l4.5-1.35zM10.25 2a.75.75 0 01.75-.75h2.25A2.25 2.25 0 0115.5 3.5v.75a.75.75 0 11-1.5 0V3.5a.75.75 0 00-.75-.75H11a.75.75 0 01-.75-.75zm4.5 9a.75.75 0 01.75.75v.75a2.25 2.25 0 01-2.25 2.25H11a.75.75 0 110-1.5h2.25a.75.75 0 00.75-.75v-.75a.75.75 0 01.75-.75zm-9-3.75a.75.75 0 000 1.5.75.75 0 000-1.5z" fill="#6776FF"/></symbol><symbol fill="none" viewBox="0 0 18 22" id="profile" xmlns="http://www.w3.org/2000/svg"><path d="M12.833 13.776L9 17.876l-3.833-4.1C2.294 13.91 0 16.423 0 19.526v.412C0 21.076.864 22 1.929 22H16.07c1.066 0 1.93-.924 1.93-2.062v-.413c0-3.102-2.294-5.616-5.167-5.749zM.546 3.43l.258.064v2.51a1.03 1.03 0 00-.483.872c0 .36.185.661.446.846L.141 10.4c-.069.296.084.602.305.602h1.68c.22 0 .373-.306.305-.602l-.627-2.677c.261-.185.446-.485.446-.846 0-.378-.2-.692-.482-.872v-2.26l2.652.683a5.764 5.764 0 00-.563 2.449c0 3.037 2.302 5.5 5.143 5.5 2.84 0 5.143-2.463 5.143-5.5 0-.885-.213-1.71-.563-2.45l3.87-.996a.692.692 0 000-1.354L9.8.1a3.234 3.234 0 00-1.596 0L.546 2.072a.695.695 0 000 1.358z" fill="#2F2F2F"/></symbol><symbol fill="none" viewBox="0 0 21 25" id="profile-blue" xmlns="http://www.w3.org/2000/svg"><path d="M14.972 15.655L10.5 20.313l-4.472-4.658C2.677 15.806 0 18.662 0 22.188v.468C0 23.95 1.008 25 2.25 25h16.5c1.242 0 2.25-1.05 2.25-2.344v-.468c0-3.526-2.677-6.382-6.028-6.533zM.637 3.898l.3.073v2.851a1.166 1.166 0 00-.562.991c0 .41.216.752.52.962l-.73 3.042c-.08.337.098.684.355.684h1.96c.257 0 .436-.347.356-.684l-.731-3.042c.304-.21.52-.552.52-.962 0-.43-.234-.786-.563-.99v-2.57l3.094.777A6.41 6.41 0 004.5 7.813c0 3.452 2.686 6.25 6 6.25s6-2.798 6-6.25a6.345 6.345 0 00-.656-2.783l4.514-1.132c.853-.215.853-1.324 0-1.538L11.433.114a3.87 3.87 0 00-1.861 0L.638 2.354a.786.786 0 000 1.544z" fill="#6776FF"/></symbol><symbol fill="none" viewBox="0 0 30 29" id="star-empty" xmlns="http://www.w3.org/2000/svg"><path d="M23.382 27.994l-.025-.002h-.026a.486.486 0 01-.223-.053l-7.661-4.07-.47-.25-.469.25-7.666 4.073H6.84a.485.485 0 01-.52-.04.523.523 0 01-.174-.227.547.547 0 01-.03-.295h0l1.504-8.59.09-.516-.374-.368L1.15 11.81a.547.547 0 01-.129-.522.526.526 0 01.157-.232l-.64-.75.64.75a.492.492 0 01.249-.113h.003l8.569-1.267.524-.077.23-.478 3.773-7.826h0l.002-.004a.518.518 0 01.189-.214.487.487 0 01.523 0c.08.05.146.124.189.214h0l.004.009 3.818 7.81.231.474.521.077 8.569 1.266h.003a.506.506 0 01.405.345.548.548 0 01-.128.523l-6.188 6.096-.373.368.09.517 1.504 8.589h0l.002.012a.546.546 0 01-.029.3.523.523 0 01-.173.229.487.487 0 01-.302.088z" stroke="#FFA319" stroke-width="2"/></symbol></svg>