<svg width="147" height="83" viewBox="0 0 147 83" fill="none" xmlns="http://www.w3.org/2000/svg">
<path d="M29.1813 10.2609L30.18 10.3133L30.2558 8.86725L28.8766 9.30847L29.1813 10.2609ZM26.1175 68.7077L25.1188 68.6553L25.0667 69.6498L26.0609 69.7061L26.1175 68.7077ZM55.7648 70.3862L56.3278 71.2127L58.7624 69.5543L55.8213 69.3878L55.7648 70.3862ZM55.3106 70.6071L55.0243 69.6489L55.0154 69.6517L55.3106 70.6071ZM19.852 81.5618L20.1466 82.5174L20.1471 82.5173L19.852 81.5618ZM18.1239 80.5977L19.0904 80.341L19.0898 80.3388L18.1239 80.5977ZM2.04081 20.5786L1.07478 20.837L1.07489 20.8374L2.04081 20.5786ZM3.13918 18.5924L2.83447 17.64L2.83362 17.6402L3.13918 18.5924ZM62.7703 5.42987L63.6838 5.83663L64.2757 4.50739L62.8226 4.43124L62.7703 5.42987ZM37.9334 61.2118L37.0199 60.805L36.6131 61.7186L37.5267 62.1253L37.9334 61.2118ZM58.6082 70.4156L58.5558 71.4143L59.0149 69.5021L58.6082 70.4156ZM27.5966 68.7908L27.6489 67.7922L27.6489 67.7922L27.5966 68.7908ZM26.1968 67.2259L25.1982 67.1736L25.1981 67.1744L26.1968 67.2259ZM29.4485 5.17325L28.4499 5.12002L28.4499 5.12092L29.4485 5.17325ZM31.0052 3.7652L30.9513 4.76375L30.9529 4.76383L31.0052 3.7652ZM67.7889 1.25636L68.1956 0.342805L68.1953 0.342666L67.7889 1.25636ZM105.882 18.2153L106.289 17.3018L106.289 17.3018L105.882 18.2153ZM107.383 22.1235L108.297 22.5302L108.297 22.5298L107.383 22.1235ZM82.8339 77.262L83.7474 77.6688L83.7475 77.6687L82.8339 77.262ZM78.9258 78.7629L78.5191 79.6764L78.5194 79.6766L78.9258 78.7629ZM40.8324 61.8039L40.4255 62.7174L40.4257 62.7175L40.8324 61.8039ZM39.3315 57.8957L38.4179 57.489L38.4177 57.4894L39.3315 57.8957ZM63.8808 2.75727L62.9673 2.35043L62.9672 2.35053L63.8808 2.75727ZM55.2018 69.5597C55.1312 69.6078 55.0708 69.6351 55.0243 69.6489L55.5968 71.5653C55.8683 71.4842 56.1134 71.3587 56.3278 71.2127L55.2018 69.5597ZM55.0154 69.6517L19.5568 80.6064L20.1471 82.5173L55.6058 71.5626L55.0154 69.6517ZM19.5573 80.6062C19.4204 80.6484 19.3238 80.6252 19.2631 80.5916C19.2031 80.5583 19.1293 80.4876 19.0904 80.341L17.1574 80.8544C17.5136 82.1953 18.8333 82.9223 20.1466 82.5174L19.5573 80.6062ZM19.0898 80.3388L3.00673 20.3197L1.07489 20.8374L17.158 80.8565L19.0898 80.3388ZM3.00684 20.3201C2.92579 20.0171 3.11478 19.6505 3.44474 19.5446L2.83362 17.6402C1.50363 18.067 0.714009 19.4883 1.07478 20.837L3.00684 20.3201ZM3.44389 19.5449L29.486 11.2134L28.8766 9.30847L2.83447 17.64L3.44389 19.5449ZM58.6605 69.417L27.6489 67.7922L27.5443 69.7895L58.5558 71.4143L58.6605 69.417ZM27.6489 67.7922C27.3765 67.7779 27.1803 67.5707 27.1955 67.2774L25.1981 67.1744C25.1266 68.5617 26.1609 69.717 27.5443 69.7895L27.6489 67.7922ZM27.1954 67.2782L30.4471 5.22558L28.4499 5.12092L25.1982 67.1736L27.1954 67.2782ZM30.4471 5.22647C30.4613 4.96023 30.7045 4.75042 30.9513 4.76375L31.0591 2.76665C29.6997 2.69325 28.5224 3.75939 28.4499 5.12002L30.4471 5.22647ZM30.9529 4.76383L62.718 6.4285L62.8226 4.43124L31.0575 2.76657L30.9529 4.76383ZM67.3822 2.16992L105.476 19.1289L106.289 17.3018L68.1956 0.342805L67.3822 2.16992ZM105.476 19.1288C105.91 19.3225 106.26 19.7426 106.449 20.2902C106.642 20.8504 106.614 21.3923 106.47 21.7172L108.297 22.5298C108.691 21.6428 108.659 20.5631 108.34 19.6383C108.017 18.7011 107.347 17.773 106.289 17.3018L105.476 19.1288ZM106.47 21.7167L81.9204 76.8552L83.7475 77.6687L108.297 22.5302L106.47 21.7167ZM81.9204 76.8551C81.4801 77.8439 80.322 78.2894 79.3322 77.8492L78.5194 79.6766C80.519 80.5659 82.8582 79.6654 83.7474 77.6688L81.9204 76.8551ZM79.3325 77.8493L41.2391 60.8903L40.4257 62.7175L78.5191 79.6764L79.3325 77.8493ZM41.2392 60.8904C40.8044 60.6967 40.4543 60.2767 40.2655 59.729C40.0723 59.1688 40.1007 58.6269 40.2452 58.3021L38.4177 57.4894C38.0233 58.3764 38.0558 59.4562 38.3747 60.3809C38.6978 61.3182 39.3676 62.2463 40.4255 62.7174L41.2392 60.8904ZM40.245 58.3025L64.7943 3.164L62.9672 2.35053L38.4179 57.489L40.245 58.3025ZM64.7943 3.1641C65.2347 2.1753 66.3927 1.72981 67.3825 2.17006L68.1953 0.342666C66.1958 -0.54671 63.8565 0.353805 62.9673 2.35043L64.7943 3.1641ZM28.1827 10.2086L25.1188 68.6553L27.1161 68.76L30.18 10.3133L28.1827 10.2086ZM26.0609 69.7061L55.7083 71.3846L55.8213 69.3878L26.174 67.7093L26.0609 69.7061ZM61.8568 5.02312L37.0199 60.805L38.8469 61.6185L63.6838 5.83663L61.8568 5.02312ZM37.5267 62.1253L58.2015 71.3292L59.0149 69.5021L38.3401 60.2982L37.5267 62.1253Z" fill="#CCD7EA"/>
<path fill-rule="evenodd" clip-rule="evenodd" d="M109.012 41.8531C112.995 41.8531 116.223 38.645 116.223 34.6885C116.223 38.645 119.453 41.8531 123.436 41.8531C119.453 41.8531 116.223 45.0599 116.223 49.0164C116.223 45.0599 112.995 41.8531 109.012 41.8531Z" fill="#CCD7EA"/>
<path fill-rule="evenodd" clip-rule="evenodd" d="M128.453 45.2787C133.301 45.2787 137.233 41.3743 137.233 36.5574C137.233 41.3743 141.163 45.2787 146.012 45.2787C141.163 45.2787 137.233 49.183 137.233 54C137.233 49.183 133.301 45.2787 128.453 45.2787Z" fill="#CCD7EA"/>
<path fill-rule="evenodd" clip-rule="evenodd" d="M115.911 27.2125C122.319 27.2125 127.513 22.1922 127.513 16C127.513 22.1925 132.707 27.2125 139.114 27.2125C132.707 27.2125 127.513 32.2328 127.513 38.4262C127.513 32.2328 122.319 27.2125 115.911 27.2125Z" fill="#CCD7EA"/>
</svg>
