<svg width="200" height="92" viewBox="0 0 200 92" fill="none" xmlns="http://www.w3.org/2000/svg">
<path d="M0 37.2232L33.5812 55.5605L41.5655 92L108.337 0L0 37.2232Z" fill="#1B2233"/>
<path d="M50.0196 30.7973L53.1507 22.4906L56.2035 30.7973H50.0196ZM46.4971 38.6337C46.6536 38.6337 46.8102 38.5554 46.9667 38.477C47.045 38.3986 47.2016 38.2419 47.2799 38.0852L48.6889 34.5588H57.6908L59.0998 38.0852C59.1781 38.2419 59.2564 38.3986 59.3346 38.477C59.4912 38.5554 59.5695 38.6337 59.8043 38.6337H63.0137C63.1703 38.6337 63.2486 38.6337 63.3268 38.5554C63.4051 38.477 63.4833 38.3987 63.4833 38.3203C63.4833 38.2419 63.4833 38.2419 63.4833 38.1636C63.4833 38.0852 63.4834 38.0852 63.4051 38.0068L55.1859 17.3969C55.1076 17.2402 55.0293 17.0835 54.8728 17.0051C54.7162 16.9268 54.638 16.8484 54.4031 16.8484H51.9765C51.82 16.8484 51.6634 16.9268 51.5852 17.0051C51.4286 17.0835 51.3503 17.2402 51.272 17.3969L42.9746 38.0068C42.9746 38.0852 42.9746 38.0852 42.8963 38.1636C42.8963 38.2419 42.8963 38.2419 42.8963 38.3203C42.8963 38.477 42.8963 38.5554 42.9746 38.5554C43.0529 38.6337 43.2094 38.6337 43.366 38.6337H46.4971Z" fill="white"/>
<path d="M31.9374 27.1141V20.6099H35.9295C36.3992 20.6099 36.8689 20.6883 37.2602 20.845C37.6516 21.0017 38.043 21.2368 38.3562 21.5503C38.6693 21.8637 38.9041 22.1772 39.0607 22.6474C39.2172 23.0392 39.2955 23.431 39.2955 23.9012C39.2955 24.3714 39.2172 24.7632 39.0607 25.155C38.9041 25.5469 38.6693 25.8603 38.3562 26.1738C38.043 26.4872 37.6516 26.7223 37.2602 26.8791C36.8689 27.0358 36.3992 27.1141 35.9295 27.1141H31.9374ZM31.3112 38.6337C31.546 38.6337 31.6243 38.5554 31.7808 38.477C31.8591 38.3986 31.9374 38.2419 31.9374 38.0068V30.7973H36.7123C37.6516 30.7973 38.591 30.6405 39.3738 30.2487C40.2348 29.8569 40.9393 29.3867 41.5655 28.6814C41.9569 28.2112 42.3483 27.7411 42.5832 27.2709C42.8963 26.7223 43.1311 26.1738 43.2876 25.6252C43.4442 25.0767 43.5225 24.4497 43.5225 23.9012C43.5225 23.2743 43.4442 22.7257 43.2876 22.0988C43.1311 21.5503 42.8963 21.0017 42.6614 20.4532C42.3483 19.9046 42.0352 19.4344 41.6438 19.0426C41.0176 18.3373 40.3131 17.8671 39.4521 17.4753C38.591 17.0835 37.7299 16.9268 36.7906 16.9268H28.2583C28.1018 16.9268 27.9452 17.0051 27.867 17.0835C27.7887 17.1619 27.7104 17.3186 27.7104 17.5537V38.1635C27.7104 38.3986 27.7887 38.477 27.867 38.6337C27.9452 38.7121 28.1018 38.7905 28.3366 38.7905H31.3112V38.6337Z" fill="white"/>
<path d="M58.1605 48.6645L61.2916 40.3578L64.3445 48.6645H58.1605ZM54.638 56.5793C54.7945 56.5793 54.9511 56.5793 55.1077 56.4225C55.186 56.3442 55.3425 56.1874 55.4208 56.0307L56.8298 52.5043H65.8317L67.2408 56.0307C67.319 56.1874 67.3973 56.3442 67.4756 56.4225C67.6321 56.5009 67.7104 56.5793 67.9452 56.5793H71.1546C71.3112 56.5793 71.3894 56.5793 71.4677 56.5009C71.546 56.4225 71.6243 56.3442 71.6243 56.2658C71.6243 56.1875 71.6243 56.1874 71.6243 56.1091C71.6243 56.0307 71.6243 56.0307 71.546 55.9524L63.2486 35.3425C63.1703 35.1858 63.092 35.029 62.9355 34.9507C62.7789 34.8723 62.6223 34.7939 62.4658 34.7939H60.0392C59.8826 34.7939 59.7261 34.8723 59.6478 34.9507C59.4912 35.029 59.4129 35.1858 59.3347 35.3425L51.0372 55.9524C51.0372 56.0307 51.0372 56.0307 50.9589 56.1091C50.9589 56.1874 50.9589 56.1875 50.9589 56.2658C50.9589 56.3442 51.0372 56.5009 51.1155 56.5009C51.1938 56.5793 51.3503 56.5793 51.5069 56.5793H54.638Z" fill="#E5134A"/>
<path d="M41.4091 56.5793C41.644 56.5793 41.8005 56.5009 41.8788 56.4226C41.957 56.3442 42.0353 56.1875 42.0353 55.9524V38.7905H50.6459C50.8024 38.7905 50.959 38.7122 51.1155 38.6338C51.1938 38.4771 51.2721 38.3204 51.2721 38.1636V35.4992C51.2721 35.2642 51.1938 35.1074 51.1155 35.0291C51.0373 34.9507 50.8024 34.8723 50.6459 34.8723H38.3563C38.1214 34.8723 37.9649 34.9507 37.8866 35.0291C37.8083 35.1074 37.7301 35.3425 37.7301 35.4992V56.0307C37.7301 56.1875 37.8083 56.3442 37.8866 56.5009C38.0432 56.6577 38.1997 56.6577 38.3563 56.6577H41.4091V56.5793Z" fill="#E5134A"/>
<path d="M69.8239 34.7155C70.6067 33.0699 71.2329 31.3458 71.6243 29.6218C72.0939 27.8978 72.3288 26.0954 72.407 24.293C72.4853 23.0392 72.5636 21.8637 72.5636 20.6883H77.8082V34.6371H69.8239V34.7155ZM66.4579 42.787C66.6145 42.787 66.771 42.787 66.8493 42.7087C66.9276 42.6303 67.0058 42.552 67.0058 42.3952V38.7121H80.5479V42.3952C80.5479 42.552 80.6262 42.6303 80.7045 42.787C80.7827 42.8654 80.9393 42.9438 81.0958 42.9438H83.9921C84.1487 42.9438 84.3053 42.9438 84.3835 42.787C84.4618 42.7087 84.5401 42.552 84.5401 42.3952V35.3424C84.5401 35.1857 84.4618 35.029 84.3835 34.9506C84.3053 34.8722 84.1487 34.7939 83.9921 34.7939H82.1135V17.3969C82.1135 17.2402 82.0352 17.1619 81.9569 17.0835C81.8787 17.0051 81.7221 16.9268 81.5655 16.9268H69.3542C69.1976 16.9268 69.0411 17.0051 68.9628 17.0835C68.8845 17.1619 68.8063 17.3186 68.8063 17.4753C68.8063 18.1022 68.8063 18.5724 68.8063 19.0426C68.8063 19.5128 68.8063 19.8262 68.8063 20.1397L68.728 22.6474C68.728 23.5878 68.6497 24.4498 68.5714 25.2334C68.4931 26.017 68.4149 26.8007 68.2583 27.506C68.1018 28.2112 68.0235 28.8382 67.7886 29.4651C67.6321 30.092 67.3972 30.7189 67.1624 31.2675C66.9276 31.8944 66.6927 32.4429 66.3796 33.0699C66.0665 33.6968 65.7534 34.2453 65.362 34.8722H63.8747C63.7182 34.8722 63.5616 34.9506 63.4833 35.029C63.4051 35.1073 63.3268 35.2641 63.3268 35.4992V42.552C63.3268 42.8654 63.4834 43.0222 63.7965 43.0222H66.4579V42.787Z" fill="white"/>
<path d="M78.1997 56.5793C78.4345 56.5793 78.591 56.5009 78.6693 56.4226C78.7476 56.3442 78.8259 56.1875 78.8259 55.9524V47.0972H88.6106V55.9524C88.6106 56.1875 88.6889 56.2658 88.7672 56.4226C88.8455 56.5009 89.002 56.5793 89.1586 56.5793H92.2897C92.5245 56.5793 92.6811 56.5009 92.7593 56.4226C92.8376 56.3442 92.9159 56.1875 92.9159 55.9524V35.3425C92.9159 35.1074 92.8376 34.9507 92.7593 34.8723C92.6811 34.7939 92.5245 34.7156 92.3679 34.7156H89.1586C89.002 34.7156 88.8455 34.7939 88.7672 34.8723C88.6889 34.9507 88.6106 35.1074 88.6106 35.3425V43.0222H78.8259V35.3425C78.8259 35.1074 78.7476 34.9507 78.6693 34.8723C78.591 34.7939 78.4345 34.7156 78.2779 34.7156H75.0686C74.912 34.7156 74.7554 34.7939 74.6772 34.8723C74.5989 34.9507 74.5206 35.1074 74.5206 35.3425V55.9524C74.5206 56.1875 74.5989 56.2658 74.6772 56.4226C74.7554 56.5009 74.912 56.5793 75.1468 56.5793H78.1997Z" fill="#E5134A"/>
<path d="M176.673 35.264V28.9949H181.526C181.683 28.9949 181.918 28.9949 182.074 28.9949C182.309 28.9949 182.466 29.0732 182.701 29.0732C183.014 29.1516 183.327 29.23 183.64 29.3867C183.953 29.5434 184.188 29.7785 184.423 30.092C184.658 30.4054 184.814 30.6405 184.971 31.0323C185.127 31.3458 185.127 31.7376 185.127 32.0511C185.127 32.4429 185.049 32.7564 184.971 33.1482C184.814 33.4617 184.658 33.7751 184.423 34.0886C184.188 34.402 183.953 34.6371 183.64 34.7939C183.327 34.9506 183.014 35.1073 182.701 35.1073C182.466 35.1857 182.231 35.1857 182.074 35.1857C181.84 35.1857 181.683 35.1857 181.526 35.1857H176.673V35.264ZM176.673 20.2964H181.448C181.84 20.2964 182.231 20.3748 182.544 20.5315C182.857 20.6882 183.17 20.845 183.405 21.0801C183.64 21.3152 183.875 21.6286 183.953 21.9421C184.11 22.2555 184.188 22.6474 184.188 23.0392C184.188 23.431 184.11 23.8228 183.953 24.1363C183.796 24.4497 183.64 24.7632 183.405 25.0766C183.17 25.3117 182.857 25.5468 182.466 25.7036C182.153 25.8603 181.761 25.9387 181.37 25.9387H176.673V20.2964ZM183.17 38.6337C184.031 38.6337 184.814 38.477 185.597 38.0852C186.38 37.7717 187.006 37.3015 187.632 36.6746C188.18 36.0477 188.65 35.4208 188.963 34.6371C189.276 33.8535 189.432 33.0698 189.432 32.2078C189.432 31.1891 189.198 30.1703 188.65 29.23C188.415 28.7598 188.102 28.368 187.789 27.9761C187.476 27.5843 187.084 27.2709 186.615 26.9574C187.162 26.4089 187.554 25.7819 187.867 25.0766C188.18 24.3714 188.337 23.6661 188.337 22.8041C188.337 21.9421 188.18 21.1584 187.867 20.4531C187.554 19.7479 187.084 19.0426 186.536 18.494C185.988 17.9455 185.284 17.4753 184.579 17.2402C183.875 16.9267 183.014 16.77 182.231 16.77H173.229C172.994 16.77 172.838 16.8484 172.759 16.9267C172.681 17.0835 172.603 17.2402 172.603 17.3969V37.9284C172.603 38.1635 172.681 38.3202 172.759 38.3986C172.916 38.477 173.072 38.5553 173.229 38.5553H183.17V38.6337Z" fill="white"/>
<path d="M157.417 30.7973L160.548 22.4906L163.601 30.7973H157.417ZM153.894 38.6337C154.051 38.6337 154.207 38.5554 154.364 38.477C154.442 38.3986 154.599 38.2419 154.677 38.0852L156.086 34.5588H165.088L166.497 38.0852C166.575 38.2419 166.654 38.3986 166.732 38.477C166.888 38.5554 166.967 38.6337 167.202 38.6337H170.411C170.568 38.6337 170.646 38.6337 170.724 38.5554C170.802 38.477 170.881 38.3987 170.881 38.3203C170.881 38.2419 170.881 38.2419 170.881 38.1636C170.881 38.0852 170.881 38.0852 170.802 38.0068L162.505 17.3969C162.427 17.2402 162.348 17.0835 162.192 17.0051C162.035 16.9268 161.879 16.8484 161.722 16.8484H159.296C159.139 16.8484 158.982 16.9268 158.904 17.0051C158.748 17.0835 158.669 17.2402 158.591 17.3969L150.294 38.0068C150.294 38.0852 150.215 38.0852 150.215 38.1636C150.215 38.2419 150.215 38.2419 150.215 38.3203C150.215 38.477 150.294 38.5554 150.294 38.5554C150.372 38.6337 150.528 38.6337 150.685 38.6337H153.894Z" fill="white"/>
<path d="M126.184 48.6645L129.315 40.3578L132.368 48.6645H126.184ZM122.662 56.5793C122.818 56.5793 122.975 56.5793 123.131 56.4225C123.209 56.3442 123.366 56.1874 123.444 56.0307L124.853 52.5043H133.855L135.264 56.0307C135.343 56.1874 135.421 56.3442 135.499 56.4225C135.656 56.5009 135.734 56.5793 135.969 56.5793H139.178C139.335 56.5793 139.413 56.5793 139.491 56.5009C139.57 56.4225 139.648 56.3442 139.648 56.2658C139.648 56.1875 139.648 56.1874 139.648 56.1091C139.648 56.0307 139.648 56.0307 139.57 55.9524L131.272 35.3425C131.194 35.1858 131.116 35.029 130.959 34.9507C130.802 34.8723 130.646 34.7939 130.489 34.7939H128.063C127.906 34.7939 127.75 34.8723 127.671 34.9507C127.515 35.029 127.437 35.1858 127.358 35.3425L119.061 55.9524C119.061 56.0307 118.982 56.0307 118.982 56.1091C118.982 56.1874 118.982 56.1875 118.982 56.2658C118.982 56.3442 118.982 56.5009 119.061 56.5009C119.139 56.5793 119.296 56.5793 119.452 56.5793H122.662Z" fill="#E5134A"/>
<path d="M168.845 48.6645L171.977 40.3578L175.029 48.6645H168.845ZM165.401 56.5793C165.558 56.5793 165.714 56.5793 165.871 56.4225C166.027 56.3442 166.106 56.1874 166.184 56.0307L167.593 52.5043H176.517L177.926 56.0307C178.004 56.1874 178.082 56.3442 178.16 56.4225C178.317 56.5009 178.395 56.5793 178.63 56.5793H181.84C181.996 56.5793 182.074 56.5793 182.153 56.5009C182.231 56.4225 182.309 56.3442 182.309 56.2658C182.309 56.1875 182.309 56.1874 182.309 56.1091C182.309 56.0307 182.309 56.0307 182.231 55.9524L173.933 35.3425C173.855 35.1858 173.777 35.029 173.62 34.9507C173.464 34.8723 173.307 34.7939 173.151 34.7939H170.724C170.567 34.7939 170.411 34.8723 170.333 34.9507C170.176 35.029 170.098 35.1858 170.02 35.3425L161.722 55.9524C161.722 56.0307 161.644 56.0307 161.644 56.1091C161.644 56.1874 161.644 56.1875 161.644 56.2658C161.644 56.3442 161.722 56.5009 161.722 56.5009C161.8 56.5793 161.957 56.5793 162.113 56.5793H165.401Z" fill="#E5134A"/>
<path d="M193.346 56.8141C194.599 56.8141 195.773 56.6574 196.791 56.2656C197.808 55.8738 198.826 55.4036 199.687 54.7767C199.765 54.6983 199.843 54.6199 199.922 54.5416C200 54.4632 200 54.3848 200 54.3065C200 54.2281 200 54.2281 199.922 54.1497C199.922 54.0714 199.843 53.993 199.765 53.993L198.278 51.4853C198.2 51.3286 198.043 51.2503 197.886 51.2503C197.808 51.2503 197.73 51.2502 197.652 51.3286C197.573 51.407 197.495 51.407 197.339 51.4853C196.791 51.8772 196.164 52.269 195.46 52.5041C194.755 52.7392 193.973 52.8959 193.268 52.8959C192.329 52.8959 191.389 52.7392 190.528 52.3474C189.667 51.9555 188.963 51.4853 188.337 50.7801C187.71 50.0748 187.241 49.2911 186.849 48.4291C186.536 47.5671 186.301 46.6267 186.301 45.608C186.301 44.5892 186.458 43.7272 186.849 42.8652C187.162 42.0032 187.71 41.2196 188.337 40.5927C188.963 39.9657 189.667 39.4172 190.528 39.1037C191.389 38.7119 192.25 38.5552 193.268 38.5552C193.659 38.5552 194.051 38.5552 194.364 38.6335C194.755 38.7119 195.068 38.7903 195.46 38.8686C195.773 38.947 196.086 39.1037 196.399 39.2604C196.712 39.4172 197.104 39.6523 197.495 39.8874C197.573 39.9657 197.652 39.9657 197.73 40.0441C197.808 40.0441 197.886 40.1225 197.965 40.1225C198.043 40.1225 198.121 40.1225 198.2 40.0441C198.278 40.0441 198.278 39.9657 198.356 39.8874L199.922 37.223C199.922 37.223 199.922 37.1446 200 37.0662C200 36.9879 200 36.9879 200 36.9095C200 36.8311 200 36.7528 199.922 36.6744C199.843 36.5961 199.843 36.5177 199.765 36.4393C198.904 35.8124 197.886 35.2639 196.869 34.9504C195.851 34.6369 194.677 34.4019 193.346 34.4019C192.329 34.4019 191.311 34.5586 190.372 34.7937C189.432 35.0288 188.493 35.4206 187.632 35.8908C186.771 36.361 186.067 36.9095 185.362 37.6148C184.657 38.3201 184.11 39.0254 183.562 39.8874C183.092 40.7494 182.701 41.6114 182.387 42.6301C182.153 43.5705 181.996 44.5892 181.996 45.608C181.996 46.6267 182.153 47.6455 182.387 48.5858C182.622 49.5262 183.014 50.4666 183.562 51.3286C184.031 52.1906 184.657 52.8959 185.362 53.6012C186.067 54.3065 186.849 54.855 187.632 55.3252C188.493 55.7954 189.354 56.1872 190.372 56.5007C191.389 56.7358 192.329 56.8141 193.346 56.8141Z" fill="#E5134A"/>
<path d="M90.2544 38.6337C90.411 38.6337 90.4893 38.6337 90.5675 38.5553C90.6458 38.5553 90.7241 38.477 90.8024 38.3986C90.8806 38.3202 90.9589 38.2419 91.0372 38.0852L101.213 23.3526V37.9284C101.213 38.1635 101.213 38.3202 101.37 38.3986C101.448 38.477 101.683 38.5553 101.839 38.5553H104.814C105.049 38.5553 105.205 38.477 105.284 38.3986C105.362 38.3202 105.44 38.0852 105.44 37.9284V17.3969C105.44 17.2402 105.362 17.0835 105.284 16.9267C105.205 16.77 105.049 16.77 104.814 16.77H101.37C101.213 16.77 101.057 16.8484 100.9 16.9267C100.744 17.0051 100.587 17.0835 100.509 17.2402L90.8806 31.1107V17.2402C90.8023 17.0835 90.7241 17.0051 90.6458 16.9267C90.4892 16.8484 90.411 16.8484 90.2544 16.8484H87.2799C87.2016 16.8484 87.045 16.8484 86.9667 16.9267C86.8885 17.0051 86.7319 17.0835 86.7319 17.1618C86.6536 17.2402 86.6536 17.3969 86.6536 17.4753V38.0068C86.6536 38.2419 86.7319 38.3986 86.8102 38.477C86.9668 38.5553 87.1233 38.6337 87.3581 38.6337H90.2544Z" fill="white"/>
<path d="M102.388 52.5827C103.17 50.937 103.797 49.213 104.188 47.489C104.658 45.765 104.892 43.9626 104.971 42.1602C105.049 40.9064 105.127 39.7309 105.127 38.5554H110.372V52.5043H102.388V52.5827ZM99.0999 60.6543C99.2564 60.6543 99.413 60.5759 99.4913 60.5759C99.5696 60.4975 99.6479 60.4192 99.6479 60.2624V56.5793H113.112V60.2624C113.112 60.4192 113.19 60.4975 113.268 60.6543C113.347 60.7326 113.503 60.811 113.66 60.811H116.556C116.712 60.811 116.869 60.7326 116.947 60.6543C117.026 60.5759 117.104 60.4192 117.104 60.2624V53.2096C117.104 53.0529 117.026 52.8962 116.947 52.8178C116.869 52.7394 116.712 52.6611 116.556 52.6611H114.677V35.2641C114.677 35.1074 114.599 35.029 114.521 34.9507C114.442 34.8723 114.286 34.7939 114.129 34.7939H101.918C101.761 34.7939 101.605 34.8723 101.527 34.9507C101.448 35.029 101.37 35.1858 101.37 35.3425C101.37 35.9694 101.37 36.4396 101.37 36.9098C101.37 37.38 101.37 37.6934 101.37 38.0069L101.292 40.5145C101.292 41.4549 101.213 42.3169 101.135 43.1006C101.057 43.8842 100.979 44.6679 100.822 45.3732C100.665 46.0784 100.587 46.7054 100.352 47.3323C100.196 47.9592 99.961 48.5861 99.7262 49.1347C99.4913 49.7616 99.2565 50.3101 98.9434 50.937C98.6303 51.5639 98.3171 52.1125 97.9257 52.7394H96.4385C96.2819 52.7394 96.1254 52.8178 96.0471 52.8961C95.9688 52.9745 95.8905 53.1312 95.8905 53.3663V60.4191C95.8905 60.7326 96.0471 60.8893 96.3602 60.8893H99.0999V60.6543Z" fill="#E5134A"/>
<path d="M129.158 38.8689C130.098 38.8689 131.037 38.7121 131.82 38.3203C132.603 38.0069 133.307 37.4583 133.933 36.9097C134.325 36.5179 134.638 36.0477 134.873 35.5776C135.108 35.1074 135.342 34.6372 135.499 34.0886C135.655 33.5401 135.734 33.0699 135.734 32.5213V20.7666H143.875V38.0068C143.875 38.2419 143.953 38.3203 144.031 38.477C144.109 38.5554 144.266 38.6338 144.423 38.6338H147.71C147.867 38.6338 147.945 38.5554 148.102 38.477C148.18 38.3987 148.258 38.2419 148.258 38.0852V17.3969C148.258 17.2402 148.18 17.0835 148.102 17.0051C147.945 16.9268 147.789 16.8484 147.632 16.8484H132.368C132.055 16.8484 131.82 16.9268 131.742 17.0835C131.585 17.2402 131.507 17.4753 131.507 17.7888V32.5997C131.507 32.9131 131.428 33.2266 131.35 33.4617C131.272 33.6968 131.115 33.9319 130.881 34.167C130.646 34.4021 130.411 34.5588 130.176 34.6372C129.941 34.7155 129.628 34.7939 129.315 34.7939C129.158 34.7939 129.002 34.8723 128.924 34.9506C128.845 35.029 128.767 35.1073 128.767 35.2641V38.2419C128.767 38.477 128.845 38.6338 128.924 38.7121C128.845 38.7905 128.924 38.8689 129.158 38.8689Z" fill="white"/>
<path d="M145.597 56.5793C145.753 56.5793 145.91 56.5009 146.066 56.4226C146.223 56.3442 146.223 56.1875 146.223 55.9524V38.5554H154.912V55.874C154.912 56.0307 154.99 56.1875 155.068 56.3442C155.225 56.4226 155.382 56.5009 155.538 56.5009H158.434C158.669 56.5009 158.826 56.4226 158.904 56.3442C158.982 56.2658 159.061 56.1091 159.061 55.874V35.2641C159.061 35.1074 158.982 34.9507 158.904 34.8723C158.826 34.7939 158.669 34.7156 158.513 34.7156H142.622C142.466 34.7156 142.309 34.7939 142.231 34.8723C142.153 34.9507 142.074 35.1074 142.074 35.3425V55.9524C142.074 56.1091 142.153 56.2658 142.231 56.4226C142.387 56.5009 142.466 56.5793 142.701 56.5793H145.597Z" fill="#E5134A"/>
<path d="M119.609 38.9472C120.861 38.9472 122.035 38.7904 123.053 38.3986C124.071 38.0068 125.088 37.5366 125.949 36.9097C126.028 36.8313 126.184 36.753 126.184 36.6746C126.262 36.5962 126.262 36.5179 126.262 36.4395C126.262 36.3611 126.262 36.3612 126.184 36.2828C126.184 36.2044 126.106 36.126 126.028 36.126L124.54 33.6184C124.462 33.4617 124.305 33.3833 124.149 33.3833C124.071 33.3833 123.992 33.3833 123.914 33.4617C123.836 33.54 123.757 33.54 123.601 33.6184C123.053 34.0102 122.427 34.402 121.722 34.6371C121.018 34.8722 120.235 35.0289 119.53 35.0289C118.591 35.0289 117.652 34.8722 116.791 34.4804C115.93 34.0886 115.225 33.6184 114.599 32.9131C113.973 32.2078 113.503 31.4242 113.112 30.5622C112.799 29.7002 112.564 28.7598 112.564 27.7411C112.564 26.7223 112.72 25.8603 113.112 24.9983C113.425 24.1363 113.973 23.3526 114.599 22.7257C115.225 22.0988 115.93 21.5502 116.791 21.2368C117.652 20.845 118.513 20.6882 119.53 20.6882C119.922 20.6882 120.313 20.6882 120.626 20.7666C121.018 20.845 121.331 20.9233 121.722 21.0017C122.035 21.0801 122.348 21.2368 122.662 21.3935C122.975 21.5503 123.366 21.7853 123.757 22.0204C123.836 22.0988 123.914 22.0988 123.992 22.0988C124.071 22.0988 124.149 22.1772 124.227 22.1772C124.305 22.1772 124.384 22.1772 124.462 22.0988C124.54 22.0988 124.54 22.0204 124.619 21.9421L126.184 19.2777C126.184 19.2777 126.262 19.1993 126.262 19.121C126.262 19.0426 126.262 19.0426 126.262 18.9642C126.262 18.8859 126.262 18.8075 126.184 18.7291C126.106 18.6508 126.106 18.5724 126.028 18.494C125.166 17.8671 124.149 17.3186 123.131 17.0051C122.114 16.6916 120.939 16.4565 119.609 16.4565C118.591 16.4565 117.574 16.6133 116.634 16.8484C115.695 17.0835 114.756 17.4753 113.894 17.9455C113.033 18.4157 112.329 18.9642 111.624 19.6695C110.92 20.3748 110.372 21.0801 109.824 21.9421C109.354 22.8041 108.963 23.6661 108.65 24.6848C108.415 25.6252 108.258 26.6439 108.258 27.6627C108.258 28.6814 108.415 29.7002 108.65 30.6405C108.885 31.5809 109.276 32.5213 109.824 33.3833C110.294 34.2453 110.92 34.9506 111.624 35.6559C112.329 36.3611 113.112 36.9097 113.894 37.3799C114.756 37.8501 115.617 38.2419 116.634 38.5554C117.574 38.8688 118.591 38.9472 119.609 38.9472Z" fill="white"/>
<path d="M94.8351 74.0963C94.5116 74.0963 94.2958 73.9854 94.0801 73.8745C93.8644 73.7636 93.6487 73.5419 93.5408 73.3201C93.433 73.0984 93.3251 72.7657 93.3251 72.544C93.3251 72.3222 93.3251 72.1004 93.433 71.8787C93.5408 71.6569 93.6487 71.546 93.7565 71.3243C93.8644 71.2134 94.0801 71.1025 94.2958 70.9917C94.5115 70.8808 94.7273 70.8808 94.943 70.8808C95.1587 70.8808 95.2666 70.8808 95.4823 70.9917C95.698 70.9917 95.8059 71.1025 96.0216 71.2134V73.5419C95.9137 73.6527 95.8059 73.7636 95.698 73.8745C95.5901 73.9854 95.3744 73.9854 95.2666 74.0963C95.1587 74.0963 94.943 74.0963 94.8351 74.0963ZM96.0216 75.3159H97.4238C97.7473 75.3159 98.0709 75.2051 98.3945 75.0942C98.7181 74.9833 98.9338 74.7616 99.1495 74.5398C99.3652 74.318 99.5809 74.0963 99.6888 73.7636C99.7966 73.431 99.9045 73.2093 100.012 72.8766C100.12 72.544 100.12 72.2113 100.12 71.8787C100.12 71.3243 100.012 70.7699 99.9045 70.2155C99.6888 69.772 99.4731 69.2176 99.1495 68.885C98.8259 68.4414 98.5023 68.1088 98.0709 67.8871C97.6395 67.5544 97.208 67.4435 96.6687 67.2218C96.1294 67.1109 95.5902 67 95.0509 67C94.4037 67 93.8644 67.1109 93.3251 67.2218C92.7858 67.4435 92.2465 67.6653 91.8151 67.9979C91.3837 68.3305 90.9522 68.6632 90.6286 69.2176C90.3051 69.6611 90.0893 70.2155 89.8736 70.659C89.6579 71.2134 89.6579 71.7678 89.6579 72.4331C89.6579 73.0983 89.7658 73.6527 89.8736 74.2071C90.0893 74.7615 90.3051 75.3159 90.6286 75.7594C90.9522 76.203 91.3837 76.6465 91.8151 76.8682C92.2465 77.2009 92.7858 77.4226 93.3251 77.6444C93.8644 77.8662 94.5116 77.8662 95.0509 77.8662C95.2666 77.8662 95.4823 77.8662 95.698 77.8662C95.9137 77.8662 96.1294 77.7553 96.3452 77.7553L96.2373 76.4247C95.8059 76.5356 95.3744 76.5356 94.943 76.5356C94.5116 76.5356 94.0801 76.4247 93.6487 76.3138C93.2173 76.203 92.8937 75.9812 92.5701 75.7594C92.2465 75.5377 91.9229 75.2051 91.7072 74.8724C91.4915 74.5398 91.2758 74.2072 91.1679 73.7636C91.0601 73.3201 90.9522 72.8766 90.9522 72.4331C90.9522 71.8787 91.0601 71.4352 91.1679 70.9917C91.2758 70.5481 91.4915 70.2155 91.7072 69.8829C91.9229 69.5502 92.2465 69.2176 92.5701 68.9958C92.8937 68.7741 93.3251 68.5523 93.6487 68.4414C94.0801 68.3306 94.5116 68.2197 94.943 68.2197C95.5901 68.2197 96.1294 68.3305 96.5609 68.5523C96.9923 68.7741 97.4238 68.9958 97.7473 69.3285C98.0709 69.6611 98.2866 69.9937 98.5023 70.4373C98.7181 70.8808 98.7181 71.3243 98.7181 71.7678C98.7181 72.2113 98.6102 72.544 98.6102 72.8766C98.5023 73.2093 98.3945 73.431 98.1788 73.5419C97.963 73.6527 97.8552 73.7636 97.5316 73.7636H97.3159V70.1046C97.1002 69.9938 96.8845 69.8829 96.6687 69.772C96.453 69.6611 96.1294 69.5502 95.8059 69.5502C95.4823 69.4394 95.1587 69.4394 94.943 69.4394C94.5116 69.4394 94.0801 69.5502 93.6487 69.6611C93.3251 69.772 92.8937 69.9937 92.6779 70.3264C92.3544 70.5481 92.1387 70.8808 92.0308 71.2134C91.9229 71.5461 91.8151 71.9896 91.8151 72.3222C91.8151 72.7657 91.9229 73.2092 92.0308 73.5419C92.1387 73.8745 92.3544 74.2072 92.5701 74.4289C92.7858 74.6507 93.1094 74.8724 93.433 74.9833C93.7566 75.0942 94.0801 75.2051 94.5116 75.2051C94.8351 75.2051 95.0508 75.2051 95.3744 75.0942C95.5901 74.9833 95.8059 74.8724 96.0216 74.6507V75.3159Z" fill="#E5134A"/>
<path d="M76.6937 76.357H75.2146L74.6302 74.6282H71.0755L70.491 76.357H69L72.0298 67.7744H73.6759L76.6937 76.357ZM72.8528 69.4296L71.5288 73.3041H74.1769L72.8528 69.4296Z" fill="white"/>
<path d="M83.5338 71.9554L87.0288 76.357H85.3946L82.1024 72.2741V76.357H80.7306V67.7744H82.1024V71.6243L85.2753 67.7744H86.9095L83.5338 71.9554Z" fill="white"/>
<path d="M109.561 67.7744V75.0083H110.456V78H109.084V76.357H104.015V78H102.643V75.0083H103.418C103.903 74.3626 104.146 73.3776 104.146 72.0534V67.7744H109.561ZM104.921 75.0083H108.19V69.0986H105.518V72.078C105.518 73.3531 105.319 74.3299 104.921 75.0083Z" fill="white"/>
<path d="M116.162 72.691V75.0083H119.86V76.357H114.79V67.7744H119.8V69.1231H116.162V71.3546H119.502V72.691H116.162Z" fill="white"/>
<path d="M130.779 67.7744H132.246V76.357H130.875V70.2388L128.334 74.5547H128.167L125.626 70.2266V76.357H124.255V67.7744H125.734L128.251 72.0657L130.779 67.7744Z" fill="white"/>
<path d="M143.432 76.357H142.06V70.5331L138.124 76.357H137.05V67.7744H138.422V73.5983L142.358 67.7744H143.432V76.357Z" fill="white"/>
<path d="M150.66 67.7744H154V76.357H152.628V73.2305H151.304L149.288 76.357H147.738L149.861 73.1079C149.304 72.9362 148.851 72.6134 148.501 72.1393C148.151 71.657 147.976 71.1216 147.976 70.5331C147.976 69.7647 148.235 69.1149 148.752 68.5836C149.276 68.0441 149.913 67.7744 150.66 67.7744ZM150.66 71.9676H152.628V69.0986H150.66C150.294 69.0986 149.984 69.2375 149.73 69.5154C149.475 69.7933 149.348 70.1326 149.348 70.5331C149.348 70.9336 149.475 71.2728 149.73 71.5507C149.984 71.8287 150.294 71.9676 150.66 71.9676Z" fill="white"/>
</svg>
