<svg width="18" height="18" fill="none" xmlns="http://www.w3.org/2000/svg"><path fill-rule="evenodd" clip-rule="evenodd" d="M4.8 0H6v3.6H4.8V0ZM18 4.8a3.6 3.6 0 0 0-3.6-3.6v1.2a2.4 2.4 0 0 1 2.4 2.4H1.2a2.4 2.4 0 0 1 2.4-2.4V1.2A3.6 3.6 0 0 0 0 4.8v9.6A3.6 3.6 0 0 0 3.6 18h10.8a3.6 3.6 0 0 0 3.6-3.6V4.8ZM7.2 2.4h3.6V1.2H7.2v1.2Zm6-2.4H12v3.6h1.2V0Z" fill="#FFA200"/><path fill-rule="evenodd" clip-rule="evenodd" d="M2 9a2 2 0 1 1 4 0 2 2 0 0 1-4 0Zm5 0a2 2 0 1 1 4 0 2 2 0 0 1-4 0Zm-3 3a2 2 0 1 0 0 4 2 2 0 0 0 0-4Zm3 2a2 2 0 1 1 4 0 2 2 0 0 1-4 0Zm7-7a2 2 0 1 0 0 4 2 2 0 0 0 0-4Z" fill="#fff"/></svg>