<svg width="160" height="85" viewBox="0 0 160 85" fill="none" xmlns="http://www.w3.org/2000/svg">
<g clip-path="url(#clip0_765_101)">
<rect x="-2.35485" y="25.1588" width="158" height="58" rx="29" transform="rotate(-10 -2.35485 25.1588)" fill="#E20613" stroke="white" stroke-width="2"/>
<path d="M24.051 39.3673L21.1599 39.4415C21.6738 37.5644 23.3347 36.3783 26.1427 35.8831C28.8995 35.397 30.4074 35.888 30.6662 37.356C30.7535 37.8511 30.6568 38.3257 30.3761 38.78C30.0939 39.2258 29.6704 39.5689 29.1055 39.8093C29.5277 39.8581 29.8849 40.0371 30.1771 40.3464C30.4762 40.6457 30.6604 40.9916 30.7297 41.3842C30.826 41.9304 30.7966 42.4373 30.6414 42.9046C30.4847 43.3635 30.2411 43.754 29.9107 44.0763C29.5889 44.3971 29.1869 44.688 28.7049 44.949C28.2214 45.2014 27.7332 45.4019 27.2401 45.5504C26.7486 45.7075 26.2212 45.8357 25.6579 45.935C24.8214 46.0825 24.0917 46.1364 23.4687 46.0967C22.8471 46.0654 22.3567 45.9539 21.9972 45.7621C21.6448 45.5602 21.3755 45.3305 21.1893 45.0729C21.0031 44.8153 20.8798 44.5158 20.8196 44.1744C20.7941 44.0294 20.7805 43.8777 20.779 43.7196L23.8848 43.0664C24.0047 43.3972 24.1957 43.632 24.4578 43.7706C24.7183 43.9006 25.1516 43.9122 25.7576 43.8054C27.0549 43.5766 27.6381 43.091 27.5072 42.3484C27.471 42.1436 27.3491 41.9759 27.1412 41.8453C26.9419 41.7133 26.6673 41.6781 26.3174 41.7398L23.9233 42.1619L24.023 40.0323L26.5323 39.5898C27.2407 39.4649 27.5415 39.0994 27.4346 38.4935C27.3955 38.2715 27.263 38.1189 27.0371 38.0355C26.8097 37.9436 26.4186 37.9466 25.8638 38.0444C25.4541 38.1166 25.1218 38.2281 24.8667 38.3786C24.6101 38.5207 24.4326 38.662 24.3342 38.8025C24.2358 38.9431 24.1414 39.1314 24.051 39.3673Z" fill="white"/>
<path d="M42.6193 42.6143L39.329 43.1944L38.9075 41.7771L35.2716 42.4182L34.6945 44.0116L31.1482 44.6369L35.6485 34.5238L39.4508 33.8534L42.6193 42.6143ZM38.3226 39.8077L37.3719 36.662L36.0822 40.2028L38.3226 39.8077Z" fill="white"/>
<path d="M52.1059 31.622L51.9873 34.019L47.1096 34.879L46.7863 41.8795L43.5472 42.4507L43.9763 33.0554L52.1059 31.622Z" fill="white"/>
<path d="M53.0674 31.4524L59.1101 30.3869C60.1343 30.2063 60.9765 30.291 61.6367 30.641C62.3038 30.981 62.7074 31.5479 62.8474 32.3416C62.9271 32.794 62.9115 33.2544 62.8005 33.7228C62.6965 34.1811 62.5072 34.5797 62.2325 34.9186C61.6621 35.6264 60.7367 36.0931 59.4565 36.3189L55.9614 36.9352L55.7749 40.2946L52.5743 40.8589L53.0674 31.4524ZM56.1766 32.9899L56.0807 34.8416L58.5004 34.415C58.893 34.3458 59.203 34.2075 59.4305 34.0002C59.6649 33.7828 59.7498 33.4907 59.6851 33.1236C59.646 32.9017 59.5476 32.7431 59.39 32.6477C59.2108 32.5297 58.9291 32.5045 58.545 32.5722L56.1766 32.9899Z" fill="white"/>
<path d="M67.1757 28.9647L70.195 32.5377L71.8614 28.1385L75.3821 27.5177L71.5487 35.3484C71.0329 36.2665 70.4874 36.9656 69.912 37.4454C69.3436 37.9153 68.6113 38.2292 67.7151 38.3872C66.8787 38.5347 66.2546 38.5391 65.843 38.4005L65.951 36.0186C66.4395 36.1436 66.8928 36.1693 67.311 36.0956C67.8061 36.0083 68.16 35.7699 68.373 35.3803L63.2326 29.66L67.1757 28.9647Z" fill="white"/>
<path d="M78.9617 29.6851L76.0707 29.7592C76.5845 27.8821 78.2454 26.696 81.0535 26.2009C83.8103 25.7148 85.3181 26.2058 85.577 27.6738C85.6642 28.1688 85.5675 28.6435 85.2868 29.0978C85.0046 29.5436 84.5811 29.8867 84.0162 30.1271C84.4385 30.1758 84.7956 30.3548 85.0878 30.6641C85.387 30.9634 85.5712 31.3093 85.6404 31.702C85.7367 32.2482 85.7073 32.755 85.5521 33.2224C85.3954 33.6812 85.1518 34.0718 84.8214 34.3941C84.4996 34.7148 84.0977 35.0057 83.6157 35.2667C83.1321 35.5192 82.6439 35.7197 82.1508 35.8682C81.6593 36.0253 81.1319 36.1535 80.5686 36.2528C79.7322 36.4003 79.0024 36.4542 78.3794 36.4144C77.7579 36.3832 77.2674 36.2717 76.9079 36.0798C76.5555 35.878 76.2862 35.6482 76.1 35.3907C75.9138 35.1331 75.7906 34.8336 75.7304 34.4922C75.7048 34.3471 75.6912 34.1955 75.6898 34.0373L78.7955 33.3841C78.9155 33.715 79.1065 33.9497 79.3685 34.0883C79.629 34.2184 80.0623 34.23 80.6683 34.1231C81.9656 33.8944 82.5488 33.4087 82.4179 32.6662C82.3818 32.4614 82.2598 32.2937 82.052 32.1631C81.8527 32.031 81.5781 31.9958 81.2281 32.0575L78.834 32.4797L78.9338 30.35L81.443 29.9076C82.1514 29.7826 82.4522 29.4172 82.3454 28.8112C82.3062 28.5893 82.1737 28.4367 81.9478 28.3533C81.7204 28.2614 81.3293 28.2643 80.7745 28.3622C80.3649 28.4344 80.0325 28.5458 79.7774 28.6964C79.5209 28.8384 79.3434 28.9797 79.2449 29.1203C79.1465 29.2609 79.0521 29.4491 78.9617 29.6851Z" fill="white"/>
<path d="M86.9807 34.7922L87.4098 25.3969L90.6616 24.8235L90.429 29.8676L95.0022 25.2594L95.0657 24.047L98.3175 23.4736L97.8757 32.8711L94.6238 33.4445L94.8587 28.4133L90.2726 33.0237L90.2198 34.221L86.9807 34.7922Z" fill="white"/>
<path d="M114.359 20.645L113.917 30.0425L110.665 30.6159L110.824 27.2482C110.043 27.5619 109.188 27.8007 108.257 27.9648C105.885 28.3832 104.567 27.8455 104.303 26.3519C104.258 26.0959 104.244 25.8388 104.26 25.5808L104.411 22.3991L107.663 21.8257L107.552 24.2611C107.54 24.4478 107.552 24.6394 107.587 24.8357C107.716 25.5697 108.259 25.8524 109.215 25.6839C109.829 25.5755 110.399 25.3871 110.924 25.1185L111.107 21.2184L114.359 20.645Z" fill="white"/>
<path d="M125.475 18.685L125.364 20.7506L119.245 21.8297L119.165 23.4013L125.003 22.3719L124.895 24.4504L119.057 25.4798L118.962 27.0409L125.53 25.8828L125.417 28.0147L115.662 29.7349L116.155 20.3284L125.475 18.685Z" fill="white"/>
<path d="M126.993 18.4174L130.244 17.844L130.083 21.1989L131.428 20.9619C131.684 20.9168 131.9 20.8435 132.075 20.7421C132.26 20.6392 132.41 20.4939 132.527 20.3061C132.652 20.1169 132.742 19.9557 132.798 19.8227C132.861 19.6796 132.934 19.473 133.018 19.203C133.11 18.9228 133.18 18.7213 133.229 18.5983C133.462 17.9763 133.718 17.5044 133.995 17.1826L137.555 16.555C136.995 17.2257 136.575 18.0126 136.294 18.9157C135.963 20.083 135.463 20.8621 134.792 21.2531C135.074 21.3003 135.315 21.3942 135.515 21.5348C135.716 21.6754 135.877 21.8627 135.997 22.0967C136.126 22.3291 136.226 22.5448 136.296 22.7436C136.366 22.9424 136.431 23.1862 136.491 23.4749L136.554 23.8333C136.606 24.0793 136.651 24.2563 136.687 24.3643C136.723 24.4637 136.777 24.6213 136.85 24.8372C136.922 25.0446 137.013 25.2354 137.123 25.4096C137.231 25.5753 137.356 25.7337 137.497 25.8848L133.938 26.5124C133.659 26.2799 133.46 25.8223 133.339 25.1394L133.226 24.4993C133.133 23.9702 132.979 23.5705 132.764 23.3004C132.549 23.0302 132.186 22.9403 131.674 23.0306L129.984 23.3286L129.802 27.2415L126.563 27.8127L126.993 18.4174Z" fill="white"/>
<path d="M56.5574 51.9132L53.6663 51.9874C54.1802 50.1103 55.8411 48.9242 58.6491 48.4291C61.4059 47.943 62.9138 48.4339 63.1726 49.9019C63.2599 50.397 63.1632 50.8716 62.8825 51.326C62.6003 51.7717 62.1768 52.1148 61.6119 52.3552C62.0341 52.404 62.3913 52.583 62.6835 52.8923C62.9827 53.1916 63.1669 53.5375 63.2361 53.9301C63.3324 54.4764 63.303 54.9832 63.1478 55.4506C62.9911 55.9094 62.7475 56.3 62.4171 56.6222C62.0953 56.943 61.6933 57.2339 61.2113 57.4949C60.7278 57.7473 60.2396 57.9478 59.7465 58.0964C59.255 58.2534 58.7276 58.3816 58.1643 58.481C57.3278 58.6285 56.5981 58.6823 55.9751 58.6426C55.3536 58.6114 54.8631 58.4998 54.5036 58.308C54.1512 58.1061 53.8819 57.8764 53.6957 57.6188C53.5095 57.3613 53.3862 57.0618 53.326 56.7204C53.3005 56.5753 53.2869 56.4237 53.2854 56.2655L56.3912 55.6123C56.5111 55.9431 56.7021 56.1779 56.9642 56.3165C57.2247 56.4465 57.658 56.4582 58.264 56.3513C59.5613 56.1226 60.1445 55.6369 60.0136 54.8944C59.9774 54.6895 59.8555 54.5218 59.6476 54.3913C59.4483 54.2592 59.1737 54.224 58.8238 54.2857L56.4297 54.7078L56.5294 52.5782L59.0387 52.1357C59.7471 52.0108 60.0479 51.6454 59.9411 51.0394C59.9019 50.8175 59.7694 50.6648 59.5435 50.5815C59.3161 50.4896 58.925 50.4925 58.3702 50.5903C57.9605 50.6626 57.6282 50.774 57.3731 50.9246C57.1165 51.0666 56.939 51.2079 56.8406 51.3485C56.7422 51.489 56.6478 51.6773 56.5574 51.9132Z" fill="white"/>
<path d="M76.0924 45.6702L75.7503 52.938L77.197 52.6829L77.0006 56.8097L73.9152 57.3537L74.0118 55.3566L67.1369 56.5688L67.0402 58.566L63.9676 59.1077L64.164 54.981C64.9492 54.8425 65.5048 54.3001 65.8308 53.3538C66.1552 52.399 66.3726 50.8118 66.4828 48.5922L66.5418 47.3542L76.0924 45.6702ZM69.5147 48.9421L69.4754 49.7674C69.4386 50.5572 69.3745 51.2417 69.2831 51.821C69.1986 52.3903 69.0924 52.8359 68.9643 53.1577C68.8433 53.4694 68.7456 53.6891 68.6713 53.8166C68.597 53.9441 68.5048 54.0703 68.3949 54.1953L68.3504 54.2428L72.4984 53.5114L72.7409 48.3732L69.5147 48.9421Z" fill="white"/>
<path d="M87.7804 43.6092L87.6694 45.6749L81.5498 46.754L81.4705 48.3256L87.3085 47.2962L87.1997 49.3747L81.3618 50.4041L81.2674 51.9652L87.8351 50.8071L87.7226 52.939L77.9671 54.6592L78.4602 45.2527L87.7804 43.6092Z" fill="white"/>
<path d="M99.4979 44.3681L96.6692 45.1704C96.5533 44.8125 96.3134 44.5248 95.9494 44.3073C95.5925 44.0798 95.1111 44.0195 94.5051 44.1264C93.9162 44.2302 93.4116 44.438 92.9913 44.7497C92.5088 45.1076 92.1698 45.581 91.9745 46.1699C91.7791 46.7587 91.7363 47.3647 91.8462 47.9877C91.9726 48.7047 92.276 49.2276 92.7564 49.5565C93.2454 49.8839 93.8526 49.9837 94.5781 49.8557C95.2182 49.7429 95.7311 49.5072 96.1167 49.1488C96.5008 48.7819 96.7321 48.3715 96.8104 47.9177L99.7218 47.7343C99.6535 48.1952 99.5016 48.6312 99.266 49.0423C98.9185 49.6668 98.3677 50.2612 97.6136 50.8254C96.8679 51.3881 95.8934 51.7755 94.69 51.9877C93 52.2857 91.6348 52.104 90.5941 51.4427C90.197 51.1871 89.8554 50.8469 89.5693 50.4221C89.2832 49.9973 89.094 49.6479 89.0017 49.3738C88.9179 49.0981 88.8534 48.8323 88.8082 48.5762C88.578 47.2704 88.845 46.0396 89.6093 44.884C90.5759 43.4287 92.1005 42.5175 94.183 42.1503C95.5913 41.902 96.7663 42.0028 97.7081 42.4527C98.6584 42.9012 99.255 43.5396 99.4979 44.3681Z" fill="white"/>
<path d="M101.037 41.2717L104.289 40.6983L104.146 43.8521L107.27 43.3013C108.345 43.1117 109.228 43.1761 109.917 43.4945C110.607 43.8129 111.02 44.3561 111.155 45.1243C111.575 47.5055 110.279 48.9618 107.266 49.493L100.608 50.6669L101.037 41.2717ZM104.046 45.9818L103.947 47.9661L106.738 47.474C107.703 47.3039 108.119 46.8476 107.988 46.1051C107.942 45.8405 107.813 45.6607 107.603 45.5658C107.4 45.4609 107.063 45.4498 106.594 45.5326L104.046 45.9818Z" fill="white"/>
<path fill-rule="evenodd" clip-rule="evenodd" d="M128.903 69.7823L123.196 68.5115C122.277 68.3067 121.61 69.3715 122.196 70.1095L132.794 83.457C133.597 84.469 135.135 84.4648 135.933 83.4485L146.424 70.0879C147.005 69.3474 146.334 68.287 145.416 68.4951L138.87 69.979C138.143 51.3424 129.747 42.1678 116.487 39C125.747 44.9709 129.702 55.1073 128.902 69.7822L128.903 69.7823Z" fill="white"/>
</g>
<defs>
<clipPath id="clip0_765_101">
<rect width="160" height="85" fill="white"/>
</clipPath>
</defs>
</svg>
