<svg width="272" height="154" viewBox="0 0 272 154" fill="none" xmlns="http://www.w3.org/2000/svg">
<g clip-path="url(#clip0_23_2990)">
<path d="M25.9094 37.1772C25.9094 37.1626 25.9094 37.1462 25.9202 37.1281H25.9094V37.1772Z" fill="#155B11"/>
<path d="M35.2838 22.7247C35.2832 22.7421 35.2802 22.7592 35.2747 22.7757C35.2747 22.7757 35.2747 22.7757 35.2838 22.7757V22.7247Z" fill="#155B11"/>
<path d="M34.544 0.792599C34.0946 0.59416 33.6126 0.479381 33.1218 0.453927C28.5227 0.453927 24.2045 0 19.3173 0C16.8178 0 14.3182 0.113482 11.8187 0.113482C11.7049 0.113482 11.7618 0 11.7049 0C9.65868 0 6.59023 0.226963 4.4889 0.792599C3.92001 1.92742 3.86312 3.28742 3.86312 4.59069C3.86312 4.81765 3.92001 5.09958 3.92001 5.32655C3.92001 6.29114 3.63557 7.19722 3.63557 7.98628C3.63557 8.09976 3.69246 8.04302 3.69246 8.26998C3.67564 8.65308 3.61601 9.03311 3.51468 9.40302C3.51468 9.45976 3.69246 9.40302 3.69246 9.58034C3.69246 10.8836 3.74935 12.1301 3.74935 13.3767C3.74935 14.7952 3.52179 16.2669 3.52179 17.6836C3.74935 17.6836 3.74935 19.5543 3.74935 20.1785C3.74935 21.0845 3.52179 21.9906 3.52179 22.8985C3.52179 23.1254 3.69957 23.0758 3.69957 23.4074C3.69957 23.8046 3.52179 23.918 3.52179 24.145C3.52179 24.5972 3.86312 25.3348 3.86312 26.1274C3.86312 27.7711 3.40979 29.6418 3.40979 29.9255C3.40979 30.7748 3.63557 31.5674 3.63557 32.4185C3.63557 33.9488 3.46668 35.479 3.46668 36.9525C3.45441 37.7327 3.53015 38.5119 3.69246 39.2753C4.56427 39.4904 5.46144 39.5858 6.35912 39.559C7.23759 39.5428 8.11281 39.4478 8.97424 39.2753C9.31379 39.2753 9.7689 39.3321 10.1102 39.3321C10.7342 39.3321 10.5636 39.1051 10.7342 39.1051C10.9049 39.1051 11.0756 39.2824 11.1893 39.2824C11.5781 39.2851 11.9532 39.1399 12.2382 38.8763C12.5233 38.6128 12.6969 38.2507 12.7236 37.8639C12.7236 37.5802 12.6098 37.8071 12.6098 37.3532C12.6098 37.1263 12.6667 36.7876 12.6667 36.6741C12.6098 36.4471 12.5529 36.3337 12.5529 36.2769C12.5529 36.3904 12.6667 34.8034 12.8373 34.8034C12.8373 34.5197 12.6098 34.4647 12.6098 34.0108C12.6128 33.5321 12.6472 33.0541 12.7129 32.5799C12.6525 32.4505 12.5458 31.4007 12.4391 31.3475C12.6169 31.2908 12.8942 30.1578 12.8942 28.0601C12.8942 27.154 12.8373 26.2462 12.8373 25.3401C12.8373 23.8099 13.0151 22.3364 13.0151 20.9196C13.0151 19.3894 12.8373 16.1587 12.6738 16.1587C12.6738 15.6498 13.0151 15.7066 13.0151 15.4796C13.0151 15.3023 12.8373 15.4796 12.8373 15.2527C12.8373 13.7224 12.7805 12.2489 12.7805 10.9971C12.7805 10.0343 13.1787 9.18493 14.4853 9.18493C14.6563 9.19367 14.8267 9.21202 14.9956 9.23989C15.1093 9.23989 14.9387 9.18493 15.3938 9.18493C16.4729 9.18493 17.7796 9.41012 19.0862 9.41012C20.2791 9.41012 21.4738 9.35338 22.6098 9.35338C24.5973 9.35338 26.1316 9.07144 26.1316 11.3943C26.1316 14.625 25.6213 16.891 25.6213 17.4585C25.6213 17.9673 25.7351 18.6997 25.7351 18.7617C25.6834 18.9086 25.6453 19.06 25.6213 19.2139C25.6213 20.4551 25.9058 21.2548 25.9058 21.9906C25.9058 22.558 25.728 22.8417 25.728 22.9552C25.728 23.1325 25.9058 23.1325 25.9058 23.2939C25.9058 23.6343 25.728 23.8613 25.728 24.0315C25.728 24.0883 25.9058 24.2088 25.9058 24.372C25.9133 24.3955 25.9112 24.421 25.8999 24.443C25.8885 24.4649 25.8689 24.4815 25.8454 24.489C25.8337 24.4927 25.8214 24.4941 25.8092 24.4931C25.797 24.4921 25.7851 24.4887 25.7742 24.4831C25.7522 24.4718 25.7356 24.4522 25.728 24.4287C25.7205 24.4285 25.713 24.4298 25.706 24.4325C25.6989 24.4353 25.6926 24.4395 25.6872 24.4448C25.6819 24.4501 25.6777 24.4565 25.675 24.4634C25.6722 24.4704 25.6709 24.4779 25.6711 24.4855C25.6711 25.1646 26.0676 26.4111 26.0676 27.2055C26.0676 27.9998 25.84 28.679 25.84 29.1879C25.84 29.5283 26.0676 29.6418 26.0676 30.039C26.0676 30.3209 25.8987 30.4344 25.8987 30.6046C25.8987 31.6242 26.2951 33.6651 26.2951 34.1757C26.0107 34.1757 26.0107 34.6279 26.0107 34.7981C26.0107 35.4223 26.2951 35.9311 26.2951 36.2166C26.0818 36.2166 25.968 36.8674 25.9094 37.1333C25.9751 37.2326 26.1351 38.0873 26.2951 38.0873C26.0676 38.3143 26.0107 38.4277 26.0107 38.5962C26.0107 39.504 26.9778 39.3338 27.4329 39.4473C27.6107 39.4473 27.5467 39.6246 27.6605 39.6246C28.7396 39.6246 30.2738 39.5679 30.6151 39.5679C30.9565 39.5679 31.8596 39.5111 32.4907 39.5111C34.0249 39.5111 35.4454 39.4544 35.4454 37.1298C35.4454 37.0181 35.3316 37.0181 35.2676 37.0181V34.002C35.2676 33.9452 35.4454 33.9452 35.4454 33.775C35.4454 33.6615 35.2178 33.0941 35.2178 32.5338C35.2178 31.8529 35.2747 31.5692 35.4454 31.5692C35.4454 31.1738 35.2676 30.6631 35.2676 30.2092C35.2676 29.984 35.3245 29.6436 35.3245 29.5868C35.3245 29.4733 35.0969 28.1683 35.0969 28.1683C35.0969 28.1213 35.1156 28.0762 35.149 28.0429C35.1823 28.0097 35.2275 27.991 35.2747 27.991C35.2747 26.2338 35.0969 24.9873 35.0969 23.5138C35.1034 23.2582 35.1583 23.0061 35.2587 22.7708C35.1965 22.7105 35.0329 21.9835 34.8694 21.9835C34.8694 21.7016 35.0969 21.5314 35.0969 21.4179C35.04 20.3416 34.6987 19.3203 34.6987 18.7582C34.6987 18.7014 34.9262 18.5809 34.9262 18.4177C34.8934 18.2141 34.8156 18.0204 34.6987 17.8503C34.7556 17.5684 35.04 17.5116 35.0969 17.2847C35.089 16.1485 35.1483 15.0129 35.2747 13.8838C35.2747 13.7065 35.4525 13.7703 35.4525 13.6568C35.4525 13.4795 35.2747 13.3731 35.2747 13.0912C35.2747 12.8092 35.4525 12.8642 35.4525 12.694C35.4525 12.6373 35.2747 12.5805 35.2747 12.5805C35.2747 11.6744 35.2178 10.5414 35.2178 9.57679C35.2323 9.05949 35.3087 8.54578 35.4454 8.04656C35.4454 7.93308 35.2676 7.86925 35.2676 7.86925C35.2676 6.79294 35.4454 5.6599 35.4454 4.5836C35.4454 4.29989 35.1609 1.40966 34.5351 0.785506L34.544 0.792599ZM6.53335 30.4308C6.53335 29.9219 6.81779 29.695 7.2729 29.6382C7.2729 30.1489 6.98846 30.3741 6.53335 30.4308ZM7.10224 4.54281C7.32979 4.25911 7.8969 4.3655 8.4089 4.31585C8.4089 4.49317 8.46579 4.59956 8.46579 4.71304C8.46579 5.10845 8.18135 5.27867 7.84001 5.27867C7.2729 5.27867 7.10224 5.16519 7.10224 4.54281ZM8.23824 30.4397V30.2127C8.23824 30.101 8.29512 30.0354 8.57957 30.0354C8.57957 30.3741 8.63646 30.4308 8.23824 30.4308V30.4397ZM19.2605 4.3655C19.1625 4.36934 19.065 4.34989 18.976 4.30876C18.976 3.2892 19.2605 2.83527 20.0569 2.55157C20.0992 2.65993 20.1185 2.77583 20.1138 2.89201C20.1138 2.77853 19.4311 4.3655 19.2605 4.3655ZM29.6587 26.2426C29.6587 26.1292 29.7156 26.1292 29.7725 26.1292C30.2258 26.1292 30.4534 26.1859 30.4534 26.6398C30 26.6398 29.6587 26.6398 29.6587 26.2426ZM32.8889 33.0391C32.8338 33.6615 32.7769 34.002 32.0942 34.002C32.0942 33.8885 32.0374 33.8246 32.0374 33.775C32.0374 33.2076 32.3787 33.0391 32.8889 33.0391ZM32.1511 38.5359C32.0942 38.5359 31.9734 38.4792 31.9236 38.4792C31.9236 38.4224 31.8667 38.3018 31.8667 38.2522C31.8667 38.1387 31.9805 38.0749 32.3218 38.0749C32.3218 38.4153 32.2649 38.5288 32.144 38.5288L32.1511 38.5359ZM32.3218 37.7344C32.7751 37.2725 33.3441 36.9401 33.9698 36.7716C33.9698 37.5642 33.0027 37.621 32.3218 37.7344Z" fill="#155B11"/>
<path d="M12.7272 32.4717C12.7272 32.4824 12.7272 32.5178 12.7165 32.571C12.7165 32.5799 12.7165 32.5852 12.7272 32.5852V32.4717Z" fill="#155B11"/>
<path d="M44.7769 40.2913C51.9929 40.2913 53.7547 39.3285 53.7547 39.1015C53.7547 39.0448 53.6978 39.0448 53.6978 38.9242C53.6978 38.8036 53.8756 38.5288 54.608 37.7912V37.8479C54.6631 37.8479 57.2214 34.5037 57.4525 33.6544C57.4525 32.8051 58.7609 32.5214 59.1005 31.3883C59.7262 30.7642 59.2783 31.1046 60.0676 29.9148C60.1245 29.8013 61.5449 28.4963 61.5449 28.1009C61.5449 28.0441 62.6809 27.0246 62.6809 26.5051C62.6809 25.8827 64.2151 24.5209 64.384 24.0687C65.408 22.7655 65.6925 21.8576 66.0889 21.4622C66.6009 20.7813 68.5903 17.6641 69.2711 17.6641C69.4489 17.6641 69.84 17.6641 69.84 18.0613C69.84 22.3683 69.3849 28.7162 69.3849 33.1916C69.3849 33.7023 69.6125 34.3832 69.6125 34.9488C69.6125 35.9116 69.4347 36.933 69.4347 37.7858C69.4347 40.2222 69.8898 40.2789 71.4791 40.2789C72.2756 40.2789 73.0703 40.2221 73.9805 40.2221C74.7183 40.2221 75.5147 40.3356 76.1956 40.3356C78.6383 40.3356 78.752 39.0944 78.752 36.3691C78.752 34.4984 78.6951 32.516 78.6951 30.9291C78.7102 30.6246 78.7483 30.3217 78.8089 30.023C78.8089 29.9662 78.5245 29.8457 78.5245 29.2854C78.5245 28.4928 78.8658 27.1895 78.8658 27.076C78.8658 18.4053 79.5485 9.73458 79.5485 2.02847C79.5558 1.61988 79.4784 1.21419 79.3209 0.83691C78.3005 0.177298 74.7769 0.113464 72.5618 0.113464C70.5725 0.113464 68.8676 1.30325 68.8676 1.87066C68.8809 1.96626 68.8999 2.06099 68.9245 2.15436C68.4143 2.15436 66.2578 5.44001 66.2578 5.72372C66.2578 5.66697 66.2578 5.66697 66.2009 5.66697C66.0231 5.66697 64.7787 7.70787 64.7787 7.9898C64.6649 8.33025 62.848 9.69026 62.848 10.5414C62.848 10.5963 62.9049 10.7098 62.9049 10.7666C61.8809 11.7879 61.2569 12.9209 60.9725 13.2046C60.688 13.827 58.7574 15.9814 58.3591 16.774C58.3104 16.9108 58.251 17.0436 58.1814 17.1712C57.9538 17.5684 56.192 20.0082 56.0782 19.9479C55.3405 20.9108 53.9769 23.9712 52.8409 23.9712C52.4427 23.9712 52.3858 23.6875 52.3858 23.4038C52.3858 21.808 52.5636 20.0614 52.5636 18.4177C52.5636 16.4336 52.5067 14.4512 52.5067 12.467C52.5067 9.747 52.7342 7.08372 52.7342 4.42045C52.7342 1.01954 52.2791 0.567391 50.1209 0.567391C48.6987 0.567391 45.2907 0.567391 43.8702 0.849322C43.8702 0.962804 43.8702 1.02664 43.7565 1.02664C43.472 1.93449 43.472 2.84057 43.472 3.74665C43.472 4.76799 43.5289 5.78755 43.5289 6.80711C43.5289 8.33734 43.3031 9.81083 43.3031 11.3411C43.3031 20.0685 42.9049 28.4555 42.9049 37.0127C42.9049 37.3514 42.9618 37.6351 42.9618 37.9756C42.9618 38.2593 42.9049 38.4862 42.9049 38.7682C42.9049 40.0094 43.9271 40.2984 44.7787 40.2984L44.7769 40.2913ZM71.4827 33.6686C71.5133 33.6655 71.5443 33.6693 71.5733 33.6797C71.6023 33.69 71.6286 33.7066 71.6504 33.7283C71.6721 33.75 71.6888 33.7763 71.6992 33.8052C71.7095 33.8341 71.7133 33.865 71.7103 33.8955C71.7103 34.2927 71.5325 34.4062 71.1431 34.4062C71.1431 34.2927 71.0863 34.1793 71.0863 34.009C71.0863 33.8388 71.1431 33.6686 71.4827 33.6686ZM73.8134 34.236H73.5858V34.0587C73.5858 33.9452 73.6427 33.8317 73.984 33.8317C73.984 34.1722 73.9271 34.2289 73.8063 34.2289L73.8134 34.236ZM67.9591 10.5414C68.3574 10.5414 68.6969 10.9935 68.6969 11.6744C68.6969 11.9581 68.016 12.1266 67.6747 12.1266C67.5764 12.1354 67.4776 12.1157 67.3903 12.0698C67.2743 11.8421 67.2163 11.5894 67.2214 11.334C67.2214 10.9368 67.3903 10.5414 67.9591 10.5414ZM66.8231 15.0718C66.8098 15.1674 66.7908 15.2621 66.7663 15.3555C66.7663 15.7527 66.9938 15.8094 66.9938 16.2048C66.4818 16.0931 66.0836 15.8661 66.0836 15.242C66.0836 15.015 66.6525 15.0647 66.8231 15.0647V15.0718ZM46.1405 28.3917C46.1991 27.8243 46.5387 27.7675 46.9369 27.7675H46.9476C46.97 27.8587 47.0035 27.9468 47.0471 28.03L47.2534 28.4307C47.0402 28.3658 46.8184 28.3335 46.5956 28.3349C46.4818 28.3349 46.3111 28.3917 46.1405 28.3917ZM52.7182 36.8319C52.8196 36.7415 52.9156 36.6546 52.9867 36.6014L53.0756 36.5375C53.0756 36.5624 53.0756 36.5854 53.0756 36.6085C53.0756 36.7716 52.9209 36.8195 52.72 36.8319H52.7182ZM47.2782 6.29112C47.2782 6.46844 47.1645 6.51631 46.9938 6.51631C46.7662 6.51631 46.5387 6.45957 46.3111 6.45957C46.3111 6.23438 46.9938 6.28226 47.2782 6.28226" fill="#155B11"/>
<path d="M83.6071 5.09957C83.6081 6.25437 83.6675 7.40838 83.7849 8.55722C83.8987 9.52004 84.6933 9.69026 85.5449 9.69026C87.0791 9.69026 88.1582 9.57678 90.3751 9.57678C92.7609 9.57678 95.3174 9.34982 95.488 10.1442C95.488 10.2577 95.4311 10.4279 95.4311 10.5414C95.4311 11.2205 95.6587 11.7826 95.6587 12.4103C95.6587 12.8075 95.4809 13.1479 95.4809 13.5433C95.4809 14.054 95.7085 15.9814 95.7085 16.9442C95.7085 18.9266 95.3671 20.7973 95.3671 22.8382C95.3671 24.0794 95.5947 25.4979 95.5947 26.521C95.5947 26.6345 95.4169 26.6983 95.4169 26.8047C95.4303 26.9003 95.4493 26.9951 95.4738 27.0884C95.3776 27.7446 95.3395 28.408 95.36 29.0708C95.36 30.6666 95.2462 32.3015 95.2462 33.4913C95.2462 33.6048 95.0205 33.6686 95.0205 33.6686C95.0205 33.8956 95.2462 33.9523 95.2462 34.236C95.2462 34.5747 95.1894 35.1421 95.1894 35.7095C95.1894 36.3638 95.2356 37.0163 95.4454 37.1546C95.3998 37.3968 95.4037 37.6458 95.4568 37.8865C95.51 38.1272 95.6113 38.3547 95.7547 38.5554C95.7174 38.6601 95.6993 38.7706 95.7014 38.8817C95.7014 39.6193 96.6667 40.0165 97.4062 40.0165C97.5204 40.0291 97.636 40.0158 97.7443 39.9778C97.8526 39.9397 97.951 39.8778 98.032 39.7966C98.4816 39.8887 98.9403 39.9298 99.3991 39.9189C99.5769 39.9189 99.7547 39.9012 99.9325 39.8835C100.501 40.1264 101.344 40.0165 102.187 40.0165C103.947 40.0165 104.8 39.8392 104.8 38.0323V38.0093C104.828 37.7674 104.799 37.5225 104.717 37.2932C104.635 37.0639 104.502 36.8564 104.327 36.6865C104.516 36.0198 104.705 35.3531 104.894 34.6864C104.962 34.4237 104.967 34.1488 104.91 33.8837C104.852 33.6186 104.733 33.3707 104.562 33.1597C104.535 32.3086 104.459 31.3617 104.459 30.6081C104.459 30.2127 104.636 29.9858 104.636 29.8155C104.636 29.702 104.58 29.4183 104.58 29.2481C104.58 27.6044 104.757 26.0192 104.757 24.262C104.757 23.0722 104.473 21.6555 104.473 21.0881C104.473 20.8611 104.814 20.8044 104.871 20.5224C104.644 20.5224 104.644 19.7281 104.473 19.6146C104.928 19.5578 104.871 18.1961 104.871 17.7439C104.871 17.4247 104.72 17.1056 104.656 16.8325C104.656 16.8325 104.676 16.8325 104.7 16.8325C104.928 16.8325 104.644 14.9618 104.644 14.5097C104.644 13.3766 104.587 12.5255 104.587 11.3925C104.587 10.8251 104.644 9.86226 105.438 9.74878C105.911 9.79719 106.386 9.81614 106.86 9.80552C108.46 9.80552 110.043 9.74878 111.691 9.69204C111.763 9.66026 111.829 9.61649 111.886 9.5626C112.945 9.96541 114.109 9.99606 115.188 9.64948C115.253 9.6282 115.317 9.60338 115.383 9.57855C115.952 9.57855 117.031 8.95618 117.031 8.61573C117.031 8.50225 116.974 8.43842 116.917 8.33203C116.889 8.41739 116.831 8.48977 116.754 8.53594C117.129 7.89229 117.019 7.14934 116.972 6.44539C116.921 5.64216 116.988 4.6155 116.848 3.70233C116.848 3.70233 116.848 3.68992 116.86 3.68637H116.846C116.801 3.41193 116.726 3.14321 116.622 2.88491C116.978 2.82639 116.725 2.28558 116.725 1.6437V1.01955C116.441 0.907844 116.327 0.567399 115.988 0.397176C115.9 0.443044 115.801 0.462748 115.703 0.453917C115.362 0.453917 115.02 0.397176 114.738 0.397176C114.301 0.387755 113.864 0.406708 113.429 0.453917C112.862 0.453917 110.645 0.340435 108.828 0.340435C107.95 0.347491 107.075 0.442536 106.215 0.62414C105.703 0.62414 105.191 0.567399 104.681 0.567399C104.171 0.567399 103.545 0.68088 103.259 0.68088C102.747 0.68088 102.348 0.503565 101.836 0.503565C101.04 0.503565 100.188 0.617047 99.6196 0.617047C99.28 0.560306 99.1662 0.390084 98.8249 0.390084C98.5405 0.390084 98.256 0.446825 97.5182 0.446825C94.7342 0.446825 94.1085 0.390084 93.712 0.390084C93.3981 0.414447 93.0835 0.353152 92.8018 0.212769C92.8018 0.553214 92.1778 0.32625 92.064 0.609954C91.8609 0.427805 91.5976 0.326787 91.3245 0.32625C90.8142 0.32625 90.3591 0.503565 89.7333 0.503565C88.8249 0.503565 87.8596 0.276602 87.7458 0.276602C87.6889 0.276602 87.632 0.453917 87.4613 0.453917C87.3655 0.440591 87.2705 0.421645 87.1769 0.397176C86.8356 0.397176 86.496 0.453917 86.2116 0.453917C85.5289 0.453917 84.7342 0.397176 84.0516 0.397176C83.8985 0.854395 83.8222 1.33368 83.8258 1.8157C83.8258 2.32459 83.8827 2.83526 83.8827 3.34593C83.8827 3.79808 83.6551 3.85482 83.6551 4.42223C83.6551 4.59955 83.8329 4.76267 83.8329 4.9329C83.8128 4.97904 83.7815 5.01944 83.7417 5.05042C83.702 5.08139 83.6551 5.10194 83.6053 5.11021L83.6071 5.09957ZM96.7822 34.9169C96.7101 34.9964 96.6424 35.0799 96.5796 35.1669C96.5674 35.1194 96.5608 35.0706 96.56 35.0215C96.56 35.002 96.6471 34.963 96.784 34.9151L96.7822 34.9169ZM97.0205 32.9026C96.9444 32.9178 96.8669 32.9249 96.7894 32.9239C96.9476 32.7661 96.8871 32.555 97.024 32.4398C97.024 32.5941 97.024 32.7483 97.024 32.9026H97.0205ZM98.2685 24.4801C97.7582 24.3028 97.5307 23.9127 97.5307 23.1769C98.0409 23.2903 98.4391 23.5723 98.4391 23.9694C98.4328 24.1536 98.3708 24.3316 98.2613 24.4801H98.2685ZM98.2613 19.2085C98.2613 19.549 98.4889 19.6057 98.4889 19.8894C98.4889 19.8894 97.6374 20.1731 97.4098 20.1731C97.1822 20.1731 97.1822 19.9958 97.1822 19.7759C97.1822 19.1518 97.5805 19.2085 98.2613 19.2085ZM96.0498 5.49676C96.0446 5.47804 96.0368 5.46014 96.0267 5.44356C96.1547 5.44356 96.2845 5.4347 96.4142 5.42583C96.2991 5.4748 96.1749 5.49897 96.0498 5.49676ZM101.929 39.5555C102.073 39.5359 102.315 39.5555 102.425 39.5271C102.471 39.5377 102.517 39.5484 102.565 39.5555C102.502 39.5942 102.43 39.6139 102.356 39.6122C102.212 39.6078 102.069 39.5887 101.929 39.5555ZM88.4356 3.73779C88.6134 3.73779 88.8907 3.79453 89.0613 3.79453C89.0613 4.19172 88.6062 4.19172 88.1511 4.19172C88.1076 4.12444 88.0882 4.04445 88.096 3.96476C88.096 3.78744 88.2649 3.73779 88.4356 3.73779Z" fill="#155B11"/>
<path d="M117.06 29.5815C117.06 29.6383 116.094 32.4717 116.094 32.5285C116.094 32.5852 116.094 32.642 116.208 32.7058C116.208 32.9328 115.639 33.4984 115.639 33.4417C115.186 34.8602 115.3 34.8602 115.243 35.5393C115.243 35.7166 115.065 35.6528 115.065 35.7166C114.724 36.6227 114.439 37.7557 114.439 38.6618C114.439 40.0803 116.201 39.4562 116.201 39.8534C116.428 39.8534 117.223 39.6761 117.337 39.6761C117.451 39.6761 117.515 39.8534 117.515 39.8534C117.799 39.8534 118.366 39.6761 118.937 39.6761C119.051 39.6761 119.732 39.7328 120.471 39.7328C121.835 39.7328 123.653 39.5058 123.653 38.2026C123.653 36.8993 124.22 37.8054 124.22 36.5589V35.9915C124.22 35.7645 124.22 35.4826 124.448 35.3123C125.074 34.9719 124.562 33.4417 125.812 33.2714C126.437 33.3282 127.056 33.3282 127.573 33.3282C128.254 33.3282 128.709 33.2147 129.164 33.2147C129.902 33.2147 130.409 33.4417 131.038 33.4417C131.323 33.4417 131.323 33.2643 131.664 33.2643C131.882 33.2828 132.095 33.343 132.29 33.4417C132.536 33.317 132.809 33.256 133.084 33.2643C133.369 33.2643 134.05 33.2076 134.05 33.4417C134.391 33.4417 134.676 33.2643 134.789 33.2643C135.129 33.2643 135.243 33.4913 135.812 33.4913C135.989 33.4913 136.153 33.4346 136.324 33.4346C136.437 33.4346 136.501 33.6119 136.501 33.6615C136.955 33.6615 137.58 33.4346 138.204 33.4346C138.828 33.4346 139.449 33.4913 140.08 33.4913C140.327 33.4986 140.575 33.4796 140.818 33.4346C141.159 34.002 141.671 34.2857 141.671 35.1918V35.5889C141.671 35.8141 141.671 35.9844 141.785 36.0978C142.636 37.2309 141.607 39.9527 144.284 39.9527C145.136 39.9527 146.5 39.5555 147.749 39.5555C148.432 39.5555 149.058 39.8392 149.397 39.8392C149.625 39.8392 149.511 39.442 149.796 39.442C150.308 39.442 151.273 39.442 151.614 39.1016C151.614 36.8922 151.387 37.8604 151.216 37.2309C151.216 37.0624 151.159 36.6085 151.394 36.6085L151.451 36.6652C151.052 35.2467 150.825 34.8513 150.654 34.0055C150.258 33.7218 150.258 33.7218 150.258 32.8725C149.179 29.5851 150.08 31.3422 148.553 26.865C148.553 26.8083 148.325 26.865 148.325 26.5813C148.325 26.5246 148.382 26.404 148.382 26.3544C148.268 25.8455 147.927 25.6753 147.815 25.3916C147.857 25.3796 147.896 25.357 147.927 25.326C147.958 25.2949 147.981 25.2565 147.993 25.2142C147.879 25.2142 147.765 25.271 147.765 25.1008C147.779 25.0051 147.799 24.9104 147.824 24.8171C147.71 24.4216 147.765 23.911 147.646 23.5138C147.532 23.4003 147.191 23.1733 147.191 22.9481C147.191 22.8347 147.248 22.6644 147.248 22.551C147.248 22.3736 147.07 22.4375 147.07 22.3736C146.843 21.5243 146.729 20.6165 146.501 19.7671C145.877 19.143 145.764 16.8201 145.536 16.196C145.479 16.196 145.026 15.0629 144.967 14.6675C144.967 14.5541 144.789 14.5541 144.789 14.4902C143.593 11.7312 142.684 9.57504 142.684 8.95444C142.698 8.85884 142.717 8.7641 142.741 8.67073C142.628 8.55725 142.286 8.44377 142.286 8.21681C142.3 8.12121 142.319 8.02647 142.343 7.9331C142.117 7.31073 142.06 7.19724 141.947 6.80006C141.605 4.93116 140.299 3.11722 139.9 1.18981C139.163 1.01249 139.333 0.397208 138.594 0.397208C138.366 0.397208 137.685 0.624171 137.287 0.624171C137.287 0.397208 136.492 0.340467 136.043 0.340467C135.303 0.340467 134.443 0.453949 133.714 0.453949C133.657 0.453949 132.009 0.340467 132.009 0.0567627C131.44 0.0567627 130.816 0.283726 130.304 0.283726C129.963 0.283726 129.564 0.106411 129.282 0.106411C129.225 0.106411 129.168 0.333374 128.884 0.333374C128.599 0.333374 128.087 0.156059 127.861 0.156059C127.636 0.156059 126.894 1.34584 126.894 1.2891C126.894 2.02673 126.78 1.96999 126.78 1.96999C126.78 2.02673 126.837 2.02673 126.894 2.08348C126.27 2.08348 125.531 6.44543 125.294 6.44543C124.898 6.44543 123.193 12.3394 123.136 12.6231C123.136 12.7366 121.772 14.7207 121.772 16.1924C121.763 16.3088 121.783 16.4257 121.829 16.5329C120.811 17.228 120.178 20.9108 119.787 21.9871C118.764 23.0084 118.48 25.5582 118.252 26.1239C118.252 26.0671 118.252 26.0671 118.197 26.0671C118.02 26.0671 117.003 28.8439 117.003 29.2411C117.003 29.3545 117.06 29.468 117.06 29.5815ZM141.605 28.9024C141.605 28.7251 142.229 28.7889 142.514 28.7889C142.474 28.8578 142.454 28.9364 142.457 29.0159C142.457 29.2996 142.741 29.2996 142.741 29.6968C141.947 29.6968 141.605 29.5833 141.605 28.9024ZM132.343 28.0531C132.313 28.0567 132.282 28.0534 132.252 28.0436C132.223 28.0338 132.196 28.0177 132.174 27.9963C132.146 27.8847 132.126 27.7708 132.117 27.6559C132.117 27.5424 132.174 27.4289 132.295 27.4289C132.521 27.4289 132.578 27.6062 132.578 27.7693C132.578 27.8828 132.521 28.0531 132.35 28.0531H132.343ZM135.696 3.45767C136.037 3.45767 136.151 3.68286 136.151 4.0233C136.151 4.20062 136.094 4.20062 136.037 4.20062C135.582 4.20062 135.355 4.14388 135.355 3.63321C135.639 3.63321 135.532 3.46476 135.696 3.46476V3.45767ZM128.821 21.9871C128.821 21.8098 129.163 22.0438 129.163 21.4782V21.5349C129.673 21.5349 131.15 16.2155 131.264 16.2155C131.239 16.1227 131.22 16.0286 131.207 15.9336C131.213 15.8905 131.233 15.8507 131.264 15.8201C131.295 15.8509 131.335 15.8708 131.378 15.8768C131.385 15.8771 131.393 15.8758 131.4 15.873C131.407 15.8702 131.413 15.8661 131.419 15.8608C131.424 15.8554 131.428 15.8491 131.431 15.8421C131.434 15.8351 131.435 15.8276 131.435 15.8201C131.41 15.7267 131.391 15.632 131.378 15.5364C131.378 15.3591 131.556 15.3094 131.556 15.1959C131.531 15.1026 131.512 15.0078 131.499 14.9122C131.499 14.2331 132.921 14.0629 132.921 11.1159C134.74 11.1159 134.569 12.6461 134.796 13.382C134.74 13.327 134.74 13.327 134.683 13.327C134.683 13.4387 136.046 15.1392 136.046 16.329C136.046 17.0666 136.501 17.2936 136.501 17.3503C136.613 17.5773 136.556 18.2564 136.727 18.6536C136.727 18.7103 136.905 18.6536 136.905 18.8309C136.962 18.8309 137.644 20.9268 137.644 21.097C137.644 21.2672 137.588 21.4374 137.588 21.6076C137.588 21.6644 137.644 21.785 137.644 21.8328C138.155 22.7974 138.098 23.1379 138.212 24.1007C137.588 24.4411 136.677 24.4979 135.712 24.4979C134.917 24.4979 134.121 24.4411 133.326 24.4411C132.587 24.4411 131.621 24.6096 130.66 24.6096C129.296 24.6096 129.296 24.044 128.613 23.8737C128.727 23.3063 128.613 22.6325 128.841 22.0031L128.821 21.9871ZM117.876 37.4171C117.876 37.3603 117.819 37.3036 117.819 37.2397C117.819 36.9578 118.217 37.0146 118.67 37.0146C118.613 37.41 118.217 37.41 117.876 37.41" fill="#155B11"/>
<path d="M166.741 39.8959C166.919 39.8959 166.967 40.0644 167.081 40.0644C167.195 39.8392 168.274 39.8392 169.013 39.8392C169.48 39.8635 169.94 39.9592 170.377 40.1229C170.434 40.1229 170.491 39.9456 170.491 39.8959C172.763 39.8959 175.036 39.9527 177.195 39.9527C178.501 39.9527 180.32 39.8392 181.342 39.8392C181.74 39.8392 181.968 40.0644 182.308 40.0644C182.308 39.8959 182.535 39.8392 182.649 39.8392C183.218 39.8392 183.785 39.7257 184.354 39.7257C185.205 39.7257 185.888 39.4987 185.888 38.2522C185.888 36.8922 185.774 34.9081 185.774 34.5109C185.774 34.0587 185.831 33.6048 185.831 33.2076C185.831 32.415 185.433 32.0178 185.433 31.3954C185.433 31.3387 185.611 31.282 185.611 31.1117C185.611 30.9415 185.212 30.5443 184.532 30.5443C180.265 30.5443 176.293 30.7713 172.373 30.7713C172.089 30.7713 171.748 30.594 171.634 30.594C171.577 30.594 171.634 30.7713 171.456 30.7713C169.751 30.7713 168.105 30.8848 166.457 30.8848C165.435 30.8848 164.923 30.6578 164.923 28.8456C164.923 28.4485 164.98 28.0513 164.98 27.6541C164.98 26.521 164.752 26.3508 164.581 25.7852C164.866 25.4447 165.093 25.3313 165.321 24.9341C166.125 24.7716 166.944 24.6955 167.764 24.7071C168.786 24.7071 169.865 24.7639 170.832 24.7639C171.57 24.7639 172.535 24.5954 172.763 24.5954C172.82 24.5954 172.94 24.7639 172.99 24.7639C173.04 24.7639 173.275 24.5387 173.332 24.5387C173.445 24.5387 173.73 24.7639 173.787 24.7639C174.048 24.7085 174.312 24.6694 174.578 24.6468C175.033 24.6468 175.714 24.7585 176.055 24.7585C177.248 24.7585 177.419 23.1733 177.419 21.5864C177.419 16.3715 177.532 15.352 175.429 15.352C174.185 15.352 172.532 15.6924 171.111 15.6924C169.804 15.6924 168.725 15.4654 167.703 15.4654C167.362 15.4654 167.134 15.6924 166.681 15.6924C164.748 15.6924 164.692 14.898 164.692 14.3891C164.692 13.9352 164.578 13.992 164.578 13.8785C164.578 13.6515 164.756 13.538 164.756 13.3696C164.756 13.1426 164.528 12.178 164.528 11.4989C164.528 10.7613 164.706 9.91194 165.772 9.91194C166.171 9.91194 166.569 10.0893 167.017 10.0893C167.643 10.0893 168.38 9.91194 168.949 9.91194C169.127 9.91194 169.348 9.91194 169.348 10.0893C169.575 10.0893 169.575 9.91194 169.744 9.91194C171.278 9.8552 172.642 9.73462 174.011 9.73462C174.352 9.73462 174.636 9.91194 174.807 9.91194C175.035 9.91194 174.985 9.68498 175.374 9.68498C177.819 9.68498 180.204 9.96868 182.59 9.96868C183.273 9.96868 184.523 9.91194 184.523 9.11934C184.523 9.00586 184.345 8.89238 184.295 8.89238C184.409 8.32497 184.693 6.96496 184.693 6.90822C184.693 6.85148 184.466 6.05888 184.466 5.4897C184.453 5.06459 184.531 4.64159 184.693 4.24849C184.693 3.79457 184.409 3.56938 184.409 3.11545C184.409 2.71827 184.523 2.26434 184.523 1.87425C184.53 1.5029 184.452 1.13484 184.295 0.797943C183.216 0.457498 181.056 0.457498 180.206 0.457498C179.468 0.457498 178.962 0.684461 178.843 0.684461C178.724 0.684461 178.615 0.457498 178.558 0.457498C177.707 0.400757 176.853 0.400757 176.002 0.400757C171.684 0.400757 167.934 0.62772 163.557 0.62772C161.058 0.62772 158.5 0.570979 156 0.450405C155.376 0.734109 155.319 2.09412 155.319 3.11013C155.319 7.47386 155.319 12.1195 155.433 16.54C155.49 16.9372 155.659 16.9939 155.659 17.3344C155.481 17.3344 155.433 17.5613 155.433 17.6181C155.433 17.9 155.611 18.0702 155.659 18.2404C155.659 18.4177 155.481 18.4674 155.433 18.6376C155.433 20.0561 155.611 20.2246 155.611 20.3381C155.611 21.1307 155.497 22.2637 155.497 23.34C155.497 24.6451 155.497 27.4183 155.836 27.4183C155.893 29.2872 156.064 30.9876 156.064 32.8016C156.064 33.4807 156.064 34.1616 155.836 34.2201C155.836 34.502 156.121 35.0694 156.121 35.5233C156.121 36.3159 155.943 37.3355 155.943 38.1299C155.935 38.5932 156.012 39.0541 156.171 39.4899C156.683 40.114 160.489 40.169 163.159 40.169C164.466 40.169 165.772 39.8871 166.74 39.8871L166.741 39.8959ZM174.068 19.5419C174.068 19.9958 174.124 19.9391 173.671 19.9391C173.671 19.5419 173.671 19.5419 174.068 19.5419ZM175.545 3.61725C176.512 3.73073 176.681 4.58185 176.908 5.48793C176.114 5.43119 175.431 4.80881 175.431 4.12792C175.414 3.94998 175.454 3.77116 175.545 3.61725ZM173.785 1.35117C173.878 1.37585 173.972 1.3948 174.068 1.40791C173.954 1.91857 173.89 2.48421 173.33 2.48421C173.33 2.37073 173.273 2.25725 173.273 2.14554C173.273 1.80509 173.451 1.35117 173.785 1.35117ZM163.161 21.2512C163.161 21.6484 163.161 21.6484 162.763 21.6484C162.763 21.2512 162.763 21.2512 163.161 21.2512ZM160.149 2.65975C160.149 3.17042 160.149 3.5676 159.972 3.79279C159.461 3.79279 159.404 3.61548 159.404 3.11368C159.404 2.61188 159.689 2.65975 160.142 2.65975H160.149ZM160.142 18.0738C160.142 18.4709 160.028 18.5844 159.858 18.5844C159.702 18.5668 159.55 18.5286 159.404 18.4709C159.404 18.1305 159.632 18.0738 160.142 18.0738ZM159.006 11.6709C158.494 11.6709 158.437 11.2737 158.437 10.7631C158.949 10.7631 159.006 11.217 159.006 11.6709ZM158.437 33.9984C158.356 33.9061 158.293 33.7981 158.255 33.6811C158.216 33.564 158.201 33.4404 158.212 33.3175C158.212 33.1402 158.155 32.8654 158.437 32.8654C158.836 32.8654 159.177 32.9789 159.177 33.2608C159.177 33.7715 158.892 33.9984 158.437 33.9984Z" fill="#155B11"/>
<path d="M200.142 10.1442C200.142 10.2577 200.085 10.4279 200.085 10.5414C200.085 11.2205 200.313 11.7826 200.313 12.4103C200.313 12.8075 200.135 13.1479 200.135 13.5433C200.135 14.054 200.363 15.9814 200.363 16.9442C200.363 18.9284 200.021 20.7973 200.021 22.8382C200.021 24.0794 200.249 25.4979 200.249 26.521C200.249 26.6345 200.071 26.6983 200.071 26.8047C200.084 26.9003 200.103 26.9951 200.128 27.0884C200.032 27.7446 199.994 28.408 200.014 29.0708C200.014 30.6666 199.902 32.3015 199.902 33.4913C199.902 33.6048 199.675 33.6686 199.675 33.6686C199.675 33.8956 199.902 33.9523 199.902 34.236C199.902 34.5747 199.845 35.1421 199.845 35.7095C199.845 36.2769 199.877 36.8248 200.023 37.0624C199.936 37.6866 200.004 38.2912 200.364 38.8054C200.364 38.8302 200.364 38.8551 200.364 38.8817C200.364 39.6193 201.332 40.0147 202.069 40.0147C202.251 40.0263 202.433 39.983 202.59 39.8906C203.013 39.9066 203.436 39.8918 203.856 39.8463L204.418 39.7948C204.98 40.1495 205.911 40.0147 206.843 40.0147C208.508 40.0147 209.36 39.8622 209.447 38.3107C209.499 38.146 209.528 37.9746 209.531 37.8018C209.576 36.5721 209.456 35.3419 209.175 34.1438C209.223 33.9901 209.243 33.8293 209.236 33.6686C209.236 32.7058 209.122 31.516 209.122 30.6081C209.122 30.2109 209.3 29.9858 209.3 29.8155C209.3 29.702 209.243 29.4183 209.243 29.2481C209.243 27.6044 209.42 26.0174 209.42 24.262C209.42 23.0722 209.136 21.6555 209.136 21.0881C209.136 20.8611 209.477 20.8044 209.534 20.5207C209.307 20.5207 209.307 19.7281 209.136 19.6146C209.591 19.5579 209.534 18.1961 209.534 17.7439C209.534 17.4247 209.385 17.1056 209.319 16.8325C209.334 16.8355 209.349 16.8355 209.364 16.8325C209.591 16.8325 209.307 14.9618 209.307 14.5097C209.307 13.3749 209.25 12.5255 209.25 11.3925C209.25 10.8251 209.307 9.86226 210.101 9.74878C210.574 9.79719 211.049 9.81614 211.523 9.80552C213.123 9.80552 214.706 9.74878 216.354 9.69204C216.367 9.68601 216.379 9.67889 216.391 9.67076C216.843 9.75743 217.302 9.80313 217.762 9.80729C218.599 9.80729 219.57 9.87999 220.363 9.60338C220.553 9.53773 220.733 9.44389 220.896 9.32499C221.321 9.11399 221.696 8.8161 221.696 8.61573C221.69 8.53174 221.661 8.45109 221.611 8.38345C221.723 8.07151 221.765 7.73887 221.734 7.40894C221.703 7.07901 221.601 6.7598 221.433 6.47377L221.577 6.46135C221.577 6.23616 221.52 6.06594 221.52 5.89572V5.15631C221.52 4.81764 221.406 4.4772 221.406 4.25023C221.406 4.07292 221.406 3.79631 221.52 3.68283C221.427 3.72781 221.332 3.76632 221.234 3.79808C221.321 3.50177 221.332 3.18858 221.267 2.88668C221.675 2.86008 221.406 2.30509 221.406 1.64547V1.01955C221.124 0.906071 221.01 0.567399 220.668 0.397176C220.581 0.443044 220.482 0.462748 220.384 0.453917C220.043 0.453917 219.701 0.397176 219.419 0.397176C218.982 0.387716 218.546 0.40667 218.112 0.453917C217.543 0.453917 215.328 0.340435 213.509 0.340435C212.631 0.347587 211.755 0.442631 210.896 0.62414C210.384 0.62414 209.872 0.567399 209.362 0.567399C208.852 0.567399 208.226 0.680881 207.94 0.680881C207.428 0.680881 207.031 0.503565 206.517 0.503565C205.721 0.503565 204.869 0.617047 204.3 0.617047C203.961 0.560306 203.847 0.390084 203.506 0.390084C203.221 0.390084 202.937 0.446825 202.199 0.446825C199.415 0.446825 198.789 0.390084 198.393 0.390084C198.079 0.414447 197.764 0.353152 197.483 0.212769C197.483 0.553214 196.859 0.32625 196.745 0.609954C196.542 0.427805 196.278 0.326787 196.005 0.32625C195.495 0.32625 195.04 0.503565 194.416 0.503565C193.506 0.503565 192.54 0.276602 192.427 0.276602C192.37 0.276602 192.313 0.453917 192.142 0.453917C192.046 0.440591 191.951 0.421645 191.858 0.397176C191.518 0.397176 191.177 0.453917 190.892 0.453917C190.21 0.453917 189.415 0.397176 188.734 0.397176C188.58 0.854073 188.503 1.33352 188.507 1.8157C188.507 2.32459 188.564 2.83526 188.564 3.34593C188.564 3.79808 188.336 3.85482 188.336 4.42223C188.336 4.59955 188.514 4.76267 188.514 4.9329C188.493 4.97886 188.462 5.0191 188.422 5.05003C188.383 5.08097 188.336 5.10164 188.286 5.11021C188.287 6.26501 188.347 7.41902 188.464 8.56786C188.578 9.53068 189.372 9.7009 190.224 9.7009C191.758 9.7009 192.839 9.58742 195.054 9.58742C197.44 9.58742 199.998 9.36046 200.167 10.1548L200.142 10.1442ZM202.951 24.4925C202.441 24.3152 202.213 23.9251 202.213 23.1875C202.725 23.301 203.122 23.5847 203.122 23.9819C203.115 24.1661 203.053 24.3441 202.944 24.4925H202.951ZM206.524 9.07853C206.069 9.07853 206.183 8.96504 206.183 8.68134C206.581 8.68134 206.524 8.68134 206.524 9.07853ZM207.118 23.9251H207.319C207.308 24.0175 207.282 24.1074 207.241 24.1911L207.118 23.9251ZM206.74 39.5909L207.273 39.543C207.203 39.5968 207.117 39.625 207.029 39.6228C206.93 39.6213 206.83 39.6106 206.732 39.5909H206.74ZM196.29 3.064C196.285 3.22115 196.264 3.37741 196.228 3.53033C196.068 3.54629 195.906 3.55516 195.746 3.56048C195.468 3.26436 195.438 2.75724 195.438 2.10117C196.347 2.10117 196.29 2.83703 196.29 3.064ZM192.942 3.75907C192.879 3.80364 192.82 3.85283 192.764 3.90624C192.778 3.86821 192.802 3.83455 192.833 3.8087C192.865 3.78284 192.902 3.76572 192.942 3.75907ZM194.651 6.85854C194.85 6.87627 195.051 6.89046 195.25 6.89755C195.252 6.92174 195.252 6.94605 195.25 6.97025C195.042 6.98378 194.833 6.94539 194.644 6.85854" fill="#155B11"/>
<path d="M11.8738 66.6865C11.8738 66.8 11.8187 66.9702 11.8187 67.0837C11.8187 67.7628 12.0445 68.3249 12.0445 68.9526C12.0445 69.3498 11.8667 69.6902 11.8667 70.0874C11.8667 70.5963 12.0942 72.5237 12.0942 73.4865C12.0942 75.4707 11.7547 77.3396 11.7547 79.3805C11.7547 80.6217 11.9805 82.0402 11.9805 83.0633C11.9805 83.1768 11.8027 83.2406 11.8027 83.347C11.8156 83.4425 11.834 83.5373 11.8578 83.6307C11.763 84.2876 11.7256 84.9515 11.7458 85.6149C11.7458 87.2001 11.632 88.8438 11.632 90.0336C11.632 90.147 11.4045 90.2109 11.4045 90.2109C11.4045 90.4378 11.632 90.4946 11.632 90.7783C11.632 91.1187 11.5751 91.6844 11.5751 92.2518C11.5751 92.9876 11.632 93.7253 11.9147 93.7253L11.9805 93.6809C11.9942 93.828 12.0264 93.9728 12.0765 94.1118C12.1616 94.3362 12.2876 94.543 12.448 94.7218C12.3309 94.7978 12.2362 94.9036 12.1737 95.0282C12.1112 95.1529 12.0831 95.292 12.0925 95.431C12.0925 96.1669 13.0596 96.5641 13.7973 96.5641C13.9233 96.5669 14.0488 96.5489 14.1689 96.5109C14.5171 96.6509 14.8998 96.6812 15.2658 96.5978L15.4827 96.5552C15.5751 96.5463 15.6605 96.5375 15.7618 96.5322C15.9487 96.5224 16.1334 96.4879 16.3111 96.4293C16.8782 96.674 17.7333 96.5641 18.5707 96.5641C20.3325 96.5641 21.184 96.3868 21.184 94.5799C21.184 94.1827 21.1556 93.8139 20.9618 93.5905C20.9416 92.6366 20.9209 91.6832 20.8996 90.7304C20.8996 90.7162 20.8996 90.702 20.8996 90.6879C20.9468 90.5353 20.9666 90.3756 20.9582 90.2162C20.9582 89.2534 20.8445 88.0636 20.8445 87.1557C20.8445 86.7603 21.0222 86.5334 21.0222 86.3631C21.0222 86.2497 20.9653 85.966 20.9653 85.7957C20.9653 84.1538 21.1431 82.5668 21.1431 80.8096C21.1431 79.6198 20.8587 78.2031 20.8587 77.6357C20.8587 77.4087 21.2 77.352 21.2569 77.0701C21.0293 77.0701 21.0293 76.2757 20.8587 76.1622C21.3138 76.1055 21.2569 74.7437 21.2569 74.2933C21.2569 73.9724 21.1076 73.6532 21.0418 73.3801C21.0418 73.3801 21.0613 73.3801 21.0862 73.3801C21.3138 73.3801 21.0293 71.5112 21.0293 71.0573C21.0293 69.9243 20.9725 69.0731 20.9725 67.9401C20.9725 67.3745 21.0293 66.4099 21.824 66.2964C22.2964 66.3448 22.7714 66.3638 23.2462 66.3531C24.8373 66.3531 26.4285 66.2964 28.0765 66.2396C28.1712 66.198 28.2564 66.1377 28.3271 66.0623C29.3642 66.0623 30.3994 66.0334 31.4329 65.9754C31.4329 66.0091 31.4329 66.0428 31.4329 66.0765C31.5397 66.1229 31.6563 66.1424 31.7725 66.1333C32.3413 66.1333 33.4205 65.5109 33.4205 65.1704C33.4207 65.1326 33.4129 65.0951 33.3973 65.0605C33.4571 64.9308 33.481 64.7876 33.4667 64.6456C33.4133 64.103 33.3541 63.5604 33.2889 63.0178H33.3031C33.3031 62.7909 33.2462 62.6206 33.2462 62.4504V61.7057C33.2462 61.3653 33.1325 61.0248 33.1325 60.7978C33.1325 60.6205 33.1325 60.3457 33.2462 60.2322C33.1411 60.2823 33.0324 60.3244 32.9209 60.3581C32.8787 60.0514 32.871 59.7409 32.8978 59.4325H32.9636C33.4169 59.4325 33.1325 58.8669 33.1325 58.1913V57.5689C32.8498 57.4555 32.736 57.115 32.3947 56.9448C32.3073 56.9907 32.2085 57.0104 32.1102 57.0015C31.7689 57.0015 31.4293 56.9448 31.1449 56.9448C30.7086 56.9354 30.2721 56.9543 29.8382 57.0015C29.2693 57.0015 27.0542 56.888 25.2356 56.888C24.3571 56.8952 23.4816 56.9902 22.6222 57.1717C22.1102 57.1717 21.5982 57.115 21.088 57.115C20.5778 57.115 19.952 57.2285 19.6658 57.2285C19.1538 57.2285 18.7573 57.0512 18.2436 57.0512C17.4471 57.0512 16.5956 57.1647 16.0267 57.1647C15.6871 57.1079 15.5733 56.9377 15.232 56.9377C14.9476 56.9377 14.6631 56.9944 13.9253 56.9944C11.1413 56.9944 10.5156 56.9377 10.1191 56.9377C9.8052 56.9621 9.49055 56.9008 9.2089 56.7604C9.2089 57.1008 8.5849 56.8739 8.47112 57.1576C8.26802 56.9754 8.00469 56.8744 7.73156 56.8739C7.22134 56.8739 6.76623 57.0512 6.14223 57.0512C5.23201 57.0512 4.26667 56.8242 4.1529 56.8242C4.09601 56.8242 4.03912 57.0015 3.86845 57.0015C3.7726 56.9882 3.67762 56.9693 3.58401 56.9448C3.24445 56.9448 2.90312 57.0015 2.61867 57.0015C1.93778 57.0015 1.14134 56.9448 0.460451 56.9448C0.306036 57.4017 0.229129 57.8811 0.232896 58.3633C0.232896 58.874 0.289785 59.3829 0.289785 59.8935C0.289785 60.3475 0.062229 60.4042 0.062229 60.9698C0.062229 61.1472 0.240007 61.3103 0.240007 61.4805C0.21979 61.5266 0.188407 61.5669 0.148685 61.5978C0.108962 61.6288 0.0621466 61.6494 0.0124512 61.6578C0.0135107 62.812 0.0728451 63.9654 0.190229 65.1137C0.304007 66.0765 1.09867 66.2467 1.95201 66.2467C3.48445 66.2467 4.56534 66.1333 6.78045 66.1333C9.16623 66.1333 11.7245 65.9081 11.8933 66.7007L11.8738 66.6865ZM15.0756 86.8756C15.1177 86.9406 15.1735 86.9957 15.2391 87.0369C15.1965 87.1469 15.1573 87.2586 15.12 87.3703C14.974 87.3702 14.8295 87.3991 14.6948 87.4555C14.5602 87.5118 14.4382 87.5944 14.336 87.6983C14.2929 87.7419 14.2525 87.788 14.2151 87.8366C13.9182 87.8366 13.7689 87.7692 13.7689 87.6114C14.1671 87.3277 14.5085 86.9891 15.0756 86.8756ZM13.8311 76.7314C13.6036 76.7314 13.6036 76.5541 13.6036 76.3342C13.6036 75.7118 14.0018 75.7686 14.6827 75.7686C14.6827 76.1072 14.9102 76.164 14.9102 76.4477C14.9102 76.4477 14.0587 76.7314 13.8311 76.7314ZM13.7742 88.9147C13.7742 89.3686 13.5965 89.4821 13.2071 89.4821C13.4329 89.2551 13.2071 88.9147 13.7742 88.9147ZM18.2382 65.6066C17.7831 65.6066 17.8969 65.4932 17.8969 65.2094C18.2951 65.2094 18.2382 65.2094 18.2382 65.6066ZM18.0605 66.9666C18.0605 67.4773 17.8329 67.7025 17.4916 67.816C16.9245 67.816 16.7538 67.5323 16.7538 66.9099C16.8107 66.9099 16.8676 66.9666 16.9316 66.9666C17.3867 66.9666 17.4987 66.5127 17.7831 66.5127C17.8969 66.5127 18.0676 66.6262 18.0676 66.9666H18.0605ZM12.032 61.8245V61.8369C11.9878 61.8331 11.9439 61.8266 11.9005 61.8174H12.0249L12.032 61.8245ZM19.3138 96.0392C19.136 96.0392 19.136 95.9257 19.136 95.9257C19.0791 95.9257 19.024 96.1527 18.7396 96.1527C18.5596 96.1437 18.3809 96.1169 18.2062 96.0729C18.339 96.0068 18.4626 95.924 18.5742 95.8264C18.7819 95.6397 18.9458 95.4097 19.0542 95.1527C19.3282 95.1775 19.6026 95.1094 19.8329 94.9594C19.9601 94.8858 20.0737 94.791 20.1689 94.6792C20.2193 94.6689 20.2692 94.6559 20.3182 94.6402C20.4356 94.8214 20.5013 95.031 20.5085 95.2466C20.1689 95.642 19.7707 96.0392 19.3156 96.0392H19.3138ZM20.9636 60.734C21.1482 60.7403 21.3267 60.8021 21.4756 60.9113C21.4756 61.406 21.12 61.5443 20.6862 61.6082C20.5511 61.539 20.4178 61.4681 20.2845 61.3954C20.293 61.2207 20.368 61.0557 20.4942 60.9342C20.6203 60.8126 20.7882 60.7436 20.9636 60.7411V60.734ZM6.02134 62.2146C6.24712 62.2146 6.19912 62.3281 6.19912 62.4983C6.19912 63.1224 6.99379 62.8955 6.99379 63.5179C6.14223 63.5179 6.02845 63.1792 6.02845 62.2146" fill="#155B11"/>
<path d="M41.2658 96.4949C41.3949 96.5446 41.5282 96.5826 41.664 96.6084C41.8418 96.6084 41.664 96.4311 42.5725 96.4311C44.5049 96.4311 44.6187 96.4878 44.6187 96.7148C44.8463 96.7148 45.1858 96.4878 45.8116 96.4878C47.2338 96.4878 48.8231 96.6013 50.1867 96.6013C52.064 96.6157 53.9353 96.3893 55.7547 95.9275C55.9823 95.9275 56.096 96.1545 56.4925 96.1545C56.72 96.0977 57.0614 95.7573 57.2889 95.7573C57.4027 95.7573 57.4667 95.9346 57.6285 95.9346C57.6285 95.6509 58.7662 95.4257 58.7662 95.4257H59.1627C60.3574 95.3672 61.3227 94.4044 61.664 94.3476C61.7778 94.4044 62.0036 93.9522 62.0605 93.9522C63.4827 93.7749 63.9929 92.7607 64.3911 92.422C65.4702 92.1383 66.0391 90.6648 66.0391 90.6648C66.3662 90.3847 66.6951 90.1329 66.7982 89.3935C68.1547 87.9483 67.9698 85.4181 68.0427 83.5864C68.0569 83.3881 68.0104 83.1903 67.9094 83.019V81.3717C67.9094 80.7476 67.2285 78.8769 66.6649 78.5347C66.6507 78.5808 66.6347 78.6251 66.6169 78.6677C66.614 78.196 66.4525 77.7389 66.1582 77.3697C66.1901 77.3198 66.2264 77.273 66.2667 77.2296C65.5858 76.437 64.6187 75.1338 64.6187 75.0203C64.6756 74.6231 65.8631 72.6407 65.8631 72.5272C66.2027 72.0166 66.3734 70.7133 66.4302 70.7133V70.8268C66.4755 70.7602 66.4956 70.6798 66.4871 70.5998C66.4871 70.4225 66.4302 70.2594 66.4302 70.0909C66.6089 69.3286 66.7042 68.5492 66.7147 67.7663C66.7147 66.8035 66.4302 66.1705 66.4302 65.3868C66.4302 64.4239 65.4649 62.6667 65.4649 62.4398C65.4649 62.383 65.5218 62.2625 65.5218 62.2128C65.2942 62.2128 65.2942 62.1561 65.2942 62.0993V61.8724C65.2942 61.7607 63.1911 59.2126 61.8845 58.2463C61.4311 57.9058 60.4622 57.3402 60.1245 57.3402C57.5111 56.4891 59.4987 56.8863 56.544 56.3756C56.0907 56.3756 55.8631 56.6026 55.408 56.6026C55.408 56.2621 53.7031 56.3189 53.1929 56.3189C52.0551 56.3189 50.8623 56.3756 49.7831 56.3756C49.193 56.3547 48.6047 56.2984 48.0214 56.2072C47.9757 56.2071 47.9318 56.2246 47.8987 56.2559C47.8656 56.2873 47.8459 56.3301 47.8436 56.3756C47.0489 56.4323 46.1405 56.4323 45.2871 56.4323C44.5647 56.4191 43.8438 56.3598 43.1289 56.255C43.072 56.255 42.9511 56.4323 42.8445 56.4323C42.7486 56.419 42.6536 56.4001 42.56 56.3756C42.2405 56.4228 41.9175 56.4417 41.5947 56.4323C40.912 56.4323 40.288 56.5458 39.7191 56.5458C38.3556 56.5458 37.6747 56.7728 37.6747 58.9272C37.6747 59.2658 37.7885 59.663 37.7885 59.9467C37.7885 61.023 37.504 61.4202 37.504 62.2128C37.504 63.0054 37.7316 63.2891 37.7316 63.5161C37.7316 63.8565 37.504 64.6491 37.504 65.2733C37.504 66.0109 37.7316 66.5765 37.7316 66.8603C37.7316 67.3142 37.3903 67.2007 37.3903 67.2574C37.3903 67.3709 37.6178 67.2574 37.6178 67.9933C37.6178 68.504 37.5609 69.2345 37.5609 69.2966C37.5609 72.0733 37.6747 75.304 37.6747 78.3645C37.6747 81.0242 37.6178 83.5775 37.6178 85.5599C37.6178 85.7869 37.6747 86.0138 37.6747 86.1841C37.6178 86.5812 37.5609 86.8082 37.5609 86.9217C37.5609 87.3738 37.8454 88.2249 37.8454 88.6771C37.8454 88.6771 37.504 88.8544 37.4471 89.0175C37.6747 89.0175 37.7316 89.4715 37.7316 89.6984C37.7316 89.9804 37.6747 90.2641 37.6747 90.5478C37.6747 91.0584 37.7316 91.9663 37.7316 92.7571C37.7316 93.665 37.3903 94.4008 37.3903 94.5143C37.3903 94.6278 37.6747 94.6278 37.6747 94.6278C37.6178 94.9682 37.6747 95.252 37.4471 95.4222C37.9574 95.7041 38.0143 96.3283 38.7538 96.3283C39.7191 96.3283 40.5725 96.5552 40.8551 96.5552C40.9689 96.5552 41.0827 96.4985 41.2534 96.4985L41.2658 96.4949ZM46.7076 86.7461V80.3983C47.2196 79.8894 48.1849 80.0578 48.8676 79.9461C48.8676 79.9337 48.8676 79.9231 48.8676 79.9106C49.7292 79.8681 50.5885 79.8545 51.4454 79.8699C51.4909 79.9209 51.5436 79.9651 51.6018 80.0011C51.791 79.9759 51.9781 79.9374 52.1618 79.8858C52.7485 79.9053 53.3351 79.9372 53.92 79.9763C54.3005 80.072 55.1911 80.1429 55.2943 80.3983C55.3882 80.3618 55.4777 80.3148 55.5609 80.2582C56.0325 80.5337 56.5219 80.7778 57.0258 80.9887C57.9947 81.4302 58.4356 82.0384 58.8036 83.0473C58.8594 83.2121 58.8952 83.383 58.9102 83.5562C58.8196 83.7814 58.7858 84.3666 58.7734 84.8116C58.6516 85.2671 58.4238 85.6875 58.1085 86.0387C58.0341 86.1134 57.9545 86.1827 57.8702 86.2461L57.8578 86.2355C57.2338 86.5192 56.4356 86.6894 55.9271 86.8596C55.8928 86.8727 55.8618 86.8933 55.8365 86.9199C55.5591 86.9465 55.2889 86.9571 55.04 86.9571C54.8724 86.9631 54.7083 87.0067 54.56 87.0848C54.1262 87.0759 53.7014 86.982 53.4827 87.1983C53.3138 87.3756 53.1431 86.9731 53.0294 86.9731C52.9725 86.9731 52.9156 87.0848 52.9156 87.1416C50.6987 87.255 48.0854 87.3685 47.4614 87.3685C47.2338 87.1416 46.7787 87.1912 46.7218 86.7461H46.7076ZM40.7005 76.0913C40.7556 76.4317 41.04 76.5452 41.04 76.9991C40.8125 77.2811 40.0747 77.1764 39.5627 77.2243C39.5492 77.1293 39.5302 77.0352 39.5058 76.9424C39.5058 76.2615 40.0178 76.0913 40.7005 76.0913ZM49.76 72.7347C49.8283 72.6048 49.9303 72.4956 50.0554 72.4185C50.1805 72.3415 50.3241 72.2994 50.4711 72.2967C50.4711 72.5042 50.6187 72.4581 50.7343 72.5077C50.4083 72.5787 50.0836 72.6543 49.76 72.7347ZM48.7823 73.9209C48.7814 73.9238 48.7814 73.9269 48.7823 73.9298C48.614 73.7924 48.4549 73.6444 48.3058 73.4865C48.3246 73.4662 48.3448 73.4473 48.3663 73.4298C48.5141 73.585 48.6524 73.7491 48.7805 73.9209H48.7823ZM64.7662 91.0868C64.8214 91.0265 64.8747 90.9645 64.9298 90.9095C64.8965 90.9882 64.8475 91.0594 64.7858 91.1187C64.7858 91.1099 64.7716 91.1028 64.7662 91.0939V91.0868ZM61.2107 67.8266C61.2107 68.2061 60.9885 68.3586 60.6951 68.4188C60.6762 68.2096 60.6495 67.9986 60.6151 67.7858C60.6804 67.7758 60.7464 67.7704 60.8125 67.7699C60.9262 67.7699 61.0969 67.8266 61.2107 67.8266ZM55.9271 65.2201C56.7787 66.1829 57.744 65.674 57.744 67.9968C57.744 69.1299 56.4996 69.6973 56.4996 70.0945C55.2551 70.9438 52.9778 71.3977 50.3645 71.3977C49.6818 71.3977 48.8871 71.1708 48.3183 71.1708C48.2045 71.1708 47.9769 71.3481 47.6943 71.3481C47.4667 71.3481 47.3529 71.1708 47.0685 71.1708C46.9656 70.8457 46.8912 70.5122 46.8463 70.1743C46.8178 69.8764 46.7805 69.5803 46.7396 69.2877C46.6951 68.8267 46.6703 68.3674 46.6703 68.0004C46.6703 66.2432 47.0116 65.3939 48.4889 65.3939C48.8871 65.3939 49.2267 65.4506 49.6249 65.4506C49.8027 65.4506 49.8027 65.2733 49.8525 65.2733C50.0303 65.2733 50.0303 65.557 50.6471 65.557C50.6471 65.3797 51.0454 65.3797 51.3867 65.3797C51.5645 65.3797 51.6143 65.557 51.728 65.557C51.6711 65.4435 52.0676 65.3797 52.6934 65.3797C52.9778 65.3797 53.3191 65.4364 53.6587 65.4364C54.4231 65.454 55.1867 65.3777 55.9325 65.2094" fill="#155B11"/>
<path d="M91.9983 96.8336C92.1569 96.8296 92.3136 96.8688 92.4516 96.9471C93.0205 95.9842 96.032 96.2679 97.0543 95.587C97.168 95.5303 97.168 95.2484 97.2818 95.1916C97.3387 95.1916 97.3956 95.2484 97.5094 95.2484C99.1094 95.2484 100.236 93.5479 100.354 93.5479C100.864 93.5479 100.354 93.321 100.978 93.321C101.433 93.321 104.274 90.147 104.444 89.9768C104.729 89.5814 105.637 88.2214 105.751 88.2214C105.751 88.1079 105.694 87.9377 105.694 87.8242C105.694 87.5972 105.922 87.7107 106.092 87.5405C106.27 87.3135 106.377 86.4642 106.489 86.1805C106.52 86.2113 106.56 86.2312 106.603 86.2372C106.66 86.2372 106.66 86.0103 106.66 85.8968C106.66 85.7195 107.001 85.7195 107.058 85.6698C107.399 84.48 108.194 82.4409 108.194 81.4142C108.194 81.0756 108.137 80.7351 108.137 80.3947C108.251 80.3947 108.364 80.1677 108.364 79.9975C108.364 79.5453 108.137 79.2049 108.137 79.0914C108.194 78.6942 108.592 77.9584 108.592 76.4849C108.592 74.6709 108.364 72.7453 107.966 71.9509C107.966 71.724 108.194 71.4988 108.194 71.3853C107.796 70.0253 106.036 64.8105 105.865 64.8105C105.871 64.748 105.89 64.6875 105.922 64.6331C105.012 64.181 104.444 62.7075 104.217 62.3671C103.591 61.5177 101.55 59.53 100.069 58.9661L100.011 58.9945C99.9734 58.9661 99.936 58.936 99.8934 58.9094C99.5508 58.7003 99.1619 58.5785 98.7609 58.5548C98.7609 58.5034 98.7609 58.4519 98.7609 58.3952C98.3627 57.7143 97.056 57.5441 96.8854 57.4891C93.5912 56.5245 92.6809 56.0156 89.216 56.0156C88.8978 56.0073 88.5833 56.0851 88.3058 56.2408C88.08 56.2408 88.0232 56.0724 87.7387 56.0724C86.3165 56.0724 84.5565 56.7515 84.4996 56.7515C83.9307 56.7515 84.272 56.9288 83.9307 56.9288C83.7529 56.9288 83.5912 56.8721 83.3636 56.8721C82.9085 56.8721 81.9414 57.6079 81.6587 57.7781C81.3174 57.9554 80.4658 58.1186 79.7831 58.6292C79.6143 58.686 79.5574 59.0814 79.3867 59.1949C77.3405 60.2162 79.2089 58.686 76.1476 61.7464C75.4098 62.4823 75.6356 62.2553 74.0463 64.4062C73.5912 65.0286 73.8685 65.4257 73.1929 66.1049C73.0151 66.502 73.136 66.956 73.0151 67.2397C71.7707 68.4809 71.6516 72.5591 71.6516 74.4351V75.3589C71.6516 76.038 71.4738 76.6001 71.4738 76.8324C71.9289 76.9459 71.9289 77.1711 71.9289 77.5115C71.9289 77.9655 71.8151 78.4761 71.8151 78.8715C71.8151 79.267 72.2134 79.6659 72.2134 80.0613C72.2134 80.2386 71.9858 80.4018 71.9858 80.6855C71.9858 81.1394 72.2703 81.9887 72.4409 82.104C72.4069 82.1751 72.3875 82.2523 72.384 82.331C72.384 83.2938 72.8374 85.2212 73.1787 85.6734C73.6338 86.184 73.2925 86.6947 73.9183 87.3171C74.5992 88.5069 74.2009 88.5068 75.4507 89.7534C75.5782 90.0121 75.6921 90.2772 75.792 90.5477C76.816 92.1436 78.6898 93.4947 78.7467 93.7217H80.0534C79.9705 93.8363 79.9303 93.9761 79.9396 94.1171C79.9396 95.4771 86.8729 97.0641 89.8258 97.0641C90.6792 97.0641 91.5876 96.8371 91.9858 96.8371L91.9983 96.8336ZM101.764 81.0277C101.586 81.0277 101.365 80.971 101.195 80.971C101.252 80.744 101.65 80.4603 101.934 80.4603C102.048 80.4603 102.112 80.4603 102.16 80.5738C102.16 80.9142 101.982 81.0277 101.764 81.0277ZM92.9565 64.4239C93.4685 64.4239 94.0356 64.3672 94.0356 64.8193C94.0356 65.103 93.7512 65.2165 93.4685 65.2165C93.397 65.2228 93.3249 65.2144 93.2568 65.1918C93.1886 65.1691 93.1259 65.1326 93.0725 65.0847C93.0192 65.0368 92.9763 64.9784 92.9465 64.9133C92.9167 64.8481 92.9008 64.7775 92.8996 64.7058C92.8908 64.6083 92.9105 64.5104 92.9565 64.4239ZM84.6614 66.3495C86.3094 64.7058 89.7743 65.1598 90.2294 65.1598C90.5138 65.1598 91.024 65.3867 91.2516 65.3867C91.4294 65.3867 91.5929 65.2094 91.8774 65.2094C93.4685 65.2094 98.0125 68.1564 98.0125 69.2877C98.0125 69.1742 98.6383 70.8746 98.9796 71.7807C98.9796 71.8375 98.9227 71.958 98.9227 72.0077C98.9227 72.1212 99.1005 72.4049 99.1503 72.6886C99.1259 72.7814 99.1069 72.8755 99.0934 72.9705C99.0934 73.1478 99.3209 73.2542 99.3209 73.5379C99.3209 73.7649 99.1432 73.7649 99.1432 73.9351C99.1432 74.2188 99.3689 74.0486 99.3689 74.6142C99.3689 74.9547 99.3138 75.3518 99.3138 75.6923C99.3138 76.2012 99.5396 76.3147 99.5396 76.7118C99.4901 76.7202 99.4435 76.7409 99.4041 76.7718C99.3646 76.8028 99.3336 76.8431 99.3138 76.8892C99.3138 77.0665 99.3689 77.3413 99.3689 77.5115C99.3689 78.0222 98.7449 82.7264 98.4036 82.7264C98.4036 83.519 97.2676 84.0864 97.2676 84.7655C96.416 85.7283 94.9956 86.466 94.9956 86.466C94.7111 86.6433 94.5405 86.9748 94.4267 87.0316C93.744 87.4288 92.4943 87.8827 91.4152 87.8827C91.1876 87.8827 91.3014 87.7054 91.2374 87.7054C91.1734 87.7054 90.1583 88.1026 89.7031 88.1026C88.5103 88.1026 87.0898 87.4784 86.1814 87.4784C86.0461 87.4693 85.9105 87.4887 85.7832 87.5352C85.7832 87.4217 84.8747 86.7993 84.8178 86.7426C84.7242 86.767 84.6292 86.786 84.5334 86.7993C84.5039 86.7972 84.4761 86.7846 84.4552 86.7638C84.4343 86.7429 84.4217 86.7152 84.4196 86.6858L84.3058 86.6291C84.0654 86.5972 83.8446 86.4802 83.6836 86.2993C83.5378 86.122 83.3832 85.9446 83.2409 85.801C82.2703 84.5403 81.2854 82.2813 81.2854 82.3221C81.2854 82.1448 81.3991 82.1448 81.3991 81.9817C81.3991 82.0384 80.832 80.1677 80.832 79.3751C80.832 79.1482 80.8889 78.8645 80.8889 78.6942L80.6614 77.5612C80.6614 77.2775 80.8889 77.2207 80.8889 76.9956C80.6045 76.7118 80.4907 76.2579 80.4907 75.5221C80.4907 74.1035 80.6045 72.2346 80.8889 71.2151C80.8889 71.1583 81.0667 71.1583 81.0667 70.9881C81.0394 70.857 81.0204 70.7244 81.0098 70.5909C81.0189 70.5291 81.0381 70.4692 81.0667 70.4136C81.6338 70.0182 82.0889 67.9773 82.2027 67.9773V68.034C83.3956 66.901 84.2472 66.5038 84.6454 66.3336L84.6614 66.3495ZM76.3734 64.0799C77.1112 64.0799 77.2249 64.8158 77.7369 64.8158C78.0783 64.8158 78.1352 64.5888 78.4178 64.5888C78.7005 64.5888 78.7023 64.8725 78.7023 64.9293L77.6232 65.6066C77.4454 65.0959 76.1458 65.2094 76.1458 64.642C76.1458 64.3601 76.3236 64.2466 76.3734 64.0764V64.0799ZM75.9894 67.9773C75.9894 67.9862 76.0036 67.9915 76.0285 67.9915C75.9549 67.9938 75.8818 68.0027 75.8098 68.0181V67.9915C75.8693 67.9912 75.9288 67.9865 75.9876 67.9773H75.9894ZM73.36 75.9246C73.1823 75.9246 73.1325 75.7561 73.1325 75.5859C73.1325 75.4157 73.1894 75.132 73.1894 74.9617C73.4738 74.9617 73.7583 75.0752 73.7583 75.5292C73.7649 75.5828 73.7592 75.6373 73.7415 75.6884C73.7239 75.7396 73.6947 75.786 73.6563 75.8242C73.6178 75.8623 73.5712 75.8912 73.5198 75.9086C73.4685 75.926 73.4138 75.9315 73.36 75.9246Z" fill="#155B11"/>
<path d="M142.923 44.7561C142.669 44.7052 142.421 44.6291 142.183 44.5291C142.014 44.5291 141.957 44.7561 141.787 44.7561C141.388 44.7561 141.502 44.4156 141.388 44.4156C141.332 44.4156 141.275 44.6426 140.763 44.6426C140.366 44.6426 139.74 44.5291 139.57 44.5291C139.285 44.5859 139.06 44.7064 138.775 44.7064C138.709 44.7013 138.645 44.6829 138.586 44.6524C138.528 44.622 138.476 44.58 138.434 44.5291C137.808 45.0398 137.753 46.1161 137.07 46.625C135.826 47.6463 134.628 48.0435 132.524 48.0435C131.73 48.0435 130.924 47.9868 130.366 47.93C130.082 47.93 130.025 47.5914 129.797 47.5346C129.797 47.7616 129.003 47.3077 128.775 47.1942C127.412 46.4565 126.729 44.7579 125.991 44.7579C125.629 44.7652 125.268 44.8032 124.912 44.8713H123.15C123.036 44.8713 122.866 45.0487 122.638 45.0487C122.299 45.0487 121.787 44.765 121.559 44.765C120.366 44.765 119.968 44.9423 119.968 46.3608C119.968 46.4175 119.968 46.4725 120.025 46.4725C120.082 46.4725 120.139 46.4175 120.203 46.4175C120.203 48.2864 121.396 48.7404 121.68 49.6464C121.68 49.7032 123.328 52.0828 123.612 52.0828C123.838 52.0828 124.236 52.6502 124.857 52.8204C125.31 52.9339 126.391 53.4995 127.755 53.84C127.98 53.8967 128.436 54.1237 128.606 54.1237C129.97 54.2371 131.451 54.5208 132.811 54.5208C133.947 54.5208 136.334 53.8399 137.47 53.7832C138.948 53.3311 139.913 53.0473 141.049 52.253C141.106 52.253 143.662 50.2139 143.662 49.2493C143.662 49.1376 143.719 49.1375 143.776 49.1375C144.402 49.1375 144.8 46.1338 144.8 45.8501C144.802 45.5393 144.741 45.2313 144.622 44.944C144.342 44.7958 144.029 44.7179 143.712 44.7171C143.428 44.7171 143.202 44.7738 142.917 44.7738L142.923 44.7561ZM124.508 48.8521C124.508 48.5116 124.508 48.5116 124.85 48.5116C124.85 48.8521 124.85 48.8521 124.508 48.8521ZM138.087 51.7423C137.86 51.7375 137.64 51.6577 137.463 51.5153C137.463 51.0614 137.577 51.0614 137.641 50.7777C137.98 50.955 138.436 50.955 138.436 51.5153C138.436 51.7423 138.258 51.7423 138.094 51.7423" fill="#155B11"/>
<path d="M124.741 95.6438C124.741 95.5871 124.684 95.5871 124.684 95.4665C124.684 95.3459 124.862 95.0711 125.593 94.3335V94.3902C125.65 94.3902 128.206 91.0478 128.437 90.1967C128.437 89.3474 129.744 89.0637 130.085 87.9306C130.711 87.3065 130.263 87.6469 131.051 86.4571C131.108 86.3436 132.528 85.0386 132.528 84.6432C132.528 84.5864 133.664 83.5669 133.664 83.0562C133.664 82.4338 135.198 81.0738 135.369 80.6199C136.393 79.3166 136.676 78.4106 137.074 78.0134C137.586 77.3325 139.573 74.2171 140.256 74.2171C140.434 74.2171 140.823 74.2171 140.823 74.6125C140.823 78.9195 140.37 85.2673 140.37 89.7446C140.37 90.2534 140.597 90.9343 140.597 91.5C140.597 92.4646 140.42 93.4841 140.42 94.337C140.42 96.7751 140.873 96.8301 142.464 96.8301C143.26 96.8301 144.064 96.7751 144.964 96.7751C145.703 96.7751 146.498 96.8868 147.18 96.8868C149.623 96.8868 149.737 95.6456 149.737 92.9203C149.737 91.0514 149.68 89.0672 149.68 87.4802C149.695 87.1758 149.733 86.8729 149.794 86.5742C149.794 86.5174 149.509 86.3968 149.509 85.8365C149.509 85.0439 149.851 83.7407 149.851 83.6272C149.851 74.9565 150.532 66.2858 150.532 58.5796C150.539 58.1718 150.462 57.7668 150.306 57.3899C149.282 56.709 145.76 56.6522 143.55 56.6522C141.563 56.6522 139.858 57.842 139.858 58.4094C139.87 58.5043 139.888 58.5985 139.911 58.6913C139.399 58.6913 137.244 61.977 137.244 62.2607C137.244 62.204 137.244 62.204 137.188 62.204C137.01 62.204 135.765 64.2449 135.765 64.5286C135.652 64.8672 133.833 66.2272 133.833 67.0784C133.833 67.1351 133.89 67.2557 133.89 67.3053C132.868 68.3249 132.242 69.4579 131.959 69.7416C131.675 70.364 129.742 72.5184 129.344 73.311C129.299 73.4478 129.242 73.5807 129.175 73.7082C128.948 74.1054 127.186 76.5452 127.072 76.4849C126.334 77.4477 124.971 80.5082 123.833 80.5082C123.436 80.5082 123.38 80.2245 123.38 79.9426C123.38 78.3556 123.557 76.5984 123.557 74.9547C123.557 72.9705 123.5 70.9882 123.5 69.004C123.5 66.284 123.728 63.6207 123.728 60.9574C123.728 57.5565 123.273 57.1044 121.113 57.1044C119.691 57.1044 116.284 57.1044 114.864 57.3881C114.864 57.5016 114.864 57.5565 114.75 57.5565C114.466 58.4644 114.466 59.3705 114.466 60.2783C114.466 61.2979 114.523 62.3174 114.523 63.337C114.523 64.8672 114.295 66.3407 114.295 67.8709C114.295 76.5984 113.899 84.9854 113.899 93.5426C113.899 93.8831 113.956 94.165 113.956 94.5055C113.956 94.7892 113.899 95.0161 113.899 95.2998C113.899 96.541 114.921 96.8283 115.772 96.8283C122.988 96.8283 124.75 95.8655 124.75 95.6385L124.741 95.6438ZM144.807 90.7659H144.58V90.5886C144.58 90.4751 144.636 90.3616 144.976 90.3616C144.976 90.702 144.919 90.7588 144.798 90.7588L144.807 90.7659ZM147.582 58.6913C147.865 58.8687 147.865 59.3137 147.979 59.5974H147.022C147.022 59.03 147.534 59.1435 147.591 58.6913H147.582ZM145.692 60.0939C145.692 60.0602 145.682 60.0265 145.678 59.9928H145.716C145.711 60.0266 145.703 60.0598 145.692 60.0921V60.0939ZM119.339 72.6283C119.283 72.6263 119.228 72.6127 119.178 72.5883C119.127 72.564 119.083 72.5294 119.047 72.4869C119.01 72.4443 118.984 72.3947 118.968 72.3412C118.952 72.2877 118.947 72.2315 118.955 72.1762C118.955 72.0627 119.012 71.9492 119.012 71.8357C119.126 71.8325 119.24 71.848 119.349 71.8818C119.349 72.1301 119.349 72.3801 119.339 72.6283ZM119.358 71.4155L119.18 71.4403C119.124 71.0999 118.839 70.9864 118.839 70.5325C119.013 70.6072 119.199 70.6487 119.388 70.6548C119.374 70.9078 119.364 71.1613 119.356 71.4155H119.358ZM130.133 85.4819C130.213 85.3897 130.295 85.3046 130.379 85.2071C130.318 85.3154 130.234 85.4092 130.133 85.4819ZM125.02 81.9356C125.701 81.9356 125.758 82.0491 125.758 82.3328V82.3576C125.727 82.3868 125.699 82.4182 125.673 82.4516C125.604 82.542 125.495 82.6555 125.376 82.7796C125.102 82.7477 124.964 82.581 124.964 82.276C124.955 82.1596 124.974 82.0428 125.02 81.9356ZM118.713 68.2823C118.94 68.2823 118.997 68.2823 118.997 68.6228C118.997 68.8001 118.94 68.848 118.428 68.848C118.428 68.3391 118.485 68.2823 118.713 68.2823ZM118.258 62.8423C118.258 63.0196 118.144 63.0693 117.975 63.0693C117.748 63.0693 117.52 63.0125 117.292 63.0125C117.292 62.7856 117.975 62.8352 118.258 62.8352V62.8423ZM120.304 89.4697C120.298 89.3669 120.317 89.2641 120.358 89.1696C120.399 89.0751 120.461 88.9915 120.54 88.9254C120.637 88.9879 120.742 89.0374 120.852 89.0725C120.832 89.2055 120.818 89.3385 120.809 89.4733C120.72 89.5063 120.626 89.5242 120.532 89.5265C120.475 89.5265 120.354 89.4697 120.304 89.4697Z" fill="#155B11"/>
<path d="M35.2838 135.809C35.2831 135.827 35.2801 135.845 35.2747 135.862C35.2747 135.862 35.2747 135.862 35.2838 135.862V135.809Z" fill="#155B11"/>
<path d="M12.7272 145.556C12.7272 145.567 12.7272 145.602 12.7165 145.657C12.7165 145.657 12.7165 145.67 12.7272 145.67V145.556Z" fill="#155B11"/>
<path d="M25.9094 150.261C25.9094 150.247 25.9094 150.231 25.9201 150.214L25.9094 150.204V150.261Z" fill="#155B11"/>
<path d="M34.544 113.879C34.095 113.679 33.6128 113.564 33.1218 113.538C28.5209 113.538 24.2027 113.085 19.3156 113.085C16.816 113.085 14.3165 113.198 11.8169 113.198C11.7031 113.198 11.76 113.085 11.7031 113.085C9.65691 113.085 6.58846 113.311 4.48713 113.879C3.91824 115.012 3.86135 116.372 3.86135 117.675C3.86135 117.902 3.91824 118.186 3.91824 118.413C3.91824 119.376 3.6338 120.282 3.6338 121.073C3.6338 121.186 3.69069 121.129 3.69069 121.356C3.67368 121.739 3.61405 122.119 3.51291 122.489C3.51291 122.546 3.69069 122.489 3.69069 122.667C3.69069 123.97 3.74758 125.216 3.74758 126.463C3.74758 127.881 3.52002 129.353 3.52002 130.77C3.74758 130.77 3.74758 132.639 3.74758 133.263C3.74758 134.169 3.52002 135.077 3.52002 135.983C3.52002 136.21 3.6978 136.16 3.6978 136.494C3.6978 136.889 3.52002 137.003 3.52002 137.23C3.52002 137.683 3.86135 138.419 3.86135 139.214C3.86135 140.857 3.40802 142.726 3.40802 143.01C3.40802 143.859 3.6338 144.654 3.6338 145.503C3.6338 147.033 3.46491 148.564 3.46491 150.037C3.45264 150.817 3.52838 151.596 3.69069 152.36C4.5625 152.575 5.45966 152.67 6.35735 152.644C7.23582 152.627 8.11104 152.532 8.97247 152.36C9.31202 152.36 9.76713 152.417 10.1085 152.417C10.7325 152.417 10.5618 152.191 10.7325 152.191C10.9031 152.191 11.0738 152.369 11.1876 152.369C11.5763 152.371 11.9514 152.226 12.2365 151.963C12.5215 151.699 12.6951 151.337 12.7218 150.95C12.7218 150.668 12.608 150.893 12.608 150.441C12.608 150.214 12.6649 149.874 12.6649 149.76C12.608 149.533 12.5511 149.422 12.5511 149.363C12.5511 149.477 12.6649 147.891 12.8356 147.891C12.8356 147.608 12.608 147.551 12.608 147.097C12.611 146.619 12.6454 146.142 12.7111 145.668C12.6507 145.537 12.544 144.487 12.4374 144.427C12.6151 144.37 12.8925 143.237 12.8925 141.139C12.8925 140.233 12.8356 139.327 12.8356 138.419C12.8356 136.889 13.0134 135.416 13.0134 133.999C13.0134 132.47 12.8356 129.24 12.672 129.24C12.672 128.729 13.0134 128.786 13.0134 128.559C13.0134 128.382 12.8356 128.559 12.8356 128.334C12.8356 126.803 12.7787 125.33 12.7787 124.078C12.7787 123.113 13.1769 122.264 14.4836 122.264C14.6546 122.273 14.825 122.292 14.9938 122.321C15.1076 122.321 14.9369 122.264 15.392 122.264C16.4711 122.264 17.7778 122.491 19.0845 122.491C20.2774 122.491 21.472 122.434 22.608 122.434C24.5956 122.434 26.1298 122.151 26.1298 124.473C26.1298 127.704 25.6196 129.97 25.6196 130.538C25.6196 131.048 25.7334 131.779 25.7334 131.841C25.6816 131.988 25.6435 132.14 25.6196 132.295C25.6196 133.536 25.904 134.334 25.904 135.072C25.904 135.637 25.7262 135.921 25.7262 136.034C25.7262 136.212 25.904 136.212 25.904 136.375C25.904 136.715 25.7262 136.941 25.7262 137.111C25.7262 137.167 25.904 137.288 25.904 137.451C25.9116 137.475 25.9094 137.5 25.8981 137.522C25.8868 137.544 25.8672 137.561 25.8436 137.568C25.82 137.576 25.7944 137.574 25.7724 137.562C25.7504 137.551 25.7338 137.531 25.7262 137.508C25.7187 137.508 25.7112 137.509 25.7042 137.512C25.6972 137.515 25.6908 137.519 25.6855 137.524C25.6801 137.529 25.676 137.536 25.6732 137.543C25.6704 137.55 25.6691 137.557 25.6694 137.565C25.6694 138.244 26.0658 139.492 26.0658 140.285C26.0658 141.077 25.8382 141.758 25.8382 142.269C25.8382 142.608 26.0658 142.721 26.0658 143.118C26.0658 143.402 25.8969 143.515 25.8969 143.686C25.8969 144.705 26.2934 146.744 26.2934 147.255C26.0089 147.255 26.0089 147.709 26.0089 147.879C26.0089 148.501 26.2934 149.012 26.2934 149.298C26.08 149.298 25.9662 149.947 25.9076 150.214C25.9734 150.312 26.1334 151.167 26.2934 151.167C26.0658 151.393 26.0089 151.507 26.0089 151.677C26.0089 152.583 26.976 152.413 27.4311 152.527C27.6089 152.527 27.5449 152.704 27.6587 152.704C28.7378 152.704 30.272 152.647 30.6134 152.647C30.9547 152.647 31.8578 152.59 32.4889 152.59C34.0231 152.59 35.4436 152.534 35.4436 150.211C35.4436 150.097 35.3298 150.097 35.2658 150.097V147.086C35.2658 147.03 35.4436 147.03 35.4436 146.86C35.4436 146.746 35.216 146.18 35.216 145.618C35.216 144.939 35.2729 144.655 35.4436 144.655C35.4436 144.258 35.2658 143.749 35.2658 143.295C35.2658 143.069 35.3227 142.728 35.3227 142.671C35.3227 142.558 35.0951 141.253 35.0951 141.253C35.0951 141.206 35.1139 141.161 35.1472 141.127C35.1805 141.094 35.2258 141.076 35.2729 141.076C35.2729 139.32 35.0951 138.074 35.0951 136.6C35.1014 136.344 35.1563 136.092 35.2569 135.857C35.1947 135.795 35.0311 135.07 34.8676 135.07C34.8676 134.786 35.0951 134.616 35.0951 134.502C35.0382 133.426 34.6969 132.407 34.6969 131.843C34.6969 131.786 34.9245 131.665 34.9245 131.502C34.8917 131.299 34.8139 131.106 34.6969 130.937C34.7538 130.653 35.0382 130.596 35.0951 130.369C35.0871 129.234 35.1465 128.099 35.2729 126.97C35.2729 126.793 35.4507 126.857 35.4507 126.743C35.4507 126.566 35.2729 126.459 35.2729 126.176C35.2729 125.892 35.4507 125.949 35.4507 125.779C35.4507 125.722 35.2729 125.665 35.2729 125.665C35.2729 124.759 35.216 123.626 35.216 122.663C35.2303 122.146 35.3067 121.632 35.4436 121.133C35.4436 121.019 35.2658 120.956 35.2658 120.956C35.2658 119.879 35.4436 118.744 35.4436 117.668C35.4436 117.384 35.1591 114.494 34.5334 113.872L34.544 113.879ZM6.53335 143.517C6.53335 143.006 6.8178 142.779 7.27291 142.723C7.27291 143.233 6.98846 143.46 6.53335 143.517ZM7.11113 117.618C7.33869 117.335 7.9058 117.441 8.4178 117.392C8.4178 117.569 8.47469 117.675 8.47469 117.789C8.47469 118.186 8.19024 118.356 7.84891 118.356C7.2818 118.356 7.11113 118.243 7.11113 117.618ZM8.24713 143.517V143.29C8.24713 143.177 8.30402 143.113 8.58847 143.113C8.58847 143.453 8.64535 143.51 8.24713 143.51V143.517ZM19.2694 117.445C19.1714 117.449 19.0739 117.429 18.9849 117.388C18.9849 116.368 19.2694 115.914 20.0658 115.633C20.1081 115.74 20.1275 115.856 20.1227 115.971C20.1227 115.858 19.44 117.445 19.2694 117.445ZM29.6676 139.32C29.6676 139.207 29.7245 139.207 29.7814 139.207C30.2347 139.207 30.4622 139.263 30.4622 139.715C30.0089 139.715 29.6676 139.715 29.6676 139.32ZM32.1671 151.617C32.1102 151.617 31.9894 151.56 31.9396 151.56C31.9396 151.503 31.8827 151.383 31.8827 151.333C31.8827 151.22 31.9965 151.156 32.3378 151.156C32.3378 151.496 32.2809 151.61 32.16 151.61L32.1671 151.617ZM32.3378 150.815C32.7916 150.354 33.3605 150.022 33.9858 149.853C33.9858 150.647 33.0187 150.704 32.3378 150.815Z" fill="#155B11"/>
<path d="M77.232 128.498C77.232 128.273 77.4596 128.046 77.4596 127.933C77.0613 126.573 75.2996 121.358 75.1289 121.358C75.1361 121.299 75.1555 121.241 75.1858 121.19C74.2773 120.736 73.7084 119.262 73.4809 118.922C72.8569 118.072 70.8142 116.085 69.3333 115.523C69.2643 115.549 69.2001 115.587 69.1431 115.634C69.0987 115.595 69.0542 115.556 69.008 115.521C68.9129 115.421 68.8074 115.332 68.6933 115.255C68.4925 115.117 68.2657 115.02 68.0267 114.971V114.95C67.6302 114.271 66.3236 114.101 66.1529 114.044C62.8569 113.079 61.9484 112.57 58.4818 112.57C58.1639 112.562 57.8498 112.641 57.5733 112.797C57.3458 112.797 57.2889 112.62 57.0044 112.62C55.5822 112.62 53.8222 113.299 53.7653 113.299C53.1982 113.299 53.5396 113.476 53.1982 113.476C53.0204 113.476 52.8569 113.42 52.6293 113.42C52.176 113.42 51.2071 114.157 50.9244 114.326C50.5849 114.503 49.7316 114.666 49.0507 115.177C48.8729 115.234 48.8231 115.631 48.6524 115.744C46.608 116.764 48.4747 115.234 45.4133 118.294C44.6756 119.03 44.9031 118.803 43.312 120.954C42.8569 121.576 43.1342 121.973 42.4604 122.654C42.2827 123.05 42.4036 123.504 42.2827 123.787C41.0382 125.028 40.9191 129.107 40.9191 130.984V131.891C40.9191 132.57 40.7413 133.132 40.7413 133.364C41.1947 133.478 41.1947 133.704 41.1947 134.043C41.1947 134.497 41.0809 135.008 41.0809 135.403C41.0809 135.799 41.4791 136.198 41.4791 136.595C41.4791 136.772 41.2516 136.933 41.2516 137.217C41.2516 137.671 41.536 138.52 41.7067 138.636C41.6726 138.707 41.6533 138.784 41.6498 138.863C41.6498 139.825 42.1049 141.753 42.4462 142.207C42.8996 142.716 42.5582 143.226 43.184 143.849C43.8649 145.04 43.4684 145.04 44.7182 146.287C44.846 146.545 44.9599 146.809 45.0596 147.079C46.0818 148.675 47.9573 150.026 48.0142 150.253H49.3209C49.2379 150.369 49.1977 150.509 49.2071 150.65C49.2071 152.01 56.1404 153.596 59.0933 153.596C59.9449 153.596 60.8533 153.37 61.2516 153.37C61.4108 153.366 61.5682 153.405 61.7067 153.484C62.2738 152.519 65.2853 152.803 66.3093 152.122C66.4213 152.067 66.4213 151.784 66.5351 151.727C66.592 151.727 66.6489 151.784 66.7627 151.784C68.3538 151.784 69.4898 150.083 69.6071 150.083C70.1191 150.083 69.6071 149.856 70.2329 149.856C70.6862 149.856 73.5271 146.682 73.6978 146.514C73.9822 146.117 74.8907 144.757 75.0045 144.757C75.0045 144.643 74.9476 144.473 74.9476 144.359C74.9476 144.132 75.1751 144.246 75.3458 144.076C75.5236 143.849 75.6302 142.999 75.744 142.716C75.7747 142.746 75.8147 142.766 75.8578 142.772C75.9147 142.772 75.9147 142.545 75.9147 142.432C75.9147 142.263 76.2542 142.263 76.3111 142.207C76.6525 141.015 77.4489 138.976 77.4489 137.951C77.4489 137.611 77.392 137.27 77.392 136.93C77.5058 136.93 77.6178 136.705 77.6178 136.534C77.6178 136.08 77.392 135.74 77.392 135.627C77.4489 135.231 77.8453 134.494 77.8453 133.02C77.8453 131.206 77.6178 129.28 77.2213 128.486L77.232 128.498ZM70.8569 120.95C71.1413 120.95 71.4258 120.893 71.4258 121.346C71.312 121.346 71.1982 121.402 71.0845 121.402C70.9067 121.402 70.8569 121.291 70.8569 120.95ZM47.6302 138.306C47.5164 138.306 47.5164 138.249 47.5164 138.128C47.5164 137.731 47.9147 137.845 47.9147 137.504C47.9733 137.529 48.0248 137.567 48.0643 137.617C48.1038 137.667 48.13 137.726 48.1404 137.788C48.1321 137.92 48.0756 138.045 47.9817 138.139C47.8878 138.232 47.7628 138.289 47.6302 138.297V138.306ZM47.232 137.334C46.8338 137.334 46.7769 137.05 46.7769 136.542H47.744C47.744 136.88 47.5164 137.334 47.232 137.334ZM55.7138 151.211C55.8116 151.23 55.792 151.289 55.7138 151.211V151.211ZM49.0507 125.323C49.392 125.323 49.392 125.323 49.392 125.661C49.0507 125.661 49.0507 125.661 49.0507 125.323ZM55.3316 117.028C55.296 117.008 55.2889 116.994 55.3316 117.028V117.028ZM55.4667 144.026C55.3314 144.017 55.1957 144.036 55.0684 144.083C55.0684 143.969 54.16 143.347 54.1031 143.29C54.0095 143.315 53.9145 143.334 53.8187 143.347C53.7894 143.345 53.7618 143.332 53.7412 143.311C53.7206 143.29 53.7083 143.263 53.7067 143.233L53.5929 143.177C53.4383 143.166 53.2907 143.108 53.1698 143.012C53.0426 142.8 52.8837 142.608 52.6987 142.444C52.6253 142.381 52.5482 142.321 52.4676 142.267C51.5182 140.992 50.5813 138.825 50.5813 138.866C50.5813 138.689 50.6951 138.689 50.6951 138.526C50.6951 138.582 50.1262 136.713 50.1262 135.919C50.1262 135.692 50.1831 135.408 50.1831 135.24L49.9556 134.105C49.9556 133.823 50.1831 133.767 50.1831 133.54C49.8987 133.256 49.7849 132.802 49.7849 132.066C49.7849 130.648 49.8987 128.779 50.1831 127.759C50.1831 127.702 50.3609 127.702 50.3609 127.532C50.3336 127.401 50.3146 127.268 50.304 127.135C50.3138 127.076 50.333 127.019 50.3609 126.966C50.928 126.569 51.3831 124.528 51.4969 124.528V124.585C52.6898 123.452 53.5431 123.055 53.9396 122.885C55.5876 121.243 59.0542 121.695 59.5076 121.695C59.792 121.695 60.304 121.922 60.5316 121.922C60.7093 121.922 60.8711 121.745 61.1556 121.745C62.7467 121.745 67.2924 124.692 67.2924 125.823C67.2924 125.709 67.9165 127.419 68.2578 128.318C68.2578 128.373 68.2009 128.495 68.2009 128.543C68.2009 128.656 68.3787 128.94 68.4284 129.224C68.4039 129.317 68.3849 129.412 68.3716 129.507C68.3716 129.685 68.5991 129.789 68.5991 130.073C68.5991 130.3 68.4213 130.3 68.4213 130.47C68.4213 130.754 68.6489 130.584 68.6489 131.149C68.6489 131.49 68.592 131.887 68.592 132.227C68.592 132.736 68.8196 132.85 68.8196 133.247C68.7699 133.255 68.7231 133.276 68.6833 133.307C68.6436 133.338 68.6122 133.378 68.592 133.424C68.592 133.602 68.6489 133.878 68.6489 134.047C68.6489 134.557 68.0231 139.262 67.6836 139.262C67.6836 140.054 66.5458 140.622 66.5458 141.301C65.6942 142.265 64.2738 143.001 64.2738 143.001C63.9893 143.178 63.8187 143.512 63.7049 143.569C63.024 143.964 61.7742 144.418 60.6951 144.418C60.4676 144.418 60.5813 144.241 60.5173 144.241C60.4533 144.241 59.4364 144.638 58.9831 144.638C57.7902 144.638 56.3698 144.014 55.4596 144.014L55.4667 144.026ZM70.2898 118.909C70.5173 118.909 71.4258 118.853 71.4258 119.087C71.4258 119.654 71.1413 119.938 70.5725 119.938C70.2898 119.938 70.2329 119.711 70.2329 119.484C70.2329 119.257 70.2898 119.087 70.2898 118.916V118.909ZM45.7973 120.633C45.7422 120.693 45.6853 120.753 45.6302 120.81C45.5751 120.867 45.4844 120.987 45.4133 121.071C45.4489 120.862 45.5822 120.757 45.6302 120.61C45.6863 120.61 45.7422 120.616 45.7973 120.626V120.633ZM42.6187 132.454C42.4498 132.454 42.3929 132.277 42.3929 132.114C42.3929 131.951 42.4498 131.66 42.4498 131.49C42.7324 131.49 43.0169 131.603 43.0169 132.057C43.0239 132.111 43.0184 132.166 43.0008 132.217C42.9833 132.268 42.9542 132.315 42.9157 132.353C42.8772 132.392 42.8304 132.421 42.7789 132.438C42.7275 132.456 42.6726 132.461 42.6187 132.454ZM61.8809 150.021C61.4258 150.021 60.7431 149.794 60.0622 149.794C59.8896 149.785 59.7166 149.804 59.5502 149.851C59.5106 149.782 59.4909 149.703 59.4933 149.624C59.4933 149.51 59.5502 149.51 59.6071 149.51C59.7849 149.51 59.9485 149.567 60.1191 149.567C60.2898 149.567 60.5742 149.228 60.8569 149.115C60.9505 149.139 61.0455 149.158 61.1413 149.172C61.3191 149.172 61.3689 148.945 61.4827 148.945C61.4827 148.945 62.5618 149.122 62.5618 149.285C62.5049 149.851 62.2773 150.021 61.8809 150.021Z" fill="#155B11"/>
<path d="M113.97 139.776C113.792 138.983 113.628 136.774 113.401 136.604C113.37 136.573 113.35 136.533 113.344 136.49C113.357 136.395 113.376 136.3 113.401 136.206L113.223 135.866C112.996 135.469 112.599 135.412 112.599 135.244C112.599 135.187 112.656 135.187 112.713 135.066C112.144 133.593 110.439 132.573 110.439 131.382C110.439 129.796 112.599 128.435 112.599 124.016C112.599 122.995 112.144 121.356 111.746 120.104C111.632 119.709 111.461 118.863 111.404 118.744C111.348 118.626 111.065 118.065 111.008 117.952C110.724 117.555 108.734 114.326 107.257 114.099C106.86 114.099 105.269 112.795 104.644 112.795C102.485 112.171 99.3103 111.888 95.9503 111.888C92.0391 111.888 90.3271 112.739 89.0169 113.306C87.2 114.044 86.2329 115.12 85.8934 115.347C85.1538 115.913 84.9263 116.253 84.6987 116.65C84.5209 116.65 81.7458 119.03 81.7458 123.45C81.7458 124.47 82.5405 124.754 83.3351 124.754C84.3023 124.754 85.2676 124.697 86.1796 124.697C86.9725 124.697 87.7636 124.809 88.4907 124.81C88.6969 124.81 91.344 124.688 91.344 122.826V122.649C92.0818 121.175 93.2747 121.289 93.4454 121.289C93.6729 121.289 93.9005 121.346 94.0712 121.346C94.4694 121.289 94.5814 121.119 95.0365 121.119C95.4729 121.1 95.91 121.119 96.3432 121.175C96.5707 121.175 96.6276 120.948 96.912 120.948C98.3343 120.948 101.23 121.005 102.025 121.571C102.139 121.748 103.332 121.798 103.502 123.612C103.502 123.952 103.324 124.122 103.275 124.348C102.99 127.007 101.968 127.007 101.23 127.748C100.661 127.926 99.5254 128.428 98.7307 128.428C97.936 128.428 97.1396 128.316 96.5138 128.316C95.2072 128.316 93.5591 128.428 93.3316 128.428C92.7645 128.428 92.2525 128.371 91.7405 128.371C90.7751 128.371 90.0374 128.655 90.0374 130.185C90.0374 137.495 90.3218 137.722 92.5938 137.722C93.7298 137.722 94.9227 137.609 96.0018 137.609C96.6845 137.609 97.1965 137.666 97.6498 137.666C97.697 137.666 97.7422 137.647 97.7755 137.614C97.8089 137.581 97.8276 137.535 97.8276 137.488C98.7929 137.488 100.158 137.602 100.725 137.602C100.782 137.602 100.782 137.488 100.953 137.488C102.146 137.488 103.737 137.829 104.249 138.394C104.532 138.735 104.475 139.075 104.645 139.189C104.611 139.26 104.592 139.337 104.588 139.416C104.588 139.754 104.766 140.038 104.766 140.322C104.766 144.856 100.5 144.856 96.3574 144.856C93.6907 144.856 92.2685 144.232 92.0907 144.175C89.3067 142.645 90.8463 140.152 88.9085 140.152C88.5689 140.152 88.2276 140.329 88.0569 140.329C87.8294 140.329 87.7725 140.152 87.488 140.102C86.9778 140.102 86.4089 140.159 85.8418 140.159C85.1591 140.159 84.3645 140.045 84.3076 140.045C84.1938 140.045 84.1938 140.159 84.0231 140.159C83.9273 140.145 83.8323 140.126 83.7387 140.102C83.5346 140.151 83.3244 140.171 83.1147 140.159H82.4356C82.179 140.159 81.9264 140.222 81.6989 140.34C81.4715 140.459 81.276 140.63 81.1289 140.84C81.072 141.122 80.9014 141.235 80.9014 141.519C80.9014 141.576 81.2996 144.693 81.6978 145.542C81.6978 146.109 83.5716 148.659 83.6285 148.716C84.3687 149.84 85.3861 150.756 86.5831 151.376C86.9814 151.553 89.3671 152.972 90.56 153.19H90.5031C90.5031 153.303 94.5387 153.926 94.5387 153.926C94.7165 153.926 94.8783 153.748 95.0489 153.748C95.1004 153.751 95.1498 153.77 95.1904 153.802C95.231 153.833 95.2611 153.876 95.2765 153.926C95.8454 153.982 96.4125 153.982 96.9814 153.982C98.4587 153.982 102.265 153.585 104.092 152.849L104.149 152.906C104.263 152.906 104.432 152.679 104.432 152.679C105.966 152.395 106.649 151.943 106.933 151.943C107.614 151.943 110.284 149.846 111.138 148.429L111.42 148.032C111.477 148.032 111.876 147.239 112.16 146.672C112.16 146.672 113.694 144.803 113.694 141.629C113.836 141.377 113.95 141.112 114.036 140.836C114.036 140.723 113.922 140.779 113.922 140.439C113.922 140.212 113.979 139.815 113.979 139.758L113.97 139.776ZM88.6294 119.659C88.5626 119.704 88.482 119.725 88.4018 119.716C88.1743 119.716 88.0605 119.539 87.8898 119.489C87.8898 119.312 88.0676 119.262 88.288 119.262C88.4658 119.262 88.6863 119.319 88.6863 119.489C88.6863 119.546 88.6294 119.603 88.6294 119.666V119.659ZM110.105 122.895C110.105 123.293 109.879 123.236 109.708 123.236C109.708 122.839 109.708 122.895 110.105 122.895ZM105.732 125.786C105.727 125.844 105.702 125.9 105.66 125.941C105.619 125.983 105.563 126.008 105.504 126.013C105.39 126.013 105.39 125.899 105.39 125.504C105.618 125.56 105.732 125.681 105.732 125.786ZM103.467 120.22C103.467 120.042 103.58 120.042 103.694 120.042C103.922 120.042 104.036 120.156 104.263 120.22C104.206 120.503 104.036 120.617 103.865 120.617C103.762 120.61 103.664 120.566 103.591 120.493C103.518 120.42 103.473 120.323 103.467 120.22ZM96.0712 130.539C97.152 130.539 96.5832 131.05 97.0383 131.05C97.2658 131.05 97.5485 130.873 97.9467 130.873C98.1743 130.873 98.288 130.93 98.288 131.156C98.288 131.495 97.6054 131.722 97.6054 131.722C97.3227 131.722 96.5263 131.043 96.5263 131.1C96.1849 131.211 96.0711 131.495 95.6178 131.495C95.44 131.318 95.3903 131.1 95.3903 130.759C95.3903 130.582 95.7316 130.532 96.0712 130.532" fill="#155B11"/>
<path d="M149.116 113.198C147.127 113.198 145.422 114.39 145.422 114.955C145.436 115.051 145.455 115.146 145.479 115.239C144.969 115.239 142.812 118.526 142.812 118.808C142.812 118.752 142.812 118.752 142.756 118.752C142.578 118.752 141.333 120.792 141.333 121.076C141.221 121.417 139.403 122.777 139.403 123.626C139.403 123.683 139.46 123.803 139.46 123.853C138.437 124.872 137.812 126.005 137.527 126.289C137.243 126.913 135.312 129.066 134.914 129.859C134.865 129.995 134.806 130.128 134.736 130.256C134.508 130.653 132.748 133.093 132.635 133.032C131.895 133.995 130.532 137.056 129.396 137.056C128.997 137.056 128.94 136.774 128.94 136.49C128.94 134.894 129.118 133.146 129.118 131.502C129.118 129.52 129.061 127.536 129.061 125.553C129.061 122.832 129.289 120.168 129.289 117.505C129.289 114.106 128.834 113.652 126.676 113.652C125.253 113.652 121.845 113.652 120.425 113.936C120.425 114.049 120.425 114.113 120.311 114.113C120.028 115.019 120.028 115.925 120.028 116.833C120.028 117.853 120.085 118.872 120.085 119.893C120.085 121.424 119.858 122.895 119.858 124.426C119.858 133.153 119.46 141.54 119.46 150.097C119.46 150.438 119.516 150.721 119.516 151.06C119.516 151.344 119.46 151.571 119.46 151.854C119.46 153.096 120.482 153.385 121.335 153.385C128.551 153.385 130.311 152.42 130.311 152.195C130.311 152.136 130.254 152.136 130.254 152.018C130.254 151.899 130.432 151.62 131.164 150.883V150.94C131.221 150.94 133.778 147.597 134.009 146.746C134.009 145.897 135.316 145.613 135.657 144.48C136.281 143.856 135.835 144.196 136.622 143.006C136.677 142.897 138.03 141.652 138.092 141.233C138.242 141.093 138.378 140.938 138.496 140.771C138.823 140.416 139.236 139.923 139.236 139.614C139.236 138.992 140.77 137.632 140.94 137.178C141.963 135.875 142.247 134.969 142.644 134.572C143.156 133.892 145.145 130.775 145.826 130.775C146.004 130.775 146.395 130.775 146.395 131.171C146.395 135.478 145.94 141.826 145.94 146.303C145.94 146.812 146.167 147.493 146.167 148.058C146.167 149.023 145.989 150.042 145.989 150.895C145.989 153.333 146.444 153.39 148.036 153.39C148.83 153.39 149.627 153.333 150.535 153.333C151.273 153.333 152.069 153.447 152.75 153.447C155.195 153.447 155.307 152.206 155.307 149.478C155.307 147.61 155.252 145.625 155.252 144.038C155.267 143.734 155.304 143.431 155.364 143.132C155.364 143.076 155.081 142.955 155.081 142.396C155.081 141.602 155.42 140.299 155.42 140.185C155.42 131.515 156.103 122.844 156.103 115.138C156.111 114.73 156.033 114.325 155.876 113.948C154.853 113.267 151.33 113.21 149.12 113.21L149.116 113.198ZM123.833 119.376C123.833 119.553 123.719 119.603 123.548 119.603C123.321 119.603 123.093 119.546 122.868 119.546C122.868 119.319 123.548 119.369 123.833 119.369V119.376ZM121.504 139.09C121.504 138.579 122.185 138.806 122.299 138.465C122.326 138.472 122.352 138.485 122.375 138.503C122.397 138.521 122.415 138.543 122.428 138.568C122.437 138.724 122.455 138.879 122.478 139.035C121.963 139.047 122.002 139.26 121.561 139.26C121.561 139.203 121.504 139.146 121.504 139.082V139.09ZM152.581 116.141C152.581 115.576 153.093 115.689 153.15 115.235C153.435 115.413 153.435 115.858 153.548 116.141H152.581Z" fill="#155B11"/>
<path d="M193.205 121.668C193.237 121.597 193.263 121.524 193.284 121.449C193.35 121.209 193.383 120.961 193.381 120.713C193.434 120.636 193.46 120.545 193.456 120.452C193.454 120.289 193.39 120.133 193.278 120.014C193.232 119.866 193.172 119.723 193.1 119.585C193.259 119.562 193.435 119.546 193.456 119.546C193.456 119.319 193.399 119.149 193.399 118.979V118.243C193.399 117.902 193.285 117.562 193.285 117.335C193.285 117.157 193.285 116.883 193.399 116.769C193.341 116.798 193.282 116.824 193.221 116.847C193.301 116.557 193.301 116.251 193.221 115.961C193.532 115.877 193.294 115.351 193.294 114.719V114.097C193.01 113.984 192.898 113.643 192.556 113.473C192.469 113.519 192.37 113.538 192.272 113.53C191.931 113.53 191.589 113.473 191.307 113.473C190.87 113.463 190.434 113.482 190 113.53C189.431 113.53 187.216 113.416 185.397 113.416C184.519 113.423 183.643 113.518 182.784 113.7C182.272 113.7 181.76 113.643 181.25 113.643C180.74 113.643 180.114 113.757 179.828 113.757C179.316 113.757 178.917 113.579 178.405 113.579C177.609 113.579 176.757 113.693 176.188 113.693C175.849 113.636 175.735 113.466 175.394 113.466C175.109 113.466 174.825 113.523 174.087 113.523C171.303 113.523 170.677 113.466 170.281 113.466C169.967 113.49 169.652 113.429 169.371 113.288C169.371 113.629 168.747 113.402 168.633 113.686C168.43 113.503 168.166 113.402 167.893 113.402C167.383 113.402 166.928 113.579 166.293 113.579C165.385 113.579 164.42 113.352 164.306 113.352C164.249 113.352 164.192 113.53 164.021 113.53C163.924 113.519 163.828 113.503 163.733 113.482C163.392 113.482 163.052 113.538 162.768 113.538C162.085 113.538 161.291 113.482 160.608 113.482C160.455 113.939 160.379 114.418 160.382 114.9C160.382 115.411 160.439 115.92 160.439 116.43C160.439 116.884 160.212 116.941 160.212 117.507C160.212 117.684 160.389 117.847 160.389 118.017C160.369 118.064 160.338 118.104 160.298 118.135C160.258 118.166 160.211 118.186 160.162 118.195C160.163 119.349 160.222 120.502 160.34 121.651C160.453 122.615 161.248 122.785 162.1 122.785C163.634 122.785 164.715 122.672 166.93 122.672C169.316 122.672 171.874 122.445 172.043 123.238C172.043 123.351 171.986 123.521 171.986 123.635C171.986 124.314 172.213 124.876 172.213 125.505C172.213 125.901 172.036 126.241 172.036 126.639C172.036 127.147 172.263 129.075 172.263 130.038C172.263 132.022 171.922 133.892 171.922 135.932C171.922 137.173 172.149 138.591 172.149 139.616C172.149 139.728 171.972 139.785 171.972 139.898C171.985 139.994 172.004 140.088 172.028 140.182C171.932 140.839 171.894 141.503 171.915 142.166C171.915 143.753 171.803 145.395 171.803 146.585C171.803 146.698 171.575 146.762 171.575 146.762C171.575 146.989 171.803 147.046 171.803 147.329C171.803 147.67 171.746 148.236 171.746 148.803C171.746 149.539 171.803 150.276 172.085 150.276L172.1 150.266C172.001 150.749 172.044 151.25 172.224 151.709C172.238 151.741 172.254 151.769 172.27 151.8C172.261 151.858 172.256 151.917 172.256 151.977C172.256 152.713 173.223 153.11 173.961 153.11C174.402 153.11 174.596 152.95 174.672 152.732L174.85 152.711L175.561 152.613C175.695 152.643 175.831 152.658 175.968 152.658H176.039C176.535 153.294 177.627 153.11 178.72 153.11C180.48 153.11 181.333 152.933 181.333 151.126C181.333 150.665 181.296 150.239 181.006 150.039C181.039 149.417 181.105 148.797 181.205 148.182C181.272 147.801 181.232 147.408 181.09 147.047C181.102 146.953 181.107 146.857 181.106 146.762C181.106 145.799 180.992 144.609 180.992 143.703C180.992 143.306 181.17 143.079 181.17 142.909C181.17 142.795 181.113 142.512 181.113 142.343C181.113 140.7 181.291 139.113 181.291 137.355C181.291 136.166 181.006 134.749 181.006 134.182C181.006 133.956 181.348 133.9 181.404 133.616C181.177 133.616 181.177 132.821 181.006 132.708C181.461 132.651 181.404 131.289 181.404 130.839C181.404 130.518 181.253 130.199 181.189 129.926C181.189 129.926 181.209 129.926 181.234 129.926C181.461 129.926 181.177 128.057 181.177 127.603C181.177 126.47 181.12 125.619 181.12 124.486C181.12 123.92 181.177 122.956 181.972 122.842C182.444 122.891 182.919 122.91 183.394 122.899C184.924 122.899 186.457 122.848 188.037 122.793C188.117 122.809 188.197 122.821 188.279 122.83C189.479 122.932 190.686 122.879 191.872 122.672H191.916C192.485 122.672 193.564 122.048 193.564 121.707C193.564 121.594 193.508 121.53 193.451 121.425C193.43 121.483 193.396 121.535 193.353 121.579C193.31 121.622 193.258 121.656 193.2 121.677L193.205 121.668ZM179.2 139.267C178.69 139.267 178.576 138.983 178.576 138.529C178.576 138.02 178.633 137.51 178.633 136.999H179.2C179.143 137.453 178.804 137.566 178.804 137.907C178.804 138.359 179.2 138.643 179.2 139.267ZM174.738 136.563C174.722 136.882 174.718 137.205 174.727 137.527C174.283 137.339 174.082 136.951 174.082 136.263C174.321 136.31 174.546 136.413 174.738 136.563ZM180.501 118.186C180.503 118.174 180.503 118.161 180.501 118.149C180.6 118.142 180.698 118.142 180.796 118.149C180.702 118.161 180.606 118.17 180.508 118.181L180.501 118.186ZM164.715 117.273C164.669 117.207 164.649 117.127 164.658 117.048C164.658 116.87 164.836 116.821 164.997 116.821C165.159 116.821 165.452 116.877 165.623 116.877C165.623 117.273 165.168 117.273 164.715 117.273Z" fill="#155B11"/>
<path d="M227.035 113.198C225.045 113.198 223.342 114.39 223.342 114.955C223.356 115.051 223.375 115.146 223.399 115.239C222.887 115.239 220.732 118.526 220.732 118.808C220.732 118.752 220.732 118.752 220.676 118.752C220.498 118.752 219.253 120.792 219.253 121.076C219.14 121.417 217.321 122.777 217.321 123.626C217.321 123.683 217.378 123.803 217.378 123.853C216.356 124.872 215.73 126.005 215.445 126.289C215.163 126.913 213.23 129.066 212.832 129.859C212.783 129.995 212.724 130.128 212.654 130.256C212.429 130.653 210.667 133.093 210.553 133.032C209.813 133.997 208.45 137.056 207.314 137.056C206.916 137.056 206.86 136.774 206.86 136.49C206.86 134.894 207.038 133.146 207.038 131.502C207.038 129.52 206.981 127.536 206.981 125.553C206.981 122.833 207.209 120.168 207.209 117.505C207.209 114.106 206.756 113.652 204.596 113.652C203.173 113.652 199.767 113.652 198.347 113.936C198.347 114.049 198.347 114.113 198.233 114.113C197.949 115.019 197.949 115.925 197.949 116.833C197.949 117.853 198.005 118.872 198.005 119.893C198.005 121.424 197.778 122.895 197.778 124.426C197.778 133.153 197.38 141.54 197.38 150.097C197.38 150.438 197.437 150.721 197.437 151.06C197.437 151.344 197.38 151.571 197.38 151.854C197.38 153.096 198.404 153.385 199.255 153.385C206.471 153.385 208.233 152.42 208.233 152.195C208.233 152.138 208.176 152.138 208.176 152.018C208.176 151.897 208.354 151.62 209.084 150.885V150.94C209.141 150.94 211.698 147.597 211.929 146.746C211.929 145.897 213.236 145.613 213.577 144.48C214.201 143.858 213.755 144.196 214.542 143.006C214.599 142.893 216.02 141.588 216.02 141.193C216.02 141.136 217.156 140.116 217.156 139.607C217.156 138.983 218.69 137.623 218.86 137.169C219.883 135.866 220.167 134.96 220.565 134.563C221.076 133.884 223.065 130.766 223.748 130.766C223.925 130.766 224.315 130.766 224.315 131.164C224.315 135.469 223.86 141.817 223.86 146.294C223.86 146.803 224.087 147.484 224.087 148.049C224.087 149.014 223.909 150.033 223.909 150.886C223.909 153.323 224.364 153.379 225.956 153.379C226.75 153.379 227.556 153.323 228.455 153.323C229.195 153.323 229.989 153.436 230.672 153.436C233.115 153.436 233.228 152.195 233.228 149.47C233.228 147.599 233.172 145.615 233.172 144.028C233.187 143.723 233.225 143.42 233.285 143.122C233.285 143.065 233.001 142.944 233.001 142.386C233.001 141.591 233.342 140.288 233.342 140.175C233.342 131.504 234.023 122.835 234.023 115.127C234.03 114.719 233.953 114.314 233.796 113.937C232.773 113.257 229.252 113.2 227.04 113.2L227.035 113.198ZM201.757 119.377C201.757 119.555 201.643 119.604 201.472 119.604C201.245 119.604 201.019 119.548 200.791 119.548C200.791 119.321 201.472 119.37 201.757 119.37V119.377ZM199.428 139.091C199.428 138.581 200.109 138.808 200.222 138.467C200.281 138.607 200.347 138.744 200.416 138.877C200.421 138.929 200.43 138.981 200.445 139.031C199.876 139.031 199.933 139.258 199.479 139.258C199.479 139.201 199.422 139.145 199.422 139.081L199.428 139.091ZM225.614 147.468C225.614 147.354 225.557 147.241 225.557 147.071C225.557 146.9 225.614 146.73 225.956 146.73C225.986 146.727 226.017 146.731 226.046 146.741C226.075 146.751 226.101 146.768 226.123 146.79C226.145 146.812 226.162 146.838 226.172 146.867C226.182 146.896 226.186 146.926 226.183 146.957C226.183 147.354 226.005 147.468 225.614 147.468ZM220.558 128.318C220.558 128.091 221.125 128.14 221.296 128.14C221.283 128.235 221.264 128.33 221.239 128.422C221.239 128.819 221.467 128.876 221.467 129.273C220.955 129.16 220.558 128.933 220.558 128.311V128.318ZM228.284 147.313H228.057V147.136C228.057 147.023 228.114 146.909 228.455 146.909C228.455 147.25 228.398 147.306 228.277 147.306" fill="#155B11"/>
<path d="M271.625 140.483C271.726 140.588 271.857 140.658 272 140.684C271.934 140.347 271.896 140.005 271.886 139.662V137.907C271.886 137.299 271.239 135.513 270.681 135.107C270.53 134.705 270.332 134.322 270.093 133.965C270.133 133.895 270.182 133.829 270.238 133.77C269.557 132.976 268.59 131.672 268.59 131.559C268.647 131.164 269.835 129.179 269.835 129.066C270.176 128.555 270.347 127.252 270.404 127.252V127.366C270.449 127.299 270.469 127.219 270.461 127.139C270.461 126.97 270.404 126.8 270.404 126.63C270.582 125.867 270.678 125.088 270.688 124.305C270.688 123.342 270.404 122.72 270.404 121.925C270.404 120.963 269.438 119.205 269.438 118.978C269.438 118.922 269.495 118.801 269.495 118.752C269.268 118.752 269.268 118.695 269.268 118.638V118.413C269.268 118.299 267.165 115.753 265.858 114.785C265.405 114.446 264.436 113.879 264.098 113.879C261.483 113.03 263.472 113.425 260.517 112.916C260.064 112.916 259.837 113.141 259.381 113.141C259.381 112.803 257.677 112.859 257.166 112.859C256.029 112.859 254.836 112.916 253.757 112.916C253.166 112.893 252.578 112.833 251.995 112.739C251.948 112.739 251.902 112.757 251.869 112.791C251.836 112.824 251.817 112.869 251.817 112.916C251.022 112.973 250.114 112.973 249.261 112.973C248.538 112.96 247.817 112.9 247.102 112.796C247.045 112.796 246.925 112.973 246.818 112.973C246.722 112.96 246.627 112.941 246.533 112.916C246.214 112.963 245.891 112.982 245.568 112.973C244.885 112.973 244.261 113.085 243.693 113.085C242.329 113.085 241.648 113.311 241.648 115.466C241.648 115.806 241.76 116.202 241.76 116.485C241.76 117.562 241.477 117.959 241.477 118.752C241.477 119.544 241.705 119.83 241.705 120.055C241.705 120.395 241.477 121.19 241.477 121.812C241.477 122.55 241.705 123.115 241.705 123.399C241.705 123.853 241.364 123.739 241.364 123.796C241.364 123.91 241.591 123.796 241.591 124.532C241.591 125.043 241.534 125.773 241.534 125.835C241.534 128.612 241.648 131.843 241.648 134.903C241.648 137.563 241.591 140.116 241.591 142.1C241.591 142.327 241.648 142.553 241.648 142.723C241.591 143.12 241.534 143.347 241.534 143.46C241.534 143.913 241.819 144.764 241.819 145.218C241.819 145.218 241.477 145.386 241.421 145.556C241.648 145.556 241.705 146.01 241.705 146.237C241.705 146.521 241.648 146.803 241.648 147.087C241.648 147.597 241.705 148.505 241.705 149.298C241.705 150.204 241.364 150.94 241.364 151.053C241.364 151.167 241.648 151.167 241.648 151.167C241.591 151.507 241.648 151.791 241.421 151.961C241.931 152.245 241.988 152.867 242.727 152.867C243.693 152.867 244.546 153.094 244.829 153.094C244.942 153.094 245.056 153.037 245.227 153.037C245.356 153.087 245.489 153.125 245.625 153.151C245.803 153.151 245.625 152.973 246.533 152.973C248.466 152.973 248.58 153.03 248.58 153.257C248.805 153.257 249.147 153.03 249.773 153.03C251.195 153.03 252.784 153.144 254.148 153.144C256.025 153.156 257.897 152.927 259.716 152.463C259.943 152.463 260.057 152.69 260.453 152.69C260.681 152.633 261.022 152.292 261.25 152.292C261.364 152.292 261.428 152.47 261.589 152.47C261.589 152.188 262.727 151.961 262.727 151.961H263.124C264.317 151.904 265.284 150.94 265.625 150.885C265.737 150.94 265.965 150.487 266.021 150.487C267.444 150.31 267.954 149.298 268.352 148.957C269.431 148.673 269.998 147.2 269.998 147.2C270.397 146.86 270.795 146.578 270.795 145.386C270.758 145.352 270.716 145.323 270.672 145.299C271.334 143.782 271.655 142.138 271.613 140.483H271.625ZM243.92 136.547V136.49C243.92 136.263 244.098 136.263 244.098 135.979C244.155 135.979 244.439 135.923 244.439 136.093C244.439 136.49 244.155 136.547 243.927 136.547H243.92ZM244.309 132.657C244.439 133.013 244.619 133.349 244.843 133.655C244.528 133.791 243.954 133.722 243.522 133.77C243.509 133.675 243.49 133.58 243.465 133.486C243.465 132.931 243.806 132.717 244.302 132.657H244.309ZM249.684 143.428C249.684 143.379 249.684 143.331 249.669 143.281L249.716 143.29C249.713 143.338 249.702 143.385 249.684 143.428ZM250.681 136.942C251.193 136.433 252.158 136.604 252.841 136.49L252.83 136.442C253.717 136.461 254.606 136.478 255.497 136.494L255.572 136.547C255.666 136.533 255.749 136.517 255.845 136.499C256.533 136.508 257.227 136.526 257.918 136.527C258.313 136.62 259.163 136.694 259.264 136.942C259.374 136.897 259.477 136.837 259.572 136.765L259.749 136.795L261.108 137.504C261.137 137.523 261.168 137.539 261.2 137.554C261.265 137.612 261.324 137.675 261.378 137.744C261.886 138.447 262.22 139.26 262.354 140.116C262.443 140.789 262.284 141.47 261.908 142.035C261.643 142.434 261.277 142.744 260.958 143.079C260.565 143.198 260.18 143.296 259.892 143.393C259.714 143.45 259.55 143.847 259.38 143.847C259.209 143.847 258.868 143.62 258.585 143.62C258.13 143.62 257.675 143.507 257.447 143.733C257.269 143.911 257.108 143.507 256.994 143.507C256.937 143.507 256.88 143.62 256.88 143.684C254.663 143.797 252.05 143.909 251.426 143.909C251.198 143.684 250.743 143.732 250.686 143.287L250.681 136.942ZM264.784 124.298C264.898 124.298 265.069 124.355 265.182 124.355C265.182 125.149 264.217 124.922 263.648 125.092C263.876 124.695 264.16 124.298 264.784 124.298ZM258.029 115.175C258.484 115.175 258.597 115.062 258.597 115.742C257.858 115.742 258.029 115.565 258.029 115.175ZM252.461 121.913C252.859 121.913 253.198 121.97 253.597 121.97C253.774 121.97 253.774 121.792 253.824 121.792C254.002 121.792 254.002 122.076 254.619 122.076C254.619 121.899 255.017 121.899 255.358 121.899C255.536 121.899 255.586 122.076 255.7 122.076C255.643 121.963 256.039 121.899 256.665 121.899C256.949 121.899 257.289 121.956 257.63 121.956C258.395 121.973 259.158 121.897 259.904 121.729C260.756 122.693 261.721 122.183 261.721 124.505C261.721 125.638 260.477 126.206 260.477 126.603C259.232 127.452 256.955 127.906 254.341 127.906C253.659 127.906 252.864 127.679 252.295 127.679C252.181 127.679 251.954 127.857 251.669 127.857C251.444 127.857 251.33 127.679 251.045 127.679C250.818 127.055 250.647 125.47 250.647 124.505C250.647 122.75 250.989 121.899 252.466 121.899L252.461 121.913ZM244.681 116.629C244.738 116.629 244.795 116.572 244.859 116.572C244.973 116.572 245.086 116.75 245.086 116.913C245.086 117.076 244.973 117.251 244.859 117.251C244.828 117.254 244.798 117.251 244.769 117.241C244.74 117.23 244.714 117.214 244.692 117.192C244.671 117.171 244.654 117.145 244.644 117.116C244.634 117.087 244.63 117.057 244.633 117.026C244.633 116.913 244.688 116.743 244.688 116.629H244.681ZM248.777 146.95C248.788 146.759 248.816 146.57 248.861 146.384C248.949 146.173 249.038 145.961 249.133 145.746C249.159 145.721 249.194 145.706 249.23 145.703C249.572 145.703 249.97 145.76 250.254 145.76C250.539 145.76 250.765 145.703 250.878 145.533C250.943 145.565 250.998 145.613 251.038 145.673C251.078 145.733 251.101 145.802 251.106 145.874C251.106 146.384 250.309 147.292 249.117 147.292C248.832 147.292 248.777 147.235 248.777 146.952" fill="#155B11"/>
</g>
<defs>
<clipPath id="clip0_23_2990">
<rect width="272" height="154" fill="white"/>
</clipPath>
</defs>
</svg>
