<svg width="90" height="90" viewBox="0 0 90 90" fill="none" xmlns="http://www.w3.org/2000/svg">
<g clip-path="url(#clip0_252_157)">
<path fill-rule="evenodd" clip-rule="evenodd" d="M40.1332 60.9277L46.86 64.8165L49.0325 61.0487L54.6635 65L89 15.9399L67.8426 1.09345L64.5154 5.84741L54.4006 0L31 40.584H33.3552L55.1472 2.78986L73.9887 13.6822L46.1134 62.0267L40.1332 58.5695V60.9277ZM54.1637 62.1554L50.0563 59.2731L76.7749 12.9347L66.2886 6.8725L68.3424 3.93804L86.1591 16.4404L54.1637 62.1554Z" fill="white"/>
<path d="M40.0401 38.5892L25.7086 40.679L25.9441 40.5172C30.5149 37.3568 31.2837 36.2413 31.5367 35.874C32.3816 34.6489 32.7816 33.2175 32.6669 31.8434C32.5459 30.389 31.8697 29.1694 30.7653 28.4082C29.8628 27.7866 28.7315 27.5394 27.5795 27.7074C25.9927 27.9388 24.5093 28.9046 23.5084 30.3569C23.2559 30.7235 22.4856 31.8399 21.1672 37.2328C21.0188 37.8371 20.8805 38.4292 20.7549 38.9824C20.5266 38.5955 20.2817 38.1867 20.0271 37.7708C17.4018 33.4813 16.3909 32.7851 16.056 32.5568C14.9749 31.8076 13.6497 31.4952 12.3471 31.6826C11.6832 31.7742 11.0454 32.0014 10.4733 32.3501C9.90116 32.6988 9.40711 33.1614 9.02193 33.7092C8.63675 34.257 8.36872 34.8782 8.23454 35.534C8.10037 36.1897 8.10295 36.866 8.2421 37.5207C8.51545 38.8388 9.29099 39.999 10.405 40.7563C10.6941 40.9547 11.4969 41.5058 14.9445 42.2465L1.86792 44.1534C1.58812 44.1942 1.33596 44.3443 1.16692 44.5708C0.997883 44.7972 0.925808 45.0814 0.966558 45.3609L2.05586 52.8309C2.09661 53.1104 2.24684 53.3622 2.47351 53.5309C2.70018 53.6997 2.98471 53.7716 3.26452 53.7307L4.65028 53.5287L8.49067 79.8647C8.53142 80.1442 8.68166 80.396 8.90833 80.5647C9.135 80.7335 9.41953 80.8053 9.69934 80.7645L25.952 78.3945C26.2207 78.4607 26.5047 78.4193 26.7433 78.2792L42.9959 75.9091C43.2758 75.8683 43.5279 75.7182 43.6969 75.4917C43.866 75.2653 43.9381 74.9811 43.8973 74.7016L40.0572 48.3677L41.443 48.1656C41.7228 48.1248 41.975 47.9747 42.144 47.7482C42.313 47.5218 42.3851 47.2376 42.3444 46.9581L41.2551 39.4881C41.2348 39.3492 41.1872 39.2157 41.1151 39.0952C41.043 38.9747 40.9478 38.8697 40.8348 38.7862C40.7219 38.7026 40.5936 38.6422 40.4572 38.6084C40.3208 38.5746 40.179 38.5681 40.0401 38.5892ZM25.2625 31.5651C25.9173 30.6136 26.8973 29.9601 27.8838 29.8163C28.3216 29.7524 28.9661 29.7612 29.5539 30.1646C30.1233 30.5555 30.4736 31.2141 30.5412 32.021C30.6164 32.9064 30.3441 33.8468 29.779 34.6674C29.0112 35.7823 25.5822 38.2386 22.6706 40.1573C23.4239 36.7563 24.4942 32.6801 25.2625 31.5651ZM10.3296 37.0914C10.249 36.7212 10.2461 36.3383 10.3211 35.9669C10.3961 35.5955 10.5474 35.2436 10.7654 34.9334C10.9834 34.6233 11.2634 34.3616 11.5877 34.1649C11.912 33.9682 12.2736 33.8408 12.6496 33.7907C13.4205 33.6816 14.2041 33.868 14.8429 34.3124C15.1345 34.513 16.046 35.3588 18.1981 38.8753C18.6371 39.5914 19.0484 40.2917 19.3968 40.8962C18.707 40.7875 17.9068 40.6535 17.0765 40.5012C13.0188 39.7511 11.902 39.2042 11.6099 39.0036C10.9508 38.5564 10.4917 37.8707 10.3296 37.0914ZM3.23039 46.1079L20.2063 43.6325L20.9883 48.9951L4.01239 51.4706L3.23039 46.1079ZM6.76046 53.222L21.2956 51.1025L24.9822 76.3838L10.4471 78.5034L6.76046 53.222ZM41.6273 73.9566L27.0922 76.0761L23.4058 50.7959L37.9409 48.6763L41.6273 73.9566ZM40.0745 46.2141L23.0986 48.6896L22.3165 43.3258L39.2923 40.8504L40.0745 46.2141Z" fill="white"/>
</g>
<defs>
<clipPath id="clip0_252_157">
<rect width="90" height="90" fill="white"/>
</clipPath>
</defs>
</svg>
