<svg width="90" height="90" fill="none" xmlns="http://www.w3.org/2000/svg"><g clip-path="url(#a)"><path d="M44.331 7.496c-.76.383-1.512.807-2.253 1.27l12.628 31.132.045-.005 1.9-.214c.728-.08 1.459-.158 2.147-.231a3.101 3.101 0 0 0 2.788-2.95l.106-2.191.122-2.514 1.093-22.604.045-.866a3.111 3.111 0 0 0-2.774-3.13c-2.292-.257-4.528-.337-6.69-.179-2.138.157-4.218.55-6.227 1.243a23.758 23.758 0 0 0-2.93 1.24Zm20.953 3.124-.92 18.991c5.152-2.642 10.201-1.65 14.333-.839 3.174.624 5.694 1.118 6.696-.568a4.078 4.078 0 0 0 .546-1.697c.173-1.709-.571-3.742-2.048-5.785-1.561-2.156-3.917-4.28-6.885-6.045-3.259-1.935-7.246-3.432-11.72-4.056l-.002-.001ZM10.383 35.36c-.59.656-1.143 1.33-1.661 2.025-.629.842-1.2 1.725-1.712 2.643-1.03 1.858-1.778 3.838-2.304 5.917-.532 2.102-.84 4.317-.987 6.62a3.112 3.112 0 0 0 2.713 3.29l.753.096 22.45 2.849 2.497.316 2.174.276a3.102 3.102 0 0 0 3.388-2.234c.185-.641.382-1.321.58-2l.518-1.772c.019-.063.037-.123.05-.184L10.382 35.36Zm4.365-13.989c-1.651 2.42-3.079 5.1-4.346 7.966a3.087 3.087 0 0 0 .631 3.45l.065.061a3.196 3.196 0 0 0 .467.366l.003.003.003.004.03.019 29.967 18.783a3.086 3.086 0 0 0 3.961-.548c.474-.52.954-1.014 1.44-1.484.474-.459.984-.918 1.532-1.377.547-.46 1.09-.884 1.626-1.272a32.27 32.27 0 0 1 1.715-1.163 3.086 3.086 0 0 0 1.227-3.806L39.773 9.594l-.041-.099a3.566 3.566 0 0 0-.26-.468l-.046-.07a3.088 3.088 0 0 0-3.29-1.222c-3.045.752-5.932 1.692-8.603 2.9-2.63 1.189-5.043 2.64-7.179 4.433-2.135 1.792-3.978 3.917-5.606 6.3v.003Zm-6.579 6.975c1.332-3.011 2.827-5.822 4.557-8.355 1.755-2.57 3.75-4.861 6.056-6.797 2.306-1.935 4.91-3.501 7.747-4.784 2.795-1.264 5.824-2.25 9.023-3.04a5.54 5.54 0 0 1 5.166 1.359 30.679 30.679 0 0 1 2.506-1.415 26.172 26.172 0 0 1 3.233-1.371c2.205-.759 4.491-1.192 6.849-1.363 2.333-.172 4.718-.087 7.146.182a5.555 5.555 0 0 1 4.94 5.405c4.909.651 9.29 2.284 12.87 4.412 3.264 1.94 5.872 4.299 7.615 6.707 1.826 2.524 2.73 5.143 2.498 7.474a6.485 6.485 0 0 1-.878 2.701c-1.883 3.168-5.151 2.525-9.272 1.716-4.078-.802-9.153-1.797-14.001 1.35l-.2 4.093a5.525 5.525 0 0 1-4.962 5.262c-.689.073-1.42.152-2.148.231-.336.039-.767.086-1.321.148a5.526 5.526 0 0 1-2.445 5.982 29.43 29.43 0 0 0-3.083 2.24 26.48 26.48 0 0 0-1.407 1.273c-.463.45-.905.906-1.325 1.367a5.525 5.525 0 0 1-6.319 1.367 697.71 697.71 0 0 0-.976 3.35A5.526 5.526 0 0 1 34 61.81l-4.06-.515c-3.946 4.224-3.848 9.393-3.764 13.556.082 4.197.146 7.528-3.3 8.833a6.493 6.493 0 0 1-2.813.395c-2.332-.176-4.754-1.521-6.926-3.758-2.068-2.135-3.939-5.112-5.284-8.664-1.474-3.895-2.32-8.495-2.11-13.442a5.556 5.556 0 0 1-4.466-5.803c.154-2.438.485-4.801 1.06-7.07.58-2.29 1.403-4.47 2.533-6.508a26.122 26.122 0 0 1 1.885-2.914 30.218 30.218 0 0 1 1.856-2.254 5.537 5.537 0 0 1-.44-5.321v.001Zm.011 30.191c-.163 4.516.618 8.704 1.96 12.25 1.221 3.23 2.904 5.918 4.757 7.83 1.754 1.81 3.624 2.894 5.342 3.022.6.05 1.202-.033 1.765-.243 1.835-.694 1.786-3.261 1.722-6.495-.081-4.21-.18-9.357 3.318-13.972L8.18 58.538Z" fill="#fff"/></g><defs><clipPath id="a"><path fill="#fff" d="M0 0h90v90H0z"/></clipPath></defs></svg>