<svg width="46" height="46" viewBox="0 0 46 46" fill="none" xmlns="http://www.w3.org/2000/svg">
<circle cx="23" cy="23" r="23" fill="#FFA200"/>
<path fill-rule="evenodd" clip-rule="evenodd" d="M16.2071 22.5C16.2071 24.0286 16.6644 25.4504 17.4497 26.6361L15.4393 28.6464C14.8536 29.2322 14.8536 30.182 15.4393 30.7678C16.0251 31.3536 16.9749 31.3536 17.5607 30.7678L19.571 28.7574C20.7567 29.5427 22.1785 30 23.7071 30C27.8492 30 31.2071 26.6421 31.2071 22.5C31.2071 18.3579 27.8492 15 23.7071 15C19.565 15 16.2071 18.3579 16.2071 22.5ZM28.2071 22.5C28.2071 24.9853 26.1924 27 23.7071 27C21.2218 27 19.2071 24.9853 19.2071 22.5C19.2071 20.0147 21.2218 18 23.7071 18C26.1924 18 28.2071 20.0147 28.2071 22.5Z" fill="white"/>
</svg>
