<svg width="113" height="24" viewBox="0 0 113 24" fill="none" xmlns="http://www.w3.org/2000/svg">
<path fill-rule="evenodd" clip-rule="evenodd" d="M17.8679 1.50747C17.8679 1.50747 30.4478 -0.557563 55.2116 1.50748C75.3682 3.18833 83.8654 1.83082 93.3681 2.31959C107.202 3.03101 108.363 4.25817 98.3128 9.1332C90.8682 12.7444 94.3765 13.5692 96.8681 14.4819C103.944 17.0741 114.881 20.2916 111.368 21.8661C107.855 23.4406 91.8679 23.7156 76.8681 22.8468C44.8457 20.9922 31.0826 22.4112 19.8684 22.8468C8.65419 23.2825 7.36812 23.1693 12.3682 18.8256C17.8679 12.7444 24.3679 13.1788 10.3681 9.13321C-1.0493 4.24951 -7.68523 3.2753 17.8679 1.50747Z" fill="#ED2891"/>
</svg>
