<?xml version="1.0" encoding="utf-8"?><svg xmlns="http://www.w3.org/2000/svg" xmlns:xlink="http://www.w3.org/1999/xlink"><symbol fill="none" viewBox="0 0 14 9" id="arrow-accent" xmlns="http://www.w3.org/2000/svg"><path fill-rule="evenodd" clip-rule="evenodd" d="M.293 1.226a1 1 0 011.414 0L7 6.52l5.293-5.293a1 1 0 111.414 1.415L8.414 7.934a2 2 0 01-2.828 0L.293 2.64a1 1 0 010-1.415z" fill="#5C82D7"/></symbol><symbol fill="none" viewBox="0 0 24 24" id="arrow-back" xmlns="http://www.w3.org/2000/svg"><path d="M19 12H4m0 0l6 6m-6-6l6-6" stroke="#5C82D7" stroke-width="2" stroke-linecap="round" stroke-linejoin="round"/></symbol><symbol fill="none" viewBox="0 0 24 24" id="base" xmlns="http://www.w3.org/2000/svg"><path d="M12 21l-.1-.15c-.695-1.042-1.042-1.563-1.5-1.94a4 4 0 00-1.378-.737C8.453 18 7.827 18 6.575 18H5.2c-1.12 0-1.68 0-2.108-.218a2 2 0 01-.874-.874C2 16.48 2 15.92 2 14.8V6.2c0-1.12 0-1.68.218-2.108a2 2 0 01.874-.874C3.52 3 4.08 3 5.2 3h.4c2.24 0 3.36 0 4.216.436a4 4 0 011.748 1.748C12 6.04 12 7.16 12 9.4M12 21V9.4M12 21l.1-.15c.695-1.042 1.042-1.563 1.5-1.94a3.999 3.999 0 011.378-.737C15.547 18 16.173 18 17.425 18H18.8c1.12 0 1.68 0 2.108-.218a2 2 0 00.874-.874C22 16.48 22 15.92 22 14.8V6.2c0-1.12 0-1.68-.218-2.108a2 2 0 00-.874-.874C20.48 3 19.92 3 18.8 3h-.4c-2.24 0-3.36 0-4.216.436a4 4 0 00-1.748 1.748C12 6.04 12 7.16 12 9.4" stroke="#5C82D7" stroke-width="2" stroke-linecap="round" stroke-linejoin="round"/></symbol><symbol fill="none" viewBox="0 0 30 35" id="bell" xmlns="http://www.w3.org/2000/svg"><path d="M15 34.467a5.32 5.32 0 005.204-4.25H9.794A5.323 5.323 0 0015 34.467z" fill="#020203"/><path fill-rule="evenodd" clip-rule="evenodd" d="M25.198 19.462a9.491 9.491 0 003.09 4.964c.563.485.88 1.171.88 1.896a2.483 2.483 0 01-2.48 2.48H3.313A2.478 2.478 0 011.7 24.439a9.502 9.502 0 003.383-7.272v-3.95c0-4.985 3.702-9.112 8.5-9.803v-1.53a1.417 1.417 0 112.835 0v1.53a9.86 9.86 0 011.811.439A9.462 9.462 0 0016 9.967a9.5 9.5 0 009.198 9.495z" fill="#020203"/></symbol><symbol fill="none" viewBox="0 0 24 24" id="bell-accent" xmlns="http://www.w3.org/2000/svg"><path d="M9.355 21c.705.622 1.631 1 2.646 1a3.99 3.99 0 002.646-1M18 8A6 6 0 006 8c0 3.09-.78 5.206-1.65 6.605-.735 1.18-1.102 1.771-1.089 1.936.015.182.054.252.2.36.133.099.731.099 1.928.099h13.222c1.196 0 1.794 0 1.927-.098.147-.11.185-.179.2-.361.014-.165-.353-.755-1.088-1.936C18.78 13.206 18 11.09 18 8z" stroke="#5C82D7" stroke-width="2" stroke-linecap="round" stroke-linejoin="round"/></symbol><symbol fill="none" viewBox="0 0 24 28" id="bell-full" xmlns="http://www.w3.org/2000/svg"><path d="M8.67 25.7A4.92 4.92 0 0012 27a4.92 4.92 0 003.33-1.3m4.223-16.9a7.931 7.931 0 00-2.213-5.515A7.433 7.433 0 0012 1a7.433 7.433 0 00-5.34 2.285A7.932 7.932 0 004.448 8.8c0 4.017-.981 6.768-2.077 8.587C1.446 18.922.984 19.689 1 19.903c.018.237.067.327.252.47.167.127.92.127 2.426.127h16.643c1.506 0 2.259 0 2.425-.128.185-.142.234-.232.253-.469.017-.214-.445-.981-1.37-2.516-1.096-1.82-2.077-4.57-2.077-8.587z" stroke="#1E1E22" stroke-width="1.747" stroke-linecap="round" stroke-linejoin="round"/></symbol><symbol fill="none" viewBox="0 0 24 24" id="calendar" xmlns="http://www.w3.org/2000/svg"><path d="M21 10H3m13-8v4M8 2v4m-.2 16h8.4c1.68 0 2.52 0 3.162-.327a3 3 0 001.311-1.311C21 19.72 21 18.88 21 17.2V8.8c0-1.68 0-2.52-.327-3.162a3 3 0 00-1.311-1.311C18.72 4 17.88 4 16.2 4H7.8c-1.68 0-2.52 0-3.162.327a3 3 0 00-1.311 1.311C3 6.28 3 7.12 3 8.8v8.4c0 1.68 0 2.52.327 3.162a3 3 0 001.311 1.311C5.28 22 6.12 22 7.8 22z" stroke="#5C82D7" stroke-width="2" stroke-linecap="round" stroke-linejoin="round"/></symbol><symbol fill="none" viewBox="0 0 24 24" id="catalog" xmlns="http://www.w3.org/2000/svg"><path d="M12 6a1 1 0 100-2 1 1 0 000 2zm0 7a1 1 0 100-2 1 1 0 000 2zm0 7a1 1 0 100-2 1 1 0 000 2zm7-14a1 1 0 100-2 1 1 0 000 2zm0 7a1 1 0 100-2 1 1 0 000 2zm0 7a1 1 0 100-2 1 1 0 000 2zM5 6a1 1 0 100-2 1 1 0 000 2zm0 7a1 1 0 100-2 1 1 0 000 2zm0 7a1 1 0 100-2 1 1 0 000 2z" stroke="#5C82D7" stroke-width="2" stroke-linecap="round" stroke-linejoin="round"/></symbol><symbol fill="none" viewBox="0 0 24 24" id="clock" xmlns="http://www.w3.org/2000/svg"><path d="M12 6v6l4 2m6-2c0 5.523-4.477 10-10 10S2 17.523 2 12 6.477 2 12 2s10 4.477 10 10z" stroke="#5C82D7" stroke-width="2" stroke-linecap="round" stroke-linejoin="round"/></symbol><symbol fill="none" viewBox="0 0 24 24" id="home" xmlns="http://www.w3.org/2000/svg"><path d="M12.982 2.763c-.351-.273-.527-.41-.72-.463a1 1 0 00-.523 0c-.194.053-.37.19-.721.463L4.235 8.038c-.453.353-.68.529-.843.75a2 2 0 00-.318.65C3 9.702 3 9.989 3 10.564v7.235c0 1.12 0 1.68.218 2.108a2 2 0 00.874.874c.428.218.988.218 2.108.218h2c.28 0 .42 0 .527-.055a.5.5 0 00.218-.218C9 20.619 9 20.479 9 20.199v-6.6c0-.56 0-.84.109-1.054a1 1 0 01.437-.437c.214-.11.494-.11 1.054-.11h2.8c.56 0 .84 0 1.054.11a1 1 0 01.437.437c.109.214.109.494.109 1.054v6.6c0 .28 0 .42.055.527a.5.5 0 00.218.218c.107.055.247.055.527.055h2c1.12 0 1.68 0 2.108-.218a2 2 0 00.874-.874c.218-.428.218-.988.218-2.108v-7.235c0-.575 0-.862-.074-1.126a2.002 2.002 0 00-.318-.65c-.163-.221-.39-.397-.843-.75l-6.783-5.275z" stroke="#5C82D7" stroke-width="2" stroke-linecap="round" stroke-linejoin="round"/></symbol><symbol fill="none" viewBox="0 0 24 24" id="infinity" xmlns="http://www.w3.org/2000/svg"><path d="M18.178 8c5.096 0 5.096 8 0 8-5.095 0-7.133-8-12.74-8-4.584 0-4.584 8 0 8 5.607 0 7.645-8 12.74-8h0z" stroke="#5C82D7" stroke-width="2" stroke-linecap="round" stroke-linejoin="round"/></symbol><symbol fill="none" viewBox="0 0 24 24" id="logout" xmlns="http://www.w3.org/2000/svg"><path d="M16 17l5-5m0 0l-5-5m5 5H9m0-9H7.8c-1.68 0-2.52 0-3.162.327a3 3 0 00-1.311 1.311C3 5.28 3 6.12 3 7.8v8.4c0 1.68 0 2.52.327 3.162a3 3 0 001.311 1.311C5.28 21 6.12 21 7.8 21H9" stroke="#5C82D7" stroke-width="2" stroke-linecap="round" stroke-linejoin="round"/></symbol><symbol fill="none" viewBox="0 0 36 36" id="module-arrow" xmlns="http://www.w3.org/2000/svg"><circle cx="18" cy="18" r="18" fill="#5C82D7"/><path d="M13.41 14.59L12 16l6 6 6-6-1.41-1.41L18 19.17l-4.59-4.58z" fill="#fff"/></symbol><symbol fill="none" viewBox="0 0 24 24" id="profile" xmlns="http://www.w3.org/2000/svg"><path d="M3 20c2.336-2.477 5.507-4 9-4 3.493 0 6.664 1.523 9 4M16.5 7.5a4.5 4.5 0 11-9 0 4.5 4.5 0 019 0z" stroke="#5C82D7" stroke-width="2" stroke-linecap="round" stroke-linejoin="round"/></symbol><symbol fill="none" viewBox="0 0 37 36" id="tg" xmlns="http://www.w3.org/2000/svg"><path d="M18.5 0C8.559 0 .5 8.059.5 18s8.059 18 18 18 18-8.059 18-18-8.059-18-18-18z" fill="#40B3E0"/><path d="M27.258 10.353l-3.215 16.21s-.45 1.123-1.686.584l-7.419-5.688-2.698-1.304-4.54-1.529s-.697-.247-.765-.787c-.067-.54.787-.831.787-.831l18.053-7.082s1.484-.652 1.484.427" fill="#fff"/><path d="M14.368 26.382s-.217-.02-.487-.875c-.27-.854-1.64-5.35-1.64-5.35l10.903-6.925s.63-.382.607 0c0 0 .112.068-.225.383s-8.565 7.71-8.565 7.71" fill="#D2E5F1"/><path d="M17.783 23.64l-2.935 2.675s-.229.174-.48.065l.562-4.97" fill="#B5CFE4"/></symbol><symbol fill="none" viewBox="0 0 37 36" id="vk" xmlns="http://www.w3.org/2000/svg"><g clip-path="url(#pclip0_362_7121)"><path d="M3.03 2.53C.5 5.061.5 9.134.5 17.28v1.44c0 8.146 0 12.219 2.53 14.75C5.561 36 9.634 36 17.78 36h1.44c8.146 0 12.219 0 14.75-2.53 2.53-2.531 2.53-6.604 2.53-14.75v-1.44c0-8.146 0-12.219-2.53-14.75C31.438 0 27.365 0 19.22 0h-1.44C9.634 0 5.561 0 3.03 2.53zm3.545 8.42h4.11c.135 6.87 3.165 9.78 5.565 10.38V10.95h3.87v5.925c2.37-.255 4.86-2.955 5.7-5.925h3.87a11.43 11.43 0 01-5.265 7.47 11.842 11.842 0 016.165 7.515h-4.26a7.405 7.405 0 00-6.21-5.355v5.355h-.465c-8.205 0-12.885-5.625-13.08-14.985z" fill="#07F"/></g><defs><clipPath id="pclip0_362_7121"><path fill="#fff" transform="translate(.5)" d="M0 0h36v36H0z"/></clipPath></defs></symbol></svg>