<svg width="89" height="17" viewBox="0 0 89 17" fill="none" xmlns="http://www.w3.org/2000/svg">
<path d="M8.41455 0.128831C3.76972 0.128831 0 3.87912 0 8.50002C0 13.1209 3.76972 16.8712 8.41455 16.8712C13.0594 16.8712 16.8291 13.1209 16.8291 8.50002C16.8291 3.87912 13.0594 0.128831 8.41455 0.128831ZM12.3189 5.82124C12.1927 7.14389 11.6457 10.3584 11.3681 11.8401C11.2502 12.468 11.0146 12.6772 10.7959 12.7024C10.3078 12.7442 9.93758 12.3843 9.46636 12.0745C8.72588 11.589 8.30516 11.2876 7.58992 10.8188C6.75688 10.2747 7.29541 9.97335 7.77504 9.48782C7.90126 9.36225 10.0554 7.41177 10.0975 7.23597C10.1033 7.20934 10.1025 7.1817 10.0952 7.15544C10.0879 7.12918 10.0742 7.1051 10.0554 7.08529C10.0049 7.04343 9.93758 7.06018 9.87868 7.06855C9.80295 7.08529 8.62491 7.86381 6.32774 9.40411C5.99116 9.63013 5.68823 9.74733 5.41897 9.73895C5.11604 9.73058 4.54385 9.57153 4.11471 9.42922C3.5846 9.2618 3.17228 9.16971 3.20594 8.87672C3.22277 8.72604 3.43314 8.57536 3.82862 8.41631C6.28567 7.35317 7.91809 6.64999 8.7343 6.31514C11.0735 5.34408 11.5532 5.17666 11.8729 5.17666C11.9402 5.17666 12.1001 5.1934 12.2011 5.27711C12.2852 5.34408 12.3105 5.43616 12.3189 5.50313C12.3105 5.55336 12.3273 5.70404 12.3189 5.82124Z" fill="black"/>
<path d="M35.5988 9.3571C35.9838 9.47761 36.3527 9.6441 36.6974 9.85294L36.6754 9.84019C37.052 10.0066 37.3774 10.2014 37.6743 10.4302L37.6636 10.4224C37.6779 10.4656 37.6864 10.5145 37.6864 10.5662L37.6857 10.5889C37.675 10.8928 37.6074 11.1775 37.4928 11.4375L37.4985 11.4226C37.334 11.7506 37.0599 12.0034 36.7245 12.138L36.7145 12.1416C36.3675 12.322 35.9838 12.4216 35.5924 12.4327H35.5882C34.8411 12.3371 34.1191 12.1011 33.4607 11.7371L33.4913 11.7527C32.792 11.4375 32.156 10.9985 31.6145 10.4571L31.6138 10.4564C31.0231 9.84459 30.4875 9.18235 30.0132 8.47736L29.9797 8.42494C29.509 7.81284 29.236 7.07316 29.1965 6.30349L29.1958 6.29428V6.20645C29.2063 5.87767 29.2839 5.55445 29.4239 5.25646C29.5639 4.95848 29.7635 4.69197 30.0103 4.47316L30.0125 4.47104C30.165 4.31987 30.3704 4.2333 30.5856 4.22949C30.6576 4.23162 30.7273 4.23729 30.7943 4.2472L30.785 4.24579C30.8469 4.25499 30.9189 4.26066 30.9929 4.26208H30.995C31.0987 4.25205 31.2027 4.27754 31.2898 4.33433L31.2884 4.33362C31.3646 4.4172 31.423 4.51849 31.4578 4.6297L31.4593 4.63537C31.5181 4.78176 31.6396 5.10381 31.8238 5.60153C31.9199 5.82395 32.0139 6.09807 32.0894 6.37999L32.0994 6.42461C32.048 6.67114 31.9142 6.8931 31.7199 7.05432L31.7177 7.05574C31.4638 7.32301 31.3368 7.49301 31.3368 7.56573C31.3395 7.62537 31.3596 7.68294 31.3945 7.73148L31.3938 7.73078C31.6691 8.29712 32.0499 8.80642 32.5159 9.23173L32.5194 9.23527C33.0073 9.67246 33.5542 10.0396 34.1442 10.3261L34.1862 10.3445C34.2584 10.3911 34.3417 10.4177 34.4276 10.4217H34.429C34.5396 10.4217 34.7385 10.2442 35.0257 9.88906C35.3128 9.53395 35.5037 9.3564 35.5981 9.3564L35.5988 9.3571ZM33.3582 15.1768H33.3738C34.3087 15.1781 35.2336 14.9853 36.0894 14.6108L36.046 14.6278C37.7234 13.9237 39.0314 12.6225 39.722 10.9983L39.7391 10.9537C40.088 10.1653 40.2909 9.2459 40.2909 8.27973C40.2909 7.31357 40.088 6.39416 39.722 5.56187L39.7391 5.60578C39.0314 3.93695 37.7234 2.63575 36.0908 1.94867L36.046 1.93167C35.2535 1.58459 34.3293 1.38271 33.3582 1.38271C32.387 1.38271 31.4628 1.58459 30.6262 1.94867L30.6704 1.93167C28.9929 2.63575 27.685 3.93695 26.9943 5.56116L26.9772 5.60578C26.6101 6.45276 26.4223 7.36588 26.4254 8.28823C26.4231 9.74656 26.8922 11.167 27.7633 12.3399L27.7497 12.3215L26.8775 14.8807L29.549 14.0349C30.6649 14.7827 31.9806 15.1804 33.3261 15.1768H33.3596H33.3582ZM33.3817 4.81206e-05C34.5408 4.81206e-05 35.643 0.242297 36.6391 0.679338L36.5871 0.658796C38.5985 1.50667 40.167 3.06712 40.9986 5.01433L41.0193 5.06816C41.4379 6.0152 41.6814 7.11949 41.6814 8.28044C41.6814 9.4414 41.4379 10.5457 40.9986 11.5451L41.0193 11.4927C40.167 13.4938 38.5985 15.0542 36.6412 15.8815L36.5871 15.9021C35.6423 16.3186 34.5401 16.5608 33.381 16.5608H33.3567H33.3582H33.3204C31.8544 16.5608 30.4781 16.1776 29.2877 15.5068L29.3283 15.5281L24.7252 17L26.2268 12.5524C25.4429 11.2697 25.0305 9.79647 25.0349 8.29532C25.0349 7.1294 25.2784 6.02016 25.7177 5.01503L25.6971 5.06816C26.5493 3.06712 28.1178 1.50667 30.0751 0.679338L30.1293 0.658796C31.1405 0.22055 32.2323 -0.00377758 33.3354 4.81206e-05H33.3817Z" fill="black"/>
<path d="M88.1606 0.96595H74.6932C74.4711 0.967593 74.2585 1.0561 74.1015 1.21234C73.9444 1.36858 73.8555 1.58002 73.8538 1.80098V15.1991C73.8555 15.42 73.9444 15.6315 74.1015 15.7877C74.2585 15.9439 74.4711 16.0324 74.6932 16.0341H81.9444V10.2077H79.9754V7.92869H81.9444V6.25236C81.9444 4.30605 83.1372 3.24501 84.8916 3.24501C85.4785 3.24501 86.0654 3.24501 86.6523 3.3329V5.36082H85.447C84.494 5.36082 84.311 5.81287 84.311 6.4721V7.92241H86.5829L86.2863 10.2015H84.311V16.0341H88.1606C88.3827 16.0324 88.5953 15.9439 88.7523 15.7877C88.9094 15.6315 88.9984 15.42 89 15.1991V1.80098C88.9984 1.58002 88.9094 1.36858 88.7523 1.21234C88.5953 1.0561 88.3827 0.967593 88.1606 0.96595Z" fill="black"/>
<path fill-rule="evenodd" clip-rule="evenodd" d="M53.8259 0.0510406C54.737 0.00931348 55.0275 4.07983e-05 57.3484 4.07983e-05C59.6692 4.07983e-05 59.9597 0.0100862 60.87 0.0510406C61.7804 0.0919951 62.4017 0.236495 62.9455 0.445903C63.5148 0.659948 64.0313 0.994538 64.4585 1.42726C64.8935 1.85149 65.229 2.36458 65.4434 2.93176C65.6547 3.47267 65.7992 4.09085 65.8411 4.99494C65.883 5.90289 65.8924 6.19189 65.8924 8.50002C65.8924 10.8089 65.8823 11.0979 65.8411 12.0043C65.7999 12.9084 65.6547 13.5266 65.4434 14.0675C65.229 14.6348 64.8929 15.1487 64.4585 15.5735C64.0313 16.0063 63.5148 16.3401 62.9455 16.5534C62.4017 16.7635 61.7804 16.9073 60.8716 16.949C59.9597 16.9907 59.6692 17 57.3484 17C55.0275 17 54.737 16.9899 53.8259 16.949C52.9171 16.908 52.2958 16.7635 51.752 16.5534C51.1819 16.3401 50.6653 16.0057 50.2382 15.5735C49.8035 15.1491 49.4672 14.6354 49.2525 14.0683C49.042 13.5274 48.8976 12.9092 48.8556 12.0051C48.8137 11.0971 48.8044 10.8081 48.8044 8.50002C48.8044 6.19111 48.8145 5.90211 48.8556 4.99648C48.8968 4.09085 49.042 3.47267 49.2525 2.93176C49.4675 2.36464 49.8041 1.85096 50.239 1.42649C50.6654 0.994152 51.1815 0.659518 51.7513 0.445903C52.295 0.236495 52.9171 0.0927678 53.8259 0.0510406ZM60.8009 1.58104C59.8999 1.54008 59.6296 1.53158 57.3484 1.53158C55.0671 1.53158 54.7968 1.54008 53.8958 1.58104C53.0624 1.6189 52.6103 1.75722 52.309 1.8739C51.9105 2.02844 51.6254 2.21158 51.3264 2.50908C51.0429 2.78344 50.8248 3.11743 50.6879 3.48658C50.5706 3.78639 50.4316 4.23612 50.3935 5.06525C50.3524 5.96161 50.3438 6.23052 50.3438 8.50002C50.3438 10.7695 50.3524 11.0384 50.3935 11.9348C50.4316 12.7639 50.5706 13.2136 50.6879 13.5135C50.8246 13.882 51.0429 14.2166 51.3264 14.491C51.6021 14.773 51.9385 14.9901 52.309 15.1261C52.6103 15.2428 53.0624 15.3811 53.8958 15.419C54.7968 15.46 55.0663 15.4685 57.3484 15.4685C59.6304 15.4685 59.8999 15.46 60.8009 15.419C61.6343 15.3811 62.0864 15.2428 62.3878 15.1261C62.7862 14.9716 63.0713 14.7885 63.3703 14.491C63.6538 14.2166 63.8721 13.882 64.0088 13.5135C64.1261 13.2136 64.2651 12.7639 64.3032 11.9348C64.3443 11.0384 64.3529 10.7695 64.3529 8.50002C64.3529 6.23052 64.3443 5.96161 64.3032 5.06525C64.2651 4.23612 64.1261 3.78639 64.0088 3.48658C63.8535 3.09017 63.6694 2.80658 63.3703 2.50908C63.0945 2.22709 62.7588 2.01006 62.3878 1.8739C62.0864 1.75722 61.6343 1.6189 60.8009 1.58104ZM56.2571 11.1203C56.8665 11.3727 57.5452 11.4068 58.1771 11.2167C58.809 11.0266 59.355 10.6242 59.7217 10.0781C60.0885 9.53204 60.2534 8.87623 60.1881 8.22269C60.1229 7.56914 59.8316 6.95841 59.364 6.49479C59.0659 6.19844 58.7055 5.97151 58.3087 5.83036C57.9118 5.68922 57.4885 5.63735 57.0691 5.6785C56.6497 5.71965 56.2448 5.8528 55.8833 6.06835C55.5219 6.28391 55.2129 6.57651 54.9788 6.92509C54.7447 7.27367 54.5911 7.66956 54.5292 8.08426C54.4674 8.49896 54.4987 8.92215 54.6209 9.32337C54.7432 9.72458 54.9533 10.0938 55.2362 10.4046C55.5191 10.7153 55.8678 10.9597 56.2571 11.1203ZM54.243 5.41066C54.6508 5.00496 55.1349 4.68314 55.6678 4.46358C56.2006 4.24402 56.7716 4.13101 57.3484 4.13101C57.9251 4.13101 58.4961 4.24402 59.029 4.46358C59.5618 4.68314 60.0459 5.00496 60.4537 5.41066C60.8615 5.81636 61.185 6.298 61.4057 6.82807C61.6264 7.35814 61.74 7.92627 61.74 8.50002C61.74 9.07376 61.6264 9.64189 61.4057 10.172C61.185 10.702 60.8615 11.1837 60.4537 11.5894C59.6301 12.4087 58.5131 12.869 57.3484 12.869C56.1836 12.869 55.0666 12.4087 54.243 11.5894C53.4194 10.77 52.9567 9.65875 52.9567 8.50002C52.9567 7.34128 53.4194 6.23001 54.243 5.41066ZM62.714 4.78166C62.815 4.68683 62.896 4.57278 62.9519 4.44628C63.0079 4.31978 63.0377 4.1834 63.0398 4.0452C63.0418 3.90701 63.0159 3.76982 62.9637 3.64175C62.9115 3.51368 62.8339 3.39733 62.7357 3.29961C62.6375 3.20188 62.5205 3.12475 62.3918 3.0728C62.2631 3.02084 62.1252 2.9951 61.9863 2.99712C61.8473 2.99913 61.7103 3.02886 61.5831 3.08452C61.4559 3.14019 61.3413 3.22068 61.246 3.32121C61.0606 3.51674 60.9591 3.77644 60.963 4.0452C60.967 4.31396 61.076 4.57062 61.2671 4.76068C61.4581 4.95074 61.7161 5.05925 61.9863 5.06317C62.2564 5.06708 62.5175 4.9661 62.714 4.78166Z" fill="black"/>
</svg>
