<svg width="24" height="24" viewBox="0 0 24 24" fill="none" xmlns="http://www.w3.org/2000/svg">
<path fill-rule="evenodd" clip-rule="evenodd" d="M10 16L14 12L10 8" fill="#232323"/>
<path d="M10 16H9.5V17.2071L10.3536 16.3536L10 16ZM14 12L14.3536 12.3536L14.7071 12L14.3536 11.6464L14 12ZM10 8L10.3536 7.64645L9.5 6.79289V8H10ZM10.3536 16.3536L14.3536 12.3536L13.6464 11.6464L9.64645 15.6464L10.3536 16.3536ZM14.3536 11.6464L10.3536 7.64645L9.64645 8.35355L13.6464 12.3536L14.3536 11.6464ZM9.5 8V16H10.5V8H9.5Z" fill="#232323"/>
</svg>
