<svg width="471" height="319" viewBox="0 0 471 319" fill="none" xmlns="http://www.w3.org/2000/svg">
<g clip-path="url(#clip0_172_2982)">
<path d="M466.417 5.96952e-09H147.712C146.498 0.00105949 145.334 0.483773 144.476 1.34217C143.617 2.20057 143.135 3.36449 143.134 4.57843V119.779H220.263C222.351 119.782 224.353 120.613 225.83 122.089C227.306 123.565 228.137 125.567 228.139 127.655V225.12H466.417C467.079 225.12 467.733 224.976 468.334 224.699C468.935 224.422 469.469 224.017 469.898 223.513C469.935 223.474 469.968 223.432 469.998 223.387C470.271 223.053 470.492 222.68 470.654 222.28C470.885 221.729 471.002 221.138 471.001 220.542V4.57843C470.999 3.36365 470.516 2.19909 469.656 1.34061C468.797 0.482123 467.632 -6.19485e-05 466.417 5.96952e-09Z" fill="#F2F2F2"/>
<path d="M470.342 18.3516H143.784V19.6604H470.342V18.3516Z" fill="#CCCCCC"/>
<path d="M154.91 13.7437C157.079 13.7437 158.836 11.9857 158.836 9.81717C158.836 7.6486 157.079 5.89062 154.91 5.89062C152.741 5.89062 150.983 7.6486 150.983 9.81717C150.983 11.9857 152.741 13.7437 154.91 13.7437Z" fill="#CCCCCC"/>
<path d="M166.198 13.7437C168.367 13.7437 170.125 11.9857 170.125 9.81717C170.125 7.6486 168.367 5.89062 166.198 5.89062C164.029 5.89062 162.271 7.6486 162.271 9.81717C162.271 11.9857 164.029 13.7437 166.198 13.7437Z" fill="#CCCCCC"/>
<path d="M177.487 13.7437C179.656 13.7437 181.414 11.9857 181.414 9.81717C181.414 7.6486 179.656 5.89062 177.487 5.89062C175.319 5.89062 173.561 7.6486 173.561 9.81717C173.561 11.9857 175.319 13.7437 177.487 13.7437Z" fill="#CCCCCC"/>
<path d="M388.971 46.9297H225.156C223.345 46.9297 221.609 47.6488 220.329 48.9289C219.049 50.2089 218.33 51.9451 218.33 53.7553C218.33 55.5656 219.049 57.3017 220.329 58.5818C221.609 59.8618 223.345 60.581 225.156 60.581H388.971C390.781 60.581 392.517 59.8618 393.798 58.5818C395.078 57.3017 395.797 55.5656 395.797 53.7553C395.797 51.9451 395.078 50.2089 393.798 48.9289C392.517 47.6488 390.781 46.9297 388.971 46.9297ZM388.971 59.5309H225.156C223.624 59.5309 222.155 58.9224 221.072 57.8392C219.989 56.7561 219.38 55.2871 219.38 53.7553C219.38 52.2236 219.989 50.7545 221.072 49.6714C222.155 48.5883 223.624 47.9798 225.156 47.9798H388.971C390.503 47.9798 391.972 48.5883 393.055 49.6714C394.138 50.7545 394.747 52.2236 394.747 53.7553C394.747 55.2871 394.138 56.7561 393.055 57.8392C391.972 58.9224 390.503 59.5309 388.971 59.5309Z" fill="#CCCCCC"/>
<path d="M439.098 101.309H275.283C273.472 101.309 271.736 102.028 270.456 103.308C269.176 104.588 268.457 106.324 268.457 108.134C268.457 109.945 269.176 111.681 270.456 112.961C271.736 114.241 273.472 114.96 275.283 114.96H439.098C440.908 114.96 442.644 114.241 443.924 112.961C445.205 111.681 445.924 109.945 445.924 108.134C445.924 106.324 445.205 104.588 443.924 103.308C442.644 102.028 440.908 101.309 439.098 101.309Z" fill="white"/>
<path d="M439.098 126.508H275.283C273.472 126.508 271.736 127.227 270.456 128.507C269.176 129.787 268.457 131.523 268.457 133.333C268.457 135.144 269.176 136.88 270.456 138.16C271.736 139.44 273.472 140.159 275.283 140.159H439.098C440.908 140.159 442.644 139.44 443.924 138.16C445.205 136.88 445.924 135.144 445.924 133.333C445.924 131.523 445.205 129.787 443.924 128.507C442.644 127.227 440.908 126.508 439.098 126.508Z" fill="white"/>
<path d="M439.098 151.711H275.283C273.472 151.711 271.736 152.43 270.456 153.71C269.176 154.99 268.457 156.726 268.457 158.537C268.457 160.347 269.176 162.083 270.456 163.363C271.736 164.643 273.472 165.362 275.283 165.362H439.098C440.908 165.362 442.644 164.643 443.924 163.363C445.205 162.083 445.924 160.347 445.924 158.537C445.924 156.726 445.205 154.99 443.924 153.71C442.644 152.43 440.908 151.711 439.098 151.711Z" fill="white"/>
<path d="M248.81 90.0195H174.243C172.643 90.0214 171.11 90.6576 169.979 91.7886C168.848 92.9195 168.212 94.4529 168.21 96.0523V119.779H169.26V96.0523C169.262 94.7314 169.788 93.4652 170.722 92.5312C171.656 91.5972 172.922 91.0716 174.243 91.0696H248.81C250.132 91.0708 251.398 91.5961 252.332 92.5303C253.267 93.4645 253.792 94.7312 253.793 96.0523V170.62C253.792 171.941 253.267 173.208 252.332 174.142C251.398 175.076 250.132 175.601 248.81 175.603H228.139V176.653H248.81C250.41 176.652 251.944 176.016 253.075 174.885C254.206 173.753 254.842 172.219 254.843 170.62V96.0523C254.842 94.4527 254.206 92.9188 253.075 91.7876C251.944 90.6565 250.41 90.0206 248.81 90.0195Z" fill="#CCCCCC"/>
<path d="M55.4569 166.737C55.1932 166.748 43.953 165.969 43.666 165.959L44.6757 155.88L51.0778 155.687L63.3115 133.028C61.6148 129.793 63.7027 125.5 67.302 124.838C74.555 123.19 77.0465 134.601 69.7714 136.119L59.6526 163.807C59.3351 164.664 58.7632 165.405 58.0133 165.929C57.2635 166.452 56.3716 166.735 55.4569 166.737Z" fill="#FFB8B8"/>
<path d="M25.8239 171.929C15.1278 171.955 14.1889 155.79 24.9087 154.651C53.2553 152.938 49.6681 145.818 51.8208 166.819C51.8869 167.442 51.7032 168.065 51.31 168.553C50.9168 169.041 50.3462 169.352 49.7234 169.42L26.7524 171.879C26.444 171.912 26.1341 171.928 25.8239 171.929Z" fill="#006E53"/>
<path d="M23.3823 120.82C38.1176 129.205 26.0207 151.329 11.0107 143.451C-3.72409 135.066 8.37283 112.943 23.3823 120.82Z" fill="#FFB8B8"/>
<path d="M36.7794 311.263L43.2159 311.262L46.2786 286.434L36.7783 286.434L36.7794 311.263Z" fill="#FFB8B8"/>
<path d="M35.3998 317.236L55.6303 317.235C55.553 306.796 42.022 309.804 35.3994 309.419L35.3998 317.236Z" fill="#2F2E41"/>
<path d="M8.95124 311.263L15.3878 311.262L18.4504 286.434L8.9502 286.434L8.95124 311.263Z" fill="#FFB8B8"/>
<path d="M7.57262 317.236L27.8031 317.235C27.7259 306.796 14.1948 309.804 7.57227 309.419L7.57262 317.236Z" fill="#2F2E41"/>
<path d="M16.2673 302.59C14.7115 302.163 6.25782 303.454 5.26013 301.759C1.7759 266.838 2.55041 232.662 10.2847 213.882L36.8775 212.254C42.8241 223.11 56.4935 295.146 48.2479 299.526L37.6448 299.904C37.0402 299.924 36.4472 299.735 35.9654 299.369C35.4836 299.003 35.1423 298.483 34.9989 297.895L26.1283 247.429C23.9194 244.341 19.5772 300.576 18.8601 300.366C18.7666 300.986 18.4533 301.552 17.9773 301.96C17.5013 302.368 16.8944 302.592 16.2673 302.59Z" fill="#2F2E41"/>
<path d="M9.4395 218.295C-3.98685 204.248 4.57734 166.589 4.14389 167.39C4.18068 166.467 7.22172 152.26 15.0883 149.928C21.3294 147.868 28.2372 154.03 29.0893 160.261L38.4385 215.472C38.4868 215.773 38.4639 216.08 38.3714 216.37C38.279 216.66 38.1196 216.925 37.9062 217.142C38.3659 218.573 10.0968 218.008 9.4395 218.295Z" fill="#006E53"/>
<path d="M13.7973 130.703C14.9763 129.957 15.5575 128.679 16.2438 127.514C19.859 125.454 24.0149 130.438 27.8387 128.578C38.6509 118.198 27.5372 115.136 17.579 114.589C15.2266 114.299 13.2254 115.133 11.4469 116.511C-8.44497 114.992 1.09488 141.442 13.649 144.936C15.8656 145.907 17.5283 143.941 15.5736 142.155C12.8691 139.32 9.51895 133.613 13.7973 130.703Z" fill="#2F2E41"/>
<path d="M220.263 118.727H76.3995C74.0332 118.73 71.7648 119.671 70.0917 121.345C68.4185 123.018 67.477 125.286 67.4736 127.652V309.319C67.477 311.686 68.4185 313.954 70.0917 315.627C71.7648 317.3 74.0332 318.242 76.3995 318.245H220.263C222.629 318.242 224.898 317.3 226.571 315.627C228.244 313.954 229.185 311.686 229.189 309.319V127.652C229.185 125.286 228.244 123.018 226.571 121.345C224.898 119.671 222.629 118.73 220.263 118.727ZM228.139 309.319C228.136 311.407 227.306 313.409 225.829 314.886C224.353 316.362 222.351 317.193 220.263 317.195H76.3995C74.3115 317.193 72.3097 316.362 70.8333 314.886C69.3569 313.409 68.5263 311.407 68.5237 309.319V127.652C68.5263 125.564 69.3569 123.563 70.8333 122.086C72.3097 120.61 74.3115 119.779 76.3995 119.777H220.263C222.351 119.779 224.353 120.61 225.829 122.086C227.306 123.563 228.136 125.564 228.139 127.652V309.319Z" fill="#3F3D56"/>
<path d="M35.8645 195.174C31.123 195.711 29.0413 184.677 27.2285 181.866L36.6715 178.199L39.7441 183.819L65.4862 184.459C65.6392 184.251 65.8063 184.055 65.9863 183.871C71.0914 178.525 79.4052 186.534 74.3194 191.868C73.7583 192.464 73.0772 192.935 72.321 193.249C71.5648 193.563 70.7507 193.713 69.9323 193.689C69.1139 193.665 68.3099 193.468 67.5731 193.111C66.8363 192.754 66.1836 192.245 65.6578 191.618C65.0221 191.663 36.4862 195.191 35.8645 195.174Z" fill="#FFB8B8"/>
<path d="M28.8707 189.907C27.2919 191.428 15.1718 170.074 14.2863 169.47C8.16199 159.951 22.5798 150.553 28.8097 160.021L41.4093 179.384C41.7504 179.909 41.8691 180.548 41.7394 181.161C41.6097 181.774 41.2423 182.31 40.7177 182.653C40.1434 182.921 29.276 190.485 28.8707 189.907Z" fill="#006E53"/>
<path d="M191.911 244.479H104.753C95.8495 244.437 95.8125 230.875 104.753 230.828H191.911C200.808 230.87 200.856 244.433 191.911 244.479Z" fill="#CCCCCC"/>
<path d="M191.911 269.679H104.753C95.8495 269.636 95.8125 256.074 104.753 256.027H191.911C200.808 256.069 200.856 269.632 191.911 269.679Z" fill="#CCCCCC"/>
<path d="M191.911 294.882H104.753C95.8495 294.839 95.8125 281.277 104.753 281.23H191.911C200.808 281.272 200.856 294.835 191.911 294.882Z" fill="#CCCCCC"/>
<path d="M224.464 135.529C221.764 135.529 219.124 134.728 216.88 133.228C214.635 131.728 212.885 129.596 211.852 127.102C210.818 124.608 210.548 121.863 211.075 119.215C211.602 116.567 212.902 114.134 214.811 112.225C216.72 110.316 219.152 109.016 221.801 108.489C224.449 107.962 227.193 108.232 229.688 109.266C232.182 110.299 234.314 112.049 235.814 114.294C237.314 116.539 238.115 119.178 238.115 121.878C238.111 125.497 236.671 128.967 234.112 131.526C231.553 134.085 228.083 135.525 224.464 135.529Z" fill="#006E53"/>
<path d="M230.764 121.354H224.988V114.791C224.988 114.651 224.933 114.518 224.835 114.419C224.736 114.321 224.603 114.266 224.463 114.266C224.324 114.266 224.191 114.321 224.092 114.419C223.994 114.518 223.938 114.651 223.938 114.791V121.354H218.163C218.023 121.354 217.89 121.409 217.791 121.508C217.693 121.606 217.638 121.74 217.638 121.879C217.638 122.018 217.693 122.152 217.791 122.25C217.89 122.349 218.023 122.404 218.163 122.404H223.938V128.967C223.938 129.106 223.994 129.24 224.092 129.338C224.191 129.437 224.324 129.492 224.463 129.492C224.603 129.492 224.736 129.437 224.835 129.338C224.933 129.24 224.988 129.106 224.988 128.967V122.404H230.764C230.903 122.404 231.037 122.349 231.135 122.25C231.234 122.152 231.289 122.018 231.289 121.879C231.289 121.74 231.234 121.606 231.135 121.508C231.037 121.409 230.903 121.354 230.764 121.354Z" fill="white"/>
<path d="M190.335 214.445H106.327C104.031 214.442 101.828 213.529 100.204 211.905C98.5802 210.281 97.6667 208.079 97.6641 205.782V158.738C97.6667 156.441 98.5802 154.239 100.204 152.615C101.828 150.99 104.031 150.077 106.327 150.074H190.335C192.632 150.077 194.834 150.99 196.458 152.615C198.082 154.239 198.996 156.441 198.999 158.738V205.782C198.996 208.079 198.082 210.281 196.458 211.905C194.834 213.529 192.632 214.442 190.335 214.445Z" fill="#006E53"/>
</g>
<defs>
<clipPath id="clip0_172_2982">
<rect width="471" height="318.248" fill="white"/>
</clipPath>
</defs>
</svg>
