<svg width="26" height="26" viewBox="0 0 26 26" fill="none" xmlns="http://www.w3.org/2000/svg">
<path d="M18.0019 22.0036H12.9998C8.02721 22.0036 3.99609 17.9725 3.99609 12.9998C3.99609 8.02721 8.02721 3.99609 12.9998 3.99609C17.9725 3.99609 22.0036 8.02721 22.0036 12.9998V14.5005C22.0036 15.8818 20.8838 17.0015 19.5026 17.0015C18.1213 17.0015 17.0015 15.8818 17.0015 14.5005V12.9998C17.0015 10.7898 15.2099 8.99818 12.9998 8.99818V8.99818C10.7898 8.99818 8.99818 10.7898 8.99818 12.9998C8.99818 15.2099 10.7898 17.0015 12.9998 17.0015C15.2099 17.0015 17.0015 15.2099 17.0015 12.9998" stroke="#636363" stroke-width="1.5" stroke-linecap="round" stroke-linejoin="round"/>
</svg>
