<svg width="1411" height="594" viewBox="0 0 1411 594" fill="none" xmlns="http://www.w3.org/2000/svg">
<g opacity="0.1" clip-path="url(#clip0_324_656)">
<path d="M977.324 596.511L978.173 594.767C978.431 594.237 1003.85 541.095 989.679 488.699C975.505 436.302 926.759 403.224 926.268 402.897L924.658 401.818L923.809 403.562C923.55 404.092 898.129 457.234 912.303 509.63C926.477 562.027 975.223 595.106 975.713 595.433L977.324 596.511ZM926.021 406.863C934.556 413.071 974.038 443.828 986.415 489.581C998.801 535.37 980.202 581.807 975.96 591.467C967.426 585.258 927.944 554.501 915.568 508.748C903.18 462.959 921.78 416.522 926.021 406.863Z" fill="#AFAFAF"/>
<path d="M977.075 593.825L976.852 591.898C976.785 591.312 969.639 532.838 929.512 496.286C889.383 459.733 830.497 458.06 829.908 458.048L827.97 458.005L828.192 459.932C828.259 460.518 835.406 518.992 875.533 555.544C915.662 592.097 974.547 593.77 975.137 593.782L977.075 593.825ZM831.833 461.525C842.367 462.17 892.194 466.868 927.234 498.785C962.301 530.728 971.593 579.88 973.212 590.305C962.678 589.66 912.851 584.962 877.811 553.045C842.743 521.102 833.451 471.95 831.833 461.525Z" fill="#AFAFAF"/>
<path d="M976.314 594.538L978 593.579C978.512 593.288 1029.51 563.797 1047.41 512.555C1065.31 461.311 1043.78 406.48 1043.56 405.933L1042.84 404.134L1041.15 405.093C1040.64 405.384 989.64 434.875 971.739 486.117C953.836 537.361 975.374 592.192 975.594 592.739L976.314 594.538ZM1041.11 409.067C1044.65 419.01 1059.85 466.693 1044.22 511.439C1028.57 556.219 986.995 584.031 978.038 589.605C974.503 579.661 959.298 531.979 974.931 487.234C990.575 442.453 1032.15 414.641 1041.11 409.067Z" fill="#AFAFAF"/>
<path d="M976.56 595.775L978.495 595.67C979.085 595.638 1037.88 592.014 1076.78 554.152C1115.67 516.29 1120.87 457.612 1120.92 457.022L1121.08 455.092L1119.14 455.197C1118.56 455.229 1059.76 458.853 1020.86 496.715C981.969 534.579 976.765 593.256 976.718 593.845L976.56 595.775ZM1117.34 458.736C1116.06 469.211 1108.38 518.668 1074.42 551.728C1040.45 584.792 990.811 591.137 980.305 592.131C981.58 581.654 989.259 532.201 1023.22 499.139C1057.21 466.051 1106.83 459.725 1117.34 458.736Z" fill="#AFAFAF"/>
<path d="M1280.1 372.634C1259.81 392.382 1257.34 422.739 1257.34 422.739C1257.34 422.739 1287.75 421.078 1308.04 401.33C1328.32 381.582 1330.8 351.225 1330.8 351.225C1330.8 351.225 1300.39 352.886 1280.1 372.634Z" fill="#AFAFAF"/>
<path d="M1252.49 594.476L1251.26 593.204C1251.46 593.02 1270.54 574.326 1277.81 539.396C1284.52 507.136 1282.24 454.018 1233.26 384.173C1195.69 330.604 1180.49 283.803 1188.07 245.068C1194.74 211.039 1217.4 196.091 1217.63 195.944L1218.58 197.426C1218.36 197.57 1196.29 212.166 1189.79 245.462C1182.33 283.698 1197.44 330.026 1234.7 383.16C1256.49 414.233 1271 444.664 1277.82 473.605C1283.28 496.797 1283.85 519.092 1279.51 539.868C1272.11 575.291 1252.68 594.288 1252.49 594.476Z" fill="#AFAFAF"/>
<path d="M1243.68 239.901C1331.36 239.901 1402.44 227.707 1402.44 212.665C1402.44 197.623 1331.36 185.429 1243.68 185.429C1156 185.429 1084.92 197.623 1084.92 212.665C1084.92 227.707 1156 239.901 1243.68 239.901Z" fill="#AFAFAF"/>
<path d="M1214.13 231.96C1104.09 231.96 1017.89 216.851 1017.89 197.563C1017.89 178.275 1104.09 163.166 1214.13 163.166C1324.18 163.166 1410.38 178.275 1410.38 197.563C1410.38 216.851 1324.18 231.96 1214.13 231.96ZM1214.13 164.93C1108.72 164.93 1019.66 179.874 1019.66 197.563C1019.66 215.252 1108.72 230.197 1214.13 230.197C1319.55 230.197 1408.61 215.252 1408.61 197.563C1408.61 179.874 1319.55 164.93 1214.13 164.93Z" fill="#AFAFAF"/>
<path d="M663.289 593.593L662.066 592.322C662.308 592.089 686.369 568.529 695.539 524.5C704.007 483.843 701.147 416.905 639.431 328.903C613.644 292.134 596.059 257.393 587.164 225.648C579.896 199.709 578.357 175.596 582.59 153.978C590.959 111.238 619.405 92.4739 619.692 92.2896L620.647 93.7719C620.367 93.9528 592.515 112.364 584.311 154.372C574.897 202.567 593.928 260.948 640.875 327.89C668.289 366.981 686.538 405.259 695.115 441.661C701.986 470.823 702.701 498.853 697.242 524.973C687.938 569.493 663.534 593.357 663.289 593.593Z" fill="#AFAFAF"/>
<path d="M604.071 190.729C641.78 190.729 672.35 160.159 672.35 122.45C672.35 84.7411 641.78 54.1719 604.071 54.1719C566.362 54.1719 535.793 84.7411 535.793 122.45C535.793 160.159 566.362 190.729 604.071 190.729Z" fill="#AFAFAF"/>
<path d="M620.171 186.06C601.771 186.06 583.785 180.604 568.486 170.382C553.187 160.16 541.263 145.63 534.222 128.631C527.181 111.632 525.339 92.927 528.928 74.881C532.518 56.8349 541.378 40.2585 554.388 27.248C567.399 14.2375 583.975 5.37725 602.021 1.78763C620.067 -1.80199 638.772 0.0402661 655.772 7.08145C672.771 14.1226 687.3 26.0465 697.522 41.3452C707.744 56.6439 713.201 74.6303 713.201 93.0299C713.173 117.694 703.362 141.341 685.922 158.781C668.482 176.222 644.835 186.032 620.171 186.06ZM620.171 1.76402C602.12 1.76398 584.475 7.1166 569.466 17.145C554.457 27.1734 542.76 41.4272 535.852 58.1039C528.944 74.7806 527.137 93.1312 530.658 110.835C534.18 128.539 542.872 144.801 555.636 157.565C568.4 170.329 584.662 179.021 602.366 182.542C620.069 186.064 638.42 184.257 655.097 177.349C671.773 170.441 686.027 158.743 696.056 143.735C706.084 128.726 711.437 111.081 711.437 93.0298C711.409 68.833 701.785 45.6352 684.675 28.5254C667.566 11.4157 644.368 1.79144 620.171 1.76402Z" fill="#AFAFAF"/>
<path d="M672.352 333.95C703.622 333.95 728.973 308.6 728.973 277.329C728.973 246.058 703.622 220.708 672.352 220.708C641.081 220.708 615.73 246.058 615.73 277.329C615.73 308.6 641.081 333.95 672.352 333.95Z" fill="#AFAFAF"/>
<path d="M643.484 530.453C674.755 530.453 700.105 505.103 700.105 473.832C700.105 442.561 674.755 417.211 643.484 417.211C612.213 417.211 586.863 442.561 586.863 473.832C586.863 505.103 612.213 530.453 643.484 530.453Z" fill="#AFAFAF"/>
<path d="M1260.93 594.336H1068.98C1068.98 594.336 1065.09 537.268 1088.11 536.62C1111.13 535.971 1108.54 561.911 1137.39 526.244C1166.25 490.576 1201.27 492.522 1205.81 513.598C1210.35 534.674 1197.06 551.535 1221.37 546.347C1245.69 541.159 1280.71 554.778 1260.93 594.336Z" fill="#AFAFAF"/>
<path d="M1161.71 594.349L1161.06 594.323C1162.58 556.75 1170.44 532.609 1176.78 518.974C1183.66 504.168 1190.29 498.175 1190.35 498.116L1190.78 498.6C1190.72 498.659 1184.17 504.593 1177.34 519.298C1171.04 532.876 1163.22 556.918 1161.71 594.349Z" fill="white"/>
<path d="M1231.19 594.422L1230.57 594.241C1235.39 578.316 1244.1 563.838 1255.89 552.104L1256.33 552.584C1244.62 564.237 1235.98 578.612 1231.19 594.422Z" fill="white"/>
<path d="M1099.21 594.379L1098.57 594.29C1100.66 580.203 1098.45 565.812 1092.22 553.006C1089.66 547.635 1086.28 542.698 1082.19 538.376L1082.64 537.908C1086.78 542.283 1090.21 547.281 1092.8 552.719C1099.09 565.642 1101.32 580.163 1099.21 594.379Z" fill="white"/>
<path d="M547.637 594.146L547.194 593.236C547.059 592.96 533.798 565.239 541.192 537.908C548.586 510.576 574.013 493.321 574.269 493.151L575.109 492.588L575.552 493.498C575.687 493.774 588.947 521.495 581.553 548.826C574.16 576.158 548.733 593.413 548.477 593.584L547.637 594.146ZM574.398 495.22C569.946 498.458 549.351 514.502 542.895 538.368C536.433 562.253 546.135 586.476 548.348 591.515C552.8 588.276 573.395 572.232 579.851 548.366C586.312 524.481 576.61 500.258 574.398 495.22Z" fill="#AFAFAF"/>
<path d="M513.447 548.6C520.84 575.929 546.163 592.854 546.163 592.854C546.163 592.854 559.499 565.471 552.106 538.142C544.713 510.813 519.391 493.888 519.391 493.888C519.391 493.888 506.054 521.271 513.447 548.6Z" fill="#AFAFAF"/>
<path d="M81.7951 392.367C100.397 392.367 115.477 377.287 115.477 358.685C115.477 340.083 100.397 325.003 81.7951 325.003C63.1931 325.003 48.1133 340.083 48.1133 358.685C48.1133 377.287 63.1931 392.367 81.7951 392.367Z" fill="#AFAFAF"/>
<path d="M75.2977 471.545C85.7409 471.545 94.2068 463.079 94.2068 452.636C94.2068 442.193 85.7409 433.727 75.2977 433.727C64.8546 433.727 56.3887 442.193 56.3887 452.636C56.3887 463.079 64.8546 471.545 75.2977 471.545Z" fill="#AFAFAF"/>
<path d="M48.5253 240.516C72.4774 240.516 91.8944 221.099 91.8944 197.147C91.8944 173.195 72.4774 153.778 48.5253 153.778C24.5732 153.778 5.15625 173.195 5.15625 197.147C5.15625 221.099 24.5732 240.516 48.5253 240.516Z" fill="#AFAFAF"/>
<path d="M58.7512 237.547C47.0641 237.547 35.6395 234.081 25.922 227.588C16.2046 221.095 8.63073 211.867 4.15826 201.069C-0.314216 190.272 -1.48444 178.391 0.795572 166.928C3.07558 155.466 8.70341 144.937 16.9674 136.673C25.2314 128.409 35.7604 122.781 47.2229 120.501C58.6853 118.221 70.5666 119.391 81.364 123.863C92.1615 128.336 101.39 135.909 107.883 145.627C114.376 155.344 117.842 166.769 117.842 178.456C117.824 194.122 111.593 209.142 100.515 220.22C89.4372 231.298 74.4176 237.529 58.7512 237.547ZM58.7512 120.486C47.2857 120.486 36.0777 123.886 26.5445 130.255C17.0113 136.625 9.58104 145.679 5.19338 156.272C0.805725 166.864 -0.342291 178.52 1.89451 189.766C4.1313 201.011 9.65245 211.34 17.7598 219.447C25.8671 227.555 36.1964 233.076 47.4416 235.313C58.6868 237.549 70.3427 236.401 80.9354 232.014C91.5281 227.626 100.582 220.196 106.952 210.663C113.322 201.129 116.721 189.921 116.721 178.456C116.704 163.087 110.591 148.352 99.7231 137.484C88.8553 126.616 74.1205 120.503 58.7512 120.486Z" fill="#AFAFAF"/>
<path d="M76.605 594.476L75.3824 593.204C75.5745 593.02 94.6586 574.326 101.927 539.396C108.64 507.136 106.36 454.018 57.3775 384.173C19.8099 330.604 4.60732 283.803 12.1924 245.068C18.8555 211.039 41.518 196.091 41.7463 195.944L42.7019 197.426C42.4801 197.57 20.4119 212.166 13.9124 245.462C6.44915 283.698 21.5588 330.026 58.8218 383.16C80.6135 414.233 95.1207 444.664 101.94 473.605C107.404 496.797 107.973 519.092 103.63 539.868C96.2271 575.291 76.8006 594.288 76.605 594.476Z" fill="#AFAFAF"/>
<path d="M42.6761 594.274H370.026C370.026 594.274 376.661 496.954 337.401 495.848C298.142 494.742 302.565 538.978 253.352 478.153C204.139 417.328 144.42 420.646 136.679 456.588C128.937 492.53 151.608 521.284 110.137 512.436C68.6649 503.589 8.9458 526.813 42.6761 594.274Z" fill="#AFAFAF"/>
<path d="M211.88 594.295L212.984 594.251C210.408 530.176 196.988 489.008 186.185 465.755C174.454 440.507 163.151 430.286 163.038 430.185L162.303 431.012C162.414 431.111 173.586 441.23 185.222 466.308C195.966 489.462 209.312 530.462 211.88 594.295Z" fill="white"/>
<path d="M93.4013 594.421L94.4629 594.112C86.2305 566.956 71.3904 542.266 51.2719 522.254L50.5289 523.073C70.4985 542.945 85.2288 567.459 93.4013 594.421Z" fill="white"/>
<path d="M318.469 594.347L319.565 594.195C315.995 570.172 319.772 545.632 330.398 523.793C334.757 514.634 340.526 506.215 347.496 498.844L346.731 498.046C339.67 505.507 333.824 514.03 329.407 523.304C318.682 545.341 314.869 570.105 318.469 594.347Z" fill="white"/>
<path d="M548.035 593.764L547.025 593.709C546.718 593.692 516.048 591.802 495.758 572.052C475.47 552.302 472.756 521.693 472.731 521.386L472.648 520.379L473.658 520.434C473.965 520.45 504.636 522.341 524.924 542.091C545.213 561.842 547.927 592.449 547.952 592.757L548.035 593.764ZM474.602 522.28C475.267 527.744 479.273 553.542 496.989 570.787C514.706 588.034 540.601 591.344 546.081 591.863C545.416 586.398 541.41 560.601 523.693 543.355C505.964 526.095 480.08 522.796 474.602 522.28Z" fill="#AFAFAF"/>
<path d="M569.838 542.727C549.552 562.475 547.074 592.833 547.074 592.833C547.074 592.833 577.487 591.172 597.774 571.424C618.06 551.676 620.538 521.319 620.538 521.319C620.538 521.319 590.125 522.979 569.838 542.727Z" fill="#AFAFAF"/>
<path d="M546.65 489.378C553.956 489.378 559.88 483.455 559.88 476.148C559.88 468.842 553.956 462.918 546.65 462.918C539.343 462.918 533.42 468.842 533.42 476.148C533.42 483.455 539.343 489.378 546.65 489.378Z" fill="#AFAFAF"/>
</g>
<defs>
<clipPath id="clip0_324_656">
<rect width="1410.75" height="594" fill="white"/>
</clipPath>
</defs>
</svg>
