<svg width="503" height="436" viewBox="0 0 503 436" fill="none" xmlns="http://www.w3.org/2000/svg">
<g clip-path="url(#clip0_172_2639)">
<path d="M418.587 103.29H416.199V37.8666C416.199 27.8237 412.209 18.1922 405.108 11.0909C398.007 3.98951 388.375 6.62962e-06 378.332 0H239.72C234.747 0 229.823 0.979447 225.229 2.88242C220.635 4.7854 216.461 7.57463 212.944 11.0909C209.428 14.6071 206.639 18.7815 204.736 23.3757C202.833 27.9699 201.854 32.8939 201.854 37.8666V396.789C201.854 406.832 205.843 416.463 212.944 423.564C220.046 430.666 229.677 434.655 239.72 434.655H378.332C388.375 434.655 398.006 430.666 405.108 423.564C412.209 416.463 416.198 406.831 416.198 396.789V149.859H418.586L418.587 103.29Z" fill="#E6E6E6"/>
<path d="M379.86 9.84766H361.768C362.6 11.8877 362.918 14.1011 362.693 16.2929C362.468 18.4846 361.708 20.5874 360.478 22.416C359.249 24.2446 357.59 25.7429 355.645 26.7788C353.7 27.8147 351.531 28.3565 349.328 28.3564H269.918C267.715 28.3563 265.546 27.8143 263.602 26.7784C261.657 25.7424 259.997 24.2441 258.769 22.4155C257.54 20.587 256.779 18.4842 256.554 16.2926C256.33 14.1009 256.647 11.8876 257.479 9.84766H240.58C233.08 9.84766 225.888 12.827 220.584 18.1302C215.281 23.4334 212.302 30.6261 212.302 38.126V396.527C212.302 404.027 215.281 411.22 220.584 416.523C225.888 421.826 233.08 424.805 240.58 424.805H379.86C387.36 424.805 394.553 421.826 399.856 416.523C405.159 411.22 408.138 404.027 408.138 396.527V38.1255C408.138 30.6257 405.159 23.4331 399.856 18.13C394.553 12.8269 387.36 9.84765 379.86 9.84766Z" fill="white"/>
<path d="M268.089 93.445C267.335 93.4517 266.587 93.2994 265.895 92.9981C265.203 92.6969 264.582 92.2533 264.073 91.6963C263.468 90.9971 263.015 90.1805 262.742 89.2977C262.468 88.415 262.38 87.4852 262.483 86.5668C262.627 84.8175 263.36 83.1689 264.563 81.8903C265.14 81.266 265.839 80.7662 266.617 80.4217C267.395 80.0771 268.234 79.8951 269.085 79.8868C269.876 79.8833 270.659 80.0463 271.382 80.3653C272.106 80.6842 272.754 81.1519 273.285 81.738C273.888 82.4186 274.342 83.2168 274.621 84.082C274.899 84.9473 274.995 85.8609 274.903 86.7651C274.79 88.6209 273.99 90.368 272.658 91.6649C271.418 92.8193 269.784 93.4561 268.089 93.445ZM269.085 82.1465C266.873 82.1465 264.962 84.1752 264.734 86.765C264.659 87.3711 264.709 87.9864 264.882 88.5722C265.055 89.1581 265.347 89.702 265.739 90.1701C266.036 90.4968 266.399 90.7564 266.805 90.9314C267.21 91.1065 267.648 91.193 268.089 91.1853C270.158 91.1853 272.37 89.7571 272.652 86.5665C272.717 85.9746 272.659 85.3755 272.481 84.8072C272.303 84.2388 272.009 83.7134 271.619 83.2641C271.298 82.9104 270.907 82.6281 270.471 82.4356C270.034 82.243 269.562 82.1445 269.085 82.1465Z" fill="#3F3D56"/>
<path d="M268.163 100.226C266.415 100.254 264.681 99.9107 263.076 99.2179C261.471 98.5251 260.032 97.4989 258.854 96.2074C257.676 94.9159 256.785 93.3886 256.243 91.7269C255.7 90.0652 255.516 88.307 255.705 86.569C256.075 82.921 257.771 79.5357 260.471 77.0548C263.171 74.574 266.688 73.1701 270.354 73.1094C274.422 73.1094 277.769 74.4163 280.033 76.889C282.18 79.2336 283.185 82.5342 282.864 86.1828C282.56 89.6391 281.093 91.4392 279.917 92.3407C279.397 92.7642 278.797 93.0778 278.153 93.2625C277.508 93.4472 276.833 93.4992 276.168 93.4152C274.308 93.0854 272.251 91.3959 272.575 87.7195L273.174 80.9227C273.201 80.6253 273.346 80.351 273.575 80.1597C273.804 79.9684 274.1 79.8758 274.398 79.902C274.695 79.9282 274.97 80.0712 275.163 80.2996C275.355 80.528 275.449 80.8234 275.425 81.121L274.826 87.9178C274.665 89.7455 275.314 90.9689 276.562 91.1902C277.281 91.2461 277.993 91.0148 278.542 90.5469C279.359 89.9214 280.381 88.6221 280.613 85.9845C280.882 82.9312 280.105 80.3138 278.366 78.4151C276.542 76.4224 273.771 75.3691 270.354 75.3691C267.252 75.4278 264.279 76.6192 261.995 78.7187C259.712 80.8181 258.275 83.6804 257.956 86.7661C257.795 88.1919 257.94 89.6356 258.382 91.0006C258.825 92.3656 259.553 93.6203 260.52 94.6808C261.486 95.7412 262.668 96.5829 263.986 97.1495C265.305 97.7161 266.729 97.9945 268.163 97.9661C269.933 98.0618 271.7 97.7413 273.324 97.0303C273.6 96.9157 273.91 96.9151 274.187 97.0287C274.463 97.1422 274.683 97.3606 274.799 97.6361C274.915 97.9117 274.917 98.2218 274.804 98.4987C274.692 98.7756 274.474 98.9967 274.199 99.1136C272.299 99.941 270.234 100.321 268.163 100.226Z" fill="#3F3D56"/>
<path d="M256.233 261.722C256.01 261.722 255.791 261.656 255.606 261.532C255.42 261.408 255.275 261.231 255.19 261.025C255.104 260.818 255.082 260.591 255.125 260.372C255.169 260.153 255.276 259.952 255.434 259.794L262.778 252.45C262.991 252.24 263.277 252.123 263.576 252.124C263.874 252.126 264.16 252.245 264.37 252.455C264.581 252.666 264.7 252.952 264.701 253.25C264.702 253.548 264.586 253.835 264.376 254.047L257.032 261.391C256.927 261.497 256.803 261.58 256.666 261.637C256.529 261.693 256.382 261.723 256.233 261.722ZM274.876 258.898C274.652 258.898 274.434 258.831 274.248 258.707C274.062 258.583 273.918 258.407 273.832 258.2C273.747 257.994 273.724 257.767 273.768 257.547C273.811 257.328 273.919 257.127 274.077 256.969L280.291 250.755C280.503 250.545 280.79 250.429 281.088 250.43C281.386 250.431 281.672 250.55 281.883 250.761C282.094 250.971 282.213 251.257 282.214 251.555C282.215 251.854 282.098 252.14 281.889 252.353L275.675 258.567C275.57 258.672 275.445 258.755 275.308 258.812C275.171 258.869 275.024 258.898 274.876 258.898ZM271.486 258.898C271.338 258.898 271.191 258.869 271.054 258.812C270.917 258.755 270.792 258.672 270.687 258.567L266.168 254.047C266.062 253.943 265.977 253.818 265.92 253.681C265.862 253.543 265.832 253.396 265.831 253.247C265.831 253.098 265.86 252.95 265.917 252.812C265.973 252.675 266.057 252.549 266.162 252.444C266.268 252.339 266.393 252.255 266.531 252.198C266.669 252.141 266.816 252.113 266.965 252.113C267.114 252.114 267.262 252.144 267.399 252.201C267.537 252.259 267.661 252.343 267.766 252.45L272.285 256.969C272.443 257.127 272.551 257.328 272.594 257.547C272.638 257.767 272.616 257.994 272.53 258.2C272.445 258.407 272.3 258.583 272.114 258.707C271.928 258.831 271.71 258.898 271.486 258.898Z" fill="#3F3D56"/>
<path d="M282.786 252.684C282.227 252.684 281.681 252.519 281.216 252.208C280.752 251.898 280.39 251.457 280.176 250.941C279.962 250.425 279.906 249.857 280.015 249.309C280.124 248.761 280.393 248.258 280.788 247.862C281.183 247.467 281.687 247.198 282.234 247.089C282.782 246.98 283.35 247.036 283.866 247.25C284.383 247.464 284.824 247.826 285.134 248.29C285.444 248.755 285.61 249.301 285.61 249.86C285.609 250.609 285.311 251.327 284.782 251.856C284.252 252.386 283.534 252.684 282.786 252.684ZM282.786 249.295C282.674 249.295 282.565 249.328 282.472 249.39C282.379 249.452 282.306 249.54 282.264 249.644C282.221 249.747 282.21 249.86 282.231 249.97C282.253 250.08 282.307 250.18 282.386 250.259C282.465 250.338 282.566 250.392 282.675 250.414C282.785 250.436 282.899 250.424 283.002 250.382C283.105 250.339 283.193 250.267 283.255 250.174C283.317 250.081 283.35 249.972 283.35 249.86C283.35 249.71 283.291 249.566 283.185 249.46C283.079 249.355 282.935 249.295 282.786 249.295Z" fill="#3F3D56"/>
<path d="M273.182 262.286C272.623 262.286 272.077 262.12 271.613 261.81C271.148 261.5 270.786 261.058 270.572 260.542C270.359 260.026 270.303 259.458 270.412 258.91C270.521 258.362 270.79 257.859 271.185 257.464C271.58 257.069 272.083 256.8 272.631 256.691C273.179 256.582 273.747 256.638 274.263 256.852C274.779 257.066 275.22 257.428 275.531 257.892C275.841 258.357 276.007 258.903 276.007 259.461C276.006 260.21 275.708 260.928 275.178 261.458C274.649 261.987 273.931 262.285 273.182 262.286ZM273.182 258.896C273.07 258.896 272.961 258.93 272.868 258.992C272.775 259.054 272.703 259.142 272.66 259.245C272.617 259.348 272.606 259.462 272.628 259.572C272.65 259.681 272.704 259.782 272.783 259.861C272.862 259.94 272.962 259.994 273.072 260.015C273.181 260.037 273.295 260.026 273.398 259.983C273.501 259.941 273.59 259.868 273.652 259.775C273.714 259.682 273.747 259.573 273.747 259.461C273.747 259.312 273.687 259.168 273.581 259.062C273.475 258.956 273.332 258.897 273.182 258.896Z" fill="#3F3D56"/>
<path d="M265.273 254.376C264.714 254.376 264.168 254.21 263.704 253.9C263.239 253.589 262.877 253.148 262.663 252.632C262.449 252.116 262.394 251.548 262.503 251C262.612 250.452 262.881 249.949 263.276 249.554C263.671 249.159 264.174 248.89 264.722 248.781C265.27 248.672 265.838 248.728 266.354 248.942C266.87 249.155 267.311 249.517 267.621 249.982C267.932 250.446 268.097 250.993 268.097 251.551C268.097 252.3 267.799 253.018 267.269 253.548C266.74 254.077 266.022 254.375 265.273 254.376ZM265.273 250.986C265.161 250.986 265.052 251.019 264.959 251.081C264.866 251.144 264.794 251.232 264.751 251.335C264.708 251.438 264.697 251.552 264.719 251.661C264.741 251.771 264.794 251.872 264.873 251.951C264.952 252.03 265.053 252.083 265.163 252.105C265.272 252.127 265.386 252.116 265.489 252.073C265.592 252.03 265.681 251.958 265.743 251.865C265.805 251.772 265.838 251.663 265.838 251.551C265.838 251.401 265.778 251.258 265.672 251.152C265.566 251.046 265.423 250.986 265.273 250.986Z" fill="#3F3D56"/>
<path d="M254.539 265.11C253.981 265.11 253.435 264.944 252.97 264.634C252.506 264.324 252.144 263.883 251.93 263.366C251.716 262.85 251.66 262.282 251.769 261.734C251.878 261.187 252.147 260.683 252.542 260.288C252.937 259.893 253.44 259.624 253.988 259.515C254.536 259.406 255.104 259.462 255.62 259.676C256.137 259.89 256.578 260.252 256.888 260.716C257.198 261.181 257.364 261.727 257.364 262.286C257.363 263.034 257.065 263.752 256.536 264.282C256.006 264.811 255.288 265.109 254.539 265.11ZM254.539 261.721C254.428 261.721 254.319 261.754 254.226 261.816C254.133 261.878 254.06 261.966 254.018 262.069C253.975 262.173 253.964 262.286 253.985 262.396C254.007 262.505 254.061 262.606 254.14 262.685C254.219 262.764 254.32 262.818 254.429 262.84C254.539 262.861 254.652 262.85 254.756 262.807C254.859 262.765 254.947 262.692 255.009 262.599C255.071 262.507 255.104 262.397 255.104 262.286C255.104 262.136 255.045 261.992 254.939 261.886C254.833 261.78 254.689 261.721 254.539 261.721Z" fill="#3F3D56"/>
<path d="M361.766 352.243H338.039C336.991 352.242 335.986 351.825 335.244 351.084C334.503 350.343 334.086 349.337 334.085 348.289V331.341C334.086 330.293 334.503 329.288 335.244 328.546C335.986 327.805 336.991 327.388 338.039 327.387H361.766C362.815 327.388 363.82 327.805 364.561 328.546C365.303 329.288 365.72 330.293 365.721 331.341V348.289C365.72 349.337 365.303 350.343 364.561 351.084C363.82 351.825 362.815 352.242 361.766 352.243ZM338.039 329.646C337.59 329.647 337.159 329.826 336.842 330.143C336.524 330.461 336.345 330.892 336.345 331.341V348.289C336.345 348.738 336.524 349.169 336.842 349.487C337.159 349.805 337.59 349.983 338.039 349.984H361.766C362.216 349.983 362.646 349.805 362.964 349.487C363.282 349.169 363.461 348.738 363.461 348.289V331.341C363.461 330.892 363.282 330.461 362.964 330.143C362.646 329.826 362.216 329.647 361.766 329.646L338.039 329.646Z" fill="#3F3D56"/>
<path d="M349.903 342.071C349.652 342.071 349.408 341.987 349.209 341.833L339.041 333.924C338.924 333.833 338.826 333.72 338.752 333.591C338.679 333.462 338.632 333.32 338.613 333.172C338.595 333.025 338.606 332.876 338.645 332.733C338.684 332.59 338.751 332.456 338.842 332.339C338.934 332.221 339.047 332.123 339.176 332.05C339.305 331.977 339.447 331.929 339.594 331.911C339.741 331.893 339.891 331.903 340.034 331.943C340.177 331.982 340.311 332.049 340.428 332.14L349.903 339.51L359.378 332.14C359.495 332.049 359.629 331.982 359.772 331.943C359.915 331.903 360.065 331.893 360.212 331.911C360.359 331.929 360.501 331.977 360.63 332.05C360.759 332.123 360.872 332.221 360.963 332.339C361.055 332.456 361.122 332.59 361.161 332.733C361.2 332.876 361.211 333.025 361.193 333.172C361.174 333.32 361.127 333.462 361.054 333.591C360.98 333.72 360.882 333.833 360.765 333.924L350.597 341.833C350.398 341.987 350.154 342.071 349.903 342.071Z" fill="#3F3D56"/>
<path d="M477.34 367.883L346.643 367.934C346.477 367.934 346.318 367.869 346.201 367.751C346.083 367.634 346.018 367.475 346.018 367.31C346.018 367.144 346.083 366.985 346.201 366.868C346.318 366.75 346.477 366.685 346.643 366.685L477.34 366.633C477.506 366.633 477.665 366.699 477.782 366.816C477.899 366.933 477.965 367.092 477.965 367.258C477.965 367.423 477.899 367.582 477.782 367.7C477.665 367.817 477.506 367.883 477.34 367.883Z" fill="#CCCCCC"/>
<path d="M475.601 376.01C480.432 376.01 484.349 372.093 484.349 367.261C484.349 362.429 480.432 358.512 475.601 358.512C470.769 358.512 466.852 362.429 466.852 367.261C466.852 372.093 470.769 376.01 475.601 376.01Z" fill="#006E53"/>
<path d="M474.216 200.402L342.268 200.454C342.103 200.454 341.944 200.388 341.827 200.271C341.709 200.154 341.644 199.995 341.644 199.829C341.644 199.663 341.709 199.504 341.827 199.387C341.944 199.27 342.103 199.204 342.268 199.204L474.216 199.152C474.382 199.152 474.541 199.218 474.658 199.335C474.775 199.453 474.841 199.612 474.841 199.777C474.841 199.943 474.775 200.102 474.658 200.219C474.541 200.336 474.382 200.402 474.216 200.402Z" fill="#CCCCCC"/>
<path d="M475.601 209.154C480.432 209.154 484.349 205.237 484.349 200.405C484.349 195.573 480.432 191.656 475.601 191.656C470.769 191.656 466.852 195.573 466.852 200.405C466.852 205.237 470.769 209.154 475.601 209.154Z" fill="#006E53"/>
<path d="M136.401 114.789L268.349 114.841C268.515 114.841 268.674 114.775 268.791 114.658C268.908 114.54 268.974 114.382 268.974 114.216C268.974 114.05 268.908 113.891 268.791 113.774C268.674 113.657 268.515 113.591 268.349 113.591L136.401 113.539C136.236 113.539 136.077 113.605 135.959 113.722C135.842 113.839 135.776 113.998 135.776 114.164C135.776 114.33 135.842 114.489 135.959 114.606C136.077 114.723 136.236 114.789 136.401 114.789Z" fill="#CCCCCC"/>
<path d="M135.017 123.537C139.848 123.537 143.766 119.62 143.766 114.788C143.766 109.956 139.848 106.039 135.017 106.039C130.185 106.039 126.268 109.956 126.268 114.788C126.268 119.62 130.185 123.537 135.017 123.537Z" fill="#006E53"/>
<path d="M136.401 284.144L268.349 284.196C268.515 284.196 268.674 284.13 268.791 284.013C268.908 283.896 268.974 283.737 268.974 283.571C268.974 283.406 268.908 283.247 268.791 283.129C268.674 283.012 268.515 282.946 268.349 282.946L136.401 282.895C136.236 282.895 136.077 282.96 135.959 283.078C135.842 283.195 135.776 283.354 135.776 283.519C135.776 283.685 135.842 283.844 135.959 283.961C136.077 284.079 136.236 284.144 136.401 284.144Z" fill="#CCCCCC"/>
<path d="M135.017 292.892C139.848 292.892 143.766 288.975 143.766 284.143C143.766 279.312 139.848 275.395 135.017 275.395C130.185 275.395 126.268 279.312 126.268 284.143C126.268 288.975 130.185 292.892 135.017 292.892Z" fill="#006E53"/>
<path d="M349.903 367.935C344.341 367.935 338.904 366.285 334.279 363.195C329.655 360.105 326.05 355.713 323.922 350.575C321.793 345.436 321.237 339.782 322.322 334.327C323.407 328.872 326.085 323.861 330.018 319.928C333.951 315.995 338.962 313.317 344.417 312.232C349.872 311.147 355.526 311.704 360.665 313.832C365.803 315.961 370.195 319.565 373.285 324.19C376.375 328.814 378.025 334.251 378.025 339.813C378.016 347.269 375.051 354.417 369.779 359.689C364.507 364.961 357.359 367.926 349.903 367.935ZM349.903 312.941C344.588 312.941 339.393 314.517 334.974 317.47C330.555 320.423 327.11 324.62 325.077 329.53C323.043 334.44 322.511 339.843 323.547 345.056C324.584 350.268 327.144 355.056 330.902 358.814C334.66 362.572 339.448 365.132 344.661 366.169C349.873 367.205 355.276 366.673 360.186 364.639C365.097 362.606 369.293 359.161 372.246 354.742C375.199 350.323 376.775 345.128 376.775 339.813C376.767 332.689 373.933 325.858 368.895 320.821C363.858 315.783 357.027 312.949 349.903 312.941Z" fill="#CCCCCC"/>
<path d="M268.663 284.196C263.101 284.196 257.664 282.547 253.039 279.457C248.415 276.367 244.81 271.975 242.682 266.836C240.553 261.698 239.996 256.044 241.081 250.589C242.166 245.133 244.845 240.123 248.778 236.19C252.711 232.257 257.721 229.579 263.176 228.493C268.632 227.408 274.286 227.965 279.424 230.094C284.563 232.222 288.955 235.827 292.045 240.451C295.135 245.076 296.784 250.513 296.784 256.075C296.776 263.531 293.81 270.678 288.538 275.95C283.266 281.222 276.118 284.188 268.663 284.196ZM268.663 229.203C263.348 229.203 258.153 230.779 253.734 233.732C249.314 236.684 245.87 240.881 243.836 245.791C241.803 250.702 241.27 256.105 242.307 261.317C243.344 266.53 245.903 271.318 249.661 275.076C253.42 278.834 258.208 281.393 263.42 282.43C268.633 283.467 274.036 282.935 278.946 280.901C283.856 278.867 288.053 275.423 291.006 271.004C293.959 266.585 295.535 261.39 295.535 256.075C295.526 248.95 292.693 242.12 287.655 237.082C282.617 232.045 275.787 229.211 268.663 229.203Z" fill="#CCCCCC"/>
<path d="M344.279 200.454C338.717 200.454 333.28 198.805 328.655 195.715C324.031 192.625 320.426 188.233 318.298 183.094C316.169 177.956 315.613 172.301 316.698 166.846C317.783 161.391 320.461 156.38 324.394 152.448C328.327 148.515 333.338 145.836 338.793 144.751C344.248 143.666 349.902 144.223 355.041 146.352C360.179 148.48 364.571 152.084 367.661 156.709C370.751 161.334 372.401 166.771 372.401 172.333C372.392 179.788 369.427 186.936 364.155 192.208C358.883 197.48 351.735 200.446 344.279 200.454ZM344.279 145.461C338.964 145.461 333.769 147.037 329.35 149.99C324.931 152.942 321.486 157.139 319.453 162.049C317.419 166.959 316.887 172.362 317.923 177.575C318.96 182.788 321.52 187.576 325.278 191.334C329.036 195.092 333.824 197.651 339.036 198.688C344.249 199.725 349.652 199.193 354.562 197.159C359.472 195.125 363.669 191.681 366.622 187.262C369.575 182.843 371.151 177.647 371.151 172.333C371.143 165.208 368.309 158.378 363.271 153.34C358.234 148.303 351.403 145.469 344.279 145.461Z" fill="#CCCCCC"/>
<path d="M269.288 114.79C263.726 114.79 258.289 113.141 253.664 110.051C249.04 106.961 245.435 102.569 243.307 97.4302C241.178 92.2917 240.621 86.6374 241.706 81.1823C242.791 75.7272 245.47 70.7164 249.403 66.7835C253.336 62.8507 258.346 60.1723 263.801 59.0872C269.257 58.0022 274.911 58.5591 280.049 60.6875C285.188 62.816 289.58 66.4204 292.67 71.045C295.76 75.6696 297.409 81.1066 297.409 86.6686C297.401 94.1243 294.435 101.272 289.163 106.544C283.891 111.816 276.743 114.782 269.288 114.79ZM269.288 59.7967C263.973 59.7967 258.778 61.3727 254.359 64.3255C249.939 67.2782 246.495 71.475 244.461 76.3852C242.428 81.2953 241.895 86.6984 242.932 91.911C243.969 97.1236 246.528 101.912 250.286 105.67C254.045 109.428 258.833 111.987 264.045 113.024C269.258 114.061 274.661 113.529 279.571 111.495C284.481 109.461 288.678 106.017 291.631 101.598C294.584 97.1787 296.16 91.9833 296.16 86.6686C296.151 79.5442 293.318 72.7139 288.28 67.6762C283.242 62.6385 276.412 59.8048 269.288 59.7967Z" fill="#CCCCCC"/>
<path d="M92.8031 305.327C92.0344 304.741 91.3977 303.999 90.9346 303.151C90.4714 302.302 90.192 301.366 90.1147 300.402C90.0976 300.177 90.0923 299.952 90.0988 299.727L60.9972 280.128C60.0448 279.48 59.3272 278.541 58.9515 277.452C58.5757 276.363 58.5619 275.182 58.912 274.085L72.8209 239.529C73.4195 238.041 74.583 236.852 76.0569 236.22C77.5307 235.589 79.1947 235.567 80.6845 236.16C82.1743 236.753 83.3686 237.912 84.0058 239.383C84.643 240.854 84.6712 242.518 84.0842 244.01L72.8545 272.563L95.5151 293.146C95.8141 293.078 96.1175 293.031 96.4232 293.005C98.1733 292.866 99.9103 293.402 101.278 294.502C102.646 295.603 103.541 297.185 103.779 298.925C104.018 300.664 103.582 302.429 102.56 303.857C101.539 305.285 100.011 306.268 98.2876 306.605C97.8454 306.691 97.3963 306.734 96.946 306.734C95.4476 306.735 93.991 306.24 92.8031 305.327Z" fill="#A0616A"/>
<path d="M61.0094 259.875C60.8391 259.477 60.7566 259.047 60.7676 258.615C60.7785 258.182 60.8826 257.757 61.0728 257.369L67.7124 243.798C68.3823 241.689 69.8614 239.931 71.8252 238.911C73.789 237.89 76.0774 237.69 78.1886 238.354C80.2997 239.018 82.0614 240.492 83.0874 242.453C84.1133 244.414 84.3198 246.702 83.6615 248.815L81.2375 263.777C81.1682 264.204 81.0078 264.611 80.7671 264.97C80.5264 265.33 80.2111 265.633 79.8426 265.86C79.474 266.086 79.061 266.231 78.6317 266.283C78.2023 266.336 77.7667 266.295 77.3544 266.164L62.8654 261.56C62.453 261.429 62.0737 261.211 61.7534 260.92C61.4331 260.629 61.1793 260.272 61.0094 259.875Z" fill="#006E53"/>
<path d="M106.806 427.419H114.468L118.112 397.867L106.805 397.868L106.806 427.419Z" fill="#A0616A"/>
<path d="M104.851 424.915L119.939 424.914H119.939C121.202 424.914 122.452 425.163 123.619 425.646C124.786 426.129 125.846 426.837 126.738 427.73C127.631 428.623 128.34 429.683 128.823 430.85C129.306 432.016 129.555 433.267 129.555 434.529V434.842L104.851 434.843L104.851 424.915Z" fill="#2F2E41"/>
<path d="M31.8877 421.989L39.3081 423.895L50.1943 396.181L39.2424 393.367L31.8877 421.989Z" fill="#A0616A"/>
<path d="M30.6165 419.082L45.2297 422.837L45.2304 422.838C46.4533 423.152 47.6024 423.704 48.612 424.462C49.6216 425.221 50.4719 426.171 51.1144 427.258C51.7569 428.345 52.1791 429.548 52.3567 430.798C52.5343 432.048 52.4639 433.321 52.1495 434.544L52.0717 434.846L28.1455 428.698L30.6165 419.082Z" fill="#2F2E41"/>
<path d="M85.6252 224.686C94.1021 224.686 100.974 217.814 100.974 209.337C100.974 200.86 94.1021 193.988 85.6252 193.988C77.1483 193.988 70.2764 200.86 70.2764 209.337C70.2764 217.814 77.1483 224.686 85.6252 224.686Z" fill="#A0616A"/>
<path d="M77.8613 273.183C74.2095 269.424 71.109 265.167 68.6523 260.538C67.3457 258 66.5851 255.216 66.4193 252.367C66.2535 249.517 66.6863 246.664 67.6898 243.992C68.7145 241.26 70.2998 238.773 72.3438 236.691C74.3878 234.609 76.8451 232.978 79.5576 231.903C84.3145 229.972 89.6217 229.892 94.4345 231.679C99.2473 233.465 103.217 236.989 105.562 241.555C109.403 249.072 110.908 256.42 110.036 263.398C108.368 276.737 107.392 283.632 107.135 283.89L107.049 283.976L78.4963 285.245L77.8613 273.183Z" fill="#006E53"/>
<path d="M79.5568 281.552L105.108 280.28C105.753 280.248 106.386 280.467 106.873 280.891C107.361 281.315 107.665 281.912 107.722 282.555L119.476 414.309C119.508 414.659 119.465 415.012 119.35 415.344C119.236 415.677 119.053 415.981 118.813 416.238C118.573 416.495 118.281 416.698 117.958 416.835C117.634 416.971 117.285 417.038 116.933 417.03L106.951 416.818C106.402 416.806 105.872 416.614 105.443 416.271C105.014 415.929 104.71 415.454 104.578 414.921L85.5075 338.079C85.3827 337.576 85.1049 337.124 84.7124 336.786C84.3198 336.449 83.832 336.241 83.3163 336.192C82.8006 336.143 82.2826 336.256 81.8337 336.515C81.3849 336.773 81.0275 337.165 80.8108 337.635L44.6715 416.125C44.426 416.659 44.0008 417.088 43.4703 417.339C42.9398 417.59 42.3379 417.647 41.77 417.499L31.7238 414.878C31.102 414.717 30.5664 414.322 30.2282 413.776C29.8901 413.229 29.7756 412.574 29.9085 411.945C33.2139 396.342 53.013 306.986 77.9412 282.252C78.3751 281.828 78.9504 281.579 79.5568 281.552Z" fill="#2F2E41"/>
<path d="M127.944 296.345C127.02 296.06 126.167 295.584 125.439 294.947C124.711 294.311 124.126 293.528 123.721 292.65C123.627 292.445 123.545 292.236 123.473 292.023L89.3952 283.671C88.2776 283.392 87.2802 282.759 86.5517 281.866C85.8232 280.974 85.4026 279.87 85.3525 278.719L86.4803 241.487C86.5288 239.885 87.2103 238.367 88.3755 237.265C89.5408 236.164 91.0949 235.569 92.6976 235.611C94.3003 235.654 95.8211 236.329 96.927 237.49C98.0329 238.651 98.6338 240.202 98.5982 241.805L97.913 272.479L126.285 283.976C126.542 283.809 126.811 283.66 127.088 283.531H127.089C128.102 283.061 129.214 282.845 130.33 282.901C131.445 282.958 132.53 283.285 133.491 283.854C134.451 284.424 135.259 285.218 135.844 286.17C136.429 287.121 136.773 288.201 136.848 289.315C136.922 290.429 136.724 291.545 136.271 292.566C135.818 293.586 135.123 294.481 134.246 295.173C133.37 295.866 132.338 296.334 131.24 296.538C130.142 296.742 129.011 296.676 127.944 296.345V296.345Z" fill="#A0616A"/>
<path d="M82.8449 260.039C82.5508 259.721 82.3286 259.344 82.1934 258.933C82.0583 258.523 82.0134 258.087 82.0619 257.657L83.7509 242.644C83.6725 240.432 84.4744 238.28 85.9806 236.658C87.4869 235.037 89.5746 234.079 91.7861 233.994C93.9976 233.91 96.1524 234.706 97.7781 236.207C99.4037 237.709 100.368 239.794 100.458 242.005L103.207 256.911C103.286 257.336 103.271 257.774 103.166 258.193C103.06 258.613 102.865 259.004 102.594 259.342C102.323 259.679 101.983 259.954 101.596 260.148C101.209 260.341 100.785 260.45 100.353 260.465L85.1595 261.001C84.7271 261.017 84.2965 260.939 83.897 260.773C83.4976 260.607 83.1387 260.356 82.8449 260.039Z" fill="#006E53"/>
<path d="M63.6313 229.604L65.235 224.42L66.3317 230.238L75.3388 229.999L75.2972 224.264L78.7212 229.924L86.8832 228.12C85.1395 225.796 83.3751 223.437 82.2599 220.698C81.1447 217.959 80.7388 214.747 81.7807 211.975C84.3569 205.12 94.1239 207.038 99.4661 206.98C101.025 206.963 102.784 206.851 103.805 205.577C104.573 204.617 104.699 203.245 104.66 201.976C104.46 195.443 100.537 189.21 94.9917 186.612C92.2773 185.362 89.2512 184.952 86.3021 185.435C84.7638 185.678 83.2702 186.149 81.8704 186.831C80.6223 187.441 79.3114 188.893 77.9676 188.853C76.8383 188.82 75.3433 187.644 74.1144 187.443C72.634 187.215 71.1237 187.267 69.6627 187.599C66.7269 188.253 64.0804 189.837 62.116 192.115C57.9413 196.965 56.7008 204.113 57.4285 210.694C58.1561 217.275 60.6179 223.464 63.0522 229.546" fill="#2F2E41"/>
<path d="M501.816 436H0.624926C0.459185 436 0.300232 435.934 0.183036 435.817C0.0658398 435.7 0 435.541 0 435.375C0 435.209 0.0658398 435.05 0.183036 434.933C0.300232 434.816 0.459185 434.75 0.624926 434.75H501.816C501.981 434.75 502.14 434.816 502.257 434.933C502.375 435.05 502.441 435.209 502.441 435.375C502.441 435.541 502.375 435.7 502.257 435.817C502.14 435.934 501.981 436 501.816 436Z" fill="#E6E6E6"/>
<path d="M493.361 428.253C495.268 426.706 496.658 424.614 497.345 422.256C497.853 419.87 496.837 417.068 494.564 416.145C492.012 415.159 489.283 416.934 487.218 418.718C485.154 420.503 482.778 422.547 480.07 422.163C481.457 420.898 482.493 419.296 483.076 417.513C483.66 415.729 483.772 413.824 483.4 411.984C483.288 411.219 482.965 410.501 482.466 409.909C481.055 408.394 478.482 409.048 476.781 410.241C471.385 414.039 469.881 421.364 469.86 427.963C469.31 425.576 469.767 423.097 469.756 420.7C469.746 418.303 469.072 415.512 467.017 414.246C465.743 413.562 464.313 413.222 462.867 413.261C460.439 413.178 457.742 413.416 456.081 415.191C454.006 417.39 454.556 421.094 456.351 423.491C458.146 425.888 460.865 427.434 463.365 429.114C465.379 430.309 467.096 431.944 468.387 433.898C468.54 434.168 468.665 434.453 468.76 434.748H483.961C487.373 433.018 490.536 430.833 493.361 428.253Z" fill="#F2F2F2"/>
<path d="M335.214 188.852C334.932 188.851 334.654 188.779 334.406 188.644C334.158 188.508 333.948 188.312 333.795 188.075C333.642 187.838 333.55 187.566 333.528 187.284C333.506 187.003 333.555 186.72 333.67 186.462L335.626 182.099C332.931 179.706 331.215 176.402 330.806 172.822C330.398 169.241 331.325 165.636 333.411 162.697C335.497 159.758 338.594 157.692 342.109 156.896C345.623 156.1 349.308 156.63 352.457 158.384C355.605 160.137 357.996 162.991 359.169 166.398C360.343 169.806 360.218 173.526 358.817 176.847C357.417 180.168 354.84 182.854 351.581 184.392C348.321 185.93 344.609 186.21 341.156 185.179L336.165 188.558C335.885 188.749 335.554 188.852 335.214 188.852ZM345.304 158.689C342.705 158.688 340.169 159.495 338.049 160.999C335.928 162.503 334.329 164.63 333.471 167.084C332.614 169.538 332.541 172.198 333.263 174.695C333.984 177.192 335.465 179.403 337.5 181.021L338.116 181.512L336.012 186.207L340.84 182.938L341.317 183.098C343.039 183.677 344.867 183.874 346.673 183.676C348.478 183.478 350.22 182.89 351.776 181.952C353.332 181.014 354.665 179.75 355.684 178.245C356.702 176.741 357.382 175.033 357.675 173.24C357.967 171.447 357.867 169.612 357.38 167.861C356.893 166.111 356.031 164.488 354.855 163.103C353.678 161.719 352.214 160.608 350.565 159.845C348.916 159.083 347.121 158.689 345.304 158.689Z" fill="#3F3D56"/>
<path d="M345.304 172.581C346.427 172.581 347.337 171.671 347.337 170.548C347.337 169.426 346.427 168.516 345.304 168.516C344.182 168.516 343.271 169.426 343.271 170.548C343.271 171.671 344.182 172.581 345.304 172.581Z" fill="#3F3D56"/>
<path d="M339.545 172.581C340.668 172.581 341.578 171.671 341.578 170.548C341.578 169.426 340.668 168.516 339.545 168.516C338.423 168.516 337.513 169.426 337.513 170.548C337.513 171.671 338.423 172.581 339.545 172.581Z" fill="#3F3D56"/>
<path d="M351.063 172.581C352.185 172.581 353.095 171.671 353.095 170.548C353.095 169.426 352.185 168.516 351.063 168.516C349.94 168.516 349.03 169.426 349.03 170.548C349.03 171.671 349.94 172.581 351.063 172.581Z" fill="#3F3D56"/>
</g>
<defs>
<clipPath id="clip0_172_2639">
<rect width="502.441" height="436" fill="white"/>
</clipPath>
</defs>
</svg>
