<svg width="18" height="18" viewBox="0 0 18 18" fill="none" xmlns="http://www.w3.org/2000/svg">
<path fill-rule="evenodd" clip-rule="evenodd" d="M7.8559 10.144C6.6859 8.97399 5.8039 7.66399 5.2179 6.33499C5.0939 6.05399 5.1669 5.72499 5.3839 5.50799L6.2029 4.68999C6.8739 4.01899 6.8739 3.06999 6.2879 2.48399L5.1139 1.30999C4.3329 0.528993 3.0669 0.528993 2.2859 1.30999L1.6339 1.96199C0.892902 2.70299 0.583902 3.77199 0.783902 4.83199C1.2779 7.44499 2.7959 10.306 5.2449 12.755C7.6939 15.204 10.5549 16.722 13.1679 17.216C14.2279 17.416 15.2969 17.107 16.0379 16.366L16.6889 15.715C17.4699 14.934 17.4699 13.668 16.6889 12.887L15.5159 11.714C14.9299 11.128 13.9799 11.128 13.3949 11.714L12.4919 12.618C12.2749 12.835 11.9459 12.908 11.6649 12.784C10.3359 12.197 9.0259 11.314 7.8559 10.144Z" stroke="#F9F9F9" stroke-linecap="round" stroke-linejoin="round"/>
</svg>
