<svg width="186" height="185" viewBox="0 0 186 185" fill="none" xmlns="http://www.w3.org/2000/svg">
<path d="M70.8343 142.296L17.2357 88.7484C16.3938 87.7653 15.9539 86.5007 16.0038 85.2074C16.0538 83.9141 16.5899 82.6872 17.5051 81.772C18.4204 80.8568 19.6472 80.3206 20.9405 80.2707C22.2339 80.2207 23.4984 80.6606 24.4815 81.5025L70.7315 127.753L161.125 37.4622C162.108 36.6204 163.372 36.1804 164.666 36.2304C165.959 36.2804 167.186 36.8165 168.101 37.7317C169.016 38.6469 169.552 39.8738 169.602 41.1671C169.652 42.4604 169.212 43.725 168.37 44.7081L70.8343 142.296Z" fill="#E5134A"/>
</svg>
