<svg width="24" height="18" viewBox="0 0 24 18" fill="none" xmlns="http://www.w3.org/2000/svg">
<path d="M-0.0859101 8.94511L-0.115001 8.99394L-0.0879292 9.04392L0.106074 9.40208C0.106083 9.4021 0.106092 9.40211 0.106101 9.40213C2.63644 14.0798 7.07855 16.9172 12 16.9172C16.921 16.9172 21.3709 14.1176 23.894 9.40186C23.8941 9.4018 23.8941 9.40174 23.8941 9.40168L24.0879 9.04392L24.114 8.99579L24.0875 8.94789L23.8939 8.59797C23.8938 8.59781 23.8938 8.59765 23.8937 8.59749C21.3633 3.92004 16.9213 1.08286 12 1.08286C7.07934 1.08286 2.63011 3.91935 0.121889 8.59631L-0.0859101 8.94511ZM12 15.1873C7.85507 15.1873 4.04326 12.8856 1.81659 8.9963C4.04326 5.10695 7.85507 2.80525 12 2.80525C16.1441 2.80525 19.9119 5.11356 22.1755 8.99634C19.9119 12.8863 16.1368 15.1873 12 15.1873ZM12.2157 3.79925C11.1841 3.80678 10.1778 4.11985 9.32403 4.69893C8.47024 5.27801 7.80721 6.09712 7.41868 7.05281C7.03015 8.00849 6.93354 9.05788 7.14107 10.0684C7.34859 11.079 7.85094 12.0054 8.58465 12.7306C9.31837 13.4558 10.2506 13.9474 11.2635 14.1431C12.2764 14.3388 13.3246 14.23 14.2756 13.8304C15.2267 13.4308 16.0381 12.7582 16.6072 11.8978C17.1763 11.0373 17.4776 10.0275 17.4731 8.99582C17.4701 8.30911 17.3317 7.62974 17.0657 6.99664C16.7996 6.36354 16.4113 5.78916 15.9229 5.30641C15.4345 4.82366 14.8556 4.44204 14.2195 4.18341C13.5833 3.92478 12.9024 3.79424 12.2157 3.79925ZM12.2174 12.5455C11.5224 12.5383 10.845 12.326 10.2703 11.9351C9.69555 11.5442 9.24915 10.9922 8.98713 10.3484C8.72511 9.70458 8.65916 8.99773 8.79756 8.31658C8.93596 7.63543 9.27254 7.01037 9.76502 6.51988C10.2575 6.0294 10.8839 5.69538 11.5657 5.55976C12.2474 5.42414 12.9539 5.49298 13.5967 5.75762C14.2394 6.02227 14.7895 6.47092 15.1781 7.04724C15.5667 7.62354 15.7763 8.3018 15.7806 8.99684C15.7825 9.46459 15.6916 9.92807 15.513 10.3604C15.3344 10.7928 15.0718 11.1854 14.7403 11.5155C14.4089 11.8457 14.0152 12.1067 13.5821 12.2835C13.149 12.4603 12.6851 12.5493 12.2174 12.5455Z" fill="#CCD7EA" stroke="#CCD7EA" stroke-width="0.2"/>
</svg>
