<svg width="190" height="190" viewBox="0 0 190 190" fill="none" xmlns="http://www.w3.org/2000/svg">
<path fill-rule="evenodd" clip-rule="evenodd" d="M95.7917 0L167.833 28.2155V118.594L167.765 118.914C162.92 141.431 151.133 154.575 137.591 164.265C130.996 168.985 123.965 172.899 117.231 176.648L116.9 176.833C110.007 180.671 103.454 184.338 97.6379 188.636L95.7917 190L93.9454 188.636C88.129 184.338 81.5764 180.671 74.6836 176.833L74.352 176.648C67.6183 172.899 60.5878 168.985 53.9927 164.265C40.4502 154.575 28.6637 141.431 23.8188 118.914L23.75 118.594V28.2155L95.7917 0ZM29.9471 32.4203V117.937C34.4384 138.428 45.0716 150.282 57.6088 159.253C63.9162 163.767 70.6845 167.535 77.5086 171.335L77.7077 171.446C83.8687 174.876 90.0898 178.347 95.7917 182.35C101.494 178.347 107.715 174.876 113.876 171.446L114.075 171.335C120.899 167.535 127.667 163.767 133.974 159.253C146.512 150.282 157.145 138.428 161.636 117.937V32.4203L95.7917 6.63196L29.9471 32.4203Z" fill="url(#paint0_linear_497_3069)"/>
<path fill-rule="evenodd" clip-rule="evenodd" d="M95.5 35L141 52.8203V109.901L140.957 110.103C137.897 124.325 130.452 132.626 121.899 138.747C117.734 141.727 113.294 144.199 109.041 146.567L108.831 146.684C104.478 149.108 100.34 151.424 96.6661 154.138L95.5 155L94.3339 154.138C90.6604 151.424 86.5219 149.108 82.1686 146.684L81.9591 146.567C77.7063 144.199 73.266 141.727 69.1007 138.747C60.5475 132.626 53.1034 124.325 50.0434 110.103L50 109.901V52.8203L95.5 35ZM53.914 55.476V109.487C56.7505 122.428 63.4663 129.915 71.3845 135.581C75.3681 138.432 79.6429 140.812 83.9528 143.211L84.0786 143.281C87.9697 145.448 91.8988 147.64 95.5 150.168C99.1012 147.64 103.03 145.448 106.921 143.281L107.047 143.211C111.357 140.812 115.632 138.432 119.615 135.581C127.534 129.915 134.249 122.428 137.086 109.487V55.476L95.5 39.1886L53.914 55.476Z" fill="url(#paint1_linear_497_3069)"/>
<path d="M96 138.273C98.7711 136.336 101.794 134.657 104.789 132.998L104.885 132.944C108.202 131.106 111.491 129.283 114.557 127.1C120.65 122.76 125.817 117.026 128 107.114V65.7473L96 53.2727V138.273Z" fill="#A400CD"/>
<defs>
<linearGradient id="paint0_linear_497_3069" x1="23.75" y1="190" x2="176.852" y2="182.432" gradientUnits="userSpaceOnUse">
<stop stop-color="#A400CD"/>
<stop offset="1" stop-color="#D33883"/>
</linearGradient>
<linearGradient id="paint1_linear_497_3069" x1="50" y1="155" x2="146.696" y2="150.22" gradientUnits="userSpaceOnUse">
<stop stop-color="#A400CD"/>
<stop offset="1" stop-color="#D33883"/>
</linearGradient>
</defs>
</svg>
