<svg width="120" height="120" viewBox="0 0 120 120" fill="none" xmlns="http://www.w3.org/2000/svg">
<path fill-rule="evenodd" clip-rule="evenodd" d="M58.9618 96.0105V61.3978H25.5923C23.1351 61.3978 21.1431 59.4058 21.1431 56.9485C21.1431 54.4913 23.1351 52.4993 25.5923 52.4993H58.9618V18.8467C58.9618 16.3278 61.0038 14.2858 63.5228 14.2858C66.0418 14.2858 68.0838 16.3278 68.0838 18.8467V52.4993H101.265C103.722 52.4993 105.714 54.4913 105.714 56.9485C105.714 59.4058 103.722 61.3978 101.265 61.3978H68.0838V96.0105C68.0838 98.5295 66.0418 100.571 63.5228 100.571C61.0039 100.571 58.9618 98.5295 58.9618 96.0105Z" fill="url(#paint0_linear_20000240_3335)"/>
<path d="M108.88 109.714C107.741 109.714 106.819 108.808 106.819 107.691V100.455H99.7482C98.6248 100.455 97.7142 99.561 97.7142 98.458C97.7142 97.355 98.6248 96.4609 99.7482 96.4609H106.819V89.4521C106.819 88.3346 107.741 87.4286 108.88 87.4286C110.018 87.4286 110.941 88.3346 110.941 89.4521V96.4609H117.966C119.089 96.4609 120 97.355 120 98.458C120 99.561 119.089 100.455 117.966 100.455H110.941V107.691C110.941 108.808 110.018 109.714 108.88 109.714Z" fill="black"/>
<path d="M28.2979 101.143C27.685 101.143 27.1881 100.655 27.1881 100.053V96.1572H23.381C22.7761 96.1572 22.2857 95.6757 22.2857 95.0818C22.2857 94.4879 22.7761 94.0065 23.381 94.0065H27.1881V90.2325C27.1881 89.6307 27.685 89.1429 28.2979 89.1429C28.9108 89.1429 29.4076 89.6307 29.4076 90.2325V94.0065H33.1904C33.7953 94.0065 34.2857 94.4879 34.2857 95.0818C34.2857 95.6757 33.7953 96.1572 33.1904 96.1572H29.4076V100.053C29.4076 100.655 28.9108 101.143 28.2979 101.143Z" fill="black"/>
<path d="M96.8692 22.2858C96.2563 22.2858 95.7595 21.7979 95.7595 21.1962V17.3H91.9523C91.3474 17.3 90.857 16.8186 90.857 16.2247C90.857 15.6308 91.3474 15.1493 91.9523 15.1493H95.7595V11.3753C95.7595 10.7736 96.2563 10.2858 96.8692 10.2858C97.4821 10.2858 97.979 10.7736 97.979 11.3753V15.1493H101.762C102.367 15.1493 102.857 15.6308 102.857 16.2247C102.857 16.8186 102.367 17.3 101.762 17.3H97.979V21.1962C97.979 21.7979 97.4821 22.2858 96.8692 22.2858Z" fill="black"/>
<path d="M11.1655 39.4286C10.0272 39.4286 9.10452 38.5227 9.10452 37.4051V30.1694H2.03407C0.910685 30.1694 0 29.2753 0 28.1723C0 27.0693 0.910685 26.1752 2.03407 26.1752H9.10452V19.1664C9.10452 18.0489 10.0272 17.1429 11.1655 17.1429C12.3037 17.1429 13.2265 18.0489 13.2265 19.1664V26.1752H20.2516C21.375 26.1752 22.2857 27.0693 22.2857 28.1723C22.2857 29.2753 21.375 30.1694 20.2516 30.1694H13.2265V37.4051C13.2265 38.5227 12.3037 39.4286 11.1655 39.4286Z" fill="black"/>
<defs>
<linearGradient id="paint0_linear_20000240_3335" x1="21.1431" y1="100.571" x2="110.861" y2="94.8392" gradientUnits="userSpaceOnUse">
<stop stop-color="#A400CD"/>
<stop offset="1" stop-color="#D33883"/>
</linearGradient>
</defs>
</svg>
