<svg width="882" height="882" viewBox="0 0 882 882" fill="none" xmlns="http://www.w3.org/2000/svg">
<g filter="url(#filter0_f_20000240_2332)">
<path d="M761.5 481.5C761.5 647.185 627.185 781.5 461.5 781.5C295.815 781.5 161.5 647.185 161.5 481.5C161.5 315.815 295.815 181.5 461.5 181.5C627.185 181.5 761.5 315.815 761.5 481.5Z" stroke="url(#paint0_linear_20000240_2332)"/>
</g>
<path d="M740.818 451.949C735.045 617.258 596.356 746.587 431.048 740.814L430.978 742.813C597.39 748.624 737.005 618.431 742.816 452.019L740.818 451.949ZM451.953 142.179C617.261 147.952 746.59 286.641 740.818 451.949L742.816 452.019C748.628 285.607 618.435 145.992 452.022 140.181L451.953 142.179ZM142.718 420.721C153.768 260.386 290.101 136.527 451.953 142.179L452.022 140.181C289.09 134.491 151.846 259.176 140.723 420.583L142.718 420.721ZM431.048 740.814C288.792 735.847 173.178 632.448 147.38 498.359L145.416 498.737C171.387 633.722 287.77 737.812 430.978 742.813L431.048 740.814Z" fill="url(#paint1_linear_20000240_2332)"/>
<circle opacity="0.2" cx="441" cy="441" r="440.5" stroke="url(#paint2_linear_20000240_2332)"/>
<defs>
<filter id="filter0_f_20000240_2332" x="141" y="161" width="641" height="641" filterUnits="userSpaceOnUse" color-interpolation-filters="sRGB">
<feFlood flood-opacity="0" result="BackgroundImageFix"/>
<feBlend mode="normal" in="SourceGraphic" in2="BackgroundImageFix" result="shape"/>
<feGaussianBlur stdDeviation="10" result="effect1_foregroundBlur_20000240_2332"/>
</filter>
<linearGradient id="paint0_linear_20000240_2332" x1="161" y1="782" x2="798.469" y2="740.445" gradientUnits="userSpaceOnUse">
<stop stop-color="#A400CD"/>
<stop offset="1" stop-color="#D33883"/>
</linearGradient>
<linearGradient id="paint1_linear_20000240_2332" x1="130.871" y1="731.333" x2="769.217" y2="712.068" gradientUnits="userSpaceOnUse">
<stop stop-color="#A400CD"/>
<stop offset="1" stop-color="#D33883"/>
</linearGradient>
<linearGradient id="paint2_linear_20000240_2332" x1="6.57141e-06" y1="882" x2="935.52" y2="821.016" gradientUnits="userSpaceOnUse">
<stop stop-color="#A400CD"/>
<stop offset="1" stop-color="#D33883"/>
</linearGradient>
</defs>
</svg>
