<svg width="234" height="45" fill="none" xmlns="http://www.w3.org/2000/svg"><path fill-rule="evenodd" clip-rule="evenodd" d="M24.64 3.65c.281.188.563.281.75.468-.656-.841-1.124-1.402-1.312-1.589.281.374.375.748.562 1.122ZM10.774.1h17.989c2.06 1.308 3.466 2.43-.469 1.214-.468-.187-1.593-1.121-1.967-.56.28.654.656 1.028 1.03 1.495.656.841 1.218 1.682 1.874 2.523.469.655.75 1.309 1.124 2.057 4.404 2.336 8.713 4.206 13.023 5.795-1.967-2.617-3.185-4.113 3.186 1.028-2.155-2.898-5.434-10.655-1.406-5.14.656.84 1.125 2.055 1.687 3.177.093.187.187.374.28.374-2.81-13.74 1.125-2.15 1.219.187-.469-9.066 1.499-11.684 1.124.934.094-.84 2.717-10.655 2.623-6.823 0 .468 0 .842-.093 1.309 0 .748-.094 1.308-.188 1.963-.187.748-.28 1.495-.468 2.243-.094.374-.281.841-.281 1.309.28.186.75-.935.937-1.216 2.998-3.925 0 1.402-.75 2.991.843-.56 1.687-1.121 2.436-1.776.094-.093.281-.186.375.094 0 0-1.968 1.776-2.155 1.87 1.124.28 2.342.56 3.466.747 11.43 2.15 22.767 1.495 33.916-1.87l-1.124-.84c-1.125-.935 1.686-.935 2.998.186l.187-.093c-.374-3.365-2.342-9.253 1.406-.187-.656-2.99-.844-9.814.374-4.02.188.936.281 1.964.281 2.992 0 .187 0 .28.094.374 1.5-9.347 1.312-2.71.937 0h.094c1.686-4.674 3.091-5.421 1.311-.468.656-.28 1.406-.56 2.062-.84.28-.188.468-.281.468-.188.187-.093.468-.187.656-.28l.187-.094c13.304-4.673 27.826-6.262 43.659-4.953 5.903.467 11.993 1.028 18.27 1.776-.75-.935 2.811-.935 4.31.56h.187c-.843-4.673-3.56-12.898 1.593-.654-.469-1.963-.75-5.328-.656-7.103h.843c.094.467.281 1.028.375 1.682.281 1.215.281 2.617.375 4.02 0 .186 0 .466.093.56.656-3.832 1.031-5.608 1.312-6.169h.281c.187 1.028-.094 5.982-.562 7.29 2.623-8.131 5.247-8.972.843 1.309h.094c1.218-1.589 5.527-6.543 4.31-3.645-.188.374-.282.748-.469 1.028-.281.56-.468 1.028-.843 1.495-.375.468-.656.935-1.031 1.402 7.214 1.402 14.616 3.365 22.205 6.356 8.525 3.365 15.458 6.169 22.017 2.337 5.621-3.272 9.462-9.16 13.678-17.572h3.279c-7.307 15.89-11.617 24.208-26.045 25.516h-.094c-.562 0-1.124.094-1.686.187.749.468 3.373 1.963 1.03 1.215-.187-.093-.656-.373-.749-.186.093.28.281.373.375.56.281.28.468.655.749.935.187.28.281.56.468.935.094.187.188.374.282.654.843 1.963-2.53-2.056-2.717-2.43 2.81 6.45 1.218 5.982-.375 1.028.468 1.309.749 8.973-.562.654-.094.094-.094.187-.094.28-.094.842-.094 1.683-.281 2.43-1.031 4.674-.843-.84-.375-3.27-3.092 7.477-1.405 2.243-.937-.561-.937 1.121-3.56 1.121-2.529.373l2.248-1.682c-.468-.093-3.185-.467-2.623-.654.562-.28.937-.561 1.593-.561h.187c-2.904-.374-5.902-1.122-8.994-2.337-12.742-6.542-35.977-11.496-49.656-12.711-2.529-.187-5.059-.374-7.495-.374l.281.28c.469.561.937 1.216 1.312 1.87.375.56.656 1.121.937 1.776.187.373.375.84.562 1.215 1.593 3.738-4.778-3.926-5.247-4.674 5.341 12.245 2.249 11.403-.749 1.963.843 2.524 1.405 17.198-1.124 1.215-.094.094-.094.374-.094.561-.094 1.589-.187 3.178-.469 4.58-1.967 8.88-1.592-1.589-.655-6.262-5.903 14.207-2.624 4.3-1.78-1.028-1.781 2.15-6.746 2.056-4.872.654.937-.654 1.873-1.402 2.81-2.056-8.9.56-17.332 1.028-25.202 3.832-12.836 5.795-35.79 7.29-53.31 5.234-.187.093-.28.28-.468.374-.656.56-1.311 1.028-1.967 1.589-.843.654-1.687.747-2.53 1.028-.843.28 1.687-2.337 2.904-3.645-.468-.094-.843-.28-1.311-.374l-2.343.187c-.749 0-.562-.468 0-1.029-4.778-1.682-9.556-3.832-14.334-6.449 1.968 6.356-.094 5.234-2.81-1.589-.282-.187-.563-.374-.844-.467.562 5.701.562 14.955-2.155-1.589l-.28-.187v.374c-.188 2.15-.282 4.393-.657 6.262-2.53 11.59-2.248-1.028-1.03-7.664l-.188-.094c-7.401 17.76-3.56 5.889-2.248-1.495l-.281-.187c-2.717 2.43-8.713 2.243-6.277.374l3.373-2.43c-1.125-.748-2.155-1.59-3.28-2.337Z" fill="#64A21E"/><path fill-rule="evenodd" clip-rule="evenodd" d="M137.442 2.529a78.638 78.638 0 0 1 4.685-2.524h-11.336c0 .187.093.374.093.56l-.281-.56h-1.499c.094.467.187.841.281 1.215-1.499-1.589-5.528-1.495-4.028-.467 1.124.748 2.248 1.495 3.466 2.243l-.094.093c-.937.094-4.872.561-4.028.935.749.374 1.499.748 2.342.841-2.811 2.898-5.715 5.982-9.463 9.16-9.65 8.132-19.58 16.544-30.355 21.59.094-.186.281-.466.375-.653.187-.28.374-.655.468-.935 1.218-2.43-2.623 1.402-4.028 2.99l-.282.094c4.31-8.972 1.687-8.225-.936-1.028.749-1.963 1.218-13.272-1.031-.934-.094-.094-.094-.28-.094-.468-.094-1.215-.187-2.43-.374-3.551-1.687-6.824-1.406 1.215-.563 4.766-5.153-10.935-2.342-3.364-1.499.748-1.592-1.682-5.902-1.589-4.31-.467 1.219.84 2.437 1.589 3.748 2.43-.75.093-5.34.654-4.403 1.028l.187.093c-5.434.935-11.055.748-16.958-.934.281-.28-.562-.654-3.747-1.215l-.188-.187c.094-.094.188-.094.281-.094.844-.187 1.78-.373 2.436-.747 4.779-2.617-1.03-1.59-3.466-.28 7.401-7.01 2.155-2.992-.656-1.777 1.03-1.962.656-7.103 0-5.14-.468 1.495-.937 3.084-1.405 4.58-.094-.842-.937-6.263-1.03-5.048-.188 1.028-.47 1.963-.376 3.085.281 4.954-6.933-.748-15.552-9.16.468.093.562 0 .281-.28-1.124-1.496-1.968-2.898-3.466-3.926-1.125-.841-2.343-1.589-3.467-2.43-.187-.187-.375-.28-.562-.468C20.705 10.006 14.99 4.117 10.68.005H0c5.247 4.3 8.62 8.692 15.365 14.113-.843.28-1.78.655-2.623 1.029-.75.28-1.312.747-2.061 1.215-.469.28-.844.56-1.312.934-3.748 2.804 7.12-.093 8.994-.84h.094c-12.648 9.72-8.245 11.309.28 2.897-2.248 2.243-10.024 19.16.938 2.523.093.187 0 .561-.094.841-.562 1.963-1.312 3.926-1.499 5.795-1.593 12.245 2.904-.467 3.748-6.823 1.218 22.059 1.499 7.571 2.81.468h.094c1.312 3.645 6.558 7.384 6.558 5.888 5.903 5.14 11.899 9.534 18.55 12.618 0 .374.095.748.095 1.122 0 .28.28 2.897.28 2.897.188 0 .188-.187.188-.374-.094-1.121 0-2.15-.094-3.271.562 1.402 2.53 6.356 1.406 1.87-.094-.374-.563-1.216-.282-1.403.282.187.469.468.656.655.375.467.75.84 1.125 1.308.28.374.655.56 1.03.841.188.187.469.374.75.468 1.218.84.28-.842-.937-2.43 19.768 6.73 35.977-2.524 51.81-15.049.094.094.187 0 .187-.093.094-.094.188-.187.188-.28l.749-.561c-.281 1.215-.843 3.178.094 1.028.094-.187.187-.748.375-.748.094.187 0 .467 0 .654v1.122c0 .28.094.56.187.935 0 .187.094.373.094.56.375 1.776.562-3.27.468-3.738 1.406 5.888 2.062 4.206.75.187.375 1.028 3.841 5.42.656-.187.093 0 .093.093.187.093.375.374.843.841 1.312 1.028 2.81 1.59.093-1.215-1.312-2.056 5.34 1.215 1.874 0 .281-1.122.843-.186 2.061-1.682 1.968-2.056 2.904-2.43 5.715-4.86 8.619-7.29 4.403-3.739 8.713-7.01 13.023-9.908h1.405c.188 0 2.342-.093 2.342-.093 0-.187-.187-.28-.281-.28-.843 0-1.686-.094-2.436-.187.188-.187.469-.28.656-.468.75-.374 1.78-.934 2.061-1.308Z" fill="#F0F835"/></svg>