<svg width="375" height="124" fill="none" xmlns="http://www.w3.org/2000/svg"><g filter="url(#a)"><path d="M87.25 75.648c-.229 0-.457 0-.685.036a14.313 14.313 0 0 0-11.28-6.094 14.334 14.334 0 0 0-14.478-8.179 18.614 18.614 0 0 0-27.06-7.269 18.6 18.6 0 0 0-6.855 8.366c-1.235.29-2.426.745-3.54 1.353a14.315 14.315 0 0 0-11.249-5.453 14.35 14.35 0 0 0-9.044 3.21 14.334 14.334 0 0 0-4.993 8.192 14.174 14.174 0 0 0-4.792-.06 14.293 14.293 0 0 0-9.651 6.237 8.188 8.188 0 0 0-2.36-.354c-2.192 0-4.294.87-5.843 2.418a8.254 8.254 0 0 0 8.203 13.745A14.33 14.33 0 0 0-2.12 98.06a14.342 14.342 0 0 0 4.76-1.667 18.583 18.583 0 0 0 16.088 9.267 18.585 18.585 0 0 0 14.927-7.498 8.23 8.23 0 0 0 7.574-.102 18.544 18.544 0 0 0 12.074 4.454 18.555 18.555 0 0 0 14.022-6.385 14.317 14.317 0 0 0 19.231-4.002c.228.02.456.035.684.035 2.192 0 4.293-.87 5.843-2.418a8.254 8.254 0 0 0 .002-11.674 8.265 8.265 0 0 0-5.837-2.422Z" fill="#fff"/></g><g filter="url(#b)"><path d="M432.209 35.208c-.326 0-.652 0-.978.05a20.45 20.45 0 0 0-16.114-8.704 20.472 20.472 0 0 0-7.556-8.594 20.497 20.497 0 0 0-13.127-3.088 26.567 26.567 0 0 0-9.804-10.85 26.6 26.6 0 0 0-28.853.467 26.573 26.573 0 0 0-9.79 11.95 20.14 20.14 0 0 0-5.058 1.932 20.45 20.45 0 0 0-16.069-7.79 20.5 20.5 0 0 0-12.919 4.587 20.475 20.475 0 0 0-7.134 11.7 20.245 20.245 0 0 0-6.845-.084 20.395 20.395 0 0 0-13.787 8.907 11.692 11.692 0 0 0-3.372-.505 11.806 11.806 0 0 0-8.346 3.454 11.788 11.788 0 0 0 0 16.68 11.806 11.806 0 0 0 8.346 3.454 11.937 11.937 0 0 0 3.372-.5 20.487 20.487 0 0 0 27.169 6.565 26.537 26.537 0 0 0 9.717 9.693 26.566 26.566 0 0 0 13.264 3.545 26.551 26.551 0 0 0 21.324-10.71 11.759 11.759 0 0 0 10.819-.146 26.492 26.492 0 0 0 17.248 6.363 26.522 26.522 0 0 0 20.031-9.12 20.374 20.374 0 0 0 10.718 3.027 20.441 20.441 0 0 0 16.754-8.745c.326.028.652.05.978.05 3.131 0 6.133-1.242 8.346-3.454a11.788 11.788 0 0 0 .004-16.675 11.806 11.806 0 0 0-8.338-3.459Z" fill="#E6F6FF"/></g><defs><filter id="a" x="-41" y="41" width="150.503" height="82.66" filterUnits="userSpaceOnUse" color-interpolation-filters="sRGB"><feFlood flood-opacity="0" result="BackgroundImageFix"/><feColorMatrix in="SourceAlpha" values="0 0 0 0 0 0 0 0 0 0 0 0 0 0 0 0 0 0 127 0" result="hardAlpha"/><feOffset dy="4"/><feGaussianBlur stdDeviation="7"/><feComposite in2="hardAlpha" operator="out"/><feColorMatrix values="0 0 0 0 0.247708 0 0 0 0 0.335337 0 0 0 0 0.5125 0 0 0 0.3 0"/><feBlend in2="BackgroundImageFix" result="effect1_dropShadow_346_14"/><feBlend in="SourceGraphic" in2="effect1_dropShadow_346_14" result="shape"/></filter><filter id="b" x="255" y="-14" width="203" height="106.077" filterUnits="userSpaceOnUse" color-interpolation-filters="sRGB"><feFlood flood-opacity="0" result="BackgroundImageFix"/><feColorMatrix in="SourceAlpha" values="0 0 0 0 0 0 0 0 0 0 0 0 0 0 0 0 0 0 127 0" result="hardAlpha"/><feOffset/><feGaussianBlur stdDeviation="7"/><feComposite in2="hardAlpha" operator="out"/><feColorMatrix values="0 0 0 0 0.247708 0 0 0 0 0.335337 0 0 0 0 0.5125 0 0 0 0.3 0"/><feBlend in2="BackgroundImageFix" result="effect1_dropShadow_346_14"/><feBlend in="SourceGraphic" in2="effect1_dropShadow_346_14" result="shape"/></filter></defs></svg>