<svg width="375" height="167" fill="none" xmlns="http://www.w3.org/2000/svg"><path d="M71.858 141.194c-.198 0-.395 0-.593.031a12.352 12.352 0 0 0-4.256-3.766 12.453 12.453 0 0 0-5.504-1.475 12.355 12.355 0 0 0-4.577-5.173 12.476 12.476 0 0 0-7.95-1.859 16.029 16.029 0 0 0-5.94-6.531A16.18 16.18 0 0 0 34.52 120c-3.189 0-6.306.94-8.957 2.702a16.018 16.018 0 0 0-5.93 7.194c-1.07.248-2.1.64-3.064 1.163a12.369 12.369 0 0 0-4.324-3.456A12.466 12.466 0 0 0-.99 129.13a12.316 12.316 0 0 0-4.321 7.044 12.334 12.334 0 0 0-4.147-.051c-1.69.271-3.304.887-4.742 1.81a12.325 12.325 0 0 0-3.608 3.552 7.101 7.101 0 0 0-2.043-.304 7.176 7.176 0 0 0-5.055 2.079A7.077 7.077 0 0 0-27 148.28c0 1.883.753 3.689 2.094 5.021a7.176 7.176 0 0 0 5.055 2.079 7.28 7.28 0 0 0 2.043-.301 12.378 12.378 0 0 0 5.367 4.502 12.475 12.475 0 0 0 11.09-.55 16.03 16.03 0 0 0 5.885 5.835A16.18 16.18 0 0 0 12.568 167c2.51.002 4.986-.581 7.23-1.7a16.046 16.046 0 0 0 5.686-4.747c.988.493 2.078.75 3.183.75a7.145 7.145 0 0 0 3.37-.838 16.103 16.103 0 0 0 10.448 3.83c2.3.002 4.575-.488 6.668-1.435a16.042 16.042 0 0 0 5.465-4.055 12.392 12.392 0 0 0 6.492 1.822 12.439 12.439 0 0 0 5.724-1.397 12.35 12.35 0 0 0 4.425-3.867c.197.017.394.031.592.031a7.172 7.172 0 0 0 5.055-2.08 7.074 7.074 0 0 0 2.094-5.02 7.075 7.075 0 0 0-2.091-5.018 7.176 7.176 0 0 0-5.051-2.082Z" fill="#fff"/><path d="M395.543 12.514c-.255 0-.509 0-.764.04a15.975 15.975 0 0 0-12.592-6.803 16.003 16.003 0 0 0-16.163-9.129A20.764 20.764 0 0 0 347.37-15a20.77 20.77 0 0 0-19.207 12.846 15.735 15.735 0 0 0-3.952 1.51 15.992 15.992 0 0 0-12.558-6.087 16.021 16.021 0 0 0-10.096 3.584 16.002 16.002 0 0 0-5.575 9.144 15.819 15.819 0 0 0-5.349-.066 15.956 15.956 0 0 0-10.774 6.96 9.138 9.138 0 0 0-2.636-.394 9.216 9.216 0 1 0 0 18.434 9.332 9.332 0 0 0 2.636-.391 16.012 16.012 0 0 0 21.231 5.13 20.757 20.757 0 0 0 17.96 10.345 20.748 20.748 0 0 0 16.664-8.37 9.188 9.188 0 0 0 8.454-.114 20.707 20.707 0 0 0 13.48 4.973 20.725 20.725 0 0 0 15.653-7.127 15.987 15.987 0 0 0 15.761.552 15.975 15.975 0 0 0 5.708-5.02c.255.021.51.04.764.04a9.224 9.224 0 0 0 9.224-9.218 9.216 9.216 0 0 0-9.215-9.217Z" fill="#E6F6FF"/></svg>