<svg width="110" height="83" fill="none" xmlns="http://www.w3.org/2000/svg"><g filter="url(#a)"><path d="M87.25 34.648c-.229 0-.457 0-.685.036a14.313 14.313 0 0 0-11.28-6.094 14.334 14.334 0 0 0-14.478-8.179 18.615 18.615 0 0 0-27.06-7.269 18.6 18.6 0 0 0-6.855 8.366c-1.235.29-2.426.745-3.54 1.353a14.315 14.315 0 0 0-11.249-5.454A14.35 14.35 0 0 0 3.06 20.62a14.334 14.334 0 0 0-4.993 8.19 14.174 14.174 0 0 0-4.792-.058 14.293 14.293 0 0 0-9.651 6.235 8.188 8.188 0 0 0-2.36-.353c-2.192 0-4.294.87-5.843 2.418a8.254 8.254 0 0 0 8.203 13.745A14.33 14.33 0 0 0-2.12 57.06a14.342 14.342 0 0 0 4.76-1.667 18.58 18.58 0 0 0 16.09 9.267 18.584 18.584 0 0 0 14.927-7.498 8.23 8.23 0 0 0 7.574-.102 18.545 18.545 0 0 0 12.074 4.454 18.565 18.565 0 0 0 14.022-6.385 14.317 14.317 0 0 0 19.231-4.002c.228.02.456.035.684.035 2.192 0 4.293-.87 5.843-2.418a8.254 8.254 0 0 0 .002-11.675 8.265 8.265 0 0 0-5.837-2.42Z" fill="#fff"/></g><defs><filter id="a" x="-41" y="0" width="150.503" height="82.66" filterUnits="userSpaceOnUse" color-interpolation-filters="sRGB"><feFlood flood-opacity="0" result="BackgroundImageFix"/><feColorMatrix in="SourceAlpha" values="0 0 0 0 0 0 0 0 0 0 0 0 0 0 0 0 0 0 127 0" result="hardAlpha"/><feOffset dy="4"/><feGaussianBlur stdDeviation="7"/><feComposite in2="hardAlpha" operator="out"/><feColorMatrix values="0 0 0 0 0.247708 0 0 0 0 0.335337 0 0 0 0 0.5125 0 0 0 0.3 0"/><feBlend in2="BackgroundImageFix" result="effect1_dropShadow_51_444"/><feBlend in="SourceGraphic" in2="effect1_dropShadow_51_444" result="shape"/></filter></defs></svg>