<svg width="15" height="14" fill="none" xmlns="http://www.w3.org/2000/svg"><path d="M7.63 3.637a3.473 3.473 0 0 0-3.467 3.467 3.456 3.456 0 0 0 3.466 3.467 3.473 3.473 0 0 0 3.467-3.467c0-1.896-1.57-3.467-3.467-3.467Zm0 5.688a2.23 2.23 0 0 1-2.222-2.22A2.23 2.23 0 0 1 7.63 4.882a2.23 2.23 0 0 1 2.22 2.222 2.23 2.23 0 0 1-2.22 2.22Zm3.601-4.983a.785.785 0 1 0 0-1.571.785.785 0 0 0 0 1.57Z" fill="#fff"/><path d="M13.262 1.525C12.558.794 11.556.415 10.42.415H4.84C2.484.415.914 1.985.914 4.342v5.552c0 1.164.379 2.166 1.137 2.898.731.704 1.706 1.056 2.817 1.056h5.525c1.164 0 2.14-.38 2.844-1.056.73-.705 1.11-1.707 1.11-2.871V4.34c0-1.137-.38-2.112-1.084-2.816Zm-.108 8.396c0 .84-.298 1.516-.785 1.977-.488.46-1.165.704-1.977.704H4.867c-.813 0-1.49-.244-1.977-.704-.488-.488-.732-1.165-.732-2.004V4.342c0-.813.244-1.49.732-1.977.46-.46 1.164-.705 1.977-.705h5.579c.812 0 1.49.244 1.977.732.46.487.731 1.164.731 1.95V9.92Z" fill="#fff"/></svg>