<svg width="199" height="38" viewBox="0 0 199 38" fill="none" xmlns="http://www.w3.org/2000/svg">
<g clip-path="url(#clip0_51_426)">
<path d="M106.249 31.6235V6.37631H121.709V12.2355H112.691V31.6235H106.249Z" fill="#E6000E"/>
<path d="M106.249 31.6235V6.37631H121.709V12.2355H112.691V31.6235H106.249Z" fill="white"/>
<path d="M141.152 31.6235V21.7355H131.575V31.6235H125.133V6.37631H131.575V15.7968H141.152V6.37631H147.595V31.6235H141.152Z" fill="#E6000E"/>
<path d="M141.152 31.6235V21.7355H131.575V31.6235H125.133V6.37631H131.575V15.7968H141.152V6.37631H147.595V31.6235H141.152Z" fill="white"/>
<path d="M184.996 31.6235V12.2355H177.464V6.37631H199V12.2355H191.439V31.6235H184.996Z" fill="#E6000E"/>
<path d="M184.996 31.6235V12.2355H177.464V6.37631H199V12.2355H191.439V31.6235H184.996Z" fill="white"/>
<path d="M167.984 31.6235V17.2292L157.722 31.6235H152.33V6.37631H158.783V20.6114L168.861 6.37631H174.426V31.6235H167.984Z" fill="#E6000E"/>
<path d="M167.984 31.6235V17.2292L157.722 31.6235H152.33V6.37631H158.783V20.6114L168.861 6.37631H174.426V31.6235H167.984Z" fill="white"/>
<path d="M69.2148 31.6235V16.6125L62.7819 24.5407L56.3491 16.6125V31.6235H49.9066V6.37631H56.2623L62.7819 15.0606L69.3015 6.37631H75.6573V31.6235H69.2148Z" fill="#E6000E"/>
<path d="M69.2148 31.6235V16.6125L62.7819 24.5407L56.3491 16.6125V31.6235H49.9066V6.37631H56.2623L62.7819 15.0606L69.3015 6.37631H75.6573V31.6235H69.2148Z" fill="white"/>
<path d="M87.8964 22.7402H93.8854L90.8862 14.7821L87.8964 22.7402ZM97.2416 31.6235L95.9013 28.0821H85.871L84.5401 31.6235H78.0494L88.0024 6.37631H93.9623L103.868 31.6235H97.2416Z" fill="#E6000E"/>
<path d="M87.8964 22.7402H93.8854L90.8862 14.7821L87.8964 22.7402ZM97.2416 31.6235L95.9013 28.0821H85.871L84.5401 31.6235H78.0494L88.0024 6.37631H93.9623L103.868 31.6235H97.2416Z" fill="white"/>
<path d="M0 11.5025C0 8.43781 1.15722 5.55224 3.26913 3.37314C5.38105 1.19403 8.17766 0 11.1479 0H36.8959V5.85075H11.1479C9.69167 5.85075 8.32231 6.43781 7.28082 7.51244C6.23933 8.58706 5.67036 10.01 5.67036 11.5125L5.63178 21.3333C5.37141 23.9403 3.46201 26.0398 1.00292 26.4279L0 26.5771V11.5025Z" fill="#E6000E"/>
<path d="M0 11.5025C0 8.43781 1.15722 5.55224 3.26913 3.37314C5.38105 1.19403 8.17766 0 11.1479 0H36.8959V5.85075H11.1479C9.69167 5.85075 8.32231 6.43781 7.28082 7.51244C6.23933 8.58706 5.67036 10.01 5.67036 11.5125L5.63178 21.3333C5.37141 23.9403 3.46201 26.0398 1.00292 26.4279L0 26.5771V11.5025Z" fill="white"/>
<path d="M0 38.0001V32.1493H25.7481C27.2042 32.1493 28.5832 31.5524 29.6151 30.4877C30.6565 29.413 31.2255 28.0001 31.2255 26.4976L31.2352 17.1842C31.2352 14.4081 33.2411 12.0001 35.893 11.5822L36.8959 11.423V26.4976C36.8959 29.5623 35.729 32.4478 33.6267 34.6269C31.5148 36.806 28.7183 38.0001 25.7481 38.0001H0Z" fill="#E6000E"/>
<path d="M0 38.0001V32.1493H25.7481C27.2042 32.1493 28.5832 31.5524 29.6151 30.4877C30.6565 29.413 31.2255 28.0001 31.2255 26.4976L31.2352 17.1842C31.2352 14.4081 33.2411 12.0001 35.893 11.5822L36.8959 11.423V26.4976C36.8959 29.5623 35.729 32.4478 33.6267 34.6269C31.5148 36.806 28.7183 38.0001 25.7481 38.0001H0Z" fill="white"/>
<path d="M21.8042 26.5971V19.0448L18.4482 23.1742L15.0923 19.0448V26.5971H10.6467V11.7215H14.8608L18.4482 16.5075L22.0452 11.7215H26.2497V26.5971H21.8042Z" fill="#E6000E"/>
<path d="M21.8042 26.5971V19.0448L18.4482 23.1742L15.0923 19.0448V26.5971H10.6467V11.7215H14.8608L18.4482 16.5075L22.0452 11.7215H26.2497V26.5971H21.8042Z" fill="white"/>
</g>
<defs>
<clipPath id="clip0_51_426">
<rect width="199" height="38" fill="white"/>
</clipPath>
</defs>
</svg>
