<svg width="199" height="38" fill="none" xmlns="http://www.w3.org/2000/svg"><g clip-path="url(#a)"><path d="M106.249 31.623V6.377h15.46v5.86h-9.018v19.387h-6.442Z" fill="#E6000E"/><path d="M106.249 31.623V6.377h15.46v5.86h-9.018v19.387h-6.442Z" fill="#fff"/><path d="M141.152 31.623v-9.888h-9.577v9.889h-6.442V6.375h6.442v9.42h9.577v-9.42h6.443v25.247h-6.443Z" fill="#E6000E"/><path d="M141.152 31.623v-9.888h-9.577v9.889h-6.442V6.375h6.442v9.42h9.577v-9.42h6.443v25.247h-6.443Z" fill="#fff"/><path d="M184.996 31.623V12.236h-7.532v-5.86H199v5.86h-7.561v19.387h-6.443Z" fill="#E6000E"/><path d="M184.996 31.623V12.236h-7.532v-5.86H199v5.86h-7.561v19.387h-6.443Z" fill="#fff"/><path d="M167.984 31.623V17.23l-10.262 14.395h-5.392V6.375h6.453V20.61l10.078-14.235h5.565v25.247h-6.442Z" fill="#E6000E"/><path d="M167.984 31.623V17.23l-10.262 14.395h-5.392V6.375h6.453V20.61l10.078-14.235h5.565v25.247h-6.442Z" fill="#fff"/><path d="M69.215 31.623v-15.01l-6.433 7.928-6.433-7.928v15.01h-6.442V6.377h6.355l6.52 8.685 6.52-8.685h6.355v25.247h-6.442Z" fill="#E6000E"/><path d="M69.215 31.623v-15.01l-6.433 7.928-6.433-7.928v15.01h-6.442V6.377h6.355l6.52 8.685 6.52-8.685h6.355v25.247h-6.442Z" fill="#fff"/><path d="M87.896 22.74h5.99l-3-7.958-2.99 7.958Zm9.346 8.884-1.34-3.542H85.87l-1.33 3.541h-6.492l9.953-25.247h5.96l9.906 25.247h-6.626Z" fill="#E6000E"/><path d="M87.896 22.74h5.99l-3-7.958-2.99 7.958Zm9.346 8.884-1.34-3.542H85.87l-1.33 3.541h-6.492l9.953-25.247h5.96l9.906 25.247h-6.626Z" fill="#fff"/><path d="M0 11.502c0-3.064 1.157-5.95 3.27-8.129C5.38 1.194 8.177 0 11.147 0h25.748v5.85H11.148c-1.456 0-2.826.588-3.867 1.662a5.716 5.716 0 0 0-1.61 4l-.04 9.821c-.26 2.607-2.169 4.707-4.628 5.095L0 26.578V11.502Z" fill="#E6000E"/><path d="M0 11.502c0-3.064 1.157-5.95 3.27-8.129C5.38 1.194 8.177 0 11.147 0h25.748v5.85H11.148c-1.456 0-2.826.588-3.867 1.662a5.716 5.716 0 0 0-1.61 4l-.04 9.821c-.26 2.607-2.169 4.707-4.628 5.095L0 26.578V11.502Z" fill="#fff"/><path d="M0 38v-5.85h25.748c1.456 0 2.835-.598 3.867-1.662a5.693 5.693 0 0 0 1.61-3.99l.01-9.314c0-2.776 2.006-5.184 4.658-5.602l1.003-.159v15.075c0 3.064-1.167 5.95-3.27 8.129C31.516 36.806 28.719 38 25.749 38H0Z" fill="#E6000E"/><path d="M0 38v-5.85h25.748c1.456 0 2.835-.598 3.867-1.662a5.693 5.693 0 0 0 1.61-3.99l.01-9.314c0-2.776 2.006-5.184 4.658-5.602l1.003-.159v15.075c0 3.064-1.167 5.95-3.27 8.129C31.516 36.806 28.719 38 25.749 38H0Z" fill="#fff"/><path d="M21.804 26.597v-7.552l-3.356 4.13-3.356-4.13v7.552h-4.445V11.721h4.214l3.587 4.787 3.597-4.786h4.205v14.875h-4.446Z" fill="#E6000E"/><path d="M21.804 26.597v-7.552l-3.356 4.13-3.356-4.13v7.552h-4.445V11.721h4.214l3.587 4.787 3.597-4.786h4.205v14.875h-4.446Z" fill="#fff"/></g><defs><clipPath id="a"><path fill="#fff" d="M0 0h199v38H0z"/></clipPath></defs></svg>