<svg width="18" height="20" viewBox="0 0 18 20" fill="none" xmlns="http://www.w3.org/2000/svg">
<path d="M13.2155 0.0756834L5.75354 0.0756831C5.20126 0.075683 4.75354 0.523398 4.75354 1.07568L4.75354 4.88562C4.75354 5.4379 4.30583 5.88562 3.75354 5.88562L1.96929 5.88562C1.15095 5.88562 0.679064 6.81492 1.16189 7.47563L9.1146 18.3583C9.54482 18.947 10.4402 18.8922 10.7954 18.2553L16.8645 7.37269C17.2363 6.70613 16.7544 5.88562 15.9912 5.88562L14.2495 5.88562C13.5901 5.88562 13.1113 5.25864 13.2848 4.6225L14.1803 1.3388C14.3538 0.702661 13.8749 0.0756834 13.2155 0.0756834Z" fill="white"/>
</svg>
