<svg width="16" height="10" fill="none" xmlns="http://www.w3.org/2000/svg"><path d="M15.372.44h-2.596a.546.546 0 0 0-.301.09.623.623 0 0 0-.216.25s-1.035 2.1-1.368 2.808c-.895 1.903-1.474 1.306-1.474.422V.964c0-.254-.092-.498-.255-.678a.833.833 0 0 0-.616-.281H6.593A1.439 1.439 0 0 0 5.82.16c-.242.124-.45.313-.607.55 0 0 .991-.176.991 1.296 0 .364.017 1.414.033 2.294a.682.682 0 0 1-.096.366.59.59 0 0 1-.268.24.526.526 0 0 1-.344.027.568.568 0 0 1-.297-.195A19.365 19.365 0 0 1 3.26.79a.589.589 0 0 0-.202-.255.51.51 0 0 0-.295-.095H.403a.371.371 0 0 0-.186.05.416.416 0 0 0-.144.139.469.469 0 0 0-.048.407C.741 3.199 3.827 10 7.35 10H8.83a.56.56 0 0 0 .414-.189.68.68 0 0 0 .172-.456v-.986c0-.124.033-.245.094-.348a.593.593 0 0 1 .253-.234.527.527 0 0 1 .327-.042c.111.02.214.077.295.162l1.775 1.836c.159.165.37.257.588.257h2.33c1.124 0 1.124-.859.511-1.524a174.88 174.88 0 0 1-1.987-2.274.93.93 0 0 1-.224-.562.95.95 0 0 1 .162-.588c.503-.73 1.326-1.922 1.675-2.434.476-.698 1.34-2.179.156-2.179Z" fill="#fff"/></svg>