<svg width="15" height="11" fill="none" xmlns="http://www.w3.org/2000/svg"><path d="M7.5 11h-.004c-.452-.003-4.453-.039-5.589-.351A2.338 2.338 0 0 1 .275 8.995C-.02 7.864 0 5.69 0 5.513c0-.172-.02-2.365.276-3.505v-.003A2.387 2.387 0 0 1 1.905.34c.002 0 .002 0 .005-.003C3.032.039 7.041.003 7.493 0h.01c.454.003 4.467.039 5.588.351.79.215 1.415.85 1.63 1.654.308 1.14.278 3.339.275 3.523.003.182.02 2.339-.276 3.476v.003a2.333 2.333 0 0 1-1.632 1.653h-.003c-1.12.298-5.13.337-5.583.34H7.5ZM1.407 2.314c-.26 1.007-.234 3.173-.234 3.193v.015c-.01.602.02 2.342.234 3.164.106.393.414.706.805.813.836.23 4.095.3 5.286.31 1.195-.01 4.46-.078 5.29-.298.39-.108.699-.42.801-.813.217-.837.244-2.568.235-3.164v-.018c.012-.607-.012-2.368-.235-3.199v-.003a1.155 1.155 0 0 0-.804-.816c-.828-.23-4.092-.3-5.287-.31-1.194.01-4.453.078-5.286.298-.385.11-.699.432-.805.828Zm4.597 5.594V3.092l4.101 2.407-4.1 2.41Z" fill="#fff"/></svg>