<svg width="502" height="351" viewBox="0 0 502 351" fill="none" xmlns="http://www.w3.org/2000/svg">
<g clip-path="url(#clip0_172_2531)">
<path d="M442.897 342.176L434.506 342.175L430.515 309.812L442.898 309.813L442.897 342.176Z" fill="#FFB8B8"/>
<path d="M445.037 350.307L417.982 350.306V349.964C417.983 347.171 419.092 344.493 421.067 342.518C423.042 340.543 425.72 339.434 428.513 339.434H428.513L445.037 339.434L445.037 350.307Z" fill="#2F2E41"/>
<path d="M479.929 321.551L474.482 327.933L447.272 309.963L455.311 300.543L479.929 321.551Z" fill="#FFB8B8"/>
<path d="M487.505 325.198L469.943 345.778L469.683 345.556C467.559 343.743 466.242 341.161 466.021 338.377C465.801 335.593 466.695 332.835 468.508 330.711L468.508 330.71L479.234 318.141L487.505 325.198Z" fill="#2F2E41"/>
<path d="M383.321 183.02L380.709 207.107L486.29 205.602L440.245 130.577L402.651 129.227L383.321 183.02Z" fill="#2F2E41"/>
<path opacity="0.28" d="M383.321 183.02L380.709 207.107L486.29 205.602L440.245 130.577L402.651 129.227L383.321 183.02Z" fill="black"/>
<path d="M404.083 187.151L400.355 209.191V228.891L430.408 238.701C430.408 238.701 426.89 315.22 431.58 320.094L431.465 331.859L444.575 332.455L444.682 324.175L450.24 262.285L453.514 216.845L448.206 182.395L404.083 187.151Z" fill="#2F2E41"/>
<path d="M427.365 206.125L400.355 228.893C400.355 228.893 398.774 269.971 402.788 274.789C406.236 278.926 451.081 314.615 451.081 314.615C451.081 314.615 459.051 321.926 463.517 322.043C467.984 322.159 473.179 312.791 473.179 312.791L462.835 304.932C462.835 304.932 436.036 279.917 428.079 269.971C424.868 265.957 424.868 265.555 424.868 265.555L425.965 248.861L437.004 217.878L427.365 206.125Z" fill="#2F2E41"/>
<path d="M398.689 97.0645L387.044 95.9883L376.48 97.7487L354.113 97.7558L352.207 113.967L372.619 118.535L377.593 116.097L398.329 123.997L398.689 97.0645Z" fill="#2F2E41"/>
<path d="M412.597 97.017C412.597 97.017 437.312 94.7012 442.933 99.1172C448.553 103.533 460.596 191.048 460.596 191.048L412.597 193.757L403.992 187.837L406.435 144.146L412.597 97.017Z" fill="#CCCCCC"/>
<path d="M420.142 96.4727L392.879 97.071L367.461 211.924L387.533 216.341L420.142 96.4727Z" fill="#2F2E41"/>
<path d="M439.524 95.5L460.999 102.221L459.779 149.411L486.291 205.83L455.124 209.113L430.489 148.191L439.524 95.5Z" fill="#2F2E41"/>
<path d="M474.935 211.562C475.688 210.899 476.286 210.079 476.688 209.16C477.09 208.241 477.285 207.245 477.261 206.242C477.236 205.24 476.991 204.255 476.545 203.356C476.098 202.458 475.46 201.669 474.675 201.044L478.996 185.973L470.477 181.113L464.675 202.483C463.712 203.871 463.293 205.564 463.495 207.24C463.697 208.917 464.508 210.461 465.772 211.58C467.037 212.699 468.668 213.315 470.357 213.312C472.046 213.308 473.675 212.686 474.935 211.562Z" fill="#FFB8B8"/>
<path d="M448.554 103.532L461.261 102.43C461.261 102.43 472.669 114.361 475.264 123.599C477.859 132.837 480.669 161.742 480.669 161.742L479.497 204.026L464.644 193.939L463.647 157.569L448.554 103.532Z" fill="#2F2E41"/>
<path d="M445.488 82.2793C450.26 73.5502 447.052 62.6056 438.323 57.8339C429.594 53.0621 418.649 56.2702 413.877 64.9993C409.106 73.7284 412.314 84.673 421.043 89.4447C429.772 94.2165 440.716 91.0084 445.488 82.2793Z" fill="#FFB8B8"/>
<path d="M427.674 66.118C425.311 65.5719 422.858 66.1771 420.464 66.5694C418.07 66.9616 415.432 67.091 413.408 65.7554C411.912 64.7691 410.993 63.1373 410.13 61.5678C409.769 61.0072 409.529 60.3781 409.424 59.72C409.323 58.5592 410.061 57.5001 410.845 56.6382C414.488 52.6345 419.81 50.4432 425.178 49.7471C429.605 49.0874 434.127 49.6396 438.265 51.3452C442.34 53.1324 445.842 56.4051 447.444 60.556C448.182 62.6805 448.643 64.8912 448.815 67.1336C449.057 68.7834 449.088 70.4573 448.908 72.115C448.692 73.3438 448.369 74.5514 447.942 75.7239L445.289 83.7367C445.098 84.4939 444.742 85.1993 444.245 85.8022C443.99 86.0975 443.646 86.3021 443.265 86.3856C442.884 86.4691 442.486 86.4269 442.131 86.2653C442.344 85.395 442.376 84.4905 442.226 83.6072C442.143 83.167 441.93 82.7617 441.615 82.4436C441.3 82.1255 440.896 81.9092 440.457 81.8224C439.479 81.7186 438.643 82.4768 437.715 82.8034C437.291 82.9293 436.845 82.9703 436.405 82.9241C435.964 82.8779 435.537 82.7453 435.148 82.5341C434.759 82.3228 434.415 82.037 434.136 81.6928C433.857 81.3487 433.649 80.953 433.523 80.5284C433.498 80.4428 433.476 80.3562 433.457 80.2688C433.311 79.3528 433.557 78.3721 433.209 77.5118C432.803 76.5039 431.724 75.9758 430.913 75.2515C430.174 74.569 429.645 73.6896 429.388 72.7166C429.131 71.7436 429.157 70.7176 429.463 69.759C429.68 69.0921 430.293 68.789 430.17 68.0229C430.01 67.0179 428.528 66.3152 427.674 66.118Z" fill="#2F2E41"/>
<path d="M227.412 142.262H0V0H227.412V142.262Z" fill="white"/>
<path d="M227.412 142.262H0V0H227.412V142.262ZM1.03841 141.224H226.374V1.03841H1.03841V141.224Z" fill="#3F3D56"/>
<path d="M199.634 339.301H69.833V197.039H199.634V339.301Z" fill="white"/>
<path d="M199.634 339.301H69.833V197.039H199.634V339.301ZM70.8714 338.263H198.596V198.077H70.8714V338.263Z" fill="#3F3D56"/>
<path d="M181.982 325.867H154.983V326.962H181.982V325.867Z" fill="#3F3D56"/>
<path d="M181.982 329.148H154.983V330.243H181.982V329.148Z" fill="#3F3D56"/>
<path d="M181.982 332.434H154.983V333.528H181.982V332.434Z" fill="#3F3D56"/>
<path d="M134.733 222.48V233.903C141.511 233.903 148.136 235.913 153.771 239.678C159.407 243.443 163.799 248.795 166.392 255.057C168.986 261.319 169.665 268.209 168.343 274.856C167.02 281.503 163.757 287.609 158.964 292.401L167.041 300.478C173.431 294.088 177.783 285.947 179.546 277.084C181.309 268.221 180.404 259.034 176.946 250.686C173.487 242.337 167.631 235.201 160.117 230.181C152.604 225.16 143.77 222.48 134.733 222.48Z" fill="#E6E6E6"/>
<path d="M167.042 300.479L158.965 292.402C153.106 298.262 145.322 301.8 137.055 302.361C128.788 302.921 120.598 300.466 114.002 295.451L107.088 304.548C115.884 311.233 126.805 314.505 137.828 313.757C148.851 313.009 159.229 308.292 167.042 300.479Z" fill="#575A89"/>
<path d="M100.466 268.171C100.466 263.67 101.353 259.214 103.075 255.057C104.797 250.899 107.321 247.122 110.503 243.94C113.685 240.758 117.463 238.234 121.62 236.511C125.778 234.789 130.234 233.903 134.734 233.903V222.48C125.169 222.48 115.846 225.482 108.078 231.062C100.309 236.642 94.4883 244.52 91.4348 253.584C88.3813 262.648 88.2494 272.442 91.0577 281.585C93.866 290.728 99.4729 298.76 107.088 304.547L114.002 295.45C109.792 292.257 106.379 288.132 104.031 283.399C101.683 278.667 100.463 273.454 100.466 268.171Z" fill="#006E53"/>
<path d="M391.742 251.032H261.94V108.77H391.742V251.032Z" fill="white"/>
<path d="M391.742 251.032H261.94V108.77H391.742V251.032ZM262.979 249.994H390.703V109.808H262.979V249.994Z" fill="#3F3D56"/>
<path d="M303.996 195.742H280.632V233.125H303.996V195.742Z" fill="#575A89"/>
<path d="M337.743 170.301H314.379V233.125H337.743V170.301Z" fill="#E6E6E6"/>
<path d="M371.492 140.707H348.128V233.126H371.492V140.707Z" fill="#006E53"/>
<path d="M379.28 234.163H274.4V125.649H275.438V233.124H379.28V234.163Z" fill="#3F3D56"/>
<path d="M353.994 112.56C357.943 112.56 361.145 109.358 361.145 105.409C361.145 101.459 357.943 98.2578 353.994 98.2578C350.044 98.2578 346.843 101.459 346.843 105.409C346.843 109.358 350.044 112.56 353.994 112.56Z" fill="#FFB8B8"/>
<path d="M500.929 351H389.491C389.333 351 389.182 350.938 389.07 350.826C388.958 350.714 388.896 350.563 388.896 350.405C388.896 350.246 388.958 350.095 389.07 349.983C389.182 349.871 389.333 349.809 389.491 349.809H500.929C501.088 349.809 501.239 349.871 501.351 349.983C501.463 350.095 501.525 350.246 501.525 350.405C501.525 350.563 501.463 350.714 501.351 350.826C501.239 350.938 501.088 351 500.929 351Z" fill="#CCCCCC"/>
<path d="M195.829 112.51H31.5814C31.4451 112.51 31.3143 112.456 31.2179 112.359C31.1215 112.263 31.0674 112.132 31.0674 111.996V33.2718C31.0674 33.1355 31.1215 33.0048 31.2179 32.9084C31.3143 32.812 31.4451 32.7578 31.5814 32.7578C31.7177 32.7578 31.8485 32.812 31.9449 32.9084C32.0413 33.0048 32.0954 33.1355 32.0954 33.2718V111.482H195.829C195.897 111.482 195.964 111.495 196.027 111.52C196.089 111.546 196.146 111.584 196.194 111.632C196.242 111.679 196.28 111.736 196.306 111.799C196.332 111.861 196.345 111.928 196.345 111.996C196.345 112.063 196.332 112.13 196.306 112.193C196.28 112.255 196.242 112.312 196.194 112.36C196.146 112.408 196.089 112.446 196.027 112.471C195.964 112.497 195.897 112.51 195.829 112.51Z" fill="#3F3D56"/>
<path d="M66.6748 106.856H51.7358C51.3313 106.855 50.9435 106.695 50.6574 106.409C50.3714 106.123 50.2104 105.735 50.21 105.33V84.7367C50.2104 84.3322 50.3714 83.9443 50.6574 83.6583C50.9435 83.3723 51.3313 83.2114 51.7358 83.2109H66.6748C67.0793 83.2114 67.4672 83.3723 67.7532 83.6583C68.0393 83.9443 68.2002 84.3322 68.2007 84.7367V105.33C68.2002 105.735 68.0393 106.123 67.7532 106.409C67.4672 106.695 67.0793 106.855 66.6748 106.856Z" fill="#006E53"/>
<path d="M93.918 106.857H78.979C78.5745 106.857 78.1866 106.696 77.9006 106.41C77.6145 106.124 77.4536 105.736 77.4531 105.332V65.2054C77.4536 64.8009 77.6145 64.4131 77.9006 64.1271C78.1866 63.841 78.5745 63.6801 78.979 63.6797H93.918C94.3225 63.6801 94.7103 63.841 94.9964 64.1271C95.2824 64.4131 95.4434 64.8009 95.4439 65.2054V105.332C95.4434 105.736 95.2824 106.124 94.9964 106.41C94.7103 106.696 94.3225 106.857 93.918 106.857Z" fill="#006E53"/>
<path d="M121.161 106.856H106.222C105.818 106.855 105.43 106.695 105.144 106.409C104.858 106.123 104.697 105.735 104.696 105.33V84.7367C104.697 84.3322 104.858 83.9443 105.144 83.6583C105.43 83.3723 105.818 83.2114 106.222 83.2109H121.161C121.566 83.2114 121.954 83.3723 122.24 83.6583C122.526 83.9443 122.687 84.3322 122.687 84.7367V105.33C122.687 105.735 122.526 106.123 122.24 106.409C121.954 106.695 121.566 106.855 121.161 106.856Z" fill="#006E53"/>
<path d="M148.404 106.857H133.465C133.07 106.866 132.687 106.717 132.401 106.444C132.115 106.171 131.949 105.796 131.939 105.401V57.4257C131.949 57.0304 132.115 56.6552 132.401 56.3822C132.687 56.1091 133.07 55.9606 133.465 55.9691H148.404C148.8 55.9606 149.182 56.1091 149.468 56.3822C149.754 56.6552 149.92 57.0304 149.93 57.4257V105.401C149.92 105.796 149.754 106.171 149.468 106.444C149.182 106.717 148.8 106.866 148.404 106.857Z" fill="#006E53"/>
<path d="M175.647 106.856H160.708C160.304 106.856 159.916 106.695 159.63 106.409C159.344 106.123 159.183 105.735 159.183 105.331V43.6156C159.183 43.2111 159.344 42.8232 159.63 42.5372C159.916 42.2512 160.304 42.0903 160.708 42.0898H175.647C176.052 42.0903 176.44 42.2512 176.726 42.5372C177.012 42.8232 177.173 43.2111 177.173 43.6156V105.331C177.173 105.735 177.012 106.123 176.726 106.409C176.44 106.695 176.052 106.856 175.647 106.856Z" fill="#006E53"/>
<path d="M59.2062 77.0393C60.9095 77.0393 62.2903 75.6585 62.2903 73.9552C62.2903 72.2519 60.9095 70.8711 59.2062 70.8711C57.5029 70.8711 56.1221 72.2519 56.1221 73.9552C56.1221 75.6585 57.5029 77.0393 59.2062 77.0393Z" fill="#3F3D56"/>
<path d="M86.4484 56.9964C88.1517 56.9964 89.5325 55.6156 89.5325 53.9123C89.5325 52.2089 88.1517 50.8281 86.4484 50.8281C84.7451 50.8281 83.3643 52.2089 83.3643 53.9123C83.3643 55.6156 84.7451 56.9964 86.4484 56.9964Z" fill="#3F3D56"/>
<path d="M113.693 77.0393C115.396 77.0393 116.777 75.6585 116.777 73.9552C116.777 72.2519 115.396 70.8711 113.693 70.8711C111.989 70.8711 110.608 72.2519 110.608 73.9552C110.608 75.6585 111.989 77.0393 113.693 77.0393Z" fill="#3F3D56"/>
<path d="M140.935 47.2308C142.638 47.2308 144.019 45.8499 144.019 44.1466C144.019 42.4433 142.638 41.0625 140.935 41.0625C139.231 41.0625 137.851 42.4433 137.851 44.1466C137.851 45.8499 139.231 47.2308 140.935 47.2308Z" fill="#3F3D56"/>
<path d="M168.178 35.9222C169.881 35.9222 171.262 34.5413 171.262 32.838C171.262 31.1347 169.881 29.7539 168.178 29.7539C166.475 29.7539 165.094 31.1347 165.094 32.838C165.094 34.5413 166.475 35.9222 168.178 35.9222Z" fill="#3F3D56"/>
<path d="M113.757 74.6493L86.4489 54.1954L59.5136 74.3698L58.8975 73.5469L86.4489 52.9106L113.627 73.2674L140.635 43.7124L140.743 43.6683L167.986 32.6914L168.37 33.6455L141.235 44.5783L113.757 74.6493Z" fill="#3F3D56"/>
</g>
<defs>
<clipPath id="clip0_172_2531">
<rect width="501.525" height="351" fill="white"/>
</clipPath>
</defs>
</svg>
