<svg width="375" height="386" viewBox="0 0 375 386" fill="none" xmlns="http://www.w3.org/2000/svg">
<g opacity="0.1" clip-path="url(#clip0_324_4153)">
<path d="M210.481 388.055L211.033 386.92C211.202 386.574 227.758 351.966 218.527 317.843C209.296 283.719 177.55 262.177 177.231 261.964L176.182 261.262L175.629 262.397C175.461 262.742 158.905 297.351 168.136 331.474C177.367 365.598 209.112 387.14 209.432 387.353L210.481 388.055ZM177.07 264.547C182.628 268.59 208.34 288.621 216.401 318.417C224.468 348.237 212.355 378.479 209.592 384.77C204.034 380.727 178.322 360.696 170.262 330.9C162.195 301.079 174.307 270.838 177.07 264.547Z" fill="#AFAFAF"/>
<path d="M210.32 386.307L210.176 385.053C210.132 384.671 205.478 346.589 179.345 322.785C153.211 298.98 114.862 297.891 114.478 297.883L113.216 297.855L113.361 299.11C113.405 299.491 118.059 337.573 144.192 361.377C170.325 385.182 208.675 386.272 209.058 386.279L210.32 386.307ZM115.732 300.147C122.592 300.567 155.042 303.626 177.862 324.413C200.699 345.216 206.751 377.226 207.805 384.015C200.945 383.595 168.495 380.536 145.676 359.749C122.837 338.947 116.786 306.936 115.732 300.147Z" fill="#AFAFAF"/>
<path d="M209.823 386.77L210.92 386.145C211.254 385.955 244.466 366.75 256.124 333.378C267.783 300.006 253.756 264.297 253.613 263.941L253.144 262.769L252.047 263.394C251.713 263.584 218.501 282.789 206.843 316.161C195.184 349.533 209.21 385.242 209.354 385.598L209.823 386.77ZM252.021 265.982C254.324 272.457 264.226 303.511 254.046 332.651C243.857 361.815 216.779 379.927 210.945 383.557C208.643 377.081 198.741 346.028 208.922 316.888C219.11 287.724 246.188 269.612 252.021 265.982Z" fill="#AFAFAF"/>
<path d="M209.985 387.577L211.245 387.508C211.629 387.488 249.92 385.128 275.251 360.47C300.581 335.812 303.97 297.598 304.001 297.214L304.104 295.957L302.843 296.026C302.459 296.046 264.168 298.407 238.838 323.064C213.508 347.723 210.119 385.936 210.088 386.32L209.985 387.577ZM301.665 298.33C300.834 305.152 295.833 337.361 273.714 358.891C251.596 380.424 219.266 384.556 212.424 385.204C213.254 378.381 218.255 346.174 240.375 324.643C262.509 303.094 294.825 298.974 301.665 298.33Z" fill="#AFAFAF"/>
<path d="M389.681 386.731L388.885 385.903C389.01 385.783 401.439 373.609 406.172 350.861C410.544 329.851 409.059 295.258 377.159 249.771C352.693 214.885 342.793 184.406 347.733 159.18C352.072 137.018 366.831 127.283 366.979 127.188L367.602 128.153C367.457 128.246 353.085 137.752 348.853 159.436C343.992 184.337 353.832 214.508 378.1 249.112C392.292 269.348 401.739 289.166 406.18 308.014C409.739 323.118 410.109 337.637 407.281 351.168C402.46 374.237 389.809 386.609 389.681 386.731Z" fill="#AFAFAF"/>
<path d="M383.945 155.815C441.047 155.815 487.336 147.873 487.336 138.077C487.336 128.281 441.047 120.34 383.945 120.34C326.844 120.34 280.555 128.281 280.555 138.077C280.555 147.873 326.844 155.815 383.945 155.815Z" fill="#AFAFAF"/>
<path d="M364.705 150.646C293.04 150.646 236.902 140.807 236.902 128.245C236.902 115.684 293.04 105.844 364.705 105.844C436.37 105.844 492.507 115.684 492.507 128.245C492.507 140.807 436.37 150.646 364.705 150.646ZM364.705 106.993C296.051 106.993 238.051 116.725 238.051 128.245C238.051 139.765 296.051 149.498 364.705 149.498C433.358 149.498 491.359 139.765 491.359 128.245C491.359 116.725 433.358 106.993 364.705 106.993Z" fill="#AFAFAF"/>
<path d="M133.155 386.157L132.358 385.329C132.516 385.178 148.186 369.834 154.157 341.16C159.672 314.683 157.81 271.089 117.617 213.778C100.824 189.832 89.3715 167.207 83.5785 146.533C78.845 129.641 77.8429 113.937 80.5999 99.8583C86.0502 72.0235 104.576 59.8036 104.762 59.6836L105.384 60.649C105.202 60.7668 87.0635 72.7572 81.7201 100.115C75.5897 131.502 87.9837 169.522 118.558 213.118C136.411 238.576 148.296 263.505 153.881 287.212C158.356 306.203 158.822 324.458 155.267 341.468C149.207 370.462 133.315 386.003 133.155 386.157Z" fill="#AFAFAF"/>
<path d="M94.5873 123.792C119.145 123.792 139.054 103.884 139.054 79.3256C139.054 54.7676 119.145 34.8594 94.5873 34.8594C70.0293 34.8594 50.1211 54.7676 50.1211 79.3256C50.1211 103.884 70.0293 123.792 94.5873 123.792Z" fill="#AFAFAF"/>
<path d="M105.072 120.75C93.0895 120.75 81.3759 117.196 71.4126 110.539C61.4493 103.882 53.6838 94.4197 49.0982 83.3492C44.5126 72.2786 43.3128 60.0968 45.6505 48.3443C47.9882 36.5918 53.7584 25.7965 62.2314 17.3234C70.7045 8.8503 81.4998 3.08005 93.2523 0.742316C105.005 -1.59542 117.187 -0.395652 128.257 4.18992C139.328 8.77548 148.79 16.5409 155.447 26.5041C162.104 36.4674 165.658 48.181 165.658 60.1638C165.64 76.2265 159.251 91.6261 147.893 102.984C136.535 114.342 121.135 120.731 105.072 120.75ZM105.072 0.726943C93.3167 0.726915 81.8251 4.21281 72.0508 10.7438C62.2764 17.2748 54.6582 26.5576 50.1595 37.4183C45.6609 48.279 44.4838 60.2298 46.7772 71.7594C49.0706 83.2891 54.7314 93.8797 63.0438 102.192C71.3562 110.505 81.9469 116.165 93.4765 118.459C105.006 120.752 116.957 119.575 127.818 115.076C138.678 110.578 147.961 102.96 154.492 93.1852C161.023 83.4108 164.509 71.9193 164.509 60.1637C164.491 44.4056 158.223 29.298 147.081 18.1553C135.938 7.01261 120.83 0.7448 105.072 0.726943Z" fill="#AFAFAF"/>
<path d="M139.056 217.065C159.421 217.065 175.93 200.556 175.93 180.191C175.93 159.826 159.421 143.316 139.056 143.316C118.691 143.316 102.182 159.826 102.182 180.191C102.182 200.556 118.691 217.065 139.056 217.065Z" fill="#AFAFAF"/>
<path d="M120.255 345.038C140.62 345.038 157.13 328.529 157.13 308.164C157.13 287.798 140.62 271.289 120.255 271.289C99.8901 271.289 83.3809 287.798 83.3809 308.164C83.3809 328.529 99.8901 345.038 120.255 345.038Z" fill="#AFAFAF"/>
<path d="M395.183 386.637H270.171C270.171 386.637 267.637 349.471 282.63 349.049C297.623 348.627 295.934 365.52 314.728 342.292C333.522 319.063 356.328 320.33 359.284 334.056C362.241 347.782 353.583 358.763 369.421 355.384C385.258 352.005 408.064 360.874 395.183 386.637Z" fill="#AFAFAF"/>
<path d="M330.565 386.653L330.143 386.636C331.127 362.166 336.251 346.444 340.377 337.564C344.857 327.922 349.174 324.019 349.217 323.98L349.497 324.296C349.455 324.334 345.188 328.199 340.745 337.775C336.642 346.618 331.545 362.275 330.565 386.653Z" fill="white"/>
<path d="M289.861 386.663L289.442 386.605C290.805 377.431 289.363 368.059 285.305 359.719C283.64 356.221 281.437 353.006 278.775 350.192L279.068 349.887C281.764 352.736 283.997 355.991 285.683 359.532C289.779 367.948 291.235 377.405 289.861 386.663Z" fill="white"/>
<path d="M57.8361 386.518L57.5477 385.926C57.4599 385.746 48.8239 367.693 53.6389 349.893C58.4542 332.093 75.0137 320.856 75.1803 320.745L75.7275 320.379L76.0158 320.971C76.1036 321.151 84.7397 339.204 79.9244 357.004C75.1094 374.804 58.5498 386.041 58.3832 386.152L57.8361 386.518ZM75.2642 322.093C72.365 324.202 58.9526 334.65 54.7478 350.193C50.54 365.748 56.8583 381.523 58.2994 384.805C61.1986 382.696 74.611 372.247 78.8154 356.704C83.0235 341.149 76.7052 325.374 75.2642 322.093Z" fill="#AFAFAF"/>
<path d="M35.5692 356.854C40.3839 374.652 56.8752 385.675 56.8752 385.675C56.8752 385.675 65.5604 367.841 60.7457 350.043C55.931 332.245 39.4397 321.223 39.4397 321.223C39.4397 321.223 30.7545 339.056 35.5692 356.854Z" fill="#AFAFAF"/>
<path d="M58.0952 386.272L57.4378 386.236C57.2375 386.226 37.2636 384.995 24.0503 372.132C10.8376 359.27 9.06984 339.336 9.05357 339.136L9 338.48L9.65741 338.516C9.85767 338.527 29.8316 339.758 43.0446 352.62C56.2576 365.483 58.0254 385.416 58.0416 385.617L58.0952 386.272ZM10.2722 339.718C10.7055 343.277 13.3141 360.078 24.8519 371.309C36.3897 382.541 53.2538 384.697 56.823 385.034C56.3897 381.475 53.7811 364.675 42.243 353.444C30.6968 342.203 13.8397 340.054 10.2722 339.718Z" fill="#AFAFAF"/>
<path d="M72.294 353.036C59.0824 365.897 57.4688 385.667 57.4688 385.667C57.4688 385.667 77.2752 384.586 90.4867 371.725C103.698 358.864 105.312 339.094 105.312 339.094C105.312 339.094 85.5055 340.175 72.294 353.036Z" fill="#AFAFAF"/>
<path d="M57.1921 318.286C61.9505 318.286 65.808 314.429 65.808 309.671C65.808 304.912 61.9505 301.055 57.1921 301.055C52.4336 301.055 48.5762 304.912 48.5762 309.671C48.5762 314.429 52.4336 318.286 57.1921 318.286Z" fill="#AFAFAF"/>
</g>
<defs>
<clipPath id="clip0_324_4153">
<rect width="375" height="386" fill="white"/>
</clipPath>
</defs>
</svg>
