<svg width="118" height="118" viewBox="0 0 118 118" fill="none" xmlns="http://www.w3.org/2000/svg">
<g filter="url(#filter0_d_100_206)">
<path fill-rule="evenodd" clip-rule="evenodd" d="M59 90.5C38.2875 90.5 21.5 73.7125 21.5 53C21.5 32.2875 38.2875 15.5 59 15.5C79.7125 15.5 96.5 32.2875 96.5 53C96.5 73.7125 79.7125 90.5 59 90.5Z" fill="#232323"/>
<path fill-rule="evenodd" clip-rule="evenodd" d="M59 90.5C38.2875 90.5 21.5 73.7125 21.5 53C21.5 32.2875 38.2875 15.5 59 15.5C79.7125 15.5 96.5 32.2875 96.5 53C96.5 73.7125 79.7125 90.5 59 90.5Z" stroke="white" stroke-width="2" stroke-linecap="round" stroke-linejoin="round"/>
</g>
<path d="M75.6668 53H42.3335" stroke="white" stroke-width="2" stroke-linecap="round" stroke-linejoin="round"/>
<path d="M63.1665 40.5L75.6665 53L63.1665 65.5" stroke="white" stroke-width="2" stroke-linecap="round" stroke-linejoin="round"/>
<defs>
<filter id="filter0_d_100_206" x="0.5" y="0.5" width="117" height="117" filterUnits="userSpaceOnUse" color-interpolation-filters="sRGB">
<feFlood flood-opacity="0" result="BackgroundImageFix"/>
<feColorMatrix in="SourceAlpha" type="matrix" values="0 0 0 0 0 0 0 0 0 0 0 0 0 0 0 0 0 0 127 0" result="hardAlpha"/>
<feOffset dy="6"/>
<feGaussianBlur stdDeviation="10"/>
<feComposite in2="hardAlpha" operator="out"/>
<feColorMatrix type="matrix" values="0 0 0 0 0 0 0 0 0 0 0 0 0 0 0 0 0 0 0.15 0"/>
<feBlend mode="normal" in2="BackgroundImageFix" result="effect1_dropShadow_100_206"/>
<feBlend mode="normal" in="SourceGraphic" in2="effect1_dropShadow_100_206" result="shape"/>
</filter>
</defs>
</svg>
