<svg width="488" height="424" viewBox="0 0 488 424" fill="none" xmlns="http://www.w3.org/2000/svg">
<g clip-path="url(#clip0_172_2171)">
<path d="M451.423 392.201L464.557 388.035C466.193 380.986 466.085 373.645 464.24 366.647C458.964 378.38 443.483 381.254 434.663 390.618C431.935 393.56 429.903 397.078 428.719 400.911C427.535 404.745 427.228 408.796 427.823 412.764L425.06 422.137C431.513 421.586 437.77 419.642 443.4 416.439C449.03 413.237 453.899 408.852 457.671 403.586C459.758 400.612 461.462 397.386 462.743 393.985C457.142 393.425 451.423 392.201 451.423 392.201Z" fill="#F2F2F2"/>
<path d="M437.388 374.868L447.285 365.282C445.607 358.243 442.235 351.72 437.464 346.28C437.973 359.134 425.4 368.611 421.682 380.926C420.551 384.775 420.302 388.83 420.952 392.789C421.602 396.749 423.134 400.511 425.436 403.798L427.143 413.419C432.673 410.048 437.407 405.517 441.017 400.14C444.628 394.763 447.03 388.667 448.058 382.272C448.599 378.678 448.686 375.031 448.316 371.416C443.052 373.412 437.388 374.868 437.388 374.868Z" fill="#F2F2F2"/>
<path d="M371.598 28.0998H1.44019C1.05518 28.0916 0.688706 27.933 0.419303 27.6578C0.149901 27.3826 -0.000976562 27.0129 -0.000976562 26.6278C-0.000976562 26.2427 0.149901 25.8729 0.419303 25.5977C0.688706 25.3226 1.05518 25.1639 1.44019 25.1558H371.598C371.983 25.1639 372.349 25.3226 372.618 25.5977C372.888 25.8729 373.039 26.2427 373.039 26.6278C373.039 27.0129 372.888 27.3826 372.618 27.6578C372.349 27.933 371.983 28.0916 371.598 28.0998Z" fill="#3F3D56"/>
<path d="M26.6374 17.6377C31.4018 17.6377 35.2641 13.6893 35.2641 8.81875C35.2641 3.94819 31.4018 -0.000183105 26.6374 -0.000183105C21.873 -0.000183105 18.0107 3.94819 18.0107 8.81875C18.0107 13.6893 21.873 17.6377 26.6374 17.6377Z" fill="#3F3D56"/>
<path d="M56.4382 17.6377C61.2026 17.6377 65.0649 13.6893 65.0649 8.81875C65.0649 3.94819 61.2026 -0.000183105 56.4382 -0.000183105C51.6738 -0.000183105 47.8115 3.94819 47.8115 8.81875C47.8115 13.6893 51.6738 17.6377 56.4382 17.6377Z" fill="#3F3D56"/>
<path d="M86.2409 17.6377C91.0053 17.6377 94.8676 13.6893 94.8676 8.81875C94.8676 3.94819 91.0053 -0.000183105 86.2409 -0.000183105C81.4766 -0.000183105 77.6143 3.94819 77.6143 8.81875C77.6143 13.6893 81.4766 17.6377 86.2409 17.6377Z" fill="#3F3D56"/>
<path d="M353.655 2.18829H332.485C332.066 2.19665 331.666 2.36919 331.372 2.66889C331.079 2.96858 330.914 3.37151 330.914 3.79119C330.914 4.21086 331.079 4.61379 331.372 4.91349C331.666 5.21318 332.066 5.38572 332.485 5.39408H353.655C354.074 5.38572 354.474 5.21318 354.768 4.91349C355.061 4.61379 355.226 4.21086 355.226 3.79119C355.226 3.37151 355.061 2.96858 354.768 2.66889C354.474 2.36919 354.074 2.19665 353.655 2.18829Z" fill="#3F3D56"/>
<path d="M353.655 8.20312H332.486C332.066 8.21143 331.666 8.38396 331.372 8.68365C331.079 8.98335 330.914 9.38631 330.914 9.80602C330.914 10.2257 331.079 10.6287 331.372 10.9284C331.666 11.2281 332.066 11.4006 332.486 11.4089H353.655C354.074 11.4006 354.474 11.2281 354.768 10.9284C355.062 10.6287 355.226 10.2257 355.226 9.80602C355.226 9.38631 355.062 8.98335 354.768 8.68365C354.474 8.38396 354.074 8.21143 353.655 8.20312Z" fill="#3F3D56"/>
<path d="M353.655 14.209H332.486C332.066 14.2173 331.666 14.3899 331.372 14.6896C331.079 14.9893 330.914 15.3922 330.914 15.8119C330.914 16.2316 331.079 16.6346 331.372 16.9343C331.666 17.234 332.066 17.4065 332.486 17.4148H353.655C354.074 17.4065 354.474 17.234 354.768 16.9343C355.062 16.6346 355.226 16.2316 355.226 15.8119C355.226 15.3922 355.062 14.9893 354.768 14.6896C354.474 14.3899 354.074 14.2173 353.655 14.209Z" fill="#3F3D56"/>
<path d="M28.6759 87.9055C34.5662 87.9055 39.3411 83.1306 39.3411 77.2403C39.3411 71.3501 34.5662 66.5751 28.6759 66.5751C22.7857 66.5751 18.0107 71.3501 18.0107 77.2403C18.0107 83.1306 22.7857 87.9055 28.6759 87.9055Z" fill="#E6E7E8"/>
<path d="M300.267 100.858H21.1866C20.3443 100.858 19.5365 100.523 18.9409 99.9274C18.3453 99.3318 18.0107 98.524 18.0107 97.6817C18.0107 96.8394 18.3453 96.0316 18.9409 95.436C19.5365 94.8404 20.3443 94.5058 21.1866 94.5058H300.267C301.109 94.5058 301.917 94.8404 302.512 95.436C303.108 96.0316 303.443 96.8394 303.443 97.6817C303.443 98.524 303.108 99.3318 302.512 99.9274C301.917 100.523 301.109 100.858 300.267 100.858Z" fill="#E6E7E8"/>
<path d="M227.072 113.407H21.1858C20.3435 113.407 19.5356 113.072 18.94 112.477C18.3444 111.881 18.0098 111.073 18.0098 110.231C18.0098 109.388 18.3444 108.581 18.94 107.985C19.5356 107.389 20.3435 107.055 21.1858 107.055H227.072C227.914 107.055 228.722 107.389 229.318 107.985C229.914 108.581 230.248 109.388 230.248 110.231C230.248 111.073 229.914 111.881 229.318 112.477C228.722 113.072 227.914 113.407 227.072 113.407Z" fill="#E6E7E8"/>
<path d="M28.6759 254.371C34.5662 254.371 39.3411 249.596 39.3411 243.705C39.3411 237.815 34.5662 233.04 28.6759 233.04C22.7857 233.04 18.0107 237.815 18.0107 243.705C18.0107 249.596 22.7857 254.371 28.6759 254.371Z" fill="#E6E7E8"/>
<path d="M300.267 267.323H21.1868C20.7693 267.323 20.3558 267.242 19.9699 267.082C19.584 266.923 19.2333 266.689 18.9379 266.394C18.6424 266.099 18.408 265.749 18.2481 265.363C18.0882 264.978 18.0059 264.564 18.0059 264.147C18.0059 263.729 18.0882 263.316 18.2481 262.93C18.408 262.545 18.6424 262.194 18.9379 261.899C19.2333 261.604 19.584 261.371 19.9699 261.211C20.3558 261.052 20.7693 260.97 21.1868 260.971H300.267C301.152 261.02 301.986 261.398 302.606 262.031C303.227 262.664 303.588 263.506 303.619 264.392C303.593 264.805 303.485 265.209 303.302 265.58C303.12 265.951 302.865 266.283 302.553 266.555C302.242 266.828 301.879 267.036 301.487 267.168C301.094 267.299 300.68 267.352 300.267 267.323Z" fill="#E6E7E8"/>
<path d="M227.072 279.872H21.1858C20.3435 279.872 19.5356 279.537 18.94 278.942C18.3444 278.346 18.0098 277.538 18.0098 276.696C18.0098 275.854 18.3444 275.046 18.94 274.45C19.5356 273.855 20.3435 273.52 21.1858 273.52H227.072C227.914 273.52 228.722 273.855 229.318 274.45C229.914 275.046 230.248 275.854 230.248 276.696C230.248 277.538 229.914 278.346 229.318 278.942C228.722 279.537 227.914 279.872 227.072 279.872Z" fill="#E6E7E8"/>
<path d="M28.6759 164.864C34.5662 164.864 39.3411 160.089 39.3411 154.198C39.3411 148.308 34.5662 143.533 28.6759 143.533C22.7857 143.533 18.0107 148.308 18.0107 154.198C18.0107 160.089 22.7857 164.864 28.6759 164.864Z" fill="#E6E7E8"/>
<path d="M300.267 177.811H21.1866C20.3443 177.811 19.5365 177.477 18.9409 176.881C18.3453 176.285 18.0107 175.478 18.0107 174.635C18.0107 173.793 18.3453 172.985 18.9409 172.39C19.5365 171.794 20.3443 171.459 21.1866 171.459H300.267C301.109 171.459 301.917 171.794 302.512 172.39C303.108 172.985 303.443 173.793 303.443 174.635C303.443 175.478 303.108 176.285 302.512 176.881C301.917 177.477 301.109 177.811 300.267 177.811Z" fill="#E6E7E8"/>
<path d="M261.402 190.365H21.1858C20.3435 190.365 19.5356 190.03 18.94 189.435C18.3444 188.839 18.0098 188.031 18.0098 187.189C18.0098 186.347 18.3444 185.539 18.94 184.943C19.5356 184.347 20.3435 184.013 21.1858 184.013H261.402C262.244 184.013 263.052 184.347 263.648 184.943C264.243 185.539 264.578 186.347 264.578 187.189C264.578 188.031 264.243 188.839 263.648 189.435C263.052 190.03 262.244 190.365 261.402 190.365Z" fill="#E6E7E8"/>
<path d="M245.098 202.914H21.1858C20.3435 202.914 19.5356 202.579 18.94 201.984C18.3444 201.388 18.0098 200.58 18.0098 199.738C18.0098 198.895 18.3444 198.088 18.94 197.492C19.5356 196.896 20.3435 196.562 21.1858 196.562H245.098C245.94 196.562 246.748 196.896 247.344 197.492C247.939 198.088 248.274 198.895 248.274 199.738C248.274 200.58 247.939 201.388 247.344 201.984C246.748 202.579 245.94 202.914 245.098 202.914Z" fill="#E6E7E8"/>
<path d="M249.731 343.318C293.352 343.318 328.713 307.957 328.713 264.337C328.713 220.717 293.352 185.355 249.731 185.355C206.111 185.355 170.75 220.717 170.75 264.337C170.75 307.957 206.111 343.318 249.731 343.318Z" fill="#006E53"/>
<path d="M249.624 291.897C255.855 291.897 260.907 286.845 260.907 280.614C260.907 274.383 255.855 269.331 249.624 269.331C243.392 269.331 238.341 274.383 238.341 280.614C238.341 286.845 243.392 291.897 249.624 291.897Z" fill="#3F3D56"/>
<path d="M249.624 285.819C252.5 285.819 254.831 283.488 254.831 280.612C254.831 277.736 252.5 275.404 249.624 275.404C246.748 275.404 244.416 277.736 244.416 280.612C244.416 283.488 246.748 285.819 249.624 285.819Z" fill="#006E53"/>
<path d="M270.568 305.727H228.896C224.77 305.722 220.814 304.081 217.896 301.163C214.978 298.246 213.337 294.29 213.332 290.163V271.057C213.337 266.931 214.978 262.975 217.896 260.057C220.814 257.139 224.77 255.498 228.896 255.493H270.568C274.694 255.498 278.65 257.139 281.568 260.057C284.486 262.975 286.127 266.931 286.132 271.057V290.163C286.127 294.29 284.486 298.246 281.568 301.163C278.65 304.081 274.694 305.722 270.568 305.727ZM228.896 257.123C225.202 257.127 221.66 258.596 219.048 261.209C216.435 263.821 214.966 267.363 214.962 271.057V290.163C214.966 293.858 216.435 297.399 219.048 300.012C221.66 302.624 225.202 304.093 228.896 304.097H270.568C274.262 304.093 277.804 302.624 280.416 300.012C283.028 297.399 284.498 293.858 284.502 290.163V271.057C284.498 267.363 283.028 263.821 280.416 261.209C277.804 258.596 274.262 257.127 270.568 257.123L228.896 257.123Z" fill="white"/>
<path d="M226.427 295.357H263.416C265.335 295.357 267.237 294.978 269.01 294.244C270.784 293.509 272.396 292.432 273.753 291.075C275.111 289.717 276.188 288.105 276.922 286.332C277.657 284.558 278.035 282.657 278.035 280.737V264.748C278.032 262.975 277.706 261.217 277.071 259.561C278.875 260.92 280.34 262.679 281.348 264.701C282.356 266.722 282.881 268.95 282.881 271.209V287.198C282.881 289.118 282.503 291.019 281.768 292.793C281.034 294.567 279.957 296.178 278.599 297.536C277.242 298.893 275.63 299.97 273.856 300.705C272.082 301.44 270.181 301.818 268.262 301.818H231.273C228.309 301.816 225.415 300.913 222.976 299.228C220.537 297.543 218.669 295.156 217.618 292.385C220.15 294.313 223.245 295.357 226.427 295.357Z" fill="#3F3D56"/>
<path d="M339.698 412.729L330.609 412.728L326.285 377.67L339.7 377.671L339.698 412.729Z" fill="#A0616A"/>
<path d="M340.018 422.211L312.068 422.21V421.857C312.069 418.971 313.215 416.204 315.255 414.164C317.295 412.124 320.062 410.978 322.947 410.978H322.948L328.053 407.105L337.579 410.978L340.019 410.978L340.018 422.211Z" fill="#2F2E41"/>
<path d="M404.008 412.729L413.098 412.728L417.422 377.67L404.007 377.671L404.008 412.729Z" fill="#A0616A"/>
<path d="M403.688 422.211L431.638 422.21V421.857C431.638 418.971 430.491 416.204 428.451 414.164C426.411 412.124 423.644 410.978 420.759 410.978H420.758L415.653 407.105L406.127 410.978L403.688 410.978L403.688 422.211Z" fill="#2F2E41"/>
<path d="M325.885 351.906C326.019 349.906 327.086 338.843 327.086 338.843L329.643 315.381L334.148 253.189L334.442 249.118L358.045 244.587L374.176 236.853L393.349 242.982L408.279 248.581C408.279 248.581 408.305 250.978 408.42 253.873C408.573 257.663 408.841 262.309 409.48 263.517C410.548 265.652 410.279 277.111 410.279 277.111C410.279 277.111 411.34 300.426 412.676 302.982C414.012 305.539 414.28 310.863 413.878 311.93C413.475 312.997 415.213 340.997 415.213 340.997C415.213 340.997 419.675 390.545 416.876 398.017C414.076 405.488 403.498 400.594 403.498 400.594C403.498 400.594 404.01 398.6 400.942 397.66C397.874 396.721 388.53 326.463 388.53 326.463C388.53 326.463 386.792 312.058 385.194 307.929C383.596 303.8 382.127 292.2 382.127 292.2C382.127 292.2 372.259 273.001 372.131 268.732C372.131 268.732 370.84 264.738 369.619 269.135C368.398 273.532 364.8 284.064 364.8 284.064L361.291 297L357.163 316.327L354.491 332.599C354.491 332.599 350.49 354.194 349.851 355.127C349.212 356.061 349.851 375.79 349.851 375.79C349.851 375.79 346.758 392.592 342.387 395.526C338.015 398.459 326.433 395.572 326.433 395.572C326.433 395.572 325.75 353.907 325.885 351.906Z" fill="#2F2E41"/>
<path d="M335.954 192.399L341.201 208.204L334.727 215.911L337.578 218.845L335.475 222.993L329.991 266.466L360.055 277.867L370.179 265.174L378.161 277.867L412.948 269.367L404.077 213.931V210.306L401.572 203.308V188.493L408.187 144.395L388.444 137.48L379.005 130.009L375.95 140.516L362.944 138.202L362.605 130.309L352.654 139.711L344.275 142.1L334.241 144.395L332.963 147.591L335.519 146.952L335.104 188.526L335.954 192.399Z" fill="#2F2E41"/>
<path d="M326.969 250.23L332.018 201.357L333.351 181.243L319.218 178.687C319.218 178.687 319.778 193.07 317.927 201.184C316.1 209.192 317.685 249.157 317.797 250.226C316.76 251.154 316.028 252.375 315.699 253.728C315.371 255.081 315.46 256.502 315.957 257.803C316.453 259.104 317.333 260.223 318.479 261.013C319.626 261.803 320.985 262.227 322.377 262.227C323.77 262.228 325.129 261.806 326.277 261.017C327.424 260.228 328.305 259.109 328.802 257.809C329.3 256.509 329.391 255.088 329.064 253.735C328.736 252.381 328.006 251.159 326.969 250.23Z" fill="#A0616A"/>
<path d="M313.183 211.483L317.114 212.295L330.599 215.088L331.347 215.241L332.938 208.914L334.785 206.946L338.3 188.526L338.486 187.568L343.797 176.217L347.471 142.101L333.807 144.555C333.736 144.626 333.673 144.702 333.609 144.779C331.647 147.003 330.247 150.096 327.959 153.209C320.513 163.339 314.8 187.951 315.024 201.436C315.03 201.654 314.806 201.89 314.538 202.133C313.271 203.298 312.444 204.864 312.197 206.567C311.951 208.27 312.299 210.007 313.183 211.483Z" fill="#2F2E41"/>
<path d="M414.821 250.23L409.772 201.357L408.439 181.243L422.572 178.687C422.572 178.687 422.012 193.07 423.863 201.184C425.69 209.192 424.106 249.157 423.993 250.226C425.031 251.154 425.762 252.375 426.091 253.728C426.42 255.081 426.33 256.502 425.833 257.803C425.337 259.104 424.457 260.223 423.311 261.013C422.164 261.803 420.805 262.226 419.413 262.227C418.02 262.228 416.661 261.806 415.513 261.017C414.366 260.228 413.486 259.109 412.988 257.809C412.49 256.509 412.399 255.088 412.726 253.735C413.054 252.381 413.784 251.159 414.821 250.23Z" fill="#A0616A"/>
<path d="M428.607 211.483L424.676 212.295L411.191 215.088L410.443 215.241L408.852 208.914L407.005 206.946L403.489 188.526L403.304 187.568L397.993 176.217L399.207 142.101L407.983 144.555C408.053 144.626 408.117 144.702 408.181 144.779C410.143 147.003 411.543 150.096 413.831 153.209C421.276 163.339 426.99 187.951 426.766 201.436C426.76 201.654 426.983 201.89 427.252 202.133C428.519 203.298 429.345 204.864 429.592 206.567C429.839 208.27 429.491 210.007 428.607 211.483Z" fill="#2F2E41"/>
<path d="M356.186 147.149L362.606 130.309L379.006 130.009L384.448 147.149L404.008 256.416C404.008 256.416 344.084 273.104 344.692 253.044C345.331 231.954 348.215 203.938 348.215 203.938L356.186 147.149Z" fill="#006E53"/>
<path d="M370.439 125.598C381.109 125.598 389.758 116.949 389.758 106.279C389.758 95.6097 381.109 86.9604 370.439 86.9604C359.769 86.9604 351.12 95.6097 351.12 106.279C351.12 116.949 359.769 125.598 370.439 125.598Z" fill="#A0616A"/>
<path d="M349.981 92.2655C353.126 88.8422 357.06 82.5759 368.976 79.9445C383.699 76.693 390.657 89.9939 386.944 90.2119C397.801 93.4998 390.827 115.968 387.714 114.084C387.687 114.065 387.662 114.045 387.637 114.024C385.963 112.791 384.558 111.23 383.508 109.436C382.457 107.642 381.784 105.652 381.528 103.589L380.938 98.2721C380.853 102.598 376.431 103.17 371.914 101.577C372.181 100.629 372.691 99.7662 373.393 99.0749C374.095 98.3836 374.966 97.8873 375.918 97.635C372.769 100.49 368.769 102.23 364.534 102.588C364.756 101.505 365.207 100.482 365.857 99.5875C366.507 98.6931 367.341 97.9482 368.303 97.4027L368.124 97.2275C366.36 98.7152 364.335 99.8619 362.152 100.609C359.662 101.323 356.678 100.937 354.972 98.9877C354.513 98.4498 354.166 97.8253 353.952 97.1511C354.321 100.577 352.023 104.488 350.238 103.816C348.753 103.528 347.887 94.5444 349.981 92.2655Z" fill="#2F2E41"/>
<path d="M487.562 422.207C487.563 422.335 487.538 422.461 487.489 422.579C487.441 422.697 487.369 422.804 487.279 422.894C487.189 422.984 487.082 423.055 486.964 423.104C486.846 423.153 486.72 423.177 486.593 423.177H258.213C257.956 423.177 257.709 423.075 257.527 422.893C257.345 422.711 257.243 422.465 257.243 422.207C257.243 421.95 257.345 421.704 257.527 421.522C257.709 421.34 257.956 421.238 258.213 421.238H486.593C486.72 421.237 486.846 421.262 486.964 421.311C487.082 421.359 487.189 421.431 487.279 421.521C487.369 421.611 487.441 421.718 487.489 421.836C487.538 421.954 487.563 422.08 487.562 422.207Z" fill="#CCCCCC"/>
<path d="M250.374 221.512C242.649 221.512 235.858 225.009 232.014 230.258C236.124 227.267 241.086 225.675 246.169 225.716C258.132 225.716 267.864 234.096 267.864 244.396V252.958H272.068V240.191C272.068 229.892 262.336 221.512 250.374 221.512Z" fill="#3F3D56"/>
<path d="M274.957 257.341H224.506V242.497C224.506 230.521 235.822 220.778 249.731 220.778C263.64 220.778 274.957 230.521 274.957 242.497V257.341ZM226.135 255.712H273.327V242.497C273.327 231.42 262.742 222.407 249.731 222.407C236.72 222.407 226.135 231.42 226.135 242.497V255.712Z" fill="white"/>
<path d="M262.652 251.673H236.81C235.648 251.672 234.533 251.209 233.711 250.387C232.889 249.565 232.427 248.45 232.426 247.288V241.38C232.426 233.144 240.189 226.444 249.731 226.444C259.273 226.444 267.036 233.144 267.036 241.38V247.288C267.035 248.45 266.573 249.565 265.751 250.387C264.929 251.209 263.814 251.672 262.652 251.673ZM249.731 228.073C241.087 228.073 234.055 234.043 234.055 241.38V247.288C234.056 248.018 234.347 248.719 234.863 249.235C235.38 249.752 236.08 250.042 236.81 250.043H262.652C263.382 250.042 264.083 249.752 264.599 249.235C265.116 248.719 265.406 248.018 265.407 247.288V241.38C265.407 234.043 258.375 228.073 249.731 228.073Z" fill="white"/>
</g>
<defs>
<clipPath id="clip0_172_2171">
<rect width="487.561" height="423.179" fill="white"/>
</clipPath>
</defs>
</svg>
