<?xml version="1.0" encoding="utf-8"?><svg xmlns="http://www.w3.org/2000/svg" xmlns:xlink="http://www.w3.org/1999/xlink"><symbol fill="none" viewBox="0 0 16 16" id="arrow" xmlns="http://www.w3.org/2000/svg"><path d="M15.217 1.782a1 1 0 00-1-1h-9a1 1 0 100 2h8v8a1 1 0 102 0v-9zM1.49 15.926L14.925 2.49 13.51 1.075.075 14.51l1.415 1.415z" fill="#fff"/></symbol><symbol fill="none" viewBox="0 0 36 36" id="book" xmlns="http://www.w3.org/2000/svg"><path d="M4.793 6.293L5.5 7l-.707-.707zm0 18.914l-.707.707.707-.707zm11.355.521l.383-.924-.383.924zm1.624 1.624l-.924.383.924-.383zM13.5 26.5h-7v-2h7v2zm-10-3V8h2v15.5h-2zM6.5 5H12v2H6.5V5zM19 12v18h-2V12h2zm-7-7c1.386 0 2.526-.002 3.425.119.928.125 1.747.396 2.403 1.053l-1.414 1.414c-.222-.223-.55-.39-1.255-.485C14.424 7.002 13.443 7 12 7V5zm5 7c0-1.443-.002-2.424-.1-3.159-.096-.706-.263-1.033-.486-1.255l1.414-1.414c.657.656.928 1.475 1.053 2.403.121.899.119 2.04.119 3.425h-2zM3.5 8c0-.443-.002-.876.046-1.23.051-.384.177-.821.54-1.184L5.5 7c.07-.07.05-.125.028.036-.026.19-.028.464-.028.964h-2zm3-1c-.5 0-.774.002-.964.028-.161.021-.106.042-.036-.028L4.086 5.586c.363-.363.8-.489 1.183-.54C5.624 4.998 6.057 5 6.5 5v2zm0 19.5c-.443 0-.876.002-1.23-.046-.384-.051-.821-.177-1.184-.54L5.5 24.5c-.07-.07-.125-.05.036-.028.19.026.464.028.964.028v2zm-1-3c0 .5.002.774.028.964.021.162.042.106-.028.036l-1.414 1.414c-.363-.363-.489-.8-.54-1.184-.048-.354-.046-.787-.046-1.23h2zm8 1c.685 0 1.25 0 1.71.03.469.033.903.101 1.32.274l-.765 1.848c-.133-.055-.324-.1-.692-.126-.376-.026-.86-.026-1.573-.026v-2zM17 30c0-.713 0-1.197-.026-1.573-.025-.368-.07-.559-.126-.692l1.848-.766c.173.418.241.852.273 1.322C19 28.75 19 29.315 19 30h-2zm-.47-5.195a4 4 0 012.165 2.164l-1.847.766a2 2 0 00-1.083-1.083l.766-1.848z" fill="#fff"/><path d="M31.207 6.293L30.5 7l.707-.707zm0 18.914l.707.707-.707-.707zm-11.355.521l-.383-.924.383.924zm-1.624 1.624l.924.383-.924-.383zM22.5 26.5h7v-2h-7v2zm10-3V8h-2v15.5h2zM29.5 5H24v2h5.5V5zM17 12v18h2V12h-2zm7-7c-1.386 0-2.526-.002-3.425.119-.928.125-1.747.396-2.403 1.053l1.414 1.414c.222-.223.55-.39 1.255-.485C21.576 7.002 22.557 7 24 7V5zm-5 7c0-1.443.002-2.424.1-3.159.096-.706.263-1.033.486-1.255l-1.414-1.414c-.657.656-.928 1.475-1.053 2.403C16.998 9.474 17 10.615 17 12h2zm13.5-4c0-.443.002-.876-.045-1.23-.052-.384-.178-.821-.54-1.184L30.5 7c-.07-.07-.05-.125-.028.036.026.19.028.464.028.964h2zm-3-1c.5 0 .774.002.964.028.161.021.106.042.036-.028l1.414-1.414c-.363-.363-.8-.489-1.184-.54C30.377 4.998 29.944 5 29.5 5v2zm0 19.5c.443 0 .876.002 1.23-.046.384-.051.821-.177 1.184-.54L30.5 24.5c.07-.07.125-.05-.036-.028-.19.026-.464.028-.964.028v2zm1-3c0 .5-.002.774-.028.964-.021.162-.042.106.028.036l1.414 1.414c.363-.363.489-.8.54-1.184.048-.354.046-.787.046-1.23h-2zm-8 1c-.685 0-1.25 0-1.71.03-.469.033-.903.101-1.32.274l.765 1.848c.133-.055.324-.1.692-.126.376-.026.86-.026 1.573-.026v-2zM19 30c0-.713 0-1.197.026-1.573.025-.368.07-.559.126-.692l-1.848-.766c-.173.418-.241.852-.273 1.322C17 28.75 17 29.315 17 30h2zm.47-5.195a4 4 0 00-2.165 2.164l1.847.766a2 2 0 011.083-1.083l-.766-1.848z" fill="#fff"/></symbol><symbol fill="none" viewBox="0 0 36 36" id="carousel" xmlns="http://www.w3.org/2000/svg"><path d="M18 27a9 9 0 100-18 9 9 0 000 18z" stroke="#fff" stroke-width="2" stroke-linecap="round" stroke-linejoin="round"/><path d="M7.5 15a3 3 0 100-6 3 3 0 000 6zM18 9a3 3 0 100-6 3 3 0 000 6zm10.5 6a3 3 0 100-6 3 3 0 000 6zm-21 12a3 3 0 100-6 3 3 0 000 6zm21 0a3 3 0 100-6 3 3 0 000 6zM12 33l6-15 6 15" stroke="#fff" stroke-width="2" stroke-linecap="round" stroke-linejoin="round"/></symbol><symbol fill="none" viewBox="0 0 160 46" id="logo" xmlns="http://www.w3.org/2000/svg"><path d="M50.016 37.46c-2.423 0-4.278-.69-5.566-2.07-1.257-1.38-1.886-3.327-1.886-5.842V12.252c0-2.515.629-4.462 1.886-5.842 1.288-1.38 3.143-2.07 5.566-2.07s4.263.69 5.52 2.07c1.288 1.38 1.932 3.327 1.932 5.842v3.404h-4.784V11.93c0-1.993-.843-2.99-2.53-2.99-1.687 0-2.53.997-2.53 2.99v17.986c0 1.963.843 2.944 2.53 2.944 1.687 0 2.53-.981 2.53-2.944v-4.922h4.784v4.554c0 2.515-.644 4.462-1.932 5.842-1.257 1.38-3.097 2.07-5.52 2.07zm16.503 0c-2.484 0-4.385-.705-5.704-2.116-1.318-1.41-1.978-3.404-1.978-5.98V12.436c0-2.576.66-4.57 1.978-5.98 1.319-1.41 3.22-2.116 5.704-2.116 2.484 0 4.386.705 5.704 2.116 1.319 1.41 1.978 3.404 1.978 5.98v16.928c0 2.576-.66 4.57-1.978 5.98-1.318 1.41-3.22 2.116-5.704 2.116zm0-4.6c1.748 0 2.622-1.058 2.622-3.174V12.114c0-2.116-.874-3.174-2.622-3.174-1.748 0-2.622 1.058-2.622 3.174v17.572c0 2.116.874 3.174 2.622 3.174zM76.243 4.8h6.348l4.922 19.274h.092V4.8h4.508V37h-5.198l-6.072-23.506h-.092V37h-4.508V4.8zm18.251 0h6.348l4.922 19.274h.092V4.8h4.508V37h-5.198l-6.072-23.506h-.092V37h-4.508V4.8zm18.251 0h13.8v4.6h-8.74v8.51h6.946v4.6h-6.946v9.89h8.74V37h-13.8V4.8zm22.461 32.66c-2.423 0-4.278-.69-5.566-2.07-1.257-1.38-1.886-3.327-1.886-5.842V12.252c0-2.515.629-4.462 1.886-5.842 1.288-1.38 3.143-2.07 5.566-2.07s4.263.69 5.52 2.07c1.288 1.38 1.932 3.327 1.932 5.842v3.404h-4.784V11.93c0-1.993-.843-2.99-2.53-2.99-1.687 0-2.53.997-2.53 2.99v17.986c0 1.963.843 2.944 2.53 2.944 1.687 0 2.53-.981 2.53-2.944v-4.922h4.784v4.554c0 2.515-.644 4.462-1.932 5.842-1.257 1.38-3.097 2.07-5.52 2.07zM148.261 9.4h-5.29V4.8h15.64v4.6h-5.29V37h-5.06V9.4z" fill="#334155"/><path d="M21.896 4.849l-4.757 25.536C16.597 33.3 17.622 36 20.504 36c2.2 0 5.234-1.606 5.65-3.829l4.791-25.53C31.493 3.716 27.813 1 24.918 1c-2.21 0-2.606 1.615-3.022 3.849zm-16.998 9L.139 39.386C-.403 42.299.623 45 3.505 45c2.2 0 5.232-1.606 5.65-3.829l4.79-25.53C14.495 12.716 10.813 10 7.919 10c-2.21 0-2.605 1.615-3.021 3.849z" fill="#48B798"/></symbol><symbol fill="none" viewBox="0 0 129 23" id="logo-m" xmlns="http://www.w3.org/2000/svg"><path d="M4.506 7.224H0V4.571h12.273v2.653H7.766v11.424h-3.26V7.224zM14.95 11.61c0-4.183 3.26-7.28 7.706-7.28 4.445 0 7.706 3.083 7.706 7.28s-3.28 7.28-7.706 7.28c-4.427 0-7.705-3.092-7.705-7.28zm12.112 0c0-2.675-1.891-4.505-4.406-4.505-2.515 0-4.407 1.83-4.407 4.505 0 2.674 1.892 4.505 4.407 4.505s4.406-1.83 4.406-4.505zm19.981-1.932c0 3.138-2.355 5.089-6.117 5.089H38.09v3.888h-3.26V4.576h6.097c3.762-.005 6.117 1.945 6.117 5.102zm-3.3 0c0-1.548-1.006-2.454-2.998-2.454H38.09v4.887h2.656c1.992 0 2.998-.904 2.998-2.433zm6.721 7.583l1.106-2.454c1.187.865 2.958 1.469 4.648 1.469 1.932 0 2.716-.644 2.716-1.508 0-2.635-8.189-.825-8.189-6.054 0-2.393 1.932-4.385 5.936-4.385 1.77 0 3.582.423 4.89 1.247L60.564 8.05c-1.309-.744-2.657-1.102-3.904-1.102-1.932 0-2.683.724-2.683 1.609 0 2.595 8.19.804 8.19 5.973 0 2.353-1.952 4.364-5.977 4.364-2.226-.004-4.48-.667-5.727-1.633zm26.861-1.227v2.614H66.42V4.57h10.644v2.615h-7.405v3.056h6.54v2.535h-6.54v3.258h7.666zm34.592-.138v2.614h-10.905V4.432h10.643v2.615h-7.404v3.057h6.539v2.534h-6.539v3.258h7.666zm13.582 2.614l-2.717-3.923h-2.997v3.921h-3.261V4.43h6.097c3.763 0 6.117 1.95 6.117 5.107 0 2.112-1.073 3.66-2.898 4.444l3.16 4.525-3.501.005zm-3.064-11.423h-2.657v4.907h2.657c1.991 0 2.998-.925 2.998-2.454.005-1.548-1-2.453-2.998-2.453z" fill="#212121"/><path d="M92.877 2.042l-2.563 13.55c-.292 1.545.26 2.978 1.813 2.978 1.185 0 2.82-.852 3.044-2.031l2.581-13.546C98.048 1.441 96.065 0 94.505 0c-1.19 0-1.404.857-1.628 2.042zm-9.075 4.43l-2.564 13.55c-.292 1.545.26 2.978 1.814 2.978 1.185 0 2.819-.852 3.044-2.031l2.58-13.546C88.974 5.87 86.99 4.43 85.43 4.43c-1.191 0-1.404.857-1.628 2.042z" fill="#48B798"/></symbol><symbol fill="none" viewBox="0 0 129 23" id="logo-white" xmlns="http://www.w3.org/2000/svg"><path d="M4.506 7.224H0V4.571h12.273v2.653H7.766v11.424h-3.26V7.224zM14.95 11.61c0-4.183 3.26-7.28 7.706-7.28 4.445 0 7.706 3.083 7.706 7.28s-3.28 7.28-7.706 7.28c-4.427 0-7.705-3.092-7.705-7.28zm12.112 0c0-2.675-1.891-4.505-4.406-4.505-2.515 0-4.407 1.83-4.407 4.505 0 2.674 1.892 4.505 4.407 4.505s4.406-1.83 4.406-4.505zm19.981-1.932c0 3.138-2.355 5.089-6.117 5.089H38.09v3.888h-3.26V4.576h6.097c3.762-.005 6.117 1.945 6.117 5.102zm-3.3 0c0-1.548-1.006-2.454-2.998-2.454H38.09v4.887h2.656c1.992 0 2.998-.904 2.998-2.433zm6.721 7.583l1.106-2.454c1.187.865 2.958 1.469 4.648 1.469 1.932 0 2.716-.644 2.716-1.508 0-2.635-8.189-.825-8.189-6.054 0-2.393 1.932-4.385 5.936-4.385 1.77 0 3.582.423 4.89 1.247L60.564 8.05c-1.309-.744-2.657-1.102-3.904-1.102-1.932 0-2.683.724-2.683 1.609 0 2.595 8.19.804 8.19 5.973 0 2.353-1.952 4.364-5.977 4.364-2.226-.004-4.48-.667-5.727-1.633zm26.861-1.227v2.614H66.42V4.57h10.645v2.615H69.66v3.056h6.54v2.535h-6.54v3.258h7.666zm34.592-.138v2.614h-10.905V4.432h10.643v2.615h-7.404v3.057h6.539v2.534h-6.539v3.258h7.666zm13.582 2.614l-2.717-3.923h-2.997v3.921h-3.261V4.43h6.097c3.763 0 6.117 1.95 6.117 5.107 0 2.112-1.073 3.66-2.898 4.444l3.16 4.525-3.501.005zm-3.064-11.423h-2.657v4.907h2.657c1.991 0 2.998-.925 2.998-2.454.005-1.548-1-2.453-2.998-2.453z" fill="#fff"/><path d="M92.877 2.042l-2.563 13.55c-.292 1.545.26 2.978 1.813 2.978 1.185 0 2.82-.852 3.044-2.031l2.581-13.546C98.048 1.441 96.065 0 94.505 0c-1.19 0-1.404.857-1.628 2.042zm-9.075 4.43l-2.564 13.55c-.292 1.545.26 2.978 1.814 2.978 1.185 0 2.819-.852 3.044-2.031l2.58-13.546C88.974 5.87 86.99 4.43 85.43 4.43c-1.191 0-1.404.857-1.628 2.042z" fill="#48B798"/></symbol><symbol fill="none" viewBox="0 0 36 36" id="search" xmlns="http://www.w3.org/2000/svg"><circle cx="16.5" cy="16.5" r="10.5" stroke="#fff" stroke-width="2"/><path d="M30 30l-4.5-4.5" stroke="#fff" stroke-width="2" stroke-linecap="round"/></symbol></svg>