<svg width="1440" height="350" viewBox="0 0 1440 350" fill="none" xmlns="http://www.w3.org/2000/svg">
<path opacity="0.5" fill-rule="evenodd" clip-rule="evenodd" d="M-47.3711 344.526H-230.413L-267 327.336V332.934L-230.684 350H1572.65H1573V344.526H1497.82L1534.36 324.453H1573V318.978H1544.33L1573 303.228V297.467L1533.84 318.978H1340.75L1372.86 295.255H1573V289.781H1380.27L1417.31 262.409H1573V256.934H1424.72L1468.69 224.453H1573V218.978H1476.1L1528.94 179.927H1573V174.453H1536.36L1573 147.377V141.139L1527.91 174.453H1267.03L1309.01 128.102H1573V122.628H1313.96L1364.2 67.1533H1573V61.3139H1369.49L1425.02 0H1418.32L1362.79 61.3139H1048.1L1075.69 0H1070.33L1042.73 61.3139H727.707V0H722.865V61.3139H407.806L380.215 0H374.855L402.446 61.3139H87.7167L32.1902 0H25.4922L81.0194 61.3139H-230.558L-267 34.3877V40.6252L-239 61.3139H-267V67.1533H-231.097L-156.017 122.628H-267V128.102H-148.608L-85.8762 174.453H-267V179.927H-78.4671L-25.6148 218.978H-265.438L-267 218.12V223.881L-265.959 224.453L-206.827 256.934H-267V262.409H-196.861L-147.031 289.781H-267V295.255H-137.066L-93.8795 318.978H-267V324.453H-83.9131L-47.3711 344.526ZM727.707 67.1533V122.628H1015.15L1040.11 67.1533H727.707ZM727.707 128.102V174.453H991.823L1012.68 128.102H727.707ZM727.707 179.927V218.978H971.79L989.36 179.927H727.707ZM727.707 224.453V256.934H954.712L969.328 224.453H727.707ZM727.707 262.409V289.781H939.929L952.242 262.409H727.707ZM727.707 295.255V318.978H926.786L937.467 295.255H727.707ZM727.707 324.453V344.526H915.297L924.324 324.453H727.707ZM722.865 344.526V324.453H526.213L535.247 344.526H722.865ZM722.865 318.978V295.255H513.077L523.75 318.978H722.865ZM722.865 289.781V262.409H498.295L510.614 289.781H722.865ZM722.865 256.934V224.453H481.216L495.832 256.934H722.865ZM722.865 218.978V179.927H461.183L478.753 218.978H722.865ZM722.865 174.453V128.102H437.858L458.714 174.453H722.865ZM722.865 122.628V67.1533H410.433L435.396 122.628H722.865ZM1018.04 128.102L997.184 174.453H1260.33L1302.31 128.102H1018.04ZM994.721 179.927L977.151 218.978H1220.01L1255.38 179.927H994.721ZM974.682 224.453L960.066 256.934H1185.64L1215.05 224.453H974.682ZM957.603 262.409L945.29 289.781H1155.89L1180.68 262.409H957.603ZM942.828 295.255L932.147 318.978H1129.45L1150.93 295.255H942.828ZM929.685 324.453L920.651 344.526H1106.31L1124.49 324.453H929.685ZM1045.47 67.1533L1020.5 122.628H1307.27L1357.51 67.1533H1045.47ZM1226.71 218.978L1262.07 179.927H1520.5L1467.65 218.978H1226.71ZM1192.33 256.934L1221.75 224.453H1460.24L1416.28 256.934H1192.33ZM1162.59 289.781L1187.37 262.409H1408.87L1371.82 289.781H1162.59ZM1136.15 318.978L1157.63 295.255H1364.42L1332.31 318.978H1136.15ZM1113.01 344.526L1131.19 324.453H1324.9L1297.73 344.526H1113.01ZM1333.34 324.453L1306.18 344.526H1487.33L1523.87 324.453H1333.34ZM93.005 67.1533H405.073L430.035 122.628H143.243L93.005 67.1533ZM148.201 128.102H432.497L453.353 174.453H190.176L148.201 128.102ZM195.134 179.927H455.823L473.392 218.978H230.499L195.134 179.927ZM235.457 224.453H475.855L490.471 256.934H264.873L235.457 224.453ZM269.831 262.409H492.934L505.254 289.781H294.619L269.831 262.409ZM299.577 295.255H507.716L518.389 318.978H321.06L299.577 295.255ZM326.018 324.453H520.852L529.886 344.526H344.197L326.018 324.453ZM86.3077 67.1533H-222.655L-147.575 122.628H136.546L86.3077 67.1533ZM141.504 128.102H-140.166L-77.4344 174.453H183.479L141.504 128.102ZM188.437 179.927H-70.0252L-17.173 218.978H223.802L188.437 179.927ZM228.76 224.453H-9.76385L34.1976 256.934H258.175L228.76 224.453ZM263.133 262.409H41.6067L78.6523 289.781H287.922L263.133 262.409ZM292.879 295.255H86.0614L118.168 318.978H314.363L292.879 295.255ZM319.321 324.453H125.577L152.744 344.526H337.499L319.321 324.453ZM-255.472 224.453H-18.2057L25.755 256.934H-196.341L-255.472 224.453ZM-186.375 262.409H33.1642L70.2104 289.781H-136.545L-186.375 262.409ZM-126.579 295.255H77.6195L109.726 318.978H-83.3929L-126.579 295.255ZM-73.4272 324.453H117.135L144.302 344.526H-36.8852L-73.4272 324.453Z" fill="#1C4361"/>
</svg>
