<?xml version="1.0" encoding="utf-8"?><svg xmlns="http://www.w3.org/2000/svg" xmlns:xlink="http://www.w3.org/1999/xlink"><symbol fill="none" viewBox="0 0 24 24" id="allPrograms" xmlns="http://www.w3.org/2000/svg"><path d="M18 14a1 1 0 110 2 1 1 0 010-2zm-6 0a1 1 0 110 2 1 1 0 010-2zm-6 0a1 1 0 110 2 1 1 0 010-2zm12-6a1 1 0 110 2 1 1 0 010-2zm-6 0a1 1 0 110 2 1 1 0 010-2zM6 8a1 1 0 110 2 1 1 0 010-2z" stroke="#E5134A" stroke-width="2" stroke-linecap="round" stroke-linejoin="round"/></symbol><symbol fill="none" viewBox="0 0 24 24" id="card" xmlns="http://www.w3.org/2000/svg"><path d="M19 14H5a1 1 0 00-1 1v3a1 1 0 001 1h14a1 1 0 001-1v-3a1 1 0 00-1-1zm0-9H5a1 1 0 00-1 1v3a1 1 0 001 1h14a1 1 0 001-1V6a1 1 0 00-1-1z" stroke="#E5134A" stroke-width="2" stroke-linecap="round" stroke-linejoin="round"/></symbol><symbol fill="none" viewBox="0 0 24 24" id="certificate" xmlns="http://www.w3.org/2000/svg"><path d="M7 4h11V2H7v2zm11 0v13h2V4h-2zM6 20.25V5H4v15.25h2zM5.75 22H17v-2H5.75v2zM18 17H7.25v2H18v-2zm1 3v-2h-2v2h2zm-2 2a2 2 0 002-2h-2v2zM6 20.25c0-.69.56-1.25 1.25-1.25v-2A3.25 3.25 0 004 20.25h2zM18 17v2a2 2 0 002-2h-2zm0-13h2a2 2 0 00-2-2v2zM4 20.25c0 .966.784 1.75 1.75 1.75v-2a.25.25 0 01.25.25H4zM7 2a3 3 0 00-3 3h2a1 1 0 011-1V2z" fill="#E5134A"/></symbol><symbol fill="none" viewBox="0 0 16 16" id="enter" xmlns="http://www.w3.org/2000/svg"><path d="M4.471 9.806a.667.667 0 01-1.138-.471v-2H.667A.667.667 0 01.667 6h2.667V4a.666.666 0 011.138-.471l2.667 2.667c.26.26.26.682 0 .943L4.471 9.806zM14.242.065L10.236 1.4c-.54.188-.903.696-.903 1.266v12c0 .735.598 1.333 1.333 1.333.144 0 .279-.02.425-.065l4.007-1.336c.539-.187.902-.696.902-1.265v-12c0-.878-.863-1.542-1.758-1.268z" fill="#8A8A95"/></symbol><symbol fill="none" viewBox="0 0 16 16" id="facebook" xmlns="http://www.w3.org/2000/svg"><path d="M16 8c0-4.4-3.6-8-8-8S0 3.6 0 8c0 4 2.9 7.3 6.7 7.9v-5.6h-2V8h2V6.2c0-2 1.2-3.1 3-3.1.9 0 1.8.2 1.8.2v2h-1c-1 0-1.3.6-1.3 1.2V8h2.2l-.4 2.3H9.1V16c4-.6 6.9-4 6.9-8z" fill="#616F93"/></symbol><symbol fill="none" viewBox="0 0 48 48" id="fb-bg" xmlns="http://www.w3.org/2000/svg"><circle cx="24" cy="24" r="24" fill="#4E6297"/><path d="M34.8 16.583c0-1.797-1.586-3.383-3.382-3.383H17.782c-1.797 0-3.382 1.586-3.382 3.383v13.635c0 1.797 1.585 3.382 3.382 3.382h6.87v-7.716h-2.536v-3.382h2.537v-1.374c0-2.326 1.69-4.334 3.805-4.334h2.748v3.382h-2.748c-.317 0-.634.318-.634.952v1.374h3.382v3.382h-3.382V33.6h3.593c1.797 0 3.383-1.585 3.383-3.382V16.583z" fill="#fff"/></symbol><symbol fill="none" viewBox="0 0 48 48" id="gm-bg" xmlns="http://www.w3.org/2000/svg"><circle cx="24" cy="24" r="24" fill="#C5331E"/><path d="M24.41 22.13v4.75h6.46c-.95 2.565-3.42 4.275-6.27 4.275a6.61 6.61 0 01-6.65-6.65 6.61 6.61 0 016.65-6.65c1.425 0 2.755.475 3.895 1.235l.38.285 2.85-3.705-.38-.285C29.35 13.96 27.07 13.2 24.6 13.2c-6.27 0-11.4 5.13-11.4 11.4 0 6.27 5.13 11.4 11.4 11.4C30.87 36 36 30.87 36 24.6v-2.375H24.41v-.095z" fill="#fff"/></symbol><symbol fill="none" viewBox="0 0 18 18" id="instagram" xmlns="http://www.w3.org/2000/svg"><path d="M9 2.2h3.4c.8 0 1.2.2 1.5.3.4.2.7.3 1 .6.3.3.5.6.6 1 .1.3.2.7.3 1.5v6.8c0 .8-.2 1.2-.3 1.5-.2.4-.3.7-.6 1-.3.3-.6.5-1 .6-.3.1-.7.2-1.5.3H5.6c-.8 0-1.2-.2-1.5-.3-.4-.2-.7-.3-1-.6-.3-.3-.5-.6-.6-1-.1-.3-.2-.7-.3-1.5V5.6c0-.8.2-1.2.3-1.5.2-.4.3-.7.6-1 .3-.3.6-.5 1-.6.3-.1.7-.2 1.5-.3H9zM9 .7H5.6c-.9 0-1.5.2-2 .4s-1 .5-1.5 1-.7.9-1 1.5c-.2.5-.3 1.1-.4 2v6.8c0 .9.2 1.5.4 2s.5 1 1 1.5.9.7 1.5 1c.5.2 1.1.3 2 .4h6.8c.9 0 1.5-.2 2-.4s1-.5 1.5-1 .7-.9 1-1.5c.2-.5.3-1.1.4-2V5.6c0-.9-.2-1.5-.4-2s-.5-1-1-1.5-.9-.7-1.5-1c-.5-.2-1.1-.3-2-.4H9z" fill="#616F93"/><path d="M9 4.7C6.6 4.7 4.7 6.6 4.7 9s1.9 4.3 4.3 4.3 4.3-1.9 4.3-4.3S11.4 4.7 9 4.7zm0 7.1c-1.5 0-2.8-1.2-2.8-2.8 0-1.5 1.2-2.8 2.8-2.8 1.5 0 2.8 1.2 2.8 2.8 0 1.5-1.3 2.8-2.8 2.8zm4.4-6.2a1 1 0 100-2 1 1 0 000 2z" fill="#616F93"/></symbol><symbol fill="none" viewBox="0 0 24 24" id="leave" xmlns="http://www.w3.org/2000/svg"><path d="M19 21h-9a2 2 0 01-2-2v-4h2v4h9V5h-9v4H8V5a2 2 0 012-2h9a2 2 0 012 2v14a2 2 0 01-2 2zm-7-5v-3H3v-2h9V8l5 4-5 4z" fill="#FF5F5F"/></symbol><symbol fill="none" viewBox="0 0 16 16" id="linkedin" xmlns="http://www.w3.org/2000/svg"><path d="M3.6 16H.2V5.3h3.4V16zM1.9 3.8C.8 3.8 0 3 0 1.9 0 .8.9 0 1.9 0 3 0 3.8.8 3.8 1.9 3.8 3 3 3.8 1.9 3.8zM16 16h-3.4v-5.8c0-1.7-.7-2.2-1.7-2.2s-2 .8-2 2.3V16H5.5V5.3h3.2v1.5C9 6.1 10.2 5 11.9 5c1.9 0 3.9 1.1 3.9 4.4V16h.2z" fill="#616F93"/></symbol><symbol fill="none" viewBox="0 0 24 24" id="myPrograms" xmlns="http://www.w3.org/2000/svg"><path d="M2 20h20M19.659 9.702l-7-6.125a1 1 0 00-1.318 0l-7 6.125a1 1 0 00-.341.752V19a1 1 0 001 1h4a1 1 0 001-1v-4a1 1 0 011-1h2a1 1 0 011 1v4a1 1 0 001 1h4a1 1 0 001-1v-8.546a1 1 0 00-.341-.752z" stroke="#E5134A" stroke-width="2" stroke-linecap="round" stroke-linejoin="round"/></symbol><symbol fill="none" viewBox="0 0 12 20" id="ok" xmlns="http://www.w3.org/2000/svg"><path fill-rule="evenodd" clip-rule="evenodd" d="M10.876 5.47a4.854 4.854 0 01-4.845 4.846c-2.698 0-4.874-2.177-4.874-4.846S3.333.625 6.03.625a4.854 4.854 0 014.845 4.845zm-2.843 0c0-1.102-.9-2.002-2.002-2.002-1.132 0-2.031.9-2.002 2.002 0 1.103.9 2.002 2.002 2.002 1.102 0 2.002-.9 2.002-2.002z" fill="#616F93"/><path d="M10.79 13.13a9.17 9.17 0 01-2.815 1.16l2.756 2.67c.551.55.551 1.45 0 2.002a1.418 1.418 0 01-2.002 0l-2.669-2.67-2.67 2.67c-.29.26-.638.406-1.015.406-.377 0-.725-.116-1.015-.406a1.418 1.418 0 010-2.002l2.698-2.699a9.166 9.166 0 01-2.814-1.16c-.668-.406-.87-1.277-.493-1.944a1.445 1.445 0 011.972-.435 6.16 6.16 0 006.528 0 1.413 1.413 0 011.973.435 1.414 1.414 0 01-.435 1.973z" fill="#616F93"/></symbol><symbol fill="none" viewBox="0 0 30 31" id="page-arrow" xmlns="http://www.w3.org/2000/svg"><path d="M22.823 13.625L12.765 3.568 15.416.916 30 15.5 15.416 30.084l-2.651-2.651 10.058-10.058H0v-3.75h22.823z" fill="#E5134A"/></symbol><symbol fill="none" viewBox="0 0 24 24" id="profile" xmlns="http://www.w3.org/2000/svg"><path d="M7 8a5 5 0 1110 0A5 5 0 017 8zm5 3a3 3 0 100-6 3 3 0 000 6zm-5.657 5.343A8 8 0 004 22h2a6 6 0 1112 0h2a8 8 0 00-13.657-5.657z" fill="#E5134A"/></symbol><symbol fill="none" viewBox="0 0 24 24" id="profile-arrow" xmlns="http://www.w3.org/2000/svg"><path d="M7.293 8.621L6 9.953l5.5 5.668L17 9.953l-1.293-1.332-4.207 4.327L7.293 8.62z" fill="#fff"/></symbol><symbol fill="none" viewBox="0 0 13 12" id="register" xmlns="http://www.w3.org/2000/svg"><path fill-rule="evenodd" clip-rule="evenodd" d="M7 3.25a2.5 2.5 0 11-5 0 2.5 2.5 0 015 0zm3.35 1.475a.6.6 0 10-1.2 0v1.8h-1.8a.6.6 0 100 1.2h1.8v1.8a.6.6 0 001.2 0v-1.8h1.8a.6.6 0 100-1.2h-1.8v-1.8zM2.375 6.75h3.678A1.35 1.35 0 007.35 8.475H8.4v1.05c0 .468.238.88.6 1.123v.227a.375.375 0 01-.375.375H.375A.375.375 0 010 10.875v-1.75A2.378 2.378 0 012.375 6.75z" fill="#8A8A95"/></symbol><symbol fill="none" viewBox="0 0 19 19" id="star" xmlns="http://www.w3.org/2000/svg"><g filter="url(#qfilter0_d_16919_5555)" clip-path="url(#qclip0_16919_5555)"><path d="M18.406 7.481h-6.798L9.5.891 7.392 7.48H.594l5.492 4.067-2.078 6.561L9.5 14.042l5.492 4.067-2.108-6.59 5.522-4.038z" fill="#FFCE31"/></g><defs><clipPath id="qclip0_16919_5555"><path fill="#fff" d="M0 0h19v19H0z"/></clipPath><filter id="qfilter0_d_16919_5555" x="-9.406" y="-8.109" width="37.813" height="37.219" filterUnits="userSpaceOnUse" color-interpolation-filters="sRGB"><feFlood flood-opacity="0" result="BackgroundImageFix"/><feColorMatrix in="SourceAlpha" values="0 0 0 0 0 0 0 0 0 0 0 0 0 0 0 0 0 0 127 0" result="hardAlpha"/><feOffset dy="1"/><feGaussianBlur stdDeviation="5"/><feComposite in2="hardAlpha" operator="out"/><feColorMatrix values="0 0 0 0 0 0 0 0 0 0 0 0 0 0 0 0 0 0 0.25 0"/><feBlend in2="BackgroundImageFix" result="effect1_dropShadow_16919_5555"/><feBlend in="SourceGraphic" in2="effect1_dropShadow_16919_5555" result="shape"/></filter></defs></symbol><symbol fill="none" viewBox="0 0 16 14" id="telegram" xmlns="http://www.w3.org/2000/svg"><path d="M1.1 5.708c4.295-1.871 7.159-3.105 8.592-3.7C13.783.305 14.633.01 15.188 0c.121-.002.394.028.57.171a.62.62 0 01.21.4c.02.114.044.375.025.58-.222 2.33-1.181 7.982-1.67 10.592-.206 1.104-.613 1.474-1.006 1.51-.856.079-1.505-.565-2.334-1.108-1.297-.85-2.03-1.38-3.288-2.209-1.455-.959-.512-1.485.317-2.346.217-.226 3.987-3.655 4.06-3.966.01-.038.018-.183-.069-.26-.086-.077-.213-.05-.305-.03-.13.03-2.201 1.4-6.214 4.108-.588.404-1.12.6-1.598.59-.526-.011-1.538-.297-2.29-.542-.923-.3-1.656-.458-1.592-.968.033-.265.398-.536 1.096-.814z" fill="#616F93"/></symbol><symbol fill="none" viewBox="0 0 14 16" id="tiktok" xmlns="http://www.w3.org/2000/svg"><path d="M10.293 0H7.531v10.899a2.377 2.377 0 01-2.384 2.365 2.377 2.377 0 01-2.385-2.365c0-1.276 1.039-2.32 2.314-2.366V5.797C2.266 5.843 0 8.093 0 10.9 0 13.728 2.314 16 5.17 16c2.857 0 5.17-2.296 5.17-5.101V5.31A6.499 6.499 0 0014 6.516V3.78c-2.078-.07-3.707-1.74-3.707-3.78z" fill="#616F93"/></symbol><symbol fill="none" viewBox="0 0 24 25" id="time" xmlns="http://www.w3.org/2000/svg"><path d="M11.99 2.5C6.47 2.5 2 6.98 2 12.5s4.47 10 9.99 10c5.53 0 10.01-4.48 10.01-10s-4.48-10-10.01-10zm.01 18c-4.42 0-8-3.58-8-8s3.58-8 8-8 8 3.58 8 8-3.58 8-8 8z" fill="#8FA1C2"/><path d="M12.5 7.5H11v6l5.25 3.15.75-1.23-4.5-2.67V7.5z" fill="#8FA1C2"/></symbol><symbol fill="none" viewBox="0 0 16 14" id="twitter" xmlns="http://www.w3.org/2000/svg"><path d="M16 2c-.6.3-1.2.4-1.9.5.7-.4 1.2-1 1.4-1.8-.6.4-1.3.6-2.1.8-.6-.6-1.5-1-2.4-1-2.1 0-3.7 2-3.2 4C5.1 4.4 2.7 3.1 1 1.1.1 2.6.6 4.5 2 5.5c-.5 0-1-.2-1.5-.4C.5 6.6 1.6 8 3.1 8.4c-.5.1-1 .2-1.5.1.4 1.3 1.6 2.3 3.1 2.3-1.2.9-3 1.4-4.7 1.2 1.5.9 3.2 1.5 5 1.5 6.1 0 9.5-5.1 9.3-9.8.7-.4 1.3-1 1.7-1.7z" fill="#616F93"/></symbol><symbol fill="none" viewBox="0 0 24 24" id="view" xmlns="http://www.w3.org/2000/svg"><path d="M15.396 11.997h-.1a3.08 3.08 0 01-3.106 3.093 3.074 3.074 0 113.106-3.092l.1-.001zm0 0a3.18 3.18 0 01-3.207 3.193 3.174 3.174 0 113.207-3.193zm-13.982-.051l-.029.049.027.05.17.313s0 0 0 0C3.798 16.454 7.689 18.94 12 18.94c4.31 0 8.209-2.452 10.418-6.582 0 0 0 0 0 0l.17-.314.026-.048-.027-.048-.169-.306s0 0 0 0C20.202 7.546 16.31 5.06 12 5.06S3.792 7.545 1.596 11.64l-.182.306zM12 17.402c-3.62 0-6.95-2.01-8.896-5.405C5.05 8.6 8.38 6.592 12 6.592c3.619 0 6.91 2.015 8.89 5.405-1.98 3.396-5.277 5.405-8.89 5.405zm.189-9.965a4.58 4.58 0 10.067 9.159 4.58 4.58 0 00-.067-9.159z" fill="#CCD7EA" stroke="#CCD7EA" stroke-width=".2"/></symbol><symbol fill="none" viewBox="0 0 48 48" id="vk-bg" xmlns="http://www.w3.org/2000/svg"><circle cx="24" cy="24" r="24" fill="#7294C7"/><path d="M35.768 30.139c0-.1-.1-.1-.1-.2-.398-.797-1.295-1.793-2.49-2.889-.598-.498-.897-.896-1.096-1.096-.3-.398-.3-.697-.2-1.096.1-.299.498-.797 1.196-1.693.398-.498.597-.797.896-1.096 1.495-1.993 2.192-3.288 1.993-3.886l-.1-.1c-.1-.099-.199-.199-.398-.199-.2-.1-.498-.1-.797 0h-4.484l-.1.1c-.099.1-.099.1-.099.2-.398 1.095-.896 1.992-1.395 2.988-.298.498-.597.996-.896 1.395-.299.398-.498.697-.698.897-.199.199-.398.298-.498.498-.1.1-.299.199-.299.1-.1 0-.199 0-.199-.1l-.299-.3c-.1-.099-.1-.298-.199-.497v-4.982c0-.1-.1-.299-.1-.398l-.298-.3c-.1-.099-.3-.099-.399-.198-.498-.1-1.096-.2-1.793-.2-1.594 0-2.69.1-3.089.3-.199.099-.398.198-.498.398-.2.199-.2.299-.1.299.499.1.897.299 1.096.597l.1.2c.1.1.1.299.2.598.099.298.099.597.099.996v1.594c0 .498-.1.797-.1 1.096 0 .299-.1.498-.199.597-.1.2-.1.3-.2.3 0 0 0 .099-.099.099-.1 0-.2.1-.398.1-.1 0-.3-.1-.399-.2a1.2 1.2 0 01-.498-.498c-.2-.2-.398-.498-.598-.896-.199-.399-.498-.798-.697-1.395l-.2-.399c-.099-.199-.298-.598-.497-1.096-.2-.498-.399-.896-.598-1.394-.1-.2-.2-.3-.3-.399h-.099s-.1-.1-.2-.1c-.099 0-.198-.1-.298-.1h-3.586c-.399 0-.598.1-.698.2l-.1.1v.199c0 .1 0 .2.1.398.498 1.196 1.096 2.392 1.694 3.587.598 1.096 1.195 2.092 1.594 2.79.498.697.896 1.394 1.395 1.992.498.598.797.996.896 1.196l.399.398.299.3c.199.198.498.497.896.796.399.299.897.598 1.395.897.498.299 1.096.498 1.694.697.697.2 1.295.299 1.893.2h1.494c.299 0 .498-.1.698-.3l.1-.1c0-.099.099-.099.099-.198v-.399c0-.398 0-.697.1-.996.099-.299.099-.498.199-.698.1-.199.199-.298.298-.398l.2-.2h.1c.199-.099.497 0 .697.2.299.2.598.498.797.797.199.299.498.598.896.996.399.399.698.698.897.797l.299.2c.2.1.399.199.697.298.3.1.498.1.698.1l3.387-.1c.299 0 .598-.1.797-.199.2-.1.299-.2.299-.398v-.399c-.2-.2-.2-.299-.2-.398z" fill="#fff"/></symbol><symbol fill="none" viewBox="0 0 16 12" id="youtube" xmlns="http://www.w3.org/2000/svg"><path d="M15.6 2.1c-.2-.7-.7-1.2-1.4-1.4C13 .4 7.9.4 7.9.4s-5 0-6.3.3C.9.9.4 1.4.2 2.1 0 3.4 0 6 0 6s0 2.6.3 3.9c.2.7.7 1.2 1.4 1.4 1.2.3 6.3.3 6.3.3s5 0 6.3-.3c.7-.2 1.2-.7 1.4-1.4C16 8.6 16 6 16 6s0-2.6-.4-3.9zM6.4 8.4V3.6L10.6 6 6.4 8.4z" fill="#616F93"/></symbol></svg>