<svg width="27" height="26" viewBox="0 0 27 26" fill="none" xmlns="http://www.w3.org/2000/svg">
<path fill-rule="evenodd" clip-rule="evenodd" d="M0.5 4.35948C0.5 3.86633 0.88802 3.46655 1.36667 3.46655H4.46421C5.57347 3.46655 6.56057 4.19164 6.92218 5.27208L7.5133 7.03827H16.9667C17.4453 7.03827 17.8333 7.43805 17.8333 7.9312C17.8333 8.42435 17.4453 8.82413 16.9667 8.82413H8.111L9.08226 11.7261H21.3C21.7786 11.7261 22.1667 12.1259 22.1667 12.6191C22.1667 13.1122 21.7786 13.512 21.3 13.512H9.67996L10.4498 15.8122C10.5703 16.1723 10.8994 16.414 11.2691 16.414H22.1667C23.6026 16.414 24.7667 15.2147 24.7667 13.7352V12.6191C24.7667 12.1259 25.1547 11.7261 25.6333 11.7261C26.112 11.7261 26.5 12.1259 26.5 12.6191V13.7352C26.5 16.201 24.5599 18.1999 22.1667 18.1999H11.2691C10.1599 18.1999 9.17276 17.4748 8.81115 16.3944L5.28353 5.85425C5.163 5.49411 4.83396 5.25241 4.46421 5.25241H1.36667C0.88802 5.25241 0.5 4.85263 0.5 4.35948Z" fill="white"/>
<path d="M13.5 21.6666C13.5 22.6238 12.724 23.3999 11.7667 23.3999C10.8094 23.3999 10.0333 22.6238 10.0333 21.6666C10.0333 20.7093 10.8094 19.9332 11.7667 19.9332C12.724 19.9332 13.5 20.7093 13.5 21.6666Z" fill="white"/>
<path d="M23.9 21.6666C23.9 22.6238 23.124 23.3999 22.1667 23.3999C21.2094 23.3999 20.4333 22.6238 20.4333 21.6666C20.4333 20.7093 21.2094 19.9332 22.1667 19.9332C23.124 19.9332 23.9 20.7093 23.9 21.6666Z" fill="white"/>
</svg>
