<?xml version="1.0" encoding="utf-8"?><svg xmlns="http://www.w3.org/2000/svg" xmlns:xlink="http://www.w3.org/1999/xlink"><symbol fill="none" viewBox="0 0 14 9" id="arrow-accent" xmlns="http://www.w3.org/2000/svg"><path fill-rule="evenodd" clip-rule="evenodd" d="M.293.793a1 1 0 011.414 0L7 6.086 12.293.793a1 1 0 111.414 1.414L8.414 7.5a2 2 0 01-2.828 0L.293 2.207a1 1 0 010-1.414z" fill="#FF7940"/></symbol><symbol fill="none" viewBox="0 0 24 24" id="base" xmlns="http://www.w3.org/2000/svg"><path d="M19 14H5a1 1 0 00-1 1v3a1 1 0 001 1h14a1 1 0 001-1v-3a1 1 0 00-1-1zm0-9H5a1 1 0 00-1 1v3a1 1 0 001 1h14a1 1 0 001-1V6a1 1 0 00-1-1z" stroke="#FF7940" stroke-width="2" stroke-linecap="round" stroke-linejoin="round"/></symbol><symbol fill="none" viewBox="0 0 30 35" id="bell" xmlns="http://www.w3.org/2000/svg"><path d="M15 34.467a5.32 5.32 0 005.204-4.25H9.794A5.323 5.323 0 0015 34.467z" fill="#020203"/><path fill-rule="evenodd" clip-rule="evenodd" d="M25.198 19.462a9.491 9.491 0 003.09 4.964c.563.485.88 1.171.88 1.896a2.483 2.483 0 01-2.48 2.48H3.313A2.478 2.478 0 011.7 24.439a9.502 9.502 0 003.383-7.272v-3.95c0-4.985 3.702-9.112 8.5-9.803v-1.53a1.417 1.417 0 112.835 0v1.53a9.86 9.86 0 011.811.439A9.462 9.462 0 0016 9.967a9.5 9.5 0 009.198 9.495z" fill="#020203"/></symbol><symbol fill="none" viewBox="0 0 24 24" id="calendar" xmlns="http://www.w3.org/2000/svg"><path d="M4 8h16m-1-4H5a1 1 0 00-1 1v14a1 1 0 001 1h14a1 1 0 001-1V5a1 1 0 00-1-1zm-3-2v2M8 2v2" stroke="#FF7940" stroke-width="2" stroke-linecap="round" stroke-linejoin="round"/></symbol><symbol fill="none" viewBox="0 0 24 24" id="catalog" xmlns="http://www.w3.org/2000/svg"><path d="M18 14a1 1 0 110 2 1 1 0 010-2zm-6 0a1 1 0 110 2 1 1 0 010-2zm-6 0a1 1 0 110 2 1 1 0 010-2zm12-6a1 1 0 110 2 1 1 0 010-2zm-6 0a1 1 0 110 2 1 1 0 010-2zM6 8a1 1 0 110 2 1 1 0 010-2z" stroke="#FF7940" stroke-width="2" stroke-linecap="round" stroke-linejoin="round"/></symbol><symbol fill="none" viewBox="0 0 18 19" id="home" xmlns="http://www.w3.org/2000/svg"><path d="M16.659 7.7l-7-6.124a1 1 0 00-1.318 0l-7 6.125A1 1 0 001 8.453V17a1 1 0 001 1h4a1 1 0 001-1v-4a1 1 0 011-1h2a1 1 0 011 1v4a1 1 0 001 1h4a1 1 0 001-1V8.453a1 1 0 00-.341-.752z" stroke="#FF7940" stroke-width="2" stroke-linecap="round" stroke-linejoin="round"/></symbol><symbol fill="none" viewBox="0 0 24 24" id="logout" xmlns="http://www.w3.org/2000/svg"><path d="M19 21h-9a2 2 0 01-2-2v-4h2v4h9V5h-9v4H8V5a2 2 0 012-2h9a2 2 0 012 2v14a2 2 0 01-2 2zm-7-5v-3H3v-2h9V8l5 4-5 4z" fill="#FF7940"/></symbol><symbol fill="none" viewBox="0 0 16 19" id="profile" xmlns="http://www.w3.org/2000/svg"><path d="M3 5a5 5 0 1110 0A5 5 0 013 5zm5 3a3 3 0 100-6 3 3 0 000 6zm-5.657 5.343A8 8 0 000 19h2a6 6 0 1112 0h2a8 8 0 00-13.657-5.657z" fill="#FF7940"/></symbol><symbol fill="none" viewBox="0 0 37 36" id="tg" xmlns="http://www.w3.org/2000/svg"><path d="M18.5 0C8.559 0 .5 8.059.5 18s8.059 18 18 18 18-8.059 18-18-8.059-18-18-18z" fill="#40B3E0"/><path d="M27.258 10.353l-3.215 16.21s-.45 1.123-1.686.584l-7.419-5.688-2.698-1.304-4.54-1.529s-.697-.247-.765-.787c-.067-.54.787-.831.787-.831l18.053-7.082s1.484-.652 1.484.427" fill="#fff"/><path d="M14.368 26.382s-.217-.02-.487-.875c-.27-.854-1.64-5.35-1.64-5.35l10.903-6.925s.63-.382.607 0c0 0 .112.068-.225.383s-8.565 7.71-8.565 7.71" fill="#D2E5F1"/><path d="M17.783 23.64l-2.935 2.675s-.229.174-.48.065l.562-4.97" fill="#B5CFE4"/></symbol><symbol fill="none" viewBox="0 0 37 36" id="vk" xmlns="http://www.w3.org/2000/svg"><g clip-path="url(#jclip0_362_7121)"><path d="M3.03 2.53C.5 5.061.5 9.134.5 17.28v1.44c0 8.146 0 12.219 2.53 14.75C5.561 36 9.634 36 17.78 36h1.44c8.146 0 12.219 0 14.75-2.53 2.53-2.531 2.53-6.604 2.53-14.75v-1.44c0-8.146 0-12.219-2.53-14.75C31.438 0 27.365 0 19.22 0h-1.44C9.634 0 5.561 0 3.03 2.53zm3.545 8.42h4.11c.135 6.87 3.165 9.78 5.565 10.38V10.95h3.87v5.925c2.37-.255 4.86-2.955 5.7-5.925h3.87a11.43 11.43 0 01-5.265 7.47 11.842 11.842 0 016.165 7.515h-4.26a7.405 7.405 0 00-6.21-5.355v5.355h-.465c-8.205 0-12.885-5.625-13.08-14.985z" fill="#07F"/></g><defs><clipPath id="jclip0_362_7121"><path fill="#fff" transform="translate(.5)" d="M0 0h36v36H0z"/></clipPath></defs></symbol></svg>