<svg width="181" height="129" viewBox="0 0 181 129" fill="none" xmlns="http://www.w3.org/2000/svg">
<g clip-path="url(#clip0_154_225)">
<path d="M29 23.625H155V126H29V23.625Z" fill="#E0E5E9"/>
<path d="M29 98.4375H155V106.312H29V98.4375Z" fill="#D1D9DF"/>
<path d="M60.5 0H123.5V126H60.5V0Z" fill="#BEC9D0"/>
<path d="M76.25 94.5H107.75V126H76.25V94.5Z" fill="#AFBBC2"/>
<path d="M76.25 78.75H84.125V86.625H76.25V78.75Z" fill="white"/>
<path d="M99.875 78.75H107.75V86.625H99.875V78.75Z" fill="white"/>
<path d="M76.25 63H84.125V70.875H76.25V63Z" fill="white"/>
<path d="M99.875 63H107.75V70.875H99.875V63Z" fill="white"/>
<path d="M76.25 47.25H84.125V55.125H76.25V47.25Z" fill="white"/>
<path d="M99.875 47.25H107.75V55.125H99.875V47.25Z" fill="white"/>
<path d="M76.25 31.5H84.125V39.375H76.25V31.5Z" fill="white"/>
<path d="M99.875 31.5H107.75V39.375H99.875V31.5Z" fill="white"/>
<path d="M139.25 78.75H147.125V86.625H139.25V78.75Z" fill="white"/>
<path d="M139.25 63H147.125V70.875H139.25V63Z" fill="white"/>
<path d="M139.25 47.25H147.125V55.125H139.25V47.25Z" fill="white"/>
<path d="M36.875 78.75H44.75V86.625H36.875V78.75Z" fill="white"/>
<path d="M36.875 63H44.75V70.875H36.875V63Z" fill="white"/>
<path d="M36.875 47.25H44.75V55.125H36.875V47.25Z" fill="white"/>
<path d="M76.25 15.75H84.125V23.625H76.25V15.75Z" fill="white"/>
<path d="M99.875 15.75H107.75V23.625H99.875V15.75Z" fill="white"/>
</g>
<rect y="126" width="181" height="3" rx="1.5" fill="#BEC9D0"/>
<defs>
<clipPath id="clip0_154_225">
<rect width="126" height="126" fill="white" transform="translate(29)"/>
</clipPath>
</defs>
</svg>
