<svg width="60" height="60" viewBox="0 0 60 60" fill="none" xmlns="http://www.w3.org/2000/svg">
<path d="M58.132 37.0155C54.2582 52.5511 38.5214 62.006 22.982 58.1318C7.44907 54.2585 -2.00684 38.5225 1.8687 22.9878C5.74061 7.45026 21.4775 -2.00546 37.0123 1.86781C52.5507 5.74109 62.0057 21.4789 58.132 37.0155Z" fill="#F7931A"/>
<path d="M42.7877 25.8686C43.365 22.0098 40.4266 19.9354 36.4088 18.5516L37.7121 13.3244L34.5299 12.5314L33.2611 17.6209C32.4245 17.4124 31.5653 17.2158 30.7115 17.0209L31.9895 11.8979L28.8091 11.105L27.5049 16.3304C26.8124 16.1727 26.1326 16.0168 25.4728 15.8528L25.4765 15.8365L21.0879 14.7408L20.2414 18.1392C20.2414 18.1392 22.6024 18.6802 22.5526 18.7138C23.8414 19.0355 24.0743 19.8883 24.0354 20.5643L22.5508 26.5192C22.6396 26.5419 22.7547 26.5745 22.8816 26.6253C22.7755 26.599 22.6622 26.57 22.5453 26.5419L20.4644 34.8838C20.3066 35.2753 19.9069 35.8626 19.006 35.6396C19.0378 35.6859 16.693 35.0624 16.693 35.0624L15.1133 38.7046L19.2544 39.7368C20.0248 39.9298 20.7798 40.1319 21.523 40.3222L20.206 45.6092L23.3846 46.4022L24.6888 41.1713C25.5571 41.407 26.4 41.6245 27.2248 41.8293L25.9251 47.0356L29.1073 47.8286L30.4242 42.5515C35.8505 43.5783 39.9309 43.1642 41.6484 38.2569C43.0324 34.3057 41.5795 32.0265 38.7245 30.5402C40.8037 30.0608 42.3698 28.6933 42.7877 25.8686ZM35.517 36.0629C34.5336 40.0141 27.8801 37.8781 25.723 37.3425L27.4704 30.3381C29.6275 30.8764 36.5448 31.9422 35.517 36.0629ZM36.5013 25.8115C35.604 29.4056 30.0662 27.5795 28.2698 27.1319L29.8541 20.7791C31.6505 21.2268 37.4357 22.0623 36.5013 25.8115Z" fill="white"/>
</svg>
