<svg width="11" height="10" viewBox="0 0 11 10" fill="none" xmlns="http://www.w3.org/2000/svg">
<path d="M8.71258 1.21248C8.88866 1.04484 9.12298 0.952167 9.3661 0.954006C9.60921 0.955846 9.84211 1.05206 10.0156 1.22234C10.1892 1.39263 10.2898 1.62366 10.2962 1.8667C10.3026 2.10974 10.2144 2.34577 10.0501 2.52498L5.06258 8.76248C4.97681 8.85486 4.87331 8.92899 4.75824 8.98044C4.64317 9.0319 4.51891 9.05962 4.39289 9.06195C4.26686 9.06429 4.14166 9.04118 4.02477 8.99402C3.90788 8.94687 3.8017 8.87662 3.71257 8.78748L0.405075 5.47998C0.312966 5.39416 0.239089 5.29066 0.187849 5.17566C0.136609 5.06066 0.109056 4.93652 0.106835 4.81064C0.104614 4.68476 0.12777 4.55972 0.174922 4.44299C0.222073 4.32625 0.292254 4.22021 0.381277 4.13119C0.470301 4.04216 0.576343 3.97198 0.693078 3.92483C0.809813 3.87768 0.93485 3.85452 1.06073 3.85674C1.18661 3.85896 1.31075 3.88652 1.42575 3.93776C1.54075 3.989 1.64425 4.06288 1.73007 4.15498L4.34758 6.77123L8.68883 1.23998C8.69664 1.23036 8.70499 1.22118 8.71383 1.21248H8.71258Z" fill="#0C89E4"/>
</svg>
