<svg width="49" height="35" viewBox="0 0 49 35" fill="none" xmlns="http://www.w3.org/2000/svg">
<path d="M43.0769 0H5.38462C3.95653 0 2.58693 0.567306 1.57712 1.57712C0.567306 2.58693 0 3.95653 0 5.38462L0 29.6154C0 31.0435 0.567306 32.4131 1.57712 33.4229C2.58693 34.4327 3.95653 35 5.38462 35H43.0769C44.505 35 45.8746 34.4327 46.8844 33.4229C47.8942 32.4131 48.4615 31.0435 48.4615 29.6154V5.38462C48.4615 3.95653 47.8942 2.58693 46.8844 1.57712C45.8746 0.567306 44.505 0 43.0769 0Z" fill="#003399"/>
<path d="M24.9553 6.33371L26.0982 5.50313H24.6861L24.2486 4.15967L23.8124 5.50313H22.4003L23.5432 6.33371L23.1057 7.67717L24.2486 6.84659L25.3915 7.67717L24.9553 6.33371ZM24.9553 29.6666L26.0982 28.836H24.6861L24.2486 27.4926L23.8124 28.836H22.4003L23.5432 29.6666L23.1057 31.0101L24.2486 30.1795L25.3915 31.0101L24.9553 29.6666ZM13.2895 17.9995L14.4324 17.1689H13.019L12.5828 15.8254L12.1453 17.1689H10.7332L11.8761 17.9995L11.4399 19.3429L12.5828 18.5124L13.7257 19.3429L13.2895 17.9995ZM14.7797 12.2312L15.9226 11.4006H14.5091L14.073 10.0572L13.6368 11.4006H12.2234L13.3663 12.2312L12.9301 13.5747L14.073 12.7441L15.2159 13.5747L14.7797 12.2312ZM14.7797 23.8337L15.9226 23.0031H14.5091L14.073 21.6597L13.6368 23.0031H12.2234L13.3663 23.8337L12.9301 25.1772L14.073 24.3466L15.2159 25.1772L14.7797 23.8337ZM19.1224 7.89659L20.2653 7.06601H18.8518L18.4157 5.72255L17.9795 7.06601H16.5661L17.709 7.89659L17.2728 9.24005L18.4157 8.40948L19.5586 9.24005L19.1224 7.89659ZM19.1224 28.1791L20.2653 27.3485H18.8518L18.4157 26.0051L17.9795 27.3485H16.5661L17.709 28.1791L17.2728 29.5226L18.4157 28.6933L19.5586 29.5226L19.1224 28.1791ZM35.1699 17.9995L34.027 17.1689H35.4405L35.8766 15.8254L36.3141 17.1689H37.7263L36.5834 17.9995L37.0195 19.3429L35.8766 18.5124L34.7338 19.3429L35.1699 17.9995ZM33.6797 12.2312L32.5368 11.4006H33.9503L34.3865 10.0572L34.8226 11.4006H36.2361L35.0932 12.2312L35.5293 13.5747L34.3865 12.7441L33.2436 13.5747L33.6797 12.2312ZM33.6797 23.8337L32.5368 23.0031H33.9503L34.3865 21.6597L34.8226 23.0031H36.2361L35.0932 23.8337L35.5293 25.1772L34.3865 24.3466L33.2436 25.1772L33.6797 23.8337ZM29.337 7.89659L28.1941 7.06601H29.6076L30.0438 5.72255L30.4799 7.06601H31.8934L30.7505 7.89659L31.1866 9.24005L30.0438 8.40948L28.9009 9.24005L29.337 7.89659ZM29.337 28.1791L28.1941 27.3485H29.6076L30.0438 26.0051L30.4799 27.3485H31.8934L30.7505 28.1791L31.1866 29.5226L30.0438 28.6933L28.9009 29.5226L29.337 28.1791Z" fill="#FFCC00"/>
</svg>
