<svg xmlns="http://www.w3.org/2000/svg" viewBox="0 0 53 52">
    <path fill-rule="evenodd" clip-rule="evenodd" d="M17.853 5.218a21.025 21.025 0 018.298-1.71c2.853 0 5.673.583 8.298 1.71a21.496 21.496 0 016.986 4.835 22.169 22.169 0 014.624 7.169 22.649 22.649 0 011.612 8.09.31.31 0 01-.311.313h-9.833a.32.32 0 01-.316-.313 12.186 12.186 0 00-.863-4.21 11.71 11.71 0 00-2.44-3.787 11.038 11.038 0 00-3.585-2.487 10.567 10.567 0 00-4.172-.861c-1.426 0-2.843.29-4.172.861-1.329.57-2.55 1.413-3.585 2.487a11.71 11.71 0 00-2.44 3.788 12.188 12.188 0 00-.862 4.209.32.32 0 01-.317.313H4.942a.31.31 0 01-.31-.313 22.648 22.648 0 011.61-8.09 22.17 22.17 0 014.625-7.169 21.496 21.496 0 016.986-4.835zM22.224 28.216a5.476 5.476 0 00-5.476 5.476v9.291a5.476 5.476 0 1010.953 0v-9.29a5.476 5.476 0 00-5.477-5.477zm-1.356 5.476a1.356 1.356 0 012.713 0v9.291a1.356 1.356 0 01-2.713 0v-9.29zm-15.98-5.2a.313.313 0 00-.314.313v19.022c0 .172.14.313.313.313h3.494c.173 0 .313-.14.313-.313v-7.582c0-.172.14-.313.313-.313h1.68c.173 0 .314.14.314.313v7.582c0 .172.14.313.312.313h3.495c.172 0 .312-.14.312-.313V28.805a.313.313 0 00-.312-.313h-3.495a.313.313 0 00-.313.313V35.5c0 .172-.14.313-.312.313h-1.68a.313.313 0 01-.314-.313v-6.695a.313.313 0 00-.313-.313H4.887zm24.357.314c0-.172.14-.313.313-.313h3.494c.173 0 .313.14.313.313V43.71c0 .172.14.313.313.313h4.035c.173 0 .313.14.313.312v3.495c0 .172-.14.313-.313.313h-8.155a.313.313 0 01-.313-.313V28.806zm11.39 11.624a.316.316 0 01.017.103v7.296c0 .173.14.313.313.313h3.494c.173 0 .313-.14.313-.313v-7.305c0-.033.005-.067.016-.098l3.83-11.564a.313.313 0 00-.298-.411h-3.322a.313.313 0 00-.297.215l-1.708 5.208a.313.313 0 01-.595-.002l-1.676-5.205a.313.313 0 00-.298-.216H36.91a.313.313 0 00-.295.415l4.02 11.564z" fill="currentColor"></path>
</svg>