<svg width="18" height="18" viewBox="0 0 18 18" fill="none" xmlns="http://www.w3.org/2000/svg">
<path d="M2.39914 0C1.07724 0 0.000967868 1.07606 0 2.399C0 3.72194 1.07627 4.79821 2.39914 4.79821C3.72152 4.79821 4.79724 3.72194 4.79724 2.399C4.79724 1.0762 3.72145 0 2.39914 0Z" fill="#6FB1FC"/>
<path d="M4.1998 5.76221H0.598357C0.427044 5.76221 0.288086 5.9011 0.288086 6.07255V17.6645C0.288086 17.8358 0.427044 17.9747 0.598357 17.9747H4.19973C4.37111 17.9747 4.51007 17.8358 4.51007 17.6645V6.07255C4.51014 5.90103 4.37118 5.76221 4.1998 5.76221Z" fill="#6FB1FC"/>
<path d="M13.4067 5.62573C12.0887 5.62573 10.9305 6.02705 10.2238 6.68147V6.07254C10.2238 5.90109 10.0848 5.7622 9.91344 5.7622H6.45878C6.2874 5.7622 6.14844 5.90109 6.14844 6.07254V17.6645C6.14844 17.8358 6.2874 17.9747 6.45878 17.9747H10.0568C10.2281 17.9747 10.3671 17.8358 10.3671 17.6645V11.9294C10.3671 10.2839 10.6698 9.26394 12.1803 9.26394C13.6684 9.26574 13.7798 10.3594 13.7798 12.0277V17.6645C13.7798 17.8358 13.9188 17.9747 14.0902 17.9747H17.6898C17.8612 17.9747 18.0001 17.8358 18.0001 17.6645V11.3058C18.0001 8.66124 17.478 5.62573 13.4067 5.62573Z" fill="#6FB1FC"/>
</svg>
