<svg width="154" height="40" viewBox="0 0 154 40" fill="none" xmlns="http://www.w3.org/2000/svg">
<path d="M61.7133 14.0041H55.8042V29H51.8295V14.0041H46V11H61.7133V14.0041Z" fill="white"/>
<path d="M70.8939 22.4107H67.7274V29H63.7527V11H70.9204C73.1992 11 74.9569 11.4739 76.1935 12.4217C77.43 13.3695 78.0483 14.7088 78.0483 16.4396C78.0483 17.6676 77.7613 18.6937 77.1871 19.5179C76.6219 20.3338 75.7607 20.9849 74.6036 21.4712L78.777 28.8269V29H74.5109L70.8939 22.4107ZM67.7274 19.4066H70.9336C71.9317 19.4066 72.7046 19.1717 73.2522 18.7019C73.7998 18.2239 74.0736 17.5687 74.0736 16.7363C74.0736 15.8874 73.8131 15.2198 73.2919 14.7335C72.7797 14.2473 71.9891 14.0041 70.9204 14.0041H67.7274V19.4066Z" fill="white"/>
<path d="M85.0693 29H81.0947V11H85.0693V29Z" fill="white"/>
<path d="M88.5264 29V11H94.4619C96.1578 11 97.6726 11.3585 99.0063 12.0755C100.349 12.7843 101.396 13.7981 102.146 15.1168C102.897 16.4272 103.272 17.919 103.272 19.592V20.4203C103.272 22.0934 102.902 23.581 102.16 24.8832C101.426 26.1854 100.389 27.1951 99.0461 27.9121C97.7035 28.6291 96.1887 28.9918 94.5017 29H88.5264ZM92.5011 14.0041V26.0206H94.4222C95.9767 26.0206 97.1647 25.5467 97.9862 24.5989C98.8076 23.6511 99.2271 22.2953 99.2448 20.5316V19.5797C99.2448 17.75 98.8385 16.3654 98.0259 15.4258C97.2133 14.478 96.0253 14.0041 94.4619 14.0041H92.5011Z" fill="white"/>
<path d="M117.541 21.1992H109.909V26.0206H118.866V29H105.935V11H118.839V14.0041H109.909V18.294H117.541V21.1992Z" fill="white"/>
<path d="M136.645 29H132.67L124.933 17.1566V29H120.958V11H124.933L132.683 22.8681V11H136.645V29Z" fill="white"/>
<path d="M154 14.0041H148.091V29H144.116V14.0041H138.287V11H154V14.0041Z" fill="white"/>
<path d="M34.7845 9.41975C34.7845 9.00554 34.4487 8.66975 34.0345 8.66975C31.4555 8.66975 29.3647 6.57904 29.3647 4C29.3647 3.58579 29.029 3.25 28.6147 3.25H19.5172H10.4197C10.0055 3.25 9.66975 3.58579 9.66975 4C9.66975 6.57904 7.57904 8.66975 5 8.66975C4.58579 8.66975 4.25 9.00554 4.25 9.41975V15.0695C4.25 24.7042 10.2305 33.3267 19.2545 36.7025C19.4239 36.7658 19.6106 36.7658 19.78 36.7025C28.804 33.3267 34.7845 24.7042 34.7845 15.0696V9.41975Z" fill="#1E5BA4" stroke="#FFC700" stroke-width="1.5" stroke-linejoin="round"/>
<path d="M19.5176 36C28.2485 32.7339 34.0348 24.3913 34.0348 15.0696V9.41975C31.0416 9.41975 28.6151 6.99325 28.6151 4H19.5176C19.5176 4 19.5176 28.875 19.5176 36Z" fill="#102149"/>
<g clip-path="url(#clip0_537_1032)">
<path d="M27.8748 11.1002C27.8665 12.5527 27.8629 14.1355 27.8626 14.1514L27.8623 19.0382C27.8623 21.5233 25.848 23.5376 23.3637 23.5376L22.324 23.538C21.6597 23.5381 21.1212 24.0766 21.1211 24.7409L21.1207 29.4845H18.587L18.5866 24.7409C18.5865 24.0766 18.048 23.5381 17.3837 23.538L16.2492 23.5376C14.34 23.5378 12.7087 22.3484 12.0554 20.6705C11.8579 20.1646 11.7499 19.6142 11.75 19.0384L11.75 11.1084L13.0631 11.9361C13.8278 12.4186 14.2839 13.2466 14.284 14.1511L14.2836 19.0384C14.284 19.4494 14.4105 19.8309 14.6263 20.1463C14.98 20.6643 15.575 21.004 16.2493 21.004L17.9182 21.0035C18.2874 21.0036 18.587 20.7047 18.5866 20.3351L18.5867 14.1627C18.5867 13.1383 18.246 12.1429 17.6194 11.3334C17.6172 11.3304 17.6155 11.3287 17.6136 11.3261C17.3424 10.9716 17.3861 10.4677 17.701 10.1528L19.8539 8L22.0067 10.1528C22.3216 10.4677 22.3653 10.9716 22.0941 11.3261C22.0922 11.3287 22.0906 11.3304 22.0884 11.3334C21.7747 11.7381 21.5328 12.189 21.3697 12.6676C21.2063 13.1456 21.1211 13.6509 21.1211 14.1627L21.1211 20.3351C21.1207 20.7047 21.4203 21.0035 21.7895 21.0035L23.3633 21.0036C24.4486 21.0036 25.3284 20.1237 25.3288 19.0382L25.3284 14.1512C25.3284 13.2523 25.7896 12.4163 26.5502 11.9361L27.8748 11.1002Z" fill="#FFD900"/>
<path d="M27.8749 11.1022C27.8666 12.5547 27.8626 14.1375 27.8626 14.1532L27.8626 19.0404C27.8626 21.5251 25.8481 23.5396 23.3636 23.5398L22.3241 23.5396C21.6598 23.5398 21.1211 24.0785 21.121 24.7428L21.1209 26.1013H18.5869L18.5867 24.743C18.587 24.0787 18.0481 23.5398 17.3835 23.5398L16.2495 23.5399C13.7648 23.5399 11.7501 21.5251 11.7501 19.0405L11.75 11.1102L13.063 11.9383C13.8281 12.4209 14.2841 13.249 14.2841 14.1532L14.2841 19.0404C14.2841 20.1259 15.1638 21.0056 16.2494 21.0056L17.9183 21.0056C18.2874 21.0058 18.587 20.7066 18.5868 20.3372L18.5868 14.1647C18.5868 13.1403 18.2463 12.1451 17.6194 11.3353C17.6175 11.3326 17.6158 11.3306 17.6137 11.3282C17.3427 10.9739 17.3862 10.4702 17.7015 10.1549L19.8539 8.00244L22.0064 10.1549C22.3217 10.4702 22.3651 10.9739 22.0942 11.3282C22.0921 11.3306 22.0904 11.3326 22.0885 11.3353C21.7748 11.7401 21.533 12.1913 21.3697 12.6696C21.206 13.1476 21.121 13.6527 21.1211 14.1647L21.1211 20.3371C21.1209 20.7065 21.4205 21.0058 21.7896 21.0056L23.3638 21.0056C24.4488 21.0058 25.3286 20.1259 25.3284 19.0402L25.3286 14.1531C25.3286 13.2546 25.7898 12.4182 26.5501 11.9383L27.8749 11.1022Z" fill="#FFD900"/>
<path d="M27.874 11.1007C27.8662 12.5528 27.8625 14.1357 27.8623 14.1515L27.8619 19.0384C27.8619 21.5235 25.8476 23.5377 23.3629 23.5382H22.3237C21.6593 23.5383 21.1208 24.0768 21.1207 24.7411L21.1203 29.4847H19.8535V8.00098L22.006 10.1535C22.3209 10.4683 22.3645 10.9722 22.0937 11.3263C22.0915 11.3293 22.0898 11.331 22.088 11.3336C21.7743 11.7383 21.5324 12.19 21.3693 12.6678C21.2056 13.1461 21.1208 13.6503 21.1207 14.1629L21.1207 20.3353C21.1203 20.7049 21.4195 21.0041 21.7891 21.0037L23.3633 21.0041C24.4482 21.0037 25.328 20.1239 25.328 19.0387V14.1515C25.3284 13.253 25.7892 12.4166 26.5495 11.9367L27.874 11.1007Z" fill="#FF9933"/>
<path d="M27.8743 11.1005C27.8661 12.553 27.8622 14.1357 27.8622 14.1513L27.8622 19.0386C27.8622 20.2227 27.4051 21.2991 26.6579 22.1022C25.8364 22.9856 24.6643 23.5382 23.3633 23.5381L22.3237 23.5382C21.6594 23.538 21.1205 24.0768 21.1205 24.7413L21.1207 26.0996L19.8535 26.0994V8.00098L22.0058 10.1532C22.321 10.4685 22.3649 10.9722 22.0935 11.3265C22.0916 11.3291 22.0902 11.331 22.0879 11.3336C21.7743 11.7387 21.5324 12.1896 21.3695 12.668C21.2058 13.1459 21.1205 13.6512 21.1204 14.163L21.1205 20.3355C21.1207 20.7045 21.4201 21.0039 21.7889 21.0039L23.3631 21.004C24.4483 21.0039 25.3282 20.1241 25.3282 19.0385L25.328 14.1514C25.328 13.2529 25.7892 12.4165 26.5495 11.9367L26.6581 11.8684L27.8743 11.1005Z" fill="#FF9933"/>
<path d="M22.5024 26.0994C22.5024 26.3854 22.3869 26.6438 22.1995 26.8309C22.0124 27.0179 21.7532 27.1334 21.468 27.1334H18.2396C17.6685 27.1334 17.205 26.6707 17.2051 26.0995C17.2053 25.8138 17.3208 25.5553 17.5082 25.3682C17.6952 25.1812 17.9543 25.0651 18.2395 25.0651L21.468 25.0649C22.0394 25.0651 22.5024 25.5282 22.5024 26.0994Z" fill="#FFD900"/>
<path d="M22.5021 26.0995C22.5021 26.3854 22.3865 26.6439 22.1991 26.8309C22.0121 27.0179 21.7529 27.1335 21.4677 27.1335H19.8535V25.0649L21.4676 25.065C22.039 25.0652 22.5021 25.5282 22.5021 26.0995Z" fill="#FF9933"/>
<path d="M16.2501 21.0036L14.9084 21.0036C13.792 21.0038 12.8868 20.0986 12.8868 18.982L12.8867 11.8247L13.0637 11.9363C13.8284 12.4188 14.2845 13.2468 14.2844 14.1511L14.2846 19.0382C14.2846 20.1238 15.1644 21.0036 16.2501 21.0036Z" fill="#FF9933"/>
</g>
<defs>
<clipPath id="clip0_537_1032">
<rect width="22" height="22" fill="white" transform="translate(9 8)"/>
</clipPath>
</defs>
</svg>
