<svg width="20" height="20" viewBox="0 0 20 20" fill="none" xmlns="http://www.w3.org/2000/svg">
<path d="M16.5836 3.7733C16.5769 4.96173 16.5739 6.25678 16.5737 6.26975L16.5734 10.2681C16.5734 12.3013 14.9253 13.9494 12.8927 13.9494L12.0421 13.9497C11.4985 13.9498 11.058 14.3904 11.0579 14.9339L11.0575 18.815H8.98455L8.98423 14.9339C8.98413 14.3904 8.54355 13.9498 8 13.9497L7.0718 13.9494C5.50974 13.9495 4.175 12.9764 3.64048 11.6036C3.4789 11.1897 3.39052 10.7393 3.39063 10.2682L3.39066 3.78002L4.46497 4.45727C5.09064 4.85204 5.46382 5.5295 5.46386 6.26957L5.46358 10.2682C5.46389 10.6045 5.5674 10.9166 5.74398 11.1747C6.03336 11.5985 6.5202 11.8764 7.07184 11.8764L8.43734 11.8761C8.73944 11.8761 8.98455 11.6316 8.98423 11.3292L8.98427 6.279C8.98427 5.44087 8.70555 4.62644 8.19286 3.96417C8.19104 3.96171 8.1897 3.96034 8.18815 3.95819C7.96625 3.66815 8.002 3.25588 8.25966 2.99821L10.0211 1.23682L11.7825 2.99821C12.0402 3.25588 12.0759 3.66815 11.854 3.95819C11.8525 3.96034 11.8511 3.96171 11.8493 3.96417C11.5927 4.29527 11.3948 4.6642 11.2613 5.05577C11.1276 5.44688 11.0579 5.86025 11.0579 6.279L11.0579 11.3292C11.0576 11.6316 11.3027 11.8761 11.6048 11.8761L12.8924 11.8761C13.7804 11.8761 14.5002 11.1562 14.5005 10.268L14.5002 6.26964C14.5002 5.53418 14.8775 4.85018 15.4999 4.45723L16.5836 3.7733Z" fill="#FFD900"/>
<path d="M16.5827 3.77344C16.576 4.96186 16.5726 6.25691 16.5726 6.26971L16.5727 10.2684C16.5727 12.3013 14.9245 13.9495 12.8917 13.9497L12.0412 13.9496C11.4977 13.9497 11.0569 14.3905 11.0568 14.934L11.0568 16.0454H8.9835L8.98333 14.9341C8.98354 14.3906 8.54264 13.9497 7.99892 13.9497L7.07104 13.9497C5.03813 13.9497 3.38972 12.3013 3.38972 10.2684L3.38965 3.78002L4.46395 4.45758C5.08995 4.85239 5.46299 5.52995 5.46299 6.26971L5.46302 10.2683C5.46299 11.1565 6.18274 11.8763 7.07097 11.8763L8.43647 11.8763C8.73839 11.8764 8.98354 11.6316 8.98336 11.3294L8.9834 6.27917C8.9834 5.44104 8.70482 4.62679 8.19185 3.96416C8.19034 3.96202 8.18897 3.96033 8.18725 3.95836C7.96552 3.6685 8.00109 3.25636 8.25904 2.99839L10.0202 1.2373L11.7813 2.99839C12.0392 3.25636 12.0748 3.66846 11.8531 3.95836C11.8514 3.96037 11.85 3.96202 11.8485 3.96416C11.5917 4.29541 11.394 4.66451 11.2603 5.05591C11.1264 5.44695 11.0568 5.86025 11.0569 6.27913L11.0569 11.3293C11.0568 11.6316 11.3019 11.8764 11.6038 11.8762L12.8918 11.8763C13.7796 11.8764 14.4994 11.1565 14.4993 10.2682L14.4994 6.26964C14.4994 5.53449 14.8767 4.85017 15.4988 4.45755L16.5827 3.77344Z" fill="#FFD900"/>
<path d="M16.5827 3.77344C16.5763 4.96151 16.5733 6.2566 16.5731 6.26957L16.5729 10.2679C16.5729 12.3012 14.9248 13.9492 12.8919 13.9496H12.0415C11.498 13.9497 11.0574 14.3903 11.0573 14.9338L11.057 18.8149H10.0205V1.2373L11.7816 2.99842C12.0392 3.25605 12.075 3.66832 11.8534 3.95805C11.8516 3.96051 11.8502 3.96188 11.8487 3.96402C11.5921 4.29513 11.3942 4.66469 11.2607 5.05563C11.1268 5.44698 11.0573 5.85951 11.0573 6.27885L11.0573 11.329C11.057 11.6315 11.3018 11.8763 11.6042 11.8759L12.8922 11.8763C13.7798 11.8759 14.4997 11.156 14.4996 10.2682V6.26953C14.4999 5.53438 14.877 4.85007 15.499 4.45744L16.5827 3.77344Z" fill="#FF9933"/>
<path d="M16.583 3.77327C16.5762 4.96169 16.573 6.2566 16.573 6.26939L16.5731 10.2681C16.573 11.2369 16.199 12.1176 15.5877 12.7747C14.9156 13.4975 13.9566 13.9496 12.8922 13.9495L12.0416 13.9496C11.498 13.9494 11.0571 14.3903 11.0572 14.9339L11.0573 16.0453L10.0205 16.0451V1.2373L11.7814 2.99825C12.0394 3.25622 12.0753 3.66832 11.8532 3.95819C11.8517 3.96033 11.8505 3.96184 11.8487 3.96399C11.5921 4.29541 11.3941 4.66434 11.2608 5.05577C11.1269 5.44681 11.0571 5.86025 11.0571 6.27899L11.0571 11.3292C11.0573 11.6311 11.3022 11.8761 11.604 11.8761L12.892 11.8761C13.7799 11.8761 14.4998 11.1562 14.4998 10.268L14.4996 6.2695C14.4996 5.53435 14.877 4.85003 15.499 4.45741L15.5879 4.40154L16.583 3.77327Z" fill="#FF9933"/>
<path d="M12.1867 16.0451C12.1867 16.2791 12.0922 16.4905 11.9389 16.6436C11.7858 16.7966 11.5737 16.8911 11.3404 16.8911H8.699C8.2317 16.8911 7.8525 16.5125 7.85254 16.0452C7.85268 15.8114 7.94721 15.5999 8.10053 15.4468C8.25353 15.2938 8.46552 15.1989 8.69886 15.1989L11.3404 15.1987C11.8079 15.1989 12.1867 15.5777 12.1867 16.0451Z" fill="#FFD900"/>
<path d="M12.1875 16.0452C12.1875 16.2791 12.093 16.4906 11.9397 16.6436C11.7866 16.7966 11.5745 16.8912 11.3412 16.8912H10.0205V15.1987L11.3412 15.1988C11.8087 15.1989 12.1875 15.5778 12.1875 16.0452Z" fill="#FF9933"/>
<path d="M7.07116 11.8763L5.9734 11.8762C5.06004 11.8764 4.31937 11.1358 4.31941 10.2222L4.31934 4.36621L4.46414 4.45751C5.08982 4.85228 5.463 5.52974 5.4629 6.26961L5.46304 10.2681C5.46304 11.1564 6.1829 11.8763 7.07116 11.8763Z" fill="#FF9933"/>
</svg>
