<svg width="52" height="52" viewBox="0 0 52 52" fill="none" xmlns="http://www.w3.org/2000/svg">
<path fill-rule="evenodd" clip-rule="evenodd" d="M39.8361 24.5221C40.3402 24.3573 40.8824 24.6324 41.0471 25.1365L41.8269 27.522C42.1721 28.5781 41.8792 29.7386 41.0741 30.5043L37.8291 33.5907C37.663 33.7487 37.5589 33.9609 37.5356 34.1889L37.4815 34.7183C37.333 36.1718 36.1197 37.284 34.6588 37.3058L34.2867 37.3114C34.0454 37.315 33.8142 37.4093 33.6393 37.5757L29.4592 41.5514C28.6828 42.2899 27.5606 42.5364 26.5462 42.1913L24.0545 41.3436C23.5525 41.1728 23.284 40.6273 23.4548 40.1253C23.6256 39.6232 24.171 39.3547 24.6731 39.5255L27.1647 40.3732C27.5028 40.4882 27.8769 40.4061 28.1357 40.1599L32.3158 36.1842C32.8405 35.6851 33.534 35.402 34.258 35.3911L34.6301 35.3856C35.1171 35.3783 35.5215 35.0076 35.571 34.5231L35.6251 33.9937C35.695 33.3096 36.0073 32.6731 36.5055 32.1992L39.7506 29.1128C40.019 28.8575 40.1166 28.4707 40.0015 28.1187L39.2218 25.7331C39.057 25.2291 39.332 24.6869 39.8361 24.5221Z" fill="#6FB1FC"/>
<path fill-rule="evenodd" clip-rule="evenodd" d="M11.0287 26.0932C10.5107 26.2072 9.99849 25.8798 9.8845 25.3619L9.34504 22.9108C9.10622 21.8256 9.51275 20.6999 10.3898 20.0178L13.9248 17.2682C14.1057 17.1275 14.2304 16.9267 14.2762 16.7021L14.3825 16.1807C14.6743 14.749 15.9918 13.7626 17.4478 13.8858L17.8185 13.9171C18.0591 13.9375 18.2984 13.8665 18.489 13.7183L23.0426 10.1765C23.8884 9.51861 25.0295 9.38459 26.0047 9.82859L28.4001 10.9191C28.8827 11.1388 29.0958 11.7082 28.8761 12.1909C28.6564 12.6735 28.087 12.8867 27.6043 12.6669L25.209 11.5764C24.8839 11.4284 24.5036 11.4731 24.2216 11.6924L19.668 15.2341C19.0964 15.6787 18.3783 15.8917 17.6567 15.8307L17.2859 15.7993C16.8006 15.7583 16.3615 16.0871 16.2642 16.5643L16.1579 17.0857C16.0205 17.7595 15.6466 18.3619 15.1039 18.7841L11.5688 21.5336C11.2765 21.761 11.141 22.1363 11.2206 22.498L11.76 24.9491C11.874 25.467 11.5466 25.9792 11.0287 26.0932Z" fill="#6FB1FC"/>
<path fill-rule="evenodd" clip-rule="evenodd" d="M46.2833 25.5527C46.8058 25.4617 47.303 25.8115 47.394 26.334L47.9104 29.3007C48.0756 30.2496 47.7556 31.2182 47.0577 31.882L41.9542 36.736C41.8192 36.8644 41.7245 37.0292 41.6816 37.2105L41.0956 39.6849C40.8275 40.8168 39.905 41.6764 38.7569 41.864L36.4 42.249C36.2096 42.2801 36.0329 42.3679 35.8931 42.5009L30.4386 47.6887C29.6621 48.4272 28.54 48.6737 27.5255 48.3286L25.0339 47.4809C24.5318 47.3101 24.2633 46.7646 24.4341 46.2626C24.6049 45.7605 25.1504 45.492 25.6524 45.6628L28.1441 46.5105C28.4822 46.6255 28.8563 46.5434 29.1151 46.2972L34.5696 41.1093C34.9891 40.7104 35.519 40.447 36.0904 40.3537L38.4473 39.9687C38.83 39.9061 39.1375 39.6196 39.2269 39.2423L39.8129 36.7679C39.9416 36.2242 40.2258 35.7296 40.6307 35.3445L45.7342 30.4905C45.9668 30.2692 46.0735 29.9463 46.0184 29.63L45.502 26.6633C45.4111 26.1409 45.7609 25.6436 46.2833 25.5527Z" fill="#6FB1FC"/>
<path fill-rule="evenodd" clip-rule="evenodd" d="M4.71649 24.4289C4.18759 24.4676 3.72746 24.0702 3.68876 23.5413L3.46897 20.538C3.39868 19.5774 3.8131 18.6453 4.57336 18.054L10.1329 13.7298C10.2799 13.6154 10.3905 13.4608 10.4512 13.2847L11.2796 10.8806C11.6586 9.7808 12.6618 9.01688 13.8228 8.94406L16.2063 8.79458C16.3989 8.7825 16.5833 8.71267 16.7357 8.59419L22.6776 3.97261C23.5234 3.31473 24.6645 3.18071 25.6397 3.62471L28.0351 4.71523C28.5177 4.93497 28.7308 5.50435 28.5111 5.987C28.2914 6.46964 27.722 6.68277 27.2393 6.46304L24.844 5.37252C24.5189 5.22452 24.1386 5.26919 23.8566 5.48848L17.9147 10.1101C17.4577 10.4655 16.9043 10.675 16.3265 10.7112L13.943 10.8607C13.556 10.885 13.2216 11.1396 13.0953 11.5062L12.2669 13.9103C12.0848 14.4386 11.753 14.9026 11.3119 15.2457L5.7524 19.5698C5.49898 19.7669 5.36084 20.0777 5.38427 20.3979L5.60406 23.4012C5.64276 23.93 5.24538 24.3902 4.71649 24.4289Z" fill="#6FB1FC"/>
<g filter="url(#filter0_bi)">
<path d="M25.4868 16.7072C25.2494 16.7807 25.0275 16.8978 24.8325 17.0523L14.6574 25.117C13.8775 25.7351 13.3233 26.5999 13.0824 27.5586C11.7816 32.7337 15.7436 37.7742 21.0991 37.6166C22.0622 37.5883 22.9922 37.2486 23.7493 36.6485L33.9491 28.5642C34.1491 28.4057 34.3172 28.2105 34.4442 27.9894L41.7486 15.2655C42.6493 13.6965 41.1708 11.8497 39.4426 12.3849L25.4868 16.7072Z" fill="white"/>
</g>
<path fill-rule="evenodd" clip-rule="evenodd" d="M24.8325 17.0523C25.0275 16.8978 25.2494 16.7807 25.4868 16.7072L39.4426 12.3849C41.1708 11.8497 42.6493 13.6965 41.7486 15.2655L34.4442 27.9894C34.3172 28.2105 34.1491 28.4057 33.9491 28.5642L23.7493 36.6485C22.9922 37.2486 22.0622 37.5883 21.0991 37.6166C15.7436 37.7742 11.7816 32.7337 13.0824 27.5586C13.3233 26.5999 13.8775 25.7351 14.6574 25.117L24.8325 17.0523ZM39.9052 13.9051C40.2509 13.7981 40.5465 14.1675 40.3664 14.4812L33.062 27.2051C33.0366 27.2494 33.003 27.2884 32.963 27.3201L22.7632 35.4044C22.2776 35.7892 21.6811 36.0071 21.0634 36.0253C16.7818 36.1513 13.5797 32.1101 14.6289 27.9357C14.7848 27.3155 15.144 26.757 15.6434 26.3612L25.8186 18.2965C25.8576 18.2655 25.902 18.2421 25.9494 18.2274L39.9052 13.9051Z" fill="#6FB1FC"/>
<path fill-rule="evenodd" clip-rule="evenodd" d="M29.0616 21.9082C28.3153 20.9666 26.9469 20.8083 26.0053 21.5546L18.7594 27.2976C17.8178 28.0439 17.6595 29.4122 18.4058 30.3538L19.5882 31.8456C20.3345 32.7872 21.7028 32.9455 22.6444 32.1992L29.8903 26.4562C30.8319 25.7099 30.9902 24.3416 30.2439 23.4L29.0616 21.9082ZM25.3297 20.7021C26.7421 19.5827 28.7946 19.8201 29.914 21.2325L31.0964 22.7243C32.2159 24.1367 31.9784 26.1892 30.566 27.3087L23.3201 33.0517C21.9077 34.1711 19.8552 33.9337 18.7358 32.5213L17.5534 31.0295C16.4339 29.6171 16.6714 27.5646 18.0838 26.4451L25.3297 20.7021Z" fill="#6FB1FC"/>
<path d="M28.7524 24.5824L27.57 23.0906C27.0103 22.3844 25.984 22.2657 25.2778 22.8254L28.4872 26.8746C29.1934 26.3148 29.3121 25.2886 28.7524 24.5824Z" fill="#6FB1FC"/>
<defs>
<filter id="filter0_bi" x="9.8335" y="9.29053" width="35.1876" height="31.3297" filterUnits="userSpaceOnUse" color-interpolation-filters="sRGB">
<feFlood flood-opacity="0" result="BackgroundImageFix"/>
<feGaussianBlur in="BackgroundImage" stdDeviation="1.5"/>
<feComposite in2="SourceAlpha" operator="in" result="effect1_backgroundBlur"/>
<feBlend mode="normal" in="SourceGraphic" in2="effect1_backgroundBlur" result="shape"/>
<feColorMatrix in="SourceAlpha" type="matrix" values="0 0 0 0 0 0 0 0 0 0 0 0 0 0 0 0 0 0 127 0" result="hardAlpha"/>
<feOffset dy="0.5"/>
<feGaussianBlur stdDeviation="1"/>
<feComposite in2="hardAlpha" operator="arithmetic" k2="-1" k3="1"/>
<feColorMatrix type="matrix" values="0 0 0 0 1 0 0 0 0 1 0 0 0 0 1 0 0 0 0.4 0"/>
<feBlend mode="normal" in2="shape" result="effect2_innerShadow"/>
</filter>
</defs>
</svg>
