<svg width="208" height="41" viewBox="0 0 208 41" fill="none" xmlns="http://www.w3.org/2000/svg">
<path d="M20.545 13.4121L11.8684 4.76269V0H19.0905L36.7264 17.5807L19.0905 35.1614H11.8684V30.58L20.545 21.9306H0V13.4121H20.545Z" fill="#019934"/>
<path fill-rule="evenodd" clip-rule="evenodd" d="M35.0396 34.2552V21.8916L39.364 17.5808L35.0396 13.2699V0H49.4029L53.9483 4.53111V13.4121L49.7666 16.8557L53.9483 20.2994V29.1804L48.8575 34.2552H35.0396ZM41.9486 13.7746V6.70605H46.4939V13.7746H41.9486ZM41.9486 27.5492V20.4806H46.4939V27.5492H41.9486Z" fill="#019934"/>
<path d="M78.4932 33.7115V0H85.7658V14.1371L90.6747 0H98.4927L92.3111 15.7683L99.22 33.7115H91.5838L85.7658 20.1181V33.7115H78.4932Z" fill="#019934"/>
<path d="M99.7654 0L106.311 27.9117H100.856V33.5302H108.311L113.22 28.6366L120.129 0H112.129L110.129 19.5744L107.402 0H99.7654Z" fill="#019934"/>
<path d="M165.219 34.074V0.181244H172.309V17.2182L177.764 0.181244H184.127V34.074H177.036V17.2182L171.4 34.074H165.219Z" fill="#019934"/>
<path fill-rule="evenodd" clip-rule="evenodd" d="M193.218 0.362489L188.491 5.07485V13.9558L192.491 17.2182L188.491 20.4806V34.2552H195.581V20.4806H199.581V34.2552H207.036V0.362489H193.218ZM199.763 6.5248V13.9558H195.581V6.5248H199.763Z" fill="#019934"/>
<path fill-rule="evenodd" clip-rule="evenodd" d="M60.13 0.181244L55.4028 33.8927H62.6754L63.5844 28.0929H68.857L69.7661 33.8927H77.0387L71.5843 0.181244H60.13ZM67.948 21.3868H64.1299L65.7662 6.70605H66.4935L67.948 21.3868Z" fill="#019934"/>
<path fill-rule="evenodd" clip-rule="evenodd" d="M117.947 33.8927L122.674 0.181244H134.128L136.411 14.2873C136.453 14.1624 136.504 14.0466 136.55 13.9558C137.158 12.8684 138.413 10.5847 138.559 10.1497C138.705 9.71471 139.472 9.60596 139.837 9.60596H148.24L152.441 14.1371H154.998C155.302 14.1371 155.911 14.3546 155.911 15.2245C155.911 16.312 155.729 16.6745 155.181 16.6745H151.528L148.605 14.1371L146.413 17.3995L149.518 23.3805C149.64 23.743 149.92 24.6493 150.066 25.3742C150.212 26.0992 150.858 28.9387 151.162 30.2678C151.263 30.7662 151.297 31.7003 150.814 32.0936L156.642 30.6303V3.98738L141.481 0.181244H160.66V27.9117H163.4V40.78H156.642V34.4365H141.481L149.077 32.5296C148.796 32.5008 148.59 32.3004 148.422 31.7178C148.13 30.7028 147.205 26.8242 146.778 25.0117L144.404 20.6619L143.308 24.6493C143.186 25.0722 142.65 25.918 141.481 25.918H138.292L139.583 33.8927H132.31L131.401 28.0929H126.128L125.219 33.8927H117.947ZM137.645 15.587L136.563 15.229L137.853 23.1993H140.385C140.507 22.0514 140.751 19.6107 140.751 19.0307C140.751 18.4507 140.994 17.4599 141.116 17.037L143.125 12.1434H140.933C140.385 12.9288 139.216 14.6446 138.924 15.2245C138.632 15.8045 137.95 15.7079 137.645 15.587ZM126.674 21.3868H130.492L129.038 6.70605H128.31L126.674 21.3868Z" fill="#019934"/>
<path d="M148.605 9.06222C150.017 9.06222 151.162 7.92618 151.162 6.5248C151.162 5.12342 150.017 3.98738 148.605 3.98738C147.193 3.98738 146.048 5.12342 146.048 6.5248C146.048 7.92618 147.193 9.06222 148.605 9.06222Z" fill="#019934"/>
</svg>
