<svg width="733" height="744" viewBox="0 0 733 744" fill="none" xmlns="http://www.w3.org/2000/svg">
<path d="M189.17 639.898C194.053 646.029 184.711 651.314 184.923 652.794C184.286 648.566 180.889 647.72 177.068 648.354C178.766 645.183 183.862 640.955 187.259 641.59L189.17 639.898ZM28.662 394.678C29.299 395.735 30.9975 396.792 31.4221 398.06C33.5452 396.158 34.8191 394.678 34.8191 391.507C41.8254 388.548 51.1671 390.873 55.4133 384.531C59.0226 379.246 58.8103 367.831 59.0226 361.489C57.9611 359.375 58.1734 356.415 59.0226 353.667C56.4749 347.537 65.1797 346.691 66.4535 342.252C67.0905 340.56 64.9673 330.413 63.2688 329.356C57.3241 325.763 53.2902 327.877 47.5578 326.82C43.7362 326.185 42.6746 322.38 37.7915 323.437C34.8191 324.071 36.093 329.145 30.3605 328.088C28.0251 329.356 24.2035 330.413 23.3543 333.162C20.8065 340.56 29.9359 333.584 30.1482 340.56C27.1759 341.617 22.9296 341.195 19.3203 341.195C18.8957 342.04 18.4711 342.886 18.0465 343.943C13.1633 343.731 7.85553 343.943 2.76005 343.731C1.06156 349.016 5.30779 351.764 9.34171 353.878C9.76633 357.895 6.36935 358.529 2.76005 357.472C1.9108 362.969 19.9573 370.579 10.6156 372.904C9.97864 380.514 20.5942 372.27 18.8957 381.783C16.5603 381.36 12.3141 379.669 10.4033 379.88C6.79396 380.303 6.58166 384.108 1.6985 383.263C3.39699 384.742 3.8216 387.068 4.88316 388.548C1.48617 388.759 1.27387 390.239 0 392.987C2.54774 394.889 4.45853 395.735 7.4309 394.255C1.27386 397.215 13.1633 398.695 12.3141 398.483C18.2588 400.386 24.4158 397.638 28.662 394.678ZM163.905 668.226C164.329 665.689 164.966 663.363 164.117 660.827C165.603 660.404 166.877 659.347 168.363 658.924C168.363 658.29 168.363 657.444 168.363 656.81C161.357 652.16 155.624 667.591 163.905 668.226ZM61.7827 285.809C66.8782 290.459 60.5088 292.151 62.2073 297.858C60.7211 297.435 59.0226 298.07 57.3241 297.647C55.8379 304.623 63.4812 304.412 64.3304 298.281C73.4598 298.492 66.4535 307.794 65.8166 312.233C65.1796 312.022 64.5427 312.022 63.9058 312.445C61.7827 310.965 59.2349 310.542 56.4749 311.388C56.0503 314.136 56.2626 314.559 57.9611 316.25C59.2349 314.77 61.7827 314.347 63.0565 312.656C65.392 314.981 61.995 328.088 67.3027 326.397C71.7613 324.917 69.4259 313.713 71.1244 311.176C72.3982 311.388 74.0967 312.233 75.1583 312.867C79.8291 315.827 76.8568 328.511 71.1244 329.568C73.2475 331.259 75.3706 334.007 76.8568 335.91C74.7336 333.373 97.8756 333.373 97.8756 332.105C97.8756 335.064 97.451 337.812 96.1771 340.349C97.2387 344.788 101.06 346.902 104.67 349.228C104.457 349.439 104.457 350.919 104.457 351.342C102.546 351.553 101.273 353.033 99.5741 353.456C99.1495 354.935 99.1495 357.049 99.5741 358.529C101.06 358.741 101.91 360.009 103.608 360.009C101.06 372.693 86.4108 361.911 83.8631 365.505C83.4384 366.139 83.2261 366.985 82.5892 367.619C81.9522 365.082 80.6784 363.603 81.103 360.432C80.8907 360.432 79.8291 360.643 79.6168 360.432C76.6445 365.294 83.6507 372.693 83.6507 378.4C83.4384 386.645 81.103 385.799 75.7952 389.816C74.0967 391.084 72.6105 392.141 71.549 394.044C78.1306 398.695 82.1646 397.849 89.8078 399.117C93.2048 399.752 94.9033 401.654 98.3002 402.077C100.423 402.288 106.368 393.832 106.156 402.923C100.423 402.923 99.1495 406.728 95.3279 407.996C87.4723 410.533 85.9862 407.362 81.103 413.915C77.9183 418.143 77.2814 422.794 73.4598 426.176C74.5214 424.908 61.1457 431.038 66.2412 431.038C68.3643 431.038 71.9736 431.461 74.0967 430.827C76.8568 429.981 79.6168 424.908 82.8015 424.908C84.5 424.908 86.6231 428.079 87.897 427.867C94.054 427.022 97.2387 420.68 104.245 420.046C111.676 419.623 116.134 418.989 123.353 416.663C134.606 412.858 153.289 417.509 161.781 405.248C161.144 405.036 160.932 404.825 160.72 404.191C157.747 405.036 155.624 404.191 153.289 403.345C154.775 400.809 156.898 397.426 156.049 394.889C162.418 395.524 169.637 387.279 169.637 381.149C164.966 376.498 165.178 374.807 158.597 373.538C154.563 372.693 151.378 374.173 146.92 374.384C144.372 364.237 144.584 359.163 139.489 350.496C135.242 343.097 129.935 340.772 125.476 335.91C119.744 329.779 122.928 319.844 115.285 314.136C111.888 311.599 102.759 308.639 98.5125 311.176C98.3002 311.176 97.8756 311.176 97.6633 311.176C96.814 310.542 96.1771 309.696 95.3279 309.062C97.0263 302.72 104.882 308.428 105.731 301.663C104.457 301.452 102.759 299.972 101.697 299.761C105.519 295.322 110.402 295.956 113.374 290.882C115.922 286.443 113.587 280.101 119.319 277.776C118.894 271.645 92.7802 275.239 87.26 276.719C86.6231 273.548 86.6231 272.279 90.0201 270.588C87.26 264.458 99.9987 264.035 101.485 257.693C98.7249 251.14 92.3555 257.059 87.26 256.847C82.8015 256.636 78.5553 253.888 72.8229 253.888C72.3982 260.018 69.6382 264.88 69.8505 269.742C67.7274 269.954 66.8782 271.011 64.9673 271.222C62.6319 275.45 61.7827 279.467 63.0565 284.329C62.2073 283.06 61.7826 282.003 61.358 280.735C59.4472 278.833 56.8995 275.662 52.8656 276.507C47.9824 284.54 58.598 282.638 61.7827 285.809ZM404.029 278.198C405.727 274.393 409.337 273.548 409.124 268.897C403.604 267.417 400.844 272.913 395.536 274.182C395.749 277.564 394.05 281.369 394.475 284.54C394.9 286.866 397.872 289.825 398.084 292.996C402.543 288.134 401.693 283.272 404.029 278.198ZM832.261 506.507C828.015 505.873 824.406 503.759 819.947 505.873C818.673 505.239 819.31 505.239 818.249 505.027C815.913 498.897 823.132 499.742 824.618 495.303C819.523 489.807 815.701 477.968 808.27 475.432C808.27 475.432 804.873 477.968 802.962 477.334C799.99 476.489 800.415 471.415 799.141 469.09C796.805 465.496 787.464 458.52 796.593 454.926C797.018 453.024 797.23 449.641 796.805 447.739C794.045 444.568 799.778 430.616 802.538 427.233C813.153 414.549 812.092 435.266 819.31 436.112C824.618 436.746 825.68 431.672 826.317 427.445C826.954 422.16 823.769 423.217 828.015 417.72C831.624 413.07 839.268 405.671 845 402.923V56.8658C843.514 56.6544 842.452 56.0202 840.966 58.9797C838.418 64.0533 833.96 64.0533 833.96 64.0533L826.104 65.7444L821.858 64.0533C821.858 64.0533 821.009 64.8988 821.009 67.4356C821.009 69.9724 812.304 71.6636 812.304 71.6636L808.058 86.2499C808.058 86.2499 792.559 88.7867 786.402 87.0955C780.245 85.4044 776.848 80.1194 776.848 80.1194C776.848 80.1194 758.589 70.6066 780.245 67.2242L791.497 65.533C791.497 65.533 795.744 67.2242 794.894 64.6875C794.045 62.1507 781.943 51.7922 781.943 51.7922C781.943 51.7922 754.98 50.9467 749.035 49.2555C742.878 47.5643 761.986 52.6378 758.589 63.8419C755.192 75.0459 749.884 77.5827 752.432 79.2738C754.98 80.965 761.137 77.5827 760.288 83.5018C759.438 89.6323 761.986 78.4283 759.438 89.6323C756.891 100.836 756.891 100.836 756.891 100.836L748.186 96.6084C748.186 96.6084 742.029 93.226 736.933 94.9172C731.626 96.6084 728.229 94.0716 728.229 94.0716C728.229 94.0716 722.072 104.43 713.579 103.584L708.484 107.812L698.93 110.349C698.93 110.349 696.382 116.48 702.327 122.399L706.573 129.375L701.477 130.22L696.17 135.294L690.013 131.912L682.157 128.529C682.157 128.529 680.459 130.22 677.911 130.22C675.363 130.22 675.363 130.22 675.363 130.22L668.357 124.09L664.111 119.016L658.803 120.708L655.406 122.399L652.009 124.936C652.009 124.936 653.707 130.009 655.406 132.757C657.104 135.294 663.261 136.985 663.261 136.985L669.418 137.831C669.418 137.831 674.514 139.522 672.815 143.961C671.117 148.189 665.809 146.498 665.809 146.498L662.412 149.88L657.317 145.652C657.317 145.652 655.618 148.189 652.221 147.344C648.824 146.498 648.824 142.27 644.366 140.368C640.119 138.676 640.969 137.831 635.661 136.985C630.565 136.14 632.264 144.807 630.565 136.14C628.867 127.472 628.867 127.472 628.867 127.472C628.867 127.472 624.621 123.244 623.771 120.496C622.922 117.959 622.922 117.959 622.922 117.959L628.018 107.601C628.018 107.601 628.018 104.219 625.47 103.373C622.922 102.528 621.224 98.0882 621.224 98.0882H612.519L609.122 97.2426L607.423 93.0146L601.266 90.4779L594.26 81.8106L600.842 81.3878C600.842 81.3878 604.239 85.6158 606.999 86.4613C609.546 87.3069 611.245 83.9246 613.156 86.4613C614.854 88.9981 618.464 86.4613 621.011 88.1525C623.559 89.8437 619.313 86.4613 623.559 89.8437C627.805 93.226 638.209 94.9172 638.209 94.9172C638.209 94.9172 649.461 95.7628 655.618 96.6084C661.775 97.454 663.474 99.9907 666.021 100.836C668.569 101.682 671.329 103.373 676.425 103.373C681.52 103.373 683.431 103.373 691.923 99.9907C700.628 96.6084 715.278 91.3235 715.278 91.3235C717.825 87.9411 719.524 80.965 719.524 80.965C719.524 80.965 716.127 80.1194 716.976 77.5827C717.825 75.0459 716.127 68.9154 716.127 68.9154L709.97 67.2242L704.874 62.9963C704.874 62.9963 700.628 56.8658 699.779 60.4595C698.93 63.8419 704.025 64.6875 698.93 63.8419C693.622 62.9963 693.622 62.9963 693.622 62.9963L685.766 58.1342C685.766 58.1342 682.369 56.443 679.609 55.5974C677.062 54.7518 675.363 56.443 673.452 53.9062C671.754 51.3694 664.747 48.8327 664.747 48.8327C664.747 48.8327 660.501 47.9871 657.741 46.2959C655.193 44.6048 651.584 39.3198 647.338 38.4742C643.092 37.6287 639.482 37.6286 639.482 37.6286H632.476L614.217 35.0919L606.362 33.4007C606.362 33.4007 603.814 35.0919 600.205 34.2463C596.808 33.4007 596.808 33.4007 596.808 33.4007L593.411 32.5551C600.417 30.8639 594.26 28.3272 600.417 30.8639C606.574 33.4007 599.568 23.8879 596.171 24.7334C592.774 25.579 589.165 22.1967 585.768 24.7334C582.371 27.2702 575.364 30.8639 575.364 30.8639L568.358 27.4816L561.352 25.7904C561.352 25.7904 559.653 27.4816 556.256 25.7904C552.859 24.0992 546.702 23.2537 549.25 22.4081C551.798 21.5625 564.749 18.1801 564.749 18.1801L570.906 15.6434L561.352 7.82169C554.346 8.66728 550.099 6.13051 550.099 6.13051C545.853 6.9761 550.099 6.9761 545.853 6.9761C541.607 6.9761 537.997 9.51286 537.997 9.51286L537.148 1.69118L528.444 0H524.197V4.22794C521.649 8.45588 513.794 15.432 513.794 15.432L512.945 3.38235C509.76 5.91911 487.68 26.8474 488.529 16.2776C488.741 13.7408 494.898 8.66727 496.384 6.34191C495.96 6.13051 495.535 6.13051 495.535 5.49632C489.803 4.43934 479.612 1.90257 474.729 5.91911C475.366 6.9761 475.366 7.61029 476.427 8.87867C476.003 9.72426 475.366 10.7812 475.578 11.8382C474.941 8.66727 467.51 25.7904 468.784 25.3676C464.962 26.636 460.079 17.7573 456.895 16.7004C454.134 15.8548 442.67 17.5459 439.91 18.6029C444.368 19.8713 451.162 21.3511 448.19 26.4246C446.491 24.7334 444.368 23.8878 442.882 21.7739C441.183 23.2537 439.91 22.4081 438.636 24.7334C433.753 23.6765 420.165 24.9448 417.829 29.1728C412.521 23.0423 414.644 18.8143 407.426 21.5625C404.454 22.8309 398.296 28.1158 396.598 30.6526C399.783 32.1323 404.029 33.8235 401.481 37.6286C399.146 35.3033 395.961 35.0919 393.626 36.7831C394.687 32.1323 391.078 30.6525 386.195 31.2867C384.496 32.7665 383.647 33.1893 381.948 34.0349C380.462 36.1489 379.188 38.6856 378.339 41.011C380.887 38.4742 384.284 37.2059 387.681 38.897C387.469 38.897 376.641 62.1507 368.573 44.182C367.087 44.6048 364.751 45.6617 363.69 46.9301C362.84 43.9706 363.265 41.011 364.539 38.2628C364.539 38.2628 352.649 47.5643 352.225 47.7757C348.616 49.4669 344.369 46.5073 341.185 50.1011C344.369 52.8492 348.828 53.0606 352.862 51.7922C351.376 58.9797 340.335 51.7922 339.274 60.0367C347.129 64.0533 360.93 56.6544 369.422 56.0202C368.148 58.3456 359.656 61.5165 356.683 63.2077C356.471 64.2647 355.834 65.9558 355.41 66.8014C353.711 65.9558 351.588 66.59 349.677 65.7444C346.917 68.9154 348.828 72.5091 346.705 75.4687C345.643 76.9485 342.883 75.8915 341.822 76.9485C340.548 78.2169 340.76 81.1764 339.274 82.022C335.665 84.3474 333.754 82.4448 330.569 84.5588C327.384 86.6727 325.474 91.5349 323.35 94.4944C327.384 99.3566 325.898 103.796 320.59 106.333C320.803 104.853 319.529 102.105 319.953 100.202C320.166 99.7794 316.132 101.471 315.495 102.105C314.433 103.584 316.981 106.121 316.344 107.39C315.07 110.138 309.126 117.537 313.584 120.073C313.372 120.496 312.735 122.187 312.735 123.033C306.79 123.456 302.332 128.529 297.449 127.261C293.839 133.603 294.052 134.871 288.319 139.522C287.682 139.311 288.107 138.465 287.47 138.465C285.984 138.254 270.273 169.54 267.725 152.206C266.026 151.994 263.266 152.417 261.78 153.051C259.232 155.588 260.294 159.393 261.356 162.776C257.959 164.255 251.801 161.93 247.343 163.621C243.309 165.101 241.398 169.118 238.001 171.231C235.454 172.923 231.632 172.923 229.296 175.037C230.146 175.459 230.783 175.037 231.632 175.459C231.844 176.094 231.844 176.728 231.632 177.362C230.146 177.785 230.146 177.785 229.084 178.419C225.899 176.728 222.503 177.996 219.955 180.11C220.379 181.167 220.592 182.436 221.016 183.281C217.832 183.07 216.558 183.915 214.647 186.452C216.77 186.452 218.256 187.086 219.955 187.086C219.742 187.086 219.318 187.086 219.106 187.086C221.441 188.355 224.626 188.989 227.598 189.412C222.927 191.948 217.832 188.143 213.585 191.314C205.942 197.233 221.866 199.981 211.887 205.478C214.01 207.169 216.558 207.38 219.742 206.535C219.53 206.958 219.742 208.86 219.742 209.494C218.681 209.494 217.619 209.917 216.558 210.129C215.496 214.356 217.407 219.43 217.195 222.812C216.982 226.617 215.921 231.057 214.222 233.805C213.161 233.594 215.921 234.228 216.133 234.439C215.284 235.285 214.647 236.976 214.01 238.033C216.558 238.033 215.709 239.724 218.893 238.033C218.469 242.049 217.407 244.163 217.195 247.969C218.256 247.546 220.379 246.066 221.229 245.22C222.078 236.976 228.872 243.318 227.173 249.237C222.715 248.18 219.106 250.505 217.619 253.888C216.133 257.693 235.241 266.36 238.214 267.629C242.247 269.531 245.857 272.068 251.165 271.011C260.082 269.108 267.513 260.23 273.457 253.888C274.519 252.619 275.156 250.294 276.642 249.448C279.402 247.969 280.888 249.448 282.587 248.603C286.196 246.912 290.655 247.969 290.655 241.838C298.51 248.391 297.873 249.871 298.935 259.173C299.572 264.035 301.482 265.515 303.181 269.531C304.879 273.336 304.455 275.873 305.304 279.255C306.79 286.02 312.523 290.882 315.495 297.013C319.104 303.989 318.467 311.599 323.987 317.73C316.557 326.185 350.102 325.551 343.52 307.582C347.342 307.371 351.588 309.696 355.197 310.753C357.32 308.217 358.807 307.16 362.204 307.371C364.114 303.566 365.813 299.549 368.148 296.378C368.785 298.281 370.059 299.972 370.271 302.298C373.668 298.704 375.155 294.053 374.518 288.98C366.45 288.134 375.579 273.759 375.367 268.263C370.908 268.051 371.121 262.978 372.819 259.595C369.847 258.75 367.299 257.27 366.874 254.099C376.216 253.676 381.948 250.928 390.229 248.814C393.838 247.969 399.358 250.928 398.933 245.009C398.933 243.318 393.838 240.992 392.776 240.358C396.598 235.073 411.035 238.667 403.18 228.309C400.207 224.292 390.653 224.504 393.413 217.316C386.407 215.625 380.25 212.877 381.524 204.632C381.524 203.575 381.099 200.827 381.524 198.502C372.607 196.811 387.681 183.915 388.53 178.63C387.256 178.208 385.77 176.094 384.921 175.671C388.318 171.866 395.112 170.174 399.57 166.158C404.666 161.507 407.85 160.662 413.583 157.491C416.131 156.011 418.042 152.84 420.589 151.572C423.349 150.303 425.048 152.417 428.232 150.515C431.205 148.612 438.211 140.579 438.636 138.042C437.786 136.14 436.088 131.912 436.513 129.586C436.3 130.221 441.396 121.13 441.396 121.13C446.279 114.366 452.648 116.268 457.107 110.983C465.387 118.805 477.276 105.698 485.769 109.504C491.714 112.252 495.96 125.147 487.68 127.684C486.406 126.415 485.132 126.627 483.858 125.781C478.975 128.952 479.399 135.505 474.304 140.368C470.27 144.173 465.812 146.709 461.353 150.303C457.531 153.474 450.525 154.743 448.402 157.279C444.793 161.507 447.553 168.061 438.848 167.215C436.513 170.597 436.725 175.248 438.636 178.842C437.15 179.053 435.876 180.11 434.602 180.11C433.965 181.379 434.389 181.379 433.54 182.224C437.15 186.241 438.423 188.355 438.848 192.583C439.06 194.485 437.362 196.388 437.362 198.713C437.362 201.461 439.697 204.209 439.697 207.38C439.697 212.665 435.026 212.454 439.697 216.893C440.122 217.316 446.279 218.373 447.341 218.796C447.341 218.796 450.737 223.447 450.95 223.869C455.833 219.43 461.353 230.211 467.51 230.634C474.304 231.057 481.31 228.309 487.255 226.195C497.871 222.39 518.465 225.138 526.745 216.259C531.416 218.796 562.201 223.235 556.681 232.114C550.099 233.382 539.271 224.504 540.121 237.399C538.21 235.708 535.45 234.651 533.539 232.959C530.779 235.285 530.354 238.667 528.019 241.627C523.773 236.765 513.582 238.667 508.486 238.244C503.391 237.822 490.864 231.691 492.563 241.838C485.344 240.992 478.55 239.513 476.003 247.969C473.879 247.546 473.03 248.603 471.119 248.603C469.633 252.619 471.756 255.367 468.996 258.327C467.51 256.847 458.805 248.814 458.593 248.814C455.621 248.603 453.922 249.871 454.134 252.831C454.984 260.23 479.612 260.441 482.372 270.165C479.824 271.222 479.4 273.336 478.126 275.027C484.283 280.101 479.824 285.597 478.763 291.305C467.935 292.151 466.449 282.003 459.23 279.044C457.107 278.198 450.525 278.41 447.977 279.044C439.485 280.947 443.307 283.483 440.759 288.98C438.848 292.785 435.026 294.264 433.965 298.492C432.479 304.2 435.451 313.29 435.876 319.209C436.937 332.316 433.116 331.259 421.226 333.373C419.528 336.121 418.891 338.869 418.254 342.04C416.555 342.886 409.124 346.48 408.275 346.268C400.207 345.423 404.241 338.658 399.146 335.064C392.564 330.202 380.675 339.081 374.305 339.081C373.881 340.138 373.456 340.983 373.031 342.04C368.998 342.886 361.567 346.691 356.471 348.805C349.253 351.764 347.129 354.724 343.52 361.911C340.123 360.854 338.212 358.318 337.575 354.724C331.206 355.358 327.172 346.902 328.021 340.983C324.2 339.503 320.59 342.04 315.92 341.829C314.433 346.268 310.612 346.691 306.79 348.594C304.455 348.382 302.544 350.496 300.633 353.033C297.024 350.707 292.778 347.537 297.449 343.52C296.387 342.463 293.839 341.195 292.353 340.983C285.559 353.033 280.676 338.235 278.34 333.162C276.854 332.527 275.156 330.836 274.094 330.413C276.642 329.568 277.704 328.722 277.704 326.608C281.95 326.82 286.833 327.665 284.497 332.527C287.894 332.739 291.291 332.739 294.688 332.527C294.688 331.682 294.688 331.048 294.688 330.202C293.839 329.991 293.202 329.991 291.928 330.625C291.079 327.877 291.292 324.494 291.079 321.535C289.381 321.112 285.771 320.266 284.073 320.055C276.43 323.437 279.614 315.827 282.799 312.233C286.621 307.794 295.325 308.428 293.839 302.086C280.888 305.257 287.895 284.752 288.744 278.833C286.408 279.467 285.771 279.255 284.073 280.735C283.861 280.735 282.162 279.89 282.374 279.678C274.519 287.288 269.211 289.614 257.534 290.882C256.897 291.516 256.048 292.996 255.623 293.842C258.171 294.687 259.02 296.801 260.719 298.281C253.5 301.663 254.349 311.176 254.774 318.787C263.479 320.266 259.232 325.551 263.054 330.625C261.143 330.202 259.232 330.836 257.322 330.413C256.897 337.812 266.876 335.698 266.451 342.674C265.602 342.674 264.965 342.252 264.116 342.463C260.506 348.171 267.937 361.277 255.411 361.066C254.986 361.066 251.377 357.472 248.829 357.261C246.069 357.049 243.521 358.529 241.398 359.798C241.186 362.334 239.7 364.871 239.275 366.774C234.604 364.237 231.42 362.757 225.687 363.18C221.866 371.002 213.161 371.424 207.428 376.286C200.847 381.571 197.662 392.353 193.204 398.906C190.656 402.5 188.108 406.516 184.923 408.842C179.616 412.858 170.911 413.915 164.966 416.875C163.692 429.347 166.452 429.347 155.412 434.209C147.769 437.592 145.858 441.608 142.036 449.007C138.639 447.95 135.455 449.43 131.209 448.584C127.387 447.95 124.202 441.608 121.23 440.974C108.491 438.226 121.018 458.097 117.833 465.285C115.073 462.536 111.251 461.691 107.005 461.691C106.58 462.959 105.306 464.228 104.882 465.285C101.273 461.691 92.5678 450.487 92.7801 462.748C92.5678 462.748 92.1432 462.748 91.9309 462.748C91.294 462.114 90.8693 461.479 90.4447 460.845C85.7739 460.634 73.4598 463.593 81.7399 468.456C81.7399 468.456 80.8907 470.992 80.8907 471.415C80.2538 471.626 79.4045 471.204 78.5553 471.204C77.9183 472.683 77.706 474.375 77.706 475.854C85.9862 476.911 89.8078 481.774 97.2387 483.888C101.273 484.944 104.245 483.888 107.854 485.156C111.888 486.424 110.402 490.864 116.347 489.807C116.771 493.189 113.374 497.417 113.799 499.108C114.861 503.336 119.956 504.604 122.716 507.564C129.51 514.329 128.661 530.395 127.175 539.273C126.113 546.25 125.051 554.917 122.291 561.47C118.682 570.138 111.676 571.617 101.485 571.617C95.3279 571.617 90.0201 567.178 84.0754 572.886C83.2261 571.617 81.74 570.772 80.8907 569.503C68.5766 572.886 66.4535 564.43 55.838 563.584C50.5302 573.943 40.9761 562.316 35.0314 561.047C32.9083 565.275 20.8065 578.382 15.7111 572.251C13.5879 579.862 19.5327 584.935 20.1696 591.911C21.0188 599.733 17.8342 607.766 20.1696 616.011C22.505 624.255 22.0804 625.946 19.5327 632.711C17.1972 638.63 15.0741 644.549 13.5879 650.68C11.0402 661.884 14.4372 659.558 18.4711 667.803C22.9296 676.682 11.6771 691.479 19.9573 698.244C21.4435 699.512 27.3882 698.667 29.0867 698.667C30.3605 698.667 31.4221 700.992 32.2713 700.569C33.9698 700.147 35.0314 698.033 36.5176 697.821C39.0653 697.398 39.9146 695.496 44.5854 696.341C45.647 696.553 52.0163 700.358 52.6533 701.204C56.4749 706.277 54.7764 710.082 60.0842 715.367C60.7211 716.001 65.1796 721.075 65.6042 721.075C72.6105 721.92 68.7889 717.058 71.549 714.31C80.0414 705.431 94.691 707.545 106.368 705.643C107.005 705.643 107.43 705.009 107.854 705.009C108.704 706.066 109.977 706.7 110.614 707.545C114.224 704.797 113.587 701.204 115.71 697.821C118.258 694.016 122.079 693.17 124.415 691.691C128.873 688.52 128.873 690 131.209 683.235C132.907 678.584 133.119 675.413 135.879 671.185C147.557 671.397 139.701 657.867 138.427 653.216C134.393 646.029 146.283 635.248 149.043 629.54C149.892 627.637 151.378 620.027 152.227 619.182C156.049 614.954 163.904 616.222 168.788 613.262C173.671 610.514 180.253 599.522 186.834 600.79C187.683 597.196 187.896 593.603 188.745 590.009C186.622 588.318 185.348 585.781 185.136 583.033C183.437 577.536 188.533 575.211 192.142 572.463C198.299 568.023 197.237 570.137 203.182 570.56C207.428 570.772 212.312 569.08 216.133 569.715C220.379 570.349 222.503 573.943 227.386 574.154C242.672 574.788 253.5 546.25 268.15 550.055C281.313 553.437 286.621 562.95 291.079 574.365C297.024 590.009 307.639 596.773 319.529 607.555C322.077 609.88 321.864 613.262 324.624 615.376C327.597 617.702 331.206 617.702 334.603 619.182C337.363 620.45 342.459 623.832 345.219 625.946C348.191 628.06 352.013 629.329 348.828 632.288C350.102 637.996 359.231 642.647 361.779 649.2C364.751 656.387 361.142 663.786 360.505 672.031C358.17 671.185 355.622 671.608 353.074 671.185C351.8 678.584 339.274 676.047 334.391 680.698C329.72 677.95 322.926 673.511 319.741 680.064C316.769 678.584 314.009 679.218 312.31 681.755C314.221 688.097 318.68 686.828 323.35 689.788C328.234 692.748 328.871 696.341 333.117 700.147C335.028 701.838 340.972 705.22 343.308 705.643C351.376 706.7 349.465 704.797 350.526 697.187C352.225 684.926 355.622 685.349 364.327 679.852C371.758 675.202 368.148 660.404 377.915 659.558C379.401 648.566 366.025 644.338 371.333 631.443C377.278 630.597 377.915 628.06 383.435 630.174C386.832 631.443 388.955 635.248 392.564 636.516C392.564 638.63 393.838 640.11 393.626 642.224C397.023 641.167 398.296 637.784 397.872 634.191C396.598 630.597 392.989 628.694 389.804 626.369C385.558 623.409 382.798 619.816 378.976 616.433C371.758 610.303 360.08 612.417 364.114 599.522C359.019 595.716 351.376 597.408 346.068 594.237C340.548 591.066 337.575 583.033 333.541 577.748C329.932 573.097 329.295 568.446 326.747 564.007C324.624 559.99 322.289 559.99 319.529 557.031C312.098 549.632 312.31 544.981 313.796 534.623C313.16 532.932 312.523 529.126 312.31 527.435C316.132 524.053 321.015 521.305 325.261 517.922C326.111 518.134 327.384 518.557 328.446 518.768C332.055 525.956 322.289 528.492 330.145 535.257C333.117 538.005 335.452 535.891 338.849 537.794C341.397 539.273 342.883 542.867 344.794 544.77C347.342 547.095 349.677 546.884 352.013 549.843C353.923 552.169 353.499 555.763 355.622 558.511C360.293 564.641 366.874 565.698 373.244 567.178C370.908 568.446 370.696 570.349 369.21 571.406C371.97 575.634 374.093 572.04 377.915 573.943C380.675 575.422 383.222 578.805 385.345 581.13C392.139 588.106 400.632 593.18 407.214 600.367C410.186 603.75 415.281 609.034 415.281 613.897C415.281 616.011 414.857 617.068 414.22 618.97C413.583 620.661 410.823 621.084 410.186 622.564C411.672 618.547 415.918 618.759 414.857 613.051C414.22 609.669 408.275 607.343 407.214 603.115C407.426 624.889 417.617 648.354 434.177 662.729C433.328 663.152 432.479 663.575 431.629 663.786C433.54 667.803 437.574 671.608 441.82 672.242C442.033 673.511 442.033 674.779 441.82 676.047C439.91 675.625 437.999 676.47 436.088 675.836C435.026 677.104 433.54 680.275 433.54 681.966C435.239 684.715 435.451 685.56 438.423 685.137C442.882 690.845 440.122 703.529 447.977 706.489C448.614 706.066 449.251 705.22 449.888 704.797C450.737 706.277 452.011 707.123 452.648 709.025C452.436 709.237 455.196 709.237 454.984 709.025C454.984 707.757 454.984 706.488 455.408 705.22C457.319 706.488 460.716 707.334 462.627 708.391C462.202 703.74 455.621 688.731 465.387 689.999C465.175 689.365 465.387 687.674 465.599 687.04C465.599 686.829 464.113 685.983 463.901 685.772C464.325 684.715 464.75 683.869 464.75 682.601C460.716 679.852 449.251 677.738 449.251 672.876C456.895 671.185 459.655 672.665 464.75 677.104C468.572 680.487 475.366 687.251 475.153 676.682C473.03 674.99 470.482 673.299 467.722 672.242C470.907 672.031 473.879 670.551 474.304 667.169C467.51 662.518 453.71 670.974 456.045 658.713C456.47 657.022 460.291 655.965 460.504 651.948C460.504 649.834 457.531 644.549 457.107 642.435C455.408 636.516 454.134 630.808 458.168 624.466C465.175 623.198 459.655 631.231 465.812 632.077C469.633 632.711 472.606 627.849 472.818 624.678C472.818 624.466 471.756 623.41 471.332 622.987C474.516 618.97 484.07 621.507 489.166 620.027C495.323 618.125 500.631 615.376 503.815 623.198C504.877 621.507 507 620.027 508.062 618.547C505.938 622.564 509.972 625.735 513.369 627.849C511.671 628.906 511.459 629.54 509.123 629.751C505.514 633.345 505.726 643.704 508.274 649.411C508.911 650.68 511.883 649.834 512.732 651.314C513.582 653.005 513.794 655.753 514.219 657.444C515.068 661.038 514.431 666.534 514.006 670.128C513.794 672.876 510.822 670.551 512.52 676.47C512.945 677.95 516.979 683.658 517.616 685.349C522.499 695.284 522.074 703.106 534.813 702.895C531.416 704.586 533.114 704.163 533.964 707.123C542.668 700.992 545.004 709.025 550.312 713.042C557.318 718.115 561.776 714.099 569.207 711.985C568.783 710.505 569.42 707.757 568.57 706.277C580.035 699.512 588.74 715.367 597.869 718.115C609.334 721.709 618.251 710.716 624.833 703.318C630.778 714.522 633.113 708.391 640.756 703.529C642.03 703.952 645.427 705.431 646.489 706.066C645.852 709.025 636.298 714.31 641.606 718.961C647.126 723.612 650.947 712.619 650.098 708.814C657.317 708.391 664.111 705.432 671.117 705.22C676 705.009 679.822 707.123 684.492 707.545C690.65 708.18 693.622 706.277 699.142 703.952C707.21 700.569 712.518 700.147 721.222 700.358C728.441 700.569 732.475 696.976 739.269 696.13C746.063 695.496 752.432 700.781 759.226 698.667C771.116 695.073 753.706 671.185 754.768 660.615C755.829 649.411 767.931 644.972 754.98 635.882C751.583 633.556 749.46 633.979 747.761 629.963C745.638 624.466 747.761 616.856 746.275 610.726C745.851 609.034 724.619 605.441 722.284 605.864C715.702 607.132 711.456 615.165 704.025 614.742C701.902 616.433 701.477 616.856 697.868 616.433C694.259 619.393 694.471 614.319 691.074 614.954C687.04 615.588 684.705 617.702 680.671 618.336C674.726 619.393 670.268 617.702 664.111 615.588C656.68 613.051 634.599 606.921 631.839 598.253C622.073 594.448 618.251 597.831 608.273 599.522C599.78 600.79 594.472 599.522 585.98 603.75C579.611 606.709 573.878 613.685 566.447 614.108C560.078 614.531 550.524 611.783 544.367 609.88C536.299 607.343 526.108 598.465 527.807 588.318C526.745 588.106 526.533 587.683 524.834 587.683C522.711 583.033 525.896 580.707 527.807 576.902C528.656 575 528.868 572.463 530.142 570.772C531.204 569.503 534.601 569.081 535.237 568.024C537.573 564.007 535.237 558.933 536.936 554.494C538.422 550.478 543.73 551.957 543.093 545.404C535.025 540.753 545.216 541.599 546.49 540.753C550.736 538.216 552.435 539.485 553.496 533.354C546.065 528.281 560.503 518.134 564.749 513.06C573.454 502.49 576.001 500.799 589.802 501.011C589.589 503.97 587.466 505.239 584.069 504.604C583.432 515.174 614.43 505.873 608.06 519.402C605.088 520.248 602.54 521.305 598.931 520.882C597.445 522.573 596.383 525.321 596.171 527.224C601.266 530.606 605.725 531.875 607.423 537.794C609.334 544.136 605.088 551.534 615.491 549.421C622.285 548.152 624.833 540.965 629.928 537.371C636.722 532.72 643.092 535.468 650.31 531.875C650.735 529.972 650.523 528.069 649.673 526.378C643.729 522.573 633.75 530.606 632.264 522.996C629.291 520.036 628.018 515.174 628.867 510.735C633.75 508.832 638.633 505.661 643.516 503.547C648.824 501.222 654.557 499.108 659.864 496.783C662.2 495.726 690.862 480.505 685.979 493.4C684.705 496.571 678.123 495.514 676.425 496.36C669.843 499.742 672.815 498.897 673.24 503.759C673.665 510.312 673.24 507.987 670.905 512.849C669.206 516.231 668.357 520.671 667.083 524.264C662.837 524.898 658.591 525.956 654.344 526.801C653.283 539.485 663.261 539.274 671.329 545.615C676.212 549.632 682.794 551.535 687.677 555.34C692.773 559.145 694.896 566.967 701.902 566.755C704.025 566.755 704.874 564.218 706.997 564.218C712.305 564.218 713.367 566.755 717.613 568.235C725.256 570.983 733.749 571.617 741.604 575.422C748.823 578.805 753.069 582.61 760.712 583.244C767.294 583.667 778.759 585.569 780.882 594.237C783.217 593.391 791.71 600.156 794.47 602.27C798.716 605.441 802.113 613.474 807.421 614.108C816.126 615.165 816.55 603.75 815.276 597.619C814.003 591.7 806.784 589.163 807.421 583.244C804.873 577.114 806.572 567.812 804.024 561.682C801.689 558.088 797.23 554.071 795.319 549.632C791.922 541.81 796.805 536.314 800.627 529.338C805.298 520.248 807.209 524.053 815.701 519.191C820.16 516.654 828.44 510.946 831.2 507.353C832.686 507.141 832.474 507.141 832.261 506.507ZM275.793 614.108C270.91 611.994 267.513 617.068 266.239 620.873C263.054 617.702 259.445 617.49 258.595 622.141C256.472 627.215 260.294 632.077 260.931 637.362C261.78 643.281 259.445 650.68 260.931 654.908C260.294 658.924 263.054 661.461 266.876 662.729C267.937 659.981 268.786 657.444 269.848 654.696C272.82 655.542 275.368 655.542 278.128 654.908C280.888 644.972 279.19 635.671 278.34 625.946C278.128 622.775 281.1 616.433 275.793 614.108ZM304.242 335.698C302.332 333.584 300.209 331.47 298.085 329.356C297.024 329.568 296.387 329.356 295.75 329.356C296.812 334.007 302.756 342.04 306.153 336.544C305.941 336.967 305.092 335.698 305.092 335.698C309.338 336.544 313.16 331.893 313.372 328.722C316.981 329.145 318.68 327.454 318.255 323.649C315.707 320.478 316.557 315.827 316.557 311.599C316.344 311.176 315.283 309.696 314.858 309.062C310.187 308.005 307.003 310.542 306.79 314.981C304.242 313.924 304.242 315.616 302.332 312.233C298.722 314.347 297.873 318.787 295.75 321.535C303.181 323.649 308.489 328.299 305.092 335.91C304.879 335.698 304.455 335.698 304.242 335.698ZM508.911 735.238C505.089 736.507 503.815 734.181 499.145 734.604C498.932 733.97 498.72 732.49 498.508 731.856C497.021 731.856 495.747 731.856 494.261 731.645C489.378 738.409 478.338 727.628 473.455 729.319C473.03 729.531 473.455 730.799 473.03 731.222C471.969 730.588 471.332 730.376 469.845 730.165C465.599 737.141 473.242 734.816 476.639 736.084C480.886 737.775 484.07 743.06 487.68 743.906C490.227 744.54 495.111 741.792 498.295 741.158C502.966 739.889 508.062 741.792 509.548 736.295C509.335 736.084 509.123 735.661 508.911 735.238ZM273.457 595.716C274.519 590.009 279.614 581.13 275.368 576.691C272.82 579.862 267.513 581.553 265.602 584.935C262.417 591.066 264.116 598.465 265.602 605.229C273.245 607.555 272.608 600.367 273.457 595.716ZM278.553 324.071C278.553 323.86 278.553 323.649 278.553 323.437C278.34 323.437 278.553 323.649 278.553 324.071Z" fill="url(#paint0_linear_1_26)" fill-opacity="0.5"/>
<defs>
<linearGradient id="paint0_linear_1_26" x1="438.675" y1="-9.56086e-06" x2="556.42" y2="762.911" gradientUnits="userSpaceOnUse">
<stop stop-color="#5743BD"/>
<stop offset="1" stop-color="#A586E9"/>
</linearGradient>
</defs>
</svg>
