<svg width="167" height="167" xmlns="http://www.w3.org/2000/svg" xmlns:xlink="http://www.w3.org/1999/xlink" aria-hidden="true">
    <circle cx="83.009" cy="82.865" r="69.305" fill="#1C1C1C"/><path fill-rule="evenodd" clip-rule="evenodd" d="M69.19 98.575a4.046 4.046 0 00-.248-.723c-.101-.208-.217-.374-.357-.483-.201-.141-.52-.274-.907-.399-.388-.116-.83-.224-1.295-.316-.923-.191-1.9-.324-2.512-.399-.326-.041-.582-.34-.582-.69V81.578c0-3.791-.457-7.076-1.752-9.42-1.295-2.346-3.435-3.735-6.777-3.735-2.985 0-7.343 1.747-10.475 4.956a.727.727 0 01-.791.158.725.725 0 01-.458-.673v-4.066c0-.341-.046-.582-.14-.749a.458.458 0 00-.395-.25c-.163-.008-.349.042-.543.125-.201.084-.41.2-.636.333-.03.017-5.885 3.41-7.544 4.432-.24.167-.364.283-.426.45a1.079 1.079 0 00-.055.307c-.007.125-.007.274-.007.466 0 .34.015.582.1.748.086.175.24.266.481.308.364.066.698.116 1 .158.031.008.062.008.093.016.264.042.497.075.706.108.473.084.822.175 1.078.333.256.158.419.374.527.724.1.357.147.84.147 1.521 0 2.312.008 4.698.016 7.01.015 4.407.03 8.54-.016 11.392v3.958c0 .424.318.757.706.757h4.21c.396 0 .706-.341.706-.757v-11.75c.03-.606.077-1.322.155-2.087.233-2.336.721-4.897 1.651-6.535.815-1.43 1.45-2.428 2.203-3.185.713-.724 1.574-1.264 2.892-1.638 1.093-.308 1.9-.458 2.644-.433.729.017 1.473.2 2.442.64.83.383 1.357.849 1.73 1.43.286.45.519 1.015.705 1.78.14.848.21 1.788.21 2.81v18.952c0 .424.317.756.713.756h10.374c.404 0 .721-.357.683-.79-.055-.432-.124-1.03-.256-1.563zm54.498-33.525a.503.503 0 00-.431-.264c-.179-.009-.383.045-.596.135a5.7 5.7 0 00-.698.358c-.034.018-6.463 3.675-8.285 4.778-.264.179-.4.304-.468.484a1.16 1.16 0 00-.06.331c-.008.135-.008.296-.008.502 0 .368.017.628.11.807.094.188.264.287.528.332a25.43 25.43 0 001.15.179.303.303 0 01.051.009l.417.063.358.053c.519.09.902.189 1.183.359.281.17.46.403.579.78.111.385.162.905.162 1.64 0 2.492.009 5.496.017 7.987l.001.236c.017 4.662.032 9.02-.018 12.044v4.266c0 .457.349.816.775.816h4.623c.25 0 .61-.476.61-.952V65.05z" fill="#F9F7F4"/><path d="M74.49 80.677l13.167.078c-.05-3.266-.074-6.195-.074-8.787v-5.131l.818-.545 4.506 1.089-.075 13.374 13.539.077.744 4.718-.521.933a353.25 353.25 0 00-5.281-.233 364.96 364.96 0 00-8.48-.234c.049 3.214.123 6.169.222 8.864.1 2.748.174 4.588.224 5.521l-.893.544-4.655-.777-.074-14.152-12.646.078-1.042-4.562.52-.855z" fill="#F9F7F4"/><path fill-rule="evenodd" clip-rule="evenodd" d="M89.035 164.065c43.182 0 78.187-35.005 78.187-78.186 0-43.182-35.005-78.187-78.187-78.187-43.181 0-78.186 35.005-78.186 78.186 0 43.182 35.005 78.187 78.186 78.187zm0 .159c43.269 0 78.346-35.077 78.346-78.345 0-43.27-35.077-78.346-78.346-78.346-43.269 0-78.345 35.077-78.345 78.346 0 43.268 35.076 78.345 78.345 78.345z" fill="#1C1C1C"/><path fill-rule="evenodd" clip-rule="evenodd" d="M78.489 155.724c42.735 0 77.378-34.644 77.378-77.379 0-42.735-34.643-77.378-77.378-77.378S1.11 35.61 1.11 78.345s34.644 77.379 77.379 77.379zm0 .967c43.269 0 78.345-35.077 78.345-78.346C156.834 35.076 121.758 0 78.489 0S.144 35.076.144 78.345s35.076 78.346 78.345 78.346z" fill="#1C1C1C"/><path fill-rule="evenodd" clip-rule="evenodd" d="M89.035 161.052c43.182 0 78.187-35.005 78.187-78.187 0-43.181-35.005-78.186-78.187-78.186-43.181 0-78.186 35.005-78.186 78.186 0 43.182 35.005 78.187 78.186 78.187zm0 .159c43.269 0 78.346-35.077 78.346-78.346 0-43.269-35.077-78.345-78.346-78.345-43.269 0-78.345 35.076-78.345 78.345s35.076 78.346 78.345 78.346z" fill="#1C1C1C"/><path fill-rule="evenodd" clip-rule="evenodd" d="M86.023 158.911c42.831 0 77.552-34.721 77.552-77.552 0-42.831-34.721-77.553-77.552-77.553C43.192 3.806 8.47 38.528 8.47 81.36c0 42.831 34.721 77.552 77.553 77.552zm0 .793c43.269 0 78.345-35.076 78.345-78.345 0-43.27-35.076-78.346-78.345-78.346-43.27 0-78.346 35.077-78.346 78.346 0 43.269 35.077 78.345 78.346 78.345z" fill="#1C1C1C"/><path fill-rule="evenodd" clip-rule="evenodd" d="M81.502 164.337c41.667 0 75.445-33.778 75.445-75.445 0-41.667-33.778-75.445-75.445-75.445-41.667 0-75.445 33.778-75.445 75.445 0 41.667 33.778 75.445 75.445 75.445zm0 2.9c43.269 0 78.346-35.076 78.346-78.345s-35.077-78.345-78.346-78.345c-43.269 0-78.345 35.076-78.345 78.345s35.076 78.345 78.345 78.345z" fill="#1C1C1C"/><path fill-rule="evenodd" clip-rule="evenodd" d="M82.256 147.732c40.385 0 73.124-32.077 73.124-71.646 0-39.57-32.739-71.647-73.124-71.647S9.132 36.516 9.132 76.086c0 39.569 32.739 71.646 73.124 71.646zm0 1.426c41.189 0 74.579-32.716 74.579-73.072 0-40.357-33.39-73.073-74.579-73.073-41.189 0-74.579 32.716-74.579 73.073 0 40.356 33.39 73.072 74.579 73.072z" fill="#1C1C1C"/>
</svg>