<svg width="78" height="76" viewBox="0 0 78 76" fill="none" xmlns="http://www.w3.org/2000/svg">
<g filter="url(#filter0_bi)">
<path fill-rule="evenodd" clip-rule="evenodd" d="M30.573 23.5609C30.9751 23.1857 31.4432 22.8882 31.9533 22.6839L61.9363 10.6741C65.6493 9.18685 69.2361 12.9932 67.5307 16.611L53.7008 45.9499C53.4604 46.4599 53.1248 46.9199 52.7122 47.3049L31.6757 66.9356C30.1143 68.3927 28.1254 69.307 26.0082 69.5409C14.235 70.8418 4.60691 60.4403 6.55156 48.8048C6.91177 46.6494 7.97906 44.6451 9.58736 43.1442L30.573 23.5609ZM63.2265 13.9417C63.9691 13.6442 64.6864 14.4055 64.3453 15.129L50.5154 44.468C50.4673 44.57 50.4002 44.6619 50.3177 44.739L29.2813 64.3697C28.2798 65.3042 27.0042 65.8906 25.6462 66.0407C16.2338 67.0807 8.45806 58.7459 10.0267 49.3604C10.2597 47.9661 10.9518 46.6714 11.9818 45.7102L32.9674 26.1269C33.0479 26.0518 33.1415 25.9923 33.2435 25.9515L63.2265 13.9417Z" fill="white"/>
<path d="M30.6412 23.634C31.0343 23.2672 31.4919 22.9765 31.9905 22.7767L61.9735 10.7669C65.6022 9.31345 69.1069 13.0328 67.4402 16.5684L53.6103 45.9073C53.3753 46.4058 53.0473 46.8554 52.6439 47.2318L31.6075 66.8625C30.0618 68.3049 28.093 69.21 25.9973 69.4415C14.2913 70.735 4.71624 60.3928 6.65019 48.8213C7.00681 46.6875 8.06351 44.703 9.65559 43.2173L30.6412 23.634ZM64.4358 15.1717C64.8156 14.3659 64.0162 13.5176 63.1893 13.8488L33.2063 25.8586C33.0928 25.9041 32.9887 25.9703 32.8992 26.0538L11.9136 45.6371C10.8674 46.6134 10.1647 47.9281 9.92802 49.3439C8.3487 58.7936 16.1776 67.1875 25.6572 66.1401C27.0366 65.9877 28.3323 65.392 29.3495 64.4428L50.3859 44.8121C50.4777 44.7264 50.5524 44.6241 50.6059 44.5106L64.4358 15.1717Z" stroke="url(#paint0_linear)" stroke-opacity="0.1" stroke-width="0.2"/>
</g>
<g filter="url(#filter1_bi)">
<path fill-rule="evenodd" clip-rule="evenodd" d="M40.6218 33.9381C38.8149 32.0248 35.7776 31.924 33.8376 33.713L18.909 47.4798C16.969 49.2688 16.8611 52.2701 18.6679 54.1834L21.5305 57.2148C23.3373 59.1281 26.3747 59.2289 28.3146 57.4399L43.2432 43.6731C45.1832 41.8841 45.2912 38.8828 43.4843 36.9694L40.6218 33.9381ZM32.2018 31.9808C35.1118 29.2973 39.6678 29.4485 42.3781 32.3185L45.2407 35.3498C47.9509 38.2198 47.789 42.7218 44.879 45.4053L29.9504 59.1721C27.0404 61.8555 22.4844 61.7044 19.7742 58.8344L16.9116 55.803C14.2014 52.9331 14.3633 48.4311 17.2732 45.7476L32.2018 31.9808Z" fill="white"/>
</g>
<path d="M40.5529 39.4572L37.6817 36.3804C36.3225 34.924 34.04 34.8451 32.5835 36.2042L40.3766 44.5554C41.8331 43.1962 41.912 40.9137 40.5529 39.4572Z" fill="white"/>
<defs>
<filter id="filter0_bi" x="3.30078" y="7.34357" width="67.6669" height="65.3077" filterUnits="userSpaceOnUse" color-interpolation-filters="sRGB">
<feFlood flood-opacity="0" result="BackgroundImageFix"/>
<feGaussianBlur in="BackgroundImage" stdDeviation="1.5"/>
<feComposite in2="SourceAlpha" operator="in" result="effect1_backgroundBlur"/>
<feBlend mode="normal" in="SourceGraphic" in2="effect1_backgroundBlur" result="shape"/>
<feColorMatrix in="SourceAlpha" type="matrix" values="0 0 0 0 0 0 0 0 0 0 0 0 0 0 0 0 0 0 127 0" result="hardAlpha"/>
<feOffset dy="0.5"/>
<feGaussianBlur stdDeviation="1"/>
<feComposite in2="hardAlpha" operator="arithmetic" k2="-1" k3="1"/>
<feColorMatrix type="matrix" values="0 0 0 0 1 0 0 0 0 1 0 0 0 0 1 0 0 0 0.4 0"/>
<feBlend mode="normal" in2="shape" result="effect2_innerShadow"/>
</filter>
<filter id="filter1_bi" x="11.9805" y="27.0631" width="38.1917" height="37.0267" filterUnits="userSpaceOnUse" color-interpolation-filters="sRGB">
<feFlood flood-opacity="0" result="BackgroundImageFix"/>
<feGaussianBlur in="BackgroundImage" stdDeviation="1.5"/>
<feComposite in2="SourceAlpha" operator="in" result="effect1_backgroundBlur"/>
<feBlend mode="normal" in="SourceGraphic" in2="effect1_backgroundBlur" result="shape"/>
<feColorMatrix in="SourceAlpha" type="matrix" values="0 0 0 0 0 0 0 0 0 0 0 0 0 0 0 0 0 0 127 0" result="hardAlpha"/>
<feOffset dy="0.5"/>
<feGaussianBlur stdDeviation="1"/>
<feComposite in2="hardAlpha" operator="arithmetic" k2="-1" k3="1"/>
<feColorMatrix type="matrix" values="0 0 0 0 1 0 0 0 0 1 0 0 0 0 1 0 0 0 0.4 0"/>
<feBlend mode="normal" in2="shape" result="effect2_innerShadow"/>
</filter>
<linearGradient id="paint0_linear" x1="2.75118" y1="51.542" x2="56.8278" y2="1.07886" gradientUnits="userSpaceOnUse">
<stop stop-color="#7EE5FF"/>
<stop offset="1" stop-color="#41A9FF"/>
</linearGradient>
</defs>
</svg>
