<svg width="94" height="95" viewBox="0 0 94 95" fill="none" xmlns="http://www.w3.org/2000/svg">
<g filter="url(#filter0_bi)">
<path d="M33.821 58.2026C34.1503 58.6424 34.5588 59.0176 35.0254 59.309L59.3728 74.511C61.2388 75.676 63.4511 76.1882 65.6262 75.9783C77.3686 74.8451 84.9237 62.8531 80.62 51.8176C79.8461 49.8331 78.4482 48.1486 76.6367 47.0176L52.2302 31.7787C51.7515 31.4798 51.2204 31.2747 50.6656 31.1745L18.7469 25.4093C14.811 24.6984 12.0626 29.1481 14.4602 32.3496L33.821 58.2026Z" fill="white"/>
</g>
<path fill-rule="evenodd" clip-rule="evenodd" d="M35.0254 59.309C34.5588 59.0176 34.1503 58.6424 33.821 58.2026L14.4602 32.3496C12.0626 29.1481 14.811 24.6984 18.7469 25.4093L50.6656 31.1745C51.2204 31.2747 51.7515 31.4798 52.2302 31.7787L76.6367 47.0176C78.4482 48.1486 79.8461 49.8331 80.62 51.8176C84.9237 62.8531 77.3686 74.8451 65.6262 75.9783C63.4511 76.1882 61.2388 75.676 59.3728 74.511L35.0254 59.309ZM17.2825 30.2577C16.803 29.6174 17.3527 28.7275 18.1398 28.8697L50.0585 34.6349C50.1695 34.6549 50.2757 34.6959 50.3714 34.7557L74.7779 49.9946C75.9398 50.72 76.8364 51.8004 77.3328 53.0732C80.7735 61.8958 74.7352 71.5638 65.2635 72.4778C63.8564 72.6135 62.4266 72.2801 61.2316 71.534L36.8841 56.332C36.7908 56.2737 36.7091 56.1987 36.6432 56.1107L17.2825 30.2577Z" fill="#379FFF"/>
<path d="M35.0783 59.2241C34.6222 58.9394 34.223 58.5726 33.901 58.1427L14.5403 32.2897C12.1971 29.1608 14.8826 24.8129 18.7291 25.5077L50.6478 31.2729C51.1901 31.3709 51.7093 31.5714 52.1773 31.8636L76.5837 47.1024C78.377 48.2221 79.7608 49.8896 80.5269 51.854C84.806 62.8263 77.2944 74.7518 65.6166 75.8787C63.4632 76.0865 61.2729 75.5794 59.4258 74.4261L35.0783 59.2241ZM18.1576 28.7713C17.281 28.6129 16.6685 29.6047 17.2025 30.3177L36.5632 56.1706C36.6365 56.2685 36.7274 56.352 36.8312 56.4168L61.1786 71.6188C62.3925 72.3767 63.8443 72.7152 65.2731 72.5773C74.8096 71.657 80.8912 61.9224 77.4259 53.0369C76.9217 51.744 76.011 50.6466 74.8309 49.9097L50.4244 34.6709C50.3179 34.6044 50.1997 34.5588 50.0763 34.5365L18.1576 28.7713Z" stroke="url(#paint0_linear)" stroke-opacity="0.1" stroke-width="0.2"/>
<g filter="url(#filter1_b)">
<path fill-rule="evenodd" clip-rule="evenodd" d="M42.4482 46.917C41.0677 49.1574 41.7565 52.1174 43.9866 53.5282L61.1481 64.385C63.3783 65.7959 66.3053 65.1233 67.6858 62.8829L69.8729 59.3333C71.2534 57.0928 70.5646 54.1329 68.3345 52.722L51.173 41.8652C48.9428 40.4544 46.0158 41.1269 44.6354 43.3673L42.4482 46.917ZM42.7368 55.5565C39.3916 53.4403 38.3585 49.0004 40.4292 45.6397L42.6163 42.0901C44.6871 38.7294 49.0776 37.7206 52.4228 39.8368L69.5843 50.6937C72.9295 52.8099 73.9626 57.2499 71.8919 60.6106L69.7048 64.1602C67.634 67.5208 63.2435 68.5296 59.8984 66.4134L42.7368 55.5565Z" fill="#379FFF"/>
</g>
<path d="M47.7968 45.555L45.568 49.1246C44.5129 50.8145 45.0275 53.0396 46.7173 54.0947L52.7669 44.4057C51.0771 43.3506 48.8519 43.8652 47.7968 45.555Z" fill="#379FFF"/>
<defs>
<filter id="filter0_bi" x="10.564" y="22.3335" width="74.2778" height="56.6906" filterUnits="userSpaceOnUse" color-interpolation-filters="sRGB">
<feFlood flood-opacity="0" result="BackgroundImageFix"/>
<feGaussianBlur in="BackgroundImage" stdDeviation="1.5"/>
<feComposite in2="SourceAlpha" operator="in" result="effect1_backgroundBlur"/>
<feBlend mode="normal" in="SourceGraphic" in2="effect1_backgroundBlur" result="shape"/>
<feColorMatrix in="SourceAlpha" type="matrix" values="0 0 0 0 0 0 0 0 0 0 0 0 0 0 0 0 0 0 127 0" result="hardAlpha"/>
<feOffset dy="0.5"/>
<feGaussianBlur stdDeviation="1"/>
<feComposite in2="hardAlpha" operator="arithmetic" k2="-1" k3="1"/>
<feColorMatrix type="matrix" values="0 0 0 0 1 0 0 0 0 1 0 0 0 0 1 0 0 0 0.4 0"/>
<feBlend mode="normal" in2="shape" result="effect2_innerShadow"/>
</filter>
<filter id="filter1_b" x="36.3618" y="35.73" width="39.5978" height="34.7903" filterUnits="userSpaceOnUse" color-interpolation-filters="sRGB">
<feFlood flood-opacity="0" result="BackgroundImageFix"/>
<feGaussianBlur in="BackgroundImage" stdDeviation="1.5"/>
<feComposite in2="SourceAlpha" operator="in" result="effect1_backgroundBlur"/>
<feBlend mode="normal" in="SourceGraphic" in2="effect1_backgroundBlur" result="shape"/>
</filter>
<linearGradient id="paint0_linear" x1="69.2538" y1="78.9407" x2="6.5141" y2="39.7675" gradientUnits="userSpaceOnUse">
<stop stop-color="#7EE5FF"/>
<stop offset="1" stop-color="#41A9FF"/>
</linearGradient>
</defs>
</svg>
