<svg width="38" height="35" viewBox="0 0 38 35" fill="none" xmlns="http://www.w3.org/2000/svg">
<path d="M2.28904 3.75112C2.671 5.9254 3.05297 8.12906 3.46432 10.3327C3.78753 12.0369 4.14011 13.7411 4.52208 15.4158C4.63961 15.9741 4.87467 16.503 5.13911 17.0025C5.34478 17.3844 5.6386 17.3551 5.87366 17.0025C5.99119 16.8556 6.10872 16.7087 6.16748 16.5324C6.72574 14.9751 7.04894 13.3297 7.07833 11.6549C7.01956 11.0967 6.99018 10.5678 6.93142 10.0389C6.60821 7.2476 5.40354 4.86764 3.4937 2.86966C3.25865 2.6346 2.93544 2.45831 2.64162 2.34078C2.31842 2.22325 2.11274 2.39954 2.14213 2.75213C2.23027 3.10471 2.23027 3.42792 2.28904 3.75112ZM23.5617 8.3935C25.119 7.5708 26.7056 6.7481 28.351 6.07231C31.1717 4.89703 34.1099 4.13309 37.1363 3.66297C37.4595 3.63359 37.9002 3.36915 37.9883 3.10471C38.0765 2.86966 37.6358 2.19387 37.6358 2.19387C35.9904 -0.62682 32.2001 0.0783525 32.2001 0.0783525C31.9062 0.137117 31.583 0.225263 31.2892 0.284027C29.4381 0.636613 27.7046 1.25364 26.0592 2.10572C22.4452 3.92741 19.2132 6.30737 16.3043 9.09867C14.3651 10.9497 12.514 12.889 10.6923 14.8576C7.51906 18.3541 4.78652 22.1737 2.61224 26.3754C1.49572 28.5203 0.496726 30.7533 0.0266112 33.1627C-0.0615352 33.6034 0.0853757 34.1323 0.232286 34.573C0.291051 34.7493 0.614254 34.8962 0.849311 34.955C0.908075 34.955 1.11375 34.6611 1.17251 34.5142C1.70139 33.3683 2.11274 32.1343 2.75915 31.0765C4.05197 28.9316 5.40354 26.7867 6.84327 24.7594C9.16446 21.4686 11.8382 18.4422 14.6883 15.5921C17.4208 12.8596 20.1828 10.2152 23.5617 8.3935Z" fill="#FF4700"/>
</svg>
