<svg width="33" height="38" viewBox="0 0 33 38" fill="none" xmlns="http://www.w3.org/2000/svg">
<g clip-path="url(#clip0_537_3574)">
<path d="M9.1495 36.7119L9.80808 32.5287L8.34107 32.4947H1.33594L6.20415 1.62703C6.21926 1.53384 6.26837 1.44696 6.34015 1.38525C6.41192 1.32355 6.50385 1.28955 6.59955 1.28955H18.4112C22.3325 1.28955 25.0386 2.10554 26.4514 3.7161C27.1138 4.47164 27.5356 5.26118 27.7396 6.13006C27.9537 7.04175 27.9575 8.13099 27.7484 9.45948L27.7333 9.55644V10.4077L28.3957 10.7829C28.9535 11.0789 29.3968 11.4176 29.7368 11.8054C30.3034 12.4514 30.6699 13.2725 30.8248 14.2458C30.9847 15.2469 30.9318 16.4382 30.6699 17.7868C30.3677 19.3382 29.8791 20.6894 29.2192 21.795C28.6123 22.8137 27.8391 23.6586 26.9211 24.3134C26.0447 24.9355 25.0033 25.4077 23.8259 25.7099C22.685 26.0071 21.3843 26.157 19.9575 26.157H19.0383C18.381 26.157 17.7425 26.3937 17.2414 26.8181C16.7389 27.2512 16.4065 27.8431 16.3045 28.4903L16.2352 28.8668L15.0717 36.2397L15.0188 36.5104C15.005 36.596 14.981 36.6389 14.9458 36.6678C14.9143 36.6943 14.869 36.7119 14.8249 36.7119H9.1495Z" fill="#253B80"/>
<path d="M29.0233 9.65479C28.988 9.88019 28.9477 10.1106 28.9024 10.3474C27.3447 18.3448 22.0156 21.1075 15.2095 21.1075H11.744C10.9117 21.1075 10.2103 21.712 10.0806 22.533L8.30632 33.7855L7.80388 36.9752C7.71951 37.5142 8.13506 38.0002 8.67905 38.0002H14.8254C15.5532 38.0002 16.1715 37.4713 16.2861 36.7536L16.3465 36.4413L17.5038 29.0974L17.5781 28.6945C17.6914 27.9742 18.311 27.4453 19.0388 27.4453H19.958C25.913 27.4453 30.5747 25.0276 31.9372 18.0312C32.5063 15.1085 32.2117 12.6681 30.7056 10.9518C30.2498 10.4343 29.6844 10.0049 29.0233 9.65479Z" fill="#179BD7"/>
<path d="M27.3933 9.0049C27.1553 8.93564 26.9098 8.87268 26.6579 8.81602C26.4048 8.76061 26.1454 8.7115 25.8785 8.66869C24.9441 8.51758 23.9204 8.4458 22.8236 8.4458H13.5656C13.3377 8.4458 13.1211 8.49743 12.9272 8.59061C12.5003 8.79587 12.183 9.20008 12.1062 9.69496L10.1367 22.169L10.0801 22.5329C10.2098 21.7119 10.9112 21.1074 11.7435 21.1074H15.209C22.0151 21.1074 27.3442 18.3434 28.9019 10.3472C28.9485 10.1105 28.9875 9.88007 29.0228 9.65467C28.6286 9.44564 28.2018 9.26682 27.7421 9.11446C27.6288 9.07668 27.5117 9.04016 27.3933 9.0049Z" fill="#222D65"/>
<path d="M12.1063 9.69487C12.1831 9.19999 12.5004 8.79577 12.9273 8.59178C13.1225 8.49859 13.3378 8.44696 13.5658 8.44696H22.8237C23.9205 8.44696 24.9442 8.51874 25.8786 8.66985C26.1455 8.71266 26.4049 8.76177 26.658 8.81718C26.9099 8.87385 27.1554 8.93681 27.3934 9.00607C27.5118 9.04132 27.6289 9.07784 27.7435 9.11436C28.2031 9.26673 28.63 9.4468 29.0241 9.65457C29.4875 6.69914 29.0204 4.68688 27.4224 2.86476C25.6607 0.8588 22.4811 0 18.4126 0H6.60091C5.76981 0 5.06086 0.604434 4.93242 1.42672L0.0125783 32.6117C-0.084383 33.2288 0.391609 33.7853 1.01367 33.7853H8.30591L10.1368 22.1689L12.1063 9.69487Z" fill="#253B80"/>
</g>
<defs>
<clipPath id="clip0_537_3574">
<rect width="32.2067" height="38" fill="white"/>
</clipPath>
</defs>
</svg>
