<svg width="11" height="15" viewBox="0 0 11 15" fill="none" xmlns="http://www.w3.org/2000/svg">
<path d="M10.3059 3.50673C9.90312 2.7125 9.30708 2.03227 8.57265 1.52859C7.83821 1.02491 6.98894 0.713945 6.10291 0.624278C5.7021 0.584062 5.29826 0.584062 4.89745 0.624278C4.01144 0.714004 3.16218 1.02496 2.42772 1.52858C1.69326 2.0322 1.09714 2.71233 0.694147 3.50647C0.187117 4.51975 -0.00872735 5.66041 0.13128 6.78478C0.271288 7.90915 0.740886 8.96695 1.48093 9.82494L5.08966 14.2124C5.13949 14.2731 5.20214 14.3219 5.2731 14.3554C5.34406 14.3889 5.42157 14.4063 5.50005 14.4063C5.57853 14.4063 5.65603 14.3889 5.72699 14.3554C5.79795 14.3219 5.8606 14.2731 5.91044 14.2124L9.51917 9.82494C10.2592 8.967 10.7288 7.90925 10.8688 6.78492C11.0088 5.66059 10.813 4.51997 10.3059 3.50673ZM5.50005 8.03118C5.07976 8.03118 4.66891 7.90655 4.31946 7.67305C3.97001 7.43955 3.69764 7.10767 3.5368 6.71938C3.37597 6.33109 3.33388 5.90382 3.41588 5.49161C3.49787 5.0794 3.70026 4.70076 3.99745 4.40358C4.29463 4.10639 4.67327 3.904 5.08548 3.82201C5.49769 3.74002 5.92496 3.7821 6.31325 3.94293C6.70154 4.10377 7.03342 4.37614 7.26692 4.72559C7.50042 5.07505 7.62505 5.48589 7.62505 5.90618C7.62439 6.46956 7.40029 7.00968 7.00192 7.40805C6.60355 7.80642 6.06343 8.03052 5.50005 8.03118Z" fill="#FF4D35"/>
</svg>
