<svg width="36" height="36" viewBox="0 0 36 36" fill="none" xmlns="http://www.w3.org/2000/svg">
<path d="M18 1C8.616 1 1 8.616 1 18C1 27.384 8.616 35 18 35C27.384 35 35 27.384 35 18C35 8.616 27.384 1 18 1ZM18 6.1C20.822 6.1 23.1 8.378 23.1 11.2C23.1 14.022 20.822 16.3 18 16.3C15.178 16.3 12.9 14.022 12.9 11.2C12.9 8.378 15.178 6.1 18 6.1ZM18 30.24C13.75 30.24 9.993 28.064 7.8 24.766C7.851 21.383 14.6 19.53 18 19.53C21.383 19.53 28.149 21.383 28.2 24.766C26.007 28.064 22.25 30.24 18 30.24Z" fill="white"/>
</svg>
