<svg width="38" height="38" viewBox="0 0 38 38" fill="none" xmlns="http://www.w3.org/2000/svg">
<path d="M30.215 23.9247C30.8755 24.1705 31.1296 25.1279 31.1801 25.5455C31.2819 26.3074 31.0539 26.6021 30.7997 26.6021C30.5456 26.6021 30.1897 26.3074 29.8093 25.7181C29.4281 25.1279 29.2758 24.4652 29.4794 24.1209C29.6057 23.8995 29.8843 23.8018 30.215 23.9247ZM26.3558 26.7006C26.7622 26.7006 27.2192 26.8724 27.6256 27.216C28.4124 27.855 28.6413 28.5917 28.2349 29.1323C28.006 29.4025 27.6256 29.5743 27.1939 29.5743C26.7622 29.5743 26.3053 29.427 26.0007 29.1567C25.2896 28.5673 25.0868 27.584 25.5429 27.0442C25.7213 26.8228 26.0007 26.7006 26.3558 26.7006ZM17.4695 33.7993C7.82009 33.7993 0 26.2334 0 16.8993C0 7.56517 7.82088 0 17.4687 0C27.1174 0 34.9383 7.56593 34.9383 16.8993C34.9383 20.0677 34.0244 23.0406 32.476 25.5707C32.4247 25.644 32.2976 25.6196 32.2724 25.5211C31.6631 21.3701 29.0477 19.0851 25.2391 18.398C24.9084 18.3483 24.8579 18.1521 25.2896 18.1033C26.4576 18.0048 28.1078 18.0292 28.9712 18.1765C29.0217 17.7589 29.0477 17.3169 29.0477 16.8748C29.0477 10.7091 23.8675 5.69773 17.494 5.69773C11.1213 5.69773 5.94103 10.7091 5.94103 16.8748C5.94103 23.0406 11.1213 28.052 17.4948 28.052H18.0275C17.8465 27.0547 17.7698 26.0423 17.7986 25.0302C17.8247 24.3423 17.977 24.2438 18.2816 24.7843C19.8813 27.4618 22.1668 29.869 26.6352 30.8271C30.2915 31.6135 33.9478 32.522 37.8835 37.3609C38.2387 37.7785 37.7059 38.2205 37.2995 37.877C33.2881 34.4376 29.6317 33.3076 26.3053 33.3076C22.5724 33.3328 20.0344 33.7993 17.4695 33.7993Z" fill="#FF8C00"/>
</svg>
