<svg width="845" height="744" viewBox="0 0 845 744" fill="none" xmlns="http://www.w3.org/2000/svg">
<path d="M655.83 639.898C650.947 646.029 660.289 651.314 660.077 652.794C660.714 648.566 664.111 647.72 667.932 648.354C666.234 645.183 661.138 640.955 657.741 641.59L655.83 639.898ZM816.338 394.678C815.701 395.735 814.003 396.792 813.578 398.06C811.455 396.158 810.181 394.678 810.181 391.507C803.175 388.548 793.833 390.873 789.587 384.531C785.977 379.246 786.19 367.831 785.977 361.489C787.039 359.375 786.827 356.415 785.977 353.667C788.525 347.537 779.82 346.691 778.546 342.252C777.91 340.56 780.033 330.413 781.731 329.356C787.676 325.763 791.71 327.877 797.442 326.82C801.264 326.185 802.325 322.38 807.209 323.437C810.181 324.071 808.907 329.145 814.639 328.088C816.975 329.356 820.796 330.413 821.646 333.162C824.193 340.56 815.064 333.584 814.852 340.56C817.824 341.617 822.07 341.195 825.68 341.195C826.104 342.04 826.529 342.886 826.954 343.943C831.837 343.731 837.144 343.943 842.24 343.731C843.938 349.016 839.692 351.764 835.658 353.878C835.234 357.895 838.631 358.529 842.24 357.472C843.089 362.969 825.043 370.579 834.384 372.904C835.021 380.514 824.406 372.27 826.104 381.783C828.44 381.36 832.686 379.669 834.597 379.88C838.206 380.303 838.418 384.108 843.302 383.263C841.603 384.742 841.178 387.068 840.117 388.548C843.514 388.759 843.726 390.239 845 392.987C842.452 394.889 840.541 395.735 837.569 394.255C843.726 397.215 831.837 398.695 832.686 398.483C826.741 400.386 820.584 397.638 816.338 394.678ZM681.095 668.226C680.671 665.689 680.034 663.363 680.883 660.827C679.397 660.404 678.123 659.347 676.637 658.924C676.637 658.29 676.637 657.444 676.637 656.81C683.643 652.16 689.376 667.591 681.095 668.226ZM783.217 285.809C778.122 290.459 784.491 292.151 782.793 297.858C784.279 297.435 785.977 298.07 787.676 297.647C789.162 304.623 781.519 304.412 780.67 298.281C771.54 298.492 778.546 307.794 779.183 312.233C779.82 312.022 780.457 312.022 781.094 312.445C783.217 310.965 785.765 310.542 788.525 311.388C788.95 314.136 788.737 314.559 787.039 316.25C785.765 314.77 783.217 314.347 781.943 312.656C779.608 314.981 783.005 328.088 777.697 326.397C773.239 324.917 775.574 313.713 773.876 311.176C772.602 311.388 770.903 312.233 769.842 312.867C765.171 315.827 768.143 328.511 773.876 329.568C771.753 331.259 769.629 334.007 768.143 335.91C770.266 333.373 747.124 333.373 747.124 332.105C747.124 335.064 747.549 337.812 748.823 340.349C747.761 344.788 743.94 346.902 740.33 349.228C740.543 349.439 740.543 350.919 740.543 351.342C742.454 351.553 743.727 353.033 745.426 353.456C745.851 354.935 745.851 357.049 745.426 358.529C743.94 358.741 743.09 360.009 741.392 360.009C743.94 372.693 758.589 361.911 761.137 365.505C761.562 366.139 761.774 366.985 762.411 367.619C763.048 365.082 764.322 363.603 763.897 360.432C764.109 360.432 765.171 360.643 765.383 360.432C768.356 365.294 761.349 372.693 761.349 378.4C761.562 386.645 763.897 385.799 769.205 389.816C770.903 391.084 772.389 392.141 773.451 394.044C766.869 398.695 762.835 397.849 755.192 399.117C751.795 399.752 750.097 401.654 746.7 402.077C744.577 402.288 738.632 393.832 738.844 402.923C744.577 402.923 745.851 406.728 749.672 407.996C757.528 410.533 759.014 407.362 763.897 413.915C767.082 418.143 767.719 422.794 771.54 426.176C770.479 424.908 783.854 431.038 778.759 431.038C776.636 431.038 773.026 431.461 770.903 430.827C768.143 429.981 765.383 424.908 762.199 424.908C760.5 424.908 758.377 428.079 757.103 427.867C750.946 427.022 747.761 420.68 740.755 420.046C733.324 419.623 728.866 418.989 721.647 416.663C710.394 412.858 691.711 417.509 683.219 405.248C683.856 405.036 684.068 404.825 684.28 404.191C687.253 405.036 689.376 404.191 691.711 403.345C690.225 400.809 688.102 397.426 688.951 394.889C682.582 395.524 675.363 387.279 675.363 381.149C680.034 376.498 679.822 374.807 686.403 373.538C690.437 372.693 693.622 374.173 698.08 374.384C700.628 364.237 700.416 359.163 705.511 350.496C709.758 343.097 715.065 340.772 719.524 335.91C725.256 329.779 722.072 319.844 729.715 314.136C733.112 311.599 742.241 308.639 746.487 311.176C746.7 311.176 747.124 311.176 747.337 311.176C748.186 310.542 748.823 309.696 749.672 309.062C747.974 302.72 740.118 308.428 739.269 301.663C740.543 301.452 742.241 299.972 743.303 299.761C739.481 295.322 734.598 295.956 731.626 290.882C729.078 286.443 731.413 280.101 725.681 277.776C726.106 271.645 752.22 275.239 757.74 276.719C758.377 273.548 758.377 272.279 754.98 270.588C757.74 264.458 745.001 264.035 743.515 257.693C746.275 251.14 752.644 257.059 757.74 256.847C762.198 256.636 766.445 253.888 772.177 253.888C772.602 260.018 775.362 264.88 775.15 269.742C777.273 269.954 778.122 271.011 780.033 271.222C782.368 275.45 783.217 279.467 781.943 284.329C782.793 283.06 783.217 282.003 783.642 280.735C785.553 278.833 788.1 275.662 792.134 276.507C797.018 284.54 786.402 282.638 783.217 285.809ZM440.971 278.198C439.273 274.393 435.663 273.548 435.876 268.897C441.396 267.417 444.156 272.913 449.464 274.182C449.251 277.564 450.95 281.369 450.525 284.54C450.1 286.866 447.128 289.825 446.916 292.996C442.457 288.134 443.307 283.272 440.971 278.198ZM12.7386 506.507C16.9849 505.873 20.5941 503.759 25.0527 505.873C26.3265 505.239 25.6896 505.239 26.7512 505.027C29.0866 498.897 21.868 499.742 20.3819 495.303C25.4774 489.807 29.2989 477.968 36.7298 475.432C36.7298 475.432 40.1268 477.968 42.0376 477.334C45.0099 476.489 44.5854 471.415 45.8593 469.09C48.1946 465.496 57.5363 458.52 48.4069 454.926C47.9823 453.024 47.7701 449.641 48.1947 447.739C50.9547 444.568 45.2224 430.616 42.4623 427.233C31.8467 414.549 32.9083 435.266 25.6897 436.112C20.3819 436.746 19.3203 431.672 18.6833 427.445C18.0464 422.16 21.2311 423.217 16.9849 417.72C13.3755 413.07 5.73236 405.671 0 402.923V56.8658C1.48615 56.6544 2.54767 56.0202 4.03387 58.9797C6.5816 64.0533 11.0402 64.0533 11.0402 64.0533L18.8957 65.7444L23.1419 64.0533C23.1419 64.0533 23.9911 64.8988 23.9911 67.4356C23.9911 69.9724 32.6959 71.6636 32.6959 71.6636L36.9421 86.2499C36.9421 86.2499 52.4409 88.7867 58.598 87.0955C64.755 85.4044 68.152 80.1194 68.152 80.1194C68.152 80.1194 86.4107 70.6066 64.7549 67.2242L53.5025 65.533C53.5025 65.533 49.2563 67.2242 50.1055 64.6875C50.9548 62.1507 63.0565 51.7922 63.0565 51.7922C63.0565 51.7922 90.0201 50.9467 95.9648 49.2555C102.122 47.5643 83.0138 52.6378 86.4108 63.8419C89.8077 75.0459 95.1156 77.5827 92.5678 79.2738C90.0201 80.965 83.863 77.5827 84.7123 83.5018C85.5615 89.6323 83.0138 78.4283 85.5615 89.6323C88.1093 100.836 88.1093 100.836 88.1093 100.836L96.814 96.6084C96.814 96.6084 102.971 93.226 108.067 94.9172C113.374 96.6084 116.771 94.0716 116.771 94.0716C116.771 94.0716 122.928 104.43 131.421 103.584L136.516 107.812L146.07 110.349C146.07 110.349 148.618 116.48 142.673 122.399L138.427 129.375L143.523 130.22L148.83 135.294L154.987 131.912L162.843 128.529C162.843 128.529 164.541 130.22 167.089 130.22C169.637 130.22 169.637 130.22 169.637 130.22L176.643 124.09L180.889 119.016L186.197 120.708L189.594 122.399L192.991 124.936C192.991 124.936 191.293 130.009 189.594 132.757C187.896 135.294 181.739 136.985 181.739 136.985L175.582 137.831C175.582 137.831 170.486 139.522 172.185 143.961C173.883 148.189 179.191 146.498 179.191 146.498L182.588 149.88L187.683 145.652C187.683 145.652 189.382 148.189 192.779 147.344C196.176 146.498 196.176 142.27 200.634 140.368C204.881 138.676 204.031 137.831 209.339 136.985C214.435 136.14 212.736 144.807 214.435 136.14C216.133 127.472 216.133 127.472 216.133 127.472C216.133 127.472 220.379 123.244 221.229 120.496C222.078 117.959 222.078 117.959 222.078 117.959L216.982 107.601C216.982 107.601 216.982 104.219 219.53 103.373C222.078 102.528 223.776 98.0882 223.776 98.0882H232.481L235.878 97.2426L237.577 93.0146L243.734 90.4779L250.74 81.8106L244.158 81.3878C244.158 81.3878 240.761 85.6158 238.001 86.4613C235.454 87.3069 233.755 83.9246 231.844 86.4613C230.146 88.9981 226.536 86.4613 223.989 88.1525C221.441 89.8437 225.687 86.4613 221.441 89.8437C217.195 93.226 206.791 94.9172 206.791 94.9172C206.791 94.9172 195.539 95.7628 189.382 96.6084C183.225 97.454 181.526 99.9907 178.979 100.836C176.431 101.682 173.671 103.373 168.575 103.373C163.48 103.373 161.569 103.373 153.077 99.9907C144.372 96.6084 129.722 91.3235 129.722 91.3235C127.175 87.9411 125.476 80.965 125.476 80.965C125.476 80.965 128.873 80.1194 128.024 77.5827C127.175 75.0459 128.873 68.9154 128.873 68.9154L135.03 67.2242L140.126 62.9963C140.126 62.9963 144.372 56.8658 145.221 60.4595C146.07 63.8419 140.975 64.6875 146.07 63.8419C151.378 62.9963 151.378 62.9963 151.378 62.9963L159.234 58.1342C159.234 58.1342 162.631 56.443 165.391 55.5974C167.938 54.7518 169.637 56.443 171.548 53.9062C173.246 51.3694 180.253 48.8327 180.253 48.8327C180.253 48.8327 184.499 47.9871 187.259 46.2959C189.807 44.6048 193.416 39.3198 197.662 38.4742C201.908 37.6287 205.518 37.6286 205.518 37.6286H212.524L230.783 35.0919L238.638 33.4007C238.638 33.4007 241.186 35.0919 244.795 34.2463C248.192 33.4007 248.192 33.4007 248.192 33.4007L251.589 32.5551C244.583 30.8639 250.74 28.3272 244.583 30.8639C238.426 33.4007 245.432 23.8879 248.829 24.7334C252.226 25.579 255.835 22.1967 259.232 24.7334C262.629 27.2702 269.636 30.8639 269.636 30.8639L276.642 27.4816L283.648 25.7904C283.648 25.7904 285.347 27.4816 288.744 25.7904C292.141 24.0992 298.298 23.2537 295.75 22.4081C293.202 21.5625 280.251 18.1801 280.251 18.1801L274.094 15.6434L283.648 7.82169C290.654 8.66728 294.901 6.13051 294.901 6.13051C299.147 6.9761 294.901 6.9761 299.147 6.9761C303.393 6.9761 307.003 9.51286 307.003 9.51286L307.852 1.69118L316.556 0H320.803V4.22794C323.351 8.45588 331.206 15.432 331.206 15.432L332.055 3.38235C335.24 5.91911 357.32 26.8474 356.471 16.2776C356.259 13.7408 350.102 8.66727 348.616 6.34191C349.04 6.13051 349.465 6.13051 349.465 5.49632C355.197 4.43934 365.388 1.90257 370.271 5.91911C369.634 6.9761 369.634 7.61029 368.573 8.87867C368.997 9.72426 369.634 10.7812 369.422 11.8382C370.059 8.66727 377.49 25.7904 376.216 25.3676C380.038 26.636 384.921 17.7573 388.105 16.7004C390.866 15.8548 402.33 17.5459 405.09 18.6029C400.632 19.8713 393.838 21.3511 396.81 26.4246C398.509 24.7334 400.632 23.8878 402.118 21.7739C403.817 23.2537 405.09 22.4081 406.364 24.7334C411.247 23.6765 424.835 24.9448 427.171 29.1728C432.479 23.0423 430.356 18.8143 437.574 21.5625C440.546 22.8309 446.704 28.1158 448.402 30.6526C445.217 32.1323 440.971 33.8235 443.519 37.6286C445.854 35.3033 449.039 35.0919 451.374 36.7831C450.313 32.1323 453.922 30.6525 458.805 31.2867C460.504 32.7665 461.353 33.1893 463.052 34.0349C464.538 36.1489 465.812 38.6856 466.661 41.011C464.113 38.4742 460.716 37.2059 457.319 38.897C457.531 38.897 468.359 62.1507 476.427 44.182C477.913 44.6048 480.249 45.6617 481.31 46.9301C482.16 43.9706 481.735 41.011 480.461 38.2628C480.461 38.2628 492.351 47.5643 492.775 47.7757C496.384 49.4669 500.631 46.5073 503.815 50.1011C500.631 52.8492 496.172 53.0606 492.138 51.7922C493.624 58.9797 504.665 51.7922 505.726 60.0367C497.871 64.0533 484.07 56.6544 475.578 56.0202C476.852 58.3456 485.344 61.5165 488.317 63.2077C488.529 64.2647 489.166 65.9558 489.59 66.8014C491.289 65.9558 493.412 66.59 495.323 65.7444C498.083 68.9154 496.172 72.5091 498.295 75.4687C499.357 76.9485 502.117 75.8915 503.178 76.9485C504.452 78.2169 504.24 81.1764 505.726 82.022C509.335 84.3474 511.246 82.4448 514.431 84.5588C517.616 86.6727 519.526 91.5349 521.65 94.4944C517.616 99.3566 519.102 103.796 524.41 106.333C524.197 104.853 525.471 102.105 525.047 100.202C524.834 99.7794 528.868 101.471 529.505 102.105C530.567 103.584 528.019 106.121 528.656 107.39C529.93 110.138 535.874 117.537 531.416 120.073C531.628 120.496 532.265 122.187 532.265 123.033C538.21 123.456 542.668 128.529 547.551 127.261C551.161 133.603 550.948 134.871 556.681 139.522C557.318 139.311 556.893 138.465 557.53 138.465C559.016 138.254 574.727 169.54 577.275 152.206C578.974 151.994 581.734 152.417 583.22 153.051C585.768 155.588 584.706 159.393 583.644 162.776C587.041 164.255 593.199 161.93 597.657 163.621C601.691 165.101 603.602 169.118 606.999 171.231C609.546 172.923 613.368 172.923 615.704 175.037C614.854 175.459 614.217 175.037 613.368 175.459C613.156 176.094 613.156 176.728 613.368 177.362C614.854 177.785 614.854 177.785 615.916 178.419C619.101 176.728 622.497 177.996 625.045 180.11C624.621 181.167 624.408 182.436 623.984 183.281C627.168 183.07 628.442 183.915 630.353 186.452C628.23 186.452 626.744 187.086 625.045 187.086C625.258 187.086 625.682 187.086 625.894 187.086C623.559 188.355 620.374 188.989 617.402 189.412C622.073 191.948 627.168 188.143 631.415 191.314C639.058 197.233 623.134 199.981 633.113 205.478C630.99 207.169 628.442 207.38 625.258 206.535C625.47 206.958 625.258 208.86 625.258 209.494C626.319 209.494 627.381 209.917 628.442 210.129C629.504 214.356 627.593 219.43 627.805 222.812C628.018 226.617 629.079 231.057 630.778 233.805C631.839 233.594 629.079 234.228 628.867 234.439C629.716 235.285 630.353 236.976 630.99 238.033C628.442 238.033 629.291 239.724 626.107 238.033C626.531 242.049 627.593 244.163 627.805 247.969C626.744 247.546 624.621 246.066 623.771 245.22C622.922 236.976 616.128 243.318 617.827 249.237C622.285 248.18 625.894 250.505 627.381 253.888C628.867 257.693 609.759 266.36 606.786 267.629C602.753 269.531 599.143 272.068 593.835 271.011C584.918 269.108 577.487 260.23 571.543 253.888C570.481 252.619 569.844 250.294 568.358 249.448C565.598 247.969 564.112 249.448 562.413 248.603C558.804 246.912 554.345 247.969 554.345 241.838C546.49 248.391 547.127 249.871 546.065 259.173C545.428 264.035 543.518 265.515 541.819 269.531C540.121 273.336 540.545 275.873 539.696 279.255C538.21 286.02 532.477 290.882 529.505 297.013C525.896 303.989 526.533 311.599 521.013 317.73C528.443 326.185 494.898 325.551 501.48 307.582C497.658 307.371 493.412 309.696 489.803 310.753C487.68 308.217 486.193 307.16 482.796 307.371C480.886 303.566 479.187 299.549 476.852 296.378C476.215 298.281 474.941 299.972 474.729 302.298C471.332 298.704 469.845 294.053 470.482 288.98C478.55 288.134 469.421 273.759 469.633 268.263C474.092 268.051 473.879 262.978 472.181 259.595C475.153 258.75 477.701 257.27 478.126 254.099C468.784 253.676 463.052 250.928 454.771 248.814C451.162 247.969 445.642 250.928 446.067 245.009C446.067 243.318 451.162 240.992 452.224 240.358C448.402 235.073 433.965 238.667 441.82 228.309C444.793 224.292 454.347 224.504 451.587 217.316C458.593 215.625 464.75 212.877 463.476 204.632C463.476 203.575 463.901 200.827 463.476 198.502C472.393 196.811 457.319 183.915 456.47 178.63C457.744 178.208 459.23 176.094 460.079 175.671C456.682 171.866 449.888 170.174 445.43 166.158C440.334 161.507 437.15 160.662 431.417 157.491C428.869 156.011 426.958 152.84 424.411 151.572C421.651 150.303 419.952 152.417 416.768 150.515C413.795 148.612 406.789 140.579 406.364 138.042C407.214 136.14 408.912 131.912 408.487 129.586C408.7 130.221 403.604 121.13 403.604 121.13C398.721 114.366 392.352 116.268 387.893 110.983C379.613 118.805 367.724 105.698 359.231 109.504C353.286 112.252 349.04 125.147 357.32 127.684C358.594 126.415 359.868 126.627 361.142 125.781C366.025 128.952 365.601 135.505 370.696 140.368C374.73 144.173 379.188 146.709 383.647 150.303C387.469 153.474 394.475 154.743 396.598 157.279C400.207 161.507 397.447 168.061 406.152 167.215C408.487 170.597 408.275 175.248 406.364 178.842C407.85 179.053 409.124 180.11 410.398 180.11C411.035 181.379 410.611 181.379 411.46 182.224C407.85 186.241 406.577 188.355 406.152 192.583C405.94 194.485 407.638 196.388 407.638 198.713C407.638 201.461 405.303 204.209 405.303 207.38C405.303 212.665 409.974 212.454 405.303 216.893C404.878 217.316 398.721 218.373 397.659 218.796C397.659 218.796 394.263 223.447 394.05 223.869C389.167 219.43 383.647 230.211 377.49 230.634C370.696 231.057 363.69 228.309 357.745 226.195C347.129 222.39 326.535 225.138 318.255 216.259C313.584 218.796 282.799 223.235 288.319 232.114C294.901 233.382 305.729 224.504 304.879 237.399C306.79 235.708 309.55 234.651 311.461 232.959C314.221 235.285 314.646 238.667 316.981 241.627C321.227 236.765 331.418 238.667 336.514 238.244C341.609 237.822 354.136 231.691 352.437 241.838C359.656 240.992 366.45 239.513 368.997 247.969C371.121 247.546 371.97 248.603 373.881 248.603C375.367 252.619 373.244 255.367 376.004 258.327C377.49 256.847 386.195 248.814 386.407 248.814C389.379 248.603 391.078 249.871 390.866 252.831C390.016 260.23 365.388 260.441 362.628 270.165C365.176 271.222 365.6 273.336 366.874 275.027C360.717 280.101 365.176 285.597 366.237 291.305C377.065 292.151 378.551 282.003 385.77 279.044C387.893 278.198 394.475 278.41 397.023 279.044C405.515 280.947 401.693 283.483 404.241 288.98C406.152 292.785 409.974 294.264 411.035 298.492C412.521 304.2 409.549 313.29 409.124 319.209C408.063 332.316 411.884 331.259 423.774 333.373C425.472 336.121 426.109 338.869 426.746 342.04C428.445 342.886 435.876 346.48 436.725 346.268C444.793 345.423 440.759 338.658 445.854 335.064C452.436 330.202 464.325 339.081 470.695 339.081C471.119 340.138 471.544 340.983 471.969 342.04C476.002 342.886 483.433 346.691 488.529 348.805C495.747 351.764 497.871 354.724 501.48 361.911C504.877 360.854 506.788 358.318 507.425 354.724C513.794 355.358 517.828 346.902 516.979 340.983C520.8 339.503 524.41 342.04 529.08 341.829C530.567 346.268 534.388 346.691 538.21 348.594C540.545 348.382 542.456 350.496 544.367 353.033C547.976 350.707 552.222 347.537 547.551 343.52C548.613 342.463 551.161 341.195 552.647 340.983C559.441 353.033 564.324 338.235 566.66 333.162C568.146 332.527 569.844 330.836 570.906 330.413C568.358 329.568 567.296 328.722 567.296 326.608C563.05 326.82 558.167 327.665 560.503 332.527C557.106 332.739 553.709 332.739 550.312 332.527C550.312 331.682 550.312 331.048 550.312 330.202C551.161 329.991 551.798 329.991 553.072 330.625C553.921 327.877 553.708 324.494 553.921 321.535C555.619 321.112 559.229 320.266 560.927 320.055C568.57 323.437 565.386 315.827 562.201 312.233C558.379 307.794 549.675 308.428 551.161 302.086C564.112 305.257 557.105 284.752 556.256 278.833C558.592 279.467 559.229 279.255 560.927 280.735C561.139 280.735 562.838 279.89 562.626 279.678C570.481 287.288 575.789 289.614 587.466 290.882C588.103 291.516 588.952 292.996 589.377 293.842C586.829 294.687 585.98 296.801 584.281 298.281C591.5 301.663 590.651 311.176 590.226 318.787C581.521 320.266 585.768 325.551 581.946 330.625C583.857 330.202 585.768 330.836 587.678 330.413C588.103 337.812 578.124 335.698 578.549 342.674C579.398 342.674 580.035 342.252 580.884 342.463C584.494 348.171 577.063 361.277 589.589 361.066C590.014 361.066 593.623 357.472 596.171 357.261C598.931 357.049 601.479 358.529 603.602 359.798C603.814 362.334 605.3 364.871 605.725 366.774C610.396 364.237 613.58 362.757 619.313 363.18C623.134 371.002 631.839 371.424 637.572 376.286C644.153 381.571 647.338 392.353 651.796 398.906C654.344 402.5 656.892 406.516 660.077 408.842C665.384 412.858 674.089 413.915 680.034 416.875C681.308 429.347 678.548 429.347 689.588 434.209C697.231 437.592 699.142 441.608 702.964 449.007C706.361 447.95 709.545 449.43 713.791 448.584C717.613 447.95 720.798 441.608 723.77 440.974C736.509 438.226 723.982 458.097 727.167 465.285C729.927 462.536 733.749 461.691 737.995 461.691C738.42 462.959 739.694 464.228 740.118 465.285C743.727 461.691 752.432 450.487 752.22 462.748C752.432 462.748 752.857 462.748 753.069 462.748C753.706 462.114 754.131 461.479 754.555 460.845C759.226 460.634 771.54 463.593 763.26 468.456C763.26 468.456 764.109 470.992 764.109 471.415C764.746 471.626 765.595 471.204 766.445 471.204C767.082 472.683 767.294 474.375 767.294 475.854C759.014 476.911 755.192 481.774 747.761 483.888C743.727 484.944 740.755 483.888 737.146 485.156C733.112 486.424 734.598 490.864 728.653 489.807C728.229 493.189 731.626 497.417 731.201 499.108C730.139 503.336 725.044 504.604 722.284 507.564C715.49 514.329 716.339 530.395 717.825 539.273C718.887 546.25 719.949 554.917 722.709 561.47C726.318 570.138 733.324 571.617 743.515 571.617C749.672 571.617 754.98 567.178 760.925 572.886C761.774 571.617 763.26 570.772 764.109 569.503C776.423 572.886 778.546 564.43 789.162 563.584C794.47 573.943 804.024 562.316 809.969 561.047C812.092 565.275 824.193 578.382 829.289 572.251C831.412 579.862 825.467 584.935 824.83 591.911C823.981 599.733 827.166 607.766 824.83 616.011C822.495 624.255 822.92 625.946 825.467 632.711C827.803 638.63 829.926 644.549 831.412 650.68C833.96 661.884 830.563 659.558 826.529 667.803C822.07 676.682 833.323 691.479 825.043 698.244C823.557 699.512 817.612 698.667 815.913 698.667C814.639 698.667 813.578 700.992 812.729 700.569C811.03 700.147 809.969 698.033 808.482 697.821C805.935 697.398 805.085 695.496 800.415 696.341C799.353 696.553 792.984 700.358 792.347 701.204C788.525 706.277 790.224 710.082 784.916 715.367C784.279 716.001 779.82 721.075 779.396 721.075C772.389 721.92 776.211 717.058 773.451 714.31C764.959 705.431 750.309 707.545 738.632 705.643C737.995 705.643 737.57 705.009 737.146 705.009C736.296 706.066 735.023 706.7 734.386 707.545C730.776 704.797 731.413 701.204 729.29 697.821C726.742 694.016 722.921 693.17 720.585 691.691C716.127 688.52 716.127 690 713.791 683.235C712.093 678.584 711.881 675.413 709.121 671.185C697.443 671.397 705.299 657.867 706.573 653.216C710.607 646.029 698.717 635.248 695.957 629.54C695.108 627.637 693.622 620.027 692.773 619.182C688.951 614.954 681.096 616.222 676.212 613.262C671.329 610.514 664.747 599.522 658.166 600.79C657.317 597.196 657.104 593.603 656.255 590.009C658.378 588.318 659.652 585.781 659.864 583.033C661.563 577.536 656.467 575.211 652.858 572.463C646.701 568.023 647.763 570.137 641.818 570.56C637.572 570.772 632.688 569.08 628.867 569.715C624.621 570.349 622.497 573.943 617.614 574.154C602.328 574.788 591.5 546.25 576.85 550.055C563.687 553.437 558.379 562.95 553.921 574.365C547.976 590.009 537.361 596.773 525.471 607.555C522.923 609.88 523.136 613.262 520.376 615.376C517.403 617.702 513.794 617.702 510.397 619.182C507.637 620.45 502.541 623.832 499.781 625.946C496.809 628.06 492.987 629.329 496.172 632.288C494.898 637.996 485.769 642.647 483.221 649.2C480.249 656.387 483.858 663.786 484.495 672.031C486.83 671.185 489.378 671.608 491.926 671.185C493.2 678.584 505.726 676.047 510.609 680.698C515.28 677.95 522.074 673.511 525.259 680.064C528.231 678.584 530.991 679.218 532.69 681.755C530.779 688.097 526.32 686.828 521.65 689.788C516.766 692.748 516.129 696.341 511.883 700.147C509.972 701.838 504.028 705.22 501.692 705.643C493.624 706.7 495.535 704.797 494.474 697.187C492.775 684.926 489.378 685.349 480.673 679.852C473.242 675.202 476.852 660.404 467.085 659.558C465.599 648.566 478.975 644.338 473.667 631.443C467.722 630.597 467.085 628.06 461.565 630.174C458.168 631.443 456.045 635.248 452.436 636.516C452.436 638.63 451.162 640.11 451.374 642.224C447.977 641.167 446.704 637.784 447.128 634.191C448.402 630.597 452.011 628.694 455.196 626.369C459.442 623.409 462.202 619.816 466.024 616.433C473.242 610.303 484.92 612.417 480.886 599.522C485.981 595.716 493.624 597.408 498.932 594.237C504.452 591.066 507.425 583.033 511.459 577.748C515.068 573.097 515.705 568.446 518.253 564.007C520.376 559.99 522.711 559.99 525.471 557.031C532.902 549.632 532.69 544.981 531.204 534.623C531.84 532.932 532.477 529.126 532.69 527.435C528.868 524.053 523.985 521.305 519.739 517.922C518.889 518.134 517.616 518.557 516.554 518.768C512.945 525.956 522.711 528.492 514.855 535.257C511.883 538.005 509.548 535.891 506.151 537.794C503.603 539.273 502.117 542.867 500.206 544.77C497.658 547.095 495.323 546.884 492.987 549.843C491.077 552.169 491.501 555.763 489.378 558.511C484.707 564.641 478.126 565.698 471.756 567.178C474.092 568.446 474.304 570.349 475.79 571.406C473.03 575.634 470.907 572.04 467.085 573.943C464.325 575.422 461.778 578.805 459.655 581.13C452.861 588.106 444.368 593.18 437.786 600.367C434.814 603.75 429.719 609.034 429.719 613.897C429.719 616.011 430.143 617.068 430.78 618.97C431.417 620.661 434.177 621.084 434.814 622.564C433.328 618.547 429.082 618.759 430.143 613.051C430.78 609.669 436.725 607.343 437.786 603.115C437.574 624.889 427.383 648.354 410.823 662.729C411.672 663.152 412.521 663.575 413.371 663.786C411.46 667.803 407.426 671.608 403.18 672.242C402.967 673.511 402.967 674.779 403.18 676.047C405.09 675.625 407.001 676.47 408.912 675.836C409.974 677.104 411.46 680.275 411.46 681.966C409.761 684.715 409.549 685.56 406.577 685.137C402.118 690.845 404.878 703.529 397.023 706.489C396.386 706.066 395.749 705.22 395.112 704.797C394.263 706.277 392.989 707.123 392.352 709.025C392.564 709.237 389.804 709.237 390.016 709.025C390.016 707.757 390.016 706.488 389.592 705.22C387.681 706.488 384.284 707.334 382.373 708.391C382.798 703.74 389.379 688.731 379.613 689.999C379.825 689.365 379.613 687.674 379.401 687.04C379.401 686.829 380.887 685.983 381.099 685.772C380.675 684.715 380.25 683.869 380.25 682.601C384.284 679.852 395.749 677.738 395.749 672.876C388.105 671.185 385.345 672.665 380.25 677.104C376.428 680.487 369.634 687.251 369.847 676.682C371.97 674.99 374.518 673.299 377.278 672.242C374.093 672.031 371.121 670.551 370.696 667.169C377.49 662.518 391.29 670.974 388.955 658.713C388.53 657.022 384.709 655.965 384.496 651.948C384.496 649.834 387.469 644.549 387.893 642.435C389.592 636.516 390.866 630.808 386.832 624.466C379.825 623.198 385.345 631.231 379.188 632.077C375.367 632.711 372.394 627.849 372.182 624.678C372.182 624.466 373.244 623.41 373.668 622.987C370.484 618.97 360.93 621.507 355.834 620.027C349.677 618.125 344.369 615.376 341.185 623.198C340.123 621.507 338 620.027 336.938 618.547C339.062 622.564 335.028 625.735 331.631 627.849C333.329 628.906 333.541 629.54 335.877 629.751C339.486 633.345 339.274 643.704 336.726 649.411C336.089 650.68 333.117 649.834 332.268 651.314C331.418 653.005 331.206 655.753 330.781 657.444C329.932 661.038 330.569 666.534 330.994 670.128C331.206 672.876 334.178 670.551 332.48 676.47C332.055 677.95 328.021 683.658 327.384 685.349C322.501 695.284 322.926 703.106 310.187 702.895C313.584 704.586 311.886 704.163 311.036 707.123C302.332 700.992 299.996 709.025 294.688 713.042C287.682 718.115 283.224 714.099 275.793 711.985C276.217 710.505 275.58 707.757 276.43 706.277C264.965 699.512 256.26 715.367 247.131 718.115C235.666 721.709 226.749 710.716 220.167 703.318C214.222 714.522 211.887 708.391 204.244 703.529C202.97 703.952 199.573 705.431 198.511 706.066C199.148 709.025 208.702 714.31 203.394 718.961C197.874 723.612 194.053 712.619 194.902 708.814C187.683 708.391 180.889 705.432 173.883 705.22C169 705.009 165.178 707.123 160.508 707.545C154.35 708.18 151.378 706.277 145.858 703.952C137.79 700.569 132.482 700.147 123.778 700.358C116.559 700.569 112.525 696.976 105.731 696.13C98.9371 695.496 92.5678 700.781 85.7739 698.667C73.8844 695.073 91.2939 671.185 90.2324 660.615C89.1708 649.411 77.069 644.972 90.0201 635.882C93.4171 633.556 95.5402 633.979 97.2386 629.963C99.3618 624.466 97.2386 616.856 98.7249 610.726C99.1495 609.034 120.381 605.441 122.716 605.864C129.298 607.132 133.544 615.165 140.975 614.742C143.098 616.433 143.523 616.856 147.132 616.433C150.741 619.393 150.529 614.319 153.926 614.954C157.96 615.588 160.295 617.702 164.329 618.336C170.274 619.393 174.732 617.702 180.889 615.588C188.32 613.051 210.401 606.921 213.161 598.253C222.927 594.448 226.749 597.831 236.727 599.522C245.22 600.79 250.528 599.522 259.02 603.75C265.389 606.709 271.122 613.685 278.553 614.108C284.922 614.531 294.476 611.783 300.633 609.88C308.701 607.343 318.892 598.465 317.193 588.318C318.255 588.106 318.467 587.683 320.166 587.683C322.289 583.033 319.104 580.707 317.193 576.902C316.344 575 316.132 572.463 314.858 570.772C313.796 569.503 310.399 569.081 309.763 568.024C307.427 564.007 309.763 558.933 308.064 554.494C306.578 550.478 301.27 551.957 301.907 545.404C309.975 540.753 299.784 541.599 298.51 540.753C294.264 538.216 292.565 539.485 291.504 533.354C298.935 528.281 284.497 518.134 280.251 513.06C271.546 502.49 268.999 500.799 255.198 501.011C255.411 503.97 257.534 505.239 260.931 504.604C261.568 515.174 230.57 505.873 236.94 519.402C239.912 520.248 242.46 521.305 246.069 520.882C247.555 522.573 248.617 525.321 248.829 527.224C243.734 530.606 239.275 531.875 237.577 537.794C235.666 544.136 239.912 551.534 229.509 549.421C222.715 548.152 220.167 540.965 215.072 537.371C208.278 532.72 201.908 535.468 194.69 531.875C194.265 529.972 194.477 528.069 195.327 526.378C201.271 522.573 211.25 530.606 212.736 522.996C215.709 520.036 216.982 515.174 216.133 510.735C211.25 508.832 206.367 505.661 201.484 503.547C196.176 501.222 190.443 499.108 185.136 496.783C182.8 495.726 154.138 480.505 159.021 493.4C160.295 496.571 166.877 495.514 168.575 496.36C175.157 499.742 172.185 498.897 171.76 503.759C171.335 510.312 171.76 507.987 174.095 512.849C175.794 516.231 176.643 520.671 177.917 524.264C182.163 524.898 186.409 525.956 190.656 526.801C191.717 539.485 181.739 539.274 173.671 545.615C168.788 549.632 162.206 551.535 157.323 555.34C152.227 559.145 150.104 566.967 143.098 566.755C140.975 566.755 140.126 564.218 138.003 564.218C132.695 564.218 131.633 566.755 127.387 568.235C119.744 570.983 111.251 571.617 103.396 575.422C96.1771 578.805 91.9309 582.61 84.2877 583.244C77.706 583.667 66.2412 585.569 64.1181 594.237C61.7827 593.391 53.2901 600.156 50.53 602.27C46.2838 605.441 42.8869 613.474 37.5792 614.108C28.8744 615.165 28.4497 603.75 29.7236 597.619C30.9974 591.7 38.2161 589.163 37.5792 583.244C40.1269 577.114 38.4283 567.812 40.976 561.682C43.3115 558.088 47.7701 554.071 49.6808 549.632C53.0778 541.81 48.1946 536.314 44.373 529.338C39.7022 520.248 37.7914 524.053 29.2989 519.191C24.8403 516.654 16.5602 510.946 13.8002 507.353C12.314 507.141 12.5263 507.141 12.7386 506.507ZM569.207 614.108C574.09 611.994 577.487 617.068 578.761 620.873C581.946 617.702 585.555 617.49 586.405 622.141C588.528 627.215 584.706 632.077 584.069 637.362C583.22 643.281 585.555 650.68 584.069 654.908C584.706 658.924 581.946 661.461 578.124 662.729C577.063 659.981 576.214 657.444 575.152 654.696C572.18 655.542 569.632 655.542 566.872 654.908C564.112 644.972 565.81 635.671 566.66 625.946C566.872 622.775 563.9 616.433 569.207 614.108ZM540.758 335.698C542.668 333.584 544.791 331.47 546.915 329.356C547.976 329.568 548.613 329.356 549.25 329.356C548.188 334.007 542.244 342.04 538.847 336.544C539.059 336.967 539.908 335.698 539.908 335.698C535.662 336.544 531.84 331.893 531.628 328.722C528.019 329.145 526.32 327.454 526.745 323.649C529.293 320.478 528.443 315.827 528.443 311.599C528.656 311.176 529.717 309.696 530.142 309.062C534.813 308.005 537.997 310.542 538.21 314.981C540.758 313.924 540.758 315.616 542.668 312.233C546.278 314.347 547.127 318.787 549.25 321.535C541.819 323.649 536.511 328.299 539.908 335.91C540.121 335.698 540.545 335.698 540.758 335.698ZM336.089 735.238C339.911 736.507 341.185 734.181 345.855 734.604C346.068 733.97 346.28 732.49 346.492 731.856C347.979 731.856 349.253 731.856 350.739 731.645C355.622 738.409 366.662 727.628 371.545 729.319C371.97 729.531 371.545 730.799 371.97 731.222C373.031 730.588 373.668 730.376 375.155 730.165C379.401 737.141 371.758 734.816 368.361 736.084C364.114 737.775 360.93 743.06 357.32 743.906C354.773 744.54 349.889 741.792 346.705 741.158C342.034 739.889 336.938 741.792 335.452 736.295C335.665 736.084 335.877 735.661 336.089 735.238ZM571.543 595.716C570.481 590.009 565.386 581.13 569.632 576.691C572.18 579.862 577.487 581.553 579.398 584.935C582.583 591.066 580.884 598.465 579.398 605.229C571.755 607.555 572.392 600.367 571.543 595.716ZM566.447 324.071C566.447 323.86 566.447 323.649 566.447 323.437C566.66 323.437 566.447 323.649 566.447 324.071Z" fill="url(#paint0_linear_1_440)" fill-opacity="0.1"/>
<defs>
<linearGradient id="paint0_linear_1_440" x1="406.325" y1="-9.56086e-06" x2="288.58" y2="762.911" gradientUnits="userSpaceOnUse">
<stop stop-color="#5743BD"/>
<stop offset="1" stop-color="#A586E9"/>
</linearGradient>
</defs>
</svg>
