<svg width="40" height="40" viewBox="0 0 40 40" fill="none" xmlns="http://www.w3.org/2000/svg">
<path d="M34.6127 21.8604C34.6919 21.2667 34.7315 20.6531 34.7315 20C34.7315 19.3667 34.6919 18.7333 34.5929 18.1396L38.6106 15.0125C38.9669 14.7354 39.0658 14.201 38.8481 13.8052L35.0481 7.23438C34.8106 6.79896 34.3158 6.66042 33.8804 6.79896L29.1502 8.69896C28.1606 7.94687 27.1117 7.31354 25.944 6.83854L25.2315 1.81146C25.1523 1.33646 24.7565 1 24.2815 1H16.6815C16.2065 1 15.8304 1.33646 15.7512 1.81146L15.0388 6.83854C13.871 7.31354 12.8023 7.96667 11.8325 8.69896L7.10229 6.79896C6.66687 6.64062 6.17208 6.79896 5.93458 7.23438L2.15438 13.8052C1.91688 14.2208 1.99604 14.7354 2.39188 15.0125L6.40958 18.1396C6.31063 18.7333 6.23146 19.3865 6.23146 20C6.23146 20.6135 6.27104 21.2667 6.37 21.8604L2.35229 24.9875C1.99604 25.2646 1.89708 25.799 2.11479 26.1948L5.91479 32.7656C6.15229 33.201 6.64708 33.3396 7.0825 33.201L11.8127 31.301C12.8023 32.0531 13.8512 32.6865 15.019 33.1615L15.7315 38.1885C15.8304 38.6635 16.2065 39 16.6815 39H24.2815C24.7565 39 25.1523 38.6635 25.2117 38.1885L25.9242 33.1615C27.0919 32.6865 28.1606 32.0531 29.1304 31.301L33.8606 33.201C34.296 33.3594 34.7908 33.201 35.0283 32.7656L38.8283 26.1948C39.0658 25.7594 38.9669 25.2646 38.5908 24.9875L34.6127 21.8604ZM20.4815 27.125C16.5627 27.125 13.3565 23.9188 13.3565 20C13.3565 16.0813 16.5627 12.875 20.4815 12.875C24.4002 12.875 27.6065 16.0813 27.6065 20C27.6065 23.9188 24.4002 27.125 20.4815 27.125Z" fill="white"/>
</svg>
