<svg width="276" height="112" viewBox="0 0 276 112" fill="none" xmlns="http://www.w3.org/2000/svg">
<path fill-rule="evenodd" clip-rule="evenodd" d="M138.645 83.2443H136.006C135.388 83.2386 134.794 83.4772 134.351 83.9081C133.909 84.3388 133.655 84.9272 133.645 85.5445V99.8607C133.646 100.012 133.678 100.161 133.738 100.301C133.797 100.44 133.884 100.566 133.992 100.671C134.101 100.777 134.228 100.86 134.369 100.916C134.509 100.972 134.66 101 134.811 100.998H138.645C139.825 101.022 140.999 100.81 142.097 100.375C143.195 99.9392 144.195 99.289 145.038 98.4624C145.882 97.6357 146.552 96.6492 147.009 95.5603C147.467 94.4715 147.702 93.3023 147.702 92.1213C147.702 90.9404 147.467 89.7712 147.009 88.6823C146.552 87.5935 145.882 86.6068 145.038 85.7801C144.195 84.9536 143.195 84.3035 142.097 83.868C140.999 83.4326 139.825 83.2206 138.645 83.2443ZM138.645 96.3959H138.367V87.8466H138.645C139.216 87.83 139.786 87.9283 140.319 88.1356C140.852 88.343 141.338 88.6553 141.749 89.0539C142.159 89.4524 142.485 89.9292 142.708 90.4562C142.93 90.983 143.045 91.5493 143.045 92.1213C143.045 92.6934 142.93 93.2595 142.708 93.7865C142.485 94.3133 142.159 94.7903 141.749 95.1888C141.338 95.5874 140.852 95.8995 140.319 96.1069C139.786 96.3142 139.216 96.4127 138.645 96.3959ZM116.038 87.8466C116.189 87.8487 116.34 87.821 116.48 87.7652C116.621 87.7092 116.749 87.6261 116.857 87.5206C116.965 87.4151 117.052 87.2893 117.111 87.1504C117.171 87.0114 117.203 86.862 117.205 86.7109V84.38C117.2 84.0749 117.075 83.7839 116.857 83.571C116.638 83.3581 116.344 83.2405 116.038 83.2443H109.1C108.794 83.2405 108.5 83.3579 108.281 83.5708C108.062 83.7837 107.936 84.0748 107.932 84.38V98.698C107.942 99.3159 108.196 99.9042 108.639 100.335C109.082 100.766 109.677 101.005 110.295 100.998H116.038C116.189 101 116.34 100.973 116.48 100.917C116.621 100.861 116.749 100.778 116.857 100.672C116.965 100.567 117.052 100.441 117.111 100.302C117.171 100.163 117.203 100.014 117.205 99.8625V97.5335C117.203 97.3823 117.171 97.2329 117.111 97.0938C117.052 96.9548 116.965 96.8288 116.857 96.7232C116.749 96.6175 116.621 96.5344 116.48 96.4782C116.34 96.422 116.189 96.3941 116.038 96.3959H112.656V94.4161H116.038C116.189 94.4182 116.34 94.3905 116.48 94.3347C116.621 94.2788 116.749 94.1956 116.857 94.0901C116.965 93.9847 117.052 93.8588 117.111 93.7199C117.171 93.5809 117.203 93.4316 117.205 93.2804V90.9567C117.2 90.6517 117.075 90.3606 116.857 90.1477C116.638 89.9348 116.344 89.8172 116.038 89.821H112.656V87.8412H116.038V87.8466ZM106.474 84.38C106.47 84.0749 106.344 83.7839 106.126 83.571C105.907 83.3581 105.613 83.2405 105.307 83.2443H102.919C102.614 83.2405 102.32 83.3581 102.101 83.571C101.882 83.7839 101.757 84.0749 101.753 84.38V89.8192H97.7301V85.7407V84.38C97.7253 84.0748 97.5997 83.7837 97.3807 83.5708C97.1618 83.3579 96.8673 83.2405 96.5619 83.2443H94.1717C94.0201 83.2418 93.8695 83.2691 93.7285 83.3248C93.5875 83.3806 93.4589 83.4635 93.3501 83.569C93.2412 83.6745 93.1543 83.8005 93.0942 83.9396C93.0341 84.0789 93.0021 84.2285 93 84.38V99.8589C93.0016 100.011 93.0333 100.161 93.0932 100.301C93.153 100.44 93.2399 100.566 93.3488 100.672C93.4577 100.778 93.5865 100.862 93.7277 100.918C93.8689 100.973 94.0198 101.001 94.1717 100.998H96.5637C96.8689 101.002 97.1632 100.885 97.3819 100.672C97.6006 100.459 97.7258 100.168 97.7301 99.8625V94.4215H101.751V99.8625C101.753 100.014 101.785 100.163 101.844 100.302C101.904 100.442 101.991 100.567 102.099 100.673C102.208 100.778 102.336 100.861 102.477 100.917C102.617 100.973 102.768 101.001 102.919 100.998H105.307C105.459 101 105.609 100.973 105.749 100.917C105.89 100.861 106.018 100.778 106.126 100.672C106.234 100.567 106.321 100.441 106.381 100.302C106.44 100.163 106.472 100.014 106.474 99.8625V85.7407V84.38ZM148.096 64.0703H145.545C145.394 64.0682 145.244 64.0959 145.103 64.1519C144.963 64.2078 144.835 64.2908 144.726 64.3963C144.617 64.5018 144.531 64.6276 144.471 64.7665C144.411 64.9055 144.379 65.0549 144.377 65.206V80.6849C144.379 80.8364 144.411 80.986 144.471 81.1251C144.53 81.2643 144.617 81.3903 144.725 81.4959C144.834 81.6016 144.962 81.6849 145.103 81.7409C145.243 81.7969 145.394 81.8246 145.545 81.8224H148.096C148.247 81.8244 148.397 81.7965 148.538 81.7403C148.678 81.6842 148.806 81.6009 148.914 81.4954C149.023 81.3897 149.109 81.2637 149.169 81.1248C149.229 80.9857 149.26 80.8363 149.262 80.6849V65.206C149.258 64.901 149.133 64.6099 148.914 64.397C148.695 64.1841 148.401 64.0665 148.096 64.0703ZM126.778 68.6726C126.929 68.6746 127.08 68.6467 127.22 68.5905C127.361 68.5344 127.489 68.451 127.597 68.3455C127.705 68.2399 127.792 68.1139 127.851 67.975C127.911 67.8358 127.943 67.6864 127.944 67.5351V65.2078C127.94 64.9028 127.815 64.6117 127.596 64.3988C127.378 64.1857 127.083 64.0683 126.778 64.0721H119.834C119.683 64.07 119.533 64.0977 119.392 64.1537C119.252 64.2096 119.123 64.2926 119.015 64.3981C118.906 64.5036 118.82 64.6294 118.76 64.7683C118.7 64.9073 118.668 65.0567 118.666 65.2078V79.5258C118.677 80.1435 118.931 80.7321 119.374 81.1631C119.816 81.594 120.412 81.8323 121.029 81.826H126.778C126.929 81.828 127.08 81.8001 127.22 81.7439C127.361 81.6878 127.489 81.6045 127.597 81.499C127.705 81.3933 127.792 81.2673 127.851 81.1284C127.911 80.9893 127.943 80.8399 127.944 80.6885V78.3595C127.94 78.0542 127.815 77.763 127.596 77.5497C127.378 77.3364 127.084 77.2187 126.778 77.222H123.391V75.2421H126.776C127.082 75.2461 127.376 75.1285 127.595 74.9156C127.813 74.7027 127.938 74.4116 127.943 74.1064V71.7846C127.941 71.6334 127.909 71.484 127.849 71.3448C127.79 71.2059 127.703 71.0799 127.595 70.9743C127.487 70.8686 127.359 70.7854 127.218 70.7293C127.078 70.6731 126.927 70.6452 126.776 70.647H123.391V68.6672H126.776L126.778 68.6726ZM167.425 64.0703H160.481C160.175 64.0665 159.881 64.1839 159.662 64.3968C159.443 64.6097 159.317 64.9008 159.313 65.206V79.524C159.323 80.1419 159.577 80.7303 160.02 81.1613C160.463 81.5922 161.058 81.8305 161.676 81.8242H167.425C167.576 81.8267 167.727 81.799 167.867 81.7432C168.008 81.6872 168.137 81.6041 168.246 81.4984C168.354 81.3928 168.441 81.2666 168.501 81.1273C168.561 80.988 168.593 80.8384 168.594 80.6867V78.3595C168.59 78.0542 168.465 77.763 168.246 77.5497C168.028 77.3364 167.734 77.2187 167.428 77.222H164.039V75.2421H167.425C167.729 75.247 168.024 75.1307 168.243 74.9188C168.462 74.707 168.589 74.4167 168.594 74.1118V71.7846C168.593 71.6334 168.561 71.484 168.501 71.3448C168.442 71.2059 168.355 71.0799 168.247 70.9743C168.139 70.8686 168.011 70.7854 167.87 70.7293C167.73 70.6731 167.579 70.6452 167.428 70.647H164.039V68.6672H167.425C167.73 68.672 168.024 68.5556 168.244 68.3432C168.463 68.131 168.589 67.8403 168.594 67.5351V65.2078C168.593 65.0563 168.561 64.9065 168.501 64.7674C168.441 64.6281 168.354 64.5019 168.246 64.3963C168.137 64.2906 168.008 64.2075 167.867 64.1515C167.727 64.0955 167.576 64.068 167.425 64.0703ZM102.023 64.1261H98.2196C96.8546 64.1079 95.5382 64.6322 94.5595 65.5838C93.5808 66.5356 93.0199 67.8369 93 69.2017C92.9998 69.872 93.1348 70.5353 93.3971 71.1519C93.6593 71.7687 94.0434 72.3261 94.5263 72.7907L98.3276 76.4714C98.3719 76.5144 98.4069 76.5659 98.4308 76.623C98.4546 76.6798 98.4666 76.741 98.4662 76.8026C98.4638 76.9302 98.4113 77.0515 98.32 77.1404C98.2287 77.2295 98.1059 77.2788 97.9784 77.2777H94.1717C94.0201 77.2752 93.8695 77.3026 93.7285 77.3582C93.5875 77.414 93.4589 77.497 93.3501 77.6024C93.2412 77.7079 93.1543 77.8339 93.0942 77.973C93.0341 78.1123 93.0021 78.2619 93 78.4135V80.7425C93.0043 81.0478 93.1295 81.3388 93.3482 81.5517C93.5669 81.7646 93.8611 81.8822 94.1663 81.8782H97.9784C99.3434 81.8966 100.66 81.3723 101.639 80.4205C102.617 79.4689 103.178 78.1676 103.198 76.8026C103.2 76.1307 103.065 75.4653 102.803 74.8467C102.541 74.2281 102.156 73.6688 101.672 73.2029L97.8686 69.5347C97.8242 69.4919 97.789 69.4404 97.7652 69.3835C97.7414 69.3265 97.7294 69.2653 97.7301 69.2035C97.731 69.1402 97.7444 69.0777 97.7695 69.0196C97.7946 68.9615 97.831 68.9087 97.8764 68.8646C97.9219 68.8205 97.9756 68.7858 98.0345 68.7624C98.0934 68.739 98.1563 68.7275 98.2196 68.7284H102.023C102.211 68.7302 102.396 68.6868 102.564 68.6019C102.731 68.5169 102.876 68.3931 102.986 68.2406C103.002 68.2181 103.017 68.1947 103.031 68.1704L103.045 68.147C103.051 68.1373 103.056 68.127 103.061 68.1164C103.144 67.9593 103.187 67.7845 103.187 67.6071V65.2618C103.183 64.9569 103.058 64.6663 102.84 64.4533C102.621 64.2404 102.328 64.1229 102.023 64.1261ZM116.042 64.0703H113.652C113.346 64.0665 113.052 64.1841 112.833 64.397C112.615 64.6099 112.49 64.901 112.485 65.206V70.9656L109.053 65.206C108.784 64.7651 108.38 64.4229 107.901 64.2305C107.422 64.0381 106.894 64.0059 106.395 64.1387C105.899 64.2636 105.458 64.5494 105.142 64.9514C104.826 65.3531 104.652 65.8484 104.647 66.3598V80.6759C104.649 80.8273 104.68 80.9767 104.74 81.1158C104.8 81.2547 104.886 81.3807 104.994 81.4864C105.103 81.5919 105.231 81.6752 105.371 81.7313C105.512 81.7875 105.662 81.8154 105.813 81.8134H108.205C108.51 81.8192 108.805 81.704 109.025 81.4927C109.245 81.2816 109.372 80.9916 109.379 80.6867V79.3296V74.9199C111.069 77.7547 112.809 80.6795 112.809 80.6795C113.078 81.1208 113.482 81.4632 113.961 81.6556C114.44 81.848 114.969 81.88 115.468 81.7468C115.964 81.6223 116.404 81.3366 116.721 80.9347C117.037 80.5328 117.211 80.0373 117.215 79.5258V65.2078C117.214 65.0558 117.182 64.9055 117.121 64.7656C117.061 64.6259 116.974 64.4994 116.864 64.3938C116.755 64.2879 116.625 64.205 116.484 64.1493C116.342 64.0939 116.19 64.0671 116.038 64.0703H116.042ZM143.243 80.3537L138.448 65.8972C138.283 65.4235 137.974 65.0129 137.564 64.7226C137.155 64.4321 136.666 64.276 136.164 64.276C135.662 64.276 135.172 64.4321 134.763 64.7226C134.353 65.0129 134.044 65.4235 133.879 65.8972L129.084 80.3537C129.05 80.4621 129.032 80.5749 129.032 80.6885C129.036 80.9938 129.161 81.2848 129.38 81.4977C129.598 81.7106 129.893 81.8282 130.198 81.8242H132.793C133.042 81.8264 133.285 81.7486 133.487 81.6027C133.688 81.4565 133.837 81.2497 133.913 81.0125C134.604 78.93 135.394 76.5488 136.166 74.2198C136.94 76.5506 137.729 78.9318 138.42 81.0125C138.495 81.2497 138.644 81.4565 138.846 81.6027C139.047 81.7486 139.29 81.8264 139.539 81.8242H142.136C142.442 81.8282 142.736 81.7108 142.955 81.4979C143.174 81.285 143.3 80.9939 143.304 80.6885C143.301 80.5746 143.28 80.4617 143.243 80.3537ZM132.509 99.5277L127.714 85.0712C127.548 84.5971 127.239 84.1862 126.829 83.8955C126.42 83.6048 125.93 83.4486 125.427 83.4486C124.925 83.4486 124.435 83.6048 124.025 83.8955C123.616 84.1862 123.307 84.5971 123.141 85.0712L118.346 99.5223C118.311 99.6307 118.294 99.7435 118.294 99.8571C118.295 100.009 118.326 100.158 118.386 100.298C118.445 100.437 118.531 100.563 118.639 100.669C118.747 100.775 118.875 100.859 119.016 100.915C119.156 100.972 119.307 101 119.458 100.998H122.053C122.302 101 122.545 100.923 122.747 100.777C122.948 100.63 123.098 100.424 123.173 100.186C123.864 98.104 125.426 93.2084 125.426 93.2084C125.426 93.2084 126.99 98.104 127.68 100.186C127.755 100.424 127.904 100.631 128.106 100.777C128.307 100.923 128.55 101.001 128.799 100.998H131.395C131.546 101 131.696 100.973 131.837 100.917C131.977 100.861 132.105 100.778 132.213 100.672C132.322 100.567 132.408 100.441 132.468 100.302C132.528 100.163 132.559 100.014 132.561 99.8625C132.561 99.7489 132.544 99.6361 132.509 99.5277ZM182.941 80.3537L181.033 74.6031C181.033 74.5743 181.015 74.5473 181.005 74.5186L180.983 74.4538C180.86 74.1339 180.666 73.8456 180.418 73.6096C181.293 72.6861 181.78 71.4622 181.78 70.1899V69.1405C181.761 67.7813 181.203 66.485 180.229 65.5361C179.256 64.5874 177.945 64.0635 176.586 64.0793H171.222C171.071 64.0772 170.921 64.1049 170.78 64.1609C170.64 64.2168 170.511 64.2998 170.403 64.4053C170.294 64.5107 170.208 64.6366 170.148 64.7755C170.088 64.9145 170.056 65.0639 170.054 65.215V80.6939C170.056 80.8453 170.088 80.9947 170.147 81.1338C170.207 81.2727 170.293 81.3987 170.402 81.5044C170.51 81.6098 170.638 81.6932 170.779 81.7493C170.919 81.8055 171.069 81.8334 171.22 81.8314H173.611C173.916 81.8354 174.211 81.7177 174.43 81.5044C174.649 81.2911 174.774 80.9997 174.779 80.6939V75.2475H176.204C176.939 77.4631 177.768 79.9596 178.118 81.0071C178.193 81.2439 178.342 81.4506 178.543 81.5967C178.744 81.7427 178.987 81.8206 179.235 81.8188H181.831C182.134 81.8217 182.427 81.7047 182.645 81.493C182.862 81.2814 182.988 80.9921 182.993 80.6885C182.993 80.5749 182.976 80.4621 182.941 80.3537ZM174.773 68.6726H176.573C176.697 68.6711 176.815 68.7187 176.904 68.8047C176.992 68.8907 177.043 69.0083 177.045 69.1315V70.1863C177.044 70.2475 177.031 70.3079 177.007 70.3641C176.983 70.4203 176.948 70.4712 176.904 70.5138C176.86 70.5563 176.809 70.59 176.752 70.6125C176.695 70.6352 176.634 70.6463 176.573 70.6452H174.773V68.6654V68.6726ZM158.243 80.3537L156.336 74.6031C156.336 74.5743 156.318 74.5473 156.307 74.5186L156.285 74.4538C156.151 74.1093 155.937 73.8013 155.661 73.5554C155.384 73.3094 155.054 73.1325 154.696 73.0391L155.016 72.0707L157.176 65.5552C157.211 65.447 157.228 65.3342 157.228 65.2204C157.224 64.9154 157.099 64.6243 156.88 64.4114C156.661 64.1983 156.367 64.0809 156.062 64.0847H153.463C153.214 64.0827 152.972 64.1605 152.771 64.3066C152.569 64.4528 152.42 64.6594 152.345 64.8965L149.752 72.7133C149.752 72.7133 149.752 72.7133 149.752 72.7223C149.751 72.7253 149.751 72.7284 149.752 72.7313C149.746 72.7475 149.743 72.7646 149.743 72.7817C149.743 72.8296 149.762 72.8753 149.795 72.9089C149.829 72.9428 149.875 72.9617 149.923 72.9617H150.743L153.413 81.0197C153.488 81.2567 153.637 81.4635 153.838 81.6097C154.039 81.7556 154.282 81.8334 154.53 81.8314H157.126C157.431 81.8354 157.725 81.7178 157.944 81.5049C158.163 81.292 158.288 81.001 158.292 80.6957C158.294 80.58 158.278 80.4644 158.243 80.3537ZM93.4158 50.7819C93.4527 51.6383 93.8275 52.445 94.458 53.0256C95.0885 53.6061 95.9233 53.9131 96.7797 53.8795H182.599V46.7304H93.4158V50.7819ZM179.194 18.7191C178.505 18.7044 177.828 18.8999 177.252 19.2797C176.677 19.6594 176.231 20.2053 175.974 20.8448C173.661 25.1284 174.394 28.3106 165.254 27.2037C156.667 26.167 156.919 22.2991 154.159 18.8163C154.81 17.9725 155.244 16.9824 155.424 15.9323C155.603 14.8823 155.523 13.8042 155.191 12.7922C154.399 10.4253 153.047 10.6773 150.729 11.9678L142.511 16.0445L142.12 15.2904C142.061 15.1804 141.962 15.0976 141.843 15.0593C141.724 15.021 141.595 15.0303 141.483 15.0852L137.899 16.8473C137.845 16.8735 137.795 16.9105 137.755 16.9561C137.714 17.0016 137.684 17.0548 137.664 17.1125C137.644 17.1702 137.636 17.2312 137.641 17.292C137.645 17.3528 137.661 17.4121 137.689 17.4664L138.088 18.2404L136.148 19.2051L135.752 18.4401C135.693 18.3312 135.593 18.2496 135.475 18.2123C135.356 18.1751 135.228 18.1851 135.117 18.2404L131.533 20.0042C131.478 20.0307 131.429 20.0679 131.389 20.1136C131.348 20.1593 131.317 20.2126 131.298 20.2705C131.278 20.3283 131.27 20.3895 131.274 20.4504C131.279 20.5113 131.295 20.5707 131.323 20.6252L131.728 21.4081L129.786 22.3729L129.399 21.6241C129.339 21.5144 129.24 21.432 129.121 21.3941C129.002 21.3561 128.874 21.3657 128.762 21.4207L125.18 23.181C125.125 23.2073 125.075 23.2443 125.035 23.29C124.994 23.3357 124.963 23.3891 124.943 23.447C124.924 23.5049 124.916 23.5661 124.92 23.6271C124.925 23.6881 124.941 23.7475 124.969 23.8019L125.367 24.5687L123.418 25.5262L123.04 24.7955C122.981 24.6852 122.882 24.602 122.763 24.5637C122.644 24.5254 122.515 24.5349 122.403 24.5903L118.821 26.3506C118.766 26.3769 118.717 26.4138 118.676 26.4594C118.636 26.5049 118.605 26.5581 118.585 26.6158C118.566 26.6735 118.558 26.7345 118.562 26.7953C118.566 26.8561 118.583 26.9154 118.61 26.9697L118.999 27.7185L115.399 29.5021C113.419 30.726 115.272 31.6079 112.446 32.4323H112.577C106.405 34.4751 102.104 36.023 97.9982 37.3315C92.8596 38.9748 93.396 42.9453 93.396 45.0385H181.373C181.533 45.041 181.691 45.0119 181.839 44.953C181.987 44.8944 182.121 44.8069 182.235 44.6958C182.349 44.5848 182.44 44.4523 182.503 44.3062C182.566 44.1598 182.599 44.0027 182.601 43.8434V21.8545C182.564 20.9874 182.184 20.1705 181.545 19.5828C180.907 18.9951 180.061 18.6845 179.194 18.7191ZM122.635 40.6774C122.286 40.8018 121.903 40.7849 121.567 40.6306C121.231 40.4762 120.968 40.1967 120.835 39.8513L118.887 34.5723C118.826 34.4017 118.799 34.2204 118.808 34.0394C118.818 33.8581 118.863 33.6806 118.942 33.5172C119.021 33.354 119.132 33.208 119.268 33.0881C119.404 32.9683 119.563 32.8768 119.735 32.8192C120.084 32.695 120.467 32.7118 120.803 32.8662C121.139 33.0205 121.402 33.3002 121.535 33.6454L123.483 38.9244C123.544 39.095 123.571 39.2761 123.561 39.457C123.552 39.638 123.506 39.8153 123.427 39.9784C123.348 40.1416 123.237 40.2872 123.101 40.4069C122.965 40.5268 122.807 40.6181 122.635 40.6756V40.6774ZM138.558 40.717C138.21 40.8423 137.826 40.8259 137.49 40.6715C137.153 40.5171 136.891 40.2368 136.758 39.8909L132.919 29.4859C132.858 29.3154 132.831 29.1344 132.841 28.9533C132.85 28.7724 132.896 28.5951 132.975 28.4319C133.054 28.2688 133.164 28.1231 133.3 28.0034C133.437 27.8836 133.595 27.7923 133.767 27.7347C134.115 27.6094 134.499 27.6258 134.836 27.7803C135.172 27.9347 135.435 28.215 135.567 28.5608L139.406 38.9658C139.467 39.1364 139.493 39.3173 139.484 39.4982C139.474 39.6791 139.428 39.8562 139.349 40.0192C139.27 40.1821 139.159 40.3277 139.023 40.4472C138.887 40.5668 138.728 40.6578 138.556 40.7152L138.558 40.717ZM158.512 39.7631C158.207 40.2282 157.734 40.5567 157.192 40.6792C156.65 40.8018 156.081 40.7089 155.607 40.4201C155.305 40.2395 155.054 39.9838 154.88 39.6778C154.706 39.372 154.614 39.0262 154.613 38.6742C154.614 38.2912 154.724 37.9165 154.932 37.5943L155.977 35.9618C151.561 34.102 147.907 30.7976 145.614 26.5899C145.422 26.276 145.321 25.9155 145.32 25.5478C145.322 25.1872 145.418 24.8333 145.601 24.5222C145.783 24.2111 146.045 23.9539 146.359 23.7767C146.839 23.5011 147.407 23.422 147.944 23.5563C148.481 23.6905 148.945 24.0276 149.239 24.4967C150.305 26.5512 151.789 28.36 153.596 29.807C155.403 31.2539 157.492 32.307 159.73 32.8984L162.415 33.649L158.512 39.7631Z" fill="#222222"/>
</svg>