<svg width="38" height="38" viewBox="0 0 38 38" fill="none" xmlns="http://www.w3.org/2000/svg">
<path d="M0 19C0 8.50826 8.50826 0 19 0C29.4917 0 38 8.50826 38 19C38 29.4917 29.4917 38 19 38C8.50826 38 0 29.4917 0 19Z" fill="#862165"/>
<path d="M27.2482 14.5199L29.6835 14.0834V23.4264H27.2482V14.5199ZM30.8016 14.5199V23.4264H33.2369V14.0834L30.8016 14.5199ZM23.779 23.4264H26.2143V16.5953H23.779V23.4264ZM7.68915 17.5602C7.38282 17.5372 6.6706 17.4913 6.6706 16.8556C6.6706 16.0822 7.6968 16.0822 8.07971 16.0822C8.75364 16.0822 9.63433 16.2813 10.2546 16.4727C10.2546 16.4727 10.6069 16.5953 10.8979 16.7178L10.9286 16.7255V14.6041L10.8903 14.5965C10.1551 14.3361 9.28971 14.091 7.70446 14.091C4.96283 14.091 3.99023 15.6916 3.99023 17.0624C3.99023 17.8512 4.3272 19.7122 7.47472 19.9266C7.74275 19.9419 8.44731 19.9802 8.44731 20.6465C8.44731 21.1902 7.86528 21.5195 6.89269 21.5195C5.8282 21.5195 4.78669 21.2514 4.15871 20.9911V23.1737C5.10067 23.4187 6.15751 23.5413 7.40579 23.5413C10.0862 23.5413 11.2885 22.0326 11.2885 20.5316C11.2885 18.8161 9.94832 17.7134 7.68915 17.5602ZM22.4082 16.4957C20.1567 16.5646 19.0156 17.5755 19.0156 19.582V23.4264H21.4739V20.2942C21.4739 19.0918 21.6347 18.5787 23.0592 18.5251V16.5263C22.8141 16.4804 22.4082 16.4957 22.4082 16.4957ZM15.7992 16.5876C15.7456 16.7255 15.355 17.8282 14.413 18.9693V14.091L11.9012 14.5888V23.434H14.413V20.7001C15.1406 21.7875 15.5005 23.434 15.5005 23.434H18.5102C18.2115 22.1934 16.9096 19.9113 16.9096 19.9113C18.0813 18.4332 18.5944 16.848 18.671 16.5876H15.7992ZM24.9967 15.9367C25.6629 15.9367 26.199 15.4006 26.199 14.7343C26.199 14.0681 25.6629 13.532 24.9967 13.532C24.3381 13.532 23.7943 14.0681 23.7943 14.7343C23.7943 15.4006 24.3304 15.9367 24.9967 15.9367Z" fill="white"/>
</svg>
