<svg width="38" height="38" viewBox="0 0 38 38" fill="none" xmlns="http://www.w3.org/2000/svg">
<path fill-rule="evenodd" clip-rule="evenodd" d="M6.14505 14.425C4.84859 14.4522 3.72366 15.4072 3.73068 16.931C3.73596 17.8165 4.41922 18.5149 5.08842 19.2537C6.11958 20.3932 6.42266 20.192 6.37566 21.3455C6.35831 21.7689 5.6577 22.4291 4.90372 22.4269C3.78779 22.4247 3.00745 21.3538 3.31778 20.0589H2.99537L2.14453 23.1398H2.46716C2.56073 22.8236 3.19633 22.8517 3.45549 22.8411C3.94306 22.8201 4.22023 23.2123 5.22613 23.2084C6.601 23.2031 7.95237 22.3044 7.93941 20.6334C7.93217 19.7668 7.40089 19.1769 6.69698 18.4947C5.61575 17.4449 5.1945 16.9433 5.38734 16.1038C5.54547 15.4081 6.04227 15.2135 6.53687 15.2064C7.46194 15.195 7.85969 16.1702 7.98532 17.184H8.28401L9.04282 14.6086H8.72085C8.65035 14.9135 8.27808 14.9288 7.98532 14.9073C7.85244 14.8981 7.77821 14.9249 7.45579 14.8155C7.11317 14.6991 6.57135 14.4162 6.14505 14.425ZM9.38764 14.7694L9.29583 15.2754C9.80383 15.2776 9.98744 15.2662 9.98547 16.2185V23.1398C9.98547 23.1398 10.119 23.4438 10.3079 23.1398C10.4957 22.8359 13.5496 17.7818 13.5496 17.7818V17.943L13.527 23.1398C13.527 23.1398 13.7207 23.4438 13.9177 23.1398C14.1145 22.8359 18.3322 15.8737 18.3322 15.8737C18.525 15.5275 18.6709 15.2877 19.1604 15.2754L19.2746 14.7694H16.6767L16.5851 15.2754C17.1541 15.2767 17.5328 15.1867 17.5508 15.5284C17.558 15.6716 17.5328 15.7867 17.4357 15.9655L15.2965 19.4606L15.2508 19.3917V16.2185C15.2528 16.0753 15.2539 15.9343 15.2508 15.8271C15.2374 15.2886 15.3855 15.2767 15.8025 15.2754L15.8954 14.7694H12.9974L12.9059 15.2754C13.3425 15.2877 13.5331 15.4142 13.527 15.8038V16.5167L11.6645 19.5292L11.5949 19.5757V16.1956C11.5949 16.0762 11.596 15.8895 11.5949 15.7581C11.5931 15.5745 11.5532 15.2767 12.0774 15.2754L12.2162 14.7694H9.38764ZM19.6664 14.7694L19.5738 15.2754C19.8112 15.2631 20.0541 15.3531 20.0796 15.6207C20.0908 15.7366 20.0225 15.9079 19.9654 16.1267L18.3781 22.036C18.2841 22.4282 17.8121 22.6391 17.1827 22.6338L17.0909 23.1398H20.4712L20.5854 22.6338C19.9886 22.6215 20.0266 22.4563 20.0337 22.2433C20.0387 22.1098 20.1028 21.9863 20.149 21.8291L21.7584 15.8965C21.9238 15.3417 22.3235 15.2877 22.9317 15.2754L23.0459 14.7694H19.6664ZM23.506 14.7694L23.3916 15.2754C23.8945 15.3132 24.6094 15.3083 24.4258 15.8965C24.386 16.0252 24.4297 15.9659 24.3801 16.1719L22.8387 21.9209C22.7195 22.4542 22.3459 22.6215 21.8963 22.6338L21.7584 23.1398H25.3458L25.4835 22.6338C24.6992 22.6316 24.3819 22.5266 24.5411 21.9209C24.5749 21.7913 24.639 21.5633 24.6786 21.3692L25.4141 18.8395H25.5755C26.2772 18.8373 26.4749 18.9243 26.4953 19.2999C26.5087 19.5406 26.5015 19.736 26.518 19.8748H26.9096L27.5074 17.4146L27.185 17.368C26.8535 18.2153 26.1466 18.2272 25.8977 18.2193H25.5755L26.0811 16.1956C26.3016 15.448 26.373 15.4889 26.9322 15.4827C27.9071 15.4704 28.4856 15.6303 28.4037 17.0008H28.725L29.3239 14.7694H23.506ZM29.7829 14.7694L29.1627 17.0008H29.5302C29.7107 16.3771 29.7146 16.2725 30.0816 15.9426C30.4592 15.6123 30.8651 15.4827 31.5079 15.4827L29.8299 21.6222C29.7124 22.6246 29.1361 22.6215 28.4037 22.6338L28.2886 23.1398H32.0829L32.1749 22.6799C31.6893 22.7252 31.3906 22.4054 31.4855 22.036C31.5209 21.8932 31.5883 21.6824 31.6454 21.439L33.2094 15.4827C34.4006 15.4819 34.6391 15.9598 34.5658 17.0008H34.9106L35.5091 14.7694H29.7829ZM15.412 22.1963C15.213 22.1963 15.0031 22.4454 14.9519 22.748C14.901 23.052 15.0283 23.2997 15.2284 23.2997C15.4272 23.301 15.6372 23.052 15.6883 22.748C15.7393 22.4454 15.6108 22.1972 15.412 22.1963ZM21.2983 22.1963C21.0995 22.1963 20.8893 22.4454 20.8384 22.748C20.7872 23.052 20.9159 23.2997 21.1149 23.2997C21.3139 23.301 21.5241 23.052 21.575 22.748C21.626 22.4454 21.4975 22.1972 21.2983 22.1963ZM26.3578 22.1963C26.158 22.1963 25.9487 22.4454 25.8977 22.748C25.8459 23.052 25.9509 23.2997 26.1507 23.2997C26.3495 23.301 26.5586 23.052 26.6109 22.748C26.6618 22.4454 26.5568 22.1972 26.3578 22.1963ZM8.23811 22.22C8.03934 22.2192 7.85244 22.4678 7.80171 22.7717C7.74965 23.0757 7.85464 23.3226 8.0545 23.3239C8.25348 23.3243 8.46279 23.0757 8.51374 22.7717C8.56557 22.4678 8.43709 22.2209 8.23811 22.22ZM33.1173 22.22C32.9184 22.2192 32.7084 22.4678 32.6572 22.7717C32.6063 23.0757 32.735 23.3226 32.9339 23.3239C33.1325 23.3243 33.3427 23.0757 33.3938 22.7717C33.4446 22.4678 33.3163 22.2209 33.1173 22.22Z" fill="white"/>
<path d="M16.6974 1.09858C12.6776 1.61075 9.07173 3.44376 6.32792 6.15002H11.6179C13.309 3.74334 15.3287 2.0667 16.6974 1.09858ZM5.56405 5.56537C9.00254 2.12688 13.7516 0 18.9987 0C24.2445 0 28.9946 2.12688 32.4331 5.56537C35.8718 9.00386 37.9971 13.754 37.9971 19C37.9971 24.2456 35.8718 28.9961 32.4331 32.4346C28.9946 35.8731 24.2445 38 18.9987 38C13.7516 38 9.00254 35.8731 5.56405 32.4346C2.12556 28.9961 0 24.2456 0 19C0 13.754 2.12556 9.00386 5.56405 5.56537ZM5.42942 7.10232C4.05345 8.67178 2.94455 10.4806 2.17453 12.4586H8.85166C9.27291 10.4156 10.053 8.63137 10.9915 7.10232H5.42942ZM1.83389 13.4114C1.26176 15.1706 0.952525 17.0497 0.952525 19C0.952525 20.9617 1.26462 22.8492 1.844 24.6172H36.1531C36.7325 22.8492 37.0446 20.9617 37.0446 19C37.0446 17.0497 36.7356 15.1706 36.1632 13.4114H1.83389ZM2.18552 25.5699C2.9597 27.5497 4.07256 29.3581 5.4549 30.9262H11.1046C10.1754 29.3989 9.40227 27.6151 8.98519 25.5699H2.18552ZM6.35757 31.8785C9.12773 34.5988 12.7736 36.4319 16.8321 36.9172C15.5121 36.0023 13.62 34.4631 12.0154 32.2844C11.9177 32.1518 11.8206 32.0165 11.725 31.8785H6.35757ZM18.4703 37.0389H18.4938V31.8785H12.899C15.4704 35.3012 18.4703 36.9765 18.4703 36.9765V37.0389ZM21.2905 36.9027C25.2991 36.3941 28.8977 34.5703 31.6396 31.8785H26.3151C24.6352 34.2808 22.6362 35.9465 21.2905 36.9027ZM32.5422 30.9262C33.9246 29.3581 35.0374 27.5497 35.8116 25.5699H29.0732C28.6489 27.616 27.8716 29.3989 26.9384 30.9262H32.5422ZM35.8226 12.4586C35.0526 10.4806 33.9439 8.67178 32.5677 7.10232H26.8108C27.7309 8.63357 28.4978 10.4183 28.91 12.4586H35.8226ZM31.6692 6.15002C28.91 3.42927 25.28 1.59011 21.2343 1.09111C22.5676 2.06187 24.5425 3.74465 26.1968 6.15002H31.6692ZM9.82263 12.4586H18.4938V7.10232H12.1125C11.12 8.60633 10.2773 10.3902 9.82263 12.4586ZM19.4465 12.4586H27.9399C27.4963 10.3928 26.6701 8.60941 25.698 7.10232H19.4465V12.4586ZM28.1012 25.5699H19.4465V30.9262H25.8194C26.8049 29.4244 27.6443 27.6415 28.1012 25.5699ZM18.4938 25.5699H9.95507C10.4051 27.6384 11.2423 29.4222 12.2289 30.9262H18.4938V25.5699ZM25.1472 31.8785H19.4465V36.9647C20.0634 36.6146 22.836 34.9419 25.1472 31.8785ZM12.7878 6.15002H18.4938V1.06476C17.704 1.5207 15.0247 3.20042 12.7878 6.15002ZM19.4465 6.15002H25.038C22.8257 3.16396 20.1726 1.47151 19.4465 1.0406V6.15002Z" fill="white"/>
</svg>
