<svg width="34" height="38" viewBox="0 0 34 38" fill="none" xmlns="http://www.w3.org/2000/svg">
<path fill-rule="evenodd" clip-rule="evenodd" d="M9.26932 15.1213C9.07118 15.3133 9.0101 15.6072 9.11393 15.863C9.21775 16.1181 9.46612 16.2857 9.7423 16.2857C11.8384 16.2857 15.3676 16.2857 17.0939 16.2857C17.3206 16.2857 17.5316 16.3984 17.6578 16.5863C17.7834 16.7743 17.8078 17.0125 17.7216 17.2221C17.4305 17.9306 17.0451 18.8704 16.8252 19.4051C16.7207 19.6596 16.4724 19.8258 16.1975 19.8258C14.0139 19.8258 4.55734 19.8258 0.678626 19.8258C0.402447 19.8258 0.154073 19.6589 0.0502512 19.4031C-0.0542488 19.1472 0.00751978 18.8541 0.204984 18.6614C2.49245 16.4336 7.38563 11.668 8.79841 10.2926C9.02641 10.0707 9.06916 9.72054 8.90291 9.45047C7.9753 7.94472 5.02759 3.1601 3.71795 1.03482C3.58902 0.825139 3.58359 0.562531 3.7037 0.347424C3.82313 0.132996 4.04976 0 4.29609 0C9.34669 0 28.6344 0 33.2826 0C33.5093 0 33.7203 0.112638 33.8465 0.300602C33.9727 0.488567 33.9965 0.726753 33.9103 0.936432C31.6744 6.38061 20.3945 33.8444 18.8609 37.5793C18.7564 37.8338 18.5081 38 18.2333 38C17.3654 38 15.4559 38 14.2718 38C14.0451 38 13.8341 37.8874 13.7079 37.6994C13.5817 37.5114 13.5579 37.2732 13.6441 37.0636C15.6615 32.1507 25.0101 9.38938 27.0275 4.47653C27.1137 4.26753 27.09 4.02936 26.9637 3.8414C26.8375 3.65344 26.6265 3.54011 26.3999 3.54011C23.4827 3.54011 15.063 3.54011 11.9056 3.54011C11.6599 3.54011 11.4333 3.67311 11.3132 3.88822C11.1931 4.10265 11.1985 4.36525 11.3281 4.57493C12.1933 5.97957 13.7045 8.43261 14.3315 9.45047C14.4977 9.72054 14.455 10.0707 14.227 10.2926C13.2702 11.2242 10.7717 13.6576 9.26932 15.1213Z" fill="#57B7EB"/>
</svg>
