<svg width="16" height="16" viewBox="0 0 16 16" fill="none" xmlns="http://www.w3.org/2000/svg">
<g clip-path="url(#clip0_97_773)">
<path d="M16 2.66602H0V13.3328H16V2.66602Z" fill="#F0F0F0"/>
<path d="M9 2.66602H7V6.99933H0V8.99933H7V13.3326H9V8.99933H16V6.99933H9V2.66602Z" fill="#D80027"/>
<path d="M12.3058 9.85449L16 11.9069V9.85449H12.3058Z" fill="#0052B4"/>
<path d="M9.73914 9.85449L16 13.3327V12.3492L11.5096 9.85449H9.73914Z" fill="#0052B4"/>
<path d="M14.3323 13.3333L9.73914 10.7812V13.3333H14.3323Z" fill="#0052B4"/>
<path d="M9.73914 9.85449L16 13.3327V12.3492L11.5096 9.85449H9.73914Z" fill="#F0F0F0"/>
<path d="M9.73914 9.85449L16 13.3327V12.3492L11.5096 9.85449H9.73914Z" fill="#D80027"/>
<path d="M2.82316 9.85449L0 11.4229V9.85449H2.82316Z" fill="#0052B4"/>
<path d="M6.26085 10.2969V13.3328H0.79657L6.26085 10.2969Z" fill="#0052B4"/>
<path d="M4.49041 9.85449L0 12.3492V13.3327L6.26088 9.85449H4.49041Z" fill="#D80027"/>
<path d="M3.69422 6.14515L0 4.09277V6.14515H3.69422Z" fill="#0052B4"/>
<path d="M6.26088 6.14426L0 2.66602V3.64958L4.49041 6.14426H6.26088Z" fill="#0052B4"/>
<path d="M1.66766 2.66602L6.26085 5.21801V2.66602H1.66766Z" fill="#0052B4"/>
<path d="M6.26088 6.14426L0 2.66602V3.64958L4.49041 6.14426H6.26088Z" fill="#F0F0F0"/>
<path d="M6.26088 6.14426L0 2.66602V3.64958L4.49041 6.14426H6.26088Z" fill="#D80027"/>
<path d="M13.1768 6.14461L16 4.57617V6.14461H13.1768Z" fill="#0052B4"/>
<path d="M9.73914 5.70296V2.66699H15.2034L9.73914 5.70296Z" fill="#0052B4"/>
<path d="M11.5096 6.14426L16 3.64958V2.66602L9.73914 6.14426H11.5096Z" fill="#D80027"/>
</g>
<defs>
<clipPath id="clip0_97_773">
<rect width="16" height="16" fill="white"/>
</clipPath>
</defs>
</svg>
