<svg width="18" height="18" viewBox="0 0 18 18" fill="none" xmlns="http://www.w3.org/2000/svg">
<g clip-path="url(#clip0_537_1054)">
<path d="M17 9L15.2255 6.87429L15.4727 4.06286L12.8473 3.4381L11.4727 1L9 2.11238L6.52727 1L5.15273 3.43048L2.52727 4.04762L2.77455 6.86667L1 9L2.77455 11.1257L2.52727 13.9448L5.15273 14.5695L6.52727 17L9 15.88L11.4727 16.9924L12.8473 14.5619L15.4727 13.9371L15.2255 11.1257L17 9ZM7.61091 12.5962L4.84727 9.69333L5.92364 8.56571L7.61091 10.341L11.8655 5.86857L12.9418 6.99619L7.61091 12.5962Z" fill="#66FF66"/>
</g>
<defs>
<clipPath id="clip0_537_1054">
<rect width="16" height="16" fill="white" transform="translate(1 1)"/>
</clipPath>
</defs>
</svg>
