<svg width="16" height="16" viewBox="0 0 16 16" fill="none" xmlns="http://www.w3.org/2000/svg">
<path d="M6.10872 12.9775C6.32454 12.9775 6.50163 12.9001 6.64551 12.7562L10.89 8.61133C11.0781 8.42318 11.1722 8.22949 11.1722 7.99154C11.1722 7.75358 11.0837 7.55436 10.89 7.37175L6.64551 3.22135C6.49609 3.07747 6.31901 3 6.10872 3C5.68262 3 5.33398 3.3431 5.33398 3.76921C5.33398 3.97949 5.42253 4.17871 5.57747 4.33366L9.3405 7.99154L5.57747 11.6439C5.42253 11.7988 5.33398 11.998 5.33398 12.2083C5.33398 12.6344 5.68262 12.9775 6.10872 12.9775Z" fill="white"/>
</svg>
